<svg xmlns="http://www.w3.org/2000/svg" width="75" height="75" viewBox="0 0 75 75">
  <path fill="#0081FF" fill-rule="evenodd" d="M18.4393398,43.5572619 L18.3571816,43.468227 L18.3571816,43.468227 L18.3246571,43.4287958 L18.3246571,43.4287958 C18.3030719,43.4014981 18.2822029,43.3732633 18.2623246,43.3442955 L18.2407349,43.3121865 L18.2407349,43.3121865 C18.2245373,43.2869806 18.2090418,43.2614696 18.1943002,43.235475 L18.1649729,43.1813754 L18.1649729,43.1813754 C18.0594695,42.975755 18,42.7431233 18,42.4966017 C18,42.3485487 18.0214496,42.2055056 18.0614107,42.0704103 C18.0945876,41.9584108 18.1410499,41.8494025 18.2008753,41.7460084 C18.2136118,41.7242664 18.2266026,41.7030775 18.240096,41.6822445 L18.2622066,41.6488572 L18.2622066,41.6488572 C18.2822029,41.6199402 18.3030719,41.5917053 18.3248825,41.5642523 C18.3351524,41.5512084 18.3459023,41.5381451 18.3569066,41.5252243 C18.37727,41.5013717 18.3980768,41.4783971 18.4195681,41.4560865 C18.425929,41.4494783 18.4325956,41.4426858 18.4393398,41.4359415 L18.4594848,41.4161698 L18.4910322,41.3866398 L18.4910322,41.3866398 L18.5071173,41.3721761 L18.5071173,41.3721761 L18.516,41.364 L18.5777655,41.3134078 L18.5777655,41.3134078 L18.6255025,41.2777523 L18.6255025,41.2777523 C18.6472286,41.2619879 18.6691055,41.2471286 18.6912748,41.2329109 C18.7204121,41.2143624 18.7507906,41.1963355 18.7818347,41.179374 C18.7901486,41.1747157 18.798241,41.1703984 18.806364,41.1661605 C18.8415528,41.1478809 18.8775803,41.1308427 18.9143594,41.1152304 C18.9226223,41.1117189 18.931051,41.108239 18.9395044,41.1048391 C19.0139212,41.0748471 19.0909803,41.0507348 19.170421,41.0329243 C19.184708,41.0298559 19.199092,41.0268518 19.2135091,41.0240605 L19.35554,41.0034683 L19.5,40.9966017 L54.5,40.9966017 C55.3284271,40.9966017 56,41.6681746 56,42.4966017 C56,43.3250288 55.3284271,43.9966017 54.5,43.9966017 L23.122,43.9972034 L31.1672619,52.0425433 C31.7530483,52.6283297 31.7530483,53.5780772 31.1672619,54.1638636 C30.5814755,54.74965 29.631728,54.74965 29.0459415,54.1638636 L18.4176117,43.5350821 L18.392,43.508 L18.4393398,43.5572619 Z M44.9540585,19.8293398 L55.5606602,30.4359415 L55.6428184,30.5249765 L55.6428184,30.5249765 L55.613,30.491 C55.6392795,30.5203458 55.6576719,30.5421841 55.6753429,30.5644076 C55.6969281,30.5917053 55.7177971,30.6199402 55.7376754,30.648908 C55.7451035,30.6595048 55.7522607,30.6702257 55.7592651,30.681017 C55.7754627,30.7062228 55.7909582,30.7317338 55.8056998,30.7577284 L55.8350271,30.811828 L55.8350271,30.811828 C55.9405305,31.0174484 56,31.2500802 56,31.4966017 C56,31.6446547 55.9785504,31.7876979 55.9385893,31.9227932 C55.9054124,32.0347926 55.8589501,32.1438009 55.7991247,32.2471951 C55.7863882,32.268937 55.7733974,32.2901259 55.759904,32.3109589 L55.7377934,32.3443462 L55.7377934,32.3443462 C55.7177971,32.3732633 55.6969281,32.4014981 55.6751175,32.4289511 C55.6648476,32.4419951 55.6540977,32.4550584 55.6430934,32.4679792 C55.62273,32.4918318 55.6019232,32.5148063 55.5804319,32.5371169 L55.5405152,32.5770336 L55.51,32.604 L55.4928827,32.6210274 L55.4928827,32.6210274 L55.486,32.626 L55.4765796,32.6351854 L55.4765796,32.6351854 L55.483,32.628 L55.4222345,32.6797956 L55.4222345,32.6797956 L55.3744975,32.7154512 L55.3744975,32.7154512 C55.3527714,32.7312155 55.3308945,32.7460748 55.3087252,32.7602926 C55.2795879,32.778841 55.2492094,32.796868 55.2181653,32.8138294 C55.2098514,32.8184877 55.201759,32.8228051 55.193636,32.827043 C55.1584472,32.8453225 55.1224197,32.8623608 55.0856406,32.8779731 C55.0773777,32.8814845 55.068949,32.8849645 55.0604956,32.8883643 C54.9860788,32.9183563 54.9090197,32.9424686 54.829579,32.9602791 C54.815292,32.9633475 54.800908,32.9663517 54.7864909,32.969143 L54.64446,32.9897351 L54.5,32.9966017 L19.5,32.9966017 C18.6715729,32.9966017 18,32.3250288 18,31.4966017 C18,30.6681746 18.6715729,29.9966017 19.5,29.9966017 L50.878,29.996 L42.8327381,21.9506602 C42.2469517,21.3648737 42.2469517,20.4151263 42.8327381,19.8293398 C43.4185245,19.2435534 44.368272,19.2435534 44.9540585,19.8293398 Z"/>
</svg>
