<svg id="安装程序" xmlns="http://www.w3.org/2000/svg" xmlns:xlink="http://www.w3.org/1999/xlink" viewBox="0 0 128 128"><defs><style>.cls-1{font-size:12px;fill:#ffeb3b;font-family:SimHei;}.cls-2{font-size:9px;fill:#fff;}.cls-3{fill:url(#未命名的渐变_26);}.cls-4,.cls-5{fill:#f9f9f9;}.cls-4{fill-rule:evenodd;}</style><linearGradient id="未命名的渐变_26" x1="93.5" y1="115.1" x2="34.5" y2="12.9" gradientUnits="userSpaceOnUse"><stop offset="0" stop-color="#dd4814"/><stop offset="1" stop-color="#dd7514"/></linearGradient></defs><text class="cls-1" transform="translate(0 -68)">128<tspan class="cls-2"><tspan x="0" y="10.8">外框线：128 x 128 px</tspan><tspan x="0" y="21.6">主图案：112 x 112 px</tspan><tspan x="0" y="32.4">圆(不规则形状)：118 x 118 px</tspan><tspan x="0" y="43.2">中心图：80 x 80 px</tspan><tspan x="0" y="54">圆角：12 px</tspan><tspan x="0" y="64.8">线宽：8 px</tspan></tspan></text><g id="_128" data-name="128"><circle class="cls-3" cx="64" cy="64" r="59"/><polygon class="cls-4" points="61 58.58 64.1 54.42 62.94 49.98 64.97 44.08 60.23 48.91 59.55 48.72 60.81 45.72 56.36 50.17 52.1 52.78 47.65 61.1 50.07 67.29 50.94 72.03 51.91 74.45 48.43 78.61 53.26 78.61 53.94 74.25 55.88 71.25 59.07 71.83 62.65 70.38 65.35 69.03 67.97 70.77 64.87 74.45 61.68 77.35 66.61 77.44 66.61 75.51 70.48 72.51 71.83 74.16 67.87 79.86 72.9 79.86 72.7 77.06 76.38 73.67 74.54 69.9 74.25 65.35 78.03 63.23 80.06 63.61 82.96 62.65 83.73 56.84 79.38 58.2 76.67 62.16 72.03 64.58 65.64 61.97 61 58.58"/><circle class="cls-5" cx="85" cy="29" r="8"/><circle class="cls-5" cx="22" cy="64" r="8"/><circle class="cls-5" cx="85" cy="100" r="8"/><path class="cls-5" d="M49.86,83.38a24,24,0,0,1,0-38.79L43,32.33a38,38,0,0,0-15.75,22,11,11,0,0,1,0,19.34A38.06,38.06,0,0,0,42.63,95.42Z"/><path class="cls-5" d="M54.23,42.09A24,24,0,0,1,88,62.5h14A37.83,37.83,0,0,0,91.54,37.83,11,11,0,0,1,74.13,27.38a38,38,0,0,0-26.79,2.46Z"/><path class="cls-5" d="M87.74,67.5A24,24,0,0,1,54.18,85.89L46.94,98A38,38,0,0,0,74,100.65c0-.22,0-.43,0-.65a11,11,0,0,1,17-9.23A37.86,37.86,0,0,0,101.83,67.5Z"/></g></svg>