<?xml version="1.0" encoding="UTF-8"?>
<svg width="20px" height="20px" viewBox="0 0 20 20" version="1.1" xmlns="http://www.w3.org/2000/svg" xmlns:xlink="http://www.w3.org/1999/xlink">
    <title>network-error-unknown-dark</title>
    <g id="network-error-unknown-dark" stroke="none" stroke-width="1" fill="none" fill-rule="evenodd">
        <path d="M10,1.25 C11.3301119,1.25 12.5909056,1.54678648 13.719772,2.07775026 L13.7540556,2.06914552 L13.7616567,2.09758703 C16.7115555,3.50429375 18.75,6.51409478 18.75,10 C18.75,10.4523502 18.7156745,10.8966832 18.649486,11.3305364 C18.0124525,11.144657 17.2975739,11.3029904 16.795974,11.8045903 L16.5,12.099 L16.3272237,12.1242947 C16.2370899,12.1364653 16.1473964,12.1480314 16.0581433,12.1589926 L15.706026,11.8045903 C14.9730608,11.071625 13.7846892,11.071625 13.051724,11.8045903 L12.9228824,11.9471357 C12.7292638,12.1845256 12.602448,12.4582332 12.542435,12.7431977 C10.4252742,13.3304202 8.57186411,14.543259 6.64852991,16.709405 C7.65674191,17.2159153 8.79519518,17.5 10,17.5 C10.8817273,17.5 11.7279172,17.3478461 12.5137457,17.0683622 C12.5549704,17.4826707 12.734913,17.8853314 13.052224,18.2026424 L12.9510143,18.239887 C12.0290533,18.5701144 11.0355339,18.75 10,18.75 C5.16750846,18.75 1.25,14.8324915 1.25,10 C1.25,5.16750844 5.16750844,1.25 10,1.25 Z M13.9356074,12.6884738 C14.1804174,12.4436639 14.5773326,12.4436639 14.8221426,12.6884738 L15.485958,13.3502249 C15.6272699,13.7743486 15.7603465,14.2075963 15.8851861,14.6499531 C16.0340209,14.4618748 16.1740817,14.2663648 16.3047175,14.0640754 L17.6798574,12.6884738 C17.866764,12.5015672 18.1423322,12.4573594 18.37118,12.5558503 C18.1167182,13.3889225 17.7420196,14.1687102 17.2669614,14.8754047 L17.13825,15.0036164 L17.1627292,15.0270008 C16.9199337,15.372311 16.6528008,15.6992701 16.3638232,16.0053853 L16.25075,15.8911164 L14.8724365,17.2689558 C14.7633262,17.3422379 14.6524753,17.4131284 14.5399587,17.4815521 C14.3308775,17.5365452 14.0995807,17.4822322 13.9361074,17.3187589 C13.6912975,17.073949 13.6912975,16.6770337 13.9361074,16.4322238 L14.0692146,16.3011846 C14.3505532,16.1191258 14.6189243,15.9187378 14.8726378,15.7017107 L14.83,15.537 L15.36325,15.0036164 L14.3940211,14.0323998 C14.2478474,13.5766458 14.0920792,13.1321528 13.9267143,12.6988996 Z M5.74661781,9.40873163 C4.82931695,10.905222 4.19041656,12.5989026 3.93638035,14.4158231 C4.32789165,14.9514218 4.78755039,15.4328495 5.30304236,15.8474421 L5.565,16.049 L5.57856307,16.0332185 C7.30073836,14.0597268 8.99871625,12.7787171 10.8462519,12.0077099 C10.3074402,11.888151 9.79485939,11.7315231 9.30848014,11.5383485 C7.98992997,11.0146616 6.80365718,10.288276 5.74661781,9.40873163 Z M3.25282939,6.72109126 L3.20586499,6.81936424 C2.75303399,7.78498558 2.5,8.86294316 2.5,10 C2.5,10.9535635 2.67795648,11.8655631 3.00247043,12.7045997 C3.3848645,11.2114637 4.00447045,9.81482052 4.80683268,8.55156234 C4.30847502,8.05795977 3.86838596,7.54785588 3.48389078,7.03713485 C3.40008004,6.9258099 3.32307631,6.82022869 3.25282939,6.72109126 Z M9.32159012,5.50918752 L9.26278663,5.55236127 C8.32552769,6.25481059 7.46860644,7.08290155 6.72574319,8.01343732 L6.452,8.367 L6.69698544,8.57144381 C7.61801074,9.31435929 8.64175185,9.92856401 9.76988162,10.3766219 C10.7763875,10.7763745 11.9274565,11.0010444 13.2234868,11.0482673 C12.2004433,8.87895498 10.8996635,7.03398378 9.32159012,5.50918752 Z M13.5755642,3.40554575 L13.1971702,3.51764866 C12.2206348,3.8243969 11.2739591,4.25636153 10.3815299,4.79676649 C12.1074012,6.51432682 13.5112157,8.59435696 14.5920933,11.0334204 C15.4906664,10.9876155 16.4493939,10.8663739 17.4684655,10.6704291 C17.4900353,10.4489612 17.5,10.2256443 17.5,10 C17.5,7.15253307 15.9131645,4.6756914 13.5755642,3.40554575 Z M6.55274903,3.33765497 L6.41255946,3.41201268 C5.45084472,3.93681788 4.61672139,4.66607281 3.96860002,5.54136693 C4.07603228,5.71711842 4.24723092,5.97277854 4.48252406,6.28531602 C4.79174862,6.69605584 5.14133417,7.10727781 5.53151018,7.50865419 C6.35481234,6.42957891 7.31461986,5.47046186 8.37229243,4.65856388 C7.79819221,4.18118678 7.19159638,3.74093091 6.55274903,3.33765497 Z M10,2.5 C9.29550337,2.5 8.61369366,2.59713424 7.9672329,2.77874069 C8.47659477,3.13437833 8.96398679,3.5136718 9.43065619,3.91631571 C10.1741249,3.44123426 10.9552349,3.03542023 11.7618521,2.70713764 C11.197488,2.57214974 10.6071697,2.5 10,2.5 Z" id="形状结合" fill="#000000" fill-rule="nonzero"></path>
        <path d="M14.8221426,12.6884738 L16.251,14.1168664 L17.6798574,12.6884738 C17.9246674,12.4436639 18.3215826,12.4436639 18.5663926,12.6884738 C18.8112025,12.9332837 18.8112025,13.330199 18.5663926,13.5750089 L17.137,15.0038664 L18.5658926,16.4322238 C18.8107025,16.6770337 18.8107025,17.073949 18.5658926,17.3187589 C18.3210826,17.5635688 17.9241674,17.5635688 17.6793574,17.3187589 L16.251,15.8898664 L14.8226426,17.3187589 C14.5778326,17.5635688 14.1809174,17.5635688 13.9361074,17.3187589 C13.6912975,17.073949 13.6912975,16.6770337 13.9361074,16.4322238 L15.364,15.0038664 L13.9356074,13.5750089 C13.6907975,13.330199 13.6907975,12.9332837 13.9356074,12.6884738 C14.1804174,12.4436639 14.5773326,12.4436639 14.8221426,12.6884738 Z" id="形状结合" fill="#FF001E" fill-rule="nonzero"></path>
    </g>
</svg>