<svg width="24" height="24" viewBox="0 0 24 24" fill="none" xmlns="http://www.w3.org/2000/svg">
<g opacity="0.8">
<path d="M13.8489 6.04895C13.8275 6.17062 13.761 6.24722 13.6292 6.24722C13.4974 6.24722 13.4321 6.17062 13.4096 6.04895C13.0345 4.28824 13.057 4.2229 11.2095 3.84891C11.0879 3.8275 11 3.74978 11 3.62924C11 3.49744 11.0879 3.42084 11.2095 3.39831C13.057 3.02319 13.0356 2.95785 13.4096 1.20953C13.431 1.08787 13.4974 1 13.6292 1C13.761 1 13.8264 1.08787 13.8489 1.20953C14.224 2.95898 14.2015 3.02431 16.049 3.39831C16.1706 3.41971 16.2585 3.49744 16.2585 3.62924C16.2585 3.74978 16.1706 3.82638 16.049 3.84891C14.2015 4.22403 14.2229 4.28937 13.8489 6.04895Z" fill="#262626"/>
<path d="M5.80855 8.71732C5.77069 8.87633 5.67226 9 5.49937 9C5.32774 9 5.22931 8.87759 5.19145 8.71732L5.1842 8.67676C4.77226 6.37468 4.74549 6.22508 2.28394 5.80855C2.12367 5.77195 2 5.67226 2 5.50063C2 5.32774 2.12367 5.21669 2.28394 5.19272C4.76113 4.76239 4.77249 4.61348 5.19145 2.27132C5.22931 2.11105 5.32774 2 5.49937 2C5.67226 2 5.77069 2.11105 5.80855 2.27132C6.22751 4.61222 6.23887 4.76113 8.71606 5.19272C8.87633 5.21669 9 5.32774 9 5.50063C9 5.67226 8.87633 5.77069 8.71606 5.80855C6.25429 6.2249 6.22775 6.37331 5.81632 8.67384L5.80855 8.71732Z" fill="#262626"/>
<path d="M5.89743 20.6256C5.86272 20.8476 5.71073 21 5.5001 21C5.2787 21 5.1267 20.8476 5.10277 20.6484C4.68518 17.5386 4.58928 17.5202 1.40802 16.9094L1.35086 16.8985C1.15219 16.8517 1.0002 16.7233 1.0002 16.5001C0.997035 16.4014 1.03156 16.3052 1.09673 16.2311C1.1619 16.1571 1.25279 16.1108 1.35086 16.1017C4.58815 15.6445 4.69347 15.5389 5.10277 12.3637C5.10923 12.2634 5.15424 12.1694 5.22833 12.1016C5.30242 12.0338 5.39983 11.9974 5.5001 12.0001C5.71073 12.0001 5.86153 12.1525 5.89743 12.3757C6.27202 15.5041 6.44676 15.4921 9.64934 16.1017C9.84801 16.1365 10 16.2781 10 16.5001C10 16.7341 9.84801 16.8517 9.60267 16.8985C6.42402 17.4145 6.27202 17.4961 5.89743 20.6256Z" fill="#262626"/>
<path fill-rule="evenodd" clip-rule="evenodd" d="M9.20711 9.89287C8.81658 10.2834 8.81658 10.9166 9.20711 11.3071L11.162 13.262L13.4248 10.9993L11.4698 9.04434C11.0793 8.65382 10.4462 8.65382 10.0556 9.04434L9.20711 9.89287ZM14.0904 11.6648L11.8277 13.9275L19.1067 21.2066C19.4972 21.5971 20.1304 21.5971 20.5209 21.2066L21.3695 20.358C21.76 19.9675 21.76 19.3343 21.3695 18.9438L14.0904 11.6648Z" fill="#262626"/>
</g>
</svg>
