<svg width="62" height="26" viewBox="0 0 62 26" fill="none" xmlns="http://www.w3.org/2000/svg">
<g clip-path="url(#clip0_203_20552)">
<rect x="23" y="0.5" width="5" height="5" fill="#E3E3E3"/>
<rect x="28" y="0.5" width="5" height="5" fill="white"/>
<rect x="33" y="0.5" width="5" height="5" fill="#E3E3E3"/>
<rect x="38" y="0.5" width="5" height="5" fill="white"/>
<rect x="43" y="0.5" width="5" height="5" fill="#E3E3E3"/>
<rect x="48" y="0.5" width="5" height="5" fill="white"/>
<rect x="53" y="0.5" width="5" height="5" fill="#E3E3E3"/>
<rect x="58" y="0.5" width="5" height="5" fill="white"/>
<rect width="5" height="5" transform="matrix(-1 0 0 1 33 5.5)" fill="#E3E3E3"/>
<rect width="5" height="5" transform="matrix(-1 0 0 1 28 5.5)" fill="white"/>
<rect width="5" height="5" transform="matrix(-1 0 0 1 43 5.5)" fill="#E3E3E3"/>
<rect width="5" height="5" transform="matrix(-1 0 0 1 38 5.5)" fill="white"/>
<rect width="5" height="5" transform="matrix(-1 0 0 1 53 5.5)" fill="#E3E3E3"/>
<rect width="5" height="5" transform="matrix(-1 0 0 1 48 5.5)" fill="white"/>
<rect width="5" height="5" transform="matrix(-1 0 0 1 63 5.5)" fill="#E3E3E3"/>
<rect width="5" height="5" transform="matrix(-1 0 0 1 58 5.5)" fill="white"/>
<rect x="23" y="10.5" width="5" height="5" fill="#E3E3E3"/>
<rect x="28" y="10.5" width="5" height="5" fill="white"/>
<rect x="33" y="10.5" width="5" height="5" fill="#E3E3E3"/>
<rect x="38" y="10.5" width="5" height="5" fill="white"/>
<rect x="43" y="10.5" width="5" height="5" fill="#E3E3E3"/>
<rect x="48" y="10.5" width="5" height="5" fill="white"/>
<rect x="53" y="10.5" width="5" height="5" fill="#E3E3E3"/>
<rect x="58" y="10.5" width="5" height="5" fill="white"/>
<rect width="5" height="5" transform="matrix(-1 0 0 1 33 15.5)" fill="#E3E3E3"/>
<rect width="5" height="5" transform="matrix(-1 0 0 1 28 15.5)" fill="white"/>
<rect width="5" height="5" transform="matrix(-1 0 0 1 43 15.5)" fill="#E3E3E3"/>
<rect width="5" height="5" transform="matrix(-1 0 0 1 38 15.5)" fill="white"/>
<rect width="5" height="5" transform="matrix(-1 0 0 1 53 15.5)" fill="#E3E3E3"/>
<rect width="5" height="5" transform="matrix(-1 0 0 1 48 15.5)" fill="white"/>
<rect width="5" height="5" transform="matrix(-1 0 0 1 63 15.5)" fill="#E3E3E3"/>
<rect width="5" height="5" transform="matrix(-1 0 0 1 58 15.5)" fill="white"/>
<rect x="23" y="20.5" width="5" height="5" fill="#E3E3E3"/>
<rect x="28" y="20.5" width="5" height="5" fill="white"/>
<rect x="33" y="20.5" width="5" height="5" fill="#E3E3E3"/>
<rect x="38" y="20.5" width="5" height="5" fill="white"/>
<rect x="43" y="20.5" width="5" height="5" fill="#E3E3E3"/>
<rect x="48" y="20.5" width="5" height="5" fill="white"/>
<rect x="53" y="20.5" width="5" height="5" fill="#E3E3E3"/>
<rect x="58" y="20.5" width="5" height="5" fill="white"/>
<path d="M1 5C1 2.79086 2.79086 1 5 1H25V25H5C2.79086 25 1 23.2091 1 21V5Z" fill="#F4F4F4"/>
<path d="M13 21C17.4183 21 21 17.4183 21 13C21 8.58172 17.4183 5 13 5C8.58172 5 5 8.58172 5 13C5 17.4183 8.58172 21 13 21Z" fill="url(#paint0_angular_203_20552)" stroke="url(#paint1_linear_203_20552)" stroke-width="0.2"/>
</g>
<rect x="0.5" y="0.5" width="61" height="25" rx="4.5" stroke="black" stroke-opacity="0.08"/>
<defs>
<radialGradient id="paint0_angular_203_20552" cx="0" cy="0" r="1" gradientUnits="userSpaceOnUse" gradientTransform="translate(13 13) rotate(90) scale(8)">
<stop stop-color="#FC3555"/>
<stop offset="0.194499" stop-color="#FF9D66"/>
<stop offset="0.300729" stop-color="#ECD86C"/>
<stop offset="0.411777" stop-color="#7BE198"/>
<stop offset="0.51535" stop-color="#3BC8ED"/>
<stop offset="0.670983" stop-color="#5B79F6"/>
<stop offset="0.815631" stop-color="#B945F5"/>
<stop offset="0.891381" stop-color="#E436BD"/>
<stop offset="1" stop-color="#F3355D"/>
</radialGradient>
<linearGradient id="paint1_linear_203_20552" x1="576.097" y1="88.1703" x2="1555.65" y2="1181.86" gradientUnits="userSpaceOnUse">
<stop stop-color="white" stop-opacity="0.7"/>
<stop offset="1" stop-opacity="0.4"/>
</linearGradient>
<clipPath id="clip0_203_20552">
<rect x="1" y="1" width="60" height="24" rx="4" fill="white"/>
</clipPath>
</defs>
</svg>
