<svg width="16" height="16" viewBox="0 0 16 16" fill="none" xmlns="http://www.w3.org/2000/svg">
<path d="M12.3263 1.25112C12.487 1.09032 12.7049 1 12.932 1C13.1592 1 13.377 1.09032 13.5377 1.25112L14.7495 2.46476C14.9099 2.62562 15 2.84368 15 3.07103C15 3.29838 14.9099 3.51643 14.7495 3.67729L12.3263 6.1042L13.5377 7.31711C13.6374 7.41682 13.711 7.53964 13.752 7.67466C13.7929 7.80968 13.8 7.95274 13.7725 8.09114C13.745 8.22955 13.6838 8.35902 13.5944 8.46808C13.505 8.57714 13.3901 8.66242 13.2599 8.71635C13.1034 8.78136 12.9311 8.79838 12.765 8.76528C12.5988 8.73217 12.4461 8.65042 12.3263 8.53038L11.5696 7.77245L6.04502 13.3045C5.21487 14.1361 4.16304 14.7104 3.01544 14.9587L2.86586 14.986C2.60128 15.0207 2.33226 14.9906 2.08182 14.8984C1.83138 14.8062 1.60697 14.6546 1.42779 14.4566C1.24861 14.2586 1.12 14.02 1.05297 13.7614C0.985937 13.5027 0.982474 13.2316 1.04288 12.9713C1.30648 11.8386 1.88143 10.8025 2.70264 9.98018L8.23937 4.43596L7.48262 3.67729C7.37784 3.57873 7.29948 3.45536 7.25476 3.31853C7.21004 3.1817 7.20039 3.03581 7.22669 2.89426C7.253 2.75272 7.31442 2.62008 7.4053 2.50853C7.49618 2.39698 7.61361 2.31011 7.74679 2.25591C7.9072 2.19084 8.08354 2.17597 8.25256 2.21325C8.42158 2.25053 8.57536 2.33822 8.69364 2.46476L9.90503 3.67729L12.3274 1.25112H12.3267H12.3263ZM9.14681 5.34554L3.61119 10.8905C3.01985 11.4826 2.58843 12.2155 2.35743 13.0204L2.29406 13.2632C2.28011 13.3234 2.28159 13.3862 2.29836 13.4457C2.31514 13.5052 2.34666 13.5595 2.39 13.6035C2.43334 13.6476 2.4871 13.6799 2.54627 13.6976C2.60544 13.7152 2.6681 13.7176 2.72843 13.7045L2.99002 13.641C3.80184 13.4204 4.54194 12.9909 5.13685 12.3953L10.661 6.86213L9.14755 5.34554H9.14681Z" fill="#262626"/>
</svg>
