<svg width="24" height="24" viewBox="0 0 24 24" fill="none" xmlns="http://www.w3.org/2000/svg">
<g opacity="0.8">
<path fill-rule="evenodd" clip-rule="evenodd" d="M11 3H5C2.79086 3 1 4.79086 1 7V17C1 19.2091 2.79086 21 5 21H11V19H5C3.89543 19 3 18.1046 3 17V7C3 5.89543 3.89543 5 5 5H11V3ZM15 19H19C20.1046 19 21 18.1046 21 17V7C21 5.89543 20.1046 5 19 5H15V3H19C21.2091 3 23 4.79086 23 7V17C23 19.2091 21.2091 21 19 21H15V19Z" fill="#262626"/>
<rect x="11" y="1" width="2" height="22" fill="#262626"/>
</g>
</svg>
