<svg width="16" height="16" viewBox="0 0 16 16" fill="none" xmlns="http://www.w3.org/2000/svg">
<path fill-rule="evenodd" clip-rule="evenodd" d="M14.5 13C14.7761 13 15 12.7761 15 12.5C15 12.2239 14.7761 12 14.5 12H4.22727C4.10175 12 4 11.8982 4 11.7727V1.5C4 1.22386 3.77614 1 3.5 1C3.22386 1 3 1.22386 3 1.5V3H3.99951V5H3V11.7727C3 12.4505 3.54947 13 4.22727 13H14.5Z" fill="#262626"/>
<path fill-rule="evenodd" clip-rule="evenodd" d="M1.49927 2.99924C1.22313 2.99924 0.999268 3.22309 0.999268 3.49924C0.999268 3.77538 1.22313 3.99924 1.49927 3.99924H11.7651C11.8906 3.99924 11.9923 4.10099 11.9923 4.22651V14.4923C11.9923 14.7684 12.2162 14.9923 12.4923 14.9923C12.7685 14.9923 12.9923 14.7684 12.9923 14.4923V13H11.9998V11H12.9923V4.22651C12.9923 3.54871 12.4429 2.99924 11.7651 2.99924H1.49927Z" fill="#262626"/>
</svg>
