<svg width="16" height="16" viewBox="0 0 16 16" fill="none" xmlns="http://www.w3.org/2000/svg">
<path d="M4.03556 14.4715C4.38335 14.5649 4.74188 14.6121 5.10197 14.6122C6.18935 14.609 7.23107 14.1745 7.99853 13.4042C7.99891 13.4039 7.99938 13.4037 7.99986 13.4037C8.00034 13.4037 8.0008 13.4039 8.00119 13.4042C8.44482 13.85 8.98519 14.1877 9.58039 14.391C10.1756 14.5942 10.8096 14.6577 11.4333 14.5763C12.057 14.495 12.6535 14.2711 13.1767 13.9219C13.6998 13.5728 14.1355 13.1079 14.45 12.5631C14.7644 12.0184 14.9492 11.4086 14.9899 10.781C15.0306 10.1533 14.9261 9.52476 14.6847 8.944C14.4432 8.36325 14.0712 7.84592 13.5975 7.43215C13.1238 7.01839 12.5612 6.71931 11.9532 6.5581C11.9527 6.55796 11.9523 6.55764 11.9521 6.5572C11.9518 6.55677 11.9517 6.55626 11.9518 6.55576C12.1164 5.9486 12.1388 5.31169 12.0174 4.69445C11.896 4.0772 11.634 3.49623 11.2518 2.99661C10.8696 2.49699 10.3774 2.09216 9.81337 1.81353C9.24937 1.53489 8.62877 1.38995 7.9997 1.38995C7.37064 1.38995 6.75003 1.53489 6.18604 1.81353C5.62204 2.09216 5.12983 2.49699 4.7476 2.99661C4.36536 3.49623 4.10338 4.0772 3.98198 4.69445C3.86059 5.31169 3.88304 5.9486 4.04759 6.55576C4.04766 6.55599 4.04769 6.55622 4.04766 6.55646C4.04763 6.55669 4.04756 6.55692 4.04744 6.55713C4.04733 6.55733 4.04717 6.55751 4.04698 6.55765C4.04679 6.55779 4.04657 6.55789 4.04634 6.55795C3.174 6.78905 2.40242 7.30184 1.85153 8.01662C1.30064 8.7314 1.00129 9.60814 1 10.5106C0.998721 11.413 1.29558 12.2906 1.84443 13.007C2.39329 13.7233 3.16341 14.2383 4.03509 14.4719L4.03556 14.4715ZM12.4834 7.78232C12.8425 7.98948 13.1574 8.26538 13.4099 8.59426C13.6624 8.92313 13.8476 9.29853 13.955 9.69901C14.0624 10.0995 14.0898 10.5172 14.0357 10.9283C13.9816 11.3394 13.847 11.7358 13.6396 12.0948C12.7692 13.6025 10.8346 14.1208 9.32712 13.2511C9.05191 13.0927 8.80226 12.8936 8.58665 12.6604C8.58643 12.6601 8.5863 12.6597 8.5863 12.6594C8.5863 12.659 8.58643 12.6586 8.58665 12.6583C8.93596 12.0884 9.14055 11.4417 9.18257 10.7746C9.2246 10.1075 9.10278 9.44028 8.82775 8.83107L8.68712 8.51857L8.63587 8.41092C8.63563 8.41063 8.6355 8.41027 8.6355 8.4099C8.6355 8.40953 8.63563 8.40917 8.63587 8.40889C9.22587 7.71842 10.0342 7.36576 10.9738 7.36576C11.0676 7.36576 11.1623 7.37029 11.2563 7.37857C11.6888 7.42707 12.1066 7.56454 12.4834 7.78232ZM8.00009 2.32592C9.74087 2.32592 11.1563 3.74217 11.1563 5.48295C11.1572 5.80123 11.1098 6.1178 11.0157 6.42185C11.0156 6.42223 11.0154 6.42255 11.0151 6.42278C11.0148 6.423 11.0144 6.42312 11.014 6.4231C10.3459 6.40569 9.68376 6.55191 9.08516 6.84903C8.48655 7.14616 7.9697 7.58516 7.57962 8.12779L7.37947 8.40623L7.33447 8.47857C7.3343 8.47895 7.334 8.47925 7.33362 8.47942C7.33325 8.47959 7.33283 8.47962 7.33244 8.47951C6.44056 8.31326 5.709 7.81404 5.23962 7.00092C5.18775 6.91107 5.13947 6.81685 5.09619 6.72139L5.09087 6.70967C4.92744 6.32136 4.84344 5.90425 4.84384 5.48295C4.84384 3.74217 6.25931 2.32592 8.00009 2.32592ZM2.04572 9.69935C2.19507 9.14368 2.49317 8.63928 2.90793 8.24047C3.32268 7.84166 3.83837 7.56354 4.39947 7.43607C4.39986 7.43599 4.40027 7.43604 4.40064 7.43621C4.401 7.43637 4.40131 7.43666 4.4015 7.43701C4.72046 8.0239 5.17807 8.52391 5.73447 8.89349C6.29087 9.26307 6.92919 9.49102 7.59384 9.55748L8.10759 9.5956C8.10798 9.59559 8.10836 9.59571 8.10867 9.59593C8.10898 9.59616 8.10921 9.59648 8.10931 9.59686C8.41165 10.4526 8.25759 11.3358 7.7879 12.1492C7.73603 12.2392 7.67853 12.3279 7.61759 12.4133L7.5929 12.4476C7.34165 12.7723 7.02946 13.0448 6.67384 13.25C5.16619 14.1203 3.2315 13.602 2.36134 12.0937C2.15313 11.7353 2.01803 11.3391 1.96385 10.9281C1.90968 10.5172 1.9375 10.0995 2.04572 9.69935Z" fill="#262626"/>
</svg>
