<svg xmlns="http://www.w3.org/2000/svg" xmlns:xlink="http://www.w3.org/1999/xlink" fill="none" version="1.1" width="16" height="16" viewBox="0 0 16 16"><defs><clipPath id="master_svg0_16_9037"><rect x="0" y="0" width="16" height="16" rx="0"/></clipPath></defs><g clip-path="url(#master_svg0_16_9037)"><g><path d="M1,5.5L1,2.98036Q1,2.15193,1.575966,1.575966Q2.15193,1,2.98036,1L5.5,1Q5.54925,1,5.59755,1.00960696Q5.64584,1.019215,5.69134,1.0380599Q5.73684,1.056906,5.77778,1.084265Q5.81873,1.111625,5.85355,1.146447Q5.88837,1.181269,5.91573,1.222215Q5.94309,1.263161,5.96194,1.3086579999999999Q5.98078,1.354155,5.99039,1.402455Q6,1.4507539999999999,6,1.5Q6,1.5492460000000001,5.99039,1.597545Q5.98078,1.645845,5.96194,1.6913420000000001Q5.94309,1.736839,5.91573,1.777785Q5.88837,1.818731,5.85355,1.853553Q5.81873,1.888375,5.77778,1.915735Q5.73684,1.9430939999999999,5.69134,1.96194Q5.64584,1.980785,5.59755,1.990393Q5.54925,2,5.5,2L2.98036,2Q2.56615,2,2.28307,2.28307Q2,2.56615,2,2.98036L2,5.5Q2,5.54925,1.990393,5.59755Q1.980785,5.64584,1.96194,5.69134Q1.9430939999999999,5.73684,1.915735,5.77778Q1.888375,5.81873,1.853553,5.85355Q1.818731,5.88837,1.777785,5.91573Q1.736839,5.94309,1.6913420000000001,5.96194Q1.645845,5.98078,1.597545,5.99039Q1.5492460000000001,6,1.5,6Q1.4507539999999999,6,1.402455,5.99039Q1.354155,5.98078,1.3086579999999999,5.96194Q1.263161,5.94309,1.222215,5.91573Q1.181269,5.88837,1.146447,5.85355Q1.111625,5.81873,1.084265,5.77778Q1.056906,5.73684,1.0380599,5.69134Q1.019215,5.64584,1.00960696,5.59755Q1,5.54925,1,5.5ZM15,5.5L15,2.98036Q15,2.15193,14.424,1.575966Q13.8481,1,13.0196,1L10.5,1Q10.45075,1,10.40245,1.00960696Q10.35416,1.019215,10.30866,1.0380599Q10.26316,1.056906,10.22222,1.084265Q10.18127,1.111625,10.14645,1.146447Q10.11163,1.181269,10.08427,1.222215Q10.05691,1.263161,10.03806,1.3086579999999999Q10.01922,1.354155,10.00961,1.402455Q10,1.4507539999999999,10,1.5Q10,1.5492460000000001,10.00961,1.597545Q10.01922,1.645845,10.03806,1.6913420000000001Q10.05691,1.736839,10.08427,1.777785Q10.11163,1.818731,10.14645,1.853553Q10.18127,1.888375,10.22222,1.915735Q10.26316,1.9430939999999999,10.30866,1.96194Q10.35416,1.980785,10.40245,1.990393Q10.45075,2,10.5,2L13.0196,2Q13.4339,2,13.7169,2.28307Q14,2.56615,14,2.98036L14,5.5Q14,5.54925,14.0096,5.59755Q14.0192,5.64584,14.0381,5.69134Q14.0569,5.73684,14.0843,5.77778Q14.1116,5.81873,14.1464,5.85355Q14.1813,5.88837,14.2222,5.91573Q14.2632,5.94309,14.3087,5.96194Q14.3542,5.98078,14.4025,5.99039Q14.4508,6,14.5,6Q14.5492,6,14.5975,5.99039Q14.6458,5.98078,14.6913,5.96194Q14.7368,5.94309,14.7778,5.91573Q14.8187,5.88837,14.8536,5.85355Q14.8884,5.81873,14.9157,5.77778Q14.9431,5.73684,14.9619,5.69134Q14.9808,5.64584,14.9904,5.59755Q15,5.54925,15,5.5ZM5,5L11,5L11,6L8.5,6L8.5,12L7.5,12L7.5,6L5,6L5,5ZM1,10.5L1,13.0196Q1,13.8481,1.575966,14.424Q2.15193,15,2.98036,15L5.5,15Q5.54925,15,5.59755,14.9904Q5.64584,14.9808,5.69134,14.9619Q5.73684,14.9431,5.77778,14.9157Q5.81873,14.8884,5.85355,14.8536Q5.88837,14.8187,5.91573,14.7778Q5.94309,14.7368,5.96194,14.6913Q5.98078,14.6458,5.99039,14.5975Q6,14.5492,6,14.5Q6,14.4508,5.99039,14.4025Q5.98078,14.3542,5.96194,14.3087Q5.94309,14.2632,5.91573,14.2222Q5.88837,14.1813,5.85355,14.1464Q5.81873,14.1116,5.77778,14.0843Q5.73684,14.0569,5.69134,14.0381Q5.64584,14.0192,5.59755,14.0096Q5.54925,14,5.5,14L2.98036,14Q2.56615,14,2.28307,13.7169Q2,13.4339,2,13.0196L2,10.5Q2,10.45075,1.990393,10.40245Q1.980785,10.35416,1.96194,10.30866Q1.9430939999999999,10.26316,1.915735,10.22222Q1.888375,10.18127,1.853553,10.14645Q1.818731,10.11163,1.777785,10.08427Q1.736839,10.05691,1.6913420000000001,10.03806Q1.645845,10.01922,1.597545,10.00961Q1.5492460000000001,10,1.5,10Q1.4507539999999999,10,1.402455,10.00961Q1.354155,10.01922,1.3086579999999999,10.03806Q1.263161,10.05691,1.222215,10.08427Q1.181269,10.11163,1.146447,10.14645Q1.111625,10.18127,1.084265,10.22222Q1.056906,10.26316,1.0380599,10.30866Q1.019215,10.35416,1.00960696,10.40245Q1,10.45075,1,10.5ZM15,10.5L15,13.0196Q15,13.8481,14.424,14.424Q13.8481,15,13.0196,15L10.5,15Q10.45075,15,10.40245,14.9904Q10.35416,14.9808,10.30866,14.9619Q10.26316,14.9431,10.22222,14.9157Q10.18127,14.8884,10.14645,14.8536Q10.11163,14.8187,10.08427,14.7778Q10.05691,14.7368,10.03806,14.6913Q10.01922,14.6458,10.00961,14.5975Q10,14.5492,10,14.5Q10,14.4508,10.00961,14.4025Q10.01922,14.3542,10.03806,14.3087Q10.05691,14.2632,10.08427,14.2222Q10.11163,14.1813,10.14645,14.1464Q10.18127,14.1116,10.22222,14.0843Q10.26316,14.0569,10.30866,14.0381Q10.35416,14.0192,10.40245,14.0096Q10.45075,14,10.5,14L13.0196,14Q13.4339,14,13.7169,13.7169Q14,13.4339,14,13.0196L14,10.5Q14,10.45075,14.0096,10.40245Q14.0192,10.35416,14.0381,10.30866Q14.0569,10.26316,14.0843,10.22222Q14.1116,10.18127,14.1464,10.14645Q14.1813,10.11163,14.2222,10.08427Q14.2632,10.05691,14.3087,10.03806Q14.3542,10.01922,14.4025,10.00961Q14.4508,10,14.5,10Q14.5492,10,14.5975,10.00961Q14.6458,10.01922,14.6913,10.03806Q14.7368,10.05691,14.7778,10.08427Q14.8187,10.11163,14.8536,10.14645Q14.8884,10.18127,14.9157,10.22222Q14.9431,10.26316,14.9619,10.30866Q14.9808,10.35416,14.9904,10.40245Q15,10.45075,15,10.5Z" fill-rule="evenodd" fill="#262626" fill-opacity="1"/></g></g></svg>