<svg width="24" height="24" viewBox="0 0 24 24" fill="none" xmlns="http://www.w3.org/2000/svg">
<g opacity="0.8">
<path fill-rule="evenodd" clip-rule="evenodd" d="M4 8H20C20.5523 8 21 8.44772 21 9V15C21 15.5523 20.5523 16 20 16H19V18H20C21.6569 18 23 16.6569 23 15V9C23 7.34315 21.6569 6 20 6H4C2.34315 6 1 7.34315 1 9V15C1 16.6569 2.34315 18 4 18H5V16H4C3.44772 16 3 15.5523 3 15V9C3 8.44772 3.44772 8 4 8Z" fill="#262626"/>
<rect x="6" y="12" width="12" height="10" rx="1" stroke="#262626" stroke-width="2"/>
<rect x="6" y="3" width="12" height="4" rx="1" stroke="#262626" stroke-width="2"/>
<circle cx="19" cy="9" r="1" fill="#262626"/>
</g>
</svg>
