<svg width="32" height="32" viewBox="0 0 32 32" fill="none" xmlns="http://www.w3.org/2000/svg">
<path fill-rule="evenodd" clip-rule="evenodd" d="M8 5H24C25.1046 5 26 5.89543 26 7V16.9286H28V7C28 4.79086 26.2091 3 24 3H8C5.79086 3 4 4.79086 4 7V16.9286H6V7C6 5.89543 6.89543 5 8 5ZM6 20.6429H4V25C4 27.2091 5.79086 29 8 29H24C26.2091 29 28 27.2091 28 25V20.6429H26V25C26 26.1046 25.1046 27 24 27H8C6.89543 27 6 26.1046 6 25V20.6429Z" fill="white"/>
<rect x="1" y="18" width="30" height="2" rx="1" fill="white"/>
</svg>
