<svg width="26" height="26" viewBox="0 0 26 26" fill="none" xmlns="http://www.w3.org/2000/svg">
<g clip-path="url(#clip0_203_20553)">
<rect x="-2" y="-2" width="5" height="5" fill="#E3E3E3"/>
<rect x="3" y="-2" width="5" height="5" fill="white"/>
<rect x="8" y="-2" width="5" height="5" fill="#E3E3E3"/>
<rect x="13" y="-2" width="5" height="5" fill="white"/>
<rect x="18" y="-2" width="5" height="5" fill="#E3E3E3"/>
<rect x="23" y="-2" width="5" height="5" fill="white"/>
<rect width="5" height="5" transform="matrix(-1 0 0 1 8 3)" fill="#E3E3E3"/>
<rect width="5" height="5" transform="matrix(-1 0 0 1 3 3)" fill="white"/>
<rect width="5" height="5" transform="matrix(-1 0 0 1 18 3)" fill="#E3E3E3"/>
<rect width="5" height="5" transform="matrix(-1 0 0 1 13 3)" fill="white"/>
<rect width="5" height="5" transform="matrix(-1 0 0 1 28 3)" fill="#E3E3E3"/>
<rect width="5" height="5" transform="matrix(-1 0 0 1 23 3)" fill="white"/>
<rect x="-2" y="8" width="5" height="5" fill="#E3E3E3"/>
<rect x="3" y="8" width="5" height="5" fill="white"/>
<rect x="8" y="8" width="5" height="5" fill="#E3E3E3"/>
<rect x="13" y="8" width="5" height="5" fill="white"/>
<rect x="18" y="8" width="5" height="5" fill="#E3E3E3"/>
<rect x="23" y="8" width="5" height="5" fill="white"/>
<rect width="5" height="5" transform="matrix(-1 0 0 1 8 13)" fill="#E3E3E3"/>
<rect width="5" height="5" transform="matrix(-1 0 0 1 3 13)" fill="white"/>
<rect width="5" height="5" transform="matrix(-1 0 0 1 18 13)" fill="#E3E3E3"/>
<rect width="5" height="5" transform="matrix(-1 0 0 1 13 13)" fill="white"/>
<rect width="5" height="5" transform="matrix(-1 0 0 1 28 13)" fill="#E3E3E3"/>
<rect width="5" height="5" transform="matrix(-1 0 0 1 23 13)" fill="white"/>
<rect x="-2" y="18" width="5" height="5" fill="#E3E3E3"/>
<rect x="3" y="18" width="5" height="5" fill="white"/>
<rect x="8" y="18" width="5" height="5" fill="#E3E3E3"/>
<rect x="13" y="18" width="5" height="5" fill="white"/>
<rect x="18" y="18" width="5" height="5" fill="#E3E3E3"/>
<rect x="23" y="18" width="5" height="5" fill="white"/>
<rect width="5" height="5" transform="matrix(-1 0 0 1 8 23)" fill="#E3E3E3"/>
<rect width="5" height="5" transform="matrix(-1 0 0 1 3 23)" fill="white"/>
<rect width="5" height="5" transform="matrix(-1 0 0 1 18 23)" fill="#E3E3E3"/>
<rect width="5" height="5" transform="matrix(-1 0 0 1 13 23)" fill="white"/>
<rect width="5" height="5" transform="matrix(-1 0 0 1 28 23)" fill="#E3E3E3"/>
<rect width="5" height="5" transform="matrix(-1 0 0 1 23 23)" fill="white"/>
</g>
<rect x="0.5" y="0.5" width="25" height="25" rx="3.5" stroke="black" stroke-opacity="0.08"/>
<defs>
<clipPath id="clip0_203_20553">
<rect width="26" height="26" rx="4" fill="white"/>
</clipPath>
</defs>
</svg>
