<svg width="40" height="26" viewBox="0 0 40 26" fill="none" xmlns="http://www.w3.org/2000/svg">
<rect y="0.5" width="5" height="5" fill="#E3E3E3"/>
<rect x="5" y="0.5" width="5" height="5" fill="white"/>
<rect x="10" y="0.5" width="5" height="5" fill="#E3E3E3"/>
<rect x="15" y="0.5" width="5" height="5" fill="white"/>
<rect x="20" y="0.5" width="5" height="5" fill="#E3E3E3"/>
<rect x="25" y="0.5" width="5" height="5" fill="white"/>
<rect x="30" y="0.5" width="5" height="5" fill="#E3E3E3"/>
<rect x="35" y="0.5" width="5" height="5" fill="white"/>
<rect width="5" height="5" transform="matrix(-1 0 0 1 10 5.5)" fill="#E3E3E3"/>
<rect width="5" height="5" transform="matrix(-1 0 0 1 5 5.5)" fill="white"/>
<rect width="5" height="5" transform="matrix(-1 0 0 1 20 5.5)" fill="#E3E3E3"/>
<rect width="5" height="5" transform="matrix(-1 0 0 1 15 5.5)" fill="white"/>
<rect width="5" height="5" transform="matrix(-1 0 0 1 30 5.5)" fill="#E3E3E3"/>
<rect width="5" height="5" transform="matrix(-1 0 0 1 25 5.5)" fill="white"/>
<rect width="5" height="5" transform="matrix(-1 0 0 1 40 5.5)" fill="#E3E3E3"/>
<rect width="5" height="5" transform="matrix(-1 0 0 1 35 5.5)" fill="white"/>
<rect y="10.5" width="5" height="5" fill="#E3E3E3"/>
<rect x="5" y="10.5" width="5" height="5" fill="white"/>
<rect x="10" y="10.5" width="5" height="5" fill="#E3E3E3"/>
<rect x="15" y="10.5" width="5" height="5" fill="white"/>
<rect x="20" y="10.5" width="5" height="5" fill="#E3E3E3"/>
<rect x="25" y="10.5" width="5" height="5" fill="white"/>
<rect x="30" y="10.5" width="5" height="5" fill="#E3E3E3"/>
<rect x="35" y="10.5" width="5" height="5" fill="white"/>
<rect width="5" height="5" transform="matrix(-1 0 0 1 10 15.5)" fill="#E3E3E3"/>
<rect width="5" height="5" transform="matrix(-1 0 0 1 5 15.5)" fill="white"/>
<rect width="5" height="5" transform="matrix(-1 0 0 1 20 15.5)" fill="#E3E3E3"/>
<rect width="5" height="5" transform="matrix(-1 0 0 1 15 15.5)" fill="white"/>
<rect width="5" height="5" transform="matrix(-1 0 0 1 30 15.5)" fill="#E3E3E3"/>
<rect width="5" height="5" transform="matrix(-1 0 0 1 25 15.5)" fill="white"/>
<rect width="5" height="5" transform="matrix(-1 0 0 1 40 15.5)" fill="#E3E3E3"/>
<rect width="5" height="5" transform="matrix(-1 0 0 1 35 15.5)" fill="white"/>
<rect y="20.5" width="5" height="5" fill="#E3E3E3"/>
<rect x="5" y="20.5" width="5" height="5" fill="white"/>
<rect x="10" y="20.5" width="5" height="5" fill="#E3E3E3"/>
<rect x="15" y="20.5" width="5" height="5" fill="white"/>
<rect x="20" y="20.5" width="5" height="5" fill="#E3E3E3"/>
<rect x="25" y="20.5" width="5" height="5" fill="white"/>
<rect x="30" y="20.5" width="5" height="5" fill="#E3E3E3"/>
<rect x="35" y="20.5" width="5" height="5" fill="white"/>
</svg>
