<svg width="24" height="24" viewBox="0 0 24 24" fill="none" xmlns="http://www.w3.org/2000/svg">
<g opacity="0.8">
<rect x="3" y="2" width="18" height="20" rx="2" stroke="#262626" stroke-width="2"/>
<path opacity="0.35" d="M18.9749 4.65732C18.9121 4.38991 18.7383 4.17746 18.5097 4.08954C18.2168 3.97599 17.9464 4.05658 17.705 4.33314C16.6991 5.48333 15.6755 6.65185 14.6857 7.78373L13.522 9.11342L13.2436 9.4321C13.0617 9.64089 12.8799 9.84786 12.6964 10.0567C12.5355 10.2398 12.4582 10.4431 12.463 10.6739C12.463 11.0622 12.6835 11.3863 13.0102 11.4797C13.0762 11.4981 13.139 11.5072 13.2002 11.5072C13.3997 11.5072 13.5816 11.4101 13.7522 11.2142C14.8788 9.92478 16.0247 8.61524 17.1336 7.34966L18.5435 5.73975C18.5644 5.71411 18.587 5.6903 18.6095 5.66649C18.6819 5.5859 18.756 5.50165 18.8236 5.41374C18.9813 5.20677 19.0376 4.92289 18.9749 4.65732ZM13.786 4.62435C13.7216 4.34412 13.5365 4.12434 13.2935 4.04009C13.0102 3.94119 12.7495 4.02544 12.5177 4.29101C11.0564 5.96136 9.57085 7.65919 8.13361 9.30023L6.54508 11.1153C6.39058 11.2911 6.23607 11.4688 6.08156 11.6446C5.82888 11.934 5.56815 12.2325 5.30903 12.5255C5.14486 12.7124 5.07244 12.9193 5.07405 13.1941C5.07244 13.5365 5.29937 13.8534 5.6116 13.9468C5.68081 13.967 5.7468 13.9779 5.81278 13.9779C6.00914 13.9779 6.18939 13.8845 6.35195 13.7014C7.70871 12.1501 9.06548 10.6006 10.4222 9.05114C11.1706 8.19765 11.9174 7.34233 12.6658 6.48701C12.7511 6.38811 12.838 6.29104 12.9249 6.19396C13.1535 5.93572 13.3885 5.66832 13.6138 5.39908C13.7844 5.18846 13.8488 4.90091 13.786 4.62435ZM18.9105 10.6959C18.8847 10.5988 18.8574 10.4999 18.8091 10.4101C18.698 10.2013 18.5097 10.064 18.2957 10.0347C18.0575 10.0017 17.8144 10.1043 17.6326 10.3131C15.8686 12.3369 14.0709 14.39 12.3327 16.3754C11.7549 17.0348 11.1771 17.6941 10.6009 18.3535L10.5896 18.3663C10.5671 18.3919 10.5462 18.4176 10.5236 18.445C10.3724 18.641 10.3144 18.9047 10.3627 19.1648C10.4126 19.4267 10.5607 19.6374 10.7699 19.7473C10.8729 19.8004 10.9759 19.826 11.0789 19.826C11.2736 19.826 11.4603 19.7326 11.6213 19.5494C12.3504 18.7161 13.0794 17.8846 13.8085 17.0512C14.462 16.304 15.117 15.5567 15.7704 14.8095C16.8085 13.6245 17.7436 12.5549 18.6787 11.4907C18.8332 11.3149 18.9137 11.1263 18.925 10.9156C18.9234 10.9175 18.9217 10.7398 18.9105 10.6959ZM11.3911 12.6794C11.0982 12.3461 10.6508 12.3534 10.3514 12.6922C9.77847 13.3442 9.19584 14.0073 8.63415 14.6501L8.45228 14.8589L7.40936 16.0512C6.72373 16.837 6.01235 17.6483 5.31385 18.4469C5.14969 18.6337 5.07083 18.8388 5.07244 19.0714C5.07244 19.3333 5.17383 19.5751 5.35087 19.7308C5.48607 19.8498 5.63896 19.9084 5.79347 19.9084C5.98821 19.9084 6.18618 19.8132 6.34873 19.6282C7.77631 17.9981 9.20389 16.3663 10.6315 14.7362L11.3654 13.8974C11.3847 13.8754 11.404 13.8534 11.4217 13.8296C11.6808 13.4981 11.668 12.9926 11.3911 12.6794ZM18.9716 16.7362C18.9652 16.7069 18.9604 16.6794 18.9555 16.6483C18.9427 16.5787 18.9314 16.5073 18.9073 16.4395C18.8155 16.1776 18.624 15.9945 18.3842 15.9377C18.1412 15.8809 17.8885 15.9688 17.7082 16.1721C17.293 16.641 16.8745 17.1208 16.4689 17.5861C16.3064 17.7729 16.1438 17.9578 15.9813 18.1447C15.859 18.2857 15.735 18.4267 15.6127 18.5659C15.4518 18.7509 15.3761 18.978 15.3954 19.2198C15.4228 19.5696 15.5854 19.8205 15.8686 19.9414C15.9604 19.9817 16.0521 20 16.1406 20C16.3241 20 16.4963 19.9158 16.6412 19.7509C17.3477 18.9505 18.0478 18.1465 18.7624 17.326C18.8879 17.1813 18.9572 16.9963 18.9732 16.7619L18.9749 16.749L18.9716 16.7362ZM8.35732 4.29467C8.06279 3.9595 7.61537 3.9595 7.31762 4.29651C6.70442 4.99065 6.08478 5.70128 5.48446 6.38628L5.20763 6.70679C5.08209 6.84965 5.00645 7.04196 5.00001 7.23427V7.23793C4.9984 7.61706 5.16578 7.92659 5.45066 8.06212C5.54401 8.10608 5.64057 8.12806 5.73553 8.12806C5.92223 8.12806 6.10409 8.04381 6.24572 7.88263C7.07459 6.9394 7.74412 6.17748 8.34927 5.48333C8.64219 5.1445 8.64702 4.62435 8.35732 4.29467Z" fill="#262626"/>
</g>
</svg>
