<?xml version="1.0" encoding="utf-8"?>
<!-- Generator: Adobe Illustrator 24.0.0, SVG Export Plug-In . SVG Version: 6.00 Build 0)  -->
<svg version="1.1" id="图层_1" xmlns="http://www.w3.org/2000/svg" xmlns:xlink="http://www.w3.org/1999/xlink" x="0px" y="0px"
	 viewBox="0 0 32 32" style="enable-background:new 0 0 32 32;" xml:space="preserve">
<style type="text/css">
	.st0{fill:none;stroke:#FFFFFF;stroke-width:2.101;stroke-miterlimit:10;}
	.st1{opacity:0.3;fill:none;stroke:#FFFFFF;stroke-width:2;stroke-linecap:round;stroke-miterlimit:10;}
	.st2{fill:none;stroke:#FFFFFF;stroke-width:2.0032;stroke-linecap:round;stroke-miterlimit:10;}
	.st3{fill:none;stroke:#FFFFFF;stroke-width:2.2223;stroke-linecap:round;stroke-miterlimit:10;}
</style>
<path class="st0" d="M10.9,5.6L4.8,12H2.9c-1,0-1.9,1-1.9,2.2v3.5C1,19,1.8,20,2.9,20h1.9l6.2,6.5c1.2,1.3,3.1,0.2,3.1-1.7V7.2
	C14,5.3,12.1,4.3,10.9,5.6z"/>
<path class="st1" d="M27,7c1.9,2.5,3,5.8,3,9.5c0,3.2-0.9,6.1-2.4,8.5"/>
<path class="st2" d="M22.5,9.5c1.5,1.7,2.5,4,2.5,6.5c0,2.5-1,4.8-2.5,6.5"/>
<path class="st3" d="M18.5,12c0.9,1,1.5,2.4,1.5,4c0,1.6-0.6,3-1.5,4"/>
</svg>
