<svg id="图层_1" data-name="图层 1" xmlns="http://www.w3.org/2000/svg" viewBox="0 0 32 32"><defs><style>.cls-1{fill:#00bcd4;}.cls-2{fill:#fff;}</style></defs><title>audio-input-microphone32</title><circle class="cls-1" cx="16" cy="16" r="15"/><rect class="cls-2" x="12.5" y="6.16" width="7" height="15.17" rx="3.5"/><path class="cls-2" d="M22.17,13.23H20.64v5a4.64,4.64,0,1,1-9.28,0v-5H9.83a.64.64,0,0,0,0,1.28h.63v3.68a5.58,5.58,0,0,0,4.93,5.51v1.74H13.93a.61.61,0,0,0-.61.61.62.62,0,0,0,.61.61h4.14a.62.62,0,0,0,.61-.61.61.61,0,0,0-.61-.61H16.61V23.7a5.58,5.58,0,0,0,4.93-5.51V14.51h.63a.64.64,0,0,0,0-1.28Z"/></svg>