<?xml version="1.0" encoding="utf-8"?>
<!-- Generator: Adobe Illustrator 24.0.0, SVG Export Plug-In . SVG Version: 6.00 Build 0)  -->
<svg version="1.1" id="图层_1" xmlns="http://www.w3.org/2000/svg" xmlns:xlink="http://www.w3.org/1999/xlink" x="0px" y="0px"
	 viewBox="0 0 24 24" style="enable-background:new 0 0 24 24;" xml:space="preserve">
<style type="text/css">
	.st0{fill:none;stroke:#FFFFFF;stroke-width:2;stroke-miterlimit:10;}
	.st1{opacity:0.3;fill:none;stroke:#FFFFFF;stroke-width:2;stroke-linecap:round;stroke-miterlimit:10;}
	.st2{fill:none;stroke:#FFFFFF;stroke-width:2;stroke-linecap:round;stroke-miterlimit:10;}
</style>
<path class="st0" d="M8.6,4.4L3.9,9.1H2.4C1.6,9.1,1,9.9,1,10.7v2.5c0,0.9,0.6,1.6,1.4,1.6h1.5l4.7,4.7c0.9,0.9,2.4,0.2,2.4-1.2V5.6
	C11,4.2,9.6,3.5,8.6,4.4z"/>
<path class="st1" d="M21,5c1.2,2,2,4.5,2,7.4c0,2.5-0.6,4.8-1.6,6.6"/>
<path class="st1" d="M17,7c1.2,1.3,2,3.1,2,5c0,1.9-0.8,3.7-2,5"/>
<path class="st2" d="M14,9c0.6,0.8,1,1.8,1,3c0,1.2-0.4,2.2-1,3"/>
</svg>
