<?xml version="1.0" encoding="utf-8"?>
<!-- Generator: Adobe Illustrator 24.0.0, SVG Export Plug-In . SVG Version: 6.00 Build 0)  -->
<svg version="1.1" id="图层_1" xmlns="http://www.w3.org/2000/svg" xmlns:xlink="http://www.w3.org/1999/xlink" x="0px" y="0px"
	 viewBox="0 0 24 24" style="enable-background:new 0 0 24 24;" xml:space="preserve">
<style type="text/css">
	.st0{fill:none;stroke:#FFFFFF;stroke-width:2;stroke-miterlimit:10;}
	.st1{fill:#FFFFFF;}
</style>
<path class="st0" d="M8.6,4.4L3.9,9.1H2.4C1.6,9.1,1,9.9,1,10.7v2.5c0,0.9,0.6,1.6,1.4,1.6h1.5l4.7,4.7c0.9,0.9,2.4,0.2,2.4-1.2V5.6
	C11,4.2,9.6,3.5,8.6,4.4z"/>
<g>
	<path class="st1" d="M14.3,16.7L14.3,16.7c-0.4-0.4-0.4-1,0-1.4l7-7c0.4-0.4,1-0.4,1.4,0l0,0c0.4,0.4,0.4,1,0,1.4l-7,7
		C15.3,17.1,14.7,17.1,14.3,16.7z"/>
	<path class="st1" d="M22.7,16.7L22.7,16.7c-0.4,0.4-1,0.4-1.4,0l-7-7c-0.4-0.4-0.4-1,0-1.4l0,0c0.4-0.4,1-0.4,1.4,0l7,7
		C23.1,15.7,23.1,16.3,22.7,16.7z"/>
</g>
</svg>
