<?xml version="1.0" encoding="utf-8"?>
<!-- Generator: Adobe Illustrator 24.0.0, SVG Export Plug-In . SVG Version: 6.00 Build 0)  -->
<svg version="1.1" id="图层_1" xmlns="http://www.w3.org/2000/svg" xmlns:xlink="http://www.w3.org/1999/xlink" x="0px" y="0px"
	 viewBox="0 0 32 32" style="enable-background:new 0 0 32 32;" xml:space="preserve">
<style type="text/css">
	.st0{fill:none;stroke:#FFFFFF;stroke-width:2.101;stroke-miterlimit:10;}
	.st1{fill:#FFFFFF;}
</style>
<path class="st0" d="M10.9,5.6L4.8,12H2.9c-1,0-1.9,1-1.9,2.2v3.5C1,19,1.8,20,2.9,20h1.9l6.2,6.5c1.2,1.3,3.1,0.2,3.1-1.7V7.2
	C14,5.3,12.1,4.3,10.9,5.6z"/>
<g>
	<path class="st1" d="M18.3,21.7L18.3,21.7c-0.5-0.5-0.4-1.3,0.1-1.8l9.4-9.4c0.5-0.5,1.3-0.6,1.8-0.1l0,0c0.5,0.5,0.4,1.3-0.1,1.8
		l-9.4,9.4C19.6,22.1,18.8,22.1,18.3,21.7z"/>
	<path class="st1" d="M29.7,21.7L29.7,21.7c-0.5,0.5-1.3,0.4-1.8-0.1l-9.4-9.4c-0.5-0.5-0.6-1.3-0.1-1.8l0,0
		c0.5-0.5,1.3-0.4,1.8,0.1l9.4,9.4C30.1,20.4,30.1,21.2,29.7,21.7z"/>
</g>
</svg>
