<svg id="图层_1" data-name="图层 1" xmlns="http://www.w3.org/2000/svg" viewBox="0 0 32 32"><defs><style>.cls-1{fill:#90a4ae;}.cls-2{fill:#455a64;}.cls-3{fill:#263238;}.cls-4{fill:#cfd8dc;}</style></defs><title>audiocard32</title><rect class="cls-1" x="1" y="1" width="30" height="30" rx="3.27"/><circle class="cls-2" cx="5.06" cy="5.06" r="1"/><circle class="cls-2" cx="26.94" cy="5.06" r="1"/><circle class="cls-2" cx="5.06" cy="26.94" r="1"/><circle class="cls-2" cx="26.94" cy="26.94" r="1"/><circle class="cls-3" cx="16" cy="16" r="11.86"/><circle class="cls-4" cx="16" cy="16" r="9.21" transform="translate(-6.63 16) rotate(-45)"/><path d="M16,6.11A9.89,9.89,0,1,0,25.89,16,9.91,9.91,0,0,0,16,6.11ZM6.79,16A9.21,9.21,0,1,1,16,25.21,9.22,9.22,0,0,1,6.79,16Z"/><circle cx="16" cy="16" r="3"/></svg>