<?xml version="1.0" encoding="utf-8"?>
<!-- Generator: Adobe Illustrator 24.1.2, SVG Export Plug-In . SVG Version: 6.00 Build 0)  -->
<svg version="1.1" id="图层_1" xmlns="http://www.w3.org/2000/svg" xmlns:xlink="http://www.w3.org/1999/xlink" x="0px" y="0px"
	 viewBox="0 0 96 96" enable-background="new 0 0 96 96" xml:space="preserve">
<circle fill="#BA68C8" cx="48" cy="48" r="44"/>
<path fill="#FFFFFF" d="M65.8,43.3L65.8,43.3l-0.1-1.3c0-9.8-7.9-17.7-17.7-17.7c-9.8,0-17.7,7.9-17.7,17.7v1.3h-0.1
	C23,43.1,17,48.8,16.8,56c-0.2,7.2,5.5,13.3,12.7,13.5c0.2,0,0.5,0,0.7,0h0.1c1,0,1.9-0.1,2.8-0.3V41.9c0-8.2,6.7-14.9,14.9-14.9
	c8.2,0,14.9,6.7,14.9,14.9v27.2c0.9,0.2,1.9,0.3,2.8,0.3h0.1C73,69.6,79,63.9,79.2,56.7c0.2-7.2-5.5-13.3-12.7-13.5
	C66.3,43.2,66,43.2,65.8,43.3L65.8,43.3z"/>
</svg>
