<?xml version="1.0" encoding="utf-8"?>
<!-- Generator: Adobe Illustrator 24.0.0, SVG Export Plug-In . SVG Version: 6.00 Build 0)  -->
<svg version="1.1" id="图层_1" xmlns="http://www.w3.org/2000/svg" xmlns:xlink="http://www.w3.org/1999/xlink" x="0px" y="0px"
	 viewBox="0 0 16 16" style="enable-background:new 0 0 16 16;" xml:space="preserve">
<style type="text/css">
	.st0{fill:#FFFFFF;}
	.st1{fill:none;stroke:#FFFFFF;stroke-linecap:round;stroke-miterlimit:10;}
</style>
<g>
	<path class="st0" d="M14.5,7C14.2,7,14,6.8,14,6.5V2H9.5C9.2,2,9,1.8,9,1.5S9.2,1,9.5,1H15v5.5C15,6.8,14.8,7,14.5,7z"/>
</g>
<line class="st1" x1="14.2" y1="1.9" x2="7" y2="9"/>
<path class="st0" d="M13,14c1.1,0,2-0.9,2-2V9h-1v3c0,0.6-0.4,1-1,1H3c-0.6,0-1-0.4-1-1V3c0-0.6,0.4-1,1-1h4V1H3C1.9,1,1,1.9,1,3v9
	c0,1.1,0.9,2,2,2H13z"/>
</svg>
