<?xml version="1.0" encoding="utf-8"?>
<!-- Generator: Adobe Illustrator 24.0.0, SVG Export Plug-In . SVG Version: 6.00 Build 0)  -->
<svg version="1.1" id="缩放" xmlns="http://www.w3.org/2000/svg" xmlns:xlink="http://www.w3.org/1999/xlink" x="0px" y="0px"
	 viewBox="0 0 14 14" style="enable-background:new 0 0 14 14;" xml:space="preserve">
<style type="text/css">
	.st0{fill:#FFFFFF;}
	.st1{fill:none;stroke:#FFFFFF;stroke-linecap:round;stroke-miterlimit:10;}
</style>
<g>
	<path class="st0" d="M12.5,7C12.2,7,12,6.8,12,6.5V2H7.5C7.2,2,7,1.8,7,1.5S7.2,1,7.5,1H13v5.5C13,6.8,12.8,7,12.5,7z"/>
</g>
<line class="st1" x1="12.2" y1="1.9" x2="6.6" y2="7.4"/>
<path class="st0" d="M11,12c1.1,0,2-0.9,2-2V9h-1v1c0,0.6-0.4,1-1,1H3c-0.6,0-1-0.4-1-1V3c0-0.6,0.4-1,1-1h2V1H3C1.9,1,1,1.9,1,3v7
	c0,1.1,0.9,2,2,2H11z"/>
</svg>
