<?xml version="1.0" encoding="utf-8"?>
<!-- Generator: Adobe Illustrator 24.0.0, SVG Export Plug-In . SVG Version: 6.00 Build 0)  -->
<svg version="1.1" id="图层_3" xmlns="http://www.w3.org/2000/svg" xmlns:xlink="http://www.w3.org/1999/xlink" x="0px" y="0px"
	 viewBox="0 0 19 19" style="enable-background:new 0 0 19 19;" xml:space="preserve">
<style type="text/css">
	.st0{fill:#FFFFFF;}
</style>
<path class="st0" d="M16,5h-1.1c-0.2-1.7-1.7-3-3.4-3S8.3,3.3,8.1,5H2V2H1v3v10v2h1v-2h9v1H9.5v1h4v-1H12v-1h4c1.1,0,2-0.9,2-2V7
	C18,5.9,17.1,5,16,5z M11.5,3c1.2,0,2.2,0.9,2.4,2C14,5.2,14,5.3,14,5.5V6v2.5c0,1.4-1.1,2.5-2.5,2.5S9,9.9,9,8.5V6V5.5
	C9,5.3,9,5.2,9.1,5C9.3,3.9,10.3,3,11.5,3z M17,13c0,0.6-0.4,1-1,1h-1.4c1.3-0.9,2.1-2.4,2.1-4h-1c0,2.2-1.9,4-4.3,4
	c-2.3,0-4.3-1.8-4.3-4h-1c0,1.6,0.8,3.1,2.1,4H2v-2h2v-1H2V9h2V8H2V6h6v2.5c0,1.9,1.6,3.5,3.5,3.5S15,10.4,15,8.5V6h1
	c0.6,0,1,0.4,1,1V13z"/>
</svg>
