<?xml version="1.0" encoding="utf-8"?>
<!-- Generator: Adobe Illustrator 24.0.0, SVG Export Plug-In . SVG Version: 6.00 Build 0)  -->
<svg version="1.1" id="图层_1" xmlns="http://www.w3.org/2000/svg" xmlns:xlink="http://www.w3.org/1999/xlink" x="0px" y="0px"
	 viewBox="0 0 24 24" style="enable-background:new 0 0 24 24;" xml:space="preserve">
<style type="text/css">
	.st0{fill:#FFFFFF;}
	.st1{opacity:0.3;fill:#FFFFFF;}
	.st2{fill:none;stroke:#FFFFFF;stroke-width:2;stroke-miterlimit:10;}
</style>
<rect x="10" y="9" class="st0" width="4" height="2"/>
<rect x="10" y="5" class="st1" width="4" height="2"/>
<path class="st2" d="M20,11c0,4.4-3.6,8-8,8l0,0c-4.4,0-8-3.6-8-8"/>
<path class="st2" d="M12,15L12,15c-2.2,0-4-1.8-4-4V5c0-2.2,1.8-4,4-4l0,0c2.2,0,4,1.8,4,4v6C16,13.2,14.2,15,12,15z"/>
<path class="st0" d="M7.5,23L7.5,23c0-0.6,0.4-1,1-1h8c0.6,0,1,0.4,1,1l0,0c0,0.6-0.4,1-1,1h-8C7.9,24,7.5,23.6,7.5,23z"/>
<rect x="11.5" y="18" class="st0" width="2" height="5"/>
</svg>
