<?xml version="1.0" encoding="utf-8"?>
<!-- Generator: Adobe Illustrator 24.0.0, SVG Export Plug-In . SVG Version: 6.00 Build 0)  -->
<svg version="1.1" id="图层_1" xmlns="http://www.w3.org/2000/svg" xmlns:xlink="http://www.w3.org/1999/xlink" x="0px" y="0px"
	 viewBox="0 0 24 24" style="enable-background:new 0 0 24 24;" xml:space="preserve">
<style type="text/css">
	.st0{fill:none;stroke:#FFFFFF;stroke-width:2;stroke-miterlimit:10;}
	.st1{fill:#FFFFFF;}
</style>
<path class="st0" d="M20,11c0,4.4-3.6,8-8,8l0,0c-4.4,0-8-3.6-8-8"/>
<path class="st1" d="M7.5,23L7.5,23c0-0.6,0.4-1,1-1h8c0.6,0,1,0.4,1,1l0,0c0,0.6-0.4,1-1,1h-8C7.9,24,7.5,23.6,7.5,23z"/>
<rect x="11.5" y="18" class="st1" width="2" height="5"/>
<g>
	<path class="st1" d="M7.8,12.2L7.8,12.2c-0.4-0.4-0.4-1,0-1.4l7-7c0.4-0.4,1-0.4,1.4,0l0,0c0.4,0.4,0.4,1,0,1.4l-7,7
		C8.8,12.6,8.2,12.6,7.8,12.2z"/>
	<path class="st1" d="M16.2,12.2L16.2,12.2c-0.4,0.4-1,0.4-1.4,0l-7-7c-0.4-0.4-0.4-1,0-1.4l0,0c0.4-0.4,1-0.4,1.4,0l7,7
		C16.6,11.2,16.6,11.8,16.2,12.2z"/>
</g>
</svg>
