<?xml version="1.0" encoding="utf-8"?>
<!-- Generator: Adobe Illustrator 24.0.0, SVG Export Plug-In . SVG Version: 6.00 Build 0)  -->
<svg version="1.1" id="缩放" xmlns="http://www.w3.org/2000/svg" xmlns:xlink="http://www.w3.org/1999/xlink" x="0px" y="0px"
	 viewBox="0 0 16 16" style="enable-background:new 0 0 16 16;" xml:space="preserve">
<style type="text/css">
	.st0{fill:#FFFFFF;}
	.st1{fill:none;stroke:#FFFFFF;stroke-linecap:round;stroke-miterlimit:10;}
</style>
<g>
	<path class="st0" d="M1.5,8C1.8,8,2,8.2,2,8.5V13h4.5C6.8,13,7,13.2,7,13.5S6.8,14,6.5,14H1V8.5C1,8.2,1.2,8,1.5,8z"/>
</g>
<line class="st1" x1="1.8" y1="13.1" x2="9" y2="6"/>
<path class="st0" d="M3,1C1.9,1,1,1.9,1,3v3h1V3c0-0.6,0.4-1,1-1h10c0.6,0,1,0.4,1,1v9c0,0.6-0.4,1-1,1H9v1h4c1.1,0,2-0.9,2-2V3
	c0-1.1-0.9-2-2-2H3z"/>
</svg>
