<?xml version="1.0" encoding="utf-8"?>
<!-- Generator: Adobe Illustrator 24.0.0, SVG Export Plug-In . SVG Version: 6.00 Build 0)  -->
<svg version="1.1" id="缩放" xmlns="http://www.w3.org/2000/svg" xmlns:xlink="http://www.w3.org/1999/xlink" x="0px" y="0px"
	 viewBox="0 0 14 14" style="enable-background:new 0 0 14 14;" xml:space="preserve">
<style type="text/css">
	.st0{fill:#FFFFFF;}
	.st1{fill:none;stroke:#FFFFFF;stroke-linecap:round;stroke-miterlimit:10;}
</style>
<g>
	<path class="st0" d="M1.5,6C1.8,6,2,6.2,2,6.5V11h4.5C6.8,11,7,11.2,7,11.5S6.8,12,6.5,12H1V6.5C1,6.2,1.2,6,1.5,6z"/>
</g>
<line class="st1" x1="1.8" y1="11.1" x2="7.4" y2="5.6"/>
<path class="st0" d="M3,1C1.9,1,1,1.9,1,3v1h1V3c0-0.6,0.4-1,1-1h8c0.6,0,1,0.4,1,1v7c0,0.6-0.4,1-1,1H9v1h2c1.1,0,2-0.9,2-2V3
	c0-1.1-0.9-2-2-2H3z"/>
</svg>
