<?xml version="1.0" encoding="UTF-8"?>
<svg width="386px" height="234px" viewBox="0 0 386 234" version="1.1" xmlns="http://www.w3.org/2000/svg" xmlns:xlink="http://www.w3.org/1999/xlink">
    <title>背景</title>
    <defs>
        <linearGradient x1="50%" y1="0%" x2="50%" y2="100%" id="linearGradient-1">
            <stop stop-color="#A6FCD6" offset="0%"></stop>
            <stop stop-color="#246267" offset="100%"></stop>
        </linearGradient>
        <rect id="path-2" x="0" y="0" width="370" height="218" rx="18"></rect>
        <filter x="-3.0%" y="-5.0%" width="107.0%" height="111.9%" filterUnits="objectBoundingBox" id="filter-4">
            <feOffset dx="2" dy="2" in="SourceAlpha" result="shadowOffsetOuter1"></feOffset>
            <feGaussianBlur stdDeviation="4" in="shadowOffsetOuter1" result="shadowBlurOuter1"></feGaussianBlur>
            <feColorMatrix values="0 0 0 0 0   0 0 0 0 0   0 0 0 0 0  0 0 0 0.2 0" type="matrix" in="shadowBlurOuter1"></feColorMatrix>
        </filter>
        <linearGradient x1="50%" y1="0%" x2="50%" y2="100%" id="linearGradient-5">
            <stop stop-color="#FFFFFF" stop-opacity="0.3" offset="0%"></stop>
            <stop stop-color="#FFFFFF" stop-opacity="0" offset="100%"></stop>
        </linearGradient>
        <linearGradient x1="50%" y1="0%" x2="50%" y2="100%" id="linearGradient-6">
            <stop stop-color="#EED58C" offset="0%"></stop>
            <stop stop-color="#FFFFFF" stop-opacity="0" offset="100%"></stop>
        </linearGradient>
        <linearGradient x1="50%" y1="0%" x2="50%" y2="100%" id="linearGradient-7">
            <stop stop-color="#FFFFFF" offset="0%"></stop>
            <stop stop-color="#FFFFFF" stop-opacity="0" offset="100%"></stop>
        </linearGradient>
    </defs>
    <g id="页面-1" stroke="none" stroke-width="1" fill="none" fill-rule="evenodd">
        <g id="7胜利" transform="translate(-756.000000, -436.000000)">
            <g id="胜利弹窗" transform="translate(435.000000, 175.000000)">
                <g id="胜利背景" transform="translate(327.000000, 167.000000)">
                    <g id="背景" transform="translate(0.000000, 100.000000)">
                        <mask id="mask-3" fill="white">
                            <use xlink:href="#path-2"></use>
                        </mask>
                        <g id="矩形">
                            <use fill="black" fill-opacity="1" filter="url(#filter-4)" xlink:href="#path-2"></use>
                            <use fill="url(#linearGradient-1)" fill-rule="evenodd" xlink:href="#path-2"></use>
                        </g>
                        <path d="M352,0 C361.941125,0 370,8.0588745 370,18 L370,200 C370,209.941125 361.941125,218 352,218 L18,218 C8.0588745,218 0,209.941125 0,200 L0,18 C0,8.0588745 8.0588745,0 18,0 L352,0 Z M352,4 L18,4 C10.3724998,4 4.16967311,10.0997524 4,18 L4,18 L4,200 C4,207.6275 10.0997524,213.830327 18,214 L18,214 L352,214 C359.6275,214 365.830327,207.900248 366,200 L366,200 L366,18 C366,10.3724998 359.900248,4.16967311 352,4 L352,4 Z" id="矩形" fill="url(#linearGradient-5)" fill-rule="nonzero" mask="url(#mask-3)"></path>
                        <path d="M370,19 L370,120.224527 L370,120.224527 L365.321584,131.795091 L259.777,218 L0,218 L0,109.250428 L117.310937,0 L351,0 C361.49341,-1.92760819e-15 370,8.50658975 370,19 Z" id="路径" fill="url(#linearGradient-6)" opacity="0.154146"></path>
                        <path d="M117,0 L351,0 C361.49341,0 370,8.50655627 370,19 L370,120 L365,132 L260,218 L0,218 L0,109 L117,0 Z M4,110.999984 L4,213.999158 L258,213.999158 L362,128.999984 L366,118.999984 L366,18.9999843 C366,10.8205504 359.453214,4.17025337 351,3.99998426 L119,3.99998426 L4,110.999984 Z" id="路径" fill="url(#linearGradient-7)" fill-rule="nonzero" opacity="0.15"></path>
                    </g>
                </g>
            </g>
        </g>
    </g>
</svg>