<svg width="128" height="128" viewBox="0 0 128 128" xmlns="http://www.w3.org/2000/svg" xmlns:xlink="http://www.w3.org/1999/xlink">
    <defs>
        <linearGradient x1="50%" y1="0%" x2="50%" y2="100%" id="c">
            <stop stop-color="#FF674A" offset="0%"/>
            <stop stop-color="#EC5783" offset="100%"/>
        </linearGradient>
        <filter x="-12.2%" y="-6.1%" width="124.5%" height="124.5%" filterUnits="objectBoundingBox" id="a">
            <feOffset dy="6" in="SourceAlpha" result="shadowOffsetOuter1"/>
            <feGaussianBlur stdDeviation="3" in="shadowOffsetOuter1" result="shadowBlurOuter1"/>
            <feColorMatrix values="0 0 0 0 1 0 0 0 0 0.443137255 0 0 0 0 0.443137255 0 0 0 0.3 0" in="shadowBlurOuter1"/>
        </filter>
        <circle id="b" cx="64" cy="64" r="49"/>
    </defs>
    <g fill="none" fill-rule="evenodd">
        <g>
            <use fill="#000" filter="url(#a)" xlink:href="#b"/>
            <use fill="url(#c)" xlink:href="#b"/>
        </g>
        <path d="m48.414 45.73 16.263 16.264L80.941 45.73a2 2 0 0 1 2.701-.116l.128.116a2 2 0 0 1 0 2.829L67.506 64.822 83.77 81.086a2 2 0 0 1-2.829 2.828L64.677 67.651 48.414 83.914a2 2 0 0 1-2.701.117l-.127-.117a2 2 0 0 1 0-2.828l16.263-16.264-16.263-16.263a2 2 0 0 1 2.828-2.829z" fill="#FFF" fill-rule="nonzero"/>
    </g>
</svg>
