<svg xmlns="http://www.w3.org/2000/svg" width="64" height="64" viewBox="0 0 64 64">
  <defs>
    <filter id="deepin-virtualkeyboard-a" width="140.4%" height="142%" x="-20.2%" y="-21%" filterUnits="objectBoundingBox">
      <feOffset dy="1" in="SourceAlpha" result="shadowOffsetOuter1"/>
      <feGaussianBlur in="shadowOffsetOuter1" result="shadowBlurOuter1" stdDeviation="2"/>
      <feColorMatrix in="shadowBlurOuter1" result="shadowMatrixOuter1" values="0 0 0 0 0   0 0 0 0 0   0 0 0 0 0  0 0 0 0.198651934 0"/>
      <feMerge>
        <feMergeNode in="shadowMatrixOuter1"/>
        <feMergeNode in="SourceGraphic"/>
      </feMerge>
    </filter>
    <linearGradient id="deepin-virtualkeyboard-b" x1="50%" x2="50%" y1="0%" y2="98.139%">
      <stop offset="0%" stop-color="#FFF"/>
      <stop offset="100%" stop-color="#EDEDED"/>
    </linearGradient>
    <linearGradient id="deepin-virtualkeyboard-c" x1="50%" x2="50%" y1="0%" y2="100%">
      <stop offset="0%" stop-color="#4A4A4A"/>
      <stop offset="97.645%" stop-color="#363636"/>
    </linearGradient>
  </defs>
  <g fill="none" filter="url(#deepin-virtualkeyboard-a)" transform="translate(6 7)">
    <rect width="52" height="50" fill="url(#deepin-virtualkeyboard-b)" rx="12"/>
    <g transform="translate(10 17)">
      <path fill="#000" d="M28,0 L32,0 L32,4 L28,4 L28,0 Z M22,0 L26,0 L26,4 L22,4 L22,0 Z M16,0 L20,0 L20,4 L16,4 L16,0 Z M22,6 L22,10 L18,10 L18,6 L22,6 Z M10,0 L14,0 L14,4 L10,4 L10,0 Z M16,6 L16,10 L12,10 L12,6 L16,6 Z M0,0 L8,0 L8,4 L0,4 L0,0 Z M0,6 L10,6 L10,10 L0,10 L0,6 Z M26,16 L8,16 L8,12 L26,12 L26,16 Z M6,16 L0,16 L0,12 L6,12 L6,16 Z M32,10 L24,10 L24,6 L32,6 L32,10 Z M32,16 L28,16 L28,12 L32,12 L32,16 Z"/>
      <path fill="url(#deepin-virtualkeyboard-c)" d="M28,0 L32,0 L32,4 L28,4 L28,0 Z M22,0 L26,0 L26,4 L22,4 L22,0 Z M16,0 L20,0 L20,4 L16,4 L16,0 Z M22,6 L22,10 L18,10 L18,6 L22,6 Z M10,0 L14,0 L14,4 L10,4 L10,0 Z M16,6 L16,10 L12,10 L12,6 L16,6 Z M0,0 L8,0 L8,4 L0,4 L0,0 Z M0,6 L10,6 L10,10 L0,10 L0,6 Z M26,16 L8,16 L8,12 L26,12 L26,16 Z M6,16 L0,16 L0,12 L6,12 L6,16 Z M32,10 L24,10 L24,6 L32,6 L32,10 Z M32,16 L28,16 L28,12 L32,12 L32,16 Z"/>
      <path fill="#000" d="M28,0 L32,0 L32,4 L28,4 L28,0 Z M22,0 L26,0 L26,4 L22,4 L22,0 Z M16,0 L20,0 L20,4 L16,4 L16,0 Z M22,6 L22,10 L18,10 L18,6 L22,6 Z M10,0 L14,0 L14,4 L10,4 L10,0 Z M16,6 L16,10 L12,10 L12,6 L16,6 Z M0,0 L8,0 L8,4 L0,4 L0,0 Z M0,6 L10,6 L10,10 L0,10 L0,6 Z M26,16 L8,16 L8,12 L26,12 L26,16 Z M6,16 L0,16 L0,12 L6,12 L6,16 Z M32,10 L24,10 L24,6 L32,6 L32,10 Z M32,16 L28,16 L28,12 L32,12 L32,16 Z"/>
    </g>
  </g>
</svg>
