<svg width="975.118164" height="218.000000" viewBox="0 0 975.118 218" fill="none" xmlns="http://www.w3.org/2000/svg" xmlns:xlink="http://www.w3.org/1999/xlink">
	<desc>
			Created with Pixso.
	</desc>
	<defs>
		<filter id="filter_42_5_dd" x="34.675049" y="48.201233" width="158.627686" height="131.436829" filterUnits="userSpaceOnUse" color-interpolation-filters="sRGB">
			<feFlood flood-opacity="0" result="BackgroundImageFix"/>
			<feColorMatrix in="SourceAlpha" type="matrix" values="0 0 0 0 0 0 0 0 0 0 0 0 0 0 0 0 0 0 127 0" result="hardAlpha"/>
			<feOffset dx="0" dy="4"/>
			<feGaussianBlur stdDeviation="1.33333"/>
			<feComposite in2="hardAlpha" operator="out" k2="-1" k3="1"/>
			<feColorMatrix type="matrix" values="0 0 0 0 0 0 0 0 0 0 0 0 0 0 0 0 0 0 0.25 0"/>
			<feBlend mode="normal" in2="BackgroundImageFix" result="effect_dropShadow_1"/>
			<feBlend mode="normal" in="SourceGraphic" in2="effect_dropShadow_1" result="shape"/>
			<feColorMatrix in="SourceAlpha" type="matrix" values="0 0 0 0 0 0 0 0 0 0 0 0 0 0 0 0 0 0 127 0" result="hardAlpha"/>
			<feOffset dx="3" dy="6"/>
			<feGaussianBlur stdDeviation="2.66667"/>
			<feComposite in2="hardAlpha" operator="arithmetic" k2="-1" k3="1"/>
			<feColorMatrix type="matrix" values="0 0 0 0 0.32941 0 0 0 0 0.32941 0 0 0 0 0.32941 0 0 0 0.11 0"/>
			<feBlend mode="normal" in2="shape" result="effect_innerShadow_2"/>
		</filter>
		<linearGradient x1="83.999779" y1="84.499985" x2="375.499847" y2="261.999817" id="paint_linear_42_5_0" gradientUnits="userSpaceOnUse">
			<stop stop-color="#FFFFFF"/>
			<stop offset="1.000000" stop-color="#FFFFFF" stop-opacity="0.000000"/>
		</linearGradient>
	</defs>
	<path id="Lingmo OS" d="M886.66 100.36Q886.66 114.5 881.77 125.18Q878.01 133.42 871.76 138.73L871.75 138.73Q869.9 140.31 867.82 141.64Q866.11 142.72 864.31 143.6L864.31 143.6Q856.51 147.4 846.86 147.4Q836.42 147.4 828.32 143.05Q822.5 139.93 817.89 134.57Q817.53 134.14 817.17 133.7L817.16 133.69Q806.86 121 806.86 99.94L806.86 89.39Q806.86 75.4 811.81 64.61Q815.78 55.97 822.38 50.53Q824.03 49.17 825.84 48.01Q827.77 46.78 829.83 45.81L829.83 45.8Q837.43 42.21 846.72 42.21Q856.37 42.21 864.17 46.02L864.17 46.02Q865.92 46.87 867.57 47.91Q869.96 49.41 872.06 51.25Q877.91 56.35 881.53 64.01Q886.45 74.42 886.66 88.13L886.66 100.36ZM966.39 120.82Q966.39 115.51 964.06 111.57Q962.66 109.22 960.42 107.36Q954.44 102.4 938.55 97.94Q922.66 93.47 915.35 88.2Q909.44 83.97 906.89 78.24Q904.94 73.88 904.94 68.65Q904.94 63.28 906.97 58.83Q909.36 53.55 914.61 49.56Q914.84 49.39 915.08 49.21Q924.64 42.21 939.32 42.21Q949.52 42.21 957.57 46.15Q963.59 49.1 967.59 53.77L967.59 53.78Q968.94 55.35 970.05 57.12Q971.69 59.73 972.73 62.56Q974.48 67.36 974.48 72.8L965.76 72.8Q965.76 66.19 962.91 61.22Q961.24 58.31 958.59 55.96Q958.01 55.45 957.41 54.98Q950.45 49.6 939.32 49.6Q927.58 49.6 920.62 54.83Q916.86 57.66 915.13 61.43Q913.66 64.63 913.66 68.51Q913.66 72.21 915.07 75.26Q916.63 78.65 919.92 81.24Q926.18 86.16 939.96 89.92Q953.74 93.68 960.84 97.73Q967.94 101.77 971.53 107.39Q971.82 107.85 972.08 108.31L972.09 108.33Q975.11 113.64 975.11 120.68Q975.11 126.69 972.72 131.52Q970.31 136.41 965.45 140.09Q955.78 147.4 939.96 147.4Q929.13 147.4 920.09 143.53Q911.42 139.82 906.77 133.26L906.76 133.25Q906.57 132.98 906.38 132.71Q905 130.65 904.03 128.43Q901.71 123.09 901.71 116.75L910.36 116.75Q910.36 122.96 913.02 127.66Q914.99 131.16 918.44 133.83Q926.53 140.09 939.96 140.09Q951.91 140.09 959.15 134.82Q963.01 132 964.81 128.22Q966.39 124.9 966.39 120.82ZM293.78 146L293.78 43.2L308.19 43.2L308.19 133.48L352.84 133.48L352.84 146L293.78 146ZM372.84 63.91Q370.49 63.91 368.68 62.91L368.68 62.91Q367.71 62.37 366.9 61.55Q366.09 60.7 365.57 59.7Q364.62 57.88 364.62 55.57Q364.62 53.47 365.45 51.78Q366 50.67 366.9 49.74Q367.75 48.87 368.76 48.31Q370.54 47.35 372.84 47.35Q375.1 47.35 376.84 48.29Q377.87 48.85 378.71 49.74Q379.67 50.71 380.23 51.86Q381.03 53.52 381.03 55.57Q381.03 57.83 380.12 59.61Q379.57 60.66 378.71 61.55Q377.9 62.39 376.92 62.93Q375.15 63.91 372.84 63.91ZM878.01 89.25Q878.01 70.76 869.64 60.28Q866.37 56.18 862.14 53.68Q855.58 49.81 846.72 49.81Q838.52 49.81 832.24 53.28Q827.58 55.85 823.98 60.32Q815.5 70.83 815.5 89.67L815.5 100.36Q815.5 118.57 823.94 129.23Q827.45 133.66 832.01 136.25Q838.41 139.88 846.86 139.88Q856.03 139.88 862.68 135.78Q866.69 133.32 869.79 129.37Q878.01 118.85 878.01 100.08L878.01 89.25ZM509.48 144.84Q502.34 144.84 496.32 142.23Q494.46 141.42 492.71 140.37Q489.92 138.69 487.57 136.54Q483.67 132.96 480.97 128.07Q480.34 126.93 479.81 125.76Q476.65 118.81 476.65 110.42Q476.65 101.8 480 94.8Q480.46 93.86 480.97 92.94Q483.45 88.51 486.95 85.12L486.95 85.12Q489.55 82.61 492.71 80.67Q494.61 79.51 496.64 78.65L496.64 78.65Q502.52 76.14 509.48 76.14Q517.57 76.14 523.76 79.34Q527.45 81.23 530.24 84.02Q531.48 85.26 532.54 86.68L532.54 77.58L545.48 77.58L545.48 143.25Q545.48 152.21 541.7 159.09Q541.34 159.74 540.95 160.37Q539.61 162.54 537.95 164.44L537.95 164.44Q534 168.96 528.26 171.91Q520.13 176.09 509.48 176.09Q498.97 176.09 490.81 172.19Q485.36 169.59 481.37 165.55L481.37 165.55Q479.41 163.58 477.81 161.25L486.17 152.78Q489.24 156.71 493.19 159.27L493.2 159.27Q494.59 160.17 496.09 160.9Q501.85 163.71 509.76 163.71Q519.44 163.71 525.4 159Q525.91 158.6 526.39 158.16Q528.36 156.38 529.7 154.21Q532.54 149.61 532.54 143.25L532.54 134.14Q531.43 135.67 530.1 136.99L530.1 136.99Q527.31 139.78 523.61 141.67Q517.43 144.84 509.48 144.84ZM610.72 146L610.72 104.65Q610.72 98.81 607.97 94.88Q607.13 93.68 606.04 92.66Q604.52 91.23 602.75 90.27Q599.07 88.27 594.3 88.27Q589.85 88.27 586.27 90.03Q586.03 90.15 585.79 90.27Q584.17 91.14 582.81 92.32L582.81 92.32Q581.05 93.85 579.74 95.9Q579.73 95.92 579.71 95.95Q577.46 99.52 577.46 104.51L577.46 146L564.49 146L564.49 77.58L577.46 77.58L577.46 85.55Q578.34 84.44 579.35 83.45L579.35 83.45Q581.74 81.09 584.81 79.41Q585.81 78.85 586.86 78.39Q591.96 76.14 598.06 76.14Q604.04 76.14 609.05 78.34L609.06 78.34Q610.08 78.8 611.07 79.34Q613.86 80.85 616.09 82.96Q618.52 85.26 620.28 88.27Q620.36 88.4 620.43 88.53Q620.5 88.43 620.56 88.34Q622.49 85.47 624.99 83.22L624.99 83.22Q627.44 81.01 630.44 79.41Q632.28 78.41 634.24 77.72L634.24 77.72Q638.69 76.14 643.69 76.14Q650.66 76.14 656.25 78.91Q656.68 79.11 657.09 79.34Q659.87 80.83 662.13 82.9Q664.65 85.22 666.51 88.27Q670.06 94 670.06 102.09L670.06 146L656.95 146L656.95 104.65Q656.95 98.81 654.2 94.88Q653.36 93.68 652.27 92.66Q650.59 91.08 648.61 90.06L648.61 90.06Q645.1 88.27 640.67 88.27Q636.43 88.27 632.91 89.87Q632.5 90.06 632.09 90.27Q630.22 91.26 628.71 92.64L628.71 92.64Q627.15 94.06 625.97 95.9Q625.96 95.92 625.94 95.95Q623.69 99.52 623.69 104.51L623.69 146L610.72 146ZM718.86 147.44Q711.08 147.44 704.51 144.62L704.51 144.61Q702.56 143.78 700.72 142.69Q696.96 140.48 693.92 137.53L693.92 137.53Q690.44 134.15 687.89 129.82Q686.67 127.73 685.76 125.5L685.76 125.5Q683.14 119.07 683.14 111.58Q683.14 104.2 685.75 97.9Q686.66 95.71 687.89 93.65Q690.19 89.81 693.25 86.71Q696.54 83.38 700.72 80.92Q702.64 79.78 704.68 78.91Q711.18 76.14 718.86 76.14Q725.95 76.14 732.11 78.53Q734.59 79.5 736.93 80.85Q741.19 83.29 744.53 86.66Q747.57 89.73 749.83 93.58Q751.15 95.81 752.1 98.19Q754.58 104.39 754.58 111.58Q754.58 119.07 751.96 125.5L751.96 125.5Q751.05 127.73 749.83 129.82Q747.52 133.78 744.39 136.94Q741.11 140.26 736.93 142.69Q734.52 144.1 731.95 145.09L731.95 145.09Q725.86 147.44 718.86 147.44ZM400.49 80.29Q405.1 79.13 412.73 77.83Q420.36 76.53 430.31 76.53Q439.24 76.53 445.11 79.06Q450.51 81.34 453.91 85.33Q454.23 85.71 454.53 86.09Q458.08 90.63 459.52 96.99Q460.96 103.32 460.96 110.95L460.96 146L447.57 146C447.57 146 447.58 143.77 447.58 140.28C447.58 129.01 447.48 104.62 446.62 100.02C445.5 93.99 442.87 91.17 437.76 89.71Q434.17 88.34 428.86 88.34Q426.68 88.34 424.36 88.48Q422.08 88.62 419.97 88.83Q417.9 89.05 416.24 89.36Q414.59 89.64 413.89 89.78L413.89 146L400.49 146L400.49 80.29ZM366.34 146L366.34 77.58L379.31 77.58L379.31 146L366.34 146ZM512.08 132.6Q518.26 132.6 522.99 129.99Q523.03 129.97 523.06 129.95Q523.15 129.91 523.23 129.86Q525.63 128.5 527.47 126.6Q529.35 124.66 530.65 122.16Q533.25 117.2 533.25 110.56Q533.25 103.95 530.58 98.99Q529.08 96.15 526.89 94.03Q525.22 92.42 523.16 91.22Q518.41 88.41 511.94 88.41Q505.66 88.41 500.84 91.06Q500.69 91.14 500.55 91.22Q498.44 92.42 496.71 94.04Q494.45 96.16 492.85 98.99Q492.74 99.18 492.64 99.38L492.63 99.4Q490.04 104.21 490.04 110.42Q490.04 116.61 492.59 121.46L492.6 121.49Q492.72 121.72 492.85 121.95Q494.36 124.65 496.49 126.71Q498.33 128.49 500.62 129.79Q500.87 129.93 501.13 130.06L501.16 130.08Q505.96 132.6 512.08 132.6ZM718.86 134.92Q724.24 134.92 728.62 132.83Q729.51 132.41 730.36 131.9Q732.63 130.54 734.46 128.73L734.47 128.73Q736.71 126.52 738.3 123.64Q738.38 123.5 738.45 123.36Q738.47 123.33 738.48 123.3Q741.18 118.15 741.18 111.58Q741.18 105.75 738.89 101.04Q738.58 100.41 738.23 99.8Q736.41 96.59 733.81 94.24L733.81 94.24Q732.2 92.78 730.29 91.64Q729.73 91.31 729.16 91.02L729.16 91.02Q724.61 88.69 718.86 88.69Q713.36 88.69 708.88 90.83Q708.09 91.2 707.33 91.64Q705.18 92.91 703.42 94.58Q701.07 96.82 699.42 99.8Q699.18 100.23 698.96 100.67Q696.54 105.52 696.54 111.58Q696.54 118.15 699.24 123.3Q699.25 123.33 699.27 123.36Q699.34 123.5 699.42 123.64Q701.06 126.62 703.4 128.89L703.4 128.89Q705.17 130.6 707.33 131.9Q708.25 132.45 709.22 132.9L709.22 132.9Q713.57 134.92 718.86 134.92Z" fill="#0061FE" fill-opacity="1.000000" fill-rule="evenodd"/>
	<circle id="椭圆 3" cx="109.000000" cy="109.000000" r="109.000000" fill="#0061FE" fill-opacity="1.000000"/>
	<g filter="url(#filter_42_5_dd)">
		<path id="差集" d="M43.9319 76.5477C56.3511 51.3764 86.8242 41.0389 111.995 53.4581C124.581 59.6678 133.458 70.3908 137.637 82.7079C139.532 88.1782 141.007 98.3504 142.377 109.965C137.734 112.838 133.126 115.702 128.74 118.391C127.232 103.979 125.688 91.8062 123.705 87.4341C120.736 78.6825 114.428 71.0634 105.486 66.6514C87.6013 57.8271 65.9492 65.1722 57.1252 83.0571C48.301 100.942 55.646 122.594 73.5308 131.418C82.4731 135.83 92.3574 136.2 101.109 133.231C105.785 132.145 116.385 125.964 128.74 118.391C129.275 123.508 129.806 128.907 130.35 134.34C120.3 140.32 111.33 145.339 105.835 147.163C93.5181 151.341 79.6069 150.821 67.0215 144.611C41.8501 132.192 31.5127 101.719 43.9319 76.5477ZM130.35 134.34C134.813 131.685 139.488 128.841 144.167 126.003C144.404 128.172 144.642 130.34 144.883 132.491C146.158 143.871 159.344 156.234 165.041 159.045L158.827 171.638C148.632 166.608 134.594 153.344 130.358 134.418C130.355 134.392 130.353 134.366 130.35 134.34ZM144.167 126.003C143.573 120.563 142.985 115.121 142.377 109.965C142.399 109.951 142.421 109.937 142.443 109.924C160.04 101.77 179.108 104.84 189.303 109.87L183.089 122.463C177.392 119.652 159.559 116.711 149.752 122.623C147.898 123.74 146.032 124.871 144.167 126.003Z" clip-rule="evenodd" fill="url(#paint_linear_42_5_0)" fill-opacity="1.000000" fill-rule="evenodd"/>
	</g>
</svg>
