<?xml version="1.0" encoding="UTF-8"?>
<svg width="28px" height="28px" viewBox="0 0 28 28" version="1.1" xmlns="http://www.w3.org/2000/svg" xmlns:xlink="http://www.w3.org/1999/xlink">
    <!-- Generator: Sketch 58 (84663) - https://sketch.com -->
    <title>ICon/self-starting</title>
    <desc>Created with Sketch.</desc>
    <g id="ICon/self-starting" stroke="none" stroke-width="1" fill="none" fill-rule="evenodd">
        <g id="编组-27">
            <rect id="矩形" fill="#FF6969" opacity="0" x="0" y="0" width="28" height="28"></rect>
            <path d="M18,14 C20.7614237,14 23,16.2385763 23,19 C23,21.7614237 20.7614237,24 18,24 C15.2385763,24 13,21.7614237 13,19 C13,16.2385763 15.2385763,14 18,14 Z M19,5 C20.1045695,5 21,5.8954305 21,7 L21.000963,13.8032504 C20.1182253,13.2923955 19.093259,13 18,13 C14.6862915,13 12,15.6862915 12,19 C12,20.5371282 12.5780225,21.939252 13.5285648,23.0008689 L8,23 C6.8954305,23 6,22.1045695 6,21 L6,7 C6,5.8954305 6.8954305,5 8,5 L19,5 Z M19.0393308,17.2197655 C18.8464716,17.4174014 18.8503439,17.7339602 19.0479798,17.9268194 C19.3357704,18.2076545 19.5004815,18.5903543 19.5004815,19.0004815 C19.5004815,19.8289086 18.8289086,20.5004815 18.0004815,20.5004815 C17.1720544,20.5004815 16.5004815,19.8289086 16.5004815,19.0004815 C16.5004815,18.5921791 16.6637156,18.2110455 16.9492406,17.9304844 C17.1462073,17.7369418 17.1489832,17.4203715 16.9554407,17.2234048 C16.7618982,17.026438 16.4453279,17.0236621 16.2483611,17.2172046 C15.7734033,17.6839053 15.5004815,18.3211476 15.5004815,19.0004815 C15.5004815,20.3811934 16.6197696,21.5004815 18.0004815,21.5004815 C19.3811934,21.5004815 20.5004815,20.3811934 20.5004815,19.0004815 C20.5004815,18.3181022 20.2250985,17.6782603 19.7463847,17.2111166 C19.5487488,17.0182574 19.23219,17.0221297 19.0393308,17.2197655 Z M18,16 C17.7545401,16 17.5503916,16.1768752 17.5080557,16.4101244 L17.5,16.5 L17.5,18.5 C17.5,18.7761424 17.7238576,19 18,19 C18.2454599,19 18.4496084,18.8231248 18.4919443,18.5898756 L18.5,18.5 L18.5,16.5 C18.5,16.2238576 18.2761424,16 18,16 Z M17.5,10 L9.5,10 C9.25454011,10 9.05039163,10.1768752 9.00805567,10.4101244 L9,10.5 L9,11.5 C9,11.7454599 9.17687516,11.9496084 9.41012437,11.9919443 L9.5,12 L17.5,12 C17.7454599,12 17.9496084,11.8231248 17.9919443,11.5898756 L18,11.5 L18,10.5 C18,10.2238576 17.7761424,10 17.5,10 Z M17.5,7 L9.5,7 C9.25454011,7 9.05039163,7.17687516 9.00805567,7.41012437 L9,7.5 L9,8.5 C9,8.74545989 9.17687516,8.94960837 9.41012437,8.99194433 L9.5,9 L17.5,9 C17.7454599,9 17.9496084,8.82312484 17.9919443,8.58987563 L18,8.5 L18,7.5 C18,7.22385763 17.7761424,7 17.5,7 Z" id="形状结合" fill="#536076"></path>
        </g>
    </g>
</svg>