<?xml version="1.0" encoding="UTF-8"?>
<svg width="96px" height="98px" viewBox="0 0 96 98" version="1.1" xmlns="http://www.w3.org/2000/svg" xmlns:xlink="http://www.w3.org/1999/xlink">
    <title>ICON/Data Usage</title>
    <defs>
        <linearGradient x1="50%" y1="0%" x2="50%" y2="100%" id="linearGradient-1">
            <stop stop-color="#AFDFFF" offset="0%"></stop>
            <stop stop-color="#5AAAFF" offset="100%"></stop>
        </linearGradient>
        <rect id="path-2" x="0" y="0" width="88" height="74" rx="6"></rect>
        <filter x="-14.2%" y="-11.5%" width="128.4%" height="133.8%" filterUnits="objectBoundingBox" id="filter-3">
            <feOffset dx="0" dy="4" in="SourceAlpha" result="shadowOffsetOuter1"></feOffset>
            <feGaussianBlur stdDeviation="3.5" in="shadowOffsetOuter1" result="shadowBlurOuter1"></feGaussianBlur>
            <feColorMatrix values="0 0 0 0 0.00376565344   0 0 0 0 0.574317348   0 0 0 0 0.921043949  0 0 0 0.217452469 0" type="matrix" in="shadowBlurOuter1"></feColorMatrix>
        </filter>
        <linearGradient x1="50%" y1="1.09016263%" x2="50%" y2="99.2116034%" id="linearGradient-4">
            <stop stop-color="#FFFFFF" offset="0%"></stop>
            <stop stop-color="#F8FCFF" offset="100%"></stop>
        </linearGradient>
        <path d="M4,0 L79.8799012,0 C82.0890402,-4.05812251e-16 83.8799012,1.790861 83.8799012,4 L83.8799012,66 C83.8799012,68.209139 82.0890402,70 79.8799012,70 L4,70 C1.790861,70 2.705415e-16,68.209139 0,66 L0,4 C-2.705415e-16,1.790861 1.790861,4.05812251e-16 4,0 Z" id="path-5"></path>
        <linearGradient x1="50%" y1="0%" x2="50%" y2="100%" id="linearGradient-7">
            <stop stop-color="#FFE044" offset="0%"></stop>
            <stop stop-color="#FDAB26" offset="100%"></stop>
        </linearGradient>
        <linearGradient x1="50%" y1="0%" x2="50%" y2="100%" id="linearGradient-8">
            <stop stop-color="#FFF0A7" offset="0%"></stop>
            <stop stop-color="#FF6000" offset="100%"></stop>
        </linearGradient>
        <rect id="path-9" x="22" y="35" width="12" height="30" rx="2"></rect>
        <filter x="-79.2%" y="-21.7%" width="258.3%" height="163.3%" filterUnits="objectBoundingBox" id="filter-10">
            <feMorphology radius="0.5" operator="dilate" in="SourceAlpha" result="shadowSpreadOuter1"></feMorphology>
            <feOffset dx="0" dy="3" in="shadowSpreadOuter1" result="shadowOffsetOuter1"></feOffset>
            <feGaussianBlur stdDeviation="2.5" in="shadowOffsetOuter1" result="shadowBlurOuter1"></feGaussianBlur>
            <feComposite in="shadowBlurOuter1" in2="SourceAlpha" operator="out" result="shadowBlurOuter1"></feComposite>
            <feColorMatrix values="0 0 0 0 0.960784314   0 0 0 0 0.662745098   0 0 0 0 0.160784314  0 0 0 0.3 0" type="matrix" in="shadowBlurOuter1"></feColorMatrix>
        </filter>
        <linearGradient x1="47.2378383%" y1="100%" x2="54.0915867%" y2="0%" id="linearGradient-11">
            <stop stop-color="#11B4DD" offset="0%"></stop>
            <stop stop-color="#40EA98" offset="100%"></stop>
        </linearGradient>
        <linearGradient x1="50%" y1="0%" x2="50%" y2="98.1564892%" id="linearGradient-12">
            <stop stop-color="#27EC95" offset="0%"></stop>
            <stop stop-color="#1188EE" offset="100%"></stop>
        </linearGradient>
        <rect id="path-13" x="38" y="41" width="12" height="24" rx="2"></rect>
        <filter x="-75.0%" y="-25.0%" width="250.0%" height="175.0%" filterUnits="objectBoundingBox" id="filter-14">
            <feOffset dx="0" dy="3" in="SourceAlpha" result="shadowOffsetOuter1"></feOffset>
            <feGaussianBlur stdDeviation="2.5" in="shadowOffsetOuter1" result="shadowBlurOuter1"></feGaussianBlur>
            <feComposite in="shadowBlurOuter1" in2="SourceAlpha" operator="out" result="shadowBlurOuter1"></feComposite>
            <feColorMatrix values="0 0 0 0 0.0496820304   0 0 0 0 0.600351571   0 0 0 0 0.717872509  0 0 0 0.3 0" type="matrix" in="shadowBlurOuter1"></feColorMatrix>
        </filter>
        <linearGradient x1="50%" y1="0%" x2="50%" y2="100%" id="linearGradient-15">
            <stop stop-color="#58D9FF" offset="0%"></stop>
            <stop stop-color="#3A82F9" offset="100%"></stop>
        </linearGradient>
        <linearGradient x1="50%" y1="0%" x2="50%" y2="100%" id="linearGradient-16">
            <stop stop-color="#69D6FF" offset="0%"></stop>
            <stop stop-color="#004BD9" offset="100%"></stop>
        </linearGradient>
        <rect id="path-17" x="54" y="22" width="12" height="43" rx="2"></rect>
        <filter x="-75.0%" y="-14.0%" width="250.0%" height="141.9%" filterUnits="objectBoundingBox" id="filter-18">
            <feOffset dx="0" dy="3" in="SourceAlpha" result="shadowOffsetOuter1"></feOffset>
            <feGaussianBlur stdDeviation="2.5" in="shadowOffsetOuter1" result="shadowBlurOuter1"></feGaussianBlur>
            <feComposite in="shadowBlurOuter1" in2="SourceAlpha" operator="out" result="shadowBlurOuter1"></feComposite>
            <feColorMatrix values="0 0 0 0 0.101960784   0 0 0 0 0.49427485   0 0 0 0 0.768627451  0 0 0 0.332468313 0" type="matrix" in="shadowBlurOuter1"></feColorMatrix>
        </filter>
        <linearGradient x1="50%" y1="0%" x2="50%" y2="100%" id="linearGradient-19">
            <stop stop-color="#44BAFE" offset="0%"></stop>
            <stop stop-color="#419EFF" offset="100%"></stop>
        </linearGradient>
        <linearGradient x1="100%" y1="20.8362497%" x2="-13.9392568%" y2="86.4978127%" id="linearGradient-20">
            <stop stop-color="#2D85FF" offset="0%"></stop>
            <stop stop-color="#81E8FF" offset="100%"></stop>
        </linearGradient>
        <path d="M54.9955824,6 L55,15.4932642 L51.384,12.796 L40.679869,25.7681949 L31.5927162,20.8379441 L26.9589036,26.459286 L23.7736417,30.3439551 C21.7447284,32.8267246 20.2732312,34.6476331 19.6081017,35.5021465 L19.6081017,35.5021465 L19.3563321,35.830757 L19.2352541,36 L17,34.4229397 C17.2710296,34.0040369 18.6956602,32.222495 21.111116,29.2623537 L21.111116,29.2623537 L26.2074972,23.0499843 L30.9446764,17.3118153 L40.0296463,22.2408818 L49.18,11.152 L46.2001269,8.9292665 L54.9955824,6 Z" id="path-21"></path>
        <filter x="-20.3%" y="-19.0%" width="140.1%" height="148.9%" filterUnits="objectBoundingBox" id="filter-22">
            <feMorphology radius="0.5" operator="dilate" in="SourceAlpha" result="shadowSpreadOuter1"></feMorphology>
            <feOffset dx="0" dy="2" in="shadowSpreadOuter1" result="shadowOffsetOuter1"></feOffset>
            <feGaussianBlur stdDeviation="2" in="shadowOffsetOuter1" result="shadowBlurOuter1"></feGaussianBlur>
            <feComposite in="shadowBlurOuter1" in2="SourceAlpha" operator="out" result="shadowBlurOuter1"></feComposite>
            <feColorMatrix values="0 0 0 0 0.254901961   0 0 0 0 0.623529412   0 0 0 0 1  0 0 0 0.3 0" type="matrix" in="shadowBlurOuter1"></feColorMatrix>
        </filter>
    </defs>
    <g id="ICON/Data-Usage" stroke="none" stroke-width="1" fill="none" fill-rule="evenodd">
        <rect id="矩形" fill="#FF6969" opacity="0" x="0" y="2" width="96" height="96"></rect>
        <g id="编组-2" transform="translate(4.000000, 12.000000)">
            <g id="矩形" fill-rule="nonzero">
                <use fill="black" fill-opacity="1" filter="url(#filter-3)" xlink:href="#path-2"></use>
                <use fill="url(#linearGradient-1)" xlink:href="#path-2"></use>
            </g>
            <g id="编组" transform="translate(2.392311, 2.000000)">
                <mask id="mask-6" fill="white">
                    <use xlink:href="#path-5"></use>
                </mask>
                <use id="矩形备份-2" fill="url(#linearGradient-4)" xlink:href="#path-5"></use>
                <path d="M6.1076893,-4.5 L6.1076893,8 L14.1076893,8 L14.1076893,-4.5 L15.1076893,-4.5 L15.1076893,8 L23.1076893,8 L23.1076893,-4.5 L24.1076893,-4.5 L24.1076893,8 L32.1076893,8 L32.1076893,-4.5 L33.1076893,-4.5 L33.1076893,8 L41.1076893,8 L41.1076893,-4.5 L42.1076893,-4.5 L42.1076893,8 L50.1076893,8 L50.1076893,-4.5 L51.1076893,-4.5 L51.1076893,8 L59.1076893,8 L59.1076893,-4.5 L60.1076893,-4.5 L60.1076893,8 L68.1076893,8 L68.1076893,-4.5 L69.1076893,-4.5 L69.1076893,8 L77.1076893,8 L77.1076893,-4.5 L78.1076893,-4.5 L78.1076893,8 L87.6076893,8 L87.6076893,9 L78.1076893,9 L78.1076893,17 L87.6076893,17 L87.6076893,18 L78.1076893,18 L78.1076893,26 L87.6076893,26 L87.6076893,27 L78.1076893,27 L78.1076893,35 L87.6076893,35 L87.6076893,36 L78.1076893,36 L78.1066893,44 L87.6076893,44 L87.6076893,45 L78.1066893,45 L78.1066893,53 L87.6076893,53 L87.6076893,54 L78.1066893,54 L78.1066893,62 L87.6076893,62 L87.6076893,63 L78.1066893,63 L78.1076893,78.5 L77.1076893,78.5 L77.1066893,63 L69.1066893,63 L69.1076893,78.5 L68.1076893,78.5 L68.1066893,63 L60.1066893,63 L60.1076893,78.5 L59.1076893,78.5 L59.1066893,63 L51.1066893,63 L51.1076893,78.5 L50.1076893,78.5 L50.1066893,63 L42.1066893,63 L42.1076893,78.5 L41.1076893,78.5 L41.1066893,63 L33.1066893,63 L33.1076893,78.5 L32.1076893,78.5 L32.1066893,63 L24.1066893,63 L24.1076893,78.5 L23.1076893,78.5 L23.1066893,63 L15.1066893,63 L15.1076893,78.5 L14.1076893,78.5 L14.1066893,63 L6.1066893,63 L6.1076893,78.5 L5.1076893,78.5 L5.1066893,63 L-4.3923107,63 L-4.3923107,62 L5.1066893,62 L5.1066893,54 L-4.3923107,54 L-4.3923107,53 L5.1066893,53 L5.1066893,45 L-4.3923107,45 L-4.3923107,44 L5.1066893,44 L5.1076893,36 L-4.3923107,36 L-4.3923107,35 L5.1076893,35 L5.1076893,27 L-4.3923107,27 L-4.3923107,26 L5.1076893,26 L5.1076893,18 L-4.3923107,18 L-4.3923107,17 L5.1076893,17 L5.1076893,9 L-4.3923107,9 L-4.3923107,8 L5.1076893,8 L5.1076893,-4.5 L6.1076893,-4.5 Z M14.1066893,54 L6.1066893,54 L6.1066893,62 L14.1066893,62 L14.1066893,54 Z M23.1066893,54 L15.1066893,54 L15.1066893,62 L23.1066893,62 L23.1066893,54 Z M32.1066893,54 L24.1066893,54 L24.1066893,62 L32.1066893,62 L32.1066893,54 Z M41.1066893,54 L33.1066893,54 L33.1066893,62 L41.1066893,62 L41.1066893,54 Z M50.1066893,54 L42.1066893,54 L42.1066893,62 L50.1066893,62 L50.1066893,54 Z M59.1066893,54 L51.1066893,54 L51.1066893,62 L59.1066893,62 L59.1066893,54 Z M68.1066893,54 L60.1066893,54 L60.1066893,62 L68.1066893,62 L68.1066893,54 Z M77.1066893,54 L69.1066893,54 L69.1066893,62 L77.1066893,62 L77.1066893,54 Z M14.1066893,45 L6.1066893,45 L6.1066893,53 L14.1066893,53 L14.1066893,45 Z M23.1066893,45 L15.1066893,45 L15.1066893,53 L23.1066893,53 L23.1066893,45 Z M32.1066893,45 L24.1066893,45 L24.1066893,53 L32.1066893,53 L32.1066893,45 Z M41.1066893,45 L33.1066893,45 L33.1066893,53 L41.1066893,53 L41.1066893,45 Z M50.1066893,45 L42.1066893,45 L42.1066893,53 L50.1066893,53 L50.1066893,45 Z M59.1066893,45 L51.1066893,45 L51.1066893,53 L59.1066893,53 L59.1066893,45 Z M68.1066893,45 L60.1066893,45 L60.1066893,53 L68.1066893,53 L68.1066893,45 Z M77.1066893,45 L69.1066893,45 L69.1066893,53 L77.1066893,53 L77.1066893,45 Z M14.1076893,36 L6.1076893,36 L6.1066893,44 L14.1066893,44 L14.1076893,36 Z M23.1076893,36 L15.1076893,36 L15.1066893,44 L23.1066893,44 L23.1076893,36 Z M32.1076893,36 L24.1076893,36 L24.1066893,44 L32.1066893,44 L32.1076893,36 Z M41.1076893,36 L33.1076893,36 L33.1066893,44 L41.1066893,44 L41.1076893,36 Z M50.1076893,36 L42.1076893,36 L42.1066893,44 L50.1066893,44 L50.1076893,36 Z M59.1076893,36 L51.1076893,36 L51.1066893,44 L59.1066893,44 L59.1076893,36 Z M68.1076893,36 L60.1076893,36 L60.1066893,44 L68.1066893,44 L68.1076893,36 Z M77.1076893,36 L69.1076893,36 L69.1066893,44 L77.1066893,44 L77.1076893,36 Z M14.1076893,27 L6.1076893,27 L6.1076893,35 L14.1076893,35 L14.1076893,27 Z M23.1076893,27 L15.1076893,27 L15.1076893,35 L23.1076893,35 L23.1076893,27 Z M32.1076893,27 L24.1076893,27 L24.1076893,35 L32.1076893,35 L32.1076893,27 Z M41.1076893,27 L33.1076893,27 L33.1076893,35 L41.1076893,35 L41.1076893,27 Z M50.1076893,27 L42.1076893,27 L42.1076893,35 L50.1076893,35 L50.1076893,27 Z M59.1076893,27 L51.1076893,27 L51.1076893,35 L59.1076893,35 L59.1076893,27 Z M68.1076893,27 L60.1076893,27 L60.1076893,35 L68.1076893,35 L68.1076893,27 Z M77.1076893,27 L69.1076893,27 L69.1076893,35 L77.1076893,35 L77.1076893,27 Z M14.1076893,18 L6.1076893,18 L6.1076893,26 L14.1076893,26 L14.1076893,18 Z M23.1076893,18 L15.1076893,18 L15.1076893,26 L23.1076893,26 L23.1076893,18 Z M32.1076893,18 L24.1076893,18 L24.1076893,26 L32.1076893,26 L32.1076893,18 Z M41.1076893,18 L33.1076893,18 L33.1076893,26 L41.1076893,26 L41.1076893,18 Z M50.1076893,18 L42.1076893,18 L42.1076893,26 L50.1076893,26 L50.1076893,18 Z M59.1076893,18 L51.1076893,18 L51.1076893,26 L59.1076893,26 L59.1076893,18 Z M68.1076893,18 L60.1076893,18 L60.1076893,26 L68.1076893,26 L68.1076893,18 Z M77.1076893,18 L69.1076893,18 L69.1076893,26 L77.1076893,26 L77.1076893,18 Z M14.1076893,9 L6.1076893,9 L6.1076893,17 L14.1076893,17 L14.1076893,9 Z M23.1076893,9 L15.1076893,9 L15.1076893,17 L23.1076893,17 L23.1076893,9 Z M32.1076893,9 L24.1076893,9 L24.1076893,17 L32.1076893,17 L32.1076893,9 Z M41.1076893,9 L33.1076893,9 L33.1076893,17 L41.1076893,17 L41.1076893,9 Z M50.1076893,9 L42.1076893,9 L42.1076893,17 L50.1076893,17 L50.1076893,9 Z M59.1076893,9 L51.1076893,9 L51.1076893,17 L59.1076893,17 L59.1076893,9 Z M68.1076893,9 L60.1076893,9 L60.1076893,17 L68.1076893,17 L68.1076893,9 Z M77.1076893,9 L69.1076893,9 L69.1076893,17 L77.1076893,17 L77.1076893,9 Z" id="形状结合" fill="#D2F3FF" mask="url(#mask-6)"></path>
            </g>
            <g id="矩形">
                <use fill="black" fill-opacity="1" filter="url(#filter-10)" xlink:href="#path-9"></use>
                <use stroke="url(#linearGradient-8)" stroke-width="1" fill="url(#linearGradient-7)" fill-rule="evenodd" xlink:href="#path-9"></use>
            </g>
            <g id="矩形备份" fill-rule="nonzero">
                <use fill="black" fill-opacity="1" filter="url(#filter-14)" xlink:href="#path-13"></use>
                <rect stroke="url(#linearGradient-12)" stroke-width="1" stroke-linejoin="square" fill="url(#linearGradient-11)" fill-rule="evenodd" x="38.5" y="41.5" width="11" height="23" rx="2"></rect>
            </g>
            <g id="矩形备份-9">
                <use fill="black" fill-opacity="1" filter="url(#filter-18)" xlink:href="#path-17"></use>
                <rect stroke="url(#linearGradient-16)" stroke-width="1" stroke-linejoin="square" fill="url(#linearGradient-15)" fill-rule="evenodd" x="54.5" y="22.5" width="11" height="42" rx="2"></rect>
            </g>
            <g id="形状结合">
                <use fill="black" fill-opacity="1" filter="url(#filter-22)" xlink:href="#path-21"></use>
                <use stroke="url(#linearGradient-20)" stroke-width="1" fill="url(#linearGradient-19)" fill-rule="evenodd" xlink:href="#path-21"></use>
            </g>
        </g>
    </g>
</svg>