<?xml version="1.0" encoding="UTF-8"?>
<svg width="28px" height="28px" viewBox="0 0 28 28" version="1.1" xmlns="http://www.w3.org/2000/svg" xmlns:xlink="http://www.w3.org/1999/xlink">
    <title>pause_red_normal</title>
    <g id="浅色" stroke="none" stroke-width="1" fill="none" fill-rule="evenodd">
        <g id="按钮状态备份" transform="translate(-496.000000, -144.000000)" fill="#FFFFFF">
            <g id="pause_red_normal" transform="translate(496.000000, 144.000000)">
                <path d="M11,9 C12.1045695,9 13,9.8954305 13,11 L13,17 C13,18.1045695 12.1045695,19 11,19 C9.8954305,19 9,18.1045695 9,17 L9,11 C9,9.8954305 9.8954305,9 11,9 Z M17,9 C18.1045695,9 19,9.8954305 19,11 L19,17 C19,18.1045695 18.1045695,19 17,19 C15.8954305,19 15,18.1045695 15,17 L15,11 C15,9.8954305 15.8954305,9 17,9 Z" id="Combined-Shape"></path>
            </g>
        </g>
    </g>
</svg>