<?xml version="1.0" encoding="UTF-8"?>
<svg width="16px" height="16px" viewBox="0 0 16 16" version="1.1" xmlns="http://www.w3.org/2000/svg" xmlns:xlink="http://www.w3.org/1999/xlink">
    <title>icon/clear</title>
    <defs>
        <rect id="path-1" x="0" y="0" width="16" height="16"></rect>
    </defs>
    <g id="icon/clear" stroke="none" stroke-width="1" fill="none" fill-rule="evenodd">
        <g id="形状结合">
            <mask id="mask-2" fill="white">
                <use xlink:href="#path-1"></use>
            </mask>
            <g id="蒙版"></g>
            <path d="M9.38745249,0.629165125 C9.87515147,0.629165125 10.2705096,1.02452326 10.2705096,1.51222223 L10.2706054,5.36269105 C11.4256542,5.46246791 12.3429905,6.39342065 12.4214934,7.55442828 L12.4269434,7.7161682 L6.26570404,7.7161682 C6.26570404,6.48089217 7.21382216,5.46706099 8.42204201,5.36269105 L8.42213781,1.51222223 C8.42213781,1.02452326 8.81749594,0.629165125 9.30519491,0.629165125 L9.38745249,0.629165125 Z M6.26570404,8.30675179 L12.4269434,8.30675179 C12.8376927,10.0785026 13.3620449,11.5229443 14,12.640077 C13.420533,12.855166 13.09363,13.0532159 12.6037159,13.1801932 C12.1992629,12.5677903 11.7197539,11.4215929 11.1651888,9.74160115 C11.1651888,10.9358239 11.4025319,12.1341268 11.8772182,13.3365098 C11.4962102,13.4659166 9.80521602,13.6291651 9.46428204,13.6291651 C9.2509479,12.969773 9.09618722,11.9306473 9,10.511788 C8.62544303,11.794287 8.3572357,12.8334127 8.19537801,13.6291651 C7.84558254,13.6291651 6.86098903,13.5120697 6.17243904,13.4291664 C6.23663758,13.0549691 6.41388104,12.2345664 6.70416942,10.9679585 C6.00006428,12.354522 5.60098408,13.0919336 5.50692883,13.1801932 C5.32435873,13.1801932 4.17076372,12.8869638 4,12.7272618 C4.6502081,11.9882663 5.40544278,10.5147629 6.26570404,8.30675179 Z" fill="#000000" fill-rule="nonzero" mask="url(#mask-2)" transform="translate(9, 7.1292) rotate(-330) translate(-9, -7.1292)"></path>
        </g>
    </g>
</svg>