<?xml version="1.0" encoding="UTF-8"?>
<svg width="32px" height="32px" viewBox="0 0 32 32" version="1.1" xmlns="http://www.w3.org/2000/svg" xmlns:xlink="http://www.w3.org/1999/xlink">
    <!-- Generator: Sketch 58 (84663) - https://sketch.com -->
    <title>dcc_System Security_32px</title>
    <desc>Created with Sketch.</desc>
    <g id="dcc_System-Security_32px" stroke="none" stroke-width="1" fill="none" fill-rule="evenodd">
        <g id="编组-50" fill="#FFFFFF" fill-opacity="0" opacity="0">
            <rect id="矩形备份-33" x="0" y="0" width="32" height="32"></rect>
        </g>
        <g id="系统安全备份" transform="translate(9.000000, 9.000000)" fill="#536076">
            <path d="M10.5,6 L14,7.83310488 L13.7779587,9.7454657 C13.5648738,11.5806888 12.3982486,13.1598212 10.7215553,13.9072705 L10.5,14 L10.2784447,13.9072705 C8.67465112,13.192319 7.5375361,11.7164325 7.25520611,9.983343 L7.22204127,9.7454657 L7,7.83310488 L10.5,6 Z M11.5,0 C12.3284271,0 13,0.67157288 13,1.5 L13,6.234 L11,5.247 L11,3.4625 C11,2.65478355 10.3452164,2 9.5375,2 L3.4625,2 C2.65478355,2 2,2.65478355 2,3.4625 L2,9.5375 C2,10.3452164 2.65478355,11 3.4625,11 L6.44273218,11.0005188 C6.66125714,11.7351509 7.01898821,12.4130577 7.48853095,13.0010449 L1.5,13 C0.67157288,13 0,12.3284271 0,11.5 L0,1.5 C0,0.67157288 0.67157288,0 1.5,0 L11.5,0 Z M11.6052246,8.67071077 L11.5522475,8.74375832 L10.484,10.533 L9.4307303,8.74608773 L9.3781496,8.67275429 C9.2232291,8.49331854 8.95754174,8.44461918 8.74608773,8.56926974 C8.53463373,8.69392029 8.44858941,8.94996287 8.53056833,9.1723971 L8.56926974,9.2539123 L10.0508658,11.7672538 L10.1045771,11.8422369 C10.2989342,12.067276 10.6521278,12.0704777 10.8508535,11.8509935 L10.9109446,11.7695832 L12.4109446,9.2562417 L12.450087,9.1749373 C12.5332696,8.95295043 12.4486134,8.69644553 12.2378377,8.57065142 C12.027062,8.44485731 11.7611147,8.49211681 11.6052246,8.67071077 Z M1.5,11 C1.22385763,11 1,11.2238576 1,11.5 C1,11.7761424 1.22385763,12 1.5,12 C1.77614237,12 2,11.7761424 2,11.5 C2,11.2238576 1.77614237,11 1.5,11 Z M9.65,3 C9.8432997,3 10,3.15670034 10,3.35 L10,5.247 L6,7.22222222 L6.2185215,9.8121067 L6.238,10 L3.35,10 C3.15670034,10 3,9.8432997 3,9.65 L3,3.35 C3,3.15670034 3.15670034,3 3.35,3 L9.65,3 Z M1.5,1 C1.22385763,1 1,1.22385763 1,1.5 C1,1.77614237 1.22385763,2 1.5,2 C1.77614237,2 2,1.77614237 2,1.5 C2,1.22385763 1.77614237,1 1.5,1 Z M11.5,1 C11.2238576,1 11,1.22385763 11,1.5 C11,1.77614237 11.2238576,2 11.5,2 C11.7761424,2 12,1.77614237 12,1.5 C12,1.22385763 11.7761424,1 11.5,1 Z" id="形状"></path>
        </g>
    </g>
</svg>