<?xml version="1.0" encoding="UTF-8"?>
<svg width="32px" height="32px" viewBox="0 0 32 32" version="1.1" xmlns="http://www.w3.org/2000/svg" xmlns:xlink="http://www.w3.org/1999/xlink">
    <!-- Generator: Sketch 58 (84663) - https://sketch.com -->
    <title>dcc_Virus Scan_32px</title>
    <desc>Created with Sketch.</desc>
    <g id="dcc_Virus-Scan_32px" stroke="none" stroke-width="1" fill="none" fill-rule="evenodd">
        <g id="编组-50">
            <rect id="矩形备份-31" fill="#FF6969" opacity="0" x="0" y="0" width="32" height="32"></rect>
            <g id="病毒查杀" transform="translate(9.000000, 9.000000)" fill="#536076">
                <path d="M6.5,0 C10.0898509,0 13,2.91014913 13,6.5 C13,7.91185936 12.5498624,9.2185835 11.7852738,10.2844856 L12.9393398,11.4393398 C13.5251263,12.0251263 13.5251263,12.9748737 12.9393398,13.5606602 C12.3535534,14.1464466 11.4038059,14.1464466 10.8180195,13.5606602 L9.5169915,12.2589015 C8.61537819,12.7322143 7.58896145,13 6.5,13 C2.91014913,13 0,10.0898509 0,6.5 C0,2.91014913 2.91014913,0 6.5,0 Z M6.5,1 C3.46243388,1 1,3.46243388 1,6.5 C1,9.5375661 3.46243388,12 6.5,12 C9.5375661,12 12,9.5375661 12,6.5 C12,3.46243388 9.5375661,1 6.5,1 Z M6.5,2 C8.98528137,2 11,4.01471863 11,6.5 C11,8.98528137 8.98528137,11 6.5,11 C4.01471863,11 2,8.98528137 2,6.5 C2,4.01471863 4.01471863,2 6.5,2 Z M7.80689011,3 L5.6403882,3 C5.41095438,3 5.21096283,3.15614869 5.15531695,3.37873219 L5.15531695,3.37873219 L4.34319017,6.62723931 C4.33724113,6.65103549 4.33423292,6.67547146 4.33423292,6.7 C4.33423292,6.86568542 4.4685475,7 4.63423292,7 L4.63423292,7 L6.25,7 L5.4996507,10.0013972 C5.47987447,10.0805021 5.51010095,10.1636924 5.57604486,10.2116516 C5.66537538,10.2766192 5.79045876,10.2568692 5.85542641,10.1675387 L5.85542641,10.1675387 L8.90348981,5.97645151 C8.94078152,5.92517542 8.96086899,5.86340275 8.96086899,5.8 C8.96086899,5.63431458 8.82655441,5.5 8.66086899,5.5 L8.66086899,5.5 L7.25,5.5 L8.08543312,3.4114172 C8.09960755,3.37598112 8.10689011,3.33816583 8.10689011,3.3 C8.10689011,3.13431458 7.97257554,3 7.80689011,3 L7.80689011,3 Z" id="形状"></path>
            </g>
        </g>
    </g>
</svg>