<?xml version="1.0" encoding="UTF-8"?>
<svg width="146px" height="146px" viewBox="0 0 146 146" version="1.1" xmlns="http://www.w3.org/2000/svg" xmlns:xlink="http://www.w3.org/1999/xlink">
    <title>Illustration/Anti_Virus/Custom_killing</title>
    <defs>
        <linearGradient x1="50%" y1="0%" x2="50%" y2="100%" id="linearGradient-1">
            <stop stop-color="#B4C7FF" stop-opacity="0.413890065" offset="0%"></stop>
            <stop stop-color="#E2F6FF" offset="100%"></stop>
        </linearGradient>
        <path d="M6.08333333,0 L69.7638755,0 C73.1236078,0 75.8472089,2.72360111 75.8472089,6.08333333 L75.8472089,56.6522015 C75.8472089,60.0119338 73.1236078,62.7355349 69.7638755,62.7355349 L6.08333333,62.7355349 C2.72360111,62.7355349 0,60.0119338 0,56.6522015 L0,6.08333333 C0,2.72360111 2.72360111,0 6.08333333,0 Z" id="path-2"></path>
        <filter x="-11.2%" y="-12.0%" width="127.7%" height="133.5%" filterUnits="objectBoundingBox" id="filter-4">
            <feOffset dx="2" dy="3" in="SourceAlpha" result="shadowOffsetOuter1"></feOffset>
            <feGaussianBlur stdDeviation="3" in="shadowOffsetOuter1" result="shadowBlurOuter1"></feGaussianBlur>
            <feColorMatrix values="0 0 0 0 0   0 0 0 0 0.392565787   0 0 0 0 1  0 0 0 0.123839052 0" type="matrix" in="shadowBlurOuter1"></feColorMatrix>
        </filter>
        <filter x="-9.9%" y="-10.4%" width="125.1%" height="130.3%" filterUnits="objectBoundingBox" id="filter-5">
            <feGaussianBlur stdDeviation="2.5" in="SourceAlpha" result="shadowBlurInner1"></feGaussianBlur>
            <feOffset dx="0" dy="-2" in="shadowBlurInner1" result="shadowOffsetInner1"></feOffset>
            <feComposite in="shadowOffsetInner1" in2="SourceAlpha" operator="arithmetic" k2="-1" k3="1" result="shadowInnerInner1"></feComposite>
            <feColorMatrix values="0 0 0 0 0   0 0 0 0 0.604784787   0 0 0 0 1  0 0 0 0.205659453 0" type="matrix" in="shadowInnerInner1"></feColorMatrix>
        </filter>
        <path d="M6.08333333,0 L45.03109,0 C48.3908223,0 51.1144234,2.72360111 51.1144234,6.08333333 L51.1144234,36.84098 C51.1144234,40.2007122 48.3908223,42.9243133 45.03109,42.9243133 L6.08333333,42.9243133 C2.72360111,42.9243133 0,40.2007122 0,36.84098 L0,6.08333333 C0,2.72360111 2.72360111,0 6.08333333,0 Z" id="path-6"></path>
        <filter x="-15.7%" y="-23.3%" width="139.1%" height="146.6%" filterUnits="objectBoundingBox" id="filter-8">
            <feOffset dx="2" dy="0" in="SourceAlpha" result="shadowOffsetOuter1"></feOffset>
            <feGaussianBlur stdDeviation="3" in="shadowOffsetOuter1" result="shadowBlurOuter1"></feGaussianBlur>
            <feColorMatrix values="0 0 0 0 0   0 0 0 0 0.392565787   0 0 0 0 1  0 0 0 0.123839052 0" type="matrix" in="shadowBlurOuter1"></feColorMatrix>
        </filter>
        <filter x="-14.7%" y="-22.1%" width="137.2%" height="144.3%" filterUnits="objectBoundingBox" id="filter-9">
            <feGaussianBlur stdDeviation="2.5" in="SourceAlpha" result="shadowBlurInner1"></feGaussianBlur>
            <feOffset dx="0" dy="-2" in="shadowBlurInner1" result="shadowOffsetInner1"></feOffset>
            <feComposite in="shadowOffsetInner1" in2="SourceAlpha" operator="arithmetic" k2="-1" k3="1" result="shadowInnerInner1"></feComposite>
            <feColorMatrix values="0 0 0 0 0   0 0 0 0 0.604784787   0 0 0 0 1  0 0 0 0.205659453 0" type="matrix" in="shadowInnerInner1"></feColorMatrix>
        </filter>
        <linearGradient x1="50%" y1="0%" x2="50%" y2="100%" id="linearGradient-10">
            <stop stop-color="#00BBFF" offset="0%"></stop>
            <stop stop-color="#0083FF" offset="100%"></stop>
        </linearGradient>
        <linearGradient x1="50%" y1="0%" x2="50%" y2="100%" id="linearGradient-11">
            <stop stop-color="#F8FCFF" offset="0%"></stop>
            <stop stop-color="#E3F3FF" offset="100%"></stop>
        </linearGradient>
        <path d="M7.60416667,0 L68.2430422,0 C72.4427075,0 75.8472089,3.40450138 75.8472089,7.60416667 L75.8472089,61.7351087 C75.8472089,65.934774 72.4427075,69.3392754 68.2430422,69.3392754 L7.60416667,69.3392754 C3.40450138,69.3392754 0,65.934774 0,61.7351087 L0,7.60416667 C0,3.40450138 3.40450138,0 7.60416667,0 Z" id="path-12"></path>
        <filter x="-11.2%" y="-9.4%" width="130.3%" height="133.2%" filterUnits="objectBoundingBox" id="filter-14">
            <feOffset dx="3" dy="5" in="SourceAlpha" result="shadowOffsetOuter1"></feOffset>
            <feGaussianBlur stdDeviation="3" in="shadowOffsetOuter1" result="shadowBlurOuter1"></feGaussianBlur>
            <feColorMatrix values="0 0 0 0 0   0 0 0 0 0.604795039   0 0 0 0 1  0 0 0 0.123839052 0" type="matrix" in="shadowBlurOuter1"></feColorMatrix>
        </filter>
        <filter x="-8.6%" y="-6.5%" width="125.1%" height="127.4%" filterUnits="objectBoundingBox" id="filter-15">
            <feGaussianBlur stdDeviation="2.5" in="SourceAlpha" result="shadowBlurInner1"></feGaussianBlur>
            <feOffset dx="0" dy="-2" in="shadowBlurInner1" result="shadowOffsetInner1"></feOffset>
            <feComposite in="shadowOffsetInner1" in2="SourceAlpha" operator="arithmetic" k2="-1" k3="1" result="shadowInnerInner1"></feComposite>
            <feColorMatrix values="0 0 0 0 0   0 0 0 0 0.604784787   0 0 0 0 1  0 0 0 0.390497808 0" type="matrix" in="shadowInnerInner1"></feColorMatrix>
        </filter>
        <linearGradient x1="44.8767001%" y1="100%" x2="57.5891377%" y2="0%" id="linearGradient-16">
            <stop stop-color="#0074FF" offset="0%"></stop>
            <stop stop-color="#00FFFF" offset="100%"></stop>
        </linearGradient>
        <linearGradient x1="60.9341509%" y1="0%" x2="60.9341509%" y2="105.955681%" id="linearGradient-17">
            <stop stop-color="#52BAFF" offset="0%"></stop>
            <stop stop-color="#006EF9" offset="100%"></stop>
        </linearGradient>
        <path d="M2.70284842,0 L72.594743,0 C74.6945756,0 76.3968263,1.70225069 76.3968263,3.80208333 L76.3968263,19.8112215 L-1.09923491,19.8112215 L-1.09923491,3.80208333 C-1.09923491,1.70225069 0.603015779,0 2.70284842,0 Z" id="path-18"></path>
        <filter x="-4.5%" y="-17.7%" width="109.0%" height="135.3%" filterUnits="objectBoundingBox" id="filter-19">
            <feGaussianBlur stdDeviation="2.5" in="SourceAlpha" result="shadowBlurInner1"></feGaussianBlur>
            <feOffset dx="0" dy="2" in="shadowBlurInner1" result="shadowOffsetInner1"></feOffset>
            <feComposite in="shadowOffsetInner1" in2="SourceAlpha" operator="arithmetic" k2="-1" k3="1" result="shadowInnerInner1"></feComposite>
            <feColorMatrix values="0 0 0 0 0.999901831   0 0 0 0 1   0 0 0 0 0.999879897  0 0 0 0.5 0" type="matrix" in="shadowInnerInner1"></feColorMatrix>
        </filter>
    </defs>
    <g id="Illustration/Anti_Virus/Custom_killing" stroke="none" stroke-width="1" fill="none" fill-rule="evenodd">
        <rect id="矩形" x="0" y="0" width="146" height="146"></rect>
        <circle id="椭圆形" fill="url(#linearGradient-1)" opacity="0.400000006" cx="74.5208333" cy="73" r="54.75"></circle>
        <g id="编组" transform="translate(7.604167, 13.687500)">
            <g id="编组-13" transform="translate(32.977047, 0.000000)">
                <g id="矩形备份-5">
                    <mask id="mask-3" fill="white">
                        <use xlink:href="#path-2"></use>
                    </mask>
                    <g id="蒙版">
                        <use fill="black" fill-opacity="1" filter="url(#filter-4)" xlink:href="#path-2"></use>
                        <use fill="#FFFFFF" fill-rule="evenodd" xlink:href="#path-2"></use>
                        <use fill="black" fill-opacity="1" filter="url(#filter-5)" xlink:href="#path-2"></use>
                    </g>
                    <path d="M6.08333333,0 L69.7638755,0 C73.1236078,0 75.8472089,2.72360111 75.8472089,6.08333333 L75.8472089,16.5093513 L0,16.5093513 L0,6.08333333 C0,2.72360111 2.72360111,0 6.08333333,0 Z" fill-opacity="0.5" fill="#A7D8FF" mask="url(#mask-3)"></path>
                </g>
                <path d="M8.5002999,46.2261836 C10.180166,46.2261836 11.5419666,47.5879841 11.5419666,49.2678502 L11.5419666,49.7882574 C11.5419666,51.4681235 10.180166,52.8299241 8.5002999,52.8299241 L7.98822377,52.8299241 C6.30835765,52.8299241 4.9465571,51.4681235 4.9465571,49.7882574 L4.9465571,49.2678502 C4.9465571,47.5879841 6.30835765,46.2261836 7.98822377,46.2261836 L8.5002999,46.2261836 Z M67.8589851,46.2261836 C69.5388512,46.2261836 70.9006518,47.5879841 70.9006518,49.2678502 L70.9006518,49.7882574 C70.9006518,51.4681235 69.5388512,52.8299241 67.8589851,52.8299241 L21.1790427,52.8299241 C19.4991766,52.8299241 18.137376,51.4681235 18.137376,49.7882574 L18.137376,49.2678502 C18.137376,47.5879841 19.4991766,46.2261836 21.1790427,46.2261836 L67.8589851,46.2261836 Z M8.5002999,34.6696377 C10.180166,34.6696377 11.5419666,36.0314382 11.5419666,37.7113044 L11.5419666,38.2317115 C11.5419666,39.9115776 10.180166,41.2733782 8.5002999,41.2733782 L7.98822377,41.2733782 C6.30835765,41.2733782 4.9465571,39.9115776 4.9465571,38.2317115 L4.9465571,37.7113044 C4.9465571,36.0314382 6.30835765,34.6696377 7.98822377,34.6696377 L8.5002999,34.6696377 Z M67.8589851,34.6696377 C69.5388512,34.6696377 70.9006518,36.0314382 70.9006518,37.7113044 L70.9006518,38.2317115 C70.9006518,39.9115776 69.5388512,41.2733782 67.8589851,41.2733782 L21.1790427,41.2733782 C19.4991766,41.2733782 18.137376,39.9115776 18.137376,38.2317115 L18.137376,37.7113044 C18.137376,36.0314382 19.4991766,34.6696377 21.1790427,34.6696377 L67.8589851,34.6696377 Z M8.5002999,23.1130918 C10.180166,23.1130918 11.5419666,24.4748923 11.5419666,26.1547585 L11.5419666,26.6751656 C11.5419666,28.3550317 10.180166,29.7168323 8.5002999,29.7168323 L7.98822377,29.7168323 C6.30835765,29.7168323 4.9465571,28.3550317 4.9465571,26.6751656 L4.9465571,26.1547585 C4.9465571,24.4748923 6.30835765,23.1130918 7.98822377,23.1130918 L8.5002999,23.1130918 Z M67.8589851,23.1130918 C69.5388512,23.1130918 70.9006518,24.4748923 70.9006518,26.1547585 L70.9006518,26.6751656 C70.9006518,28.3550317 69.5388512,29.7168323 67.8589851,29.7168323 L21.1790427,29.7168323 C19.4991766,29.7168323 18.137376,28.3550317 18.137376,26.6751656 L18.137376,26.1547585 C18.137376,24.4748923 19.4991766,23.1130918 21.1790427,23.1130918 L67.8589851,23.1130918 Z" id="形状" fill="#00AFFF" opacity="0.100000001"></path>
            </g>
            <g id="编组-13备份" transform="translate(79.144914, 38.971934)">
                <g id="矩形备份-5">
                    <mask id="mask-7" fill="white">
                        <use xlink:href="#path-6"></use>
                    </mask>
                    <g id="蒙版">
                        <use fill="black" fill-opacity="1" filter="url(#filter-8)" xlink:href="#path-6"></use>
                        <use fill="#FFFFFF" fill-rule="evenodd" xlink:href="#path-6"></use>
                        <use fill="black" fill-opacity="1" filter="url(#filter-9)" xlink:href="#path-6"></use>
                    </g>
                    <path d="M6.08333333,0 L45.03109,0 C48.3908223,0 51.1144234,2.72360111 51.1144234,6.08333333 L51.1144234,11.5565459 L0,11.5565459 L0,6.08333333 C0,2.72360111 2.72360111,0 6.08333333,0 Z" fill-opacity="0.5" fill="#A7D8FF" mask="url(#mask-7)"></path>
                </g>
                <path d="M35.1363048,17.1518858 C35.6932291,16.5231387 36.6544056,16.4649148 37.2831527,17.0218391 C37.8635346,17.5359231 37.9577902,18.3944587 37.5308209,19.0180258 L37.4131993,19.168687 L24.7552076,33.4590927 C23.9710901,34.3424324 22.6548255,34.4730494 21.7169826,33.7967602 L21.5347295,33.6507276 L13.8300569,26.8114917 C13.2019042,26.2538971 13.1447057,25.292659 13.7023003,24.6645063 C14.2170031,24.0846731 15.0756387,23.9913333 15.69875,24.4189676 L15.8492857,24.5367497 L22.9843542,30.869875 L35.1363048,17.1518858 Z" id="Path-3" fill="url(#linearGradient-10)" fill-rule="nonzero"></path>
            </g>
            <g id="路径-+-矩形备份-3-蒙版" transform="translate(0.000000, 38.971934)">
                <mask id="mask-13" fill="white">
                    <use xlink:href="#path-12"></use>
                </mask>
                <g id="蒙版">
                    <use fill="black" fill-opacity="1" filter="url(#filter-14)" xlink:href="#path-12"></use>
                    <use fill="url(#linearGradient-11)" fill-rule="evenodd" xlink:href="#path-12"></use>
                    <use fill="black" fill-opacity="1" filter="url(#filter-15)" xlink:href="#path-12"></use>
                </g>
                <path d="M35.0387148,26.414962 L47.8389961,26.420801 L42.1014324,40.0484536 C41.7755096,40.8225737 42.1388452,41.7143346 42.9129653,42.0402575 C43.095513,42.1171144 43.291316,42.1575729 43.4893752,42.1593605 L51.1144234,42.2281795 L51.1144234,42.2281795 L34.9902175,62.7355349 L38.2635909,49.9166845 C38.4714046,49.1028658 37.9801404,48.274669 37.1663216,48.0668553 C37.0433591,48.035456 36.9169499,48.0195712 36.7900417,48.0195712 L26.3816379,48.0195712 L26.3816379,48.0195712 L35.0387148,26.414962 Z" id="路径" fill="url(#linearGradient-16)" fill-rule="nonzero" opacity="0.800000012" mask="url(#mask-13)"></path>
                <g id="矩形备份-3" mask="url(#mask-13)">
                    <use fill="url(#linearGradient-17)" fill-rule="evenodd" xlink:href="#path-18"></use>
                    <use fill="black" fill-opacity="1" filter="url(#filter-19)" xlink:href="#path-18"></use>
                </g>
            </g>
        </g>
    </g>
</svg>