<?xml version="1.0" encoding="UTF-8"?>
<svg width="146px" height="146px" viewBox="0 0 146 146" version="1.1" xmlns="http://www.w3.org/2000/svg" xmlns:xlink="http://www.w3.org/1999/xlink">
    <title>Illustration/Repair_Trojan </title>
    <defs>
        <linearGradient x1="50%" y1="0%" x2="50%" y2="98.5538974%" id="linearGradient-1">
            <stop stop-color="#87CEFF" offset="0%"></stop>
            <stop stop-color="#4AA3FF" offset="100%"></stop>
        </linearGradient>
        <path d="M67,63.4228733 L67,63.0573667 C66.8050784,61.6234565 63.185106,58.5025929 59.0917526,56.6469444 C58.1768698,56.2146208 57.1780278,55.9937058 56.1679287,56 C53.0564875,56.2880738 50.2558671,58.0242417 48.5938326,60.6956322 C47.3124281,62.6185695 46.131989,64.6081689 45.0573981,66.6562004 C44.6397089,67.3872134 44.2777117,68.1744583 43.8600225,68.8773555 C42.8949109,68.5841307 41.8870809,68.460497 40.8805068,68.5118489 L39.6831313,68.5118489 C37.3302828,68.5596767 35.0216867,69.1665012 32.9444135,70.2831499 C32.8995861,70.3004562 32.8500111,70.3004562 32.8051837,70.2831499 C32.2761109,70.255034 30.9673516,70.0582228 29.352287,70.0582228 C25.3981633,70.0582228 19.6340534,70.7892358 17.879759,74.3037218 C17.6652573,74.7118959 17.4791676,75.1346568 17.3228402,75.5689368 C16.6266917,77.4245854 17.1836105,78.3805256 17.7962212,78.9147274 C19.4391318,80.6016807 21.6668071,82.513561 23.3654095,82.513561 L23.6995608,82.513561 C24.3189127,82.433017 24.8491692,82.0261154 25.0918579,81.4451573 C25.6801256,80.0053272 26.6421039,78.7523451 27.8764521,77.8182078 C26.0117772,82.1360414 25.063225,86.8002731 25.0918579,91.5106451 C25.0630834,91.6402442 25.0630834,91.7746684 25.0918579,91.9042675 C23.7829887,91.5983147 22.4910011,91.2229154 21.221272,90.779632 C20.9001987,90.661787 20.5603892,90.6046031 20.2188181,90.6109367 C19.540072,90.6181476 18.8795966,90.8339023 18.3252941,91.2294862 C17.644148,91.6887565 17.2282544,92.4551204 17.2114564,93.281946 L17.2114564,94.9126675 C17.2712318,95.9960972 17.9431482,96.9480879 18.9379048,97.3587497 C26.2482586,99.9203718 33.9516454,101.148487 41.6880391,100.985699 C49.5180404,101.120628 57.3112505,99.8741859 64.7166328,97.3025179 C65.7396673,96.9286731 66.4270019,95.9548375 66.4430812,94.8564357 L66.4430812,93.2257142 C66.4262832,92.3988886 66.0103896,91.6325247 65.3292435,91.1732545 C64.7671618,90.7721972 64.0961371,90.5561732 63.4078735,90.5547049 C63.0668766,90.5557203 62.7283104,90.612695 62.4054196,90.7234002 C61.3751198,91.0889068 60.34482,91.3700656 59.2866742,91.6512245 L59.2866742,91.5106451 C59.2092238,90.9419578 59.162744,90.369407 59.1474445,89.7955759 C59.0061038,84.6812343 57.5988696,79.6840028 55.0540911,75.259662 C54.9377019,75.0850971 54.8441092,74.8960972 54.7756316,74.6973442 C54.7756316,74.6973442 54.7756316,74.1912583 55.7502396,73.4040134 C56.7248476,72.6167685 56.7248476,72.5605368 57.1425367,72.4761891 C57.6006031,73.0783256 57.9927329,73.7287839 58.3120662,74.4161854 C58.9588816,75.5836865 60.1896744,76.2969023 61.5143495,76.2718339 C61.9355141,76.2652873 62.3551014,76.2182146 62.7674169,76.1312545 C64.4938653,75.6814003 66.2481596,74.2756059 66.2481596,72.757348 C66.1779258,71.8110184 66.0383136,70.8712473 65.8304705,69.9457592 C65.4898932,68.7691634 65.3486756,67.5429179 65.4127813,66.3188097 C65.5642253,65.759701 65.8513441,65.2475404 66.2481596,64.8286677 C66.6208174,64.4378923 66.8807723,63.9518277 67,63.4228733 Z M32,92.3880047 C34.0318587,88.2224726 38.4649041,85.3855668 43.5447471,85 C48.5691077,85.3605331 52.9671457,88.1460084 55,92.2551268 C51.0087177,92.7668913 46.9804887,93.015605 42.9481193,92.9992424 C39.2879062,93.0020274 35.6311838,92.7978712 32,92.3880047 Z" id="path-2"></path>
        <filter x="-12.0%" y="-13.3%" width="124.0%" height="126.7%" filterUnits="objectBoundingBox" id="filter-3">
            <feGaussianBlur stdDeviation="3.5" in="SourceAlpha" result="shadowBlurInner1"></feGaussianBlur>
            <feOffset dx="0" dy="-5" in="shadowBlurInner1" result="shadowOffsetInner1"></feOffset>
            <feComposite in="shadowOffsetInner1" in2="SourceAlpha" operator="arithmetic" k2="-1" k3="1" result="shadowInnerInner1"></feComposite>
            <feColorMatrix values="0 0 0 0 0   0 0 0 0 0.376560518   0 0 0 0 0.890871794  0 0 0 0.315229936 0" type="matrix" in="shadowInnerInner1"></feColorMatrix>
        </filter>
        <linearGradient x1="0%" y1="50%" x2="100%" y2="50%" id="linearGradient-4">
            <stop stop-color="#FF8955" offset="0%"></stop>
            <stop stop-color="#FF1925" offset="100%"></stop>
        </linearGradient>
        <linearGradient x1="50%" y1="1.79026897%" x2="50%" y2="88.721488%" id="linearGradient-5">
            <stop stop-color="#FFF854" offset="0%"></stop>
            <stop stop-color="#FFBB6A" offset="100%"></stop>
        </linearGradient>
        <path d="M31.8188663,51 L31.8188663,37.0838084 L23.7562372,37.0838084 C23.2039525,37.0838084 22.7562372,36.6360932 22.7562372,36.0838084 C22.7562372,35.9042118 22.8046043,35.7279296 22.8962576,35.5734801 L35.1049521,15 L35.1049521,15 L35.1049521,29.7724723 L43.201951,29.7724723 C43.7542358,29.7724723 44.201951,30.2201875 44.201951,30.7724723 C44.201951,30.9588992 44.1498377,31.1416143 44.0514938,31.2999919 L31.8188663,51 L31.8188663,51 Z" id="path-6"></path>
        <filter x="-31.5%" y="-11.1%" width="162.8%" height="144.4%" filterUnits="objectBoundingBox" id="filter-7">
            <feOffset dx="0" dy="4" in="SourceAlpha" result="shadowOffsetOuter1"></feOffset>
            <feGaussianBlur stdDeviation="2" in="shadowOffsetOuter1" result="shadowBlurOuter1"></feGaussianBlur>
            <feColorMatrix values="0 0 0 0 1   0 0 0 0 0.308446924   0 0 0 0 0  0 0 0 0.377232265 0" type="matrix" in="shadowBlurOuter1"></feColorMatrix>
        </filter>
        <filter x="-22.8%" y="-5.6%" width="145.4%" height="133.3%" filterUnits="objectBoundingBox" id="filter-8">
            <feGaussianBlur stdDeviation="1.5" in="SourceAlpha" result="shadowBlurInner1"></feGaussianBlur>
            <feOffset dx="1" dy="1" in="shadowBlurInner1" result="shadowOffsetInner1"></feOffset>
            <feComposite in="shadowOffsetInner1" in2="SourceAlpha" operator="arithmetic" k2="-1" k3="1" result="shadowInnerInner1"></feComposite>
            <feColorMatrix values="0 0 0 0 1   0 0 0 0 0.980767162   0 0 0 0 0.924420613  0 0 0 0.5 0" type="matrix" in="shadowInnerInner1"></feColorMatrix>
        </filter>
        <linearGradient x1="50%" y1="100%" x2="50%" y2="-3.52209751e-13%" id="linearGradient-9">
            <stop stop-color="#FF1925" offset="0%"></stop>
            <stop stop-color="#FF8955" offset="100%"></stop>
        </linearGradient>
    </defs>
    <g id="Illustration/Repair_Trojan-" stroke="none" stroke-width="1" fill="none" fill-rule="evenodd">
        <g id="形状" fill-rule="nonzero" transform="translate(42.000000, 78.499935) scale(-1, 1) translate(-42.000000, -78.499935) ">
            <use fill="url(#linearGradient-1)" xlink:href="#path-2"></use>
            <use fill="black" fill-opacity="1" filter="url(#filter-3)" xlink:href="#path-2"></use>
        </g>
        <g id="编组" transform="translate(52.000000, 39.000000)">
            <path d="M33,0 C48.463973,-2.84068575e-15 61,12.536027 61,28 L61,66 L61,66 L5,66 L5,28 C5,12.536027 17.536027,2.84068575e-15 33,0 Z" id="矩形" fill="url(#linearGradient-4)"></path>
            <g id="路径">
                <use fill="black" fill-opacity="1" filter="url(#filter-7)" xlink:href="#path-6"></use>
                <use fill="url(#linearGradient-5)" fill-rule="evenodd" xlink:href="#path-6"></use>
                <use fill="black" fill-opacity="1" filter="url(#filter-8)" xlink:href="#path-6"></use>
            </g>
            <rect id="矩形" fill="url(#linearGradient-9)" x="0" y="62" width="66" height="7" rx="3.5"></rect>
        </g>
    </g>
</svg>