<?xml version="1.0" encoding="UTF-8"?>
<svg width="16px" height="16px" viewBox="0 0 16 16" version="1.1" xmlns="http://www.w3.org/2000/svg" xmlns:xlink="http://www.w3.org/1999/xlink">
    <!-- Generator: Sketch 58 (84663) - https://sketch.com -->
    <title>icon_details</title>
    <desc>Created with Sketch.</desc>
    <g id="病毒查杀" stroke="none" stroke-width="1" fill="none" fill-rule="evenodd">
        <g id="系统安全_病毒查杀_首页-查杀日志" transform="translate(-725.000000, -278.000000)">
            <g id="隔离区弹窗备份" transform="translate(286.000000, 168.000000)">
                <g id="编组-11" transform="translate(30.000000, 97.000000)">
                    <g id="icon_details" transform="translate(409.000000, 13.000000)">
                        <rect id="矩形" fill="#FF6969" opacity="0" x="0" y="0" width="16" height="16"></rect>
                        <path d="M8.4180942,8.4215843 C9.57048927,7.26480642 11.4137201,7.18746691 12.6582667,8.24367233 C13.9028134,9.29987774 14.1334153,11.1372103 13.1887439,12.4702764 L13.1887439,12.4702764 L15.179376,14.4684793 C15.382975,14.6728527 15.382975,15.0042074 15.179376,15.2085808 C14.975777,15.4129541 14.6456777,15.4129541 14.4420787,15.2085808 L14.4420787,15.2085808 L12.4514466,13.2103779 C11.1234312,14.158642 9.29305995,13.9271631 8.2408563,12.6778832 C7.18865265,11.4286033 7.26569913,9.57836219 8.4180942,8.4215843 Z M12.4743775,7.43304554e-07 C13.1443083,-0.000303520944 13.786888,0.265668916 14.2606006,0.739343373 C14.7343133,1.21301783 15.0003071,1.85554579 15.0000023,2.52542256 L15.0000023,2.52542256 L15.0000023,2.52717646 L14.9778045,9.10904419 C14.9742526,9.40299781 14.7346848,9.63929612 14.4406864,9.63883194 C14.146688,9.63836775 13.9078677,9.40131413 13.9052442,9.10735076 L13.9052442,9.10735076 L13.9052442,9.10559689 L13.9278652,2.52481778 C13.9276837,2.13636125 13.7776233,1.7712496 13.5030265,1.49667499 C13.2308116,1.22296815 12.8604184,1.06950485 12.4743775,1.07047957 L12.4743775,1.07047957 L2.52411717,1.07047957 C2.13838461,1.07059177 1.76850497,1.22396428 1.49589268,1.49683817 C1.22328039,1.76971207 1.07028019,2.13972117 1.07056904,2.52542256 L1.07056904,2.52542256 L1.07056904,12.4748813 C1.07029623,12.8605499 1.22331124,13.2305186 1.49592874,13.503341 C1.76854625,13.7761634 2.13841734,13.9294738 2.52411717,13.9295219 L2.52411717,13.9295219 L9.10663619,13.9295219 C9.40226436,13.9295219 9.64191835,14.1691566 9.64191835,14.4647609 C9.64191835,14.7603653 9.40226436,15.0000007 9.10663619,15.0000007 L9.10663619,15.0000007 L2.52417766,15.0000007 C1.85436367,15.0005305 1.2118478,14.7346256 0.738325441,14.2609258 C0.264803077,13.787226 -0.00083076163,13.144641 2.34854724e-06,12.4748813 L2.34854724e-06,12.4748813 L2.34854724e-06,2.52542256 C-0.000911119161,1.85562097 0.26467893,1.21296733 0.738196928,0.739203835 C1.21171493,0.265440343 1.85426118,-0.00051313395 2.52411717,7.43304554e-07 L2.52411717,7.43304554e-07 Z M12.3730597,9.48477435 C11.8197157,8.65345301 10.7584142,8.33026328 9.83820288,8.71285458 C8.91799161,9.09544588 8.39516146,10.0772616 8.58945362,11.057864 C8.78374578,12.0384663 9.64104735,12.7447768 10.6370683,12.7447768 C11.1911221,12.7462789 11.7226962,12.5252604 12.1133714,12.1309746 C12.8176766,11.4240149 12.9264037,10.3160957 12.3730597,9.48477435 Z M2.66540408,9.2857776 L5.3287115,9.28678286 C5.56782297,9.28478213 5.7898674,9.38399104 5.91016331,9.54657413 C6.03045923,9.70915722 6.03045923,9.91004719 5.91016331,10.0726303 C5.7898674,10.2352134 5.56782297,10.3344223 5.3287115,10.3324215 L5.3287115,10.3324215 L2.66540408,10.3321259 C2.29812432,10.3321259 2.00038525,10.0978928 2.00038525,9.80895174 C2.00038525,9.52001064 2.29812432,9.2857776 2.66540408,9.2857776 L2.66540408,9.2857776 Z M8.1259567,6.1458458 C8.43838096,6.1458458 8.7270729,6.24559039 8.88328503,6.40750677 C9.03949717,6.56942316 9.03949717,6.76891237 8.88328503,6.93082875 C8.7270729,7.09274514 8.43838096,7.19248973 8.1259567,7.19248973 L8.1259567,7.19248973 L2.87409168,7.19148449 C2.56196748,7.1914845 2.27355282,7.09183569 2.11749071,6.93007482 C1.96142861,6.76831395 1.96142861,6.56901633 2.11749071,6.40725546 C2.27355282,6.24549459 2.56196748,6.1458458 2.87409168,6.1458458 L2.87409168,6.1458458 Z M2.55509445,3.00000074 L11.444973,3.00272085 C11.7515594,3.00277997 12.0000023,3.23883661 12.0000023,3.52781678 C12.0000023,3.81679694 11.751434,4.05255792 11.4449102,4.05255792 L11.4449102,4.05255792 L2.55503173,4.04954218 C2.24844528,4.04954216 2.00000235,3.81324899 2.00000235,3.5242097 C2.00000235,3.23502965 2.24835907,3.00045749 2.55509445,3.00000074 L2.55509445,3.00000074 Z" fill="#536076"></path>
                    </g>
                </g>
            </g>
        </g>
    </g>
</svg>