<?xml version="1.0" encoding="UTF-8"?>
<svg width="32px" height="32px" viewBox="0 0 32 32" version="1.1" xmlns="http://www.w3.org/2000/svg" xmlns:xlink="http://www.w3.org/1999/xlink">
    <!-- Generator: Sketch 58 (84663) - https://sketch.com -->
    <title>dcc_Application Security_32px</title>
    <desc>Created with Sketch.</desc>
    <g id="dcc_Application-Security_32px" stroke="none" stroke-width="1" fill="none" fill-rule="evenodd">
        <rect id="矩形备份-34" fill-opacity="0" fill="#FFFFFF" x="0" y="0" width="32" height="32"></rect>
        <g id="应用安全备份-2" transform="translate(9.000000, 10.000000)" fill="#536076">
            <path d="M10.5,5 L14,6.83310488 L13.7779587,8.7454657 C13.5648738,10.5806888 12.3982486,12.1598212 10.7215553,12.9072705 L10.5,13 L10.2784447,12.9072705 C8.67465112,12.192319 7.5375361,10.7164325 7.25520611,8.983343 L7.22204127,8.7454657 L7,6.83310488 L10.5,5 Z M11.6052246,7.67071077 L11.5522475,7.74375832 L10.484,9.533 L9.4307303,7.74608773 L9.3781496,7.67275429 C9.2232291,7.49331854 8.95754174,7.44461918 8.74608773,7.56926974 C8.53463373,7.69392029 8.44858941,7.94996287 8.53056833,8.1723971 L8.56926974,8.2539123 L10.0508658,10.7672538 L10.1045771,10.8422369 C10.2989342,11.067276 10.6521278,11.0704777 10.8508535,10.8509935 L10.9109446,10.7695832 L12.4109446,8.2562417 L12.450087,8.1749373 C12.5332696,7.95295043 12.4486134,7.69644553 12.2378377,7.57065142 C12.027062,7.44485731 11.7611147,7.49211681 11.6052246,7.67071077 Z M13,3 L13,5.234 L10.5,4 L6,6.22222222 L6.2185215,8.8121067 C6.28429222,9.5916114 6.50150638,10.3321855 6.84330862,11.001288 L0.5,11 C0.22385763,11 0,10.7761424 0,10.5 L0,3 L13,3 Z M12,0 C12.5522847,0 13,0.44771525 13,1 L13,2 L11.5,2 L11.5,2 C11.7761424,2 12,1.77614237 12,1.5 C12,1.22385763 11.7761424,1 11.5,1 C11.2238576,1 11,1.22385763 11,1.5 C11,1.77614237 11.2238576,2 11.5,2 L9.5,2 L9.5,2 C9.7761424,2 10,1.77614237 10,1.5 C10,1.22385763 9.7761424,1 9.5,1 C9.2238576,1 9,1.22385763 9,1.5 C9,1.77614237 9.2238576,2 9.5,2 L7.5,2 L7.5,2 C7.77614237,2 8,1.77614237 8,1.5 C8,1.22385763 7.77614237,1 7.5,1 C7.22385763,1 7,1.22385763 7,1.5 C7,1.77614237 7.22385763,2 7.5,2 L0,2 L0,1 C0,0.44771525 0.44771525,0 1,0 L12,0 Z" id="形状"></path>
        </g>
    </g>
</svg>