<?xml version="1.0" encoding="UTF-8"?>
<svg width="32px" height="32px" viewBox="0 0 32 32" version="1.1" xmlns="http://www.w3.org/2000/svg" xmlns:xlink="http://www.w3.org/1999/xlink">
    <!-- Generator: Sketch 58 (84663) - https://sketch.com -->
    <title>dcc_Tools_32px</title>
    <desc>Created with Sketch.</desc>
    <g id="dcc_Tools_32px" stroke="none" stroke-width="1" fill="none" fill-rule="evenodd">
        <rect id="矩形备份-34" fill-opacity="0" fill="#FFFFFF" x="0" y="0" width="32" height="32"></rect>
        <path d="M19.5,16 L23,17.8331049 L22.7779587,19.7454657 C22.5648738,21.5806888 21.3982486,23.1598212 19.7215553,23.9072705 L19.5,24 L19.2784447,23.9072705 C17.6746511,23.192319 16.5375361,21.7164325 16.2552061,19.983343 L16.2220413,19.7454657 L16,17.8331049 L19.5,16 Z M20.6052246,18.6707108 L20.5522475,18.7437583 L19.484,20.533 L18.4307303,18.7460877 L18.3781496,18.6727543 C18.2232291,18.4933185 17.9575417,18.4446192 17.7460877,18.5692697 C17.5346337,18.6939203 17.4485894,18.9499629 17.5305683,19.1723971 L17.5692697,19.2539123 L19.0508658,21.7672538 L19.1045771,21.8422369 C19.2989342,22.067276 19.6521278,22.0704777 19.8508535,21.8509935 L19.9109446,21.7695832 L21.4109446,19.2562417 L21.450087,19.1749373 C21.5332696,18.9529504 21.4486134,18.6964455 21.2378377,18.5706514 C21.027062,18.4448573 20.7611147,18.4921168 20.6052246,18.6707108 Z M14,14 L14,14.5 C14,15.2796961 14.5948881,15.9204487 15.35554,15.9931334 L15.5,16 C16.2796961,16 16.9204487,15.4051119 16.9931334,14.64446 L17,14.5 L17,14 L22,14 L22,16.195 L19.4725635,14.8711475 L14.9,17.2660013 L15.201278,19.8607993 L15.2373492,20.1214274 C15.286294,20.4221121 15.3562843,20.7159651 15.4459511,21.0012636 L10,21 C9.44771525,21 9,20.5522847 9,20 L9,14 L14,14 Z M16,14 L16,15 L15,15 L15,14 L16,14 Z M17,9 C17.5522847,9 18,9.44771525 18,10 L18,11 L21,11 C21.5522847,11 22,11.4477153 22,12 L22,13 L9,13 L9,12 C9,11.4477153 9.44771525,11 10,11 L13,11 L13,10 C13,9.44771525 13.4477153,9 14,9 L17,9 Z M17,10 L14,10 L14,11 L17,11 L17,10 Z" id="形状结合" fill="#536076"></path>
    </g>
</svg>