<?xml version="1.0" encoding="UTF-8"?>
<svg width="200px" height="146px" viewBox="0 0 200 146" version="1.1" xmlns="http://www.w3.org/2000/svg" xmlns:xlink="http://www.w3.org/1999/xlink">
    <title>Illustration/Successfully_repaired_the_Trojan_horse</title>
    <defs>
        <linearGradient x1="37.2085054%" y1="96.8465278%" x2="37.2085054%" y2="62.9564824%" id="linearGradient-1">
            <stop stop-color="#C2E8FF" offset="0%"></stop>
            <stop stop-color="#59B4FF" offset="100%"></stop>
        </linearGradient>
        <rect id="path-2" x="0" y="0" width="125" height="97.9622642" rx="11"></rect>
        <linearGradient x1="50%" y1="0%" x2="50%" y2="100%" id="linearGradient-4">
            <stop stop-color="#D0F3FF" offset="0%"></stop>
            <stop stop-color="#C6E5FF" offset="100%"></stop>
        </linearGradient>
        <ellipse id="path-5" cx="63.6160714" cy="-7.79245283" rx="61.3839286" ry="16.6981132"></ellipse>
        <filter x="-13.8%" y="-44.9%" width="127.7%" height="201.8%" filterUnits="objectBoundingBox" id="filter-6">
            <feGaussianBlur stdDeviation="1" in="SourceGraphic"></feGaussianBlur>
        </filter>
        <filter x="-20.4%" y="-68.9%" width="140.7%" height="249.7%" filterUnits="objectBoundingBox" id="filter-7">
            <feOffset dx="0" dy="2" in="SourceAlpha" result="shadowOffsetOuter1"></feOffset>
            <feGaussianBlur stdDeviation="7" in="shadowOffsetOuter1" result="shadowBlurOuter1"></feGaussianBlur>
            <feColorMatrix values="0 0 0 0 1   0 0 0 0 1   0 0 0 0 1  0 0 0 0.5 0" type="matrix" in="shadowBlurOuter1"></feColorMatrix>
        </filter>
        <filter x="-34.0%" y="-30.4%" width="168.0%" height="160.8%" filterUnits="objectBoundingBox" id="filter-8">
            <feOffset dx="0" dy="4" in="SourceAlpha" result="shadowOffsetOuter1"></feOffset>
            <feGaussianBlur stdDeviation="3.5" in="shadowOffsetOuter1" result="shadowBlurOuter1"></feGaussianBlur>
            <feColorMatrix values="0 0 0 0 0.196078431   0 0 0 0 0.682352941   0 0 0 0 1  0 0 0 0.509286947 0" type="matrix" in="shadowBlurOuter1" result="shadowMatrixOuter1"></feColorMatrix>
            <feMerge>
                <feMergeNode in="shadowMatrixOuter1"></feMergeNode>
                <feMergeNode in="SourceGraphic"></feMergeNode>
            </feMerge>
        </filter>
        <linearGradient x1="50%" y1="-1.42108547e-12%" x2="50%" y2="100%" id="linearGradient-9">
            <stop stop-color="#70C1FF" offset="0%"></stop>
            <stop stop-color="#477CFF" offset="100%"></stop>
        </linearGradient>
        <linearGradient x1="50%" y1="0%" x2="43.3986458%" y2="100%" id="linearGradient-10">
            <stop stop-color="#7DFFBC" offset="0%"></stop>
            <stop stop-color="#1EE687" offset="100%"></stop>
        </linearGradient>
        <circle id="path-11" cx="14.5" cy="14.5" r="14.5"></circle>
        <filter x="-10.3%" y="-10.3%" width="120.7%" height="120.7%" filterUnits="objectBoundingBox" id="filter-12">
            <feGaussianBlur stdDeviation="2" in="SourceAlpha" result="shadowBlurInner1"></feGaussianBlur>
            <feOffset dx="0" dy="2" in="shadowBlurInner1" result="shadowOffsetInner1"></feOffset>
            <feComposite in="shadowOffsetInner1" in2="SourceAlpha" operator="arithmetic" k2="-1" k3="1" result="shadowInnerInner1"></feComposite>
            <feColorMatrix values="0 0 0 0 1   0 0 0 0 1   0 0 0 0 1  0 0 0 0.329863008 0" type="matrix" in="shadowInnerInner1"></feColorMatrix>
        </filter>
        <linearGradient x1="39.8384646%" y1="0%" x2="39.8384646%" y2="100%" id="linearGradient-13">
            <stop stop-color="#5DC2FF" offset="0%"></stop>
            <stop stop-color="#4774FF" offset="100%"></stop>
        </linearGradient>
    </defs>
    <g id="Illustration/Successfully_repaired_the_Trojan_horse" stroke="none" stroke-width="1" fill="none" fill-rule="evenodd">
        <g id="编组" transform="translate(60.000000, 16.000000)">
            <path d="M77.3686293,66.2822976 C80.2280469,85.5361882 82.7139903,97.8545056 84.8264596,103.23725 C86.9946935,108.762087 92.2013498,112.940865 100.446429,115.773585 L26.7857143,115.773585 C33.5938331,114.91833 38.8347996,110.739551 42.5086137,103.23725 C44.356594,99.4634862 47.0100294,87.1451688 50.4689199,66.2822976 L77.3686293,66.2822976 Z" id="三角形" fill="url(#linearGradient-1)"></path>
            <rect id="矩形" fill="#8FCCFF" x="26.7857143" y="113.54717" width="73.6607143" height="4.45283019" rx="2.22641509"></rect>
            <g id="蒙版">
                <mask id="mask-3" fill="white">
                    <use xlink:href="#path-2"></use>
                </mask>
                <use fill="#8FCCFF" xlink:href="#path-2"></use>
                <path d="M7.98063595,-1.12151503 L116.980636,-1.38535093 C121.398901,-1.3960454 124.989282,2.17699653 124.999977,6.59526159 C124.999992,6.60171626 125,6.60817094 125,6.61462563 L125,86.792674 L125,86.792674 L0,87.0952381 L0,6.87846153 C1.2361997e-15,2.46774378 3.56993112,-1.11083887 7.98063595,-1.12151503 Z" id="矩形" fill="url(#linearGradient-4)" mask="url(#mask-3)"></path>
                <rect id="矩形" fill="#85C8FF" mask="url(#mask-3)" x="25.2808989" y="28.0952381" width="74.4382022" height="2.80952381" rx="1"></rect>
                <rect id="矩形" fill="#85C8FF" mask="url(#mask-3)" x="25.2808989" y="39.3333333" width="74.4382022" height="2.80952381" rx="1"></rect>
                <rect id="矩形" fill="#85C8FF" mask="url(#mask-3)" x="25.2808989" y="50.5714286" width="74.4382022" height="2.80952381" rx="1"></rect>
                <rect id="矩形" fill="#85C8FF" mask="url(#mask-3)" x="25.2808989" y="61.8095238" width="33.7078652" height="2.80952381" rx="1"></rect>
                <g id="椭圆形" opacity="0.252283732" filter="url(#filter-6)" mask="url(#mask-3)">
                    <use fill="black" fill-opacity="1" filter="url(#filter-7)" xlink:href="#path-5"></use>
                    <use fill="#FFFFFF" fill-rule="evenodd" xlink:href="#path-5"></use>
                </g>
            </g>
        </g>
        <g id="编组-5" filter="url(#filter-8)" transform="translate(49.679668, 92.112383) rotate(-345.000000) translate(-49.679668, -92.112383) translate(18.062221, 56.743185)">
            <path d="M5.23489479,1.73839684 L62.2348948,1.73839684 C62.7871795,1.73839684 63.2348948,2.18611209 63.2348948,2.73839684 L63.2348948,69.7383968 C63.2348948,70.2906816 62.7871795,70.7383968 62.2348948,70.7383968 L5.23489479,70.7383968 C4.68261004,70.7383968 4.23489479,70.2906816 4.23489479,69.7383968 L4.23489479,2.73839684 C4.23489479,2.18611209 4.68261004,1.73839684 5.23489479,1.73839684 Z" id="矩形" fill="url(#linearGradient-9)" transform="translate(33.734895, 36.238397) rotate(-360.000000) translate(-33.734895, -36.238397) "></path>
            <path d="M9.23489479,6.73839684 L58.2348948,6.73839684 C58.7871795,6.73839684 59.2348948,7.18611209 59.2348948,7.73839684 L59.2348948,64.7383968 C59.2348948,65.2906816 58.7871795,65.7383968 58.2348948,65.7383968 L9.23489479,65.7383968 C8.68261004,65.7383968 8.23489479,65.2906816 8.23489479,64.7383968 L8.23489479,7.73839684 C8.23489479,7.18611209 8.68261004,6.73839684 9.23489479,6.73839684 Z" id="矩形" fill="#8EC4FF" transform="translate(33.734895, 36.238397) rotate(-360.000000) translate(-33.734895, -36.238397) "></path>
            <path d="M8.9256778,6.94988682 L58.1766686,6.74284542 C58.7289482,6.7404598 59.1785936,7.18623655 59.1809797,7.73851614 C59.1810585,7.75676367 59.1806379,7.77500993 59.1796123,7.79322909 C57.6426003,37.0545426 56.511353,53.0452674 55.7858705,55.7654036 C55.0314618,58.5939964 53.0730068,61.6569265 49.9105054,64.9541938 L1.70287918,64.9541938 C1.15059451,64.9544821 0.702645531,64.5070007 0.702357139,63.954716 C0.702272168,63.7919925 0.741898311,63.6317066 0.817374261,63.4875451 C4.46694397,56.5510303 6.59225905,46.9958429 7.1933195,34.8219829 C7.79992747,22.5357635 8.04462933,13.5852026 7.92742509,7.97030012 C7.91613691,7.41813074 8.35461541,6.96136548 8.90678497,6.95008655 C8.91308179,6.94995792 8.91937967,6.94988879 8.9256778,6.94988682 Z" id="矩形" fill="#F4FCFF" transform="translate(29.617447, 35.846295) rotate(-360.000000) translate(-29.617447, -35.846295) "></path>
            <g id="编组-6" transform="translate(18.976076, 20.772471)">
                <g id="椭圆形">
                    <use fill="url(#linearGradient-10)" fill-rule="evenodd" xlink:href="#path-11"></use>
                    <use fill="black" fill-opacity="1" filter="url(#filter-12)" xlink:href="#path-11"></use>
                </g>
                <path d="M22.4170542,10.4514707 C22.6932787,10.7276952 22.6932787,11.1755435 22.4170542,11.451768 L13.7754882,20.0953108 C13.7476955,20.1396213 13.714521,20.1815215 13.6759647,20.2200778 C13.5345275,20.361515 13.3480936,20.4305311 13.162743,20.4271261 C12.9769925,20.4307805 12.79014,20.3617707 12.648447,20.2200778 C12.6098907,20.1815215 12.5767162,20.1396213 12.5489235,20.0953108 L7.5705852,15.1149957 C7.2943607,14.8387712 7.2943607,14.3909228 7.5705852,14.1146983 C7.8468097,13.8384738 8.2946581,13.8384738 8.57088259,14.1146983 L13.1624168,18.7063023 L21.4167568,10.4514707 C21.6929813,10.1752462 22.1408297,10.1752462 22.4170542,10.4514707 Z" id="形状结合" fill="#FFFFFF"></path>
            </g>
            <rect id="矩形" fill="url(#linearGradient-13)" transform="translate(32.343576, 4.000000) rotate(-360.000000) translate(-32.343576, -4.000000) " x="23.8435756" y="4.54747351e-13" width="17" height="8" rx="1"></rect>
        </g>
    </g>
</svg>