<?xml version="1.0" encoding="UTF-8"?>
<svg width="146px" height="146px" viewBox="0 0 146 146" version="1.1" xmlns="http://www.w3.org/2000/svg" xmlns:xlink="http://www.w3.org/1999/xlink">
    <title>Illustration/Anti_Virus/Total_antivirus</title>
    <defs>
        <linearGradient x1="50%" y1="0%" x2="50%" y2="100%" id="linearGradient-1">
            <stop stop-color="#B4C7FF" stop-opacity="0.413890065" offset="0%"></stop>
            <stop stop-color="#E2F6FF" offset="100%"></stop>
        </linearGradient>
        <linearGradient x1="50%" y1="0%" x2="50%" y2="100%" id="linearGradient-2">
            <stop stop-color="#B6B6B6" offset="0%"></stop>
            <stop stop-color="#7D7D7D" offset="100%"></stop>
        </linearGradient>
        <path d="M12.1666667,0 L60.8333333,0 C67.5527978,0 73,5.44720221 73,12.1666667 L73,84.297619 C73,91.0170835 67.5527978,96.4642857 60.8333333,96.4642857 L12.1666667,96.4642857 C5.44720221,96.4642857 0,91.0170835 0,84.297619 L0,12.1666667 C0,5.44720221 5.44720221,0 12.1666667,0 Z" id="path-3"></path>
        <filter x="-11.6%" y="-6.7%" width="131.5%" height="123.8%" filterUnits="objectBoundingBox" id="filter-4">
            <feOffset dx="3" dy="5" in="SourceAlpha" result="shadowOffsetOuter1"></feOffset>
            <feGaussianBlur stdDeviation="3" in="shadowOffsetOuter1" result="shadowBlurOuter1"></feGaussianBlur>
            <feColorMatrix values="0 0 0 0 0   0 0 0 0 0.418042481   0 0 0 0 1  0 0 0 0.106275438 0" type="matrix" in="shadowBlurOuter1"></feColorMatrix>
        </filter>
        <filter x="-8.9%" y="-4.7%" width="126.0%" height="119.7%" filterUnits="objectBoundingBox" id="filter-5">
            <feGaussianBlur stdDeviation="2.5" in="SourceAlpha" result="shadowBlurInner1"></feGaussianBlur>
            <feOffset dx="0" dy="-2" in="shadowBlurInner1" result="shadowOffsetInner1"></feOffset>
            <feComposite in="shadowOffsetInner1" in2="SourceAlpha" operator="arithmetic" k2="-1" k3="1" result="shadowInnerInner1"></feComposite>
            <feColorMatrix values="0 0 0 0 0   0 0 0 0 0   0 0 0 0 0  0 0 0 0.392821412 0" type="matrix" in="shadowInnerInner1"></feColorMatrix>
        </filter>
        <linearGradient x1="50%" y1="6.20494006%" x2="50%" y2="100%" id="linearGradient-6">
            <stop stop-color="#333333" offset="0%"></stop>
            <stop stop-color="#292929" offset="100%"></stop>
        </linearGradient>
        <linearGradient x1="50%" y1="0%" x2="50%" y2="100%" id="linearGradient-7">
            <stop stop-color="#555555" offset="0%"></stop>
            <stop stop-color="#D9D9D9" offset="100%"></stop>
        </linearGradient>
        <path d="M31.1902145,61.2678571 C13.9638591,61.2678571 0,47.5525368 0,30.8677753 C0,13.715831 13.9638591,0 31.1902145,0 C48.41657,0 62.3804291,13.715831 62.3804291,30.8677753 C62.3804291,47.5525368 48.41657,61.2678571 31.1902145,61.2678571 Z" id="path-8"></path>
        <linearGradient x1="50%" y1="6.20494006%" x2="50%" y2="100%" id="linearGradient-10">
            <stop stop-color="#333333" offset="0%"></stop>
            <stop stop-color="#292929" offset="100%"></stop>
        </linearGradient>
        <path d="M31.1902145,59.0143968 C15.2310458,59.0143968 2.29438121,46.3079882 2.29438121,30.8505734 C2.29438121,14.960342 15.2310458,2.2534603 31.1902145,2.2534603 C47.1493833,2.2534603 60.0860479,14.960342 60.0860479,30.8505734 C60.0860479,46.3079882 47.1493833,59.0143968 31.1902145,59.0143968 Z" id="path-11"></path>
        <radialGradient cx="50%" cy="50%" fx="50%" fy="50%" r="49.458281%" id="radialGradient-13">
            <stop stop-color="#383838" offset="0%"></stop>
            <stop stop-color="#000000" offset="100%"></stop>
        </radialGradient>
        <linearGradient x1="52.8805854%" y1="0%" x2="50%" y2="100%" id="linearGradient-14">
            <stop stop-color="#FEFEFE" offset="0%"></stop>
            <stop stop-color="#EBEBEB" offset="100%"></stop>
        </linearGradient>
        <path d="M17.9007017,-0.041584212 C19.5205726,-0.041584212 20.8337374,1.27158061 20.8337374,2.8914515 L20.8337374,26.6816301 C20.8337374,29.9213719 18.2074077,32.5477015 14.967666,32.5477015 C12.2590122,32.5477015 10.0632145,30.3519038 10.0632145,27.6432501 C10.0632145,27.3519082 10.0891746,27.0611457 10.1407867,26.7744118 L14.4480699,2.84506063 C14.7488322,1.17415876 16.202947,-0.041584212 17.9007017,-0.041584212 Z" id="path-15"></path>
        <filter x="-21.6%" y="-10.7%" width="185.6%" height="133.8%" filterUnits="objectBoundingBox" id="filter-16">
            <feOffset dx="2" dy="2" in="SourceAlpha" result="shadowOffsetOuter1"></feOffset>
            <feGaussianBlur stdDeviation="1.5" in="shadowOffsetOuter1" result="shadowBlurOuter1"></feGaussianBlur>
            <feColorMatrix values="0 0 0 0 0.137501806   0 0 0 0 0.137532264   0 0 0 0 0.137497842  0 0 0 0.265424395 0" type="matrix" in="shadowBlurOuter1"></feColorMatrix>
        </filter>
        <filter x="-13.1%" y="-7.7%" width="168.5%" height="127.6%" filterUnits="objectBoundingBox" id="filter-17">
            <feGaussianBlur stdDeviation="1" in="SourceAlpha" result="shadowBlurInner1"></feGaussianBlur>
            <feOffset dx="1" dy="1" in="shadowBlurInner1" result="shadowOffsetInner1"></feOffset>
            <feComposite in="shadowOffsetInner1" in2="SourceAlpha" operator="arithmetic" k2="-1" k3="1" result="shadowInnerInner1"></feComposite>
            <feColorMatrix values="0 0 0 0 0.999901831   0 0 0 0 1   0 0 0 0 0.999879897  0 0 0 1 0" type="matrix" in="shadowInnerInner1"></feColorMatrix>
        </filter>
        <linearGradient x1="50%" y1="0%" x2="50%" y2="99.458281%" id="linearGradient-18">
            <stop stop-color="#000000" offset="0%"></stop>
            <stop stop-color="#525252" offset="100%"></stop>
        </linearGradient>
        <linearGradient x1="40.1383365%" y1="13.8928302%" x2="66.1686428%" y2="83.2860978%" id="linearGradient-19">
            <stop stop-color="#E3FFFF" stop-opacity="0.270786952" offset="0%"></stop>
            <stop stop-color="#00A0FF" stop-opacity="0.270786952" offset="100%"></stop>
        </linearGradient>
        <circle id="path-20" cx="26.6057807" cy="26.6057807" r="25.2413817"></circle>
        <filter x="-7.9%" y="-7.9%" width="115.8%" height="115.8%" filterUnits="objectBoundingBox" id="filter-21">
            <feGaussianBlur stdDeviation="2.5" in="SourceAlpha" result="shadowBlurInner1"></feGaussianBlur>
            <feOffset dx="3" dy="3" in="shadowBlurInner1" result="shadowOffsetInner1"></feOffset>
            <feComposite in="shadowOffsetInner1" in2="SourceAlpha" operator="arithmetic" k2="-1" k3="1" result="shadowInnerInner1"></feComposite>
            <feColorMatrix values="0 0 0 0 0   0 0 0 0 0   0 0 0 0 0  0 0 0 0.5 0" type="matrix" in="shadowInnerInner1"></feColorMatrix>
        </filter>
        <linearGradient x1="100%" y1="78.2683599%" x2="-5.68434189e-12%" y2="78.2683599%" id="linearGradient-22">
            <stop stop-color="#0057DC" offset="0%"></stop>
            <stop stop-color="#5791FF" offset="100%"></stop>
        </linearGradient>
        <path d="M4.09319703,3.63797881e-12 C6.35380733,3.63756354e-12 8.18639406,1.83258673 8.18639406,4.09319703 L8.18639406,21.8303842 C8.18639406,24.0909945 6.35380733,25.9235812 4.09319703,25.9235812 C1.83258673,25.9235812 7.27978717e-12,24.0909945 7.27595761e-12,21.8303842 L7.27595761e-12,4.09319703 C7.27656895e-12,1.83258673 1.83258673,3.63839407e-12 4.09319703,3.63797881e-12 Z" id="path-23"></path>
        <linearGradient x1="37.4837781%" y1="0%" x2="37.4837781%" y2="100%" id="linearGradient-25">
            <stop stop-color="#FFFFFF" stop-opacity="0.979731206" offset="0%"></stop>
            <stop stop-color="#FFFFFF" stop-opacity="0" offset="100%"></stop>
        </linearGradient>
        <linearGradient x1="27.586778%" y1="5.82340553%" x2="86.0748013%" y2="82.8185077%" id="linearGradient-26">
            <stop stop-color="#6A96FF" offset="0%"></stop>
            <stop stop-color="#1F76FF" offset="100%"></stop>
        </linearGradient>
        <path d="M26.6057807,0 C41.2997476,0 53.2115614,11.9118138 53.2115614,26.6057807 C53.2115614,41.2997476 41.2997476,53.2115614 26.6057807,53.2115614 C11.9118138,53.2115614 0,41.2997476 0,26.6057807 C0,11.9118138 11.9118138,0 26.6057807,0 Z M26.6057807,7.50419455 C15.6794976,7.50419455 6.82199505,16.056266 6.82199505,26.6057807 C6.82199505,37.1552954 15.6794976,45.7073668 26.6057807,45.7073668 C37.5320638,45.7073668 46.3895663,37.1552954 46.3895663,26.6057807 C46.3895663,16.056266 37.5320638,7.50419455 26.6057807,7.50419455 Z" id="path-27"></path>
        <filter x="-6.6%" y="-6.6%" width="113.2%" height="113.2%" filterUnits="objectBoundingBox" id="filter-28">
            <feGaussianBlur stdDeviation="2.5" in="SourceAlpha" result="shadowBlurInner1"></feGaussianBlur>
            <feOffset dx="-2" dy="-2" in="shadowBlurInner1" result="shadowOffsetInner1"></feOffset>
            <feComposite in="shadowOffsetInner1" in2="SourceAlpha" operator="arithmetic" k2="-1" k3="1" result="shadowInnerInner1"></feComposite>
            <feColorMatrix values="0 0 0 0 0   0 0 0 0 0.114055194   0 0 0 0 0.285318494  0 0 0 0.286234395 0" type="matrix" in="shadowInnerInner1"></feColorMatrix>
        </filter>
    </defs>
    <g id="Illustration/Anti_Virus/Total_antivirus" stroke="none" stroke-width="1" fill="none" fill-rule="evenodd">
        <rect id="矩形" x="0" y="0" width="146" height="146"></rect>
        <circle id="椭圆形" fill="url(#linearGradient-1)" opacity="0.400000006" cx="73" cy="73" r="54.75"></circle>
        <g id="编组-3" transform="translate(18.250000, 13.687500)">
            <g id="编组-2" transform="translate(0.000000, 0.000000)">
                <g id="编组-9">
                    <g id="矩形备份">
                        <use fill="black" fill-opacity="1" filter="url(#filter-4)" xlink:href="#path-3"></use>
                        <use fill="url(#linearGradient-2)" fill-rule="evenodd" xlink:href="#path-3"></use>
                        <use fill="black" fill-opacity="1" filter="url(#filter-5)" xlink:href="#path-3"></use>
                    </g>
                    <path d="M3.91071429,73.1417845 L3.91071429,83.7967882 C3.91071429,88.2730547 7.53944526,91.9017857 12.0157118,91.9017857 L12.0157118,91.9017857 L12.0157118,91.9017857 L20.2493967,91.9017857 C22.1222204,91.9017857 23.640444,90.3835621 23.640444,88.5107384 L23.640444,88.4507881 C23.640444,86.611074 22.1490611,85.1196911 20.3093471,85.1196911 C18.1685806,85.1196911 16.1073925,84.308215 14.5411862,82.8488044 L14.496981,82.8076134 C12.9144356,81.3329778 12.0157118,79.2671165 12.0157118,77.1040169 L12.0157118,73.1417845 C12.0157118,70.9036512 10.2013463,69.0892857 7.96321303,69.0892857 C5.72507977,69.0892857 3.91071429,70.9036512 3.91071429,73.1417845 Z" id="路径-15" fill="#B7B7B7"></path>
                    <circle id="椭圆形" fill="#000000" opacity="0.400000006" cx="7.82142857" cy="74.5208333" r="1.30357143"></circle>
                    <path d="M62.50625,7.60416667 C63.4301764,7.60416667 64.1791667,8.35315697 64.1791667,9.27708333 C64.1791667,10.2010097 63.4301764,10.95 62.50625,10.95 C61.5823236,10.95 60.8333333,10.2010097 60.8333333,9.27708333 C60.8333333,8.35315697 61.5823236,7.60416667 62.50625,7.60416667 Z" id="椭圆形备份-6" fill="#3E3E3E" fill-rule="nonzero"></path>
                    <path d="M10.7979167,7.60416667 C11.721843,7.60416667 12.4708333,8.35315697 12.4708333,9.27708333 C12.4708333,10.2010097 11.721843,10.95 10.7979167,10.95 C9.8739903,10.95 9.125,10.2010097 9.125,9.27708333 C9.125,8.35315697 9.8739903,7.60416667 10.7979167,7.60416667 Z" id="椭圆形备份-6" fill="#3E3E3E" fill-rule="nonzero"></path>
                    <path d="M10.7979167,85.1666667 C11.721843,85.1666667 12.4708333,85.915657 12.4708333,86.8395833 C12.4708333,87.7635097 11.721843,88.5125 10.7979167,88.5125 C9.8739903,88.5125 9.125,87.7635097 9.125,86.8395833 C9.125,85.915657 9.8739903,85.1666667 10.7979167,85.1666667 Z" id="椭圆形备份-6" fill="#3E3E3E" fill-rule="nonzero"></path>
                    <path d="M62.50625,85.1666667 C63.4301764,85.1666667 64.1791667,85.915657 64.1791667,86.8395833 C64.1791667,87.7635097 63.4301764,88.5125 62.50625,88.5125 C61.5823236,88.5125 60.8333333,87.7635097 60.8333333,86.8395833 C60.8333333,85.915657 61.5823236,85.1666667 62.50625,85.1666667 Z" id="椭圆形备份-6" fill="#3E3E3E" fill-rule="nonzero"></path>
                </g>
                <g id="Group-5" transform="translate(4.980616, 6.397426)">
                    <g id="Path-4">
                        <mask id="mask-9" fill="white">
                            <use xlink:href="#path-8"></use>
                        </mask>
                        <path stroke="url(#linearGradient-7)" stroke-width="3.04166667" d="M31.1902145,1.52083333 C39.3978232,1.52083333 46.8283487,4.79105383 52.2010649,10.1082277 C57.5516406,15.4034901 60.8595958,22.7286631 60.8595958,30.8677753 C60.8595958,38.8011015 57.5300403,46.0246288 52.1570732,51.2614841 C46.7868149,56.4956992 39.3749029,59.7470238 31.1902145,59.7470238 C23.0055262,59.7470238 15.5936142,56.4956992 10.2233559,51.2614841 C4.85038875,46.0246288 1.52083333,38.8011015 1.52083333,30.8677753 C1.52083333,22.7286631 4.82878853,15.4034901 10.1793642,10.1082277 C15.5520804,4.79105383 22.9826059,1.52083333 31.1902145,1.52083333 Z"></path>
                        <mask id="mask-12" fill="white">
                            <use xlink:href="#path-11"></use>
                        </mask>
                        <use id="蒙版" fill="url(#linearGradient-10)" fill-rule="nonzero" xlink:href="#path-11"></use>
                        <polygon fill="#FFFFFF" fill-rule="nonzero" opacity="0.100000001" mask="url(#mask-12)" transform="translate(31.442941, 30.144075) rotate(95.000000) translate(-31.442941, -30.144075) " points="3.10367518 46.2175258 59.7822077 13.6252714 48.3738587 1.4655038 14.8674783 58.8226467"></polygon>
                    </g>
                    <g id="Group-4" transform="translate(22.394384, 20.977574)" fill-rule="nonzero">
                        <g id="Mask" fill="url(#radialGradient-13)">
                            <path d="M9.0916677,18.1833354 C4.07033963,18.1833354 0,14.1124394 0,9.09144039 C0,4.07089598 4.07033963,0 9.0916677,0 C14.1129958,0 18.1833354,4.07089598 18.1833354,9.09144039 C18.1833354,14.1124394 14.1129958,18.1833354 9.0916677,18.1833354 Z" id="path-5"></path>
                        </g>
                        <path d="M9.125,10.6458333 C8.2855,10.6458333 7.60416667,9.96509024 7.60416667,9.1246197 C7.60416667,8.28490976 8.2855,7.60416667 9.125,7.60416667 C9.96526042,7.60416667 10.6458333,8.28490976 10.6458333,9.1246197 C10.6458333,9.96509024 9.96526042,10.6458333 9.125,10.6458333 Z" id="Fill-4" fill="#F9FCFF" opacity="0.900000036"></path>
                    </g>
                </g>
                <g id="编组" transform="translate(11.848933, 51.269508)">
                    <g id="矩形" transform="translate(14.967666, 16.253059) rotate(40.000000) translate(-14.967666, -16.253059) ">
                        <use fill="black" fill-opacity="1" filter="url(#filter-16)" xlink:href="#path-15"></use>
                        <use fill="url(#linearGradient-14)" fill-rule="evenodd" xlink:href="#path-15"></use>
                        <use fill="black" fill-opacity="1" filter="url(#filter-17)" xlink:href="#path-15"></use>
                    </g>
                    <path d="M8.27338621,26.9474213 C9.53328579,26.9474213 10.5546362,25.9260709 10.5546362,24.6661713 C10.5546362,23.4062717 9.53328579,22.3849213 8.27338621,22.3849213 C7.01348662,22.3849213 5.99213621,23.4062717 5.99213621,24.6661713 C5.99213621,25.9260709 7.01348662,26.9474213 8.27338621,26.9474213 Z" id="椭圆形" fill="url(#linearGradient-18)" fill-rule="nonzero"></path>
                </g>
            </g>
            <g id="放大镜备份" transform="translate(48.666667, 48.666667)">
                <g id="椭圆形">
                    <use fill="url(#linearGradient-19)" fill-rule="evenodd" xlink:href="#path-20"></use>
                    <use fill="black" fill-opacity="1" filter="url(#filter-21)" xlink:href="#path-20"></use>
                </g>
                <g id="编组-4" transform="translate(49.118364, 51.164963) rotate(-42.000000) translate(-49.118364, -51.164963) translate(45.025167, 38.203172)">
                    <mask id="mask-24" fill="white">
                        <use xlink:href="#path-23"></use>
                    </mask>
                    <use id="形状结合" fill="url(#linearGradient-22)" fill-rule="nonzero" xlink:href="#path-23"></use>
                </g>
                <path d="M12.6239785,15.0213379 C17.9546094,9.34272347 26.3981343,8.01541597 32.9362898,11.3659927 C26.9745093,11.6087268 21.0518149,14.1103697 16.6750034,18.7728994 C12.4803981,23.2413285 10.4920481,28.8567348 10.6607922,34.3444415 C6.82671112,28.4946568 7.42348618,20.5613183 12.6239785,15.0213379 Z" id="形状结合" fill="url(#linearGradient-25)"></path>
                <g id="形状结合" fill-rule="nonzero">
                    <use fill="url(#linearGradient-26)" xlink:href="#path-27"></use>
                    <use fill="black" fill-opacity="1" filter="url(#filter-28)" xlink:href="#path-27"></use>
                </g>
            </g>
        </g>
    </g>
</svg>