<?xml version="1.0" encoding="UTF-8"?>
<svg width="32px" height="32px" viewBox="0 0 32 32" version="1.1" xmlns="http://www.w3.org/2000/svg" xmlns:xlink="http://www.w3.org/1999/xlink">
    <!-- Generator: Sketch 58 (84663) - https://sketch.com -->
    <title>dcc_Cleanup_32px</title>
    <desc>Created with Sketch.</desc>
    <g id="dcc_Cleanup_32px" stroke="none" stroke-width="1" fill="none" fill-rule="evenodd">
        <rect id="矩形备份-34" fill-opacity="0" fill="#FFFFFF" x="0" y="0" width="32" height="32"></rect>
        <path d="M16,8 C17.8634,8 23,8.45066667 23,10.0993333 C23,10.3753333 20.4681,22.418 20.4114,22.6873333 C19.6162,23.5626667 17.7976,24 15.9769,24 C14.1576,24 12.3376,23.5626667 11.5431,22.6873333 C11.4892,22.4213333 9,10.3666667 9,10.096 C9,8.828 12.5056,8 16,8 Z M16.996,17.4868 L16.2908,18.7428 L16.996,20 L16.996,19.464 L17.7008,19.464 C17.872,19.464 18.0368,19.3748 18.1272,19.2148 L19,17.6624 C18.8738898,17.8869869 18.6363715,18.0260108 18.3788,18.026 L18.3788,18.0256 L16.996,18.0256 L16.996,17.4868 Z M15.832,18.038 L14.4192,18.038 C14.254,18.3336 14.092,18.62 14.092,18.62 C13.990545,18.7971572 13.9893307,19.0145203 14.0888,19.1928 C14.1857315,19.3700877 14.3727638,19.4792283 14.5748,19.4764 L14.5748,19.4764 L15.832,19.4764 L15.832,18.038 Z M14.4128,16.31 L13,16.31 L13.4528,16.578 L13.0992,17.2032 C13.0096573,17.3593986 13.0084432,17.5510796 13.096,17.7084 L13.096,17.7084 L13.9688,19.2612 C13.8408231,19.0322555 13.8420372,18.753023 13.972,18.5252 L13.972,18.5252 L14.665,17.296 L15.118,17.5668 L14.4128,16.31 Z M18.2528,15.9008 L17.0408,16.6188 L17.746,17.8756 L18.3968,17.8756 C18.5982758,17.8755417 18.7841206,17.7670303 18.8832,17.5916 C18.982,17.4132 18.982,17.1944 18.88,17.0188 C18.6700532,16.6466278 18.460986,16.2739601 18.2528,15.9008 L18.2528,15.9008 Z M16.9148,14 L15.1692,14 C14.986,14 14.8328,14.1048 14.746,14.2556 C14.5928,14.5116 14.0108,15.5616 14.0108,15.5616 L14.0108,15.5616 L15.2288,16.2824 C15.226,16.2824 16.1408,14.656 16.306,14.364 L16.306,14.364 C16.4348,14.1352 16.66,14 16.9148,14 L16.9148,14 Z M16.912,14.1476 C16.714,14.1476 16.528,14.2588 16.4292,14.4372 C16.4292,14.4372 16.2672,14.7236 16.1052,15.0164 L16.4352,15.6016 L15.9792,15.8664 L17.3888,15.8632 L17.3892,15.8632 L18.0972,14.6072 L17.644,14.878 C17.644,14.878 17.4672,14.5608 17.3952,14.434 C17.2981208,14.257843 17.113135,14.1481991 16.912,14.1476 Z M16.0357,9.20866667 C13.088,9.20866667 10.6982,9.706 10.6982,10.32 C10.6982,10.934 13.088,11.4313333 16.0357,11.4313333 C18.9834,11.4313333 21.3725,10.934 21.3725,10.32 C21.3725,9.706 18.9834,9.20866667 16.0357,9.20866667 Z" id="形状结合" fill="#536076"></path>
    </g>
</svg>