<?xml version="1.0" encoding="UTF-8"?>
<svg width="14px" height="14px" viewBox="0 0 14 14" version="1.1" xmlns="http://www.w3.org/2000/svg" xmlns:xlink="http://www.w3.org/1999/xlink">
    <!-- Generator: Sketch 58 (84663) - https://sketch.com -->
    <title>Icon_Quarantine_dark</title>
    <desc>Created with Sketch.</desc>
    <g id="病毒查杀" stroke="none" stroke-width="1" fill="none" fill-rule="evenodd">
        <g id="编组-4" transform="translate(-1.000000, -2.000000)">
            <g id="Icon_隔离区" transform="translate(0.000000, 1.000000)">
                <g id="Icon_Quarantine_dark">
                    <g id="Icon/Quarantine">
                        <rect id="矩形" fill="#FF6969" opacity="0" x="0" y="0" width="16" height="16"></rect>
                        <path d="M14,1 C14.5522847,1 15,1.44771525 15,2 L15,14 C15,14.5522847 14.5522847,15 14,15 L2,15 C1.44771525,15 1,14.5522847 1,14 L1,2 C1,1.44771525 1.44771525,1 2,1 L14,1 Z M14,5 L2,5 L2,14 L14,14 L14,5 Z M6.58578644,6.87867966 L8.00070711,8.29218611 L9.41421356,6.87867966 C9.60947571,6.68341751 9.9260582,6.68341751 10.1213203,6.87867966 C10.3165825,7.0739418 10.3165825,7.39052429 10.1213203,7.58578644 L8.70710678,9 L10.1213203,10.4142136 C10.3165825,10.6094757 10.3165825,10.9260582 10.1213203,11.1213203 C9.9260582,11.3165825 9.60947571,11.3165825 9.41421356,11.1213203 L8,9.70710678 L6.58578644,11.1213203 C6.39052429,11.3165825 6.0739418,11.3165825 5.87867966,11.1213203 C5.68341751,10.9260582 5.68341751,10.6094757 5.87867966,10.4142136 L7.29360033,8.99929289 L5.87867966,7.58578644 C5.68341751,7.39052429 5.68341751,7.0739418 5.87867966,6.87867966 C6.0739418,6.68341751 6.39052429,6.68341751 6.58578644,6.87867966 Z M14,2 L2,2 L2,4 L14,4 L14,2 Z" id="形状结合" fill="#C5CFE0"></path>
                    </g>
                </g>
            </g>
        </g>
    </g>
</svg>