<?xml version="1.0" encoding="UTF-8"?>
<svg width="16px" height="16px" viewBox="0 0 16 16" version="1.1" xmlns="http://www.w3.org/2000/svg" xmlns:xlink="http://www.w3.org/1999/xlink">
    <title>Icon/Whitelist</title>
    <g id="V4.5" stroke="none" stroke-width="1" fill="none" fill-rule="evenodd">
        <g id="安全工具_USB安全2" transform="translate(-897.000000, -335.000000)">
            <g id="编组-4" transform="translate(285.000000, 253.000000)">
                <g id="编组-11" transform="translate(10.000000, 72.000000)">
                    <g id="编组-2" transform="translate(602.000000, 10.000000)">
                        <rect id="矩形" fill="#FF6969" opacity="0" x="0" y="0" width="16" height="16"></rect>
                        <path d="M14,1 C14.5522847,1 15,1.44771525 15,2 L15.0005473,6.75761415 C14.693402,6.50388859 14.3582378,6.28287508 14.0003901,6.09990903 L14,2 L2,2 L2,14 L6.88989569,14.0006599 C7.12850811,14.3665071 7.40949093,14.7021993 7.72588129,15.0007734 L2,15 C1.44771525,15 1,14.5522847 1,14 L1,2 C1,1.44771525 1.44771525,1 2,1 L14,1 Z M6,11 L3.5,11 C3.22385763,11 3,10.7761424 3,10.5 C3,10.2238576 3.22385763,10 3.5,10 L6.09065287,10.0001919 C6.03111102,10.3244081 6,10.6585709 6,11 Z M6.88925012,8.00033014 L3.5,8 C3.22385763,8 3,7.77614237 3,7.5 C3,7.22385763 3.22385763,7 3.5,7 L7.7248892,7.00016305 C7.40861823,7.29877197 7.1277519,7.63448096 6.88925012,8.00033014 Z M12.5,4 C12.7761424,4 13,4.22385763 13,4.5 C13,4.77614237 12.7761424,5 12.5,5 L3.5,5 C3.22385763,5 3,4.77614237 3,4.5 C3,4.22385763 3.22385763,4 3.5,4 L12.5,4 Z" id="形状结合" fill="#626E88"></path>
                        <path d="M11.5,6.5 C13.9852814,6.5 16,8.51471863 16,11 C16,13.4852814 13.9852814,15.5 11.5,15.5 C9.01471863,15.5 7,13.4852814 7,11 C7,8.51471863 9.01471863,6.5 11.5,6.5 Z M11.5,7.5 C9.56700338,7.5 8,9.06700338 8,11 C8,12.9329966 9.56700338,14.5 11.5,14.5 C13.4329966,14.5 15,12.9329966 15,11 C15,9.06700338 13.4329966,7.5 11.5,7.5 Z" id="形状结合" fill="#626E88" fill-rule="nonzero"></path>
                        <rect id="矩形备份" fill="#626E88" fill-rule="nonzero" transform="translate(11.500000, 10.991332) rotate(-360.000000) translate(-11.500000, -10.991332) " x="9" y="10.4913324" width="5" height="1" rx="0.5"></rect>
                    </g>
                </g>
            </g>
        </g>
    </g>
</svg>