<?xml version="1.0" encoding="UTF-8"?>
<svg width="16px" height="16px" viewBox="0 0 16 16" version="1.1" xmlns="http://www.w3.org/2000/svg" xmlns:xlink="http://www.w3.org/1999/xlink">
    <title>Icon_check the details</title>
    <g id="Icon_check-the-details" stroke="none" stroke-width="1" fill="none" fill-rule="evenodd">
        <path d="M13.9543718,9.12132034 C14.9805185,10.147467 15.1078931,11.7320391 14.3364956,12.8968193 L15.5058437,14.0669048 C15.7401582,14.3012193 15.7401582,14.6811183 15.5058437,14.9154329 C15.2715291,15.1497475 14.8916301,15.1497475 14.6573155,14.9154329 L13.4882595,13.7454027 C12.3233836,14.5175573 10.7381801,14.39041 9.71173111,13.363961 C8.54015824,12.1923882 8.54015824,10.2928932 9.71173111,9.12132034 C10.883304,7.94974747 12.7827989,7.94974747 13.9543718,9.12132034 Z M13.5904108,1 C14.1426955,1 14.5904108,1.44771525 14.5904108,2 L14.5916102,7.00053506 C14.2837054,6.76911471 13.9482108,6.57242293 13.5909432,6.41627634 L13.5904108,2 L1.59041077,2 L1.59041077,14 L7.59094582,14.0011995 C7.87547674,14.379768 8.21250564,14.7166302 8.59122178,15.0009752 L1.59041077,15 C1.03812602,15 0.590410768,14.5522847 0.590410768,14 L0.590410768,2 C0.590410768,1.44771525 1.03812602,1 1.59041077,1 L13.5904108,1 Z M10.4432495,9.81633674 C9.66220087,10.5973853 9.66220087,11.8637153 10.4432495,12.6447639 C11.224298,13.4258125 12.490628,13.4258125 13.2716766,12.6447639 C14.0527252,11.8637153 14.0527252,10.5973853 13.2716766,9.81633674 C12.490628,9.03528816 11.224298,9.03528816 10.4432495,9.81633674 Z M3.09041077,10 C3.36655314,10 3.59041077,10.2238576 3.59041077,10.5 C3.59041077,10.7761424 3.36655314,11 3.09041077,11 C2.81426839,11 2.59041077,10.7761424 2.59041077,10.5 C2.59041077,10.2238576 2.81426839,10 3.09041077,10 Z M6.69046704,9.99981203 C6.62485438,10.3229802 6.59041077,10.6574677 6.59041077,11 L5.09041077,11 C4.81426839,11 4.59041077,10.7761424 4.59041077,10.5 C4.59041077,10.2238576 4.81426839,10 5.09041077,10 L6.69046704,9.99981203 Z M3.09041077,7 C3.36655314,7 3.59041077,7.22385763 3.59041077,7.5 C3.59041077,7.77614237 3.36655314,8 3.09041077,8 C2.81426839,8 2.59041077,7.77614237 2.59041077,7.5 C2.59041077,7.22385763 2.81426839,7 3.09041077,7 Z M8.59021644,6.99977979 C8.21157409,7.28421778 7.87462855,7.62116332 7.59019056,7.99980567 L5.09041077,8 C4.81426839,8 4.59041077,7.77614237 4.59041077,7.5 C4.59041077,7.22385763 4.81426839,7 5.09041077,7 L8.59021644,6.99977979 Z M3.09041077,4 C3.36655314,4 3.59041077,4.22385763 3.59041077,4.5 C3.59041077,4.77614237 3.36655314,5 3.09041077,5 C2.81426839,5 2.59041077,4.77614237 2.59041077,4.5 C2.59041077,4.22385763 2.81426839,4 3.09041077,4 Z M11.0904108,4 C11.3665531,4 11.5904108,4.22385763 11.5904108,4.5 C11.5904108,4.77614237 11.3665531,5 11.0904108,5 L5.09041077,5 C4.81426839,5 4.59041077,4.77614237 4.59041077,4.5 C4.59041077,4.22385763 4.81426839,4 5.09041077,4 L11.0904108,4 Z" id="查看详情" fill="#626E88" fill-rule="nonzero"></path>
    </g>
</svg>