<?xml version="1.0" encoding="UTF-8"?>
<svg width="26px" height="26px" viewBox="0 0 26 26" version="1.1" xmlns="http://www.w3.org/2000/svg" xmlns:xlink="http://www.w3.org/1999/xlink">
    <!-- Generator: Sketch 58 (84663) - https://sketch.com -->
    <title>icon_trust</title>
    <desc>Created with Sketch.</desc>
    <g id="icon_trust" stroke="none" stroke-width="1" fill="none" fill-rule="evenodd">
        <rect id="矩形" fill="#FF6969" opacity="0" x="0" y="0" width="26" height="26"></rect>
        <g id="编组-3" transform="translate(4.000000, 3.000000)" fill="#536076">
            <path d="M9.5,0 C12.2550146,0 15.0100292,0.570301022 17.7650437,1.71090307 C18.5125645,2.02038247 19,2.74974365 19,3.55879546 L19,10.2395538 C19,13.5865692 17.2013551,16.675383 14.2904131,18.3273299 L12.5171417,19.3336538 C10.6940041,20.3682764 8.46308378,20.3763885 6.63247029,19.3550515 L4.79041313,18.3273299 C1.83289024,16.6772671 0,13.5558002 0,10.1691131 L0,3.55880874 C0,2.74975281 0.487426022,2.02038788 1.23495009,1.71090562 C3.98996673,0.570301874 6.74498336,0 9.5,0 Z M9.5,1 C7.05375095,1 4.60361443,1.47343117 2.14455297,2.42388123 L1.61747279,2.63485172 L1.50935894,2.68740226 C1.19740374,2.86292785 1,3.19472678 1,3.55880874 L1,10.1691131 C1,13.1932794 2.63669238,15.9806155 5.27763349,17.4540509 L7.11969065,18.4817725 C8.64520189,19.3328866 10.5043021,19.3261265 12.0235835,18.463941 L13.7968549,17.4576172 C16.394771,15.9833111 18,13.2266505 18,10.2395538 L18,3.55879546 C18,3.15426944 17.7562824,2.78958925 17.3825213,2.63484926 C14.746421,1.54347885 12.1209792,1 9.5,1 Z M14.9497475,7.08578644 C15.1450096,7.28104858 15.1450096,7.59763107 14.9497475,7.79289322 L9.29289322,13.4497475 C9.11932687,13.6233138 8.84990247,13.642599 8.65503433,13.5076029 L8.58578644,13.4497475 L5.05025253,9.91421356 C4.85499039,9.71895142 4.85499039,9.40236893 5.05025253,9.20710678 C5.24551468,9.01184464 5.56209717,9.01184464 5.75735931,9.20710678 L8.93933983,12.3890873 L14.2426407,7.08578644 C14.4379028,6.89052429 14.7544853,6.89052429 14.9497475,7.08578644 Z" id="形状结合"></path>
        </g>
    </g>
</svg>