<?xml version="1.0" encoding="UTF-8"?>
<svg width="26px" height="26px" viewBox="0 0 26 26" version="1.1" xmlns="http://www.w3.org/2000/svg" xmlns:xlink="http://www.w3.org/1999/xlink">
    <!-- Generator: Sketch 58 (84663) - https://sketch.com -->
    <title>icon_repair</title>
    <desc>Created with Sketch.</desc>
    <g id="icon_repair" stroke="none" stroke-width="1" fill="none" fill-rule="evenodd">
        <g id="编组-7">
            <rect id="矩形" fill="#FF6969" opacity="0" x="0" y="0" width="26" height="26"></rect>
            <path d="M16,3 C16.5522847,3 17,3.44771525 17,4 L17,5 L21,5 C22.1045695,5 23,5.8954305 23,7 L23,21 C23,22.1045695 22.1045695,23 21,23 L5,23 C3.8954305,23 3,22.1045695 3,21 L3,7 C3,5.8954305 3.8954305,5 5,5 L9,5 L9,4 C9,3.44771525 9.44771525,3 10,3 L16,3 Z M21,6 L5,6 C4.48716416,6 4.06449284,6.38604019 4.00672773,6.88337887 L4,7 L4,21 C4,21.5128358 4.38604019,21.9355072 4.88337887,21.9932723 L5,22 L21,22 C21.5128358,22 21.9355072,21.6139598 21.9932723,21.1166211 L22,21 L22,7 C22,6.44771525 21.5522847,6 21,6 Z M13,10 C13.2761424,10 13.5,10.2238576 13.5,10.5 L13.5,13.5 L16.5,13.5 C16.7761424,13.5 17,13.7238576 17,14 C17,14.2761424 16.7761424,14.5 16.5,14.5 L13.499,14.5 L13.5,17.5 C13.5,17.7761424 13.2761424,18 13,18 C12.7238576,18 12.5,17.7761424 12.5,17.5 L12.499,14.5 L9.5,14.5 C9.22385763,14.5 9,14.2761424 9,14 C9,13.7238576 9.22385763,13.5 9.5,13.5 L12.5,13.5 L12.5,10.5 C12.5,10.2238576 12.7238576,10 13,10 Z M19,9 C19.5522847,9 20,9.44771525 20,10 C20,10.5522847 19.5522847,11 19,11 C18.4477153,11 18,10.5522847 18,10 C18,9.44771525 18.4477153,9 19,9 Z M16,4 L10,4 L10,5 L16,5 L16,4 Z" id="形状结合" fill="#536076"></path>
        </g>
    </g>
</svg>