<?xml version="1.0" encoding="UTF-8"?>
<svg width="16px" height="16px" viewBox="0 0 16 16" version="1.1" xmlns="http://www.w3.org/2000/svg" xmlns:xlink="http://www.w3.org/1999/xlink">
    <title>Icon_信任区</title>
    <g id="V4.4" stroke="none" stroke-width="1" fill="none" fill-rule="evenodd">
        <g id="病毒查杀_病毒查杀设置" transform="translate(-781.000000, -177.000000)">
            <g id="编组" transform="translate(68.000000, 47.000000)">
                <g id="编组-9" transform="translate(713.000000, 128.000000)">
                    <g id="编组" transform="translate(0.000000, 2.000000)">
                        <rect id="矩形" fill="#FF6969" opacity="0" x="0" y="0" width="16" height="16"></rect>
                        <path d="M8,0 C12.418278,0 16,3.581722 16,8 C16,12.418278 12.418278,16 8,16 C3.581722,16 0,12.418278 0,8 C0,3.581722 3.581722,0 8,0 Z M8,1 C4.13400675,1 1,4.13400675 1,8 C1,11.8659932 4.13400675,15 8,15 C11.8659932,15 15,11.8659932 15,8 C15,4.13400675 11.8659932,1 8,1 Z M8,4 L8,8 L12,8 L12,9 L7,9 L7,4 L8,4 Z" id="形状结合" fill="#626E88" fill-rule="nonzero"></path>
                    </g>
                </g>
            </g>
        </g>
    </g>
</svg>