<?xml version="1.0" encoding="UTF-8"?>
<svg width="24px" height="24px" viewBox="0 0 24 24" version="1.1" xmlns="http://www.w3.org/2000/svg" xmlns:xlink="http://www.w3.org/1999/xlink">
    <!-- Generator: Sketch 63.1 (92452) - https://sketch.com -->
    <title>-mockplus-</title>
    <desc>Created with Sketch.</desc>
    <g id="Q4新需求" stroke="none" stroke-width="1" fill="none" fill-rule="evenodd">
        <g id="color" transform="translate(-1174.000000, -617.000000)" fill="#536076">
            <g id="编组-6" transform="translate(1105.000000, 617.000000)">
                <g id="编组-67" transform="translate(69.000000, 0.000000)">
                    <g id="-mockplus-">
                        <g id="icon/reply" transform="translate(6.000000, 5.000000)">
                            <path d="M7,0 L7,4.7 C7,4.84201608 7.0986801,4.96098419 7.23121275,4.99207679 L7.3,5 L12,5 L12,13 C12,13.5522847 11.5522847,14 11,14 L1,14 C0.44771525,14 6.76353751e-17,13.5522847 0,13 L0,1 C-6.76353751e-17,0.44771525 0.44771525,1.01453063e-16 1,0 L7,0 Z M8,0 L12,4 L8.3,4 C8.13431458,4 8,3.86568542 8,3.7 L8,0 Z" id="形状结合"></path>
                        </g>
                    </g>
                </g>
            </g>
        </g>
    </g>
</svg>
