<?xml version="1.0" encoding="UTF-8"?>
<svg width="36px" height="36px" viewBox="0 0 36 36" version="1.1" xmlns="http://www.w3.org/2000/svg" xmlns:xlink="http://www.w3.org/1999/xlink">
    <title>插入图片</title>
    <g id="富文本" stroke="none" stroke-width="1" fill="none" fill-rule="evenodd">
        <g id="富文本工具栏normal状态" transform="translate(-669.000000, -222.000000)">
            <g id="插入图片" transform="translate(669.000000, 222.000000)">
                <rect id="矩形" stroke="#536076" x="9.5" y="11.5" width="17" height="13" rx="1" opacity="0.4" ></rect>
                <path d="M19.9090053,17.2226524 L18.1364497,20.0443009 C17.9783466,20.2959779 17.6907082,20.3016397 17.5045665,20.0701011 L16.3600443,18.6464491 C16.0760743,18.4279745 15.6050836,18.4579644 15.3716616,18.7093834 L12.122199,22.2093834 C11.8149537,22.5403176 12.1224336,23 12.6510383,23 L24.3491038,23 C24.8542616,23 25.1662835,22.5760169 24.906382,22.2427546 L21.0070268,17.2427546 C20.7615634,16.9280058 20.1736501,16.9172425 19.9090053,17.2226524 Z" id="路径" fill="#536076"  opacity="0.4"></path>
                <path d="M13.5,14 C12.6715729,14 12,14.6715729 12,15.5 C12,16.3284271 12.6715729,17 13.5,17 C14.3284271,17 15,16.3284271 15,15.5 C15,14.6715729 14.3284271,14 13.5,14 Z" id="路径" fill="#536076"  opacity="0.4"></path>
            </g>
        </g>
    </g>
</svg>