<?xml version="1.0" encoding="UTF-8"?>
<svg width="16px" height="14px" viewBox="0 0 16 14" version="1.1" xmlns="http://www.w3.org/2000/svg" xmlns:xlink="http://www.w3.org/1999/xlink">
    <!-- Generator: Sketch 58 (84663) - https://sketch.com -->
    <title>voice2</title>
    <desc>Created with Sketch.</desc>
    <g id="浅色新版本" stroke="none" stroke-width="1" fill="none" fill-rule="evenodd">
        <g id="喇叭切图" transform="translate(-41.000000, -37.000000)" fill="#414D68" fill-rule="nonzero">
            <path d="M49,39.4174322 L49,48.5825678 C49,48.9537161 48.5212703,49.1395879 48.2412859,48.8771464 L46.4740767,47.2206645 C45.9798378,46.7573929 45.3278121,46.4995824 44.6503959,46.4995824 L42.7777778,46.4995824 C41.7959382,46.4995824 41,45.7036442 41,44.7218046 L41,43.2781954 C41,42.2963558 41.7959382,41.5004176 42.7777778,41.5004176 L44.6503959,41.5004176 C45.3278121,41.5004176 45.9798378,41.2426071 46.4740767,40.7793355 L48.2412859,39.1228536 C48.5212703,38.8604121 49,39.0462839 49,39.4174322 Z M51.5,41 C51.7761424,41 52,41.1729966 52,41.3863988 L52,46.6136012 C52,46.8270034 51.7761424,47 51.5,47 C51.2238576,47 51,46.8270034 51,46.6136012 L51,41.3863988 C51,41.1729966 51.2238576,41 51.5,41 Z" id="Combined-Shape"></path>
        </g>
    </g>
</svg>