<?xml version="1.0" encoding="UTF-8"?>
<svg width="16px" height="14px" viewBox="0 0 16 14" version="1.1" xmlns="http://www.w3.org/2000/svg" xmlns:xlink="http://www.w3.org/1999/xlink">
    <!-- Generator: Sketch 58 (84663) - https://sketch.com -->
    <title>voice4</title>
    <desc>Created with Sketch.</desc>
    <g id="浅色新版本" stroke="none" stroke-width="1" fill="none" fill-rule="evenodd">
        <g id="喇叭切图" transform="translate(-87.000000, -37.000000)" fill="#414D68" fill-rule="nonzero">
            <path d="M101.5,37 C101.776142,37 102,37.2070702 102,37.4625041 L102,50.5374959 C102,50.7929298 101.776142,51 101.5,51 C101.223858,51 101,50.7929298 101,50.5374959 L101,37.4625041 C101,37.2070702 101.223858,37 101.5,37 Z M99.5,40 C99.7761424,40 100,40.1759733 100,40.3930474 L100,48.6069526 C100,48.8240267 99.7761424,49 99.5,49 C99.2238576,49 99,48.8240267 99,48.6069526 L99,40.3930474 C99,40.1759733 99.2238576,40 99.5,40 Z M95,39.4174322 L95,48.5825678 C95,48.9537161 94.5212703,49.1395879 94.2412859,48.8771464 L92.4740767,47.2206645 C91.9798378,46.7573929 91.3278121,46.4995824 90.6503959,46.4995824 L88.7777778,46.4995824 C87.7959382,46.4995824 87,45.7036442 87,44.7218046 L87,43.2781954 C87,42.2963558 87.7959382,41.5004176 88.7777778,41.5004176 L90.6503959,41.5004176 C91.3278121,41.5004176 91.9798378,41.2426071 92.4740767,40.7793355 L94.2412859,39.1228536 C94.5212703,38.8604121 95,39.0462839 95,39.4174322 Z M97.5,41 C97.7761424,41 98,41.2018294 98,41.4507986 L98,47.5492014 C98,47.7981706 97.7761424,48 97.5,48 C97.2238576,48 97,47.7981706 97,47.5492014 L97,41.4507986 C97,41.2018294 97.2238576,41 97.5,41 Z" id="Combined-Shape"></path>
        </g>
    </g>
</svg>