<?xml version="1.0" encoding="UTF-8"?>
<svg width="10px" height="10px" viewBox="0 0 10 10" version="1.1" xmlns="http://www.w3.org/2000/svg" xmlns:xlink="http://www.w3.org/1999/xlink">
    <title>top 2</title>
    <g id="Q4新需求" stroke="none" stroke-width="1" fill="none" fill-rule="evenodd">
        <g id="9置顶" transform="translate(-762.000000, -279.000000)" fill="#8AA1B4" fill-rule="nonzero">
            <g id="top-2" transform="translate(762.000000, 279.000000)">
                <path d="M9.645,3.795 C9.84106109,3.59893891 9.84106109,3.28106109 9.645,3.085 L6.915,0.355 C6.71893891,0.158938914 6.40106109,0.158938914 6.205,0.355 C6.00873044,0.551269557 6.0081522,0.869306592 6.20370675,1.06628855 L6.535,1.4 L6.535,1.4 L4.885,3.05 C3.88737659,2.77833269 2.8205702,3.05836936 2.085,3.785 L1.4,4.475 L1.06625219,4.14125219 C0.870188689,3.94518869 0.552306941,3.94518869 0.356243436,4.14125219 C0.355828228,4.1416674 0.355413749,4.14208334 0.355,4.1425 C0.158737746,4.34014438 0.159297663,4.65929766 0.356252193,4.85625219 L2.395,6.895 L2.395,6.895 L1.03,8.26 L1.03,8.97 L1.74,8.97 L3.11,7.6 L5.1457419,9.64425965 C5.34098521,9.84031988 5.65819942,9.84098212 5.85425965,9.64573881 C5.85450669,9.6454928 5.85475347,9.64524653 5.855,9.645 C6.05126956,9.44873044 6.0518478,9.13069341 5.85629325,8.93371145 L5.525,8.6 L5.525,8.6 L6.21,7.915 C6.94020158,7.17942114 7.22231535,6.11005748 6.95,5.11 L8.6,3.46 L8.935,3.795 C9.13106109,3.99106109 9.44893891,3.99106109 9.645,3.795 Z" id="top"></path>
            </g>
        </g>
    </g>
</svg>