<svg width="256.000000" height="256.000000" viewBox="0 0 256 256" fill="none" xmlns="http://www.w3.org/2000/svg" xmlns:xlink="http://www.w3.org/1999/xlink">
	<desc>
			Created with Pixso.
	</desc>
	<defs>
		<filter id="filter_111_7_dd" x="42.065918" y="56.635742" width="184.888184" height="152.955078" filterUnits="userSpaceOnUse" color-interpolation-filters="sRGB">
			<feFlood flood-opacity="0" result="BackgroundImageFix"/>
			<feColorMatrix in="SourceAlpha" type="matrix" values="0 0 0 0 0 0 0 0 0 0 0 0 0 0 0 0 0 0 127 0" result="hardAlpha"/>
			<feOffset dx="0" dy="4"/>
			<feGaussianBlur stdDeviation="1.33333"/>
			<feComposite in2="hardAlpha" operator="out" k2="-1" k3="1"/>
			<feColorMatrix type="matrix" values="0 0 0 0 0 0 0 0 0 0 0 0 0 0 0 0 0 0 0.25 0"/>
			<feBlend mode="normal" in2="BackgroundImageFix" result="effect_dropShadow_1"/>
			<feBlend mode="normal" in="SourceGraphic" in2="effect_dropShadow_1" result="shape"/>
			<feColorMatrix in="SourceAlpha" type="matrix" values="0 0 0 0 0 0 0 0 0 0 0 0 0 0 0 0 0 0 127 0" result="hardAlpha"/>
			<feOffset dx="3" dy="6"/>
			<feGaussianBlur stdDeviation="2.66667"/>
			<feComposite in2="hardAlpha" operator="arithmetic" k2="-1" k3="1"/>
			<feColorMatrix type="matrix" values="0 0 0 0 0.32941 0 0 0 0 0.32941 0 0 0 0 0.32941 0 0 0 0.11 0"/>
			<feBlend mode="normal" in2="shape" result="effect_innerShadow_2"/>
		</filter>
		<filter id="filter_111_8_dd" x="23.066406" y="49.635742" width="180.392578" height="176.955078" filterUnits="userSpaceOnUse" color-interpolation-filters="sRGB">
			<feFlood flood-opacity="0" result="BackgroundImageFix"/>
			<feColorMatrix in="SourceAlpha" type="matrix" values="0 0 0 0 0 0 0 0 0 0 0 0 0 0 0 0 0 0 127 0" result="hardAlpha"/>
			<feOffset dx="-7" dy="9"/>
			<feGaussianBlur stdDeviation="5.33333"/>
			<feComposite in2="hardAlpha" operator="out" k2="-1" k3="1"/>
			<feColorMatrix type="matrix" values="0 0 0 0 0.28627 0 0 0 0 0.28627 0 0 0 0 0.28627 0 0 0 0.25 0"/>
			<feBlend mode="normal" in2="BackgroundImageFix" result="effect_dropShadow_1"/>
			<feBlend mode="normal" in="SourceGraphic" in2="effect_dropShadow_1" result="shape"/>
		</filter>
		<filter id="filter_111_9_dd" x="96.386719" y="116.207520" width="135.567383" height="81.642578" filterUnits="userSpaceOnUse" color-interpolation-filters="sRGB">
			<feFlood flood-opacity="0" result="BackgroundImageFix"/>
			<feColorMatrix in="SourceAlpha" type="matrix" values="0 0 0 0 0 0 0 0 0 0 0 0 0 0 0 0 0 0 127 0" result="hardAlpha"/>
			<feOffset dx="-7" dy="9"/>
			<feGaussianBlur stdDeviation="5.33333"/>
			<feComposite in2="hardAlpha" operator="out" k2="-1" k3="1"/>
			<feColorMatrix type="matrix" values="0 0 0 0 0.28627 0 0 0 0 0.28627 0 0 0 0 0.28627 0 0 0 0.25 0"/>
			<feBlend mode="normal" in2="BackgroundImageFix" result="effect_dropShadow_1"/>
			<feBlend mode="normal" in="SourceGraphic" in2="effect_dropShadow_1" result="shape"/>
		</filter>
		<linearGradient x1="99.292419" y1="99.263016" x2="441.611633" y2="307.707520" id="paint_linear_111_7_0" gradientUnits="userSpaceOnUse">
			<stop stop-color="#FFFFFF"/>
			<stop offset="1.000000" stop-color="#FFFFFF" stop-opacity="0.000000"/>
		</linearGradient>
	</defs>
	<ellipse id="椭圆 3" cx="128.000000" cy="128.000000" rx="127.999992" ry="128.000000" fill="#2779FF" fill-opacity="1.000000"/>
	<g filter="url(#filter_111_7_dd)">
		<path id="差集" d="M52.2393 89.9243C66.8237 60.3647 102.609 48.2251 132.167 62.8091C146.947 70.1011 157.372 82.6934 162.278 97.1577C164.504 103.582 166.236 115.529 167.845 129.169C162.393 132.543 156.981 135.907 151.831 139.064C150.06 122.138 148.247 107.842 145.917 102.708C142.432 92.4307 135.024 83.4834 124.523 78.3022C103.521 67.9399 78.0947 76.5654 67.7324 97.5684C57.3696 118.571 65.9951 143.998 86.9976 154.36C97.4985 159.541 109.105 159.975 119.383 156.489L124.933 172.849C110.469 177.756 94.1328 177.145 79.353 169.853C49.7944 155.269 37.6548 119.483 52.2393 89.9243ZM153.722 157.793C141.92 164.814 131.388 170.708 124.937 172.85L119.387 156.489C124.878 155.214 137.323 147.956 151.831 139.064C152.459 145.073 153.083 151.414 153.722 157.793ZM153.722 157.793C158.962 154.676 164.452 151.335 169.947 148.002C170.225 150.549 170.504 153.095 170.788 155.619C172.285 168.983 187.768 183.501 194.458 186.802L187.162 201.591C175.19 195.684 158.705 180.107 153.73 157.882C153.728 157.853 153.725 157.823 153.722 157.793ZM169.947 148.002C169.249 141.614 168.559 135.225 167.845 129.169C167.872 129.152 167.899 129.135 167.926 129.119C188.591 119.543 210.982 123.148 222.954 129.055L215.657 143.844C208.967 140.543 188.025 137.089 176.509 144.032C174.331 145.344 172.139 146.673 169.947 148.002Z" clip-rule="evenodd" fill="url(#paint_linear_111_7_0)" fill-opacity="1.000000" fill-rule="evenodd"/>
	</g>
</svg>
