<?xml version="1.0" encoding="UTF-8" standalone="no"?>
<svg
   viewBox="0 0 24 24"
   fill="rgba(255,255,255,1)"
   version="1.1"
   id="svg4"
   sodipodi:docname="accessibility.svg"
   inkscape:version="1.2.2 (b0a8486541, 2022-12-01)"
   xmlns:inkscape="http://www.inkscape.org/namespaces/inkscape"
   xmlns:sodipodi="http://sodipodi.sourceforge.net/DTD/sodipodi-0.dtd"
   xmlns="http://www.w3.org/2000/svg"
   xmlns:svg="http://www.w3.org/2000/svg">
  <defs
     id="defs8" />
  <sodipodi:namedview
     id="namedview6"
     pagecolor="#ffffff"
     bordercolor="#000000"
     borderopacity="0.25"
     inkscape:showpageshadow="2"
     inkscape:pageopacity="0.0"
     inkscape:pagecheckerboard="0"
     inkscape:deskcolor="#d1d1d1"
     showgrid="false"
     inkscape:zoom="16.25"
     inkscape:cx="4.8615385"
     inkscape:cy="16.184615"
     inkscape:window-width="1920"
     inkscape:window-height="958"
     inkscape:window-x="0"
     inkscape:window-y="24"
     inkscape:window-maximized="1"
     inkscape:current-layer="svg4" />
  <path
     d="M2.5 7C2.5 9.48528 4.51472 11.5 7 11.5C9.48528 11.5 11.5 9.48528 11.5 7C11.5 4.51472 9.48528 2.5 7 2.5C4.51472 2.5 2.5 4.51472 2.5 7ZM2.5 17C2.5 19.4853 4.51472 21.5 7 21.5C9.48528 21.5 11.5 19.4853 11.5 17C11.5 14.5147 9.48528 12.5 7 12.5C4.51472 12.5 2.5 14.5147 2.5 17ZM12.5 17C12.5 19.4853 14.5147 21.5 17 21.5C19.4853 21.5 21.5 19.4853 21.5 17C21.5 14.5147 19.4853 12.5 17 12.5C14.5147 12.5 12.5 14.5147 12.5 17ZM16 11V8H13V6H16V3H18V6H21V8H18V11H16Z"
     id="path2"
     style="fill:#000000" />
</svg>
