<?xml version="1.0" encoding="UTF-8" standalone="no"?>
<svg
   viewBox="0 0 24 24"
   fill="rgba(255,255,255,1)"
   version="1.1"
   id="svg4"
   sodipodi:docname="defaultapps.svg"
   inkscape:version="1.2.2 (b0a8486541, 2022-12-01)"
   xmlns:inkscape="http://www.inkscape.org/namespaces/inkscape"
   xmlns:sodipodi="http://sodipodi.sourceforge.net/DTD/sodipodi-0.dtd"
   xmlns="http://www.w3.org/2000/svg"
   xmlns:svg="http://www.w3.org/2000/svg">
  <defs
     id="defs8" />
  <sodipodi:namedview
     id="namedview6"
     pagecolor="#ffffff"
     bordercolor="#000000"
     borderopacity="0.25"
     inkscape:showpageshadow="2"
     inkscape:pageopacity="0.0"
     inkscape:pagecheckerboard="0"
     inkscape:deskcolor="#d1d1d1"
     showgrid="false"
     inkscape:zoom="11.490485"
     inkscape:cx="12.967251"
     inkscape:cy="6.7011966"
     inkscape:window-width="1920"
     inkscape:window-height="958"
     inkscape:window-x="0"
     inkscape:window-y="24"
     inkscape:window-maximized="1"
     inkscape:current-layer="svg4" />
  <path
     d="M6.75 2.5C9.09721 2.5 11 4.40279 11 6.75V11H6.75C4.40279 11 2.5 9.09721 2.5 6.75C2.5 4.40279 4.40279 2.5 6.75 2.5ZM6.75 13H11V17.25C11 19.5972 9.09721 21.5 6.75 21.5C4.40279 21.5 2.5 19.5972 2.5 17.25C2.5 14.9028 4.40279 13 6.75 13ZM17.25 2.5C19.5972 2.5 21.5 4.40279 21.5 6.75C21.5 9.09721 19.5972 11 17.25 11H13V6.75C13 4.40279 14.9028 2.5 17.25 2.5ZM13 13H17.25C19.5972 13 21.5 14.9028 21.5 17.25C21.5 19.5972 19.5972 21.5 17.25 21.5C14.9028 21.5 13 19.5972 13 17.25V13Z"
     id="path2"
     style="fill:#000000" />
</svg>
