<?xml version="1.0" encoding="UTF-8"?>
<svg width="512px" height="512px" viewBox="0 0 512 512" version="1.1" xmlns="http://www.w3.org/2000/svg" xmlns:xlink="http://www.w3.org/1999/xlink">
    <!-- Generator: Sketch 58 (84663) - https://sketch.com -->
    <title>ISO disk administrator-512px</title>
    <desc>Created with Sketch.</desc>
    <defs>
        <filter x="-16.0%" y="-12.1%" width="132.0%" height="124.2%" filterUnits="objectBoundingBox" id="filter-1">
            <feOffset dx="0" dy="8" in="SourceAlpha" result="shadowOffsetOuter1"></feOffset>
            <feGaussianBlur stdDeviation="10" in="shadowOffsetOuter1" result="shadowBlurOuter1"></feGaussianBlur>
            <feComposite in="shadowBlurOuter1" in2="SourceAlpha" operator="out" result="shadowBlurOuter1"></feComposite>
            <feColorMatrix values="0 0 0 0 0   0 0 0 0 0   0 0 0 0 0  0 0 0 0.2 0" type="matrix" in="shadowBlurOuter1" result="shadowMatrixOuter1"></feColorMatrix>
            <feMerge>
                <feMergeNode in="shadowMatrixOuter1"></feMergeNode>
                <feMergeNode in="SourceGraphic"></feMergeNode>
            </feMerge>
        </filter>
        <rect id="path-2" x="4.54747351e-13" y="0" width="350" height="446" rx="40"></rect>
        <filter x="-0.9%" y="-0.7%" width="101.7%" height="101.3%" filterUnits="objectBoundingBox" id="filter-3">
            <feOffset dx="0" dy="-6" in="SourceAlpha" result="shadowOffsetInner1"></feOffset>
            <feComposite in="shadowOffsetInner1" in2="SourceAlpha" operator="arithmetic" k2="-1" k3="1" result="shadowInnerInner1"></feComposite>
            <feColorMatrix values="0 0 0 0 0   0 0 0 0 0   0 0 0 0 0  0 0 0 0.25 0" type="matrix" in="shadowInnerInner1"></feColorMatrix>
        </filter>
        <linearGradient x1="50%" y1="0%" x2="50%" y2="100%" id="linearGradient-4">
            <stop stop-color="#E9EEF2" offset="0%"></stop>
            <stop stop-color="#95A5AF" offset="100%"></stop>
        </linearGradient>
        <rect id="path-5" x="0" y="0" width="350" height="440" rx="40"></rect>
        <filter x="-0.4%" y="-0.3%" width="100.9%" height="100.7%" filterUnits="objectBoundingBox" id="filter-6">
            <feOffset dx="0" dy="3" in="SourceAlpha" result="shadowOffsetInner1"></feOffset>
            <feComposite in="shadowOffsetInner1" in2="SourceAlpha" operator="arithmetic" k2="-1" k3="1" result="shadowInnerInner1"></feComposite>
            <feColorMatrix values="0 0 0 0 1   0 0 0 0 1   0 0 0 0 1  0 0 0 0.25 0" type="matrix" in="shadowInnerInner1"></feColorMatrix>
        </filter>
        <linearGradient x1="50%" y1="0%" x2="50%" y2="100%" id="linearGradient-7">
            <stop stop-color="#94A0A9" offset="0%"></stop>
            <stop stop-color="#8C979D" offset="100%"></stop>
        </linearGradient>
        <path d="M0.00111947881,203.000045 C10.5817053,203.521638 19,212.265433 19,222.975425 C19,233.685418 10.5817053,242.429212 0.00111947881,242.950805 Z" id="path-8"></path>
        <filter x="-21.0%" y="-5.0%" width="142.1%" height="120.0%" filterUnits="objectBoundingBox" id="filter-9">
            <feOffset dx="0" dy="2" in="SourceAlpha" result="shadowOffsetOuter1"></feOffset>
            <feGaussianBlur stdDeviation="1" in="shadowOffsetOuter1" result="shadowBlurOuter1"></feGaussianBlur>
            <feColorMatrix values="0 0 0 0 1   0 0 0 0 1   0 0 0 0 1  0 0 0 0.5 0" type="matrix" in="shadowBlurOuter1"></feColorMatrix>
        </filter>
        <filter x="-44.7%" y="-16.3%" width="189.5%" height="142.6%" filterUnits="objectBoundingBox" id="filter-10">
            <feGaussianBlur stdDeviation="3.5" in="SourceAlpha" result="shadowBlurInner1"></feGaussianBlur>
            <feOffset dx="0" dy="6" in="shadowBlurInner1" result="shadowOffsetInner1"></feOffset>
            <feComposite in="shadowOffsetInner1" in2="SourceAlpha" operator="arithmetic" k2="-1" k3="1" result="shadowInnerInner1"></feComposite>
            <feColorMatrix values="0 0 0 0 0   0 0 0 0 0   0 0 0 0 0  0 0 0 0.2 0" type="matrix" in="shadowInnerInner1"></feColorMatrix>
        </filter>
        <path d="M331.000918,203.000045 C341.581504,203.521638 349.999798,212.265433 349.999798,222.975425 C349.999798,233.685418 341.581504,242.429212 331.000918,242.950805 Z" id="path-11"></path>
        <filter x="-21.0%" y="-5.0%" width="142.1%" height="120.0%" filterUnits="objectBoundingBox" id="filter-12">
            <feOffset dx="0" dy="2" in="SourceAlpha" result="shadowOffsetOuter1"></feOffset>
            <feGaussianBlur stdDeviation="1" in="shadowOffsetOuter1" result="shadowBlurOuter1"></feGaussianBlur>
            <feColorMatrix values="0 0 0 0 1   0 0 0 0 1   0 0 0 0 1  0 0 0 0.5 0" type="matrix" in="shadowBlurOuter1"></feColorMatrix>
        </filter>
        <filter x="-44.7%" y="-16.3%" width="189.5%" height="142.6%" filterUnits="objectBoundingBox" id="filter-13">
            <feGaussianBlur stdDeviation="3.5" in="SourceAlpha" result="shadowBlurInner1"></feGaussianBlur>
            <feOffset dx="0" dy="6" in="shadowBlurInner1" result="shadowOffsetInner1"></feOffset>
            <feComposite in="shadowOffsetInner1" in2="SourceAlpha" operator="arithmetic" k2="-1" k3="1" result="shadowInnerInner1"></feComposite>
            <feColorMatrix values="0 0 0 0 0   0 0 0 0 0   0 0 0 0 0  0 0 0 0.2 0" type="matrix" in="shadowInnerInner1"></feColorMatrix>
        </filter>
        <linearGradient x1="51.7606421%" y1="0%" x2="51.7606421%" y2="100%" id="linearGradient-14">
            <stop stop-color="#6B6C77" offset="0%"></stop>
            <stop stop-color="#2B2F42" offset="83.5058272%"></stop>
            <stop stop-color="#5F627C" offset="100%"></stop>
        </linearGradient>
        <linearGradient x1="50%" y1="0%" x2="50%" y2="100%" id="linearGradient-15">
            <stop stop-color="#FFFFFF" stop-opacity="0.15" offset="0%"></stop>
            <stop stop-color="#000000" stop-opacity="0.328238225" offset="100%"></stop>
        </linearGradient>
        <circle id="path-16" cx="128.784375" cy="128.784375" r="128.784375"></circle>
        <filter x="-9.1%" y="-6.0%" width="118.2%" height="118.2%" filterUnits="objectBoundingBox" id="filter-17">
            <feOffset dx="0" dy="8" in="SourceAlpha" result="shadowOffsetOuter1"></feOffset>
            <feGaussianBlur stdDeviation="6.5" in="shadowOffsetOuter1" result="shadowBlurOuter1"></feGaussianBlur>
            <feComposite in="shadowBlurOuter1" in2="SourceAlpha" operator="out" result="shadowBlurOuter1"></feComposite>
            <feColorMatrix values="0 0 0 0 0   0 0 0 0 0   0 0 0 0 0  0 0 0 0.271689248 0" type="matrix" in="shadowBlurOuter1"></feColorMatrix>
        </filter>
        <linearGradient x1="50%" y1="0%" x2="50%" y2="100%" id="linearGradient-18">
            <stop stop-color="#393741" offset="0%"></stop>
            <stop stop-color="#1F1C25" offset="100%"></stop>
        </linearGradient>
        <ellipse id="path-19" cx="112.752112" cy="111.741283" rx="112.21875" ry="111.684375"></ellipse>
        <filter x="-13.5%" y="-7.7%" width="127.0%" height="127.1%" filterUnits="objectBoundingBox" id="filter-21">
            <feMorphology radius="4.275" operator="dilate" in="SourceAlpha" result="shadowSpreadOuter1"></feMorphology>
            <feOffset dx="0" dy="13" in="shadowSpreadOuter1" result="shadowOffsetOuter1"></feOffset>
            <feGaussianBlur stdDeviation="6.5" in="shadowOffsetOuter1" result="shadowBlurOuter1"></feGaussianBlur>
            <feComposite in="shadowBlurOuter1" in2="SourceAlpha" operator="out" result="shadowBlurOuter1"></feComposite>
            <feColorMatrix values="0 0 0 0 0   0 0 0 0 0   0 0 0 0 0  0 0 0 0.3 0" type="matrix" in="shadowBlurOuter1"></feColorMatrix>
        </filter>
        <linearGradient x1="50%" y1="0%" x2="50%" y2="100%" id="linearGradient-22">
            <stop stop-color="#393741" offset="0%"></stop>
            <stop stop-color="#1F1C25" offset="100%"></stop>
        </linearGradient>
        <linearGradient x1="50%" y1="0%" x2="50%" y2="100%" id="linearGradient-23">
            <stop stop-color="#E5E5E5" stop-opacity="0.15" offset="0%"></stop>
            <stop stop-color="#565656" stop-opacity="0.328238225" offset="100%"></stop>
        </linearGradient>
        <ellipse id="path-24" cx="42.75" cy="42.215625" rx="42.75" ry="42.215625"></ellipse>
        <filter x="-15.2%" y="-10.9%" width="130.4%" height="132.2%" filterUnits="objectBoundingBox" id="filter-26">
            <feOffset dx="0" dy="5" in="SourceAlpha" result="shadowOffsetOuter1"></feOffset>
            <feGaussianBlur stdDeviation="3.5" in="shadowOffsetOuter1" result="shadowBlurOuter1"></feGaussianBlur>
            <feComposite in="shadowBlurOuter1" in2="SourceAlpha" operator="out" result="shadowBlurOuter1"></feComposite>
            <feColorMatrix values="0 0 0 0 0   0 0 0 0 0   0 0 0 0 0  0 0 0 0.3 0" type="matrix" in="shadowBlurOuter1"></feColorMatrix>
        </filter>
        <linearGradient x1="50%" y1="0%" x2="50%" y2="100%" id="linearGradient-27">
            <stop stop-color="#FBFBFB" offset="0%"></stop>
            <stop stop-color="#B7B7B7" offset="100%"></stop>
        </linearGradient>
        <path d="M129.31875,103.66875 C143.484854,103.66875 154.96875,115.152646 154.96875,129.31875 C154.96875,143.484854 143.484854,154.96875 129.31875,154.96875 C115.152646,154.96875 103.66875,143.484854 103.66875,129.31875 C103.66875,115.152646 115.152646,103.66875 129.31875,103.66875 Z M129.31875,120.76875 C124.596715,120.76875 120.76875,124.596715 120.76875,129.31875 C120.76875,134.040785 124.596715,137.86875 129.31875,137.86875 C134.040785,137.86875 137.86875,134.040785 137.86875,129.31875 C137.86875,124.596715 134.040785,120.76875 129.31875,120.76875 Z" id="path-28"></path>
        <filter x="-19.5%" y="-9.7%" width="139.0%" height="139.0%" filterUnits="objectBoundingBox" id="filter-29">
            <feOffset dx="0" dy="5" in="SourceAlpha" result="shadowOffsetOuter1"></feOffset>
            <feGaussianBlur stdDeviation="2.5" in="shadowOffsetOuter1" result="shadowBlurOuter1"></feGaussianBlur>
            <feColorMatrix values="0 0 0 0 0   0 0 0 0 0   0 0 0 0 0  0 0 0 0.3 0" type="matrix" in="shadowBlurOuter1"></feColorMatrix>
        </filter>
        <filter x="-13.6%" y="-3.9%" width="127.3%" height="127.3%" filterUnits="objectBoundingBox" id="filter-30">
            <feGaussianBlur stdDeviation="0.5" in="SourceAlpha" result="shadowBlurInner1"></feGaussianBlur>
            <feOffset dx="0" dy="3" in="shadowBlurInner1" result="shadowOffsetInner1"></feOffset>
            <feComposite in="shadowOffsetInner1" in2="SourceAlpha" operator="arithmetic" k2="-1" k3="1" result="shadowInnerInner1"></feComposite>
            <feColorMatrix values="0 0 0 0 1   0 0 0 0 1   0 0 0 0 1  0 0 0 0.5 0" type="matrix" in="shadowInnerInner1"></feColorMatrix>
        </filter>
        <path d="M35.5,22 C40.7467051,22 45,26.2532949 45,31.5 C45,36.7467051 40.7467051,41 35.5,41 C30.2532949,41 26,36.7467051 26,31.5 C26,26.2532949 30.2532949,22 35.5,22 Z M314.5,22 C319.746705,22 324,26.2532949 324,31.5 C324,36.7467051 319.746705,41 314.5,41 C309.253295,41 305,36.7467051 305,31.5 C305,26.2532949 309.253295,22 314.5,22 Z" id="path-31"></path>
        <filter x="-1.3%" y="-10.5%" width="102.7%" height="142.1%" filterUnits="objectBoundingBox" id="filter-32">
            <feOffset dx="0" dy="2" in="SourceAlpha" result="shadowOffsetOuter1"></feOffset>
            <feGaussianBlur stdDeviation="1" in="shadowOffsetOuter1" result="shadowBlurOuter1"></feGaussianBlur>
            <feColorMatrix values="0 0 0 0 1   0 0 0 0 1   0 0 0 0 1  0 0 0 0.5 0" type="matrix" in="shadowBlurOuter1"></feColorMatrix>
        </filter>
        <filter x="-3.5%" y="-44.7%" width="107.0%" height="210.5%" filterUnits="objectBoundingBox" id="filter-33">
            <feGaussianBlur stdDeviation="5.5" in="SourceAlpha" result="shadowBlurInner1"></feGaussianBlur>
            <feOffset dx="0" dy="6" in="shadowBlurInner1" result="shadowOffsetInner1"></feOffset>
            <feComposite in="shadowOffsetInner1" in2="SourceAlpha" operator="arithmetic" k2="-1" k3="1" result="shadowInnerInner1"></feComposite>
            <feColorMatrix values="0 0 0 0 0   0 0 0 0 0   0 0 0 0 0  0 0 0 0.2 0" type="matrix" in="shadowInnerInner1"></feColorMatrix>
        </filter>
        <circle id="path-34" cx="314.5" cy="397.5" r="9.5"></circle>
        <filter x="-21.1%" y="-10.5%" width="142.1%" height="142.1%" filterUnits="objectBoundingBox" id="filter-35">
            <feOffset dx="0" dy="2" in="SourceAlpha" result="shadowOffsetOuter1"></feOffset>
            <feGaussianBlur stdDeviation="1" in="shadowOffsetOuter1" result="shadowBlurOuter1"></feGaussianBlur>
            <feColorMatrix values="0 0 0 0 1   0 0 0 0 1   0 0 0 0 1  0 0 0 0.5 0" type="matrix" in="shadowBlurOuter1"></feColorMatrix>
        </filter>
        <filter x="-55.3%" y="-44.7%" width="210.5%" height="210.5%" filterUnits="objectBoundingBox" id="filter-36">
            <feGaussianBlur stdDeviation="5.5" in="SourceAlpha" result="shadowBlurInner1"></feGaussianBlur>
            <feOffset dx="0" dy="6" in="shadowBlurInner1" result="shadowOffsetInner1"></feOffset>
            <feComposite in="shadowOffsetInner1" in2="SourceAlpha" operator="arithmetic" k2="-1" k3="1" result="shadowInnerInner1"></feComposite>
            <feColorMatrix values="0 0 0 0 0   0 0 0 0 0   0 0 0 0 0  0 0 0 0.2 0" type="matrix" in="shadowInnerInner1"></feColorMatrix>
        </filter>
        <rect id="path-37" x="207" y="323" width="15" height="15" rx="2"></rect>
        <filter x="-26.7%" y="-13.3%" width="153.3%" height="153.3%" filterUnits="objectBoundingBox" id="filter-38">
            <feOffset dx="0" dy="2" in="SourceAlpha" result="shadowOffsetOuter1"></feOffset>
            <feGaussianBlur stdDeviation="1" in="shadowOffsetOuter1" result="shadowBlurOuter1"></feGaussianBlur>
            <feColorMatrix values="0 0 0 0 1   0 0 0 0 1   0 0 0 0 1  0 0 0 0.5 0" type="matrix" in="shadowBlurOuter1"></feColorMatrix>
        </filter>
        <filter x="-70.0%" y="-56.7%" width="240.0%" height="240.0%" filterUnits="objectBoundingBox" id="filter-39">
            <feGaussianBlur stdDeviation="5.5" in="SourceAlpha" result="shadowBlurInner1"></feGaussianBlur>
            <feOffset dx="0" dy="6" in="shadowBlurInner1" result="shadowOffsetInner1"></feOffset>
            <feComposite in="shadowOffsetInner1" in2="SourceAlpha" operator="arithmetic" k2="-1" k3="1" result="shadowInnerInner1"></feComposite>
            <feColorMatrix values="0 0 0 0 0   0 0 0 0 0   0 0 0 0 0  0 0 0 0.2 0" type="matrix" in="shadowInnerInner1"></feColorMatrix>
        </filter>
        <rect id="path-40" x="95" y="326" width="95" height="12" rx="6"></rect>
        <filter x="-4.2%" y="-16.7%" width="108.4%" height="166.7%" filterUnits="objectBoundingBox" id="filter-41">
            <feOffset dx="0" dy="2" in="SourceAlpha" result="shadowOffsetOuter1"></feOffset>
            <feGaussianBlur stdDeviation="1" in="shadowOffsetOuter1" result="shadowBlurOuter1"></feGaussianBlur>
            <feColorMatrix values="0 0 0 0 1   0 0 0 0 1   0 0 0 0 1  0 0 0 0.5 0" type="matrix" in="shadowBlurOuter1"></feColorMatrix>
        </filter>
        <filter x="-8.9%" y="-54.2%" width="117.9%" height="241.7%" filterUnits="objectBoundingBox" id="filter-42">
            <feGaussianBlur stdDeviation="3.5" in="SourceAlpha" result="shadowBlurInner1"></feGaussianBlur>
            <feOffset dx="0" dy="6" in="shadowBlurInner1" result="shadowOffsetInner1"></feOffset>
            <feComposite in="shadowOffsetInner1" in2="SourceAlpha" operator="arithmetic" k2="-1" k3="1" result="shadowInnerInner1"></feComposite>
            <feColorMatrix values="0 0 0 0 0   0 0 0 0 0   0 0 0 0 0  0 0 0 0.2 0" type="matrix" in="shadowInnerInner1"></feColorMatrix>
        </filter>
        <path d="M10,288.008098 L10,400 C10,416.568542 23.4314575,430 40,430 L182,430 C186.418278,430 190,426.418278 190,422 L190,372.119127 C190,362.794355 182.8787,355.013419 173.590397,354.189525 C120.664734,349.494896 76.7228373,324.765054 41.7647059,280 C36.3091793,280.013812 28.3897707,280.016512 18.0064803,280.008101 C13.588204,280.004522 10.0035818,283.583341 10.0000026,288.001618 C10.0000009,288.003778 10,288.005938 10,288.008098 Z" id="path-43"></path>
        <filter x="-3.6%" y="-4.3%" width="107.2%" height="108.7%" filterUnits="objectBoundingBox" id="filter-44">
            <feGaussianBlur stdDeviation="3.5" in="SourceAlpha" result="shadowBlurInner1"></feGaussianBlur>
            <feOffset dx="0" dy="6" in="shadowBlurInner1" result="shadowOffsetInner1"></feOffset>
            <feComposite in="shadowOffsetInner1" in2="SourceAlpha" operator="arithmetic" k2="-1" k3="1" result="shadowInnerInner1"></feComposite>
            <feColorMatrix values="0 0 0 0 0   0 0 0 0 0   0 0 0 0 0  0 0 0 0.2 0" type="matrix" in="shadowInnerInner1"></feColorMatrix>
        </filter>
        <linearGradient x1="50%" y1="0%" x2="50%" y2="100%" id="linearGradient-45">
            <stop stop-color="#EAF0F4" offset="0%"></stop>
            <stop stop-color="#C7D1D8" offset="100%"></stop>
        </linearGradient>
        <path d="M36.9527435,290.008594 C73.0980536,334.496502 118.513555,359.343344 172.706843,364.150415 C176.834978,364.51659 180,367.974784 180,372.119127 L180,420 L40,420 C28.954305,420 20,411.045695 20,400 L20,290.008594 L36.9527435,290.008594 Z M166,398 C163.790861,398 162,399.790861 162,402 C162,404.209139 163.790861,406 166,406 C168.209139,406 170,404.209139 170,402 C170,399.790861 168.209139,398 166,398 Z M32,299 C29.790861,299 28,300.790861 28,303 C28,305.209139 29.790861,307 32,307 C34.209139,307 36,305.209139 36,303 C36,300.790861 34.209139,299 32,299 Z" id="path-46"></path>
        <filter x="-6.2%" y="-6.2%" width="112.5%" height="115.4%" filterUnits="objectBoundingBox" id="filter-47">
            <feOffset dx="0" dy="2" in="SourceAlpha" result="shadowOffsetOuter1"></feOffset>
            <feGaussianBlur stdDeviation="3" in="shadowOffsetOuter1" result="shadowBlurOuter1"></feGaussianBlur>
            <feColorMatrix values="0 0 0 0 0   0 0 0 0 0   0 0 0 0 0  0 0 0 0.275868663 0" type="matrix" in="shadowBlurOuter1"></feColorMatrix>
        </filter>
        <linearGradient x1="97.2470411%" y1="4.49136807%" x2="6.27062595%" y2="91.5453078%" id="linearGradient-48">
            <stop stop-color="#F7F9FB" offset="0%"></stop>
            <stop stop-color="#ECF1F6" offset="100%"></stop>
        </linearGradient>
        <path d="M50.5946798,135.297513 L147.308053,15.0713891 C148.690536,13.4622982 149.525458,11.3975127 149.525458,9.14478545 C149.525458,4.10296727 145.336832,4.26325641e-14 140.175736,4.26325641e-14 C137.875978,4.26325641e-14 135.768085,0.804974545 134.138542,2.17205818 L11.3892785,96.9076071 C4.47598648,101.909091 3.12638804e-13,109.941673 3.12638804e-13,118.992058 C3.12638804e-13,134.171578 12.5527372,146.453876 28.0351472,146.453876 C37.2893741,146.453876 45.4887786,142.069426 50.5946798,135.297513 Z" id="path-49"></path>
        <filter x="-7.4%" y="-4.8%" width="114.7%" height="115.0%" filterUnits="objectBoundingBox" id="filter-50">
            <feOffset dx="0" dy="4" in="SourceAlpha" result="shadowOffsetOuter1"></feOffset>
            <feGaussianBlur stdDeviation="3" in="shadowOffsetOuter1" result="shadowBlurOuter1"></feGaussianBlur>
            <feColorMatrix values="0 0 0 0 0   0 0 0 0 0   0 0 0 0 0  0 0 0 0.300344187 0" type="matrix" in="shadowBlurOuter1"></feColorMatrix>
        </filter>
        <filter x="-4.3%" y="-1.7%" width="108.7%" height="108.9%" filterUnits="objectBoundingBox" id="filter-51">
            <feOffset dx="0" dy="1" in="SourceAlpha" result="shadowOffsetInner1"></feOffset>
            <feComposite in="shadowOffsetInner1" in2="SourceAlpha" operator="arithmetic" k2="-1" k3="1" result="shadowInnerInner1"></feComposite>
            <feColorMatrix values="0 0 0 0 1   0 0 0 0 1   0 0 0 0 1  0 0 0 0.942198427 0" type="matrix" in="shadowInnerInner1"></feColorMatrix>
        </filter>
        <linearGradient x1="50%" y1="0%" x2="50%" y2="97.6792756%" id="linearGradient-52">
            <stop stop-color="#959B9F" offset="0%"></stop>
            <stop stop-color="#727A81" offset="100%"></stop>
        </linearGradient>
        <linearGradient x1="50%" y1="1.83254943%" x2="50%" y2="100%" id="linearGradient-53">
            <stop stop-color="#A5ABB2" offset="0%"></stop>
            <stop stop-color="#EAF0FF" offset="100%"></stop>
        </linearGradient>
        <path d="M292.5,369 C294.985281,369 297,371.014719 297,373.5 L297,421.5 C297,423.985281 294.985281,426 292.5,426 L291.5,426 C289.014719,426 287,423.985281 287,421.5 L287,373.5 C287,371.014719 289.014719,369 291.5,369 L292.5,369 Z M272.5,369 C274.985281,369 277,371.014719 277,373.5 L277,421.5 C277,423.985281 274.985281,426 272.5,426 L271.5,426 C269.014719,426 267,423.985281 267,421.5 L267,373.5 C267,371.014719 269.014719,369 271.5,369 L272.5,369 Z M252.5,369 C254.985281,369 257,371.014719 257,373.5 L257,421.5 C257,423.985281 254.985281,426 252.5,426 L251.5,426 C249.014719,426 247,423.985281 247,421.5 L247,373.5 C247,371.014719 249.014719,369 251.5,369 L252.5,369 Z M232.5,369 C234.985281,369 237,371.014719 237,373.5 L237,421.5 C237,423.985281 234.985281,426 232.5,426 L231.5,426 C229.014719,426 227,423.985281 227,421.5 L227,373.5 C227,371.014719 229.014719,369 231.5,369 L232.5,369 Z M212.5,369 C214.985281,369 217,371.014719 217,373.5 L217,421.5 C217,423.985281 214.985281,426 212.5,426 L211.5,426 C209.014719,426 207,423.985281 207,421.5 L207,373.5 C207,371.014719 209.014719,369 211.5,369 L212.5,369 Z" id="path-54"></path>
        <filter x="-4.4%" y="-3.5%" width="108.9%" height="114.0%" filterUnits="objectBoundingBox" id="filter-55">
            <feOffset dx="0" dy="2" in="SourceAlpha" result="shadowOffsetOuter1"></feOffset>
            <feGaussianBlur stdDeviation="1" in="shadowOffsetOuter1" result="shadowBlurOuter1"></feGaussianBlur>
            <feColorMatrix values="0 0 0 0 1   0 0 0 0 1   0 0 0 0 1  0 0 0 0.5 0" type="matrix" in="shadowBlurOuter1"></feColorMatrix>
        </filter>
        <filter x="-9.4%" y="-11.4%" width="118.9%" height="129.8%" filterUnits="objectBoundingBox" id="filter-56">
            <feGaussianBlur stdDeviation="3.5" in="SourceAlpha" result="shadowBlurInner1"></feGaussianBlur>
            <feOffset dx="0" dy="6" in="shadowBlurInner1" result="shadowOffsetInner1"></feOffset>
            <feComposite in="shadowOffsetInner1" in2="SourceAlpha" operator="arithmetic" k2="-1" k3="1" result="shadowInnerInner1"></feComposite>
            <feColorMatrix values="0 0 0 0 0   0 0 0 0 0   0 0 0 0 0  0 0 0 0.2 0" type="matrix" in="shadowInnerInner1"></feColorMatrix>
        </filter>
    </defs>
    <g id="ISO-disk-administrator-512px" stroke="none" stroke-width="1" fill="none" fill-rule="evenodd">
        <g id="编组-3备份" filter="url(#filter-1)" transform="translate(81.000000, 33.000000)">
            <g id="矩形">
                <use fill="#ADADAD" fill-rule="evenodd" xlink:href="#path-2"></use>
                <use fill="black" fill-opacity="1" filter="url(#filter-3)" xlink:href="#path-2"></use>
            </g>
            <g id="矩形备份">
                <use fill="url(#linearGradient-4)" fill-rule="evenodd" xlink:href="#path-5"></use>
                <use fill="black" fill-opacity="1" filter="url(#filter-6)" xlink:href="#path-5"></use>
            </g>
            <g id="形状结合">
                <use fill="black" fill-opacity="1" filter="url(#filter-9)" xlink:href="#path-8"></use>
                <use fill="url(#linearGradient-7)" fill-rule="evenodd" xlink:href="#path-8"></use>
                <use fill="black" fill-opacity="1" filter="url(#filter-10)" xlink:href="#path-8"></use>
            </g>
            <g id="形状结合备份" transform="translate(340.499899, 222.975425) scale(-1, 1) translate(-340.499899, -222.975425) ">
                <use fill="black" fill-opacity="1" filter="url(#filter-12)" xlink:href="#path-11"></use>
                <use fill="url(#linearGradient-7)" fill-rule="evenodd" xlink:href="#path-11"></use>
                <use fill="black" fill-opacity="1" filter="url(#filter-13)" xlink:href="#path-11"></use>
            </g>
            <g id="编组-26" transform="translate(46.000000, 46.000000)">
                <g id="椭圆形">
                    <use fill="black" fill-opacity="1" filter="url(#filter-17)" xlink:href="#path-16"></use>
                    <circle stroke="url(#linearGradient-15)" stroke-width="4.275" stroke-linejoin="square" fill="url(#linearGradient-14)" fill-rule="evenodd" cx="128.784375" cy="128.784375" r="126.646875"></circle>
                </g>
                <g id="编组-2" transform="translate(16.032263, 17.043092)">
                    <mask id="mask-20" fill="white">
                        <use xlink:href="#path-19"></use>
                    </mask>
                    <g id="椭圆形备份-2">
                        <use fill="black" fill-opacity="1" filter="url(#filter-21)" xlink:href="#path-19"></use>
                        <ellipse stroke="#000000" stroke-width="4.275" fill="url(#linearGradient-18)" fill-rule="evenodd" cx="112.752112" cy="111.741283" rx="114.35625" ry="113.821875"></ellipse>
                    </g>
                    <polygon id="Path-4" fill-opacity="0.304632867" fill="#4F4F50" fill-rule="nonzero" mask="url(#mask-20)" transform="translate(113.461408, 121.583695) rotate(-105.000000) translate(-113.461408, -121.583695) " points="-9.61875 190.331259 236.541566 50.9387698 187.115829 -0.855 41.34653 244.02239"></polygon>
                    <polygon id="Path-4备份" fill-opacity="0.304632867" fill="#4F4F50" fill-rule="nonzero" opacity="0.413829985" mask="url(#mask-20)" transform="translate(113.461408, 121.583695) rotate(-345.000000) translate(-113.461408, -121.583695) " points="-9.61875 190.331259 236.541566 50.9387698 187.115829 -0.855 41.34653 244.02239"></polygon>
                </g>
                <g id="编组" transform="translate(86.034375, 86.568750)">
                    <mask id="mask-25" fill="white">
                        <use xlink:href="#path-24"></use>
                    </mask>
                    <g id="椭圆形备份-3">
                        <use fill="black" fill-opacity="1" filter="url(#filter-26)" xlink:href="#path-24"></use>
                        <ellipse stroke="#000000" stroke-width="18.16875" stroke-linejoin="square" fill="url(#linearGradient-22)" fill-rule="evenodd" cx="42.75" cy="42.215625" rx="33.665625" ry="33.13125"></ellipse>
                        <ellipse stroke="url(#linearGradient-23)" stroke-width="3.20625" cx="42.75" cy="42.215625" rx="44.353125" ry="43.81875"></ellipse>
                    </g>
                    <path d="M31.8366225,59.402462 L18.493116,78.7918668 C11.4154259,74.7180321 5.55784814,68.7627153 1.603125,61.6089739 L25.9523033,49.6571373 C26.7101647,53.5724407 28.8467602,56.9960381 31.8366225,59.402462 Z M69.0374013,5.34375 C74.5438811,9.8400811 78.9588837,15.6224945 81.8241382,22.2324411 L81.8241382,22.2324411 L54.6660686,35.5629752 C53.4941337,34.2287898 52.1111524,33.0845459 50.5692834,32.1824023 Z" id="形状结合" fill-opacity="0.401305726" fill="#4F4F50" fill-rule="nonzero" mask="url(#mask-25)" transform="translate(41.713632, 42.067808) rotate(93.000000) translate(-41.713632, -42.067808) "></path>
                </g>
                <g id="形状结合">
                    <use fill="black" fill-opacity="1" filter="url(#filter-29)" xlink:href="#path-28"></use>
                    <use fill="url(#linearGradient-27)" fill-rule="evenodd" xlink:href="#path-28"></use>
                    <use fill="black" fill-opacity="1" filter="url(#filter-30)" xlink:href="#path-28"></use>
                </g>
            </g>
            <g id="形状结合">
                <use fill="black" fill-opacity="1" filter="url(#filter-32)" xlink:href="#path-31"></use>
                <use fill="#A4AFB6" fill-rule="evenodd" xlink:href="#path-31"></use>
                <use fill="black" fill-opacity="1" filter="url(#filter-33)" xlink:href="#path-31"></use>
            </g>
            <g id="椭圆形备份-7">
                <use fill="black" fill-opacity="1" filter="url(#filter-35)" xlink:href="#path-34"></use>
                <use fill="#8C969D" fill-rule="evenodd" xlink:href="#path-34"></use>
                <use fill="black" fill-opacity="1" filter="url(#filter-36)" xlink:href="#path-34"></use>
            </g>
            <g id="矩形备份-2">
                <use fill="black" fill-opacity="1" filter="url(#filter-38)" xlink:href="#path-37"></use>
                <use fill="#A4AFB6" fill-rule="evenodd" xlink:href="#path-37"></use>
                <use fill="black" fill-opacity="1" filter="url(#filter-39)" xlink:href="#path-37"></use>
            </g>
            <g id="矩形">
                <use fill="black" fill-opacity="1" filter="url(#filter-41)" xlink:href="#path-40"></use>
                <use fill="#A4AFB6" fill-rule="evenodd" xlink:href="#path-40"></use>
                <use fill="black" fill-opacity="1" filter="url(#filter-42)" xlink:href="#path-40"></use>
            </g>
            <g id="路径-5">
                <use fill="#6C7982" fill-rule="evenodd" xlink:href="#path-43"></use>
                <use fill="black" fill-opacity="1" filter="url(#filter-44)" xlink:href="#path-43"></use>
            </g>
            <g id="形状结合" fill-rule="nonzero">
                <use fill="black" fill-opacity="1" filter="url(#filter-47)" xlink:href="#path-46"></use>
                <use fill="url(#linearGradient-45)" xlink:href="#path-46"></use>
            </g>
            <g id="编组-3" transform="translate(57.000000, 235.000000)">
                <g id="Shape" fill-rule="nonzero">
                    <use fill="black" fill-opacity="1" filter="url(#filter-50)" xlink:href="#path-49"></use>
                    <use fill="url(#linearGradient-48)" xlink:href="#path-49"></use>
                    <use fill="black" fill-opacity="1" filter="url(#filter-51)" xlink:href="#path-49"></use>
                </g>
                <ellipse id="椭圆形" stroke="#696868" stroke-width="3" fill="url(#linearGradient-52)" cx="25.258276" cy="121.836993" rx="15.5" ry="15"></ellipse>
            </g>
            <g id="Group-7" transform="translate(28.000000, 382.000000)" fill-rule="nonzero">
                <path d="M31.3849351,15.6983515 C31.3849351,24.3639239 24.3547919,31.3849351 15.6924675,31.3849351 C7.03014312,31.3849351 0,24.3639239 0,15.6983515 C0,7.03277909 7.03014312,0 15.6924675,0 C24.3547919,0 31.3849351,7.03277909 31.3849351,15.6983515 Z" id="Shape" fill="#6C6969"></path>
                <path d="M23.5387013,15.6954095 C23.5387013,20.0281957 20.0236297,23.5387013 15.6924675,23.5387013 C11.3613053,23.5387013 7.84623377,20.0281957 7.84623377,15.6954095 C7.84623377,11.3626233 11.3613053,7.84623377 15.6924675,7.84623377 C20.0236297,7.84623377 23.5387013,11.3626233 23.5387013,15.6954095 Z" id="Shape" fill="url(#linearGradient-53)" transform="translate(15.692468, 15.692468) scale(-1, 1) rotate(-180.000000) translate(-15.692468, -15.692468) "></path>
            </g>
            <g id="形状结合">
                <use fill="black" fill-opacity="1" filter="url(#filter-55)" xlink:href="#path-54"></use>
                <use fill="#6C7982" fill-rule="evenodd" xlink:href="#path-54"></use>
                <use fill="black" fill-opacity="1" filter="url(#filter-56)" xlink:href="#path-54"></use>
            </g>
        </g>
    </g>
</svg>