<?xml version="1.0" encoding="UTF-8"?>
<svg width="96px" height="96px" viewBox="0 0 96 96" version="1.1" xmlns="http://www.w3.org/2000/svg" xmlns:xlink="http://www.w3.org/1999/xlink">
    <!-- Generator: Sketch 58 (84663) - https://sketch.com -->
    <title>ISO disk administrator-96px</title>
    <desc>Created with Sketch.</desc>
    <defs>
        <filter x="-18.3%" y="-13.6%" width="136.6%" height="127.3%" filterUnits="objectBoundingBox" id="filter-1">
            <feOffset dx="0" dy="2" in="SourceAlpha" result="shadowOffsetOuter1"></feOffset>
            <feGaussianBlur stdDeviation="2" in="shadowOffsetOuter1" result="shadowBlurOuter1"></feGaussianBlur>
            <feComposite in="shadowBlurOuter1" in2="SourceAlpha" operator="out" result="shadowBlurOuter1"></feComposite>
            <feColorMatrix values="0 0 0 0 0   0 0 0 0 0   0 0 0 0 0  0 0 0 0.2 0" type="matrix" in="shadowBlurOuter1" result="shadowMatrixOuter1"></feColorMatrix>
            <feMerge>
                <feMergeNode in="shadowMatrixOuter1"></feMergeNode>
                <feMergeNode in="SourceGraphic"></feMergeNode>
            </feMerge>
        </filter>
        <rect id="path-2" x="1" y="0" width="69.058296" height="88" rx="7.89237668"></rect>
        <filter x="-0.7%" y="-0.6%" width="101.4%" height="101.1%" filterUnits="objectBoundingBox" id="filter-3">
            <feOffset dx="0" dy="-1" in="SourceAlpha" result="shadowOffsetInner1"></feOffset>
            <feComposite in="shadowOffsetInner1" in2="SourceAlpha" operator="arithmetic" k2="-1" k3="1" result="shadowInnerInner1"></feComposite>
            <feColorMatrix values="0 0 0 0 0   0 0 0 0 0   0 0 0 0 0  0 0 0 0.25 0" type="matrix" in="shadowInnerInner1"></feColorMatrix>
        </filter>
        <linearGradient x1="50%" y1="0%" x2="50%" y2="100%" id="linearGradient-4">
            <stop stop-color="#E9EEF2" offset="0%"></stop>
            <stop stop-color="#95A5AF" offset="100%"></stop>
        </linearGradient>
        <rect id="path-5" x="1" y="0" width="69.058296" height="86.8161435" rx="7.89237668"></rect>
        <filter x="-0.7%" y="-0.6%" width="101.4%" height="101.2%" filterUnits="objectBoundingBox" id="filter-6">
            <feOffset dx="0" dy="1" in="SourceAlpha" result="shadowOffsetInner1"></feOffset>
            <feComposite in="shadowOffsetInner1" in2="SourceAlpha" operator="arithmetic" k2="-1" k3="1" result="shadowInnerInner1"></feComposite>
            <feColorMatrix values="0 0 0 0 1   0 0 0 0 1   0 0 0 0 1  0 0 0 0.25 0" type="matrix" in="shadowInnerInner1"></feColorMatrix>
        </filter>
        <linearGradient x1="50%" y1="0%" x2="50%" y2="100%" id="linearGradient-7">
            <stop stop-color="#94A0A9" offset="0%"></stop>
            <stop stop-color="#8C979D" offset="100%"></stop>
        </linearGradient>
        <path d="M0.999795845,40.0537997 C3.08764466,40.1565016 4.74887892,41.8818253 4.74887892,43.9951511 C4.74887892,46.1745708 2.98211022,47.9413395 0.802690583,47.9413395 L0.999690583,47.9358475 Z" id="path-8"></path>
        <filter x="-38.0%" y="-19.0%" width="176.0%" height="138.0%" filterUnits="objectBoundingBox" id="filter-9">
            <feOffset dx="0" dy="0" in="SourceAlpha" result="shadowOffsetOuter1"></feOffset>
            <feGaussianBlur stdDeviation="0.5" in="shadowOffsetOuter1" result="shadowBlurOuter1"></feGaussianBlur>
            <feColorMatrix values="0 0 0 0 1   0 0 0 0 1   0 0 0 0 1  0 0 0 0.5 0" type="matrix" in="shadowBlurOuter1"></feColorMatrix>
        </filter>
        <filter x="-50.7%" y="-25.4%" width="201.4%" height="150.7%" filterUnits="objectBoundingBox" id="filter-10">
            <feGaussianBlur stdDeviation="0.5" in="SourceAlpha" result="shadowBlurInner1"></feGaussianBlur>
            <feOffset dx="0" dy="1" in="shadowBlurInner1" result="shadowOffsetInner1"></feOffset>
            <feComposite in="shadowOffsetInner1" in2="SourceAlpha" operator="arithmetic" k2="-1" k3="1" result="shadowInnerInner1"></feComposite>
            <feColorMatrix values="0 0 0 0 0   0 0 0 0 0   0 0 0 0 0  0 0 0 0.2 0" type="matrix" in="shadowInnerInner1"></feColorMatrix>
        </filter>
        <path d="M66.5065223,40.0537997 C68.5943711,40.1565016 70.2556054,41.8818253 70.2556054,43.9951511 C70.2556054,46.1745708 68.4888367,47.9413395 66.309417,47.9413395 L66.506417,47.9358475 Z" id="path-11"></path>
        <filter x="-38.0%" y="-19.0%" width="176.0%" height="138.0%" filterUnits="objectBoundingBox" id="filter-12">
            <feOffset dx="0" dy="0" in="SourceAlpha" result="shadowOffsetOuter1"></feOffset>
            <feGaussianBlur stdDeviation="0.5" in="shadowOffsetOuter1" result="shadowBlurOuter1"></feGaussianBlur>
            <feColorMatrix values="0 0 0 0 1   0 0 0 0 1   0 0 0 0 1  0 0 0 0.5 0" type="matrix" in="shadowBlurOuter1"></feColorMatrix>
        </filter>
        <filter x="-50.7%" y="-25.4%" width="201.4%" height="150.7%" filterUnits="objectBoundingBox" id="filter-13">
            <feGaussianBlur stdDeviation="0.5" in="SourceAlpha" result="shadowBlurInner1"></feGaussianBlur>
            <feOffset dx="0" dy="1" in="shadowBlurInner1" result="shadowOffsetInner1"></feOffset>
            <feComposite in="shadowOffsetInner1" in2="SourceAlpha" operator="arithmetic" k2="-1" k3="1" result="shadowInnerInner1"></feComposite>
            <feColorMatrix values="0 0 0 0 0   0 0 0 0 0   0 0 0 0 0  0 0 0 0.2 0" type="matrix" in="shadowInnerInner1"></feColorMatrix>
        </filter>
        <linearGradient x1="51.7606421%" y1="0%" x2="51.7606421%" y2="100%" id="linearGradient-14">
            <stop stop-color="#6B6C77" offset="0%"></stop>
            <stop stop-color="#2B2F42" offset="83.5058272%"></stop>
            <stop stop-color="#5F627C" offset="100%"></stop>
        </linearGradient>
        <linearGradient x1="50%" y1="0%" x2="50%" y2="100%" id="linearGradient-15">
            <stop stop-color="#FFFFFF" stop-opacity="0.15" offset="0%"></stop>
            <stop stop-color="#000000" stop-opacity="0.328238225" offset="100%"></stop>
        </linearGradient>
        <circle id="path-16" cx="25.41037" cy="25.41037" r="25.41037"></circle>
        <filter x="-10.8%" y="-6.9%" width="121.6%" height="121.6%" filterUnits="objectBoundingBox" id="filter-17">
            <feOffset dx="0" dy="2" in="SourceAlpha" result="shadowOffsetOuter1"></feOffset>
            <feGaussianBlur stdDeviation="1.5" in="shadowOffsetOuter1" result="shadowBlurOuter1"></feGaussianBlur>
            <feComposite in="shadowBlurOuter1" in2="SourceAlpha" operator="out" result="shadowBlurOuter1"></feComposite>
            <feColorMatrix values="0 0 0 0 0   0 0 0 0 0   0 0 0 0 0  0 0 0 0.271689248 0" type="matrix" in="shadowBlurOuter1"></feColorMatrix>
        </filter>
        <linearGradient x1="50%" y1="0%" x2="50%" y2="100%" id="linearGradient-18">
            <stop stop-color="#393741" offset="0%"></stop>
            <stop stop-color="#1F1C25" offset="100%"></stop>
        </linearGradient>
        <ellipse id="path-19" cx="22.2470535" cy="22.0476075" rx="22.1418161" ry="22.0363789"></ellipse>
        <filter x="-15.5%" y="-8.7%" width="130.9%" height="131.1%" filterUnits="objectBoundingBox" id="filter-21">
            <feMorphology radius="0.843497758" operator="dilate" in="SourceAlpha" result="shadowSpreadOuter1"></feMorphology>
            <feOffset dx="0" dy="3" in="shadowSpreadOuter1" result="shadowOffsetOuter1"></feOffset>
            <feGaussianBlur stdDeviation="1.5" in="shadowOffsetOuter1" result="shadowBlurOuter1"></feGaussianBlur>
            <feComposite in="shadowBlurOuter1" in2="SourceAlpha" operator="out" result="shadowBlurOuter1"></feComposite>
            <feColorMatrix values="0 0 0 0 0   0 0 0 0 0   0 0 0 0 0  0 0 0 0.3 0" type="matrix" in="shadowBlurOuter1"></feColorMatrix>
        </filter>
        <linearGradient x1="50%" y1="0%" x2="50%" y2="100%" id="linearGradient-22">
            <stop stop-color="#393741" offset="0%"></stop>
            <stop stop-color="#1F1C25" offset="100%"></stop>
        </linearGradient>
        <linearGradient x1="50%" y1="0%" x2="50%" y2="100%" id="linearGradient-23">
            <stop stop-color="#E5E5E5" stop-opacity="0.15" offset="0%"></stop>
            <stop stop-color="#565656" stop-opacity="0.328238225" offset="100%"></stop>
        </linearGradient>
        <ellipse id="path-24" cx="8.43497758" cy="8.32954036" rx="8.43497758" ry="8.32954036"></ellipse>
        <filter x="-11.9%" y="-9.8%" width="123.7%" height="127.8%" filterUnits="objectBoundingBox" id="filter-26">
            <feOffset dx="0" dy="1" in="SourceAlpha" result="shadowOffsetOuter1"></feOffset>
            <feGaussianBlur stdDeviation="0.5" in="shadowOffsetOuter1" result="shadowBlurOuter1"></feGaussianBlur>
            <feComposite in="shadowBlurOuter1" in2="SourceAlpha" operator="out" result="shadowBlurOuter1"></feComposite>
            <feColorMatrix values="0 0 0 0 0   0 0 0 0 0   0 0 0 0 0  0 0 0 0.3 0" type="matrix" in="shadowBlurOuter1"></feColorMatrix>
        </filter>
        <linearGradient x1="50%" y1="0%" x2="50%" y2="100%" id="linearGradient-27">
            <stop stop-color="#FBFBFB" offset="0%"></stop>
            <stop stop-color="#B7B7B7" offset="100%"></stop>
        </linearGradient>
        <path d="M25.5158072,20.4548206 C28.3109129,20.4548206 30.5767937,22.7207015 30.5767937,25.5158072 C30.5767937,28.3109129 28.3109129,30.5767937 25.5158072,30.5767937 C22.7207015,30.5767937 20.4548206,28.3109129 20.4548206,25.5158072 C20.4548206,22.7207015 22.7207015,20.4548206 25.5158072,20.4548206 Z M25.5158072,23.8288117 C24.5841053,23.8288117 23.8288117,24.5841053 23.8288117,25.5158072 C23.8288117,26.4475091 24.5841053,27.2028027 25.5158072,27.2028027 C26.4475091,27.2028027 27.2028027,26.4475091 27.2028027,25.5158072 C27.2028027,24.5841053 26.4475091,23.8288117 25.5158072,23.8288117 Z" id="path-28"></path>
        <filter x="-19.8%" y="-9.9%" width="139.5%" height="139.5%" filterUnits="objectBoundingBox" id="filter-29">
            <feOffset dx="0" dy="1" in="SourceAlpha" result="shadowOffsetOuter1"></feOffset>
            <feGaussianBlur stdDeviation="0.5" in="shadowOffsetOuter1" result="shadowBlurOuter1"></feGaussianBlur>
            <feColorMatrix values="0 0 0 0 0   0 0 0 0 0   0 0 0 0 0  0 0 0 0.3 0" type="matrix" in="shadowBlurOuter1"></feColorMatrix>
        </filter>
        <filter x="-19.8%" y="-9.9%" width="139.5%" height="139.5%" filterUnits="objectBoundingBox" id="filter-30">
            <feGaussianBlur stdDeviation="0.5" in="SourceAlpha" result="shadowBlurInner1"></feGaussianBlur>
            <feOffset dx="0" dy="1" in="shadowBlurInner1" result="shadowOffsetInner1"></feOffset>
            <feComposite in="shadowOffsetInner1" in2="SourceAlpha" operator="arithmetic" k2="-1" k3="1" result="shadowInnerInner1"></feComposite>
            <feColorMatrix values="0 0 0 0 1   0 0 0 0 1   0 0 0 0 1  0 0 0 0.5 0" type="matrix" in="shadowInnerInner1"></feColorMatrix>
        </filter>
        <path d="M8.0044843,4.34080717 C9.03970863,4.34080717 9.87892377,5.18002231 9.87892377,6.21524664 C9.87892377,7.25047097 9.03970863,8.0896861 8.0044843,8.0896861 C6.96925998,8.0896861 6.13004484,7.25047097 6.13004484,6.21524664 C6.13004484,5.18002231 6.96925998,4.34080717 8.0044843,4.34080717 Z M63.0538117,4.34080717 C64.089036,4.34080717 64.9282511,5.18002231 64.9282511,6.21524664 C64.9282511,7.25047097 64.089036,8.0896861 63.0538117,8.0896861 C62.0185873,8.0896861 61.1793722,7.25047097 61.1793722,6.21524664 C61.1793722,5.18002231 62.0185873,4.34080717 63.0538117,4.34080717 Z" id="path-31"></path>
        <filter x="-2.6%" y="-40.0%" width="105.1%" height="180.0%" filterUnits="objectBoundingBox" id="filter-32">
            <feOffset dx="0" dy="0" in="SourceAlpha" result="shadowOffsetOuter1"></feOffset>
            <feGaussianBlur stdDeviation="0.5" in="shadowOffsetOuter1" result="shadowBlurOuter1"></feGaussianBlur>
            <feColorMatrix values="0 0 0 0 1   0 0 0 0 1   0 0 0 0 1  0 0 0 0.5 0" type="matrix" in="shadowBlurOuter1"></feColorMatrix>
        </filter>
        <filter x="-4.3%" y="-66.7%" width="108.5%" height="233.4%" filterUnits="objectBoundingBox" id="filter-33">
            <feGaussianBlur stdDeviation="1" in="SourceAlpha" result="shadowBlurInner1"></feGaussianBlur>
            <feOffset dx="0" dy="1" in="shadowBlurInner1" result="shadowOffsetInner1"></feOffset>
            <feComposite in="shadowOffsetInner1" in2="SourceAlpha" operator="arithmetic" k2="-1" k3="1" result="shadowInnerInner1"></feComposite>
            <feColorMatrix values="0 0 0 0 0   0 0 0 0 0   0 0 0 0 0  0 0 0 0.2 0" type="matrix" in="shadowInnerInner1"></feColorMatrix>
        </filter>
        <circle id="path-34" cx="63.0538117" cy="78.4304933" r="1.87443946"></circle>
        <filter x="-40.0%" y="-40.0%" width="180.0%" height="180.0%" filterUnits="objectBoundingBox" id="filter-35">
            <feOffset dx="0" dy="0" in="SourceAlpha" result="shadowOffsetOuter1"></feOffset>
            <feGaussianBlur stdDeviation="0.5" in="shadowOffsetOuter1" result="shadowBlurOuter1"></feGaussianBlur>
            <feColorMatrix values="0 0 0 0 1   0 0 0 0 1   0 0 0 0 1  0 0 0 0.5 0" type="matrix" in="shadowBlurOuter1"></feColorMatrix>
        </filter>
        <filter x="-66.7%" y="-66.7%" width="233.4%" height="233.4%" filterUnits="objectBoundingBox" id="filter-36">
            <feGaussianBlur stdDeviation="1" in="SourceAlpha" result="shadowBlurInner1"></feGaussianBlur>
            <feOffset dx="0" dy="1" in="shadowBlurInner1" result="shadowOffsetInner1"></feOffset>
            <feComposite in="shadowOffsetInner1" in2="SourceAlpha" operator="arithmetic" k2="-1" k3="1" result="shadowInnerInner1"></feComposite>
            <feColorMatrix values="0 0 0 0 0   0 0 0 0 0   0 0 0 0 0  0 0 0 0.2 0" type="matrix" in="shadowInnerInner1"></feColorMatrix>
        </filter>
        <rect id="path-37" x="41.8430493" y="63.7309417" width="2.95964126" height="2.95964126" rx="0.394618834"></rect>
        <filter x="-50.7%" y="-50.7%" width="201.4%" height="201.4%" filterUnits="objectBoundingBox" id="filter-38">
            <feOffset dx="0" dy="0" in="SourceAlpha" result="shadowOffsetOuter1"></feOffset>
            <feGaussianBlur stdDeviation="0.5" in="shadowOffsetOuter1" result="shadowBlurOuter1"></feGaussianBlur>
            <feColorMatrix values="0 0 0 0 1   0 0 0 0 1   0 0 0 0 1  0 0 0 0.5 0" type="matrix" in="shadowBlurOuter1"></feColorMatrix>
        </filter>
        <filter x="-84.5%" y="-84.5%" width="268.9%" height="268.9%" filterUnits="objectBoundingBox" id="filter-39">
            <feGaussianBlur stdDeviation="1" in="SourceAlpha" result="shadowBlurInner1"></feGaussianBlur>
            <feOffset dx="0" dy="1" in="shadowBlurInner1" result="shadowOffsetInner1"></feOffset>
            <feComposite in="shadowOffsetInner1" in2="SourceAlpha" operator="arithmetic" k2="-1" k3="1" result="shadowInnerInner1"></feComposite>
            <feColorMatrix values="0 0 0 0 0   0 0 0 0 0   0 0 0 0 0  0 0 0 0.2 0" type="matrix" in="shadowInnerInner1"></feColorMatrix>
        </filter>
        <rect id="path-40" x="19.7443946" y="64.32287" width="18.7443946" height="2.367713" rx="1.1838565"></rect>
        <filter x="-8.0%" y="-63.4%" width="116.0%" height="226.7%" filterUnits="objectBoundingBox" id="filter-41">
            <feOffset dx="0" dy="0" in="SourceAlpha" result="shadowOffsetOuter1"></feOffset>
            <feGaussianBlur stdDeviation="0.5" in="shadowOffsetOuter1" result="shadowBlurOuter1"></feGaussianBlur>
            <feColorMatrix values="0 0 0 0 1   0 0 0 0 1   0 0 0 0 1  0 0 0 0.5 0" type="matrix" in="shadowBlurOuter1"></feColorMatrix>
        </filter>
        <filter x="-10.7%" y="-84.5%" width="121.3%" height="268.9%" filterUnits="objectBoundingBox" id="filter-42">
            <feGaussianBlur stdDeviation="0.5" in="SourceAlpha" result="shadowBlurInner1"></feGaussianBlur>
            <feOffset dx="0" dy="1" in="shadowBlurInner1" result="shadowOffsetInner1"></feOffset>
            <feComposite in="shadowOffsetInner1" in2="SourceAlpha" operator="arithmetic" k2="-1" k3="1" result="shadowInnerInner1"></feComposite>
            <feColorMatrix values="0 0 0 0 0   0 0 0 0 0   0 0 0 0 0  0 0 0 0.2 0" type="matrix" in="shadowInnerInner1"></feColorMatrix>
        </filter>
        <path d="M2.97309417,56.82671 L2.97309417,78.9237668 C2.97309417,82.1928963 5.62324722,84.8430493 8.89237668,84.8430493 L36.9103139,84.8430493 C37.7820818,84.8430493 38.4887892,84.1363418 38.4887892,83.264574 L38.4887892,73.4226157 C38.4887969,71.5827464 37.0836943,70.0474911 35.2510207,69.8849287 C24.8082888,68.9586343 16.1381384,64.0792036 9.24056977,55.2466368 C8.16414478,55.249362 6.6015743,55.2498948 4.55285833,55.2482352 C3.68108518,55.2475188 2.9738009,55.9536581 2.97309469,56.8254313 C2.97309434,56.8258575 2.97309417,56.8262838 2.97309417,56.82671 Z" id="path-43"></path>
        <filter x="-2.8%" y="-3.4%" width="105.6%" height="106.8%" filterUnits="objectBoundingBox" id="filter-44">
            <feGaussianBlur stdDeviation="0.5" in="SourceAlpha" result="shadowBlurInner1"></feGaussianBlur>
            <feOffset dx="0" dy="1" in="shadowBlurInner1" result="shadowOffsetInner1"></feOffset>
            <feComposite in="shadowOffsetInner1" in2="SourceAlpha" operator="arithmetic" k2="-1" k3="1" result="shadowInnerInner1"></feComposite>
            <feColorMatrix values="0 0 0 0 0   0 0 0 0 0   0 0 0 0 0  0 0 0 0.2 0" type="matrix" in="shadowInnerInner1"></feColorMatrix>
        </filter>
        <linearGradient x1="50%" y1="0%" x2="50%" y2="100%" id="linearGradient-45">
            <stop stop-color="#EAF0F4" offset="0%"></stop>
            <stop stop-color="#C7D1D8" offset="100%"></stop>
        </linearGradient>
        <path d="M8.29112428,57.2214267 C15.4229343,65.9993098 24.3838404,70.9018258 35.0766866,71.8503061 C35.8912064,71.9225559 36.5156951,72.6048901 36.5156951,73.4226081 L36.5156951,82.8699552 L8.89237668,82.8699552 C6.71295704,82.8699552 4.94618834,81.1031865 4.94618834,78.9237668 L4.94618834,57.2214267 L8.29112428,57.2214267 Z M33.7533632,78.529148 C33.3174793,78.529148 32.9641256,78.8825017 32.9641256,79.3183857 C32.9641256,79.7542696 33.3174793,80.1076233 33.7533632,80.1076233 C34.1892472,80.1076233 34.5426009,79.7542696 34.5426009,79.3183857 C34.5426009,78.8825017 34.1892472,78.529148 33.7533632,78.529148 Z M7.31390135,58.9955157 C6.87801742,58.9955157 6.52466368,59.3488694 6.52466368,59.7847534 C6.52466368,60.2206373 6.87801742,60.573991 7.31390135,60.573991 C7.74978527,60.573991 8.10313901,60.2206373 8.10313901,59.7847534 C8.10313901,59.3488694 7.74978527,58.9955157 7.31390135,58.9955157 Z" id="path-46"></path>
        <filter x="-4.8%" y="-5.8%" width="109.5%" height="111.7%" filterUnits="objectBoundingBox" id="filter-47">
            <feOffset dx="0" dy="0" in="SourceAlpha" result="shadowOffsetOuter1"></feOffset>
            <feGaussianBlur stdDeviation="0.5" in="shadowOffsetOuter1" result="shadowBlurOuter1"></feGaussianBlur>
            <feColorMatrix values="0 0 0 0 0   0 0 0 0 0   0 0 0 0 0  0 0 0 0.275868663 0" type="matrix" in="shadowBlurOuter1"></feColorMatrix>
        </filter>
        <linearGradient x1="97.2470411%" y1="4.49136807%" x2="6.27062595%" y2="91.5453078%" id="linearGradient-48">
            <stop stop-color="#F7F9FB" offset="0%"></stop>
            <stop stop-color="#ECF1F6" offset="100%"></stop>
        </linearGradient>
        <path d="M9.98280678,26.6954734 L29.0652661,2.97372699 C29.338043,2.65623821 29.5027809,2.24883659 29.5027809,1.80435229 C29.5027809,0.80955408 28.6763255,4.26325641e-14 27.6579928,4.26325641e-14 C27.2042289,4.26325641e-14 26.7883218,0.158829058 26.4667976,0.428567533 L2.24721191,19.1207835 C0.883154283,20.1076233 3.12638804e-13,21.6925274 3.12638804e-13,23.4782536 C3.12638804e-13,26.4733159 2.47677326,28.896729 5.53159856,28.896729 C7.35754467,28.896729 8.97536439,28.0316355 9.98280678,26.6954734 Z" id="path-49"></path>
        <filter x="-6.8%" y="-3.5%" width="113.6%" height="113.8%" filterUnits="objectBoundingBox" id="filter-50">
            <feOffset dx="0" dy="1" in="SourceAlpha" result="shadowOffsetOuter1"></feOffset>
            <feGaussianBlur stdDeviation="0.5" in="shadowOffsetOuter1" result="shadowBlurOuter1"></feGaussianBlur>
            <feColorMatrix values="0 0 0 0 0   0 0 0 0 0   0 0 0 0 0  0 0 0 0.300344187 0" type="matrix" in="shadowBlurOuter1"></feColorMatrix>
        </filter>
        <filter x="-3.4%" y="0.0%" width="106.8%" height="106.9%" filterUnits="objectBoundingBox" id="filter-51">
            <feOffset dx="0" dy="0" in="SourceAlpha" result="shadowOffsetInner1"></feOffset>
            <feComposite in="shadowOffsetInner1" in2="SourceAlpha" operator="arithmetic" k2="-1" k3="1" result="shadowInnerInner1"></feComposite>
            <feColorMatrix values="0 0 0 0 1   0 0 0 0 1   0 0 0 0 1  0 0 0 0.942198427 0" type="matrix" in="shadowInnerInner1"></feColorMatrix>
        </filter>
        <linearGradient x1="50%" y1="0%" x2="50%" y2="97.6792756%" id="linearGradient-52">
            <stop stop-color="#959B9F" offset="0%"></stop>
            <stop stop-color="#727A81" offset="100%"></stop>
        </linearGradient>
        <linearGradient x1="50%" y1="1.83254943%" x2="50%" y2="100%" id="linearGradient-53">
            <stop stop-color="#A5ABB2" offset="0%"></stop>
            <stop stop-color="#EAF0FF" offset="100%"></stop>
        </linearGradient>
        <path d="M58.7130045,72.8071749 C59.2033739,72.8071749 59.6008969,73.2046978 59.6008969,73.6950673 L59.6008969,83.1659193 C59.6008969,83.6562887 59.2033739,84.0538117 58.7130045,84.0538117 L58.5156951,84.0538117 C58.0253256,84.0538117 57.6278027,83.6562887 57.6278027,83.1659193 L57.6278027,73.6950673 C57.6278027,73.2046978 58.0253256,72.8071749 58.5156951,72.8071749 L58.7130045,72.8071749 Z M54.7668161,72.8071749 C55.2571856,72.8071749 55.6547085,73.2046978 55.6547085,73.6950673 L55.6547085,83.1659193 C55.6547085,83.6562887 55.2571856,84.0538117 54.7668161,84.0538117 L54.5695067,84.0538117 C54.0791373,84.0538117 53.6816143,83.6562887 53.6816143,83.1659193 L53.6816143,73.6950673 C53.6816143,73.2046978 54.0791373,72.8071749 54.5695067,72.8071749 L54.7668161,72.8071749 Z M50.8206278,72.8071749 C51.3109972,72.8071749 51.7085202,73.2046978 51.7085202,73.6950673 L51.7085202,83.1659193 C51.7085202,83.6562887 51.3109972,84.0538117 50.8206278,84.0538117 L50.6233184,84.0538117 C50.132949,84.0538117 49.735426,83.6562887 49.735426,83.1659193 L49.735426,73.6950673 C49.735426,73.2046978 50.132949,72.8071749 50.6233184,72.8071749 L50.8206278,72.8071749 Z M46.8744395,72.8071749 C47.3648089,72.8071749 47.7623318,73.2046978 47.7623318,73.6950673 L47.7623318,83.1659193 C47.7623318,83.6562887 47.3648089,84.0538117 46.8744395,84.0538117 L46.67713,84.0538117 C46.1867606,84.0538117 45.7892377,83.6562887 45.7892377,83.1659193 L45.7892377,73.6950673 C45.7892377,73.2046978 46.1867606,72.8071749 46.67713,72.8071749 L46.8744395,72.8071749 Z M42.9282511,72.8071749 C43.4186205,72.8071749 43.8161435,73.2046978 43.8161435,73.6950673 L43.8161435,83.1659193 C43.8161435,83.6562887 43.4186205,84.0538117 42.9282511,84.0538117 L42.7309417,84.0538117 C42.2405723,84.0538117 41.8430493,83.6562887 41.8430493,83.1659193 L41.8430493,73.6950673 C41.8430493,73.2046978 42.2405723,72.8071749 42.7309417,72.8071749 L42.9282511,72.8071749 Z" id="path-54"></path>
        <filter x="-8.4%" y="-13.3%" width="116.9%" height="126.7%" filterUnits="objectBoundingBox" id="filter-55">
            <feOffset dx="0" dy="0" in="SourceAlpha" result="shadowOffsetOuter1"></feOffset>
            <feGaussianBlur stdDeviation="0.5" in="shadowOffsetOuter1" result="shadowBlurOuter1"></feGaussianBlur>
            <feColorMatrix values="0 0 0 0 1   0 0 0 0 1   0 0 0 0 1  0 0 0 0.5 0" type="matrix" in="shadowBlurOuter1"></feColorMatrix>
        </filter>
        <filter x="-11.3%" y="-17.8%" width="122.5%" height="135.6%" filterUnits="objectBoundingBox" id="filter-56">
            <feGaussianBlur stdDeviation="0.5" in="SourceAlpha" result="shadowBlurInner1"></feGaussianBlur>
            <feOffset dx="0" dy="1" in="shadowBlurInner1" result="shadowOffsetInner1"></feOffset>
            <feComposite in="shadowOffsetInner1" in2="SourceAlpha" operator="arithmetic" k2="-1" k3="1" result="shadowInnerInner1"></feComposite>
            <feColorMatrix values="0 0 0 0 0   0 0 0 0 0   0 0 0 0 0  0 0 0 0.2 0" type="matrix" in="shadowInnerInner1"></feColorMatrix>
        </filter>
    </defs>
    <g id="ISO-disk-administrator-96px" stroke="none" stroke-width="1" fill="none" fill-rule="evenodd">
        <g id="编组-3备份-2" filter="url(#filter-1)" transform="translate(13.000000, 4.000000)">
            <g id="矩形">
                <use fill="#ADADAD" fill-rule="evenodd" xlink:href="#path-2"></use>
                <use fill="black" fill-opacity="1" filter="url(#filter-3)" xlink:href="#path-2"></use>
            </g>
            <g id="矩形备份">
                <use fill="url(#linearGradient-4)" fill-rule="evenodd" xlink:href="#path-5"></use>
                <use fill="black" fill-opacity="1" filter="url(#filter-6)" xlink:href="#path-5"></use>
            </g>
            <g id="形状结合">
                <use fill="black" fill-opacity="1" filter="url(#filter-9)" xlink:href="#path-8"></use>
                <use fill="url(#linearGradient-7)" fill-rule="evenodd" xlink:href="#path-8"></use>
                <use fill="black" fill-opacity="1" filter="url(#filter-10)" xlink:href="#path-8"></use>
            </g>
            <g id="形状结合备份" transform="translate(68.282511, 43.997593) scale(-1, 1) translate(-68.282511, -43.997593) ">
                <use fill="black" fill-opacity="1" filter="url(#filter-12)" xlink:href="#path-11"></use>
                <use fill="url(#linearGradient-7)" fill-rule="evenodd" xlink:href="#path-11"></use>
                <use fill="black" fill-opacity="1" filter="url(#filter-13)" xlink:href="#path-11"></use>
            </g>
            <g id="编组-26" transform="translate(10.076233, 9.076233)">
                <g id="椭圆形">
                    <use fill="black" fill-opacity="1" filter="url(#filter-17)" xlink:href="#path-16"></use>
                    <circle stroke="url(#linearGradient-15)" stroke-width="0.843497758" stroke-linejoin="square" fill="url(#linearGradient-14)" fill-rule="evenodd" cx="25.41037" cy="25.41037" r="24.9886211"></circle>
                </g>
                <g id="编组-2" transform="translate(3.163316, 3.362762)">
                    <mask id="mask-20" fill="white">
                        <use xlink:href="#path-19"></use>
                    </mask>
                    <g id="椭圆形备份-2">
                        <use fill="black" fill-opacity="1" filter="url(#filter-21)" xlink:href="#path-19"></use>
                        <ellipse stroke="#000000" stroke-width="0.843497758" fill="url(#linearGradient-18)" fill-rule="evenodd" cx="22.2470535" cy="22.0476075" rx="22.563565" ry="22.4581278"></ellipse>
                    </g>
                    <polygon id="Path-4" fill-opacity="0.304632867" fill="#4F4F50" fill-rule="nonzero" mask="url(#mask-20)" transform="translate(22.387004, 23.989608) rotate(-105.000000) translate(-22.387004, -23.989608) " points="-1.89786996 37.5541498 46.6718785 10.050699 36.9197152 -0.168699552 8.15805973 48.1479154"></polygon>
                    <polygon id="Path-4备份" fill-opacity="0.304632867" fill="#4F4F50" fill-rule="nonzero" opacity="0.413829985" mask="url(#mask-20)" transform="translate(22.387004, 23.989608) rotate(-345.000000) translate(-22.387004, -23.989608) " points="-1.89786996 37.5541498 46.6718785 10.050699 36.9197152 -0.168699552 8.15805973 48.1479154"></polygon>
                </g>
                <g id="编组" transform="translate(16.975392, 17.080830)">
                    <mask id="mask-25" fill="white">
                        <use xlink:href="#path-24"></use>
                    </mask>
                    <g id="椭圆形备份-3">
                        <use fill="black" fill-opacity="1" filter="url(#filter-26)" xlink:href="#path-24"></use>
                        <ellipse stroke="#000000" stroke-width="3.58486547" stroke-linejoin="square" fill="url(#linearGradient-22)" fill-rule="evenodd" cx="8.43497758" cy="8.32954036" rx="6.64254484" ry="6.53710762"></ellipse>
                        <ellipse stroke="url(#linearGradient-23)" stroke-width="0.632623318" cx="8.43497758" cy="8.32954036" rx="8.75128924" ry="8.64585202"></ellipse>
                    </g>
                    <path d="M6.28208251,11.7210008 L3.64886593,15.5463773 C2.25237103,14.7425714 1.09661578,13.5675313 0.316311659,12.1560307 L5.12071732,9.79825192 C5.27035913,10.5707804 5.69204591,11.2462617 6.28208251,11.7210008 Z M13.6217294,1.0543722 C14.7082097,1.94154067 15.5793313,3.08246528 16.144673,4.38667 L16.144673,4.38667 L10.7861742,7.0169601 C10.5548771,6.75362988 10.2819132,6.5277985 9.97758304,6.34976655 Z" id="形状结合" fill-opacity="0.401305726" fill="#4F4F50" fill-rule="nonzero" mask="url(#mask-25)" transform="translate(8.230492, 8.300375) rotate(93.000000) translate(-8.230492, -8.300375) "></path>
                </g>
                <g id="形状结合">
                    <use fill="black" fill-opacity="1" filter="url(#filter-29)" xlink:href="#path-28"></use>
                    <use fill="url(#linearGradient-27)" fill-rule="evenodd" xlink:href="#path-28"></use>
                    <use fill="black" fill-opacity="1" filter="url(#filter-30)" xlink:href="#path-28"></use>
                </g>
            </g>
            <g id="形状结合">
                <use fill="black" fill-opacity="1" filter="url(#filter-32)" xlink:href="#path-31"></use>
                <use fill="#A4AFB6" fill-rule="evenodd" xlink:href="#path-31"></use>
                <use fill="black" fill-opacity="1" filter="url(#filter-33)" xlink:href="#path-31"></use>
            </g>
            <g id="椭圆形备份-7">
                <use fill="black" fill-opacity="1" filter="url(#filter-35)" xlink:href="#path-34"></use>
                <use fill="#8C969D" fill-rule="evenodd" xlink:href="#path-34"></use>
                <use fill="black" fill-opacity="1" filter="url(#filter-36)" xlink:href="#path-34"></use>
            </g>
            <g id="矩形备份-2">
                <use fill="black" fill-opacity="1" filter="url(#filter-38)" xlink:href="#path-37"></use>
                <use fill="#A4AFB6" fill-rule="evenodd" xlink:href="#path-37"></use>
                <use fill="black" fill-opacity="1" filter="url(#filter-39)" xlink:href="#path-37"></use>
            </g>
            <g id="矩形">
                <use fill="black" fill-opacity="1" filter="url(#filter-41)" xlink:href="#path-40"></use>
                <use fill="#A4AFB6" fill-rule="evenodd" xlink:href="#path-40"></use>
                <use fill="black" fill-opacity="1" filter="url(#filter-42)" xlink:href="#path-40"></use>
            </g>
            <g id="路径-5">
                <use fill="#6C7982" fill-rule="evenodd" xlink:href="#path-43"></use>
                <use fill="black" fill-opacity="1" filter="url(#filter-44)" xlink:href="#path-43"></use>
            </g>
            <g id="形状结合" fill-rule="nonzero">
                <use fill="black" fill-opacity="1" filter="url(#filter-47)" xlink:href="#path-46"></use>
                <use fill="url(#linearGradient-45)" xlink:href="#path-46"></use>
            </g>
            <g id="编组-3" transform="translate(12.246637, 46.367713)">
                <g id="Shape" fill-rule="nonzero">
                    <use fill="black" fill-opacity="1" filter="url(#filter-50)" xlink:href="#path-49"></use>
                    <use fill="url(#linearGradient-48)" xlink:href="#path-49"></use>
                    <use fill="black" fill-opacity="1" filter="url(#filter-51)" xlink:href="#path-49"></use>
                </g>
                <ellipse id="椭圆形" stroke="#696868" stroke-width="0.591928251" fill="url(#linearGradient-52)" cx="4.98369571" cy="24.0395861" rx="3.05829596" ry="2.95964126"></ellipse>
            </g>
            <g id="Group-7" transform="translate(6.524664, 75.372197)" fill-rule="nonzero">
                <path d="M6.19254324,3.09743258 C6.19254324,4.80723161 4.8054298,6.19254324 3.09627162,6.19254324 C1.38711344,6.19254324 0,4.80723161 0,3.09743258 C0,1.38763354 1.38711344,0 3.09627162,0 C4.8054298,0 6.19254324,1.38763354 6.19254324,3.09743258 Z" id="Shape" fill="#6C6969"></path>
                <path d="M4.64440743,3.0968521 C4.64440743,3.95175161 3.95085071,4.64440743 3.09627162,4.64440743 C2.24169253,4.64440743 1.54813581,3.95175161 1.54813581,3.0968521 C1.54813581,2.24195258 2.24169253,1.54813581 3.09627162,1.54813581 C3.95085071,1.54813581 4.64440743,2.24195258 4.64440743,3.0968521 Z" id="Shape" fill="url(#linearGradient-53)" transform="translate(3.096272, 3.096272) scale(-1, 1) rotate(-180.000000) translate(-3.096272, -3.096272) "></path>
            </g>
            <g id="形状结合">
                <use fill="black" fill-opacity="1" filter="url(#filter-55)" xlink:href="#path-54"></use>
                <use fill="#6C7982" fill-rule="evenodd" xlink:href="#path-54"></use>
                <use fill="black" fill-opacity="1" filter="url(#filter-56)" xlink:href="#path-54"></use>
            </g>
        </g>
    </g>
</svg>