<?xml version="1.0" encoding="UTF-8"?>
<svg width="32px" height="32px" viewBox="0 0 32 32" version="1.1" xmlns="http://www.w3.org/2000/svg" xmlns:xlink="http://www.w3.org/1999/xlink">
    <!-- Generator: Sketch 58 (84663) - https://sketch.com -->
    <title>ISO disk administrator-32px</title>
    <desc>Created with Sketch.</desc>
    <defs>
        <filter x="-20.8%" y="-13.3%" width="141.7%" height="126.7%" filterUnits="objectBoundingBox" id="filter-1">
            <feOffset dx="0" dy="1" in="SourceAlpha" result="shadowOffsetOuter1"></feOffset>
            <feGaussianBlur stdDeviation="0.5" in="shadowOffsetOuter1" result="shadowBlurOuter1"></feGaussianBlur>
            <feComposite in="shadowBlurOuter1" in2="SourceAlpha" operator="out" result="shadowBlurOuter1"></feComposite>
            <feColorMatrix values="0 0 0 0 0   0 0 0 0 0   0 0 0 0 0  0 0 0 0.15 0" type="matrix" in="shadowBlurOuter1" result="shadowMatrixOuter1"></feColorMatrix>
            <feMerge>
                <feMergeNode in="shadowMatrixOuter1"></feMergeNode>
                <feMergeNode in="SourceGraphic"></feMergeNode>
            </feMerge>
        </filter>
        <rect id="path-2" x="0.340909091" y="0" width="23.5426009" height="30" rx="2.69058296"></rect>
        <filter x="0.0%" y="0.0%" width="100.0%" height="100.0%" filterUnits="objectBoundingBox" id="filter-3">
            <feOffset dx="0" dy="-0" in="SourceAlpha" result="shadowOffsetInner1"></feOffset>
            <feComposite in="shadowOffsetInner1" in2="SourceAlpha" operator="arithmetic" k2="-1" k3="1" result="shadowInnerInner1"></feComposite>
            <feColorMatrix values="0 0 0 0 0   0 0 0 0 0   0 0 0 0 0  0 0 0 0.25 0" type="matrix" in="shadowInnerInner1"></feColorMatrix>
        </filter>
        <linearGradient x1="50%" y1="0%" x2="50%" y2="100%" id="linearGradient-4">
            <stop stop-color="#E9EEF2" offset="0%"></stop>
            <stop stop-color="#95A5AF" offset="100%"></stop>
        </linearGradient>
        <rect id="path-5" x="0.340909091" y="0" width="23.5426009" height="29.5964126" rx="2.69058296"></rect>
        <filter x="0.0%" y="0.0%" width="100.0%" height="100.0%" filterUnits="objectBoundingBox" id="filter-6">
            <feOffset dx="0" dy="0" in="SourceAlpha" result="shadowOffsetInner1"></feOffset>
            <feComposite in="shadowOffsetInner1" in2="SourceAlpha" operator="arithmetic" k2="-1" k3="1" result="shadowInnerInner1"></feComposite>
            <feColorMatrix values="0 0 0 0 1   0 0 0 0 1   0 0 0 0 1  0 0 0 0.25 0" type="matrix" in="shadowInnerInner1"></feColorMatrix>
        </filter>
        <linearGradient x1="50%" y1="0%" x2="50%" y2="100%" id="linearGradient-7">
            <stop stop-color="#94A0A9" offset="0%"></stop>
            <stop stop-color="#8C979D" offset="100%"></stop>
        </linearGradient>
        <path d="M0.34133582,13.6547289 C1.05286939,13.6899899 1.618936,14.2780625 1.618936,14.998347 C1.618936,15.7413309 1.01662849,16.3436385 0.273644517,16.3436385 L0.340644517,16.3397289 Z" id="path-8"></path>
        <filter x="-111.5%" y="-55.8%" width="323.0%" height="211.6%" filterUnits="objectBoundingBox" id="filter-9">
            <feOffset dx="0" dy="0" in="SourceAlpha" result="shadowOffsetOuter1"></feOffset>
            <feGaussianBlur stdDeviation="0.5" in="shadowOffsetOuter1" result="shadowBlurOuter1"></feGaussianBlur>
            <feColorMatrix values="0 0 0 0 1   0 0 0 0 1   0 0 0 0 1  0 0 0 0.5 0" type="matrix" in="shadowBlurOuter1"></feColorMatrix>
        </filter>
        <filter x="-111.5%" y="-55.8%" width="323.0%" height="211.6%" filterUnits="objectBoundingBox" id="filter-10">
            <feGaussianBlur stdDeviation="0.5" in="SourceAlpha" result="shadowBlurInner1"></feGaussianBlur>
            <feOffset dx="0" dy="0" in="shadowBlurInner1" result="shadowOffsetInner1"></feOffset>
            <feComposite in="shadowOffsetInner1" in2="SourceAlpha" operator="arithmetic" k2="-1" k3="1" result="shadowInnerInner1"></feComposite>
            <feColorMatrix values="0 0 0 0 0   0 0 0 0 0   0 0 0 0 0  0 0 0 0.2 0" type="matrix" in="shadowInnerInner1"></feColorMatrix>
        </filter>
        <path d="M22.6731744,13.6547289 C23.384708,13.6899899 23.9507746,14.2780625 23.9507746,14.998347 C23.9507746,15.7413309 23.3484671,16.3436385 22.6054831,16.3436385 L22.6724831,16.3397289 Z" id="path-11"></path>
        <filter x="-111.5%" y="-55.8%" width="323.0%" height="211.6%" filterUnits="objectBoundingBox" id="filter-12">
            <feOffset dx="0" dy="0" in="SourceAlpha" result="shadowOffsetOuter1"></feOffset>
            <feGaussianBlur stdDeviation="0.5" in="shadowOffsetOuter1" result="shadowBlurOuter1"></feGaussianBlur>
            <feColorMatrix values="0 0 0 0 1   0 0 0 0 1   0 0 0 0 1  0 0 0 0.5 0" type="matrix" in="shadowBlurOuter1"></feColorMatrix>
        </filter>
        <filter x="-111.5%" y="-55.8%" width="323.0%" height="211.6%" filterUnits="objectBoundingBox" id="filter-13">
            <feGaussianBlur stdDeviation="0.5" in="SourceAlpha" result="shadowBlurInner1"></feGaussianBlur>
            <feOffset dx="0" dy="0" in="shadowBlurInner1" result="shadowOffsetInner1"></feOffset>
            <feComposite in="shadowOffsetInner1" in2="SourceAlpha" operator="arithmetic" k2="-1" k3="1" result="shadowInnerInner1"></feComposite>
            <feColorMatrix values="0 0 0 0 0   0 0 0 0 0   0 0 0 0 0  0 0 0 0.2 0" type="matrix" in="shadowInnerInner1"></feColorMatrix>
        </filter>
        <linearGradient x1="51.7606421%" y1="0%" x2="51.7606421%" y2="100%" id="linearGradient-14">
            <stop stop-color="#6B6C77" offset="0%"></stop>
            <stop stop-color="#2B2F42" offset="83.5058272%"></stop>
            <stop stop-color="#5F627C" offset="100%"></stop>
        </linearGradient>
        <linearGradient x1="50%" y1="0%" x2="50%" y2="100%" id="linearGradient-15">
            <stop stop-color="#FFFFFF" stop-opacity="0.15" offset="0%"></stop>
            <stop stop-color="#000000" stop-opacity="0.328238225" offset="100%"></stop>
        </linearGradient>
        <circle id="path-16" cx="8.66262612" cy="8.66262612" r="8.66262612"></circle>
        <filter x="-11.5%" y="-5.8%" width="123.1%" height="123.1%" filterUnits="objectBoundingBox" id="filter-17">
            <feOffset dx="0" dy="1" in="SourceAlpha" result="shadowOffsetOuter1"></feOffset>
            <feGaussianBlur stdDeviation="0.5" in="shadowOffsetOuter1" result="shadowBlurOuter1"></feGaussianBlur>
            <feComposite in="shadowBlurOuter1" in2="SourceAlpha" operator="out" result="shadowBlurOuter1"></feComposite>
            <feColorMatrix values="0 0 0 0 0   0 0 0 0 0   0 0 0 0 0  0 0 0 0.271689248 0" type="matrix" in="shadowBlurOuter1"></feColorMatrix>
        </filter>
        <linearGradient x1="50%" y1="0%" x2="50%" y2="100%" id="linearGradient-18">
            <stop stop-color="#393741" offset="0%"></stop>
            <stop stop-color="#1F1C25" offset="100%"></stop>
        </linearGradient>
        <ellipse id="path-19" cx="7.58422277" cy="7.51622983" rx="7.54834641" ry="7.51240191"></ellipse>
        <filter x="-16.6%" y="-10.0%" width="133.1%" height="133.3%" filterUnits="objectBoundingBox" id="filter-21">
            <feMorphology radius="0.5" operator="dilate" in="SourceAlpha" result="shadowSpreadOuter1"></feMorphology>
            <feOffset dx="0" dy="1" in="shadowSpreadOuter1" result="shadowOffsetOuter1"></feOffset>
            <feGaussianBlur stdDeviation="0.5" in="shadowOffsetOuter1" result="shadowBlurOuter1"></feGaussianBlur>
            <feComposite in="shadowBlurOuter1" in2="SourceAlpha" operator="out" result="shadowBlurOuter1"></feComposite>
            <feColorMatrix values="0 0 0 0 0   0 0 0 0 0   0 0 0 0 0  0 0 0 0.3 0" type="matrix" in="shadowBlurOuter1"></feColorMatrix>
        </filter>
        <linearGradient x1="50%" y1="0%" x2="50%" y2="100%" id="linearGradient-22">
            <stop stop-color="#393741" offset="0%"></stop>
            <stop stop-color="#1F1C25" offset="100%"></stop>
        </linearGradient>
        <linearGradient x1="50%" y1="0%" x2="50%" y2="100%" id="linearGradient-23">
            <stop stop-color="#E5E5E5" stop-opacity="0.15" offset="0%"></stop>
            <stop stop-color="#565656" stop-opacity="0.328238225" offset="100%"></stop>
        </linearGradient>
        <ellipse id="path-24" cx="2.87556054" cy="2.83961603" rx="2.87556054" ry="2.83961603"></ellipse>
        <filter x="-26.1%" y="-26.4%" width="152.2%" height="152.8%" filterUnits="objectBoundingBox" id="filter-26">
            <feOffset dx="0" dy="0" in="SourceAlpha" result="shadowOffsetOuter1"></feOffset>
            <feGaussianBlur stdDeviation="0.5" in="shadowOffsetOuter1" result="shadowBlurOuter1"></feGaussianBlur>
            <feComposite in="shadowBlurOuter1" in2="SourceAlpha" operator="out" result="shadowBlurOuter1"></feComposite>
            <feColorMatrix values="0 0 0 0 0   0 0 0 0 0   0 0 0 0 0  0 0 0 0.3 0" type="matrix" in="shadowBlurOuter1"></feColorMatrix>
        </filter>
        <linearGradient x1="50%" y1="0%" x2="50%" y2="100%" id="linearGradient-27">
            <stop stop-color="#FBFBFB" offset="0%"></stop>
            <stop stop-color="#B7B7B7" offset="100%"></stop>
        </linearGradient>
        <path d="M8.69857063,6.9732343 C9.65144757,6.9732343 10.423907,7.74569369 10.423907,8.69857063 C10.423907,9.65144757 9.65144757,10.423907 8.69857063,10.423907 C7.74569369,10.423907 6.9732343,9.65144757 6.9732343,8.69857063 C6.9732343,7.74569369 7.74569369,6.9732343 8.69857063,6.9732343 Z M8.69857063,8.12345852 C8.38094498,8.12345852 8.12345852,8.38094498 8.12345852,8.69857063 C8.12345852,9.01619627 8.38094498,9.27368274 8.69857063,9.27368274 C9.01619627,9.27368274 9.27368274,9.01619627 9.27368274,8.69857063 C9.27368274,8.38094498 9.01619627,8.12345852 8.69857063,8.12345852 Z" id="path-28"></path>
        <filter x="-43.5%" y="-43.5%" width="186.9%" height="186.9%" filterUnits="objectBoundingBox" id="filter-29">
            <feOffset dx="0" dy="0" in="SourceAlpha" result="shadowOffsetOuter1"></feOffset>
            <feGaussianBlur stdDeviation="0.5" in="shadowOffsetOuter1" result="shadowBlurOuter1"></feGaussianBlur>
            <feColorMatrix values="0 0 0 0 0   0 0 0 0 0   0 0 0 0 0  0 0 0 0.3 0" type="matrix" in="shadowBlurOuter1"></feColorMatrix>
        </filter>
        <filter x="-43.5%" y="-43.5%" width="186.9%" height="186.9%" filterUnits="objectBoundingBox" id="filter-30">
            <feGaussianBlur stdDeviation="0.5" in="SourceAlpha" result="shadowBlurInner1"></feGaussianBlur>
            <feOffset dx="0" dy="0" in="shadowBlurInner1" result="shadowOffsetInner1"></feOffset>
            <feComposite in="shadowOffsetInner1" in2="SourceAlpha" operator="arithmetic" k2="-1" k3="1" result="shadowInnerInner1"></feComposite>
            <feColorMatrix values="0 0 0 0 1   0 0 0 0 1   0 0 0 0 1  0 0 0 0.5 0" type="matrix" in="shadowInnerInner1"></feColorMatrix>
        </filter>
        <path d="M2.72880147,1.47982063 C3.08171885,1.47982063 3.36781492,1.7659167 3.36781492,2.11883408 C3.36781492,2.47175147 3.08171885,2.75784753 2.72880147,2.75784753 C2.37588408,2.75784753 2.08978801,2.47175147 2.08978801,2.11883408 C2.08978801,1.7659167 2.37588408,1.47982063 2.72880147,1.47982063 Z M21.4956176,1.47982063 C21.848535,1.47982063 22.1346311,1.7659167 22.1346311,2.11883408 C22.1346311,2.47175147 21.848535,2.75784753 21.4956176,2.75784753 C21.1427002,2.75784753 20.8566042,2.47175147 20.8566042,2.11883408 C20.8566042,1.7659167 21.1427002,1.47982063 21.4956176,1.47982063 Z" id="path-31"></path>
        <filter x="-7.5%" y="-117.4%" width="115.0%" height="334.7%" filterUnits="objectBoundingBox" id="filter-32">
            <feOffset dx="0" dy="0" in="SourceAlpha" result="shadowOffsetOuter1"></feOffset>
            <feGaussianBlur stdDeviation="0.5" in="shadowOffsetOuter1" result="shadowBlurOuter1"></feGaussianBlur>
            <feColorMatrix values="0 0 0 0 1   0 0 0 0 1   0 0 0 0 1  0 0 0 0.5 0" type="matrix" in="shadowBlurOuter1"></feColorMatrix>
        </filter>
        <filter x="-7.5%" y="-117.4%" width="115.0%" height="334.7%" filterUnits="objectBoundingBox" id="filter-33">
            <feGaussianBlur stdDeviation="0.5" in="SourceAlpha" result="shadowBlurInner1"></feGaussianBlur>
            <feOffset dx="0" dy="0" in="shadowBlurInner1" result="shadowOffsetInner1"></feOffset>
            <feComposite in="shadowOffsetInner1" in2="SourceAlpha" operator="arithmetic" k2="-1" k3="1" result="shadowInnerInner1"></feComposite>
            <feColorMatrix values="0 0 0 0 0   0 0 0 0 0   0 0 0 0 0  0 0 0 0.2 0" type="matrix" in="shadowInnerInner1"></feColorMatrix>
        </filter>
        <circle id="path-34" cx="21.4956176" cy="26.7376682" r="1"></circle>
        <filter x="-117.4%" y="-117.4%" width="334.7%" height="334.7%" filterUnits="objectBoundingBox" id="filter-35">
            <feOffset dx="0" dy="0" in="SourceAlpha" result="shadowOffsetOuter1"></feOffset>
            <feGaussianBlur stdDeviation="0.5" in="shadowOffsetOuter1" result="shadowBlurOuter1"></feGaussianBlur>
            <feColorMatrix values="0 0 0 0 1   0 0 0 0 1   0 0 0 0 1  0 0 0 0.5 0" type="matrix" in="shadowBlurOuter1"></feColorMatrix>
        </filter>
        <filter x="-117.4%" y="-117.4%" width="334.7%" height="334.7%" filterUnits="objectBoundingBox" id="filter-36">
            <feGaussianBlur stdDeviation="0.5" in="SourceAlpha" result="shadowBlurInner1"></feGaussianBlur>
            <feOffset dx="0" dy="0" in="shadowBlurInner1" result="shadowOffsetInner1"></feOffset>
            <feComposite in="shadowOffsetInner1" in2="SourceAlpha" operator="arithmetic" k2="-1" k3="1" result="shadowInnerInner1"></feComposite>
            <feColorMatrix values="0 0 0 0 0   0 0 0 0 0   0 0 0 0 0  0 0 0 0.2 0" type="matrix" in="shadowInnerInner1"></feColorMatrix>
        </filter>
        <rect id="path-37" x="14.2646759" y="21.7264574" width="1.00896861" height="1.00896861" rx="0.134529148"></rect>
        <filter x="-148.7%" y="-148.7%" width="397.3%" height="397.3%" filterUnits="objectBoundingBox" id="filter-38">
            <feOffset dx="0" dy="0" in="SourceAlpha" result="shadowOffsetOuter1"></feOffset>
            <feGaussianBlur stdDeviation="0.5" in="shadowOffsetOuter1" result="shadowBlurOuter1"></feGaussianBlur>
            <feColorMatrix values="0 0 0 0 1   0 0 0 0 1   0 0 0 0 1  0 0 0 0.5 0" type="matrix" in="shadowBlurOuter1"></feColorMatrix>
        </filter>
        <filter x="-148.7%" y="-148.7%" width="397.3%" height="397.3%" filterUnits="objectBoundingBox" id="filter-39">
            <feGaussianBlur stdDeviation="0.5" in="SourceAlpha" result="shadowBlurInner1"></feGaussianBlur>
            <feOffset dx="0" dy="0" in="shadowBlurInner1" result="shadowOffsetInner1"></feOffset>
            <feComposite in="shadowOffsetInner1" in2="SourceAlpha" operator="arithmetic" k2="-1" k3="1" result="shadowInnerInner1"></feComposite>
            <feColorMatrix values="0 0 0 0 0   0 0 0 0 0   0 0 0 0 0  0 0 0 0.2 0" type="matrix" in="shadowInnerInner1"></feColorMatrix>
        </filter>
        <rect id="path-40" x="6.73104362" y="21.9282511" width="6.39013453" height="1" rx="0.403587444"></rect>
        <filter x="-23.5%" y="-185.8%" width="146.9%" height="471.7%" filterUnits="objectBoundingBox" id="filter-41">
            <feOffset dx="0" dy="0" in="SourceAlpha" result="shadowOffsetOuter1"></feOffset>
            <feGaussianBlur stdDeviation="0.5" in="shadowOffsetOuter1" result="shadowBlurOuter1"></feGaussianBlur>
            <feColorMatrix values="0 0 0 0 1   0 0 0 0 1   0 0 0 0 1  0 0 0 0.5 0" type="matrix" in="shadowBlurOuter1"></feColorMatrix>
        </filter>
        <filter x="-23.5%" y="-185.8%" width="146.9%" height="471.7%" filterUnits="objectBoundingBox" id="filter-42">
            <feGaussianBlur stdDeviation="0.5" in="SourceAlpha" result="shadowBlurInner1"></feGaussianBlur>
            <feOffset dx="0" dy="0" in="shadowBlurInner1" result="shadowOffsetInner1"></feOffset>
            <feComposite in="shadowOffsetInner1" in2="SourceAlpha" operator="arithmetic" k2="-1" k3="1" result="shadowInnerInner1"></feComposite>
            <feColorMatrix values="0 0 0 0 0   0 0 0 0 0   0 0 0 0 0  0 0 0 0.2 0" type="matrix" in="shadowInnerInner1"></feColorMatrix>
        </filter>
        <path d="M1.01355483,19.3727421 L1.01355483,26.9058296 C1.01355483,28.0203055 1.9170161,28.9237668 3.03149205,28.9237668 L12.5830616,28.9237668 C12.8802551,28.9237668 13.1211781,28.6828438 13.1211781,28.3856502 L13.1211781,25.0304218 C13.1211654,24.4032016 12.6421593,23.8798258 12.0173922,23.8244074 C8.45737048,23.5086249 5.50163783,21.8451827 3.15019424,18.8340807 C2.78323396,18.8350098 2.25054478,18.8351914 1.55212669,18.8346256 C1.25492253,18.8343655 1.01379576,19.075102 1.01355501,19.3723061 C1.01355489,19.3724514 1.01355483,19.3725967 1.01355483,19.3727421 Z" id="path-43"></path>
        <filter x="-4.1%" y="-5.0%" width="108.3%" height="109.9%" filterUnits="objectBoundingBox" id="filter-44">
            <feGaussianBlur stdDeviation="0.5" in="SourceAlpha" result="shadowBlurInner1"></feGaussianBlur>
            <feOffset dx="0" dy="0" in="shadowBlurInner1" result="shadowOffsetInner1"></feOffset>
            <feComposite in="shadowOffsetInner1" in2="SourceAlpha" operator="arithmetic" k2="-1" k3="1" result="shadowInnerInner1"></feComposite>
            <feColorMatrix values="0 0 0 0 0   0 0 0 0 0   0 0 0 0 0  0 0 0 0.2 0" type="matrix" in="shadowInnerInner1"></feColorMatrix>
        </filter>
        <linearGradient x1="50%" y1="0%" x2="50%" y2="100%" id="linearGradient-45">
            <stop stop-color="#EAF0F4" offset="0%"></stop>
            <stop stop-color="#C7D1D8" offset="100%"></stop>
        </linearGradient>
        <path d="M2.82651964,19.5073046 C5.25781852,22.4997647 8.31267286,24.171077 11.9579613,24.4944225 C12.2356385,24.5190532 12.4485324,24.7516671 12.4485324,25.0304346 L12.4485324,28.2511211 L3.03149205,28.2511211 C2.28850808,28.2511211 1.68620057,27.6488136 1.68620057,26.9058296 L1.68620057,19.5073046 L2.82651964,19.5073046 Z M11.5068284,26.7713004 C11.3582316,26.7713004 11.2377701,26.891762 11.2377701,27.0403587 C11.2377701,27.1889555 11.3582316,27.309417 11.5068284,27.309417 C11.6554252,27.309417 11.7758867,27.1889555 11.7758867,27.0403587 C11.7758867,26.891762 11.6554252,26.7713004 11.5068284,26.7713004 Z M2.49337546,20.1121076 C2.34477866,20.1121076 2.22431716,20.2325691 2.22431716,20.3811659 C2.22431716,20.5297627 2.34477866,20.6502242 2.49337546,20.6502242 C2.64197225,20.6502242 2.76243375,20.5297627 2.76243375,20.3811659 C2.76243375,20.2325691 2.64197225,20.1121076 2.49337546,20.1121076 Z" id="path-46"></path>
        <filter x="-13.9%" y="-17.2%" width="127.9%" height="134.3%" filterUnits="objectBoundingBox" id="filter-47">
            <feOffset dx="0" dy="0" in="SourceAlpha" result="shadowOffsetOuter1"></feOffset>
            <feGaussianBlur stdDeviation="0.5" in="shadowOffsetOuter1" result="shadowBlurOuter1"></feGaussianBlur>
            <feColorMatrix values="0 0 0 0 0   0 0 0 0 0   0 0 0 0 0  0 0 0 0.275868663 0" type="matrix" in="shadowBlurOuter1"></feColorMatrix>
        </filter>
        <linearGradient x1="97.2470411%" y1="4.49136807%" x2="6.27062595%" y2="91.5453078%" id="linearGradient-48">
            <stop stop-color="#F7F9FB" offset="0%"></stop>
            <stop stop-color="#ECF1F6" offset="100%"></stop>
        </linearGradient>
        <path d="M3.40322958,9.10072956 L9.90861343,1.01377056 C10.0016056,0.905535753 10.0577662,0.766648837 10.0577662,0.615120098 C10.0577662,0.275984346 9.77602007,4.26325641e-14 9.42886117,4.26325641e-14 C9.27416894,4.26325641e-14 9.13238243,0.0541462699 9.02277192,0.146102568 L0.766094969,6.51844891 C0.301075324,6.85487159 3.12638804e-13,7.39517979 3.12638804e-13,8.0039501 C3.12638804e-13,9.02499405 0.844354519,9.8511576 1.88577223,9.8511576 C2.50825387,9.8511576 3.05978331,9.55623938 3.40322958,9.10072956 Z" id="path-49"></path>
        <filter x="-14.9%" y="-15.2%" width="129.8%" height="130.5%" filterUnits="objectBoundingBox" id="filter-50">
            <feOffset dx="0" dy="0" in="SourceAlpha" result="shadowOffsetOuter1"></feOffset>
            <feGaussianBlur stdDeviation="0.5" in="shadowOffsetOuter1" result="shadowBlurOuter1"></feGaussianBlur>
            <feColorMatrix values="0 0 0 0 0   0 0 0 0 0   0 0 0 0 0  0 0 0 0.300344187 0" type="matrix" in="shadowBlurOuter1"></feColorMatrix>
        </filter>
        <filter x="-9.9%" y="-10.2%" width="119.9%" height="120.3%" filterUnits="objectBoundingBox" id="filter-51">
            <feOffset dx="0" dy="0" in="SourceAlpha" result="shadowOffsetInner1"></feOffset>
            <feComposite in="shadowOffsetInner1" in2="SourceAlpha" operator="arithmetic" k2="-1" k3="1" result="shadowInnerInner1"></feComposite>
            <feColorMatrix values="0 0 0 0 1   0 0 0 0 1   0 0 0 0 1  0 0 0 0.942198427 0" type="matrix" in="shadowInnerInner1"></feColorMatrix>
        </filter>
        <linearGradient x1="50%" y1="0%" x2="50%" y2="97.6792756%" id="linearGradient-52">
            <stop stop-color="#959B9F" offset="0%"></stop>
            <stop stop-color="#727A81" offset="100%"></stop>
        </linearGradient>
        <linearGradient x1="50%" y1="1.83254943%" x2="50%" y2="100%" id="linearGradient-53">
            <stop stop-color="#A5ABB2" offset="0%"></stop>
            <stop stop-color="#EAF0FF" offset="100%"></stop>
        </linearGradient>
        <path d="M20.015797,24.8206278 C20.1829684,24.8206278 20.3184876,24.956147 20.3184876,25.1233184 L20.3184876,28.3520179 C20.3184876,28.5191893 20.1829684,28.6547085 20.015797,28.6547085 L19.9485324,28.6547085 C19.781361,28.6547085 19.6458418,28.5191893 19.6458418,28.3520179 L19.6458418,25.1233184 C19.6458418,24.956147 19.781361,24.8206278 19.9485324,24.8206278 L20.015797,24.8206278 Z M18.6705055,24.8206278 C18.8376769,24.8206278 18.9731961,24.956147 18.9731961,25.1233184 L18.9731961,28.3520179 C18.9731961,28.5191893 18.8376769,28.6547085 18.6705055,28.6547085 L18.6032409,28.6547085 C18.4360695,28.6547085 18.3005503,28.5191893 18.3005503,28.3520179 L18.3005503,25.1233184 C18.3005503,24.956147 18.4360695,24.8206278 18.6032409,24.8206278 L18.6705055,24.8206278 Z M17.325214,24.8206278 C17.4923854,24.8206278 17.6279046,24.956147 17.6279046,25.1233184 L17.6279046,28.3520179 C17.6279046,28.5191893 17.4923854,28.6547085 17.325214,28.6547085 L17.2579494,28.6547085 C17.0907781,28.6547085 16.9552589,28.5191893 16.9552589,28.3520179 L16.9552589,25.1233184 C16.9552589,24.956147 17.0907781,24.8206278 17.2579494,24.8206278 L17.325214,24.8206278 Z M15.9799225,24.8206278 C16.1470939,24.8206278 16.2826131,24.956147 16.2826131,25.1233184 L16.2826131,28.3520179 C16.2826131,28.5191893 16.1470939,28.6547085 15.9799225,28.6547085 L15.912658,28.6547085 C15.7454866,28.6547085 15.6099674,28.5191893 15.6099674,28.3520179 L15.6099674,25.1233184 C15.6099674,24.956147 15.7454866,24.8206278 15.912658,24.8206278 L15.9799225,24.8206278 Z M14.6346311,24.8206278 C14.8018025,24.8206278 14.9373216,24.956147 14.9373216,25.1233184 L14.9373216,28.3520179 C14.9373216,28.5191893 14.8018025,28.6547085 14.6346311,28.6547085 L14.5673665,28.6547085 C14.4001951,28.6547085 14.2646759,28.5191893 14.2646759,28.3520179 L14.2646759,25.1233184 C14.2646759,24.956147 14.4001951,24.8206278 14.5673665,24.8206278 L14.6346311,24.8206278 Z" id="path-54"></path>
        <filter x="-24.8%" y="-39.1%" width="149.6%" height="178.2%" filterUnits="objectBoundingBox" id="filter-55">
            <feOffset dx="0" dy="0" in="SourceAlpha" result="shadowOffsetOuter1"></feOffset>
            <feGaussianBlur stdDeviation="0.5" in="shadowOffsetOuter1" result="shadowBlurOuter1"></feGaussianBlur>
            <feColorMatrix values="0 0 0 0 1   0 0 0 0 1   0 0 0 0 1  0 0 0 0.5 0" type="matrix" in="shadowBlurOuter1"></feColorMatrix>
        </filter>
        <filter x="-24.8%" y="-39.1%" width="149.6%" height="178.2%" filterUnits="objectBoundingBox" id="filter-56">
            <feGaussianBlur stdDeviation="0.5" in="SourceAlpha" result="shadowBlurInner1"></feGaussianBlur>
            <feOffset dx="0" dy="0" in="shadowBlurInner1" result="shadowOffsetInner1"></feOffset>
            <feComposite in="shadowOffsetInner1" in2="SourceAlpha" operator="arithmetic" k2="-1" k3="1" result="shadowInnerInner1"></feComposite>
            <feColorMatrix values="0 0 0 0 0   0 0 0 0 0   0 0 0 0 0  0 0 0 0.2 0" type="matrix" in="shadowInnerInner1"></feColorMatrix>
        </filter>
    </defs>
    <g id="ISO-disk-administrator-32px" stroke="none" stroke-width="1" fill="none" fill-rule="evenodd">
        <g id="编组-3备份-3" filter="url(#filter-1)" transform="translate(4.000000, 1.000000)">
            <g id="矩形">
                <use fill="#ADADAD" fill-rule="evenodd" xlink:href="#path-2"></use>
                <use fill="black" fill-opacity="1" filter="url(#filter-3)" xlink:href="#path-2"></use>
            </g>
            <g id="矩形备份">
                <use fill="url(#linearGradient-4)" fill-rule="evenodd" xlink:href="#path-5"></use>
                <use fill="black" fill-opacity="1" filter="url(#filter-6)" xlink:href="#path-5"></use>
            </g>
            <g id="形状结合">
                <use fill="black" fill-opacity="1" filter="url(#filter-9)" xlink:href="#path-8"></use>
                <use fill="url(#linearGradient-7)" fill-rule="evenodd" xlink:href="#path-8"></use>
                <use fill="black" fill-opacity="1" filter="url(#filter-10)" xlink:href="#path-8"></use>
            </g>
            <g id="形状结合备份" transform="translate(23.278129, 14.999184) scale(-1, 1) translate(-23.278129, -14.999184) ">
                <use fill="black" fill-opacity="1" filter="url(#filter-12)" xlink:href="#path-11"></use>
                <use fill="url(#linearGradient-7)" fill-rule="evenodd" xlink:href="#path-11"></use>
                <use fill="black" fill-opacity="1" filter="url(#filter-13)" xlink:href="#path-11"></use>
            </g>
            <g id="编组-26" transform="translate(3.435079, 3.094170)">
                <g id="椭圆形">
                    <use fill="black" fill-opacity="1" filter="url(#filter-17)" xlink:href="#path-16"></use>
                    <circle stroke="url(#linearGradient-15)" stroke-width="0.5" stroke-linejoin="square" fill="url(#linearGradient-14)" fill-rule="evenodd" cx="8.66262612" cy="8.66262612" r="8.41262612"></circle>
                </g>
                <g id="编组-2" transform="translate(1.078403, 1.146396)">
                    <mask id="mask-20" fill="white">
                        <use xlink:href="#path-19"></use>
                    </mask>
                    <g id="椭圆形备份-2">
                        <use fill="black" fill-opacity="1" filter="url(#filter-21)" xlink:href="#path-19"></use>
                        <ellipse stroke="#000000" stroke-width="0.5" fill="url(#linearGradient-18)" fill-rule="evenodd" cx="7.58422277" cy="7.51622983" rx="7.79834641" ry="7.76240191"></ellipse>
                    </g>
                    <polygon id="Path-4" fill-opacity="0.304632867" fill="#4F4F50" fill-rule="nonzero" mask="url(#mask-20)" transform="translate(7.631933, 8.178275) rotate(-105.000000) translate(-7.631933, -8.178275) " points="-0.647001121 12.8025511 15.9108677 3.42637465 12.5862666 -0.0575112108 2.78115672 16.4140621"></polygon>
                    <polygon id="Path-4备份" fill-opacity="0.304632867" fill="#4F4F50" fill-rule="nonzero" opacity="0.413829985" mask="url(#mask-20)" transform="translate(7.631933, 8.178275) rotate(-345.000000) translate(-7.631933, -8.178275) " points="-0.647001121 12.8025511 15.9108677 3.42637465 12.5862666 -0.0575112108 2.78115672 16.4140621"></polygon>
                </g>
                <g id="编组" transform="translate(5.787066, 5.823010)">
                    <mask id="mask-25" fill="white">
                        <use xlink:href="#path-24"></use>
                    </mask>
                    <g id="椭圆形备份-3">
                        <use fill="black" fill-opacity="1" filter="url(#filter-26)" xlink:href="#path-24"></use>
                        <ellipse stroke="#000000" stroke-width="1.22211323" stroke-linejoin="square" fill="url(#linearGradient-22)" fill-rule="evenodd" cx="2.87556054" cy="2.83961603" rx="2.26450392" ry="2.22855942"></ellipse>
                        <ellipse stroke="url(#linearGradient-23)" stroke-width="0.5" cx="2.87556054" cy="2.83961603" rx="3.12556054" ry="3.08961603"></ellipse>
                    </g>
                    <path d="M2.14139052,3.99561181 L1.24393157,5.29990136 C0.767853762,5.0258766 0.373846287,4.62529475 0.10783352,4.14410138 L1.74572254,3.34043419 C1.79673805,3.60364595 1.94039213,3.83380323 2.14139052,3.99561181 Z M4.64377139,0.359445067 C5.01416241,0.661888863 5.31113567,1.05084044 5.5038658,1.49545568 L5.5038658,1.49545568 L3.67716797,2.39221737 C3.59820284,2.3023006 3.50498838,2.22520601 3.40105241,2.16446138 Z" id="形状结合" fill-opacity="0.401305726" fill="#4F4F50" fill-rule="nonzero" mask="url(#mask-25)" transform="translate(2.805850, 2.829673) rotate(93.000000) translate(-2.805850, -2.829673) "></path>
                </g>
                <g id="形状结合">
                    <use fill="black" fill-opacity="1" filter="url(#filter-29)" xlink:href="#path-28"></use>
                    <use fill="url(#linearGradient-27)" fill-rule="evenodd" xlink:href="#path-28"></use>
                    <use fill="black" fill-opacity="1" filter="url(#filter-30)" xlink:href="#path-28"></use>
                </g>
            </g>
            <g id="形状结合">
                <use fill="black" fill-opacity="1" filter="url(#filter-32)" xlink:href="#path-31"></use>
                <use fill="#A4AFB6" fill-rule="evenodd" xlink:href="#path-31"></use>
                <use fill="black" fill-opacity="1" filter="url(#filter-33)" xlink:href="#path-31"></use>
            </g>
            <g id="椭圆形备份-7">
                <use fill="black" fill-opacity="1" filter="url(#filter-35)" xlink:href="#path-34"></use>
                <use fill="#8C969D" fill-rule="evenodd" xlink:href="#path-34"></use>
                <use fill="black" fill-opacity="1" filter="url(#filter-36)" xlink:href="#path-34"></use>
            </g>
            <g id="矩形备份-2">
                <use fill="black" fill-opacity="1" filter="url(#filter-38)" xlink:href="#path-37"></use>
                <use fill="#A4AFB6" fill-rule="evenodd" xlink:href="#path-37"></use>
                <use fill="black" fill-opacity="1" filter="url(#filter-39)" xlink:href="#path-37"></use>
            </g>
            <g id="矩形">
                <use fill="black" fill-opacity="1" filter="url(#filter-41)" xlink:href="#path-40"></use>
                <use fill="#A4AFB6" fill-rule="evenodd" xlink:href="#path-40"></use>
                <use fill="black" fill-opacity="1" filter="url(#filter-42)" xlink:href="#path-40"></use>
            </g>
            <g id="路径-5">
                <use fill="#6C7982" fill-rule="evenodd" xlink:href="#path-43"></use>
                <use fill="black" fill-opacity="1" filter="url(#filter-44)" xlink:href="#path-43"></use>
            </g>
            <g id="形状结合" fill-rule="nonzero">
                <use fill="black" fill-opacity="1" filter="url(#filter-47)" xlink:href="#path-46"></use>
                <use fill="url(#linearGradient-45)" xlink:href="#path-46"></use>
            </g>
            <g id="编组-3" transform="translate(4.174990, 15.807175)">
                <g id="Shape" fill-rule="nonzero">
                    <use fill="black" fill-opacity="1" filter="url(#filter-50)" xlink:href="#path-49"></use>
                    <use fill="url(#linearGradient-48)" xlink:href="#path-49"></use>
                    <use fill="black" fill-opacity="1" filter="url(#filter-51)" xlink:href="#path-49"></use>
                </g>
                <ellipse id="椭圆形" stroke="#696868" stroke-width="0.5" fill="url(#linearGradient-52)" cx="1.69898717" cy="8.19531345" rx="1" ry="1"></ellipse>
            </g>
            <g id="Group-7" transform="translate(2.224317, 25.695067)" fill-rule="nonzero">
                <path d="M2.11109429,1.05594292 C2.11109429,1.63882896 1.6382147,2.11109429 1.05554714,2.11109429 C0.472879582,2.11109429 0,1.63882896 0,1.05594292 C0,0.473056889 0.472879582,0 1.05554714,0 C1.6382147,0 2.11109429,0.473056889 2.11109429,1.05594292 Z" id="Shape" fill="#6C6969"></path>
                <path d="M1.58332072,1.05574503 C1.58332072,1.34718805 1.34688092,1.58332072 1.05554714,1.58332072 C0.764213362,1.58332072 0.527773572,1.34718805 0.527773572,1.05574503 C0.527773572,0.764302015 0.764213362,0.527773572 1.05554714,0.527773572 C1.34688092,0.527773572 1.58332072,0.764302015 1.58332072,1.05574503 Z" id="Shape" fill="url(#linearGradient-53)" transform="translate(1.055547, 1.055547) scale(-1, 1) rotate(-180.000000) translate(-1.055547, -1.055547) "></path>
            </g>
            <g id="形状结合">
                <use fill="black" fill-opacity="1" filter="url(#filter-55)" xlink:href="#path-54"></use>
                <use fill="#6C7982" fill-rule="evenodd" xlink:href="#path-54"></use>
                <use fill="black" fill-opacity="1" filter="url(#filter-56)" xlink:href="#path-54"></use>
            </g>
        </g>
    </g>
</svg>