<?xml version="1.0" encoding="UTF-8"?>
<svg width="20px" height="20px" viewBox="0 0 20 20" version="1.1" xmlns="http://www.w3.org/2000/svg" xmlns:xlink="http://www.w3.org/1999/xlink">
    <!-- Generator: Sketch 58 (84663) - https://sketch.com -->
    <title>音频适配器</title>
    <desc>Created with Sketch.</desc>
    <g id="音频适配器" stroke="none" stroke-width="1" fill="none" fill-rule="evenodd">
        <path d="M6.93454545,6.55967601 L10.6090909,4.14535307 C11.0349091,3.86567561 11.5956364,4.00174014 11.8618182,4.44922409 C11.9521818,4.60115959 12,4.77670801 12,4.95574028 L12,15.0442579 C12,15.572258 11.5929091,16 11.0909091,16 C10.9205454,16 10.7536363,15.9496774 10.6090909,15.8548387 L6.93454545,13.4403222 L5.27272728,13.4403222 C4.56981819,13.4403222 4,12.8412899 4,12.102322 L4,7.89767621 C4,7.15870837 4.56981818,6.55967601 5.27272728,6.55967601 L6.93454545,6.55967601 Z M15.8475792,15.8368442 C15.6481186,16.0596884 15.3336127,16.0534978 15.1406052,15.8229285 C15.0484575,15.7128422 14.9978155,15.5638087 15.0000723,15.4093567 C15.0023292,15.2549047 15.0572953,15.1080055 15.1526048,15.0017073 C17.6158475,12.2369947 17.6158475,7.7628093 15.1526048,4.99809668 C15.0573468,4.89180516 15.0024138,4.74494776 15.0001572,4.59054427 C14.9979005,4.43614079 15.0485096,4.28715005 15.1406052,4.1770715 C15.3336127,3.94650216 15.6481186,3.94031161 15.8475792,4.16315583 C18.7174736,7.38434198 18.7174736,12.615658 15.8475792,15.8368442 L15.8475792,15.8368442 Z M13.7789275,13.8269162 C13.593027,14.0668394 13.3026682,14.0560261 13.126335,13.8026129 C13.0422757,13.6816209 12.9968177,13.5189031 13.0001734,13.3510148 C13.0035291,13.1831265 13.0554171,13.0241451 13.1441805,12.9097866 C14.3878292,11.298734 14.3878292,8.70147923 13.1441805,7.09021342 C13.0554171,6.9758549 13.0035291,6.81687354 13.0001734,6.64898522 C12.9968177,6.48109691 13.0422757,6.31837911 13.126335,6.19738711 C13.3026682,5.94397389 13.593027,5.93316059 13.7789275,6.17308382 C15.4070242,8.28256717 15.4070242,11.717646 13.7789275,13.8271294 L13.7789275,13.8269162 Z" id="形状" fill="#C0C6D4" fill-rule="nonzero"></path>
    </g>
</svg>