<?xml version="1.0" encoding="UTF-8"?>
<svg width="20px" height="20px" viewBox="0 0 20 20" version="1.1" xmlns="http://www.w3.org/2000/svg" xmlns:xlink="http://www.w3.org/1999/xlink">
    <title>摄像头</title>
    <g id="摄像头" stroke="none" stroke-width="1" fill="none" fill-rule="evenodd">
        <g id="编组" transform="translate(5.000000, 4.000000)" fill="#C5CFE0">
            <path d="M5,0 C7.76142375,-5.07265313e-16 10,2.23857625 10,5 C10,7.76142375 7.76142375,10 5,10 C2.23857625,10 3.38176876e-16,7.76142375 0,5 C-3.38176876e-16,2.23857625 2.23857625,5.07265313e-16 5,0 Z M4.5,4 C3.11928813,4 2,5.11928813 2,6.5 C2,7.88071187 3.11928813,9 4.5,9 C5.88071187,9 7,7.88071187 7,6.5 C7,5.11928813 5.88071187,4 4.5,4 Z M4.75,1 C4.33578644,1 4,1.33578644 4,1.75 C4,2.16421356 4.33578644,2.5 4.75,2.5 C5.16421356,2.5 5.5,2.16421356 5.5,1.75 C5.5,1.33578644 5.16421356,1 4.75,1 Z" id="形状结合"></path>
            <path d="M9.5,12 C9.77614237,12 10,12.2238576 10,12.5 C10,12.7454599 9.82312484,12.9496084 9.58987563,12.9919443 L9.5,13 L0.5,13 C0.223857625,13 0,12.7761424 0,12.5 C0,12.2545401 0.176875161,12.0503916 0.410124368,12.0080557 L0.5,12 L9.5,12 Z" id="路径-29"></path>
        </g>
        <circle id="椭圆形" fill="#C5CFE0" cx="9.5" cy="10.5" r="1.5"></circle>
        <path d="M11.8745798,14.4903789 L13.0664062,16 L7,16 L8.14836482,14.4981569 C8.72983998,14.693907 9.35253032,14.8 10,14.8 C10.6559939,14.8 11.2865517,14.6910951 11.8745798,14.4903789 Z" id="形状结合" fill="#C5CFE0"></path>
    </g>
</svg>