<?xml version="1.0" encoding="UTF-8"?>
<svg width="20px" height="20px" viewBox="0 0 20 20" version="1.1" xmlns="http://www.w3.org/2000/svg" xmlns:xlink="http://www.w3.org/1999/xlink">
    <title>处理器</title>
    <g id="处理器" stroke="none" stroke-width="1" fill="none" fill-rule="evenodd">
        <g id="编组" transform="translate(2.000000, 2.000000)" fill="#C5CFE0">
            <path d="M12,2 C12.5522847,2 13,2.44771525 13,3 L13,12 C13,12.5522847 12.5522847,13 12,13 L3,13 C2.44771525,13 2,12.5522847 2,12 L2,3 C2,2.44771525 2.44771525,2 3,2 L12,2 Z M9,5 L6,5 C5.44771525,5 5,5.44771525 5,6 L5,6 L5,9 C5,9.55228475 5.44771525,10 6,10 L6,10 L9,10 C9.55228475,10 10,9.55228475 10,9 L10,9 L10,6 C10,5.44771525 9.55228475,5 9,5 L9,5 Z" id="形状结合"></path>
            <rect id="矩形" x="12" y="7" width="3" height="1"></rect>
            <rect id="矩形备份-6" transform="translate(7.500000, 13.500000) rotate(-270.000000) translate(-7.500000, -13.500000) " x="6" y="13" width="3" height="1"></rect>
            <rect id="矩形备份-3" x="0" y="7" width="3" height="1"></rect>
            <rect id="矩形备份-7" transform="translate(7.500000, 1.500000) rotate(-270.000000) translate(-7.500000, -1.500000) " x="6" y="1" width="3" height="1"></rect>
            <rect id="矩形备份" x="12" y="5" width="3" height="1"></rect>
            <rect id="矩形备份-8" transform="translate(9.500000, 13.500000) rotate(-270.000000) translate(-9.500000, -13.500000) " x="8" y="13" width="3" height="1"></rect>
            <rect id="矩形备份-4" x="0" y="5" width="3" height="1"></rect>
            <rect id="矩形备份-9" transform="translate(9.500000, 1.500000) rotate(-270.000000) translate(-9.500000, -1.500000) " x="8" y="1" width="3" height="1"></rect>
            <rect id="矩形备份-2" x="12" y="9" width="3" height="1"></rect>
            <rect id="矩形备份-10" transform="translate(5.500000, 13.500000) rotate(-270.000000) translate(-5.500000, -13.500000) " x="4" y="13" width="3" height="1"></rect>
            <rect id="矩形备份-5" x="0" y="9" width="3" height="1"></rect>
            <rect id="矩形备份-11" transform="translate(5.500000, 1.500000) rotate(-270.000000) translate(-5.500000, -1.500000) " x="4" y="1" width="3" height="1"></rect>
        </g>
    </g>
</svg>