<?xml version="1.0" encoding="UTF-8"?>
<svg width="20px" height="20px" viewBox="0 0 20 20" version="1.1" xmlns="http://www.w3.org/2000/svg" xmlns:xlink="http://www.w3.org/1999/xlink">
    <!-- Generator: Sketch 58 (84663) - https://sketch.com -->
    <title>主板</title>
    <desc>Created with Sketch.</desc>
    <g id="主板" stroke="none" stroke-width="1" fill="none" fill-rule="evenodd">
        <g id="编组-7" transform="translate(3.000000, 3.000000)" fill="#C0C6D4">
            <path d="M14,0 C14.5522847,-1.01453063e-16 15,0.44771525 15,1 L15,13 C15,13.5522847 14.5522847,14 14,14 L1,14 C0.44771525,14 6.76353751e-17,13.5522847 0,13 L0,1 C-6.76353751e-17,0.44771525 0.44771525,1.01453063e-16 1,0 L14,0 Z M12.5514403,11.0235478 L10.5514403,11.0235478 C10.275298,11.0235478 10.0514403,11.2474055 10.0514403,11.5235478 C10.0514403,11.7996902 10.275298,12.0235478 10.5514403,12.0235478 L10.5514403,12.0235478 L12.5514403,12.0235478 C12.8275827,12.0235478 13.0514403,11.7996902 13.0514403,11.5235478 C13.0514403,11.2474055 12.8275827,11.0235478 12.5514403,11.0235478 L12.5514403,11.0235478 Z M7.52126815,11.0031378 L2.52126815,11.0031378 C2.24512578,11.0031378 2.02126815,11.2269954 2.02126815,11.5031378 C2.02126815,11.7792802 2.24512578,12.0031378 2.52126815,12.0031378 L2.52126815,12.0031378 L7.52126815,12.0031378 C7.79741053,12.0031378 8.02126815,11.7792802 8.02126815,11.5031378 C8.02126815,11.2269954 7.79741053,11.0031378 7.52126815,11.0031378 L7.52126815,11.0031378 Z M10.5,2 C10.2238576,2 10,2.22385763 10,2.5 L10,2.5 L10,7.5 C10,7.77614237 10.2238576,8 10.5,8 C10.7761424,8 11,7.77614237 11,7.5 L11,7.5 L11,2.5 C11,2.22385763 10.7761424,2 10.5,2 Z M12.5,2 C12.2238576,2 12,2.22385763 12,2.5 L12,2.5 L12,7.5 C12,7.77614237 12.2238576,8 12.5,8 C12.7761424,8 13,7.77614237 13,7.5 L13,7.5 L13,2.5 C13,2.22385763 12.7761424,2 12.5,2 Z M6.50058757,2.53553841 L3.50058757,2.53553841 C2.94830282,2.53553841 2.50058757,2.98325366 2.50058757,3.53553841 L2.50058757,3.53553841 L2.50058757,6.53553841 C2.50058757,7.08782316 2.94830282,7.53553841 3.50058757,7.53553841 L3.50058757,7.53553841 L6.50058757,7.53553841 C7.05287232,7.53553841 7.50058757,7.08782316 7.50058757,6.53553841 L7.50058757,6.53553841 L7.50058757,3.53553841 C7.50058757,2.98325366 7.05287232,2.53553841 6.50058757,2.53553841 L6.50058757,2.53553841 Z" id="形状结合"></path>
        </g>
    </g>
</svg>