<?xml version="1.0" encoding="UTF-8"?>
<svg width="20px" height="20px" viewBox="0 0 20 20" version="1.1" xmlns="http://www.w3.org/2000/svg" xmlns:xlink="http://www.w3.org/1999/xlink">
    <title>触摸板</title>
    <g id="触摸板" stroke="none" stroke-width="1" fill="none" fill-rule="evenodd">
        <path d="M14.5714286,4 C15.2026111,4 15.7142857,4.51167457 15.7142857,5.14285714 L15.714,9.873 L14.0124673,9.76299435 L14.0345815,7.61693182 C14.0381022,7.26162451 13.8937098,6.9267225 13.627845,6.67455693 C13.3631397,6.42419692 13.0105434,6.28571429 12.6309548,6.28571429 C11.8570301,6.28571429 11.2275119,6.87717621 11.2275119,7.60382833 L11.2275119,7.60382833 L11.2275119,11.1426961 C10.7260551,10.7414669 9.92573196,10.7268765 9.40685527,11.1281322 L9.40685527,11.1281322 L9.36261282,11.1678409 C8.82932801,11.6029507 8.70085665,12.3255801 9.05947641,12.9002744 L9.05947641,12.9002744 L9.924,14.285 L3.14285714,14.2857143 C2.51167457,14.2857143 2,13.7740397 2,13.1428571 L2,5.14285714 C2,4.51167457 2.51167457,4 3.14285714,4 L14.5714286,4 Z M3.48571429,10.8571429 C3.32002886,10.8571429 3.18179293,10.9746681 3.14982278,11.1309023 L3.14285714,11.2 L3.14285714,12.8 C3.14285714,12.9656854 3.2603824,13.1039214 3.41661661,13.1358915 L3.48571429,13.1428571 L5.08571429,13.1428571 C5.27506906,13.1428571 5.42857143,12.9893548 5.42857143,12.8 C5.42857143,12.6343146 5.31104618,12.4960786 5.15481196,12.4641085 L5.08571429,12.4571429 L3.82785714,12.4578571 L3.82857143,11.2 C3.82857143,11.0106452 3.67506906,10.8571429 3.48571429,10.8571429 Z M5.08571429,5.37940024 L3.48571429,5.37940024 C3.32002886,5.37940024 3.18179293,5.49692549 3.14982278,5.65315971 L3.14285714,5.72225738 L3.14285714,7.32225738 C3.14285714,7.51161216 3.29635951,7.66511453 3.48571429,7.66511453 C3.65139971,7.66511453 3.78963564,7.54758927 3.82160579,7.39135506 L3.82857143,7.32225738 L3.82785714,6.06440024 L5.08571429,6.06511453 C5.27506906,6.06511453 5.42857143,5.91161216 5.42857143,5.72225738 C5.42857143,5.53290261 5.27506906,5.37940024 5.08571429,5.37940024 Z" id="形状结合" fill="#C5CFE0"></path>
        <path d="M9.93471053,11.6878644 L9.89859828,11.7191959 C9.64284327,11.9170756 9.57840964,12.2552701 9.74569389,12.5227164 L11.7355719,15.7095826 C11.844658,15.884123 12.0383124,15.9880082 12.2545051,15.9880082 L16.5717141,15.9880082 C16.9028043,15.9880082 17.1740844,15.7332671 17.1760215,15.4198723 L17.205163,11.0639557 C17.205163,10.8733778 17.0529939,10.713773 16.8507851,10.6948015 L13.9558104,10.507131 C13.5382007,10.4801673 13.2135298,10.1503501 13.2173899,9.75567924 L13.2395041,7.60962997 C13.2410594,7.45475141 13.178577,7.30935195 13.062916,7.20039529 C12.9488245,7.09215554 12.7966554,7.0323867 12.6352249,7.0323867 C12.295241,7.0323867 12.0223772,7.28857491 12.0223772,7.60381506 L12.0223772,13.4472615 L10.8087287,11.8073755 C10.6150743,11.557042 10.2067825,11.4947242 9.93471053,11.6878644 L9.93471053,11.6878644 Z" id="路径" fill="#C5CFE0"></path>
    </g>
</svg>