<?xml version="1.0" encoding="UTF-8"?>
<svg width="16px" height="16px" viewBox="0 0 16 16" version="1.1" xmlns="http://www.w3.org/2000/svg" xmlns:xlink="http://www.w3.org/1999/xlink">
    <!-- Generator: Sketch 58 (84663) - https://sketch.com -->
    <title>hand_small_normal_dark</title>
    <desc>Created with Sketch.</desc>
    <g id="light" stroke="none" stroke-width="1" fill="none" fill-rule="evenodd">
        <g id="按钮规范new备份" transform="translate(-480.000000, -13.000000)" fill="#C5CFE0" fill-rule="nonzero">
            <g id="编组-2" transform="translate(480.000000, 13.000000)">
                <path d="M6.74620014,0.974779416 L6.74620014,6.50967359 C6.58396952,6.54671787 6.53378241,6.72375539 6.49713854,6.50967359 L5.05051004,1.15664216 C4.96324535,0.569753607 2.89988893,0.928001681 3.01436039,1.57180476 L5.07584888,8.68809726 C5.07990959,8.78849233 5.09688337,8.88839717 5.12660778,8.98460945 C5.07893502,9.17270887 5.05051004,9.30583099 5.05051004,9.30583099 C0.98979845,5.35233515 0,8.19391028 0,8.19391028 C2.75942408,10.0077742 4.43319254,15.6710146 6.49713854,16 L12.6110184,16 C13.719754,16 14.5724183,15.1070741 14.5298675,14.0111588 C14.5298675,14.0111588 14.2517333,10.0529389 14.7707978,8.02098437 L15.9890113,3.25208002 C16.1839579,2.52511121 13.7220297,2.18941988 13.6033432,2.683765 L12.5627859,6.71138888 C12.506342,6.92996976 12.4521234,6.84232075 12.4612681,6.66197018 L12.7658215,0.65759838 C12.8103269,-0.0130963749 10.353174,-0.0463531819 10.3293945,0.534051635 L10.0502206,6.01952711 C10.0360081,6.29826438 8.99575607,6.30372811 9.27602519,5.71897442 L9.27602519,0.974779416 C8.9024328,-0.407182343 6.74620014,-0.239984781 6.74620014,0.974779416 Z" id="path4236-1-58-5-6-copy备份-3"></path>
            </g>
        </g>
    </g>
</svg>