<svg id="安装程序" xmlns="http://www.w3.org/2000/svg" xmlns:xlink="http://www.w3.org/1999/xlink" viewBox="0 0 22 22"><defs><style>.cls-1{fill:url(#未命名的渐变_26);}.cls-2,.cls-3{fill:#f9f9f9;}.cls-2{fill-rule:evenodd;}</style><linearGradient id="未命名的渐变_26" x1="16.5" y1="20.53" x2="5.5" y2="1.47" gradientUnits="userSpaceOnUse"><stop offset="0" stop-color="#dd4814"/><stop offset="1" stop-color="#dd7514"/></linearGradient></defs><g id="_22" data-name="22"><circle class="cls-1" cx="11" cy="11" r="11"/><polygon class="cls-2" points="10.44 9.99 11.02 9.21 10.8 8.38 11.18 7.29 10.3 8.19 10.17 8.15 10.4 7.59 9.57 8.42 8.78 8.91 7.95 10.46 8.4 11.61 8.57 12.5 8.75 12.95 8.1 13.72 9 13.72 9.13 12.91 9.48 12.35 10.08 12.46 10.75 12.19 11.25 11.94 11.74 12.26 11.16 12.95 10.57 13.49 11.49 13.51 11.49 13.15 12.21 12.59 12.46 12.89 11.72 13.96 12.66 13.96 12.62 13.43 13.31 12.8 12.97 12.1 12.91 11.25 13.62 10.86 13.99 10.93 14.53 10.75 14.68 9.67 13.87 9.92 13.36 10.66 12.5 11.11 11.31 10.62 10.44 9.99"/><circle class="cls-3" cx="15" cy="4" r="2"/><circle class="cls-3" cx="3" cy="11" r="2"/><circle class="cls-3" cx="15" cy="18" r="2"/><path class="cls-3" d="M16,11.5A5,5,0,0,1,9,15.59L8,17.3a6.73,6.73,0,0,0,4.77.46,2.24,2.24,0,0,1,2.23-2,2.27,2.27,0,0,1,.94.21,7,7,0,0,0,2-4.46Z"/><path class="cls-3" d="M9,6.41A5,5,0,0,1,16,10.5h2a7,7,0,0,0-2-4.46,2.27,2.27,0,0,1-.94.21,2.24,2.24,0,0,1-2.23-2A6.73,6.73,0,0,0,8,4.7Z"/><path class="cls-3" d="M8.16,15.1a5,5,0,0,1,0-8.2l-1-1.71a7.06,7.06,0,0,0-2.87,4,2.24,2.24,0,0,1,0,3.72,7.06,7.06,0,0,0,2.87,3.95Z"/></g></svg>