<?xml version="1.0" encoding="UTF-8"?>
<svg width="16px" height="16px" viewBox="0 0 16 16" version="1.1" xmlns="http://www.w3.org/2000/svg" xmlns:xlink="http://www.w3.org/1999/xlink">
    <title>icon/dock-set/battery</title>
    <g id="icon/dock-set/battery" stroke="none" stroke-width="1" fill="none" fill-rule="evenodd">
        <path d="M11,3 C12.6568542,3 14,4.34314575 14,6 L15,6 L15,10 L14,10 C14,11.6568542 12.6568542,13 11,13 L4,13 C2.34314575,13 1,11.6568542 1,10 L1,6 C1,4.34314575 2.34314575,3 4,3 L11,3 Z M11,4 L4,4 C2.8954305,4 2,4.8954305 2,6 L2,10 C2,11.1045695 2.8954305,12 4,12 L11,12 C12.1045695,12 13,11.1045695 13,10 L13,6 C13,4.8954305 12.1045695,4 11,4 Z M11,5 C11.5522847,5 12,5.44771525 12,6 L12,10 C12,10.5522847 11.5522847,11 11,11 L4,11 C3.44771525,11 3,10.5522847 3,10 L3,6 C3,5.44771525 3.44771525,5 4,5 L11,5 Z" id="形状结合" fill="#536076"></path>
    </g>
</svg>