<?xml version="1.0" encoding="UTF-8"?><svg version="1.1" width="22px" height="22px" viewBox="0 0 22.0 22.0" xmlns="http://www.w3.org/2000/svg" xmlns:xlink="http://www.w3.org/1999/xlink"><defs><clipPath id="i0"><path d="M1920,0 L1920,1080 L0,1080 L0,0 L1920,0 Z"></path></clipPath><clipPath id="i1"><path d="M1539.99947,171 C1549.94757,171 1558,179.061968 1558,189.00691 L1558,852.99309 C1558,862.942251 1549.94089,871 1539.99947,871 L478.000533,871 C468.052433,871 460,862.938032 460,852.99309 L460,189.00691 C460,179.057749 468.059113,171 478.000533,171 Z"></path></clipPath><clipPath id="i2"><path d="M11,0 C17.0751322,0 22,4.92486775 22,11 C22,17.0751322 17.0751322,22 11,22 C4.92486775,22 0,17.0751322 0,11 C0,4.92486775 4.92486775,0 11,0 Z M14.005024,7.00502398 L10.9999987,10.0109987 L7.99497348,7.00502398 C7.72160647,6.73165698 7.27839099,6.73165698 7.00502398,7.00502398 C6.75899368,7.25105429 6.73439065,7.63466186 6.93121489,7.90820762 L7.00502398,7.99497348 L10.0109987,10.9999987 L7.00502398,14.005024 L6.93121489,14.0917898 C6.73439065,14.3653356 6.75899368,14.7489432 7.00502398,14.9949735 C7.27839099,15.2683405 7.72160647,15.2683405 7.99497348,14.9949735 L10.9999987,11.9889987 L14.005024,14.9949735 C14.278391,15.2683405 14.7216065,15.2683405 14.9949735,14.9949735 C15.2410038,14.7489432 15.2656068,14.3653356 15.0687826,14.0917898 L14.9949735,14.005024 L11.9889987,10.9999987 L14.9949735,7.99497348 L15.0687826,7.90820762 C15.2656068,7.63466186 15.2410038,7.25105429 14.9949735,7.00502398 C14.7216065,6.73165698 14.278391,6.73165698 14.005024,7.00502398 Z"></path></clipPath></defs><g transform="translate(-1506.0 -815.0)"><g clip-path="url(#i0)"><g clip-path="url(#i1)"><g transform="translate(952.0 791.0)"><g transform="translate(554.0 24.0)"><g transform="translate(1.2711898307316005e-06 1.2711898307316005e-06)"><g clip-path="url(#i2)"><polygon points="0,0 22,0 22,22 0,22 0,0" stroke="none" fill="rgba(0, 0, 0, 1)"></polygon></g></g></g></g></g></g></g></svg>