<?xml version="1.0" encoding="UTF-8"?>
<svg width="16px" height="16px" viewBox="0 0 16 16" version="1.1" xmlns="http://www.w3.org/2000/svg" xmlns:xlink="http://www.w3.org/1999/xlink">
    <title>ICON / 16px / Wechat-dark</title>
    <g id="ICON-/-16px-/-Wechat-dark" stroke="none" stroke-width="1" fill="none" fill-rule="evenodd" fill-opacity="0.7">
        <g id="微信-(1)" transform="translate(0.589244, 1.186406)" fill="#FFFFFF">
            <path d="M12.517634,11.149454 C12.517634,10.9697387 12.5683453,10.9319495 12.7013368,10.8333991 C12.7815617,10.773922 12.8966034,10.6884549 13.0551389,10.5203621 C13.5044483,10.0444657 13.7768017,9.72163632 13.9352744,9.35252563 C14.0933078,8.98426575 14.1405672,8.56339962 14.1405672,7.88995281 C14.1405672,7.12291597 13.6741553,6.36183487 12.9643074,5.7927016 C12.254789,5.22411413 11.3033094,4.84806847 10.3292827,4.84806847 C9.30261493,4.84806847 8.46994281,5.17110654 7.85285635,5.67389204 C7.33055539,6.09960623 6.96183176,6.65453244 6.76021054,7.25138955 C6.55868346,7.8479898 6.52364686,8.48634437 6.66793548,9.07941293 C6.81931615,9.70169827 7.16888185,10.2750856 7.73084805,10.6985684 C8.22958207,11.0745338 8.81819052,11.355031 9.44327907,11.4991243 C10.0292672,11.6343402 10.6479541,11.6497673 11.2552812,11.5118705 C12.0161542,11.3392026 12.0883926,11.4108318 12.2324929,11.5545399 C12.3046059,11.6263778 12.3979322,11.7193739 12.6509394,11.8030751 C12.6355471,11.7470175 12.6196998,11.6986011 12.6044959,11.6524642 C12.5580053,11.5109073 12.517634,11.3881808 12.517634,11.149454 Z M2.60941795,8.88852461 C2.56888973,9.0026948 2.52814185,9.11718606 2.50747763,9.28280668 C2.68186038,9.22764796 2.83639481,9.1345877 2.98940727,9.04250668 C3.29127425,8.86062419 3.58862241,8.68167943 4.03477801,8.77311832 C4.39113763,8.84625659 4.65382577,8.89703279 4.9321572,8.92937994 C5.19169157,8.95957597 5.46611609,8.97381514 5.84486588,8.97551677 C5.74816614,8.7222137 5.71341198,8.41917788 5.72015883,8.1107803 C5.72916511,7.69676888 5.81309288,7.27068546 5.92101123,6.94190035 C6.20940018,6.06504374 6.57090625,5.72344819 7.11587979,5.20860676 L7.14595822,5.18014448 C7.21319145,5.11671838 7.25240167,5.08000476 7.29424788,5.04542622 C7.33430539,5.01203561 7.37798738,4.98007374 7.45479172,4.92510766 C7.83327477,4.65438689 8.22994295,4.44460398 8.6639699,4.30262969 C9.07992154,4.16656296 9.53023509,4.09252571 10.0312756,4.08650577 C9.96013547,3.78912067 9.85678302,3.50997198 9.72622347,3.25045633 C9.24556475,2.29426491 8.39295018,1.59993292 7.40012648,1.20473581 C6.40513752,0.808864477 5.26970407,0.713059119 4.22538459,0.954627321 C3.8381777,1.04415589 3.46357018,1.18025472 3.11365929,1.36438466 C2.36080408,1.76057706 1.79119667,2.27212758 1.40455463,2.84535441 C1.03375986,3.39496702 0.830600985,4.00217843 0.794638663,4.61923044 C0.758739102,5.23644297 0.889753671,5.86465193 1.18705475,6.45605096 C1.5046121,7.08787189 2.01228963,7.67838799 2.70839279,8.16990415 L2.73164591,8.18635866 L2.73164591,8.21560755 C2.73167729,8.54399133 2.67054762,8.71612954 2.60941795,8.88852461 Z M0,4.79299002 C0,4.19481655 0.183969559,3.54601136 0.476924411,2.95228462 C0.786793479,2.32428435 1.21965934,1.75611427 1.68633794,1.37314969 C2.75569925,0.495249618 3.98791088,0.0421326539 5.23375744,0.00281842423 C6.4957337,-0.0371058261 7.77167439,0.347319595 8.90652729,1.14392638 C9.39421529,1.48598747 9.76821089,1.8585817 10.0639586,2.28317217 C10.3591729,2.70724894 10.5761079,3.18303299 10.7497846,3.73237269 C10.8567615,4.06979441 10.8900408,4.07348664 11.0889476,4.09504606 C11.1615155,4.10291211 11.2534297,4.11297746 11.373006,4.13724986 C11.7791355,4.2198274 12.1874773,4.35889607 12.5667762,4.54753695 C12.9298356,4.72807097 13.2669746,4.95448498 13.5508918,5.22099982 C13.7502536,5.4081638 13.9361217,5.59365826 14.1044322,5.79684332 C14.2733234,6.00089524 14.4233547,6.22156221 14.5495052,6.47738563 C14.8701065,7.12766771 15.0204045,7.72799231 14.997779,8.32387017 C14.9751692,8.91961961 14.7794475,9.50909226 14.4087155,10.1371888 C14.286974,10.3433116 14.0834071,10.601527 13.8644951,10.840639 C13.6540402,11.0707453 13.4284912,11.2842525 13.2472047,11.4177507 C13.316713,11.7228253 13.393486,11.93736 13.4543489,12.1073471 C13.536148,12.3361262 13.5346836,12.6336772 13.4499556,13 L13.4157036,12.996982 C13.1271734,12.971634 12.9469224,12.8527603 12.7481569,12.7218466 L12.6823672,12.6787117 C12.5854342,12.6158638 12.4866819,12.5558676 12.3862429,12.4989322 C12.2924615,12.4456035 12.1927022,12.3918093 12.0834658,12.3330708 C11.8164001,12.189427 11.8085549,12.1915139 11.5834609,12.2552289 C11.5342088,12.269147 11.4751346,12.2859386 11.392666,12.3069202 C10.8912489,12.4348158 10.6979122,12.4327931 10.294607,12.4284106 C10.2219136,12.427624 10.1411082,12.4267571 10.0200727,12.4267571 C9.21026142,12.4267571 8.28478079,12.0641961 7.52657516,11.5310541 C6.7910578,11.013917 6.21037299,10.3341934 6.04101116,9.66636523 C5.71342767,9.74067538 5.37945819,9.75740279 5.04937993,9.73890953 C4.7039408,9.71970994 4.36247133,9.66154928 4.03695897,9.59075477 C3.52264441,9.4787357 3.11160385,9.75342161 2.71925052,10.0156824 C2.46426636,10.1861029 2.21640563,10.3517235 1.94709616,10.4115055 C1.71404713,10.463277 1.60278673,10.3821603 1.56851897,10.2203604 C1.5171644,9.97855136 1.6719028,9.54383133 1.81733682,9.13531009 C1.89059514,8.92958863 1.96162544,8.73020818 2.00119654,8.5698851 C1.46541756,8.25795583 0.963325804,7.67997726 0.596532083,6.99574271 C0.231997774,6.31532881 0,5.52872316 0,4.79299002 Z M3.42164903,4.31397193 C3.83586259,4.31397193 4.17164903,3.9781863 4.17164903,3.56397274 C4.17164903,3.14975918 3.83586259,2.81397193 3.42164903,2.81397193 C3.00743547,2.81397193 2.67164903,3.14975918 2.67164903,3.56397274 C2.67164903,3.9781863 3.00743547,4.31397193 3.42164903,4.31397193 Z M6.88343608,4.31397193 C7.29764964,4.31397193 7.63343608,3.9781863 7.63343608,3.56397274 C7.63343608,3.14975918 7.29764964,2.81397193 6.88343608,2.81397193 C6.46922252,2.81397193 6.13343608,3.14975918 6.13343608,3.56397274 C6.13343608,3.9781863 6.46922252,4.31397193 6.88343608,4.31397193 Z M8.8998275,8.24631728 C8.60535068,8.24631728 8.42848886,8.10842049 8.3517002,7.92830385 L8.3966688,7.90693707 L8.3517002,7.92811121 C8.32008411,7.85386527 8.30583726,7.77231513 8.30762596,7.69054025 C8.30941466,7.60926301 8.32736444,7.52735971 8.35943555,7.45247164 C8.44425768,7.25472861 8.62905883,7.09885226 8.88972291,7.10323478 C9.17906897,7.10793836 9.37044439,7.26269098 9.45540773,7.45638861 C9.4881264,7.53105587 9.50514675,7.61192338 9.50536981,7.69375088 C9.50553845,7.77467495 9.4890008,7.85543848 9.45540773,7.92876939 C9.37300192,8.10854891 9.18956583,8.24631728 8.8998275,8.24631728 Z M10.9714738,7.65424401 C10.9714738,7.3888529 11.1098942,7.23350631 11.293346,7.16723879 C11.3671221,7.14070289 11.4485708,7.12893591 11.5308982,7.13071782 C11.6130703,7.13256699 11.6944804,7.14728733 11.7722945,7.1743664 C11.9900454,7.25012134 12.16697,7.42055792 12.16697,7.65426007 C12.16697,7.92160967 11.9937326,8.11322039 11.7793708,8.19889619 C11.7021585,8.22968618 11.6187956,8.24686308 11.5364055,8.24864499 C11.4534191,8.25036268 11.3709506,8.23658905 11.2962173,8.20579906 C11.1114946,8.12967489 10.9714738,7.95257625 10.9714738,7.65424401 Z" id="形状" fill-rule="nonzero"></path>
            <path d="" id="椭圆形" stroke-opacity="0.7" stroke="#FFFFFF"></path>
            <path d="" id="椭圆形" stroke-opacity="0.7" stroke="#FFFFFF"></path>
        </g>
    </g>
</svg>