<?xml version="1.0" encoding="UTF-8"?>
<svg width="12px" height="14px" viewBox="0 0 12 14" version="1.1" xmlns="http://www.w3.org/2000/svg" xmlns:xlink="http://www.w3.org/1999/xlink">
    <title>ICON / Action / Delete</title>
    <g id="控件" stroke="none" stroke-width="1" fill="none" fill-rule="evenodd" fill-opacity="0.7">
        <g id="ICON-/-Action-/-Delete" fill="#FFFFFF" fill-rule="nonzero">
            <path d="M6,0 C9.3137085,0 12,0.927517607 12,2.33333333 C12,2.44654068 11.2297954,5.81831394 9.68938622,12.4486531 C9.63108491,12.7046134 9.47356151,12.9267379 9.25186575,13.0673244 C8.26859285,13.6894956 7.1843919,14 6,14 C4.8156081,14 3.73140715,13.6894956 2.74739717,13.0684867 C2.52645875,12.9267554 2.36894287,12.7046617 2.30957836,12.4489753 C0.770204592,5.8197926 0,2.44799206 0,2.33333333 C0,0.927517607 2.6862915,0 6,0 Z M6,1.16666667 C3.3490332,1.16666667 1.2,1.68900113 1.2,2.33333333 C1.2,2.97766554 3.3490332,3.5 6,3.5 C8.6509668,3.5 10.8,2.97766554 10.8,2.33333333 C10.8,1.68900113 8.6509668,1.16666667 6,1.16666667 Z" id="形状结合"></path>
        </g>
    </g>
</svg>