<?xml version="1.0" encoding="UTF-8"?>
<svg width="16px" height="16px" viewBox="0 0 16 16" version="1.1" xmlns="http://www.w3.org/2000/svg" xmlns:xlink="http://www.w3.org/1999/xlink">
    <title>icon/dock-set/task</title>
    <g id="icon/dock-set/task" stroke="none" stroke-width="1" fill="none" fill-rule="evenodd" fill-opacity="0.7">
        <path d="M13,2 C14.1045695,2 15,2.8954305 15,4 L15,12 C15,13.1045695 14.1045695,14 13,14 L3,14 C1.8954305,14 1,13.1045695 1,12 L1,4 C1,2.8954305 1.8954305,2 3,2 L13,2 Z M13,3 L3,3 C2.48223305,3 2.05637288,3.39349973 2.00516289,3.0737812 L2,3.006 L2,12 C2,12.5522847 2.44771525,13 3,13 L13,13 C13.5522847,13 14,12.5522847 14,12 L14,4 C14,3.44771525 13.5522847,3 13,3 Z M12.5,9 C12.7761424,9 13,9.22385763 13,9.5 L13,11.5 C13,11.7761424 12.7761424,12 12.5,12 L7.5,12 C7.22385763,12 7,11.7761424 7,11.5 L7,9.5 C7,9.22385763 7.22385763,9 7.5,9 L12.5,9 Z M5.5,9 C5.77614237,9 6,9.22385763 6,9.5 L6,11.5 C6,11.7761424 5.77614237,12 5.5,12 L3.5,12 C3.22385763,12 3,11.7761424 3,11.5 L3,9.5 C3,9.22385763 3.22385763,9 3.5,9 L5.5,9 Z M7.5,4 C7.77614237,4 8,4.22385763 8,4.5 L8,6.5 C8,6.77614237 7.77614237,7 7.5,7 L3.5,7 C3.22385763,7 3,6.77614237 3,6.5 L3,4.5 C3,4.22385763 3.22385763,4 3.5,4 L7.5,4 Z M12.5,4 C12.7761424,4 13,4.22385763 13,4.5 L13,6.5 C13,6.77614237 12.7761424,7 12.5,7 L9.5,7 C9.22385763,7 9,6.77614237 9,6.5 L9,4.5 C9,4.22385763 9.22385763,4 9.5,4 L12.5,4 Z" id="形状结合" fill="#000000"></path>
    </g>
</svg>