<?xml version="1.0" encoding="UTF-8"?>
<svg width="226px" height="260px" viewBox="0 0 226 260" version="1.1" xmlns="http://www.w3.org/2000/svg" xmlns:xlink="http://www.w3.org/1999/xlink">
    <title>菜单 3</title>
    <defs>
        <rect id="path-1" x="0" y="0" width="200" height="234" rx="18"></rect>
        <filter x="-11.0%" y="-6.8%" width="122.0%" height="118.8%" filterUnits="objectBoundingBox" id="filter-3">
            <feMorphology radius="1" operator="dilate" in="SourceAlpha" result="shadowSpreadOuter1"></feMorphology>
            <feOffset dx="0" dy="6" in="shadowSpreadOuter1" result="shadowOffsetOuter1"></feOffset>
            <feGaussianBlur stdDeviation="6" in="shadowOffsetOuter1" result="shadowBlurOuter1"></feGaussianBlur>
            <feComposite in="shadowBlurOuter1" in2="SourceAlpha" operator="out" result="shadowBlurOuter1"></feComposite>
            <feColorMatrix values="0 0 0 0 0   0 0 0 0 0   0 0 0 0 0  0 0 0 0.2 0" type="matrix" in="shadowBlurOuter1"></feColorMatrix>
        </filter>
    </defs>
    <g id="概览" stroke="none" stroke-width="1" fill="none" fill-rule="evenodd">
        <g id="V23控件-浅色" transform="translate(-187.000000, -5451.000000)">
            <g id="MENU" transform="translate(200.000000, 4956.000000)">
                <g id="菜单-3" transform="translate(0.000000, 502.000000)">
                    <mask id="mask-2" fill="white">
                        <use xlink:href="#path-1"></use>
                    </mask>
                    <g id="menu_bg">
                        <use fill="black" fill-opacity="1" filter="url(#filter-3)" xlink:href="#path-1"></use>
                        <use fill-opacity="0.8" fill="#EEEEEE" fill-rule="evenodd" xlink:href="#path-1"></use>
                        <rect stroke-opacity="0.06" stroke="#000000" stroke-width="1" x="-0.5" y="-0.5" width="201" height="235" rx="18"></rect>
                        <rect stroke-opacity="0.1" stroke="#FFFFFF" stroke-width="1" stroke-linejoin="square" x="0.5" y="0.5" width="199" height="233" rx="18"></rect>
                    </g>
                    <g id="编组" mask="url(#mask-2)">
                        <g transform="translate(10.000000, 194.000000)" id="menuitem" fill="#000000">
                            <text id="新建文档" font-family="SourceHanSansSC-Medium, Source Han Sans SC" font-size="14" font-weight="400">
                                <tspan x="34" y="20">全选</tspan>
                            </text>
                            <g id="编组" transform="translate(10.000000, 7.000000)" fill-opacity="0.7" fill-rule="nonzero">
                                <g id="形状结合">
                                    <path d="M12,5 C13.1045695,5 14,5.8954305 14,7 L14,13 C14,14.1045695 13.1045695,15 12,15 L4,15 C2.8954305,15 2,14.1045695 2,13 L2,7 C2,5.8954305 2.8954305,5 4,5 L12,5 Z M11.0826494,7.17887422 C10.794836,6.92076087 10.352275,6.94483749 10.0941616,7.23265086 L10.0941616,7.23265086 L7.01980456,10.6599563 L6.2136912,9.78984206 L6.12983515,9.71274303 C5.86408024,9.50551999 5.47980937,9.51531677 5.22447755,9.75167981 C4.94077553,10.0143054 4.92368971,10.4571914 5.1863153,10.7408935 L5.1863153,10.7408935 L6.51437363,12.1755321 L6.59539335,12.2504468 C6.87992278,12.4748633 7.29897716,12.44637 7.54919379,12.167362 L7.54919379,12.167362 L11.136426,8.16736199 L11.2054128,8.07671474 C11.3870867,7.79288089 11.3416814,7.41117624 11.0826494,7.17887422 Z M12,3 C12.5522847,3 13,3.44771525 13,4 L13,4.99898861 C12.9994923,4.48658446 12.6135966,4.06441519 12.1165511,4.0067196 L12,4 L4,4 C3.48716416,4 3.06449284,4.38604019 3.00672773,4.88337887 L3,4.998 L3,4 C3,3.44771525 3.44771525,3 4,3 L12,3 Z M11,1 C11.5522847,1 12,1.44771525 12,2 L4,2 C4,1.44771525 4.44771525,1 5,1 L11,1 Z"></path>
                                </g>
                            </g>
                        </g>
                    </g>
                    <g id="编组" mask="url(#mask-2)" fill-opacity="0.1">
                        <g transform="translate(10.000000, 192.000000)" id="menuitem_seperater">
                            <rect fill="#000000" x="0" y="0" width="180" height="2"></rect>
                        </g>
                    </g>
                    <g id="编组" mask="url(#mask-2)">
                        <g transform="translate(10.000000, 162.000000)" id="menuitem" fill="#000000">
                            <text id="新建文档" font-family="SourceHanSansSC-Medium, Source Han Sans SC" font-size="14" font-weight="400">
                                <tspan x="34" y="20">删除</tspan>
                            </text>
                            <g id="编组" transform="translate(10.000000, 7.000000)" fill-opacity="0.7" fill-rule="nonzero">
                                <g id="形状结合">
                                    <path d="M8,1 C11.3137085,1 14,1.92751761 14,3.33333333 C14,3.44654068 13.2297954,6.81831394 11.6893862,13.4486531 L11.6907184,13.4489605 C11.6314234,13.7059087 11.4730363,13.9290354 11.2500321,14.0697742 C10.2668154,14.6900044 9.18342109,15 8,15 C6.81657891,15 5.7331846,14.6900044 4.74981707,14.0700131 L4.74996638,14.0697765 C4.52698402,13.929053 4.36860441,13.705957 4.3092946,13.4490395 C2.77020459,6.8197926 2,3.44799206 2,3.33333333 C2,1.92751761 4.6862915,1 8,1 Z M8,2.16666667 C5.3490332,2.16666667 3.2,2.68900113 3.2,3.33333333 C3.2,3.97766554 5.3490332,4.5 8,4.5 C10.6509668,4.5 12.8,3.97766554 12.8,3.33333333 C12.8,2.68900113 10.6509668,2.16666667 8,2.16666667 Z"></path>
                                </g>
                            </g>
                        </g>
                    </g>
                    <g id="编组" mask="url(#mask-2)">
                        <g transform="translate(10.000000, 132.000000)" id="menuitem" fill="#000000">
                            <text id="新建文档" font-family="SourceHanSansSC-Medium, Source Han Sans SC" font-size="14" font-weight="400">
                                <tspan x="34" y="20">粘贴</tspan>
                            </text>
                            <g id="编组" transform="translate(10.000000, 7.000000)" fill-opacity="0.7" fill-rule="nonzero">
                                <g id="形状结合">
                                    <path d="M13,6 C14.1045695,6 15,6.8954305 15,8 L15,13 C15,14.1045695 14.1045695,15 13,15 L8,15 C6.8954305,15 6,14.1045695 6,13 L6,8 C6,6.8954305 6.8954305,6 8,6 L13,6 Z M13.5038448,7.79591791 C13.2160315,7.53780456 12.7734704,7.56188118 12.5153571,7.84969455 L12.5153571,7.84969455 L9.441,11.277 L8.63488664,10.4068857 L8.55103059,10.3297867 C8.28527568,10.1225637 7.90100481,10.1323605 7.64567299,10.3687235 C7.36197097,10.6313491 7.34488515,11.0742351 7.60751074,11.3579371 L7.60751074,11.3579371 L8.93556907,12.7925758 L9.01658879,12.8674905 C9.30111822,13.091907 9.7201726,13.0634137 9.97038922,12.7844057 L9.97038922,12.7844057 L13.5576215,8.78440568 L13.6266082,8.69375843 C13.8082821,8.40992458 13.7628769,8.02821992 13.5038448,7.79591791 Z M8,1 C9.1045695,1 10,1.8954305 10,3 L10,5 L9,5 L9,3 C9,2.48716416 8.61395981,2.06449284 8.11662113,2.00672773 L8,2 L3,2 C2.48716416,2 2.06449284,2.38604019 2.00672773,2.88337887 L2,3 L2,8 C2,8.51283584 2.38604019,8.93550716 2.88337887,8.99327227 L3,9 L5,9 L5,10 L3,10 C1.8954305,10 1,9.1045695 1,8 L1,3 C1,1.8954305 1.8954305,1 3,1 L8,1 Z"></path>
                                </g>
                            </g>
                        </g>
                    </g>
                    <g id="编组" mask="url(#mask-2)">
                        <g transform="translate(10.000000, 102.000000)" id="menuitem" fill="#000000">
                            <text id="新建文档" font-family="SourceHanSansSC-Medium, Source Han Sans SC" font-size="14" font-weight="400">
                                <tspan x="34" y="20">复制</tspan>
                            </text>
                            <g id="编组" transform="translate(10.000000, 7.000000)" fill-opacity="0.7" fill-rule="nonzero">
                                <g id="形状结合">
                                    <path d="M13,6 C14.1045695,6 15,6.8954305 15,8 L15,13 C15,14.1045695 14.1045695,15 13,15 L8,15 C6.8954305,15 6,14.1045695 6,13 L6,8 C6,6.8954305 6.8954305,6 8,6 L13,6 Z M8,1 C9.1045695,1 10,1.8954305 10,3 L10,5 L9,5 L9,3 C9,2.48716416 8.61395981,2.06449284 8.11662113,2.00672773 L8,2 L3,2 C2.48716416,2 2.06449284,2.38604019 2.00672773,2.88337887 L2,3 L2,8 C2,8.51283584 2.38604019,8.93550716 2.88337887,8.99327227 L3,9 L5,9 L5,10 L3,10 C1.8954305,10 1,9.1045695 1,8 L1,3 C1,1.8954305 1.8954305,1 3,1 L8,1 Z"></path>
                                </g>
                            </g>
                        </g>
                    </g>
                    <g id="编组" mask="url(#mask-2)">
                        <g transform="translate(10.000000, 72.000000)" id="menuitem" fill="#000000">
                            <text id="新建文档" font-family="SourceHanSansSC-Medium, Source Han Sans SC" font-size="14" font-weight="400">
                                <tspan x="34" y="20">剪切</tspan>
                            </text>
                            <g id="编组" transform="translate(10.000000, 7.000000)" fill-opacity="0.7" fill-rule="nonzero">
                                <g id="形状">
                                    <path d="M6.12435783,6.82477473 L6.85002617,8.79259397 L1.74385097,6.89982625 L1.74385097,6.89982625 C1.09547988,6.65889271 0.899554285,6.00874377 0.848847381,5.50878172 L0.835111086,5.30533829 L0.835111086,5.30533829 L0.833782442,5.13007056 L0.833782442,5.13007056 L0.846851187,4.90320405 L0.846851187,4.90320405 L0.850500116,4.87117618 L0.850500116,4.87117618 L6.12435783,6.82477473 Z M7.41669369,14.7678427 C7.13373312,14.4848821 6.90260741,14.1327626 6.75350609,13.7283172 C6.34330854,12.6157662 6.67715688,11.4538106 7.4965841,10.8772003 L7.62996495,10.7911134 C8.01311207,10.5652583 8.0223729,10.3512759 7.92563308,10.0514329 L4.63548558,1.13568819 L4.82040553,1.12178409 L4.82040553,1.12178409 L4.9779258,1.1193509 L4.9779258,1.1193509 L5.16849425,1.12672437 C5.67806113,1.1618714 6.40560465,1.33907469 6.66225003,2.03422449 L8.80073736,7.82688253 L8.80073736,7.82688253 L9.67490456,8.15349767 C9.99093525,8.26798721 10.2123874,8.30057373 10.437645,7.98402225 L10.4992471,7.88883294 C11.0419319,6.97409211 12.2690568,6.5842995 13.4390436,7.01968085 C13.8410927,7.16952857 14.1911891,7.40020251 14.4720873,7.68110068 C15.4253262,8.63433955 15.474313,10.0158298 14.6473909,10.8427519 C14.0259226,11.4642202 13.0008927,11.6758415 12.0088415,11.3256862 C11.5584627,11.1667211 11.2672682,10.9312379 10.992076,10.6880423 L10.6603628,10.3969092 C10.4321233,10.2062238 10.1774707,10.0282166 9.82309591,9.89811614 L9.51896143,9.78647184 L9.6405838,10.1202262 C9.99596388,11.0955033 10.7152683,11.3174759 11.0625952,12.3090556 C11.4107274,13.300655 11.1974365,14.3232297 10.5775396,14.9431266 C9.78707989,15.7335863 8.49194796,15.7215707 7.54892364,14.891927 L7.41669369,14.7678427 Z M11.3970174,8.67975152 C11.1972401,9.28293324 11.6294984,9.99489156 12.3608825,10.2666563 C13.0922863,10.5392263 13.8506976,10.2691901 14.0512802,9.66602798 C14.2510575,9.06284626 13.819192,8.3504951 13.0873954,8.07831792 C12.4013361,7.8231518 11.6922475,8.04490298 11.4410164,8.57060886 L11.3970174,8.67975152 Z M8.47032207,8.60112517 C8.63295663,8.43849061 8.62676945,8.16831689 8.45559068,7.99713813 C8.28482439,7.82637184 8.0142382,7.81977218 7.85160364,7.98240674 C7.68896908,8.1450413 7.69556874,8.41562749 7.86633503,8.58639378 C8.03710132,8.75716007 8.30768751,8.76375973 8.47032207,8.60112517 Z M10.0035064,12.6586807 C9.73333264,11.9265305 9.02212071,11.4918759 8.41811402,11.6908283 C7.81410734,11.8897806 7.54244084,12.6473473 7.8130074,13.3791046 C8.08318111,14.1112548 8.7943734,14.5451041 9.39838008,14.3461517 C10.0024064,14.1480047 10.2736801,13.3908308 10.0035064,12.6586807 Z"></path>
                                </g>
                            </g>
                        </g>
                    </g>
                    <g id="编组" mask="url(#mask-2)" fill-opacity="0.1">
                        <g transform="translate(10.000000, 70.000000)" id="menuitem_seperater">
                            <rect fill="#000000" x="0" y="0" width="180" height="2"></rect>
                        </g>
                    </g>
                    <g id="编组" mask="url(#mask-2)">
                        <g transform="translate(10.000000, 40.000000)" id="menuitem" fill="#000000">
                            <text id="新建文档" font-family="SourceHanSansSC-Medium, Source Han Sans SC" font-size="14" font-weight="400">
                                <tspan x="34" y="20">恢复</tspan>
                            </text>
                            <g id="编组" transform="translate(10.000000, 7.000000)" fill-opacity="0.7" fill-rule="nonzero">
                                <g id="形状结合">
                                    <path d="M8.25,1.25 C11.9779221,1.25 15,4.27207794 15,8 C15,11.7279221 11.9779221,14.75 8.25,14.75 C4.60139543,14.75 1.62891859,11.855153 1.50408192,8.23697157 L1.5,8 L3,8 C3,10.8994949 5.35050506,13.25 8.25,13.25 C11.1494949,13.25 13.5,10.8994949 13.5,8 C13.5,5.10050506 11.1494949,2.75 8.25,2.75 C6.58616267,2.75 5.05498452,3.52899825 4.07098053,4.82159166 L6.25,7 L1.25,7 L1.25,2 L3.00278097,3.75339247 C4.26965566,2.18843573 6.18108259,1.25 8.25,1.25 Z" transform="translate(8.125000, 8.000000) scale(-1, 1) translate(-8.125000, -8.000000) "></path>
                                </g>
                            </g>
                        </g>
                    </g>
                    <g id="编组" mask="url(#mask-2)">
                        <g transform="translate(10.000000, 10.000000)" id="menuitem" fill="#000000">
                            <text id="新建文档" font-family="SourceHanSansSC-Medium, Source Han Sans SC" font-size="14" font-weight="400">
                                <tspan x="34" y="20">撤销</tspan>
                            </text>
                            <g id="编组" transform="translate(10.000000, 7.000000)" fill-opacity="0.7" fill-rule="nonzero">
                                <g id="形状结合">
                                    <path d="M8,1.25 C11.7279221,1.25 14.75,4.27207794 14.75,8 C14.75,11.7279221 11.7279221,14.75 8,14.75 C4.35139543,14.75 1.37891859,11.855153 1.25408192,8.23697157 L1.25,8 L2.75,8 C2.75,10.8994949 5.10050506,13.25 8,13.25 C10.8994949,13.25 13.25,10.8994949 13.25,8 C13.25,5.10050506 10.8994949,2.75 8,2.75 C6.33616267,2.75 4.80498452,3.52899825 3.82098053,4.82159166 L6,7 L1,7 L1,2 L2.75278097,3.75339247 C4.01965566,2.18843573 5.93108259,1.25 8,1.25 Z"></path>
                                </g>
                            </g>
                        </g>
                    </g>
                </g>
            </g>
        </g>
    </g>
</svg>