<?xml version="1.0" encoding="UTF-8"?>
<svg width="266px" height="387px" viewBox="0 0 266 387" version="1.1" xmlns="http://www.w3.org/2000/svg" xmlns:xlink="http://www.w3.org/1999/xlink">
    <title>编组</title>
    <defs>
        <path d="M0,17.9946439 C0,8.05647648 8.05385644,0 18.0021737,0 L221.997826,0 C231.940152,0 240,8.06756897 240,17.9946439 L240,343.005356 C240,352.943524 231.946144,361 221.997826,361 L18.0021737,361 C8.0598477,361 0,352.932431 0,343.005356 L0,17.9946439 Z" id="path-1"></path>
        <filter x="-9.2%" y="-4.4%" width="118.3%" height="112.2%" filterUnits="objectBoundingBox" id="filter-3">
            <feMorphology radius="1" operator="dilate" in="SourceAlpha" result="shadowSpreadOuter1"></feMorphology>
            <feOffset dx="0" dy="6" in="shadowSpreadOuter1" result="shadowOffsetOuter1"></feOffset>
            <feGaussianBlur stdDeviation="6" in="shadowOffsetOuter1" result="shadowBlurOuter1"></feGaussianBlur>
            <feComposite in="shadowBlurOuter1" in2="SourceAlpha" operator="out" result="shadowBlurOuter1"></feComposite>
            <feColorMatrix values="0 0 0 0 0   0 0 0 0 0   0 0 0 0 0  0 0 0 0.2 0" type="matrix" in="shadowBlurOuter1"></feColorMatrix>
        </filter>
    </defs>
    <g id="概览" stroke="none" stroke-width="1" fill="none" fill-rule="evenodd">
        <g id="V23控件-浅色" transform="translate(-187.000000, -5721.000000)">
            <g id="MENU" transform="translate(200.000000, 4956.000000)">
                <g id="编组" transform="translate(0.000000, 772.000000)">
                    <mask id="mask-2" fill="white">
                        <use xlink:href="#path-1"></use>
                    </mask>
                    <g id="Duplicate-control">
                        <use fill="black" fill-opacity="1" filter="url(#filter-3)" xlink:href="#path-1"></use>
                        <use fill-opacity="0.8" fill="#EEEEEE" fill-rule="evenodd" xlink:href="#path-1"></use>
                        <path stroke-opacity="0.06" stroke="#000000" stroke-width="1" d="M221.997826,-0.5 C227.10562,-0.5 231.730022,1.57170002 235.078036,4.91831315 C238.427986,8.26686202 240.5,12.8917511 240.5,17.9946439 L240.5,17.9946439 L240.5,343.005356 C240.5,348.113299 238.429941,352.737589 235.08154,356.084589 C231.734218,359.430511 227.109351,361.5 221.997826,361.5 L221.997826,361.5 L18.0021737,361.5 C12.8943799,361.5 8.2699776,359.4283 4.92196409,356.081687 C1.57201403,352.733138 -0.5,348.108249 -0.5,343.005356 L-0.5,343.005356 L-0.5,17.9946439 C-0.5,12.8867012 1.57005944,8.26241073 4.9184601,4.91541062 C8.26578158,1.56948923 12.8906492,-0.5 18.0021737,-0.5 L18.0021737,-0.5 Z"></path>
                        <path stroke-opacity="0.1" stroke="#FFFFFF" stroke-width="1" d="M221.997826,0.5 C226.829583,0.5 231.204017,2.45983237 234.371077,5.62556783 C237.53984,8.79300497 239.5,13.1676902 239.5,17.9946439 L239.5,17.9946439 L239.5,343.005356 C239.5,347.837078 237.541918,352.211322 234.374581,355.377335 C231.208127,358.542464 226.833121,360.5 221.997826,360.5 L221.997826,360.5 L18.0021737,360.5 C13.1704173,360.5 8.7959831,358.540168 5.62892294,355.374432 C2.46016039,352.206995 0.5,347.83231 0.5,343.005356 L0.5,343.005356 L0.5,17.9946439 C0.5,13.1629224 2.45808182,8.78867762 5.62541895,5.6226653 C8.79187294,2.45753576 13.1668792,0.5 18.0021737,0.5 L18.0021737,0.5 Z" stroke-linejoin="square"></path>
                    </g>
                    <g mask="url(#mask-2)" id="DTK-/-Entry-/-Search-Light">
                        <g transform="translate(10.000000, 10.000000)" id="搜索" fill="#000000">
                            <rect id="Rectangle-2" fill-opacity="0.08" x="0" y="0" width="220" height="36" rx="8"></rect>
                            <g id="编组" transform="translate(192.000000, 7.000000)" fill-opacity="0.7" fill-rule="nonzero">
                                <g id="形状结合">
                                    <path d="M11,0 C17.0751322,0 22,4.92486775 22,11 C22,17.0751322 17.0751322,22 11,22 C4.92486775,22 0,17.0751322 0,11 C0,4.92486775 4.92486775,0 11,0 Z M11,5 C10.4477153,5 10,5.44771525 10,6 L10,6 L10,16 C10,16.5522847 10.4477153,17 11,17 C11.5522847,17 12,16.5522847 12,16 L12,16 L12,6 C12,5.44771525 11.5522847,5 11,5 Z M7,7 C6.44771525,7 6,7.44771525 6,8 L6,8 L6,14 C6,14.5522847 6.44771525,15 7,15 C7.55228475,15 8,14.5522847 8,14 L8,14 L8,8 C8,7.44771525 7.55228475,7 7,7 Z M15,8 C14.4477153,8 14,8.44771525 14,9 L14,9 L14,13 C14,13.5522847 14.4477153,14 15,14 C15.5522847,14 16,13.5522847 16,13 L16,13 L16,9 C16,8.44771525 15.5522847,8 15,8 Z"></path>
                                </g>
                            </g>
                            <g id="Group" transform="translate(81.450340, 8.000000)" fill-opacity="0.7">
                                <text id="搜索" font-family="SourceHanSansSC-Medium, Source Han Sans SC" font-size="14" font-weight="400">
                                    <tspan x="24.1904762" y="16">搜索</tspan>
                                </text>
                                <g id="编组" transform="translate(0.000000, 2.000000)" fill-rule="nonzero">
                                    <g id="ICON/Search">
                                        <path d="M7,1 C10.3137085,1 13,3.6862915 13,7 C13,8.38645854 12.5297397,9.6630819 11.7400213,10.6790679 L15.0303301,13.9696699 C15.3232233,14.2625631 15.3232233,14.7374369 15.0303301,15.0303301 C14.7640635,15.2965966 14.3473998,15.3208027 14.0537883,15.1029482 L13.9696699,15.0303301 L10.6790679,11.7400213 C9.6630819,12.5297397 8.38645854,13 7,13 C3.6862915,13 1,10.3137085 1,7 C1,3.6862915 3.6862915,1 7,1 Z M7,2.5 C4.51471863,2.5 2.5,4.51471863 2.5,7 C2.5,9.48528137 4.51471863,11.5 7,11.5 C9.48528137,11.5 11.5,9.48528137 11.5,7 C11.5,4.51471863 9.48528137,2.5 7,2.5 Z" id="形状结合"></path>
                                    </g>
                                </g>
                            </g>
                        </g>
                    </g>
                    <g id="选项" mask="url(#mask-2)" font-family="TrebuchetMS, Trebuchet MS" font-size="14" font-weight="normal">
                        <g transform="translate(0.000000, 315.000000)" id="Trebuchet-MS">
                            <text>
                                <tspan x="20" y="23" fill="#000000">Trebuchet MS</tspan>
                            </text>
                        </g>
                    </g>
                    <g id="选项" mask="url(#mask-2)" font-family="SourceHanSansSC-Normal, Source Han Sans SC" font-size="14" font-weight="normal">
                        <g transform="translate(0.000000, 278.000000)" id="Source-Han-Sans-CN">
                            <text>
                                <tspan x="20" y="24" fill="#000000">Source Han Sans CN</tspan>
                            </text>
                        </g>
                    </g>
                    <g id="选项" mask="url(#mask-2)" font-family="Impact" font-size="14" font-style="condensed" font-weight="700">
                        <g transform="translate(0.000000, 241.000000)" id="Impact">
                            <text>
                                <tspan x="20" y="23" fill="#000000">Impact</tspan>
                            </text>
                        </g>
                    </g>
                    <g id="选项" mask="url(#mask-2)" font-family="SourceHanSansSC-Normal, Source Han Sans SC" font-size="14" font-weight="normal">
                        <g transform="translate(0.000000, 204.000000)" id="HanziPen-SC">
                            <text>
                                <tspan x="20" y="22" fill="#000000">HanziPen SC</tspan>
                            </text>
                        </g>
                    </g>
                    <g id="选项" mask="url(#mask-2)" font-family="SourceHanSansSC-Normal, Source Han Sans SC" font-size="14" font-weight="normal">
                        <g transform="translate(0.000000, 167.000000)" id="FZLanTingHei-DB-GBK">
                            <text>
                                <tspan x="20" y="24" fill="#000000">FZLanTingHei-DB-GBK</tspan>
                            </text>
                        </g>
                    </g>
                    <g id="选项" mask="url(#mask-2)" font-family="Futura-Medium, Futura" font-size="14" font-weight="400">
                        <g transform="translate(0.000000, 130.000000)" id="Futura">
                            <text>
                                <tspan x="20" y="23" fill="#000000">Futura</tspan>
                            </text>
                        </g>
                    </g>
                    <g id="选项" mask="url(#mask-2)" font-family="DINAlternate-Bold, DIN Alternate" font-size="14" font-weight="bold">
                        <g transform="translate(0.000000, 93.000000)" id="DIN-Alternate">
                            <text>
                                <tspan x="20" y="23" fill="#000000">DIN Alternate</tspan>
                            </text>
                        </g>
                    </g>
                    <g id="选项" mask="url(#mask-2)" font-family="Chalkboard" font-size="14" font-weight="normal">
                        <g transform="translate(0.000000, 56.000000)" id="Chalkboard">
                            <text>
                                <tspan x="20" y="23" fill="#000000">Chalkboard</tspan>
                            </text>
                        </g>
                    </g>
                </g>
            </g>
        </g>
    </g>
</svg>