<?xml version="1.0" encoding="UTF-8"?>
<svg width="366px" height="582px" viewBox="0 0 366 582" version="1.1" xmlns="http://www.w3.org/2000/svg" xmlns:xlink="http://www.w3.org/1999/xlink">
    <title>菜单 3</title>
    <defs>
        <rect id="path-1" x="0" y="0" width="340" height="556" rx="18"></rect>
        <filter x="-6.5%" y="-2.9%" width="112.9%" height="107.9%" filterUnits="objectBoundingBox" id="filter-3">
            <feMorphology radius="1" operator="dilate" in="SourceAlpha" result="shadowSpreadOuter1"></feMorphology>
            <feOffset dx="0" dy="6" in="shadowSpreadOuter1" result="shadowOffsetOuter1"></feOffset>
            <feGaussianBlur stdDeviation="6" in="shadowOffsetOuter1" result="shadowBlurOuter1"></feGaussianBlur>
            <feComposite in="shadowBlurOuter1" in2="SourceAlpha" operator="out" result="shadowBlurOuter1"></feComposite>
            <feColorMatrix values="0 0 0 0 0   0 0 0 0 0   0 0 0 0 0  0 0 0 0.2 0" type="matrix" in="shadowBlurOuter1"></feColorMatrix>
        </filter>
    </defs>
    <g id="概览" stroke="none" stroke-width="1" fill="none" fill-rule="evenodd">
        <g id="V23控件-浅色" transform="translate(-845.000000, -5024.000000)">
            <g id="MENU" transform="translate(200.000000, 4956.000000)">
                <g id="菜单-3" transform="translate(658.000000, 75.000000)">
                    <mask id="mask-2" fill="white">
                        <use xlink:href="#path-1"></use>
                    </mask>
                    <g id="menu_bg">
                        <use fill="black" fill-opacity="1" filter="url(#filter-3)" xlink:href="#path-1"></use>
                        <use fill-opacity="0.8" fill="#EEEEEE" fill-rule="evenodd" xlink:href="#path-1"></use>
                        <rect stroke-opacity="0.06" stroke="#000000" stroke-width="1" x="-0.5" y="-0.5" width="341" height="557" rx="18"></rect>
                        <rect stroke-opacity="0.1" stroke="#FFFFFF" stroke-width="1" stroke-linejoin="square" x="0.5" y="0.5" width="339" height="555" rx="18"></rect>
                    </g>
                    <g id="编组" mask="url(#mask-2)">
                        <g transform="translate(162.000000, 534.000000)">
                            <circle id="椭圆形" fill-opacity="0.2" fill="#FFFFFF" cx="8" cy="8" r="8"></circle>
                            <g transform="translate(2.000000, 2.000000)" fill="#000000" fill-opacity="0.7" fill-rule="nonzero" id="ICON/Arrow">
                                <g transform="translate(6.000000, 6.000000) scale(-1, 1) rotate(-90.000000) translate(-6.000000, -6.000000) ">
                                    <path d="M7.62598722,1.22688911 C7.94031165,0.924370296 8.44993225,0.924370296 8.76425668,1.22688911 C9.04365617,1.49579473 9.07470056,1.91321282 8.85738984,2.2151212 L8.76425668,2.32240666 L4.94195122,6 L8.76425668,9.67759334 C9.04365617,9.94649895 9.07470056,10.363917 8.85738984,10.6658254 L8.76425668,10.7731109 C8.48485718,11.0420165 8.05114961,11.0718949 7.73745943,10.8627461 L7.62598722,10.7731109 L3.23574332,6.54775877 C2.95634383,6.27885316 2.92529944,5.86143507 3.14261016,5.55952669 L3.23574332,5.45224123 L7.62598722,1.22688911 Z" id="arrow"></path>
                                </g>
                            </g>
                        </g>
                    </g>
                    <g id="编组" mask="url(#mask-2)">
                        <g transform="translate(162.000000, 54.000000)">
                            <circle id="background" fill-opacity="0.2" fill="#FFFFFF" cx="8" cy="8" r="8"></circle>
                            <g transform="translate(2.000000, 2.000000)" fill="#000000" fill-opacity="0.7" fill-rule="nonzero" id="ICON/Arrow">
                                <g transform="translate(6.000000, 6.000000) scale(-1, 1) rotate(90.000000) translate(-6.000000, -6.000000) ">
                                    <path d="M7.62598722,1.22688911 C7.94031165,0.924370296 8.44993225,0.924370296 8.76425668,1.22688911 C9.04365617,1.49579473 9.07470056,1.91321282 8.85738984,2.2151212 L8.76425668,2.32240666 L4.94195122,6 L8.76425668,9.67759334 C9.04365617,9.94649895 9.07470056,10.363917 8.85738984,10.6658254 L8.76425668,10.7731109 C8.48485718,11.0420165 8.05114961,11.0718949 7.73745943,10.8627461 L7.62598722,10.7731109 L3.23574332,6.54775877 C2.95634383,6.27885316 2.92529944,5.86143507 3.14261016,5.55952669 L3.23574332,5.45224123 L7.62598722,1.22688911 Z" id="arrow"></path>
                                </g>
                            </g>
                        </g>
                    </g>
                    <g id="编组" mask="url(#mask-2)" font-family="SourceHanSansSC-Medium, Source Han Sans SC" font-size="14" font-weight="400">
                        <g transform="translate(10.000000, 496.000000)" id="新建文档" fill="#000000">
                            <text>
                                <tspan x="34" y="20">Baltic (ISO Latin 7)</tspan>
                            </text>
                        </g>
                    </g>
                    <g id="编组" mask="url(#mask-2)" font-family="SourceHanSansSC-Medium, Source Han Sans SC" font-size="14" font-weight="400">
                        <g transform="translate(10.000000, 466.000000)" id="新建文档" fill="#000000">
                            <text>
                                <tspan x="34" y="20">Central European (ISO Latin 4)</tspan>
                            </text>
                        </g>
                    </g>
                    <g id="编组" mask="url(#mask-2)" font-family="SourceHanSansSC-Medium, Source Han Sans SC" font-size="14" font-weight="400">
                        <g transform="translate(10.000000, 436.000000)" id="新建文档" fill="#000000">
                            <text>
                                <tspan x="34" y="20">Central European (ISO Latin 2)</tspan>
                            </text>
                        </g>
                    </g>
                    <g id="编组" mask="url(#mask-2)" font-family="SourceHanSansSC-Medium, Source Han Sans SC" font-size="14" font-weight="400">
                        <g transform="translate(10.000000, 406.000000)" id="新建文档" fill="#000000">
                            <text>
                                <tspan x="34" y="20">Tibetan （x-mac-tibetan)</tspan>
                            </text>
                        </g>
                    </g>
                    <g id="编组" mask="url(#mask-2)" font-family="SourceHanSansSC-Medium, Source Han Sans SC" font-size="14" font-weight="400">
                        <g transform="translate(10.000000, 376.000000)" id="新建文档" fill="#000000">
                            <text>
                                <tspan x="34" y="20">Simplified Chinese（GB2312）</tspan>
                            </text>
                        </g>
                    </g>
                    <g id="编组" mask="url(#mask-2)" font-family="SourceHanSansSC-Medium, Source Han Sans SC" font-size="14" font-weight="400">
                        <g transform="translate(10.000000, 346.000000)" id="新建文档" fill="#000000">
                            <text>
                                <tspan x="34" y="20">Chinese （ISO 2022-CN)</tspan>
                            </text>
                        </g>
                    </g>
                    <g id="编组" mask="url(#mask-2)" font-family="SourceHanSansSC-Medium, Source Han Sans SC" font-size="14" font-weight="400">
                        <g transform="translate(10.000000, 316.000000)" id="新建文档" fill="#000000">
                            <text>
                                <tspan x="34" y="20">Chinese (GB 18030)</tspan>
                            </text>
                        </g>
                    </g>
                    <g id="编组" mask="url(#mask-2)">
                        <g transform="translate(10.000000, 286.000000)" id="menuitem" fill="#000000">
                            <text id="新建文档" font-family="SourceHanSansSC-Medium, Source Han Sans SC" font-size="14" font-weight="400">
                                <tspan x="34" y="20">Chinese (GBK)</tspan>
                            </text>
                            <g id="编组" transform="translate(10.000000, 7.000000)" fill-rule="nonzero">
                                <g id="menuitem_select" transform="translate(0.999997, 1.999956)">
                                    <path d="M11.9161746,0.383335474 C12.2567731,-0.0514186317 12.8853206,-0.127746861 13.3200747,0.212851602 C13.7213861,0.527250183 13.8172933,1.08700174 13.5617837,1.5132029 L13.4905585,1.61675162 L5.65628029,11.6167516 C5.30422001,12.0661361 4.65596945,12.124889 4.22971115,11.7691292 L4.14195676,11.6865417 L0.272871003,7.58844671 C-0.106271436,7.18686302 -0.0880792126,6.55395945 0.313504472,6.17481701 C0.684197104,5.82483938 1.25199071,5.81341909 1.63535592,6.12958944 L1.72713417,6.21545048 L4.79800259,9.46804354 L11.9161746,0.383335474 Z" id="Path-1112"></path>
                                </g>
                            </g>
                        </g>
                    </g>
                    <g id="编组" mask="url(#mask-2)" font-family="SourceHanSansSC-Medium, Source Han Sans SC" font-size="14" font-weight="400">
                        <g transform="translate(10.000000, 256.000000)" id="新建文档" fill="#000000">
                            <text>
                                <tspan x="34" y="20">Simplified Chinese (x-mac-sim-chinese)</tspan>
                            </text>
                        </g>
                    </g>
                    <g id="编组" mask="url(#mask-2)" font-family="SourceHanSansSC-Medium, Source Han Sans SC" font-size="14" font-weight="400">
                        <g transform="translate(10.000000, 226.000000)" id="新建文档" fill="#000000">
                            <text>
                                <tspan x="34" y="20">Thai (ISO 8859-11)</tspan>
                            </text>
                        </g>
                    </g>
                    <g id="编组" mask="url(#mask-2)" font-family="SourceHanSansSC-Medium, Source Han Sans SC" font-size="14" font-weight="400">
                        <g transform="translate(10.000000, 196.000000)" id="新建文档" fill="#000000">
                            <text>
                                <tspan x="34" y="20">Gurmukhi (x-mac-gurmukhi)</tspan>
                            </text>
                        </g>
                    </g>
                    <g id="编组" mask="url(#mask-2)" font-family="SourceHanSansSC-Medium, Source Han Sans SC" font-size="14" font-weight="400">
                        <g transform="translate(10.000000, 166.000000)" id="新建文档" fill="#000000">
                            <text>
                                <tspan x="34" y="20">Devanagari (x-mac-davanagari)</tspan>
                            </text>
                        </g>
                    </g>
                    <g id="编组" mask="url(#mask-2)" font-family="SourceHanSansSC-Medium, Source Han Sans SC" font-size="14" font-weight="400">
                        <g transform="translate(10.000000, 136.000000)" id="新建文档" fill="#000000">
                            <text>
                                <tspan x="34" y="20">Cyrillic (KOI8-R)</tspan>
                            </text>
                        </g>
                    </g>
                    <g id="编组" mask="url(#mask-2)" font-family="SourceHanSansSC-Medium, Source Han Sans SC" font-size="14" font-weight="400">
                        <g transform="translate(10.000000, 106.000000)" id="新建文档" fill="#000000">
                            <text>
                                <tspan x="34" y="20">Cyrillic (ISO 8859-5)</tspan>
                            </text>
                        </g>
                    </g>
                    <g id="编组" mask="url(#mask-2)" font-family="SourceHanSansSC-Medium, Source Han Sans SC" font-size="14" font-weight="400">
                        <g transform="translate(10.000000, 76.000000)" id="新建文档" fill="#000000">
                            <text>
                                <tspan x="34" y="20">Greek (cp869)</tspan>
                            </text>
                        </g>
                    </g>
                    <g id="编组" mask="url(#mask-2)">
                        <g transform="translate(10.000000, 10.000000)" id="搜索" fill="#000000">
                            <rect id="Rectangle-2" fill-opacity="0.08" x="0" y="0" width="320" height="36" rx="8"></rect>
                            <g id="编组" transform="translate(292.000000, 7.000000)" fill-opacity="0.7" fill-rule="nonzero">
                                <g id="形状结合">
                                    <path d="M11,0 C17.0751322,0 22,4.92486775 22,11 C22,17.0751322 17.0751322,22 11,22 C4.92486775,22 0,17.0751322 0,11 C0,4.92486775 4.92486775,0 11,0 Z M11,5 C10.4477153,5 10,5.44771525 10,6 L10,6 L10,16 C10,16.5522847 10.4477153,17 11,17 C11.5522847,17 12,16.5522847 12,16 L12,16 L12,6 C12,5.44771525 11.5522847,5 11,5 Z M7,7 C6.44771525,7 6,7.44771525 6,8 L6,8 L6,14 C6,14.5522847 6.44771525,15 7,15 C7.55228475,15 8,14.5522847 8,14 L8,14 L8,8 C8,7.44771525 7.55228475,7 7,7 Z M15,8 C14.4477153,8 14,8.44771525 14,9 L14,9 L14,13 C14,13.5522847 14.4477153,14 15,14 C15.5522847,14 16,13.5522847 16,13 L16,13 L16,9 C16,8.44771525 15.5522847,8 15,8 Z"></path>
                                </g>
                            </g>
                            <g id="Group" transform="translate(130.334694, 8.000000)" fill-opacity="0.7">
                                <text id="搜索" font-family="SourceHanSansSC-Medium, Source Han Sans SC" font-size="14" font-weight="400">
                                    <tspan x="24.1904762" y="16">搜索</tspan>
                                </text>
                                <g id="编组" transform="translate(0.000000, 2.000000)" fill-rule="nonzero">
                                    <g id="形状结合">
                                        <path d="M7,1 C10.3137085,1 13,3.6862915 13,7 C13,8.38645854 12.5297397,9.6630819 11.7400213,10.6790679 L15.0303301,13.9696699 C15.3232233,14.2625631 15.3232233,14.7374369 15.0303301,15.0303301 C14.7640635,15.2965966 14.3473998,15.3208027 14.0537883,15.1029482 L13.9696699,15.0303301 L10.6790679,11.7400213 C9.6630819,12.5297397 8.38645854,13 7,13 C3.6862915,13 1,10.3137085 1,7 C1,3.6862915 3.6862915,1 7,1 Z M7,2.5 C4.51471863,2.5 2.5,4.51471863 2.5,7 C2.5,9.48528137 4.51471863,11.5 7,11.5 C9.48528137,11.5 11.5,9.48528137 11.5,7 C11.5,4.51471863 9.48528137,2.5 7,2.5 Z"></path>
                                    </g>
                                </g>
                            </g>
                        </g>
                    </g>
                </g>
            </g>
        </g>
    </g>
</svg>