<?xml version="1.0" encoding="UTF-8"?>
<svg width="256px" height="136px" viewBox="0 0 256 136" version="1.1" xmlns="http://www.w3.org/2000/svg" xmlns:xlink="http://www.w3.org/1999/xlink">
    <title>菜单 3</title>
    <defs>
        <rect id="path-1" x="0" y="0" width="230" height="110" rx="18"></rect>
        <filter x="-9.6%" y="-14.5%" width="119.1%" height="140.0%" filterUnits="objectBoundingBox" id="filter-3">
            <feMorphology radius="1" operator="dilate" in="SourceAlpha" result="shadowSpreadOuter1"></feMorphology>
            <feOffset dx="0" dy="6" in="shadowSpreadOuter1" result="shadowOffsetOuter1"></feOffset>
            <feGaussianBlur stdDeviation="6" in="shadowOffsetOuter1" result="shadowBlurOuter1"></feGaussianBlur>
            <feComposite in="shadowBlurOuter1" in2="SourceAlpha" operator="out" result="shadowBlurOuter1"></feComposite>
            <feColorMatrix values="0 0 0 0 0   0 0 0 0 0   0 0 0 0 0  0 0 0 0.2 0" type="matrix" in="shadowBlurOuter1"></feColorMatrix>
        </filter>
    </defs>
    <g id="概览" stroke="none" stroke-width="1" fill="none" fill-rule="evenodd">
        <g id="V23控件-浅色" transform="translate(-955.000000, -5972.000000)">
            <g id="MENU" transform="translate(200.000000, 4956.000000)">
                <g id="菜单-3" transform="translate(768.000000, 1023.000000)">
                    <mask id="mask-2" fill="white">
                        <use xlink:href="#path-1"></use>
                    </mask>
                    <g id="menu_bg">
                        <use fill="black" fill-opacity="1" filter="url(#filter-3)" xlink:href="#path-1"></use>
                        <use fill-opacity="0.8" fill="#EEEEEE" fill-rule="evenodd" xlink:href="#path-1"></use>
                        <rect stroke-opacity="0.06" stroke="#000000" stroke-width="1" x="-0.5" y="-0.5" width="231" height="111" rx="18"></rect>
                        <rect stroke-opacity="0.1" stroke="#FFFFFF" stroke-width="1" stroke-linejoin="square" x="0.5" y="0.5" width="229" height="109" rx="18"></rect>
                    </g>
                    <g id="编组" mask="url(#mask-2)">
                        <g transform="translate(10.000000, 70.000000)" id="menuitem" fill="#000000">
                            <text id="新建文档" font-family="SourceHanSansSC-Medium, Source Han Sans SC" font-size="14" font-weight="400">
                                <tspan x="34" y="20">视频</tspan>
                            </text>
                            <g id="编组" transform="translate(186.000000, 7.000000)" fill-rule="nonzero">
                                <g id="ICON/Action/Copy">
                                    <path d="M12,1 C13.1045695,1 14,1.8954305 14,3 L14,12 C14,13.1045695 13.1045695,14 12,14 L4,14 C2.8954305,14 2,13.1045695 2,12 L2,3 C2,1.8954305 2.8954305,1 4,1 L12,1 Z M5,11 L3,11 L3,12 C3,12.5522847 3.44771525,13 4,13 L4,13 L5,13 L5,11 Z M13,11 L11,11 L11,13 L12,13 C12.5522847,13 13,12.5522847 13,12 L13,12 L13,11 Z M5,8 L3,8 L3,10 L5,10 L5,8 Z M13,8 L11,8 L11,10 L13,10 L13,8 Z M5,5 L3,5 L3,7 L5,7 L5,5 Z M13,5 L11,5 L11,7 L13,7 L13,5 Z M5,2 L4,2 C3.44771525,2 3,2.44771525 3,3 L3,3 L3,4 L5,4 L5,2 Z M12,2 L11,2 L11,4 L13,4 L13,3 C13,2.44771525 12.5522847,2 12,2 L12,2 Z" id="形状结合"></path>
                                </g>
                            </g>
                        </g>
                    </g>
                    <g id="编组" mask="url(#mask-2)">
                        <g transform="translate(10.000000, 40.000000)" id="menuitem" fill="#000000">
                            <text id="新建文档" font-family="SourceHanSansSC-Medium, Source Han Sans SC" font-size="14" font-weight="400">
                                <tspan x="34" y="20">照片</tspan>
                            </text>
                            <g id="编组" transform="translate(10.000000, 7.000000)" fill-rule="nonzero">
                                <g id="menuitem_select" transform="translate(0.999997, 1.999956)">
                                    <path d="M11.9161746,0.383335474 C12.2567731,-0.0514186317 12.8853206,-0.127746861 13.3200747,0.212851602 C13.7213861,0.527250183 13.8172933,1.08700174 13.5617837,1.5132029 L13.4905585,1.61675162 L5.65628029,11.6167516 C5.30422001,12.0661361 4.65596945,12.124889 4.22971115,11.7691292 L4.14195676,11.6865417 L0.272871003,7.58844671 C-0.106271436,7.18686302 -0.0880792126,6.55395945 0.313504472,6.17481701 C0.684197104,5.82483938 1.25199071,5.81341909 1.63535592,6.12958944 L1.72713417,6.21545048 L4.79800259,9.46804354 L11.9161746,0.383335474 Z" id="Path-1112"></path>
                                </g>
                            </g>
                            <g id="编组" transform="translate(186.000000, 7.000000)" fill-rule="nonzero">
                                <g id="ICON/Action/Copy">
                                    <path d="M12.9941413,2 C14.1019465,2 15,2.90195036 15,4.0085302 L15,11.9914698 C15,13.1007504 14.1029399,14 12.9941413,14 L3.00585866,14 C1.89805351,14 1,13.0980496 1,11.9914698 L1,4.0085302 C1,2.8992496 1.89706013,2 3.00585866,2 L12.9941413,2 Z M9.08397485,6.2226499 L7.72024506,9.04429842 C7.59860716,9.29597539 7.37731028,9.30163722 7.23410064,9.07009862 L6.35355339,7.64644661 C6.13507881,7.42797203 5.77271827,7.4579619 5.59313326,7.7093809 L3.09313326,11.2093809 C2.85675167,11.5403151 3.09331372,12 3.5,12 L12.5,12 C12.8886472,12 13.1287038,11.5760144 12.9287465,11.2427521 L9.92874646,6.24275212 C9.73989719,5.92800333 9.28758145,5.91724 9.08397485,6.2226499 Z M4.5,4 C3.67157288,4 3,4.67157288 3,5.5 C3,6.32842712 3.67157288,7 4.5,7 C5.32842712,7 6,6.32842712 6,5.5 C6,4.67157288 5.32842712,4 4.5,4 Z" id="Combined-Shape"></path>
                                </g>
                            </g>
                        </g>
                    </g>
                    <g id="编组" mask="url(#mask-2)">
                        <g transform="translate(10.000000, 10.000000)" id="menuitem" fill="#000000">
                            <text id="新建文档" font-family="SourceHanSansSC-Medium, Source Han Sans SC" font-size="14" font-weight="400">
                                <tspan x="34" y="20">所有项目</tspan>
                            </text>
                            <g id="编组" transform="translate(186.000000, 7.000000)" fill-rule="nonzero">
                                <g id="ICON/Action/Copy">
                                    <path d="M12,5 C13.1045695,5 14,5.8954305 14,7 L14,13 C14,14.1045695 13.1045695,15 12,15 L4,15 C2.8954305,15 2,14.1045695 2,13 L2,7 C2,5.8954305 2.8954305,5 4,5 L12,5 Z M11.0826494,7.17887422 C10.794836,6.92076087 10.352275,6.94483749 10.0941616,7.23265086 L10.0941616,7.23265086 L7.01980456,10.6599563 L6.2136912,9.78984206 L6.12983515,9.71274303 C5.86408024,9.50551999 5.47980937,9.51531677 5.22447755,9.75167981 C4.94077553,10.0143054 4.92368971,10.4571914 5.1863153,10.7408935 L5.1863153,10.7408935 L6.51437363,12.1755321 L6.59539335,12.2504468 C6.87992278,12.4748633 7.29897716,12.44637 7.54919379,12.167362 L7.54919379,12.167362 L11.136426,8.16736199 L11.2054128,8.07671474 C11.3870867,7.79288089 11.3416814,7.41117624 11.0826494,7.17887422 Z M12,3 C12.5522847,3 13,3.44771525 13,4 L13,4.99898861 C12.9994923,4.48658446 12.6135966,4.06441519 12.1165511,4.0067196 L12,4 L4,4 C3.48716416,4 3.06449284,4.38604019 3.00672773,4.88337887 L3,4.998 L3,4 C3,3.44771525 3.44771525,3 4,3 L12,3 Z M11,1 C11.5522847,1 12,1.44771525 12,2 L4,2 C4,1.44771525 4.44771525,1 5,1 L11,1 Z" id="形状结合"></path>
                                </g>
                            </g>
                        </g>
                    </g>
                </g>
            </g>
        </g>
    </g>
</svg>