<?xml version="1.0" encoding="UTF-8"?>
<svg width="32px" height="32px" viewBox="0 0 32 32" version="1.1" xmlns="http://www.w3.org/2000/svg" xmlns:xlink="http://www.w3.org/1999/xlink">
    <!-- Generator: Sketch 56.2 (81672) - https://sketch.com -->
    <title>lingmo-movie-player</title>
    <desc>Created with Sketch.</desc>
    <defs>
        <filter x="-14.3%" y="-14.3%" width="128.6%" height="128.6%" filterUnits="objectBoundingBox" id="filter-1">
            <feOffset dx="0" dy="1" in="SourceAlpha" result="shadowOffsetOuter1"></feOffset>
            <feGaussianBlur stdDeviation="0.5" in="shadowOffsetOuter1" result="shadowBlurOuter1"></feGaussianBlur>
            <feComposite in="shadowBlurOuter1" in2="SourceAlpha" operator="out" result="shadowBlurOuter1"></feComposite>
            <feColorMatrix values="0 0 0 0 0   0 0 0 0 0   0 0 0 0 0  0 0 0 0.15 0" type="matrix" in="shadowBlurOuter1" result="shadowMatrixOuter1"></feColorMatrix>
            <feMerge>
                <feMergeNode in="shadowMatrixOuter1"></feMergeNode>
                <feMergeNode in="SourceGraphic"></feMergeNode>
            </feMerge>
        </filter>
        <linearGradient x1="50%" y1="2.37536127%" x2="50%" y2="100%" id="linearGradient-2">
            <stop stop-color="#3E3E3E" offset="0%"></stop>
            <stop stop-color="#0F0F0F" offset="100%"></stop>
        </linearGradient>
        <linearGradient x1="40.7675756%" y1="0%" x2="50%" y2="100%" id="linearGradient-3">
            <stop stop-color="#B0FAFF" offset="0%"></stop>
            <stop stop-color="#0D96C2" offset="100%"></stop>
        </linearGradient>
    </defs>
    <g id="页面-1" stroke="none" stroke-width="1" fill="none" fill-rule="evenodd">
        <g id="按钮规范" transform="translate(-125.000000, -71.000000)">
            <g id="lingmo-movie-player" transform="translate(125.000000, 71.000000)">
                <g id="lingmo-movie-32px">
                    <g id="7-movie" filter="url(#filter-1)" transform="translate(2.000000, 2.000000)">
                        <circle id="Oval" stroke="url(#linearGradient-3)" stroke-width="1.33333333" fill="url(#linearGradient-2)" cx="14" cy="14" r="13.3333333"></circle>
                        <g id="Group" transform="translate(9.000000, 7.500000)">
                            <path d="M2.19413725,12.9553134 C0.982348709,13.646905 0,13.0799728 0,11.6860506 L0,1.56233394 C0,0.169747825 0.987856127,-0.395377287 2.19413725,0.293071154 L11.0932227,5.37195483 C12.3050112,6.06354646 12.2995038,7.18798124 11.0932227,7.87642968 L2.19413725,12.9553134 Z" id="Path-359" fill="#FF006B"></path>
                            <path d="M8,3.60659159 L8,9.64179291 L4,11.9246718 L4,1.32371266 L8,3.60659159 Z M2.11286745,13 L0.495516482,13 C0.881904476,13.3217433 1.46111899,13.3447254 2.11286745,13 Z M0,11.6860506 L0,1.56233394 L0,11.6860506 Z" id="Combined-Shape" fill="#FFB600"></path>
                            <path d="M4,1.32371266 L4,11.9246718 L2.19413725,12.9553134 C0.982348709,13.646905 0,13.0799728 0,11.6860506 L0,1.56233394 C0,0.169747825 0.987856127,-0.395377287 2.19413725,0.293071154 L4,1.32371266 Z" id="Combined-Shape" fill="#1473FF"></path>
                        </g>
                    </g>
                </g>
            </g>
        </g>
    </g>
</svg>