<svg xmlns="http://www.w3.org/2000/svg" xmlns:xlink="http://www.w3.org/1999/xlink" width="14" height="14" viewBox="0 0 14 14">
  <defs>
    <polygon id="caution-b" points="7 .5 14 12 0 12"/>
    <filter id="caution-a" width="257.1%" height="291.3%" x="-78.6%" y="-60.9%" filterUnits="objectBoundingBox">
      <feOffset dy="4" in="SourceAlpha" result="shadowOffsetOuter1"/>
      <feGaussianBlur in="shadowOffsetOuter1" result="shadowBlurOuter1" stdDeviation="3"/>
      <feColorMatrix in="shadowBlurOuter1" values="0 0 0 0 0.97254902   0 0 0 0 0.881246572   0 0 0 0 0.17254902  0 0 0 0.4 0"/>
    </filter>
  </defs>
  <g fill="none" fill-rule="evenodd">
    <use fill="#000" filter="url(#caution-a)" xlink:href="#caution-b"/>
    <use fill="#F8CB00" xlink:href="#caution-b"/>
    <path fill="#FFF" d="M7.01036297,9 C7.56837103,9 8.02072594,9.44771525 8.02072594,10 C8.02072594,10.5522847 7.56837103,11 7.01036297,11 C6.45235491,11 6,10.5522847 6,10 C6,9.44771525 6.45235491,9 7.01036297,9 Z M7.02072594,3 C7.57301069,3 8.02072594,3.44771525 8.02072594,4 L8.02072594,7 C8.02072594,7.55228475 7.57301069,8 7.02072594,8 L7,8 C6.44771525,8 6,7.55228475 6,7 L6,4 C6,3.44771525 6.44771525,3 7,3 L7.02072594,3 Z"/>
  </g>
</svg>
