<svg xmlns="http://www.w3.org/2000/svg" width="14" height="14" viewBox="0 0 14 14">
  <path fill="#536076" fill-rule="evenodd" d="M7,1 C7.27614237,1 7.5,1.22385763 7.5,1.5 L7.5,6.5 L12.5,6.5 C12.7761424,6.5 13,6.72385763 13,7 C13,7.27614237 12.7761424,7.5 12.5,7.5 L7.5,7.5 L7.5,12.5 C7.5,12.7761424 7.27614237,13 7,13 C6.72385763,13 6.5,12.7761424 6.5,12.5 L6.5,7.5 L1.5,7.5 C1.22385763,7.5 1,7.27614237 1,7 C1,6.72385763 1.22385763,6.5 1.5,6.5 L6.5,6.5 L6.5,1.5 C6.5,1.22385763 6.72385763,1 7,1 Z" transform="rotate(45 7 7)"/>
</svg>
