<svg xmlns="http://www.w3.org/2000/svg" width="28" height="36" viewBox="0 0 28 36">
  <g fill="none" fill-rule="evenodd">
    <path fill="#FFF" stroke="#E3E3E3" d="M27.5,8.21603633 L19.3017114,0.5 L4,0.5 C2.06700338,0.5 0.5,2.06700338 0.5,4 L0.5,32 C0.5,33.9329966 2.06700338,35.5 4,35.5 L24,35.5 C25.9329966,35.5 27.5,33.9329966 27.5,32 L27.5,8.21603633 Z"/>
    <path fill="#414D68" fill-rule="nonzero" d="M6.5,0 C7.6045695,0 8.5,0.8954305 8.5,2 C8.5,3.1045695 7.6045695,4 6.5,4 C5.3954305,4 4.5,3.1045695 4.5,2 C4.5,0.8954305 5.3954305,0 6.5,0 Z M10.6141014,12.1442897 C10.5616652,11.9346695 9.89441424,9.51846081 9,8.63136355 L9,22.5614717 C9,22.5614717 8.92697781,23.4064871 7.99018139,23.4078392 C7.99018139,23.4078392 7.41485546,23.4827076 7.05530114,22.5614717 L7.05530114,14.0024787 L6.5,14.0024787 L5.94453221,14 L5.94453221,22.5628237 C5.58486682,23.4845103 4.99143539,23.4078392 4.99143536,23.4078392 C4.27422369,23.4078392 4,22.5614717 4,22.5614717 L4,8.63136355 C3.10530802,9.51885515 2.45357898,11.9345568 2.40114283,12.1442897 C2.34870668,12.3540225 1.86415476,13.3468958 1.27860275,13.1549845 C0.693050734,12.9630733 0.134455096,12.7873804 1.74170227,9 C3.34894944,5.21261956 6.1383643,5.00586492 6.5,5.00586492 C7,5.00586492 9.87300384,5.12210676 11.3105038,9 C12.7480039,12.8778932 12.325285,12.9941351 11.7198975,13.1578576 C11.11451,13.32158 10.6665375,12.3539098 10.6141014,12.1442897 Z" opacity=".7" transform="translate(7 6)"/>
  </g>
</svg>
