<svg xmlns="http://www.w3.org/2000/svg" width="36" height="28" viewBox="0 0 36 28">
  <g fill="none" fill-rule="evenodd">
    <path fill="#FFF" stroke="#E3E3E3" d="M31.5,4.21603633 L23.3017114,-3.5 L8,-3.5 C6.06700338,-3.5 4.5,-1.93299662 4.5,0 L4.5,28 C4.5,29.9329966 6.06700338,31.5 8,31.5 L28,31.5 C29.9329966,31.5 31.5,29.9329966 31.5,28 L31.5,4.21603633 Z" transform="matrix(0 -1 -1 0 32 32)"/>
    <path fill="#414D68" fill-rule="nonzero" d="M6.5,5.00586492 C7,5.00586492 9.87300384,5.12210676 11.3105038,9 C12.7480039,12.8778932 12.325285,12.9941351 11.7198975,13.1578576 C11.11451,13.32158 10.6665375,12.3539098 10.6141014,12.1442897 C10.5616652,11.9346695 9.89441424,9.51846081 9,8.63136355 L8.99946564,18 L7.05446564,18 L7.05530114,14.0024787 L6.5,14.0024787 L5.94453221,14 L5.94446564,18 L3.99946564,18 L4,8.63136355 C3.10530802,9.51885515 2.45357898,11.9345568 2.40114283,12.1442897 C2.34870668,12.3540225 1.86415476,13.3468958 1.27860275,13.1549845 L1.1991227,13.1285746 C0.646744194,12.939639 0.207511786,12.6152268 1.74170227,9 C3.34894944,5.21261956 6.1383643,5.00586492 6.5,5.00586492 Z M6.5,0 C7.6045695,0 8.5,0.8954305 8.5,2 C8.5,3.1045695 7.6045695,4 6.5,4 C5.3954305,4 4.5,3.1045695 4.5,2 C4.5,0.8954305 5.3954305,0 6.5,0 Z" opacity=".7" transform="translate(11 5)"/>
  </g>
</svg>
