<?xml version="1.0" encoding="UTF-8"?>
<svg width="17px" height="16px" viewBox="0 0 17 16" version="1.1" xmlns="http://www.w3.org/2000/svg" xmlns:xlink="http://www.w3.org/1999/xlink">
    <title>编组 22</title>
    <g id="v5.9" stroke="none" stroke-width="1" fill="none" fill-rule="evenodd">
        <g id="编组-22" transform="translate(0.860237, 0.000000)">
            <rect id="矩形备份-4" fill-opacity="0" fill="#D8D8D8" x="0" y="0" width="16" height="16"></rect>
            <g id="编组-18" transform="translate(1.000000, 2.000000)">
                <path d="M11.5,10 C11.8886472,10 12.1287038,9.57601438 11.9287465,9.24275212 L8.92874646,4.24275212 C8.73989719,3.92800333 8.28758145,3.91724 8.08397485,4.2226499 L6.72024506,7.04429842 C6.59860716,7.29597539 6.37731028,7.30163722 6.23410064,7.07009862 L5.35355339,5.64644661 C5.13507881,5.42797203 4.77271827,5.4579619 4.59313326,5.7093809 L2.09313326,9.2093809 C1.85675167,9.54031514 2.09331372,10 2.5,10 L11.5,10 Z" id="Combined-Shape" fill="#000000"></path>
                <path d="M5,3.5 C5,2.67157288 4.32842712,2 3.5,2 C2.67157288,2 2,2.67157288 2,3.5 C2,4.32842712 2.67157288,5 3.5,5 C4.32842712,5 5,4.32842712 5,3.5 Z" id="Oval-2" fill="#000000"></path>
                <rect id="Rectangle-50" stroke="#000000" stroke-width="0.8" x="0.4" y="0.4" width="13.2" height="11.2" rx="2"></rect>
            </g>
        </g>
    </g>
</svg>