<?xml version="1.0" encoding="UTF-8"?>
<svg width="16px" height="16px" viewBox="0 0 16 16" version="1.1" xmlns="http://www.w3.org/2000/svg" xmlns:xlink="http://www.w3.org/1999/xlink">
    <title>编组 21</title>
    <g id="v5.9" stroke="none" stroke-width="1" fill="none" fill-rule="evenodd">
        <g id="编组-21">
            <rect id="矩形" fill-opacity="0" fill="#D8D8D8" x="0" y="0" width="16" height="16"></rect>
            <g id="编组-20" transform="translate(1.999591, 2.000000)" stroke="#FFFFFF" stroke-width="0.8">
                <path d="M3.87142857,7.02857143 C4.17518518,7.02857143 4.45018518,7.15169312 4.64924603,7.35075397 C4.84830688,7.54981482 4.97142857,7.82481482 4.97142857,8.12857143 L4.97142857,8.12857143 L4.97142857,11.3 C4.97142857,11.6037566 4.84830688,11.8787566 4.64924603,12.0778175 C4.45018518,12.2768783 4.17518518,12.4 3.87142857,12.4 L3.87142857,12.4 L0.7,12.4 C0.396243388,12.4 0.121243388,12.2768783 -0.0778174593,12.0778175 C-0.276878306,11.8787566 -0.4,11.6037566 -0.4,11.3 L-0.4,11.3 L-0.4,8.12857143 C-0.4,7.82481482 -0.276878306,7.54981482 -0.0778174593,7.35075397 C0.121243388,7.15169312 0.396243388,7.02857143 0.7,7.02857143 L0.7,7.02857143 Z M11.3008172,9.6 C11.6045738,9.6 11.8795738,9.72312169 12.0786347,9.92218254 C12.2776955,10.1212434 12.4008172,10.3962434 12.4008172,10.7 L12.4008172,10.7 L12.4008172,11.3 C12.4008172,11.6037566 12.2776955,11.8787566 12.0786347,12.0778175 C11.8795738,12.2768783 11.6045738,12.4 11.3008172,12.4 L11.3008172,12.4 L8.12938866,12.4 C7.82563205,12.4 7.55063205,12.2768783 7.35157121,12.0778175 C7.15251036,11.8787566 7.02938866,11.6037566 7.02938866,11.3 L7.02938866,11.3 L7.02938866,10.7 C7.02938866,10.3962434 7.15251036,10.1212434 7.35157121,9.92218254 C7.55063205,9.72312169 7.82563205,9.6 8.12938866,9.6 L8.12938866,9.6 Z M11.3008172,-0.4 C11.6045738,-0.4 11.8795738,-0.276878306 12.0786347,-0.0778174593 C12.2776955,0.121243388 12.4008172,0.396243388 12.4008172,0.7 L12.4008172,0.7 L12.4008172,6.45170251 C12.4008172,6.75545912 12.2776955,7.03045912 12.0786347,7.22951996 C11.8795738,7.42858081 11.6045738,7.55170251 11.3008172,7.55170251 L11.3008172,7.55170251 L8.12938866,7.55170251 C7.82563205,7.55170251 7.55063205,7.42858081 7.35157121,7.22951996 C7.15251036,7.03045912 7.02938866,6.75545912 7.02938866,6.45170251 L7.02938866,6.45170251 L7.02938866,0.7 C7.02938866,0.396243388 7.15251036,0.121243388 7.35157121,-0.0778174593 C7.55063205,-0.276878306 7.82563205,-0.4 8.12938866,-0.4 L8.12938866,-0.4 Z M3.87142857,-0.4 C4.17518518,-0.4 4.45018518,-0.276878306 4.64924603,-0.0778174593 C4.84830688,0.121243388 4.97142857,0.396243388 4.97142857,0.7 L4.97142857,0.7 L4.97142857,3.87142857 C4.97142857,4.17518518 4.84830688,4.45018518 4.64924603,4.64924603 C4.45018518,4.84830688 4.17518518,4.97142857 3.87142857,4.97142857 L3.87142857,4.97142857 L0.7,4.97142857 C0.396243388,4.97142857 0.121243388,4.84830688 -0.0778174593,4.64924603 C-0.276878306,4.45018518 -0.4,4.17518518 -0.4,3.87142857 L-0.4,3.87142857 L-0.4,0.7 C-0.4,0.396243388 -0.276878306,0.121243388 -0.0778174593,-0.0778174593 C0.121243388,-0.276878306 0.396243388,-0.4 0.7,-0.4 L0.7,-0.4 Z" id="形状结合"></path>
            </g>
        </g>
    </g>
</svg>