<?xml version="1.0" encoding="utf-8"?>
<!-- Generator: Adobe Illustrator 24.0.0, SVG Export Plug-In . SVG Version: 6.00 Build 0)  -->
<svg version="1.1" id="图层_1" xmlns="http://www.w3.org/2000/svg" xmlns:xlink="http://www.w3.org/1999/xlink" x="0px" y="0px"
	 viewBox="0 0 32 32" style="enable-background:new 0 0 32 32;" xml:space="preserve">
<style type="text/css">
	.st0{fill:#607D8B;}
	.st1{fill:#324347;}
	.st2{fill:#4CAF50;}
	.st3{fill:#03A9F4;}
	.st4{fill:#324347;stroke:#324347;stroke-width:0.4;stroke-miterlimit:10;}
	.st5{fill:#FA6056;}
	.st6{fill:none;stroke:#FFFFFF;stroke-miterlimit:10;}
</style>
<rect x="15.4" y="21.7" class="st0" width="1.3" height="4.4"/>
<rect x="1.2" y="26.3" class="st0" width="29.6" height="0.9"/>
<path class="st1" d="M10.8,24.7h10.3c1.1,0,2,0.9,2,2v0c0,1.1-0.9,2-2,2H10.8c-1.1,0-2-0.9-2-2v0C8.9,25.5,9.7,24.7,10.8,24.7z"/>
<ellipse class="st2" cx="11.2" cy="26.6" rx="0.6" ry="0.6"/>
<rect x="1.4" y="3.8" class="st3" width="29.2" height="17.9"/>
<path class="st4" d="M1,3.4v18.7h30V3.4H1z M30.6,21.7H1.4V3.8h29.2V21.7z"/>
<circle class="st5" cx="26.5" cy="26.5" r="5.5"/>
<line class="st6" x1="24" y1="24" x2="29" y2="29"/>
<line class="st6" x1="29" y1="24" x2="24" y2="29"/>
</svg>
