<?xml version="1.0" encoding="UTF-8"?>
<svg width="32px" height="32px" viewBox="0 0 32 32" version="1.1" xmlns="http://www.w3.org/2000/svg" xmlns:xlink="http://www.w3.org/1999/xlink">
    <title>list2_icon/input-method/normal</title>
    <g id="list2_icon/input-method/normal" stroke="none" stroke-width="1" fill="none" fill-rule="evenodd">
        <path d="M23,6 C25.209139,6 27,7.790861 27,10 L27,22 C27,24.209139 25.209139,26 23,26 L9,26 C6.790861,26 5,24.209139 5,22 L5,10 C5,7.790861 6.790861,6 9,6 L23,6 Z M21.9648438,16.1079102 C21.3811849,16.1079102 20.8682454,16.2466634 20.4260254,16.5241699 C20.0240072,16.7764486 19.7973263,17.2070239 19.7459828,17.8158958 L19.7358398,18.0039062 L20.6381836,18.0039062 C20.6739909,17.7067057 20.7509766,17.4829102 20.8691406,17.3325195 C21.0804036,17.0603841 21.4384766,16.9243164 21.9433594,16.9243164 C22.3802083,16.9243164 22.7159017,16.9986165 22.9504395,17.1472168 C23.1849772,17.2958171 23.3022461,17.5348307 23.3022461,17.8642578 C23.3022461,18.0253906 23.2807617,18.1489258 23.237793,18.2348633 C23.1751302,18.3661567 23.0614918,18.452691 22.8968777,18.4944661 L22.7919922,18.5141602 L21.2504883,18.7075195 C20.7097982,18.7755534 20.2729492,18.9563802 19.9399414,19.25 C19.6069336,19.5436198 19.4404297,19.957194 19.4404297,20.4907227 C19.4404297,20.9777018 19.6096191,21.3832194 19.947998,21.7072754 C20.286377,22.0313314 20.7223307,22.1933594 21.2558594,22.1933594 C21.6998698,22.1933594 22.1062826,22.0984701 22.4750977,21.9086914 C22.8439128,21.7189128 23.1267904,21.4951172 23.3237305,21.2373047 C23.355957,21.4664714 23.4114583,21.6437174 23.4902344,21.769043 C23.640625,22.0053711 23.8823242,22.1235352 24.215332,22.1235352 C24.3513997,22.1235352 24.4588216,22.1181641 24.5375977,22.1074219 C24.5966797,22.0993652 24.6759033,22.0822449 24.7752686,22.0560608 L24.8813477,22.0268555 L24.8813477,21.3125 C24.8204753,21.3232422 24.7631836,21.3312988 24.7094727,21.3366699 C24.6557617,21.342041 24.6074219,21.3447266 24.5644531,21.3447266 C24.4319661,21.3447266 24.3451335,21.3142904 24.3039551,21.253418 C24.2765028,21.2128364 24.2582013,21.1635019 24.2490506,21.1054145 L24.2421875,21.0117188 L24.2421875,17.6977539 C24.2421875,17.1534831 24.0327148,16.7524414 23.6137695,16.4946289 C23.1912435,16.2368164 22.6416016,16.1079102 21.9648438,16.1079102 Z M14.4580078,9.99126778 L12.590332,9.99126778 L8,22 L9.69335937,22 L11.0131836,18.3476563 L15.8359375,18.3476563 L17.0727539,22 L18.8823242,22 L14.4580078,9.99126778 Z M23.2753906,19.0727539 L23.2753906,19.8515625 C23.2753906,20.4459635 23.0068359,20.8738607 22.4697266,21.1352539 C22.1510417,21.292806 21.8216146,21.371582 21.4814453,21.371582 C21.2021484,21.371582 20.9604492,21.2910156 20.7563477,21.1298828 C20.5522461,20.96875 20.4501953,20.7485352 20.4501953,20.4692383 C20.4501953,20.1004232 20.5987956,19.8318685 20.8959961,19.6635742 C21.0422092,19.5800239 21.2493444,19.5151232 21.5174018,19.4688721 L21.6855469,19.4433594 L22.2709961,19.3681641 C22.4500326,19.3466797 22.6326497,19.3108724 22.8188477,19.2607422 C22.9584961,19.2231445 23.07901,19.1784973 23.1803894,19.1268005 L23.2753906,19.0727539 Z M13.4536133,11.6157227 L15.3046875,17.0029297 L11.4863281,17.0029297 L13.4536133,11.6157227 Z" id="合并形状" fill="#29B2DC"></path>
    </g>
</svg>