<?xml version="1.0" encoding="UTF-8"?>
<svg width="16px" height="16px" viewBox="0 0 16 16" version="1.1" xmlns="http://www.w3.org/2000/svg" xmlns:xlink="http://www.w3.org/1999/xlink">
    <title>shutdown-symbolic-dark</title>
    <g id="shutdown-symbolic-dark" stroke="none" stroke-width="1" fill="none" fill-rule="evenodd">
        <path d="M11.6887466,1.44012016 C11.7499451,1.47475175 11.8106502,1.51024199 11.8708445,1.54657905 C14.104982,2.89524466 15.5,5.31318968 15.5,7.97170229 C15.5,12.1138379 12.1421356,15.4717023 8,15.4717023 C3.8578644,15.4717023 0.5,12.1138379 0.5,7.97170229 C0.5,5.31343806 1.89475604,2.89568655 4.12855791,1.54693983 L4.29635683,1.44857245 C4.53637524,1.31202291 4.84164387,1.39590101 4.97819341,1.63591942 C5.11474294,1.87593782 5.03086485,2.18120645 4.79084644,2.31775599 C4.74201006,2.34553963 4.69353633,2.37395636 4.64543716,2.40299815 C2.70847243,3.57251763 1.5,5.66735428 1.5,7.97170229 C1.5,11.5615531 4.41014915,14.4717023 8,14.4717023 C11.5898508,14.4717023 14.5,11.5615531 14.5,7.97170229 C14.5,5.66713918 13.2913003,3.57213441 11.3540449,2.40268548 L11.1962459,2.31043217 C10.9559158,2.17443184 10.8713399,1.86935581 11.0073402,1.62902578 C11.1433406,1.38869575 11.4484166,1.30411983 11.6887466,1.44012016 Z M8.00000018,1 C8.70000017,1 8.70000017,1.69999981 8.70000017,1.69999981 L8.70000017,7.30000019 C8.70000017,7.30000019 8.70000017,8 8.00000018,8 C7.34666686,8 7.3031113,7.39022239 7.3002076,7.30891871 L7.30000019,1.69999981 C7.30000019,1.69999981 7.30000019,1 8.00000018,1 Z" id="形状结合" fill="#000000" fill-rule="nonzero"></path>
    </g>
</svg>