<?xml version="1.0" encoding="UTF-8"?>
<svg width="140px" height="140px" viewBox="0 0 140 140" version="1.1" xmlns="http://www.w3.org/2000/svg" xmlns:xlink="http://www.w3.org/1999/xlink">
    <!-- Generator: Sketch 58 (84663) - https://sketch.com -->
    <title>Icon/Take up_dark</title>
    <desc>Created with Sketch.</desc>
    <g id="Icon/Take-up_dark" stroke="none" stroke-width="1" fill="none" fill-rule="evenodd">
        <g id="编组">
            <rect id="矩形" fill="#D8D8D8" opacity="0" x="0" y="0" width="140" height="140"></rect>
            <path d="M70.7940604,23 C92.8334564,23 110.70047,40.8414159 110.70047,62.829617 C110.70047,71.4744315 107.937998,79.4745201 103.249858,86.0036732 L124.289575,98.1519238 C125.724453,98.9803509 126.216078,100.815122 125.387651,102.25 C124.559224,103.684878 122.724453,104.176503 121.289575,103.348076 L99.3293715,90.6695494 C96.8755547,93.1761173 94.0939024,95.36124 91.0544342,97.1557844 C91.067233,97.1557845 99.5527844,111.874313 99.5655831,111.874313 C100.968541,114.304435 99.2820066,117.323033 96.5218194,117.450384 L96.3403057,117.454554 L45.247815,117.454554 C42.4418998,117.454554 40.6658152,114.487662 41.9353997,112.045596 L42.0225375,111.887111 L50.5336864,97.1685831 C38.7716626,90.2316769 30.887651,77.4585541 30.887651,62.8424157 C30.887651,59.0902254 31.407332,55.4590209 32.3787616,52.0166713 L16.5005009,42.8480762 C15.0656231,42.0196491 14.5739976,40.1848779 15.4024247,38.75 C16.2308518,37.3151221 18.0656231,36.8234967 19.5005009,37.6519238 L34.4798202,46.300277 C40.7727842,32.5538499 54.6662935,23 70.7940604,23 Z M47.8587539,62.8424157 C47.8587539,75.4747525 58.1233275,85.7265274 70.7940604,85.7265274 C75.6203381,85.7265274 80.0975194,84.2391533 83.7913272,81.6993892 L74.7356902,76.4707149 C73.4838062,76.8306131 72.1612823,77.0233976 70.7940604,77.0233976 C64.1083772,77.0233976 58.5065565,72.4192984 56.9835012,66.2217654 L47.932266,60.9955559 C47.8835693,61.604738 47.8587539,62.2206683 47.8587539,62.8424157 Z M70.7940604,39.9583041 C60.9396342,39.9583041 52.5406122,46.1515131 49.2937752,54.8531917 L60.5293888,61.3402477 C62.0190895,61.033187 63.5484631,60.2201998 64.8298567,58.9388061 C67.6583739,56.1102889 68.2087189,52.0658934 66.0585339,49.9157084 C65.9433454,49.80052 65.8153581,49.6853315 65.6745722,49.5829417 C67.2616136,48.9686031 68.9894409,48.6358364 70.7940604,48.6358364 C78.6396757,48.6358364 85.0134384,54.9840015 85.0134384,62.829617 C85.0134384,66.8171822 83.3669547,70.4179229 80.7175748,72.9949731 L88.4437396,77.4560138 C91.7448011,73.4911805 93.7293667,68.3969285 93.7293667,62.8424157 C93.7293667,50.210079 83.4647932,39.9583041 70.7940604,39.9583041 Z" id="形状结合" fill="#323232"></path>
        </g>
    </g>
</svg>