<?xml version="1.0" encoding="UTF-8"?>
<svg width="36px" height="36px" viewBox="0 0 36 36" version="1.1" xmlns="http://www.w3.org/2000/svg" xmlns:xlink="http://www.w3.org/1999/xlink">
    <!-- Generator: Sketch 58 (84663) - https://sketch.com -->
    <title>button/Switch camera</title>
    <desc>Created with Sketch.</desc>
    <g id="button/Switch-camera" stroke="none" stroke-width="1" fill="none" fill-rule="evenodd">
        <g id="适合窗口">
            <g>
                <g id="button/Switch-camera" transform="translate(8.000000, 8.000000)">
                    <rect id="矩形" fill="#FF6969" opacity="0" x="0" y="0" width="20" height="20"></rect>
                    <path d="M3.11082092,12.1390861 C3.11082092,12.1390861 2.96683532,12.2110789 2.75085692,12.3550645 C2.51688032,12.5170483 2.19291272,12.7312269 1.90494151,13.0731927 C1.7609559,13.2351765 1.63496851,13.4493551 1.5809739,13.6653335 C1.50898113,13.8993101 1.54497753,14.1134887 1.67096492,14.3114689 C1.92293972,14.7074293 2.48088392,15.0295971 3.07482453,15.2455755 C4.28070394,15.6937306 5.71876013,15.8557144 6.96063594,15.9277072 C7.32059994,15.9457054 7.66256575,15.9637036 7.98653336,15.9637036 L7.98473353,15.9637036 L7.98473353,14.9756024 L10.3244996,16.9878012 L7.98653336,19 L7.98653336,17.849915 C7.59057294,17.7959204 7.15861615,17.7239276 6.72665934,17.6339366 C5.39479253,17.3459654 3.90274173,16.9158084 2.60687132,16.1436856 C2.28290372,15.9457054 1.97693432,15.7315268 1.72495951,15.479552 C1.45498651,15.209579 1.2030117,14.9054094 1.0770243,14.5454454 C0.951036905,14.1854814 0.987033301,13.7733227 1.1310189,13.4853515 C1.27500451,13.1991801 1.4909829,13.0011999 1.68896311,12.8392161 C2.10292172,12.5350465 2.46288573,12.3910609 2.71486053,12.2830717 C2.96683532,12.1750825 3.11082092,12.1390861 3.11082092,12.1390861 Z M16.8542466,12.1210879 C16.8542466,12.1210879 16.9982322,12.1570843 17.250207,12.2650735 C17.5021818,12.3730627 17.880144,12.5152485 18.2761044,12.8212179 C18.4740846,12.9652035 18.690063,13.1613839 18.8520468,13.5033497 C19.0140306,13.7913209 19.050027,14.2034797 18.9240396,14.5634437 C18.7980522,14.9414059 18.5640756,15.2455754 18.2941026,15.4975502 C18.0241296,15.7495251 17.7181602,15.9637036 17.3941926,16.1616838 C16.0983222,16.9338066 14.6062714,17.3639636 13.2744046,17.6519348 C12.6984622,17.759924 12.1585162,17.849915 11.6725648,17.9039096 L11.6725648,17.9039096 L11.6725648,15.9817018 C12.0865234,15.9817018 12.5544766,15.9817018 13.040428,15.9457054 C14.2823038,15.8737126 15.72036,15.6937306 16.9262394,15.2455755 C17.52018,15.0115988 18.0781242,14.7056294 18.3121008,14.2934707 C18.4380882,14.0954904 18.4560864,13.8633137 18.4020918,13.6473353 C18.330099,13.4313569 18.2041116,13.2171783 18.060126,13.0551945 C17.7541566,12.7132287 17.430189,12.4810519 17.2142106,12.3370663 C16.980234,12.1930807 16.8542466,12.1210879 16.8542466,12.1210879 Z M10.000532,1 C13.099822,1 15.6123708,3.50894911 15.6123708,6.60103989 C15.6123708,8.65643435 14.5018818,10.4526547 12.849647,11.4281572 C12.8514469,11.4281572 14.0447275,13.4979502 14.0465274,13.4979502 C14.2337086,13.8221749 14.0298147,14.2208902 13.6769398,14.2761953 L13.5929727,14.2826717 L6.40809121,14.2826717 C6.03372864,14.2826717 5.78972447,13.9071154 5.91817285,13.5753444 L5.95453656,13.49975 L7.15141687,11.429957 C5.49738228,10.4544546 4.38869315,8.65823417 4.38869315,6.60283971 C4.38869315,3.50894911 6.9012419,1 10.000532,1 Z M10.000532,3.38476152 C8.21871014,3.38476152 6.77525449,4.82461754 6.77525449,6.60283971 C6.77525449,8.37926207 8.21871015,9.82091791 10.000532,9.82091791 C11.7823538,9.82091791 13.2258094,8.37926207 13.2258094,6.60283971 C13.2258094,4.82641736 11.7823538,3.38476152 10.000532,3.38476152 Z M10.000532,4.60503949 C11.1038216,4.60503949 12.000132,5.49775021 12.000132,6.60103989 C12.000132,7.70432957 11.1038216,8.59704029 10.000532,8.59704029 C8.89544246,8.59704029 8.00093192,7.70252975 8.00093192,6.60103989 C8.00093192,6.50564944 8.0081312,6.41385861 8.02072993,6.32386761 C8.33749825,6.50384961 8.81445056,6.40125988 9.16181583,6.05389461 C9.55957605,5.65613437 9.63696832,5.08739126 9.33459855,4.78502149 C9.31840017,4.76882312 9.30040196,4.75262474 9.28060395,4.73822618 C9.50378164,4.65183481 9.74675735,4.60503949 10.000532,4.60503949 Z" id="形状结合" fill="#536076"></path>
                </g>
            </g>
        </g>
    </g>
</svg>