<?xml version="1.0" encoding="UTF-8"?>
<svg width="16px" height="16px" viewBox="0 0 16 16" version="1.1" xmlns="http://www.w3.org/2000/svg" xmlns:xlink="http://www.w3.org/1999/xlink">
    <title>install </title>
    <g id="install-" stroke="none" stroke-width="1" fill="none" fill-rule="evenodd">
        <g id="安装" fill="#536076" transform="translate(1.000000, 1.000000)">
            <path d="M13.6933262,2.66525885 L12.7141114,1.02310104 C12.3377584,0.392397773 11.6573609,0 10.93776,0 L3.04218703,0.0107506239 C2.31997253,0.0116465092 1.63783267,0.406731938 1.26322201,1.04281052 L0.302302124,2.66973827 C0.104492132,3.00490299 0,3.38946796 0,3.78153196 L0,11.8570423 C0,13.038715 0.934784298,14 2.0838807,14 L11.9161036,14 C13.0652,14 14,13.038715 14,11.8570423 L14,3.78511551 C14.0008554,3.39003008 13.8945706,3.00211173 13.6933262,2.66525885 Z M2.15618927,1.60005119 C2.34262341,1.28290779 2.68238656,1.02399693 3.04305821,1.02310104 L10.9360176,1.01235042 C11.2966892,1.01235042 11.6355812,1.27036539 11.8228865,1.58482114 L12.5921451,3.00208282 L1.4043544,3.00208282 L2.15618927,1.60005119 Z M11.9169748,12.9934483 L2.08475189,12.9934483 C1.51151047,12.9934483 1.04629631,12.4465348 1.04629631,11.8579382 L1.04629631,4.00494766 L12.9554304,4.00494766 L12.9554304,11.8570423 C12.9554304,12.4465348 12.489345,12.9934483 11.9169748,12.9934483 Z" id="形状" fill-rule="nonzero"></path>
            <path d="M7,6 C7.55228475,6 8,6.44771525 8,7 L8,9 L8.80605121,9 C9.22026477,9 9.55605121,9.33578644 9.55605121,9.75 C9.55605121,9.98203102 9.44865545,10.2009969 9.26518363,10.3430408 L7.45909712,11.7413137 C7.18878091,11.9505926 6.81114846,11.9505926 6.54083226,11.7413137 L4.73474574,10.3430408 C4.40721834,10.089469 4.34726552,9.61839497 4.60083735,9.29086757 C4.74288131,9.10739575 4.96184716,9 5.19387817,9 L6,9 L6,9 L6,7 C6,6.44771525 6.44771525,6 7,6 Z" id="形状结合"></path>
        </g>
    </g>
</svg>