<?xml version="1.0" encoding="UTF-8"?>
<svg width="16px" height="16px" viewBox="0 0 16 16" version="1.1" xmlns="http://www.w3.org/2000/svg" xmlns:xlink="http://www.w3.org/1999/xlink">
    <title>reinstall</title>
    <g id="reinstall" stroke="none" stroke-width="1" fill="none" fill-rule="evenodd">
        <g id="ICON" fill="#536076">
            <path d="M8,1.25 C11.7279221,1.25 14.75,4.27207794 14.75,8 L13.25,8 C13.25,5.10050506 10.8994949,2.75 8,2.75 C6.33616267,2.75 4.80498452,3.52899825 3.82098053,4.82159166 L6,7 L1,7 L1,2 L2.75278097,3.75339247 C4.01965566,2.18843573 5.93108259,1.25 8,1.25 Z M7.75,15 C4.02207794,15 1,11.9779221 1,8.25 L2.5,8.25 C2.5,11.1494949 4.85050506,13.5 7.75,13.5 C9.41383733,13.5 10.9450155,12.7210017 11.9290195,11.4284083 L9.75,9.25 L14.75,9.25 L14.75,14.25 L12.997219,12.4966075 C11.7303443,14.0615643 9.81891741,15 7.75,15 Z" id="形状结合"></path>
        </g>
    </g>
</svg>