<?xml version="1.0" encoding="UTF-8"?>
<svg width="24px" height="24px" viewBox="0 0 24 24" version="1.1" xmlns="http://www.w3.org/2000/svg" xmlns:xlink="http://www.w3.org/1999/xlink">
    <title>ICON/Login/face</title>
    <g id="ICON/Login/face" stroke="none" stroke-width="1" fill="none" fill-rule="evenodd">
        <rect id="矩形" fill-rule="nonzero" x="0" y="0" width="24" height="24"></rect>
        <g id="编组-6" transform="translate(4.000000, 4.009310)" fill="#FFFFFF" fill-rule="nonzero">
            <path d="M8,5.53102414e-06 C12.4095281,-0.00512907213 15.9883194,3.56533734 15.993454,7.97486547 L15.9934514,7.99723601 C15.9898397,12.412956 12.4091782,15.9906901 7.99345673,15.9906901 L7.99068453,15.9906901 C3.57755132,15.9906901 5.40452946e-16,12.4131387 0,8.00000553 C-5.40637171e-16,3.58536801 3.57604458,0.0051569338 7.99067911,1.6384579e-05 L8,5.53102414e-06 Z M11.3433966,10.3805622 C11.1445035,10.1889998 10.8279768,10.1949426 10.6364144,10.3938358 C9.92892211,11.1284029 9.06043495,11.4906901 8,11.4906901 C6.93917606,11.4906901 6.06792162,11.1280853 5.35567606,10.3928065 C5.16354528,10.1944624 4.84700286,10.1894256 4.64865878,10.3815563 C4.45031471,10.5736871 4.44527783,10.8902295 4.63740862,11.0885736 C5.53961997,12.0199615 6.67067064,12.4906901 8,12.4906901 C9.32971835,12.4906901 10.4589261,12.0196439 11.3566702,11.0875443 C11.5482326,10.8886512 11.5422898,10.5721245 11.3433966,10.3805622 Z M8,6.49069006 C7.72385763,6.49069006 7.5,6.71454769 7.5,6.99069006 L7.5,6.99069006 L7.5,7.99069006 L7.50805567,8.08056569 C7.55039163,8.3138149 7.75454011,8.49069006 8,8.49069006 C8.27614237,8.49069006 8.5,8.26683244 8.5,7.99069006 L8.5,7.99069006 L8.5,6.99069006 L8.49194433,6.90081443 C8.44960837,6.66756522 8.24545989,6.49069006 8,6.49069006 Z M4.5,4.99069006 C4.22385763,4.99069006 4,5.21454769 4,5.49069006 L4,5.49069006 L4,6.99069006 L4.00805567,7.08056569 C4.05039163,7.3138149 4.25454011,7.49069006 4.5,7.49069006 C4.77614237,7.49069006 5,7.26683244 5,6.99069006 L5,6.99069006 L5,5.49069006 L4.99194433,5.40081443 C4.94960837,5.16756522 4.74545989,4.99069006 4.5,4.99069006 Z M11.5,4.99069006 C11.2238576,4.99069006 11,5.21454769 11,5.49069006 L11,5.49069006 L11,6.99069006 L11.0080557,7.08056569 C11.0503916,7.3138149 11.2545401,7.49069006 11.5,7.49069006 C11.7761424,7.49069006 12,7.26683244 12,6.99069006 L12,6.99069006 L12,5.49069006 L11.9919443,5.40081443 C11.9496084,5.16756522 11.7454599,4.99069006 11.5,4.99069006 Z" id="形状结合"></path>
        </g>
    </g>
</svg>