<?xml version="1.0" encoding="UTF-8"?>
<svg width="24px" height="24px" viewBox="0 0 24 24" version="1.1" xmlns="http://www.w3.org/2000/svg" xmlns:xlink="http://www.w3.org/1999/xlink">
    <title>ICON/Login/hongmo</title>
    <g id="ICON/Login/hongmo" stroke="none" stroke-width="1" fill="none" fill-rule="evenodd">
        <rect id="矩形" fill-rule="nonzero" x="0" y="0" width="24" height="24"></rect>
        <path d="M12.0000002,7 C14.8475824,7 17.6951646,8.57258014 20.5427468,11.7177404 L20.8275,12.0375028 C21.055272,12.2974631 21.0434872,12.6892323 20.8005016,12.9350319 C17.4625122,16.3116773 14.5290118,18 12.0000002,18 C9.55256863,18 6.72632307,16.4188433 3.52126348,13.2565298 L3.19949841,12.9350243 C2.95651219,12.6892241 2.94472748,12.2974539 3.17250006,12.0374929 C6.1150001,8.67916431 9.05750013,7 12.0000002,7 Z M12.0000002,8.61764706 C9.81677707,8.61764706 8.04692506,10.3558357 8.04692506,12.5 C8.04692506,14.6441643 9.81677707,16.3823529 12.0000002,16.3823529 C14.1832233,16.3823529 15.9530753,14.6441643 15.9530753,12.5 C15.9530753,10.3558357 14.1832233,8.61764706 12.0000002,8.61764706 Z M12.0000002,10.2352941 C12.2349476,10.2352941 12.4616883,10.2698026 12.6752542,10.3339401 C12.4598035,10.563796 12.3294231,10.8698856 12.3294231,11.2058824 C12.3294231,11.9206038 12.9193738,12.5 13.6471148,12.5 C13.8842202,12.5 14.1066989,12.4384958 14.2989127,12.3308457 C14.3037971,12.3859802 14.3059607,12.442742 14.3059607,12.5 C14.3059607,13.7507625 13.273547,14.7647059 12.0000002,14.7647059 C10.7264534,14.7647059 9.69403969,13.7507625 9.69403969,12.5 C9.69403969,11.2492375 10.7264534,10.2352941 12.0000002,10.2352941 Z" id="形状结合" fill="#FFFFFF" fill-rule="nonzero"></path>
    </g>
</svg>