<?xml version="1.0" encoding="UTF-8"?>
<svg width="24px" height="24px" viewBox="0 0 24 24" version="1.1" xmlns="http://www.w3.org/2000/svg" xmlns:xlink="http://www.w3.org/1999/xlink">
    <title>ICON/Login/ukey</title>
    <g id="ICON/Login/ukey" stroke="none" stroke-width="1" fill="none" fill-rule="evenodd">
        <rect id="矩形" fill-rule="nonzero" x="0" y="0" width="24" height="24"></rect>
        <path d="M15.5,8 C16.3284271,8 17,8.67157288 17,9.5 L17,18.5 C17,19.3284271 16.3284271,20 15.5,20 L9.5,20 C8.67157288,20 8,19.3284271 8,18.5 L8,9.5 C8,8.67157288 8.67157288,8 9.5,8 L15.5,8 Z M12.5,9 L11,11 L12,11 L12,14 L11,14 L11,12.0194212 L9.5,12.0194212 L9.5,13.5194212 L10,13.519 L10,14 L10.0067277,14.1166211 C10.0600494,14.575703 10.424297,14.9399506 10.8833789,14.9932723 L11,15 L12,15 L11.9998705,16.1338571 C11.7010412,16.3067803 11.5,16.6299123 11.5,17 C11.5,17.5522847 11.9477153,18 12.5,18 C13.0522847,18 13.5,17.5522847 13.5,17 C13.5,16.630319 13.2994004,16.3074905 13.0011143,16.1344277 L13,15.999 L14.000552,16 C14.5133878,16 14.9360592,15.6139598 14.9938243,15.1166211 L15.000552,15 L15.0005689,13.7868868 C15.140188,13.650678 15.2268772,13.4604627 15.2268772,13.25 C15.2268772,12.8357864 14.8910907,12.5 14.4768772,12.5 C14.0626636,12.5 13.7268772,12.8357864 13.7268772,13.25 C13.7268772,13.4829951 13.8331221,13.6911754 13.9998075,13.8287365 L14.000552,15 L13,14.999 L13,11 L14,11 L12.5,9 Z M15,3 C15.5522847,3 16,3.44771525 16,4 L16,7 L9,7 L9,4 C9,3.44771525 9.44771525,3 10,3 L15,3 Z M11.5,4 C11.2545401,4 11.0503916,4.17687516 11.0080557,4.41012437 L11,4.5 L11,5.5 C11,5.77614237 11.2238576,6 11.5,6 C11.7454599,6 11.9496084,5.82312484 11.9919443,5.58987563 L12,5.5 L12,4.5 C12,4.22385763 11.7761424,4 11.5,4 Z M13.5,4 C13.2545401,4 13.0503916,4.17687516 13.0080557,4.41012437 L13,4.5 L13,5.5 C13,5.77614237 13.2238576,6 13.5,6 C13.7454599,6 13.9496084,5.82312484 13.9919443,5.58987563 L14,5.5 L14,4.5 C14,4.22385763 13.7761424,4 13.5,4 Z" id="形状结合" fill="#FFFFFF" fill-rule="nonzero" transform="translate(12.500000, 11.500000) rotate(-30.000000) translate(-12.500000, -11.500000) "></path>
    </g>
</svg>