<?xml version="1.0" encoding="UTF-8" standalone="no"?>
<!-- Created with Inkscape (http://www.inkscape.org/) -->

<svg
   width="44.33456mm"
   height="46.58952mm"
   viewBox="0 0 44.33456 46.58952"
   version="1.1"
   id="svg5"
   sodipodi:docname="remote.svg"
   inkscape:version="1.1.1 (3bf5ae0d25, 2021-09-20)"
   xmlns:inkscape="http://www.inkscape.org/namespaces/inkscape"
   xmlns:sodipodi="http://sodipodi.sourceforge.net/DTD/sodipodi-0.dtd"
   xmlns="http://www.w3.org/2000/svg"
   xmlns:svg="http://www.w3.org/2000/svg">
  <sodipodi:namedview
     id="namedview16"
     pagecolor="#ffffff"
     bordercolor="#111111"
     borderopacity="1"
     inkscape:pageshadow="0"
     inkscape:pageopacity="0"
     inkscape:pagecheckerboard="1"
     inkscape:document-units="mm"
     showgrid="false"
     fit-margin-top="0"
     fit-margin-left="0"
     fit-margin-right="0"
     fit-margin-bottom="0"
     inkscape:zoom="2.3899185"
     inkscape:cx="84.103285"
     inkscape:cy="31.172611"
     inkscape:window-width="1920"
     inkscape:window-height="994"
     inkscape:window-x="0"
     inkscape:window-y="0"
     inkscape:window-maximized="1"
     inkscape:current-layer="layer1" />
  <defs
     id="defs2">
    <linearGradient
       id="linearGradient1154">
      <stop
         style="stop-color:#000000;stop-opacity:1;"
         offset="0"
         id="stop1152" />
    </linearGradient>
  </defs>
  <g
     id="layer1"
     transform="translate(-72.898915,-67.739726)">
    <ellipse
       style="fill:none;stroke:#ffffff;stroke-width:0.890072;stroke-miterlimit:4;stroke-dasharray:3.56029, 0.890072;stroke-dashoffset:0;stroke-opacity:1"
       id="path3864"
       cx="95.09211"
       cy="90.80542"
       rx="9.5224905"
       ry="9.6769552" />
    <ellipse
       style="fill:#00aafd;fill-opacity:1;stroke:#ffffff;stroke-width:0.133242;stroke-miterlimit:4;stroke-dasharray:0.532967, 0.133242;stroke-dashoffset:0;stroke-opacity:1"
       id="path3864-3"
       cx="95.095596"
       cy="90.847298"
       rx="7.82798"
       ry="8.1609631" />
    <path
       style="fill:#ffffff;fill-opacity:1;stroke:#ffffff;stroke-width:3.77953;stroke-miterlimit:4;stroke-dasharray:15.1181, 3.77953;stroke-dashoffset:0;stroke-opacity:1"
       id="path20531"
       d="m 375.97834,472.01117 c -1.08604,1.9707 -36.33126,2.67264 -37.49491,0.74675 -1.16365,-1.92589 15.85106,-32.80011 18.10075,-32.84492 2.2497,-0.0448 20.48021,30.12748 19.39416,32.09817 z"
       transform="matrix(0.26458333,0,0,0.26458333,0.53104561,-48.15336)" />
    <path
       style="fill:#ffffff;fill-opacity:1;stroke:#ffffff;stroke-width:3.77953;stroke-miterlimit:4;stroke-dasharray:15.1181, 3.77953;stroke-dashoffset:0;stroke-opacity:1"
       id="path20531-7"
       transform="matrix(0,0.26458333,-0.26458333,0,233.12656,-3.9101719)"
       d="m 375.97834,472.01117 c -1.08604,1.9707 -36.33126,2.67264 -37.49491,0.74675 -1.16365,-1.92589 15.85106,-32.80011 18.10075,-32.84492 2.2497,-0.0448 20.48021,30.12748 19.39416,32.09817 z" />
    <path
       style="fill:#ffffff;fill-opacity:1;stroke:#ffffff;stroke-width:3.77953;stroke-miterlimit:4;stroke-dasharray:15.1181, 3.77953;stroke-dashoffset:0;stroke-opacity:1"
       id="path20531-7-5"
       transform="matrix(0,-0.26458333,0.26458333,0,-42.994171,185.31017)"
       d="m 375.97834,472.01117 c -1.08604,1.9707 -36.33126,2.67264 -37.49491,0.74675 -1.16365,-1.92589 15.85106,-32.80011 18.10075,-32.84492 2.2497,-0.0448 20.48021,30.12748 19.39416,32.09817 z" />
    <path
       style="fill:#ffffff;fill-opacity:1;stroke:#ffffff;stroke-width:3.77953;stroke-miterlimit:4;stroke-dasharray:15.1181, 3.77953;stroke-dashoffset:0;stroke-opacity:1"
       id="path20531-6"
       transform="matrix(0.26458333,0,0,-0.26458333,0.98490933,230.22233)"
       d="m 375.97834,472.01117 c -1.08604,1.9707 -36.33126,2.67264 -37.49491,0.74675 -1.16365,-1.92589 15.85106,-32.80011 18.10075,-32.84492 2.2497,-0.0448 20.48021,30.12748 19.39416,32.09817 z" />
  </g>
</svg>
