<?xml version="1.0" encoding="UTF-8" standalone="no"?>
<!-- Created with Inkscape (http://www.inkscape.org/) -->

<svg
   xmlns:dc="http://purl.org/dc/elements/1.1/"
   xmlns:cc="http://creativecommons.org/ns#"
   xmlns:rdf="http://www.w3.org/1999/02/22-rdf-syntax-ns#"
   xmlns:svg="http://www.w3.org/2000/svg"
   xmlns="http://www.w3.org/2000/svg"
   xmlns:sodipodi="http://sodipodi.sourceforge.net/DTD/sodipodi-0.dtd"
   xmlns:inkscape="http://www.inkscape.org/namespaces/inkscape"
   width="357.14453"
   height="607.14258"
   viewBox="0 0 94.494488 160.63981"
   version="1.1"
   id="svg8"
   sodipodi:docname="remote-ok.svg"
   inkscape:version="0.92.5 (2060ec1f9f, 2020-04-08)">
  <defs
     id="defs2" />
  <sodipodi:namedview
     id="base"
     pagecolor="#ffffff"
     bordercolor="#666666"
     borderopacity="1.0"
     inkscape:pageopacity="0.0"
     inkscape:pageshadow="2"
     inkscape:zoom="0.7"
     inkscape:cx="28.47548"
     inkscape:cy="361.54092"
     inkscape:document-units="mm"
     inkscape:current-layer="layer1"
     showgrid="false"
     units="px"
     inkscape:window-width="1920"
     inkscape:window-height="995"
     inkscape:window-x="0"
     inkscape:window-y="0"
     inkscape:window-maximized="1"
     fit-margin-top="0"
     fit-margin-left="0"
     fit-margin-right="0"
     fit-margin-bottom="0" />
  <metadata
     id="metadata5">
    <rdf:RDF>
      <cc:Work
         rdf:about="">
        <dc:format>image/svg+xml</dc:format>
        <dc:type
           rdf:resource="http://purl.org/dc/dcmitype/StillImage" />
        <dc:title></dc:title>
      </cc:Work>
    </rdf:RDF>
  </metadata>
  <g
     inkscape:label="Layer 1"
     inkscape:groupmode="layer"
     id="layer1"
     transform="translate(-5.6694212,-107.67201)">
    <path
       style="fill:#ececec;fill-opacity:1;stroke:#000000;stroke-width:0.30000001;stroke-linecap:round;stroke-linejoin:bevel;stroke-miterlimit:4;stroke-dasharray:none;stroke-dashoffset:0;stroke-opacity:1"
       d="m 12.179101,115.01991 c -1.338721,0 -2.4163897,0.91258 -2.4163897,2.04587 v 142.49518 c 0.031284,-0.001 0.061976,-0.006 0.093535,-0.006 H 96.065454 V 117.06578 c 0,-1.13329 -1.077669,-2.04587 -2.416392,-2.04587 H 79.9977 a 27.098918,8.9623346 0 0 1 0.0155,0.14624 27.098918,8.9623346 0 0 1 -27.099122,8.96225 27.098918,8.9623346 0 0 1 -27.098604,-8.96225 27.098918,8.9623346 0 0 1 0.02222,-0.14624 z"
       id="rect12"
       inkscape:connector-curvature="0" />
    <path
       style="opacity:0.93000034;fill:#ffffff;fill-opacity:1;stroke:#000000;stroke-width:0.73275512;stroke-miterlimit:4;stroke-dasharray:none;stroke-opacity:1"
       d="m 52.91423,168.22621 a 27.508606,27.60104 0 0 0 -17.290741,6.1487 h 4.883084 a 25.312066,24.642746 0 0 1 12.386933,-3.18662 25.312066,24.642746 0 0 1 12.420319,3.18662 H 70.1877 a 27.508606,27.60104 0 0 0 -17.27347,-6.1487 z"
       id="path5072"
       inkscape:connector-curvature="0" />
    <path
       style="opacity:0.93000034;fill:#ffffff;fill-opacity:1;stroke:#000000;stroke-width:0.73275512;stroke-miterlimit:4;stroke-dasharray:none;stroke-opacity:1"
       d="m 73.265148,177.3026 v 3.95068 a 25.312066,24.642746 0 0 1 4.94065,14.5776 25.312066,24.642746 0 0 1 -4.94065,14.57984 v 3.93947 a 27.508606,27.60104 0 0 0 7.157688,-18.52305 27.508606,27.60104 0 0 0 -7.157688,-18.52454 z"
       id="path5070"
       inkscape:connector-curvature="0" />
    <path
       style="opacity:0.93000034;fill:#ffffff;fill-opacity:1;stroke:#000000;stroke-width:0.73275512;stroke-miterlimit:4;stroke-dasharray:none;stroke-opacity:1"
       d="m 32.56331,177.3041 a 27.508606,27.60104 0 0 0 -7.157687,18.52304 27.508606,27.60104 0 0 0 7.157687,18.52454 v -3.88716 a 25.312066,24.642746 0 0 1 -4.981713,-14.63364 25.312066,24.642746 0 0 1 4.981713,-14.63252 z"
       id="path5068"
       inkscape:connector-curvature="0" />
    <path
       style="opacity:0.93000034;fill:#ffffff;fill-opacity:1;stroke:#000000;stroke-width:0.73275512;stroke-miterlimit:4;stroke-dasharray:none;stroke-opacity:1"
       d="m 35.640758,217.27938 a 27.508606,27.60104 0 0 0 17.273472,6.14869 27.508606,27.60104 0 0 0 17.290739,-6.14869 h -4.910331 a 25.312066,24.642746 0 0 1 -12.401132,3.19446 25.312066,24.642746 0 0 1 -12.432601,-3.19446 z"
       id="path5002"
       inkscape:connector-curvature="0" />
    <rect
       style="opacity:0.93000034;fill:#ffffff;fill-opacity:1;stroke:#000000;stroke-width:0.94016546;stroke-miterlimit:4;stroke-dasharray:none;stroke-opacity:1"
       id="rect5025"
       width="14.498784"
       height="14.632385"
       x="15.976851"
       y="133.6394"
       rx="2.4164639"
       ry="2.5606675" />
    <rect
       style="opacity:0.93000034;fill:#ffffff;fill-opacity:1;stroke:#000000;stroke-width:0.94016546;stroke-miterlimit:4;stroke-dasharray:none;stroke-opacity:1"
       id="rect5025-3"
       width="14.498784"
       height="14.632385"
       x="75.62899"
       y="133.6394"
       rx="2.4164639"
       ry="2.5606675" />
    <ellipse
       style="opacity:1;fill:#3f60ff;fill-opacity:1;stroke:#000000;stroke-width:0.89728969;stroke-linecap:round;stroke-linejoin:bevel;stroke-miterlimit:4;stroke-dasharray:none;stroke-dashoffset:0;stroke-opacity:1"
       id="path5484"
       cx="52.91423"
       cy="195.82726"
       rx="18.404028"
       ry="18.848242" />
    <ellipse
       style="opacity:1;fill:#1a1a1a;fill-opacity:1;stroke:#000000;stroke-width:0.30000001;stroke-linecap:round;stroke-linejoin:bevel;stroke-miterlimit:4;stroke-dasharray:none;stroke-dashoffset:0;stroke-opacity:1"
       id="path5752"
       cx="52.925446"
       cy="115.09303"
       rx="27.087751"
       ry="0.073119998" />
    <path
       style="opacity:1;fill:#4d4d4d;fill-opacity:1;stroke:#000000;stroke-width:1.61979759;stroke-linecap:round;stroke-linejoin:bevel;stroke-miterlimit:4;stroke-dasharray:none;stroke-dashoffset:0;stroke-opacity:1"
       d="M 141.50925,58.639808 C 111.86207,54.401266 90.403066,46.634665 82.048495,37.119335 c -2.436587,-2.775119 -4.430158,-5.666159 -4.430158,-6.424533 0,-0.873064 36.944353,-1.378863 100.714283,-1.378863 72.05089,0 100.71429,0.445453 100.71429,1.565185 0,3.6014 -6.10999,9.674076 -13.85693,13.772312 -10.06391,5.323939 -23.37073,9.504882 -40.05849,12.586199 -17.46195,3.224268 -65.2647,4.02468 -83.62224,1.400173 z"
       id="path5758"
       inkscape:connector-curvature="0"
       transform="matrix(0.26458333,0,0,0.26458333,5.6694212,107.67201)" />
  </g>
</svg>
