<?xml version="1.0" encoding="UTF-8"?>
<svg width="24px" height="24px" viewBox="0 0 24 24" version="1.1" xmlns="http://www.w3.org/2000/svg" xmlns:xlink="http://www.w3.org/1999/xlink">
    <title>icon/开始</title>
    <defs>
        <linearGradient x1="50%" y1="14.1278696%" x2="50%" y2="100%" id="linearGradient-1">
            <stop stop-color="#FFFFFF" offset="0%"></stop>
            <stop stop-color="#FFF6EA" offset="100%"></stop>
        </linearGradient>
        <linearGradient x1="50%" y1="0%" x2="50%" y2="100%" id="linearGradient-2">
            <stop stop-color="#FFFFFF" offset="0%"></stop>
            <stop stop-color="#FFFFFF" offset="100%"></stop>
        </linearGradient>
    </defs>
    <g id="icon/开始" stroke="none" stroke-width="1" fill="none" fill-rule="evenodd">
        <path d="M11.7985825,2.76435124 C12.4126902,2.58484285 13.0952779,2.63960863 13.7007866,2.97119668 C14.1193326,3.20040045 14.4635369,3.5446048 14.6927407,3.9631508 L14.6927407,3.9631508 L22.8172512,18.7992134 C23.1488392,19.4047221 23.203605,20.0873098 23.0240966,20.7014175 C22.8445882,21.3155251 22.4308057,21.8611526 21.8252971,22.1927407 C21.4571725,22.3943327 21.0442188,22.5 20.6245105,22.5 L20.6245105,22.5 L4.3754895,22.5 C3.68513357,22.5 3.06013357,22.220178 2.60772255,21.767767 C2.15531153,21.3153559 1.8754895,20.6903559 1.8754895,20 C1.8754895,19.5802917 1.9811568,19.167338 2.18274883,18.7992134 L2.18274883,18.7992134 L10.3072593,3.9631508 C10.6388474,3.35764218 11.1844749,2.94385963 11.7985825,2.76435124 Z" id="三角形" stroke="url(#linearGradient-2)" fill="url(#linearGradient-1)" transform="translate(12.500000, 11.500000) rotate(-270.000000) translate(-12.500000, -11.500000) "></path>
    </g>
</svg>