<?xml version="1.0" encoding="UTF-8"?>
<svg width="24px" height="24px" viewBox="0 0 24 24" version="1.1" xmlns="http://www.w3.org/2000/svg" xmlns:xlink="http://www.w3.org/1999/xlink">
    <title>icon/重玩</title>
    <defs>
        <linearGradient x1="50%" y1="14.1278696%" x2="50%" y2="100%" id="linearGradient-1">
            <stop stop-color="#FFFFFF" offset="0%"></stop>
            <stop stop-color="#FFF6EA" offset="100%"></stop>
        </linearGradient>
        <linearGradient x1="50%" y1="0%" x2="50%" y2="100%" id="linearGradient-2">
            <stop stop-color="#FFFFFF" offset="0%"></stop>
            <stop stop-color="#FFFFFF" offset="100%"></stop>
        </linearGradient>
        <linearGradient x1="50%" y1="14.1278696%" x2="50%" y2="100%" id="linearGradient-3">
            <stop stop-color="#FFFFFF" offset="0%"></stop>
            <stop stop-color="#FFF6EA" offset="100%"></stop>
        </linearGradient>
        <linearGradient x1="50%" y1="0%" x2="50%" y2="100%" id="linearGradient-4">
            <stop stop-color="#FFFFFF" offset="0%"></stop>
            <stop stop-color="#FFFFFF" offset="100%"></stop>
        </linearGradient>
    </defs>
    <g id="icon/重玩" stroke="none" stroke-width="1" fill="none" fill-rule="evenodd">
        <path d="M9.67312231,2.15819016 C11.0028753,1.95204967 12.1343007,1.95384643 13.2582414,2.14589977 C16.766282,3.06844488 19.0557662,4.7603956 20.4451094,7.00021076 L20.4451094,7.00021076 L17.981268,7.000371 C17.1362524,6.00547265 16.0659387,5.2076525 14.845472,4.68384029 C14.4877735,4.5343045 14.1544333,4.41711696 13.8189543,4.32156478 C12.560999,4.0470273 12.0362141,4 11.5,4 C11.1735024,4 10.8513078,4.0184305 10.5343976,4.05428844 C9.07158864,4.27662137 8.02294693,4.6658061 7.07943319,5.23922515 C5.57673879,6.29822972 4.82430052,7.12327581 4.24632439,8.06676107 C4.03222166,8.41818625 3.84111891,8.78910349 3.67570875,9.17878541 C3.46013445,9.68664661 3.29779971,10.2037592 3.18593634,10.7247389 C3.06412077,11.296923 3,11.890976 3,12.5 C3,12.8706213 3.02374817,13.235698 3.06989416,13.5946865 C3.22370833,14.7745125 3.62441252,15.9096335 4.24056525,16.9227711 C5.12299322,18.2312546 5.92151177,19.0070096 6.84177239,19.6110007 C7.72028321,20.119324 7.94650154,20.2256926 8.17878541,20.3242913 C8.67280942,20.533992 9.1755877,20.6933144 9.6908892,20.8066364 C10.3071237,20.9297655 10.7665659,20.9816113 11.2355303,20.9959593 C13.0426651,20.9986883 14.7263072,20.5066947 16.1314167,19.6078151 C17.5225471,18.7178782 18.6417878,17.429092 19.3242913,15.8212146 C19.4321887,15.5670242 19.6329025,15.3806321 19.8701895,15.2847619 C20.1074766,15.1888917 20.3813368,15.1835434 20.6355272,15.2914409 C20.8897176,15.3993383 21.0761098,15.6000521 21.17198,15.8373391 C21.2678501,16.0746262 21.2731984,16.3484865 21.165301,16.6026768 C20.1980676,18.8813358 18.5205317,20.6411879 16.5000237,21.7335511 C14.4418051,22.8463021 12.0278252,23.2668747 9.6468657,22.8375066 C7.98528633,22.4491101 7.03027682,22.0579985 6.15855195,21.5416683 C4.49568827,20.4653351 3.45732714,19.4064027 2.67704068,18.1945724 C1.91428671,17.0022752 1.39691726,15.7024099 1.15648699,14.317112 C0.924207107,12.8143434 0.95967606,11.4922019 1.25616846,10.186196 C1.5194306,9.01315296 1.97954367,7.91452591 2.59320935,6.9364548 C3.50186675,5.56200788 4.44131514,4.61482687 5.51141682,3.87373029 C6.98879915,2.92063019 8.28778348,2.3999515 9.67312231,2.15819016 Z" id="形状结合" stroke="url(#linearGradient-2)" fill="url(#linearGradient-1)"></path>
        <path d="M21.060069,2.65935278 L21.4989719,9.5 L14.4047032,9.5 L21.060069,2.65935278 Z" id="路径" stroke="url(#linearGradient-4)" fill="url(#linearGradient-3)"></path>
    </g>
</svg>