<?xml version="1.0" encoding="UTF-8"?>
<svg width="24px" height="24px" viewBox="0 0 24 24" version="1.1" xmlns="http://www.w3.org/2000/svg" xmlns:xlink="http://www.w3.org/1999/xlink">
    <title>icon/voice</title>
    <defs>
        <path d="M14.7556891,0.535031678 C14.9132599,0.716844117 15,0.949370624 15,1.18996222 L15,22.8100378 C15,23.3623225 14.5522847,23.8100378 14,23.8100378 C13.7594084,23.8100378 13.5268819,23.7232976 13.3450695,23.5657269 L5.77,16.9999465 L3,17 C1.34314575,17 2.02906125e-16,15.6568542 0,14 L0,10 C-2.02906125e-16,8.34314575 1.34314575,7 3,7 L5.769,6.99994653 L13.3450695,0.434273133 C13.762425,0.0725649847 14.3939809,0.117676122 14.7556891,0.535031678 Z M20.1356,5.37080578 C21.9374,7.03032604 23,9.50237319 23,12.1643522 C23,14.8263312 21.9374,17.2983783 20.1356,18.9578986 C19.9706089,19.111568 19.7494426,19.1902153 19.524472,19.1752174 C19.2995013,19.1602195 19.0907323,19.05291 18.9476,18.8786992 C18.6406123,18.5100887 18.673377,17.9662631 19.0224,17.6371756 C20.4597333,16.3127861 21.3155333,14.3225351 21.3155333,12.1643522 C21.3155333,10.0069025 20.4604667,8.01591824 19.0224,6.69152871 C18.6731553,6.36264236 18.6400686,5.81880403 18.9468667,5.45000517 C19.0900099,5.275563 19.2989333,5.16809863 19.5240899,5.15309756 C19.7492465,5.13809649 19.9705799,5.21689501 20.1356,5.37080578 Z M17.0153008,7.70985045 C17.2407439,7.69929374 17.4605102,7.78247145 17.6224667,7.93965218 C18.7070667,8.97511067 19.3421333,10.500432 19.3421333,12.1357524 C19.3421333,13.7725395 18.7063333,15.2985941 17.6202667,16.3347859 C17.4581404,16.4915494 17.2384215,16.5743187 17.01316,16.5634863 C16.7878985,16.5526538 16.5771357,16.4491833 16.4308,16.2775864 C16.1211088,15.9180299 16.1402763,15.3807058 16.4748,15.0441294 L16.4850667,15.0345962 L16.5070667,15.0133297 C17.2279333,14.3130019 17.6584,13.2694768 17.6584,12.1357524 C17.6584,10.9917614 17.2198667,9.93943639 16.4858,9.23910859 C16.141779,8.90396002 16.1183161,8.35885414 16.4322667,7.99538508 C16.5788259,7.82375764 16.7898576,7.72040717 17.0153008,7.70985045 Z" id="path-1"></path>
        <filter x="-28.3%" y="-23.3%" width="156.5%" height="155.0%" filterUnits="objectBoundingBox" id="filter-2">
            <feOffset dx="0" dy="1" in="SourceAlpha" result="shadowOffsetOuter1"></feOffset>
            <feGaussianBlur stdDeviation="2" in="shadowOffsetOuter1" result="shadowBlurOuter1"></feGaussianBlur>
            <feColorMatrix values="0 0 0 0 0   0 0 0 0 0   0 0 0 0 0  0 0 0 0.3 0" type="matrix" in="shadowBlurOuter1"></feColorMatrix>
        </filter>
    </defs>
    <g id="icon/voice" stroke="none" stroke-width="1" fill="none" fill-rule="evenodd">
        <g id="形状结合" fill-rule="nonzero">
            <use fill="black" fill-opacity="1" filter="url(#filter-2)" xlink:href="#path-1"></use>
            <use fill="#FFFFFF" xlink:href="#path-1"></use>
        </g>
    </g>
</svg>