<?xml version="1.0" encoding="UTF-8"?>
<svg width="24px" height="24px" viewBox="0 0 24 24" version="1.1" xmlns="http://www.w3.org/2000/svg" xmlns:xlink="http://www.w3.org/1999/xlink">
    <title>icon/提示</title>
    <defs>
        <linearGradient x1="50%" y1="14.1278696%" x2="50%" y2="100%" id="linearGradient-1">
            <stop stop-color="#FFFFFF" offset="0%"></stop>
            <stop stop-color="#FFF6EA" offset="100%"></stop>
        </linearGradient>
        <linearGradient x1="50%" y1="0%" x2="50%" y2="100%" id="linearGradient-2">
            <stop stop-color="#FFFFFF" offset="0%"></stop>
            <stop stop-color="#FFFFFF" offset="100%"></stop>
        </linearGradient>
    </defs>
    <g id="icon/提示" stroke="none" stroke-width="1" fill="none" fill-rule="evenodd">
        <path d="M12,5.5 C13.7949254,5.5 15.4199254,6.22753728 16.5961941,7.40380592 C17.7724627,8.58007456 18.5,10.2050746 18.5,12 C18.5,14.3005652 17.3047564,16.321877 15.5016124,17.477223 L15.5016124,17.477223 L15.5,19 C15.5,19.4142136 15.3321068,19.7892136 15.0606602,20.0606602 C14.7892136,20.3321068 14.4142136,20.5 14,20.5 L14,20.5 L10,20.5 C9.58578644,20.5 9.21078644,20.3321068 8.93933983,20.0606602 C8.66789322,19.7892136 8.5,19.4142136 8.49999998,18.999869 L8.49999998,18.999869 L8.49960131,17.4780005 C6.6957799,16.322784 5.5,14.3010813 5.5,12 C5.5,10.2050746 6.22753728,8.58007456 7.40380592,7.40380592 C8.58007456,6.22753728 10.2050746,5.5 12,5.5 L12,5.5 Z M19.5995585,2.69928106 L19.6954891,2.70016044 C20.1186888,2.99006266 20.1538614,3.12242545 20.1404858,3.24968562 C20.1271102,3.3769458 20.0651865,3.49910336 19.957885,3.58599437 L19.957885,3.58599437 L19.1807391,4.21531476 C19.0734376,4.30220578 18.9410748,4.33737831 18.8138146,4.32400273 C18.6865545,4.31062715 18.5643969,4.24870344 18.4775059,4.14140198 C18.3906149,4.03410051 18.3554423,3.90173772 18.3688179,3.77447755 C18.3821935,3.64721737 18.4441172,3.52505981 18.5514187,3.4381688 L18.5514187,3.4381688 L19.3285646,2.80884841 C19.4358661,2.7219574 19.5682289,2.68678486 19.6954891,2.70016044 Z M5.30451093,2.70016044 L6.44858132,3.4381688 C6.55588278,3.52505981 6.61780649,3.64721737 6.63118207,3.77447755 C6.64455765,3.90173772 6.60938512,4.03410051 6.5224941,4.14140198 C6.43560309,4.24870344 6.31344553,4.31062715 6.18618535,4.32400273 C6.05892518,4.33737831 5.92656239,4.30220578 5.81926093,4.21531476 L5.81926093,4.21531476 L5.04211496,3.58599437 C4.9348135,3.49910336 4.8728898,3.3769458 4.85951421,3.24968562 C4.84613863,3.12242545 4.88131117,2.99006266 4.96820218,2.88276119 C5.05509319,2.77545973 5.17725075,2.71353603 5.30451093,2.70016044 L5.30451093,2.70016044 Z M11.6464466,0.646446609 C12.1380712,0.5 12.2630712,0.555964406 12.3535534,0.646446609 C12.4440356,0.736928813 12.5,0.861928813 12.5,1 L12.5,1 L12.5,2 C12.5,2.13807119 12.4440356,2.26307119 12.3535534,2.35355339 C12.2630712,2.44403559 12.1380712,2.5 12,2.5 C11.8619288,2.5 11.7369288,2.44403559 11.6464466,2.35355339 C11.5559644,2.26307119 11.5,2.13807119 11.5,2 L11.5,2 L11.5,1 C11.5,0.861928813 11.5559644,0.736928813 11.6464466,0.646446609 Z" id="形状结合" stroke="url(#linearGradient-2)" fill="url(#linearGradient-1)"></path>
    </g>
</svg>