<svg xmlns="http://www.w3.org/2000/svg" width="16" height="16" viewBox="0 0 16 16">
 <defs>
  <style id="current-color-scheme" type="text/css">
   .ColorScheme-Text { color:#536076; } .ColorScheme-Highlight { color:#ffffff; }
  </style>
 </defs>
 <path style="fill:currentColor" class="ColorScheme-Text" d="M12,2 C13.1045695,2 14,2.8954305 14,4 C14,5.1045695 13.1045695,6 12,6 C11.4058755,6 10.8722577,5.74093979 10.5059444,5.32961705 L5.96122609,7.6061252 C5.98665935,7.7334689 6,7.86517651 6,8 C6,8.12920584 5.98774791,8.25555005 5.96434218,8.3779342 L10.5401005,10.6329886 C10.9050302,10.2434209 11.4240881,10 12,10 C13.1045695,10 14,10.8954305 14,12 C14,13.1045695 13.1045695,14 12,14 C10.8954305,14 10,13.1045695 10,12 L10.001,12.041 L5.138998,9.64420247 C4.85412047,9.84191964 4.51539698,9.96750185 4.14926234,9.99451426 L4,10 C2.8954305,10 2,9.1045695 2,8 C2,6.8954305 2.8954305,6 4,6 C4.4175167,6 4.8051523,6.12793621 5.1258429,6.34674475 L10.0023035,3.90315657 C10.0528212,2.8435637 10.9278981,2 12,2 Z"/>
</svg>
