<svg xmlns="http://www.w3.org/2000/svg" width="16" height="16" viewBox="0 0 16 16">
 <defs>
  <style id="current-color-scheme" type="text/css">
   .ColorScheme-Text { color:#536076; } .ColorScheme-Highlight { color:#ffffff; }
  </style>
 </defs>
 <path style="fill:currentColor" class="ColorScheme-Text" d="M12,2 C13.6568542,2 15,3.34314575 15,5 L15,11 C15,12.6568542 13.6568542,14 12,14 L4,14 C2.34314575,14 1,12.6568542 1,11 L1,5 C1,3.34314575 2.34314575,2 4,2 L12,2 Z M13,11 L3,11 C2.44771525,11 2,11.4477153 2,12 C2,12.5522847 2.44771525,13 3,13 L3,13 L13,13 C13.5522847,13 14,12.5522847 14,12 C14,11.4477153 13.5522847,11 13,11 L13,11 Z M3.5,7 L2.5,7 L2.41012437,7.00805567 C2.17687516,7.05039163 2,7.25454012 2,7.5 L2,7.5 L2,8.5 L2.00805567,8.58987563 C2.05039163,8.82312484 2.25454012,9 2.5,9 L2.5,9 L3.5,9 L3.58987563,8.99194433 C3.82312484,8.94960837 4,8.74545988 4,8.5 L4,8.5 L4,7.5 L3.99194433,7.41012437 C3.94960837,7.17687516 3.74545988,7 3.5,7 L3.5,7 Z M3.5,4 L3,4 L2.88337887,4.00672773 C2.42429701,4.06004937 2.06004937,4.42429701 2.00672773,4.88337887 L2.00672773,4.88337887 L2,5 L2,5.5 L2.00805567,5.58987563 C2.04509963,5.79396869 2.20603131,5.95490037 2.41012437,5.99194433 L2.41012437,5.99194433 L2.5,6 L3.5,6 L3.58987563,5.99194433 C3.79396869,5.95490037 3.95490036,5.79396869 3.99194433,5.58987563 L3.99194433,5.58987563 L4,5.5 L4,4.5 L3.99194433,4.41012437 C3.94960837,4.17687516 3.74545988,4 3.5,4 L3.5,4 Z"/>
</svg>
