<?xml version="1.0" encoding="UTF-8"?>
<svg width="32px" height="32px" viewBox="0 0 32 32" version="1.1"
    xmlns="http://www.w3.org/2000/svg"
    xmlns:xlink="http://www.w3.org/1999/xlink">
    <title>unlock_9</title>
    <g id="unlock_9" stroke="none" stroke-width="1" fill="none" fill-rule="evenodd">
        <g id="unlock_ICON00000" transform="translate(6.000000, 6.000000)">
            <path d="M17,7 C18.6568542,7 20,8.34314575 20,10 L20,18 C20,19.6568542 18.6568542,21 17,21 L3,21 C1.34314575,21 2.02906125e-16,19.6568542 0,18 L0,10 C-2.02906125e-16,8.34314575 1.34314575,7 3,7 L17,7 Z M10,11 C8.8954305,11 8,11.8954305 8,13 C8,13.7402524 8.40216612,14.3865739 8.99992752,14.7323937 L8.99992752,14.7323937 L9,17 C9,17.5522847 9.44771525,18 10,18 C10.5522847,18 11,17.5522847 11,17 L11,17 L11.0010775,14.7318119 C11.5982846,14.3858493 12,13.7398375 12,13 C12,11.8954305 11.1045695,11 10,11 Z" id="形状结合备份-7" fill="#FFFFFF"></path>
            <path d="M15,7.47268 L15,5 C15,2.23858 16.343148,0 18,0 L18,0 C19.656852,0 21,2.23858 21,5 L21,9" id="路径" stroke="#FFFFFF" stroke-width="2" transform="translate(18.000000, 4.500000) scale(-1, 1) translate(-18.000000, -4.500000) "></path>
        </g>
    </g>
</svg>
