<?xml version="1.0" encoding="UTF-8"?>
<svg width="26px" height="26px" viewBox="0 0 26 26" version="1.1" xmlns="http://www.w3.org/2000/svg" xmlns:xlink="http://www.w3.org/1999/xlink">
    <!-- Generator: Sketch 61.2 (89653) - https://sketch.com -->
    <title>录制光标</title>
    <desc>Created with Sketch.</desc>
    <g id="录制光标" stroke="none" stroke-width="1" fill="none" fill-rule="evenodd" opacity="0.601795015">
        <g fill="#000000" fill-rule="nonzero" id="路径">
            <path d="M23.4984905,17.3385662 L12.2400778,8.51235271 C12.1596606,8.43211441 11.9988261,8.43211441 11.8379917,8.51235271 C11.6771572,8.59259101 11.59674,8.75306763 11.59674,8.83330592 L11.59674,24.0785839 C11.59674,24.2390605 11.6771572,24.3995371 11.9184089,24.4797754 L11.9988261,24.4797754 C12.1596606,24.4797754 12.2400778,24.3995371 12.3204951,24.3192988 L16.2609395,18.060711 L23.2572388,18.060711 C23.4180733,18.060711 23.5789078,17.9804727 23.659325,17.8199961 C23.659325,17.6595195 23.659325,17.4188045 23.4984905,17.3385662 Z" transform="translate(17.628032, 16.465975) rotate(-15.000000) translate(-17.628032, -16.465975) "></path>
            <path d="M7.31919769,17.469599 C7.62257072,17.5772175 7.76391488,17.907113 7.63807061,18.1651449 C7.53647638,18.3734544 7.32994902,18.4944444 7.10486989,18.4944444 L6.88298459,18.4807881 C3.77278268,17.0543138 1.77592593,13.9602737 1.77592593,10.502764 C1.77592593,5.6830634 5.58701094,1.77592593 10.2919123,1.77592593 C14.9968137,1.77592593 18.8078987,5.6830634 18.8078987,10.502764 C18.8078987,11.1773549 18.7246942,11.9237435 18.5615198,12.6729332 C18.4501138,13.0155749 18.2067612,13.2026893 17.8923081,13.0952298 C17.5574546,12.9807988 17.3765056,12.7334528 17.4763803,12.4276473 C17.6329161,11.785723 17.7111381,11.1441752 17.7111381,10.502764 C17.7111381,6.33720561 14.3513777,2.89276764 10.2919123,2.89276764 C6.232447,2.89276764 2.87268655,6.33720562 2.87268655,10.502764 C2.87268655,13.5583081 4.59970348,16.2721603 7.31919769,17.469599 Z" stroke="#000000" stroke-width="0.3" transform="translate(10.291912, 10.135185) rotate(-15.000000) translate(-10.291912, -10.135185) "></path>
            <path d="M8.44918092,14.3155394 C8.75138245,14.4255739 8.87160957,14.7451004 8.76064914,15.0882812 C8.66116038,15.2961758 8.45801204,15.4174629 8.23622878,15.4174629 L8.01579677,15.4027507 C6.09368925,14.4823044 4.89548049,12.5580781 4.89548049,10.3888174 C4.89548049,7.38022272 7.21800178,4.95361806 10.1039839,4.95361806 C12.989966,4.95361806 15.3124873,7.38022272 15.3124873,10.3888174 C15.3124873,10.7260146 15.3125501,10.7255555 15.1549683,11.713418 L15.1497446,11.7353808 C15.040691,12.0772034 14.8011995,12.2648716 14.4905679,12.1566875 C14.162301,12.0423615 13.9854128,11.7959408 14.0812846,11.4989668 C14.1960269,10.8995449 14.234256,10.6465765 14.234256,10.3888174 C14.234256,8.03090194 12.3543283,6.06672566 10.1039839,6.06672566 C7.85363945,6.06672566 5.97371178,8.03090194 5.97371178,10.3888174 C5.97371178,12.044893 6.95708753,13.6108034 8.44918092,14.3155394 Z" stroke="#000000" stroke-width="0.3" transform="translate(10.103984, 10.185540) rotate(-15.000000) translate(-10.103984, -10.185540) "></path>
        </g>
    </g>
</svg>