<?xml version="1.0" encoding="UTF-8"?>
<svg width="13px" height="9px" viewBox="0 0 13 9" version="1.1" xmlns="http://www.w3.org/2000/svg" xmlns:xlink="http://www.w3.org/1999/xlink">
    <!-- Generator: Sketch 61.2 (89653) - https://sketch.com -->
    <title>check</title>
    <desc>Created with Sketch.</desc>
    <g id="截图" stroke="none" stroke-width="1" fill="none" fill-rule="evenodd">
        <g id="录屏-状态一览" transform="translate(-1725.000000, -242.000000)" fill="#000000" fill-rule="nonzero">
            <g id="选项备份-2" transform="translate(1573.000000, 122.000000)">
                <g id="副菜单" transform="translate(143.000000, 104.000000)">
                    <path d="M21.8293527,16.1442461 C21.6116542,15.9436131 21.2695565,15.9529139 21.0653797,16.1681626 L13.8583422,23.7085082 L9.92083874,19.8964815 C9.70854889,19.6905337 9.36509908,19.6931911 9.15551356,19.9017963 C8.94592804,20.1104014 8.94863237,20.44789 9.16092222,20.6525091 L13.4932577,24.8458713 C13.4946099,24.8472 13.4973142,24.8485287 13.4986664,24.8498574 C13.5000185,24.8511861 13.5013707,24.8538435 13.5027229,24.8551722 C13.536527,24.8870609 13.5784441,24.9056626 13.6176569,24.9269218 C13.6365872,24.9375513 13.6541653,24.9548244 13.6744478,24.9627965 C13.7379995,24.986713 13.8056077,25 13.873216,25 C13.9435285,25 14.0151933,24.986713 14.0800972,24.9588104 C14.1017318,24.9495096 14.1193099,24.9309078 14.1395924,24.9189496 C14.1801573,24.8950331 14.2220744,24.8764313 14.2572307,24.8418853 C14.2585829,24.8405566 14.2599351,24.8378992 14.2612872,24.8365705 C14.2626394,24.8352418 14.2639915,24.8339131 14.2666959,24.8325844 L21.8536916,16.8962876 C22.0578685,16.6810389 22.0470512,16.344879 21.8293527,16.1442461 Z" id="check"></path>
                </g>
            </g>
        </g>
    </g>
</svg>