<?xml version="1.0" encoding="UTF-8"?>
<svg width="6px" height="10px" viewBox="0 0 6 10" version="1.1" xmlns="http://www.w3.org/2000/svg" xmlns:xlink="http://www.w3.org/1999/xlink">
    <!-- Generator: Sketch 61.2 (89653) - https://sketch.com -->
    <title>右拉</title>
    <desc>Created with Sketch.</desc>
    <g id="截图" stroke="none" stroke-width="1" fill="none" fill-rule="evenodd" opacity="0.550571987">
        <g id="录屏-状态一览" transform="translate(-1686.000000, -232.000000)" fill="#000000" fill-rule="nonzero">
            <g id="选项备份-2" transform="translate(1573.000000, 122.000000)">
                <g id="选项内容" transform="translate(10.000000, 21.000000)">
                    <g id="位置选项备份" transform="translate(0.000000, 84.000000)">
                        <path d="M110.87043,7.34647349 C111.030689,7.60277892 111.044137,7.92406357 110.900437,8.0640462 L106.213581,12.6251907 C106.181169,12.6568841 106.077016,12.7349161 106.059306,12.7594433 C105.884687,13.0002646 105.633609,13.0725522 105.498183,12.9200714 L101.08415,7.95403649 C100.948725,7.80141348 100.979997,7.48214787 101.154627,7.24077203 C101.329256,6.99952417 101.580323,6.92750669 101.716205,7.07998752 L105.733409,11.5994003 L110.319884,7.13576729 C110.464039,6.99578465 110.710525,7.09031026 110.87043,7.34647349 L110.87043,7.34647349 Z" id="右拉" transform="translate(106.000000, 10.000000) rotate(-90.000000) translate(-106.000000, -10.000000) "></path>
                    </g>
                </g>
            </g>
        </g>
    </g>
</svg>