<?xml version="1.0" encoding="UTF-8"?>
<svg width="21px" height="18px" viewBox="0 0 21 18" version="1.1" xmlns="http://www.w3.org/2000/svg" xmlns:xlink="http://www.w3.org/1999/xlink">
    <!-- Generator: Sketch 61.2 (89653) - https://sketch.com -->
    <title>录制声音</title>
    <desc>Created with Sketch.</desc>
    <g id="录制声音" stroke="none" stroke-width="1" fill="none" fill-rule="evenodd" opacity="0.577078683">
        <g fill="#000000" fill-rule="nonzero" id="路径">
            <path d="M11.3010578,0.00365610698 C11.1360138,0.00365610698 10.9549413,0.041959275 10.765838,0.124415182 L5.3948024,3.5755997 L2.71239115,3.5755997 C1.22326063,3.5755997 0.0178511304,4.76788897 0.0178511304,6.26005995 L0.0178511304,11.6420346 C0.0178511304,13.1261087 1.21119796,14.3275524 2.71239115,14.3275524 L5.3948024,14.3275524 L10.765838,17.7776794 C11.5264152,18.1077013 12.1140499,17.7545124 12.1140499,17.0058657 L12.1140499,0.894179897 C12.1140499,0.336718484 11.7799961,0.00365610698 11.3010578,0.00365610698 Z"></path>
            <path d="M19.414752,3.62989831 C18.8735174,2.70824289 18.3240868,2.07136602 17.9417161,1.72825692 C17.8129593,1.61556168 17.6519472,1.55924709 17.494967,1.55924709 C17.3078466,1.55924709 17.1247251,1.63472976 16.9918703,1.78255553 C16.7444034,2.06131929 16.7665459,2.48688431 17.0442191,2.73240129 C17.1086305,2.78874891 17.2333554,2.91651426 17.4044473,3.112756 C17.6961991,3.44985028 17.985968,3.84828252 18.2576924,4.31003559 C19.0404121,5.63524575 19.5093367,7.18472276 19.5093367,8.95056804 C19.5093367,10.7173387 19.0404121,12.2657912 18.2576924,13.5950333 C17.9859349,14.053845 17.6941831,14.4563092 17.4023652,14.7923459 C17.2333224,14.9885876 17.1085975,15.116386 17.0422692,15.1727337 C16.7665129,15.4182837 16.7443704,15.8418328 16.9879045,16.1225464 C17.2333224,16.3962207 17.6599119,16.4203791 17.9377172,16.1758535 C18.3220378,15.8347273 18.8714023,15.1988419 19.4146859,14.2752367 C20.312216,12.7548092 20.8515399,10.9709856 20.8515399,8.95056804 C20.8536489,6.93216646 20.3123151,5.15022659 19.414752,3.62989831 Z"></path>
            <path d="M16.0783448,5.66340307 C15.7966067,5.08885562 15.5067717,4.68540003 15.29351,4.46004258 C15.1607213,4.31809945 14.9836146,4.24869769 14.804558,4.24869769 C14.639514,4.24869769 14.4764529,4.30600372 14.3436973,4.42782035 C14.0740218,4.68235957 14.0579603,5.10594169 14.311475,5.379616 C14.438315,5.51243777 14.6495607,5.80927902 14.8749843,6.25804405 C15.249225,7.02572672 15.4746486,7.92319068 15.4746486,8.95056814 C15.4746486,9.97784645 15.2492581,10.8793754 14.8749843,11.6440506 C14.6495938,12.0927165 14.438315,12.3885333 14.311475,12.5244285 C14.0579272,12.7960538 14.0739888,13.2206935 14.3436973,13.4752327 C14.6173716,13.729805 15.0399622,13.7127189 15.295592,13.4421181 C15.5068047,13.2156701 15.7966067,12.8142635 16.0783778,12.2356511 C16.5432375,11.2929438 16.8209437,10.1931571 16.8209437,8.94855217 C16.8209106,7.705897 16.5432375,6.60716792 16.0783448,5.66340307 Z"></path>
        </g>
    </g>
</svg>