<?xml version="1.0" encoding="UTF-8"?>
<svg width="16px" height="16px" viewBox="0 0 16 16" version="1.1" xmlns="http://www.w3.org/2000/svg" xmlns:xlink="http://www.w3.org/1999/xlink">
    <title>切片</title>
    <g id="截图" stroke="none" stroke-width="1" fill="none" fill-rule="evenodd">
        <g id="16、截图-状态一览" transform="translate(-1172.000000, -298.000000)" fill="#333333" fill-rule="nonzero">
            <g id="字体副操作栏" transform="translate(1048.000000, 246.001984)">
                <g id="字体区" transform="translate(10.000000, 16.998016)">
                    <g id="类型" transform="translate(0.000000, 32.000000)">
                        <g id="加粗" transform="translate(98.000000, 0.000000)">
                            <g id="icon/-12/-加粗" transform="translate(16.000000, 3.000000)">
                                <path d="M10.4666659,7.51399943 C10.96998,6.91468338 11.2473849,6.157953 11.2506658,5.37533298 C11.2506658,3.51118805 9.73947777,2 7.87533284,2 L3,2 L3,14 L8.43799944,14 C9.99556154,14.0012961 11.3730528,12.9897273 11.8380089,11.5031819 C12.3029649,10.0166365 11.7473744,8.40044571 10.4666659,7.51399943 L10.4666659,7.51399943 Z M5,4 L8,4 C8.53589803,4 9.03108851,4.28589834 9.29903769,4.74999991 C9.56698686,5.21410148 9.56698686,5.7858982 9.29903769,6.24999978 C9.03108851,6.71410135 8.53589803,7 8,7 L5,7 L5,4 L5,4 Z M8.39300451,12 L5,12 L5,9 L8.39300451,9 C9.28052361,9 10,9.67157288 10,10.5 C10,11.3284271 9.28052361,12 8.39300451,12 Z" id="形状"></path>
                            </g>
                        </g>
                    </g>
                </g>
            </g>
        </g>
    </g>
</svg>