<?xml version="1.0" encoding="UTF-8"?>
<svg width="16px" height="16px" viewBox="0 0 16 16" version="1.1" xmlns="http://www.w3.org/2000/svg" xmlns:xlink="http://www.w3.org/1999/xlink">
    <title>切片</title>
    <g id="截图" stroke="none" stroke-width="1" fill="none" fill-rule="evenodd">
        <g id="16、截图-状态一览" transform="translate(-1074.000000, -298.000000)" fill="#333333">
            <g id="字体副操作栏" transform="translate(1048.000000, 246.001984)">
                <g id="字体区" transform="translate(10.000000, 16.998016)">
                    <g id="类型" transform="translate(0.000000, 32.000000)">
                        <g id="icon/-12/-删除线" transform="translate(16.000000, 3.000000)">
                            <path d="M9,10 L9,14 L7,14 L7,10 L9,10 Z M13.5,8 C13.7761424,8 14,8.22385763 14,8.5 C14,8.77614237 13.7761424,9 13.5,9 L2.5,9 C2.22385763,9 2,8.77614237 2,8.5 C2,8.22385763 2.22385763,8 2.5,8 L13.5,8 Z M13,2 L13,4 L9,4 L9,7 L7,7 L7,4 L3,4 L3,2 L13,2 Z" id="形状结合"></path>
                        </g>
                    </g>
                </g>
            </g>
        </g>
    </g>
</svg>