<?xml version="1.0" encoding="UTF-8"?>
<svg width="16px" height="16px" viewBox="0 0 16 16" version="1.1" xmlns="http://www.w3.org/2000/svg" xmlns:xlink="http://www.w3.org/1999/xlink">
    <!-- Generator: Sketch 59 (86127) - https://sketch.com -->
    <title>audio-card-symbolic-b</title>
    <desc>Created with Sketch.</desc>
    <g id="audio-card-symbolic-b" stroke="none" stroke-width="1" fill="none" fill-rule="evenodd" opacity="0.8">
        <g id="audio-card-symbolic" transform="translate(1.000000, 1.000000)">
            <g id="图层_2">
                <g id="编组" fill="#1F2022" fill-rule="nonzero">
                    <path d="M12,1 C12.6,1 13,1.4 13,2 L13,12 C13,12.6 12.6,13 12,13 L2,13 C1.4,13 1,12.6 1,12 L1,2 C1,1.4 1.4,1 2,1 L12,1 M12,0 L2,0 C0.9,0 0,0.9 0,2 L0,12 C0,13.1 0.9,14 2,14 L12,14 C13.1,14 14,13.1 14,12 L14,2 C14,0.9 13.1,0 12,0 L12,0 Z" id="形状"></path>
                </g>
                <g id="编组" transform="translate(3.000000, 2.000000)">
                    <path d="M2.5,8.5 L2.5,1.8 C2.5,1.3 2.8,0.9 3.3,0.8 L6.3,0.2 C6.9,0.1 7.5,0.5 7.5,1.2 L7.5,7.5" id="路径" stroke="#1F2022"></path>
                    <circle id="椭圆形" fill="#1F2022" fill-rule="nonzero" cx="1.5" cy="8.5" r="1.5"></circle>
                    <circle id="椭圆形" fill="#1F2022" fill-rule="nonzero" cx="6.5" cy="7.5" r="1.5"></circle>
                    <line x1="2.5" y1="4" x2="7.5" y2="3" id="路径" stroke="#1F2022"></line>
                </g>
            </g>
        </g>
    </g>
</svg>