<?xml version="1.0" encoding="UTF-8"?>
<svg width="16px" height="16px" viewBox="0 0 16 16" version="1.1" xmlns="http://www.w3.org/2000/svg" xmlns:xlink="http://www.w3.org/1999/xlink">
    <!-- Generator: Sketch 59 (86127) - https://sketch.com -->
    <title>lingmo-folder-music-symbolic-b</title>
    <desc>Created with Sketch.</desc>
    <g id="lingmo-folder-music-symbolic-b" stroke="none" stroke-width="1" fill="none" fill-rule="evenodd">
        <g id="lingmo-folder-music-symbolic">
            <rect id="矩形" x="0" y="0" width="16" height="16"></rect>
        </g>
        <g id="lingmo-folder-music-symbolic" transform="translate(1.000000, 0.000000)" fill="#1F2022" fill-rule="nonzero" opacity="0.75">
            <path d="M12.7,0.2 C12.6,0.1 12.4,0 12.2,0 C11.6,0 4.9,2.2 4.8,2.2 C4.1,2.6 4,3.1 4,3.7 L4,11.9 C3.6,11.7 3.2,11.5 2.8,11.5 C1.6,11.5 0.6,12.5 0.6,13.7 C0.6,14.9 1.6,15.9 2.8,15.9 C3.9,15.9 4.8,15.1 4.9,14 L4.9,14 L4.9,6.2 L12,4 L12,8.9 C11.6,8.7 11.2,8.5 10.8,8.5 C9.6,8.5 8.6,9.5 8.6,10.7 C8.6,11.9 9.6,12.9 10.8,12.9 C11.9,12.9 12.8,12.1 13,11 L13,11 L13,1.4 C13.1,1 12.9,0.5 12.7,0.2 Z M2.8,14.9 C2.1,14.9 1.6,14.4 1.6,13.7 C1.6,13 2.1,12.5 2.8,12.5 C3.5,12.5 4,13.1 4,13.7 C4,14.3 3.5,14.9 2.8,14.9 L2.8,14.9 Z M5,5.2 L5,3.7 C5,3.6 5,3.4 5,3.3 L5.1,3.2 C5.6,3 10.7,1.5 12,1.1 L12,3 L5,5.2 Z M10.8,11.9 C10.1,11.9 9.6,11.4 9.6,10.7 C9.6,10 10.1,9.5 10.8,9.5 C11.5,9.5 12,10 12,10.7 C12,11.4 11.5,11.9 10.8,11.9 Z" id="形状"></path>
        </g>
    </g>
</svg>