<svg xmlns="http://www.w3.org/2000/svg" xmlns:xlink="http://www.w3.org/1999/xlink" width="64" height="64" viewBox="0 0 64 64">
  <defs>
    <filter id="dialog-password-publicshare-a" width="137.5%" height="137.5%" x="-18.8%" y="-18.8%" filterUnits="objectBoundingBox">
      <feOffset dy="1" in="SourceAlpha" result="shadowOffsetOuter1"/>
      <feGaussianBlur in="shadowOffsetOuter1" result="shadowBlurOuter1" stdDeviation="2"/>
      <feColorMatrix in="shadowBlurOuter1" result="shadowMatrixOuter1" values="0 0 0 0 0   0 0 0 0 0   0 0 0 0 0  0 0 0 0.198651934 0"/>
      <feMerge>
        <feMergeNode in="shadowMatrixOuter1"/>
        <feMergeNode in="SourceGraphic"/>
      </feMerge>
    </filter>
    <circle id="dialog-password-publicshare-b" cx="28" cy="28" r="28"/>
    <filter id="dialog-password-publicshare-c" width="117.9%" height="117.9%" x="-8.9%" y="-8.9%" filterUnits="objectBoundingBox">
      <feGaussianBlur in="SourceAlpha" result="shadowBlurInner1" stdDeviation="5"/>
      <feOffset in="shadowBlurInner1" result="shadowOffsetInner1"/>
      <feComposite in="shadowOffsetInner1" in2="SourceAlpha" k2="-1" k3="1" operator="arithmetic" result="shadowInnerInner1"/>
      <feColorMatrix in="shadowInnerInner1" values="0 0 0 0 1   0 0 0 0 1   0 0 0 0 1  0 0 0 0.619905485 0"/>
    </filter>
  </defs>
  <g fill="none" filter="url(#dialog-password-publicshare-a)" transform="translate(4 4)">
    <use fill="#F39800" xlink:href="#dialog-password-publicshare-b"/>
    <use fill="#000" filter="url(#dialog-password-publicshare-c)" xlink:href="#dialog-password-publicshare-b"/>
    <path fill="#FFF" d="M31.006271 33.9949311L20.852281 28.1063077C20.8530074 28.0709607 20.8533724 28.0355236 20.8533724 28 20.8533724 25.2385763 18.6476199 23 15.9266862 23 13.2057526 23 11 25.2385763 11 28 11 30.7614237 13.2057526 33 15.9266862 33 17.2238114 33 18.4038552 32.4912555 19.2836599 31.6596497L29.0457187 37.3209797C29.0155714 37.5430194 29 37.7696912 29 38 29 40.7614237 31.2385763 43 34 43 36.7614237 43 39 40.7614237 39 38 39 35.2385763 36.7614237 33 34 33 32.877208 33 31.8408545 33.3700875 31.006271 33.9949311L31.006271 33.9949311zM34 23C36.7614237 23 39 20.7614237 39 18 39 15.2385763 36.7614237 13 34 13 31.2385763 13 29 15.2385763 29 18 29 20.7614237 31.2385763 23 34 23zM34 21C35.6568542 21 37 19.6568542 37 18 37 16.3431458 35.6568542 15 34 15 32.3431458 15 31 16.3431458 31 18 31 19.6568542 32.3431458 21 34 21z"/>
    <path fill="#FFF" d="M24.9641016,22.0980762 L24.0980762,22.5980762 L23.0980762,20.8660254 C22.8219338,20.3877328 22.2103434,20.2238576 21.7320508,20.5 C21.2537582,20.7761424 21.089883,21.3877328 21.3660254,21.8660254 L22.3660254,23.5980762 L21.5,24.0980762 C21.0217074,24.3742186 20.8578322,24.985809 21.1339746,25.4641016 C21.410117,25.9423942 22.0217074,26.1062694 22.5,25.830127 L30.8229972,21.0248423 C31.3012898,20.7487 31.465165,20.1371096 31.1890226,19.6588169 C30.9128802,19.1805243 30.3012898,19.0166492 29.8229972,19.2927915 L26.6961524,21.0980762 L25.1961524,18.5 C24.92001,18.0217074 24.3084196,17.8578322 23.830127,18.1339746 C23.3518344,18.410117 23.1879592,19.0217074 23.4641016,19.5 L24.9641016,22.0980762 L24.9641016,22.0980762 Z"/>
  </g>
</svg>
