<?xml version="1.0" encoding="UTF-8"?>
<svg width="15px" height="15px" viewBox="0 0 15 15" version="1.1" xmlns="http://www.w3.org/2000/svg" xmlns:xlink="http://www.w3.org/1999/xlink">
    <title>list_icon_pause/normal</title>
    <g id="list_icon_pause/normal" stroke="none" stroke-width="1" fill="none" fill-rule="evenodd">
        <rect id="矩形" x="0" y="0" width="15" height="15"></rect>
        <path d="M10.5,2 C10.7761424,2 11,2.22385763 11,2.5 L11,13.5 C11,13.7761424 10.7761424,14 10.5,14 C10.2238576,14 10,13.7761424 10,13.5 L10,2.5 C10,2.22385763 10.2238576,2 10.5,2 Z M5.5,2 C5.77614237,2 6,2.22385763 6,2.5 L6,13.5 C6,13.7761424 5.77614237,14 5.5,14 C5.22385763,14 5,13.7761424 5,13.5 L5,2.5 C5,2.22385763 5.22385763,2 5.5,2 Z" id="形状结合" fill="#536076"></path>
    </g>
</svg>
