<?xml version="1.0" encoding="iso-8859-1"?>
<!-- Generator: Adobe Illustrator 18.1.1, SVG Export Plug-In . SVG Version: 6.00 Build 0)  -->
<!DOCTYPE svg PUBLIC "-//W3C//DTD SVG 1.1//EN" "http://www.w3.org/Graphics/SVG/1.1/DTD/svg11.dtd" [
	<!ENTITY ns_extend "http://ns.adobe.com/Extensibility/1.0/">
	<!ENTITY ns_ai "http://ns.adobe.com/AdobeIllustrator/10.0/">
	<!ENTITY ns_graphs "http://ns.adobe.com/Graphs/1.0/">
	<!ENTITY ns_vars "http://ns.adobe.com/Variables/1.0/">
	<!ENTITY ns_imrep "http://ns.adobe.com/ImageReplacement/1.0/">
	<!ENTITY ns_sfw "http://ns.adobe.com/SaveForWeb/1.0/">
	<!ENTITY ns_custom "http://ns.adobe.com/GenericCustomNamespace/1.0/">
	<!ENTITY ns_adobe_xpath "http://ns.adobe.com/XPath/1.0/">
]>
<svg version="1.1" id="&#x56FE;&#x5C42;_1" xmlns:x="&ns_extend;" xmlns:i="&ns_ai;" xmlns:graph="&ns_graphs;"
	 xmlns="http://www.w3.org/2000/svg" xmlns:xlink="http://www.w3.org/1999/xlink" x="0px" y="0px" viewBox="0 0 20 20"
	 enable-background="new 0 0 20 20" xml:space="preserve">
<metadata>
	<sfw  xmlns="&ns_sfw;">
		<slices></slices>
		<sliceSourceBounds  height="70.198" width="45.915" y="-67.374" x="0.625" bottomLeftOrigin="true"></sliceSourceBounds>
	</sfw>
</metadata>
<path fill="#7F7F7F" d="M17.58,9.297c-0.275-0.275-0.72-0.275-0.994,0L9.62,16.261c-1.369,1.369-3.597,1.368-4.971-0.007
	c-1.369-1.369-1.369-3.595,0-4.964l1.495-1.496l0,0l6.463-6.464c0.824-0.823,2.162-0.821,2.983,0c0.823,0.823,0.823,2.162,0,2.984
	l-1.491,1.491l-4.971,4.971L8.63,13.274c-0.275,0.275-0.72,0.275-0.994,0s-0.275-0.72,0-0.994l4.971-4.971
	c0.275-0.275,0.275-0.72,0-0.994s-0.72-0.275-0.994,0l-4.971,4.971c-0.823,0.823-0.823,2.16,0,2.983
	c0.398,0.398,0.928,0.618,1.491,0.618s1.093-0.22,1.491-0.618l0.497-0.497L15.093,8.8l1.491-1.491c1.371-1.371,1.371-3.602,0-4.973
	s-3.601-1.373-4.971,0l-0.497,0.497l0,0l-7.461,7.462c-0.928,0.928-1.441,2.163-1.441,3.477c0,1.313,0.512,2.547,1.447,3.483
	c0.959,0.959,2.218,1.438,3.477,1.438c1.258,0,2.517-0.479,3.476-1.438l6.965-6.964C17.855,10.017,17.855,9.572,17.58,9.297z"/>
</svg>
