<?xml version="1.0" encoding="iso-8859-1"?>
<!-- Generator: Adobe Illustrator 18.1.1, SVG Export Plug-In . SVG Version: 6.00 Build 0)  -->
<!DOCTYPE svg PUBLIC "-//W3C//DTD SVG 1.1//EN" "http://www.w3.org/Graphics/SVG/1.1/DTD/svg11.dtd" [
	<!ENTITY ns_extend "http://ns.adobe.com/Extensibility/1.0/">
	<!ENTITY ns_ai "http://ns.adobe.com/AdobeIllustrator/10.0/">
	<!ENTITY ns_graphs "http://ns.adobe.com/Graphs/1.0/">
	<!ENTITY ns_vars "http://ns.adobe.com/Variables/1.0/">
	<!ENTITY ns_imrep "http://ns.adobe.com/ImageReplacement/1.0/">
	<!ENTITY ns_sfw "http://ns.adobe.com/SaveForWeb/1.0/">
	<!ENTITY ns_custom "http://ns.adobe.com/GenericCustomNamespace/1.0/">
	<!ENTITY ns_adobe_xpath "http://ns.adobe.com/XPath/1.0/">
]>
<svg version="1.1" id="&#x56FE;&#x5C42;_1" xmlns:x="&ns_extend;" xmlns:i="&ns_ai;" xmlns:graph="&ns_graphs;"
	 xmlns="http://www.w3.org/2000/svg" xmlns:xlink="http://www.w3.org/1999/xlink" x="0px" y="0px" viewBox="0 0 20 20"
	 enable-background="new 0 0 20 20" xml:space="preserve">
<metadata>
	<sfw  xmlns="&ns_sfw;">
		<slices></slices>
		<sliceSourceBounds  height="70.198" width="45.915" y="-67.374" x="0.625" bottomLeftOrigin="true"></sliceSourceBounds>
	</sfw>
</metadata>
<g>
	<path opacity="0.1" d="M10,19.374c-5.169,0-9.375-4.205-9.375-9.374S4.831,0.625,10,0.625c5.168,0,9.375,4.205,9.375,9.375
		S15.168,19.374,10,19.374z"/>
	<circle fill="#FFFFFF" cx="10" cy="10" r="8.125"/>
	
		<radialGradient id="SVGID_1_" cx="14.2606" cy="3.88" r="7.1615" gradientTransform="matrix(0.96 0 0 0.96 -3.6902 6.2746)" gradientUnits="userSpaceOnUse">
		<stop  offset="0" style="stop-color:#F39800"/>
		<stop  offset="1" style="stop-color:#E83828"/>
	</radialGradient>
	<path fill="url(#SVGID_1_)" d="M10,16.874c-3.792,0-6.875-3.084-6.875-6.874c0-3.791,3.083-6.876,6.875-6.876
		c3.789,0,6.875,3.085,6.875,6.876C16.875,13.79,13.789,16.874,10,16.874z"/>
	<path fill="#FFFFFF" d="M12.652,13.91c-0.101,0-0.195-0.039-0.266-0.11L10,11.414L7.614,13.8c-0.071,0.071-0.165,0.11-0.266,0.11
		c-0.1,0-0.194-0.039-0.265-0.11l-0.884-0.884c-0.146-0.146-0.146-0.383,0-0.53L8.586,10L6.199,7.614
		c-0.146-0.146-0.146-0.383,0-0.53L7.083,6.2c0.071-0.071,0.165-0.11,0.265-0.11c0.101,0,0.195,0.039,0.266,0.11L10,8.586
		L12.386,6.2c0.071-0.071,0.165-0.11,0.266-0.11c0.1,0,0.194,0.039,0.265,0.11l0.884,0.884c0.146,0.146,0.146,0.383,0,0.53
		L11.414,10l2.386,2.386c0.146,0.146,0.146,0.383,0,0.53L12.917,13.8C12.846,13.871,12.752,13.91,12.652,13.91z"/>
</g>
</svg>
