<?xml version="1.0" encoding="iso-8859-1"?>
<!-- Generator: Adobe Illustrator 18.1.1, SVG Export Plug-In . SVG Version: 6.00 Build 0)  -->
<!DOCTYPE svg PUBLIC "-//W3C//DTD SVG 1.1//EN" "http://www.w3.org/Graphics/SVG/1.1/DTD/svg11.dtd" [
	<!ENTITY ns_extend "http://ns.adobe.com/Extensibility/1.0/">
	<!ENTITY ns_ai "http://ns.adobe.com/AdobeIllustrator/10.0/">
	<!ENTITY ns_graphs "http://ns.adobe.com/Graphs/1.0/">
	<!ENTITY ns_vars "http://ns.adobe.com/Variables/1.0/">
	<!ENTITY ns_imrep "http://ns.adobe.com/ImageReplacement/1.0/">
	<!ENTITY ns_sfw "http://ns.adobe.com/SaveForWeb/1.0/">
	<!ENTITY ns_custom "http://ns.adobe.com/GenericCustomNamespace/1.0/">
	<!ENTITY ns_adobe_xpath "http://ns.adobe.com/XPath/1.0/">
]>
<svg version="1.1" id="&#x56FE;&#x5C42;_1" xmlns:x="&ns_extend;" xmlns:i="&ns_ai;" xmlns:graph="&ns_graphs;"
	 xmlns="http://www.w3.org/2000/svg" xmlns:xlink="http://www.w3.org/1999/xlink" x="0px" y="0px" viewBox="0 0 20 20"
	 enable-background="new 0 0 20 20" xml:space="preserve">
<metadata>
	<sfw  xmlns="&ns_sfw;">
		<slices></slices>
		<sliceSourceBounds  height="70.198" width="45.915" y="-67.374" x="0.625" bottomLeftOrigin="true"></sliceSourceBounds>
	</sfw>
</metadata>
<path fill="#7F7F7F" d="M16.232,2.14l-6.221,6.188l-6.22-6.206C3.529,1.861,3.081,2.046,3.081,2.417v0.382l6.93,9.681l6.93-9.703
	V2.435C16.941,2.065,16.494,1.879,16.232,2.14z"/>
<g>
	<g>
		<path fill="#7F7F7F" d="M5.481,18c-1.91,0-3.465-1.554-3.465-3.465S3.57,11.07,5.481,11.07s3.465,1.554,3.465,3.465
			S7.391,18,5.481,18z M5.481,12.456c-1.146,0-2.079,0.933-2.079,2.079s0.933,2.079,2.079,2.079s2.079-0.933,2.079-2.079
			S6.627,12.456,5.481,12.456z"/>
	</g>
</g>
<g>
	<g>
		<path fill="#7F7F7F" d="M14.534,18c-1.91,0-3.465-1.554-3.465-3.465s1.554-3.465,3.465-3.465s3.465,1.554,3.465,3.465
			S16.445,18,14.534,18z M14.534,12.456c-1.146,0-2.079,0.933-2.079,2.079s0.933,2.079,2.079,2.079s2.079-0.933,2.079-2.079
			S15.681,12.456,14.534,12.456z"/>
	</g>
</g>
</svg>
