<?xml version="1.0" encoding="utf-8"?>
<!-- Generator: Adobe Illustrator 23.0.3, SVG Export Plug-In . SVG Version: 6.00 Build 0)  -->
<svg version="1.1" id="图层_1" xmlns="http://www.w3.org/2000/svg" xmlns:xlink="http://www.w3.org/1999/xlink" x="0px" y="0px"
	 viewBox="0 0 24 24" style="enable-background:new 0 0 24 24;" xml:space="preserve">
<style type="text/css">
	.st0{fill:none;stroke:#FFFFFF;stroke-width:1.0879;stroke-linecap:round;stroke-miterlimit:10;}
	.st1{fill:none;stroke:#FFFFFF;stroke-width:2;stroke-linecap:round;stroke-miterlimit:10;}
	.st2{fill:none;stroke:#FFFFFF;stroke-width:1.5231;stroke-linecap:round;stroke-miterlimit:10;}
</style>
<g>
	<path class="st0" d="M2,14.3c0.8-3.7,5-6.5,10-6.5s9.2,2.8,10,6.5"/>
	<line class="st0" x1="14.5" y1="8" x2="15.5" y2="4"/>
	<line class="st0" x1="9.5" y1="8" x2="8.5" y2="4"/>
	<line class="st0" x1="20.4" y1="11.2" x2="22.5" y2="9"/>
	<line class="st0" x1="6.5" y1="9" x2="4.5" y2="6"/>
	<line class="st0" x1="17.5" y1="9" x2="19.5" y2="6"/>
	<line class="st0" x1="3.6" y1="11.2" x2="1.5" y2="9"/>
</g>
<path class="st2" d="M12,18.5L12,18.5c-1.9,0-3.5-1.6-3.5-3.5v0c0-1.9,1.6-3.5,3.5-3.5h0c1.9,0,3.5,1.6,3.5,3.5v0
	C15.5,16.9,13.9,18.5,12,18.5z"/>
</svg>
