<svg xmlns="http://www.w3.org/2000/svg" width="16" height="16" viewBox="0 0 16 16">
  <path d="M11,1 C12.6568542,1 14,2.34314575 14,4 L14,12 C14,13.6568542 12.6568542,15 11,15 L5,15 C3.34314575,15 2,13.6568542 2,12 L2,4 C2,2.34314575 3.34314575,1 5,1 L11,1 Z M11.5,11 L4.5,11 C3.67157288,11 3,11.6715729 3,12.5 C3,13.3284271 3.67157288,14 4.5,14 L11.5,14 C12.3284271,14 13,13.3284271 13,12.5 C13,11.6715729 12.3284271,11 11.5,11 Z M11.5,12 C11.7761424,12 12,12.2238576 12,12.5 C12,12.7761424 11.7761424,13 11.5,13 C11.2238576,13 11,12.7761424 11,12.5 C11,12.2238576 11.2238576,12 11.5,12 Z M8,2 C5.79085363,2 4,3.79098795 4,6.00008652 C4,8.20918514 5.79085363,10 8,10 C10.2091464,10 12,8.20918514 12,6.00008652 C12,3.79098795 10.2091464,2 8,2 Z M9.0767439,4.27581751 C10.7804108,5.81700284 9.7734678,7.52921355 9.7734678,7.52921355 C9.2549857,8.58818564 8.13114855,9.22501421 7.23471837,9.44813004 C6.19296817,9.19942062 5.33323056,8.45645399 4.89654536,7.46989663 C5.6156039,7.68744207 7.58351542,8.1577618 8.8261321,7.2470819 C9.6320636,6.65632183 9.52822215,5.71026255 9.52822215,5.71026255 C9.5148794,4.99063122 9.0767439,4.27581751 9.0767439,4.27581751 Z M7.63049085,2.55171334 C7.13534215,3.18723462 6.85798021,4.24092175 6.8318658,4.96696241 L6.8309981,5.1562897 L6.83087294,5.1965375 L6.83214187,5.24372491 C6.84157546,5.48137443 6.91117294,6.14404594 7.38569034,6.48419263 L7.51295504,6.56207743 L7.55220069,6.57513171 L7.58479213,6.58351114 C7.75534106,6.62250678 8.17625116,6.64603371 8.51082637,6.06811421 L8.5810769,5.93485496 L8.59368553,5.91065536 C8.64924624,5.79711865 8.86483393,5.2798485 8.7583519,4.2698751 C8.7583519,4.2698751 8.87478005,4.29037539 8.88794405,4.30879594 C8.90110805,4.32706793 9.1450806,5.19743883 8.97365625,5.93039838 C8.97365625,5.93039838 8.81583465,6.79170755 8.0398908,6.98868859 C7.26423951,7.18566958 6.65972002,6.70911219 6.24929618,6.2601856 C5.93175159,5.91286914 5.45433769,4.95737749 5.24137365,3.82466234 C5.81839504,3.10923202 6.66878854,2.63000066 7.63049085,2.55171334 Z M9.41517505,2.89653417 C9.9357274,3.11349964 10.3946907,3.44511422 10.7586264,3.8589473 C10.570593,3.87508648 10.3355901,3.88696249 10.0897002,3.8788929 C10.0897002,3.8788929 9.1832827,3.9212202 8.67501705,4.17472721 C8.67501705,4.17472721 8.29599515,4.34373189 7.91712883,4.63027856 C7.91712883,4.63027856 7.83672083,4.67047427 7.84060903,4.81816304 C7.84403065,4.96539505 7.76346712,5.35791222 7.4950257,5.58797175 C7.4950257,5.58797175 7.30341514,5.68648168 7.39922042,5.82747117 C7.39922042,5.82747117 7.52861976,6.01535564 7.71089864,5.81803127 C7.71089864,5.81803127 8.1809044,5.33446473 8.2096771,4.55521613 C8.2096771,4.55521613 8.31891491,4.46192331 8.49801796,4.41168133 L8.5932093,4.39077914 L8.59372628,4.48009095 C8.59056919,4.74242429 8.547257,5.52379603 8.16037912,6.027164 L8.05632645,6.146753 L8.02220538,6.18025035 C7.8992089,6.29344677 7.47791761,6.61389866 7.32721093,5.85563862 C7.32721093,5.85563862 7.111338,5.00574302 8.2241412,3.99643489 C8.2241412,3.99643489 8.974253,3.24733307 9.41517505,2.89653417 Z"/>
</svg>
