<?xml version="1.0" encoding="UTF-8"?>
<svg width="26px" height="26px" viewBox="0 0 26 26" version="1.1" xmlns="http://www.w3.org/2000/svg" xmlns:xlink="http://www.w3.org/1999/xlink">
    <!-- Generator: Sketch 58 (84663) - https://sketch.com -->
    <title>icon_isolation</title>
    <desc>Created with Sketch.</desc>
    <g id="icon_isolation" stroke="none" stroke-width="1" fill="none" fill-rule="evenodd">
        <g id="编组-3" transform="translate(0.000000, -0.000000)">
            <rect id="矩形" fill="#FF6969" opacity="0" x="0" y="-2.84217094e-14" width="26" height="26"></rect>
            <path d="M4.85355339,3.14644661 L6.63966361,4.9317122 C7.00637165,4.48060463 7.56572162,4.19238816 8.19238816,4.19238816 L14.0074261,4.19238816 C14.1267818,4.19238816 14.2422002,4.23508424 14.3328218,4.31275985 L21.0177742,10.0427191 C21.1286027,10.1377149 21.1923846,10.2763985 21.1923785,10.4223683 L21.192,19.485 L21.192,19.485 L23.2383297,21.5312229 C23.4335918,21.7264851 23.4335918,22.0430676 23.2383297,22.2383297 C23.0430676,22.4335918 22.7264851,22.4335918 22.5312229,22.2383297 L21.0973282,20.8034177 C20.8390941,21.6091377 20.0838538,22.1923882 19.1923882,22.1923882 L8.19238816,22.1923882 C7.08781866,22.1923882 6.19238816,21.2969577 6.19238816,20.1923882 L6.19238816,6.19238816 C6.19238816,6.09948682 6.19872232,6.00806492 6.21098235,5.91853075 L4.14644661,3.85355339 C3.95118446,3.65829124 3.95118446,3.34170876 4.14644661,3.14644661 C4.34170876,2.95118446 4.65829124,2.95118446 4.85355339,3.14644661 Z M7.192,6.899 L7.19238816,20.1923882 C7.19238816,20.705224 7.57842835,21.1278953 8.07576703,21.1856604 L8.19238816,21.1923882 L19.1923882,21.1923882 C19.705224,21.1923882 20.1278953,20.806348 20.1856604,20.3090093 L20.1923882,20.1923882 L20.192,19.899 L17.485,17.192 L8.69238816,17.1923882 C8.41624578,17.1923882 8.19238816,16.9685305 8.19238816,16.6923882 C8.19238816,16.4162458 8.41624578,16.1923882 8.69238816,16.1923882 L16.485,16.192 L13.485,13.192 L8.69238816,13.1923882 C8.41624578,13.1923882 8.19238816,12.9685305 8.19238816,12.6923882 C8.19238816,12.4162458 8.41624578,12.1923882 8.69238816,12.1923882 L12.485,12.192 L7.192,6.899 Z M13.6923882,5.19238816 L8.19238816,5.19238816 L8.19238816,5.19238816 C7.84129285,5.19238816 7.53245749,5.37332451 7.35404066,5.64703864 L13.899,12.192 L16.6923882,12.1923882 C16.9685305,12.1923882 17.1923882,12.4162458 17.1923882,12.6923882 C17.1923882,12.9685305 16.9685305,13.1923882 16.6923882,13.1923882 L14.899,13.192 L17.899,16.192 L18.6923882,16.1923882 C18.9685305,16.1923882 19.1923882,16.4162458 19.1923882,16.6923882 C19.1923882,16.9067722 19.0574637,17.0896429 18.8678984,17.1607168 L20.192,18.485 L20.1923648,10.6923882 C20.1924011,10.4162458 19.9685539,10.1923777 19.6924116,10.1923648 C19.6924038,10.1923648 19.692396,10.1923648 19.6923882,10.1923882 L15.1923882,10.1923882 L15.1923882,10.1923882 C14.6795523,10.1923882 14.256881,9.80634797 14.1991159,9.30900928 L14.1923882,9.19238816 L14.1923882,5.69238816 C14.1923882,5.41624578 13.9685305,5.19238816 13.6923882,5.19238816 Z M15.1923882,6.19238816 L15.1923882,8.69238816 C15.1923882,8.96853053 15.4162458,9.19238816 15.6923882,9.19238816 L18.6923882,9.19238816 L15.1923882,6.19238816 Z" id="形状" fill="#536076"></path>
        </g>
    </g>
</svg>