<?xml version="1.0" encoding="UTF-8"?>
<svg width="21px" height="21px" viewBox="0 0 21 21" version="1.1" xmlns="http://www.w3.org/2000/svg" xmlns:xlink="http://www.w3.org/1999/xlink">
    <title>设置-浅色</title>
    <g id="一期V6.0" stroke="none" stroke-width="1" fill="none" fill-rule="evenodd">
        <g id="14-安全中心-病毒查杀1" transform="translate(-1324.000000, -814.000000)" fill="#FFFFFF" fill-rule="nonzero">
            <g id="设置-浅色" transform="translate(1324.000000, 814.000000)">
                <path d="M17.8571429,11.0027483 C18.2144084,11.0027483 18.5445355,11.1933472 18.7231683,11.5027483 L20.8660254,15.2142857 C21.0446582,15.5236868 21.0446582,15.9048846 20.8660254,16.2142857 L18.7231683,19.9258232 C18.5445355,20.2352242 18.2144084,20.4258232 17.8571429,20.4258232 L13.5714286,20.4258232 C13.214163,20.4258232 12.884036,20.2352242 12.7054032,19.9258232 L10.562546,16.2142857 C10.3839132,15.9048846 10.3839132,15.5236868 10.562546,15.2142857 L12.7054032,11.5027483 C12.884036,11.1933472 13.214163,11.0027483 13.5714286,11.0027483 Z M15.8003321,14.3045845 C14.971905,14.3045845 14.3003321,14.9761574 14.3003321,15.8045845 C14.3003321,16.6330117 14.971905,17.3045845 15.8003321,17.3045845 C16.6287592,17.3045845 17.3003321,16.6330117 17.3003321,15.8045845 C17.3003321,14.9761574 16.6287592,14.3045845 15.8003321,14.3045845 Z M7.85714286,0 L1,0 C0.44771525,0 0,0.44771525 0,1 L0,7.85714286 C0,8.40942761 0.44771525,8.85714286 1,8.85714286 L7.85714286,8.85714286 C8.40942761,8.85714286 8.85714286,8.40942761 8.85714286,7.85714286 L8.85714286,1 C8.85714286,0.44771525 8.40942761,0 7.85714286,0 Z M7.85714286,11 L1,11 C0.44771525,11 0,11.4477153 0,12 L0,18.8571429 C0,19.4094276 0.44771525,19.8571429 1,19.8571429 L7.85714286,19.8571429 C8.40942761,19.8571429 8.85714286,19.4094276 8.85714286,18.8571429 L8.85714286,12 C8.85714286,11.4477153 8.40942761,11 7.85714286,11 Z M18.8571429,0 L12,0 C11.4477153,0 11,0.44771525 11,1 L11,7.85714286 C11,8.40942761 11.4477153,8.85714286 12,8.85714286 L18.8571429,8.85714286 C19.4094276,8.85714286 19.8571429,8.40942761 19.8571429,7.85714286 L19.8571429,1 C19.8571429,0.44771525 19.4094276,0 18.8571429,0 Z" id="形状结合"></path>
            </g>
        </g>
    </g>
</svg>