<?xml version="1.0" encoding="UTF-8"?>
<svg width="146px" height="146px" viewBox="0 0 146 146" version="1.1" xmlns="http://www.w3.org/2000/svg" xmlns:xlink="http://www.w3.org/1999/xlink">
    <title>Illustration/Anti_Virus/Quick_killing</title>
    <defs>
        <linearGradient x1="50%" y1="-21.4721282%" x2="50%" y2="122.198418%" id="linearGradient-1">
            <stop stop-color="#00B6FF" stop-opacity="0" offset="0%"></stop>
            <stop stop-color="#FFE4FF" offset="100%"></stop>
        </linearGradient>
        <radialGradient cx="50%" cy="0%" fx="50%" fy="0%" r="205.729238%" gradientTransform="translate(0.500000,0.000000),scale(1.000000,0.475385),rotate(90.000000),translate(-0.500000,-0.000000)" id="radialGradient-2">
            <stop stop-color="#FFFFFF" stop-opacity="0" offset="0%"></stop>
            <stop stop-color="#FFFFFF" offset="100%"></stop>
        </radialGradient>
        <radialGradient cx="50%" cy="1.02754925%" fx="50%" fy="1.02754925%" r="146.568764%" gradientTransform="translate(0.500000,0.010275),scale(1.000000,0.660256),rotate(90.000000),translate(-0.500000,-0.010275)" id="radialGradient-3">
            <stop stop-color="#FFFFFF" stop-opacity="0" offset="0%"></stop>
            <stop stop-color="#FFFFFF" offset="100%"></stop>
        </radialGradient>
        <linearGradient x1="121.571552%" y1="69.8555582%" x2="9.76549245%" y2="69.8555582%" id="linearGradient-4">
            <stop stop-color="#FFBFC1" offset="0%"></stop>
            <stop stop-color="#FF0000" offset="100%"></stop>
        </linearGradient>
        <path d="M71.160487,70.6002275 C56.1646068,75.4287574 48.6666667,84.5537574 48.6666667,97.9752275 C51.8577441,95.7906625 56.950505,95.0334495 60.3187053,95.0334495 C64.7624229,95.0334495 68.3763501,96.0140421 71.160487,97.9752275 L71.160487,70.6002275 Z" id="path-5"></path>
        <filter x="-8.9%" y="-7.3%" width="117.8%" height="114.6%" filterUnits="objectBoundingBox" id="filter-6">
            <feGaussianBlur stdDeviation="1" in="SourceAlpha" result="shadowBlurInner1"></feGaussianBlur>
            <feOffset dx="2" dy="-2" in="shadowBlurInner1" result="shadowOffsetInner1"></feOffset>
            <feComposite in="shadowOffsetInner1" in2="SourceAlpha" operator="arithmetic" k2="-1" k3="1" result="shadowInnerInner1"></feComposite>
            <feColorMatrix values="0 0 0 0 0.844756722   0 0 0 0 0   0 0 0 0 0  0 0 0 0.311588314 0" type="matrix" in="shadowInnerInner1"></feColorMatrix>
        </filter>
        <path d="M22.4938204,70.6002275 C7.49794012,75.4287574 0,84.5537574 0,97.9752275 C3.19107741,95.7906625 8.28383834,95.0334495 11.6520386,95.0334495 C16.0957562,95.0334495 19.7096835,96.0140421 22.4938204,97.9752275 L22.4938204,70.6002275 Z" id="path-7"></path>
        <filter x="-8.9%" y="-7.3%" width="117.8%" height="114.6%" filterUnits="objectBoundingBox" id="filter-8">
            <feGaussianBlur stdDeviation="1" in="SourceAlpha" result="shadowBlurInner1"></feGaussianBlur>
            <feOffset dx="2" dy="-2" in="shadowBlurInner1" result="shadowOffsetInner1"></feOffset>
            <feComposite in="shadowOffsetInner1" in2="SourceAlpha" operator="arithmetic" k2="-1" k3="1" result="shadowInnerInner1"></feComposite>
            <feColorMatrix values="0 0 0 0 0.844756722   0 0 0 0 0   0 0 0 0 0  0 0 0 0.313593511 0" type="matrix" in="shadowInnerInner1"></feColorMatrix>
        </filter>
        <linearGradient x1="116.889832%" y1="50%" x2="4.97846994%" y2="50%" id="linearGradient-9">
            <stop stop-color="#0088FF" offset="0%"></stop>
            <stop stop-color="#52BAFF" offset="24.0356566%"></stop>
            <stop stop-color="#9CD4FF" offset="42.7738955%"></stop>
            <stop stop-color="#006EF9" offset="100%"></stop>
        </linearGradient>
        <linearGradient x1="100%" y1="55.9473493%" x2="0%" y2="55.9473493%" id="linearGradient-10">
            <stop stop-color="#F0F7FF" offset="0%"></stop>
            <stop stop-color="#CCE7FD" offset="100%"></stop>
        </linearGradient>
        <path d="M8.40204082,97.8058252 C2.80068027,85.5896349 0,71.1658194 0,54.5343787 C0,37.9029379 7.17521368,19.7248117 21.525641,0 L21.525641,0 C35.8760684,19.7248117 43.0512821,37.9029379 43.0512821,54.5343787 C43.0512821,71.1658194 40.2506018,85.5896349 34.6492412,97.8058252 Z" id="path-11"></path>
        <linearGradient x1="100%" y1="69.8555582%" x2="9.76549245%" y2="69.8555582%" id="linearGradient-13">
            <stop stop-color="#FFC2C7" offset="0%"></stop>
            <stop stop-color="#FF0000" offset="100%"></stop>
        </linearGradient>
        <linearGradient x1="98.2542636%" y1="50%" x2="4.97846994%" y2="50%" id="linearGradient-14">
            <stop stop-color="#0088FF" offset="0%"></stop>
            <stop stop-color="#9CD4FF" offset="22.9281039%"></stop>
            <stop stop-color="#006EF9" offset="100%"></stop>
        </linearGradient>
        <linearGradient x1="50%" y1="0%" x2="50%" y2="100%" id="linearGradient-15">
            <stop stop-color="#FFFFFF" stop-opacity="0.46208479" offset="0%"></stop>
            <stop stop-color="#FFFFFF" stop-opacity="0.706075175" offset="100%"></stop>
        </linearGradient>
        <filter x="-26.2%" y="-3.7%" width="152.4%" height="107.4%" filterUnits="objectBoundingBox" id="filter-16">
            <feGaussianBlur stdDeviation="1.34535256" in="SourceGraphic"></feGaussianBlur>
        </filter>
        <filter x="-28.6%" y="-8.3%" width="157.3%" height="116.6%" filterUnits="objectBoundingBox" id="filter-17">
            <feGaussianBlur stdDeviation="2.86618531" in="SourceGraphic"></feGaussianBlur>
        </filter>
        <linearGradient x1="50%" y1="0%" x2="50%" y2="100%" id="linearGradient-18">
            <stop stop-color="#FFCB30" offset="0%"></stop>
            <stop stop-color="#FF8200" offset="100%"></stop>
        </linearGradient>
    </defs>
    <g id="Illustration/Anti_Virus/Quick_killing" stroke="none" stroke-width="1" fill="none" fill-rule="evenodd">
        <rect id="矩形" x="0" y="0" width="146" height="146"></rect>
        <circle id="椭圆形" fill="url(#linearGradient-1)" opacity="0.5" cx="73.7604167" cy="80.6041667" r="65.3958333"></circle>
        <g id="编组-18" transform="translate(38.020833, 3.041667)">
            <path d="M34.3385493,105.956311 C30.4247964,109.144198 28.46792,112.596689 28.46792,116.313784 C28.46792,120.030879 31.1586251,127.898507 36.5400354,139.916667 L36.5400354,105.956311 L34.3385493,105.956311 Z M38.7415214,105.956311 C42.6552743,109.144198 44.6121507,112.596689 44.6121507,116.313784 C44.6121507,120.030879 41.9214456,127.898507 36.5400354,139.916667 L36.5400354,105.956311 L38.7415214,105.956311 Z" id="形状结合" fill="url(#radialGradient-2)"></path>
            <path d="M34.7054637,108.673139 C31.4440029,110.585871 29.8132725,112.657366 29.8132725,114.887623 C29.8132725,117.11788 32.0555268,121.838457 36.5400354,129.049353 L36.5400354,108.673139 L34.7054637,108.673139 Z M38.374607,108.673139 C41.6360678,110.585871 43.2667982,112.657366 43.2667982,114.887623 C43.2667982,117.11788 41.0245439,121.838457 36.5400354,129.049353 L36.5400354,108.673139 L38.374607,108.673139 Z" id="形状结合备份-2" fill="url(#radialGradient-3)"></path>
            <g id="路径-14备份" transform="translate(59.913577, 84.287727) scale(-1, 1) translate(-59.913577, -84.287727) ">
                <use fill="url(#linearGradient-4)" fill-rule="evenodd" xlink:href="#path-5"></use>
                <use fill="black" fill-opacity="1" filter="url(#filter-6)" xlink:href="#path-5"></use>
            </g>
            <g id="路径-14备份-3">
                <use fill="url(#linearGradient-4)" fill-rule="evenodd" xlink:href="#path-7"></use>
                <use fill="black" fill-opacity="1" filter="url(#filter-8)" xlink:href="#path-7"></use>
            </g>
            <g id="编组" transform="translate(13.669042, 0.000000)">
                <rect id="矩形" fill="url(#linearGradient-9)" x="12.1081731" y="93.7305825" width="20.1802885" height="12.2257282" rx="2.69070513"></rect>
                <g id="编组-16">
                    <mask id="mask-12" fill="white">
                        <use xlink:href="#path-11"></use>
                    </mask>
                    <use id="形状结合" fill="url(#linearGradient-10)" xlink:href="#path-11"></use>
                    <path d="M-1.34535256,46.2540645 C-1.04997735,46.2540645 4.33143291,44.4201854 14.7988782,40.7524272 L29.5977564,40.7524272 L43.0512821,46.2540645 L49.1290866,43.5032459 L47.4923062,5.43365696 L22.1983173,-13.829703 L7.18587098,-1.98972829 L-1.34535256,18.5750705 C-1.64072778,37.0277332 -1.64072778,46.2540645 -1.34535256,46.2540645 Z" id="路径-4" fill="url(#linearGradient-13)" mask="url(#mask-12)"></path>
                    <path d="M0.78530256,44.0311614 C7.06361453,40.4434704 13.7903773,38.6496248 20.965591,38.6496248 C28.1408047,38.6496248 35.3160184,40.4434704 42.491232,44.0311614 L43.1764237,47.8534551 C34.8385974,44.7855117 27.6592119,43.25154 21.6382673,43.25154 C15.6173227,43.25154 8.36557119,44.7855117 -0.116987179,47.8534551 L0.78530256,44.0311614 Z" id="路径-9" fill="url(#linearGradient-14)" mask="url(#mask-12)"></path>
                    <path d="M21.525641,0 C24.278899,15.5545407 25.655528,35.0251448 25.655528,58.4118123 C25.655528,81.7984798 24.5031244,98.3822997 22.1983173,108.163272 L25.655528,108.954905 C36.3491025,91.2625646 39.4373912,70.3056303 34.920394,46.0841016 C30.4033968,21.862573 25.9384792,6.50120578 21.525641,0 Z" id="路径-11" fill="url(#linearGradient-15)" opacity="0.592610677" filter="url(#filter-16)" mask="url(#mask-12)"></path>
                    <path d="M22.1983173,0 C10.8747133,20.4358625 5.21291123,39.2272595 5.21291123,56.3741909 C5.21291123,73.5211224 9.76922433,89.3564462 18.8818505,103.880163 L1.64313008e-12,103.880163 L-7.82657535,58.4118123 L-7.82657535,7.65049158 L22.1983173,0 Z" id="路径-12" fill-opacity="0.366231425" fill="#35B1FF" filter="url(#filter-17)" mask="url(#mask-12)"></path>
                </g>
            </g>
            <path d="M32.840807,55.6949838 L43.2849751,55.6997882 L38.501599,66.9551691 L38.5059387,66.9575925 C38.4303212,67.124985 38.3926509,67.3093291 38.396025,67.4954682 C38.4179999,68.1341929 38.9049972,68.6258106 39.4898754,68.6328684 L39.4964639,68.6328684 C39.514099,68.6328684 39.5283018,68.64354 39.5449111,68.6423495 C39.5547742,68.6423495 39.563572,68.6353343 39.5733956,68.6353343 L45.9575033,68.7063368 L32.8012365,85.5800971 L35.0759292,74.9230077 L35.0638568,74.9194788 C35.0846087,74.8187574 35.1132904,74.7179083 35.1100158,74.6101291 C35.0861867,73.9520594 34.571849,73.4391409 33.9611692,73.4645233 C33.9501226,73.4645233 33.9412458,73.471581 33.9303176,73.471581 L25.7772148,73.471581 L32.840807,55.6949838 Z" id="路径" fill="url(#linearGradient-18)"></path>
        </g>
    </g>
</svg>