<?xml version="1.0" encoding="UTF-8"?>
<svg width="13px" height="18px" viewBox="0 0 13 18" version="1.1" xmlns="http://www.w3.org/2000/svg" xmlns:xlink="http://www.w3.org/1999/xlink">
    <!-- Generator: Sketch 58 (84663) - https://sketch.com -->
    <title>安恒信息Logo-单独龙标_画板 1</title>
    <desc>Created with Sketch.</desc>
    <g id="病毒查杀" stroke="none" stroke-width="1" fill="none" fill-rule="evenodd">
        <g id="病毒查杀_病毒库后台更新_安恒LOGO" transform="translate(-835.000000, -646.000000)" fill="#C70019" fill-rule="nonzero">
            <g id="编组" transform="translate(68.000000, 47.000000)">
                <g id="编组-8" transform="translate(255.000000, 572.000000)">
                    <g id="编组-6" transform="translate(464.000000, 27.000000)">
                        <g id="安恒信息Logo-单独龙标_画板-1" transform="translate(48.000000, 0.000000)">
                            <path d="M12.0793238,0.0286365122 C12.0700681,0.0286365122 12.0608304,0.0294730313 12.0517674,0.0313537694 C12.0509907,0.030935525 12.0505591,0.0313537694 12.0498196,0.0317481583 C12.0389332,0.0355960069 12.0276644,0.0395157315 12.0168139,0.0437688124 C12.0159172,0.0438413845 12.0150828,0.0442564237 12.0144839,0.0449278141 C10.8239955,0.476524234 9.65381814,0.948917453 8.50395191,1.46210747 L8.52490007,1.05493756 L8.52917824,0.974968606 C8.51399448,0.911831817 8.45749109,0.867348109 8.39255422,0.867407917 C8.39021621,0.86733797 8.38787664,0.867477946 8.38556365,0.867826162 C8.36185508,0.875987814 8.33820599,0.883731532 8.31449742,0.891499105 C8.3143,0.891707679 8.31403992,0.891846148 8.31375666,0.891893494 C5.64769389,1.77466464 2.86899181,2.27124963 0.0621972806,2.366539 C0.0621972806,2.366539 0.0621972806,2.36692131 0.0618149742,2.366539 C0.054813253,2.36692131 0.0474273666,2.36727976 0.0400780379,2.36727976 C0.0188542377,2.3726094 0.00388092424,2.39156351 0.00360511906,2.41344457 C0.00333684283,2.43532563 0.0178342995,2.45464614 0.0389190361,2.46050179 C0.0416885733,2.46132193 0.0445436326,2.46181917 0.0474273666,2.46198361 C1.78932526,2.79752353 3.55787641,2.97568609 5.33169945,2.99431735 L5.33169945,2.99441308 L5.3361917,2.99441308 C5.33904785,2.99441308 5.34183212,2.99450881 5.34467618,2.99456799 L5.34503463,2.99441308 L5.34893019,2.99441308 L5.34857174,2.99456799 C5.28994534,3.02563766 5.23096048,3.05669556 5.17237002,3.08814785 C4.68360748,3.35789128 4.21127699,3.65639149 3.75786744,3.98207556 C3.74080306,3.99408537 3.72373838,4.00648864 3.70663807,4.01851084 C3.04861849,4.49952372 2.52206404,5.13822268 2.17537373,5.87590079 C2.17390002,5.87853243 2.17260257,5.88125897 2.17148995,5.88406244 C2.15477194,5.91933873 2.13886688,5.95505711 2.1229612,5.99118165 C2.11674733,6.00513924 2.11053315,6.01949091 2.10472575,6.03347236 C2.1031485,6.03736792 2.10120041,6.04128764 2.09964702,6.04513549 C2.03376254,6.20552008 1.98207612,6.3713757 1.94518224,6.54079477 C1.91567483,6.67537485 1.89543591,6.8118209 1.88460806,6.9491717 C1.87803552,7.02872241 1.87480905,7.10932864 1.87492864,7.1909904 C1.87481658,7.35534255 1.88818157,7.51942716 1.91488926,7.6815948 C1.93374183,7.79860512 1.95966888,7.91436527 1.99252781,8.02823855 C2.01115766,8.09304289 2.03172351,8.15711979 2.05501415,8.22001136 C2.06434719,8.24680317 2.0744083,8.27316465 2.08451866,8.29917976 L2.0849369,8.29956207 C2.08996792,8.3123842 2.0946284,8.32440609 2.09964733,8.33648747 C2.12714539,8.38182087 2.17951714,8.4057915 2.23180014,8.39697401 C2.28408314,8.38815652 2.32569646,8.34833538 2.33680554,8.29649091 C2.33644709,8.27825546 2.33644709,8.26001969 2.33644709,8.24174737 L2.33644709,8.24015804 C2.33644709,8.16329618 2.33955418,8.08688819 2.34534981,8.01157972 C2.35955062,7.82597456 2.39153995,7.64216169 2.44087745,7.46267143 C2.47284806,7.34510904 2.51238108,7.22973513 2.55922947,7.11727064 C2.58449174,7.0586083 2.61047215,7.00079453 2.63802733,6.94369797 C2.64583053,6.92665838 2.65435095,6.91033384 2.66287136,6.89365177 C2.83364923,6.55093708 3.0508695,6.23340837 3.30839473,5.95003725 C3.34137656,5.91366155 3.37499969,5.87792726 3.40926413,5.84283439 C3.44583077,5.8066485 3.48165697,5.76985601 3.51880916,5.73419742 C4.11596844,5.15843528 4.776718,4.65250946 5.48830131,4.22618747 C5.48438606,4.22500961 5.48035641,4.2242525 5.47628065,4.22392895 C5.57487955,4.16873225 5.67386478,4.11437205 5.77323635,4.06084833 C5.77750244,4.05815948 5.78217501,4.05581731 5.78679955,4.05310492 C5.89783838,3.9913357 6.00988492,3.93154224 6.12293917,3.87372454 C6.1268589,3.87178854 6.13032413,3.8698767 6.13424386,3.86792892 C6.5907189,3.62847625 7.05404571,3.40075435 7.5242243,3.18476324 C7.74392386,3.08386988 7.96516492,2.98567332 8.1879475,2.89017356 C9.2213271,2.44628605 10.2795583,2.06264734 11.3573209,1.74118616 C11.3740389,1.73613129 11.3911033,1.73111236 11.4081797,1.72605749 C11.4880404,1.69580098 11.5543213,1.63777594 11.5948735,1.56261811 L11.5972036,1.55795762 L11.614268,1.52070971 L11.7008213,1.32934337 L12.1992289,0.229686816 L12.2066139,0.213387057 C12.212562,0.197905145 12.2155529,0.181455871 12.2155529,0.164870706 C12.2155529,0.128735002 12.2012237,0.0940741356 12.175672,0.0685222441 C12.1501203,0.0429703525 12.1154595,0.0286365122 12.0793238,0.0286365122 L12.0793238,0.0286365122 Z" id="路径"></path>
                            <path d="M10.9660564,2.35801736 C10.9565623,2.35801736 10.9470826,2.35875538 10.9377112,2.36027618 C10.9224924,2.36255744 10.9077136,2.36715992 10.8938906,2.37392303 C10.5662348,2.47442189 10.2410731,2.5805054 9.91840554,2.69217356 C9.84815194,2.71624059 9.77751573,2.74108461 9.70726213,2.76596427 C9.18634069,2.95032785 8.67228217,3.14880031 8.16508657,3.36138165 C7.90927446,3.46814241 7.65541404,3.57863546 7.40350534,3.69286079 C7.39767377,3.69560943 7.39148468,3.69827411 7.38565219,3.70102244 C6.92775465,3.90805107 6.4814763,4.13987275 6.04880117,4.39545687 C5.90677632,4.47966795 5.7663885,4.56596633 5.62763773,4.65435201 C5.27442155,4.88065983 4.93258978,5.12196485 4.60214241,5.37826709 C4.4317484,5.51021835 4.26444537,5.6463285 4.10023332,5.78659756 C4.07154145,5.81028227 4.0435547,5.8343496 4.01602213,5.85840485 C3.50405257,6.30618158 3.12442655,6.8855634 2.91830096,7.53373704 C2.90705484,7.56787818 2.89652809,7.60204286 2.88684867,7.63661401 C2.86938981,7.69757071 2.85347649,7.75916468 2.83910871,7.82139594 C2.83793762,7.82486148 2.83755532,7.82838651 2.83677862,7.83146974 C2.80678655,7.98072356 2.79175098,8.13258883 2.79175098,8.28482623 C2.79142952,8.84074938 2.99405599,9.37767015 3.36158396,9.79477188 C3.392618,9.83007201 3.4248473,9.86424878 3.45785267,9.89721852 C3.54365966,9.98311835 3.63605562,10.0621733 3.7341948,10.1336598 C3.73966792,10.1379141 3.74546355,10.141762 3.75129635,10.1460758 C3.7681362,10.156329 3.7874947,10.1616992 3.80721005,10.1615885 C3.86720682,10.1615885 3.91583022,10.112911 3.91587088,10.0529142 L3.91587088,10.0505841 C3.91557302,10.0382291 3.91321022,10.026011 3.90888031,10.0144357 C3.90584027,10.0091763 3.90312266,10.0037371 3.90074251,9.99814802 C3.60634965,9.39914207 3.58834388,8.70141597 3.85144916,8.08802303 C3.88148761,8.01697868 3.91544168,7.94765431 3.95315504,7.88036902 C4.25310648,7.30689472 4.67637603,6.80699058 5.19254241,6.41658578 C5.25771728,6.36693367 5.32488795,6.31918131 5.39320678,6.27338974 C5.48713332,6.20779663 5.58211095,6.14333866 5.67813966,6.08001583 C5.95063404,5.90074286 6.23023064,5.73178678 6.51692943,5.57314761 C6.73857687,5.45045762 6.96423935,5.33451542 7.19391687,5.225321 C7.19314017,5.2246041 7.19235139,5.22337322 7.1915747,5.22263215 C7.29056788,5.17760489 7.3896727,5.13309139 7.48888916,5.08909167 C7.49472072,5.08633126 7.50054021,5.08400086 7.50637177,5.08134826 C7.53740582,5.06773735 7.56846372,5.0537559 7.59953339,5.04056324 C7.71790936,4.98893948 7.83656427,4.93796902 7.95549811,4.88765184 C8.52024,4.64929838 9.09367745,4.42830434 9.67581046,4.22466971 C9.9102442,4.14237057 10.1458571,4.06317842 10.3826491,3.98709325 C10.3869273,3.98556372 10.3915639,3.98401002 10.39583,3.98285102 C10.4665534,3.95912523 10.5256533,3.90947111 10.5612171,3.84389721 L10.563129,3.83961904 L10.5759511,3.81124998 L11.0894995,2.67857566 L11.110842,2.63087164 L11.1116547,2.62970055 C11.1148397,2.62513218 11.1176835,2.62033518 11.120163,2.61534857 C11.1263088,2.60389782 11.1311241,2.59178141 11.134515,2.5792358 C11.1387565,2.56421059 11.140853,2.54866126 11.1407463,2.53304923 C11.1407463,2.51863654 11.1388963,2.50428318 11.1352929,2.49032819 C11.116081,2.41251446 11.0462066,2.35788605 10.9660564,2.35801736 Z" id="路径"></path>
                            <path d="M4.83418719,12.9300633 C4.80312929,12.943602 4.77205962,12.9575959 4.74100172,12.9707885 C4.62261274,13.0224123 4.50396981,13.0733907 4.38507294,13.1237238 C3.82029532,13.362089 3.24697343,13.583095 2.66510726,13.7867419 C2.43063759,13.8689813 2.19490523,13.9481536 1.95791019,14.0242588 C1.95363201,14.0258482 1.94897153,14.0273418 1.94469367,14.028537 C1.87396324,14.0522343 1.81486539,14.1018975 1.77934244,14.1674908 L1.77740644,14.1717928 L1.76457222,14.200138 L1.25103594,15.332778 L1.22971725,15.380482 L1.22890461,15.3816531 C1.22569897,15.3862358 1.22284281,15.3910534 1.22036034,15.3960649 C1.21415853,15.4074811 1.20934051,15.4195963 1.20600836,15.4321538 C1.2017649,15.4471864 1.19967281,15.4627445 1.19978947,15.4783642 C1.19978947,15.5247456 1.21809255,15.569253 1.25085431,15.6020845 C1.28361607,15.634916 1.3280843,15.6534072 1.37446575,15.6534072 C1.40024867,15.6534072 1.42570953,15.647678 1.44903346,15.6366892 C1.84722919,15.5144534 2.24197528,15.3840399 2.63327174,15.2454485 C3.15419318,15.0610969 3.66825935,14.8626245 4.17547022,14.6500312 C4.92076348,14.3682038 5.61358503,14.016099 6.29133738,13.6159556 C6.43339818,13.5316727 6.57364657,13.4453544 6.71208258,13.3570007 C7.06532251,13.1311111 7.4072937,12.8898181 7.73799614,12.6331215 C7.90878444,12.5011703 8.07621893,12.3649291 8.24029962,12.2243979 C8.2689915,12.2010717 8.29694231,12.1770046 8.32451081,12.1525906 C8.83652025,11.7050087 9.21616122,11.1257402 9.42223198,10.4776522 C9.43346478,10.4434755 9.44396892,10.4093343 9.45368427,10.3748112 C9.47116688,10.3138547 9.48707225,10.2521212 9.50142423,10.1900534 C9.5021552,10.1876313 9.50268675,10.1851534 9.50301356,10.1826446 C9.64571837,9.48175621 9.45207011,8.75447901 8.97972661,8.21735628 C8.94829818,8.18205614 8.91608127,8.14752093 8.8826812,8.11413263 C8.79688599,8.02822443 8.7044758,7.94918755 8.60630313,7.87775112 C8.60088981,7.87343731 8.59505701,7.86958947 8.58926355,7.86527535 C8.57242101,7.85504245 8.55306872,7.84968526 8.53336162,7.84979849 C8.47333752,7.84979849 8.42468278,7.89847267 8.42466516,7.95849676 L8.42466516,7.96001484 C8.42485685,7.97205944 8.4269541,7.98399777 8.43087904,7.99538654 C8.4343799,8.00195886 8.4378696,8.00856744 8.44059439,8.01515246 C8.73206687,8.6097562 8.75174925,9.30145046 8.49456031,9.91166654 C8.49380348,9.91370278 8.49288022,9.91567323 8.4917999,9.9175579 C8.46075034,9.99049248 8.42590443,10.0617518 8.38740516,10.1310435 C8.08615738,10.7068845 7.66053772,11.2084694 7.14140861,11.5994274 C7.07812172,11.6475977 7.0133053,11.6934017 6.94732988,11.7380345 C6.85336761,11.8036157 6.75838998,11.8680497 6.66239701,11.9313366 C6.38993855,12.1106095 6.11033804,12.2795855 5.82359546,12.4382646 C5.60192427,12.5609546 5.37626571,12.6768888 5.14661979,12.7860673 C5.14743243,12.7868081 5.14820912,12.7879792 5.14894988,12.7887202 C5.04996867,12.833808 4.9508559,12.8783454 4.85161157,12.9223323 C4.8458147,12.9250205 4.83998313,12.9273506 4.83418719,12.9300633 Z" id="路径"></path>
                            <path d="M10.3476352,9.98275601 C10.3293758,9.91791573 10.308798,9.854119 10.2859017,9.79136582 C10.2761864,9.76455015 10.2660769,9.73818867 10.2560031,9.71179126 C10.2557828,9.71159949 10.2556456,9.71132949 10.2556208,9.71103842 C10.2506019,9.69861036 10.2459293,9.68698317 10.2408865,9.67490179 C10.2133874,9.62954955 10.1609978,9.60556929 10.1086995,9.61439589 C10.0564011,9.62322249 10.0147837,9.66306867 10.0036924,9.71493398 C10.0040868,9.73316943 10.0040868,9.75136926 10.0040868,9.76966482 L10.0040868,9.77044151 C10.0040868,9.84805621 10.0009679,9.92414169 9.99517198,9.99983246 C9.98094658,10.1852932 9.94897367,10.368963 9.89969205,10.5483213 C9.86725306,10.6679523 9.82691315,10.7852994 9.77893807,10.8995896 C9.75448843,10.9562323 9.72928596,11.0125642 9.70249446,11.0680119 C9.69550389,11.0824237 9.68811924,11.0971341 9.6807696,11.1119279 C9.50955458,11.4569136 9.29125505,11.7764481 9.03212737,12.0613737 C8.99915752,12.0977492 8.96554637,12.1334635 8.93129391,12.1685168 C8.89472726,12.2047027 8.85887721,12.2414951 8.82176096,12.2771537 C8.22459275,12.8529209 7.5638306,13.358847 6.85223256,13.7851637 C6.8560925,13.7859404 6.85997597,13.7867409 6.86425322,13.7874938 C6.76565432,13.8426547 6.66666909,13.8970031 6.56729752,13.9505388 C6.56301935,13.9532632 6.5583948,13.9555338 6.55372255,13.9582822 C6.4426957,14.0200157 6.33095194,14.0797413 6.21755907,14.1376266 C6.21366351,14.1395626 6.21017411,14.1414745 6.20631294,14.1434582 C5.74981353,14.3829468 5.28647876,14.6106567 4.81630864,14.8265879 C3.5725561,15.3976687 2.29012784,15.8804459 0.978541652,16.2713364 C0.964572289,16.2756384 0.950578761,16.2798807 0.936657108,16.2838001 L0.936226781,16.2838001 C0.854857713,16.3137343 0.787132246,16.3722063 0.745649225,16.4483387 L0.744478141,16.4503214 L0.72546568,16.4929706 L0.724306678,16.495731 L0.639713184,16.6820065 L0.141293494,17.7816643 L0.133908537,17.797988 C0.127966807,17.8134635 0.124969604,17.8299038 0.124969604,17.8464808 C0.124969604,17.8826277 0.139297821,17.9173005 0.164853101,17.9428647 C0.190408382,17.9684289 0.225076112,17.9827869 0.261223064,17.9827869 C0.270485561,17.9827869 0.279729643,17.9819402 0.288791566,17.9800212 C0.301243477,17.975779 0.313252978,17.9715014 0.325657177,17.9668403 L0.326039484,17.9664221 C2.48213415,17.183958 4.58542802,16.2630227 6.62278151,15.2093695 C6.62338328,15.2088926 6.62404643,15.2084987 6.62475315,15.2081985 C6.80642799,15.1142362 6.98757305,15.0192502 7.16818833,14.9232405 C7.65690382,14.653451 8.12921864,14.3549652 8.58265404,14.0293496 C8.59855941,14.0181035 8.61410633,14.006836 8.62997577,13.9951729 C9.28989086,13.5141825 9.81789683,12.8745871 10.1651837,12.1355123 C10.1666254,12.1328625 10.1679258,12.1301381 10.1690792,12.1273507 C10.1935289,12.0749501 10.2171938,12.0217769 10.2400739,11.967831 C10.245547,11.9550089 10.2506019,11.9417561 10.2560031,11.9289938 C10.3146031,11.7801393 10.3612127,11.6268395 10.395387,11.4705586 C10.4250625,11.3360112 10.4452873,11.1995523 10.4559134,11.0621816 C10.4625217,10.9826309 10.4656058,10.9019212 10.4656058,10.8203629 C10.46573,10.6560098 10.4523609,10.4919238 10.4256325,10.3297585 C10.4068483,10.2125867 10.3807989,10.0966957 10.3476352,9.98275601 Z" id="路径"></path>
                        </g>
                    </g>
                </g>
            </g>
        </g>
    </g>
</svg>