<?xml version="1.0" encoding="UTF-8"?>
<svg width="15px" height="14px" viewBox="0 0 15 14" version="1.1" xmlns="http://www.w3.org/2000/svg" xmlns:xlink="http://www.w3.org/1999/xlink">
    <!-- Generator: Sketch 58 (84663) - https://sketch.com -->
    <title>Icon/Scan Logs _dark</title>
    <desc>Created with Sketch.</desc>
    <g id="病毒查杀" stroke="none" stroke-width="1" fill="none" fill-rule="evenodd">
        <g id="编组-3" transform="translate(-1.000000, -2.000000)">
            <g id="Icon/searching_dark" transform="translate(0.000000, 1.000000)">
                <g id="Icon/Scan-Logs-_dark">
                    <rect id="矩形" fill="#FF6969" opacity="0" x="0" y="0" width="16" height="16"></rect>
                    <path d="M14,1 C14.5522847,1 15,1.44771525 15,2 L15.0012456,9.55178038 C14.7141828,9.25853934 14.3759686,9.01557052 14.0010375,8.83730867 L14,2 L2,2 L2,14 L9.62799167,14.0009273 C9.90990131,14.4048083 10.2748287,14.7464461 10.6980326,15.0010994 L2,15 C1.44771525,15 1,14.5522847 1,14 L1,2 C1,1.44771525 1.44771525,1 2,1 L14,1 Z M13.6213203,10 C14.4764426,10.8551222 14.5825881,12.1755989 13.9397568,13.1462492 L14.9142136,14.1213203 C15.1094757,14.3165825 15.1094757,14.633165 14.9142136,14.8284271 C14.7189514,15.0236893 14.4023689,15.0236893 14.2071068,14.8284271 L13.2328935,13.853402 C12.2621635,14.4968641 10.9411606,14.3909081 10.0857864,13.5355339 C9.10947571,12.5592232 9.10947571,10.9763107 10.0857864,10 C11.0620972,9.02368927 12.6450096,9.02368927 13.6213203,10 Z M10.7928932,10.7071068 C10.2071068,11.2928932 10.2071068,12.2426407 10.7928932,12.8284271 C11.2995949,13.3351288 12.0915003,13.4102453 12.6803894,13.0198918 L12.936418,12.8501796 L13.106018,12.5940901 C13.4959989,12.0052341 13.4207552,11.2136485 12.9142136,10.7071068 C12.3284271,10.1213203 11.3786797,10.1213203 10.7928932,10.7071068 Z M3.5,10 L9.62729699,10.0000683 C9.41663394,10.3020997 9.2523855,10.6389109 9.14489094,11.0001626 L3.5,11 C3.22385763,11 3,10.7761424 3,10.5 C3,10.2238576 3.22385763,10 3.5,10 Z M12.5,7 C12.7761424,7 13,7.22385763 13,7.5 C13,7.77614237 12.7761424,8 12.5,8 L3.5,8 C3.22385763,8 3,7.77614237 3,7.5 C3,7.22385763 3.22385763,7 3.5,7 L12.5,7 Z M12.5,4 C12.7761424,4 13,4.22385763 13,4.5 C13,4.77614237 12.7761424,5 12.5,5 L3.5,5 C3.22385763,5 3,4.77614237 3,4.5 C3,4.22385763 3.22385763,4 3.5,4 L12.5,4 Z" id="形状结合" fill="#C5CFE0"></path>
                </g>
            </g>
        </g>
    </g>
</svg>