<?xml version="1.0" encoding="UTF-8"?>
<svg width="73px" height="10px" viewBox="0 0 73 10" version="1.1" xmlns="http://www.w3.org/2000/svg" xmlns:xlink="http://www.w3.org/1999/xlink">
    <!-- Generator: Sketch 58 (84663) - https://sketch.com -->
    <title>瑞星-logo</title>
    <desc>Created with Sketch.</desc>
    <g id="病毒查杀" stroke="none" stroke-width="1" fill="none" fill-rule="evenodd">
        <g id="病毒查杀_病毒库后台更新_瑞星LOGO" transform="translate(-787.000000, -650.000000)" fill="#E51F1F" fill-rule="nonzero">
            <g id="编组" transform="translate(68.000000, 47.000000)">
                <g id="编组-8" transform="translate(255.000000, 572.000000)">
                    <g id="编组-6" transform="translate(464.000000, 27.000000)">
                        <g id="瑞星-logo" transform="translate(0.000000, 4.000000)">
                            <polygon id="路径" points="54.8846154 1.30769231 54.8846154 0.115384615 57.6153846 0.115384615 57.6153846 2.61538462 46.6538462 2.61538462 46.6538462 0.0769230769 49.3846154 0.0769230769 49.3846154 1.30769231 50.6923077 1.30769231 50.6923077 0.0384615385 53.6923077 0.0384615385 53.6923077 1.30769231"></polygon>
                            <path d="M54.8076923,5.11538462 L57.4615385,5.11538462 L57.3461538,5.19230769 L57.1538462,5.26923077 L56.9230769,5.38461538 L56.1538462,5.69230769 L57.5769231,6.96153846 L57.5769231,9.19230769 C57.5769231,9.34615385 57.3076923,9.61538462 56.2692308,9.61538462 L55.3846154,9.61538462 L54.8076923,8.96153846 L54.4230769,8.53846154 L54.4230769,9.61538462 L52.5,9.61538462 L52.5,6.5 L51.6923077,6.5 L51.6923077,9.61538462 L49.8461538,9.61538462 L49.8461538,6.5 L49.0769231,6.5 L49.0769231,9.61538462 L46.6538462,9.61538462 L46.6538462,5.11538462 L49.8846154,5.11538462 L50.1923077,4.57692308 L45.9230769,4.57692308 L45.9230769,5.26923077 L45.0384615,5.26923077 L45.0384615,7.46153846 C45.3461538,7.42307692 45.5769231,7.38461538 45.8461538,7.30769231 L45.8461538,9 C44.3076923,9.38461538 42.8076923,9.57692308 41.3076923,9.57692308 L41.3076923,7.88461538 C41.8076923,7.84615385 41.9230769,7.84615385 42.2692308,7.80769231 L42.2692308,5.30769231 L41.3461538,5.30769231 L41.3461538,3.61538462 L42.2692308,3.61538462 L42.2692308,1.80769231 L41.3461538,1.80769231 L41.3461538,0.115384615 L45.8461538,0.115384615 L45.8461538,1.80769231 L45.0384615,1.80769231 L45.0384615,3.61538462 L46.1153846,3.61538462 L46.1153846,3.15384615 L57.5769231,3.15384615 L57.5769231,4.61538462 L53.4615385,4.61538462 L53.1153846,5.15384615 L54.8076923,5.15384615 L54.8076923,5.11538462 Z M54.8076923,8.15384615 C55.0769231,8.15384615 55.1923077,7.92307692 55.1923077,7.84615385 L55.1923077,6.5 L54.8076923,6.5 L54.4230769,6.5 L54.4230769,8.15384615 L54.8076923,8.15384615 L54.8076923,8.15384615 Z" id="形状"></path>
                            <path d="M62.0384615,6.42307692 L64.5,6.42307692 L64.5,5.88461538 L62.0384615,5.88461538 L60.3461538,5.88461538 C60.2692308,6 59.8461538,6.26923077 59.5384615,6.42307692 L62.0384615,6.42307692 L62.0384615,6.42307692 Z M62.0384615,4.57692308 L64.5,4.57692308 L64.5,4.03846154 L62.5384615,4.03846154 C62.4230769,4.19230769 62.1538462,4.42307692 62.0384615,4.57692308 L62.0384615,4.57692308 L62.0384615,4.57692308 Z M62.0384615,2.88461538 L69.7692308,2.88461538 L69.7692308,2.30769231 L62.0384615,2.30769231 L61.4615385,2.30769231 L61.4615385,2.88461538 L62.0384615,2.88461538 L62.0384615,2.88461538 Z M62.0384615,1.73076923 L69.7692308,1.73076923 L69.7692308,1.15384615 L62.0384615,1.15384615 L61.4615385,1.15384615 L61.4615385,1.73076923 L62.0384615,1.73076923 L62.0384615,1.73076923 Z M62.0384615,9.65384615 L58.5384615,9.65384615 L58.5384615,8.15384615 L62.0384615,8.15384615 L64.5,8.15384615 L64.5,7.57692308 L62.0384615,7.57692308 L59.0769231,7.57692308 L59.0769231,6.76923077 C58.8461538,6.88461538 58.5769231,7.07692308 58.3076923,7.15384615 L56.8461538,5.84615385 C58.1923077,5.26923077 58.9230769,4.69230769 59.3846154,4.07692308 L58.4230769,4.07692308 L58.4230769,0.0769230769 L62.0769231,0.0769230769 L72.8461538,0.0769230769 L72.8461538,4.07692308 L67.8076923,4.07692308 L67.8076923,4.61538462 L72.8461538,4.61538462 L72.8461538,5.92307692 L67.8076923,5.92307692 L67.8076923,6.46153846 L72.8461538,6.46153846 L72.8461538,7.57692308 L67.8076923,7.57692308 L67.8076923,8.15384615 L72.8461538,8.15384615 L72.8461538,9.65384615 L62.0384615,9.65384615 L62.0384615,9.65384615 Z" id="形状"></path>
                            <path d="M4.65384615,0.0384615385 C5.61538462,0.461538462 6.26923077,1.46153846 6.26923077,2.57692308 C6.26923077,3.5 5.80769231,4.34615385 5.11538462,4.84615385 C5.61538462,5.03846154 6,5.53846154 6,6.07692308 L6,6.11538462 L6,9.65384615 L3.46153846,9.65384615 L3.46153846,7.26923077 C3.46153846,7.26923077 3.46153846,7.23076923 3.46153846,7.19230769 C3.46153846,6.57692308 2.96153846,6.07692308 2.34615385,6.07692308 C2.34615385,6.07692308 2.30769231,6.07692308 2.30769231,6.07692308 L0.153846154,6.07692308 L0.153846154,3.76923077 L2.76923077,3.76923077 C3.11538462,3.76923077 3.42307692,3.46153846 3.42307692,3.07692308 C3.42307692,2.69230769 3.11538462,2.38461538 2.76923077,2.38461538 L0.115384615,2.38461538 L0.115384615,0.0384615385 L2.34615385,0.0384615385 L4.65384615,0.0384615385 L4.65384615,0.0384615385 Z" id="路径"></path>
                            <polygon id="路径" points="17.2692308 0.0384615385 19.8846154 0.0384615385 19.8846154 9.65384615 17.2692308 9.65384615"></polygon>
                            <polygon id="路径" points="6.92307692 0.0384615385 9.53846154 0.0384615385 9.53846154 9.65384615 6.92307692 9.65384615"></polygon>
                            <path d="M13.5384615,0.0384615385 C13.5384615,0.115384615 13.5384615,0.192307692 13.5384615,0.269230769 C13.5384615,1.30769231 14.0384615,2.26923077 14.7692308,2.88461538 C15.3846154,3.42307692 15.9230769,4.11538462 16.2307692,4.92307692 L16.2307692,4.92307692 C16.3461538,5.30769231 16.4230769,5.69230769 16.4230769,6.11538462 C16.4230769,7.84615385 15.1923077,9.30769231 13.5769231,9.61538462 L13.5769231,9.61538462 L10.4230769,9.61538462 L10.4230769,6.76923077 L13,6.76923077 L13,6.76923077 C13.3076923,6.73076923 13.5384615,6.42307692 13.5384615,6.11538462 C13.5384615,5.96153846 13.4615385,5.80769231 13.3846154,5.69230769 L11.4230769,3.46153846 L11.4230769,3.46153846 C10.8461538,2.76923077 10.5,1.88461538 10.5,0.923076923 C10.5,0.615384615 10.5384615,0.307692308 10.5769231,0.0384615385 L13.5384615,0.0384615385 L13.5384615,0.0384615385 Z" id="路径"></path>
                            <path d="M21.1538462,0.0384615385 L25.4615385,0.0384615385 L25.5,0.0384615385 C26.5769231,0.0384615385 27.4615385,0.961538462 27.5,2.11538462 L27.5,2.11538462 L27.5,9.65384615 L25.2692308,9.65384615 L25.2692308,3.19230769 L25.2692308,3.15384615 C25.2692308,2.80769231 24.9615385,2.5 24.6153846,2.5 L23.3846154,2.5 L23.3846154,9.65384615 L21.1538462,9.65384615 L21.1538462,0.0384615385 L21.1538462,0.0384615385 Z" id="路径"></path>
                            <path d="M32.8461538,3.30769231 L35.3846154,3.30769231 L35.3846154,5.73076923 L35.3846154,5.73076923 L35.3846154,9.07692308 C34.7307692,9.42307692 33.9615385,9.61538462 33.1923077,9.61538462 C30.5384615,9.61538462 28.3461538,7.38461538 28.3461538,4.65384615 C28.3461538,2.53846154 29.6923077,0.692307692 31.5384615,0 L31.5769231,0 L35.4230769,0 L35.4230769,2.42307692 L32.2692308,2.42307692 C31.4230769,2.80769231 30.8461538,3.65384615 30.8461538,4.65384615 C30.8461538,6 31.9230769,7.11538462 33.2307692,7.11538462 C34.1923077,7.11538462 35,6.53846154 35.4230769,5.73076923 L32.8846154,5.73076923 L32.8846154,3.30769231 L32.8461538,3.30769231 Z" id="路径"></path>
                        </g>
                    </g>
                </g>
            </g>
        </g>
    </g>
</svg>