<?xml version="1.0" encoding="UTF-8"?>
<svg width="22px" height="32px" viewBox="0 0 22 32" version="1.1" xmlns="http://www.w3.org/2000/svg" xmlns:xlink="http://www.w3.org/1999/xlink">
    <!-- Generator: Sketch 58 (84663) - https://sketch.com -->
    <title>wrong</title>
    <desc>Created with Sketch.</desc>
    <defs>
        <circle id="path-1" cx="7" cy="7" r="6"></circle>
        <filter x="-91.7%" y="-58.3%" width="283.3%" height="283.3%" filterUnits="objectBoundingBox" id="filter-2">
            <feOffset dx="0" dy="4" in="SourceAlpha" result="shadowOffsetOuter1"></feOffset>
            <feGaussianBlur stdDeviation="3" in="shadowOffsetOuter1" result="shadowBlurOuter1"></feGaussianBlur>
            <feColorMatrix values="0 0 0 0 0.97254902   0 0 0 0 0.17254902   0 0 0 0 0.535354964  0 0 0 0.4 0" type="matrix" in="shadowBlurOuter1"></feColorMatrix>
        </filter>
    </defs>
    <g id="浅色切图标注" stroke="none" stroke-width="1" fill="none" fill-rule="evenodd">
        <g id="系统日志" transform="translate(-664.000000, -428.000000)">
            <g id="wrong" transform="translate(664.000000, 428.000000)">
                <g id="错误-iicon">
                    <g id="错误2" transform="translate(4.000000, 9.000000)">
                        <g id="椭圆形">
                            <use fill="black" fill-opacity="1" filter="url(#filter-2)" xlink:href="#path-1"></use>
                            <use fill="#D8316C" fill-rule="evenodd" xlink:href="#path-1"></use>
                        </g>
                        <path d="M7,2.5 C7.55228475,2.5 8,2.94771525 8,3.5 L8,6 L10.5,6 C11.0522847,6 11.5,6.44771525 11.5,7 C11.5,7.55228475 11.0522847,8 10.5,8 L8,8 L8,10.5 C8,11.0522847 7.55228475,11.5 7,11.5 C6.44771525,11.5 6,11.0522847 6,10.5 L6,8 L3.5,8 C2.94771525,8 2.5,7.55228475 2.5,7 C2.5,6.44771525 2.94771525,6 3.5,6 L6,6 L6,3.5 C6,2.94771525 6.44771525,2.5 7,2.5 Z" id="形状结合" fill="#FFFFFF" transform="translate(7.000000, 7.000000) rotate(-225.000000) translate(-7.000000, -7.000000) "></path>
                    </g>
                </g>
            </g>
        </g>
    </g>
</svg>