<svg xmlns="http://www.w3.org/2000/svg" width="16" height="16" viewBox="0 0 16 16">
  <path d="M11,1 C12.6568542,1 14,2.34314575 14,4 L14,12 C14,13.6568542 12.6568542,15 11,15 L5,15 C3.34314575,15 2,13.6568542 2,12 L2,4 C2,2.34314575 3.34314575,1 5,1 L11,1 Z M11.5,11 L4.5,11 C3.67157288,11 3,11.6715729 3,12.5 C3,13.3284271 3.67157288,14 4.5,14 L11.5,14 C12.3284271,14 13,13.3284271 13,12.5 C13,11.6715729 12.3284271,11 11.5,11 Z M11.5,12 C11.7761424,12 12,12.2238576 12,12.5 C12,12.7761424 11.7761424,13 11.5,13 C11.2238576,13 11,12.7761424 11,12.5 C11,12.2238576 11.2238576,12 11.5,12 Z"/>
</svg>
