<svg xmlns="http://www.w3.org/2000/svg" width="16" height="16" viewBox="0 0 16 16">
  <path d="M9,0 C10.6568542,-3.04359188e-16 12,1.34314575 12,3 L12,11 C12,12.6568542 10.6568542,14 9,14 L3,14 C1.34314575,14 2.02906125e-16,12.6568542 0,11 L0,3 C-2.02906125e-16,1.34314575 1.34314575,3.04359188e-16 3,0 L9,0 Z M9.5,10 L2.5,10 L2.35553999,10.0068666 C1.59488808,10.0795513 1,10.7203039 1,11.5 C1,12.2796961 1.59488808,12.9204487 2.35553999,12.9931334 L2.5,13 L9.5,13 L9.64446001,12.9931334 C10.4051119,12.9204487 11,12.2796961 11,11.5 C11,10.6715729 10.3284271,10 9.5,10 Z M9.5,11 C9.77614237,11 10,11.2238576 10,11.5 C10,11.7761424 9.77614237,12 9.5,12 C9.22385763,12 9,11.7761424 9,11.5 C9,11.2238576 9.22385763,11 9.5,11 Z M6,1 C4.99835629,1 4.16869161,1.73632971 4.0227694,2.69722565 L4.00548574,2.85073766 L4,3 L4,4 L3.88337887,4.00672773 C3.46255383,4.0556059 3.12141588,4.36574828 3.02641071,4.77070917 L3.00672773,4.88337887 L3,5 L3,8 L3.00672773,8.11662113 C3.0556059,8.53744617 3.36574828,8.87858412 3.77070917,8.97358929 L3.88337887,8.99327227 L4,9 L8,9 L8.11662112,8.99327227 C8.53744613,8.9443941 8.87858411,8.63425172 8.97358928,8.22929083 L8.99327227,8.11662113 L9,8 L9,5 L8.99327227,4.88337887 C8.94439409,4.46255383 8.63425169,4.12141588 8.22929081,4.02641071 L8.11662112,4.00672773 L8,4 L8,3 L7.99451426,2.85073766 C7.91816512,1.81587779 7.0543618,1 6,1 Z M6,2 C6.47338693,2 6.86994729,2.32893365 6.97358929,2.77070917 L6.99327227,2.88337887 L7,3 L7,4 L5,4 L5,3 L5.00672773,2.88337887 C5.06449284,2.38604019 5.48716416,2 6,2 Z" transform="translate(2 1)"/>
</svg>
