<?xml version="1.0" encoding="UTF-8"?>
<svg width="36px" height="36px" viewBox="0 0 36 36" version="1.1" xmlns="http://www.w3.org/2000/svg" xmlns:xlink="http://www.w3.org/1999/xlink">
    <!-- Generator: Sketch 58 (84663) - https://sketch.com -->
    <title>setting_normal_light</title>
    <desc>Created with Sketch.</desc>
    <g id="深" stroke="none" stroke-width="1" fill="none" fill-rule="evenodd">
        <g id="按钮规范new" transform="translate(-108.000000, -49.000000)" fill="#C5CFE0" fill-rule="nonzero">
            <g id="编组-9" transform="translate(108.000000, 49.000000)">
                <g id="编组-3" transform="translate(7.000000, 10.000000)">
                    <polygon id="Line" points="6.14276986 11 6.61521036 11 7 10 6.14276986 10 4.47244049 10 4 10 4 11 4.47244049 11"></polygon>
                    <polygon id="Triangle" points="6.28046246 5.40297439 5.42808234 5.40297439 6.49543715 7.95730499 7 6.96837351 6.28046246 5.01993292 5.8542724 4 5.42808234 5.01993292 1 16 1.85238011 16"></polygon>
                    <polygon id="Triangle" points="19.0328042 16 20 16 12.5 0 5 16 5.96719578 16 12.4960344 2.55424295"></polygon>
                    <rect id="Rectangle" x="0" y="15" width="3" height="1"></rect>
                    <rect id="Rectangle" x="4" y="15" width="3" height="1"></rect>
                    <rect id="Rectangle" x="18" y="15" width="3" height="1"></rect>
                    <polygon id="Line" points="18 13 17.3761408 12 7.50227724 12 7 13"></polygon>
                </g>
            </g>
        </g>
    </g>
</svg>