<svg width="1641.752441" height="240.845703" viewBox="0 0 1641.75 240.846" fill="none" xmlns="http://www.w3.org/2000/svg" xmlns:xlink="http://www.w3.org/1999/xlink">
	<desc>
			Created with Pixso.
	</desc>
	<defs>
		<filter id="filter_65_10_dd" x="25.756592" y="34.419922" width="206.942383" height="183.161133" filterUnits="userSpaceOnUse" color-interpolation-filters="sRGB">
			<feFlood flood-opacity="0" result="BackgroundImageFix"/>
			<feColorMatrix in="SourceAlpha" type="matrix" values="0 0 0 0 0 0 0 0 0 0 0 0 0 0 0 0 0 0 127 0" result="hardAlpha"/>
			<feOffset dx="4" dy="6"/>
			<feGaussianBlur stdDeviation="8.33333"/>
			<feComposite in2="hardAlpha" operator="out" k2="-1" k3="1"/>
			<feColorMatrix type="matrix" values="0 0 0 0 0.07451 0 0 0 0 0.46667 0 0 0 0 0.90588 0 0 0 0.63 0"/>
			<feBlend mode="normal" in2="BackgroundImageFix" result="effect_dropShadow_1"/>
			<feBlend mode="normal" in="SourceGraphic" in2="effect_dropShadow_1" result="shape"/>
		</filter>
		<linearGradient x1="0.000008" y1="22.702682" x2="265.945953" y2="270.810791" id="paint_linear_65_18_0" gradientUnits="userSpaceOnUse">
			<stop stop-color="#43B9FF"/>
			<stop offset="1.000000" stop-color="#286FFE"/>
		</linearGradient>
		<linearGradient x1="197.244568" y1="166.050018" x2="46.734867" y2="76.050064" id="paint_linear_65_10_0" gradientUnits="userSpaceOnUse">
			<stop stop-color="#2E81FE"/>
			<stop offset="1.000000" stop-color="#2779FF" stop-opacity="0.000000"/>
		</linearGradient>
	</defs>
	<path id="矢量 34" d="M364.59 183.39L364.59 0L391.32 0L391.32 161.06L474.11 161.06L474.11 183.39L364.59 183.39ZM959.67 183.39L959.67 109.63C959.67 100.56 956.79 93.43 951 88.24C945.22 83.02 937.97 80.4 929.23 80.4C923.37 80.4 918.11 81.59 913.46 83.98C908.85 86.36 905.11 89.71 902.25 94.01C899.42 98.28 898.01 103.4 898.01 109.38L898.01 183.39L873.95 183.39L873.95 61.34L898.01 61.34L898.01 75.55C901.71 71.08 906.25 67.43 911.63 64.6C918.93 60.71 927.12 58.76 936.21 58.76C945.12 58.76 953.16 60.67 960.33 64.47C967.54 68.23 973.23 73.54 977.41 80.4C977.5 80.56 977.6 80.71 977.69 80.87C977.77 80.76 977.85 80.64 977.93 80.53C982.66 73.75 988.77 68.44 996.24 64.6C1003.72 60.71 1011.92 58.76 1020.82 58.76C1030.07 58.76 1038.36 60.67 1045.66 64.47C1052.96 68.23 1058.78 73.54 1063.13 80.4C1067.52 87.22 1069.71 95.43 1069.71 105.05L1069.71 183.39L1045.4 183.39L1045.4 109.63C1045.4 100.56 1042.51 93.43 1036.73 88.24C1030.94 83.02 1023.78 80.4 1015.22 80.4C1009.35 80.4 1004.05 81.59 999.31 83.98C994.61 86.36 990.83 89.71 987.97 94.01C985.14 98.28 983.73 103.4 983.73 109.38L983.73 183.39L959.67 183.39ZM1160.19 185.96C1147.73 185.96 1136.51 183.14 1126.56 177.49C1116.61 171.85 1108.68 164.2 1102.77 154.54C1096.9 144.84 1093.97 133.99 1093.97 121.99C1093.97 110.15 1096.9 99.49 1102.77 90C1108.68 80.51 1116.61 72.94 1126.56 67.29C1136.51 61.61 1147.73 58.76 1160.19 58.76C1172.5 58.76 1183.66 61.57 1193.69 67.17C1203.79 72.73 1211.76 80.3 1217.63 89.87C1223.49 99.45 1226.43 110.15 1226.43 121.99C1226.43 133.99 1223.49 144.84 1217.63 154.54C1211.76 164.2 1203.79 171.85 1193.69 177.49C1183.66 183.14 1172.5 185.96 1160.19 185.96ZM562.46 66.17C568.16 64.79 575.72 63.33 585.15 61.78C594.58 60.23 605.44 59.46 617.74 59.46C628.78 59.46 637.93 60.97 645.19 63.98C652.49 66.95 658.31 71.13 662.66 76.52C667.05 81.91 670.13 88.4 671.91 95.96C673.69 103.49 674.59 111.79 674.59 120.86L674.59 183.39L649.75 183.39C649.75 183.39 649.77 179.41 649.77 173.19C649.77 153.09 649.58 109.57 647.99 101.37C645.91 90.62 641.04 85.58 631.56 82.98C627.13 81.35 621.63 80.53 615.07 80.53C612.38 80.53 609.59 80.62 606.73 80.79C603.9 80.95 601.19 81.16 598.58 81.41C596.01 81.66 593.71 81.98 591.67 82.35C589.63 82.69 588.17 82.94 587.3 83.11L587.3 183.39L562.46 183.39L562.46 66.17ZM499.14 183.39L499.14 61.34L523.19 61.34L523.19 183.39L499.14 183.39ZM835.56 123.09C835.56 156.56 807.3 183.75 772.51 183.75C737.73 183.75 709.47 156.56 709.47 123.09C709.47 89.62 737.73 62.44 772.51 62.44C787.2 62.44 800.73 67.28 811.45 75.41L811.45 62.44L835.56 62.44L835.56 123.09ZM1160.19 163.63C1168.18 163.63 1175.3 161.83 1181.51 158.24C1187.77 154.64 1192.68 149.73 1196.25 143.5C1199.81 137.23 1201.59 130.06 1201.59 121.99C1201.59 114.12 1199.77 107.12 1196.11 100.97C1192.46 94.79 1187.55 89.94 1181.38 86.42C1175.26 82.91 1168.18 81.15 1160.19 81.15C1152.19 81.15 1145.06 82.91 1138.81 86.42C1132.6 89.94 1127.71 94.79 1124.15 100.97C1120.59 107.12 1118.8 114.12 1118.8 121.99C1118.8 130.06 1120.59 137.23 1124.15 143.5C1127.71 149.73 1132.56 154.64 1138.81 158.24C1145.06 161.83 1152.19 163.63 1160.19 163.63ZM772.51 160.56C794 160.56 811.45 143.77 811.45 123.09C811.45 102.42 794 85.63 772.51 85.63C751.03 85.63 733.57 102.42 733.57 123.09C733.57 143.77 751.03 160.56 772.51 160.56ZM772.51 240.84C747.64 240.84 726.1 226.94 715.85 206.78L744.99 206.67C752.04 213.45 761.77 217.65 772.51 217.65C783.26 217.65 792.99 213.45 800.04 206.67C805.56 201.35 809.43 194.46 810.85 186.75L835.19 186.75C834.39 193.86 832.31 200.61 829.18 206.78C818.92 226.94 797.39 240.84 772.51 240.84Z" fill="#FFFFFF" fill-opacity="1.000000" fill-rule="evenodd"/>
	<path id="矢量 34" d="M1325.19 45.37C1318.13 59.58 1314.6 75.56 1314.6 93.32C1314.6 111.03 1318.13 127 1325.19 141.2C1332.26 155.41 1342.29 166.53 1355.29 174.57C1368.32 182.58 1383.36 186.58 1400.39 186.58C1417.64 186.58 1432.76 182.58 1445.75 174.57C1458.75 166.53 1468.82 155.41 1475.97 141.2C1483.12 127 1486.7 111.03 1486.7 93.32C1486.7 75.56 1483.12 59.58 1475.97 45.37C1468.82 31.16 1458.75 20.06 1445.75 12.06C1432.76 4.02 1417.64 0 1400.39 0C1383.36 0 1368.32 4.02 1355.29 12.06C1342.29 20.06 1332.26 31.16 1325.19 45.37ZM1519.3 124.91L1501.95 124.91C1503 143.28 1509.9 158.12 1522.65 169.43C1535.39 180.7 1553.39 186.33 1576.65 186.33C1589.39 186.33 1600.7 184.17 1610.59 179.84C1620.51 175.47 1628.19 169.37 1633.61 161.53C1639.04 153.65 1641.75 144.45 1641.75 133.91C1641.75 122.03 1638.96 112.63 1633.36 105.69C1627.77 98.75 1620.41 93.56 1611.28 90.13C1602.16 86.7 1590.44 83.66 1576.14 81.01C1564.07 78.84 1554.5 76.52 1547.44 74.03C1540.37 71.5 1535.03 68.11 1531.41 63.86C1527.8 59.58 1525.99 54 1525.99 47.15C1525.99 37.1 1530.03 29.12 1538.1 23.2C1546.22 17.24 1557.26 14.26 1571.22 14.26C1584.64 14.26 1595.62 17.57 1604.15 24.18C1612.69 30.8 1617.74 40.29 1619.29 52.66L1636.07 52.66C1634.35 36.61 1628.02 23.88 1617.09 14.45C1606.15 4.98 1590.78 0.24 1570.97 0.24C1558.73 0.24 1547.96 2.22 1538.67 6.18C1529.37 10.1 1522.14 15.65 1516.97 22.84C1511.79 30.02 1509.21 38.29 1509.21 47.63C1509.21 57.68 1511.56 65.84 1516.27 72.13C1521.03 78.37 1527.57 83.25 1535.89 86.76C1544.26 90.28 1554.73 93.19 1567.31 95.52C1581.99 98.38 1593.2 101.2 1600.94 103.97C1608.67 106.71 1614.48 110.46 1618.35 115.24C1622.26 120.02 1624.21 126.48 1624.21 134.65C1624.21 146.53 1619.82 155.78 1611.03 162.39C1602.24 169 1590.86 172.31 1576.9 172.31C1559.49 172.31 1545.73 168.17 1535.64 159.88C1525.59 151.59 1520.14 139.94 1519.3 124.91ZM1460.77 53.45C1466.02 65.29 1468.65 78.58 1468.65 93.32C1468.65 108.01 1466.02 121.3 1460.77 133.18C1455.51 145.06 1447.71 154.43 1437.36 161.29C1427.02 168.14 1414.69 171.57 1400.39 171.57C1386.09 171.57 1373.85 168.14 1363.68 161.29C1353.54 154.43 1345.84 145.06 1340.59 133.18C1335.33 121.3 1332.7 108.01 1332.7 93.32C1332.7 78.58 1335.33 65.29 1340.59 53.45C1345.84 41.57 1353.54 32.2 1363.68 25.35C1373.85 18.49 1386.09 15.06 1400.39 15.06C1414.69 15.06 1427.02 18.49 1437.36 25.35C1447.71 32.2 1455.51 41.57 1460.77 53.45Z" fill="#FFFFFF" fill-opacity="1.000000" fill-rule="evenodd"/>
	<path id="矢量 34" d="M511.2 36.94C506.72 36.94 503.05 35.54 500.18 32.74C497.35 29.89 495.94 26.34 495.94 22.07C495.94 17.93 497.35 14.46 500.18 11.66C503.05 8.82 506.72 7.4 511.2 7.4C515.63 7.4 519.26 8.82 522.08 11.66C524.95 14.46 526.38 17.93 526.38 22.07C526.38 26.34 524.95 29.89 522.08 32.74C519.26 35.54 515.63 36.94 511.2 36.94Z" fill="#42B6FF" fill-opacity="1.000000" fill-rule="evenodd"/>
	<path id="矩形 36" d="M80 0L160 0C188 0 202 0 212.69 5.44C222.1 10.24 229.75 17.89 234.55 27.3C240 37.99 240 51.99 240 80L240 160C240 188 240 202 234.55 212.69C229.75 222.1 222.1 229.75 212.69 234.55C202 240 188 240 160 240L80 240C51.99 240 37.99 240 27.3 234.55C17.89 229.75 10.24 222.1 5.44 212.69C0 202 0 188 0 160L0 80C0 51.99 0 37.99 5.44 27.3C10.24 17.89 17.89 10.24 27.3 5.44C37.99 0 51.99 0 80 0Z" fill="url(#paint_linear_65_18_0)" fill-opacity="1.000000" fill-rule="evenodd"/>
	<g filter="url(#filter_65_10_dd)">
		<path id="矢量 30" d="M123.16 59.09C96.94 45.69 65.18 56.84 52.24 84C39.29 111.15 50.05 144.03 76.27 157.42C89.38 164.12 103.88 164.68 116.71 160.17C122.44 158.21 131.79 152.79 142.26 146.34C146.67 166.76 161.3 181.15 171.92 186.58L178.4 172.99C172.46 169.96 158.73 156.62 157.4 144.35C157.15 142.03 156.91 139.69 156.66 137.35C158.6 136.13 160.55 134.91 162.48 133.7C172.7 127.32 191.28 130.49 197.22 133.53L203.69 119.94C193.07 114.51 173.14 111.25 154.8 120.05C153.38 107.52 151.84 96.54 149.87 90.64C145.52 77.35 136.27 65.78 123.16 59.09ZM140.59 129.14C145.16 126.23 149.96 123.14 154.8 120.05C155.43 125.61 156.04 131.48 156.66 137.35C151.78 140.41 146.91 143.48 142.26 146.34C141.69 140.48 141.14 134.66 140.59 129.14ZM140.59 129.14C127.71 137.31 116.67 143.97 111.79 145.14C102.67 148.35 92.37 147.95 83.06 143.19C64.43 133.67 56.78 110.31 65.98 91.02C75.18 71.72 97.74 63.8 116.38 73.32C125.69 78.08 132.26 86.3 135.35 95.74C137.42 100.46 139.02 113.59 140.59 129.14Z" fill="#FFFFFF" fill-opacity="1.000000" fill-rule="evenodd"/>
		<path id="矢量 30" d="M123.16 59.09C96.94 45.69 65.18 56.84 52.24 84C39.29 111.15 50.05 144.03 76.27 157.42C89.38 164.12 103.88 164.68 116.71 160.17C122.44 158.21 131.79 152.79 142.26 146.34C146.67 166.76 161.3 181.15 171.92 186.58L178.4 172.99C172.46 169.96 158.73 156.62 157.4 144.35C157.15 142.03 156.91 139.69 156.66 137.35C158.6 136.13 160.55 134.91 162.48 133.7C172.7 127.32 191.28 130.49 197.22 133.53L203.69 119.94C193.07 114.51 173.14 111.25 154.8 120.05C153.38 107.52 151.84 96.54 149.87 90.64C145.52 77.35 136.27 65.78 123.16 59.09ZM140.59 129.14C145.16 126.23 149.96 123.14 154.8 120.05C155.43 125.61 156.04 131.48 156.66 137.35C151.78 140.41 146.91 143.48 142.26 146.34C141.69 140.48 141.14 134.66 140.59 129.14ZM140.59 129.14C127.71 137.31 116.67 143.97 111.79 145.14C102.67 148.35 92.37 147.95 83.06 143.19C64.43 133.67 56.78 110.31 65.98 91.02C75.18 71.72 97.74 63.8 116.38 73.32C125.69 78.08 132.26 86.3 135.35 95.74C137.42 100.46 139.02 113.59 140.59 129.14Z" fill="url(#paint_linear_65_10_0)" fill-opacity="0.460000" fill-rule="evenodd"/>
	</g>
</svg>
