<svg xmlns="http://www.w3.org/2000/svg" width="16" height="16" viewBox="0 0 16 16">
 <defs>
  <style id="current-color-scheme" type="text/css">
   .ColorScheme-Text { color:#536076; } .ColorScheme-Highlight { color:#ffffff; }
  </style>
 </defs>
 <path style="fill:currentColor" class="ColorScheme-Text" d="M3.5,15 C3.22385763,15 3,14.7761424 3,14.5 C3,14.2238576 3.22385763,14 3.5,14 L3.5,14 L7,14 L7,13 L4,13 C2.34314575,13 1,11.6568542 1,10 L1,5 C1,3.34314575 2.34314575,2 4,2 L12,2 C13.6568542,2 15,3.34314575 15,5 L15,10 C15,11.6568542 13.6568542,13 12,13 L9,13 L9,14 L12.5,14 C12.7454599,14 12.9496084,14.1768752 12.9919443,14.4101244 L13,14.5 C13,14.7761424 12.7761424,15 12.5,15 L12.5,15 Z M12.5,11 L3.5,11 C3.22385763,11 3,11.2238576 3,11.5 C3,11.7761424 3.22385763,12 3.5,12 L12.5,12 C12.7761424,12 13,11.7761424 13,11.5 C13,11.2238576 12.7761424,11 12.5,11 Z"/>
</svg>
