<?xml version="1.0" encoding="UTF-8"?>
<svg width="54px" height="54px" viewBox="0 0 54 54" version="1.1" xmlns="http://www.w3.org/2000/svg" xmlns:xlink="http://www.w3.org/1999/xlink">
    <!-- Generator: Sketch 49.3 (51167) - http://www.bohemiancoding.com/sketch -->
    <title>play_press</title>
    <desc>Created with Sketch.</desc>
    <defs>
        <path d="M20,40 C31.045695,40 40,31.045695 40,20 C40,8.954305 31.045695,3.55271368e-15 20,3.55271368e-15 C8.954305,3.55271368e-15 0,8.954305 0,20 C0,31.045695 8.954305,40 20,40 Z" id="path-1"></path>
        <filter x="-25.0%" y="-20.0%" width="150.0%" height="150.0%" filterUnits="objectBoundingBox" id="filter-2">
            <feMorphology radius="1.5" operator="dilate" in="SourceAlpha" result="shadowSpreadOuter1"></feMorphology>
            <feOffset dx="0" dy="2" in="shadowSpreadOuter1" result="shadowOffsetOuter1"></feOffset>
            <feGaussianBlur stdDeviation="2.5" in="shadowOffsetOuter1" result="shadowBlurOuter1"></feGaussianBlur>
            <feComposite in="shadowBlurOuter1" in2="SourceAlpha" operator="out" result="shadowBlurOuter1"></feComposite>
            <feColorMatrix values="0 0 0 0 0   0 0 0 0 0   0 0 0 0 0  0 0 0 0.1 0" type="matrix" in="shadowBlurOuter1"></feColorMatrix>
        </filter>
    </defs>
    <g id="play_press" stroke="none" stroke-width="1" fill="none" fill-rule="evenodd">
        <g id="Group-3" transform="translate(7.000000, 7.000000)">
            <g id="Oval-31">
                <use fill="black" fill-opacity="1" filter="url(#filter-2)" xlink:href="#path-1"></use>
                <use fill-opacity="0.2" fill="#000000" fill-rule="evenodd" xlink:href="#path-1"></use>
                <path stroke-opacity="0.5" stroke="#FFFFFF" stroke-width="1.5" d="M20,40.75 C8.54009144,40.75 -0.75,31.4599086 -0.75,20 C-0.75,8.54009144 8.54009144,-0.75 20,-0.75 C31.4599086,-0.75 40.75,8.54009144 40.75,20 C40.75,31.4599086 31.4599086,40.75 20,40.75 Z"></path>
            </g>
            <polygon id="polygon51-5" fill-opacity="0.5" fill="#FFFFFF" fill-rule="nonzero" points="15.1169805 10.4730357 14.4285714 10.0779815 14.4285714 10.8878152 14.4285714 28.9435334 14.4285714 29.7533671 15.1169805 29.3583129 30.8486467 20.3304538 31.5714286 19.9156743 30.8486467 19.5008948"></polygon>
        </g>
    </g>
</svg>