<?xml version="1.0" encoding="UTF-8"?>
<svg width="20px" height="20px" viewBox="0 0 20 20" version="1.1" xmlns="http://www.w3.org/2000/svg" xmlns:xlink="http://www.w3.org/1999/xlink">
    <!-- Generator: Sketch 49.1 (51147) - http://www.bohemiancoding.com/sketch -->
    <title>weibo</title>
    <desc>Created with Sketch.</desc>
    <defs>
        <linearGradient x1="50%" y1="0%" x2="50%" y2="100%" id="linearGradient-1">
            <stop stop-color="#FFE45A" offset="0%"></stop>
            <stop stop-color="#FFC73D" offset="100%"></stop>
        </linearGradient>
        <path d="M10,20 C15.5228478,20 20,15.5228478 20,10 C20,4.47715223 15.5228478,0 10,0 C4.47715223,0 0,4.47715223 0,10 C0,15.5228478 4.47715223,20 10,20 Z" id="path-2"></path>
        <filter x="-2.5%" y="-2.5%" width="105.0%" height="105.0%" filterUnits="objectBoundingBox" id="filter-3">
            <feMorphology radius="1" operator="erode" in="SourceAlpha" result="shadowSpreadInner1"></feMorphology>
            <feOffset dx="0" dy="0" in="shadowSpreadInner1" result="shadowOffsetInner1"></feOffset>
            <feComposite in="shadowOffsetInner1" in2="SourceAlpha" operator="arithmetic" k2="-1" k3="1" result="shadowInnerInner1"></feComposite>
            <feColorMatrix values="0 0 0 0 0   0 0 0 0 0   0 0 0 0 0  0 0 0 0.05 0" type="matrix" in="shadowInnerInner1"></feColorMatrix>
        </filter>
    </defs>
    <g id="Symbols" stroke="none" stroke-width="1" fill="none" fill-rule="evenodd">
        <g id="bottom_area">
            <g id="weibo">
                <g>
                    <g id="Button-Shape-2">
                        <use fill="url(#linearGradient-1)" fill-rule="evenodd" xlink:href="#path-2"></use>
                        <use fill="black" fill-opacity="1" filter="url(#filter-3)" xlink:href="#path-2"></use>
                    </g>
                    <g id="Group" transform="translate(1.776224, 4.307692)">
                        <path d="M1.40402883,8.91310482 C1.40402883,10.7499121 3.82861747,12.2399183 6.81972813,12.2399183 C9.81052492,12.2399183 12.2351136,10.7499121 12.2351136,8.91310482 C12.2351136,7.07567824 9.81052492,5.58598171 6.81972813,5.58598171 C3.82861747,5.58598171 1.40402883,7.07567824 1.40402883,8.91310482" id="Fill-23" fill="#FFFFFF"></path>
                        <path d="M12.2404492,6.27679712 C12.0154097,6.2102237 11.8609893,6.1650157 11.9790017,5.87302155 C12.2344858,5.2391806 12.2608503,4.69265921 11.9840235,4.30250797 C11.4648947,3.57081957 10.0443526,3.61045398 8.41634721,4.28300041 C8.41634721,4.28207148 7.90537889,4.50346683 8.03594573,4.10340698 C8.28640809,3.30917052 8.24874458,2.6437459 7.85892722,2.25978753 C6.97540398,1.38783046 4.62677008,2.29291942 2.61271373,4.27928468 C1.10429003,5.76774264 0.228299496,7.34506839 0.228299496,8.70873988 C0.228299496,11.3177989 3.61927111,12.9037947 6.93679888,12.9037947 C11.285993,12.9037947 14.1788647,10.4111617 14.1788647,8.43191828 C14.1788647,7.23607375 13.1578696,6.55733445 12.2404492,6.27679712 L12.2404492,6.27679712 Z M6.94590089,11.9686703 C4.2984698,12.2266036 2.01355001,11.0459316 1.8415533,9.33112401 C1.66955659,7.61693568 3.67670797,6.01793487 6.32382521,5.7596919 C8.9712563,5.50144894 11.25649,6.68212092 11.4281728,8.3959996 C11.5998556,10.1114265 9.59333199,11.7104273 6.94590089,11.9686703 L6.94590089,11.9686703 Z" id="Fill-19" fill="#D52B2A"></path>
                        <path d="M15.1286129,1.50270833 C14.0784287,0.353929665 12.5292028,-0.083906731 11.0995586,0.215828511 L11.0989309,0.215828511 C10.7678059,0.285808019 10.5568902,0.606908686 10.6278231,0.932654011 C10.6984422,1.25870898 11.0236039,1.46709929 11.3547289,1.39742942 C12.3719577,1.18439446 13.4726738,1.49620581 14.219353,2.31211734 C14.9650905,3.12833851 15.1678458,4.24119849 14.8483336,5.21688624 L14.8486475,5.21688624 C14.7444451,5.53489047 14.920522,5.87487941 15.2431728,5.97768117 C15.5642542,6.08017328 15.909817,5.90646309 16.0140194,5.58938779 C16.0140194,5.5887685 16.0140194,5.58783957 16.0143332,5.58722028 C16.462529,4.21487876 16.1791111,2.65024842 15.1286129,1.50270833" id="Fill-20" fill="#E89214"></path>
                        <path d="M13.515673,2.93852684 C13.0047047,2.37900041 12.2498651,2.16658473 11.5530901,2.31273663 C11.2684167,2.37249789 11.0866903,2.64900984 11.1478935,2.93016645 C11.2087828,3.21039413 11.4887483,3.3902972 11.7731078,3.32929737 L11.7731078,3.32991665 C12.1136487,3.25869857 12.4827512,3.36242926 12.7325858,3.63522549 C12.9827343,3.90895064 13.0502148,4.28176183 12.9428737,4.60874573 L12.9431876,4.60874573 C12.8540506,4.88154196 13.0056463,5.17508432 13.2824731,5.26364246 C13.5596138,5.35127167 13.8565278,5.20202334 13.9459786,4.92829818 C14.1650547,4.26008676 14.0278968,3.49805326 13.515673,2.93852684" id="Fill-21" fill="#E89214"></path>
                        <path d="M7.21048707,7.07939397 C5.95064256,6.75612579 4.52696177,7.37541348 3.97958539,8.47031412 C3.42247926,9.58719947 3.96138135,10.8270134 5.23409423,11.2323372 C6.55231718,11.651595 8.10625096,11.0087744 8.6464085,9.80333087 C9.17934721,8.62513604 8.51395848,7.41164181 7.21048707,7.07939397 L7.21048707,7.07939397 Z M6.24849818,9.93152342 C5.99238629,10.3343701 5.44406832,10.5111767 5.03102512,10.3250807 C4.62394532,10.1420812 4.50373594,9.67420939 4.75984783,9.2809617 C5.01282109,8.88988153 5.54293504,8.71555204 5.9528396,8.88492723 C6.36745211,9.05925671 6.49990213,9.52434176 6.24849818,9.93152342 L6.24849818,9.93152342 Z M7.09184701,8.86325216 C6.99925754,9.01931265 6.79461912,9.09455611 6.63423532,9.0295309 C6.4766763,8.96543463 6.427086,8.7907955 6.51685071,8.63752179 C6.60912632,8.48486738 6.80591817,8.41024321 6.96316334,8.47186234 C7.12291941,8.52945609 7.18035626,8.70595308 7.09184701,8.86325216 L7.09184701,8.86325216 Z" id="Fill-22" fill="#040000"></path>
                    </g>
                </g>
            </g>
        </g>
    </g>
</svg>