<?xml version="1.0" encoding="UTF-8"?>
<svg width="20px" height="20px" viewBox="0 0 20 20" version="1.1" xmlns="http://www.w3.org/2000/svg" xmlns:xlink="http://www.w3.org/1999/xlink">
    <!-- Generator: Sketch 58 (84663) - https://sketch.com -->
    <title>蓝牙</title>
    <desc>Created with Sketch.</desc>
    <g id="蓝牙" stroke="none" stroke-width="1" fill="none" fill-rule="evenodd">
        <path d="M11,2 C13.209139,2 15,3.790861 15,6 L15,14 C15,16.209139 13.209139,18 11,18 L8,18 C5.790861,18 4,16.209139 4,14 L4,6 C4,3.790861 5.790861,2 8,2 L11,2 Z M8.92529575,4.56349057 L8.92529575,8.51420932 L6.960202,6.54911557 C6.7404876,6.32947883 6.38432312,6.32954179 6.16468638,6.54925619 C5.94504964,6.76897059 5.94511259,7.12513507 6.164827,7.34477181 L8.81054575,9.99049056 L6.1507645,12.8474281 C5.94236709,13.07526 5.95657747,13.428489 6.18260313,13.6388442 C6.4086288,13.8491994 6.76196722,13.8380368 6.97426449,13.6138343 L8.92529575,11.5185218 L8.92529575,15.8306468 C8.92529575,16.3368968 9.54123324,16.5855218 9.89279575,16.2213031 L12.8177957,13.1877406 C13.0307238,12.9669248 13.0274708,12.6162248 12.8104832,12.3993968 L10.3737333,9.96264681 L12.8245457,7.33014681 C12.9305783,7.21626467 12.9847004,7.06354787 12.9740422,6.9083111 C12.963384,6.75307434 12.8888978,6.60918749 12.7682957,6.51086557 L9.8430145,4.12755306 C9.47542074,3.82802181 8.92529575,4.08958432 8.92529575,4.56349057 Z M10.0502958,11.2299593 L11.624452,12.8043968 L10.0502958,14.4370531 L10.0502958,11.2299593 Z M10.0502958,5.74727181 L11.5915458,7.00305306 L10.0502958,8.65877182 L10.0502958,5.74727181 Z" id="形状结合" fill="#C0C6D4"></path>
    </g>
</svg>