<?xml version="1.0" encoding="UTF-8"?>
<svg width="20px" height="20px" viewBox="0 0 20 20" version="1.1" xmlns="http://www.w3.org/2000/svg" xmlns:xlink="http://www.w3.org/1999/xlink">
    <title>com</title>
    <g id="com" stroke="none" stroke-width="1" fill="none" fill-rule="evenodd">
        <path d="M14,8 C14.5522847,8 15,8.44771525 15,9 L15,12.6830085 C15,12.921452 14.9147989,13.1520482 14.7597628,13.3332088 L13.6326897,14.6502003 C13.4427033,14.8722005 13.1651236,15 12.8729269,15 L7.13504161,15 C6.83826177,15 6.55681416,14.868177 6.36682033,14.6401844 L5.23177872,13.2781345 C5.08201622,13.0984195 5,12.8718866 5,12.6379501 L5,9 C5,8.44771525 5.44771525,8 6,8 L14,8 Z M13,10 L7,10 L7,11 L13,11 L13,10 Z M13,3 C13.5522847,3 14,3.44771525 14,4 L14,7 L6,7 L6,4 C6,3.44771525 6.44771525,3 7,3 L7.999,3 L8,4 L9,4 L8.999,3 L10.999,3 L11,4 L12,4 L11.999,3 L13,3 Z" id="形状结合" fill="#C5CFE0"></path>
        <rect id="矩形" fill="#C5CFE0" x="7" y="14" width="1" height="2" rx="0.5"></rect>
        <rect id="矩形" fill="#C5CFE0" x="12" y="14" width="1" height="2" rx="0.5"></rect>
        <path d="M9,15 L11,15 L11,17.5 C11,17.7761424 10.7761424,18 10.5,18 L9.5,18 C9.22385763,18 9,17.7761424 9,17.5 L9,15 L9,15 Z" id="矩形" fill="#C5CFE0"></path>
    </g>
</svg>