<?xml version="1.0" encoding="UTF-8"?>
<svg width="20px" height="20px" viewBox="0 0 20 20" version="1.1" xmlns="http://www.w3.org/2000/svg" xmlns:xlink="http://www.w3.org/1999/xlink">
    <title>手柄</title>
    <g id="手柄" stroke="none" stroke-width="1" fill="none" fill-rule="evenodd">
        <path d="M14,5 C16.209139,5 18,6.790861 18,9 L18,12 C18,14.209139 16.209139,16 14,16 L6,16 C3.790861,16 2,14.209139 2,12 L2,9 C2,6.790861 3.790861,5 6,5 L14,5 Z M7,8 L6,8 L6,10 L4,10 L4,11 L6,11 L6,13 L7,13 L7,11 L9,11 L9,10 L7,10 L7,8 Z M14,12 L13,12 L13,13 L14,13 L14,12 Z M12,10 L11,10 L11,11 L12,11 L12,10 Z M16,10 L15,10 L15,11 L16,11 L16,10 Z M14,8 L13,8 L13,9 L14,9 L14,8 Z" id="形状结合" fill="#C5CFE0"></path>
    </g>
</svg>