<?xml version="1.0" encoding="UTF-8"?>
<svg width="20px" height="20px" viewBox="0 0 20 20" version="1.1" xmlns="http://www.w3.org/2000/svg" xmlns:xlink="http://www.w3.org/1999/xlink">
    <!-- Generator: Sketch 58 (84663) - https://sketch.com -->
    <title>内存</title>
    <desc>Created with Sketch.</desc>
    <g id="内存" stroke="none" stroke-width="1" fill="none" fill-rule="evenodd">
        <path d="M16,4 C17.1045695,4 18,4.8954305 18,6 L18,15 C18,15.5522847 17.5522847,16 17,16 L15,16 L15,13 L6,13 L6,16 L4,16 C3.44771525,16 3,15.5522847 3,15 L3,6 C3,4.8954305 3.8954305,4 5,4 L16,4 Z M7.42469626,7.93061606 L7.42469626,7.93061606 L4.4470578,8.29622409 C4.17297375,8.32987738 3.97806611,8.57934779 4.0117194,8.85343184 C4.04163343,9.09706211 4.24206963,9.27813324 4.47873969,9.29172771 L4.56892714,9.28877025 L7.5465656,8.92316222 C7.82064965,8.88950893 8.01555729,8.64003852 7.981904,8.36595447 C7.95572922,8.15277798 7.79899841,7.98749834 7.60167424,7.94040208 L7.51488371,7.9276586 Z M13.0668436,8.35491107 C13.0331904,8.62899512 13.228098,8.87846553 13.502182,8.91211882 L16.4798205,9.27772685 C16.7539046,9.31138014 17.003375,9.1164725 17.0370282,8.84238845 C17.0706815,8.5683044 16.8757739,8.31883399 16.6016898,8.2851807 L13.6240514,7.91957267 C13.3499673,7.88591938 13.1004969,8.08082702 13.0668436,8.35491107 Z M14,5 L13,5 L13,6.5 C13,6.77614237 13.2238576,7 13.5,7 C13.7454599,7 13.9496084,6.82312484 13.9919443,6.58987563 L14,6.5 L14,5 Z M12,5 L11,5 L11,6.5 C11,6.77614237 11.2238576,7 11.5,7 C11.7454599,7 11.9496084,6.82312484 11.9919443,6.58987563 L12,6.5 L12,5 Z M10,5 L9,5 L9,6.5 C9,6.77614237 9.22385763,7 9.5,7 C9.74545989,7 9.94960837,6.82312484 9.99194433,6.58987563 L10,6.5 L10,5 Z M8,5 L7,5 L7,6.5 C7,6.77614237 7.22385763,7 7.5,7 C7.74545989,7 7.94960837,6.82312484 7.99194433,6.58987563 L8,6.5 L8,5 Z" id="形状结合" fill="#C0C6D4"></path>
    </g>
</svg>