<?xml version="1.0" encoding="UTF-8"?>
<svg width="20px" height="20px" viewBox="0 0 20 20" version="1.1" xmlns="http://www.w3.org/2000/svg" xmlns:xlink="http://www.w3.org/1999/xlink">
    <!-- Generator: Sketch 58 (84663) - https://sketch.com -->
    <title>打印机</title>
    <desc>Created with Sketch.</desc>
    <g id="打印机" stroke="none" stroke-width="1" fill="none" fill-rule="evenodd">
        <path d="M7.48630137,7 L6.51369863,7 C6.22999071,7 6,7.22385763 6,7.5 C6,7.77614237 6.22999071,8 6.51369863,8 L7.48630137,8 C7.77000929,8 8,7.77614237 8,7.5 C8,7.22385763 7.77000929,7 7.48630137,7 L7.48630137,7 Z" id="路径" fill="#536076" fill-rule="nonzero"></path>
        <path d="M13.9294479,16.5019489 C13.9294479,16.6425479 13.8790317,16.7773883 13.7892904,16.8768067 C13.699549,16.9762252 13.5778337,17.0320779 13.4509202,17.0320779 L7.54907975,17.0320779 C7.28479625,17.0320779 7.07055215,16.7947311 7.07055215,16.5019489 L7.07055215,12.5622069 C7.07055215,12.2694248 7.28479625,12.0320779 7.54907975,12.0320779 L13.4509202,12.0320779 C13.5778337,12.0320779 13.699549,12.0879306 13.7892904,12.1873491 C13.8790317,12.2867676 13.9294479,12.421608 13.9294479,12.5622069 L13.9294479,16.5019489 Z" id="路径" fill="#C0C6D4" fill-rule="nonzero"></path>
        <path d="M15.974547,7.01177266 C16.5268318,7.01177266 16.974547,7.45948791 16.974547,8.01177266 L16.974547,13.0117727 C16.974547,13.5640574 16.5268318,14.0117727 15.974547,14.0117727 L14.9813429,14.0117727 L14.9841874,13.9740193 L14.9841874,11.9740193 C14.9841874,11.4611835 14.5981472,11.0385122 14.1008085,10.980747 L13.9841874,10.9740193 L6.98418738,10.9740193 C6.47135154,10.9740193 6.04868022,11.3600595 5.99091511,11.8573982 L5.98418738,11.9740193 L5.98418738,13.9740193 C5.98418738,13.9869422 5.98443251,13.9998079 5.98491837,14.0126119 L5.02334287,14.0117727 C4.47105812,14.0117727 4.02334287,13.5640574 4.02334287,13.0117727 L4.02334287,8.01177266 C4.02334287,7.45948791 4.47105812,7.01177266 5.02334287,7.01177266 L15.974547,7.01177266 Z M14.5,8 L13.5,8 C13.2238576,8 13,8.22385763 13,8.5 C13,8.77614237 13.2238576,9 13.5,9 L13.5,9 L14.5,9 C14.7761424,9 15,8.77614237 15,8.5 C15,8.22385763 14.7761424,8 14.5,8 L14.5,8 Z" id="形状结合" fill="#C0C6D4"></path>
        <rect id="矩形" stroke="#C0C6D4" x="7.5" y="4.5" width="6" height="3" rx="1"></rect>
    </g>
</svg>