<?xml version="1.0" encoding="UTF-8"?>
<svg width="16px" height="16px" viewBox="0 0 16 16" version="1.1" xmlns="http://www.w3.org/2000/svg" xmlns:xlink="http://www.w3.org/1999/xlink">
    <title>图标/浅色</title>
    <g id="图标/浅色" stroke="none" stroke-width="1" fill="none" fill-rule="evenodd">
        <path d="M8,1 C11.8659932,1 15,4.13400675 15,8 C15,11.8659932 11.8659932,15 8,15 C4.13400675,15 1,11.8659932 1,8 C1,4.13400675 4.13400675,1 8,1 Z M8,2 C6.34314575,2 4.84314575,2.67157288 3.75735931,3.75735931 C2.67157288,4.84314575 2,6.34314575 2,8 C2,9.65685425 2.67157288,11.1568542 3.75735931,12.2426407 C4.84314575,13.3284271 6.34314575,14 8,14 L8,11 C9.65685425,11 11,9.65685425 11,8 C11,6.34314575 9.65685425,5 8,5 L8,11 C6.34314575,11 5,9.65685425 5,8 C5,6.34314575 6.34314575,5 8,5 L8,2 Z" id="形状结合" fill="#000000"></path>
    </g>
</svg>