<?xml version="1.0" encoding="UTF-8"?>
<svg width="36px" height="36px" viewBox="0 0 36 36" version="1.1" xmlns="http://www.w3.org/2000/svg" xmlns:xlink="http://www.w3.org/1999/xlink">
    <!-- Generator: Sketch 58 (84663) - https://sketch.com -->
    <title>magnifier_normal</title>
    <desc>Created with Sketch.</desc>
    <g id="Symbols" stroke="none" stroke-width="1" fill="none" fill-rule="evenodd">
        <g id="toolbar" transform="translate(-200.000000, -7.000000)">
            <g id="编组备份-9" transform="translate(200.000000, 7.000000)">
                <g id="编组-8" transform="translate(10.000000, 10.000000)">
                    <path d="M17.2314394,12.2900479 L17.2959975,12.2226367 L13.726171,8.74500408 L13.9488754,8.40104205 C15.0887681,6.64050255 14.8434089,4.31583013 13.3212746,2.81933214 C11.53203,1.06022262 8.62763058,1.06022262 6.83838597,2.81933214 C5.05387134,4.57379135 5.05387134,7.41475665 6.82954561,9.16073485 L7.00414948,9.32438749 C8.80913616,10.9326963 11.592555,10.8686585 13.322312,9.16660421 L13.6711663,8.82333704 L17.2314394,12.2900479 Z" id="椭圆形-2" stroke="#536076" transform="translate(11.500000, 7.000000) rotate(7.000000) translate(-11.500000, -7.000000) "></path>
                    <rect id="矩形" fill="#536076" x="0" y="2" width="4" height="1"></rect>
                    <rect id="矩形" fill="#536076" x="0" y="9" width="4" height="1"></rect>
                    <rect id="矩形备份" fill="#536076" x="0" y="15" width="15" height="1"></rect>
                </g>
            </g>
        </g>
    </g>
</svg>