<svg xmlns="http://www.w3.org/2000/svg" viewBox="0 0 50 50"><defs><style>.cls-1{fill:#fff;}</style></defs><title>画板 11</title><g id="优灵墨"><path id="默认" class="cls-1" d="M25,6A19,19,0,1,0,44,25,19,19,0,0,0,25,6Zm7,4.48a2.75,2.75,0,1,1-2.75,2.76A2.75,2.75,0,0,1,32,10.48ZM25.11,13a12.12,12.12,0,0,1,3.26.45,3.66,3.66,0,0,0,5.29,3.08A12.08,12.08,0,0,1,37.2,24.2l-4.27.06a7.86,7.86,0,0,0-11-6.33l-2.19-3.68A12.07,12.07,0,0,1,25.11,13Zm3.26,13.91.6,1.21L27.8,29.2l.08.91H26.24l1.27-1.81-.44-.54-1.23,1v.64l-1.59,0,1-.95,1-1.19-.84-.58-.86.44-1.17.46-1-.18-.63,1-.2,1.39H20l1.12-1.31-.33-.78-.25-1.54-.81-2,1.46-2.7,1.35-.83L24,19.11l-.4,1,.22,0,1.53-1.54-.65,1.9L25,21.91l-1,1.35,1.49,1.09,2.08.83,1.48-.78.87-1.27,1.42-.44-.26,1.85-.91.32-.67-.13-1.21.69Zm-17.08.88A2.75,2.75,0,1,1,14,25a2.75,2.75,0,0,1-2.75,2.75h0Zm2.06.28a3.67,3.67,0,0,0,0-6,12.14,12.14,0,0,1,5-7l2.18,3.67a7.86,7.86,0,0,0-.11,12.72l-2.09,3.74A12.14,12.14,0,0,1,13.36,28.07ZM32.08,39.54a2.75,2.75,0,1,1,2.75-2.75,2.75,2.75,0,0,1-2.75,2.75Zm1.73-6a3.67,3.67,0,0,0-5.4,3.22,12.11,12.11,0,0,1-8.7-.81l2.08-3.73a7.86,7.86,0,0,0,11.15-6.4l4.27-.06a12.08,12.08,0,0,1-3.4,7.77Z"/></g></svg>