<?xml version="1.0" encoding="UTF-8"?>
<svg width="16px" height="16px" viewBox="0 0 16 16" version="1.1" xmlns="http://www.w3.org/2000/svg" xmlns:xlink="http://www.w3.org/1999/xlink">
    <title>编组备份 2</title>
    <g id="桌面版" stroke="none" stroke-width="1" fill="none" fill-rule="evenodd">
        <g id="键盘和语言6" transform="translate(-1721.000000, -522.000000)">
            <g id="控制中心备份" transform="translate(998.000000, 223.000000)">
                <g id="分组-4" transform="translate(451.000000, 60.000000)">
                    <g id="编组-3" transform="translate(10.000000, 159.000000)">
                        <g id="Group-15" transform="translate(0.000000, 33.000000)">
                            <g id="option_listview_bottom" transform="translate(0.000000, 37.000000)">
                                <g id="编组备份-2" transform="translate(270.000000, 18.000000) scale(1, -1) translate(-270.000000, -18.000000) translate(262.000000, 10.000000)">
                                    <rect id="矩形备份-3" fill="#536076" x="6" y="6" width="4" height="9" rx="1"></rect>
                                    <path d="M8.38411064,1.46093277 L12.3165898,6.1799078 C12.4933719,6.39204625 12.4647098,6.7073286 12.2525714,6.88411064 C12.1627139,6.95899189 12.0494474,7 11.9324792,7 L4.06752081,7 C3.79137843,7 3.56752081,6.77614237 3.56752081,6.5 C3.56752081,6.38303175 3.60852892,6.2697653 3.68341017,6.1799078 L7.61588936,1.46093277 C7.7926714,1.24879432 8.10795375,1.22013229 8.3200922,1.39691433 C8.34332373,1.41627394 8.36475103,1.43770124 8.38411064,1.46093277 Z" id="三角形" fill="#536076"></path>
                                    <rect id="矩形" x="0" y="0" width="16" height="16"></rect>
                                </g>
                            </g>
                        </g>
                    </g>
                </g>
            </g>
        </g>
    </g>
</svg>