<svg width="1641.752441" height="240.845703" viewBox="0 0 1641.75 240.846" fill="none" xmlns="http://www.w3.org/2000/svg" xmlns:xlink="http://www.w3.org/1999/xlink">
	<desc>
			Created with Pixso.
	</desc>
	<defs>
		<filter id="filter_2_6_dd" x="25.756042" y="34.417137" width="206.935898" height="183.162628" filterUnits="userSpaceOnUse" color-interpolation-filters="sRGB">
			<feFlood flood-opacity="0" result="BackgroundImageFix"/>
			<feColorMatrix in="SourceAlpha" type="matrix" values="0 0 0 0 0 0 0 0 0 0 0 0 0 0 0 0 0 0 127 0" result="hardAlpha"/>
			<feOffset dx="4" dy="6"/>
			<feGaussianBlur stdDeviation="8.33333"/>
			<feComposite in2="hardAlpha" operator="out" k2="-1" k3="1"/>
			<feColorMatrix type="matrix" values="0 0 0 0 0.07451 0 0 0 0 0.46667 0 0 0 0 0.90588 0 0 0 0.63 0"/>
			<feBlend mode="normal" in2="BackgroundImageFix" result="effect_dropShadow_1"/>
			<feBlend mode="normal" in="SourceGraphic" in2="effect_dropShadow_1" result="shape"/>
		</filter>
		<clipPath id="clip2_1">
			<rect id="组合 91" width="1641.752441" height="240.845703" fill="white" fill-opacity="0"/>
		</clipPath>
		<linearGradient x1="1147.000000" y1="183.000122" x2="493.000092" y2="69.000000" id="paint_linear_2_2_0" gradientUnits="userSpaceOnUse">
			<stop stop-color="#286FFE"/>
			<stop offset="1.000000" stop-color="#42B8FF"/>
		</linearGradient>
		<linearGradient x1="0.000015" y1="22.702637" x2="265.945923" y2="270.810730" id="paint_linear_2_5_0" gradientUnits="userSpaceOnUse">
			<stop stop-color="#43B9FF"/>
			<stop offset="1.000000" stop-color="#286FFE"/>
		</linearGradient>
		<linearGradient x1="197.244583" y1="166.050034" x2="46.734859" y2="76.050064" id="paint_linear_2_8_0" gradientUnits="userSpaceOnUse">
			<stop stop-color="#2E81FE"/>
			<stop offset="1.000000" stop-color="#2779FF" stop-opacity="0.000000"/>
		</linearGradient>
	</defs>
	<g clip-path="url(#clip2_1)">
		<path id="矢量 34" d="M364.59 183.39L364.59 0L391.32 0L391.32 161.06L474.11 161.06L474.11 183.39L364.59 183.39ZM959.67 183.39L959.67 109.63C959.67 100.56 956.79 93.42 951 88.23C945.22 83.01 937.97 80.39 929.23 80.39C923.37 80.39 918.11 81.58 913.46 83.97C908.85 86.35 905.11 89.7 902.25 94C899.42 98.27 898.01 103.4 898.01 109.38L898.01 183.39L873.95 183.39L873.95 61.33L898.01 61.33L898.01 75.54C901.71 71.07 906.25 67.42 911.63 64.59C918.93 60.7 927.12 58.75 936.21 58.75C945.12 58.75 953.16 60.66 960.33 64.46C967.54 68.22 973.23 73.53 977.41 80.39C977.5 80.55 977.6 80.7 977.69 80.86C977.77 80.75 977.85 80.63 977.93 80.52C982.66 73.74 988.77 68.43 996.24 64.59C1003.72 60.7 1011.92 58.75 1020.82 58.75C1030.06 58.75 1038.36 60.66 1045.66 64.46C1052.96 68.22 1058.78 73.53 1063.13 80.39C1067.52 87.21 1069.71 95.42 1069.71 105.05L1069.71 183.39L1045.4 183.39L1045.4 109.63C1045.4 100.56 1042.51 93.42 1036.73 88.23C1030.93 83.01 1023.78 80.39 1015.22 80.39C1009.35 80.39 1004.05 81.58 999.31 83.97C994.61 86.35 990.83 89.7 987.97 94C985.14 98.27 983.73 103.4 983.73 109.38L983.73 183.39L959.67 183.39ZM1160.18 185.96C1147.73 185.96 1136.51 183.14 1126.56 177.49C1116.61 171.85 1108.68 164.2 1102.77 154.53C1096.9 144.84 1093.97 133.99 1093.97 121.99C1093.97 110.15 1096.9 99.48 1102.77 89.99C1108.68 80.5 1116.61 72.93 1126.56 67.28C1136.51 61.6 1147.73 58.75 1160.18 58.75C1172.5 58.75 1183.66 61.56 1193.68 67.16C1203.79 72.72 1211.76 80.29 1217.63 89.86C1223.49 99.44 1226.43 110.15 1226.43 121.99C1226.43 133.99 1223.49 144.84 1217.63 154.53C1211.76 164.2 1203.79 171.85 1193.68 177.49C1183.66 183.14 1172.5 185.96 1160.18 185.96ZM562.46 66.16C568.16 64.78 575.72 63.32 585.15 61.77C594.58 60.22 605.44 59.45 617.74 59.45C628.78 59.45 637.93 60.96 645.19 63.97C652.49 66.94 658.31 71.12 662.66 76.51C667.05 81.9 670.13 88.39 671.91 95.95C673.69 103.49 674.59 111.79 674.59 120.86L674.59 183.39L649.75 183.39C649.75 183.39 649.77 179.41 649.77 173.19C649.77 153.09 649.58 109.57 647.99 101.37C645.91 90.61 641.04 85.57 631.56 82.97C627.13 81.34 621.63 80.52 615.07 80.52C612.38 80.52 609.59 80.61 606.73 80.78C603.9 80.94 601.19 81.15 598.58 81.4C596.01 81.65 593.71 81.97 591.67 82.34C589.63 82.68 588.17 82.93 587.3 83.1L587.3 183.39L562.46 183.39L562.46 66.16ZM499.14 183.39L499.14 61.33L523.19 61.33L523.19 183.39L499.14 183.39ZM835.56 123.09C835.56 156.56 807.3 183.75 772.51 183.75C737.73 183.75 709.47 156.56 709.47 123.09C709.47 89.61 737.73 62.43 772.51 62.43C787.2 62.43 800.73 67.27 811.45 75.4L811.45 62.43L835.56 62.43L835.56 123.09ZM1160.18 163.63C1168.18 163.63 1175.3 161.83 1181.51 158.24C1187.77 154.64 1192.68 149.73 1196.25 143.5C1199.81 137.23 1201.59 130.06 1201.59 121.99C1201.59 114.12 1199.77 107.12 1196.11 100.97C1192.46 94.78 1187.55 89.93 1181.38 86.41C1175.26 82.9 1168.18 81.14 1160.18 81.14C1152.18 81.14 1145.06 82.9 1138.81 86.41C1132.6 89.93 1127.71 94.78 1124.15 100.97C1120.59 107.12 1118.8 114.12 1118.8 121.99C1118.8 130.06 1120.59 137.23 1124.15 143.5C1127.71 149.73 1132.56 154.64 1138.81 158.24C1145.06 161.83 1152.18 163.63 1160.18 163.63ZM772.51 160.56C794 160.56 811.45 143.77 811.45 123.09C811.45 102.42 794 85.62 772.51 85.62C751.03 85.62 733.57 102.42 733.57 123.09C733.57 143.77 751.03 160.56 772.51 160.56ZM772.51 240.84C747.64 240.84 726.1 226.94 715.85 206.78L744.99 206.67C752.04 213.45 761.77 217.65 772.51 217.65C783.26 217.65 792.99 213.45 800.04 206.67C805.56 201.35 809.43 194.46 810.85 186.75L835.19 186.75C834.39 193.86 832.31 200.61 829.18 206.78C818.92 226.94 797.39 240.84 772.51 240.84Z" fill="url(#paint_linear_2_2_0)" fill-opacity="1.000000" fill-rule="evenodd"/>
		<path id="矢量 34" d="M1325.19 45.36C1318.13 59.57 1314.6 75.55 1314.6 93.31C1314.6 111.03 1318.13 127 1325.19 141.2C1332.26 155.41 1342.29 166.53 1355.29 174.57C1368.32 182.58 1383.36 186.58 1400.39 186.58C1417.64 186.58 1432.76 182.58 1445.75 174.57C1458.75 166.53 1468.82 155.41 1475.97 141.2C1483.12 127 1486.7 111.03 1486.7 93.31C1486.7 75.55 1483.12 59.57 1475.97 45.36C1468.82 31.16 1458.75 20.06 1445.75 12.06C1432.76 4.02 1417.64 0 1400.39 0C1383.36 0 1368.32 4.02 1355.29 12.06C1342.29 20.06 1332.26 31.16 1325.19 45.36ZM1519.3 124.91L1501.95 124.91C1503 143.28 1509.9 158.12 1522.65 169.43C1535.39 180.7 1553.39 186.33 1576.65 186.33C1589.39 186.33 1600.7 184.17 1610.59 179.84C1620.51 175.47 1628.19 169.37 1633.61 161.53C1639.04 153.64 1641.75 144.45 1641.75 133.91C1641.75 122.03 1638.96 112.63 1633.36 105.69C1627.77 98.74 1620.41 93.55 1611.28 90.12C1602.16 86.69 1590.44 83.65 1576.14 81C1564.07 78.83 1554.5 76.51 1547.44 74.02C1540.37 71.49 1535.03 68.1 1531.41 63.85C1527.8 59.57 1525.99 53.99 1525.99 47.14C1525.99 37.09 1530.03 29.12 1538.1 23.2C1546.22 17.24 1557.26 14.26 1571.22 14.26C1584.64 14.26 1595.62 17.57 1604.15 24.18C1612.69 30.8 1617.74 40.28 1619.29 52.65L1636.07 52.65C1634.35 36.61 1628.02 23.88 1617.09 14.45C1606.15 4.98 1590.78 0.23 1570.97 0.23C1558.73 0.23 1547.96 2.22 1538.67 6.17C1529.37 10.1 1522.14 15.65 1516.97 22.84C1511.79 30.02 1509.21 38.29 1509.21 47.62C1509.21 57.67 1511.56 65.83 1516.27 72.12C1521.03 78.36 1527.57 83.24 1535.89 86.75C1544.26 90.27 1554.73 93.18 1567.31 95.51C1581.99 98.37 1593.2 101.2 1600.94 103.97C1608.67 106.71 1614.48 110.46 1618.35 115.24C1622.26 120.02 1624.21 126.48 1624.21 134.64C1624.21 146.53 1619.82 155.78 1611.03 162.39C1602.24 169 1590.86 172.31 1576.9 172.31C1559.49 172.31 1545.73 168.17 1535.64 159.88C1525.59 151.59 1520.14 139.94 1519.3 124.91ZM1460.77 53.44C1466.02 65.28 1468.65 78.57 1468.65 93.31C1468.65 108.01 1466.02 121.3 1460.77 133.17C1455.51 145.06 1447.71 154.42 1437.36 161.28C1427.02 168.14 1414.69 171.57 1400.39 171.57C1386.09 171.57 1373.85 168.14 1363.68 161.28C1353.54 154.42 1345.84 145.06 1340.59 133.17C1335.33 121.3 1332.7 108.01 1332.7 93.31C1332.7 78.57 1335.33 65.28 1340.59 53.44C1345.84 41.56 1353.54 32.2 1363.68 25.35C1373.85 18.49 1386.09 15.06 1400.39 15.06C1414.69 15.06 1427.02 18.49 1437.36 25.35C1447.71 32.2 1455.51 41.56 1460.77 53.44Z" fill="#286FFE" fill-opacity="1.000000" fill-rule="evenodd"/>
		<path id="矢量 34" d="M511.2 36.93C506.72 36.93 503.05 35.54 500.18 32.74C497.35 29.89 495.94 26.34 495.94 22.07C495.94 17.93 497.35 14.46 500.18 11.66C503.05 8.81 506.72 7.39 511.2 7.39C515.63 7.39 519.26 8.81 522.08 11.66C524.95 14.46 526.38 17.93 526.38 22.07C526.38 26.34 524.95 29.89 522.08 32.74C519.26 35.54 515.63 36.93 511.2 36.93Z" fill="#42B6FF" fill-opacity="1.000000" fill-rule="evenodd"/>
		<path id="矩形 36" d="M80 0L160 0C188 0 202 0 212.69 5.43C222.1 10.24 229.75 17.89 234.55 27.3C240 37.99 240 51.98 240 79.99L240 160C240 188 240 202 234.55 212.69C229.75 222.1 222.1 229.75 212.69 234.55C202 240 188 240 160 240L80 240C51.99 240 37.99 240 27.3 234.55C17.89 229.75 10.24 222.1 5.44 212.69C0 202 0 188 0 160L0 79.99C0 51.98 0 37.99 5.44 27.3C10.24 17.89 17.89 10.24 27.3 5.43C37.99 0 51.99 0 80 0Z" fill="url(#paint_linear_2_5_0)" fill-opacity="1.000000" fill-rule="evenodd"/>
		<g filter="url(#filter_2_6_dd)">
			<path id="矢量 30" d="M123.16 59.08C96.94 45.68 65.18 56.83 52.24 83.99C39.29 111.15 50.05 144.03 76.27 157.42C89.38 164.12 103.88 164.68 116.71 160.17C122.44 158.21 131.79 152.78 142.26 146.34C146.67 166.76 161.3 181.15 171.92 186.58L178.4 172.99C172.46 169.96 158.73 156.62 157.4 144.35C157.15 142.03 156.91 139.69 156.66 137.35C158.6 136.13 160.55 134.91 162.48 133.7C172.7 127.32 191.28 130.49 197.22 133.53L203.69 119.94C193.07 114.51 173.14 111.25 154.8 120.05C153.38 107.52 151.84 96.53 149.87 90.63C145.52 77.34 136.27 65.77 123.16 59.08ZM140.59 129.14C145.16 126.23 149.96 123.14 154.8 120.05C155.43 125.61 156.04 131.48 156.66 137.35C151.78 140.41 146.91 143.48 142.26 146.34C141.69 140.48 141.14 134.66 140.59 129.14ZM140.59 129.14C127.71 137.31 116.67 143.97 111.79 145.14C102.67 148.35 92.37 147.95 83.06 143.19C64.43 133.67 56.78 110.31 65.98 91.01C75.18 71.71 97.74 63.79 116.38 73.31C125.69 78.07 132.26 86.29 135.35 95.73C137.42 100.46 139.02 113.59 140.59 129.14Z" fill="#FFFFFF" fill-opacity="1.000000" fill-rule="evenodd"/>
			<path id="矢量 30" d="M123.16 59.08C96.94 45.68 65.18 56.83 52.24 83.99C39.29 111.15 50.05 144.03 76.27 157.42C89.38 164.12 103.88 164.68 116.71 160.17C122.44 158.21 131.79 152.78 142.26 146.34C146.67 166.76 161.3 181.15 171.92 186.58L178.4 172.99C172.46 169.96 158.73 156.62 157.4 144.35C157.15 142.03 156.91 139.69 156.66 137.35C158.6 136.13 160.55 134.91 162.48 133.7C172.7 127.32 191.28 130.49 197.22 133.53L203.69 119.94C193.07 114.51 173.14 111.25 154.8 120.05C153.38 107.52 151.84 96.53 149.87 90.63C145.52 77.34 136.27 65.77 123.16 59.08ZM140.59 129.14C145.16 126.23 149.96 123.14 154.8 120.05C155.43 125.61 156.04 131.48 156.66 137.35C151.78 140.41 146.91 143.48 142.26 146.34C141.69 140.48 141.14 134.66 140.59 129.14ZM140.59 129.14C127.71 137.31 116.67 143.97 111.79 145.14C102.67 148.35 92.37 147.95 83.06 143.19C64.43 133.67 56.78 110.31 65.98 91.01C75.18 71.71 97.74 63.79 116.38 73.31C125.69 78.07 132.26 86.29 135.35 95.73C137.42 100.46 139.02 113.59 140.59 129.14Z" fill="url(#paint_linear_2_8_0)" fill-opacity="0.460000" fill-rule="evenodd"/>
		</g>
	</g>
</svg>
