<?xml version="1.0" encoding="UTF-8"?>
<svg width="20px" height="20px" viewBox="0 0 20 20" version="1.1" xmlns="http://www.w3.org/2000/svg" xmlns:xlink="http://www.w3.org/1999/xlink">
    <title>file save as</title>
    <g id="组件" stroke="none" stroke-width="1" fill="none" fill-rule="evenodd">
        <g id="icon/ai/file-save-as" transform="translate(-10, -10)">
            <g id="file-save-as" transform="translate(10, 10)">
                <rect id="矩形" x="0" y="0" width="20" height="20"></rect>
                <path d="M16,2 C17.1045695,2 18,2.8954305 18,4 L18,9 L17,9 L17,4 C17,3.44771525 16.5522847,3 16,3 L14,3 L14,10 L6,10 L6,3 L4,3 C3.44771525,3 3,3.44771525 3,4 L3,16 C3,16.5522847 3.44771525,17 4,17 L14,17 L14,18 L4,18 C2.8954305,18 2,17.1045695 2,16 L2,4 C2,2.8954305 2.8954305,2 4,2 L16,2 Z M16.3796283,9.67460431 L18.8218071,12.5238129 C19.3032939,13.0855475 19.3032939,13.9144525 18.8218071,14.4761871 L16.3796283,17.3253957 L15.6203717,16.6746043 L17.912,14 L10,14 L10,13 L17.913,13 L15.6203717,10.3253957 L16.3796283,9.67460431 Z M13,3 L7,3 L7,9 L13,9 L13,3 Z M12,4 L12,7 L11,7 L11,4 L12,4 Z" id="形状结合" fill-opacity="0.701870151" fill="#000000" fill-rule="nonzero"></path>
            </g>
        </g>
    </g>
</svg>