<?xml version="1.0" encoding="UTF-8"?>
<svg width="20px" height="20px" viewBox="0 0 20 20" version="1.1" xmlns="http://www.w3.org/2000/svg" xmlns:xlink="http://www.w3.org/1999/xlink">
    <title>save</title>
    <g id="组件" stroke="none" stroke-width="1" fill="none" fill-rule="evenodd">
        <g id="icon/ai/save" transform="translate(-10, -10)">
            <g id="save" transform="translate(10, 10)">
                <rect id="矩形" x="0" y="0" width="20" height="20"></rect>
                <path d="M14,2 L14.0007451,2.01967955 C14.6680999,2.1039146 15.2786148,2.45481968 15.6875,3 L17.5,5.41666667 C17.8245553,5.84940709 18,6.37574113 18,6.91666667 L18,15.5 C18,16.8807119 16.8807119,18 15.5,18 L4.5,18 C3.11928813,18 2,16.8807119 2,15.5 L2,4.5 C2,3.11928813 3.11928813,2 4.5,2 L14,2 Z M6,3 L4.5,3 C3.67157288,3 3,3.67157288 3,4.5 L3,15.5 C3,16.3284271 3.67157288,17 4.5,17 L5,17 L5,8 L15,8 L15,17 L15.5,17 C16.3284271,17 17,16.3284271 17,15.5 L17,6.91666667 C17,6.59211135 16.8947332,6.27631092 16.7,6.01666667 L14.8875,3.6 C14.6680149,3.30735316 14.3516997,3.10800459 14.0007623,3.03305823 L14,6 L6,6 L6,3 Z M14,9 L6,9 L6,17 L14,17 L14,9 Z M13,13 L13,14 L7,14 L7,13 L13,13 Z M12,11 L12,12 L7,12 L7,11 L12,11 Z M13,3 L7,3 L7,5 L13,5 L13,3 Z" id="形状结合" fill-opacity="0.704268876" fill="#000000" fill-rule="nonzero"></path>
            </g>
        </g>
    </g>
</svg>