<?xml version="1.0" standalone="no"?><!DOCTYPE svg PUBLIC "-//W3C//DTD SVG 1.1//EN" "http://www.w3.org/Graphics/SVG/1.1/DTD/svg11.dtd"><svg t="1590043154071" class="icon" viewBox="0 0 1024 1024" version="1.1" xmlns="http://www.w3.org/2000/svg" p-id="1467" xmlns:xlink="http://www.w3.org/1999/xlink" width="28" height="28"><defs><style type="text/css"></style></defs><path d="M511.5 511.6m-448 0a448 448 0 1 0 896 0 448 448 0 1 0-896 0Z" fill="#0081FF" p-id="1468" data-spm-anchor-id="a313x.7781069.0.i13" class="selected"></path><path d="M445.3 723.1c-12.8 0-25.6-4.9-35.4-14.6L277.7 576.2c-19.5-19.5-19.5-51.2 0-70.7s51.2-19.5 70.7 0l96.9 96.9 229.1-229.1c19.5-19.5 51.2-19.5 70.7 0s19.5 51.2 0 70.7L480.7 708.5c-9.8 9.7-22.6 14.6-35.4 14.6z" fill="#FFFFFF" p-id="1469"></path></svg>