<?xml version="1.0" encoding="UTF-8"?>
<svg width="26px" height="23px" viewBox="0 0 26 23" version="1.1" xmlns="http://www.w3.org/2000/svg" xmlns:xlink="http://www.w3.org/1999/xlink">
    <title>警告icon备份</title>
    <defs>
        <polygon id="path-1" points="7 0.5 14 12 0 12"></polygon>
        <filter x="-78.6%" y="-60.9%" width="257.1%" height="291.3%" filterUnits="objectBoundingBox" id="filter-2">
            <feOffset dx="0" dy="4" in="SourceAlpha" result="shadowOffsetOuter1"></feOffset>
            <feGaussianBlur stdDeviation="3" in="shadowOffsetOuter1" result="shadowBlurOuter1"></feGaussianBlur>
            <feColorMatrix values="0 0 0 0 0.97254902   0 0 0 0 0.881246572   0 0 0 0 0.17254902  0 0 0 0.4 0" type="matrix" in="shadowBlurOuter1"></feColorMatrix>
        </filter>
    </defs>
    <g id="页面-1" stroke="none" stroke-width="1" fill="none" fill-rule="evenodd">
        <g id="下载诊断工具" transform="translate(-274.000000, -466.000000)">
            <g id="编组" transform="translate(240.000000, 309.000000)">
                <g id="问题1备份" transform="translate(20.000000, 145.000000)">
                    <g id="icon_tips/caution" transform="translate(20.000000, 13.000000)">
                        <g id="多边形">
                            <use fill="black" fill-opacity="1" filter="url(#filter-2)" xlink:href="#path-1"></use>
                            <use fill="#F8CB00" fill-rule="evenodd" xlink:href="#path-1"></use>
                        </g>
                        <path d="M7.01036297,9 C7.56837103,9 8.02072594,9.44771525 8.02072594,10 C8.02072594,10.5522847 7.56837103,11 7.01036297,11 C6.45235491,11 6,10.5522847 6,10 C6,9.44771525 6.45235491,9 7.01036297,9 Z M7.02072594,3 C7.57301069,3 8.02072594,3.44771525 8.02072594,4 L8.02072594,7 C8.02072594,7.55228475 7.57301069,8 7.02072594,8 L7,8 C6.44771525,8 6,7.55228475 6,7 L6,4 C6,3.44771525 6.44771525,3 7,3 L7.02072594,3 Z" id="形状结合" fill="#FFFFFF" fill-rule="evenodd"></path>
                    </g>
                </g>
            </g>
        </g>
    </g>
</svg>