<?xml version="1.0" encoding="UTF-8"?>
<svg width="18px" height="18px" viewBox="0 0 18 18" version="1.1" xmlns="http://www.w3.org/2000/svg" xmlns:xlink="http://www.w3.org/1999/xlink">
    <title>icon/schedule/delete</title>
    <g id="icon/schedule/delete" stroke="none" stroke-width="1" fill="none" fill-rule="evenodd">
        <rect id="矩形" x="0" y="0" width="18" height="18"></rect>
        <path d="M13.5,7 C13.7761424,7 14,7.22385763 14,7.5 L14,7.5 L14,13.5 C14,14.6045695 13.1045695,15.5 12,15.5 L7,15.5 C5.8954305,15.5 5,14.6045695 5,13.5 L5,7.5 L5.00805567,7.41012437 C5.05039163,7.17687516 5.25454011,7 5.5,7 C5.74545989,7 5.94960837,7.17687516 5.99194433,7.41012437 L6,7.5 L6,13.5 C6,14.0128358 6.38604019,14.4355072 6.88337887,14.4932723 L7,14.5 L12,14.5 C12.5128358,14.5 12.9355072,14.1139598 12.9932723,13.6166211 L13,13.5 L13,7.5 L13.0080557,7.41012437 C13.0503916,7.17687516 13.2545401,7 13.5,7 Z M8.5,7 C8.77614237,7 9,7.22385763 9,7.5 L9,10.5 C9,10.7761424 8.77614237,11 8.5,11 C8.22385763,11 8,10.7761424 8,10.5 L8,7.5 C8,7.22385763 8.22385763,7 8.5,7 Z M10.5,7 C10.7761424,7 11,7.22385763 11,7.5 L11,10.5 C11,10.7761424 10.7761424,11 10.5,11 C10.2238576,11 10,10.7761424 10,10.5 L10,7.5 C10,7.22385763 10.2238576,7 10.5,7 Z M11,3 C11.5522847,3 12,3.44771525 12,4 L12,5 L14.5,5 C14.7761424,5 15,5.22385763 15,5.5 C15,5.77614237 14.7761424,6 14.5,6 L4.5,6 C4.22385763,6 4,5.77614237 4,5.5 C4,5.22385763 4.22385763,5 4.5,5 L7,5 L7,4 C7,3.44771525 7.44771525,3 8,3 L11,3 Z M11,4 L8,4 L8,5 L11,5 L11,4 Z" id="形状结合" fill="#626E88" fill-rule="nonzero"></path>
    </g>
</svg>