<?xml version="1.0" encoding="UTF-8"?>
<svg width="19px" height="14px" viewBox="0 0 19 14" version="1.1" xmlns="http://www.w3.org/2000/svg" xmlns:xlink="http://www.w3.org/1999/xlink">
    <title>视图切换</title>
    <g id="页面-1" stroke="none" stroke-width="1" fill="none" fill-rule="evenodd">
        <g id="画板" transform="translate(-15.000000, -19.000000)" fill="#536076">
            <g id="视图切换" transform="translate(15.500000, 19.000000)">
                <path d="M1.5,14 C0.671572875,14 0,13.3284271 0,12.5 L0,12.5 L0,1.5 C0,0.671572875 0.671572875,0 1.5,0 L1.5,0 L16.5,0 C17.3284271,0 18,0.671572875 18,1.5 L18,1.5 L18,12.5 C18,13.3284271 17.3284271,14 16.5,14 L16.5,14 Z M6,1 L1.5,1 C1.22385763,1 1,1.22385763 1,1.5 L1,1.5 L1,12.5 C1,12.7761424 1.22385763,13 1.5,13 L1.5,13 L5.999,13 L6,1 Z M16.5,1 L7,1 L6.999,13 L16.5,13 C16.7454599,13 16.9496084,12.8231248 16.9919443,12.5898756 L17,12.5 L17,1.5 C17,1.22385763 16.7761424,1 16.5,1 L16.5,1 Z M3.5,9 C3.77614237,9 4,9.22385763 4,9.5 C4,9.77614237 3.77614237,10 3.5,10 L2.5,10 C2.22385763,10 2,9.77614237 2,9.5 C2,9.22385763 2.22385763,9 2.5,9 L3.5,9 Z M4.5,6 C4.77614237,6 5,6.22385763 5,6.5 C5,6.77614237 4.77614237,7 4.5,7 L2.5,7 C2.22385763,7 2,6.77614237 2,6.5 C2,6.22385763 2.22385763,6 2.5,6 L4.5,6 Z M4.5,3 C4.77614237,3 5,3.22385763 5,3.5 C5,3.77614237 4.77614237,4 4.5,4 L2.5,4 C2.22385763,4 2,3.77614237 2,3.5 C2,3.22385763 2.22385763,3 2.5,3 L4.5,3 Z" id="形状结合"></path>
            </g>
        </g>
    </g>
</svg>