<?xml version="1.0" encoding="UTF-8"?>
<svg width="16px" height="16px" viewBox="0 0 16 16" version="1.1" xmlns="http://www.w3.org/2000/svg" xmlns:xlink="http://www.w3.org/1999/xlink">
    <title>action/backup</title>
    <g id="action/backup" stroke="none" stroke-width="1" fill="none" fill-rule="evenodd">
        <path d="M7,5 C7.74066738,5 8.38729849,5.40261711 8.73297493,6.00093291 C8.24043993,5.67047126 7.57000926,5.69207521 7.0959468,6.09281114 L4.4189158,8.35938618 L4.35892789,8.42049143 C3.8472606,8.97551981 3.88761716,9.83958317 4.44813651,10.3448369 L7.07064426,12.6604291 C7.328132,12.8849951 7.65354177,13.0042019 7.9887391,12.9999184 L8.11726411,12.9937457 C8.46638419,12.9600348 8.77948805,12.7903622 9.00098568,12.536989 L9,14 C9,15.1045695 8.1045695,16 7,16 L2,16 C0.8954305,16 0,15.1045695 0,14 L0,7 C0,5.8954305 0.8954305,5 2,5 L7,5 Z M11.8640121,6.07765279 C11.9755495,6.16549217 12.0242785,6.31004579 11.988342,6.44647477 L11.7539001,7.41809587 C11.3799587,9.03012499 10.0022411,10.2233317 8.3366071,10.377589 L8.3366071,11.6433788 C8.33662174,11.8402972 8.17512906,12.0000582 7.97596109,12.0000582 C7.88643282,12.0011441 7.799661,11.9693654 7.73251405,11.9108102 L5.11767672,9.60206108 C4.97047516,9.46937318 4.95994717,9.24389351 5.09414614,9.09832188 L5.12671117,9.06721275 L7.74151922,6.85651019 C7.89293783,6.72851255 8.1206002,6.7460431 8.25004034,6.89568251 C8.30514175,6.95934262 8.33579648,7.04015931 8.33662174,7.1239416 L8.33662174,8.2649475 C9.18236731,8.17487131 9.96054285,7.76626131 10.5096055,7.1239416 L11.3571749,6.13447147 C11.4812558,5.98041685 11.7081421,5.95496787 11.8640121,6.07765279 Z M14,0 C15.1045695,0 16,1.09441506 16,2.44444444 L16,8.55555556 C16,9.90558494 15.1045695,11 14,11 L11,11 L11,10 L14,10 L14.1166211,9.99135006 C14.6139598,9.91708064 15,9.37364608 15,8.71428571 L15,2.28571429 L14.9932723,2.13577284 C14.9355072,1.49633739 14.5128358,1 14,1 L9,1 L8.88337887,1.00864994 C8.38604019,1.08291936 8,1.62635392 8,2.28571429 L8,4 L7,4 L7,2.44444444 C7,1.09441506 7.8954305,0 9,0 Z" id="形状结合" fill="#536076"></path>
    </g>
</svg>