<?xml version="1.0" encoding="UTF-8"?>
<svg width="16px" height="16px" viewBox="0 0 16 16" version="1.1" xmlns="http://www.w3.org/2000/svg" xmlns:xlink="http://www.w3.org/1999/xlink">
    <title>action/restore</title>
    <g id="action/restore" stroke="none" stroke-width="1" fill="none" fill-rule="evenodd">
        <path d="M8,1.25 C11.7279221,1.25 14.75,4.27207794 14.75,8 C14.75,11.7279221 11.7279221,14.75 8,14.75 C4.35139543,14.75 1.37891859,11.855153 1.25408192,8.23697157 L1.25,8 L2.75,8 C2.75,10.8994949 5.10050506,13.25 8,13.25 C10.8994949,13.25 13.25,10.8994949 13.25,8 C13.25,5.10050506 10.8994949,2.75 8,2.75 C6.33616267,2.75 4.80498452,3.52899825 3.82098053,4.82159166 L6,7 L1,7 L1,2 L2.75278097,3.75339247 C4.01965566,2.18843573 5.93108259,1.25 8,1.25 Z M7.5,5 C7.77614237,5 8,5.22385763 8,5.5 L8,7.999 L10.5,8 C10.7761424,8 11,8.22385763 11,8.5 C11,8.77614237 10.7761424,9 10.5,9 L7.51031763,8.99989566 C7.50688679,8.99996511 7.50344747,9 7.5,9 C7.22385763,9 7,8.77614237 7,8.5 L7,5.5 C7,5.22385763 7.22385763,5 7.5,5 Z" id="形状结合" fill="#536076"></path>
    </g>
</svg>