<?xml version="1.0" encoding="UTF-8"?>
<svg width="16px" height="16px" viewBox="0 0 16 16" version="1.1" xmlns="http://www.w3.org/2000/svg" xmlns:xlink="http://www.w3.org/1999/xlink">
    <title>编组 6</title>
    <g id="控制中心-硬件-键盘-输入法" stroke="none" stroke-width="1" fill="none" fill-rule="evenodd">
        <g id="输入法-高级设置-附加组件" transform="translate(-1270, -371)">
            <g id="控制中心" transform="translate(570, 275)">
                <g id="编组-2" transform="translate(230, 50)">
                    <g id="编组-5" transform="translate(0, 30)">
                        <g id="编组-6" transform="translate(470, 16)">
                            <rect id="矩形" x="0" y="0" width="16" height="16"></rect>
                            <g id="list-settings-line" transform="translate(0, 1)" fill="#000000" fill-opacity="0.7" fill-rule="nonzero">
                                <path d="M5,12 L5,14 L0,14 L0,12 L5,12 Z M12.6520697,6.05402175 C12.6413925,6.49438583 12.852657,6.89042957 13.2242793,7.04435705 C13.5958617,7.19828453 14.0253089,7.06762693 14.329149,6.74867889 C14.6801768,6.99964882 14.9931746,7.30924332 15.2515867,7.67061619 C14.9324305,7.97445221 14.8016649,8.40401913 14.9556244,8.77572928 C15.109584,9.14743943 15.5057999,9.35873181 15.9463241,9.34789466 C16.019145,9.7861393 16.0167456,10.2263834 15.9459642,10.6520713 C15.5055999,10.6413942 15.109544,10.8526585 14.9556244,11.2242407 C14.8017049,11.5958629 14.9323505,12.0253099 15.2513067,12.3291099 C15.0003327,12.6801775 14.690734,12.9931751 14.329389,13.2515471 C14.0255488,12.9324311 13.5959817,12.8016655 13.2242793,12.955625 C12.852537,13.1095844 12.6412725,13.5058001 12.6520697,13.9463242 C12.2138248,14.019145 11.7735805,14.0167456 11.3479323,13.9459643 C11.3586095,13.5056002 11.147341,13.1095444 10.7757307,12.955625 C10.4041203,12.8017055 9.97468514,12.9323511 9.67086097,13.2513071 C9.3198212,13.0003332 9.00682344,12.6907347 8.74842333,12.3293898 C9.06755948,12.0255498 9.19832512,11.5959829 9.04435757,11.2242407 C8.89039003,10.8525386 8.49417813,10.6412742 8.05366587,10.6520713 C7.980857,10.2138267 7.98326037,9.7735826 8.05402178,9.34789466 C8.49439007,9.35861184 8.89043402,9.14733946 9.04435757,8.77572928 C9.19828513,8.4041191 9.06763146,7.97468415 8.74867926,7.67086013 C8.99964932,7.31982054 9.30924798,7.00682293 9.67061703,6.74842296 C9.9744532,7.06755894 10.4040203,7.19832452 10.7757307,7.04435705 C11.147441,6.89038958 11.3587295,6.49417388 11.3478923,6.05366584 C11.7861372,5.98085701 12.2263815,5.98326038 12.6520697,6.05402175 Z M12.000002,8.8 C11.3372431,8.8 10.8,9.33724621 10.8,10.000004 C10.8,10.6627218 11.3372431,11.2 12.000002,11.2 C12.6627209,11.2 13.2,10.6627218 13.2,10.000004 C13.2,9.33724621 12.6627209,8.8 12.000002,8.8 Z M7,6 L7,8 L0,8 L0,6 L7,6 Z M15,0 L15,2 L0,2 L0,0 L15,0 Z" id="形状结合"></path>
                            </g>
                        </g>
                    </g>
                </g>
            </g>
        </g>
    </g>
</svg>