<?xml version="1.0" encoding="UTF-8"?>
<svg width="24px" height="24px" viewBox="0 0 24 24" version="1.1" xmlns="http://www.w3.org/2000/svg" xmlns:xlink="http://www.w3.org/1999/xlink">
    <title>图标/单色图标/24/硬件/键盘/输入法备份</title>
    <g id="图标/单色图标/24/硬件/键盘/输入法备份" stroke="none" stroke-width="1" fill="none" fill-rule="evenodd" fill-opacity="0.7">
        <path d="M19,4 C20.1045695,4 21,4.8954305 21,6 L21,18 C21,19.1045695 20.1045695,20 19,20 L5,20 C3.8954305,20 3,19.1045695 3,18 L3,6 C3,4.8954305 3.8954305,4 5,4 L19,4 Z M19,5 L5,5 C4.44771525,5 4,5.44771525 4,6 L4,18 C4,18.5522847 4.44771525,19 5,19 L19,19 C19.5522847,19 20,18.5522847 20,18 L20,6 C20,5.44771525 19.5522847,5 19,5 Z M15.2952506,9.86564117 C15.910485,9.86564117 16.4069043,10.0218912 16.7845084,10.3343912 C17.1621126,10.6468912 17.3509147,11.0961099 17.3509147,11.6820474 L17.3509147,14.0306802 C17.3509147,14.2487792 17.3655631,14.4579263 17.39486,14.6581216 C17.4241569,14.8583169 17.4713574,15.0544433 17.5364616,15.2465005 L16.3352897,15.2465005 C16.292972,15.113037 16.2579785,14.9828287 16.2303092,14.8558755 C16.20264,14.7289224 16.1839225,14.6019693 16.1741569,14.4750162 C16.0146517,14.722412 15.8014355,14.9299315 15.5345084,15.0975748 C15.2675814,15.265218 14.9697298,15.3490396 14.6409538,15.3490396 C14.0908235,15.3490396 13.6684603,15.207438 13.3738639,14.9242349 C13.0792676,14.6410318 12.9319694,14.2520344 12.9319694,13.7572427 C12.9319694,13.246175 13.1337923,12.8482258 13.5374381,12.5633951 C13.941084,12.2785643 14.5091178,12.136149 15.2415397,12.136149 L16.1643913,12.136149 L16.1643913,11.6722818 C16.1643913,11.3955891 16.0838249,11.1791177 15.922692,11.0228677 C15.7615592,10.8666177 15.527998,10.7884927 15.2220084,10.7884927 C14.9518262,10.7884927 14.7369824,10.8527831 14.5774772,10.9813638 C14.417972,11.1099446 14.3382194,11.276774 14.3382194,11.4818521 L13.1956413,11.4867349 L13.1907584,11.457438 C13.167972,11.0407714 13.3543327,10.6713052 13.7498405,10.3490396 C14.1453483,10.026774 14.660485,9.86564117 15.2952506,9.86564117 Z M9.94368813,8.13712554 L12.39486,15.2465005 L11.1692741,15.2465005 L10.6272819,13.5863443 L8.10775063,13.5863443 L7.56087563,15.2465005 L6.33528969,15.2465005 L8.81575844,8.13712554 L9.94368813,8.13712554 Z M16.1643913,12.8783365 L15.2220084,12.8783365 C14.8769564,12.8783365 14.6067741,12.9637857 14.4114616,13.1346841 C14.2161491,13.3055826 14.1184928,13.5065917 14.1184928,13.7377115 C14.1184928,13.9395344 14.1844108,14.0998534 14.3162467,14.2186685 C14.4480827,14.3374836 14.6376985,14.3968912 14.8850944,14.3968912 C15.1813183,14.3968912 15.4490592,14.3220214 15.688317,14.1722818 C15.9275749,14.0225422 16.0862663,13.8516438 16.1643913,13.6595865 L16.1643913,12.8783365 Z M9.39193032,9.79239898 L9.36263344,9.79239898 L8.43489907,12.5951334 L10.3050163,12.5951334 L9.39193032,9.79239898 Z" id="形状结合" fill="#000000" fill-rule="nonzero"></path>
    </g>
</svg>