<?xml version="1.0" encoding="UTF-8"?>
<svg width="24px" height="24px" viewBox="0 0 24 24" version="1.1" xmlns="http://www.w3.org/2000/svg" xmlns:xlink="http://www.w3.org/1999/xlink">
    <title>ICON/display/PC-24</title>
    <g id="ICON/display/PC-24" stroke="none" stroke-width="1" fill="none" fill-rule="evenodd">
        <g id="ICON-/-Device-/-Bluetooth_generic" transform="translate(1, 3)" fill="#000000" fill-rule="nonzero">
            <path d="M20.5,0 C21.3284271,-1.52179594e-16 22,0.671572875 22,1.5 L22,13.5 C22,14.3284271 21.3284271,15 20.5,15 L12,15 L12,17 L18,17 C18.2761424,17 18.5,17.2238576 18.5,17.5 C18.5,17.7761424 18.2761424,18 18,18 L4,18 C3.72385763,18 3.5,17.7761424 3.5,17.5 C3.5,17.2238576 3.72385763,17 4,17 L10,17 L10,15 L1.5,15 C0.671572875,15 1.01453063e-16,14.3284271 0,13.5 L0,1.5 C-1.01453063e-16,0.671572875 0.671572875,1.52179594e-16 1.5,0 L20.5,0 Z M21,1 L1,1 L1,13 L21,13 L21,1 Z" id="形状结合"></path>
        </g>
    </g>
</svg>