<?xml version="1.0" encoding="UTF-8"?>
<svg width="24px" height="24px" viewBox="0 0 24 24" version="1.1" xmlns="http://www.w3.org/2000/svg" xmlns:xlink="http://www.w3.org/1999/xlink">
    <title>ICON/display/laptop-24</title>
    <g id="ICON/display/laptop-24" stroke="none" stroke-width="1" fill="none" fill-rule="evenodd">
        <g id="ICON-/-Device-/-Bluetooth_generic" transform="translate(0, 3)" fill="#000000" fill-rule="nonzero">
            <path d="M21.5,0 C22.3284271,-1.52179594e-16 23,0.671572875 23,1.5 L23,16 L23.5,16 C23.7761424,16 24,16.2238576 24,16.5 C24,16.7761424 23.7761424,17 23.5,17 L0.5,17 C0.223857625,17 3.38176876e-17,16.7761424 0,16.5 C-3.38176876e-17,16.2238576 0.223857625,16 0.5,16 L1,16 L1,1.5 C1,0.671572875 1.67157288,1.52179594e-16 2.5,0 L21.5,0 Z M21.5,1 L2.5,1 C2.22385763,1 2,1.22385763 2,1.5 L2,13.5 C2,13.7761424 2.22385763,14 2.5,14 L21.5,14 C21.7761424,14 22,13.7761424 22,13.5 L22,1.5 C22,1.22385763 21.7761424,1 21.5,1 Z" id="形状结合"></path>
        </g>
    </g>
</svg>