<?xml version="1.0" encoding="UTF-8"?>
<svg width="24px" height="24px" viewBox="0 0 24 24" version="1.1" xmlns="http://www.w3.org/2000/svg" xmlns:xlink="http://www.w3.org/1999/xlink">
    <title>适应窗口</title>
    <g id="适应窗口" stroke="none" stroke-width="1" fill="none" fill-rule="evenodd" opacity="0.697846912">
        <g id="适应窗口icon" stroke="#000000">
            <g id="适应窗口" transform="translate(1.000000, 1.000000)" stroke-width="2">
                <rect id="矩形" x="1" y="1" width="20" height="20" rx="4"></rect>
            </g>
            <g id="编组" transform="translate(6.000000, 6.000000)" stroke-width="1.2">
                <polyline id="矩形" transform="translate(2.142857, 2.142857) rotate(-90.000000) translate(-2.142857, -2.142857) " points="-8.8817842e-16 -3.05613961e-14 4.28571429 -3.05613961e-14 4.28571429 4.28571429"></polyline>
                <polyline id="矩形备份-2" transform="translate(2.142857, 9.857143) scale(1, -1) rotate(-90.000000) translate(-2.142857, -9.857143) " points="-1.33226763e-15 7.71428571 4.28571429 7.71428571 4.28571429 12"></polyline>
                <polyline id="矩形备份" transform="translate(9.857143, 2.142857) scale(-1, 1) rotate(-90.000000) translate(-9.857143, -2.142857) " points="7.71428571 -3.00711836e-14 12 -3.00711836e-14 12 4.28571429"></polyline>
                <polyline id="矩形备份-3" transform="translate(9.857143, 9.857143) scale(-1, -1) rotate(-90.000000) translate(-9.857143, -9.857143) " points="7.71428571 7.71428571 12 7.71428571 12 12"></polyline>
            </g>
        </g>
    </g>
</svg>