<?xml version="1.0" encoding="UTF-8"?>
<svg width="24px" height="24px" viewBox="0 0 24 24" version="1.1" xmlns="http://www.w3.org/2000/svg" xmlns:xlink="http://www.w3.org/1999/xlink">
    <title>删除</title>
    <g id="删除" stroke="none" stroke-width="1" fill="none" fill-rule="evenodd" opacity="0.698776972">
        <g id="编组" transform="translate(1.000000, 2.000000)">
            <path d="M6,3 L6,1 C6,0.44771525 6.44771525,3.87621135e-15 7,3.77475828e-15 L15,3.77475828e-15 C15.5522847,3.67330522e-15 16,0.44771525 16,1 L16,3 L16,3" id="矩形" stroke="#000000" stroke-width="2"></path>
            <path d="M4,20 L4,6 C4,4.34314575 5.34314575,3 7,3 L15,3 C16.6568542,3 18,4.34314575 18,6 L18,20 L18,20" id="矩形备份" stroke="#000000" stroke-width="2" transform="translate(11.000000, 11.500000) scale(1, -1) translate(-11.000000, -11.500000) "></path>
            <rect id="矩形" fill="#000000" opacity="0.849999964" x="8" y="8" width="1.5" height="8" rx="0.75"></rect>
            <rect id="矩形备份-2" fill="#000000" opacity="0.849999964" x="12.5" y="8" width="1.5" height="8" rx="0.75"></rect>
            <rect id="矩形" fill="#000000" x="0" y="3" width="22" height="2" rx="1"></rect>
        </g>
    </g>
</svg>