<?xml version="1.0" encoding="UTF-8"?>
<svg width="24px" height="24px" viewBox="0 0 24 24" version="1.1" xmlns="http://www.w3.org/2000/svg" xmlns:xlink="http://www.w3.org/1999/xlink">
    <title>滤镜</title>
    <g id="滤镜" stroke="none" stroke-width="1" fill="none" fill-rule="evenodd" opacity="0.698776972">
        <g id="编组" transform="translate(0.000000, 0.000000)" fill="#000000" fill-rule="nonzero">
            <g id="滤镜icon">
                <path d="M13.4778223,2.32903187 C15.0419986,2.85977397 16.2618461,3.9594872 16.9784128,5.32547616 C17.6748277,6.65304966 17.8958429,8.23211715 17.4956472,9.78440455 C17.6895606,9.83997038 17.8807261,9.90480768 18.0684045,9.97866943 C19.6022752,10.5802118 20.8329628,11.7727053 21.4861389,13.2904297 C22.0799867,14.6637054 22.1452376,16.1519817 21.7535964,17.5071026 C21.361914,18.862366 20.5132583,20.0844223 19.279447,20.9251543 C18.0454085,21.7660412 16.6007556,22.1064628 15.2017042,21.9712379 C13.8458269,21.8401859 12.5327504,21.2623852 11.495606,20.2603998 C10.6316808,21.093175 9.56710894,21.6388633 8.43868894,21.8695503 C7.266997,22.1090836 6.02645359,22.0089988 4.870158,21.5379846 C3.71400319,21.0670277 2.75468262,20.2710925 2.08035079,19.2796687 C1.40612769,18.2884047 1.01680954,17.1017159 1.00053136,15.8491127 C0.984253255,14.5965152 1.3425979,13.4000331 1.99082912,12.3914425 C2.63916257,11.382693 3.57746567,10.561896 4.72123901,10.0606922 C4.97203712,9.95140464 5.22962839,9.85869887 5.49236143,9.78293589 C5.16239219,8.51006563 5.243929,7.16340207 5.72718117,5.938433 C6.33410001,4.39655337 7.48955582,3.22888713 8.88425409,2.57932239 C10.2791783,1.92965242 11.9134444,1.79822138 13.4778223,2.32903187 Z M8.78079058,11.726202 C7.86836375,11.363664 6.8917472,11.3316823 5.99717663,11.5882207 C5.10247695,11.8447962 4.28986555,12.389963 3.70570656,13.1816557 C3.12139624,13.9735535 2.83860478,14.9132078 2.85465158,15.8476755 C2.87069823,16.7821346 3.1855784,17.7114315 3.79672506,18.4826209 C4.40771042,19.2536068 5.23854568,19.7703059 6.1415101,19.995748 C7.04435894,20.2211613 8.01929845,20.1553813 8.9185789,19.761536 C9.97380655,19.3042519 10.8026423,18.4425246 11.2210627,17.3682069 C11.6592251,16.2521528 11.6043792,15.0615814 11.162398,14.0399822 C10.7204818,13.0185331 9.89148533,12.1659155 8.78079058,11.726202 Z M16.1580474,11.4369131 C14.8406485,11.3250191 13.5407993,11.8361467 12.6403771,12.7942012 C12.7276828,12.9563083 12.8081036,13.1220026 12.8812852,13.2909698 C13.5409985,14.8044354 13.5703606,16.5203721 12.9626924,18.0560044 C12.8694752,18.2934567 12.7618694,18.5252419 12.640575,18.7498436 C13.0764264,19.2199853 13.6122165,19.5861331 14.2085732,19.8207933 C15.3197661,20.2604097 16.5053991,20.2049064 17.5227439,19.7605664 C18.5402712,19.3161468 19.3894847,18.4827584 19.8274327,17.3664599 C20.2487806,16.2930028 20.2278991,15.095396 19.7693911,14.0374322 C19.3109865,12.9797068 18.4527133,12.1482982 17.3835265,11.7264657 C17.0022018,11.5754234 16.6018039,11.4790757 16.1580474,11.4369131 Z M13.0821131,4.17311422 C11.9718374,3.73546762 10.7868012,3.7917422 9.77010921,4.23610412 C8.75355372,4.68040635 7.9052537,5.51269625 7.46796534,6.627336 C7.0956674,7.56050861 7.06206128,8.59285388 7.37011984,9.54575664 C8.91240406,9.59381191 10.3820767,10.2136656 11.4956614,11.2849176 C12.607993,10.2149125 14.0759172,9.59552879 15.6164406,9.54727238 C15.960395,8.47414099 15.8663271,7.35739829 15.4275128,6.39999389 C14.9764093,5.41577699 14.1609495,4.59992499 13.0821131,4.17311422 Z" id="形状"></path>
            </g>
        </g>
    </g>
</svg>