<?xml version="1.0" encoding="UTF-8"?>
<svg width="24px" height="24px" viewBox="0 0 24 24" version="1.1" xmlns="http://www.w3.org/2000/svg" xmlns:xlink="http://www.w3.org/1999/xlink">
    <title>镜像上下</title>
    <g id="镜像上下" stroke="none" stroke-width="1" fill="none" fill-rule="evenodd" opacity="0.700172061">
        <g id="编组" fill-rule="nonzero">
            <g id="镜像" transform="translate(12.500000, 12.000000) rotate(90.000000) translate(-12.500000, -12.000000) translate(3.500000, 3.500000)">
                <path d="M0.870524871,0.859223293 L6.85419413,2.70397765 C6.95800239,2.75469723 7.04409335,2.81819716 7.1053047,2.89782707 C7.15425226,2.961503 7.18448911,3.03497838 7.19697852,3.11410857 L7.19697852,3.11410857 L7.20372265,13.8264474 C7.20372265,13.926127 7.17767716,14.0199042 7.1310156,14.0996445 C7.09582524,14.1597815 7.04904493,14.2121593 6.99306343,14.2516331 L6.99306343,14.2516331 L1.08417299,16.1773928 C0.994269711,16.1708714 0.915791425,16.1493094 0.858554018,16.1007314 C0.815873838,16.0645083 0.8,16.0102255 0.8,15.9546774 L0.8,15.9546774 L0.8,1.04297361 C0.8,0.971932778 0.825427167,0.906276838 0.870524871,0.859223293 L0.870524871,0.859223293 Z" id="路径" stroke="#000000" stroke-width="1.6"></path>
                <path d="M17.0025635,-1.70530257e-13 C16.9305188,-1.70530257e-13 16.8629768,0.00939615863 16.7954349,0.0211413569 L10.8967701,1.94735388 C10.9057757,1.94500484 10.9125299,1.94500484 10.9170327,1.9426558 C10.3879539,2.09534337 9.99846196,2.6003869 9.99846196,3.19939201 L9.99846196,13.8240984 C9.99846196,14.3291419 10.2731326,14.7660633 10.676133,14.984524 L16.7909321,16.9788586 C16.8562226,16.9929529 16.9282674,17 17.0003122,17 C17.5519049,17 17.9999669,16.5325411 17.9999669,15.9546774 L17.9999669,1.04297361 C18.004436,0.467458892 17.5564076,-1.70530257e-13 17.0025635,-1.70530257e-13 Z" id="路径" fill="#000000" opacity="0.900000036"></path>
            </g>
        </g>
    </g>
</svg>