<?xml version="1.0" encoding="UTF-8"?>
<svg width="24px" height="24px" viewBox="0 0 24 24" version="1.1" xmlns="http://www.w3.org/2000/svg" xmlns:xlink="http://www.w3.org/1999/xlink">
    <title>信息</title>
    <g id="信息" stroke="none" stroke-width="1" fill="none" fill-rule="evenodd" opacity="0.698195685">
        <g id="编组" fill-rule="nonzero">
            <g id="信息" transform="translate(1.000000, 0.999997)">
                <path d="M11.007032,22 C6.55676196,22.0027822 2.54327787,19.3237757 0.83894937,15.2127934 C-0.865379135,11.1018111 0.075283932,6.36891739 3.22210066,3.22210066 C6.36891739,0.075283932 11.1018111,-0.865379135 15.2127934,0.83894937 C19.3237757,2.54327787 22.0027822,6.55676196 22,11.007032 C21.9924324,17.0751437 17.0751437,21.9924324 11.007032,22 L11.007032,22 Z" id="路径" stroke="#000000" stroke-width="2"></path>
                <g id="编组-3" opacity="0.949999988" transform="translate(8.000000, 4.000003)" fill="#000000">
                    <path d="M1.87047168,12.5906542 L0.77623403,12.5906542 C0.379123006,12.5906542 0.0572009156,12.9125763 0.0572009156,13.3096873 C0.0572009156,13.7067983 0.379123006,14.0287204 0.77623403,14.0287204 L5.09043266,14.0287204 C5.48754368,14.0287204 5.80946577,13.7067983 5.80946577,13.3096873 C5.80946577,12.9125763 5.48754368,12.5906542 5.09043266,12.5906542 L4.027571,12.5906542 L4.027571,4.87995781 C4.02779657,4.41254085 3.72692003,3.99817578 3.28239123,3.85370148 C3.19763422,3.81944465 3.10711304,3.8016954 3.01569532,3.80140816 L3.00523666,3.80140816 C2.96821935,3.79953061 2.93113067,3.79953061 2.89411336,3.80140816 L1.3475385,3.80140816 C0.950485454,3.80149012 0.628653821,4.1233882 0.628653821,4.52044126 C0.628653821,4.91749432 0.950485454,5.23939239 1.3475385,5.23947436 L2.01820029,5.23947436 L2.01820029,12.5906542 L1.87047168,12.5906542 Z" id="路径"></path>
                    <path d="M2.86666667,7.32747196e-15 C2.09346802,7.32747196e-15 1.46666667,0.62680135 1.46666667,1.4 C1.46666667,2.17319865 2.09346802,2.8 2.86666667,2.8 C3.63986532,2.8 4.26666667,2.17319865 4.26666667,1.4 C4.26666667,0.62680135 3.63986532,7.32747196e-15 2.86666667,7.32747196e-15 L2.86666667,7.32747196e-15 Z" id="路径"></path>
                </g>
            </g>
        </g>
    </g>
</svg>