<?xml version="1.0" encoding="UTF-8"?>
<svg width="24px" height="24px" viewBox="0 0 24 24" version="1.1" xmlns="http://www.w3.org/2000/svg" xmlns:xlink="http://www.w3.org/1999/xlink">
    <title>标注</title>
    <g id="标注" stroke="none" stroke-width="1" fill="none" fill-rule="evenodd" opacity="0.702148438">
        <g id="标注" transform="translate(2.000000, 3.000000)">
            <path d="M5.61097947,1 L15.5,1 C16.8807119,1 18,2.11928813 18,3.5 L18,15.5 C18,16.8807119 16.8807119,18 15.5,18 L3.5,18 C2.11928813,18 1,16.8807119 1,15.5 L1,10.0399084 L1,10.0399084" id="矩形" stroke="#000000" stroke-width="1.6" opacity="0.981179836" stroke-linecap="round" transform="translate(9.500000, 9.500000) scale(-1, 1) translate(-9.500000, -9.500000) "></path>
            <path d="M20.6233505,1.25944115 C20.8960257,1.53369754 21.0335557,1.92560598 20.9930122,2.33261838 C20.9550677,2.70839552 20.7868957,3.05907092 20.5176193,3.32391616 L12.471714,11.3703605 L8,13 L9.63207624,8.52922318 L17.6771865,0.481983861 C18.2758,-0.116610543 19.2011467,-0.164307317 19.7409322,0.376256034 L20.6233505,1.2586462 L20.6233505,1.25944115 Z" id="路径" fill="#000000" fill-rule="nonzero"></path>
        </g>
    </g>
</svg>