<?xml version="1.0" encoding="UTF-8"?>
<svg width="24px" height="24px" viewBox="0 0 24 24" version="1.1" xmlns="http://www.w3.org/2000/svg" xmlns:xlink="http://www.w3.org/1999/xlink">
    <title>orc</title>
    <g id="orc" stroke="none" stroke-width="1" fill="none" fill-rule="evenodd" opacity="0.695731027">
        <g id="编组-4" transform="translate(2.000000, 2.000000)">
            <g id="编组-2" stroke="#000000" stroke-width="2">
                <path d="M12,12 L17,12 C18.6568542,12 20,13.3431458 20,15 L20,20 L20,20" id="矩形备份" transform="translate(16.000000, 16.000000) scale(1, -1) translate(-16.000000, -16.000000) "></path>
                <path d="M0,12 L5,12 C6.65685425,12 8,13.3431458 8,15 L8,20 L8,20" id="矩形备份-2" transform="translate(4.000000, 16.000000) scale(-1, -1) translate(-4.000000, -16.000000) "></path>
                <path d="M12,0 L17,0 C18.6568542,-3.04359188e-16 20,1.34314575 20,3 L20,8 L20,8" id="矩形"></path>
                <path d="M0,0 L5,0 C6.65685425,-3.04359188e-16 8,1.34314575 8,3 L8,8 L8,8" id="矩形备份-11" transform="translate(4.000000, 4.000000) scale(-1, 1) translate(-4.000000, -4.000000) "></path>
            </g>
            <g id="编组-3" transform="translate(5.000000, 6.000000)" fill="#000000">
                <rect id="矩形" x="0" y="0" width="10" height="2"></rect>
                <rect id="矩形备份-3" transform="translate(5.000000, 4.500000) rotate(90.000000) translate(-5.000000, -4.500000) " x="0.5" y="3.5" width="9" height="2"></rect>
            </g>
        </g>
    </g>
</svg>