<?xml version="1.0" encoding="UTF-8"?>
<svg width="24px" height="24px" viewBox="0 0 24 24" version="1.1" xmlns="http://www.w3.org/2000/svg" xmlns:xlink="http://www.w3.org/1999/xlink">
    <title>原始大小</title>
    <g id="原始大小" stroke="none" stroke-width="1" fill="none" fill-rule="evenodd" opacity="0.703404018">
        <g id="编组" transform="translate(1.000000, 1.000000)">
            <rect id="矩形" stroke="#000000" stroke-width="2" x="1" y="1" width="20" height="20" rx="4"></rect>
            <path d="M16.391375,17.01425 C15.917,17.01425 15.692875,16.8025 15.692875,16.391375 L15.692875,6.6935 L14.172125,6.6935 C13.798125,6.6935 13.59875,6.48175 13.59875,6.05825 C13.59875,5.721375 13.78575,5.534375 14.172125,5.484875 L16.702125,5.484875 C17.001875,5.484875 17.15175,5.608625 17.15175,5.858875 L17.15175,16.379 C17.11325,16.8025 16.852,17.01425 16.391375,17.01425 Z M11.0055,14.77025 C10.45825,14.77025 10.18325,14.521375 10.18325,14.009875 C10.220375,13.54925 10.495375,13.27425 11.0055,13.187625 C11.4675,13.27425 11.741125,13.54925 11.829125,14.009875 C11.790625,14.521375 11.517,14.77025 11.0055,14.77025 Z M11.0055,9.447625 C10.495375,9.4105 10.220375,9.112125 10.18325,8.5635 C10.220375,8.1015 10.495375,7.827875 11.0055,7.739875 C11.4675,7.827875 11.741125,8.1015 11.829125,8.5635 C11.741125,9.112125 11.4675,9.4105 11.0055,9.447625 Z M6.63025,17.01425 C6.169625,17.01425 5.933125,16.8025 5.933125,16.391375 L5.933125,6.6935 L4.412375,6.6935 C4.038375,6.6935 3.839,6.48175 3.839,6.05825 C3.839,5.721375 4.026,5.534375 4.412375,5.484875 L6.942375,5.484875 C7.242125,5.484875 7.392,5.608625 7.392,5.858875 L7.392,16.379 C7.3535,16.8025 7.09225,17.01425 6.63025,17.01425 L6.63025,17.01425 Z" id="形状" fill="#000000" fill-rule="nonzero"></path>
        </g>
    </g>
</svg>