<?xml version="1.0" encoding="UTF-8"?>
<svg width="24px" height="24px" viewBox="0 0 24 24" version="1.1" xmlns="http://www.w3.org/2000/svg" xmlns:xlink="http://www.w3.org/1999/xlink">
    <title>向右旋转</title>
    <g id="向右旋转" stroke="none" stroke-width="1" fill="none" fill-rule="evenodd" opacity="0.7">
        <g id="向右旋转" stroke="#000000" transform="translate(1.000000, -0.000000)">
            <rect id="矩形" stroke-width="2" x="7" y="9" width="14" height="12" rx="3"></rect>
            <path d="M8.39718382,3.17653251 C6.60203996,2.48180225 4.68469312,2.15818615 2.76097377,2.22523446 L3.63915425,1.30010482 C3.82861033,1.10074972 3.89732029,0.815464408 3.81940176,0.551713085 C3.74148323,0.287961762 3.52877388,0.0858145308 3.26139926,0.0214182982 C2.99402465,-0.0429779344 2.71260534,0.0401601508 2.52314926,0.239515242 L0.211864425,2.67240611 C0.0710495961,2.82051609 -0.00507871647,3.01854897 0.000263302018,3.22284495 C0.00560532051,3.42714092 0.0919790207,3.62092463 0.240341813,3.76147307 L2.55085697,5.94961252 C2.69894207,6.09037713 2.89700643,6.16634413 3.10124194,6.16071104 C3.30547745,6.15507795 3.49905333,6.06830899 3.63915425,5.91959582 C3.77987067,5.77138544 3.85586295,5.57329438 3.85037653,5.36899723 C3.84489011,5.16470009 3.7583755,4.97097316 3.60990723,4.83052888 L2.48543598,3.76455169 C4.31144299,3.6587759 6.13879826,3.94780307 7.84302962,4.61194583 C11.7251877,6.10893183 13.936842,8.9839566 14.3888625,13.1420723 C14.4863569,13.5482189 14.8894693,13.8029316 15.2981367,13.7166111 C15.7068041,13.6302905 15.9724751,13.2343144 15.8973934,12.8234336 C15.7068041,8.62639863 12.7596089,4.85900624 8.39718382,3.17653251 Z" id="路径" stroke-width="0.2" fill="#000000" fill-rule="nonzero" transform="translate(7.955040, 6.866702) scale(-1, 1) translate(-7.955040, -6.866702) "></path>
        </g>
    </g>
</svg>