<svg xmlns="http://www.w3.org/2000/svg" width="16" height="16" viewBox="0 0 16 16">
 <defs>
  <style id="current-color-scheme" type="text/css">
   .ColorScheme-Text { color:#536076; } .ColorScheme-Highlight { color:#ffffff; }
  </style>
 </defs>
 <path style="fill:currentColor" class="ColorScheme-Text" d="M8,1 C11.8659932,1 15,4.13400675 15,8 C15,11.8659932 11.8659932,15 8,15 C4.13400675,15 1,11.8659932 1,8 C1,4.13400675 4.13400675,1 8,1 Z M7.5,3 C7.22385763,3 7,3.22385763 7,3.5 L7,3.5 L7,8.5 C7,8.77614237 7.22385763,9 7.5,9 L7.5,9 L11.5,9 C11.7761424,9 12,8.77614237 12,8.5 C12,8.22385763 11.7761424,8 11.5,8 L11.5,8 L8,8 L8,3.5 C8,3.22385763 7.77614237,3 7.5,3 Z"/>
</svg>
