<svg xmlns="http://www.w3.org/2000/svg" width="16" height="16" viewBox="0 0 16 16">
 <defs>
  <style id="current-color-scheme" type="text/css">
   .ColorScheme-Text { color:#536076; } .ColorScheme-Highlight { color:#ffffff; }
  </style>
 </defs>
 <path style="fill:currentColor" class="ColorScheme-Text" d="M10,1 L14,5 L12,5 C10.8954305,5 10,4.1045695 10,3 L10,1 L10,1 Z M11.4995642,11.0010024 L4.50043583,11.0010024 C4.23079681,11.0010024 4,11.22486 4,11.5010024 C4,11.7392836 4.17702934,11.9490155 4.41048186,11.9926808 L4.50043583,12.0010024 L11.4995642,12.0010024 C11.7692032,12.0010024 12,11.7771448 12,11.5010024 C12,11.232936 11.7759472,11.0010024 11.4995642,11.0010024 Z M11.4995642,9.0010024 L4.50043583,9.0010024 C4.23079681,9.0010024 4,9.22486 4,9.5010024 C4,9.7392836 4.17702934,9.9490155 4.41048186,9.9926808 L4.50043583,10.0010024 L11.4995642,10.0010024 C11.7692032,10.0010024 12,9.7771448 12,9.5010024 C12,9.232936 11.7759472,9.0010024 11.4995642,9.0010024 Z M11.4995642,7.00100238 L4.50043583,7.00100238 C4.23079681,7.00100238 4,7.22486 4,7.50100238 C4,7.73928363 4.17702934,7.94901549 4.41048186,7.99268083 L4.50043583,8.00100238 L11.4995642,8.00100238 C11.7692032,8.00100238 12,7.77714475 12,7.50100238 C12,7.23293597 11.7759472,7.00100238 11.4995642,7.00100238 Z M9,1 L9,3 C9,4.65685425 10.3431458,6 12,6 L14,6 L14,6 L14,12 C14,13.6568542 12.6568542,15 11,15 L5,15 C3.34314575,15 2,13.6568542 2,12 L2,4 C2,2.34314575 3.34314575,1 5,1 L9,1 L9,1 Z"/>
</svg>
