<svg xmlns="http://www.w3.org/2000/svg" width="18" height="18" viewBox="0 0 18 18">
  <g fill="none" fill-rule="evenodd">
    <rect width="18" height="18" fill="#FF6969" opacity="0"/>
    <path fill="#536076" d="M11.5980301,1.41963445 L11.6148385,1.42575405 L11.6148385,1.42575405 L11.6153712,1.4233052 C14.7493166,2.50692149 17,5.48363463 17,8.98602305 C17,11.727134 15.6213976,14.1462552 13.5197179,15.5878613 L13.7586408,17.540315 L9.29849431,16.0050321 L13.1842241,12.8584302 L13.3797703,14.4468952 C14.9773454,13.1639477 16,11.1944123 16,8.98602305 C16,5.92043145 14.0293643,3.31510647 11.2857605,2.36771567 L11.2724619,2.36515303 C11.0113642,2.27524986 10.8725836,1.99070741 10.9624867,1.72960966 C11.0523899,1.46851192 11.3369324,1.32973129 11.5980301,1.41963445 Z M4.98888223,-7.76045894e-14 L9.44874013,1.53612094 L6.11363751,4.87185032 L5.64395229,2.84148128 C3.47251822,4.03000191 2,6.33604995 2,8.98602305 C2,12.4306681 4.48809345,15.2941877 7.76514957,15.8774512 L7.765,15.8842576 L7.84375781,15.8898887 C8.08619568,15.928287 8.26016138,16.1349204 8.2654879,16.3719208 L8.25938474,16.4619501 C8.22098636,16.7043879 8.01435296,16.8783536 7.77735264,16.8836802 L7.765,16.882 L7.76515733,16.8913029 C3.93319488,16.2975789 1,12.9843432 1,8.98602305 C1,5.85765435 2.79564989,3.14868214 5.4124913,1.83356483 L4.98888223,-7.76045894e-14 Z"/>
  </g>
</svg>
