<?xml version="1.0" encoding="UTF-8"?>
<svg width="16px" height="16px" viewBox="0 0 16 16" version="1.1" xmlns="http://www.w3.org/2000/svg" xmlns:xlink="http://www.w3.org/1999/xlink">
    <title>主页</title>
    <g id="主页" stroke="none" stroke-width="1" fill="none" fill-rule="evenodd" fill-opacity="0.7">
        <path d="M10.1949179,1.82909828 L13.6234894,4.68624114 C14.4051783,5.33764854 14.8571429,6.30261178 14.8571429,7.32014267 L14.8571429,11.4285714 C14.8571429,13.3221191 13.3221191,14.8571429 11.4285714,14.8571429 L4.57142857,14.8571429 C2.67788086,14.8571429 1.14285714,13.3221191 1.14285714,11.4285714 L1.14285714,7.32014267 C1.14285714,6.30261178 1.59482175,5.33764854 2.37651063,4.68624114 L5.80508206,1.82909828 C7.0765539,0.76953842 8.9234461,0.76953842 10.1949179,1.82909828 Z M6.69013228,2.58974395 L6.53672137,2.70706546 L3.10814994,5.56420832 C2.63913661,5.95505276 2.34817439,6.51521735 2.29467208,7.11786184 L2.28571429,7.32014267 L2.28571429,11.4285714 C2.28571429,12.6335563 3.21814605,13.6207601 4.40084303,13.7080163 L4.57142857,13.7142857 L11.4285714,13.7142857 C12.6335563,13.7142857 13.6207601,12.781854 13.7080163,11.599157 L13.7142857,11.4285714 L13.7142857,7.32014267 C13.7142857,6.70962414 13.4702248,6.12749214 13.0415119,5.70058692 L12.8918501,5.56420832 L9.46327863,2.70706546 C8.66549238,2.04224359 7.52789617,2.00313642 6.69013228,2.58974395 Z M9.71428571,10.2857143 C10.029877,10.2857143 10.2857143,10.5415516 10.2857143,10.8571429 C10.2857143,11.1727341 10.029877,11.4285714 9.71428571,11.4285714 L6.28571429,11.4285714 C5.970123,11.4285714 5.71428571,11.1727341 5.71428571,10.8571429 C5.71428571,10.5415516 5.970123,10.2857143 6.28571429,10.2857143 L9.71428571,10.2857143 Z" id="形状" fill="#000000" fill-rule="nonzero"></path>
    </g>
</svg>