<?xml version="1.0" encoding="UTF-8"?>
<svg width="16px" height="16px" viewBox="0 0 16 16" version="1.1" xmlns="http://www.w3.org/2000/svg" xmlns:xlink="http://www.w3.org/1999/xlink">
    <title>多任务</title>
    <g id="多任务" stroke="none" stroke-width="1" fill="none" fill-rule="evenodd" fill-opacity="0.7">
        <path d="M8.04251349,9.3157041 C7.84777431,9.3157041 7.67772037,9.28340819 7.53783731,9.21948922 L1.55646451,6.49250386 C1.30001221,6.37475837 1.14641511,6.15272403 1.14292085,5.89704814 C1.1402438,5.71067386 1.22115656,5.35609176 1.79166007,5.07350261 L6.94881985,2.52549038 C7.44046771,2.28192544 8.08914118,2.20791399 8.46284842,2.37814033 L14.4435355,5.10714416 C14.6979307,5.22287115 14.8522135,5.44490548 14.8570797,5.70058139 C14.8597562,5.88695567 14.7795292,6.24288343 14.2069686,6.52614543 L9.04980877,9.07483048 C8.73624722,9.22700656 8.3922701,9.3092615 8.04251349,9.3157041 Z M7.96777205,8.30242012 C7.97257196,8.30242012 7.99794291,8.30645711 8.0418278,8.30645711 C8.20776752,8.30645711 8.42170634,8.25397627 8.58696036,8.17189084 L13.4526971,5.76786453 L8.03222797,3.29453659 C8.03565647,3.29588225 8.00685702,3.29117244 7.95817222,3.29117244 C7.79154681,3.29117244 7.57692227,3.34432611 7.41098257,3.42641153 L2.54524584,5.83111066 L7.96777205,8.30242012 C7.96708636,8.30309294 7.96708636,8.30242012 7.96777205,8.30242012 Z M9.04912306,12.0870963 L14.2062828,9.53841126 C14.7788435,9.25514928 14.8590705,8.89989434 14.856394,8.71284722 C14.8515278,8.45717131 14.697245,8.23513698 14.4421641,8.11940999 C14.2707553,8.04278457 14.0704226,8.06382744 13.9194275,8.17431804 C13.7684324,8.28480863 13.6907364,8.46721322 13.7166921,8.65027391 L8.58627466,11.1855023 C8.33119376,11.3119946 8.03565649,11.3362166 7.96982915,11.3180501 L2.45884748,8.80435228 C2.58153155,8.61222303 2.55856353,8.36339404 2.40269572,8.19602025 C2.24682791,8.02864647 1.99633209,7.98382485 1.79028867,8.08644126 C1.22047085,8.36970324 1.1402438,8.72428536 1.14292034,8.91133246 C1.14710082,9.1656627 1.30069792,9.38769704 1.5557788,9.50544253 L7.5371516,12.2344464 C7.68663449,12.3024023 7.86148834,12.3313341 8.0445706,12.3313341 C8.3937278,12.3239604 8.73685076,12.2405366 9.04912306,12.0870963 Z M9.04912306,14.6135779 L14.2062828,12.0655657 C14.7788435,11.7823037 14.8590705,11.4270488 14.856394,11.2400017 C14.8515278,10.9843258 14.697245,10.7622914 14.4421641,10.6458916 C14.2707462,10.5697506 14.0707049,10.5910019 13.9198668,10.7013777 C13.7690287,10.8117534 13.6912123,10.9938244 13.7166921,11.1767555 L8.58696036,13.711984 C8.33050806,13.8384762 8.03565649,13.8620253 7.96982915,13.8445317 L2.45884748,11.3315067 C2.55414221,11.1817369 2.56297811,10.9940556 2.48216131,10.8363029 C2.42104574,10.7164159 2.31365502,10.6254518 2.18386066,10.5836308 C2.05406631,10.5418098 1.91262397,10.5525974 1.79097437,10.6135957 C1.22115655,10.8961849 1.1402438,11.250767 1.14292085,11.4371413 C1.14641511,11.6921443 1.30001221,11.9141787 1.55646451,12.032597 L7.53852301,14.7616008 C7.6873202,14.8288839 7.86217405,14.8571429 8.04388489,14.8571429 C8.39315296,14.8495661 8.73640584,14.7663973 9.04912306,14.6135779 Z" id="形状" fill="#000000" fill-rule="nonzero"></path>
    </g>
</svg>