<?xml version="1.0" encoding="UTF-8"?>
<svg width="16px" height="16px" viewBox="0 0 16 16" version="1.1" xmlns="http://www.w3.org/2000/svg" xmlns:xlink="http://www.w3.org/1999/xlink">
    <title>返回</title>
    <g id="返回" stroke="none" stroke-width="1" fill="none" fill-rule="evenodd" fill-opacity="0.7">
        <path d="M11.7082303,6.70623425 L2.95597755,6.70623425 L7.21206472,3.113819 C7.41807715,2.9399385 7.43664158,2.64041033 7.25351564,2.44478064 C7.07040671,2.24919943 6.7550326,2.23150597 6.54900314,2.40541879 L1.33299366,6.80808061 C1.21725098,6.89486736 1.14285714,7.02920825 1.14285714,7.18012766 C1.14285714,7.18033772 1.14285714,7.18054778 1.14285714,7.18075784 C1.14285714,7.18095175 1.14285714,7.18116181 1.14285714,7.1813557 C1.14285714,7.18883704 1.14311239,7.19630221 1.14348673,7.20375123 C1.14350374,7.20400976 1.14350374,7.2042683 1.14350374,7.20452683 C1.15003788,7.33133792 1.20990008,7.45078077 1.31036242,7.53553155 L6.54898613,11.9572926 C6.6440544,12.0375675 6.76241754,12.076994 6.88032123,12.076994 C7.01791242,12.076994 7.15492506,12.0232512 7.25349861,11.9179146 C7.43660754,11.7223172 7.41806012,11.4227729 7.21204769,11.2489085 L2.95303376,7.65398872 L11.7082133,7.65398872 C13.5243625,7.65398872 15.0018938,9.05705451 15.0018938,10.7816724 C15.0018938,12.5062902 13.5243625,13.909356 11.7082133,13.909356 L5.95402251,13.909356 C5.67841474,13.909356 5.45497794,14.1215319 5.45497794,14.3832494 C5.45497794,14.644967 5.67841474,14.8571429 5.95402251,14.8571429 L11.7082303,14.8571429 C14.0747273,14.8571429 16,13.0288851 16,10.7816724 C16,8.53445972 14.0747103,6.70623425 11.7082303,6.70623425 Z" id="路径" fill="#000000" fill-rule="nonzero"></path>
    </g>
</svg>