<?xml version="1.0" encoding="UTF-8"?>
<svg width="18px" height="18px" viewBox="0 0 18 18" version="1.1" xmlns="http://www.w3.org/2000/svg" xmlns:xlink="http://www.w3.org/1999/xlink">
    <title>icon/功能图标/发送</title>
    <g id="新" stroke="none" stroke-width="1" fill="none" fill-rule="evenodd">
        <g id="跨端协同-切图" transform="translate(-150, -25)" fill="#FFFFFF" fill-rule="nonzero">
            <g id="icon/功能图标/发送" transform="translate(151, 26)">
                <path d="M5.52272728,14.9551629 C5.45454545,14.9551629 5.31818182,14.9551629 5.25,14.8869026 C5.04545454,14.750382 4.84090909,14.5456011 4.84090909,14.2725598 L4.84090909,10.3817222 C4.84090909,10.1769412 4.90909091,10.0404206 5.04545454,9.90389998 L10.0227273,5.05741798 C10.2954546,4.78437673 10.7045455,4.78437673 10.9772727,5.05741798 C11.25,5.33045922 11.25,5.74002108 10.9772727,6.01306231 L6.20454545,10.6547634 L6.20454545,12.8390933 L7.84090909,11.5421474 C8.04545454,11.3373665 8.38636363,11.3373665 8.6590909,11.4738871 L11.3863636,13.1803949 L13.5,1.84918339 L2.11363635,7.44652882 L3.81818182,8.47043347 C4.1590909,8.6752144 4.22727272,9.08477626 4.02272727,9.42607781 C3.81818182,9.76737935 3.40909091,9.83563967 3.06818182,9.63085874 L0.340909086,7.924351 C0.136363631,7.85609068 0,7.58304945 0,7.37826851 C0,7.10522726 0.136363631,6.90044633 0.409090909,6.83218603 L14.0454546,0.0744153372 C14.25,-0.0621052776 14.5227273,0.0061550218 14.7272727,0.142675653 C14.9318182,0.279196267 15,0.552237513 15,0.825278742 L12.4772727,14.4773408 C12.4090909,14.6821217 12.2727273,14.8869026 12.0681818,14.9551629 C11.8636364,15.0234232 11.5909091,15.0234232 11.4545455,14.8869026 L8.25,12.9073536 L5.93181819,14.8186423 C5.79545455,14.8869026 5.65909091,14.9551629 5.52272728,14.9551629 Z" id="路径"></path>
            </g>
        </g>
    </g>
</svg>