<svg id="安装程序" xmlns="http://www.w3.org/2000/svg" xmlns:xlink="http://www.w3.org/1999/xlink" viewBox="0 0 64 64"><defs><style>.cls-1{fill:url(#未命名的渐变_26);}.cls-2,.cls-3{fill:#f9f9f9;}.cls-2{fill-rule:evenodd;}</style><linearGradient id="未命名的渐变_26" x1="46.5" y1="57.12" x2="17.5" y2="6.88" gradientUnits="userSpaceOnUse"><stop offset="0" stop-color="#dd4814"/><stop offset="1" stop-color="#dd7514"/></linearGradient></defs><g id="_64" data-name="64"><circle class="cls-1" cx="32" cy="32" r="29"/><polygon class="cls-2" points="30.53 29.34 32.05 27.29 31.48 25.11 32.48 22.21 30.15 24.58 29.81 24.49 30.43 23.02 28.24 25.2 26.15 26.48 23.97 30.57 25.15 33.62 25.58 35.95 26.06 37.13 24.35 39.18 26.72 39.18 27.06 37.04 28.01 35.57 29.57 35.85 31.33 35.14 32.67 34.47 33.95 35.33 32.43 37.13 30.86 38.56 33.28 38.61 33.28 37.66 35.19 36.18 35.85 36.99 33.9 39.8 36.37 39.8 36.28 38.42 38.09 36.75 37.18 34.9 37.04 32.67 38.89 31.62 39.89 31.81 41.32 31.33 41.7 28.48 39.56 29.15 38.23 31.1 35.95 32.28 32.81 31 30.53 29.34"/><circle class="cls-3" cx="42.5" cy="14.5" r="4.5"/><circle class="cls-3" cx="11.5" cy="31.5" r="4.5"/><circle class="cls-3" cx="42.5" cy="49.5" r="4.5"/><path class="cls-3" d="M27.46,20.9A11.82,11.82,0,0,1,32,20,12,12,0,0,1,43.9,30.5h7a19,19,0,0,0-5.17-11.58A5.43,5.43,0,0,1,42.5,20,5.5,5.5,0,0,1,37,14.5a7,7,0,0,1,.06-.8,18.8,18.8,0,0,0-13.34,1.21Z"/><path class="cls-3" d="M24.85,41.61a11.95,11.95,0,0,1,0-19.22l-3.72-5.95a19.07,19.07,0,0,0-7.32,10.07,5.5,5.5,0,0,1-.23,10.08,19,19,0,0,0,7.55,11Z"/><path class="cls-3" d="M43.9,33.5A12,12,0,0,1,32,44a11.82,11.82,0,0,1-4.54-.9l-3.74,6A18.84,18.84,0,0,0,32,51a19.14,19.14,0,0,0,5.06-.7,7,7,0,0,1-.06-.8A5.5,5.5,0,0,1,42.5,44a5.43,5.43,0,0,1,3.26,1.08A19,19,0,0,0,50.93,33.5Z"/></g></svg>