<svg xmlns="http://www.w3.org/2000/svg" xmlns:xlink="http://www.w3.org/1999/xlink" width="24" height="24" viewBox="0 0 24 24">
  <defs>
    <filter id="emblem-symbolic-link-a" width="144.4%" height="144.4%" x="-22.2%" y="-22.2%" filterUnits="objectBoundingBox">
      <feOffset dy="1" in="SourceAlpha" result="shadowOffsetOuter1"/>
      <feGaussianBlur in="shadowOffsetOuter1" result="shadowBlurOuter1" stdDeviation=".5"/>
      <feColorMatrix in="shadowBlurOuter1" result="shadowMatrixOuter1" values="0 0 0 0 0   0 0 0 0 0   0 0 0 0 0  0 0 0 0.15 0"/>
      <feMerge>
        <feMergeNode in="shadowMatrixOuter1"/>
        <feMergeNode in="SourceGraphic"/>
      </feMerge>
    </filter>
    <path id="emblem-symbolic-link-b" d="M10,10.0005786 L10,12.9975267 C10,13.544239 10.3238562,13.6866168 10.723353,13.300039 L15.8398639,8.34898673 C16.0341657,8.16096825 16.038762,7.8444456 15.8398639,7.65194766 L10.723353,2.70007678 C10.3159827,2.30581499 10,2.44882258 10,3.00247329 L10,6 C9.9996839,5.99997743 3,5.50019192 3,14 C3.99997742,9.98356176 9.99972905,10.0005778 10,10.0005786 L10,10.0005786 Z"/>
    <filter id="emblem-symbolic-link-c" width="115.4%" height="117.4%" x="-7.7%" y="-8.7%" filterUnits="objectBoundingBox">
      <feGaussianBlur in="SourceAlpha" result="shadowBlurInner1" stdDeviation=".5"/>
      <feOffset dy="1" in="shadowBlurInner1" result="shadowOffsetInner1"/>
      <feComposite in="shadowOffsetInner1" in2="SourceAlpha" k2="-1" k3="1" operator="arithmetic" result="shadowInnerInner1"/>
      <feColorMatrix in="shadowInnerInner1" values="0 0 0 0 1   0 0 0 0 1   0 0 0 0 1  0 0 0 0.5 0"/>
    </filter>
  </defs>
  <g fill="none" filter="url(#emblem-symbolic-link-a)" transform="translate(3 3)">
    <path fill="#FFF" d="M18,9 C18,13.971 13.971,18 9,18 C4.029,18 0,13.971 0,9 C0,4.029 4.029,0 9,0 C13.971,0 18,4.029 18,9"/>
    <use fill="#52A2FF" xlink:href="#emblem-symbolic-link-b"/>
    <use fill="#000" filter="url(#emblem-symbolic-link-c)" xlink:href="#emblem-symbolic-link-b"/>
  </g>
</svg>
