<?xml version="1.0" encoding="UTF-8"?>
<svg width="16px" height="16px" viewBox="0 0 16 16" version="1.1" xmlns="http://www.w3.org/2000/svg" xmlns:xlink="http://www.w3.org/1999/xlink">
    <!-- Generator: Sketch 58 (84663) - https://sketch.com -->
    <title>d</title>
    <desc>Created with Sketch.</desc>
    <g id="组件" stroke="none" stroke-width="1" fill="none" fill-rule="evenodd">
        <g id="d2px备份-2" fill="#536076">
            <g id="日志">
                <path d="M9.52374144,0.999835795 C9.50813207,1.01773256 9.5,1.03661695 9.5,1.05651623 L9.5,4.94456453 C9.5,5.25132307 9.72385763,5.5 10,5.5 L14,5.5 L14,13 C14,14.1045695 13.1045695,15 12,15 L4,15 C2.8954305,15 2,14.1045695 2,13 L2,2.5 C2,1.67157288 2.67157288,1 3.5,1 L9.52374144,0.999835795 Z M5.8,6 L5.8,6 L5.6996497,6.00623314 C5.30518815,6.05559842 5,6.39215895 5,6.8 L5,6.8 L5,11.2 L5.00623314,11.3003503 C5.05559842,11.6948119 5.39215895,12 5.8,12 L5.8,12 L6.8040293,12 L7.00945466,11.9961698 C8.89874691,11.9247499 10,10.8567279 10,8.97554348 C10,7.01902174 8.81868132,6 6.74908425,6 L6.74908425,6 Z M6.6483871,7 C8.17741935,7 9,7.63619744 9,8.98171846 C9,10.3199269 8.17741935,11 6.6483871,11 L6.6483871,11 L6,11 L6,7 Z" id="形状结合"></path>
                <path d="M11.3535534,1.35355339 L13.6464466,3.64644661 C13.8417088,3.84170876 13.8417088,4.15829124 13.6464466,4.35355339 C13.5526784,4.44732158 13.4255015,4.5 13.2928932,4.5 L11,4.5 C10.7238576,4.5 10.5,4.27614237 10.5,4 L10.5,1.70710678 C10.5,1.43096441 10.7238576,1.20710678 11,1.20710678 C11.1326082,1.20710678 11.2597852,1.2597852 11.3535534,1.35355339 Z" id="路径"></path>
            </g>
        </g>
    </g>
</svg>