<?xml version="1.0" encoding="UTF-8"?>
<svg width="16px" height="16px" viewBox="0 0 16 16" version="1.1" xmlns="http://www.w3.org/2000/svg" xmlns:xlink="http://www.w3.org/1999/xlink">
    <!-- Generator: Sketch 58 (84663) - https://sketch.com -->
    <title>action</title>
    <desc>Created with Sketch.</desc>
    <g id="组件" stroke="none" stroke-width="1" fill="none" fill-rule="evenodd">
        <g id="操作日志-2px备份-2" fill="#536076">
            <g id="操作日志" transform="translate(-0.500000, -0.500000)">
                <path d="M3.5,1.5 L11.5,1.5 C12.5543618,1.5 13.4181651,2.31587779 13.4945143,3.35073766 L13.5,3.5 L13.4997835,7.29706502 C13.4111849,7.27984945 13.3266066,7.25160247 13.2451187,7.21278259 C12.9768124,7.08496461 12.7920273,6.81933731 12.6887557,6.34154999 C12.6141461,5.99636771 12.3088379,5.75 11.9556844,5.75 L11.9556844,5.75 L10.0409972,5.75 C9.67885978,5.75 9.36844374,6.0087614 9.30325047,6.36498232 C9.22080286,6.81548227 9.05384735,7.10151962 8.80630826,7.27084576 C8.61712364,7.40025521 8.26754502,7.40025521 7.70751975,7.18839443 C7.35143489,7.05368548 6.95091422,7.20713518 6.77599392,7.54528577 L6.77599392,7.54528577 L5.92563714,9.18916964 C5.75839317,9.5124806 5.84744757,9.90920246 6.13683317,10.1300112 C6.43289377,10.3559132 6.5678815,10.6351363 6.5678815,11.0356888 C6.5678815,11.38872 6.45052281,11.5847466 6.15854056,11.7340516 C5.78361062,11.9257717 5.63996951,12.388522 5.84043572,12.7588494 L5.84043572,12.7588494 L6.78258096,14.4993034 C6.96405235,14.8345411 7.3681293,14.9803231 7.72183438,14.8381651 C8.22912304,14.6342801 8.58607099,14.6342801 8.85041418,14.7892644 C9.14241958,14.960467 9.32007574,15.2263747 9.40050256,15.6423667 L9.367,15.5 L3.5,15.5 C2.4456382,15.5 1.58183488,14.6841222 1.50548574,13.6492623 L1.5,13.5 L1.5,3.5 C1.5,2.4456382 2.31587779,1.58183488 3.35073766,1.50548574 L3.5,1.5 L11.5,1.5 Z M5,8.5 L4,8.5 L3.91012437,8.50805567 C3.67687516,8.55039163 3.5,8.75454011 3.5,9 C3.5,9.24545989 3.67687516,9.44960837 3.91012437,9.49194433 L4,9.5 L5,9.5 L5.08987563,9.49194433 C5.32312484,9.44960837 5.5,9.24545989 5.5,9 C5.5,8.72385763 5.27614237,8.5 5,8.5 Z M6,6.5 L4,6.5 L3.91012437,6.50805567 C3.67687516,6.55039163 3.5,6.75454011 3.5,7 C3.5,7.24545989 3.67687516,7.44960837 3.91012437,7.49194433 L4,7.5 L6,7.5 L6.08987563,7.49194433 C6.32312484,7.44960837 6.5,7.24545989 6.5,7 C6.5,6.72385763 6.27614237,6.5 6,6.5 Z M9,4.5 L4,4.5 L3.91012437,4.50805567 C3.67687516,4.55039163 3.5,4.75454011 3.5,5 C3.5,5.24545989 3.67687516,5.44960837 3.91012437,5.49194433 L4,5.5 L9,5.5 L9.08987563,5.49194433 C9.32312484,5.44960837 9.5,5.24545989 9.5,5 C9.5,4.72385763 9.27614237,4.5 9,4.5 Z" id="形状结合"></path>
                <path d="M11.5756348,6.5 C11.7894522,6.49997944 11.9796085,6.63593452 12.0487728,6.83825649 C12.2217406,7.34422821 12.5130028,7.69476805 12.9225593,7.88987599 C13.3198429,8.0791372 13.7546644,8.1165931 14.2270238,8.00224368 C14.445295,7.9494246 14.672012,8.04859648 14.7813656,8.24474426 L15.3110167,9.19478015 C15.4159234,9.38297543 15.388484,9.61721098 15.2429139,9.77605746 C14.9105754,10.1387059 14.7444062,10.558583 14.7444062,11.0356888 C14.7444062,11.4970755 14.8998063,11.877012 15.2106066,12.1754982 C15.3712536,12.3298753 15.4104289,12.5719151 15.306621,12.7690538 L14.7766246,13.7755555 C14.6697244,13.9786806 14.4382389,14.0828885 14.2152874,14.0282988 C13.7106485,13.904738 13.2797391,13.9427274 12.9225593,14.1422671 C12.5543603,14.3479628 12.2689669,14.6972266 12.0663793,15.1900587 C11.9893367,15.3775865 11.8066639,15.5 11.603927,15.5 L10.5209772,15.5 C10.3070708,15.500034 10.1168546,15.363971 10.0477532,15.1615334 C9.89421588,14.7117342 9.6215476,14.3719788 9.22974842,14.1422671 C8.83227553,13.9092289 8.36003247,13.8672967 7.81301923,14.0164705 C7.58895933,14.0775631 7.35232613,13.9763415 7.2417689,13.7721057 L6.71617408,12.8011581 C6.60394545,12.5938018 6.65181461,12.3362183 6.83105736,12.1830388 C7.15560679,11.9056815 7.3178815,11.5232315 7.3178815,11.0356888 C7.3178815,10.5261028 7.16049683,10.1018911 6.8457275,9.76305347 C6.70222206,9.60845031 6.67110893,9.38041995 6.76802636,9.19306212 L7.24728104,8.26658154 C7.35532671,8.05770351 7.59432959,7.95235232 7.82140664,8.01350715 C8.40861811,8.17165092 8.87806538,8.13044054 9.22974842,7.88987599 C9.57151102,7.6560974 9.81342091,7.31012348 9.95547808,6.85195421 C10.0203425,6.64265904 10.2139334,6.5 10.4330495,6.5 L11.5756348,6.5 Z M11,9.5 C10.1715729,9.5 9.5,10.1715729 9.5,11 C9.5,11.8284271 10.1715729,12.5 11,12.5 C11.8284271,12.5 12.5,11.8284271 12.5,11 C12.5,10.1715729 11.8284271,9.5 11,9.5 Z" id="形状结合备份"></path>
            </g>
        </g>
    </g>
</svg>