<?xml version="1.0" encoding="UTF-8"?>
<svg width="16px" height="16px" viewBox="0 0 16 16" version="1.1" xmlns="http://www.w3.org/2000/svg" xmlns:xlink="http://www.w3.org/1999/xlink">
    <title>ICON / 16px / key-dark</title>
    <g id="ICON-/-16px-/-key-dark" stroke="none" stroke-width="1" fill="none" fill-rule="evenodd" fill-opacity="0.7">
        <g id="ICON-/-Lock" transform="translate(2.000000, 1.000000)" fill="#FFFFFF" fill-rule="nonzero">
            <path d="M10.3816266,4 C11.2754296,4 12,4.72129415 12,5.6298321 L12,11.3701679 C12,12.2702993 11.2674102,13 10.3816266,13 L1.61837339,13 C0.724570449,13 0,12.2787059 0,11.3701679 L0,5.6298321 C0,4.72970069 0.732589781,4 1.61837339,4 L10.3816266,4 Z M10,5 L2,5 C1.44771525,5 1,5.44771525 1,6 L1,11 C1,11.5522847 1.44771525,12 2,12 L10,12 C10.5522847,12 11,11.5522847 11,11 L11,6 C11,5.44771525 10.5522847,5 10,5 Z" id="形状结合"></path>
            <path d="M6,0 C8.209139,-4.05812251e-16 10,1.790861 10,4 L10,5 L9,5 L9,4 C9,2.34314575 7.65685425,1 6,1 C4.34314575,1 3,2.34314575 3,4 L3,5 L2,5 L2,4 C2,1.790861 3.790861,4.05812251e-16 6,0 Z" id="形状结合"></path>
        </g>
    </g>
</svg>