<?xml version="1.0" encoding="UTF-8"?>
<svg width="16px" height="16px" viewBox="0 0 16 16" version="1.1" xmlns="http://www.w3.org/2000/svg" xmlns:xlink="http://www.w3.org/1999/xlink">
    <title>ICON / 16px / Phone-dark</title>
    <g id="ICON-/-16px-/-Phone-dark" stroke="none" stroke-width="1" fill="none" fill-rule="evenodd" fill-opacity="0.7">
        <path d="M11,1 C12.1045695,1 13,1.8954305 13,3 L13,13 C13,14.1045695 12.1045695,15 11,15 L5,15 C3.8954305,15 3,14.1045695 3,13 L3,3 C3,1.8954305 3.8954305,1 5,1 L11,1 Z M11,2 L5,2 C4.44771525,2 4,2.44771525 4,3 L4,13 C4,13.5522847 4.44771525,14 5,14 L11,14 C11.5522847,14 12,13.5522847 12,13 L12,3 C12,2.44771525 11.5522847,2 11,2 Z M9.5,3 C9.77614237,3 10,3.22385763 10,3.5 C10,3.77614237 9.77614237,4 9.5,4 L6.5,4 C6.22385763,4 6,3.77614237 6,3.5 C6,3.22385763 6.22385763,3 6.5,3 L9.5,3 Z" id="形状结合" fill="#FFFFFF" fill-rule="nonzero"></path>
    </g>
</svg>