<?xml version="1.0" encoding="UTF-8"?>
<svg width="16px" height="16px" viewBox="0 0 16 16" version="1.1" xmlns="http://www.w3.org/2000/svg" xmlns:xlink="http://www.w3.org/1999/xlink">
    <title>ICON / 16px / Mail-dark</title>
    <g id="ICON-/-16px-/-Mail-dark" stroke="none" stroke-width="1" fill="none" fill-rule="evenodd" fill-opacity="0.7">
        <g id="ICON-/-Basic-/-Mail" transform="translate(1.000000, 3.000000)" fill="#FFFFFF" fill-rule="nonzero">
            <path d="M11.7,0 C12.4179708,0 13,0.559644103 13,1.25 L13,8.75 C13,9.4403559 12.4179708,10 11.7,10 L1.30000031,10 C0.582030177,10 0,9.4403559 0,8.75 L0,1.25 C0,0.559644103 0.582029867,0 1.3,0 L11.7,0 Z M12,2 L7.0634547,5.36685821 C6.72357962,5.59866227 6.27642038,5.59866227 5.9365453,5.36685821 L1,2 L1,8 C1,8.55228475 1.44771525,9 2,9 L11,9 C11.5522847,9 12,8.55228475 12,8 L12,2 Z M11.5,1 L1.5,1 L5.92653766,4.09857636 C6.27085781,4.33960046 6.72914219,4.33960046 7.07346234,4.09857636 L11.5,1 Z" id="形状结合"></path>
        </g>
    </g>
</svg>