<?xml version="1.0" encoding="UTF-8"?>
<svg width="24px" height="24px" viewBox="0 0 24 24" version="1.1" xmlns="http://www.w3.org/2000/svg" xmlns:xlink="http://www.w3.org/1999/xlink">
    <title>icon/mp3_dark 2</title>
    <g id="Q4新需求" stroke="none" stroke-width="1" fill="none" fill-rule="evenodd">
        <g id="3多个笔记拖拽_dak" transform="translate(-1283.000000, -617.000000)" fill="#C5CFE0">
            <g id="icon/mp3_dark-2" transform="translate(1283.000000, 617.000000)">
                <g id="icon/mp3_dark">
                    <path d="M15,18 L15,19 L9,19 L9,18 L15,18 Z M8,12 C8,14.209139 9.790861,16 12,16 C14.209139,16 16,14.209139 16,12 L17,12 C17,14.4189579 15.2822403,16.4367116 13,16.8999819 L13,18 L11,18 L11,16.8999819 C8.71775968,16.4367116 7,14.4189579 7,12 L8,12 Z M9,12 L15,12 C15,13.6568542 13.6568542,15 12,15 C10.4023191,15 9.09633912,13.75108 9.00509269,12.1762728 L9,12 Z M12,5 C13.6568542,5 15,6.34314575 15,8 L15,11 L9,11 L9,8 C9,6.34314575 10.3431458,5 12,5 Z" id="Combined-Shape"></path>
                </g>
            </g>
        </g>
    </g>
</svg>