<?xml version="1.0" encoding="UTF-8"?>
<svg width="24px" height="24px" viewBox="0 0 24 24" version="1.1" xmlns="http://www.w3.org/2000/svg" xmlns:xlink="http://www.w3.org/1999/xlink">
    <title>icon/move_dark 2</title>
    <g id="Q4新需求" stroke="none" stroke-width="1" fill="none" fill-rule="evenodd">
        <g id="3多个笔记拖拽_dak" transform="translate(-1105.000000, -617.000000)" fill="#C5CFE0">
            <g id="icon/move_dark-2" transform="translate(1105.000000, 617.000000)">
                <g id="icon/move_dark">
                    <path d="M13.2191564,5 C13.4771598,5 13.7251791,5.09971851 13.9113766,5.27831363 L13.9113766,5.27831363 L17.6922202,8.90478672 C17.8888397,9.09337838 18,9.35402848 18,9.62647309 L18,9.62647309 L18,18 C18,18.5522847 17.5522847,19 17,19 L17,19 L7,19 C6.44771525,19 6,18.5522847 6,18 L6,18 L6,6 C6,5.44771525 6.44771525,5 7,5 L7,5 Z M12.2,9.59108696 C12.0895431,9.59108696 12,9.68063001 12,9.79108696 L12,9.79108696 L12,11.9990111 L8.9,12 C8.62385763,12 8.4,12.2238576 8.4,12.5 L8.4,12.5 L8.4,12.8333333 C8.4,13.1094757 8.62385763,13.3333333 8.9,13.3333333 L8.9,13.3333333 L11.999,13.3330111 L12,15.5422464 C12,15.5926304 12.0190165,15.6411581 12.0532479,15.678128 C12.1282932,15.759177 12.2548326,15.7640439 12.3358816,15.6889985 L12.3358816,15.6889985 L15.2037692,13.033547 C15.2131729,13.0248399 15.2222384,13.0157744 15.2309456,13.0063707 C15.4185589,12.8037483 15.4063917,12.4873997 15.2037692,12.2997863 L15.2037692,12.2997863 L12.3358816,9.64433482 C12.2989118,9.61010349 12.2503841,9.59108696 12.2,9.59108696 Z" id="形状结合"></path>
                </g>
            </g>
        </g>
    </g>
</svg>