<?xml version="1.0" encoding="UTF-8"?>
<svg width="36px" height="36px" viewBox="0 0 36 36" version="1.1" xmlns="http://www.w3.org/2000/svg" xmlns:xlink="http://www.w3.org/1999/xlink">
    <title>image</title>
    <g id="浅色" stroke="none" stroke-width="1" fill="none" fill-rule="evenodd">
        <g id="image" fill="#000000">
            <rect id="DTK-/-Button-/ToolButton-/-Light-Normal" fill-opacity="0" x="0" y="0" width="36" height="36" rx="8"></rect>
            <g id="ICON" transform="translate(10.000000, 11.000000)" fill-rule="nonzero">
                <path d="M13.0081158,0 C14.1082031,0 15,0.897060126 15,2.00585866 L15,11.9941413 C15,13.1019465 14.1066027,14 13.0081158,14 L1.99188419,14 C0.891796927,14 0,13.1029399 0,11.9941413 L0,2.00585866 C0,0.898053512 0.893397331,0 1.99188419,0 L13.0081158,0 Z M9.77490629,5.35489224 C9.57664733,5.02440614 9.10179434,5.01310466 8.88804276,5.33378492 L7.44253927,8.32512207 C7.32247536,8.57358333 7.10534127,8.5812737 6.95803313,8.34306943 L6.02157427,6.82877084 C5.79221388,6.59937262 5.41179823,6.63086198 5.22326515,6.89485182 L2.59869919,10.1928186 C2.35053955,10.5402994 2.59888864,11.0229683 3.02583862,11.0229683 L12.4742761,11.0229683 C12.8822882,11.0229683 13.134306,10.5777836 12.9243854,10.2278584 Z M4.075,3 C3.20515152,3 2.5,3.70515152 2.5,4.575 C2.5,5.44484848 3.20515152,6.15 4.075,6.15 C4.94484848,6.15 5.65,5.44484848 5.65,4.575 C5.65,3.70515152 4.94484848,3 4.075,3 Z" id="形状结合"></path>
            </g>
        </g>
    </g>
</svg>