<?xml version="1.0" encoding="UTF-8"?>
<svg width="16px" height="14px" viewBox="0 0 16 14" version="1.1" xmlns="http://www.w3.org/2000/svg" xmlns:xlink="http://www.w3.org/1999/xlink">
    <!-- Generator: Sketch 58 (84663) - https://sketch.com -->
    <title>voice2_dark</title>
    <desc>Created with Sketch.</desc>
    <g id="浅色新版本" stroke="none" stroke-width="1" fill="none" fill-rule="evenodd">
        <g id="喇叭切图" transform="translate(-41.000000, -63.000000)" fill="#C0C6D4" fill-rule="nonzero">
            <path d="M49,65.4174322 L49,74.5825678 C49,74.9537161 48.5212703,75.1395879 48.2412859,74.8771464 L46.4740767,73.2206645 C45.9798378,72.7573929 45.3278121,72.4995824 44.6503959,72.4995824 L42.7777778,72.4995824 C41.7959382,72.4995824 41,71.7036442 41,70.7218046 L41,69.2781954 C41,68.2963558 41.7959382,67.5004176 42.7777778,67.5004176 L44.6503959,67.5004176 C45.3278121,67.5004176 45.9798378,67.2426071 46.4740767,66.7793355 L48.2412859,65.1228536 C48.5212703,64.8604121 49,65.0462839 49,65.4174322 Z M51.5,67 C51.7761424,67 52,67.1729966 52,67.3863988 L52,72.6136012 C52,72.8270034 51.7761424,73 51.5,73 C51.2238576,73 51,72.8270034 51,72.6136012 L51,67.3863988 C51,67.1729966 51.2238576,67 51.5,67 Z" id="Combined-Shape"></path>
        </g>
    </g>
</svg>