<?xml version="1.0" encoding="UTF-8"?>
<svg width="16px" height="14px" viewBox="0 0 16 14" version="1.1" xmlns="http://www.w3.org/2000/svg" xmlns:xlink="http://www.w3.org/1999/xlink">
    <!-- Generator: Sketch 58 (84663) - https://sketch.com -->
    <title>voice4_dark</title>
    <desc>Created with Sketch.</desc>
    <g id="浅色新版本" stroke="none" stroke-width="1" fill="none" fill-rule="evenodd">
        <g id="喇叭切图" transform="translate(-87.000000, -63.000000)" fill="#C0C6D4" fill-rule="nonzero">
            <path d="M101.5,63 C101.776142,63 102,63.2070702 102,63.4625041 L102,76.5374959 C102,76.7929298 101.776142,77 101.5,77 C101.223858,77 101,76.7929298 101,76.5374959 L101,63.4625041 C101,63.2070702 101.223858,63 101.5,63 Z M99.5,66 C99.7761424,66 100,66.1759733 100,66.3930474 L100,74.6069526 C100,74.8240267 99.7761424,75 99.5,75 C99.2238576,75 99,74.8240267 99,74.6069526 L99,66.3930474 C99,66.1759733 99.2238576,66 99.5,66 Z M95,65.4174322 L95,74.5825678 C95,74.9537161 94.5212703,75.1395879 94.2412859,74.8771464 L92.4740767,73.2206645 C91.9798378,72.7573929 91.3278121,72.4995824 90.6503959,72.4995824 L88.7777778,72.4995824 C87.7959382,72.4995824 87,71.7036442 87,70.7218046 L87,69.2781954 C87,68.2963558 87.7959382,67.5004176 88.7777778,67.5004176 L90.6503959,67.5004176 C91.3278121,67.5004176 91.9798378,67.2426071 92.4740767,66.7793355 L94.2412859,65.1228536 C94.5212703,64.8604121 95,65.0462839 95,65.4174322 Z M97.5,67 C97.7761424,67 98,67.2018294 98,67.4507986 L98,73.5492014 C98,73.7981706 97.7761424,74 97.5,74 C97.2238576,74 97,73.7981706 97,73.5492014 L97,67.4507986 C97,67.2018294 97.2238576,67 97.5,67 Z" id="Combined-Shape"></path>
        </g>
    </g>
</svg>