<?xml version="1.0" encoding="UTF-8"?>
<svg width="16px" height="16px" viewBox="0 0 16 16" version="1.1" xmlns="http://www.w3.org/2000/svg" xmlns:xlink="http://www.w3.org/1999/xlink">
    <title>图标/自动</title>
    <g id="图标/自动" stroke="none" stroke-width="1" fill="none" fill-rule="evenodd">
        <path d="M8,1 C11.8659932,1 15,4.13400675 15,8 C15,11.8659932 11.8659932,15 8,15 C4.13400675,15 1,11.8659932 1,8 C1,4.13400675 4.13400675,1 8,1 Z M8,2 C4.6862915,2 2,4.6862915 2,8 C2,11.3137085 4.6862915,14 8,14 C11.3137085,14 14,11.3137085 14,8 C14,4.6862915 11.3137085,2 8,2 Z" id="矩形" fill="#000000" fill-rule="nonzero"></path>
        <g id="A" transform="translate(4.096, 4)" fill="#000000" fill-rule="nonzero">
            <path d="M8,8 L4.57142857,0 L3.42857143,0 L0,8 L1.51067323,8 L2.1543514,6.39325843 L5.8456486,6.39325843 L6.48932677,8 L8,8 Z M5.45155993,5.35955056 L2.57471264,5.35955056 L4.03284072,1.80898876 L5.45155993,5.35955056 Z" id="形状"></path>
        </g>
    </g>
</svg>