<?xml version="1.0" encoding="UTF-8" standalone="no"?>
<svg
   viewBox="0 0 24 24"
   fill="rgba(255,255,255,1)"
   version="1.1"
   id="svg4"
   sodipodi:docname="accounts.svg"
   inkscape:version="1.2.2 (b0a8486541, 2022-12-01)"
   xmlns:inkscape="http://www.inkscape.org/namespaces/inkscape"
   xmlns:sodipodi="http://sodipodi.sourceforge.net/DTD/sodipodi-0.dtd"
   xmlns="http://www.w3.org/2000/svg"
   xmlns:svg="http://www.w3.org/2000/svg">
  <defs
     id="defs8" />
  <sodipodi:namedview
     id="namedview6"
     pagecolor="#ffffff"
     bordercolor="#000000"
     borderopacity="0.25"
     inkscape:showpageshadow="2"
     inkscape:pageopacity="0.0"
     inkscape:pagecheckerboard="0"
     inkscape:deskcolor="#d1d1d1"
     showgrid="false"
     inkscape:zoom="32.5"
     inkscape:cx="12"
     inkscape:cy="18.338462"
     inkscape:window-width="1920"
     inkscape:window-height="958"
     inkscape:window-x="0"
     inkscape:window-y="24"
     inkscape:window-maximized="1"
     inkscape:current-layer="svg4" />
  <path
     d="M11.9999 17C15.6623 17 18.8649 18.5751 20.607 20.9247L18.765 21.796C17.3473 20.1157 14.8473 19 11.9999 19C9.15248 19 6.65252 20.1157 5.23479 21.796L3.39355 20.9238C5.13576 18.5747 8.33796 17 11.9999 17ZM11.9999 2C14.7613 2 16.9999 4.23858 16.9999 7V10C16.9999 12.6888 14.8776 14.8818 12.2168 14.9954L11.9999 15C9.23847 15 6.9999 12.7614 6.9999 10V7C6.9999 4.31125 9.1222 2.11818 11.783 2.00462L11.9999 2ZM11.9999 4C10.4022 4 9.09623 5.24892 9.00499 6.82373L8.9999 7V10C8.9999 11.6569 10.343 13 11.9999 13C13.5976 13 14.9036 11.7511 14.9948 10.1763L14.9999 10V7C14.9999 5.34315 13.6567 4 11.9999 4Z"
     id="path2"
     style="fill:#ffffff" />
</svg>
