<?xml version="1.0" encoding="utf-8"?>
<!-- Generator: Adobe Illustrator 24.0.0, SVG Export Plug-In . SVG Version: 6.00 Build 0)  -->
<svg version="1.1" id="图层_3" xmlns="http://www.w3.org/2000/svg" xmlns:xlink="http://www.w3.org/1999/xlink" x="0px" y="0px"
	 viewBox="0 0 19 19" style="enable-background:new 0 0 19 19;" xml:space="preserve">
<style type="text/css">
	.st0{fill:#FFFFFF;}
</style>
<title>画板 1</title>
<path id="XMLID_235_" class="st0" d="M17.4,4.3c-0.8-1.2-3.4,0-6.2,1.7L8.1,4.4h0.1C8.3,4.3,8.4,4.1,8.3,4C8.2,3.8,8,3.7,7.9,3.8
	L7.4,4.1l-3-1.6C4.1,2.4,3.7,2.4,3.6,2.7C3.4,3,3.5,3.3,3.8,3.6l4,4.7c-1.7,1.2-3.1,2.4-3.8,3l0,0l-2.7-0.8
	c-0.3-0.1-0.7,0.1-0.8,0.4c0,0,1.2,1.2,1.6,2C2.6,13.7,3,15.3,3,15.3c0.3,0.1,0.7-0.1,0.8-0.4l0.4-1.7c0.1,0,0.1-0.1,0.2-0.1
	C4.4,13,18.9,6.7,17.4,4.3L17.4,4.3z M12.8,13.1l0.2-3c-1.1,0.8-2.2,1.5-3.2,2.2l1.6,4.6c0.1,0.4,0.3,0.6,0.6,0.6s0.6-0.3,0.6-0.6
	l0.2-3l0.3-0.2c0.2-0.1,0.2-0.3,0.1-0.4C13.1,13.1,13,13,12.8,13.1L12.8,13.1z"/>
</svg>
