<?xml version="1.0" encoding="utf-8"?>
<!-- Generator: Adobe Illustrator 24.0.0, SVG Export Plug-In . SVG Version: 6.00 Build 0)  -->
<svg version="1.1" id="图层_3" xmlns="http://www.w3.org/2000/svg" xmlns:xlink="http://www.w3.org/1999/xlink" x="0px" y="0px"
	 viewBox="0 0 19 19" style="enable-background:new 0 0 19 19;" xml:space="preserve">
<style type="text/css">
	.st0{fill:#FFFFFF;}
</style>
<path class="st0" d="M11,4.1v1c2.1,0.6,3.4,2.8,2.8,4.9c-0.4,1.4-1.4,2.4-2.8,2.8v1c2.7-0.6,4.3-3.4,3.7-6C14.2,6,12.8,4.5,11,4.1z"
	/>
<path class="st0" d="M13,1.6v1.1c3.5,1.7,5,5.8,3.3,9.3c-0.7,1.4-1.9,2.6-3.3,3.3v1.1c4.1-1.7,6.1-6.3,4.4-10.4
	C16.6,4,15,2.4,13,1.6z"/>
<path class="st0" d="M4.3,7.8c-0.6,2.6,1,5.4,3.7,6v-1c-1.4-0.4-2.4-1.4-2.8-2.8C4.6,7.9,5.9,5.7,8,5.1v-1C6.2,4.5,4.8,6,4.3,7.8z"
	/>
<path class="st0" d="M1.6,6c-1.7,4.1,0.3,8.7,4.4,10.4v-1.1c-1.4-0.7-2.6-1.9-3.3-3.3C1,8.5,2.5,4.4,6,2.7V1.6C4,2.4,2.4,4,1.6,6z"
	/>
<circle class="st0" cx="9.5" cy="9" r="1.5"/>
</svg>
