<?xml version="1.0" encoding="utf-8"?>
<!-- Generator: Adobe Illustrator 24.0.0, SVG Export Plug-In . SVG Version: 6.00 Build 0)  -->
<svg version="1.1" id="图层_3" xmlns="http://www.w3.org/2000/svg" xmlns:xlink="http://www.w3.org/1999/xlink" x="0px" y="0px"
	 viewBox="0 0 19 19" style="enable-background:new 0 0 19 19;" xml:space="preserve">
<style type="text/css">
	.st0{fill:#FFFFFF;}
</style>
<g id="_x32_3">
	<path class="st0" d="M2,6c0-0.6,0.4-1,1-1h8V4H3C1.9,4,1,4.9,1,6v6c0,1.1,0.9,2,2,2h5v2H5v1h7v-1H9v-2h4v-1H3c-0.6,0-1-0.4-1-1V6z"
		/>
	<rect x="14" y="2" class="st0" width="1" height="2"/>
	<rect x="16" y="2" class="st0" width="1" height="2"/>
	<path class="st0" d="M17,4v3c0,0.6-0.4,1-1,1h-1c-0.6,0-1-0.4-1-1V4h-1v3c0,1.1,0.9,2,2,2h0v8h1V9h0c1.1,0,2-0.9,2-2V4H17z"/>
	<rect x="15" y="5" class="st0" width="1" height="2"/>
</g>
</svg>
