<?xml version="1.0" encoding="utf-8"?>
<!-- Generator: Adobe Illustrator 24.0.0, SVG Export Plug-In . SVG Version: 6.00 Build 0)  -->
<svg version="1.1" id="图层_3" xmlns="http://www.w3.org/2000/svg" xmlns:xlink="http://www.w3.org/1999/xlink" x="0px" y="0px"
	 viewBox="0 0 19 19" style="enable-background:new 0 0 19 19;" xml:space="preserve">
<style type="text/css">
	.st0{fill:#FFFFFF;}
</style>
<title>画板 1</title>
<g id="_16">
	<path class="st0" d="M9.5,17C8.7,17,8,16.3,8,15.5C8,14.7,8.7,14,9.5,14s1.5,0.7,1.5,1.5C11,16.3,10.3,17,9.5,17L9.5,17z"/>
	<path class="st0" d="M6.7,12.2c1.5-1.5,3.8-1.5,5.3-0.1l0.1,0.1l0.7-0.7c-1.7-2-4.8-2-6.6-0.2l-0.1,0.1L6.7,12.2z"/>
	<path class="st0" d="M4.3,9.2c2.9-2.9,7.4-3,10.4-0.1l0.1,0.1l0.7-0.7C12.3,5.2,7.1,5.2,3.8,8.4L3.7,8.5L4.3,9.2z"/>
	<path class="st0" d="M1.7,6.3C6,2,12.9,1.9,17.1,6.2l0.1,0.1L18,5.5C13.3,0.8,5.8,0.8,1.1,5.4L1,5.5L1.7,6.3z"/>
</g>
</svg>
