<?xml version="1.0" encoding="UTF-8"?>
<svg width="30px" height="30px" viewBox="0 0 30 30" version="1.1" xmlns="http://www.w3.org/2000/svg" xmlns:xlink="http://www.w3.org/1999/xlink">
    <title>button/clear-dark</title>
    <defs>
        <circle id="path-1" cx="11" cy="11" r="11"></circle>
        <filter x="-50.0%" y="-31.8%" width="200.0%" height="200.0%" filterUnits="objectBoundingBox" id="filter-2">
            <feOffset dx="0" dy="4" in="SourceAlpha" result="shadowOffsetOuter1"></feOffset>
            <feGaussianBlur stdDeviation="3" in="shadowOffsetOuter1" result="shadowBlurOuter1"></feGaussianBlur>
            <feColorMatrix values="0 0 0 0 0   0 0 0 0 0   0 0 0 0 0  0 0 0 0.05 0" type="matrix" in="shadowBlurOuter1"></feColorMatrix>
        </filter>
    </defs>
    <g id="button/clear-dark" stroke="none" stroke-width="1" fill="none" fill-rule="evenodd">
        <g id="清除" transform="translate(5, 4)">
            <g>
                <use fill="black" fill-opacity="1" filter="url(#filter-2)" xlink:href="#path-1"></use>
                <use fill="#6D6D6D" fill-rule="evenodd" xlink:href="#path-1"></use>
            </g>
            <path d="M7.64644534,7.64643784 C7.84170748,7.45117569 8.15828997,7.45117569 8.35355212,7.64643784 L10.9999987,10.2929912 L13.6464453,7.64643784 C13.8200117,7.47287149 14.0894361,7.45358634 14.2843042,7.58858239 L14.3535521,7.64643784 C14.5488143,7.84169998 14.5488143,8.15828247 14.3535521,8.35354462 L11.7069987,10.9999912 L14.3535521,13.6464378 C14.5271185,13.8200042 14.5464036,14.0894286 14.4114076,14.2842967 L14.3535521,14.3535446 C14.15829,14.5488068 13.8417075,14.5488068 13.6464453,14.3535446 L10.9999987,11.7069912 L8.35355212,14.3535446 C8.17998577,14.527111 7.91056137,14.5463961 7.71569323,14.4114001 L7.64644534,14.3535446 C7.45118319,14.1582825 7.45118319,13.8417 7.64644534,13.6464378 L10.2929987,10.9999912 L7.64644534,8.35354462 C7.47287899,8.17997827 7.45359384,7.91055387 7.58858989,7.71568573 Z" id="形状结合" fill="#C0C6D4"></path>
        </g>
    </g>
</svg>