<?xml version="1.0" encoding="UTF-8"?>
<svg width="24px" height="24px" viewBox="0 0 24 24" version="1.1" xmlns="http://www.w3.org/2000/svg" xmlns:xlink="http://www.w3.org/1999/xlink">
    <title>cn.10086.ipower.uc.deepin</title>
    <defs>
        <filter x="-9.0%" y="-9.0%" width="117.9%" height="117.9%" filterUnits="objectBoundingBox" id="filter-1">
            <feOffset dx="0" dy="0" in="SourceAlpha" result="shadowOffsetOuter1"></feOffset>
            <feGaussianBlur stdDeviation="0.5" in="shadowOffsetOuter1" result="shadowBlurOuter1"></feGaussianBlur>
            <feColorMatrix values="0 0 0 0 0   0 0 0 0 0   0 0 0 0 0  0 0 0 0.15 0" type="matrix" in="shadowBlurOuter1" result="shadowMatrixOuter1"></feColorMatrix>
            <feMerge>
                <feMergeNode in="shadowMatrixOuter1"></feMergeNode>
                <feMergeNode in="SourceGraphic"></feMergeNode>
            </feMerge>
        </filter>
    </defs>
    <g id="cn.10086.ipower.uc.deepin" stroke="none" stroke-width="1" fill="none" fill-rule="evenodd">
        <g id="编组-2" filter="url(#filter-1)" transform="translate(2.25, 2.25)">
            <path d="M3.75,-0.25 L15.75,-0.25 C17.959139,-0.25 19.75,1.540861 19.75,3.75 L19.75,15.75 C19.75,17.959139 17.959139,19.75 15.75,19.75 L3.75,19.75 C1.540861,19.75 -0.25,17.959139 -0.25,15.75 L-0.25,3.75 C-0.25,1.540861 1.540861,-0.25 3.75,-0.25 Z" id="Rectangle-2" fill="#FFFFFF"></path>
            <g id="编组" transform="translate(1.6581, 4.2163)" fill-rule="nonzero">
                <path d="M6.64882405,2.28466547 C6.64194905,2.29341547 6.63507405,2.30216547 6.62819905,2.31091547 C5.94569905,3.17091547 5.54882405,4.13841547 5.43757405,5.21341547 C5.41569905,5.42779047 5.40882405,5.95216547 5.41694905,6.78654047 C5.40819905,6.83404047 5.40819905,6.84060297 5.41694905,6.80622797 C4.65444905,6.80372797 3.89476155,6.80341547 3.13788655,6.80529047 C2.85288655,6.80591547 2.52944905,6.73310297 2.16757405,6.58685297 C-1.45211345,5.12060297 -0.258675948,-0.278459532 3.67976155,0.0112279681 C5.06663655,0.113102968 6.05632405,0.870915468 6.64882405,2.28466547 Z M2.95038655,3.31779047 C3.29538655,3.98060297 1.95101155,4.06497797 1.75038655,4.48497797 C1.67851155,4.63497797 1.67163655,4.80372797 1.72976155,4.99122797 C1.73726155,5.01622797 1.75413655,5.02872797 1.78038655,5.02872797 L4.89944905,5.02966547 C4.93069905,5.02966547 4.95132405,5.01466547 4.96132405,4.98466547 C5.02819905,4.77591547 5.01538655,4.59404047 4.92288655,4.43904047 C4.67444905,4.02091547 3.75569905,4.10154047 3.72757405,3.53622797 C3.71538655,3.28779047 3.98163655,2.92685297 4.12038655,2.69716547 C4.13601155,2.67154047 4.14226155,2.64372797 4.13913655,2.61372797 C4.11913655,2.42997797 4.11132405,2.24560297 4.11569905,2.06060297 C4.13538655,1.23279047 2.93163655,1.13341547 2.64476155,1.77747797 C2.54163655,2.00997797 2.63351155,2.32216547 2.56694905,2.60997797 C2.55944905,2.64122797 2.56476155,2.67029047 2.58288655,2.69716547 C2.71788655,2.89966547 2.84038655,3.10654047 2.95038655,3.31779047 Z" id="形状" fill="#8DC11F"></path>
                <path d="M12.0206991,0.431227968 C12.1094491,1.29247797 11.9719491,2.10122797 11.6081991,2.85747797 C11.2606991,2.63747797 10.8616366,2.54404047 10.4110116,2.57716547 C9.65101155,2.13279047 9.04913655,1.53310297 8.60538655,0.778102968 C9.65726155,0.306227968 10.7956991,0.190602968 12.0206991,0.431227968 Z" id="路径" fill="#4676F2"></path>
                <path d="M12.0206991,0.431227968 C13.2963241,0.728727968 14.3431991,1.40779047 15.1613241,2.46841547 C14.0413241,2.76404047 12.9219491,2.96810297 11.8031991,3.08060297 L11.6081991,2.85747797 C11.9719491,2.10122797 12.1094491,1.29247797 12.0206991,0.431227968 Z" id="路径" fill="#2EA4F4"></path>
                <path d="M8.60538655,0.778102968 C9.04913655,1.53310297 9.65101155,2.13279047 10.4110116,2.57716547 C9.88538655,2.64029047 9.52507405,2.87310297 9.33007405,3.27560297 C8.46757405,3.35622797 7.67507405,3.62716547 6.95257405,4.08841547 C6.92319905,4.10279047 6.87444905,4.10466547 6.80632405,4.09404047 C6.86444905,3.47591547 6.80507405,2.88154047 6.62819905,2.31091547 C6.63507405,2.30216547 6.64194905,2.29341547 6.64882405,2.28466547 C7.12257405,1.67654047 7.77476155,1.17435297 8.60538655,0.778102968 Z" id="路径" fill="#6387F7"></path>
                <path d="M1.75038655,4.48497797 C1.95101155,4.06497797 3.29538655,3.98060297 2.95038655,3.31779047 C2.84038655,3.10654047 2.71788655,2.89966547 2.58288655,2.69716547 C2.56476155,2.67029047 2.55944905,2.64122797 2.56694905,2.60997797 C2.63351155,2.32216547 2.54163655,2.00997797 2.64476155,1.77747797 C2.93163655,1.13341547 4.13538655,1.23279047 4.11569905,2.06060297 C4.11132405,2.24560297 4.11913655,2.42997797 4.13913655,2.61372797 C4.14226155,2.64372797 4.13601155,2.67154047 4.12038655,2.69716547 C3.98163655,2.92685297 3.71538655,3.28779047 3.72757405,3.53622797 C3.75569905,4.10154047 4.67444905,4.02091547 4.92288655,4.43904047 C5.01538655,4.59404047 5.02819905,4.77591547 4.96132405,4.98466547 C4.95132405,5.01466547 4.93069905,5.02966547 4.89944905,5.02966547 L1.78038655,5.02872797 C1.75413655,5.02872797 1.73726155,5.01622797 1.72976155,4.99122797 C1.67163655,4.80372797 1.67851155,4.63497797 1.75038655,4.48497797 Z" id="路径" fill="#FFFFFF"></path>
                <path d="M6.62819905,2.31091547 C6.80507405,2.88154047 6.86444905,3.47591547 6.80632405,4.09404047 L6.80819905,6.71997797 C6.80882405,6.75810297 6.79007405,6.77716547 6.75194905,6.77716547 L5.41694905,6.78654047 C5.40882405,5.95216547 5.41569905,5.42779047 5.43757405,5.21341547 C5.54882405,4.13841547 5.94569905,3.17091547 6.62819905,2.31091547 Z" id="路径" fill="#E2007D"></path>
                <path d="M15.1613241,2.46841547 C15.6363241,3.09904047 15.9656991,3.84497797 16.1494491,4.70622797 C15.8056991,4.76997797 15.5050741,4.90591547 15.2475741,5.11404047 C14.7638241,5.50591547 14.4163241,6.01466547 14.2050741,6.64029047 C13.3819491,6.07341547 12.5063241,5.67060297 11.5781991,5.43185297 C11.6325741,5.18622797 11.7472616,4.98591547 11.9222616,4.83091547 C11.9485116,4.80716547 11.9660116,4.77841547 11.9747616,4.74466547 C12.0191366,4.58154047 12.0016366,4.42560297 11.9222616,4.27685297 C11.907016,4.24758492 11.9011282,4.21389368 11.9053866,4.18029047 C11.9569491,3.77154047 12.0516366,3.50435297 11.8031991,3.08060297 C12.9219491,2.96810297 14.0413241,2.76404047 15.1613241,2.46841547 Z" id="路径" fill="#0894F6"></path>
                <path d="M11.6081991,2.85747797 L11.8031991,3.08060297 C12.0516366,3.50435297 11.9569491,3.77154047 11.9053866,4.18029047 C11.9011282,4.21389368 11.907016,4.24758492 11.9222616,4.27685297 C12.0016366,4.42560297 12.0191366,4.58154047 11.9747616,4.74466547 C11.9660116,4.77841547 11.9485116,4.80716547 11.9222616,4.83091547 C11.7472616,4.98591547 11.6325741,5.18622797 11.5781991,5.43185297 C11.0531991,5.91560297 11.3766366,6.51841547 11.9269491,6.75841547 C12.0644491,6.81841547 12.3781991,6.94810297 12.8681991,7.14747797 C13.4241366,7.37435297 13.3810116,7.87029047 13.3500741,8.36810297 C13.3475741,8.40497797 13.3275741,8.42341547 13.2900741,8.42341547 L7.99132405,8.42529047 C7.96069905,8.42529047 7.94507405,8.40997797 7.94444905,8.37935297 C7.94069905,7.91716547 7.82632405,7.36122797 8.37851155,7.14466547 C9.10882405,6.85779047 10.5347616,6.42654047 9.68632405,5.43935297 L9.53913655,5.05310297 C9.52726155,5.02185297 9.50788655,4.99654047 9.48101155,4.97716547 C9.37913655,4.90466547 9.30319905,4.81529047 9.25319905,4.70904047 L9.33007405,3.27560297 C9.52507405,2.87310297 9.88538655,2.64029047 10.4110116,2.57716547 C10.8616366,2.54404047 11.2606991,2.63747797 11.6081991,2.85747797 Z" id="路径" fill="#FFFFFF"></path>
                <path d="M9.33007405,3.27560297 L9.25319905,4.70904047 C8.44882405,4.82154047 7.71632405,4.66779047 7.05569905,4.24779047 C6.99132405,4.20654047 6.95694905,4.15341547 6.95257405,4.08841547 C7.67507405,3.62716547 8.46757405,3.35622797 9.33007405,3.27560297 Z" id="路径" fill="#4676F2"></path>
                <path d="M6.80632405,4.09404047 C6.87444905,4.10466547 6.92319905,4.10279047 6.95257405,4.08841547 C6.95694905,4.15341547 6.99132405,4.20654047 7.05569905,4.24779047 C7.71632405,4.66779047 8.44882405,4.82154047 9.25319905,4.70904047 C9.30319905,4.81529047 9.37913655,4.90466547 9.48101155,4.97716547 C9.50788655,4.99654047 9.52726155,5.02185297 9.53913655,5.05310297 L9.68632405,5.43935297 C9.16007405,5.45122797 8.70663655,5.65247797 8.32601155,6.04310297 C7.93507405,6.44341547 7.69413655,7.05091547 7.53194905,7.60404047 C7.38257405,8.10966547 7.24913655,8.64591547 7.13163655,9.21279047 C6.55351155,8.97154047 5.98382405,8.68560297 5.42257405,8.35497797 L5.41694905,6.80622797 C5.40819905,6.84060297 5.40819905,6.83404047 5.41694905,6.78654047 L6.75194905,6.77716547 C6.79007405,6.77716547 6.80882405,6.75810297 6.80819905,6.71997797 L6.80632405,4.09404047 Z" id="路径" fill="#0894F6"></path>
                <path d="M16.1494491,4.70622797 C16.3575741,5.86997797 16.2125741,6.98341547 15.7144491,8.04654047 C15.2900741,7.49029047 14.7869491,7.02154047 14.2050741,6.64029047 C14.4163241,6.01466547 14.7638241,5.50591547 15.2475741,5.11404047 C15.5050741,4.90591547 15.8056991,4.76997797 16.1494491,4.70622797 Z" id="路径" fill="#4676F2"></path>
                <path d="M9.68632405,5.43935297 C10.5347616,6.42654047 9.10882405,6.85779047 8.37851155,7.14466547 C7.82632405,7.36122797 7.94069905,7.91716547 7.94444905,8.37935297 C7.94507405,8.40997797 7.96069905,8.42529047 7.99132405,8.42529047 L13.2900741,8.42341547 C13.3275741,8.42341547 13.3475741,8.40497797 13.3500741,8.36810297 C13.3810116,7.87029047 13.4241366,7.37435297 12.8681991,7.14747797 C12.3781991,6.94810297 12.0644491,6.81841547 11.9269491,6.75841547 C11.3766366,6.51841547 11.0531991,5.91560297 11.5781991,5.43185297 C12.5063241,5.67060297 13.3819491,6.07341547 14.2050741,6.64029047 C14.7869491,7.02154047 15.2900741,7.49029047 15.7144491,8.04654047 L15.5616366,8.32872797 L14.1310116,9.09654047 C14.1022616,9.11216547 14.0894491,9.13654047 14.0925741,9.16966547 C14.1175741,9.40279047 14.1919491,9.62966547 14.3156991,9.85029047 C13.4338241,10.5927905 12.4588241,11.0034155 11.3906991,11.0821655 C10.6744491,11.1352905 9.80101155,11.1409155 8.77038655,11.0990405 C8.62226155,10.9565405 8.41632405,10.9059155 8.15257405,10.9471655 C7.84507405,10.9959155 7.68757405,11.0202905 7.68007405,11.0202905 C7.44257405,11.0359155 7.23319905,11.0415405 7.05194905,11.0371655 C6.91382405,11.0346655 6.85569905,10.964978 6.87757405,10.828103 L7.13163655,9.21279047 C7.24913655,8.64591547 7.38257405,8.10966547 7.53194905,7.60404047 C7.69413655,7.05091547 7.93507405,6.44341547 8.32601155,6.04310297 C8.70663655,5.65247797 9.16007405,5.45122797 9.68632405,5.43935297 Z" id="路径" fill="#2EA4F4"></path>
                <path d="M15.5616366,8.32872797 C15.2366366,8.92685297 14.8213241,9.43404047 14.3156991,9.85029047 C14.1919491,9.62966547 14.1175741,9.40279047 14.0925741,9.16966547 C14.0894491,9.13654047 14.1022616,9.11216547 14.1310116,9.09654047 L15.5616366,8.32872797 Z" id="路径" fill="#4676F2"></path>
                <path d="M7.13163655,9.21279047 L6.87757405,10.828103 C6.85569905,10.964978 6.91382405,11.0346655 7.05194905,11.0371655 C7.23319905,11.0415405 7.44257405,11.0359155 7.68007405,11.0202905 C7.68757405,11.0202905 7.84507405,10.9959155 8.15257405,10.9471655 C8.41632405,10.9059155 8.62226155,10.9565405 8.77038655,11.0990405 L5.47132405,11.103728 C5.43694905,11.103728 5.41976155,11.086853 5.41976155,11.053103 L5.42257405,8.35497797 C5.98382405,8.68560297 6.55351155,8.97154047 7.13163655,9.21279047 Z" id="路径" fill="#13A8E2"></path>
            </g>
        </g>
    </g>
</svg>