<?xml version="1.0" encoding="UTF-8"?>
<svg width="24px" height="24px" viewBox="0 0 24 24" version="1.1" xmlns="http://www.w3.org/2000/svg" xmlns:xlink="http://www.w3.org/1999/xlink">
    <title>cn.gov.gdzwfw.yzy</title>
    <defs>
        <filter x="-7.5%" y="-7.5%" width="115.0%" height="115.0%" filterUnits="objectBoundingBox" id="filter-1">
            <feOffset dx="0" dy="0" in="SourceAlpha" result="shadowOffsetOuter1"></feOffset>
            <feGaussianBlur stdDeviation="0.5" in="shadowOffsetOuter1" result="shadowBlurOuter1"></feGaussianBlur>
            <feColorMatrix values="0 0 0 0 0   0 0 0 0 0   0 0 0 0 0  0 0 0 0.15 0" type="matrix" in="shadowBlurOuter1" result="shadowMatrixOuter1"></feColorMatrix>
            <feMerge>
                <feMergeNode in="shadowMatrixOuter1"></feMergeNode>
                <feMergeNode in="SourceGraphic"></feMergeNode>
            </feMerge>
        </filter>
    </defs>
    <g id="cn.gov.gdzwfw.yzy" stroke="none" stroke-width="1" fill="none" fill-rule="evenodd">
        <g id="编组" filter="url(#filter-1)" transform="translate(2, 2)">
            <rect id="矩形" fill="#F7F8F8" fill-rule="nonzero" x="0" y="0" width="20" height="20" rx="4.5"></rect>
            <path d="M4.5,2 L8,2 C8.82842712,2 9.5,2.67157288 9.5,3.5 C9.5,4.32842712 8.82842712,5 8,5 L6.5,5 C6.22385763,5 6,5.22385763 6,5.5 C6,5.77614237 6.22385763,6 6.5,6 L8,6 C8.82842712,6 9.5,6.67157288 9.5,7.5 C9.5,8.32842712 8.82842712,9 8,9 L4.5,9 C3.67157288,9 3,8.32842712 3,7.5 L3,3.5 C3,2.67157288 3.67157288,2 4.5,2 Z" id="矩形" fill="#007BED"></path>
            <path d="M12,2 L15.5,2 C16.3284271,2 17,2.67157288 17,3.5 C17,4.32842712 16.3284271,5 15.5,5 L14.25,5 C13.9738576,5 13.75,5.22385763 13.75,5.5 C13.75,5.77614237 13.9738576,6 14.25,6 L15.5,6 C16.3284271,6 17,6.67157288 17,7.5 C17,8.32842712 16.3284271,9 15.5,9 L12,9 C11.1715729,9 10.5,8.32842712 10.5,7.5 L10.5,3.5 C10.5,2.67157288 11.1715729,2 12,2 Z" id="矩形" fill="#007BED" transform="translate(13.75, 5.5) scale(-1, 1) translate(-13.75, -5.5)"></path>
            <line x1="11.4088531" y1="4" x2="12.4088531" y2="3" id="直线" stroke="#FFFFFF" stroke-width="0.5" stroke-linecap="round" stroke-linejoin="round"></line>
            <line x1="7.65885315" y1="4" x2="8.65885315" y2="3" id="直线" stroke="#FFFFFF" stroke-width="0.5" stroke-linecap="round" stroke-linejoin="round" transform="translate(8.1589, 3.5) scale(-1, 1) translate(-8.1589, -3.5)"></line>
            <line x1="7.65885315" y1="8" x2="8.65885315" y2="7" id="直线" stroke="#FFFFFF" stroke-width="0.5" stroke-linecap="round" stroke-linejoin="round"></line>
            <line x1="11.4088531" y1="8" x2="12.4088531" y2="7" id="直线" stroke="#FFFFFF" stroke-width="0.5" stroke-linecap="round" stroke-linejoin="round" transform="translate(11.9089, 7.5) scale(-1, 1) translate(-11.9089, -7.5)"></line>
            <path d="M4.5,10 L15.5,10 C16.3284271,10 17,10.6715729 17,11.5 L17,15.5 C17,16.3284271 16.3284271,17 15.5,17 L8.5,17 C7.67157288,17 7,16.3284271 7,15.5 C7,14.6715729 7.67157288,14 8.5,14 L13.5,14 C13.7761424,14 14,13.7761424 14,13.5 C14,13.2238576 13.7761424,13 13.5,13 L4.5,13 C3.67157288,13 3,12.3284271 3,11.5 C3,10.6715729 3.67157288,10 4.5,10 Z" id="矩形" fill="#007BED"></path>
            <path d="M4.5,17 C5.32842712,17 6,16.3284271 6,15.5 C6,14.6715729 5.32842712,14 4.5,14 C3.67157288,14 3,14.6715729 3,15.5 C3,16.3284271 3.67157288,17 4.5,17 Z" id="椭圆形" fill="#007BED"></path>
        </g>
    </g>
</svg>