<?xml version="1.0" encoding="UTF-8"?>
<svg width="24px" height="24px" viewBox="0 0 24 24" version="1.1" xmlns="http://www.w3.org/2000/svg" xmlns:xlink="http://www.w3.org/1999/xlink">
    <title>cn.huorong.esm</title>
    <defs>
        <filter x="-8.3%" y="-7.3%" width="116.6%" height="114.6%" filterUnits="objectBoundingBox" id="filter-1">
            <feOffset dx="0" dy="0" in="SourceAlpha" result="shadowOffsetOuter1"></feOffset>
            <feGaussianBlur stdDeviation="0.5" in="shadowOffsetOuter1" result="shadowBlurOuter1"></feGaussianBlur>
            <feColorMatrix values="0 0 0 0 0   0 0 0 0 0   0 0 0 0 0  0 0 0 0.15 0" type="matrix" in="shadowBlurOuter1" result="shadowMatrixOuter1"></feColorMatrix>
            <feMerge>
                <feMergeNode in="shadowMatrixOuter1"></feMergeNode>
                <feMergeNode in="SourceGraphic"></feMergeNode>
            </feMerge>
        </filter>
    </defs>
    <g id="cn.huorong.esm" stroke="none" stroke-width="1" fill="none" fill-rule="evenodd">
        <g id="编组" filter="url(#filter-1)" transform="translate(2.9707, 2)">
            <path d="M3.58544725,17.2259138 C4.12110631,17.7401438 4.72251725,18.2344692 5.38968006,18.70889 C6.05684287,19.1833108 7.02125449,19.7999297 8.28291492,20.5587467 C10.3518644,19.6808632 11.8067664,18.9866394 12.6476209,18.4760751 C13.4884753,17.9655108 14.4370491,17.2003514 15.4933422,16.180597 L15.2032513,3.10443385 L7.98702781,1.42760294 C3.31306659,8.39959972 0.976085985,11.8855981 0.976085985,11.8855981 C0.976085985,11.8855981 1.84587307,13.6657033 3.58544725,17.2259138 Z" id="路径-19" fill="#FFFFFF"></path>
            <path d="M8.85719216,2.27373675e-13 C8.95514214,0.141327828 9.00551641,0.3095919 9.00831498,0.504792216 C9.0265057,1.94185835 9.03350212,3.4153059 9.02930427,4.92513487 C8.79912181,5.37500513 8.61589371,5.64258784 8.28291492,6 C6.80773267,7.58342841 5.72720854,9.27767991 4.91142513,10.1109544 C2.70545167,12.3641537 2.72119363,15.6920043 4.70677964,18.0826834 C4.73336606,18.114867 4.74316106,18.1501989 4.73616463,18.1886793 C4.73364692,18.2024864 4.72387453,18.2138604 4.71060409,18.2184289 C4.69733366,18.2229974 4.68263074,18.2200494 4.67214733,18.210718 C4.35590882,17.9231649 4.03267389,17.6443573 3.70244253,17.3742952 C2.56062562,16.4430707 1.23660504,15.383112 0.56634732,14.1944191 C0.145512229,13.4492996 0.00698297245,12.6936854 0.00488404431,11.7638603 C-0.00281202551,8.65814629 -0.00141274009,4.92933272 0.00908190058,1.84180944 C0.00928589151,1.75202328 0.0736510517,1.67567288 0.16125419,1.66130162 C2.93673683,1.20093671 6.04322917,0.647169508 8.85719216,2.27373675e-13 Z" id="路径" fill="#FFC01A" fill-rule="nonzero"></path>
            <path d="M8.85719216,0 C11.6627594,0.612887015 15.0446285,1.17435029 17.9075664,1.68438983 C17.9829292,1.69765334 18.037838,1.76318962 18.0377,1.83971051 C18.0439968,4.94332558 18.0411982,8.68508253 18.0293043,11.8005915 C18.0251064,12.7472081 17.9012696,13.3076219 17.481484,14.0852748 C16.8867877,15.1844135 15.7219545,16.1215849 14.8697897,16.896789 C14.655699,17.0905901 14.2082775,17.4610509 13.5275251,18.0081715 C13.5009387,18.0291608 13.4778505,18.0260124 13.4582605,17.9987263 C13.433773,17.9637442 13.4344726,17.9315606 13.4603594,17.9021756 C14.334563,16.9177783 14.7491013,15.788555 14.7816347,14.4525872 C14.8292104,12.5383648 14.0833913,10.9074976 12.5441773,9.55998574 C12.3021009,9.48862218 12.1758154,9.39312095 12.1653208,9.27348205 C12.4822589,7.12313018 11.8620256,4.05932701 10.0810851,2.68138069 C10.0661925,2.67012771 10.0465131,2.66744633 10.0291527,2.67430474 C10.0117924,2.68116315 9.99925915,2.69657052 9.99607854,2.71496354 C9.86524535,3.47127731 9.4721781,4.20800109 9.02930427,4.92513487 C9.03350212,3.4153059 9.0265057,1.94185835 9.00831498,0.504792216 C9.00551641,0.3095919 8.95514214,0.141327828 8.85719216,0 Z" id="路径" fill="#FF8601" fill-rule="nonzero"></path>
            <path d="M12.1653208,9.27348205 C12.1758154,9.39312095 12.3021009,9.48862218 12.5441773,9.55998574 C12.6218376,10.0371421 12.6557703,10.5041536 12.6459753,10.9610203 C12.6123925,12.4260721 11.7707223,13.6738849 10.566987,14.4872195 C10.9458435,13.5563449 11.1725278,12.8815395 10.946893,11.8855981 C11.5723736,11.1278851 11.9785162,10.2571797 12.1653208,9.27348205 Z" id="路径" fill="#FDCF9A" fill-rule="nonzero"></path>
            <path d="M10.946893,11.8855981 C11.1725278,12.8815395 10.9458435,13.5563449 10.566987,14.4872195 C10.1293605,15.1525798 9.37584527,15.7843571 8.80598629,16.3521172 C8.22178462,16.9342199 7.83033453,17.3900371 7.631636,17.7195689 C7.29510785,18.2764845 7.06422576,18.8932195 6.93898971,19.569774 C6.93415363,19.5954311 6.91658396,19.6168589 6.89237187,19.6266287 C6.86815977,19.6363985 6.84063907,19.6331651 6.81935081,19.6180494 C6.45833517,19.3591816 6.07423132,19.1132571 5.66703926,18.8802761 C5.45924538,18.7616867 5.53060893,18.5350024 5.59672517,18.3114666 C5.88847618,17.3340657 6.41600678,16.4595123 7.17931698,15.6878064 C8.43237708,14.4214531 9.68823575,13.1540503 10.946893,11.8855981 Z" id="路径" fill="#FDA009" fill-rule="nonzero"></path>
        </g>
    </g>
</svg>