<?xml version="1.0" encoding="UTF-8"?>
<svg width="24px" height="24px" viewBox="0 0 24 24" version="1.1" xmlns="http://www.w3.org/2000/svg" xmlns:xlink="http://www.w3.org/1999/xlink">
    <title>com.foxmail.deepin</title>
    <defs>
        <filter x="-7.9%" y="-7.5%" width="115.8%" height="115.0%" filterUnits="objectBoundingBox" id="filter-1">
            <feOffset dx="0" dy="0" in="SourceAlpha" result="shadowOffsetOuter1"></feOffset>
            <feGaussianBlur stdDeviation="0.5" in="shadowOffsetOuter1" result="shadowBlurOuter1"></feGaussianBlur>
            <feColorMatrix values="0 0 0 0 0   0 0 0 0 0   0 0 0 0 0  0 0 0 0.15 0" type="matrix" in="shadowBlurOuter1" result="shadowMatrixOuter1"></feColorMatrix>
            <feMerge>
                <feMergeNode in="shadowMatrixOuter1"></feMergeNode>
                <feMergeNode in="SourceGraphic"></feMergeNode>
            </feMerge>
        </filter>
    </defs>
    <g id="com.foxmail.deepin" stroke="none" stroke-width="1" fill="none" fill-rule="evenodd">
        <g filter="url(#filter-1)" transform="translate(3, 2)" fill="#CC342F" fill-rule="nonzero" id="路径">
            <path d="M7.167,7 L14.7555,7 C14.888,7 15.0155,6.9475 15.109,6.8535 L18.8535,3.3765 C18.9475,3.2825 19,3.1555 19,3.023 L19,0.5 C19,0.224 18.776,0 18.5,0 L16.206,0 C16.0545,0 15.911,0.069 15.816,0.187 L13.1285,2.813 C13.0335,2.931 12.8905,3 12.7385,3 L6.175,3 C6.048,3 5.926,3.048 5.8335,3.135 L0,9.48 L0,18.293 C0,18.4255 0.0525,18.553 0.1465,18.6465 L1.36472109,19.8535 C1.45872109,19.9475 1.58572109,20 1.71822109,20 L13.482,20 C13.623,20 13.757,19.9405 13.852,19.8365 L17.861023,14.623 C17.944523,14.531 17.991023,14.411 17.991023,14.2865 L17.991023,10.674 C17.991023,10.5405 17.937523,10.4125 17.843023,10.3185 L16.637523,9.1245 C16.544023,9.032 16.417523,9 16.286023,9 L12.6825,9 C12.5355,9 12.396,9.0445 12.301,9.1565 L10.0813527,11.602 C9.94335265,11.7645 10.0573527,12.014 10.2703527,12.0135 C11.0438527,12.013 12.736,11.996 13.495,11.9865 C13.7735,11.983 14,12.208 14,12.4865 L14,14.2615 C14,14.395 13.9465,14.5225 13.852,14.6165 L12.623,15.855 C12.5295,15.948 12.403,16 12.271,16 L6.1535,16 C6.0225,16 5.897,15.9485 5.8035,15.857 L4.15,13.6895 C4.054,13.5955 4,13.4665 4,13.3325 L4,10.1875 C4,10.055 4.0525,9.9275 4.1465,9.834 L6.8135,7.147 C6.9075,7.0525 7.0345,7 7.167,7 Z"></path>
        </g>
    </g>
</svg>