<?xml version="1.0" encoding="UTF-8"?>
<svg width="24px" height="24px" viewBox="0 0 24 24" version="1.1" xmlns="http://www.w3.org/2000/svg" xmlns:xlink="http://www.w3.org/1999/xlink">
    <title>com.netease.youdaonote</title>
    <defs>
        <filter x="-9.0%" y="-9.0%" width="117.9%" height="117.9%" filterUnits="objectBoundingBox" id="filter-1">
            <feOffset dx="0" dy="0" in="SourceAlpha" result="shadowOffsetOuter1"></feOffset>
            <feGaussianBlur stdDeviation="0.5" in="shadowOffsetOuter1" result="shadowBlurOuter1"></feGaussianBlur>
            <feColorMatrix values="0 0 0 0 0   0 0 0 0 0   0 0 0 0 0  0 0 0 0.15 0" type="matrix" in="shadowBlurOuter1" result="shadowMatrixOuter1"></feColorMatrix>
            <feMerge>
                <feMergeNode in="shadowMatrixOuter1"></feMergeNode>
                <feMergeNode in="SourceGraphic"></feMergeNode>
            </feMerge>
        </filter>
        <linearGradient x1="50%" y1="0%" x2="50%" y2="100%" id="linearGradient-2">
            <stop stop-color="#6DFFDF" offset="0%"></stop>
            <stop stop-color="#3B7CFE" offset="100%"></stop>
        </linearGradient>
    </defs>
    <g id="com.netease.youdaonote" stroke="none" stroke-width="1" fill="none" fill-rule="evenodd">
        <g id="youdao.note" filter="url(#filter-1)" transform="translate(2.25, 2.25)" fill-rule="nonzero">
            <path d="M12.8552632,19.75 L6.64473685,19.75 C2.85526315,19.75 -0.25,16.6447369 -0.25,12.8552632 L-0.25,6.64473685 C-0.25,2.85526315 2.85526315,-0.25 6.64473685,-0.25 L19.2236842,-0.25 C19.5394737,-0.25 19.75,-0.0394736842 19.75,0.27631579 L19.75,12.8552632 C19.75,16.6447369 16.6447369,19.75 12.8552632,19.75 Z" id="路径" fill="url(#linearGradient-2)"></path>
            <g id="编组" transform="translate(4.6312, 3.9)">
                <path d="M5.27604953,10.7056919 L0.757820854,11.2077173 C0.305997985,11.2579198 -0.0454198002,10.906502 0.00478274069,10.4546792 L0.506808149,5.93645047 C0.506808149,5.68543777 0.657415773,5.4846276 0.808023396,5.33401998 L6.02908766,0.112955717 C6.17969528,-0.0376519057 6.38050545,-0.0376519057 6.53111306,0.112955717 L11.0995443,4.68138694 C11.2501519,4.83199455 11.2501519,5.03280473 11.0995443,5.18341234 L5.92868257,10.4044766 C5.7278724,10.5550842 5.52706223,10.7056919 5.27604953,10.7056919 Z" id="路径" fill="#FFFFFF"></path>
                <path d="M11.0999359,4.69392858 L8.84865308,2.4375 L0.24375,11.0119286 C0.393835518,11.1623571 0.593949545,11.2125 0.794063568,11.2125 L5.29662912,10.7110714 C5.54677166,10.7110714 5.74688568,10.5606429 5.89697121,10.4102143 L11.0999359,5.19535714 C11.2500214,5.09507142 11.2500214,4.84435714 11.0999359,4.69392858 Z" id="路径" fill="#ECF6FF"></path>
            </g>
        </g>
    </g>
</svg>