<?xml version="1.0" encoding="UTF-8"?>
<svg width="24px" height="24px" viewBox="0 0 24 24" version="1.1" xmlns="http://www.w3.org/2000/svg" xmlns:xlink="http://www.w3.org/1999/xlink">
    <title>com.qq.wemeet</title>
    <defs>
        <filter x="-7.5%" y="-7.5%" width="115.0%" height="115.0%" filterUnits="objectBoundingBox" id="filter-1">
            <feOffset dx="0" dy="0" in="SourceAlpha" result="shadowOffsetOuter1"></feOffset>
            <feGaussianBlur stdDeviation="0.5" in="shadowOffsetOuter1" result="shadowBlurOuter1"></feGaussianBlur>
            <feColorMatrix values="0 0 0 0 0   0 0 0 0 0   0 0 0 0 0  0 0 0 0.15 0" type="matrix" in="shadowBlurOuter1" result="shadowMatrixOuter1"></feColorMatrix>
            <feMerge>
                <feMergeNode in="shadowMatrixOuter1"></feMergeNode>
                <feMergeNode in="SourceGraphic"></feMergeNode>
            </feMerge>
        </filter>
        <linearGradient x1="50%" y1="0%" x2="50%" y2="100%" id="linearGradient-2">
            <stop stop-color="#00E8FF" offset="0%"></stop>
            <stop stop-color="#0057DF" offset="100%"></stop>
        </linearGradient>
        <linearGradient x1="50%" y1="0%" x2="50%" y2="100%" id="linearGradient-3">
            <stop stop-color="#41FCFF" offset="0%"></stop>
            <stop stop-color="#0050CD" stop-opacity="0" offset="100%"></stop>
        </linearGradient>
        <linearGradient x1="50%" y1="27.2776266%" x2="50%" y2="100%" id="linearGradient-4">
            <stop stop-color="#FFFFFF" offset="0%"></stop>
            <stop stop-color="#FFFFFF" stop-opacity="0.800125656" offset="100%"></stop>
        </linearGradient>
    </defs>
    <g id="com.qq.wemeet" stroke="none" stroke-width="1" fill="none" fill-rule="evenodd">
        <g id="腾讯会议（wine）" filter="url(#filter-1)" transform="translate(2, 2)" fill-rule="nonzero">
            <rect id="矩形" fill="url(#linearGradient-2)" x="0" y="0" width="20" height="20" rx="4.30000019"></rect>
            <path d="M20,4.30000019 L20,15.6999998 C20,18.0748243 18.0748243,20 15.6999998,20 L4.30000019,20 C2.84778527,20 1.5637108,19.2801051 0.785176912,18.1777154 L18.4529116,0.996607974 C19.3983825,1.78538078 20,2.97243284 20,4.30000019 Z" id="形状结合" fill="url(#linearGradient-3)"></path>
            <g id="编组" transform="translate(2.3395, 5.9573)">
                <path d="M7.42265203,1.47753009 C8.07933206,1.47753009 8.61167642,2.00987444 8.61167642,2.66655447 L8.61167642,5.04460325 L5.04436545,5.04436544 L5.04460325,8.61167642 L1.47753008,8.61167642 L1.47753008,1.47753009 L7.42265203,1.47753009 Z" id="形状结合" fill="url(#linearGradient-4)" transform="translate(5.0446, 5.0446) scale(-1, 1) rotate(45) translate(-5.0446, -5.0446)"></path>
                <polygon id="形状结合" fill="#8DB4FF" opacity="0.477720749" points="5.04774301 2.95992777e-08 10.0923463 5.04460328 7.57004466 7.56690492 5.04774301 5.04426697 5.04460318 5.04717076 5.04460318 0.00309149301"></polygon>
                <path d="M12.4641153,1.47753009 C13.1207953,1.47753009 13.6531397,2.00987444 13.6531397,2.66655447 L13.6531397,5.04460325 L10.0858287,5.04436544 L10.0860665,8.61167642 L6.51899336,8.61167642 L6.51899336,1.47753009 L12.4641153,1.47753009 Z" id="形状结合" fill="url(#linearGradient-4)" transform="translate(10.0861, 5.0446) rotate(45) translate(-10.0861, -5.0446)"></path>
            </g>
        </g>
    </g>
</svg>