<?xml version="1.0" encoding="UTF-8"?>
<svg width="24px" height="24px" viewBox="0 0 24 24" version="1.1" xmlns="http://www.w3.org/2000/svg" xmlns:xlink="http://www.w3.org/1999/xlink">
    <title>com.jingjiamicro.mwv206</title>
    <defs>
        <filter x="-9.0%" y="-9.0%" width="117.9%" height="117.9%" filterUnits="objectBoundingBox" id="filter-1">
            <feOffset dx="0" dy="0" in="SourceAlpha" result="shadowOffsetOuter1"></feOffset>
            <feGaussianBlur stdDeviation="0.5" in="shadowOffsetOuter1" result="shadowBlurOuter1"></feGaussianBlur>
            <feColorMatrix values="0 0 0 0 0   0 0 0 0 0   0 0 0 0 0  0 0 0 0.15 0" type="matrix" in="shadowBlurOuter1" result="shadowMatrixOuter1"></feColorMatrix>
            <feMerge>
                <feMergeNode in="shadowMatrixOuter1"></feMergeNode>
                <feMergeNode in="SourceGraphic"></feMergeNode>
            </feMerge>
        </filter>
    </defs>
    <g id="com.jingjiamicro.mwv206" stroke="none" stroke-width="1" fill="none" fill-rule="evenodd">
        <g id="编组" filter="url(#filter-1)" transform="translate(2.25, 2.25)">
            <path d="M3.75,-0.25 L15.75,-0.25 C17.959139,-0.25 19.75,1.540861 19.75,3.75 L19.75,15.75 C19.75,17.959139 17.959139,19.75 15.75,19.75 L3.75,19.75 C1.540861,19.75 -0.25,17.959139 -0.25,15.75 L-0.25,3.75 C-0.25,1.540861 1.540861,-0.25 3.75,-0.25 Z" id="Rectangle-2" fill="#FFFFFF"></path>
            <path d="M6.9399082,6.99663876 C6.9399082,6.99663876 9.26030191,6.81151756 13.9010893,6.44127515 L16.6631978,9.00529086 C14.2250314,8.74358706 12.5464261,8.50619322 11.6273822,8.29310933 C8.61057965,7.59365205 6.9399082,6.99663876 6.9399082,6.99663876 Z" id="路径-17" fill="#D8D8D8"></path>
            <path d="M4.83031916,7.38897801 C4.83031916,7.38897801 6.49686659,8.25658852 10.2333499,9.15068983 C12.7378899,9.75 16.9136925,10.0184093 16.7884451,10.2700109 C16.6631978,10.5216124 11.0090024,10.8973817 8.20225394,11.5891331 C6.33108827,12.0503008 4.72190875,12.6481729 3.37471537,13.3827496 C3.20936303,11.7952849 3.17181604,10.7577053 3.2620744,10.2700109 C3.67560072,8.03559744 4.83031916,7.38897801 4.83031916,7.38897801 Z" id="路径-18" fill="#0393E1"></path>
        </g>
    </g>
</svg>