<?xml version="1.0" encoding="UTF-8"?>
<svg width="24px" height="24px" viewBox="0 0 24 24" version="1.1" xmlns="http://www.w3.org/2000/svg" xmlns:xlink="http://www.w3.org/1999/xlink">
    <title>com.hp.uld-hp</title>
    <defs>
        <filter x="-7.1%" y="-7.1%" width="114.3%" height="114.3%" filterUnits="objectBoundingBox" id="filter-1">
            <feOffset dx="0" dy="0" in="SourceAlpha" result="shadowOffsetOuter1"></feOffset>
            <feGaussianBlur stdDeviation="0.5" in="shadowOffsetOuter1" result="shadowBlurOuter1"></feGaussianBlur>
            <feColorMatrix values="0 0 0 0 0   0 0 0 0 0   0 0 0 0 0  0 0 0 0.15 0" type="matrix" in="shadowBlurOuter1" result="shadowMatrixOuter1"></feColorMatrix>
            <feMerge>
                <feMergeNode in="shadowMatrixOuter1"></feMergeNode>
                <feMergeNode in="SourceGraphic"></feMergeNode>
            </feMerge>
        </filter>
    </defs>
    <g id="com.hp.uld-hp" stroke="none" stroke-width="1" fill="none" fill-rule="evenodd">
        <g id="企业微信20231016-161845_2x" filter="url(#filter-1)" transform="translate(1.75, 1.75)" fill="#4895D1" fill-rule="nonzero">
            <path d="M5.92694864,14.946575 C6.90879331,14.9939101 7.65961571,14.9945249 8.17941583,14.9484192 C8.27956645,14.9398128 8.35544743,14.8654291 8.40705879,14.7252679 C9.2666337,12.3751097 10.097638,10.0148082 10.9000718,7.6443635 C11.1369311,6.94355775 10.8327927,6.12379944 10.126823,5.84716559 C9.94495443,5.77585553 9.64696027,5.7371268 9.23284055,5.73097938 C8.81564872,5.72483196 8.39876411,5.72298773 7.98218671,5.7254467 C7.8617602,5.72606144 7.75638701,5.71038552 7.66606713,5.67841895 C7.63942595,5.66915288 7.61754246,5.64973681 7.60526107,5.62446894 C7.59297969,5.59920107 7.59131348,5.57016569 7.6006313,5.54379047 L9.53144913,0.0876488664 C9.54036123,0.0617258935 9.56376325,0.0433547158 9.59135517,0.0406211121 C15.522975,-0.477606298 20.6675216,4.02599276 20.9845628,9.92751486 C21.3089771,15.9636654 16.4787068,21.0675599 10.4088422,20.9993236 C10.3825038,20.9990781 10.357931,20.986062 10.3427827,20.964332 C10.3276344,20.942602 10.3237525,20.9148003 10.3323468,20.8895922 C10.9781033,19.0349159 11.6284678,17.1774733 12.2834406,15.3172643 C12.419842,14.929977 12.5792842,14.9760826 12.9718992,14.9770047 C13.6293296,14.9782342 14.2855312,14.9766973 14.9405039,14.9723941 C15.8778031,14.9659394 16.6602682,14.6293682 16.9938988,13.7081775 C17.776671,11.5473597 18.4313366,9.70682252 18.9578953,8.18656584 C19.1213313,7.71505881 19.1965978,7.35758641 19.183695,7.11414862 C19.1302404,6.10166873 18.1496246,5.70884867 17.2445825,5.70147177 C15.9315649,5.69102115 14.6148608,5.68641059 13.2944702,5.68764007 C13.2344672,5.68759481 13.1810984,5.72578829 13.1617553,5.7826177 L8.01444381,20.5631642 C7.98739654,20.6414448 7.90406487,20.6853477 7.8236661,20.6636745 C3.39799202,19.4750711 0.222050137,15.5957424 0.0109965417,10.966736 C-0.188075845,6.5949991 2.33166446,2.65112253 6.27440368,0.860379417 C6.4507425,0.780462972 6.61049194,0.73097625 6.75365202,0.711919251 C6.82062391,0.702698123 6.84305027,0.730054137 6.82093112,0.793987293 L1.90494911,14.7713735 C1.8888227,14.817643 1.89610337,14.8688623 1.92448368,14.9087987 C1.95286399,14.9487351 1.99882556,14.9724375 2.04780198,14.9723941 L4.03576096,14.9659394 C4.16899983,14.9653681 4.28758047,14.8817288 4.33252628,14.7566197 C5.19271561,12.3462168 6.04153814,9.97239102 6.8789939,7.63514237 C7.02092514,7.23863385 7.03843613,6.97398747 7.55454973,6.97490958 C7.77819895,6.97490958 8.01106449,6.97521695 8.25314635,6.9758317 C8.3392298,6.9757825 8.42028634,7.01638848 8.47182021,7.08537827 C8.52335408,7.15436806 8.53931878,7.24364703 8.51488967,7.32623457 C8.43931589,7.58135245 8.3456167,7.86351898 8.23379209,8.17273415 C7.4743678,10.2769956 6.72200934,12.3831013 5.97671673,14.4910512 C5.92326211,14.6428925 5.88946896,14.7741399 5.87533728,14.8847934 C5.86980749,14.9241369 5.88701128,14.9447308 5.92694864,14.946575 Z" id="路径"></path>
            <path d="M16.457264,7.42006112 C15.8469517,9.12057176 15.2187444,10.8119349 14.6282107,12.5188488 C14.5283757,12.8088229 14.4586796,13.1079445 14.2495911,13.3265685 C14.0216658,13.5662316 13.1758935,13.4939668 12.8848649,13.4747571 C12.8400837,13.4720457 12.7992018,13.4491069 12.7742778,13.4127068 C12.7493538,13.3763067 12.7432314,13.3305983 12.7577165,13.2890639 C13.5080491,11.1833213 14.25587,9.09922771 15.0011794,7.03678304 C15.1641177,6.58489909 16.1813049,6.75046791 16.4497293,6.96726243 C16.4722063,6.98617441 16.4869138,7.01214606 16.4911703,7.04044202 C16.510007,7.17948323 16.498705,7.30602293 16.457264,7.42006112 Z" id="路径"></path>
        </g>
    </g>
</svg>