<?xml version="1.0" encoding="UTF-8"?>
<svg width="24px" height="24px" viewBox="0 0 24 24" version="1.1" xmlns="http://www.w3.org/2000/svg" xmlns:xlink="http://www.w3.org/1999/xlink">
    <title>com.todesk</title>
    <defs>
        <filter x="-9.0%" y="-9.0%" width="117.9%" height="117.9%" filterUnits="objectBoundingBox" id="filter-1">
            <feOffset dx="0" dy="0" in="SourceAlpha" result="shadowOffsetOuter1"></feOffset>
            <feGaussianBlur stdDeviation="0.5" in="shadowOffsetOuter1" result="shadowBlurOuter1"></feGaussianBlur>
            <feColorMatrix values="0 0 0 0 0   0 0 0 0 0   0 0 0 0 0  0 0 0 0.15 0" type="matrix" in="shadowBlurOuter1" result="shadowMatrixOuter1"></feColorMatrix>
            <feMerge>
                <feMergeNode in="shadowMatrixOuter1"></feMergeNode>
                <feMergeNode in="SourceGraphic"></feMergeNode>
            </feMerge>
        </filter>
    </defs>
    <g id="com.todesk" stroke="none" stroke-width="1" fill="none" fill-rule="evenodd">
        <g filter="url(#filter-1)" transform="translate(2.25, 2.25)" fill-rule="nonzero">
            <rect id="矩形" fill="#FFFFFF" x="-0.25" y="-0.25" width="20" height="20" rx="4.5"></rect>
            <path d="M8.8149622,4.2047206 L16.7349127,3.73174045 C16.8727383,3.72350947 16.9911406,3.82856672 16.9993716,3.96639235 C17.0003528,3.98282212 16.999709,3.99930862 16.9974498,4.01561187 L15.7492241,13.0231379 C15.7310258,13.1544615 15.6134769,13.248742 15.4813343,13.2379998 L11.7655732,12.9359378 C11.627956,12.9247506 11.5254642,12.8041208 11.5366514,12.6665035 C11.5371889,12.6598913 11.5379894,12.653303 11.539051,12.6467545 L12.1790614,8.69875773 C12.2011557,8.56246577 12.1085803,8.43406835 11.9722883,8.41197405 C11.9590611,8.40982977 11.9456829,8.40875245 11.932283,8.40875245 L8.25436168,8.40875245 C8.1162905,8.40875245 8.00436168,8.29682362 8.00436168,8.15875245 C8.00436168,8.1459026 8.0053524,8.1330719 8.007325,8.1203744 L8.58282898,4.41589792 C8.60088715,4.2996588 8.69753793,4.21173317 8.8149622,4.2047206 Z" id="路径" fill="#00D6E1"></path>
            <path d="M3.31313113,6.73401748 L11.2330817,6.26103733 C11.3709073,6.25280635 11.4893096,6.3578636 11.4975405,6.49568923 C11.4985217,6.512119 11.497878,6.5286055 11.4956188,6.54490875 L10.247393,15.5524348 C10.2291947,15.6837584 10.1116458,15.7780389 9.9795032,15.7672967 L6.26374213,15.4652347 C6.1261249,15.4540475 6.02363312,15.3334176 6.03482033,15.1958004 C6.03535785,15.1891882 6.03615835,15.1825999 6.03721995,15.1760513 L6.67723035,11.2280546 C6.69932467,11.0917626 6.6067492,10.9633652 6.47045725,10.9412709 C6.45723005,10.9391267 6.44385185,10.9380493 6.43045195,10.9380493 L2.75253063,10.9380493 C2.61445945,10.9380493 2.50253063,10.8261205 2.50253063,10.6880493 C2.50253063,10.6751995 2.50352135,10.6623688 2.50549395,10.6496713 L3.08099793,6.9451948 C3.0990561,6.82895568 3.19570688,6.74103005 3.31313113,6.73401748 Z" id="路径" fill="#0175FF"></path>
            <path d="M11.4975405,6.49568923 C11.4985217,6.512119 11.497878,6.5286055 11.4956188,6.54490875 L11.2373617,8.40858488 L8.25436168,8.40875245 C8.1162905,8.40875245 8.00436168,8.29682363 8.00436168,8.15875245 C8.00436168,8.1459026 8.0053524,8.1330719 8.007325,8.1203744 L8.26861168,6.43783488 L11.2330817,6.26103733 C11.3709073,6.25280635 11.4893096,6.3578636 11.4975405,6.49568923 Z" id="路径" fill="#005BEC"></path>
        </g>
    </g>
</svg>