<?xml version="1.0" encoding="UTF-8"?>
<svg width="24px" height="24px" viewBox="0 0 24 24" version="1.1" xmlns="http://www.w3.org/2000/svg" xmlns:xlink="http://www.w3.org/1999/xlink">
    <title>com.qq.weixin.deepin</title>
    <defs>
        <filter x="-7.5%" y="-7.5%" width="115.0%" height="115.0%" filterUnits="objectBoundingBox" id="filter-1">
            <feOffset dx="0" dy="0" in="SourceAlpha" result="shadowOffsetOuter1"></feOffset>
            <feGaussianBlur stdDeviation="0.5" in="shadowOffsetOuter1" result="shadowBlurOuter1"></feGaussianBlur>
            <feColorMatrix values="0 0 0 0 0   0 0 0 0 0   0 0 0 0 0  0 0 0 0.15 0" type="matrix" in="shadowBlurOuter1" result="shadowMatrixOuter1"></feColorMatrix>
            <feMerge>
                <feMergeNode in="shadowMatrixOuter1"></feMergeNode>
                <feMergeNode in="SourceGraphic"></feMergeNode>
            </feMerge>
        </filter>
        <linearGradient x1="50%" y1="2.44925972%" x2="50%" y2="100%" id="linearGradient-2">
            <stop stop-color="#39FF8B" offset="0%"></stop>
            <stop stop-color="#05D168" offset="100%"></stop>
        </linearGradient>
    </defs>
    <g id="com.qq.weixin.deepin" stroke="none" stroke-width="1" fill="none" fill-rule="evenodd">
        <g id="编组" filter="url(#filter-1)" transform="translate(2, 2)">
            <path d="M4.5,0 L15.5,0 C17.9852814,-4.56538782e-16 20,2.01471863 20,4.5 L20,15.5 C20,17.9852814 17.9852814,20 15.5,20 L4.5,20 C2.01471863,20 3.04359188e-16,17.9852814 0,15.5 L0,4.5 C-3.04359188e-16,2.01471863 2.01471863,4.56538782e-16 4.5,0 Z" id="矩形" fill="url(#linearGradient-2)"></path>
            <path d="M7.56344504,2.8393322 C10.6156376,2.8393322 13.1558599,4.66373429 13.6957476,7.07377563 C13.5993991,7.06907641 13.5022883,7.06700256 13.4046388,7.06700256 C10.2581538,7.06700256 7.67107412,9.22022412 7.67107412,11.9314517 C7.67107412,12.3774923 7.74109487,12.8084303 7.87210771,13.2171624 C7.77042691,13.2212766 7.66723197,13.2233861 7.56344504,13.2233861 C6.80713755,13.2233861 6.08226536,13.1113666 5.41147329,12.9061749 C5.06595386,12.8004824 3.73136867,13.9851391 3.41764098,13.8325815 C3.12962089,13.6925248 3.85971674,12.2187342 3.6034946,12.0433422 C2.21241175,11.0911026 1.32526343,9.64745886 1.32526343,8.03135914 C1.32526343,5.16388184 4.11819247,2.8393322 7.56344504,2.8393322 Z M5.50988215,5.5257541 C5.02483624,5.5257541 4.63162884,5.9189615 4.63162884,6.40400741 C4.63162884,6.88905332 5.02483624,7.28226072 5.50988215,7.28226072 C5.99492806,7.28226072 6.38813546,6.88905332 6.38813546,6.40400741 C6.38813546,5.9189615 5.99492806,5.5257541 5.50988215,5.5257541 Z M9.69450087,5.5257541 C9.20945496,5.5257541 8.81624756,5.9189615 8.81624756,6.40400741 C8.81624756,6.88905332 9.20945496,7.28226072 9.69450087,7.28226072 C10.1795468,7.28226072 10.5727542,6.88905332 10.5727542,6.40400741 C10.5727542,5.9189615 10.1795468,5.5257541 9.69450087,5.5257541 Z" id="形状结合" fill="#FFFFFF"></path>
            <path d="M13.4046388,7.61806346 C16.2668566,7.61806346 18.5871426,9.54923315 18.5871426,11.9314517 C18.5871426,13.2740613 17.850125,14.4733995 16.6944529,15.264493 C16.4815909,15.4102037 17.0881337,16.634587 16.8488548,16.7509422 C16.5882188,16.8776827 15.4794834,15.8935035 15.1924357,15.9813099 C14.6351607,16.1517773 14.0329575,16.2448399 13.4046388,16.2448399 C10.542421,16.2448399 8.22213503,14.3136702 8.22213503,11.9314517 C8.22213503,9.54923315 10.542421,7.61806346 13.4046388,7.61806346 Z M11.6318244,9.81369674 C11.2181087,9.81369674 10.8827259,10.1490795 10.8827259,10.5627952 C10.8827259,10.9765108 11.2181087,11.3118936 11.6318244,11.3118936 C12.04554,11.3118936 12.3809228,10.9765108 12.3809228,10.5627952 C12.3809228,10.1490795 12.04554,9.81369674 11.6318244,9.81369674 Z M15.0931756,9.81369674 C14.67946,9.81369674 14.3440772,10.1490795 14.3440772,10.5627952 C14.3440772,10.9765108 14.67946,11.3118936 15.0931756,11.3118936 C15.5068913,11.3118936 15.8422741,10.9765108 15.8422741,10.5627952 C15.8422741,10.1490795 15.5068913,9.81369674 15.0931756,9.81369674 Z" id="形状结合" fill="#FFFFFF"></path>
        </g>
    </g>
</svg>