<?xml version="1.0" encoding="UTF-8"?>
<svg width="24px" height="24px" viewBox="0 0 24 24" version="1.1" xmlns="http://www.w3.org/2000/svg" xmlns:xlink="http://www.w3.org/1999/xlink">
    <title>com.meitu.mtxx</title>
    <defs>
        <filter x="-7.5%" y="-7.5%" width="115.0%" height="115.0%" filterUnits="objectBoundingBox" id="filter-1">
            <feOffset dx="0" dy="0" in="SourceAlpha" result="shadowOffsetOuter1"></feOffset>
            <feGaussianBlur stdDeviation="0.5" in="shadowOffsetOuter1" result="shadowBlurOuter1"></feGaussianBlur>
            <feColorMatrix values="0 0 0 0 0   0 0 0 0 0   0 0 0 0 0  0 0 0 0.15 0" type="matrix" in="shadowBlurOuter1" result="shadowMatrixOuter1"></feColorMatrix>
            <feMerge>
                <feMergeNode in="shadowMatrixOuter1"></feMergeNode>
                <feMergeNode in="SourceGraphic"></feMergeNode>
            </feMerge>
        </filter>
        <linearGradient x1="50%" y1="0%" x2="50%" y2="100%" id="linearGradient-2">
            <stop stop-color="#FF6999" offset="0%"></stop>
            <stop stop-color="#FF3F5A" offset="100%"></stop>
        </linearGradient>
    </defs>
    <g id="com.meitu.mtxx" stroke="none" stroke-width="1" fill="none" fill-rule="evenodd">
        <g id="编组" filter="url(#filter-1)" transform="translate(2, 2)">
            <rect id="矩形" fill="url(#linearGradient-2)" x="0" y="0" width="20" height="20" rx="4"></rect>
            <path d="M10,1.32904412 C5.2111633,1.32904412 1.32904412,5.2111633 1.32904412,10 C1.32904412,14.7888367 5.2111633,18.6709559 10,18.6709559 C14.7888367,18.6709559 18.6709559,14.7888367 18.6709559,10 C18.6709559,5.2111633 14.7888367,1.32904412 10,1.32904412 Z M10,2.32904412 C14.236552,2.32904412 17.6709559,5.76344805 17.6709559,10 C17.6709559,14.236552 14.236552,17.6709559 10,17.6709559 C5.76344805,17.6709559 2.32904412,14.236552 2.32904412,10 C2.32904412,5.76344805 5.76344805,2.32904412 10,2.32904412 Z" id="椭圆形" fill="#FFFFFF" fill-rule="nonzero"></path>
            <path d="M4.85953806,12 L6,12 C6,10.7095077 6,9.96338695 6,9.76163786 C6,9.73672643 6.0120654,9.59708878 6.06901982,9.55353491 C6.22520502,9.43409782 6.58799723,9.40373351 6.96567914,9.60822424 C7.48108637,9.88728446 8.58929679,9.79458454 9.3659935,9.23142003 C10.1426902,8.66825551 10.6363142,8.52079639 10.6363142,8.86676626 C10.6363142,9.21273614 10.7391591,10.2672989 11.4858496,10.2672989 C12.2325401,10.2672989 12.8741562,9.6863381 13.0811938,9.6863381 C13.2192188,9.6863381 13.287412,9.77405293 13.2857733,9.9494826 L13.2857733,12 L14.404108,12 L14.404108,9.04521287 L15.3167221,8.57345472 L15.3167221,7.44126274 C15.3150621,7.39987462 15.2802085,7.36762128 15.2388182,7.36922505 C15.2270618,7.36968059 15.2155775,7.37289556 15.2048757,7.3778586 C13.4817521,8.28843929 12.4704122,8.80660722 12.1708561,8.93236239 C11.7118853,9.12504063 11.8756102,8.80199714 11.7092758,8.20141508 C11.5429413,7.60083301 11.1111217,7.19793004 10.214819,7.45038119 C9.31851625,7.70283235 8.34947659,8.6405826 7.83305968,8.6405826 C7.31664276,8.6405826 6.99433056,8.34072381 6.17107987,8.24146624 C5.34782919,8.14220868 4.85953806,8.97431041 4.85953806,9.23142003 C4.85953806,9.40282644 4.85953806,10.3256864 4.85953806,12 Z" id="路径-6" fill="#FFFFFF"></path>
        </g>
    </g>
</svg>