<?xml version="1.0" encoding="UTF-8"?>
<svg width="24px" height="24px" viewBox="0 0 24 24" version="1.1" xmlns="http://www.w3.org/2000/svg" xmlns:xlink="http://www.w3.org/1999/xlink">
    <title>com.yozosoft.yozo-office.s1</title>
    <defs>
        <filter x="-9.0%" y="-9.0%" width="117.9%" height="117.9%" filterUnits="objectBoundingBox" id="filter-1">
            <feOffset dx="0" dy="0" in="SourceAlpha" result="shadowOffsetOuter1"></feOffset>
            <feGaussianBlur stdDeviation="0.5" in="shadowOffsetOuter1" result="shadowBlurOuter1"></feGaussianBlur>
            <feColorMatrix values="0 0 0 0 0   0 0 0 0 0   0 0 0 0 0  0 0 0 0.15 0" type="matrix" in="shadowBlurOuter1" result="shadowMatrixOuter1"></feColorMatrix>
            <feMerge>
                <feMergeNode in="shadowMatrixOuter1"></feMergeNode>
                <feMergeNode in="SourceGraphic"></feMergeNode>
            </feMerge>
        </filter>
        <linearGradient x1="4.5073913%" y1="95.4926087%" x2="95.4926087%" y2="4.5073913%" id="linearGradient-2">
            <stop stop-color="#3773EB" offset="0%"></stop>
            <stop stop-color="#5AC3F5" offset="100%"></stop>
        </linearGradient>
    </defs>
    <g id="com.yozosoft.yozo-office.s1" stroke="none" stroke-width="1" fill="none" fill-rule="evenodd">
        <g id="编组" filter="url(#filter-1)" transform="translate(2.25, 2.25)" fill-rule="nonzero">
            <path d="M15.75,19.75 L3.75,19.75 C1.540861,19.75 -0.25,17.959139 -0.25,15.75 L-0.25,3.75 C-0.25,1.540861 1.540861,-0.25 3.75,-0.25 L15.75,-0.25 C17.959139,-0.25 19.75,1.540861 19.75,3.75 L19.75,15.75 C19.75,17.959139 17.959139,19.75 15.75,19.75 Z" id="路径" fill="url(#linearGradient-2)"></path>
            <g id="com-yozosoft-yozo" transform="translate(2.7619, 2.7619)" fill="#FFFFFF">
                <polygon id="路径" points="9.23807405 1.98807405 10.2395666 1.98807405 10.2395666 0.989425272 10.2395666 0 9.23807405 0 9.23807405 0.989425272 8.23852446 0.989425272 8.23852446 1.98807405"></polygon>
                <polygon id="矩形" points="10.2395666 1.98807405 11.238074 1.98807405 11.238074 2.98762364 10.2395666 2.98762364"></polygon>
                <polygon id="矩形" points="11.238074 0.989425272 12.238074 0.989425272 12.238074 1.98807405 11.238074 1.98807405"></polygon>
                <polygon id="矩形" points="13.238074 3.73807405 13.9948106 3.73807405 13.9948106 4.73807405 13.238074 4.73807405"></polygon>
                <polygon id="路径" points="11.238074 2.98807405 11.238074 3.73807405 10.2395666 3.73807405 10.2395666 4.73807405 10.2395666 5.73762364 11.238074 5.73762364 11.238074 4.73807405 12.238074 4.73807405 12.238074 3.73807405 13.238074 3.73807405 13.238074 2.98807405 13.238074 1.98807405 12.238074 1.98807405 12.238074 2.98807405"></polygon>
                <path d="M13.9988643,6.6997894 L13.9988643,5.73807405 L13.238074,5.73807405 L13.238074,4.73807405 L12.238074,4.73807405 L12.238074,5.73807405 L11.238074,5.73807405 L11.238074,6.73807405 L12.238074,6.73807405 L12.238074,7.73807405 L11.238074,7.73807405 L11.238074,6.73807405 L10.2395666,6.73807405 L10.2395666,7.73807405 L10.2395666,8.49108424 C10.2395666,8.90005435 10.2328105,9.28019837 10.2183974,9.62836345 C10.1602948,10.5408893 10.0900313,11.2219056 10.0148132,11.6799701 C9.99859851,11.7529361 9.9864375,11.8250014 9.96571875,11.8889592 L9.96571875,11.8966162 C9.90581454,12.1231712 9.83104688,12.2974789 9.75222554,12.4222418 C9.73871332,12.4425102 9.72565149,12.4587249 9.70988723,12.4762908 C9.26038043,12.9447147 8.36001563,13.1807283 7.00338791,13.1807283 C5.52560054,13.1807283 4.59505842,12.8902154 4.22257133,12.3145944 C4.13879552,12.1907323 4.06808152,12.0141726 4.01268139,11.7912208 C4.00862772,11.7862663 4.00862772,11.7849151 4.00862772,11.782663 C3.93340965,11.5025095 3.87485666,11.1453363 3.82801427,10.7124946 C3.81495245,10.5728682 3.80504348,10.4237833 3.79108084,10.2656902 C3.75549864,9.73330842 3.73613111,9.10679144 3.73613111,8.38478804 L3.73613111,5.76071332 C3.73613111,5.34859035 3.74063519,4.96709511 3.75009375,4.61442595 C3.80819633,3.80819633 3.86900136,3.43622962 3.93611209,2.98807405 C4.01853668,2.5827072 4.105584,2.32140007 4.31849868,2.0229715 C4.53141337,1.72454294 5.4016909,1.29269496 6.48807405,1.24540216 L6.48807405,0.989425272 L7.44433696,0.989425272 L8.23807405,0.989425272 L8.23807405,0 L7.44433696,0 L6.48807405,0 L6.48807405,0.989425272 L5.48807405,0.989425272 L5.48807405,0.381044837 C4.02650136,0.605798234 2.94251291,1.21159647 1.94395924,2.19573709 C1.54624932,2.58398845 1.2133981,3.01502853 0.938199049,3.48390285 C0.936397418,3.4866053 0.932794158,3.48795652 0.932794158,3.48795652 C0.932794158,3.48975815 0.929190897,3.49336141 0.929190897,3.49471264 C0.919732337,3.51723302 0.905769701,3.54065421 0.89270788,3.56587704 C0.296818614,4.56668274 0,5.66792935 0,6.87096807 C0,6.93897962 0,7.0029375 0.00270244565,7.07230027 C0,7.13986141 0,7.20607133 0,7.27363247 C0,8.4766712 0.297269022,9.57611617 0.89270788,10.5778227 C0.905319293,10.6030455 0.919281929,10.6242147 0.929190897,10.6489871 C0.929190897,10.6507887 0.932794158,10.6539416 0.932794158,10.6539416 C0.932794158,10.6561936 0.936397418,10.6593465 0.938199049,10.6606977 C1.11205639,10.9602188 1.31564063,11.2439755 1.54399728,11.5128689 C1.8115394,11.8858064 2.13448166,12.2249633 2.5515591,12.5375462 C3.84918342,13.4955632 5.32066508,13.9756977 6.9673553,13.9756977 C9.04238315,13.9756977 10.7309613,13.3343173 12.0299368,12.0592133 C12.4226923,11.6664579 12.7613988,11.2381202 13.0383995,10.7683451 C13.0383995,10.7678947 13.0383995,10.763841 13.0420027,10.7606882 C13.0420027,10.7606882 13.0420027,10.7606882 13.0420027,10.7584361 C13.0595686,10.7350149 13.0694776,10.7111433 13.0834402,10.6854701 C13.6761766,9.68421399 14.0024675,8.93976155 14.0024675,7.73807405 C14.0024675,7.67096332 13.9988643,7.24660802 13.9988643,7.1803981 C13.9988643,7.11283696 14.0024675,7.04527582 14.0024675,6.97681386 C14.0024675,6.83988995 14.0083228,6.83491168 13.9988643,6.6997894 Z" id="路径"></path>
            </g>
        </g>
    </g>
</svg>