<?xml version="1.0" encoding="UTF-8"?>
<svg width="24px" height="24px" viewBox="0 0 24 24" version="1.1" xmlns="http://www.w3.org/2000/svg" xmlns:xlink="http://www.w3.org/1999/xlink">
    <title>com.thunisoft.input</title>
    <defs>
        <filter x="-7.5%" y="-7.5%" width="115.0%" height="115.0%" filterUnits="objectBoundingBox" id="filter-1">
            <feOffset dx="0" dy="0" in="SourceAlpha" result="shadowOffsetOuter1"></feOffset>
            <feGaussianBlur stdDeviation="0.5" in="shadowOffsetOuter1" result="shadowBlurOuter1"></feGaussianBlur>
            <feColorMatrix values="0 0 0 0 0   0 0 0 0 0   0 0 0 0 0  0 0 0 0.15 0" type="matrix" in="shadowBlurOuter1" result="shadowMatrixOuter1"></feColorMatrix>
            <feMerge>
                <feMergeNode in="shadowMatrixOuter1"></feMergeNode>
                <feMergeNode in="SourceGraphic"></feMergeNode>
            </feMerge>
        </filter>
    </defs>
    <g id="com.thunisoft.input" stroke="none" stroke-width="1" fill="none" fill-rule="evenodd">
        <g id="编组" filter="url(#filter-1)" transform="translate(2, 2)">
            <path d="M4,0 L16,0 C18.209139,-4.05812251e-16 20,1.790861 20,4 L20,16 C20,18.209139 18.209139,20 16,20 L4,20 C1.790861,20 2.705415e-16,18.209139 0,16 L0,4 C-2.705415e-16,1.790861 1.790861,4.05812251e-16 4,0 Z" id="Rectangle-2" fill="#FFFFFF"></path>
            <rect id="矩形" fill="#006EC7" x="9" y="1" width="2" height="5"></rect>
            <rect id="矩形" fill="#006EC7" x="9" y="7" width="2" height="5"></rect>
            <rect id="矩形" fill="#0082D3" x="12" y="4" width="2" height="5"></rect>
            <rect id="矩形" fill="#0082D3" x="6" y="4" width="2" height="5"></rect>
            <rect id="矩形" fill="#00AE9E" x="3" y="7" width="2" height="5"></rect>
            <rect id="矩形" fill="#00AE9E" x="15" y="7" width="2" height="5"></rect>
            <rect id="矩形" fill="#006EC7" x="9" y="13" width="2" height="5"></rect>
            <rect id="矩形" fill="#0082D3" x="12" y="10" width="2" height="5"></rect>
            <rect id="矩形" fill="#0082D3" x="6" y="10" width="2" height="5"></rect>
        </g>
    </g>
</svg>