<?xml version="1.0" encoding="UTF-8"?>
<svg width="24px" height="24px" viewBox="0 0 24 24" version="1.1" xmlns="http://www.w3.org/2000/svg" xmlns:xlink="http://www.w3.org/1999/xlink">
    <title>com.qq.video.deepin</title>
    <defs>
        <filter x="-7.4%" y="-8.2%" width="114.7%" height="116.3%" filterUnits="objectBoundingBox" id="filter-1">
            <feOffset dx="0" dy="0" in="SourceAlpha" result="shadowOffsetOuter1"></feOffset>
            <feGaussianBlur stdDeviation="0.5" in="shadowOffsetOuter1" result="shadowBlurOuter1"></feGaussianBlur>
            <feColorMatrix values="0 0 0 0 0   0 0 0 0 0   0 0 0 0 0  0 0 0 0.15 0" type="matrix" in="shadowBlurOuter1" result="shadowMatrixOuter1"></feColorMatrix>
            <feMerge>
                <feMergeNode in="shadowMatrixOuter1"></feMergeNode>
                <feMergeNode in="SourceGraphic"></feMergeNode>
            </feMerge>
        </filter>
        <linearGradient x1="50%" y1="2.639%" x2="50%" y2="100%" id="linearGradient-2">
            <stop stop-color="#71D0FF" offset="0%"></stop>
            <stop stop-color="#0587F5" offset="100%"></stop>
        </linearGradient>
        <linearGradient x1="50%" y1="0%" x2="50%" y2="100%" id="linearGradient-3">
            <stop stop-color="#FFB900" offset="0%"></stop>
            <stop stop-color="#FF7504" offset="100%"></stop>
        </linearGradient>
        <linearGradient x1="50%" y1="0%" x2="50%" y2="100%" id="linearGradient-4">
            <stop stop-color="#A7F420" offset="0%"></stop>
            <stop stop-color="#67BF0B" offset="100%"></stop>
        </linearGradient>
    </defs>
    <g id="com.qq.video.deepin" stroke="none" stroke-width="1" fill="none" fill-rule="evenodd">
        <g id="腾讯视频" filter="url(#filter-1)" transform="translate(1.75, 2.75)" fill-rule="nonzero">
            <path d="M5.0594643,0.170311838 C6.67027015,-0.58349419 10.9380242,1.27231958 14.7296813,3.62326463 C17.6014276,5.40383643 20.3928989,7.25343143 20.3928989,8.8997229 C20.3928989,10.2856995 17.0563162,13.0615718 14.7296813,14.6101905 C12.16514,16.3171609 6.38163287,19.1802398 4.65037532,18.1533255 C3.02918832,17.1917008 2.85499177,12.7717018 2.96393192,8.6877763 C3.07428705,4.55080605 3.59132605,0.85735396 5.0594643,0.170311838 Z" id="路径" fill="url(#linearGradient-2)"></path>
            <path d="M2.08187455,1.98783698 C3.9956096,1.27979659 16.0967063,6.38587993 16.0967063,9.22364793 C16.0967063,10.7543052 12.4440479,12.8208781 8.7041068,14.5322479 C5.57034827,15.966233 2.57020102,16.6661114 1.76331221,16.3171609 C0.159328907,15.6234955 0,11.2242826 0,8.66547188 C0,6.1066612 0.611095157,2.5319934 2.08187455,1.98783698 Z" id="路径" fill="url(#linearGradient-3)"></path>
            <path d="M16.3467063,9.22364793 C16.3467063,10.7543052 12.6940479,12.8208781 8.9541068,14.5322479 C6.99674378,15.427923 4.95865645,16.0564906 3.50769508,16.3171609 C2.94720273,14.4233403 2.88952393,11.4771671 2.96393193,8.6877763 C3.03290565,6.10210323 3.26074848,3.68968835 3.78038455,2.07628611 C7.7363023,2.90354903 16.3467063,6.85426153 16.3467063,9.22364793 Z" id="路径" fill="url(#linearGradient-4)"></path>
            <path d="M5.6911563,5.82525673 C6.36023803,5.49570235 11.9864098,8.4305655 11.9864098,9.11946163 C11.9864098,9.80835775 6.22719088,12.7231802 5.6911563,12.4103518 C5.41461098,12.2489606 5.33071555,10.5983354 5.323499,8.98386268 C5.31672753,7.4689632 5.36726015,5.9847909 5.6911563,5.82525673 Z" id="路径" fill="#FFFFFF"></path>
        </g>
    </g>
</svg>