<?xml version="1.0" encoding="UTF-8"?>
<svg width="24px" height="24px" viewBox="0 0 24 24" version="1.1" xmlns="http://www.w3.org/2000/svg" xmlns:xlink="http://www.w3.org/1999/xlink">
    <title>com.foxit.foxitpdfeditor</title>
    <defs>
        <filter x="-8.0%" y="-6.9%" width="117.6%" height="113.8%" filterUnits="objectBoundingBox" id="filter-1">
            <feOffset dx="0" dy="0" in="SourceAlpha" result="shadowOffsetOuter1"></feOffset>
            <feGaussianBlur stdDeviation="0.5" in="shadowOffsetOuter1" result="shadowBlurOuter1"></feGaussianBlur>
            <feColorMatrix values="0 0 0 0 0   0 0 0 0 0   0 0 0 0 0  0 0 0 0.15 0" type="matrix" in="shadowBlurOuter1" result="shadowMatrixOuter1"></feColorMatrix>
            <feMerge>
                <feMergeNode in="shadowMatrixOuter1"></feMergeNode>
                <feMergeNode in="SourceGraphic"></feMergeNode>
            </feMerge>
        </filter>
        <linearGradient x1="32.8077258%" y1="1.75044826%" x2="35.9815423%" y2="96.8288408%" id="linearGradient-2">
            <stop stop-color="#FF9E00" offset="0%"></stop>
            <stop stop-color="#FF5C11" offset="100%"></stop>
        </linearGradient>
        <path d="M3.35156228,0.451583717 L15.3456679,0.44844936 C16.8989683,0.446570206 18.1584965,1.70544024 18.1589024,3.25874105 C18.1589025,3.25923226 18.1589025,3.25972347 18.1574292,3.26021429 L18.1534404,18.4480009 C18.1515586,20.0007259 16.8929268,21.259356 15.3402018,21.2612358 L3.3460962,21.2643702 C1.79279578,21.2662493 0.533267623,20.0073793 0.532861707,18.4540785 C0.532861578,18.4535873 0.532861579,18.4530961 0.534334946,18.4526053 L0.538323726,3.2648186 C0.54020553,1.71209363 1.79883731,0.453463493 3.35156228,0.451583717 Z" id="path-3"></path>
        <filter x="-5.7%" y="-4.8%" width="111.3%" height="109.6%" filterUnits="objectBoundingBox" id="filter-4">
            <feGaussianBlur stdDeviation="0.5" in="SourceAlpha" result="shadowBlurInner1"></feGaussianBlur>
            <feOffset dx="-1" dy="-1" in="shadowBlurInner1" result="shadowOffsetInner1"></feOffset>
            <feComposite in="shadowOffsetInner1" in2="SourceAlpha" operator="arithmetic" k2="-1" k3="1" result="shadowInnerInner1"></feComposite>
            <feColorMatrix values="0 0 0 0 0.570623868   0 0 0 0 0.00103295098   0 0 0 0 0.00103295098  0 0 0 0.5 0" type="matrix" in="shadowInnerInner1"></feColorMatrix>
        </filter>
        <path d="M17.981973,2.39470407 L17.131588,18.8695837 C17.0843032,19.8029566 16.3260573,20.5313042 15.4080235,20.5583271 L15.2618232,20.5566933 L2.10266575,19.8695593 C1.59600149,19.843139 1.20679454,19.4130421 1.23334769,18.9089112 C1.25990084,18.4047803 1.69215895,18.0175193 2.19882321,18.0439397 L2.61006591,18.0628479 L14.455173,18.6803307 C15.6935755,18.7437294 16.7575452,17.8348306 16.9050399,16.621771 L16.91902,16.4618758 L17.6833511,1.95049062 L17.6842611,1.82029593 C17.6807216,1.74828271 17.6711079,1.67772646 17.6559009,1.60916182 C17.8686468,1.80146891 17.997659,2.0850674 17.981973,2.39470407 Z" id="path-5"></path>
        <filter x="-9.0%" y="-7.9%" width="117.9%" height="115.8%" filterUnits="objectBoundingBox" id="filter-6">
            <feOffset dx="-0" dy="-0" in="SourceAlpha" result="shadowOffsetOuter1"></feOffset>
            <feGaussianBlur stdDeviation="0.5" in="shadowOffsetOuter1" result="shadowBlurOuter1"></feGaussianBlur>
            <feColorMatrix values="0 0 0 0 0.795120018   0 0 0 0 0   0 0 0 0 0  0 0 0 0.5 0" type="matrix" in="shadowBlurOuter1"></feColorMatrix>
        </filter>
        <filter x="-11.9%" y="-10.6%" width="123.9%" height="121.1%" filterUnits="objectBoundingBox" id="filter-7">
            <feGaussianBlur stdDeviation="0.5" in="SourceAlpha" result="shadowBlurInner1"></feGaussianBlur>
            <feOffset dx="1" dy="0" in="shadowBlurInner1" result="shadowOffsetInner1"></feOffset>
            <feComposite in="shadowOffsetInner1" in2="SourceAlpha" operator="arithmetic" k2="-1" k3="1" result="shadowInnerInner1"></feComposite>
            <feColorMatrix values="0 0 0 0 0.782042572   0 0 0 0 0.260324814   0 0 0 0 0  0 0 0 0.5 0" type="matrix" in="shadowInnerInner1"></feColorMatrix>
        </filter>
    </defs>
    <g id="com.foxit.foxitpdfeditor" stroke="none" stroke-width="1" fill="none" fill-rule="evenodd">
        <g id="编组" filter="url(#filter-1)" transform="translate(2.7791, 0.9944)">
            <g id="矩形" transform="translate(9.3458, 10.8564) rotate(3) translate(-9.3458, -10.8564)">
                <use fill="url(#linearGradient-2)" fill-rule="evenodd" xlink:href="#path-3"></use>
                <use fill="black" fill-opacity="1" filter="url(#filter-4)" xlink:href="#path-3"></use>
            </g>
            <g id="形状结合">
                <use fill="black" fill-opacity="1" filter="url(#filter-6)" xlink:href="#path-5"></use>
                <use fill="#FFFFFF" fill-rule="evenodd" xlink:href="#path-5"></use>
                <use fill="black" fill-opacity="1" filter="url(#filter-7)" xlink:href="#path-5"></use>
            </g>
            <path d="M10.9185617,12.8471564 C10.6635225,13.1009237 6.32834643,14.6240164 7.09408639,10.3105956 C7.85960401,7.26578873 10.154467,7.77283408 10.6644564,7.77274515 C11.1744457,7.77265621 12.4492856,8.53360223 12.4492856,8.53360223 C12.4492856,8.53360223 12.1946022,6.75758718 10.4096841,6.50417567 C10.4096841,6.50417567 12.1947356,5.99641881 14.2342038,8.78701373 C14.2342038,8.78701373 13.9798317,5.23493917 10.6649455,4.98179448 C6.58507538,4.72878319 4.79953464,8.02749072 4.79953464,8.02749072 C4.79953464,8.02749072 1.73875377,12.8487573 6.58329662,14.8776947 C10.9179836,16.1455527 12.4484407,13.3543352 12.4484407,13.3543352 C12.4484407,13.3543352 13.7237253,11.5780533 12.4491522,9.29477059 C12.4491522,9.29477059 12.4490188,10.055939 11.938985,10.3097507 C11.938985,10.3097507 11.9391184,9.54858232 11.1741789,9.29499294 C11.1741789,9.29499294 11.4287289,11.8321763 8.62383203,11.5789427 C8.62383203,11.5789427 9.38859367,12.8474233 10.9185617,12.8471564 Z" id="Path-5" fill="#FFFFFF" fill-rule="nonzero" transform="translate(9.04, 10.088) rotate(2) translate(-9.04, -10.088)"></path>
            <path d="M5.61187123,4.4684127 L5.61187123,4.08938438 L5.89385365,4.08938438 C5.98418568,4.08938438 6.0511209,4.06344444 6.09465931,4.01156455 C6.13819772,3.95968467 6.15996693,3.89875124 6.15996693,3.82876426 C6.15996693,3.74738405 6.13555287,3.68421266 6.08672474,3.6392501 C6.03789662,3.59428753 5.97360625,3.57180625 5.89385365,3.57180625 L5.89385365,3.57180625 L5.49041127,3.57180625 L5.49041127,4.4684127 L5.61187123,4.4684127 Z M5.85357045,3.98684531 L5.61187123,3.98684531 L5.61187123,3.67617637 L5.85357045,3.67617637 C5.90036407,3.67617637 5.93718861,3.68248334 5.96404408,3.69509727 C6.0128722,3.71869753 6.03728627,3.76345664 6.03728627,3.82937461 C6.03728627,3.88796836 6.02029815,3.92886192 5.98632191,3.95205528 C5.95234567,3.97524863 5.90809518,3.98684531 5.85357045,3.98684531 L5.85357045,3.98684531 Z M6.67998646,4.4684127 C6.83379505,4.4684127 6.94223418,4.40046022 7.00530384,4.26455528 C7.04111114,4.18765098 7.05901478,4.10159141 7.05901478,4.00637656 C7.05901478,3.88308555 7.02870065,3.78197064 6.9680724,3.70303184 C6.90011992,3.61554811 6.80449818,3.57180625 6.68120716,3.57180625 L6.68120716,3.57180625 L6.31804798,3.57180625 L6.31804798,4.4684127 L6.67998646,4.4684127 Z M6.6567931,4.36465293 L6.4401183,4.36465293 L6.4401183,3.67617637 L6.6555724,3.67617637 C6.75363555,3.67617637 6.82474151,3.7068974 6.86889027,3.76833945 C6.91303903,3.82978151 6.93511341,3.91604453 6.93511341,4.02712852 C6.93511341,4.05601849 6.93206166,4.08734987 6.92595814,4.12112266 C6.91537871,4.1776819 6.89808542,4.22406862 6.87407826,4.26028281 C6.84396758,4.30544883 6.80531198,4.33596641 6.75811146,4.35183555 C6.73166289,4.36038047 6.69789011,4.36465293 6.6567931,4.36465293 L6.6567931,4.36465293 Z M7.34832142,4.4684127 L7.34832142,4.06069785 L7.7883849,4.06069785 L7.7883849,3.95388633 L7.34832142,3.95388633 L7.34832142,3.68166953 L7.8488097,3.68166953 L7.8488097,3.57180625 L7.22686146,3.57180625 L7.22686146,4.4684127 L7.34832142,4.4684127 Z M8.46221302,4.4684127 L8.46221302,4.08389121 L8.73870228,4.08389121 C8.78834421,4.08389121 8.82476185,4.08938438 8.84795521,4.1003707 C8.88864532,4.12030886 8.91041452,4.15957481 8.91326283,4.21816856 L8.91326283,4.21816856 L8.92058705,4.36770469 C8.92221465,4.40269818 8.92424916,4.42629844 8.92669056,4.43850547 C8.92913197,4.4507125 8.93238718,4.46068158 8.93645619,4.4684127 L8.93645619,4.4684127 L9.08538197,4.4684127 L9.08538197,4.4482711 C9.06666452,4.44013307 9.05364369,4.42182253 9.04631947,4.39333945 C9.04184356,4.37665651 9.03899525,4.3512252 9.03777455,4.31704551 L9.03777455,4.31704551 L9.03350209,4.19680625 C9.03146758,4.14472292 9.02160023,4.10708457 9.00390004,4.08389121 C8.98619984,4.06069785 8.959853,4.04198041 8.92485951,4.02773887 C8.96473581,4.00698692 8.99576201,3.9795211 9.01793812,3.94534141 C9.04011423,3.91116172 9.05120228,3.86721641 9.05120228,3.81350547 C9.05120228,3.71055951 9.00908802,3.63996218 8.92485951,3.60171348 C8.88050729,3.58177533 8.8241515,3.57180625 8.75579212,3.57180625 L8.75579212,3.57180625 L8.34075306,3.57180625 L8.34075306,4.4684127 L8.46221302,4.4684127 Z M8.74297474,3.98257285 L8.46221302,3.98257285 L8.46221302,3.67617637 L8.75884388,3.67617637 C8.80034779,3.67617637 8.83351022,3.68227988 8.85833119,3.69448692 C8.90471791,3.71768028 8.92791127,3.76121869 8.92791127,3.82510215 C8.92791127,3.8845097 8.91133005,3.92560671 8.87816761,3.94839317 C8.84500518,3.97117962 8.79994089,3.98257285 8.74297474,3.98257285 L8.74297474,3.98257285 Z M9.90325306,4.4684127 L9.90325306,4.36160117 L9.35881947,4.36160117 L9.35881947,4.0576461 L9.85381459,4.0576461 L9.85381459,3.95388633 L9.35881947,3.95388633 L9.35881947,3.68166953 L9.89409779,3.68166953 L9.89409779,3.57180625 L9.24041127,3.57180625 L9.24041127,4.4684127 L9.90325306,4.4684127 Z M10.1101622,4.4684127 L10.2072081,4.19985801 L10.5618224,4.19985801 L10.6527648,4.4684127 L10.7858214,4.4684127 L10.460504,3.57180625 L10.3231749,3.57180625 L9.98565052,4.4684127 L10.1101622,4.4684127 Z M10.5227599,4.10098106 L10.2419982,4.10098106 L10.3866515,3.70486289 L10.5227599,4.10098106 Z M11.2637267,4.4684127 C11.4175353,4.4684127 11.5259744,4.40046022 11.5890441,4.26455528 C11.6248514,4.18765098 11.642755,4.10159141 11.642755,4.00637656 C11.642755,3.88308555 11.6124409,3.78197064 11.5518126,3.70303184 C11.4838602,3.61554811 11.3882384,3.57180625 11.2649474,3.57180625 L11.2649474,3.57180625 L10.9017882,3.57180625 L10.9017882,4.4684127 L11.2637267,4.4684127 Z M11.2405333,4.36465293 L11.0238585,4.36465293 L11.0238585,3.67617637 L11.2393126,3.67617637 C11.3373758,3.67617637 11.4084817,3.7068974 11.4526305,3.76833945 C11.4967793,3.82978151 11.5188536,3.91604453 11.5188536,4.02712852 C11.5188536,4.05601849 11.5158019,4.08734987 11.5096984,4.12112266 C11.4991189,4.1776819 11.4818257,4.22406862 11.4578185,4.26028281 C11.4277078,4.30544883 11.3890522,4.33596641 11.3418517,4.35183555 C11.3154031,4.36038047 11.2816303,4.36465293 11.2405333,4.36465293 L11.2405333,4.36465293 Z M12.4734435,4.4684127 L12.4734435,4.36160117 L11.9290099,4.36160117 L11.9290099,4.0576461 L12.424005,4.0576461 L12.424005,3.95388633 L11.9290099,3.95388633 L11.9290099,3.68166953 L12.4642882,3.68166953 L12.4642882,3.57180625 L11.8106017,3.57180625 L11.8106017,4.4684127 L12.4734435,4.4684127 Z M12.7688536,4.4684127 L12.7688536,4.08389121 L13.0453429,4.08389121 C13.0949848,4.08389121 13.1314025,4.08938438 13.1545958,4.1003707 C13.1952859,4.12030886 13.2170551,4.15957481 13.2199035,4.21816856 L13.2199035,4.21816856 L13.2272277,4.36770469 C13.2288553,4.40269818 13.2308898,4.42629844 13.2333312,4.43850547 C13.2357726,4.4507125 13.2390278,4.46068158 13.2430968,4.4684127 L13.2430968,4.4684127 L13.3920226,4.4684127 L13.3920226,4.4482711 C13.3733051,4.44013307 13.3602843,4.42182253 13.3529601,4.39333945 C13.3484842,4.37665651 13.3456359,4.3512252 13.3444152,4.31704551 L13.3444152,4.31704551 L13.3401427,4.19680625 C13.3381082,4.14472292 13.3282409,4.10708457 13.3105407,4.08389121 C13.2928405,4.06069785 13.2664936,4.04198041 13.2315001,4.02773887 C13.2713764,4.00698692 13.3024026,3.9795211 13.3245787,3.94534141 C13.3467549,3.91116172 13.3578429,3.86721641 13.3578429,3.81350547 C13.3578429,3.71055951 13.3157286,3.63996218 13.2315001,3.60171348 C13.1871479,3.58177533 13.1307921,3.57180625 13.0624327,3.57180625 L13.0624327,3.57180625 L12.6473937,3.57180625 L12.6473937,4.4684127 L12.7688536,4.4684127 Z M13.0496154,3.98257285 L12.7688536,3.98257285 L12.7688536,3.67617637 L13.0654845,3.67617637 C13.1069884,3.67617637 13.1401508,3.68227988 13.1649718,3.69448692 C13.2113585,3.71768028 13.2345519,3.76121869 13.2345519,3.82510215 C13.2345519,3.8845097 13.2179707,3.92560671 13.1848082,3.94839317 C13.1516458,3.97117962 13.1065815,3.98257285 13.0496154,3.98257285 L13.0496154,3.98257285 Z" id="PDFREADER" fill="#FFFFFF" fill-rule="nonzero" transform="translate(9.4412, 4.0201) rotate(3) translate(-9.4412, -4.0201)"></path>
        </g>
    </g>
</svg>