<?xml version="1.0" encoding="UTF-8"?>
<svg width="24px" height="24px" viewBox="0 0 24 24" version="1.1" xmlns="http://www.w3.org/2000/svg" xmlns:xlink="http://www.w3.org/1999/xlink">
    <title>com.qq.weixin.work.deepin</title>
    <defs>
        <filter x="-7.7%" y="-7.7%" width="115.4%" height="115.4%" filterUnits="objectBoundingBox" id="filter-1">
            <feOffset dx="0" dy="0" in="SourceAlpha" result="shadowOffsetOuter1"></feOffset>
            <feGaussianBlur stdDeviation="0.5" in="shadowOffsetOuter1" result="shadowBlurOuter1"></feGaussianBlur>
            <feColorMatrix values="0 0 0 0 0   0 0 0 0 0   0 0 0 0 0  0 0 0 0.15 0" type="matrix" in="shadowBlurOuter1" result="shadowMatrixOuter1"></feColorMatrix>
            <feMerge>
                <feMergeNode in="shadowMatrixOuter1"></feMergeNode>
                <feMergeNode in="SourceGraphic"></feMergeNode>
            </feMerge>
        </filter>
        <linearGradient x1="50%" y1="0%" x2="50%" y2="98.1385523%" id="linearGradient-2">
            <stop stop-color="#FAFAFA" offset="0%"></stop>
            <stop stop-color="#EDEDED" offset="100%"></stop>
        </linearGradient>
        <linearGradient x1="50%" y1="0%" x2="50%" y2="98.3200393%" id="linearGradient-3">
            <stop stop-color="#0383F0" offset="0%"></stop>
            <stop stop-color="#0182F0" offset="100%"></stop>
        </linearGradient>
    </defs>
    <g id="com.qq.weixin.work.deepin" stroke="none" stroke-width="1" fill="none" fill-rule="evenodd">
        <g id="编组" filter="url(#filter-1)" transform="translate(2.25, 2.25)">
            <path d="M4,0 L15.5,0 C17.709139,-4.05812251e-16 19.5,1.790861 19.5,4 L19.5,15.5 C19.5,17.709139 17.709139,19.5 15.5,19.5 L4,19.5 C1.790861,19.5 2.705415e-16,17.709139 0,15.5 L0,4 C-2.705415e-16,1.790861 1.790861,4.05812251e-16 4,0 Z" id="Rectangle-2" fill="url(#linearGradient-2)"></path>
            <g id="编组-7" transform="translate(1.1008, 2.594)">
                <path d="M11.7178368,11.5417251 C11.622863,11.6345377 11.622863,11.7844659 11.7130881,11.8772786 C11.7225855,11.8891776 11.7344572,11.8986969 11.7487033,11.9058363 C12.2734336,12.391318 12.612965,13.0457664 12.7079388,13.7549504 C12.8551482,14.2880284 13.4131194,14.6045434 13.9520958,14.4569951 C14.4863235,14.3165861 14.8044858,13.7692293 14.6643994,13.2361514 C14.6643994,13.2337716 14.6620251,13.2313917 14.6620251,13.2266321 C14.5504309,12.8268237 14.2037764,12.5341068 13.7906403,12.49365 C13.1258236,12.3722795 12.5203655,12.036726 12.0621169,11.5393452 C11.9647687,11.4489124 11.8128106,11.4489124 11.7178368,11.5417251 L11.7178368,11.5417251 Z" id="路径" fill="#FB6501"></path>
                <path d="M6.35893925,0.0472319168 C4.54493936,0.244756333 2.89714366,1.01343569 1.71471965,2.21286106 C1.25409665,2.67454463 0.87182704,3.20762258 0.579782557,3.79067658 C-0.315345657,5.57315595 -0.165761897,7.70308791 0.971549547,9.34039873 C1.29208617,9.8211208 1.8215652,10.4208335 2.30355731,10.8468199 L2.08511754,12.543626 L2.06137408,12.6150204 C2.05425105,12.6364387 2.05425105,12.6602368 2.0518767,12.6816551 L2.04712801,12.7363908 L2.0518767,12.7911265 C2.08036885,13.0933626 2.34866987,13.3146852 2.65021174,13.2885072 C2.73331383,13.2813678 2.81166723,13.2551899 2.88289759,13.2147331 L2.89239497,13.2147331 L2.92563581,13.1909349 L3.44799179,12.9339152 L5.00318803,12.1604762 C5.74160944,12.3698997 6.508523,12.4746115 7.27781091,12.4698518 C8.22754907,12.4722316 9.17253854,12.3104044 10.0676668,11.9891298 C9.62128982,11.846341 9.33399402,11.4108354 9.37910659,10.9420124 C8.45311188,11.2371091 7.47488158,11.3323016 6.51089735,11.22521 L6.3565649,11.2037917 C6.00753613,11.1585753 5.66325604,11.0871809 5.326099,10.9919884 C5.14090006,10.9348729 4.94382939,10.9562912 4.77287652,11.0491039 L4.7301383,11.0705222 L3.45036614,11.8154035 L3.39575619,11.8487208 C3.3648897,11.8653795 3.35064363,11.872519 3.33402321,11.872519 C3.28653631,11.8701391 3.25092112,11.8296823 3.25329547,11.7820861 L3.30078238,11.5869415 L3.35776667,11.3751382 L3.45036614,11.0253058 L3.55721168,10.6350166 C3.62844204,10.4160739 3.55008864,10.1780926 3.36251536,10.0448232 C2.86152848,9.67595226 2.42464893,9.22616774 2.07087146,8.7121283 C1.17099456,7.42227006 1.04990294,5.74212262 1.75508353,4.33803339 C1.99014372,3.87397 2.29880862,3.44798361 2.66683216,3.07911272 C3.63793942,2.08911082 5.00081368,1.45846058 6.51089735,1.29663334 C7.03325334,1.23951785 7.56035801,1.23951785 8.082714,1.29663334 C9.58330029,1.46797983 10.9414259,2.10576951 11.9077844,3.09101178 C12.2734336,3.4646423 12.5773498,3.89062869 12.8076613,4.35707189 C13.1044545,4.94726533 13.258787,5.60171369 13.2611613,6.2633015 C13.2611613,6.33231605 13.2540383,6.40133061 13.2516639,6.46796535 C13.6505539,6.2252245 14.1634126,6.28471981 14.4958209,6.6131339 L14.5409335,6.66786958 C14.6192869,5.68738693 14.4269649,4.70452448 13.987711,3.82399395 C13.7004152,3.24093995 13.3205199,2.71024182 12.8646456,2.24617843 C11.6181143,1.00867606 9.98219032,0.239996709 8.23704645,0.0638906025 C7.61021927,-0.0170230138 6.98101774,-0.0194028261 6.35893925,0.0472319168 L6.35893925,0.0472319168 Z" id="路径" fill="url(#linearGradient-3)" fill-rule="nonzero"></path>
                <path d="M16.2884517,9.69499075 C16.1174988,9.74020719 15.960792,9.83064005 15.8325774,9.9567701 L15.830203,9.9567701 C15.6663732,10.1185973 15.5642763,10.3304006 15.5405329,10.5588626 C15.4170669,11.2204504 15.0775355,11.8225429 14.578923,12.2723274 C14.4839492,12.3627603 14.4815748,12.5126884 14.5718,12.6078809 L14.5741743,12.6102608 C14.6691481,12.7054532 14.8234806,12.7078331 14.9208287,12.6126406 C14.9327005,12.6007415 14.9421978,12.5912223 14.9493209,12.5769434 C15.4455591,12.0557645 16.1056271,11.720211 16.8179307,11.6297781 C17.3592815,11.4846096 17.6774437,10.9348729 17.5326087,10.401795 C17.3853993,9.86633723 16.8298024,9.54982221 16.2884517,9.69499075 L16.2884517,9.69499075 Z" id="路径" fill="#0182F0"></path>
                <path d="M12.4800017,8.69546961 L12.4633813,8.7121283 C11.9671431,9.25234568 11.2952033,9.59979826 10.5662793,9.69261094 C10.0296772,9.83301986 9.70676625,10.3756171 9.84922697,10.908695 C9.89433954,11.0824213 9.98931335,11.2418687 10.117528,11.3679988 C10.5140437,11.758288 11.1551169,11.758288 11.5516326,11.3656189 C11.7130881,11.2037917 11.815185,10.9919884 11.8413028,10.7659063 C11.9671431,10.1043185 12.3066745,9.50222596 12.8076613,9.05244145 C12.9050095,8.96438839 12.9145069,8.81446022 12.8290304,8.71688792 L12.8266561,8.71450811 C12.7316823,8.61455599 12.5797242,8.60741656 12.4800017,8.69546961 L12.4800017,8.69546961 Z" id="路径" fill="#FFCC01"></path>
                <path d="M13.4202424,6.87253343 C13.2516639,6.91774986 13.0973315,7.00818273 12.9762399,7.12955315 C12.5868472,7.51508274 12.5820985,8.14335317 12.9667425,8.53364238 L12.9786142,8.54554144 C13.142444,8.70736867 13.3561351,8.80732079 13.5840723,8.83349872 C14.248889,8.95486915 14.8567214,9.28804286 15.3149701,9.78304381 C15.4099439,9.8782363 15.561902,9.8782363 15.6568758,9.78542362 C15.7518496,9.69499075 15.754224,9.54506258 15.6639988,9.44987009 C15.6521271,9.43797103 15.637881,9.42607197 15.623635,9.41655272 C15.0989046,8.93107102 14.7593732,8.27900247 14.6643994,7.56981842 C14.5195644,7.03674048 13.9615932,6.72498507 13.4202424,6.87253343 L13.4202424,6.87253343 Z" id="路径" fill="#2DBD00"></path>
            </g>
        </g>
    </g>
</svg>