<?xml version="1.0" encoding="UTF-8"?>
<svg width="24px" height="24px" viewBox="0 0 24 24" version="1.1" xmlns="http://www.w3.org/2000/svg" xmlns:xlink="http://www.w3.org/1999/xlink">
    <title>com.xunlei.download</title>
    <defs>
        <filter x="-7.7%" y="-7.7%" width="115.4%" height="115.4%" filterUnits="objectBoundingBox" id="filter-1">
            <feOffset dx="0" dy="0" in="SourceAlpha" result="shadowOffsetOuter1"></feOffset>
            <feGaussianBlur stdDeviation="0.5" in="shadowOffsetOuter1" result="shadowBlurOuter1"></feGaussianBlur>
            <feColorMatrix values="0 0 0 0 0   0 0 0 0 0   0 0 0 0 0  0 0 0 0.15 0" type="matrix" in="shadowBlurOuter1" result="shadowMatrixOuter1"></feColorMatrix>
            <feMerge>
                <feMergeNode in="shadowMatrixOuter1"></feMergeNode>
                <feMergeNode in="SourceGraphic"></feMergeNode>
            </feMerge>
        </filter>
        <linearGradient x1="43.4082031%" y1="100%" x2="43.4082031%" y2="-4.17292668%" id="linearGradient-2">
            <stop stop-color="#E7EBFF" offset="0%"></stop>
            <stop stop-color="#FFFFFF" offset="100%"></stop>
        </linearGradient>
        <linearGradient x1="100%" y1="50%" x2="16.897061%" y2="50%" id="linearGradient-3">
            <stop stop-color="#6EAFFF" offset="0%"></stop>
            <stop stop-color="#7D62FF" offset="100%"></stop>
        </linearGradient>
        <linearGradient x1="50%" y1="12.4477137%" x2="50%" y2="95.5506688%" id="linearGradient-4">
            <stop stop-color="#5FA7FF" offset="0%"></stop>
            <stop stop-color="#CB70FF" offset="100%"></stop>
        </linearGradient>
    </defs>
    <g id="com.xunlei.download" stroke="none" stroke-width="1" fill="none" fill-rule="evenodd">
        <g id="编组" filter="url(#filter-1)" transform="translate(2.25, 2.25)">
            <path d="M16.5026011,19.5 L2.99739894,19.5 C1.34467021,19.5 0,18.1553298 0,16.5026011 L0,2.99739894 C0,1.34467021 1.34467021,0 2.99739894,0 L16.5023936,0 C18.1553298,0 19.5,1.34467021 19.5,2.99739894 L19.5,16.5023936 C19.5,18.1553298 18.1553298,19.5 16.5026011,19.5 Z" id="路径" fill="url(#linearGradient-2)" fill-rule="nonzero"></path>
            <path d="M9.61763922,12.2065745 C9.27451237,11.970134 9.9417309,11.8893351 10.9695374,10.3585216 C11.767521,9.1700059 12.6714818,8.6966914 12.700586,8.70160016 C13.3863465,8.81726178 14.8529996,9.13500317 15.9748475,9.52551374 C17.0577846,9.90247964 18.1080314,10.4940591 17.965265,10.5237132 C17.1826722,10.686266 15.7130176,10.8092302 14.5262391,11.0719615 C13.60339,11.2762636 12.5269674,11.5295479 11.6994568,11.7899486 C11.310154,11.9124542 10.8614876,12.0505529 10.5541321,12.1303111 C10.5413748,12.1336216 10.5075948,12.2034116 10.4950501,12.2065745 C9.90459501,12.3554485 9.76885109,12.3107615 9.61763922,12.2065745 Z" id="Fill-3" fill="url(#linearGradient-3)"></path>
            <path d="M9.67504279,14.4074717 C8.57787482,13.6992198 6.49157111,12.8960582 5.56517951,11.8258067 C4.6387879,10.7555552 4.50758877,10.3381812 4.38022986,9.49902707 C4.30412273,8.99737602 4.34838025,8.49335402 4.44507502,7.99067555 C4.53536826,7.52126926 4.5123735,6.79480002 4.20324103,6.14105329 C3.67254035,5.01873884 0.996270814,3.89886579 0.771661439,3.70648298 C1.02452202,3.68368245 2.99492556,4.35739301 3.70928351,4.5856944 C4.23447791,4.75354108 4.19709841,4.56651811 4.54625861,4.48468122 C5.47902531,4.26600166 6.53433114,4.91645424 6.87230841,5.27343854 C6.91660544,5.32022506 7.74079801,6.34552645 7.78549019,6.40594587 C8.24067086,6.06358236 7.71050421,6.27270612 10.1537415,4.68444928 C12.5969788,3.09619245 14.8287975,2.29345807 16.9836945,1.59405413 C16.9945855,1.59056235 16.2393464,2.65808051 15.592096,3.70648298 C15.1782521,4.37681865 14.8060148,5.14638417 14.7147156,5.27343854 C14.841877,5.29248508 15.2090178,5.11077628 15.3362977,5.12982282 C14.8285612,5.86153394 13.5823914,7.8780528 11.828612,10.6953746 C11.6484835,10.9847382 11.281213,11.263852 10.7268006,11.5327159 C10.7762277,11.6536242 11.1137919,12.4967866 11.6809632,13.6992198 C11.8585693,14.0757542 12.4445406,15.1712167 12.8738953,16.1472178 C13.2665485,17.0397896 13.5121077,17.8312661 13.5258729,17.9059459 C11.8774005,16.1667066 10.5937905,15.0005485 9.67504279,14.4074717 Z" id="Fill-3" fill="url(#linearGradient-4)"></path>
        </g>
    </g>
</svg>