<?xml version="1.0" encoding="UTF-8"?>
<svg width="24px" height="24px" viewBox="0 0 24 24" version="1.1" xmlns="http://www.w3.org/2000/svg" xmlns:xlink="http://www.w3.org/1999/xlink">
    <title>com.qq.browser</title>
    <defs>
        <filter x="-7.5%" y="-7.5%" width="115.0%" height="115.0%" filterUnits="objectBoundingBox" id="filter-1">
            <feOffset dx="0" dy="0" in="SourceAlpha" result="shadowOffsetOuter1"></feOffset>
            <feGaussianBlur stdDeviation="0.5" in="shadowOffsetOuter1" result="shadowBlurOuter1"></feGaussianBlur>
            <feColorMatrix values="0 0 0 0 0   0 0 0 0 0   0 0 0 0 0  0 0 0 0.15 0" type="matrix" in="shadowBlurOuter1" result="shadowMatrixOuter1"></feColorMatrix>
            <feMerge>
                <feMergeNode in="shadowMatrixOuter1"></feMergeNode>
                <feMergeNode in="SourceGraphic"></feMergeNode>
            </feMerge>
        </filter>
        <linearGradient x1="97.612%" y1="32.363%" x2="22.886%" y2="65.68%" id="linearGradient-2">
            <stop stop-color="#0275E4" offset="0%"></stop>
            <stop stop-color="#00B8FF" offset="100%"></stop>
        </linearGradient>
        <linearGradient x1="78.434%" y1="56.197%" x2="17.666%" y2="26.894%" id="linearGradient-3">
            <stop stop-color="#FFFFFF" offset="0%"></stop>
            <stop stop-color="#7CD7FB" offset="53.027%"></stop>
            <stop stop-color="#01A6F8" stop-opacity="0" offset="100%"></stop>
        </linearGradient>
    </defs>
    <g id="com.qq.browser" stroke="none" stroke-width="1" fill="none" fill-rule="evenodd">
        <g id="QQ浏览器" filter="url(#filter-1)" transform="translate(2, 2)" fill-rule="nonzero">
            <path d="M9.84375,19.6875 C4.407197,19.6875 0,15.280303 0,9.84375 C0,4.407197 4.407197,0 9.84375,0 C15.280303,0 19.6875,4.407197 19.6875,9.84375 C19.6875,15.280303 15.280303,19.6875 9.84375,19.6875 Z M9.84375,14.90625 C12.6396916,14.90625 14.90625,12.6396916 14.90625,9.84375 C14.90625,7.04780845 12.6396916,4.78125 9.84375,4.78125 C7.04780845,4.78125 4.78125,7.04780845 4.78125,9.84375 C4.78125,12.6396916 7.04780845,14.90625 9.84375,14.90625 Z" id="形状" fill="url(#linearGradient-2)"></path>
            <path d="M8.16510252,14.6213037 C8.71209467,14.1056929 9.44538345,13.7903226 10.2513587,13.7903226 C10.2974177,13.7903226 10.3432394,13.7913525 10.3888025,13.7933909 C10.8094287,12.3240642 12.1474474,11.25 13.7330163,11.25 C15.3186454,11.25 16.6567056,12.3241458 17.0772781,13.7935583 C18.7038861,13.8682965 20,15.2283426 20,16.8951613 C20,18.5147701 18.776267,19.8447378 17.2146739,19.9873427 L17.2146739,20 L9.97282608,20 L9.97282608,19.9873427 C9.55381985,19.949079 9.15913803,19.8253305 8.80589373,19.6334393 C3.85719235,19.114894 6.03961325e-14,14.9297698 6.03961325e-14,9.84375 C6.03961325e-14,7.1328146 1.09585614,4.67783012 2.86874998,2.89761502 L6.2496183,6.27848335 C5.3419541,7.19345015 4.78125,8.45312035 4.78125,9.84375 C4.78125,12.0513009 6.19421753,13.9288354 8.16510252,14.6213037 Z" id="路径" fill="url(#linearGradient-3)"></path>
        </g>
    </g>
</svg>