<?xml version="1.0" encoding="UTF-8"?>
<svg width="24px" height="24px" viewBox="0 0 24 24" version="1.1" xmlns="http://www.w3.org/2000/svg" xmlns:xlink="http://www.w3.org/1999/xlink">
    <title>com.qq.music.deepin</title>
    <defs>
        <filter x="-7.1%" y="-6.9%" width="114.3%" height="113.8%" filterUnits="objectBoundingBox" id="filter-1">
            <feOffset dx="0" dy="0" in="SourceAlpha" result="shadowOffsetOuter1"></feOffset>
            <feGaussianBlur stdDeviation="0.5" in="shadowOffsetOuter1" result="shadowBlurOuter1"></feGaussianBlur>
            <feColorMatrix values="0 0 0 0 0   0 0 0 0 0   0 0 0 0 0  0 0 0 0.15 0" type="matrix" in="shadowBlurOuter1" result="shadowMatrixOuter1"></feColorMatrix>
            <feMerge>
                <feMergeNode in="shadowMatrixOuter1"></feMergeNode>
                <feMergeNode in="SourceGraphic"></feMergeNode>
            </feMerge>
        </filter>
        <linearGradient x1="17.758%" y1="16.341%" x2="83.819%" y2="84.656%" id="linearGradient-2">
            <stop stop-color="#FEF391" offset="0%"></stop>
            <stop stop-color="#F9B937" offset="100%"></stop>
        </linearGradient>
        <linearGradient x1="12.541%" y1="14.993%" x2="83.347%" y2="88.995%" id="linearGradient-3">
            <stop stop-color="#F4E177" offset="0%"></stop>
            <stop stop-color="#F6B139" offset="100%"></stop>
        </linearGradient>
        <linearGradient x1="43.604%" y1="-16.887%" x2="50%" y2="106.108398%" id="linearGradient-4">
            <stop stop-color="#84FFC3" offset="0%"></stop>
            <stop stop-color="#00C455" offset="100%"></stop>
        </linearGradient>
    </defs>
    <g id="com.qq.music.deepin" stroke="none" stroke-width="1" fill="none" fill-rule="evenodd">
        <g id="qq音乐" filter="url(#filter-1)" transform="translate(1.5, 1.125)" fill-rule="nonzero">
            <circle id="椭圆形" fill="url(#linearGradient-2)" cx="10.5" cy="11.25" r="10.25"></circle>
            <path d="M10.5,0.75 C4.70101012,0.75 0,5.45101012 0,11.25 C0,17.0489899 4.70101012,21.75 10.5,21.75 C16.2989899,21.75 21,17.0489899 21,11.25 C21,5.45101012 16.2989899,0.75 10.5,0.75 Z M10.5,0.994186047 C16.1641296,0.994186047 20.7558139,5.58587035 20.7558139,11.25 C20.7558139,16.9141296 16.1641296,21.5058139 10.5,21.5058139 C4.83587035,21.5058139 0.244186046,16.9141296 0.244186046,11.25 C0.244186046,5.58587035 4.83587035,0.994186047 10.5,0.994186047 Z" id="形状" fill="url(#linearGradient-3)"></path>
            <g id="qq音乐-e-link" transform="translate(5.75, 0)" fill="url(#linearGradient-4)">
                <path d="M7.98705056,0 C8.50547278,1.91498331 8.24393551,3.3154805 7.20243871,4.20149158 C6.17524508,5.0753348 4.71647198,5.4172506 3.42710976,5.3411905 C3.25750616,5.3311855 7.75996998,12.2220684 8.52128611,13.5512981 L8.52725898,13.5621849 C8.78422666,13.8897528 8.98199466,14.2592811 9.10478163,14.6631821 C9.73316206,16.7302047 8.26397383,19.0142121 5.82325788,19.7646554 C3.38254193,20.5150987 0.772427856,19.4076708 0.144047431,17.3406482 C-0.484332994,15.2736256 1.00281256,12.9302538 3.44352851,12.1798105 C4.38520563,11.8902745 5.34942578,11.8861325 6.21470771,12.108976 C5.59534341,11.3177603 3.85514601,8.87116025 0.994132606,4.76949853 L0.994130331,4.76950013 C0.800463581,4.4918518 0.760411531,4.13507403 0.887695681,3.8213956 C1.30734291,2.78721903 2.40510113,2.08372238 4.18097041,1.71090566 C6.26573818,1.2732404 7.53443158,0.702938513 7.98705056,0 Z" id="qq音乐-e"></path>
            </g>
        </g>
    </g>
</svg>