<?xml version="1.0" encoding="UTF-8"?>
<svg width="24px" height="24px" viewBox="0 0 24 24" version="1.1" xmlns="http://www.w3.org/2000/svg" xmlns:xlink="http://www.w3.org/1999/xlink">
    <title>com.cctv.deepin</title>
    <defs>
        <filter x="-7.5%" y="-7.5%" width="115.0%" height="115.0%" filterUnits="objectBoundingBox" id="filter-1">
            <feOffset dx="0" dy="0" in="SourceAlpha" result="shadowOffsetOuter1"></feOffset>
            <feGaussianBlur stdDeviation="0.5" in="shadowOffsetOuter1" result="shadowBlurOuter1"></feGaussianBlur>
            <feColorMatrix values="0 0 0 0 0   0 0 0 0 0   0 0 0 0 0  0 0 0 0.15 0" type="matrix" in="shadowBlurOuter1" result="shadowMatrixOuter1"></feColorMatrix>
            <feMerge>
                <feMergeNode in="shadowMatrixOuter1"></feMergeNode>
                <feMergeNode in="SourceGraphic"></feMergeNode>
            </feMerge>
        </filter>
        <linearGradient x1="74.6548494%" y1="43.8407711%" x2="0%" y2="43.8407711%" id="linearGradient-2">
            <stop stop-color="#00D5D2" offset="0%"></stop>
            <stop stop-color="#0071E9" offset="100%"></stop>
        </linearGradient>
        <linearGradient x1="50%" y1="0%" x2="50%" y2="74.9835298%" id="linearGradient-3">
            <stop stop-color="#FFF112" offset="0%"></stop>
            <stop stop-color="#FF8900" offset="100%"></stop>
        </linearGradient>
        <linearGradient x1="50%" y1="0%" x2="50%" y2="88.4524753%" id="linearGradient-4">
            <stop stop-color="#FF1D90" offset="0%"></stop>
            <stop stop-color="#FF1215" offset="100%"></stop>
        </linearGradient>
    </defs>
    <g id="com.cctv.deepin" stroke="none" stroke-width="1" fill="none" fill-rule="evenodd">
        <g id="编组" filter="url(#filter-1)" transform="translate(2, 2)">
            <path d="M4.54747351e-13,3.5 L4.54747351e-13,16.5 C4.54967166e-13,18.2949254 1.45507456,19.75 3.25,19.75 L10.5,19.75 L10.5,19.75 L10.5,15.4000602 L9,15.4000602 C7.8954305,15.4000602 7,14.5046297 7,13.4000602 L7,6.5263076 C7,5.4217381 7.8954305,4.5263076 9,4.5263076 L10.5,4.5263076 L10.5,4.5263076 L10.5,0.25 L3.25,0.25 C1.45507456,0.25 4.54527536e-13,1.70507456 4.54747351e-13,3.5 Z" id="路径-27" fill="url(#linearGradient-2)"></path>
            <path d="M3,0 L17,0 C18.6568542,-3.04359188e-16 20,1.34314575 20,3 L20,7.04173743 C20,8.4224493 18.8807119,9.54173743 17.5,9.54173743 C17.0398873,9.54173743 16.588699,9.4147596 16.1961216,9.17478718 L4.17237123,1.82497838 C2.79710834,0.98431561 1.00074567,1.41769464 0.16008291,2.79295752 C0.100942554,2.88970683 0.0474909638,2.98982058 0,3.09278959 L0,3.09278959 L0,3.09278959 L0,3 C2.41183085e-16,1.34314575 1.34314575,7.48448398e-16 3,0 Z" id="路径-26" fill="url(#linearGradient-3)"></path>
            <path d="M3,8.5 L17,8.5 C18.6568542,8.5 20,9.84314575 20,11.5 L20,15.5417374 C20,16.9224493 18.8807119,18.0417374 17.5,18.0417374 C17.0398873,18.0417374 16.588699,17.9147596 16.1961216,17.6747872 L4.3674005,10.4441947 C2.93992926,9.57161836 1.07537225,10.0214495 0.202795868,11.4489208 C0.125674969,11.5750849 0.0578951484,11.7067264 0,11.8427896 L0,11.8427896 L0,11.8427896 L0,11.5 C-2.02906125e-16,9.84314575 1.34314575,8.5 3,8.5 Z" id="路径-26" fill="url(#linearGradient-4)" transform="translate(10, 14.25) scale(1, -1) translate(-10, -14.25)"></path>
        </g>
    </g>
</svg>