<?xml version="1.0" encoding="UTF-8"?>
<svg width="24px" height="24px" viewBox="0 0 24 24" version="1.1" xmlns="http://www.w3.org/2000/svg" xmlns:xlink="http://www.w3.org/1999/xlink">
    <title>com.qianxin.qaxsafe</title>
    <defs>
        <filter x="-7.5%" y="-7.5%" width="115.0%" height="115.0%" filterUnits="objectBoundingBox" id="filter-1">
            <feOffset dx="0" dy="0" in="SourceAlpha" result="shadowOffsetOuter1"></feOffset>
            <feGaussianBlur stdDeviation="0.5" in="shadowOffsetOuter1" result="shadowBlurOuter1"></feGaussianBlur>
            <feColorMatrix values="0 0 0 0 0   0 0 0 0 0   0 0 0 0 0  0 0 0 0.15 0" type="matrix" in="shadowBlurOuter1" result="shadowMatrixOuter1"></feColorMatrix>
            <feMerge>
                <feMergeNode in="shadowMatrixOuter1"></feMergeNode>
                <feMergeNode in="SourceGraphic"></feMergeNode>
            </feMerge>
        </filter>
    </defs>
    <g id="com.qianxin.qaxsafe" stroke="none" stroke-width="1" fill="none" fill-rule="evenodd">
        <g id="编组" filter="url(#filter-1)" transform="translate(2, 2)" fill-rule="nonzero">
            <rect id="矩形" fill="#033792" x="0" y="0" width="20" height="20" rx="4"></rect>
            <path d="M3.80821812,6 C3.82429835,6 3.83078231,6.00766504 3.82767001,6.02299511 L3.7770951,6.28015713 C3.77071569,6.31317609 3.7848002,6.34665718 3.81288657,6.36523905 C4.21203932,6.63044936 4.61547148,6.89450992 4.99517234,7.18348184 C5.43789732,7.52023251 5.87763967,7.86094344 6.3143994,8.20561464 C6.32529246,8.21404618 6.32671893,8.22388298 6.31867882,8.23512504 C6.24891138,8.329916 6.20559851,8.42905049 6.1887402,8.5325285 C6.14853963,8.78062023 6.11365591,9.0580946 6.08408904,9.36495161 C6.05296602,9.69148223 6.15528295,9.92794864 6.5338167,9.91376832 C6.82870733,9.90252627 7.00416336,9.77388138 7.0601848,9.52783367 C7.09714338,9.36571812 7.10297895,9.04340328 7.12009661,8.81498515 C7.12078702,8.80698534 7.12587623,8.80000329 7.13335024,8.79680205 C7.14082425,8.7936008 7.14947846,8.79469633 7.15588809,8.79965507 C7.4108375,8.99843505 7.69885513,9.12452493 8.01994096,9.17792469 C8.02634692,9.17905809 8.03183593,9.18310752 8.03468904,9.18880484 C8.03754215,9.19450216 8.03741051,9.20115077 8.03433536,9.20666858 C7.91645691,9.41439111 7.92384863,9.56385935 7.9121775,9.85858005 C7.90102508,10.1472965 7.89493016,10.4361407 7.89389272,10.7251126 C7.89285529,10.9693718 7.91477108,11.1399189 7.95964011,11.2367539 C8.04678457,11.4240363 8.2122553,11.5313468 8.45605229,11.5586854 C8.86739489,11.6046757 9.12649404,11.4765418 9.23334975,11.1742838 C9.26888186,11.0733608 9.28638856,10.8635943 9.28586985,10.5449842 C9.28535113,10.2570343 9.28872279,9.9697231 9.29598483,9.68305069 C9.29987521,9.53843697 9.27938588,9.39893328 9.23451686,9.26453962 C9.23242505,9.25820546 9.23349543,9.25126998 9.23740369,9.24583449 C9.24131195,9.240399 9.24759818,9.23710314 9.25435779,9.23694548 C9.51112271,9.23439047 9.76659084,9.21803839 10.0207622,9.18788924 C10.4751583,9.13385072 10.9805183,8.99856281 11.4539773,8.87975472 C11.9086328,8.76580116 12.3691238,8.68237999 12.8354504,8.62949123 C13.3977397,8.56587142 13.9211251,8.67126569 14.4056068,8.94567404 C14.412892,8.94965905 14.4169515,8.957637 14.4158333,8.96577171 C14.4147151,8.97390642 14.408648,8.98053346 14.4005493,8.98246623 L14.2970653,9.00852735 C14.2847687,9.01157556 14.2768385,9.02321093 14.2787805,9.03535499 L14.3211856,9.31512887 C14.3221967,9.3213281 14.3259604,9.32676062 14.331452,9.3299473 C14.3369436,9.33313398 14.3435914,9.33374306 14.3495854,9.3316087 L14.6024599,9.23771199 C14.6103513,9.2348008 14.6191597,9.23559866 14.6263146,9.23987274 C14.6334695,9.24414682 14.6381645,9.25141541 14.6390295,9.25955734 L14.7685791,10.351442 C14.7706539,10.3706046 14.7619654,10.3799304 14.7425135,10.3794194 L14.4826363,10.3729041 C14.4759959,10.3727827 14.4696078,10.3754081 14.4650238,10.3801424 C14.4604397,10.3848768 14.4580793,10.3912869 14.458516,10.3978155 L14.4732994,10.6476957 C14.4740775,10.6609818 14.4812098,10.6676248 14.4946965,10.6676248 L15.3439659,10.6745233 C15.3503704,10.6746557 15.3565302,10.6721002 15.360909,10.6674941 C15.3652877,10.662888 15.3674728,10.6566655 15.3669191,10.6503785 L15.3490234,10.4173613 C15.3478266,10.4033945 15.3362075,10.3926118 15.3221798,10.3924499 L15.1362197,10.3893839 C15.1165085,10.3891284 15.1054858,10.3792916 15.1031515,10.3598735 L14.9825498,9.36456836 C14.9809937,9.3523043 14.9846247,9.35051579 14.9934429,9.35920284 C15.3728844,9.72201463 15.6928031,10.1301779 15.9531991,10.5836926 C16.0867687,10.8167098 16.2130763,11.0536872 16.3321218,11.2946249 C16.4348278,11.5019642 16.5612651,11.7008719 16.7293294,11.8572387 C17.1101974,12.2121299 17.7252661,12.4187027 18.2065058,12.1906678 C18.5063242,12.0486091 18.648323,11.7722845 18.6325021,11.361694 C18.6304273,11.3039507 18.6085115,11.2416084 18.5667548,11.174667 C18.4302025,10.9558302 18.1213065,10.9259366 17.9007221,11.01945 C17.7178744,11.0972502 17.5225774,11.0198333 17.4681121,10.8297403 C17.3035491,10.2598448 17.9800858,10.0900642 18.3924658,10.142953 C18.5423751,10.1621156 18.6965637,10.2132158 18.8550317,10.2962537 C19.4203036,10.5925074 19.722586,11.1631695 19.6630632,11.7890198 C19.588757,12.5700872 19.0102578,13.23158 18.2644724,13.4377695 C18.0354589,13.5008783 17.7785642,13.5231069 17.4937886,13.5044553 C16.8949298,13.4653636 16.3378277,13.28383 15.8224824,12.9598544 C15.7451935,12.9113091 15.5760918,12.7788317 15.3151771,12.5624222 C15.2544872,12.5118329 15.2070246,12.5164319 15.1393321,12.5459423 C14.8339374,12.6785475 14.5647233,12.9307272 14.3379143,13.1660439 C14.0891894,13.4241002 13.8551184,13.6889272 13.6357011,13.9605251 C13.618278,13.9820728 13.5917859,13.9946281 13.5637291,13.9946345 L10.6358309,13.9988502 C10.5849966,13.9988502 10.5585421,13.9738111 10.5564672,13.9237329 C10.5393495,13.4860592 10.7482628,13.0177254 11.2590694,13.0035451 C11.5508477,12.995369 11.842626,12.9914088 12.1344044,12.9916643 C12.1771985,12.9916643 12.2192146,12.987193 12.2604526,12.9782505 C12.2746308,12.9752636 12.2857266,12.9643859 12.2888274,12.9504332 C12.2919283,12.9364806 12.2864613,12.9220306 12.274847,12.9134809 C12.1258455,12.8023378 11.9519456,12.6865958 11.8402918,12.5509246 C11.5856018,12.2410016 11.4945669,11.8802338 11.5671873,11.4686213 C11.5699219,11.4563621 11.5625063,11.4441221 11.5502554,11.4406739 C11.5380046,11.4372257 11.5251442,11.4437588 11.5208918,11.4555907 C11.3901751,11.7656415 11.3434906,12.1235987 11.5041632,12.4317333 C11.5411218,12.5034014 11.6142609,12.5796685 11.656666,12.6563189 C11.6658476,12.6730885 11.6657361,12.6933082 11.65637,12.7099785 C11.6470038,12.7266488 11.6296706,12.7374783 11.6103705,12.738718 C11.3516604,12.7548146 11.0614382,12.7379515 10.8369634,12.8146019 C10.4730834,12.9387755 10.2237102,13.1940213 10.0888438,13.5803392 C10.0409921,13.7175434 9.93322869,13.7608508 9.78539434,13.7620006 C9.50087805,13.7643001 9.2167508,13.7646833 8.93301259,13.7631503 C8.91952595,13.7628948 8.91265295,13.756124 8.91239359,13.742838 L8.87699116,11.9507521 C8.87703837,11.9403724 8.8689853,11.9316127 8.85831734,11.9304398 C8.76053918,11.9204752 8.66302039,11.918559 8.56576094,11.924691 C8.37046399,11.9373383 8.1728328,12.0369838 7.98609467,12.1121012 C7.97649139,12.1160426 7.9703176,12.1254696 7.97053316,12.1358628 L7.98181526,12.5129827 C7.98233398,12.5293347 7.99024441,12.5345725 8.00554656,12.528696 L8.41442525,12.3711795 C8.43906431,12.3617259 8.45177288,12.369902 8.45255095,12.3957076 L8.49301088,13.7447542 C8.4935296,13.7580403 8.48704564,13.7645556 8.47355899,13.7643001 C8.32105619,13.7640446 8.17088761,13.7636613 8.02305326,13.7631503 C7.84409589,13.7627671 7.74605837,13.6907157 7.70482037,13.5251509 C7.63972139,13.2660726 7.56671196,13.0000958 7.48579211,12.7272205 C7.48280267,12.7174133 7.47294542,12.7111275 7.46267169,12.7124769 C7.45239796,12.7138264 7.4448395,12.7223998 7.44494314,12.732586 C7.44157148,13.0034173 7.43845918,13.2802529 7.43560624,13.5630928 C7.43132682,13.9770049 7.16289077,14 6.80380891,14 C5.45825696,13.9997445 4.11270501,13.9983392 2.76715306,13.9957842 C2.7544445,13.9957842 2.7475715,13.9895244 2.74653406,13.9770049 C2.70140568,13.4695794 2.85040715,13.0119766 3.4495253,12.988215 C3.87668877,12.9710964 4.17170907,12.9532113 4.33458622,12.9345597 C4.40150071,12.9266392 4.47360238,12.8952125 4.55089121,12.8402798 C4.56126555,12.8328702 4.56684176,12.8227779 4.56761984,12.8100029 C4.5709915,12.7458721 4.55426287,12.6941331 4.51743397,12.6547859 C4.11309405,12.2227332 3.83934114,11.7204177 3.69617525,11.1478394 C3.60319522,10.7749353 3.53628072,10.3717543 3.36276988,10.0260611 C3.08305173,9.47034588 2.37344685,9.36456836 1.80661882,9.46421385 C1.54790871,9.50982083 1.36506096,9.54048098 1.2716919,9.27373766 C1.22059827,9.12861295 1.19920119,8.99345278 1.20750067,8.86825716 C1.21372527,8.77244419 1.22345121,8.72875347 1.15848191,8.64942033 C0.977579347,8.429817 0.874873377,8.2075309 0.849585922,7.924691 C0.838174148,7.79540736 0.799918767,7.67289451 0.734819781,7.55715244 C0.704993553,7.50375267 0.683596476,7.39031011 0.670463468,7.21682476 C0.669850475,7.2048162 0.674000211,7.19459615 0.683077759,7.18616461 C0.901716982,6.99032289 1.22811967,6.86883204 1.51250627,6.76420427 C1.66967753,6.70671649 1.74709604,6.58369263 1.81790092,6.44572195 C1.82334745,6.4347354 1.83138756,6.4261761 1.84202126,6.42004407 C1.87210685,6.40241449 1.89596783,6.39244994 1.91360421,6.39015043 C2.2455831,6.34262719 2.5793775,6.31516081 2.91498741,6.30775127 C3.02041665,6.30545176 3.14957719,6.18281115 3.23711068,6.12723963 C3.41101056,6.01609658 3.60864175,6.0007665 3.80821812,6 Z M4.66371217,11.863754 C4.65048488,11.871419 4.64426028,11.8827888 4.64503835,11.8978634 L4.65748756,12.1446776 C4.65826564,12.1625627 4.66721351,12.168567 4.68433117,12.1626904 L4.9566576,12.0695602 C4.97221911,12.0641947 4.98038891,12.069688 4.98116698,12.08604 C5.0016563,12.4501293 5.04587693,12.8115359 5.11382886,13.1702597 C5.114861,13.1760455 5.11324935,13.1819852 5.10942444,13.186492 C5.10559954,13.1909989 5.09995106,13.1936137 5.09398793,13.193638 L4.84967222,13.1932548 C4.84300494,13.1931941 4.83664037,13.1959924 4.8322339,13.2009219 C4.82782744,13.2058515 4.82581463,13.2124249 4.82671899,13.2189326 L4.85862009,13.4665134 C4.86069495,13.4833764 4.8704209,13.491808 4.88779792,13.491808 L5.70711145,13.493341 C5.71422346,13.4932865 5.72097233,13.4902384 5.72565576,13.4849655 C5.73033919,13.4796926 5.73251007,13.4726983 5.73162083,13.4657469 L5.70049781,13.2212322 C5.69872616,13.2062104 5.6856992,13.1948579 5.67015286,13.1947878 L5.47407783,13.1955543 C5.46177235,13.1955426 5.45126187,13.1868063 5.44917941,13.1748587 C5.36722212,12.7042254 5.32144535,12.2301428 5.31184908,11.7526109 C5.31170711,11.7402717 5.30214332,11.7300237 5.28967393,11.7288493 C5.06610689,11.7078982 4.85745297,11.7528664 4.66371217,11.863754 Z M12.8961403,10.6407972 C12.899512,10.9619622 12.9005494,11.2829996 12.8992526,11.6039092 C12.8984745,11.7418799 12.8817459,11.8924978 12.9334879,12.0193542 C13.1206151,12.47849 14.0068431,12.3627479 14.046525,11.8484239 C14.0680517,11.5668615 14.070386,11.2252563 14.0535277,10.8236083 C14.0475624,10.6797611 14.0329086,10.5773051 14.0095664,10.5162403 C13.8278857,10.0421577 12.8899157,10.0582543 12.8961403,10.6407972 Z M6.06502619,10.5185398 C6.05510919,10.524526 6.04895549,10.5350626 6.04868661,10.5465172 L6.04168393,10.8052122 C6.04116521,10.8238638 6.04985372,10.8299958 6.06774946,10.8236083 L6.35408125,10.7197471 C6.35878557,10.717964 6.36408166,10.7185988 6.36821467,10.7214412 C6.37234768,10.7242836 6.37477796,10.7289624 6.37470025,10.7339274 L6.37586737,11.8660535 C6.37586737,11.8841941 6.36678982,11.8931366 6.34863472,11.8928811 L6.10354093,11.8898151 C6.08590455,11.8895596 6.07708636,11.8982466 6.07708636,11.9158762 L6.08019867,12.1657564 C6.08020004,12.1795781 6.09163383,12.1908419 6.10587516,12.1910511 L6.95008711,12.1964346 C6.96564862,12.1966721 6.97317002,12.1891348 6.9726513,12.1738047 L6.96525958,11.927757 C6.96474086,11.9142155 6.9576085,11.9071892 6.9438625,11.9066782 L6.73961768,11.8990131 C6.72068451,11.8985021 6.71121792,11.8889208 6.71121792,11.8702692 L6.71705349,10.3801859 C6.71731285,10.3707323 6.71251471,10.3656223 6.70265909,10.3648558 C6.47338617,10.3485037 6.26084187,10.3997317 6.06502619,10.5185398 Z M9.80290104,10.0383252 C9.79226734,10.0449682 9.78720985,10.0544218 9.78772856,10.0666858 L9.79978873,10.3683051 C9.80012298,10.3745367 9.80345765,10.3802366 9.80876356,10.3836455 C9.81406947,10.3870544 9.82070876,10.3877626 9.82663234,10.3855514 L10.1604267,10.2579285 C10.1791006,10.2507745 10.1888265,10.257162 10.1896046,10.2770911 L10.2421247,11.7054709 C10.2429027,11.7225895 10.2346033,11.7311488 10.2172263,11.7311488 L9.89743721,11.7322986 C9.88369121,11.7322986 9.87694789,11.7389416 9.87720725,11.7522277 L9.88226474,12.0408163 C9.88268555,12.0546976 9.89423314,12.0657277 9.90833027,12.0657277 L10.8925958,12.0607454 C10.9089354,12.0607454 10.9169755,12.0526971 10.9167162,12.0366006 L10.9104916,11.7621922 C10.9100699,11.7461901 10.8966067,11.7334372 10.8801466,11.7334483 L10.6331076,11.7319153 C10.6248082,11.7319153 10.6205287,11.7278273 10.6202694,11.7196512 L10.5397386,9.90763629 C10.5389605,9.89000671 10.5296236,9.88016991 10.5117278,9.8781259 C10.2562597,9.85002076 10.0199841,9.90342052 9.80290104,10.0383252 Z M13.506086,10.5180489 C13.6005226,10.5177283 13.6773472,10.5940144 13.6776909,10.6884509 L13.6816314,11.800523 C13.6819178,11.8760751 13.6331511,11.9403567 13.5652796,11.9632186 L13.5112383,11.9721045 L13.4455271,11.9723283 C13.3510961,11.9726266 13.2742802,11.8963428 13.2739222,11.8019119 L13.2699819,10.6898741 C13.2696382,10.595434 13.3459258,10.5186039 13.4403659,10.5182693 L13.506086,10.5180489 Z M4.97494238,9.3515378 C4.77990478,9.3523043 4.59653831,9.40084954 4.42484298,9.49717352 C4.39449803,9.5140366 4.34236697,9.5236179 4.32641642,9.56999138 C4.31422657,9.60525055 4.30086961,9.6866277 4.28634553,9.81412283 C4.28453002,9.83226342 4.29192174,9.8377567 4.30852069,9.83060266 L4.5909621,9.71064482 C4.59722593,9.70804578 4.60442857,9.70900471 4.60976737,9.71314848 C4.61510617,9.71729225 4.61773793,9.7239664 4.6166386,9.73057392 C4.55153961,10.1020728 4.52119466,10.4761266 4.52560376,10.8527355 C4.52570749,10.8621886 4.52199477,10.8712951 4.51528244,10.8780513 C4.50857012,10.8848076 4.49940813,10.88866 4.48981228,10.8887611 L4.24510753,10.8906774 C4.22539628,10.8909329 4.21580002,10.9007697 4.21631874,10.9201878 L4.22176527,11.1520552 C4.22228398,11.1701958 4.23175057,11.1788828 4.25016502,11.1781163 L5.09554408,11.1451567 C5.11395854,11.1443902 5.12264705,11.1350644 5.12160961,11.1171793 L5.10799329,10.8749641 C5.10695586,10.859123 5.09852671,10.8517135 5.08270584,10.8527355 L4.87068026,10.864233 C4.86563198,10.8645511 4.86067551,10.8627947 4.85698968,10.8593816 C4.85330385,10.8559684 4.85121805,10.8512035 4.85122837,10.8462202 C4.8522658,10.3513142 4.90037681,9.86113506 4.99556138,9.37568267 C4.99673512,9.36966976 4.99509287,9.36345609 4.99109156,9.35877055 C4.98709025,9.35408501 4.98115689,9.35142763 4.97494238,9.3515378 Z M8.57147471,9.31117735 L8.65125001,9.31241192 C8.75320011,9.31390278 8.83799747,9.38408859 8.86233567,9.47824019 L8.86923116,9.53735182 L8.84656094,10.9590018 C8.84450646,11.081297 8.74381456,11.1788739 8.62151515,11.1770856 L8.54173985,11.175851 C8.41939972,11.174062 8.32175955,11.0733522 8.32365282,10.9510137 L8.34642891,9.52926113 C8.34848339,9.4069659 8.44917529,9.309389 8.57147471,9.31117735 Z M11.9087625,8.89891731 C11.5932528,8.94797356 11.563686,9.16412762 11.5773023,9.45003353 C11.5887141,9.69020472 11.5976619,9.93037591 11.6041459,10.1705471 C11.6075175,10.2939542 11.6197074,10.3824854 11.6407154,10.4361407 C11.8048894,10.8569512 12.5961922,10.801763 12.5849101,10.2862892 C12.5784261,9.98837469 12.553398,9.65328479 12.5098258,9.28101945 C12.4759795,8.99013126 12.1744752,8.85790936 11.9087625,8.89891731 Z M12.0688479,9.19300633 C12.1400202,9.1892091 12.2008241,9.2437646 12.2047365,9.31493069 L12.257329,10.2715814 C12.2612459,10.342829 12.2066635,10.4037619 12.1354159,10.4076788 L12.078581,10.4107112 C12.0074087,10.4145084 11.9466049,10.3599529 11.9426925,10.2887869 L11.8901,9.33213614 C11.8861831,9.26088853 11.9407654,9.19995568 12.012013,9.19603879 L12.0688479,9.19300633 Z M6.57894508,8.42521797 C6.64935962,8.43139208 6.71100511,8.46097706 6.75420069,8.50784305 C6.79739627,8.55470903 6.8186007,8.61501387 6.81314581,8.67548146 L6.74662036,9.40825908 C6.73518763,9.53402595 6.61383127,9.62613379 6.47546104,9.61406534 C6.45327838,9.6125106 6.43637384,9.60382372 6.42461272,9.58993466 C6.4128516,9.57604561 6.40720794,9.55810465 6.40893558,9.54009773 L6.50424983,8.48653828 C6.50774388,8.44931452 6.54114873,8.42189115 6.57894508,8.42521797 Z" id="形状结合" fill="#FDCE06"></path>
        </g>
    </g>
</svg>