<?xml version="1.0" encoding="UTF-8"?>
<svg width="24px" height="24px" viewBox="0 0 24 24" version="1.1" xmlns="http://www.w3.org/2000/svg" xmlns:xlink="http://www.w3.org/1999/xlink">
    <title>com.baidu.baidunetdisk</title>
    <defs>
        <filter x="-6.7%" y="-8.5%" width="113.4%" height="117.0%" filterUnits="objectBoundingBox" id="filter-1">
            <feOffset dx="0" dy="0" in="SourceAlpha" result="shadowOffsetOuter1"></feOffset>
            <feGaussianBlur stdDeviation="0.5" in="shadowOffsetOuter1" result="shadowBlurOuter1"></feGaussianBlur>
            <feColorMatrix values="0 0 0 0 0   0 0 0 0 0   0 0 0 0 0  0 0 0 0.15 0" type="matrix" in="shadowBlurOuter1" result="shadowMatrixOuter1"></feColorMatrix>
            <feMerge>
                <feMergeNode in="shadowMatrixOuter1"></feMergeNode>
                <feMergeNode in="SourceGraphic"></feMergeNode>
            </feMerge>
        </filter>
        <linearGradient x1="1.61610335%" y1="50.4425593%" x2="95.8294943%" y2="51.248959%" id="linearGradient-2">
            <stop stop-color="#42D8FF" offset="0%"></stop>
            <stop stop-color="#06A7FF" offset="100%"></stop>
        </linearGradient>
        <linearGradient x1="25.8203125%" y1="44.7260953%" x2="94.6679688%" y2="65.3091103%" id="linearGradient-3">
            <stop stop-color="#42D8FF" offset="0%"></stop>
            <stop stop-color="#06A8FF" offset="100%"></stop>
        </linearGradient>
        <linearGradient x1="10.9746094%" y1="36.9904255%" x2="93.1757513%" y2="58.645134%" id="linearGradient-4">
            <stop stop-color="#FF7D84" offset="0%"></stop>
            <stop stop-color="#FF3F68" offset="100%"></stop>
        </linearGradient>
    </defs>
    <g id="com.baidu.baidunetdisk" stroke="none" stroke-width="1" fill="none" fill-rule="evenodd">
        <g id="百度网盘" filter="url(#filter-1)" transform="translate(0.7895, 3.125)" fill-rule="nonzero">
            <path d="M13.1204407,16.0610775 C12.5989846,15.5257041 12.6082336,14.6669849 13.1410991,14.1430745 C13.6739645,13.6191642 14.528661,13.6284567 15.0501171,14.1638301 C16.0930294,15.2345769 17.8024224,15.2531621 18.8681533,14.2053413 C19.9338842,13.1575206 19.9523823,11.4400822 18.9094701,10.3693355 C17.8665578,9.29858869 16.1571648,9.28000348 15.0914339,10.3278243 L9.17655608,16.1432998 C7.04509432,18.2389413 3.6263083,18.2017709 1.54048375,16.0602774 C-0.545340792,13.9187839 -0.508344523,10.4839072 1.62311723,8.38826564 C3.75457898,6.29262411 7.173365,6.3297945 9.25918955,8.47128804 C9.94709514,9.1775533 10.4041052,10.0244976 10.631237,10.9176841 L13.2030742,8.38906572 C15.3345359,6.29342419 18.7533219,6.33059458 20.8391465,8.47208813 C22.924971,10.6135817 22.8879748,14.0484583 20.756513,16.1440999 C18.6250513,18.2397414 15.2062652,18.202571 13.1204407,16.0610775 Z M7.28819636,14.2045413 C8.35392724,13.1567205 8.37242538,11.4392822 7.3295131,10.3685354 C6.28660083,9.2977886 4.57720782,9.27920342 3.51147694,10.3270242 C2.44574606,11.374845 2.42724792,13.0922833 3.4701602,14.1630301 C4.51307247,15.2337768 6.22246548,15.252362 7.28819636,14.2045413 Z" id="Combined-Shape" fill="url(#linearGradient-2)"></path>
            <path d="M5.3411408,5.89700996 C5.3411408,2.64018129 7.96895422,0 11.2105263,0 C14.4520984,0 17.0799118,2.64018129 17.0799118,5.89700996 L14.3799945,5.89700996 C14.3799945,4.13832249 12.9609753,2.71262458 11.2105263,2.71262458 C9.46007737,2.71262458 8.04105815,4.13832249 8.04105815,5.89700996 L5.3411408,5.89700996 L5.3411408,5.89700996 Z" id="Combined-Shape-Copy" fill="url(#linearGradient-3)"></path>
            <path d="M5.3411408,5.89700996 C5.3411408,5.14793938 5.9455379,4.54069768 6.69109949,4.54069768 C7.43666105,4.54069768 8.04105815,5.14793938 8.04105815,5.89700996 C8.04105815,7.65569745 9.46007737,9.08139534 11.2105263,9.08139534 C12.9609753,9.08139534 14.3799945,7.65569745 14.3799945,5.89700996 C14.3799945,5.14793938 14.9843916,4.54069768 15.7299531,4.54069768 C16.4755147,4.54069768 17.0799118,5.14793938 17.0799118,5.89700996 C17.0799118,9.15383865 14.4520984,11.7940199 11.2105263,11.7940199 C7.96895422,11.7940199 5.3411408,9.15383865 5.3411408,5.89700996 L5.3411408,5.89700996 Z" id="Combined-Shape" fill="url(#linearGradient-4)"></path>
        </g>
    </g>
</svg>