<?xml version="1.0" encoding="UTF-8"?>
<svg width="24px" height="24px" viewBox="0 0 24 24" version="1.1" xmlns="http://www.w3.org/2000/svg" xmlns:xlink="http://www.w3.org/1999/xlink">
    <title>com.iflytek.iflyime</title>
    <defs>
        <filter x="-7.1%" y="-7.1%" width="114.3%" height="114.3%" filterUnits="objectBoundingBox" id="filter-1">
            <feOffset dx="0" dy="0" in="SourceAlpha" result="shadowOffsetOuter1"></feOffset>
            <feGaussianBlur stdDeviation="0.5" in="shadowOffsetOuter1" result="shadowBlurOuter1"></feGaussianBlur>
            <feColorMatrix values="0 0 0 0 0   0 0 0 0 0   0 0 0 0 0  0 0 0 0.15 0" type="matrix" in="shadowBlurOuter1" result="shadowMatrixOuter1"></feColorMatrix>
            <feMerge>
                <feMergeNode in="shadowMatrixOuter1"></feMergeNode>
                <feMergeNode in="SourceGraphic"></feMergeNode>
            </feMerge>
        </filter>
    </defs>
    <g id="com.iflytek.iflyime" stroke="none" stroke-width="1" fill="none" fill-rule="evenodd">
        <g id="形状结合-2" filter="url(#filter-1)" transform="translate(1.5, 1.5)" fill="#196FEE">
            <path d="M10.5,0 C16.2989899,0 21,4.70101013 21,10.5 C21,16.2989899 16.2989899,21 10.5,21 C4.70101013,21 0,16.2989899 0,10.5 C0,4.70101013 4.70101013,0 10.5,0 Z M10.5630737,1.71994055 C10.4631847,1.7102966 10.3455285,1.73551924 10.2270377,1.73705857 C9.6446729,1.74460681 9.07438159,1.84445879 8.51004356,1.97446667 C8.14427818,2.05873996 7.78689563,2.17574704 7.43537363,2.31189366 C6.88590954,2.52472824 6.36085206,2.78570838 5.86878803,3.10685194 C5.20719446,3.53862273 4.60561595,4.04446649 4.08256145,4.63968371 C3.80909981,4.95086803 3.5501041,5.27416293 3.323972,5.62104842 C2.98048044,6.14792341 2.69106919,6.70296986 2.4660684,7.29232652 C2.27554474,7.79136388 2.12982835,8.30136195 2.03329612,8.82599287 C1.93617041,9.35396207 1.87719394,9.88664198 1.88431563,10.4232536 C1.88876668,10.7581398 1.90150782,11.0936195 1.9437372,11.4276897 C1.97439383,11.6701608 2.00953862,11.9121869 2.05851876,12.1505038 C2.13283282,12.5122075 2.22426489,12.8709069 2.34720671,13.2202775 C2.44511136,13.4985426 2.55421782,13.7723752 2.67528649,14.0413857 C2.81436339,14.3504373 2.9867861,14.6430199 3.11560703,14.9576538 C3.31892747,15.4543358 3.41534843,15.9710846 3.42588259,16.5043395 C3.43179879,16.8035801 3.39747003,17.1015226 3.31653503,17.389988 C3.26360458,17.5785828 3.4084493,17.7302711 3.60064211,17.6822739 C3.70553862,17.6560497 3.81355086,17.6394139 3.92117364,17.6274888 C4.19422727,17.5972773 4.46802274,17.5954227 4.74274551,17.6053077 C5.30808502,17.6256342 5.845828,17.7649151 6.34581121,18.0184212 C7.00104347,18.3506367 7.66833067,18.6416429 8.38235394,18.8247667 C8.86343871,18.9481351 9.34964219,19.0303683 9.84317137,19.0743781 C10.2216593,19.108132 10.6006851,19.1093931 10.9806197,19.0971712 C11.2661177,19.0879724 11.5487411,19.0526236 11.8306969,19.0169595 C12.0956459,18.9834654 12.3578686,18.9243591 12.6190527,18.8664212 C12.8104852,18.8239507 13.0014354,18.7744142 13.1869145,18.711339 C13.4337255,18.6273996 13.6799986,18.5416055 13.9212457,18.4407706 C14.4808174,18.2069419 15.011142,17.9207576 15.5086215,17.5748922 C16.1127408,17.1548425 16.6591448,16.6713096 17.1406005,16.1119605 C17.5677533,15.615668 17.9373021,15.082543 18.248746,14.5077449 C18.5081127,14.0291083 18.7173308,13.528309 18.8775873,13.0093532 C19.0387896,12.4874486 19.1503071,11.9538413 19.2113236,11.409088 C19.2727733,10.8612188 19.294039,10.312682 19.2477666,9.76459037 C19.203015,9.23439563 19.1193166,8.70941234 18.9818903,8.19284896 C18.8075202,7.53719014 18.5641403,6.90981406 18.2428669,6.31379936 C17.7239482,5.35111053 17.0503739,4.51162317 16.2166729,3.80130911 C15.5902241,3.26757208 14.9028144,2.83036729 14.1542028,2.4903253 C13.5564077,2.21879245 12.9325739,2.02116564 12.2901569,1.89145451 C11.7279332,1.77791553 11.1568815,1.72556001 10.5630737,1.71994055 Z M4.91924976,10.1021181 C5.05771464,10.1024333 5.07945062,10.1239653 5.07954335,10.2616327 C5.080007,10.9503963 5.07820803,11.6391598 5.08128668,12.3279233 C5.08176887,12.4399044 5.03393859,12.5028498 4.93595976,12.5460621 C4.61060625,12.6895158 4.28690333,12.8367159 3.96244003,12.9821912 C3.9346024,12.9946727 3.9054109,13.0040941 3.87755472,13.01652 C3.81425702,13.0448027 3.77840749,13.0167796 3.76523979,12.9570984 C3.75659732,12.9179106 3.7564675,12.8763674 3.75641186,12.8358628 L3.75609658,11.5737108 C3.75613367,11.1462055 3.75570711,10.7187003 3.75635622,10.2911951 C3.75659732,10.1225187 3.77766565,10.1019326 3.942095,10.1018399 C4.26781944,10.1016915 4.59352533,10.1013577 4.91924976,10.1021181 Z M11.6356494,7.86203233 C11.8074786,7.86219925 11.8232428,7.87761102 11.8232428,8.04684381 L11.8233355,11.4990629 C11.823354,11.6829841 11.8303088,11.6901244 12.0103354,11.6901244 L14.1692636,11.69018 C14.3354363,11.6902356 14.3559668,11.7271979 14.2875318,11.8766792 C14.1407397,12.1972663 13.9968223,12.5191703 13.853962,12.8415379 C13.796154,12.9719909 13.764774,12.9967684 13.6251964,12.9967869 L10.6923226,12.9967499 C10.5258718,12.9967313 10.5000371,12.9701363 10.5,12.7989376 L10.4998771,11.6125555 L10.4999815,8.0635909 C10.5000185,7.88664295 10.5243695,7.86212506 10.6987767,7.86201379 C11.0110737,7.86184781 11.3233523,7.8617356 11.6356494,7.86203233 Z M16.7459343,7.86087986 C17.1564699,7.86342143 17.5670611,7.86160392 17.9776337,7.86251268 C18.0232756,7.86260541 18.0792847,7.84839913 18.104767,7.90231252 C18.130342,7.95641137 18.0818997,7.99044339 18.0547112,8.02642275 C17.6008891,8.62690704 17.1458801,9.22646404 16.6915758,9.82657741 C16.5893314,9.96162981 16.4911486,10.099835 16.3863262,10.2328288 C16.3438743,10.2867051 16.3434292,10.3446059 16.3434292,10.4056039 L16.3434107,12.1360996 C16.3434292,12.423749 16.3383476,12.4257519 16.0724713,12.5387531 C15.7763093,12.6646066 15.482447,12.7959127 15.1889556,12.9279421 C15.0526791,12.9892368 15.0223007,12.9734727 15.0219483,12.8218587 L15.021633,11.6105043 C15.021633,11.2169013 15.0204275,10.8232797 15.0226716,10.4296952 C15.0230982,10.3519131 15.0078719,10.2857593 14.9591514,10.2221648 C14.670519,9.84534602 14.3850396,9.46611621 14.0980949,9.08798061 C13.8194219,8.72073155 13.5403778,8.35376069 13.2611669,7.98691964 C13.2414525,7.96099225 13.2280251,7.93434156 13.2443271,7.90285035 C13.2649132,7.86305051 13.3038785,7.86221594 13.3416012,7.86219739 C13.7793067,7.86203048 14.2170123,7.86271668 14.6547363,7.86180793 C14.7507864,7.86160392 14.7991545,7.92937122 14.8482459,7.99320675 C15.0219112,8.21894938 15.1929244,8.44675063 15.3651246,8.67362456 C15.4409965,8.77356928 15.5159968,8.87418165 15.593816,8.97258704 C15.6706338,9.06971275 15.6947993,9.06808069 15.7682788,8.97069534 C16.0195037,8.63777503 16.2726389,8.30630132 16.5211746,7.97141513 C16.5799471,7.89224201 16.649365,7.86032424 16.7459343,7.86087986 Z M9.79501237,7.86522967 C9.86852895,7.87572674 9.89692296,7.91589751 9.86570995,7.98687327 L9.46337174,8.89854189 C9.32090092,9.22172552 9.3899479,9.16532695 9.02056604,9.16781212 C8.52173269,9.17116896 8.02284371,9.16838705 7.52399181,9.16881361 C7.37256324,9.16894343 7.36132433,9.18070164 7.36117596,9.33031269 C7.36093486,9.54750559 7.36093486,9.76469849 7.36119451,9.98189138 C7.36139851,10.1371404 7.36794527,10.1441138 7.52057934,10.1441509 L9.67891404,10.1442621 C9.71285333,10.1442621 9.74703372,10.1424075 9.78067627,10.1457829 C9.86660016,10.1543883 9.89907431,10.2095072 9.864523,10.2880497 C9.71192603,10.635065 9.55730753,10.9811901 9.40656516,11.3290215 C9.36350122,11.4283356 9.30001806,11.4713625 9.18755475,11.4704166 C8.64122495,11.4657616 8.09482096,11.4681725 7.54845406,11.4682838 C7.37360182,11.4683209 7.36128724,11.4804686 7.36117596,11.6510738 C7.36100905,11.854691 7.35937699,12.0583267 7.36189926,12.2619253 C7.36321603,12.3698819 7.32005935,12.4362397 7.21755528,12.4805648 C6.88157488,12.6258361 6.54986006,12.7809739 6.21458441,12.9278958 C6.07281834,12.9900251 6.03917579,12.965229 6.03900887,12.8097388 L6.03854986,11.6185649 L6.0386565,8.0858165 C6.03869359,7.88969193 6.0656781,7.86281869 6.26239615,7.86280014 L9.71370645,7.86280014 C9.74083933,7.86280014 9.76832459,7.86142773 9.79501237,7.86522967 Z M4.42350062,7.80188057 C4.80211841,7.80088783 5.1396196,8.14170876 5.14203058,8.52748533 C5.14436739,8.90193026 4.79892849,9.25059617 4.41415341,9.24492107 C4.05363657,9.23959836 3.7085315,8.94959363 3.69938829,8.53970718 C3.69052328,8.14230223 4.02604003,7.8029279 4.42350062,7.80188057 Z" id="形状结合"></path>
        </g>
    </g>
</svg>