<?xml version="1.0" encoding="UTF-8"?>
<svg width="24px" height="24px" viewBox="0 0 24 24" version="1.1" xmlns="http://www.w3.org/2000/svg" xmlns:xlink="http://www.w3.org/1999/xlink">
    <title>com.mozilla.firefox-zh</title>
    <defs>
        <filter x="-7.4%" y="-7.1%" width="114.8%" height="114.2%" filterUnits="objectBoundingBox" id="filter-1">
            <feOffset dx="0" dy="0" in="SourceAlpha" result="shadowOffsetOuter1"></feOffset>
            <feGaussianBlur stdDeviation="0.5" in="shadowOffsetOuter1" result="shadowBlurOuter1"></feGaussianBlur>
            <feColorMatrix values="0 0 0 0 0   0 0 0 0 0   0 0 0 0 0  0 0 0 0.15 0" type="matrix" in="shadowBlurOuter1" result="shadowMatrixOuter1"></feColorMatrix>
            <feMerge>
                <feMergeNode in="shadowMatrixOuter1"></feMergeNode>
                <feMergeNode in="SourceGraphic"></feMergeNode>
            </feMerge>
        </filter>
        <linearGradient x1="42.72%" y1="-4.32%" x2="14.257%" y2="77.496%" id="linearGradient-2">
            <stop stop-color="#FDFF66" offset="0%"></stop>
            <stop stop-color="#FFAF49" offset="45.316%"></stop>
            <stop stop-color="#E50B72" offset="100%"></stop>
        </linearGradient>
        <radialGradient cx="37.881%" cy="67.109%" fx="37.881%" fy="67.109%" r="89.899%" id="radialGradient-3">
            <stop stop-color="#4C39D1" offset="0%"></stop>
            <stop stop-color="#B737E5" offset="100%"></stop>
        </radialGradient>
        <linearGradient x1="55.27%" y1="32.46%" x2="37.066%" y2="70.845%" id="linearGradient-4">
            <stop stop-color="#FFF56D" offset="0%"></stop>
            <stop stop-color="#FFB65B" offset="27.508%"></stop>
            <stop stop-color="#FF9346" offset="66.027%"></stop>
            <stop stop-color="#FF8836" offset="100%"></stop>
        </linearGradient>
        <linearGradient x1="72.03%" y1="-11.042%" x2="50%" y2="95.747%" id="linearGradient-5">
            <stop stop-color="#FED435" offset="0%"></stop>
            <stop stop-color="#FF833C" offset="100%"></stop>
        </linearGradient>
        <linearGradient x1="75.856%" y1="29.72%" x2="34.16%" y2="83.783%" id="linearGradient-6">
            <stop stop-color="#FDF048" offset="0%"></stop>
            <stop stop-color="#FF7336" offset="66.41%"></stop>
            <stop stop-color="#FF3946" offset="100%"></stop>
        </linearGradient>
    </defs>
    <g id="com.mozilla.firefox-zh" stroke="none" stroke-width="1" fill="none" fill-rule="evenodd">
        <g id="firefox-zh" filter="url(#filter-1)" transform="translate(2, 1.5)" fill-rule="nonzero">
            <path d="M13.5,0 C13.75,1 14.625,2.125 15.875,3.25 C16.7083333,4 17.5833333,5.29166667 18.5,7.125 C18.25,5.70833332 18.0416667,4.79166667 17.875,4.375 C18.4837802,4.9837802 19.5955468,6.11844212 20.0473111,8.52067277 C20.1608096,9.21537847 20.2269577,9.9168108 20.2449584,10.6117243 C20.2499241,10.9998349 20.2399998,11.4112278 20.212719,11.8470279 L20.199796,11.9833738 C19.6798772,17.058538 15.1914767,21.125 10,21.125 C6.26050773,21.125 3.00042228,19.0724154 1.28493441,16.032437 L1.04056589,15.5716564 C0.374530105,14.2322634 0,12.7223698 0,11.125 C0,10.1852957 0.12961588,9.2758648 0.371944668,8.4136103 L1.75,8 L9.875,6.5 C9.95833333,3.41666667 11.1666667,1.25 13.5,0 Z" id="路径" fill="url(#linearGradient-2)"></path>
            <circle id="椭圆形" fill="url(#radialGradient-3)" cx="10.25" cy="10.625" r="5"></circle>
            <path d="M16.625,11.375 C16.625,12.5 16.2979725,14.5700322 14.9229725,15.4450322 C14.0063058,16.0283655 12.2819817,16.5050214 9.75,16.875 L2.5,12.25 L2.125,8.375 L3.625,7.75 L10.5,9 L9.25,9.75 C7.66666668,9.83333332 6.66666668,10.1666667 6.25,10.75 C5.94906455,11.1713096 5.7107531,11.4943664 5.71143475,11.7858798 C5.70300805,11.7953488 5.70013333,11.8070172 5.702769,11.8208199 C6.08879313,13.8423832 7.86596388,15.3703055 10,15.3703055 C12.4162458,15.3703055 14.375,13.4115513 14.375,10.9953055 C14.375,9.57453215 13.6977527,8.31193842 12.6484743,7.5127406 C15.8971116,7.82395352 16.625,10.2667078 16.625,11.375 Z" id="路径" fill="url(#linearGradient-4)"></path>
            <path d="M4,6.125 C5.08333333,4.875 6.04166668,4.16666667 6.875,4 C6.70833333,4.58333332 6.70833333,5.5 6.875,6.75 L4,6.125 Z" id="路径" fill="url(#linearGradient-5)"></path>
            <path d="M4.25,3.125 C2.625,3.875 -2,7.875 1.625,14.125 C5.25,20.375 12.4785862,19.6086207 15.875,17.25 C16.7779841,16.6229277 17.4444072,15.8096267 17.9237584,14.8939251 C19.8332428,11.2462493 18.774254,5.97367375 17.875,4.375 C20.5,13.375 13.513781,15.393056 10.388781,15.393056 C7.26378098,15.393056 5.25,13.125 5.25,10.125 C4.41666668,10.375 3.625,10 2.875,9 C4.04166668,8.16666667 5.04166668,7.95833332 5.875,8.375 C6.70833333,8.79166667 8.25,9 10.5,9 C8.5,7.75 7.29166668,6.875 6.875,6.375 C6.45833333,5.875 5.58333333,5.66666667 4.25,5.75 C4.08333333,4.83333332 4.08333333,3.95833332 4.25,3.125 Z" id="路径" fill="url(#linearGradient-6)"></path>
        </g>
    </g>
</svg>