<?xml version="1.0" encoding="UTF-8"?>
<svg width="24px" height="24px" viewBox="0 0 24 24" version="1.1" xmlns="http://www.w3.org/2000/svg" xmlns:xlink="http://www.w3.org/1999/xlink">
    <title>fcitx.table.wnwb</title>
    <defs>
        <filter x="-9.0%" y="-9.0%" width="117.9%" height="117.9%" filterUnits="objectBoundingBox" id="filter-1">
            <feOffset dx="0" dy="0" in="SourceAlpha" result="shadowOffsetOuter1"></feOffset>
            <feGaussianBlur stdDeviation="0.5" in="shadowOffsetOuter1" result="shadowBlurOuter1"></feGaussianBlur>
            <feColorMatrix values="0 0 0 0 0   0 0 0 0 0   0 0 0 0 0  0 0 0 0.15 0" type="matrix" in="shadowBlurOuter1" result="shadowMatrixOuter1"></feColorMatrix>
            <feMerge>
                <feMergeNode in="shadowMatrixOuter1"></feMergeNode>
                <feMergeNode in="SourceGraphic"></feMergeNode>
            </feMerge>
        </filter>
    </defs>
    <g id="fcitx.table.wnwb" stroke="none" stroke-width="1" fill="none" fill-rule="evenodd">
        <g id="编组" filter="url(#filter-1)" transform="translate(2.25, 2.25)">
            <path d="M3.75,-0.25 L15.75,-0.25 C17.959139,-0.25 19.75,1.540861 19.75,3.75 L19.75,15.75 C19.75,17.959139 17.959139,19.75 15.75,19.75 L3.75,19.75 C1.540861,19.75 -0.25,17.959139 -0.25,15.75 L-0.25,3.75 C-0.25,1.540861 1.540861,-0.25 3.75,-0.25 Z" id="Rectangle-2" fill="#FFFFFF"></path>
            <path d="M15.75,-0.25 C17.959139,-0.25 19.75,1.540861 19.75,3.75 L19.75,15.75 C19.75,17.959139 17.959139,19.75 15.75,19.75 L3.75,19.75 C1.540861,19.75 -0.25,17.959139 -0.25,15.75 L-0.25,3.75 C-0.25,1.540861 1.540861,-0.25 3.75,-0.25 L15.75,-0.25 Z M15.75,0.75 L3.75,0.75 C2.09314575,0.75 0.75,2.09314575 0.75,3.75 L0.75,15.75 C0.75,17.4068542 2.09314575,18.75 3.75,18.75 L15.75,18.75 C17.4068542,18.75 18.75,17.4068542 18.75,15.75 L18.75,3.75 C18.75,2.09314575 17.4068542,0.75 15.75,0.75 Z" id="Rectangle-2" fill="#FF4F0C" fill-rule="nonzero"></path>
            <path d="M10.7165465,7.50345416 C12.0607469,8.40466023 13.174944,9.12447949 13.6688858,10.7168648 L13.6688858,10.9555317 C13.6676289,11.0179033 13.6431204,11.0688189 13.5953601,11.1082785 C12.377473,12.0782206 11.1985482,13.3651123 10.0585858,14.9689536 C9.81350017,15.3151797 9.43393164,15.543027 8.91988022,15.6524955 C8.6421165,15.4488331 8.61195211,15.1573413 8.82938706,14.7780201 C9.58475357,13.4631248 10.5588119,12.2016909 11.751562,10.9937184 C12.0890261,10.6500381 12.3529644,10.205163 11.8062349,9.89776013 C11.3914746,9.5337136 10.9314677,9.35741835 10.4262143,9.36887436 C10.3601601,9.37009698 10.2971419,9.39293871 10.2471132,9.43379174 C9.10338024,10.3757303 7.64606333,11.7479056 5.87516248,13.5503178 C5.23542613,14.2007646 4.48005962,14.4489781 3.60906297,14.2949584 C2.92659373,13.5974147 2.69784713,12.7394869 2.92282318,11.721175 C2.94418962,11.6269811 2.97246873,11.6250718 3.00766051,11.715447 C3.08118621,11.9006524 3.0962684,12.1087699 3.19995848,12.2748821 C3.51919823,12.7891296 3.92076162,12.8457732 4.40464865,12.4448129 C5.58734397,11.4634147 6.77255298,10.4845624 7.96027569,9.50825581 C8.51328943,9.0538341 9.02671242,8.41357046 9.50054466,7.58746489 C9.63439912,6.76072288 10.32818,7.20177924 10.7165465,7.50345416 Z M13.4992111,5.41846044 C14.5637626,5.66667398 15.6094613,5.54956811 16.6363073,5.06714282 C16.6991498,5.03786635 16.7494237,5.05250459 16.7871292,5.11105752 C16.9090436,5.30580968 16.9329238,5.556569 16.8587696,5.86333548 C16.7154888,6.24265668 16.5476994,6.60415742 16.3554014,6.9478377 C15.5579305,8.37220154 14.4644715,7.62374226 13.4030621,7.16932055 C12.2587007,6.67671214 10.7335139,6.64998146 9.53447959,6.7454482 C7.9910685,6.87019141 6.4551985,7.181413 4.92686959,7.67911297 C4.38391064,7.85668111 3.87300135,7.85668111 3.32438657,7.86813712 C2.82290365,7.67147563 2.89077352,6.52014668 2.97749613,6.22419977 C3.07553038,5.8919755 3.33255609,5.67367487 3.74857325,5.5692979 C3.81141572,5.55402322 3.8642034,5.57057079 3.90693628,5.61894061 L4.07095513,5.81369277 C4.11368801,5.86333548 4.16584726,5.87670082 4.22743288,5.8537888 C5.85442447,5.25807631 7.68314039,5.22943629 9.39119876,5.09005484 C10.871139,4.96785741 12.0588617,5.0824175 13.4992111,5.41846044 Z" id="形状结合" fill="#FF5818" fill-rule="nonzero"></path>
        </g>
    </g>
</svg>