<?xml version="1.0" encoding="UTF-8"?>
<svg width="24px" height="24px" viewBox="0 0 24 24" version="1.1" xmlns="http://www.w3.org/2000/svg" xmlns:xlink="http://www.w3.org/1999/xlink">
    <title>fonts-gb</title>
    <defs>
        <filter x="-7.5%" y="-7.5%" width="115.0%" height="115.0%" filterUnits="objectBoundingBox" id="filter-1">
            <feOffset dx="0" dy="0" in="SourceAlpha" result="shadowOffsetOuter1"></feOffset>
            <feGaussianBlur stdDeviation="0.5" in="shadowOffsetOuter1" result="shadowBlurOuter1"></feGaussianBlur>
            <feColorMatrix values="0 0 0 0 0   0 0 0 0 0   0 0 0 0 0  0 0 0 0.15 0" type="matrix" in="shadowBlurOuter1" result="shadowMatrixOuter1"></feColorMatrix>
            <feMerge>
                <feMergeNode in="shadowMatrixOuter1"></feMergeNode>
                <feMergeNode in="SourceGraphic"></feMergeNode>
            </feMerge>
        </filter>
        <linearGradient x1="50%" y1="0%" x2="50%" y2="94.8522035%" id="linearGradient-2">
            <stop stop-color="#D0C0FF" offset="0%"></stop>
            <stop stop-color="#493EC2" offset="100%"></stop>
        </linearGradient>
        <linearGradient x1="50%" y1="0%" x2="50%" y2="100%" id="linearGradient-3">
            <stop stop-color="#FFFFFF" offset="0%"></stop>
            <stop stop-color="#FFFFFF" stop-opacity="0.916958042" offset="100%"></stop>
        </linearGradient>
    </defs>
    <g id="fonts-gb" stroke="none" stroke-width="1" fill="none" fill-rule="evenodd">
        <g id="GB18030-2022标准字体" filter="url(#filter-1)" transform="translate(2, 2)" fill-rule="nonzero">
            <g id="矩形-2" fill="url(#linearGradient-2)">
                <rect id="矩形" x="0" y="0" width="20" height="20" rx="4.5"></rect>
            </g>
            <g id="形状" transform="translate(4, 3)">
                <g id="path-4-link" fill="#000000">
                    <path d="M6.75,8 L6.75,4 L11,4 L11,8 L6.75,8 Z M1.25,8 L1.25,4 L5.5,4 L5.5,8 L1.25,8 Z M6.75,2.75 L6.75,0 L5.5,0 L5.5,2.75 L0,2.75 L0,10 L1.25,10 L1.25,9.25 L5.5,9.25 L5.5,13.75 L6.75,13.75 L6.75,9.25 L11,9.25 L11,10 L12.25,10 L12.25,2.75 L6.75,2.75 Z" id="path-4"></path>
                </g>
                <g id="path-4-link" fill="url(#linearGradient-3)">
                    <path d="M6.75,8 L6.75,4 L11,4 L11,8 L6.75,8 Z M1.25,8 L1.25,4 L5.5,4 L5.5,8 L1.25,8 Z M6.75,2.75 L6.75,0 L5.5,0 L5.5,2.75 L0,2.75 L0,10 L1.25,10 L1.25,9.25 L5.5,9.25 L5.5,13.75 L6.75,13.75 L6.75,9.25 L11,9.25 L11,10 L12.25,10 L12.25,2.75 L6.75,2.75 Z" id="path-4"></path>
                </g>
            </g>
        </g>
    </g>
</svg>