<?xml version="1.0" encoding="UTF-8"?>
<svg width="24px" height="24px" viewBox="0 0 24 24" version="1.1" xmlns="http://www.w3.org/2000/svg" xmlns:xlink="http://www.w3.org/1999/xlink">
    <title>io.github.msojocs.bilibili</title>
    <defs>
        <filter x="-7.1%" y="-7.1%" width="114.3%" height="114.3%" filterUnits="objectBoundingBox" id="filter-1">
            <feOffset dx="0" dy="0" in="SourceAlpha" result="shadowOffsetOuter1"></feOffset>
            <feGaussianBlur stdDeviation="0.5" in="shadowOffsetOuter1" result="shadowBlurOuter1"></feGaussianBlur>
            <feColorMatrix values="0 0 0 0 0   0 0 0 0 0   0 0 0 0 0  0 0 0 0.15 0" type="matrix" in="shadowBlurOuter1" result="shadowMatrixOuter1"></feColorMatrix>
            <feMerge>
                <feMergeNode in="shadowMatrixOuter1"></feMergeNode>
                <feMergeNode in="SourceGraphic"></feMergeNode>
            </feMerge>
        </filter>
        <linearGradient x1="50%" y1="0%" x2="50%" y2="100%" id="linearGradient-2">
            <stop stop-color="#FF689C" offset="0%"></stop>
            <stop stop-color="#FC3273" offset="100%"></stop>
        </linearGradient>
    </defs>
    <g id="io.github.msojocs.bilibili" stroke="none" stroke-width="1" fill="none" fill-rule="evenodd">
        <g id="编组" filter="url(#filter-1)" transform="translate(1.5, 1.5)" fill-rule="nonzero">
            <path d="M0,10.5 C0,16.2989899 4.70101013,21 10.5,21 C16.2989899,21 21,16.2989899 21,10.5 C21,4.70101013 16.2989899,0 10.5,0 C4.70101013,0 0,4.70101013 0,10.5 Z" id="路径" fill="url(#linearGradient-2)"></path>
            <path d="M14.1790076,9.39038985 C14.2143402,9.39626594 14.4911123,9.33456698 14.5028899,9.35513329 C14.5205562,9.38157571 14.6442203,10.2688657 14.6118321,10.2747418 C14.5794438,10.2806178 14.3497819,10.3335027 14.3497819,10.3335027 C14.3321156,10.2130428 14.181952,9.46677905 14.1790076,9.39038985 M14.6206652,9.30518651 L14.7413849,10.2600515 C14.803217,10.2571135 15.0534896,10.2394852 15.0770447,10.2365472 C15.0417121,9.87516747 14.97988,9.30518651 14.97988,9.30518651 C14.8621047,9.28168214 14.7384406,9.28168214 14.6206652,9.30518651 M14.3821701,10.6302453 C14.3821701,10.6302453 14.9268811,10.4921572 15.1241549,10.5597322 C15.2242639,10.9211119 15.4068157,12.9483638 15.424482,13.0306291 C15.3008179,13.0453193 14.8944929,13.0805759 14.8621047,13.08939 C14.8356052,12.9366116 14.3821701,10.7272009 14.3821701,10.6302453 M16.3990731,9.41389422 C16.4314613,9.42270836 16.7200109,9.38451376 16.7229553,9.40508008 C16.7288441,9.47559319 16.7582879,10.3276266 16.7258997,10.3305646 C16.6935115,10.3335027 16.4638495,10.354069 16.4638495,10.354069 C16.4579607,10.2365472 16.3931843,9.49322147 16.3990731,9.41389422 M16.843675,9.39038985 L16.8672301,10.3335027 C16.9290622,10.3335027 17.1763904,10.3481929 17.2028899,10.3452549 C17.1970011,9.98387518 17.2028899,9.41389422 17.2028899,9.41389422 C17.0851145,9.3933279 16.9643948,9.38451376 16.843675,9.39038985 M16.4638495,10.6566878 C16.4638495,10.6566878 17.0203381,10.5832366 17.2087786,10.671378 C17.25,11.0944566 17.2441112,13.0658856 17.25,13.1481509 C17.1233915,13.1481509 16.7200109,13.154027 16.6876227,13.1599031 C16.6817339,13.0071247 16.4550164,10.7536433 16.4638495,10.6566878 M15.171265,8.23279965 C15.4922028,9.86635333 15.7365867,12.6574972 15.7454198,12.836718 C15.7454198,12.836718 15.9986369,12.8425941 16.2842421,12.8602224 C16.1164122,11.1003327 15.9103053,8.28862253 15.9132497,8.1975431 C15.8425845,8.11821585 15.171265,8.23279965 15.171265,8.23279965 M14.4646129,12.0963304 C14.4027808,11.6379952 12.7598146,11.117961 11.8352781,11.2854296 C11.8352781,11.2854296 11.7204471,10.2747418 11.6762814,9.29637238 C11.6380044,8.45609117 11.6703926,7.63931433 11.6792257,7.5041642 C11.6173937,7.46009351 10.9519629,7.7774025 10.5927481,7.90961457 C10.5927481,7.90961457 11.0226281,9.72532711 11.3347328,13.4919023 C11.3347328,13.4919023 11.8323337,13.5447872 12.686205,13.3802566 C13.5400763,13.215726 14.55,12.7015679 14.4646129,12.0963304 M12.4565431,12.9219214 L12.3122683,11.8847911 C12.3476009,11.8671628 13.2338604,12.196224 13.3280807,12.2549849 C13.3133588,12.3196219 12.4565431,12.9219214 12.4565431,12.9219214 M7.33625954,9.39038985 C7.37159215,9.39626594 7.64836423,9.33456698 7.66014176,9.35513329 C7.67780807,9.38157571 7.80147219,10.2688657 7.76908397,10.2747418 C7.73669575,10.2806178 7.50703381,10.3335027 7.50703381,10.3335027 C7.48936751,10.2130428 7.33920393,9.46677905 7.33625954,9.39038985 M7.77791712,9.30518651 L7.89863686,10.2600515 C7.96046892,10.2571135 8.21074155,10.2394852 8.23429662,10.2365472 C8.19601963,9.87516747 8.13713195,9.30518651 8.13713195,9.30518651 C8.01935659,9.28168214 7.89569247,9.28168214 7.77791712,9.30518651 M7.53942203,10.6302453 C7.53942203,10.6302453 8.08413304,10.4921572 8.28140676,10.5597322 C8.38151581,10.9211119 8.56406761,12.9483638 8.58173391,13.0306291 C8.45806979,13.0453193 8.05174482,13.0805759 8.0193566,13.08939 C7.99285715,12.9366116 7.53942203,10.7272009 7.53942203,10.6302453 M9.55632497,9.41389422 C9.58871319,9.42270836 9.87726281,9.38451376 9.8802072,9.40508008 C9.88609596,9.47559319 9.9155398,10.3276266 9.88315158,10.3305646 C9.85076336,10.3335027 9.62110142,10.354069 9.62110142,10.354069 C9.61521265,10.2365472 9.55338059,9.49322147 9.55632497,9.41389422 M10.0009269,9.39038985 L10.024482,10.3335027 C10.0863141,10.3335027 10.3336423,10.3481929 10.3601418,10.3452549 C10.354253,9.98387518 10.3601418,9.41389422 10.3601418,9.41389422 C10.2423664,9.3933279 10.1216467,9.38745181 10.0009269,9.39038985 M9.62110142,10.6566878 C9.62110142,10.6566878 10.17759,10.5832366 10.3660305,10.671378 C10.4072519,11.0944566 10.4013631,13.0658856 10.4072519,13.1481509 C10.2806434,13.1481509 9.87726282,13.154027 9.84487459,13.1599031 C9.8419302,13.0071247 9.61226827,10.7536433 9.62110142,10.6566878 M8.3285169,8.23279965 C8.64945474,9.86635333 8.8938386,12.6574972 8.90267175,12.836718 C8.90267175,12.836718 9.15588876,12.8425941 9.441494,12.8602224 C9.27366413,11.1003327 9.06755725,8.28862253 9.07050164,8.19460505 C8.99983642,8.11821585 8.3285169,8.23279965 8.3285169,8.23279965 M7.62186478,12.0963304 C7.56003272,11.6379952 5.91706652,11.117961 4.99252999,11.2854296 C4.99252999,11.2854296 4.87769902,10.2747418 4.83353326,9.29637238 C4.79525627,8.45609117 4.8276445,7.63931433 4.83647764,7.5041642 C4.77464558,7.46303155 4.10921483,7.7774025 3.75,7.90961457 C3.75,7.90961457 4.17988005,9.72532711 4.49198473,13.4919023 C4.49198473,13.4919023 4.98958561,13.5447872 5.84345692,13.3802566 C6.69732824,13.215726 7.7072519,12.7015679 7.62186478,12.0963304 M5.61379498,12.9219214 L5.46952018,11.8847911 C5.50485278,11.8671628 6.39111233,12.196224 6.4853326,12.2549849 C6.47061069,12.3196219 5.61379498,12.9219214 5.61379498,12.9219214" id="形状" fill="#FFFFFF"></path>
            <path d="M9.33302269,9.43127145 L7.03185493,9.87619487 L7.22890943,10.7483377 L9.50688283,10.3034362 L9.33302269,9.43127145 L9.33302269,9.43127145 Z M10.5734115,11.7433571 C10.0111705,12.9608381 9.50690451,12.0418935 9.50690453,12.0418935 L9.13019674,12.2877781 C9.13019674,12.2877781 9.87204768,13.3121361 10.5792481,12.5335968 C11.4139416,13.3121361 12.0515155,12.2819278 12.0515155,12.2819278 L11.7095017,12.059488 C11.7095234,12.0536159 11.1125016,12.9257587 10.5734115,11.7433571 Z M11.7095233,10.3033924 L13.9932899,10.7482939 L14.1845512,9.87615106 L11.88922,9.43122762 L11.7095233,10.3033924 L11.7095233,10.3033924 Z M16.2440333,8.59087756 C16.2076903,6.96624751 14.804507,6.65469594 14.804507,6.65469594 C14.804507,6.65469594 13.7097285,6.6486047 12.2883411,6.63635648 L13.3226494,5.62856306 C13.3226494,5.62856306 13.4859429,5.4208693 13.207719,5.18883252 C12.9294517,4.95675191 12.9113128,5.06056591 12.8145864,5.1216755 C12.7298803,5.18271937 11.4899471,6.41041094 11.2722368,6.63033097 C10.7097788,6.63033097 10.1230416,6.62417399 9.55450831,6.62417399 L9.75410139,6.62417399 C9.75410139,6.62417399 8.27226547,5.14606236 8.175474,5.07890536 C8.07868252,5.01172643 8.06659715,4.91404749 7.78231969,5.14606238 C7.50409576,5.37816491 7.66738931,5.58581483 7.66738931,5.58581483 L8.72584664,6.62417399 C7.57667308,6.62417399 6.58467445,6.63033097 6.12503973,6.6486047 C4.63710688,7.08230973 4.75205895,8.59092139 4.75205895,8.59092139 C4.75205895,8.59092139 4.77017616,11.8281524 4.75205895,13.4650964 C4.91535252,15.1020404 6.16131754,15.3645991 6.16131756,15.3645991 C6.16131758,15.3645991 6.65727347,15.3768254 7.02627874,15.3768254 C7.06251316,15.4806613 7.09275913,15.9937277 7.66135748,15.9937278 C8.22383719,15.9937278 8.29639282,15.3768254 8.29639282,15.3768254 C8.29639282,15.3768254 12.439571,15.3585298 12.784297,15.3585298 C12.8024793,15.5356358 12.8871637,16.0059541 13.455697,15.9999429 C14.018155,15.9876365 14.0604863,15.3219166 14.0604863,15.3219166 C14.0604863,15.3219166 14.2540693,15.3035771 14.8286343,15.3219166 C16.1714125,15.0714527 16.25,13.4834139 16.25,13.4834139 C16.25,13.4834139 16.2258726,10.2155953 16.2440333,8.59087756 L16.2440333,8.59087756 Z M15.0887845,13.770491 C15.0887845,14.0270023 14.8891697,14.2346522 14.6411917,14.2346522 L6.4759278,14.2346522 C6.22794984,14.2346522 6.02835676,14.0270023 6.02835676,13.770491 L6.02835676,8.30384432 C6.02835676,8.04728919 6.22797154,7.83961735 6.4759278,7.83961735 L14.6411917,7.83961735 C14.8891697,7.83961735 15.0887845,8.04728919 15.0887845,8.30384432 L15.0887845,13.770491 L15.0887845,13.770491 Z" id="形状" fill="#FFFFFF" opacity="0.209586007"></path>
        </g>
    </g>
</svg>