<?xml version="1.0" encoding="UTF-8"?>
<svg width="24px" height="24px" viewBox="0 0 24 24" version="1.1" xmlns="http://www.w3.org/2000/svg" xmlns:xlink="http://www.w3.org/1999/xlink">
    <title>linux.qq.com</title>
    <defs>
        <filter x="-8.7%" y="-7.4%" width="117.4%" height="114.8%" filterUnits="objectBoundingBox" id="filter-1">
            <feOffset dx="0" dy="0" in="SourceAlpha" result="shadowOffsetOuter1"></feOffset>
            <feGaussianBlur stdDeviation="0.5" in="shadowOffsetOuter1" result="shadowBlurOuter1"></feGaussianBlur>
            <feColorMatrix values="0 0 0 0 0   0 0 0 0 0   0 0 0 0 0  0 0 0 0.15 0" type="matrix" in="shadowBlurOuter1" result="shadowMatrixOuter1"></feColorMatrix>
            <feMerge>
                <feMergeNode in="shadowMatrixOuter1"></feMergeNode>
                <feMergeNode in="SourceGraphic"></feMergeNode>
            </feMerge>
        </filter>
        <linearGradient x1="28.78%" y1="44.827%" x2="42.037%" y2="55.173%" id="linearGradient-2">
            <stop stop-color="#FDCF18" offset="0%"></stop>
            <stop stop-color="#F9AE0A" offset="100%"></stop>
        </linearGradient>
        <linearGradient x1="50%" y1="0%" x2="50%" y2="97.926%" id="linearGradient-3">
            <stop stop-color="#2B2B2B" offset="0%"></stop>
            <stop stop-color="#000000" offset="100%"></stop>
        </linearGradient>
        <linearGradient x1="50%" y1="0%" x2="50%" y2="100%" id="linearGradient-4">
            <stop stop-color="#FFFFFF" offset="0%"></stop>
            <stop stop-color="#EBEBEB" offset="100%"></stop>
        </linearGradient>
        <linearGradient x1="22.561%" y1="40.66%" x2="38.121%" y2="58.145%" id="linearGradient-5">
            <stop stop-color="#FF3333" offset="0%"></stop>
            <stop stop-color="#F62C43" offset="100%"></stop>
        </linearGradient>
    </defs>
    <g id="linux.qq.com" stroke="none" stroke-width="1" fill="none" fill-rule="evenodd">
        <g id="com.qq.im.deepin" filter="url(#filter-1)" transform="translate(3.25, 2)" fill-rule="nonzero">
            <path d="M2.26611116,20.25 C1.9605556,19.75 2.14111116,19.2916667 2.80777782,18.875 C3.4744445,18.4583333 4.37722227,18.2916667 5.51611115,18.375 C7.18277782,19.2916667 8.01611115,19.9166667 8.01611115,20.25 C7.3494445,20.25 5.43277782,20.25 2.26611116,20.25 Z" id="路径" fill="url(#linearGradient-2)"></path>
            <path d="M9.32672218,20.25 C9.0211666,19.75 9.20172218,19.2916667 9.86838883,18.875 C10.5350555,18.4583333 11.4378333,18.2916667 12.5767222,18.375 C14.2433888,19.2916667 15.0767222,19.9166667 15.0767222,20.25 C14.4100555,20.25 12.4933888,20.25 9.32672218,20.25 Z" id="路径" fill="url(#linearGradient-2)" transform="translate(12.1297, 19.3021) scale(-1, 1) translate(-12.1297, -19.3021)"></path>
            <path d="M0.141111157,16.75 C-0.0997601933,16.5894191 -0.0915171476,15.0050668 0.641111157,12.375 C1.04907352,10.9104534 2.18525714,9.1807056 2.31938579,7.75 C2.6943858,3.75 3.9118549,0 8.64111115,0 C13.3703674,0 14.6599729,3.5 15.1411111,7.75 C15.2872409,9.04079667 15.8317023,10.5779119 16.2661111,11.625 C17.0452397,13.5029915 17.4667074,16.2073395 17.1411111,16.75 C16.8911111,17.1666667 16.2244445,16.5 15.1411111,14.75 C14.8077778,16.9166667 13.8494445,18.375 12.2661111,19.125 C9.89111115,20.25 5.14111115,20.25 3.64111115,18.125 C2.64111115,16.7083333 2.14111116,15.5833333 2.14111116,14.75 C1.05777782,16.25 0.391111157,16.9166667 0.141111157,16.75 Z" id="路径" fill="url(#linearGradient-3)"></path>
            <path d="M4.76611115,6.875 C4.76611115,7.625 7.26611115,8.375 8.64111115,8.375 C10.0161111,8.375 12.5161111,7.75 12.5161111,6.875 C12.5161111,6.5 10.6411111,6.25 8.64111115,6.25 C6.64111115,6.25 4.76611115,6.5 4.76611115,6.875 Z" id="路径" fill="#F9AE0A"></path>
            <path d="M3.76611115,10 C2.89111115,13.625 3.51611115,19.5 8.64111115,19.5 C13.7661111,19.5 14.1411111,12.875 13.3911111,10 C13.0472619,9.65615072 11.0881191,10.094206 9.01611115,10 C6.56867967,9.888725 3.96918652,9.32308212 3.76611115,10 Z" id="路径" fill="url(#linearGradient-4)"></path>
            <g id="qq-f-link" transform="translate(1.3561, 8.315)" fill="#000000">
                <path d="M0.84802856,0.06003605 C2.22302855,0.68503605 5.28500415,0.93503605 7.78500415,0.81003605 C10.2850041,0.68503605 13.2424476,0.376743325 13.8624395,0 C13.964447,0.293092925 14.0715698,0.733250975 14.2029259,1.18503605 C14.3396881,1.65541513 14.4955986,2.1056445 14.5998841,2.47219185 C14.2640006,2.83752568 11.9100041,3.31003605 10.9100041,3.43503605 C9.91000415,3.56003605 7.16000415,3.81003605 6.03500415,3.68503605 C6.03500415,4.18503605 6.03500415,5.06003605 6.03500415,6.31003605 L3.03500415,6.31003605 L3.03500415,3.43503605 C1.26166805,3.14179323 0.25,2.7451718 0,2.2451718 C0.0641169775,1.9245869 0.21633277,1.57169915 0.352126113,1.18503605 C0.481070253,0.817875625 0.698571585,0.3486356 0.84802856,0.06003605 Z" id="qq-f"></path>
            </g>
            <g id="qq-f-link" transform="translate(1.3561, 8.315)" fill="url(#linearGradient-5)">
                <path d="M0.84802856,0.06003605 C2.22302855,0.68503605 5.28500415,0.93503605 7.78500415,0.81003605 C10.2850041,0.68503605 13.2424476,0.376743325 13.8624395,0 C13.964447,0.293092925 14.0715698,0.733250975 14.2029259,1.18503605 C14.3396881,1.65541513 14.4955986,2.1056445 14.5998841,2.47219185 C14.2640006,2.83752568 11.9100041,3.31003605 10.9100041,3.43503605 C9.91000415,3.56003605 7.16000415,3.81003605 6.03500415,3.68503605 C6.03500415,4.18503605 6.03500415,5.06003605 6.03500415,6.31003605 L3.03500415,6.31003605 L3.03500415,3.43503605 C1.26166805,3.14179323 0.25,2.7451718 0,2.2451718 C0.0641169775,1.9245869 0.21633277,1.57169915 0.352126113,1.18503605 C0.481070253,0.817875625 0.698571585,0.3486356 0.84802856,0.06003605 Z" id="qq-f"></path>
            </g>
            <ellipse id="椭圆形" fill="#FFFFFF" cx="10.391" cy="4.125" rx="1.25" ry="1.625"></ellipse>
            <ellipse id="椭圆形" fill="#FFFFFF" cx="7.141" cy="4.125" rx="1.25" ry="1.625"></ellipse>
            <ellipse id="椭圆形" fill="#000000" cx="7.641" cy="4.25" rx="1" ry="1"></ellipse>
            <rect id="矩形" fill="#000000" x="9.641" y="4" width="1.5" height="1"></rect>
        </g>
    </g>
</svg>