<?xml version="1.0" encoding="UTF-8"?>
<svg width="24px" height="24px" viewBox="0 0 24 24" version="1.1" xmlns="http://www.w3.org/2000/svg" xmlns:xlink="http://www.w3.org/1999/xlink">
    <title>net.textseek</title>
    <defs>
        <filter x="-6.9%" y="-6.9%" width="113.8%" height="113.8%" filterUnits="objectBoundingBox" id="filter-1">
            <feOffset dx="0" dy="0" in="SourceAlpha" result="shadowOffsetOuter1"></feOffset>
            <feGaussianBlur stdDeviation="0.5" in="shadowOffsetOuter1" result="shadowBlurOuter1"></feGaussianBlur>
            <feColorMatrix values="0 0 0 0 0   0 0 0 0 0   0 0 0 0 0  0 0 0 0.15 0" type="matrix" in="shadowBlurOuter1" result="shadowMatrixOuter1"></feColorMatrix>
            <feMerge>
                <feMergeNode in="shadowMatrixOuter1"></feMergeNode>
                <feMergeNode in="SourceGraphic"></feMergeNode>
            </feMerge>
        </filter>
    </defs>
    <g id="net.textseek" stroke="none" stroke-width="1" fill="none" fill-rule="evenodd">
        <g id="ea349d72b80d25a5ef7ae77090d4e613" filter="url(#filter-1)" transform="translate(1.25, 1.25)" fill-rule="nonzero">
            <path d="M20.0683378,13.6310776 C19.6696356,14.7590082 19.1082881,15.7857224 18.3842955,16.7112201 C18.3550514,16.7477765 18.3579108,16.8004501 18.3909405,16.8336287 C19.3876961,17.8451604 20.3825532,18.8354999 21.3755116,19.8046473 C22.4586527,20.8617264 20.9540264,22.4587319 19.8784796,21.4044995 C18.8513467,20.397396 17.8333902,19.3820687 16.8246103,18.3585175 C16.8011944,18.3351112 16.77588,18.3332134 16.748667,18.3528241 L16.5031493,18.5303466 C16.058752,18.8491698 15.7240512,19.074509 15.499047,19.2063644 L15.460479,19.2286625 C11.6338868,21.4054484 6.90736666,20.9604124 3.59623947,18.1250871 C1.55779515,16.3791037 0.374662063,14.1580356 0.0468402198,11.461883 C-0.0186608628,10.92765 0.00127424928,10.3478696 0.0088685777,9.77568048 C0.032600854,7.91298185 0.833802503,5.62612312 2.01946703,4.17050432 C5.81758053,-0.926059272 13.1964199,-1.42328499 17.6428992,3.07546906 C19.5452784,4.99889755 20.5410848,7.39962477 20.5913972,10.1495487 C20.613041,11.3214452 20.4567695,12.4273999 20.1225827,13.467413 L20.0683378,13.6310776 Z M2.93933006,13.4650194 C4.74108448,17.651584 9.77042847,19.539903 13.9102868,17.4295405 C15.8291204,16.4515367 17.1631908,14.9114654 17.9124978,12.8093267 C18.4833382,10.9248033 18.4270136,9.10512163 17.743524,7.35028176 C16.2369991,3.47970218 11.9224713,1.40919357 7.94494178,2.64087101 C6.5001208,3.08875372 5.26952316,3.88709832 4.25314888,5.03590481 C2.23685468,7.40436929 1.71569389,10.6221029 2.93933006,13.4650194 Z" id="形状" fill="#37BFFA"></path>
            <path d="M16.1838388,6.65947962 C16.2199119,6.67149907 16.2357334,6.69648687 16.2313034,6.73444304 L16.1135913,7.87407679 C16.108851,7.91884278 16.0833397,7.95877953 16.0447066,7.98191267 C16.0060734,8.0050458 15.9588102,8.00868566 15.917088,7.99174089 L15.8336474,7.95956297 C14.8783724,7.60320311 13.1869269,7.37243144 13.0755494,8.7711145 C13.073634,8.79516747 13.0700612,8.84780729 13.0755494,8.90096554 C13.0792776,8.93707727 13.0914182,8.98006123 13.0946928,8.98876104 C13.1499997,9.13569697 13.1965947,9.21092233 13.2343468,9.26408239 C13.4203292,9.52596997 13.6899427,9.71295034 14.0431875,9.82502349 C14.8551478,10.0818602 15.5006657,10.3889888 15.9797413,10.7464093 C16.1489024,10.8724802 16.291284,11.0390357 16.4068863,11.2460759 C16.4332114,11.2932235 16.5494938,11.5358886 16.6075378,11.8335228 C16.6588056,12.0964105 16.6909908,12.4384892 16.6661069,12.7704139 C16.6467501,13.0286137 16.5757752,13.3113534 16.5625633,13.348023 C16.5328969,13.4303616 16.4989424,13.5094272 16.4610088,13.5852336 C16.1067022,14.2932791 15.4052612,14.7170024 14.6084502,14.8677239 C14.5803548,14.8730383 14.4349846,14.9196435 14.2653332,14.9456389 C14.0477846,14.9789735 13.7909747,14.9929604 13.6974129,14.9973875 C12.9825828,15.0312117 12.2110768,14.8529159 11.5550957,14.655894 C11.5076311,14.6419767 11.4842153,14.6103466 11.4848356,14.5610036 C11.4880124,14.1283033 11.5418056,13.7019291 11.6462276,13.2818809 C11.6499626,13.2679332 11.6593051,13.25617 11.6719568,13.2494855 C11.6846084,13.2428009 11.6993947,13.2418154 11.712678,13.2467715 C12.0449298,13.3688638 12.3768653,13.4817834 12.7084843,13.5855302 C13.073012,13.6993987 13.6739133,13.7383037 14.0374918,13.6234864 C14.5270388,13.4692678 14.9128438,13.1818037 14.9875024,12.703606 C14.997704,12.6382633 15.0068563,12.4663416 14.963625,12.3251302 C14.9183268,12.1771679 14.8196166,12.0604868 14.7885635,12.0260233 C14.7011103,11.9289655 14.6149804,11.8513079 14.5301738,11.7930505 C13.591325,11.144949 12.1540983,11.115533 11.5617407,9.90947595 C11.4687102,9.71969514 11.3811486,9.34622847 11.3678585,9.05080301 C11.361962,8.92309759 11.3573382,8.79308325 11.3678585,8.59405062 C11.3776625,8.40857062 11.4194731,8.2393333 11.4275093,8.20469179 C11.5995642,7.46302113 12.0433267,6.94194068 12.7587967,6.64145044 C13.8894024,6.16699842 15.0522839,6.27327567 16.1838388,6.65947962 Z" id="路径" fill="#707070"></path>
            <path d="M4.29037271,7.5848907 C4.29481691,7.2331636 4.30177837,6.88301801 4.31127129,6.53445393 C4.31165536,6.50681946 4.33318258,6.48367698 4.36158371,6.4803664 L4.45556353,6.46992845 L4.52375749,6.44707729 C4.57548417,6.43113312 4.61445677,6.42293511 4.64067528,6.42248325 L6.3219666,6.41946225 C7.73046913,6.41804212 9.15753772,6.41936542 10.6031724,6.42343215 C10.7215173,6.42343215 10.7800569,6.48258051 10.7788679,6.60087721 L10.7692983,7.58204399 C10.7687768,7.67548345 10.6924272,7.75095398 10.5984259,7.7509489 L8.60206684,7.75 C8.52290072,7.75 8.4587239,7.81415066 8.4587239,7.89328451 L8.46157177,14.5972264 C8.46157177,14.6377445 8.44556948,14.6766031 8.41708522,14.7052537 C8.38860097,14.7339043 8.34996802,14.75 8.3096852,14.75 L6.90663302,14.754819 C6.8651789,14.7549972 6.82533582,14.7387131 6.79593382,14.7095013 C6.76653182,14.6802894 6.74999923,14.6405623 6.75,14.5991243 L6.75189858,7.8904378 C6.75189858,7.81287614 6.68899679,7.75 6.61140351,7.75 L4.54099972,7.74810219 C4.37265877,7.76075425 4.28912116,7.70635041 4.29037271,7.5848907 Z" id="路径" fill="#5B5B5B"></path>
        </g>
    </g>
</svg>