<?xml version="1.0" encoding="UTF-8"?>
<svg width="24px" height="24px" viewBox="0 0 24 24" version="1.1" xmlns="http://www.w3.org/2000/svg" xmlns:xlink="http://www.w3.org/1999/xlink">
    <title>org.libreoffice.libreoffice</title>
    <defs>
        <filter x="-7.5%" y="-7.5%" width="115.0%" height="115.0%" filterUnits="objectBoundingBox" id="filter-1">
            <feOffset dx="0" dy="0" in="SourceAlpha" result="shadowOffsetOuter1"></feOffset>
            <feGaussianBlur stdDeviation="0.5" in="shadowOffsetOuter1" result="shadowBlurOuter1"></feGaussianBlur>
            <feColorMatrix values="0 0 0 0 0   0 0 0 0 0   0 0 0 0 0  0 0 0 0.15 0" type="matrix" in="shadowBlurOuter1" result="shadowMatrixOuter1"></feColorMatrix>
            <feMerge>
                <feMergeNode in="shadowMatrixOuter1"></feMergeNode>
                <feMergeNode in="SourceGraphic"></feMergeNode>
            </feMerge>
        </filter>
        <linearGradient x1="50%" y1="0%" x2="50%" y2="100%" id="linearGradient-2">
            <stop stop-color="#577289" offset="0%"></stop>
            <stop stop-color="#2C3E51" offset="100%"></stop>
        </linearGradient>
    </defs>
    <g id="org.libreoffice.libreoffice" stroke="none" stroke-width="1" fill="none" fill-rule="evenodd">
        <g id="编组" filter="url(#filter-1)" transform="translate(2, 2)">
            <path d="M4.5,0 L15.5,0 C17.9852814,-4.56538782e-16 20,2.01471863 20,4.5 L20,15.5 C20,17.9852814 17.9852814,20 15.5,20 L4.5,20 C2.01471863,20 3.04359188e-16,17.9852814 0,15.5 L0,4.5 C-3.04359188e-16,2.01471863 2.01471863,4.56538782e-16 4.5,0 Z" id="矩形" fill="url(#linearGradient-2)"></path>
            <path d="M15,3.25 C15.4832492,3.25 15.9207492,3.44587542 16.2374369,3.76256313 C16.5541246,4.07925084 16.75,4.51675084 16.75,5 L16.75,15 C16.75,15.4832492 16.5541246,15.9207492 16.2374369,16.2374369 C15.9207492,16.5541246 15.4832492,16.75 15,16.75 L5,16.75 C4.51675084,16.75 4.07925084,16.5541246 3.76256313,16.2374369 C3.44587542,15.9207492 3.25,15.4832492 3.25,15 L3.25,5 C3.25,4.51675084 3.44587542,4.07925084 3.76256313,3.76256313 C4.07925084,3.44587542 4.51675084,3.25 5,3.25 Z" id="矩形" stroke="#FFFFFF" stroke-width="0.5"></path>
            <path d="M12,3 L15,3 C16.1045695,3 17,3.8954305 17,5 L17,8 L17,8 L12,8 L12,3 Z" id="矩形" fill="#FFFFFF"></path>
        </g>
    </g>
</svg>