<?xml version="1.0" encoding="UTF-8"?>
<svg width="24px" height="24px" viewBox="0 0 24 24" version="1.1" xmlns="http://www.w3.org/2000/svg" xmlns:xlink="http://www.w3.org/1999/xlink">
    <title>org.gnome.disk-utility</title>
    <defs>
        <filter x="-8.3%" y="-7.5%" width="116.7%" height="115.0%" filterUnits="objectBoundingBox" id="filter-1">
            <feOffset dx="0" dy="0" in="SourceAlpha" result="shadowOffsetOuter1"></feOffset>
            <feGaussianBlur stdDeviation="0.5" in="shadowOffsetOuter1" result="shadowBlurOuter1"></feGaussianBlur>
            <feColorMatrix values="0 0 0 0 0   0 0 0 0 0   0 0 0 0 0  0 0 0 0.15 0" type="matrix" in="shadowBlurOuter1" result="shadowMatrixOuter1"></feColorMatrix>
            <feMerge>
                <feMergeNode in="shadowMatrixOuter1"></feMergeNode>
                <feMergeNode in="SourceGraphic"></feMergeNode>
            </feMerge>
        </filter>
        <linearGradient x1="50%" y1="0%" x2="50%" y2="100%" id="linearGradient-2">
            <stop stop-color="#89A3A8" offset="0%"></stop>
            <stop stop-color="#67787C" offset="100%"></stop>
        </linearGradient>
    </defs>
    <g id="org.gnome.disk-utility" stroke="none" stroke-width="1" fill="none" fill-rule="evenodd">
        <g id="gnome-disk-utility" filter="url(#filter-1)" transform="translate(3, 2)" fill-rule="nonzero">
            <path d="M2,0 L16,0 C17.1045695,-2.02906125e-16 18,0.8954305 18,2 L18,18.5 C18,19.3284271 17.3284271,20 16.5,20 L1.5,20 C0.671572875,20 1.01453063e-16,19.3284271 0,18.5 L0,2 C-1.3527075e-16,0.8954305 0.8954305,2.02906125e-16 2,0 Z" id="gnome-disk-utility-b" fill="#F7F8F8"></path>
            <path d="M18,18 L0,18 L0,2 C-1.3527075e-16,0.8954305 0.8954305,2.02906125e-16 2,0 L16,0 C17.1045695,-2.02906125e-16 18,0.8954305 18,2 L18,18 L18,18 Z" id="路径" fill="url(#linearGradient-2)"></path>
            <rect id="矩形" fill="#D8D8D8" x="0" y="16" width="18" height="4" rx="1"></rect>
            <path d="M15.5,18 L16,18 L16,19 L15.5,19 Z M14.5,18 L15,18 L15,19 L14.5,19 Z M13.5,18 L14,18 L14,19 L13.5,19 Z M12.5,18 L13,18 L13,19 L12.5,19 Z M11.5,18 L12,18 L12,19 L11.5,19 Z M10.5,18 L11,18 L11,19 L10.5,19 Z" id="形状结合" fill="#7F8E93"></path>
            <circle id="椭圆形" fill="#748487" cx="2.25" cy="18.5" r="1"></circle>
            <path d="M10.95985,10.2325 L8.3045875,7.57775 C8.1590375,7.4322 7.8443625,7.443475 7.6383375,7.4486 C7.219625,7.4593625 6.8039875,7.30305 6.49085,6.9894 C6.0362625,6.5348125 5.8302375,5.83935 6.22435,5.057275 L7.2555,6.088425 C7.4681875,6.03 7.750575,5.74915 7.8095125,5.5344125 L6.7783625,4.5032625 C7.56915,4.10505 8.254875,4.3146625 8.7104875,4.7697625 C9.0190125,5.0782875 9.18045,5.493925 9.1696875,5.9177625 C9.1645625,6.1237875 9.1204875,6.447175 9.2660375,6.592725 L11.918225,9.2500375 C12.08325,9.4150625 12.2575,9.874775 11.9269375,10.2053375 C11.5948375,10.53795 11.194575,10.467225 10.95985,10.2325 Z" id="路径" fill="#F7F8F8"></path>
            <path d="M9.064625,1.725 C5.9511875,1.725 3.427125,4.2490625 3.427125,7.3625 C3.427125,10.4759375 5.9511875,13 9.064625,13 C12.1780625,13 14.702125,10.4759375 14.702125,7.3625 C14.702125,4.2490625 12.178575,1.725 9.064625,1.725 Z M9.064625,12.2481625 C6.3663125,12.2481625 4.1789625,10.0608125 4.1789625,7.3625 C4.1789625,4.6641875 6.3663125,2.4768375 9.064625,2.4768375 C11.7629375,2.4768375 13.9502875,4.6641875 13.9502875,7.3625 C13.9502875,10.0608125 11.76345,12.2481625 9.064625,12.2481625 Z" id="形状" fill="#F7F8F8"></path>
        </g>
    </g>
</svg>