<?xml version="1.0" encoding="UTF-8"?><svg version="1.1" width="152px" height="86px" viewBox="0 0 152.0 86.0" xmlns="http://www.w3.org/2000/svg" xmlns:xlink="http://www.w3.org/1999/xlink"><defs><clipPath id="i0"><path d="M1920,0 L1920,1080 L0,1080 L0,0 L1920,0 Z"></path></clipPath><clipPath id="i1"><path d="M142,0 C146.418278,-8.11624501e-16 150,3.581722 150,8 L150,76 C150,80.418278 146.418278,84 142,84 L8,84 C3.581722,84 5.41083001e-16,80.418278 0,76 L0,8 C-5.41083001e-16,3.581722 3.581722,8.11624501e-16 8,0 L142,0 Z"></path></clipPath><clipPath id="i2"><path d="M152,-2 L152,86 L-2,86 L-2,-2 L152,-2 Z M142,0 L8,0 C3.581722,8.11624501e-16 -5.41083001e-16,3.581722 0,8 L0,76 C5.41083001e-16,80.418278 3.581722,84 8,84 L142,84 C146.418278,84 150,80.418278 150,76 L150,8 C150,3.581722 146.418278,-8.11624501e-16 142,0 Z"></path></clipPath><clipPath id="i3"><path d="M87,-8 L87,64 L-9,64 L-9,-8 L87,-8 Z M74,0 L4,0 C1.790861,4.05812251e-16 -2.705415e-16,1.790861 0,4 L0,50 C2.705415e-16,52.209139 1.790861,54 4,54 L74,54 C76.209139,54 78,52.209139 78,50 L78,4 C78,1.790861 76.209139,-4.05812251e-16 74,0 Z"></path></clipPath><filter id="i4" x="-29.1666667%" y="-37.5%" filterUnits="userSpaceOnUse" width="139.583333%" height="152.777778%"><feGaussianBlur stdDeviation="4.5" in="SourceAlpha" result="i5"></feGaussianBlur><feOffset dx="0" dy="1" in="i5" result="i6"></feOffset><feColorMatrix values="0 0 0 0.0 0 0 0 0 0.0 0 0 0 0 0.0 0 0 0 0 0.3 0" type="matrix" in="i6"></feColorMatrix></filter><clipPath id="i7"><path d="M74,0 C76.209139,-4.05812251e-16 78,1.790861 78,4 L78,50 C78,52.209139 76.209139,54 74,54 L4,54 C1.790861,54 2.705415e-16,52.209139 0,50 L0,4 C-2.705415e-16,1.790861 1.790861,4.05812251e-16 4,0 L74,0 Z"></path></clipPath><clipPath id="i8"><path d="M32,0 L32,54 L4,54 C1.790861,54 2.705415e-16,52.209139 0,50 L0,4 C-2.705415e-16,1.790861 1.790861,4.05812251e-16 4,0 L32,0 Z"></path></clipPath><clipPath id="i9"><path d="M22,0 C23.1045695,-2.02906125e-16 24,0.8954305 24,2 L24,8 C24,9.1045695 23.1045695,10 22,10 L2,10 C0.8954305,10 1.3527075e-16,9.1045695 0,8 L0,2 C-1.3527075e-16,0.8954305 0.8954305,2.02906125e-16 2,0 L22,0 Z"></path></clipPath><filter id="i10" x="-27.2727273%" y="-87.5%" filterUnits="userSpaceOnUse" width="145.454545%" height="225%"><feDropShadow stdDeviation="2" dx="2" dy="-3.6739404e-16" flood-color="rgba(0, 0, 0, 0.2)"></feDropShadow></filter><clipPath id="i11"><path d="M34.9,0 C35.5075132,-1.11598371e-16 36,0.492486786 36,1.10000002 L36,6.89999998 C36,7.50751321 35.5075132,8 34.9,8 L1.10000002,8 C0.492486786,8 7.43989142e-17,7.50751321 0,6.89999998 L0,1.10000002 C-7.43989142e-17,0.492486786 0.492486786,1.11598371e-16 1.10000002,0 L34.9,0 Z"></path></clipPath><linearGradient id="i12" x1="12.5029954px" y1="0px" x2="34.5812221px" y2="8px" gradientUnits="userSpaceOnUse"><stop stop-color="rgba(255, 255, 255, 0)" offset="0%"></stop><stop stop-color="rgba(91, 67, 255, 0.5)" offset="100%"></stop></linearGradient><filter id="i13" x="-12.5%" y="-41.6666667%" filterUnits="userSpaceOnUse" width="115%" height="150%"><feGaussianBlur stdDeviation="0.5" in="SourceAlpha" result="i14"></feGaussianBlur><feOffset dx="1" dy="0" in="i14" result="i15"></feOffset><feColorMatrix values="0 0 0 1.0 0 0 0 0 1.0 0 0 0 0 1.0 0 0 0 0 0.3500737543706294 0" type="matrix" in="i15"></feColorMatrix></filter><filter id="i16" x="-20.4545455%" y="-56.25%" filterUnits="userSpaceOnUse" width="122.727273%" height="162.5%"><feGaussianBlur stdDeviation="1" in="SourceAlpha" result="i17"></feGaussianBlur><feOffset dx="-1" dy="0" in="i17" result="i18"></feOffset><feColorMatrix values="0 0 0 0.0 0 0 0 0 0.0 0 0 0 0 0.0 0 0 0 0 0.2 0" type="matrix" in="i18"></feColorMatrix></filter><clipPath id="i19"><path d="M1.09677419,0 L1.09677419,4.11827957 C1.09677419,4.4211454 0.851252927,4.66666667 0.548387097,4.66666667 C0.245521266,4.66666667 4.81179577e-16,4.4211454 0,4.11827957 L0,0 L1.09677419,0 Z M17.5483871,0 L17.5483871,4.11827957 C17.5483871,4.4211454 17.3028658,4.66666667 17,4.66666667 C16.6971342,4.66666667 16.4516129,4.4211454 16.4516129,4.11827957 L16.4516129,0 L17.5483871,0 Z M4.38709677,0 L4.38709677,1.89605735 C4.38709677,2.19892318 4.14157551,2.44444444 3.83870968,2.44444444 C3.53584385,2.44444444 3.29032258,2.19892318 3.29032258,1.89605735 L3.29032258,0 L4.38709677,0 Z M7.67741935,0 L7.67741935,1.89605735 C7.67741935,2.19892318 7.43189809,2.44444444 7.12903226,2.44444444 C6.82616643,2.44444444 6.58064516,2.19892318 6.58064516,1.89605735 L6.58064516,0 L7.67741935,0 Z M10.9677419,0 L10.9677419,1.89605735 C10.9677419,2.19892318 10.7222207,2.44444444 10.4193548,2.44444444 C10.116489,2.44444444 9.87096774,2.19892318 9.87096774,1.89605735 L9.87096774,0 L10.9677419,0 Z M14.2580645,0 L14.2580645,1.89605735 C14.2580645,2.19892318 14.0125432,2.44444444 13.7096774,2.44444444 C13.4068116,2.44444444 13.1612903,2.19892318 13.1612903,1.89605735 L13.1612903,0 L14.2580645,0 Z M20.8387097,0 L20.8387097,1.89605735 C20.8387097,2.19892318 20.5931884,2.44444444 20.2903226,2.44444444 C19.9874568,2.44444444 19.7419355,2.19892318 19.7419355,1.89605735 L19.7419355,0 L20.8387097,0 Z M24.1290323,0 L24.1290323,1.89605735 C24.1290323,2.19892318 23.883511,2.44444444 23.5806452,2.44444444 C23.2777793,2.44444444 23.0322581,2.19892318 23.0322581,1.89605735 L23.0322581,0 L24.1290323,0 Z M27.4193548,0 L27.4193548,1.89605735 C27.4193548,2.19892318 27.1738336,2.44444444 26.8709677,2.44444444 C26.5681019,2.44444444 26.3225806,2.19892318 26.3225806,1.89605735 L26.3225806,0 L27.4193548,0 Z"></path></clipPath><filter id="i20" x="-87.9348649%" y="-27.7885808%" filterUnits="userSpaceOnUse" width="225.621236%" height="146.314301%"><feDropShadow stdDeviation="2" dx="0" dy="2" flood-color="rgba(0, 0, 0, 0.2)"></feDropShadow></filter><clipPath id="i21"><path d="M4,0 L4,22 C4,23.1045695 3.1045695,24 2,24 C0.8954305,24 1.3527075e-16,23.1045695 0,22 L0,0 L4,0 Z"></path></clipPath><filter id="i22" x="-81.25%" y="-36.1111111%" filterUnits="userSpaceOnUse" width="187.5%" height="138.888889%"><feGaussianBlur stdDeviation="1.5" in="SourceAlpha" result="i23"></feGaussianBlur><feOffset dx="0" dy="1" in="i23" result="i24"></feOffset><feColorMatrix values="0 0 0 0.0 0 0 0 0 0.0 0 0 0 0 0.0 0 0 0 0 0.5676628059440559 0" type="matrix" in="i24"></feColorMatrix></filter><clipPath id="i25"><path d="M4,0 L4,3 L0,3 L0,0 L4,0 Z"></path></clipPath><linearGradient id="i26" x1="0px" y1="1.5px" x2="4px" y2="1.5px" gradientUnits="userSpaceOnUse"><stop stop-color="#CECECE" offset="0%"></stop><stop stop-color="#9C9C9C" offset="100%"></stop></linearGradient><clipPath id="i27"><path d="M4,0 L4,1 L0,1 L0,0 L4,0 Z"></path></clipPath><clipPath id="i28"><path d="M7.27687939,0 C7.27687939,0.333333333 7.07108091,0.608694029 6.8513961,0.879169654 L6.71945415,1.04129352 C6.32784099,1.5284547 6.01559516,2.03418899 6.90194823,2.86810308 C8.37920333,4.25795989 8.44846448,9.01655559 5.77812808,11.1832056 L1.77812808,11.1832056 C-1.81592833,8.0650711 0.0489495948,0.216098082 7.27687939,0 Z"></path></clipPath><linearGradient id="i29" x1="1.26872731px" y1="10.7891665px" x2="6.65679117px" y2="11.1832056px" gradientUnits="userSpaceOnUse"><stop stop-color="#FFFFFF" offset="0%"></stop><stop stop-color="#D1D1D1" offset="100%"></stop></linearGradient><linearGradient id="i30" x1="4.40367227px" y1="0.200494002px" x2="-2.05778147e-13px" y2="6.92182261px" gradientUnits="userSpaceOnUse"><stop stop-color="#4BFDFF" offset="0%"></stop><stop stop-color="rgba(255, 255, 255, 0)" offset="100%"></stop></linearGradient><filter id="i31" x="-56.25%" y="-45%" filterUnits="userSpaceOnUse" width="162.5%" height="150%"><feGaussianBlur stdDeviation="1" in="SourceAlpha" result="i32"></feGaussianBlur><feOffset dx="-1" dy="-1" in="i32" result="i33"></feOffset><feColorMatrix values="0 0 0 0.6982445802841948 0 0 0 0 0.2604069563810714 0 0 0 0 0.9244508605072463 0 0 0 0 0.5 0" type="matrix" in="i33"></feColorMatrix></filter><filter id="i34" x="-25.1489565%" y="-100%" filterUnits="userSpaceOnUse" width="146.781902%" height="242.857143%"><feDropShadow stdDeviation="2" dx="2" dy="-3.6739404e-16" flood-color="rgba(0, 0, 0, 0.2)"></feDropShadow></filter><clipPath id="i35"><path d="M34,0 C35.1045695,-2.02906125e-16 36,0.8954305 36,2 L36,4 C36,5.1045695 35.1045695,6 34,6 L10.3745192,6 C10.1614807,6 9.94957177,5.96905626 9.74542881,5.90813787 L1.60558128,3.47912224 C1.34096937,3.40015928 1.19047116,3.12163682 1.26943412,2.85702491 C1.31764409,2.69546901 1.44402537,2.56908773 1.60558128,2.52087776 L9.74542881,0.0918621305 C9.94957177,0.030943737 10.1614807,-5.47915217e-15 10.3745192,0 L34,0 Z"></path></clipPath><linearGradient id="i36" x1="18px" y1="0px" x2="18px" y2="5.81896375px" gradientUnits="userSpaceOnUse"><stop stop-color="#BD8E05" offset="0%"></stop><stop stop-color="#FFE24E" offset="100%"></stop></linearGradient><linearGradient id="i37" x1="9.85317669px" y1="0px" x2="2.1440257px" y2="4.92355097px" gradientUnits="userSpaceOnUse"><stop stop-color="#EA7900" offset="0%"></stop><stop stop-color="rgba(255, 255, 255, 0)" offset="100%"></stop></linearGradient><filter id="i38" x="-16.2790698%" y="-57.1428571%" filterUnits="userSpaceOnUse" width="118.604651%" height="157.142857%"><feGaussianBlur stdDeviation="1" in="SourceAlpha" result="i39"></feGaussianBlur><feOffset dx="0" dy="0" in="i39" result="i40"></feOffset><feColorMatrix values="0 0 0 0.6676361526268116 0 0 0 0 0.4975879953494005 0 0 0 0 0.0 0 0 0 0 0.1145446350524476 0" type="matrix" in="i40"></feColorMatrix></filter><clipPath id="i41"><path d="M19.75,0 L19.75,6 L1,6 L0.883378875,5.99327227 C0.38604019,5.93550716 0,5.51283584 0,5 C0,4.44771525 0.44771525,4 1,4 L0.883378875,3.99327227 C0.38604019,3.93550716 3.41060513e-13,3.51283584 3.41060513e-13,3 C3.41060513e-13,2.44771525 0.44771525,2 1,2 L0.883378875,1.99327227 C0.38604019,1.93550716 1.13686838e-13,1.51283584 1.13686838e-13,1 C1.13686838e-13,0.44771525 0.44771525,4.54781169e-13 1,4.54747351e-13 L19.75,0 Z"></path></clipPath><filter id="i42" x="-52.5%" y="-80.7692308%" filterUnits="userSpaceOnUse" width="155%" height="184.615385%"><feGaussianBlur stdDeviation="2.5" in="SourceAlpha" result="i43"></feGaussianBlur><feOffset dx="0" dy="1" in="i43" result="i44"></feOffset><feColorMatrix values="0 0 0 0.0 0 0 0 0 0.0 0 0 0 0 0.0 0 0 0 0 0.2961289199082168 0" type="matrix" in="i44"></feColorMatrix></filter><clipPath id="i45"><path d="M20,0 L20,2 L0,2 L0,0 L20,0 Z"></path></clipPath><filter id="i46" x="-114.285714%" y="-60%" filterUnits="userSpaceOnUse" width="271.428571%" height="220%"><feGaussianBlur stdDeviation="1" in="SourceAlpha" result="i47"></feGaussianBlur><feOffset dx="0" dy="2" in="i47" result="i48"></feOffset><feColorMatrix values="0 0 0 0.0 0 0 0 0 0.0 0 0 0 0 0.0 0 0 0 0 0.2 0" type="matrix" in="i48"></feColorMatrix></filter><clipPath id="i49"><path d="M3,0 L3,6 L0,6 L0,0 L3,0 Z"></path></clipPath><linearGradient id="i50" x1="1.5px" y1="0px" x2="1.5px" y2="6px" gradientUnits="userSpaceOnUse"><stop stop-color="#9C9C9C" offset="0%"></stop><stop stop-color="#CECECE" offset="100%"></stop></linearGradient><clipPath id="i51"><path d="M1,0 L1,6 L0,6 L0,0 L1,0 Z"></path></clipPath><filter id="i52" x="-100%" y="-60%" filterUnits="userSpaceOnUse" width="250%" height="220%"><feGaussianBlur stdDeviation="1" in="SourceAlpha" result="i53"></feGaussianBlur><feOffset dx="0" dy="2" in="i53" result="i54"></feOffset><feColorMatrix values="0 0 0 0.0 0 0 0 0 0.0 0 0 0 0 0.0 0 0 0 0 0.2 0" type="matrix" in="i54"></feColorMatrix></filter><clipPath id="i55"><path d="M2,0 C3.1045695,-2.02906125e-16 4,0.8954305 4,2 L4,4 C4,5.1045695 3.1045695,6 2,6 L0,6 L0,0 L2,0 Z"></path></clipPath><linearGradient id="i56" x1="2px" y1="0px" x2="2px" y2="6px" gradientUnits="userSpaceOnUse"><stop stop-color="#D9404B" offset="0%"></stop><stop stop-color="#EC7554" offset="100%"></stop></linearGradient><filter id="i57" x="-81.25%" y="-72.2222222%" filterUnits="userSpaceOnUse" width="187.5%" height="177.777778%"><feGaussianBlur stdDeviation="1.5" in="SourceAlpha" result="i58"></feGaussianBlur><feOffset dx="0" dy="1" in="i58" result="i59"></feOffset><feColorMatrix values="0 0 0 1.0 0 0 0 0 1.0 0 0 0 0 1.0 0 0 0 0 0.1206276633522727 0" type="matrix" in="i59"></feColorMatrix></filter><filter id="i60" x="-75%" y="-64.2857143%" filterUnits="userSpaceOnUse" width="183.333333%" height="171.428571%"><feGaussianBlur stdDeviation="1" in="SourceAlpha" result="i61"></feGaussianBlur><feOffset dx="0" dy="-1" in="i61" result="i62"></feOffset><feColorMatrix values="0 0 0 0.0 0 0 0 0 0.0 0 0 0 0 0.0 0 0 0 0 0.1482940887237762 0" type="matrix" in="i62"></feColorMatrix></filter><clipPath id="i63"><path d="M3,0 L3,4 L0,2 L3,0 Z"></path></clipPath><filter id="i64" x="-91.3043478%" y="-87.5%" filterUnits="userSpaceOnUse" width="195.652174%" height="191.666667%"><feGaussianBlur stdDeviation="2.5" in="SourceAlpha" result="i65"></feGaussianBlur><feOffset dx="0" dy="1" in="i65" result="i66"></feOffset><feColorMatrix values="0 0 0 0.0 0 0 0 0 0.0 0 0 0 0 0.0 0 0 0 0 0.2961289199082168 0" type="matrix" in="i66"></feColorMatrix></filter></defs><g transform="translate(-1512.0 -338.0)"><g clip-path="url(#i0)"><g transform="translate(1513.0 338.9999999999999)"><g clip-path="url(#i1)"><polygon points="0,0 150,0 150,84 0,84 0,0" stroke="none" fill="rgba(224, 225, 233, 0.8)"></polygon></g><g clip-path="url(#i1)"><path d="M8,0 L142,0 C146.418278,-8.11624501e-16 150,3.581722 150,8 L150,76 C150,80.418278 146.418278,84 142,84 L8,84 C3.581722,84 5.41083001e-16,80.418278 0,76 L0,8 C-5.41083001e-16,3.581722 3.581722,8.11624501e-16 8,0 Z" stroke="rgba(255, 255, 255, 0.198259)" stroke-width="2" fill="none" stroke-miterlimit="5"></path></g><g clip-path="url(#i2)"><path d="M8,0 L142,0 C146.418278,-8.11624501e-16 150,3.581722 150,8 L150,76 C150,80.418278 146.418278,84 142,84 L8,84 C3.581722,84 5.41083001e-16,80.418278 0,76 L0,8 C-5.41083001e-16,3.581722 3.581722,8.11624501e-16 8,0 Z" stroke="rgba(0, 0, 0, 0.1)" stroke-width="2" fill="none" stroke-miterlimit="5"></path></g><g transform="translate(36.0 15.000000000000114)"><g opacity="79.7842843%"><g clip-path="url(#i3)"><path d="M4,0 L74,0 C76.209139,-4.05812251e-16 78,1.790861 78,4 L78,50 C78,52.209139 76.209139,54 74,54 L4,54 C1.790861,54 2.705415e-16,52.209139 0,50 L0,4 C-2.705415e-16,1.790861 1.790861,4.05812251e-16 4,0 Z" stroke="none" fill="#000000" filter="url(#i4)"></path></g><g clip-path="url(#i7)"><polygon points="0,0 78,0 78,54 0,54 0,0" stroke="none" fill="rgba(255, 255, 255, 0.9)"></polygon></g><g clip-path="url(#i8)"><polygon points="0,0 32,0 32,54 0,54 0,0" stroke="none" fill="rgba(220, 220, 220, 0.9)" opacity="70.7313174%"></polygon></g><g transform="translate(4.0 4.0)"><g clip-path="url(#i9)"><polygon points="0,0 24,0 24,10 0,10 0,0" stroke="none" fill="rgba(182, 180, 180, 0.9)"></polygon></g></g></g><g transform="translate(71.14274701133922 9.00000000000011) rotate(90.00000000000001)"><g filter="url(#i10)"><g clip-path="url(#i11)"><polygon points="0,0 36,0 36,8 0,8 0,0" stroke="none" fill="#8DDEFF"></polygon><polygon points="0,0 36,0 36,8 0,8 0,0" stroke="none" fill="url(#i12)"></polygon><path d="M36,9 L-2,9 L-2,-1 L36,-1 L36,1.10000002 C36,0.492486786 35.5075132,-1.11598371e-16 34.9,0 L1.10000002,0 C0.492486786,1.11598371e-16 -7.43989142e-17,0.492486786 0,1.10000002 L0,6.89999998 C7.43989142e-17,7.50751321 0.492486786,8 1.10000002,8 L34.9,8 C35.5075132,8 36,7.50751321 36,6.89999998 L36,9 Z" stroke="none" fill="#000000" filter="url(#i13)"></path><path d="M39,-2 L39,10 L-1,10 L-1,-2 L39,-2 Z M34.9,0 L1.10000002,0 C0.492486786,1.11598371e-16 -7.43989142e-17,0.492486786 0,1.10000002 L0,6.89999998 C7.43989142e-17,7.50751321 0.492486786,8 1.10000002,8 L34.9,8 C35.5075132,8 36,7.50751321 36,6.89999998 L36,1.10000002 C36,0.492486786 35.5075132,-1.11598371e-16 34.9,0 Z" stroke="none" fill="#000000" filter="url(#i16)"></path></g><g transform="translate(4.290322580645126 0.0)"><g clip-path="url(#i19)"><polygon points="0,0 27.4193548,0 27.4193548,4.66666667 0,4.66666667 0,0" stroke="none" fill="rgba(0, 0, 0, 0.156591)"></polygon></g></g></g></g><g transform="translate(51.00000000000005 9.81679440588318)"><g filter="url(#i20)"><g transform="translate(1.7781280779145163 11.183205594116878)"><g clip-path="url(#i21)"><polygon points="0,0 4,0 4,24 0,24 0,0" stroke="none" fill="#3F3E3B"></polygon><path d="M7,-4 L7,26 L-3,26 L-3,-4 L7,-4 Z M4,0 L0,0 L0,22 C1.3527075e-16,23.1045695 0.8954305,24 2,24 C3.1045695,24 4,23.1045695 4,22 L4,0 Z" stroke="none" fill="#000000" filter="url(#i22)"></path></g></g><g transform="translate(1.7781280779145163 11.18320559411688)"><g clip-path="url(#i25)"><polygon points="0,0 4,0 4,3 0,3 0,0" stroke="none" fill="url(#i26)"></polygon></g></g><g transform="translate(1.7781280779154258 12.18320559412081)"><g clip-path="url(#i27)"><polygon points="0,0 4,0 4,1 0,1 0,0" stroke="none" fill="rgba(0, 0, 0, 0.1)"></polygon></g></g><g clip-path="url(#i28)"><polygon points="0,0 7.92087509,0 7.92087509,11.1832056 0,11.1832056 0,0" stroke="none" fill="url(#i29)"></polygon><polygon points="0,0 7.92087509,0 7.92087509,11.1832056 0,11.1832056 0,0" stroke="none" fill="url(#i30)"></polygon><path d="M11,-1 L11,15 L-1,15 L-1,-1 L11,-1 Z M7.27687939,0 C0.0489495948,0.216098082 -1.81592833,8.0650711 1.77812808,11.1832056 L5.77812808,11.1832056 C8.44846448,9.01655559 8.37920333,4.25795989 6.90194823,2.86810308 C6.01559516,2.03418899 6.32784099,1.5284547 6.71945415,1.04129352 L6.8513961,0.879169654 C7.07108091,0.608694029 7.27687939,0.333333333 7.27687939,0 Z" stroke="none" fill="#000000" filter="url(#i31)"></path></g></g></g><g transform="translate(46.000000000001364 9.00000000000114) rotate(90.00000000000001)"><g filter="url(#i34)"><g clip-path="url(#i35)"><polygon points="1.24842501,0 36,0 36,6 1.24842501,6 1.24842501,0" stroke="none" fill="url(#i36)"></polygon><polygon points="1.24842501,0 36,0 36,6 1.24842501,6 1.24842501,0" stroke="none" fill="url(#i37)"></polygon><path d="M38,-2 L38,8 L-1,8 L-1,-2 L38,-2 Z M34,0 L10.3745192,0 C10.1614807,-5.47915217e-15 9.94957177,0.030943737 9.74542881,0.0918621305 L1.60558128,2.52087776 C1.44402537,2.56908773 1.31764409,2.69546901 1.26943412,2.85702491 C1.19047116,3.12163682 1.34096937,3.40015928 1.60558128,3.47912224 L9.74542881,5.90813787 C9.94957177,5.96905626 10.1614807,6 10.3745192,6 L34,6 C35.1045695,6 36,5.1045695 36,4 L36,2 C36,0.8954305 35.1045695,-2.02906125e-16 34,0 Z" stroke="none" fill="#000000" filter="url(#i38)"></path><g transform="translate(9.249999999998748 0.0)"><g clip-path="url(#i41)"><polygon points="0,0 19.75,0 19.75,6 0,6 0,0" stroke="none" fill="#505050"></polygon><path d="M25,-6 L25,10 L-5,10 L-5,-6 L25,-6 Z M19.75,0 L1,4.54747351e-13 C0.44771525,4.54781169e-13 1.13686838e-13,0.44771525 1.13686838e-13,1 C1.13686838e-13,1.51283584 0.38604019,1.93550716 0.883378875,1.99327227 L1,2 C0.44771525,2 3.41060513e-13,2.44771525 3.41060513e-13,3 C3.41060513e-13,3.51283584 0.38604019,3.93550716 0.883378875,3.99327227 L1,4 C0.44771525,4 0,4.44771525 0,5 C0,5.51283584 0.38604019,5.93550716 0.883378875,5.99327227 L1,6 L19.75,6 L19.75,0 Z" stroke="none" fill="#000000" filter="url(#i42)"></path><g transform="translate(-0.2499999999998863 1.2505552149377763e-12)"><g clip-path="url(#i45)"><polygon points="0.25,0 20,0 20,2 0.25,2 0.25,0" stroke="none" fill="rgba(0, 0, 0, 0.16)"></polygon></g></g><g transform="translate(-0.25 4.000000000001364)"><g clip-path="url(#i45)"><polygon points="0.25,0 20,0 20,2 0.25,2 0.25,0" stroke="none" fill="rgba(255, 255, 255, 0.1)"></polygon></g></g></g></g><g transform="translate(29.00000000000205 -9.094947017729282e-13)"><polygon points="0,0 3,0 3,6 0,6 0,0 0,0" stroke="none" fill="#000000" filter="url(#i46)"></polygon><g clip-path="url(#i49)"><polygon points="0,9.09494702e-13 3,9.09494702e-13 3,6 0,6 0,9.09494702e-13" stroke="none" fill="url(#i50)"></polygon></g></g><g transform="translate(30.00000000000205 -9.094947017729282e-13)"><g clip-path="url(#i51)"><polygon points="0,9.09494702e-13 1,9.09494702e-13 1,6 0,6 0,9.09494702e-13" stroke="none" fill="rgba(0, 0, 0, 0.1)"></polygon></g></g><g transform="translate(32.00000000000205 0.0)"><path d="M0,0 L2,0 C3.1045695,-2.02906125e-16 4,0.8954305 4,2 L4,4 C4,5.1045695 3.1045695,6 2,6 L0,6 L0,6 L0,0 Z" stroke="none" fill="#000000" filter="url(#i52)"></path><g clip-path="url(#i55)"><polygon points="0,0 4,0 4,6 0,6 0,0" stroke="none" fill="url(#i56)"></polygon><path d="M7,-4 L7,8 L-3,8 L-3,-4 L7,-4 Z M2,0 L0,0 L0,6 L2,6 C3.1045695,6 4,5.1045695 4,4 L4,2 C4,0.8954305 3.1045695,-2.02906125e-16 2,0 Z" stroke="none" fill="#000000" filter="url(#i57)"></path><path d="M6,-1 L6,9 L-2,9 L-2,-1 L6,-1 Z M2,0 L0,0 L0,6 L2,6 C3.1045695,6 4,5.1045695 4,4 L4,2 C4,0.8954305 3.1045695,-2.02906125e-16 2,0 Z" stroke="none" fill="#000000" filter="url(#i60)"></path></g></g><g transform="translate(2.0463630789890885e-12 1.000000000000909)"><g clip-path="url(#i63)"><polygon points="1.24842501,0 3,0 3,4 1.24842501,4 1.24842501,0" stroke="none" fill="#505050"></polygon><path d="M8,-6 L8,8 L-5,8 L-5,-6 L8,-6 Z M3,0 L0,2 L3,4 L3,0 Z" stroke="none" fill="#000000" filter="url(#i64)"></path></g></g></g></g></g></g></g></g></g></svg>