<?xml version="1.0" encoding="UTF-8"?>
<svg width="24px" height="24px" viewBox="0 0 24 24" version="1.1" xmlns="http://www.w3.org/2000/svg" xmlns:xlink="http://www.w3.org/1999/xlink">
    <title>icon/voiceoff</title>
    <defs>
        <path d="M14.7556891,0.535031678 C14.9132599,0.716844117 15,0.949370624 15,1.18996222 L15,22.8100378 C15,23.3623225 14.5522847,23.8100378 14,23.8100378 C13.7594084,23.8100378 13.5268819,23.7232976 13.3450695,23.5657269 L5.77,16.9999465 L3,17 C1.34314575,17 2.02906125e-16,15.6568542 0,14 L0,10 C-2.02906125e-16,8.34314575 1.34314575,7 3,7 L5.769,6.99994653 L13.3450695,0.434273133 C13.762425,0.0725649847 14.3939809,0.117676122 14.7556891,0.535031678 Z M18.232233,8.31801948 L20,10.0859465 L21.767767,8.31801948 C22.1582912,7.92749519 22.7914562,7.92749519 23.1819805,8.31801948 C23.5725048,8.70854378 23.5725048,9.34170876 23.1819805,9.73223305 L21.414,11.4999465 L23.1819805,13.267767 C23.5725048,13.6582912 23.5725048,14.2914562 23.1819805,14.6819805 C22.7914562,15.0725048 22.1582912,15.0725048 21.767767,14.6819805 L20,12.9139465 L18.232233,14.6819805 C17.8417088,15.0725048 17.2085438,15.0725048 16.8180195,14.6819805 C16.4274952,14.2914562 16.4274952,13.6582912 16.8180195,13.267767 L18.585,11.4999465 L16.8180195,9.73223305 C16.4274952,9.34170876 16.4274952,8.70854378 16.8180195,8.31801948 C17.2085438,7.92749519 17.8417088,7.92749519 18.232233,8.31801948 Z" id="path-1"></path>
        <filter x="-27.7%" y="-23.3%" width="155.4%" height="155.0%" filterUnits="objectBoundingBox" id="filter-2">
            <feOffset dx="0" dy="1" in="SourceAlpha" result="shadowOffsetOuter1"></feOffset>
            <feGaussianBlur stdDeviation="2" in="shadowOffsetOuter1" result="shadowBlurOuter1"></feGaussianBlur>
            <feColorMatrix values="0 0 0 0 0   0 0 0 0 0   0 0 0 0 0  0 0 0 0.3 0" type="matrix" in="shadowBlurOuter1"></feColorMatrix>
        </filter>
    </defs>
    <g id="icon/voiceoff" stroke="none" stroke-width="1" fill="none" fill-rule="evenodd">
        <g id="形状结合" fill-rule="nonzero">
            <use fill="black" fill-opacity="1" filter="url(#filter-2)" xlink:href="#path-1"></use>
            <use fill="#FFFFFF" xlink:href="#path-1"></use>
        </g>
    </g>
</svg>