<?xml version="1.0" encoding="UTF-8"?>
<svg width="24px" height="24px" viewBox="0 0 24 24" version="1.1" xmlns="http://www.w3.org/2000/svg" xmlns:xlink="http://www.w3.org/1999/xlink">
    <title>icon/返回</title>
    <defs>
        <linearGradient x1="50%" y1="14.1278696%" x2="50%" y2="100%" id="linearGradient-1">
            <stop stop-color="#FFFFFF" offset="0%"></stop>
            <stop stop-color="#FFF6EA" offset="100%"></stop>
        </linearGradient>
        <linearGradient x1="50%" y1="0%" x2="50%" y2="100%" id="linearGradient-2">
            <stop stop-color="#FFFFFF" offset="0%"></stop>
            <stop stop-color="#FFFFFF" offset="100%"></stop>
        </linearGradient>
    </defs>
    <g id="icon/返回" stroke="none" stroke-width="1" fill="none" fill-rule="evenodd">
        <path d="M11.0297529,3.2532838 L11.1245205,3.26820193 C11.4759859,3.57512204 11.5,3.66296538 11.5,3.75237516 L11.5,3.75237516 L11.4994512,7.49920229 L16,7.5 C17.7949254,7.5 19.4199254,8.22753728 20.5961941,9.40380592 C21.7724627,10.5800746 22.5,12.2050746 22.5,14 C22.5,15.7949254 21.7724627,17.4199254 20.5961941,18.5961941 C19.4199254,19.7724627 17.7949254,20.5 16,20.5 L16,20.5 L5.5,20.5 C5.22385763,20.5 4.97385763,20.3880712 4.79289322,20.2071068 C4.61192881,20.0261424 4.5,19.7761424 4.5,19.5 C4.5,19.2238576 4.61192881,18.9738576 4.79289322,18.7928932 C4.97385763,18.6119288 5.22385763,18.5 5.5,18.5 L5.5,18.5 L16,18.5 C17.2019939,18.5 18.2939036,18.0287152 19.1010738,17.2608913 C19.9123791,16.4891338 20.4358366,15.4177226 20.4945018,14.2241869 C20.4946987,14.2201803 20.4948903,14.2161746 20.4950679,14.2120334 L20.4950679,14.2120334 L20.4951036,14.2006855 C20.4978036,12.9090657 20.0362683,11.7813021 19.2886473,10.9550318 C18.5118392,10.0965039 17.4244779,9.56123764 16.2119076,9.50491123 L16.2119076,9.50491123 L11.4994511,9.4986232 L11.5,13.2475516 C11.5,13.3856228 11.4440356,13.5106228 11.3535534,13.601105 C11.2630712,13.6915872 11.1380712,13.7475516 11,13.7475516 C10.910517,13.7475516 10.8226736,13.7235375 10.7456353,13.6780149 L10.7456353,13.6780149 L2.71131724,8.93046326 C2.59244809,8.8602224 2.51330301,8.74845 2.48143543,8.62452052 C2.45785369,8.53281374 2.46016052,8.4344499 2.49141666,8.34133183 L2.49141666,8.34133183 L10.7456353,3.32198513 C10.8645045,3.25174427 11.000591,3.23633435 11.1245205,3.26820193 Z" id="形状结合" stroke="url(#linearGradient-2)" fill="url(#linearGradient-1)"></path>
    </g>
</svg>