<?xml version="1.0" encoding="UTF-8"?>
<svg width="16px" height="16px" viewBox="0 0 16 16" version="1.1" xmlns="http://www.w3.org/2000/svg" xmlns:xlink="http://www.w3.org/1999/xlink">
    <title>文件系统</title>
    <g id="页面-1" stroke="none" stroke-width="1" fill="none" fill-rule="evenodd">
        <g id="系统监视器-服务" transform="translate(-151.000000, -279.000000)">
            <g id="编组-4备份-4" transform="translate(123.000000, 137.000000)">
                <g id="编组-6" transform="translate(12.000000, 52.000000)">
                    <g id="开机启动备份" transform="translate(0.000000, 80.000000)">
                        <g id="文件系统" transform="translate(16.000000, 10.000000)">
                            <rect id="矩形" fill-opacity="0" fill="#FFFFFF" x="0" y="0" width="16" height="16"></rect>
                            <g id="drive-harddisk-ieee1394-symbolic" transform="translate(0.000000, 1.000000)">
                                <g id="编组">
                                    <path d="M11.8,0 C12.2,0 12.6,0.3 12.8,0.7 L12.8,0.7 L15.9,8.9 C16,9 16,9.1 16,9.3 L16,9.3 L16,11.5 C16,12.9 14.9,14 13.5,14 L13.5,14 L2.5,14 C1.1,14 0,12.9 0,11.5 L0,11.5 L0.0008,9.2296 C0.004,9.124 0.02,8.98 0.1,8.9 L0.1,8.9 L3.3,0.7 C3.4,0.3 3.8,0 4.3,0 L4.3,0 Z M15,10 L1,10 L1,11.5 C1,12.3 1.7,13 2.5,13 L2.5,13 L13.5,13 C14.3,13 15,12.3 15,11.5 L15,11.5 L15,10 Z M9.5,11 C9.77614237,11 10,11.2238576 10,11.5 C10,11.7761424 9.77614237,12 9.5,12 C9.22385763,12 9,11.7761424 9,11.5 C9,11.2238576 9.22385763,11 9.5,11 Z M11.5,11 C11.7761424,11 12,11.2238576 12,11.5 C12,11.7761424 11.7761424,12 11.5,12 C11.2238576,12 11,11.7761424 11,11.5 C11,11.2238576 11.2238576,11 11.5,11 Z M13.5,11 C13.7761424,11 14,11.2238576 14,11.5 C14,11.7761424 13.7761424,12 13.5,12 C13.2238576,12 13,11.7761424 13,11.5 C13,11.2238576 13.2238576,11 13.5,11 Z M11.7,1 L4.3,1 C4.1,1 4,1.1 3.9,1.2 L3.9,1.2 L1,9 L15,9 L12.1,1.2 C12,1.1 11.9,1 11.7,1 L11.7,1 Z M10.5,7 C10.7761424,7 11,7.22385763 11,7.5 C11,7.74545989 10.8231248,7.94960837 10.5898756,7.99194433 L10.5,8 L5.5,8 C5.22385763,8 5,7.77614237 5,7.5 C5,7.25454011 5.17687516,7.05039163 5.41012437,7.00805567 L5.5,7 L10.5,7 Z M8,2 C10.2,2 12,2.9 12,4 C12,5.1 10.2,6 8,6 C5.8,6 4,5.1 4,4 C4,2.9 5.8,2 8,2 Z M8,3 C6.1,3 5,3.8 5,4 C5,4.2 6.1,5 8,5 C9.9,5 11,4.2 11,4 C11,3.8 9.9,3 8,3 Z" id="文件系统" fill="#262626" fill-rule="nonzero"></path>
                                    <g transform="translate(4.000000, 2.000000)"></g>
                                </g>
                                <g id="编组" transform="translate(5.000000, 7.000000)"></g>
                            </g>
                        </g>
                    </g>
                </g>
            </g>
        </g>
    </g>
</svg>