<?xml version="1.0" encoding="UTF-8"?>
<svg width="16px" height="16px" viewBox="0 0 16 16" version="1.1" xmlns="http://www.w3.org/2000/svg" xmlns:xlink="http://www.w3.org/1999/xlink">
    <title>全部进程</title>
    <g id="页面-1" stroke="none" stroke-width="1" fill="none" fill-rule="evenodd">
        <g id="系统监视器-服务" transform="translate(-151.000000, -199.000000)">
            <g id="编组-4备份-4" transform="translate(123.000000, 137.000000)">
                <g id="编组-6" transform="translate(12.000000, 52.000000)">
                    <g id="全部进程" transform="translate(16.000000, 10.000000)">
                        <rect id="矩形" fill-opacity="0" fill="#FFFFFF" x="0" y="0" width="16" height="16"></rect>
                        <path d="M9.7,14 L9.7,14.3 C9.7,15 10.3,15.5 11,15.4 C11,15.3 11.1,15.3 11.1,15.3 C11.3,15.3 11.4,15.5 11.4,15.7 C11.4,15.9 11.2,16 11,16 L11,16 L4.9,16 C4.4,16 4.4,15.4 4.9,15.4 L4.9,15.4 L5.2,15.4 C5.9,15.3 6.4,14.7 6.3,14 L6.3,14 L9.7,14 L9.7,14 Z M13.5,2 C14.9,2 16,3.1 16,4.5 L16,4.5 L16,10.5 C16,11.9 14.9,13 13.5,13 L13.5,13 L2.5,13 C1.1,13 0,11.9 0,10.5 L0,10.5 L0,4.5 C0,3.1 1.1,2 2.5,2 L2.5,2 Z M13.5,3 L2.5,3 C1.7,3 1,3.7 1,4.5 L1,4.5 L1,10.5 C1,11.3 1.7,12 2.5,12 L2.5,12 L13.5,12 C14.3,12 15,11.3 15,10.5 L15,10.5 L15,4.5 C15,3.7 14.3,3 13.5,3 L13.5,3 Z M7.95152241,4.79382603 L7.98239046,4.88892518 L8.781,8.397 L9.50684377,5.69545112 C9.61371437,5.29707665 10.117661,5.20210447 10.3684524,5.49767988 L10.4215375,5.57286206 L11.524,7.461 L13.2372104,7.46113249 C13.4826703,7.46113249 13.6868188,7.63800765 13.7291547,7.87125686 L13.7372104,7.96113249 C13.7372104,8.20659238 13.5603352,8.41074086 13.327086,8.45307683 L13.2372104,8.46113249 L11.2372104,8.46113249 C11.0890868,8.46113249 10.9502431,8.39560063 10.856204,8.28493001 L10.8054413,8.21327413 L10.162,7.112 L9.22525081,10.6045636 C9.09912376,11.0747191 8.46400945,11.0941298 8.285688,10.681185 L8.25481995,10.5860859 L7.455,7.077 L6.73036664,9.77955995 C6.62961954,10.1551083 6.16730433,10.2680664 5.90258376,10.0126104 L5.84525651,9.94707095 L4.747,8.461 L3,8.46113249 C2.75454011,8.46113249 2.55039163,8.28425733 2.50805567,8.05100813 L2.5,7.96113249 C2.5,7.71567261 2.67687516,7.51152412 2.91012437,7.46918816 L3,7.46113249 L5,7.46113249 C5.1269339,7.46113249 5.24784042,7.50933023 5.3393912,7.59395459 L5.40218557,7.66406892 L6.033,8.518 L7.0119596,4.87044743 C7.13808665,4.40029197 7.77320096,4.38088124 7.95152241,4.79382603 Z" fill="#262626" fill-rule="nonzero"></path>
                    </g>
                </g>
            </g>
        </g>
    </g>
</svg>