<?xml version="1.0" encoding="UTF-8"?>
<svg width="16px" height="16px" viewBox="0 0 16 16" version="1.1" xmlns="http://www.w3.org/2000/svg" xmlns:xlink="http://www.w3.org/1999/xlink">
    <title>活动进程</title>
    <defs>
        <rect id="path-1" x="0" y="0" width="16" height="16"></rect>
    </defs>
    <g id="页面-1" stroke="none" stroke-width="1" fill="none" fill-rule="evenodd">
        <g id="系统监视器-进程-属性" transform="translate(-151.000000, -239.000000)">
            <g id="编组-4备份-4" transform="translate(123.000000, 137.000000)">
                <g id="编组-6" transform="translate(12.000000, 52.000000)">
                    <g id="电源" transform="translate(0.000000, 40.000000)">
                        <g id="活动进程" transform="translate(16.000000, 10.000000)">
                            <mask id="mask-2" fill="white">
                                <use xlink:href="#path-1"></use>
                            </mask>
                            <use id="矩形" fill-opacity="0" fill="#FFFFFF" xlink:href="#path-1"></use>
                            <g mask="url(#mask-2)" fill="#262626">
                                <g transform="translate(8.112884, 7.228263) rotate(-30.000000) translate(-8.112884, -7.228263) translate(0.948082, -0.589683)">
                                    <path d="M3.579603,0 C4.40803013,0 5.079603,0.671572875 5.079603,1.5 C5.079603,1.7409261 5.02280249,1.96858573 4.9218622,2.17031817 L7.78760604,2.17053752 C8.89217554,2.17053752 9.78760604,3.06596802 9.78760604,4.17053752 L9.78760604,4.34301281 L12.329603,4.34301281 C13.4341725,4.34301281 14.329603,5.23844331 14.329603,6.34301281 L14.329603,9.17053752 C14.329603,10.275107 13.4341725,11.1705375 12.329603,11.1705375 L8.85619181,11.1705375 C7.75162232,11.1705375 6.85619181,10.275107 6.85619181,9.17053752 L6.85619181,8.94767953 L4.079,8.947 L4.079603,13.5 C4.079603,13.5400677 4.07489003,13.5790347 4.06598821,13.6163767 L5.94623591,14.7027954 C6.18538222,14.8408665 6.2673198,15.1466617 6.12924861,15.3858081 C5.99117742,15.6249544 5.68538222,15.7068919 5.44623591,15.5688208 L0.250083488,12.5688208 C0.0109371759,12.4307496 -0.0710004017,12.1249544 0.0670707857,11.8858081 C0.205141973,11.6466617 0.510937176,11.5647242 0.750083488,11.7027954 L3.079,13.047 L3.07890004,2.91439849 C2.49667108,2.70828193 2.079603,2.1528467 2.079603,1.5 C2.079603,0.671572875 2.75117588,0 3.579603,0 Z M7.78760604,3.17053752 L4.079603,3.17 L4.079603,7.947 L7.85619181,7.94767953 L7.85619181,9.17053752 C7.85619181,9.68337336 8.24223201,10.1060447 8.73957069,10.1638098 L8.85619181,10.1705375 L12.329603,10.1705375 C12.8424388,10.1705375 13.2651102,9.78449733 13.3228753,9.28715865 L13.329603,9.17053752 L13.329603,6.34301281 C13.329603,5.83017697 12.9435628,5.40750565 12.4462241,5.34974054 L12.329603,5.34301281 L8.78760604,5.34301281 L8.78760604,4.17053752 C8.78760604,3.65770168 8.40156585,3.23503036 7.90422717,3.17726525 L7.78760604,3.17053752 Z M3.579603,1 C3.30346063,1 3.079603,1.22385763 3.079603,1.5 C3.079603,1.77614237 3.30346063,2 3.579603,2 C3.85574538,2 4.079603,1.77614237 4.079603,1.5 C4.079603,1.22385763 3.85574538,1 3.579603,1 Z"></path>
                                </g>
                            </g>
                        </g>
                    </g>
                </g>
            </g>
        </g>
    </g>
</svg>