<?xml version="1.0" encoding="UTF-8"?>
<svg width="48px" height="42px" viewBox="0 0 48 42" version="1.1" xmlns="http://www.w3.org/2000/svg" xmlns:xlink="http://www.w3.org/1999/xlink">
    <title>d2</title>
    <g id="浅色新版本" stroke="none" stroke-width="1" fill="none" fill-rule="evenodd">
        <g id="喇叭切图" transform="translate(-112.000000, -356.000000)" fill="#C0C6D4" fill-rule="nonzero">
            <path d="M136,363.252297 L136,390.747703 C136,391.861148 134.563811,392.418764 133.723858,391.631439 L128.42223,386.661994 C126.939513,385.272179 124.983436,384.498747 122.951188,384.498747 L117.333333,384.498747 C114.387815,384.498747 112,382.110933 112,379.165414 L112,374.834586 C112,371.889067 114.387815,369.501253 117.333333,369.501253 L122.951188,369.501253 C124.983436,369.501253 126.939513,368.727821 128.42223,367.338006 L133.723858,362.368561 C134.563811,361.581236 136,362.138852 136,363.252297 Z M143.5,368 C144.328427,368 145,368.51899 145,369.159196 L145,384.840804 C145,385.48101 144.328427,386 143.5,386 C142.671573,386 142,385.48101 142,384.840804 L142,369.159196 C142,368.51899 142.671573,368 143.5,368 Z" id="Combined-Shape"></path>
        </g>
    </g>
</svg>