<?xml version="1.0" encoding="UTF-8"?>
<svg width="48px" height="42px" viewBox="0 0 48 42" version="1.1" xmlns="http://www.w3.org/2000/svg" xmlns:xlink="http://www.w3.org/1999/xlink">
    <title>d3</title>
    <g id="浅色新版本" stroke="none" stroke-width="1" fill="none" fill-rule="evenodd">
        <g id="喇叭切图" transform="translate(-175.000000, -356.000000)" fill="#C0C6D4" fill-rule="nonzero">
            <path d="M212.5,362 C213.328427,362 214,362.586578 214,363.310158 L214,390.689842 C214,391.413422 213.328427,392 212.5,392 C211.671573,392 211,391.413422 211,390.689842 L211,363.310158 C211,362.586578 211.671573,362 212.5,362 Z M199,363.252297 L199,390.747703 C199,391.861148 197.563811,392.418764 196.723858,391.631439 L191.42223,386.661994 C189.939513,385.272179 187.983436,384.498747 185.951188,384.498747 L180.333333,384.498747 C177.387815,384.498747 175,382.110933 175,379.165414 L175,374.834586 C175,371.889067 177.387815,369.501253 180.333333,369.501253 L185.951188,369.501253 C187.983436,369.501253 189.939513,368.727821 191.42223,367.338006 L196.723858,362.368561 C197.563811,361.581236 199,362.138852 199,363.252297 Z M206.5,368 C207.328427,368 208,368.605488 208,369.352396 L208,387.647604 C208,388.394512 207.328427,389 206.5,389 C205.671573,389 205,388.394512 205,387.647604 L205,369.352396 C205,368.605488 205.671573,368 206.5,368 Z" id="Combined-Shape"></path>
        </g>
    </g>
</svg>