<?xml version="1.0" encoding="UTF-8"?>
<svg width="40px" height="40px" viewBox="0 0 40 40" version="1.1" xmlns="http://www.w3.org/2000/svg" xmlns:xlink="http://www.w3.org/1999/xlink">
    <!-- Generator: Sketch 58 (84663) - https://sketch.com -->
    <title>pause</title>
    <desc>Created with Sketch.</desc>
    <g id="浅色" stroke="none" stroke-width="1" fill="none" fill-rule="evenodd">
        <g id="按钮状态" transform="translate(-411.000000, -138.000000)" fill="#FFFFFF">
            <g id="pause_blue_normal" transform="translate(401.000000, 128.000000)">
                <g id="Combined-Shape-2" transform="translate(10.000000, 10.000000)">
                    <path d="M17,15 C18.1045695,15 19,15.8954305 19,17 L19,23 C19,24.1045695 18.1045695,25 17,25 C15.8954305,25 15,24.1045695 15,23 L15,17 C15,15.8954305 15.8954305,15 17,15 Z M23,15 C24.1045695,15 25,15.8954305 25,17 L25,23 C25,24.1045695 24.1045695,25 23,25 C21.8954305,25 21,24.1045695 21,23 L21,17 C21,15.8954305 21.8954305,15 23,15 Z" id="Combined-Shape"></path>
                </g>
            </g>
        </g>
    </g>
</svg>