<?xml version="1.0" encoding="UTF-8"?><svg version="1.1" width="20px" height="20px" viewBox="0 0 20.0 20.0" xmlns="http://www.w3.org/2000/svg" xmlns:xlink="http://www.w3.org/1999/xlink"><defs><clipPath id="i0"><path d="M1,0 C1.55228475,-1.01453063e-16 2,0.44771525 2,1 L2,7 C2,7.55228475 1.55228475,8 1,8 C0.44771525,8 6.76353751e-17,7.55228475 0,7 L0,1 C-6.76353751e-17,0.44771525 0.44771525,1.01453063e-16 1,0 Z"></path></clipPath><clipPath id="i1"><path d="M1,0 C1.55228475,-1.01453063e-16 2,0.44771525 2,1 L2,10 C2,10.5522847 1.55228475,11 1,11 C0.44771525,11 6.76353751e-17,10.5522847 0,10 L0,1 C-6.76353751e-17,0.44771525 0.44771525,1.01453063e-16 1,0 Z"></path></clipPath><clipPath id="i2"><path d="M1,0 C1.55228475,-1.01453063e-16 2,0.44771525 2,1 L2,6 C2,6.55228475 1.55228475,7 1,7 C0.44771525,7 6.76353751e-17,6.55228475 0,6 L0,1 C-6.76353751e-17,0.44771525 0.44771525,1.01453063e-16 1,0 Z"></path></clipPath></defs><g transform="translate(12.0 11.0)"><g clip-path="url(#i0)"><polygon points="0,0 2,0 2,8 0,8 0,0" stroke="none" fill="#0080FF"></polygon></g></g><g transform="translate(7.0 8.0)"><g clip-path="url(#i1)"><polygon points="0,0 2,0 2,11 0,11 0,0" stroke="none" fill="#0080FF"></polygon></g></g><g transform="translate(2.0 12.0)"><g clip-path="url(#i2)"><polygon points="0,0 2,0 2,7 0,7 0,0" stroke="none" fill="#0080FF"></polygon></g></g><g transform="translate(17.000000000000004 11.0)"><g clip-path="url(#i0)"><polygon points="0,0 2,0 2,8 0,8 0,0" stroke="none" fill="#0080FF"></polygon></g></g></svg>