<?xml version="1.0" encoding="UTF-8"?>
<svg width="24px" height="24px" viewBox="0 0 24 24" version="1.1" xmlns="http://www.w3.org/2000/svg" xmlns:xlink="http://www.w3.org/1999/xlink">
    <title>cn.fxkp.fxkpofficesuite.appstore</title>
    <defs>
        <filter x="-7.7%" y="-7.7%" width="115.5%" height="115.3%" filterUnits="objectBoundingBox" id="filter-1">
            <feOffset dx="0" dy="0" in="SourceAlpha" result="shadowOffsetOuter1"></feOffset>
            <feGaussianBlur stdDeviation="0.5" in="shadowOffsetOuter1" result="shadowBlurOuter1"></feGaussianBlur>
            <feColorMatrix values="0 0 0 0 0   0 0 0 0 0   0 0 0 0 0  0 0 0 0.15 0" type="matrix" in="shadowBlurOuter1" result="shadowMatrixOuter1"></feColorMatrix>
            <feMerge>
                <feMergeNode in="shadowMatrixOuter1"></feMergeNode>
                <feMergeNode in="SourceGraphic"></feMergeNode>
            </feMerge>
        </filter>
        <path d="M7.03216092,18.022127 C7.44781314,18.022127 7.7678539,17.8755609 7.9922832,17.5824288 C8.18350612,17.3328084 8.27911758,17.019638 8.27911758,16.6429174 C8.27911758,16.2948229 8.19552912,16.0091336 8.02835219,15.7858494 C7.81422832,15.4995875 7.48445466,15.3564566 7.03903121,15.3564566 C6.61307356,15.3564566 6.29131523,15.512183 6.07375622,15.8236359 C5.9042892,16.066386 5.81955569,16.3583731 5.81955569,16.6995972 C5.81955569,17.0774629 5.91860229,17.3900608 6.1166955,17.6373911 C6.3388347,17.8938817 6.64398984,18.022127 7.03216092,18.022127 Z M7.07338263,17.7163993 C6.75620449,17.7163993 6.52690874,17.6205016 6.38549539,17.4287062 C6.24408203,17.2369107 6.17337535,17.0013172 6.17337535,16.7219256 C6.17337535,16.3726862 6.25581876,16.1084665 6.42070559,15.9292665 C6.58559242,15.7500666 6.79857125,15.6604667 7.05964206,15.6604667 C7.32872821,15.6604667 7.54084825,15.7509254 7.69600217,15.9318429 C7.8511561,16.1127604 7.92873306,16.3515028 7.92873306,16.6480701 C7.92873306,16.9286067 7.86146153,17.1767957 7.72691845,17.3926372 C7.59237538,17.6084786 7.37453011,17.7163993 7.07338263,17.7163993 Z M9.06061245,17.9482714 L9.06061245,16.8009339 L10.2989813,16.8009339 L10.2989813,16.5003589 L9.06061245,16.5003589 L9.06061245,15.7343222 L10.4690208,15.7343222 L10.4690208,15.4251594 L8.71881579,15.4251594 L8.71881579,17.9482714 L9.06061245,17.9482714 Z M11.8688413,17.9482714 C12.3016692,17.9482714 12.6068244,17.7570485 12.7843067,17.3746027 C12.8850709,17.1581887 12.935453,16.9160112 12.935453,16.6480701 C12.935453,16.3011207 12.8501469,16.0165764 12.6795349,15.7944372 C12.4883119,15.548252 12.2192258,15.4251594 11.8722764,15.4251594 L11.8722764,15.4251594 L10.8503216,15.4251594 L10.8503216,17.9482714 L11.8688413,17.9482714 Z M11.8035736,17.6562843 L11.1938358,17.6562843 L11.1938358,15.7188641 L11.8001384,15.7188641 C12.0760949,15.7188641 12.2761919,15.8053152 12.4004296,15.9782173 C12.5246672,16.1511195 12.586786,16.3938695 12.586786,16.7064675 C12.586786,16.7877659 12.5781982,16.8759345 12.5610225,16.9709734 C12.5312512,17.130135 12.4825867,17.2606704 12.4150289,17.3625797 C12.3302954,17.4896799 12.2215159,17.5755585 12.0886904,17.6202153 C12.0142623,17.6442613 11.9192234,17.6562843 11.8035736,17.6562843 L11.8035736,17.6562843 Z" id="path-2"></path>
    </defs>
    <g id="cn.fxkp.fxkpofficesuite.appstore" stroke="none" stroke-width="1" fill="none" fill-rule="evenodd">
        <g id="福昕版式办公套件" filter="url(#filter-1)" transform="translate(2.3786, 2.2071)" fill-rule="nonzero">
            <path d="M16.95,19.5857143 L2.44285714,19.5857143 C1.11428571,19.5857143 0.0214285714,18.4928571 0.0214285714,17.1642857 L0.0214285714,2.42142857 C0.0214285714,1.09285714 1.11428571,0 2.44285714,0 L16.95,0 C18.2785714,0 19.3714286,1.09285714 19.3714286,2.42142857 L19.3714286,17.1642857 C19.3714286,18.4928571 18.2785714,19.5857143 16.95,19.5857143 Z" id="路径" fill="#FFFFFF"></path>
            <g id="编组" transform="translate(4.6944, 1.5429)" fill="#F18D00">
                <g id="路径">
                    <path d="M6.4913454,4.47857143 C5.95563111,4.39285714 5.7413454,3.81428571 5.37705968,3.36428571 C5.1413454,3.06428571 4.6913454,3.02142857 4.41277397,3.02142857 C4.28420254,3.02142857 4.19848825,3.04285714 4.15563111,3.04285714 C4.19848825,3.02142857 5.18420254,2.20714286 4.5413454,1.43571429 C3.89848825,0.664285714 4.64848825,0 4.64848825,0 C4.64848825,0 4.58420254,0 4.47705968,0 C4.21991683,0 3.72705968,0.0642857143 3.46991683,0.621428571 C3.10563111,1.37142857 3.76991683,2.05714286 3.23420254,2.67857143 C2.93420254,3.02142857 2.22705968,3.40714286 1.79848825,3.62142857 C1.5413454,3.75 1.30563111,4.00714286 1.21991683,4.28571429 C1.13420254,4.54285714 1.02705968,4.97142857 0.98420254,5.50714286 C0.919916826,6.57857143 1.19848825,7.24285714 1.19848825,7.24285714 C1.19848825,7.24285714 1.19848825,7.24285714 1.19848825,7.22142857 C1.19848825,7.22142857 1.19848825,7.24285714 1.19848825,7.24285714 C1.51991683,5.33571429 2.20563111,4.30714286 2.78420254,3.92142857 C2.8913454,3.83571429 3.14848825,3.70714286 3.44848825,3.68571429 C3.74848825,3.68571429 4.0913454,3.81428571 4.45563111,4.24285714 C4.77705968,4.62857143 5.31277397,4.73571429 5.7413454,4.73571429 C6.3413454,4.71428571 6.7913454,4.52142857 6.4913454,4.47857143 Z"></path>
                    <path d="M5.7413454,8.52857143 C5.67705968,8.29285714 5.5913454,8.07857143 5.48420254,7.86428571 C5.20563111,7.30714286 4.79848825,6.77142857 4.19848825,6.55714286 C3.87705968,6.42857143 3.51277397,6.47142857 3.29848825,6.79285714 C3.0413454,7.24285714 3.23420254,7.75714286 3.29848825,8.22857143 C3.3413454,8.65714286 3.21277397,9.02142857 2.71991683,9.02142857 C1.75563111,9.02142857 1.04848825,8.1 0.812773968,7.26428571 C0.555631111,6.42857143 0.598488254,5.48571429 0.83420254,4.65 C0.877059683,4.5 0.919916826,4.37142857 0.98420254,4.22142857 C0.98420254,4.22142857 0.705631111,4.58571429 0.448488254,5.20714286 C-0.451511746,7.26428571 -0.0229403173,10.0071429 1.96991683,11.3142857 C2.5913454,11.7214286 3.38420254,11.9142857 4.11277397,11.7214286 C4.71277397,11.5714286 5.24848825,11.1428571 5.54848825,10.6071429 C5.91277397,9.98571429 5.93420254,9.23571429 5.7413454,8.52857143 Z"></path>
                </g>
                <path d="M6.66277397,2.80714286 C6.83420254,2.97857143 6.98420254,3.17142857 7.11277397,3.38571429 C7.26277397,3.6 7.36991683,3.81428571 7.47705968,4.05 C7.88420254,4.88571429 8.1413454,5.78571429 8.05563111,6.72857143 C8.05563111,6.75 8.05563111,6.77142857 8.05563111,6.79285714 C8.05563111,6.83571429 8.05563111,6.85714286 8.05563111,6.9 C8.05563111,6.92142857 8.05563111,6.94285714 8.05563111,6.96428571 C8.05563111,6.96428571 8.05563111,6.98571429 8.05563111,6.98571429 C8.05563111,6.98571429 8.05563111,7.00714286 8.05563111,7.00714286 C8.05563111,7.00714286 8.05563111,7.00714286 8.05563111,7.00714286 C8.05563111,7.00714286 8.05563111,7.00714286 8.05563111,7.00714286 C8.07705968,7.00714286 8.07705968,6.98571429 8.07705968,6.96428571 C8.09848825,6.92142857 8.09848825,6.87857143 8.11991683,6.83571429 C8.11991683,6.79285714 8.1413454,6.75 8.1413454,6.68571429 C8.1413454,6.64285714 8.1413454,6.62142857 8.16277397,6.57857143 C8.22705968,6.3 8.24848825,6 8.22705968,5.7 C8.18420254,4.77857143 7.81991683,3.87857143 7.32705968,3.10714286 C7.21991683,2.93571429 7.0913454,2.76428571 6.96277397,2.61428571 C6.87705968,2.52857143 6.81277397,2.44285714 6.70563111,2.4 C6.6413454,2.35714286 6.59848825,2.33571429 6.51277397,2.35714286 C6.42705968,2.37857143 6.38420254,2.46428571 6.40563111,2.55 C6.4913454,2.65714286 6.59848825,2.74285714 6.66277397,2.80714286 Z" id="路径"></path>
                <path d="M7.92705968,3.47142857 C8.01277397,3.68571429 8.09848825,3.9 8.16277397,4.13571429 C8.31277397,4.58571429 8.41991683,5.05714286 8.46277397,5.50714286 C8.48420254,5.67857143 8.48420254,5.82857143 8.48420254,6 C8.48420254,6.17142857 8.46277397,6.34285714 8.41991683,6.49285714 C8.41991683,6.55714286 8.39848825,6.62142857 8.39848825,6.66428571 C8.37705968,6.72857143 8.37705968,6.81428571 8.35563111,6.87857143 C8.35563111,6.92142857 8.33420254,6.94285714 8.33420254,6.98571429 C8.33420254,7.02857143 8.31277397,7.05 8.2913454,7.07142857 C8.2913454,7.07142857 8.2913454,7.07142857 8.2913454,7.07142857 C8.2913454,7.07142857 8.2913454,7.07142857 8.2913454,7.07142857 C8.31277397,7.05 8.31277397,7.02857143 8.33420254,7.00714286 C8.35563111,6.98571429 8.35563111,6.96428571 8.37705968,6.94285714 C8.50563111,6.72857143 8.5913454,6.47142857 8.65563111,6.21428571 C8.7413454,5.82857143 8.7413454,5.46428571 8.69848825,5.07857143 C8.67705968,4.90714286 8.63420254,4.73571429 8.61277397,4.58571429 C8.56991683,4.39285714 8.52705968,4.2 8.46277397,4.00714286 C8.41991683,3.9 8.39848825,3.79285714 8.35563111,3.68571429 C8.31277397,3.55714286 8.26991683,3.42857143 8.22705968,3.32142857 C8.16277397,3.17142857 8.09848825,3.04285714 8.01277397,2.89285714 C7.9913454,2.87142857 7.9913454,2.85 7.96991683,2.82857143 C7.92705968,2.78571429 7.88420254,2.76428571 7.8413454,2.76428571 L7.81991683,2.76428571 C7.75563111,2.78571429 7.73420254,2.82857143 7.73420254,2.89285714 C7.73420254,2.97857143 7.77705968,3.06428571 7.81991683,3.15 C7.81991683,3.25714286 7.88420254,3.36428571 7.92705968,3.47142857 Z" id="路径"></path>
                <path d="M5.82705968,2.93571429 C6.14848825,3.21428571 6.42705968,3.53571429 6.68420254,3.87857143 C6.72705968,3.94285714 6.7913454,4.02857143 6.83420254,4.09285714 C7.32705968,4.84285714 7.62705968,5.72142857 7.79848825,6.62142857 C7.79848825,6.66428571 7.81991683,6.75 7.86277397,6.72857143 C7.88420254,6.72857143 7.88420254,6.64285714 7.88420254,6.62142857 C7.88420254,6.55714286 7.88420254,6.51428571 7.88420254,6.45 C7.88420254,6.34285714 7.88420254,6.23571429 7.88420254,6.10714286 C7.86277397,5.89285714 7.8413454,5.67857143 7.79848825,5.46428571 C7.71277397,5.05714286 7.5413454,4.65 7.34848825,4.28571429 C7.15563111,3.9 6.89848825,3.55714286 6.6413454,3.21428571 C6.40563111,2.89285714 6.12705968,2.57142857 5.80563111,2.37857143 C5.76277397,2.37857143 5.67705968,2.35714286 5.61277397,2.35714286 C5.46277397,2.37857143 5.37705968,2.57142857 5.50563111,2.67857143 C5.61277397,2.76428571 5.7413454,2.85 5.82705968,2.93571429 Z" id="路径"></path>
                <path d="M9.89848825,6.9 C9.7913454,5.7 9.29848825,4.82142857 8.69848825,4.17857143 C8.69848825,4.17857143 8.69848825,4.17857143 8.69848825,4.17857143 C8.67705968,4.15714286 8.65563111,4.11428571 8.61277397,4.09285714 C8.63420254,4.15714286 8.67705968,4.24285714 8.67705968,4.30714286 C8.7413454,4.52142857 8.78420254,4.73571429 8.80563111,4.95 C8.82705968,5.1 8.84848825,5.25 8.86991683,5.4 C8.8913454,5.59285714 8.8913454,5.80714286 8.86991683,6 C8.84848825,6.21428571 8.82705968,6.42857143 8.7413454,6.62142857 C8.65563111,6.87857143 8.50563111,7.11428571 8.31277397,7.28571429 C8.11991683,7.47857143 7.81991683,7.62857143 7.56277397,7.65 C7.45563111,7.67142857 7.32705968,7.62857143 7.2413454,7.56428571 C7.00563111,7.39285714 6.85563111,7.09285714 6.72705968,6.83571429 C6.53420254,6.49285714 6.3413454,6.17142857 6.06277397,5.89285714 C5.86991683,5.7 5.61277397,5.55 5.35563111,5.44285714 C4.81991683,5.25 4.75563111,5.80714286 4.43420254,5.65714286 C3.38420254,5.16428571 3.29848825,6.23571429 3.29848825,6.23571429 C4.5413454,5.78571429 5.95563111,7.09285714 6.16991683,9.15 C6.46991683,11.7857143 3.83420254,12.1071429 3.83420254,12.1071429 C7.19848825,12.7714286 10.1984883,10.1785714 9.89848825,6.9 Z" id="路径"></path>
            </g>
            <path d="M9.68571429,14.5285714 C6.10714286,14.5285714 2.78571429,15.5785714 0,17.3785714 C0.0214285714,18.6 1.02857143,19.5857143 2.27142857,19.5857143 L17.0785714,19.5857143 C18.3,19.5857143 19.3285714,18.6 19.35,17.3785714 C16.5857143,15.5785714 13.2642857,14.5285714 9.68571429,14.5285714 Z" id="路径" fill="#F18D00"></path>
            <g id="OFD">
                <use fill="#000000" xlink:href="#path-2"></use>
                <use fill="#FFFFFF" xlink:href="#path-2"></use>
            </g>
            <path d="M5.74285714,18.4285714 L5.74285714,18.9214286 C5.74285714,18.9214286 8.20714286,19.3285714 9.72857143,18.9214286 C11.25,18.5142857 13.0928571,18.5571429 13.5428571,18.9214286 C13.5428571,18.9214286 12.9642857,18.2785714 9.36428571,18.6214286 C6.47142857,18.9 5.74285714,18.4285714 5.74285714,18.4285714 Z" id="路径" fill="#FFFFFF"></path>
        </g>
    </g>
</svg>