<?xml version="1.0" encoding="UTF-8"?>
<svg width="24px" height="24px" viewBox="0 0 24 24" version="1.1" xmlns="http://www.w3.org/2000/svg" xmlns:xlink="http://www.w3.org/1999/xlink">
    <title>cn.google.chrome</title>
    <defs>
        <filter x="-6.8%" y="-6.9%" width="113.6%" height="113.8%" filterUnits="objectBoundingBox" id="filter-1">
            <feOffset dx="0" dy="0" in="SourceAlpha" result="shadowOffsetOuter1"></feOffset>
            <feGaussianBlur stdDeviation="0.5" in="shadowOffsetOuter1" result="shadowBlurOuter1"></feGaussianBlur>
            <feColorMatrix values="0 0 0 0 0   0 0 0 0 0   0 0 0 0 0  0 0 0 0.15 0" type="matrix" in="shadowBlurOuter1" result="shadowMatrixOuter1"></feColorMatrix>
            <feMerge>
                <feMergeNode in="shadowMatrixOuter1"></feMergeNode>
                <feMergeNode in="SourceGraphic"></feMergeNode>
            </feMerge>
        </filter>
        <linearGradient x1="49.9991752%" y1="-0.00154750851%" x2="49.9991752%" y2="100.000774%" id="linearGradient-2">
            <stop stop-color="#FF624E" offset="0%"></stop>
            <stop stop-color="#FF264F" offset="57.19%"></stop>
            <stop stop-color="#E701B1" offset="100%"></stop>
        </linearGradient>
        <linearGradient x1="50%" y1="0%" x2="29.2523608%" y2="100%" id="linearGradient-3">
            <stop stop-color="#FFD000" offset="0%"></stop>
            <stop stop-color="#A1EC00" offset="100%"></stop>
        </linearGradient>
        <linearGradient x1="49.9979635%" y1="-0.000919624793%" x2="49.9979635%" y2="100.00092%" id="linearGradient-4">
            <stop stop-color="#8FE820" offset="0%"></stop>
            <stop stop-color="#009986" offset="100%"></stop>
        </linearGradient>
        <linearGradient x1="50%" y1="0%" x2="50%" y2="100%" id="linearGradient-5">
            <stop stop-color="#FCFCFC" offset="0%"></stop>
            <stop stop-color="#C0FF89" offset="100%"></stop>
        </linearGradient>
        <linearGradient x1="48.2715014%" y1="0%" x2="45.6018669%" y2="104.424695%" id="linearGradient-6">
            <stop stop-color="#07C1FF" offset="0%"></stop>
            <stop stop-color="#0038FB" offset="100%"></stop>
        </linearGradient>
        <circle id="path-7" cx="10.9984054" cy="10.9767059" r="4"></circle>
        <filter x="-25.0%" y="-12.5%" width="150.0%" height="150.0%" filterUnits="objectBoundingBox" id="filter-8">
            <feOffset dx="0" dy="1" in="SourceAlpha" result="shadowOffsetOuter1"></feOffset>
            <feGaussianBlur stdDeviation="0.5" in="shadowOffsetOuter1" result="shadowBlurOuter1"></feGaussianBlur>
            <feColorMatrix values="0 0 0 0 0   0 0 0 0 0.4   0 0 0 0 0.984313725  0 0 0 0.6 0" type="matrix" in="shadowBlurOuter1"></feColorMatrix>
        </filter>
    </defs>
    <g id="cn.google.chrome" stroke="none" stroke-width="1" fill="none" fill-rule="evenodd">
        <g id="Group-15" filter="url(#filter-1)" transform="translate(1.0016, 1.0233)">
            <path d="M20.9040876,6.06061176 C19.1050082,2.47021176 15.3560535,0 11.0217174,0 C7.22616254,0 3.84215497,1.94842353 1.85981663,4.82861176 L6.92195267,13.3801412 L20.9040876,6.06061176 L20.9040876,6.06061176 Z" id="path11852" fill="url(#linearGradient-2)"></path>
            <path d="M10.2850164,21.7152941 C14.3355629,21.9922353 18.304952,19.9987765 20.490446,16.3064 C22.4036695,13.0736941 22.4261842,9.20117647 20.903564,6.06061176 L10.952079,6.03990588 L10.2850164,21.7152941 L10.2850164,21.7152941 Z" id="path11854" fill="url(#linearGradient-3)"></path>
            <path d="M6.92195267,13.3801412 L1.85981663,4.82861176 C0.685388506,6.55651765 0,8.63487059 0,10.8711059 C0,16.6309647 4.54220419,21.3420706 10.28554,21.7152941 L15.4267391,13.0555765 L6.92195267,13.3801412 L6.92195267,13.3801412 Z" id="path11865" fill="url(#linearGradient-4)"></path>
            <path d="M10.9984054,16.2267059 C8.10355541,16.2267059 5.74840541,13.8710309 5.74840541,10.9761809 C5.74840541,8.08133088 8.10355541,5.72670588 10.9984054,5.72670588 C13.8927304,5.72670588 16.2484054,8.08133088 16.2484054,10.9761809 C16.2484054,13.8710309 13.8927304,16.2267059 10.9984054,16.2267059 L10.9984054,16.2267059 Z" id="path11878" fill="url(#linearGradient-5)"></path>
            <g id="circle11885">
                <use fill="black" fill-opacity="1" filter="url(#filter-8)" xlink:href="#path-7"></use>
                <use fill="url(#linearGradient-6)" fill-rule="evenodd" xlink:href="#path-7"></use>
            </g>
        </g>
    </g>
</svg>