<?xml version="1.0" encoding="UTF-8"?>
<svg width="24px" height="24px" viewBox="0 0 24 24" version="1.1" xmlns="http://www.w3.org/2000/svg" xmlns:xlink="http://www.w3.org/1999/xlink">
    <title>cn.loongnix.lbrowser</title>
    <defs>
        <filter x="-7.1%" y="-7.2%" width="114.3%" height="114.5%" filterUnits="objectBoundingBox" id="filter-1">
            <feOffset dx="0" dy="0" in="SourceAlpha" result="shadowOffsetOuter1"></feOffset>
            <feGaussianBlur stdDeviation="0.5" in="shadowOffsetOuter1" result="shadowBlurOuter1"></feGaussianBlur>
            <feColorMatrix values="0 0 0 0 0   0 0 0 0 0   0 0 0 0 0  0 0 0 0.15 0" type="matrix" in="shadowBlurOuter1" result="shadowMatrixOuter1"></feColorMatrix>
            <feMerge>
                <feMergeNode in="shadowMatrixOuter1"></feMergeNode>
                <feMergeNode in="SourceGraphic"></feMergeNode>
            </feMerge>
        </filter>
    </defs>
    <g id="cn.loongnix.lbrowser" stroke="none" stroke-width="1" fill="none" fill-rule="evenodd">
        <g id="企业微信20231016-170627_2x" filter="url(#filter-1)" transform="translate(1.5, 1.5)" fill="#AE2B23" fill-rule="nonzero">
            <path d="M13.1988457,0.300771257 C13.3153745,0.328362233 13.4122368,0.408699395 13.4606212,0.517886784 C13.5090057,0.627074173 13.5033383,0.75253308 13.4453048,0.856946268 L8.82572585,9.14273603 C8.69944107,9.37143086 8.76733611,9.48577828 9.02941099,9.48577828 L13.1601456,9.48374844 C13.2393974,9.48333943 13.3131331,9.52389689 13.3553401,9.59111302 C13.3975471,9.65832914 13.4022933,9.74275679 13.3679044,9.81461168 C13.1153348,10.3328964 12.8478284,10.7056576 12.565385,11.1792859 C12.3450347,11.5501923 12.0102167,11.5570703 11.6221437,11.5522054 L11.5041854,11.5507459 C9.23784878,11.5277411 6.97083321,11.5067661 4.70313868,11.487821 C4.61215932,11.4864678 4.5822855,11.4431646 4.61351722,11.3579115 C4.74115991,11.0114862 4.959103,10.680675 5.26734651,10.1190871 C6.46501512,7.93633695 7.67965748,5.76305941 8.91127361,3.59925444 C9.18556959,3.11885997 9.4238812,2.6215502 9.62620844,2.10732512 C9.66151386,2.01936557 9.63164004,1.98282853 9.53658698,1.99771399 C6.62388952,2.46728267 4.50081145,3.8577202 3.16735275,6.16902657 C1.66823014,8.76924624 1.64989848,11.8038508 3.05328907,14.4548163 C4.93262394,17.6660166 7.68441014,19.1254685 11.3086477,18.8331722 C13.2762461,18.6734918 15.0123224,17.8290801 16.5168766,16.2999371 C17.6751661,15.1172194 18.4342327,13.4520254 18.7940765,11.7090731 C18.8225924,11.5656314 18.7642026,11.4918807 18.6189072,11.487821 L16.0158112,11.5 C15.9471821,11.4987207 15.8804747,11.5201651 15.826384,11.5608951 C15.6403516,11.7002771 15.4393822,11.8822857 15.223476,12.1069209 C13.5532579,13.8404007 11.9006925,15.7011355 10.2657798,17.4427346 C10.2516358,17.4565496 10.2295712,17.4582256 10.2134895,17.4467067 C10.1974078,17.4351878 10.1919691,17.4138118 10.2006005,17.3960484 L14.3863301,9.83491004 C14.5166886,9.59944909 14.716979,9.48171861 14.9872012,9.48171861 L20.6964956,9.48577828 C20.7775272,9.48631484 20.8550258,9.51890913 20.9119418,9.57639039 C20.9688577,9.63387166 21.0005285,9.71153106 21.0000879,9.79228349 C20.9823338,12.7138938 20.1030929,15.1923233 18.362264,17.227572 C15.7530574,20.2114307 11.9726612,21.307542 8.09856991,20.4854585 C4.90275012,19.8074934 2.32409628,17.6152707 0.953295313,14.6679491 C-2.67230012,6.50394948 4.61351722,-1.68440816 13.1988457,0.300771257 Z M17.7063978,3.13442204 C18.409474,3.13442204 18.9794299,3.70241482 18.9794299,4.40306942 C18.9794299,5.10372402 18.409474,5.6717168 17.7063978,5.6717168 C17.0033216,5.6717168 16.4333657,5.10372402 16.4333657,4.40306942 C16.4333657,3.70241482 17.0033216,3.13442204 17.7063978,3.13442204 Z" id="形状"></path>
        </g>
    </g>
</svg>