<?xml version="1.0" encoding="UTF-8"?>
<svg width="24px" height="24px" viewBox="0 0 24 24" version="1.1" xmlns="http://www.w3.org/2000/svg" xmlns:xlink="http://www.w3.org/1999/xlink">
    <title>cn.suwell.reader.appstore</title>
    <defs>
        <filter x="-7.5%" y="-7.5%" width="115.0%" height="115.0%" filterUnits="objectBoundingBox" id="filter-1">
            <feOffset dx="0" dy="0" in="SourceAlpha" result="shadowOffsetOuter1"></feOffset>
            <feGaussianBlur stdDeviation="0.5" in="shadowOffsetOuter1" result="shadowBlurOuter1"></feGaussianBlur>
            <feColorMatrix values="0 0 0 0 0   0 0 0 0 0   0 0 0 0 0  0 0 0 0.15 0" type="matrix" in="shadowBlurOuter1" result="shadowMatrixOuter1"></feColorMatrix>
            <feMerge>
                <feMergeNode in="shadowMatrixOuter1"></feMergeNode>
                <feMergeNode in="SourceGraphic"></feMergeNode>
            </feMerge>
        </filter>
    </defs>
    <g id="cn.suwell.reader.appstore" stroke="none" stroke-width="1" fill="none" fill-rule="evenodd">
        <g id="u=4158075783,2182000698&amp;fm=253&amp;fmt=auto&amp;app=138&amp;f=PNG" filter="url(#filter-1)" transform="translate(2, 2)" fill-rule="nonzero">
            <path d="M1.60534571,0 L16.4351259,0 L16.7739543,0.0359375 C17.4697859,0.163541667 17.9262306,0.520052083 18.1432885,1.10546875 C18.2139102,1.29453125 18.2492211,1.56510417 18.2492211,1.9171875 C18.2492211,7.25625 18.2494807,12.5958333 18.25,17.9359375 C18.25,18.3916667 18.2120928,18.7213542 18.1362783,18.925 C17.9846493,19.3328125 17.7029414,19.628125 17.2911545,19.8109375 C16.8931285,19.9882812 16.3759283,19.9382812 15.9280516,19.9296875 C15.9233781,19.9291667 15.9194836,19.9304688 15.9163679,19.9335938 L15.9000107,19.9507812 C15.8870287,19.9632813 15.8896251,19.9697917 15.9077998,19.9703125 L16.1204439,19.9773437 C16.1214824,19.9851562 16.1222613,19.9927083 16.1227806,20 L1.72529876,20 C0.73295988,19.9317708 0.157860293,19.4041667 0,18.4171875 L0,1.57578125 C0.144359084,0.64453125 0.679474321,0.119270833 1.60534571,0 Z M6.79082266,9.23803906 C6.80209966,7.94194552 5.7636894,6.88208475 4.4714681,6.87077344 L4.03373293,6.8669375 C2.74151162,6.85562671 1.68481732,7.89714865 1.6735398,9.19324219 L1.66664639,9.98539844 C1.6553694,11.281492 2.69377966,12.3413527 3.98600096,12.3526641 L4.42373613,12.3565 C5.71595744,12.3678108 6.77265174,11.3262889 6.78392926,10.0301953 L6.79082266,9.23803906 Z M8.68724925,10.0851562 C8.68724925,10.0601308 8.70747574,10.0398437 8.73242638,10.0398437 L10.8612036,10.0390625 C10.8731853,10.0390625 10.8846763,10.0342885 10.8931486,10.0257908 C10.901621,10.017293 10.9063807,10.0057676 10.9063807,9.99375 L10.9102753,9.14765625 C10.9102753,9.12263085 10.8900488,9.10234375 10.8650982,9.10234375 L8.73008963,9.103125 C8.70513899,9.103125 8.68491251,9.0828379 8.68491251,9.0578125 L8.68724925,7.90703125 C8.68724925,7.88200585 8.70747574,7.86171875 8.73242638,7.86171875 L11.2257362,7.8609375 C11.2506869,7.8609375 11.2709134,7.8406504 11.2709134,7.815625 L11.2755869,6.971875 C11.2755869,6.9468496 11.2553604,6.9265625 11.2304097,6.9265625 L7.65908024,6.92734375 C7.6341296,6.92734375 7.61390312,6.94763085 7.61390312,6.97265625 L7.61390312,12.2539062 C7.61390312,12.2789317 7.6341296,12.2992187 7.65908024,12.2992187 L8.63817755,12.2960937 C8.66312819,12.2960937 8.68335467,12.2758067 8.68335467,12.2507812 L8.68724925,10.0851562 Z M12.1806872,6.975 L12.1619932,12.2328125 C12.1619932,12.2664674 12.1891943,12.29375 12.2227486,12.29375 L14.4995198,12.301574 C15.6706885,12.3055408 16.6236855,11.2790396 16.6282971,10.0085938 L16.6314268,9.23046875 C16.6356407,7.95984105 15.6895489,6.92661964 14.5182138,6.92265625 L12.2414426,6.9140625 C12.2078883,6.9140625 12.1806872,6.94134515 12.1806872,6.975 Z" id="形状" fill="#14ABF0"></path>
            <path d="M16.6610512,0 L17.7358891,0.00548481881 C18.452984,0.142344107 18.9182644,0.495723147 19.1317302,1.06562194 C19.2111095,1.27822396 19.2505309,1.63238655 19.25,2.1281097 C19.2457038,7.44368266 19.2457038,12.759778 19.25,18.0763957 C19.25,18.4378714 19.2140594,18.7126347 19.142189,18.9006856 C18.9324776,19.4455109 18.4958918,19.8056807 17.8324314,19.9811949 L15.9860594,20 L15.7664256,19.9929481 C15.7476535,19.9924257 15.7449718,19.9858962 15.7583804,19.9733595 L15.7752753,19.9561214 C15.7784934,19.9529873 15.782516,19.9516814 15.7873431,19.9522037 C16.2499418,19.9608227 16.7841426,20.0109696 17.1952521,19.8331048 C17.6205746,19.6497551 17.9115425,19.3535749 18.0681556,18.9445642 C18.1464622,18.7403199 18.1856154,18.4096637 18.1856154,17.9525955 C18.1850791,12.5968005 18.1848109,7.24152791 18.1848109,1.88677767 C18.1848109,1.53365981 18.1483394,1.26229187 18.0753963,1.07267385 C17.8512035,0.485537055 17.3797552,0.127979105 16.6610512,0 Z" id="路径" fill="#FFFFFF"></path>
            <path d="M18.0895186,19.9900937 C18.70471,19.8145974 19.1095328,19.4544643 19.303987,18.9096945 C19.3706286,18.7216628 19.4039494,18.4469275 19.4039494,18.0854886 C19.3999708,12.7694129 19.3999708,7.45385951 19.4039494,2.13882842 C19.4044467,1.64315581 19.3678933,1.28902932 19.2942892,1.07644897 C19.0963537,0.506608277 18.664924,0.153265261 18,0.0164199238 C18.8474424,-0.0791628878 19.5971603,0.238140708 19.9000314,1.08428363 C19.966673,1.27127077 20,1.54208874 20,1.89673753 C19.9980045,7.35435937 19.9980045,12.8117201 20,18.2688196 C20.0004912,18.5122163 19.9709003,18.7164397 19.9112213,18.8814898 C19.6168047,19.6973387 19.0095704,20.0668733 18.0895186,19.9900937 Z" id="路径" fill="#14ABF0"></path>
            <path d="M6.74284436,9.91925829 C6.73129033,11.217773 5.64868743,12.2612405 4.32478275,12.2499086 L3.87631496,12.2460655 C2.55241028,12.234733 1.48853973,11.1728924 1.50009322,9.87437773 L1.50715564,9.08074171 C1.51870967,7.78222704 2.60131257,6.73875952 3.92521725,6.75009143 L4.37368504,6.75393453 C5.69758972,6.76526698 6.76146027,7.82710759 6.74990678,9.12562227 L6.74284436,9.91925829 Z M4.69717589,7.76316785 C3.87681771,7.45634577 2.95750582,7.84378692 2.71889969,8.70633267 C2.4244326,9.76768661 2.67261489,11.3182339 4.13776822,11.3291919 C5.44092475,11.3385844 5.7968389,9.97432189 5.58536525,8.92862214 C5.47603736,8.38463911 5.22067294,7.95806249 4.69717589,7.76316785 Z" id="形状" fill="#FFFFFF"></path>
            <path d="M8.59923421,10.0864839 L8.59524569,12.2026683 C8.59524569,12.2271224 8.57453136,12.2469463 8.54897894,12.2469463 L7.54626675,12.25 C7.52071433,12.25 7.5,12.2301761 7.5,12.205722 L7.5,7.04504144 C7.5,7.02058736 7.52071433,7.00076341 7.54626675,7.00076341 L11.2037332,7 C11.2292857,7 11.25,7.01982395 11.25,7.04427803 L11.2452138,7.86876545 C11.2452138,7.89321953 11.2244995,7.91304348 11.198947,7.91304348 L8.64550096,7.91380689 C8.61994854,7.91380689 8.59923421,7.93363084 8.59923421,7.95808492 L8.5968411,9.08259415 C8.5968411,9.10704823 8.61755543,9.12687218 8.64310785,9.12687218 L10.8296107,9.12610877 C10.8551631,9.12610877 10.8758775,9.14593272 10.8758775,9.1703868 L10.871889,9.99716446 C10.871889,10.0089077 10.8670144,10.02017 10.8583377,10.0284738 C10.849661,10.0367775 10.8378929,10.0414425 10.8256222,10.0414425 L8.64550096,10.0422059 C8.61994854,10.0422059 8.59923421,10.0620299 8.59923421,10.0864839 Z" id="路径" fill="#FFFFFF"></path>
            <path d="M12.2688218,6.81220971 C12.2688218,6.77785224 12.2962089,6.75 12.3299925,6.75 L14.6223273,6.75877316 C15.8016695,6.7628193 16.7542285,7.8176116 16.7499859,9.11476659 L16.7468347,9.90913676 C16.7421917,11.2061061 15.7826801,12.2540379 14.6035056,12.2499883 L12.3111708,12.2420009 C12.2773871,12.2420009 12.25,12.2141487 12.25,12.1797912 L12.2688218,6.81220971 Z M13.3597002,7.76210415 L13.3471524,11.2522285 C13.3471524,11.2642855 13.351862,11.2758486 13.3602452,11.2843742 C13.3686284,11.2928998 13.3799985,11.2976894 13.3918541,11.2976894 L14.4521472,11.301685 C14.7627567,11.3028633 15.0611346,11.1680601 15.2816108,10.9269366 C15.502087,10.6858131 15.6265921,10.358131 15.6277236,10.0160098 L15.6308686,9.01427398 C15.6332245,8.30220071 15.1111817,7.72309161 14.464695,7.72063101 L13.4044019,7.71664321 C13.3797139,7.71664321 13.3597002,7.73699677 13.3597002,7.76210415 L13.3597002,7.76210415 Z" id="形状" fill="#FFFFFF"></path>
            <path d="M2.85779001,8.82011278 C3.09385635,7.93882916 4.00338288,7.54297128 4.81500898,7.85645873 C5.33293381,8.05558725 5.58558007,8.49143078 5.69374425,9.04723125 C5.90296693,10.1156477 5.55084121,11.5095473 4.26155578,11.4999507 C2.81199787,11.4887547 2.56645729,9.90452348 2.85779001,8.82011278 Z" id="路径" fill="#14ABF0"></path>
            <path d="M13.2623626,7.79438255 C13.2623626,7.76987075 13.2820808,7.75 13.3064043,7.75 L14.3510435,7.75389321 C14.9879856,7.75629544 15.5023212,8.32166733 15.5,9.01684932 L15.4969015,9.99482273 C15.4957867,10.3288283 15.3731198,10.6487374 15.1558986,10.8841411 C14.9386774,11.1195449 14.6447047,11.2511503 14.3386809,11.25 L13.2940417,11.2460992 C13.2823611,11.2460992 13.271159,11.2414232 13.2628995,11.2330999 C13.2546401,11.2247765 13.25,11.2134877 13.25,11.2017167 L13.2623626,7.79438255 Z" id="路径" fill="#14ABF0"></path>
        </g>
    </g>
</svg>