<?xml version="1.0" encoding="UTF-8"?>
<svg width="24px" height="24px" viewBox="0 0 24 24" version="1.1" xmlns="http://www.w3.org/2000/svg" xmlns:xlink="http://www.w3.org/1999/xlink">
    <title>cn.wps.wps-office-pro</title>
    <defs>
        <filter x="-7.5%" y="-7.5%" width="115.0%" height="115.0%" filterUnits="objectBoundingBox" id="filter-1">
            <feOffset dx="0" dy="0" in="SourceAlpha" result="shadowOffsetOuter1"></feOffset>
            <feGaussianBlur stdDeviation="0.5" in="shadowOffsetOuter1" result="shadowBlurOuter1"></feGaussianBlur>
            <feColorMatrix values="0 0 0 0 0   0 0 0 0 0   0 0 0 0 0  0 0 0 0.15 0" type="matrix" in="shadowBlurOuter1" result="shadowMatrixOuter1"></feColorMatrix>
            <feMerge>
                <feMergeNode in="shadowMatrixOuter1"></feMergeNode>
                <feMergeNode in="SourceGraphic"></feMergeNode>
            </feMerge>
        </filter>
        <linearGradient x1="50%" y1="0%" x2="50%" y2="100%" id="linearGradient-2">
            <stop stop-color="#FA5E41" offset="0%"></stop>
            <stop stop-color="#FC3358" offset="100%"></stop>
        </linearGradient>
    </defs>
    <g id="cn.wps.wps-office-pro" stroke="none" stroke-width="1" fill="none" fill-rule="evenodd">
        <g id="WPS-Office_icon" filter="url(#filter-1)" transform="translate(2, 2)" fill-rule="nonzero">
            <rect id="矩形" fill="url(#linearGradient-2)" x="0" y="0" width="20" height="20" rx="4"></rect>
            <path d="M12.3539447,15.9941478 C12.3204442,15.9941478 12.2364429,15.9840395 12.1849421,15.8914684 L10.6794184,13.1834978 L11.8524369,11.0761753 L12.3534447,12.1833043 L15.1264884,7.00106404 L12.6684497,7 L7.81487326,15.9021087 C7.76337245,15.9946798 7.67937113,16 7.6458706,16 C7.61237007,16 7.52836875,15.9872316 7.47686794,15.8946605 L2.13828386,6.29067518 C1.95678101,5.96401625 1.95378096,5.7144999 2.13028374,5.38464887 C2.30728653,5.05479783 2.62579154,5 2.98229716,5 L8.47288363,5 L9.32639707,6.46411298 L8.12237811,8.81935577 L7.1313625,7.00106404 L4.87382695,7.00106404 L7.64637061,12.1827723 L11.5269317,5 L17.0175182,5 C17.3740238,5 17.6930288,5.05426582 17.8695316,5.38411685 C18.0460344,5.71396789 18.0435344,6.0342426 17.8615315,6.36090153 L12.5534479,15.8723157 C12.5019471,15.9648868 12.3879453,15.9941478 12.3539447,15.9941478 Z" id="路径" fill="#FFFFFF"></path>
        </g>
    </g>
</svg>