<?xml version="1.0" encoding="UTF-8"?>
<svg width="24px" height="24px" viewBox="0 0 24 24" version="1.1" xmlns="http://www.w3.org/2000/svg" xmlns:xlink="http://www.w3.org/1999/xlink">
    <title>com.antutu.benchmark</title>
    <defs>
        <filter x="-7.4%" y="-6.7%" width="114.8%" height="113.5%" filterUnits="objectBoundingBox" id="filter-1">
            <feOffset dx="0" dy="0" in="SourceAlpha" result="shadowOffsetOuter1"></feOffset>
            <feGaussianBlur stdDeviation="0.5" in="shadowOffsetOuter1" result="shadowBlurOuter1"></feGaussianBlur>
            <feColorMatrix values="0 0 0 0 0   0 0 0 0 0   0 0 0 0 0  0 0 0 0.15 0" type="matrix" in="shadowBlurOuter1" result="shadowMatrixOuter1"></feColorMatrix>
            <feMerge>
                <feMergeNode in="shadowMatrixOuter1"></feMergeNode>
                <feMergeNode in="SourceGraphic"></feMergeNode>
            </feMerge>
        </filter>
    </defs>
    <g id="com.antutu.benchmark" stroke="none" stroke-width="1" fill="none" fill-rule="evenodd">
        <g id="编组" filter="url(#filter-1)" transform="translate(1.75, 0.75)">
            <path d="M10.125,0 C11.4435575,0.800346435 12.4487685,1.6026201 13.140633,2.40682099 C13.8324975,3.21102189 14.2130275,4.07508249 14.2822229,4.99900279 L15.4712236,3.35267427 C15.5843605,3.44736849 15.6967881,3.53384141 15.808578,3.61035464 C18.4891502,5.4450385 20.25,8.54119668 20.25,12.0516046 C20.25,17.6840229 15.7168831,22.25 10.125,22.25 C4.53311691,22.25 0,17.6840229 0,12.0516046 C0,9.5091657 0.923651592,7.18402098 2.4514035,5.39803814 L2.69830099,5.11491678 C2.73423923,5.203216 2.77355587,5.2917956 2.81611734,5.3804731 C3.17700316,6.13238447 3.7573778,6.64919372 4.55724125,6.93090086 C4.62545009,5.90470247 4.91716464,4.953683 5.43238489,4.07784247 C5.94760514,3.20200193 6.65983531,2.38359956 7.5690754,1.62263534 C7.47350589,2.29311962 7.53824557,2.85652287 7.76329445,3.3128451 C7.98834332,3.76916732 8.2389129,4.09047498 8.51500318,4.2767681 C9.12053522,3.79243652 9.55346435,3.1993295 9.81379057,2.49744706 C10.0741168,1.79556461 10.1778533,0.963082256 10.125,0 Z" id="路径" fill="#CD2A24"></path>
            <path d="M10.125,0 C11.4435575,0.800346435 12.4487685,1.6026201 13.140633,2.40682099 C13.8324975,3.21102189 14.2130275,4.07508249 14.2822229,4.99900279 L15.4712236,3.35267427 C15.5560763,3.42369493 15.64053,3.49009112 15.7246149,3.55112944 L15.808578,3.61035464 C16.5157339,4.09435859 17.1588822,4.6661543 17.72258,5.31018708 C17.926174,6.54604543 18.0547796,7.603756 18.1081696,8.48359061 C18.2339893,10.5570249 17.9703232,12.1079122 17.3171713,13.1362525 C17.9669709,12.3938226 18.4680581,11.4938355 18.8204328,10.4362912 C19.085017,9.64222316 19.2427148,8.73653838 19.293526,7.71923688 C19.9070374,9.03380043 20.25,10.5023606 20.25,12.0516046 C20.25,17.6840229 15.7168831,22.25 10.125,22.25 C5.13123605,22.25 0.981855942,18.6085564 0.151336771,13.8180836 L1.24530635,11.7899133 C1.09784386,12.3424705 1.09784386,12.9085435 1.24530635,13.4881322 C1.39276883,14.067721 1.72372635,14.5547841 2.2381789,14.9493214 C2.23456611,14.0781355 2.69276252,13.1212966 3.61276814,12.0788047 C4.53277376,11.0363129 5.50115349,10.2537276 6.51790732,9.73104902 C6.54158343,8.91012868 6.49607442,8.25870502 6.38138029,7.77677803 C6.26668615,7.29485104 5.991931,6.6005743 5.55711483,5.69394783 C6.12230364,6.00211999 6.55885479,6.32738157 6.8667683,6.66973258 C7.17468181,7.01208359 7.56381555,7.67097863 8.03416952,8.64641772 C7.82145113,7.57582743 7.88436601,6.53333602 8.22291416,5.51894349 C8.63476786,4.28490541 8.9312598,4.16308128 9.42903158,3.27064719 C9.58403171,3.02927917 9.712084,2.77166473 9.81379057,2.49744706 L9.83069548,2.45667831 L9.84322269,2.42117943 L9.81379057,2.49744706 C10.0741168,1.79556461 10.1778533,0.963082256 10.125,0 Z" id="路径" fill="#E84D47"></path>
            <path d="M11.3302836,5.1565399 C11.7191221,6.57115168 11.7191221,7.8148903 11.3302836,8.88775576 C10.9414452,9.96062121 9.94959019,11.4535638 8.35471869,13.3665836 L12.5750787,13.7461378 C12.985914,11.3324618 13.1214807,9.64362328 12.9817787,8.67962218 C12.8420768,7.71562109 12.2915784,6.54126032 11.3302836,5.1565399 Z" id="路径-26" fill="#EB7C79"></path>
            <path d="M12.4870181,7.68086374 C13.3814218,7.68086374 14.1064792,8.40592117 14.1064792,9.30032484 C14.1064792,9.32268951 14.106016,9.34505178 14.1050897,9.36739726 L13.9349172,13.5016555 C15.9831054,14.5418923 17.4654143,16.4268659 17.8420214,18.6538771 C15.9847949,20.8542114 13.2167263,22.25 10.125,22.25 C7.16801842,22.25 4.5070978,20.9732237 2.65598036,18.9371375 C2.93754642,16.6880521 4.3417369,14.7582218 6.33290184,13.6463259 L5.16365554,9.31059306 C4.97767605,8.62114144 5.38582087,7.9114643 6.0752725,7.72548482 C6.18507032,7.69586687 6.29829574,7.68086374 6.41201814,7.68086374 C7.30642181,7.68086374 8.03147924,8.40592117 8.03147924,9.30032484 C8.03147924,9.32268951 8.03101596,9.34505178 8.03008969,9.36739726 L7.87974971,12.988111 C8.63180838,12.7585354 9.43515462,12.6343701 10.2696429,12.6343701 C10.9352658,12.6343701 11.5810752,12.7133682 12.1968493,12.8618454 L11.2386555,9.31059306 C11.0526761,8.62114144 11.4608209,7.9114643 12.1502725,7.72548482 C12.2600703,7.69586687 12.3732957,7.68086374 12.4870181,7.68086374 Z" id="形状结合" fill="#71161A"></path>
            <path d="M10.9705124,16.4788984 L14.1716564,15.629911 C13.4293829,16.7618942 12.7970868,17.3278859 12.2747682,17.3278859 C11.7524496,17.3278859 11.3176976,17.0448901 10.9705124,16.4788984 Z" id="路径-27" fill="#FBFBFB"></path>
            <path d="M5.76336952,16.4788984 L8.96451353,15.629911 C8.22224003,16.7618942 7.58994397,17.3278859 7.06762535,17.3278859 C6.54530673,17.3278859 6.11055478,17.0448901 5.76336952,16.4788984 Z" id="路径-27" fill="#FBFBFB" transform="translate(7.3639, 16.4789) scale(-1, 1) translate(-7.3639, -16.4789)"></path>
        </g>
    </g>
</svg>