<?xml version="1.0" encoding="UTF-8"?>
<svg width="24px" height="24px" viewBox="0 0 24 24" version="1.1" xmlns="http://www.w3.org/2000/svg" xmlns:xlink="http://www.w3.org/1999/xlink">
    <title>com.browser.softedge.stable</title>
    <defs>
        <filter x="-7.0%" y="-7.0%" width="114.0%" height="114.0%" filterUnits="objectBoundingBox" id="filter-1">
            <feOffset dx="0" dy="0" in="SourceAlpha" result="shadowOffsetOuter1"></feOffset>
            <feGaussianBlur stdDeviation="0.5" in="shadowOffsetOuter1" result="shadowBlurOuter1"></feGaussianBlur>
            <feColorMatrix values="0 0 0 0 0   0 0 0 0 0   0 0 0 0 0  0 0 0 0.15 0" type="matrix" in="shadowBlurOuter1" result="shadowMatrixOuter1"></feColorMatrix>
            <feMerge>
                <feMergeNode in="shadowMatrixOuter1"></feMergeNode>
                <feMergeNode in="SourceGraphic"></feMergeNode>
            </feMerge>
        </filter>
        <linearGradient x1="50%" y1="0%" x2="50%" y2="100%" id="linearGradient-2">
            <stop stop-color="#0C4F91" offset="0%"></stop>
            <stop stop-color="#0D569F" offset="100%"></stop>
        </linearGradient>
        <linearGradient x1="21.833%" y1="18.248%" x2="80.493%" y2="87.464%" id="linearGradient-3">
            <stop stop-color="#0F8BDB" offset="0%"></stop>
            <stop stop-color="#0576D0" offset="100%"></stop>
        </linearGradient>
        <linearGradient x1="11.709%" y1="38.121%" x2="94.426%" y2="66.72%" id="linearGradient-4">
            <stop stop-color="#3ABFFA" offset="0%"></stop>
            <stop stop-color="#54D45A" offset="100%"></stop>
        </linearGradient>
    </defs>
    <g id="com.browser.softedge.stable" stroke="none" stroke-width="1" fill="none" fill-rule="evenodd">
        <g id="com.apps.microsoft-edge-beta" filter="url(#filter-1)" transform="translate(0.5, 1.25)" fill-rule="nonzero">
            <path d="M11.5210206,15.9109456 C8.25388137,14.1833608 8.0077921,11.9999579 8.25388137,9.28559852 C8.49997062,6.57123912 9.35773707,7.25385032 9.45437607,6.59681005 C9.49300567,6.33417055 8.6512755,5.29287185 6.9291855,3.472914 C3.9593216,5.90029385 2.4122936,8.4696324 2.28810148,11.1809296 C2.10181331,15.2478755 0.67936812,14.7236611 3.15674215,16.9729607 C4.39327635,18.0956559 5.2390848,19.0286519 6.9291855,19.9256473 C8.62517112,20.825766 11.1669918,21.6870504 13.2969975,21.176314 C17.549618,20.1566132 20.4586973,16.336608 19.5988511,16.1171652 C18.7390049,15.8977224 15.8299609,18.1894099 11.5210206,15.9109456 Z" id="路径" fill="url(#linearGradient-2)"></path>
            <path d="M12.829164,21.2687192 C10.4123265,21.1683533 8.50098825,20.2969732 7.0951494,18.6545791 C5.8621671,17.2141274 4.9187736,13.3009299 6.85166868,10.6406658 C8.78456378,7.98040175 10.587301,7.74742085 11.7888745,8.24914837 C12.5899235,8.58363337 13.2719543,9.4421785 13.8349668,10.8247837 L14.6010892,5.36131862 L5.37181355,3.87603392 L2.1716378,4.56439802 C0.191964599,7.1612745 -0.43420044,10.0958683 0.293142685,13.3681795 C1.38415737,18.2766463 6.17575218,20.8061577 8.09997845,21.2687192 C9.38279595,21.5770936 10.9591912,21.5770936 12.829164,21.2687192 Z" id="路径" fill="url(#linearGradient-3)"></path>
            <path d="M0,10.6406658 C0.27943642,8.43536517 1.20684445,6.90113347 2.7822241,6.03797072 C5.14529358,4.7432266 8.459032,4.80040137 10.7315871,6.2645289 C12.0553533,7.11738497 12.9121388,8.36086762 13.3082397,9.45378507 C13.5921389,10.2371168 13.6197185,10.976223 13.4326205,11.4055988 C12.9844804,12.4340466 12.4301786,12.8609738 12.7523068,13.2946961 C13.0459959,13.6901271 15.0582932,14.7457591 17.5482697,14.2188753 C17.7893843,14.167855 19.4357768,13.8122285 20.6264201,12.0773394 C21.9682505,10.1221551 21.737886,6.8999413 20.11697,4.730696 C18.7007253,2.83535882 17.1026934,1.24280832 14.3780242,0.463493412 C12.4689602,-0.0825405934 9.83501535,-0.253115848 7.3005446,0.547618407 C5.9823739,0.96407792 4.67559285,1.77999431 3.53634843,2.80123635 C2.58684315,3.65239235 1.73760306,4.81361157 1.16548959,5.80555655 C0.795405303,6.44721812 0.383386153,7.59571405 0.170522885,8.71630655 C0.088208019,9.14964305 0.0313670573,9.79109612 0,10.6406658 Z" id="路径" fill="url(#linearGradient-4)"></path>
        </g>
    </g>
</svg>