<?xml version="1.0" encoding="UTF-8"?>
<svg width="24px" height="24px" viewBox="0 0 24 24" version="1.1" xmlns="http://www.w3.org/2000/svg" xmlns:xlink="http://www.w3.org/1999/xlink">
    <title>com.zwsoft.zwcad2023</title>
    <defs>
        <filter x="-7.5%" y="-7.5%" width="115.0%" height="115.0%" filterUnits="objectBoundingBox" id="filter-1">
            <feOffset dx="0" dy="0" in="SourceAlpha" result="shadowOffsetOuter1"></feOffset>
            <feGaussianBlur stdDeviation="0.5" in="shadowOffsetOuter1" result="shadowBlurOuter1"></feGaussianBlur>
            <feColorMatrix values="0 0 0 0 0   0 0 0 0 0   0 0 0 0 0  0 0 0 0.15 0" type="matrix" in="shadowBlurOuter1" result="shadowMatrixOuter1"></feColorMatrix>
            <feMerge>
                <feMergeNode in="shadowMatrixOuter1"></feMergeNode>
                <feMergeNode in="SourceGraphic"></feMergeNode>
            </feMerge>
        </filter>
    </defs>
    <g id="com.zwsoft.zwcad2023" stroke="none" stroke-width="1" fill="none" fill-rule="evenodd">
        <g id="nav_ic" filter="url(#filter-1)" transform="translate(2, 1.9686)" fill-rule="nonzero">
            <path d="M7.40463442,0 L18.0288094,0.00669065532 C18.6766393,0.00892087376 19.2059529,0.281007523 19.6167501,0.822950604 C19.518432,0.87558376 19.4129851,0.923062632 19.3004095,0.965387222 L18.913672,1.09258401 C18.7599572,1.14276393 18.6256238,1.65455108 18.4598792,1.70740726 C18.2734164,1.76712136 18.1083819,1.85543801 17.9295318,1.92324362 L17.6420397,1.98239319 C17.5417909,2.00798495 17.4656018,2.05013608 17.3641313,2.08965276 L17.2524061,2.12758041 C17.2185443,2.13709601 17.180326,2.15186501 17.1377512,2.17188742 L16.9397949,2.2710165 C16.7506231,2.36129354 16.4335592,2.50148893 15.9886031,2.69160266 L15.9603664,2.70749296 L15.9371421,2.72973939 C15.8921415,2.78326464 15.840235,2.82407763 15.7814223,2.85217838 L15.66764,2.90988529 C15.6526584,2.91819285 15.6396678,2.92584529 15.6286683,2.9328426 L15.6016429,2.95186915 C15.4194129,3.09906357 15.2282719,3.23376876 15.0282198,3.35598473 C14.9965858,3.37516461 14.985447,3.3669128 14.9948036,3.33122931 L15.014185,3.2556249 C15.4512697,2.9411641 16.0768221,2.46278225 16.2900178,1.95496151 C16.317901,1.88879071 16.2972376,1.81211362 16.2398934,1.76896129 C16.1351891,1.69001156 16.0180095,1.63804747 15.8883544,1.61306902 C15.7288474,1.58184596 15.4534974,1.57627042 15.0623044,1.59634238 C14.7994299,1.61016974 14.5263076,1.63715538 14.2429378,1.67729931 C12.5313569,1.9201701 10.8224494,2.33632886 9.39089688,3.34929408 C9.37290942,3.36191316 9.3659981,3.38543768 9.37418875,3.40616465 C9.44191237,3.57699938 9.40894166,3.7344528 9.27527663,3.87852491 C9.13804719,4.02661142 9.02554578,4.13410794 8.93777241,4.2010145 C8.9208415,4.21394976 8.91616322,4.23023036 8.92373758,4.24985628 L8.94445566,4.30204339 C7.99543389,3.8171939 7.14510147,3.96751063 6.39345841,4.75299356 C6.10919743,4.79224541 5.81513435,4.92449736 5.51126916,5.14974942 L5.11394984,5.42891702 C4.92815544,5.556374 4.68900641,5.7182321 4.39650275,5.91449133 C4.37734409,5.92698055 4.36776477,5.92185105 4.36776477,5.89910282 L4.36910142,5.6528867 C4.36954697,5.63415287 4.36108151,5.62099458 4.34370506,5.61341184 C4.18776251,5.54472111 4.02424562,5.50948366 3.85315437,5.50769948 L3.82508471,5.51154661 L3.79968836,5.52442612 C3.73766778,5.57010099 3.68334631,5.57110013 3.63672394,5.52742353 L3.60320075,5.48628938 C3.58894315,5.46443324 3.56889339,5.45395122 3.54305148,5.4548433 C3.28374131,5.46510231 3.03846597,5.4200519 2.80722545,5.31969207 C2.66286721,5.25724595 2.51917729,5.25144738 2.3761557,5.30229636 C2.34273944,5.3138935 2.29885276,5.30809493 2.24449564,5.28490066 C2.22622809,5.27731792 2.21085661,5.28088627 2.1983812,5.29560571 C2.05936956,5.4548433 1.86956521,5.59400894 1.74859835,5.72982924 C1.39037605,6.13216065 1.07136216,6.56236978 0.791556682,7.02045665 C0.781561184,7.03589819 0.76157019,7.04135262 0.745130635,7.03312374 C0.728691081,7.02489485 0.7210552,7.00561168 0.727397463,6.9883415 C0.864404127,6.63317922 1.11094186,6.33470165 1.3416997,6.03250705 L1.47725833,5.85026103 C1.56933868,5.72239518 1.6663696,5.59720558 1.76835107,5.47469225 L2.39887876,4.75433169 C3.05160969,4.00274808 3.7671632,2.9077588 4.54553927,2.28820412 L6.85259782,0.454295496 C7.03349117,0.310669429 7.21750337,0.159237597 7.40463442,0 Z M4.37645299,0.00669065532 C4.08105326,0.385381746 3.64998351,0.731957692 3.39267832,0.98085007 L2.64740959,1.70615279 C2.08936301,2.25335919 1.68884315,3.06695437 1.44585001,3.32809808 L1.08825594,3.72345039 C0.684141972,4.17718833 0.483691073,4.50397109 0.349747566,4.70379866 L0.310102888,4.76570581 C0.203616407,4.94144702 0.100248778,5.04136081 0,5.06544717 L0,1.55959176 C0.192923204,0.847259985 0.612185873,0.370885327 1.257788,0.130467779 C1.43422585,0.0648993566 1.66412972,0.0587949301 1.9474996,0.0494280127 C2.77711393,0.0222193477 3.54104651,-0.012935267 4.37645299,0.00669065532 Z" id="形状" fill="#5DB1F5"></path>
            <path d="M10.942748,11.8290306 L10.9205506,11.824774 L10.9006435,11.8136421 C10.8712372,11.7900018 10.8413853,11.7866565 10.8110879,11.8036061 C10.7950481,11.812081 10.7861371,11.8254623 10.7843549,11.8437501 L10.7664222,12.0034201 L10.760518,11.6481599 C10.7575476,11.411162 10.7572506,11.1795167 10.7596269,10.9532238 C10.7623002,10.6742235 10.5290547,10.5798853 10.3178639,10.7525042 C10.0224642,10.9942599 9.72996053,11.2371307 9.44035295,11.4811166 C9.32361881,11.4909295 9.21601846,11.4721957 9.11755188,11.424915 C9.10284873,11.4177783 9.09972988,11.4072963 9.10819533,11.393469 L9.19106765,11.2589868 C9.19938459,11.2453081 9.19978063,11.2376758 9.19225579,11.2360899 L9.17502785,11.2382458 C9.11888853,11.2543033 9.08279897,11.2351235 9.06675917,11.1807061 C9.06422724,11.1710735 9.05482082,11.1649248 9.04499301,11.1664782 C9.03516521,11.1680317 9.02810876,11.1767827 9.02866463,11.1867277 L9.02866463,11.2516271 C9.02866463,11.2770516 9.01596645,11.2906559 8.9905701,11.2924401 L8.92240093,11.2971235 C8.89344017,11.2993537 8.87895979,11.2857494 8.87895979,11.2563105 L8.87895979,11.1204902 L8.85289511,11.1117924 C8.84846584,11.1117924 8.8448752,11.115387 8.8448752,11.1198212 L8.8448752,11.2215191 C8.84481484,11.2347118 8.83653515,11.2464641 8.82414166,11.2509486 C8.81174818,11.2554332 8.7978762,11.2516964 8.78940421,11.2415911 C8.70965074,11.1439075 8.70207639,11.0515765 8.76668116,10.964598 L8.87093989,10.8234251 C8.91594045,10.75072 8.97052034,10.6956336 9.03467956,10.6581659 C9.06626341,10.6395155 9.08546326,10.6053281 9.0849093,10.5687263 C9.08435534,10.5321245 9.06413365,10.4987955 9.03200626,10.4815326 C8.89032132,10.4043671 8.74774528,10.3474965 8.60427814,10.3109209 C8.50046496,10.2846044 8.39063685,10.2895108 8.27479382,10.3256404 C7.75082687,10.4875542 7.26473168,10.729979 6.81650826,11.0529146 C6.79512185,11.0685261 6.77418099,11.0678571 6.75368569,11.0509074 L6.63004553,10.9472023 L7.58123267,8.32226786 C7.60970035,8.24561575 7.63504324,8.17788055 7.65726134,8.11906225 C7.70270746,7.99863046 7.80429289,7.93975269 7.93929457,7.93038577 C8.9092572,7.86704757 9.53525512,7.3630182 9.81728835,6.41829767 C9.84936796,6.31124719 9.86429389,6.20954923 9.86206614,6.11320379 C9.86340279,6.15870024 9.87097714,6.19438374 9.8847892,6.22025427 C9.90127455,6.25058524 9.91798268,6.25058524 9.93491359,6.22025427 L9.96030994,6.17542688 C9.9705576,6.15713909 9.98503798,6.14353476 10.0037511,6.13461389 C10.1935554,6.04689196 10.3798944,5.95342103 10.562768,5.85420109 L11.1049839,5.54650528 C11.1864082,5.50123185 11.2590886,5.46220303 11.323025,5.42941881 L11.8189223,5.17383578 L12.0583431,5.04387649 L12.527347,4.77105833 C12.6660616,4.68779684 12.8173506,4.5999758 12.9812141,4.50759519 L13.23644,4.36560462 C13.7679813,4.07299996 14.360563,3.70300672 15.014185,3.2556249 L14.9948036,3.33122931 C14.985447,3.3669128 14.9965858,3.37516461 15.0282198,3.35598473 C15.1615879,3.27450742 15.2909954,3.18747934 15.4164425,3.09490049 L15.6016429,2.95186915 C15.6297125,2.92912092 15.689639,2.89589067 15.7814223,2.85217838 C15.8206307,2.83344455 15.8567698,2.80906083 15.8898395,2.77902722 L15.9371421,2.72973939 C15.9509542,2.71278973 15.9681078,2.70007749 15.9886031,2.69160266 L16.3386735,2.54087293 C16.6042984,2.42545224 16.8046722,2.3355001 16.9397949,2.2710165 L17.0706216,2.20586108 C17.1175529,2.18058527 17.1601277,2.16056287 17.198346,2.14579386 L17.2524061,2.12758041 C17.3762133,2.09195267 17.458292,2.04729255 17.5479833,2.01279386 L17.6420397,1.98239319 C17.8980082,1.91749384 18.2112622,1.78702606 18.4598792,1.70740726 C18.6256238,1.65455108 18.7599572,1.14276393 18.913672,1.09258401 L19.1261994,1.0250084 C19.3057561,0.969252934 19.469273,0.901900337 19.6167501,0.822950604 C19.8680403,1.16015963 19.9916805,1.55275837 20.009057,2.03136324 C20.0227059,2.40739797 20.0026424,2.92755996 20,3.40215025 C19.9983295,3.70217644 20.0204467,3.98568941 20.009057,4.19766917 C19.9408878,3.55447417 19.9286352,2.4982907 19.9722991,1.847959 C19.9780912,1.76053444 19.9645019,1.69630415 19.9315312,1.65526813 C19.8776197,1.58791553 19.7996484,1.57564933 19.6976174,1.61846952 C19.2030568,1.82798261 18.6268241,2.51901106 17.9689193,2.8727146 L17.5304294,3.05557431 C17.0373539,3.32766096 16.5412091,3.59389948 16.0419949,3.85428987 L15.2908716,4.24048936 C14.1048172,4.8422023 12.9352481,5.48004477 11.7821644,6.15401679 C11.7565703,6.16919241 11.7472433,6.20171961 11.7608998,6.22817515 C11.7745563,6.25463068 11.8064551,6.26582965 11.8336254,6.25370755 L12.1176637,6.1245779 C12.1357827,6.11625175 12.1414263,6.1093133 12.1345946,6.10376253 L12.0956089,6.09246276 C12.0760047,6.08859704 12.06947,6.08463221 12.0760047,6.08056826 L12.0956089,6.07439799 C12.2306106,6.04674328 12.3212801,5.9907648 12.3676173,5.90646254 C12.378756,5.88639057 12.3954642,5.87412437 12.4177417,5.86966393 C12.8044792,5.7907142 13.1426517,5.70239755 13.4322593,5.60471398 C13.5427557,5.56724631 13.6463461,5.55832544 13.7430305,5.57795136 C13.7510504,5.57973554 13.7575109,5.5772823 13.7624119,5.57059164 L13.7804567,5.54650528 C13.786417,5.53841964 13.7960853,5.53393613 13.8061003,5.53461357 C13.8161152,5.53529101 13.8250932,5.5410358 13.8299128,5.54985061 L13.863329,5.61140464 C13.8661991,5.61607388 13.8716002,5.61866291 13.876926,5.61792239 L13.8954087,5.57192977 C13.8974947,5.56112383 13.9038518,5.55161936 13.9130377,5.54557265 C13.9222236,5.53952594 13.9334595,5.53744957 13.9441964,5.53981463 L13.9736027,5.54583622 C13.9904581,5.54961775 14.003202,5.56347032 14.0055823,5.58059792 C14.0079626,5.59772552 13.99948,5.61453461 13.9842959,5.62277875 C12.8107169,6.24634783 11.6536232,6.89266513 10.5130149,7.56173067 C10.4862819,7.57778824 10.4671232,7.59518394 10.4555389,7.61391778 C10.4388519,7.64091215 10.4446186,7.67609325 10.469048,7.6963331 C10.4934774,7.71657295 10.529078,7.71566479 10.5524461,7.69420564 C10.6195756,7.63384106 10.6951211,7.58269472 10.7790826,7.54076661 L10.9113367,7.48478813 C10.9832188,7.45951232 11.047477,7.43116377 11.1041114,7.39974247 L11.183345,7.35030596 C11.3642384,7.22273746 11.5569388,7.11769417 11.7614463,7.03517609 C11.7895514,7.0236792 11.8213404,7.02465093 11.8489969,7.03785235 C11.9024629,7.06327684 11.9185027,7.09583803 11.8971163,7.13553592 C11.8902846,7.14832251 11.8808785,7.15674778 11.8688982,7.16081173 L11.8489969,7.16363667 C11.8222639,7.16229854 11.7961992,7.166982 11.7708029,7.17768705 C11.7293667,7.1955288 11.7311489,7.20645687 11.7761495,7.21047126 L12.060856,7.23455762 C12.0820284,7.23621186 12.0992335,7.25232481 12.1022922,7.27336342 L12.1096438,7.32019801 C12.1123171,7.3384858 12.1230103,7.3476297 12.1417234,7.3476297 L12.167788,7.3476297 C12.2034321,7.3476297 12.2087787,7.33491745 12.1838278,7.30949296 L12.1590998,7.2854066 C12.1332579,7.25909002 12.1383817,7.24191734 12.1744713,7.23388855 C12.2336181,7.22151084 12.2838678,7.23008324 12.3252204,7.25960576 L12.3636073,7.29611165 C12.3792016,7.31529153 12.3972464,7.31841383 12.4177417,7.30547857 L12.5119755,7.24726987 C12.5333619,7.2343346 12.5480651,7.23968712 12.556085,7.26332744 L12.5961845,7.38777363 C12.5994744,7.39833763 12.6087114,7.40586456 12.619801,7.407018 C12.6308905,7.40817144 12.6417812,7.40273801 12.6476455,7.39312615 L12.7412111,7.23522669 C12.7496426,7.22091558 12.7651055,7.21224415 12.7816997,7.21252103 C12.798294,7.2127979 12.8134596,7.22198038 12.8214101,7.23656482 C12.8423509,7.27492457 12.8624007,7.2833994 12.8815593,7.26198931 C12.9011635,7.24102525 12.9250005,7.23188136 12.9530701,7.23455762 L13.1823057,7.25663678 C13.2152764,7.25975909 13.2273062,7.27715479 13.2183952,7.30882389 C13.2121575,7.33201817 13.2281973,7.34718365 13.2665147,7.35432035 C13.2923566,7.35922683 13.3052775,7.34852178 13.3052775,7.3222052 L13.3052775,7.25462959 C13.3052775,7.22474466 13.3177529,7.218054 13.3427037,7.23455762 L13.353564,7.24442634 L13.3567386,7.25529865 C13.3558475,7.27670875 13.3632733,7.28711643 13.3790161,7.28652171 L13.4088679,7.27737781 C13.5061761,7.23134611 13.6077615,7.22642178 13.7136242,7.26260485 L13.7938232,7.29744978 C13.8125363,7.30726274 13.8290217,7.30570159 13.8432793,7.29276632 C13.8517447,7.28473754 13.8608785,7.28384545 13.8706806,7.29009006 C13.913899,7.31819081 13.913899,7.34606854 13.8706806,7.37372325 C13.8599874,7.38085995 13.8508536,7.37907578 13.8432793,7.36837073 C13.8290217,7.34755535 13.8123878,7.33724679 13.7933777,7.33744503 L13.7630803,7.3456225 C13.7497138,7.35216447 13.7381295,7.35236271 13.7283274,7.34621722 L13.7149609,7.33224119 C13.6681781,7.25953607 13.6060238,7.24191734 13.5284981,7.27938501 C13.5062206,7.29009006 13.4968641,7.30770879 13.5004285,7.33224119 C13.5182505,7.45044277 13.5819641,7.50954355 13.6915695,7.50954355 L13.7548376,7.51162509 C13.7621149,7.51231894 13.7677585,7.51318624 13.7717685,7.51422701 C13.8078581,7.52359393 13.8269053,7.53898244 13.8289103,7.56039253 L13.8252345,7.58380983 C13.8109908,7.62193804 13.8201575,7.66482189 13.8487648,7.69389051 C13.8773721,7.72295912 13.920277,7.73298644 13.9588995,7.71963013 C15.026549,7.34294624 16.1053512,6.98031272 17.195306,6.63172958 L18.4605475,6.26426392 C18.5487664,6.23373471 18.7216399,6.17356837 18.9791678,6.08376491 C19.1380807,6.02845549 19.2997659,5.98246343 19.4642234,5.94578872 L19.7129889,5.89776469 C19.8221487,5.87992294 19.8976694,5.84290131 19.9395511,5.78669981 C19.9939083,5.71399469 20.0197502,5.62500897 20.0170769,5.51974266 L20.0157402,13.2635071 L20.0043787,13.5144067 C20.0021509,13.5616873 19.9943538,13.5625794 19.9809873,13.517083 C19.9738585,13.4921045 19.9702941,13.4669031 19.9702941,13.4414786 L19.9657829,13.4215739 L19.9509127,13.4073562 C19.9250708,13.3927855 19.9078428,13.3723666 19.8992289,13.3460996 L19.8927684,13.3023129 C19.8927684,13.2764424 19.8798474,13.2639532 19.8540055,13.2648453 L19.4082326,13.2815719 C19.3837274,13.282464 19.3627865,13.2744352 19.34541,13.2574855 L19.3293702,13.241428 C19.3187432,13.2310042 19.3019264,13.2304237 19.2906074,13.2400898 C19.2518445,13.2745467 19.1123551,13.280401 19.0776022,13.2576528 L19.0435176,13.2253704 C19.0274778,13.2057445 19.0069825,13.1986078 18.9820317,13.2039603 L18.8323268,13.2374136 C18.8109404,13.241874 18.791559,13.2374136 18.7741825,13.2240323 C18.71136,13.1763056 18.6396264,13.1466437 18.5589818,13.1350465 L18.5307451,13.1358829 L18.5048475,13.1477588 C18.4769263,13.1670874 18.4477181,13.1731337 18.4172226,13.1658979 L18.3705141,13.1450825 C18.3522466,13.1334854 18.3326424,13.1310322 18.3117015,13.1377228 C18.2375174,13.160471 18.1807098,13.1919171 18.1065257,13.1490969 C18.0720698,13.129471 18.046921,13.1034022 18.0310792,13.0708906 L18.0142968,13.017291 C18.0111779,13.0012334 18.0038264,12.9990032 17.9922421,13.0106004 L17.969519,13.0333486 C17.9633251,13.0394207 17.9548583,13.0425927 17.9462041,13.0420831 C17.9375499,13.0415734 17.9295129,13.0374296 17.9240729,13.0306723 L17.8458788,12.9336578 C17.829839,12.9135859 17.8164725,12.91537 17.8057793,12.9390103 C17.7986505,12.9553653 17.7969673,12.9652774 17.8007298,12.9687466 L17.8104576,12.9691183 C17.8180269,12.9664216 17.8264047,12.9686281 17.831777,12.9747331 C17.8371492,12.980838 17.8384887,12.9896744 17.8351856,12.997219 C17.820928,13.0302263 17.7986505,13.0440536 17.7683531,13.0387011 L17.7483034,13.0300033 L17.726917,13.0106004 C17.674342,12.9512765 17.6072868,12.9265211 17.5257511,12.9363341 C17.5043647,12.9390103 17.4858743,12.9329888 17.4702801,12.9182693 C17.4038931,12.8553772 17.3270357,12.8373124 17.2397079,12.864075 C17.2233711,12.8691302 17.2106976,12.8670486 17.2016876,12.8578304 L17.1909202,12.8386505 C17.1779992,12.8002908 17.1485929,12.7775425 17.1027012,12.7704058 L17.3938767,12.5385737 C17.6552152,12.3232926 17.9106109,12.0540278 17.7650115,11.7400449 C17.5983757,11.3823179 17.3412933,11.2444904 16.9937642,11.3265624 C16.8739112,11.3546632 16.742474,11.4295985 16.5994524,11.5513684 C16.2024672,11.8894695 15.8048137,12.2240023 15.4064919,12.5549667 C15.3954645,12.5235207 15.374287,12.5130247 15.3429592,12.5234788 L15.3082481,12.5409164 C15.2752774,12.5623265 15.2489899,12.5743696 15.2293857,12.5770459 C15.1775905,12.5837365 15.138953,12.5726133 15.1134731,12.5436763 L15.0923791,12.5088012 C15.0843592,12.4896213 15.0705471,12.47624 15.0509429,12.4686573 L14.8377472,12.3870313 C14.8217074,12.3807867 14.8063606,12.3798946 14.791707,12.384355 L14.7702463,12.3950601 C14.7083149,12.4387724 14.6474973,12.4372112 14.5877935,12.3903766 C14.5726448,12.3783334 14.556605,12.3769953 14.5396741,12.3863622 L14.4842031,12.4158011 C14.4759015,12.4205038 14.4657983,12.4206715 14.4572302,12.4162487 L14.4466099,12.4069516 L14.4414303,12.3937219 C14.4360837,12.3519053 14.4219654,12.3275263 14.3990752,12.3205847 L14.3732612,12.3194557 C14.353657,12.323024 14.3349439,12.3203478 14.3171218,12.3114269 L14.0370936,12.1769447 C14.0261985,12.1716714 14.0136525,12.1709661 14.0022362,12.1749851 C13.9908199,12.179004 13.9814762,12.1874154 13.976276,12.1983548 L13.9575629,12.2378297 C13.9450875,12.2645923 13.9299388,12.2661534 13.9121168,12.2425131 L13.8766955,12.1956785 C13.8727666,12.1903599 13.8720557,12.1833168 13.8748424,12.1773188 L13.9032615,12.1665742 L13.9147901,12.1682469 C13.9597906,12.1776138 13.9646917,12.1646785 13.9294932,12.1294411 C13.8870546,12.0876245 13.8424857,12.065378 13.7957864,12.0627018 L13.7483771,12.0665489 C13.7234263,12.0719014 13.7067182,12.0627575 13.6982527,12.0391172 L13.6895645,12.0143618 C13.6793168,11.9867071 13.6597126,11.9744409 13.6307519,11.9775632 L13.4716905,11.9942898 C13.454314,11.996074 13.4413931,11.9893833 13.4329276,11.9742178 L13.4229027,11.9561531 C13.4162195,11.9432178 13.4055263,11.9380883 13.3908231,11.9407646 C13.3548821,11.9479013 13.3303273,11.9627694 13.3171588,11.9853689 L13.3059458,12.0250668 C13.3048385,12.0525874 13.2816489,12.0742982 13.2541505,12.0735592 C13.2266521,12.0728201 13.205258,12.0499112 13.2063654,12.0223906 L13.2063654,11.9621747 C13.2063654,11.9474552 13.1992366,11.9392034 13.184979,11.9374192 L12.9925013,11.9126638 C12.9769071,11.9108796 12.9655455,11.9169012 12.9584167,11.9307286 L12.9497285,11.9461171 C12.9327976,11.9777862 12.9074013,11.9878222 12.8735394,11.976225 L12.6356157,11.8952681 C12.6120015,11.8872393 12.5950706,11.8945991 12.584823,11.9173473 L12.5460601,12.0043258 C12.5360352,12.026405 12.5293937,12.0311721 12.5261357,12.0186271 L12.5240054,12.0003114 C12.5217776,11.9606135 12.5126438,11.9412106 12.496604,11.9421027 L12.496604,10.5136478 C12.4970496,10.2767986 12.4783365,10.1148847 12.4404647,10.0279062 C12.2747201,9.64787699 11.7814961,9.566251 11.4553534,9.79440235 C11.2789155,9.91795645 11.0935667,10.0720645 10.8993068,10.2567266 C10.878366,10.2767986 10.8823759,10.2872806 10.9113367,10.2881727 C11.1332206,10.2948634 11.2441626,10.4215398 11.2441626,10.6682019 L11.244831,11.8096277 C11.2314645,11.8146829 11.2203752,11.8099251 11.2115632,11.7953543 L11.2000532,11.7661385 C11.1951521,11.7478507 11.1851272,11.7442823 11.1699785,11.7554334 L11.1151759,11.7962464 C11.1021384,11.8062827 11.0845075,11.8079467 11.0698261,11.8005265 C11.0551447,11.7931063 11.0460133,11.7779163 11.0463384,11.761455 L11.0523533,11.7326852 C11.0461156,11.8000378 11.0095805,11.8321529 10.942748,11.8290306 Z M7.40463442,0 C7.21750337,0.159237597 7.03349117,0.310669429 6.85259782,0.454295496 L4.54553927,2.28820412 C3.7671632,2.9077588 3.05160969,4.00274808 2.39887876,4.75433169 L1.9250362,5.29292945 C1.81810417,5.41276652 1.7161227,5.53527985 1.61909178,5.66046945 L1.47725833,5.85026103 C1.2139382,6.21757801 0.89180546,6.56214676 0.727397463,6.9883415 C0.7210552,7.00561168 0.728691081,7.02489485 0.745130635,7.03312374 C0.76157019,7.04135262 0.781561184,7.03589819 0.791556682,7.02045665 C1.07136216,6.56236978 1.39037605,6.13216065 1.74859835,5.72982924 C1.86956521,5.59400894 2.05936956,5.4548433 2.1983812,5.29560571 C2.21085661,5.28088627 2.22622809,5.27731792 2.24449564,5.28490066 C2.29885276,5.30809493 2.34273944,5.3138935 2.3761557,5.30229636 C2.51917729,5.25144738 2.66286721,5.25724595 2.80722545,5.31969207 C3.03846597,5.4200519 3.28374131,5.46510231 3.54305148,5.4548433 C3.56027942,5.45424858 3.57493307,5.45870902 3.58701243,5.46822462 L3.60320075,5.48628938 C3.64597356,5.55230385 3.69644548,5.57364258 3.7546165,5.55030557 L3.79968836,5.52442612 C3.81572816,5.51282898 3.83355017,5.50725344 3.85315437,5.50769948 C4.02424562,5.50948366 4.18776251,5.54472111 4.34370506,5.61341184 C4.36108151,5.62099458 4.36954697,5.63415287 4.36910142,5.6528867 L4.36776477,5.89910282 C4.36776477,5.92185105 4.37734409,5.92698055 4.39650275,5.91449133 L5.11394984,5.42891702 C5.29974424,5.30146003 5.43218402,5.20840417 5.51126916,5.14974942 C5.81513435,4.92449736 6.10919743,4.79224541 6.39345841,4.75299356 C5.80622335,5.68210256 5.85991214,6.54363595 6.55452478,7.33759371 C6.62536725,7.41832762 6.65120916,7.49214785 6.6320505,7.5590544 L6.57406298,7.74599627 C6.48969999,8.00179406 6.34684892,8.38953819 6.14550977,8.90922865 C5.94323001,8.97479707 5.76345053,9.07404179 5.60617134,9.20696281 C5.59458704,9.21632973 5.57542838,9.22056714 5.54869537,9.21967505 C5.52820007,9.21922901 5.50970974,9.2252506 5.49322438,9.23773982 C5.07975387,9.55041645 4.68566478,9.88606432 4.31095712,10.2446834 C4.24947121,10.3040073 4.16036118,10.3363454 4.04362705,10.341698 C4.01199299,10.3434821 4.00597806,10.331885 4.02558227,10.3069065 C4.08795929,10.2284029 4.16058396,10.1597121 4.24345628,10.1008344 C4.73534362,9.75292028 5.46916468,9.07850223 5.57208676,8.47299792 C5.62243392,8.177717 5.55181422,7.90830661 5.36022767,7.66476676 C5.12898716,7.37104699 4.7453685,7.24793893 4.38179959,7.16765107 C4.33230867,7.15653089 4.28079466,7.17441232 4.24880288,7.21381659 C4.0422904,7.46672336 3.86518422,7.85076698 4.14120253,8.14247955 C4.16036118,8.16255151 4.15835621,8.18017024 4.1351876,8.19533572 C3.9583042,8.30773873 3.783203,8.42281801 3.609884,8.54057354 C3.54171483,8.58696208 3.43433725,8.58963834 3.28775126,8.54860233 C3.26859261,8.54369584 3.25277558,8.53343684 3.24030017,8.51782531 C3.21267606,8.4830339 3.17841821,8.45676689 3.13752661,8.43902426 L3.0712139,8.41880361 C2.82527023,8.37018485 2.70719945,8.22588972 2.71700155,7.98591821 C2.71789265,7.96138581 2.71232327,7.93863758 2.70029342,7.91767353 L2.56128178,7.67413367 C2.54925193,7.65272358 2.53298935,7.64893221 2.51249404,7.66275956 C2.35089301,7.77195106 2.21551706,7.91871727 2.08774398,8.07155325 L1.83681728,8.37598342 C1.13106588,9.20027215 0.672112365,10.1262588 0.322801066,11.1539435 C0.246611995,11.3778574 0.169086273,11.7313471 0.0902239005,12.2144124 C0.0862139493,12.2402829 0.0721791204,12.2480887 0.0481194136,12.2378297 C0.0320796091,12.230693 0.0160398045,12.2177577 9.09494702e-13,12.1990239 L9.09494702e-13,5.06544717 C0.0801990226,5.04617808 0.16239411,4.97837944 0.246585262,4.86205124 L0.310102888,4.76570581 C0.425574628,4.57502213 0.639240421,4.22760366 1.08825594,3.72345039 L1.37767787,3.40215025 C1.54421507,3.21903739 1.82632908,2.67355606 2.1882265,2.20586108 C2.51569656,1.78265799 2.90524936,1.45229202 3.39267832,0.98085007 C3.64998351,0.731957692 4.08105326,0.385381746 4.37645299,0.00669065532 L7.40463442,0 Z" id="形状" fill="#4B9CEB"></path>
            <path d="M15.014185,3.2556249 C14.360563,3.70300672 13.7679813,4.07299996 13.23644,4.36560462 C12.9717832,4.51101486 12.7354189,4.6461661 12.527347,4.77105833 C12.2301651,4.94858372 11.9940235,5.08284287 11.8189223,5.17383578 C11.6540687,5.25947617 11.4887697,5.34467051 11.323025,5.42941881 C11.1951521,5.49498724 11.0323035,5.58553411 10.8344793,5.70105942 C10.565367,5.85851284 10.2884576,6.003031 10.0037511,6.13461389 C9.98503798,6.14353476 9.9705576,6.15713909 9.96030994,6.17542688 L9.93491359,6.22025427 C9.91798268,6.25058524 9.90127455,6.25058524 9.8847892,6.22025427 C9.87097714,6.19438374 9.86340279,6.15870024 9.86206614,6.11320379 C9.90394785,5.34377843 9.59807769,4.74005829 8.94445566,4.30204339 L8.92373758,4.24985628 C8.91616322,4.23023036 8.9208415,4.21394976 8.93777241,4.2010145 C9.02554578,4.13410794 9.13804719,4.02661142 9.27527663,3.87852491 C9.40894166,3.7344528 9.44191237,3.57699938 9.37418875,3.40616465 C9.3659981,3.38543768 9.37290942,3.36191316 9.39089688,3.34929408 C10.8224494,2.33632886 12.5313569,1.9201701 14.2429378,1.67729931 C14.5263076,1.63715538 14.7994299,1.61016974 15.0623044,1.59634238 C15.4534974,1.57627042 15.7288474,1.58184596 15.8883544,1.61306902 C16.0180095,1.63804747 16.1351891,1.69001156 16.2398934,1.76896129 C16.2972376,1.81211362 16.317901,1.88879071 16.2900178,1.95496151 C16.0768221,2.46278225 15.4512697,2.9411641 15.014185,3.2556249 Z" id="路径" fill="#3A95E1"></path>
            <path d="M20.009057,4.19766917 L20.0170769,5.51974266 C20.0197502,5.62500897 19.9939083,5.71399469 19.9395511,5.78669981 C19.8976694,5.84290131 19.8221487,5.87992294 19.7129889,5.89776469 C19.4621442,5.93880071 19.2175372,6.00080078 18.9791678,6.08376491 C18.5928759,6.2184701 18.3970566,6.28649176 18.39171,6.28782989 C16.9285234,6.74011819 15.3824322,7.21738494 13.9588995,7.71963013 C13.920277,7.73298644 13.8773721,7.72295912 13.8487648,7.69389051 C13.8201575,7.66482189 13.8109908,7.62193804 13.8252345,7.58380983 C13.8377099,7.54991051 13.8198879,7.52671624 13.7717685,7.51422701 C13.7597386,7.51110471 13.7330056,7.50954355 13.6915695,7.50954355 C13.5819641,7.50954355 13.5182505,7.45044277 13.5004285,7.33224119 C13.4968641,7.30770879 13.5062206,7.29009006 13.5284981,7.27938501 C13.6060238,7.24191734 13.6681781,7.25953607 13.7149609,7.33224119 C13.7269907,7.35097502 13.7430305,7.35543546 13.7630803,7.3456225 C13.7951599,7.32956493 13.8218929,7.33714767 13.8432793,7.36837073 C13.8508536,7.37907578 13.8599874,7.38085995 13.8706806,7.37372325 C13.913899,7.34606854 13.913899,7.31819081 13.8706806,7.29009006 C13.8608785,7.28384545 13.8517447,7.28473754 13.8432793,7.29276632 C13.8290217,7.30570159 13.8125363,7.30726274 13.7938232,7.29744978 C13.6588215,7.22652883 13.5305031,7.21983818 13.4088679,7.27737781 C13.3727784,7.29477352 13.3554019,7.2874138 13.3567386,7.25529865 C13.3571841,7.24771591 13.3525058,7.24080223 13.3427037,7.23455762 C13.3177529,7.218054 13.3052775,7.22474466 13.3052775,7.25462959 L13.3052775,7.3222052 C13.3052775,7.34852178 13.2923566,7.35922683 13.2665147,7.35432035 C13.2281973,7.34718365 13.2121575,7.33201817 13.2183952,7.30882389 C13.2273062,7.27715479 13.2152764,7.25975909 13.1823057,7.25663678 L12.9530701,7.23455762 C12.9250005,7.23188136 12.9011635,7.24102525 12.8815593,7.26198931 C12.8624007,7.2833994 12.8423509,7.27492457 12.8214101,7.23656482 C12.8134596,7.22198038 12.798294,7.2127979 12.7816997,7.21252103 C12.7651055,7.21224415 12.7496426,7.22091558 12.7412111,7.23522669 L12.6476455,7.39312615 C12.6417812,7.40273801 12.6308905,7.40817144 12.619801,7.407018 C12.6087114,7.40586456 12.5994744,7.39833763 12.5961845,7.38777363 L12.556085,7.26332744 C12.5480651,7.23968712 12.5333619,7.2343346 12.5119755,7.24726987 L12.4177417,7.30547857 C12.3972464,7.31841383 12.3792016,7.31529153 12.3636073,7.29611165 C12.316379,7.23812597 12.2533337,7.21738494 12.1744713,7.23388855 C12.1383817,7.24191734 12.1332579,7.25909002 12.1590998,7.2854066 L12.1838278,7.30949296 C12.2087787,7.33491745 12.2034321,7.3476297 12.167788,7.3476297 L12.1417234,7.3476297 C12.1230103,7.3476297 12.1123171,7.3384858 12.1096438,7.32019801 L12.1022922,7.27336342 C12.0992335,7.25232481 12.0820284,7.23621186 12.060856,7.23455762 L11.7761495,7.21047126 C11.7311489,7.20645687 11.7293667,7.1955288 11.7708029,7.17768705 C11.7961992,7.166982 11.8222639,7.16229854 11.8489969,7.16363667 C11.8708289,7.16408272 11.8868687,7.1547158 11.8971163,7.13553592 C11.9185027,7.09583803 11.9024629,7.06327684 11.8489969,7.03785235 C11.8213404,7.02465093 11.7895514,7.0236792 11.7614463,7.03517609 C11.5569388,7.11769417 11.3642384,7.22273746 11.183345,7.35030596 C11.1098293,7.40204703 11.0191598,7.44687442 10.9113367,7.48478813 C10.7727706,7.53385293 10.6531404,7.60365877 10.5524461,7.69420564 C10.529078,7.71566479 10.4934774,7.71657295 10.469048,7.6963331 C10.4446186,7.67609325 10.4388519,7.64091215 10.4555389,7.61391778 C10.4671232,7.59518394 10.4862819,7.57778824 10.5130149,7.56173067 C11.6536232,6.89266513 12.8107169,6.24634783 13.9842959,5.62277875 C13.99948,5.61453461 14.0079626,5.59772552 14.0055823,5.58059792 C14.003202,5.56347032 13.9904581,5.54961775 13.9736027,5.54583622 L13.9441964,5.53981463 C13.9334595,5.53744957 13.9222236,5.53952594 13.9130377,5.54557265 C13.9038518,5.55161936 13.8974947,5.56112383 13.8954087,5.57192977 L13.8873888,5.60805931 C13.8864079,5.61326399 13.8822518,5.61718187 13.876926,5.61792239 C13.8716002,5.61866291 13.8661991,5.61607388 13.863329,5.61140464 L13.8299128,5.54985061 C13.8250932,5.5410358 13.8161152,5.53529101 13.8061003,5.53461357 C13.7960853,5.53393613 13.786417,5.53841964 13.7804567,5.54650528 L13.7624119,5.57059164 C13.7575109,5.5772823 13.7510504,5.57973554 13.7430305,5.57795136 C13.6463461,5.55832544 13.5427557,5.56724631 13.4322593,5.60471398 C13.1426517,5.70239755 12.8044792,5.7907142 12.4177417,5.86966393 C12.3954642,5.87412437 12.378756,5.88639057 12.3676173,5.90646254 C12.3212801,5.9907648 12.2306106,6.04674328 12.0956089,6.07439799 C12.0662026,6.0806426 12.0662026,6.08666419 12.0956089,6.09246276 L12.1149904,6.09647715 C12.1439511,6.10272176 12.1448422,6.11208868 12.1176637,6.1245779 L11.8336254,6.25370755 C11.8064551,6.26582965 11.7745563,6.25463068 11.7608998,6.22817515 C11.7472433,6.20171961 11.7565703,6.16919241 11.7821644,6.15401679 C12.9352481,5.48004477 14.1048172,4.8422023 15.2908716,4.24048936 C16.0442969,3.85867597 16.7908161,3.46370428 17.5304294,3.05557431 C18.3297463,2.61488314 19.12063,1.86290146 19.6976174,1.61846952 C19.7996484,1.57564933 19.8776197,1.58791553 19.9315312,1.65526813 C19.9645019,1.69630415 19.9780912,1.76053444 19.9722991,1.847959 C19.9286352,2.4982907 19.9408878,3.55447417 20.009057,4.19766917 Z" id="路径" fill="#57A8EF"></path>
            <path d="M6.14550977,8.90922865 L5.278692,11.2931091 C5.20072073,11.2043464 5.13010103,11.1876198 5.06683291,11.2429292 C4.69791741,11.5645267 4.30828382,11.9673042 3.89793216,12.4512616 C3.88408095,12.4673464 3.88297771,12.4908162 3.89525886,12.5081321 C3.92778402,12.5554128 3.97634898,12.5877509 4.04095375,12.6051466 C2.44165157,13.4347879 2.56462341,15.569776 4.23744135,16.2361653 C4.13942033,16.212971 4.12248942,16.2903596 4.18664864,16.468331 C4.19377744,16.487957 4.2075895,16.4977699 4.2280848,16.4977699 L4.28957072,16.4977699 C4.30888093,16.4977964 4.3273906,16.5054972 4.34103176,16.51918 C4.46266694,16.641842 4.56915342,16.7062953 4.6604912,16.7125399 C5.09891252,16.7410867 5.53287834,16.8042019 5.96238867,16.9018855 L5.99864531,16.9167722 L6.02721621,16.9440366 C6.06018692,16.9877489 6.10251418,17.019195 6.15419799,17.0383749 L6.18327014,17.0474072 L6.39746836,17.0798569 C6.41051379,17.0815769 6.42036917,17.0925447 6.4207609,17.1057131 C6.42103518,17.1188815 6.41174679,17.1303345 6.39880501,17.1327131 C6.14974249,17.1862383 5.89266007,17.2040801 5.62755775,17.1862383 C5.70330127,17.1755333 5.74897016,17.1474325 5.76456441,17.1019361 C5.77089211,17.0828356 5.76873407,17.0619356 5.75863741,17.0445347 C5.74854075,17.0271339 5.73147499,17.0149031 5.71176672,17.0109432 C5.33661351,16.9400222 4.96903466,16.8733387 4.60903016,16.8108926 C4.17149994,16.7355112 3.80347553,16.651432 3.50495695,16.5586549 C2.82861186,16.3490143 2.24159957,16.1117191 1.74392008,15.8467691 C1.14242741,15.5260637 0.606839271,15.0320704 0,14.364789 L0,12.1990239 C0.0160398045,12.2177577 0.0320796091,12.230693 0.0481194136,12.2378297 C0.0721791204,12.2480887 0.0862139493,12.2402829 0.0902239005,12.2144124 C0.169086273,11.7313471 0.246611995,11.3778574 0.322801066,11.1539435 C0.633299998,10.240446 1.01603694,9.40730251 1.60816755,8.65451292 L2.08774398,8.07155325 C2.21551706,7.91871727 2.35089301,7.77195106 2.51249404,7.66275956 C2.53298935,7.64893221 2.54925193,7.65272358 2.56128178,7.67413367 L2.70029342,7.91767353 C2.71232327,7.93863758 2.71789265,7.96138581 2.71700155,7.98591821 C2.70842471,8.19589328 2.79775055,8.33261612 2.98497907,8.39608675 L3.0712139,8.41880361 C3.14250192,8.43263097 3.19886401,8.4656382 3.24030017,8.51782531 C3.25277558,8.53343684 3.26859261,8.54369584 3.28775126,8.54860233 C3.43433725,8.58963834 3.54171483,8.58696208 3.609884,8.54057354 C3.783203,8.42281801 3.9583042,8.30773873 4.1351876,8.19533572 C4.15835621,8.18017024 4.16036118,8.16255151 4.14120253,8.14247955 C3.86518422,7.85076698 4.0422904,7.46672336 4.24880288,7.21381659 C4.28079466,7.17441232 4.33230867,7.15653089 4.38179959,7.16765107 C4.7453685,7.24793893 5.12898716,7.37104699 5.36022767,7.66476676 C5.55181422,7.90830661 5.62243392,8.177717 5.57208676,8.47299792 C5.46916468,9.07850223 4.73534362,9.75292028 4.24345628,10.1008344 C4.16058396,10.1597121 4.08795929,10.2284029 4.02558227,10.3069065 C4.00597806,10.331885 4.01199299,10.3434821 4.04362705,10.341698 C4.16036118,10.3363454 4.24947121,10.3040073 4.31095712,10.2446834 C4.68566478,9.88606432 5.07975387,9.55041645 5.49322438,9.23773982 C5.50970974,9.2252506 5.52820007,9.21922901 5.54869537,9.21967505 C5.57542838,9.22056714 5.59458704,9.21632973 5.60617134,9.20696281 C5.76345053,9.07404179 5.94323001,8.97479707 6.14550977,8.90922865 Z M14.1573921,15.9973089 L19.431624,16.0515032 C19.5398927,16.0528413 19.6417009,16.0613162 19.7370486,16.0769277 C19.7484909,16.0776667 19.7571682,16.0875519 19.7564739,16.0990069 C19.7556918,16.1104618 19.7458176,16.1191488 19.7343753,16.1184098 C17.7454395,16.2245682 15.6546633,16.2183235 13.6675098,16.0996759 C13.6472695,16.0985081 13.6305274,16.0834797 13.6271685,16.0634639 C13.6238096,16.0434481 13.634727,16.0237678 13.6534749,16.0160427 C13.8259028,15.9457908 14.0217221,15.9959708 14.1573921,15.9973089 Z" id="形状" fill="#2C7ADB"></path>
            <path d="M12.6356157,11.8952681 L12.8735394,11.976225 C12.9074013,11.9878222 12.9327976,11.9777862 12.9497285,11.9461171 L12.9584167,11.9307286 C12.9655455,11.9169012 12.9769071,11.9108796 12.9925013,11.9126638 L13.184979,11.9374192 C13.1992366,11.9392034 13.2063654,11.9474552 13.2063654,11.9621747 L13.2063654,12.0223906 C13.205258,12.0499112 13.2266521,12.0728201 13.2541505,12.0735592 C13.2724828,12.0740518 13.2889,12.0645668 13.298136,12.0500345 L13.3059458,12.0250668 C13.3086191,11.9795704 13.3369116,11.9514696 13.3908231,11.9407646 C13.4055263,11.9380883 13.4162195,11.9432178 13.4229027,11.9561531 L13.4329276,11.9742178 C13.4413931,11.9893833 13.454314,11.996074 13.4716905,11.9942898 L13.6307519,11.9775632 C13.6597126,11.9744409 13.6793168,11.9867071 13.6895645,12.0143618 L13.6982527,12.0391172 C13.7038964,12.0548774 13.7132034,12.0641948 13.7261739,12.0670693 L13.7483771,12.0665489 C13.8125363,12.0527215 13.8729084,12.0736856 13.9294932,12.1294411 C13.9558921,12.1558691 13.959735,12.1697523 13.9410218,12.1710904 L13.9032615,12.1665742 L13.8900621,12.1669087 C13.8834676,12.1673273 13.8776291,12.1713208 13.8748424,12.1773188 C13.8720557,12.1833168 13.8727666,12.1903599 13.8766955,12.1956785 L13.9121168,12.2425131 C13.9299388,12.2661534 13.9450875,12.2645923 13.9575629,12.2378297 L13.976276,12.1983548 C13.9814762,12.1874154 13.9908199,12.179004 14.0022362,12.1749851 C14.0136525,12.1709661 14.0261985,12.1716714 14.0370936,12.1769447 L14.3171218,12.3114269 L14.3445232,12.3201247 L14.3732612,12.3194557 C14.4019991,12.3147722 14.4219654,12.3275263 14.4331598,12.3577178 L14.4414303,12.3937219 C14.442744,12.403388 14.4486622,12.4118259 14.4572302,12.4162487 C14.4657983,12.4206715 14.4759015,12.4205038 14.4842031,12.4158011 L14.5396741,12.3863622 C14.556605,12.3769953 14.5726448,12.3783334 14.5877935,12.3903766 C14.6325713,12.4255026 14.6779757,12.4351622 14.7240066,12.4193555 L14.7702463,12.3950601 C14.7911872,12.3803406 14.8136875,12.3776644 14.8377472,12.3870313 L15.0509429,12.4686573 L15.0760051,12.4843803 L15.0923791,12.5088012 C15.1146566,12.5632185 15.1603255,12.5859668 15.2293857,12.5770459 C15.2424552,12.5752617 15.258495,12.5693145 15.2775051,12.5592041 L15.3082481,12.5409164 C15.3590408,12.5083552 15.3917888,12.5130386 15.4064919,12.5549667 L13.0305959,14.5447676 C13.0013488,14.5694226 12.9844716,14.605663 12.9844814,14.6437893 C12.9840359,14.977876 12.987823,15.3197685 12.995843,15.6694668 C13.0031945,15.9805823 13.295921,15.9866038 13.485057,15.8253591 C14.6871512,14.8012427 15.8930326,13.782925 17.1027012,12.7704058 C17.1332957,12.7751636 17.1565633,12.7868599 17.1725041,12.8054946 L17.1909202,12.8386505 C17.1989401,12.8631829 17.2152026,12.8716578 17.2397079,12.864075 C17.3270357,12.8373124 17.4038931,12.8553772 17.4702801,12.9182693 C17.4858743,12.9329888 17.5043647,12.9390103 17.5257511,12.9363341 C17.5869028,12.9289744 17.6399094,12.9410594 17.6847707,12.9725891 L17.726917,13.0106004 C17.7416201,13.027104 17.7554322,13.0364709 17.7683531,13.0387011 C17.7986505,13.0440536 17.820928,13.0302263 17.8351856,12.997219 C17.8384887,12.9896744 17.8371492,12.980838 17.831777,12.9747331 L17.8219412,12.9686251 L17.8104576,12.9691183 C17.7966456,12.9735787 17.7950861,12.9635427 17.8057793,12.9390103 C17.8164725,12.91537 17.829839,12.9135859 17.8458788,12.9336578 L17.9240729,13.0306723 C17.9295129,13.0374296 17.9375499,13.0415734 17.9462041,13.0420831 C17.9548583,13.0425927 17.9633251,13.0394207 17.969519,13.0333486 L17.9922421,13.0106004 C17.9999649,13.0028689 18.0058066,13.001283 18.009767,13.0058426 L18.0142968,13.017291 C18.0240989,13.0757227 18.0548419,13.119658 18.1065257,13.1490969 C18.1807098,13.1919171 18.2375174,13.160471 18.3117015,13.1377228 L18.3421103,13.1345447 L18.3705141,13.1450825 C18.4022967,13.1656005 18.4327921,13.1728364 18.4620004,13.16679 L18.5048475,13.1477588 C18.5213328,13.1361617 18.5393776,13.1319242 18.5589818,13.1350465 C18.6396264,13.1466437 18.71136,13.1763056 18.7741825,13.2240323 C18.791559,13.2374136 18.8109404,13.241874 18.8323268,13.2374136 L18.9820317,13.2039603 C18.9986655,13.2003919 19.0133192,13.2023744 19.0259926,13.2099075 L19.0435176,13.2253704 C19.0880726,13.2811259 19.2389236,13.2860323 19.2906074,13.2400898 C19.3019264,13.2304237 19.3187432,13.2310042 19.3293702,13.241428 L19.34541,13.2574855 C19.3627865,13.2744352 19.3837274,13.282464 19.4082326,13.2815719 L19.8540055,13.2648453 C19.8712335,13.2642505 19.8827187,13.2696031 19.8884614,13.2809028 L19.8927684,13.3023129 C19.8927684,13.3344281 19.9013823,13.3606951 19.9186103,13.381114 L19.9509127,13.4073562 C19.9642792,13.414939 19.9707396,13.4263131 19.9702941,13.4414786 C19.9702941,13.4669031 19.9738585,13.4921045 19.9809873,13.517083 C19.9943538,13.5625794 20.0021509,13.5616873 20.0043787,13.5144067 L20.0151537,13.2812851 L20.0182464,15.7798626 L20.0137352,17.9238068 C20.0123986,18.3917066 19.9172736,18.7786495 19.7283604,19.0846355 C19.3269197,19.0226354 18.823193,19.0099232 18.4226435,19.0464988 C17.6487229,19.1174197 16.8768073,19.1562255 16.0941985,19.1936932 C16.0005262,19.1985446 15.9070609,19.1820729 15.8208535,19.1455205 L15.0208683,18.8063043 C14.7771524,18.7028221 14.6036106,18.6579947 14.500243,18.6718221 C13.6153804,18.7904697 12.7289584,18.9017576 11.840977,19.0056858 C11.7202329,19.0199592 11.6014938,19.0112613 11.4847597,18.9795922 C11.1684191,18.8943979 10.8525241,18.8051891 10.5370746,18.711966 C10.394053,18.6695919 10.2496948,18.6499659 10.1039999,18.6530882 C9.5417156,18.6633473 8.97943134,18.6773976 8.41714708,18.6952394 C7.85976388,18.7126351 7.36520324,18.6376997 6.82920644,18.5547356 C6.39546339,18.48716 5.99981488,18.5942105 5.56607183,18.4851528 C5.28537525,18.4141575 5.0750694,18.3730533 4.93515429,18.3618403 L4.8596521,18.3586994 C4.63420374,18.3600375 4.45264206,18.3230159 4.31496708,18.2476345 C4.21286183,18.1918913 4.17396914,18.0646812 4.22741648,17.9612745 C4.28533799,17.8479794 4.50686887,17.839841 4.66013811,17.7867618 C4.91479476,17.6987425 5.36725281,17.7512579 6,17.6410356 L6.21637471,17.6410356 C6.54585903,17.5861722 7.01700581,17.6284907 7.46411536,17.5207711 C7.89117516,17.5267927 8.33627974,17.4230875 8.71522012,17.4023465 C9.0199764,17.3856942 9.3239406,17.3612114 9.62711271,17.328898 L10.0812768,17.274555 C10.4622222,17.223706 10.7925976,17.1949362 11.0724031,17.1882455 C11.6823612,17.1744182 12.2923193,17.1677275 12.9022774,17.1681736 L12.9176489,17.1594757 C12.9212133,17.152339 12.925446,17.1487707 12.9303471,17.1487707 C15.1246815,17.1389577 17.4217474,17.1353894 19.6160817,17.1380656 C19.6820232,17.1380656 19.738608,17.1309289 19.7858363,17.1166555 C19.8056949,17.1102966 19.8179139,17.0903453 19.8145677,17.0697431 C19.8112215,17.049141 19.7933178,17.0340932 19.7724698,17.0343605 C19.1914725,17.0508641 18.5130902,17.0428353 17.942786,17.0102741 C17.6071652,16.9910537 17.1845186,16.9799947 16.6748461,16.9770973 L16.1361649,16.9769204 C15.85232,16.9781921 15.5467187,16.9815043 15.2193609,16.9868568 C14.2342495,17.0029144 13.2339895,16.9696841 12.2185808,16.8871661 L12.8748761,16.3284963 C12.8822557,16.3218441 12.8844657,16.3111651 12.8803334,16.3021253 C12.8762011,16.2930855 12.8666839,16.287779 12.8568313,16.2890215 C12.5717238,16.3323769 12.5080257,16.1719618 12.4981372,15.9477599 L12.496604,15.8708555 C12.4957129,14.5617173 12.4957129,13.252133 12.496604,11.9421027 C12.5072972,11.941508 12.5149211,11.9499332 12.5194756,11.9673785 L12.5240054,12.0003114 C12.5250079,12.0243978 12.5293937,12.0311721 12.537163,12.0206343 L12.584823,11.9173473 C12.5950706,11.8945991 12.6120015,11.8872393 12.6356157,11.8952681 Z M0,14.364789 C0.606839271,15.0320704 1.14242741,15.5260637 1.74392008,15.8467691 C2.24159957,16.1117191 2.82861186,16.3490143 3.50495695,16.5586549 C3.80347553,16.651432 4.17149994,16.7355112 4.60903016,16.8108926 C4.96903466,16.8733387 5.33661351,16.9400222 5.71176672,17.0109432 C5.73147499,17.0149031 5.74854075,17.0271339 5.75863741,17.0445347 C5.76873407,17.0619356 5.77089211,17.0828356 5.76456441,17.1019361 C5.74897016,17.1474325 5.70330127,17.1755333 5.62755775,17.1862383 L4.90843984,17.2457852 C4.47269182,17.264073 4.038726,17.2993104 3.60654238,17.3514975 C2.38350728,17.499138 1.22704505,17.6561454 0,17.8225197 L0,14.364789 Z M8.60427814,10.3109209 C8.74774528,10.3474965 8.89032132,10.4043671 9.03200626,10.4815326 C9.06413365,10.4987955 9.08435534,10.5321245 9.0849093,10.5687263 C9.08546326,10.6053281 9.06626341,10.6395155 9.03467956,10.6581659 C8.99190675,10.6831444 8.95339141,10.7159534 8.91913356,10.7565929 L8.76668116,10.964598 C8.70207639,11.0515765 8.70965074,11.1439075 8.78940421,11.2415911 C8.7978762,11.2516964 8.81174818,11.2554332 8.82414166,11.2509486 C8.83653515,11.2464641 8.84481484,11.2347118 8.8448752,11.2215191 L8.8448752,11.1198212 C8.8448752,11.115387 8.84846584,11.1117924 8.85289511,11.1117924 L8.87027156,11.1117924 C8.87606371,11.1117924 8.87895979,11.1146917 8.87895979,11.1204902 L8.87895979,11.2563105 C8.87895979,11.2857494 8.89344017,11.2993537 8.92240093,11.2971235 L8.9905701,11.2924401 C9.01596645,11.2906559 9.02866463,11.2770516 9.02866463,11.2516271 L9.02866463,11.1867277 C9.02810876,11.1767827 9.03516521,11.1680317 9.04499301,11.1664782 C9.05482082,11.1649248 9.06422724,11.1710735 9.06675917,11.1807061 C9.07878902,11.2215191 9.10209686,11.2425111 9.13668269,11.2436819 L9.17502785,11.2382458 C9.19819645,11.2315551 9.20354306,11.2384688 9.19106765,11.2589868 L9.10819533,11.393469 C9.09972988,11.4072963 9.10284873,11.4177783 9.11755188,11.424915 C9.21601846,11.4721957 9.32361881,11.4909295 9.44035295,11.4811166 L8.751978,12.0518295 C8.55771815,12.2132973 8.43920181,12.3413118 8.396429,12.4358731 C8.20595632,12.8573844 8.7386115,13.3310827 9.14695819,13.2461114 C9.27171222,13.2202409 9.44102127,13.118989 9.65488533,12.9423557 C10.0313752,12.6314632 10.4020729,12.3199017 10.7669784,12.0076711 L10.7843549,11.8437501 C10.7861371,11.8254623 10.7950481,11.812081 10.8110879,11.8036061 C10.8312862,11.7923064 10.8512864,11.7900266 10.8710887,11.7967668 L10.9006435,11.8136421 C10.9127854,11.8232213 10.9275525,11.8286185 10.942748,11.8290306 C10.9928724,11.8313724 11.0259545,11.813893 11.0419943,11.7765926 L11.0463384,11.761455 C11.0460133,11.7779163 11.0551447,11.7931063 11.0698261,11.8005265 C11.0845075,11.8079467 11.1021384,11.8062827 11.1151759,11.7962464 L11.1699785,11.7554334 C11.1800777,11.7479994 11.1878996,11.7471073 11.1934442,11.7527572 L11.2000532,11.7661385 C11.2098553,11.8027141 11.2247812,11.8172105 11.244831,11.8096277 C11.2403755,13.3489245 11.2426032,14.8888903 11.2515142,16.4295252 C11.2519598,16.5379138 11.3187923,16.6652593 11.4520118,16.8115616 C11.392308,16.8713315 11.3225795,16.9009934 11.242826,16.9005665 C10.398954,16.8925186 9.56042871,16.8539358 8.72724997,16.784799 C8.0221669,16.620878 7.29903904,16.4516044 6.62870888,16.1813019 C6.42553802,16.0996759 6.22125329,16.0213953 6.01585468,15.9464599 C6.82920644,15.3228908 7.056437,14.1861485 6.47766739,13.3210468 C6.32662589,13.0955717 5.94434389,12.8821398 6.04592931,12.5844056 C6.23127817,12.0406784 6.42598357,11.4949439 6.63004553,10.9472023 L6.75368569,11.0509074 C6.77418099,11.0678571 6.79512185,11.0685261 6.81650826,11.0529146 C7.26473168,10.729979 7.75082687,10.4875542 8.27479382,10.3256404 C8.39063685,10.2895108 8.50046496,10.2846044 8.60427814,10.3109209 Z M13.6534749,16.0160427 C13.634727,16.0237678 13.6238096,16.0434481 13.6271685,16.0634639 C13.6305274,16.0834797 13.6472695,16.0985081 13.6675098,16.0996759 C15.6546633,16.2183235 17.7454395,16.2245682 19.7343753,16.1184098 C19.7458176,16.1191488 19.7556918,16.1104618 19.7564739,16.0990069 C19.7571682,16.0875519 19.7484909,16.0776667 19.7370486,16.0769277 C19.6417009,16.0613162 19.5398927,16.0528413 19.431624,16.0515032 L14.1573921,15.9973089 C14.0217221,15.9959708 13.8259028,15.9457908 13.6534749,16.0160427 Z" id="形状" fill="#3B85E1"></path>
            <path d="M5.278692,11.2931091 C5.1151751,11.771268 4.99710432,12.097995 4.92447965,12.2732901 C4.88304349,12.3723118 4.77677978,12.4372112 4.66249617,12.4532688 C4.44952321,12.4844918 4.24234241,12.5351178 4.04095375,12.6051466 C3.97634898,12.5877509 3.92778402,12.5554128 3.89525886,12.5081321 C3.88297771,12.4908162 3.88408095,12.4673464 3.89793216,12.4512616 C4.30828382,11.9673042 4.69791741,11.5645267 5.06683291,11.2429292 C5.13010103,11.1876198 5.20072073,11.2043464 5.278692,11.2931091 Z" id="路径" fill="#3B85E1"></path>
            <path d="M6.01585468,15.9464599 C6.22125329,16.0213953 6.42553802,16.0996759 6.62870888,16.1813019 C7.29903904,16.4516044 8.0221669,16.620878 8.72724997,16.784799 C8.66309075,16.7807846 8.51561366,16.7816767 8.2848187,16.7874753 C7.85085287,16.7981803 7.40975825,16.723022 6.96153482,16.5620002 C6.64207538,16.4469209 6.31325939,16.3592733 6.00649813,16.2134171 C5.9129326,16.1688127 5.81624822,16.1407119 5.716445,16.1291148 L6.01585468,15.9464599 Z" id="路径" fill="#2C7ADB"></path>
            <path d="M5.716445,16.1291148 C5.81624822,16.1407119 5.9129326,16.1688127 6.00649813,16.2134171 C6.31325939,16.3592733 6.64207538,16.4469209 6.96153482,16.5620002 C7.40975825,16.723022 7.85085287,16.7981803 8.2848187,16.7874753 C8.51561366,16.7816767 8.66309075,16.7807846 8.72724997,16.784799 C9.56042871,16.8539358 10.398954,16.8925186 11.242826,16.9005474 C11.3225795,16.9009934 11.392308,16.8713315 11.4520118,16.8115616 C11.6779057,16.9409143 11.9334287,16.9661158 12.2185808,16.8871661 C13.2339895,16.9696841 14.2342495,17.0029144 15.2193609,16.9868568 C16.4196729,16.9672309 17.3274813,16.9750367 17.942786,17.0102741 C18.5130902,17.0428353 19.1914725,17.0508641 19.7724698,17.0343605 C19.7933178,17.0340932 19.8112215,17.049141 19.8145677,17.0697431 C19.8179139,17.0903453 19.8056949,17.1102966 19.7858363,17.1166555 C19.738608,17.1309289 19.6820232,17.1380656 19.6160817,17.1380656 C17.4217474,17.1353894 15.1246815,17.1389577 12.9303471,17.1487707 C12.925446,17.1487707 12.9212133,17.152339 12.9176489,17.1594757 C12.9140845,17.1652743 12.9089607,17.1681736 12.9022774,17.1681736 C12.2923193,17.1677275 11.6823612,17.1744182 11.0724031,17.1882455 C10.7925976,17.1949362 10.4622222,17.223706 10.0812768,17.274555 C9.62770678,17.3347709 9.17235455,17.3773681 8.71522012,17.4023465 C8.33627974,17.4230875 7.89117516,17.5267927 7.46411536,17.5207711 L7.19411199,17.5120733 C7.17495333,17.5116272 7.15958185,17.5038215 7.14799755,17.488656 C7.11413574,17.4440516 7.10500196,17.407253 7.12059622,17.3782602 C7.13307162,17.3550659 7.12661114,17.3401234 7.10121479,17.3334328 C7.02235241,17.3129148 6.95485157,17.3066701 6.89871226,17.3146989 C6.06375132,17.4311163 5.23547364,17.4630085 4.4138792,17.4103753 C4.39274942,17.4092722 4.37604488,17.3924618 4.37502063,17.3712706 C4.37399638,17.3500793 4.38897713,17.331225 4.40986925,17.3274112 L4.90843984,17.2457852 L5.62755775,17.1862383 C5.89266007,17.2040801 6.14974249,17.1862383 6.39880501,17.1327131 C6.41174679,17.1303345 6.42103518,17.1188815 6.42070218,17.1057131 C6.42036917,17.0925447 6.41051379,17.0815769 6.39746836,17.0798569 L6.21301061,17.0530943 C6.19296086,17.050418 6.17335665,17.0455116 6.15419799,17.0383749 C6.10251418,17.019195 6.06018692,16.9877489 6.02721621,16.9440366 C6.01073085,16.9217344 5.98912167,16.9076841 5.96238867,16.9018855 C5.53287834,16.8042019 5.09891252,16.7410867 4.6604912,16.7125399 C4.56915342,16.7062953 4.46266694,16.641842 4.34103176,16.51918 C4.3273906,16.5054972 4.30888093,16.4977964 4.28957072,16.4977699 L4.2280848,16.4977699 C4.2075895,16.4977699 4.19377744,16.487957 4.18664864,16.468331 C4.12248942,16.2903596 4.13942033,16.212971 4.23744135,16.2361653 C4.7489329,16.3949568 5.24193411,16.3592733 5.716445,16.1291148 Z" id="路径" fill="#156DD8"></path>
            <path d="M4.90843984,17.2457852 L4.40986925,17.3274112 C4.38897713,17.331225 4.37399638,17.3500793 4.37502063,17.3712706 C4.37604488,17.3924618 4.39274942,17.4092722 4.4138792,17.4103753 C5.23547364,17.4630085 6.06375132,17.4311163 6.89871226,17.3146989 C6.95485157,17.3066701 7.02235241,17.3129148 7.10121479,17.3334328 C7.12661114,17.3401234 7.13307162,17.3550659 7.12059622,17.3782602 C7.10500196,17.407253 7.11413574,17.4440516 7.14799755,17.488656 C7.15958185,17.5038215 7.17495333,17.5116272 7.19411199,17.5120733 L7.46411536,17.5207711 C7.01700581,17.6284907 6.54585903,17.5861722 6.21637471,17.6410356 C5.45136514,17.768158 4.94662684,17.6877401 4.66013811,17.7867618 C4.50686887,17.839841 4.28533799,17.8479794 4.22741648,17.9612745 C4.17396914,18.0646812 4.21286183,18.1918913 4.31496708,18.2476345 C4.45264206,18.3230159 4.63420374,18.3600375 4.8596521,18.3586994 C4.99376269,18.3578073 5.22923593,18.3999585 5.56607183,18.4851528 C5.99981488,18.5942105 6.39546339,18.48716 6.82920644,18.5547356 C7.36520324,18.6376997 7.85976388,18.7126351 8.41714708,18.6952394 C8.97943134,18.6773976 9.5417156,18.6633473 10.1039999,18.6530882 C10.2496948,18.6499659 10.394053,18.6695919 10.5370746,18.711966 C10.8525241,18.8051891 11.1684191,18.8943979 11.4847597,18.9795922 C11.6014938,19.0112613 11.7202329,19.0199592 11.840977,19.0056858 C12.7289584,18.9017576 13.6153804,18.7904697 14.500243,18.6718221 C14.6036106,18.6579947 14.7771524,18.7028221 15.0208683,18.8063043 C15.3100303,18.9289663 15.5766921,19.0420383 15.8208535,19.1455205 C15.9070609,19.1820729 16.0005262,19.1985446 16.0941985,19.1936932 C16.8768073,19.1562255 17.6487229,19.1174197 18.4226435,19.0464988 C18.823193,19.0099232 19.3269197,19.0226354 19.7283604,19.0846355 C19.4244952,19.5931253 18.9940938,19.9087012 18.4371561,20.0313632 L1.51843483,20.0313632 C0.723127854,19.8217227 0.216982911,19.3179164 4.54747351e-13,18.5199442 L4.54747351e-13,17.8225197 C1.22704505,17.6561454 2.38350728,17.499138 3.60654238,17.3514975 C4.038726,17.2993104 4.47269182,17.264073 4.90843984,17.2457852 Z" id="路径" fill="#2C7ADB"></path>
            <path d="M8.94445566,4.30204339 C9.54779907,4.70636484 9.8548332,5.25187891 9.86555804,5.9385856 L9.86206614,6.11320379 C9.86429389,6.20954923 9.84936796,6.31124719 9.81728835,6.41829767 C9.53525512,7.3630182 8.9092572,7.86704757 7.93929457,7.93038577 C7.80429289,7.93975269 7.70270746,7.99863046 7.65726134,8.11906225 L7.00708787,9.8987736 C6.89390625,10.2125822 6.76822547,10.5620584 6.63004553,10.9472023 C6.42598357,11.4949439 6.23127817,12.0406784 6.04592931,12.5844056 C5.94434389,12.8821398 6.32662589,13.0955717 6.47766739,13.3210468 C7.056437,14.1861485 6.82920644,15.3228908 6.01585468,15.9464599 L5.716445,16.1291148 C5.24193411,16.3592733 4.7489329,16.3949568 4.23744135,16.2361653 C2.56462341,15.569776 2.44165157,13.4347879 4.04095375,12.6051466 C4.24234241,12.5351178 4.44952321,12.4844918 4.66249617,12.4532688 C4.77677978,12.4372112 4.88304349,12.3723118 4.92447965,12.2732901 L4.9874693,12.1134253 C5.05898009,11.925167 5.15605433,11.6517283 5.278692,11.2931091 L6.14550977,8.90922865 L6.37214626,8.31376032 C6.50175185,7.96525152 6.58838659,7.71368288 6.6320505,7.5590544 C6.65120916,7.49214785 6.62536725,7.41832762 6.55452478,7.33759371 C5.85991214,6.54363595 5.80622335,5.68210256 6.39345841,4.75299356 C7.14510147,3.96751063 7.99543389,3.8171939 8.94445566,4.30204339 Z M10.7596269,10.9532238 C10.7560625,11.2926631 10.758513,11.6441455 10.7669784,12.0076711 C10.4020729,12.3199017 10.0313752,12.6314632 9.65488533,12.9423557 C9.44102127,13.118989 9.27171222,13.2202409 9.14695819,13.2461114 C8.7386115,13.3310827 8.20595632,12.8573844 8.396429,12.4358731 C8.43920181,12.3413118 8.55771815,12.2132973 8.751978,12.0518295 L9.44035295,11.4811166 C9.72996053,11.2371307 10.0224642,10.9942599 10.3178639,10.7525042 C10.5290547,10.5798853 10.7623002,10.6742235 10.7596269,10.9532238 Z M12.496604,10.5136478 L12.496604,15.8708555 C12.496604,16.1337983 12.5400452,16.3371942 12.8568313,16.2890215 C12.8666839,16.287779 12.8762011,16.2930855 12.8803334,16.3021253 C12.8844657,16.3111651 12.8822557,16.3218441 12.8748761,16.3284963 L12.2185808,16.8871661 C11.9334287,16.9661158 11.6779057,16.9409143 11.4520118,16.8115616 C11.3187923,16.6652593 11.2519598,16.5379138 11.2515142,16.4295252 L11.2431601,14.1190747 L11.2441626,10.6682019 C11.2441626,10.4215398 11.1332206,10.2948634 10.9113367,10.2881727 C10.8823759,10.2872806 10.878366,10.2767986 10.8993068,10.2567266 C11.0935667,10.0720645 11.2789155,9.91795645 11.4553534,9.79440235 C11.7814961,9.566251 12.2747201,9.64787699 12.4404647,10.0279062 C12.4783365,10.1148847 12.4970496,10.2767986 12.496604,10.5136478 Z M17.1027012,12.7704058 C15.8930326,13.782925 14.6871512,14.8012427 13.485057,15.8253591 C13.295921,15.9866038 13.0031945,15.9805823 12.995843,15.6694668 C12.987823,15.3197685 12.9840359,14.977876 12.9844462,14.6437893 C12.9844462,14.605663 13.0013488,14.5694226 13.0305959,14.5447676 L15.4064919,12.5549667 C15.8048137,12.2240023 16.2024672,11.8894695 16.5994524,11.5513684 C16.742474,11.4295985 16.8739112,11.3546632 16.9937642,11.3265624 C17.3412933,11.2444904 17.5983757,11.3823179 17.7650115,11.7400449 C17.9688507,12.179621 17.3867394,12.5315494 17.1027012,12.7704058 Z" id="形状" fill="#FFFFFF"></path>
        </g>
    </g>
</svg>