<?xml version="1.0" encoding="UTF-8"?>
<svg width="24px" height="24px" viewBox="0 0 24 24" version="1.1" xmlns="http://www.w3.org/2000/svg" xmlns:xlink="http://www.w3.org/1999/xlink">
    <title>com.qianxin.browser-stable</title>
    <defs>
        <filter x="-7.1%" y="-7.1%" width="114.3%" height="114.3%" filterUnits="objectBoundingBox" id="filter-1">
            <feOffset dx="0" dy="0" in="SourceAlpha" result="shadowOffsetOuter1"></feOffset>
            <feGaussianBlur stdDeviation="0.5" in="shadowOffsetOuter1" result="shadowBlurOuter1"></feGaussianBlur>
            <feColorMatrix values="0 0 0 0 0   0 0 0 0 0   0 0 0 0 0  0 0 0 0.15 0" type="matrix" in="shadowBlurOuter1" result="shadowMatrixOuter1"></feColorMatrix>
            <feMerge>
                <feMergeNode in="shadowMatrixOuter1"></feMergeNode>
                <feMergeNode in="SourceGraphic"></feMergeNode>
            </feMerge>
        </filter>
        <linearGradient x1="50%" y1="0%" x2="90.6150627%" y2="89.1660201%" id="linearGradient-2">
            <stop stop-color="#39B0FB" offset="0%"></stop>
            <stop stop-color="#0052FF" offset="100%"></stop>
        </linearGradient>
        <linearGradient x1="50%" y1="0%" x2="50%" y2="100%" id="linearGradient-3">
            <stop stop-color="#0088FF" offset="0%"></stop>
            <stop stop-color="#004CCB" offset="100%"></stop>
        </linearGradient>
        <linearGradient x1="50%" y1="0%" x2="50%" y2="100%" id="linearGradient-4">
            <stop stop-color="#FFEA08" offset="0%"></stop>
            <stop stop-color="#FFCA18" offset="100%"></stop>
        </linearGradient>
        <path d="M0,10.0005205 C0,5.34806704 2.08736636,2.05555783 6.26209908,0.12299287 C8.92718188,-0.246989433 11.0648069,0.217752898 12.6749741,1.51721986 L12.8317708,2.45266333 C15.2259749,3.7522148 16.4230769,4.74809369 16.4230769,5.44030001 C16.3907704,6.02472275 16.2225097,6.37791314 15.9182948,6.49987116 C15.733899,7.36038573 15.2653968,8.01386479 14.512788,8.46030833 C14.6282178,9.09416651 14.6570752,9.50933308 14.5993603,9.70580805 C14.5416454,9.90228301 14.2915721,10.0732204 13.8491404,10.2186202 C11.7767603,9.53487068 10.3796424,9.36393331 9.65778681,9.70580805 C8.80717739,9.73875243 8.10566088,8.62903897 7.55323727,6.37666767 L7.4875834,6.37666767 C7.74771967,9.66699981 9.86823866,12.1923981 13.8491404,13.9528627 C10.3847953,15.6800882 7.49826206,16.0349784 5.1895406,15.0175333 C2.88081914,14.0000882 1.15097227,12.3277506 0,10.0005205 Z" id="path-5"></path>
        <linearGradient x1="102.059413%" y1="42.7730489%" x2="0%" y2="44.3405884%" id="linearGradient-7">
            <stop stop-color="#FF8800" offset="0%"></stop>
            <stop stop-color="#FFC700" offset="13.3256562%"></stop>
            <stop stop-color="#FFD500" offset="100%"></stop>
        </linearGradient>
        <path d="M14.512788,8.46030833 C13.2544243,8.99447246 11.8022568,8.47042325 10.1562856,6.88816072 C7.68732864,4.51476692 3.98790161,8.0073378 2.89653496,13.7208524 C6.08209958,16.2849924 9.75409328,16.3608129 13.9125161,13.9483141 C10.333488,12.7538264 8.18893812,10.2621755 7.47886639,6.47336164 L7.67805347,6.37192055 C8.17353197,8.50536507 8.83344309,9.6166609 9.65778681,9.70580805 C10.4279372,9.41720866 11.8365773,9.60453252 13.883707,10.2677796 C14.4926163,10.1149122 14.7496904,9.7287295 14.6549295,9.1092315 C14.5601685,8.4897335 14.512788,8.27342578 14.512788,8.46030833 Z" id="path-8"></path>
        <filter x="-34.0%" y="-41.8%" width="167.9%" height="183.6%" filterUnits="objectBoundingBox" id="filter-9">
            <feGaussianBlur stdDeviation="3" in="SourceAlpha" result="shadowBlurInner1"></feGaussianBlur>
            <feOffset dx="0" dy="2" in="shadowBlurInner1" result="shadowOffsetInner1"></feOffset>
            <feComposite in="shadowOffsetInner1" in2="SourceAlpha" operator="arithmetic" k2="-1" k3="1" result="shadowInnerInner1"></feComposite>
            <feColorMatrix values="0 0 0 0 0.996078431   0 0 0 0 0.740567796   0 0 0 0 0.0235294118  0 0 0 1 0" type="matrix" in="shadowInnerInner1"></feColorMatrix>
        </filter>
        <filter x="-51.3%" y="-73.7%" width="202.7%" height="247.3%" filterUnits="objectBoundingBox" id="filter-10">
            <feGaussianBlur stdDeviation="0.75" in="SourceGraphic"></feGaussianBlur>
        </filter>
        <linearGradient x1="28.8033083%" y1="0%" x2="50%" y2="100%" id="linearGradient-11">
            <stop stop-color="#FDA907" offset="0%"></stop>
            <stop stop-color="#FFC904" offset="100%"></stop>
        </linearGradient>
        <path d="M7.4875834,6.37666767 C5.57328172,7.81251298 5.3868212,10.8813842 6.92820184,15.5832813 C9.34995996,15.9538799 11.666514,15.4120777 13.8778641,13.9578747 C11.8467466,13.0462225 10.4400542,12.1092917 9.65778681,11.1470823 C8.87551947,10.1848729 8.15211833,8.59473468 7.4875834,6.37666767 Z" id="path-12"></path>
        <filter x="-50.1%" y="-42.9%" width="200.2%" height="185.8%" filterUnits="objectBoundingBox" id="filter-13">
            <feGaussianBlur stdDeviation="2.5" in="SourceAlpha" result="shadowBlurInner1"></feGaussianBlur>
            <feOffset dx="3" dy="1" in="shadowBlurInner1" result="shadowOffsetInner1"></feOffset>
            <feComposite in="shadowOffsetInner1" in2="SourceAlpha" operator="arithmetic" k2="-1" k3="1" result="shadowInnerInner1"></feComposite>
            <feColorMatrix values="0 0 0 0 1   0 0 0 0 0.673910757   0 0 0 0 0.0235294118  0 0 0 1 0" type="matrix" in="shadowInnerInner1"></feColorMatrix>
        </filter>
        <filter x="-55.4%" y="-245.5%" width="210.8%" height="591.0%" filterUnits="objectBoundingBox" id="filter-14">
            <feGaussianBlur stdDeviation="0.75" in="SourceGraphic"></feGaussianBlur>
        </filter>
        <path d="M6.42868455,0 C5.99244603,0.784290401 5.82385124,1.49137366 5.92290021,2.12124978 C6.02194917,2.75112589 6.54429925,3.06606395 7.48995045,3.06606395" id="path-15"></path>
        <filter x="-219.5%" y="-114.2%" width="539.0%" height="328.3%" filterUnits="objectBoundingBox" id="filter-16">
            <feGaussianBlur stdDeviation="1.5" in="SourceAlpha" result="shadowBlurInner1"></feGaussianBlur>
            <feOffset dx="0" dy="-4" in="shadowBlurInner1" result="shadowOffsetInner1"></feOffset>
            <feComposite in="shadowOffsetInner1" in2="SourceAlpha" operator="arithmetic" k2="-1" k3="1" result="shadowInnerInner1"></feComposite>
            <feColorMatrix values="0 0 0 0 1   0 0 0 0 0.429742133   0 0 0 0 0  0 0 0 1 0" type="matrix" in="shadowInnerInner1"></feColorMatrix>
        </filter>
        <linearGradient x1="50%" y1="0%" x2="59.6743779%" y2="100%" id="linearGradient-17">
            <stop stop-color="#F98208" offset="0%"></stop>
            <stop stop-color="#FFE70A" offset="100%"></stop>
        </linearGradient>
        <linearGradient x1="12.770471%" y1="0%" x2="100%" y2="100%" id="linearGradient-18">
            <stop stop-color="#F98008" offset="0%"></stop>
            <stop stop-color="#FFE10D" offset="100%"></stop>
        </linearGradient>
    </defs>
    <g id="com.qianxin.browser-stable" stroke="none" stroke-width="1" fill="none" fill-rule="evenodd">
        <g id="编组" filter="url(#filter-1)" transform="translate(1.5, 1.5)">
            <rect id="矩形" stroke="url(#linearGradient-3)" stroke-width="0.25" fill="url(#linearGradient-2)" x="0.125" y="0.125" width="20.75" height="20.75" rx="10.375"></rect>
            <g id="编组-8" transform="translate(2.1538, 2.4231)">
                <g id="编组-7">
                    <g id="路径-41" transform="translate(0, 1.6475)">
                        <mask id="mask-6" fill="white">
                            <use xlink:href="#path-5"></use>
                        </mask>
                        <use id="蒙版" fill="url(#linearGradient-4)" xlink:href="#path-5"></use>
                        <g mask="url(#mask-6)">
                            <use fill="url(#linearGradient-7)" fill-rule="evenodd" xlink:href="#path-8"></use>
                            <use fill="black" fill-opacity="1" filter="url(#filter-9)" xlink:href="#path-8"></use>
                        </g>
                        <path d="M4.54192901,9.18395071 C5.66059521,7.15098526 7.12177744,6.13450253 8.92547569,6.13450253 C7.72675186,6.09207333 6.80801038,6.32873334 6.16925124,6.84448255 C5.53049211,7.36023177 4.98805136,8.14005449 4.54192901,9.18395071 Z" id="路径-158" fill="#FFF717" filter="url(#filter-10)" mask="url(#mask-6)"></path>
                        <g id="路径-3" mask="url(#mask-6)">
                            <use fill="url(#linearGradient-11)" fill-rule="evenodd" xlink:href="#path-12"></use>
                            <use fill="black" fill-opacity="1" filter="url(#filter-13)" xlink:href="#path-12"></use>
                        </g>
                        <path d="M8.43100862,9.60028814 C9.78163934,12.2774168 11.3964512,13.810208 13.2754441,14.1986617 L14.3814934,14.0046278 L9.25741537,10.4240265 L8.43100862,9.60028814 Z" id="路径" fill="#FAEC0A" mask="url(#mask-6)"></path>
                        <path d="M11.2300045,7.79164063 C12.9387699,9.01354131 14.2925876,9.01354131 15.2914576,7.79164063 C14.5341519,8.32170221 13.9417422,8.586733 13.5142286,8.586733 C13.0867149,8.586733 12.3253069,8.32170221 11.2300045,7.79164063 Z" id="路径-2" fill="#FFF717" filter="url(#filter-14)" mask="url(#mask-6)"></path>
                    </g>
                    <g id="路径-4">
                        <use fill="#FF9E27" fill-rule="evenodd" xlink:href="#path-15"></use>
                        <use fill="black" fill-opacity="1" filter="url(#filter-16)" xlink:href="#path-15"></use>
                    </g>
                    <path d="M7.48995045,3.06606395 C6.62343615,2.43842157 6.28754785,1.41640025 6.48228554,0 C7.19880109,0.332616936 7.77521873,1.14429979 8.21153846,2.43504857" id="路径-42" stroke="#FFDF03" stroke-width="1.75" fill="url(#linearGradient-17)" stroke-linecap="round" stroke-linejoin="round"></path>
                </g>
                <polygon id="路径-43" fill="url(#linearGradient-18)" points="10.7692308 4.03846154 11.4643963 5.38461538 12.1153846 5.03164889"></polygon>
            </g>
        </g>
    </g>
</svg>