<?xml version="1.0" encoding="UTF-8"?>
<svg width="24px" height="24px" viewBox="0 0 24 24" version="1.1" xmlns="http://www.w3.org/2000/svg" xmlns:xlink="http://www.w3.org/1999/xlink">
    <title>com.pantum.pantum</title>
    <defs>
        <filter x="-7.5%" y="-7.5%" width="115.0%" height="115.0%" filterUnits="objectBoundingBox" id="filter-1">
            <feOffset dx="0" dy="0" in="SourceAlpha" result="shadowOffsetOuter1"></feOffset>
            <feGaussianBlur stdDeviation="0.5" in="shadowOffsetOuter1" result="shadowBlurOuter1"></feGaussianBlur>
            <feColorMatrix values="0 0 0 0 0   0 0 0 0 0   0 0 0 0 0  0 0 0 0.15 0" type="matrix" in="shadowBlurOuter1" result="shadowMatrixOuter1"></feColorMatrix>
            <feMerge>
                <feMergeNode in="shadowMatrixOuter1"></feMergeNode>
                <feMergeNode in="SourceGraphic"></feMergeNode>
            </feMerge>
        </filter>
        <linearGradient x1="50%" y1="0%" x2="50%" y2="100%" id="linearGradient-2">
            <stop stop-color="#FF9474" offset="0%"></stop>
            <stop stop-color="#E74242" offset="100%"></stop>
        </linearGradient>
        <linearGradient x1="50%" y1="0%" x2="50%" y2="100%" id="linearGradient-3">
            <stop stop-color="#FFFFFF" offset="0%"></stop>
            <stop stop-color="#FFD3D3" offset="100%"></stop>
        </linearGradient>
    </defs>
    <g id="com.pantum.pantum" stroke="none" stroke-width="1" fill="none" fill-rule="evenodd">
        <g id="奔图驱动" filter="url(#filter-1)" transform="translate(2, 2)" fill-rule="nonzero">
            <rect id="矩形" fill="url(#linearGradient-2)" x="0" y="0" width="20" height="20" rx="6"></rect>
            <path d="M16.1250625,14 L15,14 L15,11.8929531 C14.9999655,11.3924918 14.6180795,11.0179531 14.125,11.0179531 L5.875,11.0179531 C5.38192039,11.0179531 5.00003449,11.3924918 5,11.8929531 L5,14 L3.875,14 C3.63816993,14 3.42895271,13.8865251 3.2615003,13.716542 C3.0940479,13.5465589 3,13.3160218 3,13.0756462 L3,6.90633722 C3,6.66596232 3.09402799,6.43542197 3.26148578,6.2654453 C3.42894358,6.09546862 3.65607688,6 3.89290626,6 L16.1071562,6 C16.3439748,6 16.571092,6.09549287 16.7385363,6.26546772 C16.9059806,6.43544257 17,6.66597332 17,6.90633722 L17,13.0756462 C17,13.5761777 16.6182111,14 16.1250625,14 Z M5.53562504,8.23210938 C5.53559052,8.72524788 5.93533028,9.1250436 6.4284688,9.12507813 C6.9216073,9.12511265 7.32140302,8.72537287 7.32143753,8.23223437 C7.32143753,7.99542092 7.22739622,7.76830013 7.05995555,7.600836 C6.89251485,7.43337188 6.66540725,7.33926563 6.42859377,7.33926563 C5.93545528,7.3392311 5.53565956,7.73897088 5.53562504,8.23210938 Z M7,3.44218506 L13,3.44218506 C13.5522847,3.44218506 14,3.88990031 14,4.44218506 L14,5.44333192 L6,5.44333192 L6,4.44218506 C6,3.88990031 6.44771525,3.44218506 7,3.44218506 Z M6,16.5 L6,12.5 C6,12.2238576 6.22385762,12 6.5,12 L13.5,12 C13.7761424,12 14,12.2238576 14,12.5 L14,16.5 C14,16.7761424 13.7761424,17 13.5,17 L6.5,17 C6.22385762,17 6,16.7761424 6,16.5 Z M7,13.00007 L7,14 L12.9997812,14 L12.9997812,13 L7,13.00007 Z M7,15.00007 L7,16 L12.9997812,16 L12.9997812,15 L7,15.00007 Z" id="形状" fill="url(#linearGradient-3)"></path>
        </g>
    </g>
</svg>