<?xml version="1.0" encoding="UTF-8"?>
<svg width="24px" height="24px" viewBox="0 0 24 24" version="1.1" xmlns="http://www.w3.org/2000/svg" xmlns:xlink="http://www.w3.org/1999/xlink">
    <title>com.jetbrains.pycharmcommunity</title>
    <defs>
        <filter x="-7.5%" y="-7.5%" width="114.9%" height="115.0%" filterUnits="objectBoundingBox" id="filter-1">
            <feOffset dx="0" dy="0" in="SourceAlpha" result="shadowOffsetOuter1"></feOffset>
            <feGaussianBlur stdDeviation="0.5" in="shadowOffsetOuter1" result="shadowBlurOuter1"></feGaussianBlur>
            <feColorMatrix values="0 0 0 0 0   0 0 0 0 0   0 0 0 0 0  0 0 0 0.15 0" type="matrix" in="shadowBlurOuter1" result="shadowMatrixOuter1"></feColorMatrix>
            <feMerge>
                <feMergeNode in="shadowMatrixOuter1"></feMergeNode>
                <feMergeNode in="SourceGraphic"></feMergeNode>
            </feMerge>
        </filter>
    </defs>
    <g id="com.jetbrains.pycharmcommunity" stroke="none" stroke-width="1" fill="none" fill-rule="evenodd">
        <g id="188ca78c77155c94fd4b720b536f8d8e" filter="url(#filter-1)" transform="translate(2, 2)" fill-rule="nonzero">
            <path d="M13.130031,0 L10.6849845,3.00381679 L3.18820424,3.07359256 C3.10306492,3.07514313 3.06049526,3.11855916 3.06049526,3.20384065 L3.05263158,9.80695372 L3.0247678,16.719406 C3.0247678,16.9039241 3.11687307,16.9961832 3.30108359,16.9961832 L5.30263158,16.9938573 C5.12306502,17.1427123 5.00541796,17.2783874 4.9496904,17.4008826 C4.88467492,17.5466365 4.94195046,17.6799857 5.12151703,17.8009303 C5.25464396,17.8908635 5.40170279,17.9513359 5.5626935,17.9823473 C5.63884619,17.996074 5.70998936,18.0289026 5.76934985,18.0777075 C6.23684211,18.4700024 6.76857585,18.7312739 7.36455108,18.8615219 C7.64783282,18.9250954 8.23374613,19.4712548 9.12229102,20 L4.49999941,19.997643 C2.01541129,19.9946035 0.00200650212,17.9799379 0.000522567359,15.4953483 L0.00179941407,4.49999997 C0.00261059405,2.01492275 2.01724468,0.000522597704 4.50232198,0 L13.130031,0 L13.130031,0 Z" id="路径" fill="#21D789"></path>
            <path d="M14.8250774,0.00930343511 C15.2105263,0.862118321 15.4404025,2.0331584 15.5147059,3.02242366 L10.6849845,3.00381679 L13.130031,2.27373675e-13 L14.8250774,0.00930343511 Z" id="路径" fill="#B5ED5E"></path>
            <path d="M20,14.2098044 L16.99613,9.91394323 L16.9798762,9.37666985 L16.9821981,3.19918893 C16.9821981,3.10460401 16.9349845,3.05653626 16.8405573,3.05498569 L15.5147059,3.02242366 C15.4404025,2.0331584 15.2105263,0.862118321 14.8250774,0.00930343511 L15.5046444,0.0089982789 C17.989924,0.00439154227 20.0055471,2.01820527 20.0066631,4.50348639 C20.0066636,4.50465042 20.0066637,4.50581445 20.0031726,4.50697734 L20,14.2098044 L20,14.2098044 Z" id="路径" fill="#0AC5E3"></path>
            <path d="M10.6759182,3 L15.5155393,3.01861702 L16.8441084,3.05119681 C16.9387292,3.05274823 16.9860396,3.1008422 16.9860396,3.19547872 L16.9837128,9.37632979 L17,9.91389628 L16.9860396,16.8417553 C16.9847698,16.916674 16.9236788,16.9767395 16.8487618,16.9767287 L5.28253282,16.9976729 L3.27688217,17 C3.09229406,17 3,16.9076906 3,16.7230718 L3.02792089,9.8068484 L3.06049526,3.20013298 C3.06049526,3.11480496 3.10315218,3.07136525 3.18846601,3.06981383 L10.6759182,3 Z" id="路径" fill="#404040"></path>
            <path d="M5.6996904,6.0786021 C5.70030159,6.03788809 5.71703675,5.99908538 5.74621333,5.97073247 C5.77538991,5.94237957 5.81461717,5.92679973 5.85526316,5.92740337 L6.68653251,5.94137643 C6.95502249,5.94569393 7.21105968,6.03977015 7.39830963,6.20290601 C7.58555958,6.36604188 7.68868095,6.58487173 7.68498452,6.81124761 L7.68266254,6.95545086 C7.67510225,7.42616656 7.21696649,7.80077944 6.65866873,7.79276002 L5.82739938,7.77880487 C5.78675325,7.77819266 5.74801522,7.76142955 5.71970958,7.73220425 C5.69140395,7.70297895 5.67585007,7.66368619 5.67645271,7.62297233 L5.6996904,6.0786021 Z" id="路径" fill="#404040"></path>
            <path d="M16.99613,9.91394323 L20,14.2098044 L20.0040928,15.4855634 C20.012066,17.970832 18.0038212,19.9920037 15.5185526,19.9999768 C15.5137404,19.9999923 15.5089282,20 15.504116,20 L9.12229102,20 L9.12229102,20 C8.23374613,19.4712548 7.64783282,18.9250954 7.36455108,18.8615219 C6.76857585,18.7312739 6.23684211,18.4700024 5.76934985,18.0777075 C5.70998936,18.0289026 5.63884619,17.996074 5.5626935,17.9823473 C5.40170279,17.9513359 5.25464396,17.8908635 5.12151703,17.8009303 C4.94195046,17.6799857 4.88467492,17.5466365 4.9496904,17.4008826 C5.00541796,17.2783874 5.12306502,17.1427123 5.30263158,16.9938573 L16.8452012,16.9729246 C16.9199649,16.9729354 16.980931,16.9129026 16.9821981,16.8380248 L16.99613,9.91394323 Z" id="路径" fill="#FBF84A"></path>
            <path d="M8.99690402,6.98336116 C8.72058824,8.84404819 7.38080495,8.85102576 5.82972136,8.9394084 C5.72600619,8.94561069 5.67569659,9.00065601 5.67879257,9.10454437 L5.71594427,10.4628459 C5.71904025,10.549678 5.67801858,10.6047233 5.59287926,10.6279819 C5.20897833,10.7334208 4.82585139,10.7349714 4.44349845,10.6326336 L4.41099071,4.85752624 C4.41099071,4.82442587 4.42426883,4.79271383 4.44785266,4.76952809 C4.47143648,4.74634235 4.5033384,4.73363119 4.53637771,4.73425573 C6.35913313,4.75518845 8.89473684,4.28536498 8.99690402,6.98336116 Z M5.6996904,6.0786021 L5.67645271,7.62297233 C5.67585007,7.66368619 5.69140395,7.70297895 5.71970958,7.73220425 C5.74801522,7.76142955 5.78675325,7.77819266 5.82739938,7.77880487 L6.65866873,7.79276002 C7.21696649,7.80077944 7.67510225,7.42616656 7.68266254,6.95545086 L7.68498452,6.81124761 C7.68868095,6.58487173 7.58555958,6.36604188 7.39830963,6.20290601 C7.21105968,6.03977015 6.95502249,5.94569393 6.68653251,5.94137643 L5.85526316,5.92740337 C5.81461717,5.92679973 5.77538991,5.94237957 5.74621333,5.97073247 C5.71703675,5.99908538 5.70030159,6.03788809 5.6996904,6.0786021 Z M14.5487616,9.588323 C14.6168731,9.70771708 14.6137771,9.79997615 14.5394737,9.86510019 C12.1524768,11.9397662 8.83436533,10.065124 9.49845201,6.88800095 C10.2113003,4.65750239 12.7910217,4.10627385 14.5441176,5.50644084 C14.6095837,5.5587879 14.6209593,5.65408832 14.5696594,5.72041985 L14.0332817,6.40189647 C13.9905812,6.45587546 13.9276275,6.48992546 13.8591469,6.49608141 C13.7906663,6.50223737 13.722666,6.47995929 13.6710526,6.43445849 C13.1091331,5.93362357 12.5185759,5.79019561 11.8993808,6.00417462 C9.45201238,6.84846135 11.0890093,11.0931536 13.8010836,8.98127385 C13.8660991,8.93010496 13.9334365,8.92700382 14.003096,8.97197042 C14.2430341,9.13012882 14.4249226,9.33557968 14.5487616,9.588323 Z M4.64218874,13.9912449 L9.44757034,13.9996459 C9.55942794,13.9998869 9.64995503,14.0907107 9.64983006,14.2025685 L9.64892362,14.7974315 C9.64879865,14.9093071 9.55796746,14.9998619 9.44609199,14.9996914 C9.44607682,14.9996914 9.44606165,14.9996914 9.44604656,14.9996458 L4.64066495,14.9912438 C4.52880737,14.9910027 4.43828031,14.9001789 4.43840524,14.7883211 L4.43931168,14.1934592 C4.43943669,14.0815837 4.53026788,13.9910289 4.64214335,13.9911993 C4.6421585,13.9911994 4.64217366,13.9911994 4.64218874,13.9912449 Z" id="形状结合" fill="#FFFFFF"></path>
        </g>
    </g>
</svg>