<?xml version="1.0" encoding="UTF-8"?>
<svg width="24px" height="24px" viewBox="0 0 24 24" version="1.1" xmlns="http://www.w3.org/2000/svg" xmlns:xlink="http://www.w3.org/1999/xlink">
    <title>com.163.music</title>
    <defs>
        <filter x="-7.5%" y="-7.5%" width="115.0%" height="115.0%" filterUnits="objectBoundingBox" id="filter-1">
            <feOffset dx="0" dy="0" in="SourceAlpha" result="shadowOffsetOuter1"></feOffset>
            <feGaussianBlur stdDeviation="0.5" in="shadowOffsetOuter1" result="shadowBlurOuter1"></feGaussianBlur>
            <feColorMatrix values="0 0 0 0 0   0 0 0 0 0   0 0 0 0 0  0 0 0 0.15 0" type="matrix" in="shadowBlurOuter1" result="shadowMatrixOuter1"></feColorMatrix>
            <feMerge>
                <feMergeNode in="shadowMatrixOuter1"></feMergeNode>
                <feMergeNode in="SourceGraphic"></feMergeNode>
            </feMerge>
        </filter>
        <radialGradient cx="50%" cy="0%" fx="50%" fy="0%" r="114.130977%" id="radialGradient-2">
            <stop stop-color="#FF7440" offset="0%"></stop>
            <stop stop-color="#DD001B" offset="100%"></stop>
        </radialGradient>
        <path d="M7.85266035,4.89264555 C5.79644697,5.78803129 4.55062638,7.63351503 4.18604556,9.17972642 C3.82146475,10.7259378 4.05624907,11.8743048 4.34790375,12.7441253 C4.56631178,13.3954976 4.89346809,14.0052412 5.30884881,14.5190361 C5.84393113,15.180893 6.4238716,15.6465838 6.78311555,15.9005801 C7.38558785,16.3265462 8.50832953,16.8545677 9.86153773,16.9381124 C11.0500226,17.0114873 12.3454894,16.7751797 13.6516408,15.9458424 C15.2565737,14.9267945 15.9438884,13.3958713 16.0833949,12.0902367 C16.1315422,11.6396278 16.0912559,10.7914935 15.8731948,10.0772453 C15.8731948,10.0772453 15.8731948,10.0772453 15.8731948,10.0772453 C15.3857833,8.48075421 14.0077669,7.31825583 12.3519857,7.10673142 L12.0788993,7.07184677 L12.0788993,7.07184677 L11.2264795,7.07184677 C10.5858498,7.18869574 10.0539894,7.37487639 9.63089838,7.63038872 C8.9962619,8.01365723 8.62650452,8.51214832 8.49344497,8.69711482 C7.81672913,9.63781959 7.8008023,10.8618217 8.30540576,11.7399262 C8.79789278,12.5969457 9.76579989,13.1626301 10.9257168,12.8506579 C12.4051763,12.4527413 12.7658912,11.0382496 12.3161773,9.43928534 C11.8664635,7.84032103 11.3676103,5.99612439 11.2918977,5.67216095 C11.2830026,5.63410028 11.2692579,5.57941573 11.2506635,5.50810732 C11.0701562,4.81595386 11.4068246,4.09317331 12.052806,3.78598066 C12.7210234,3.46821374 13.5187174,3.62865543 14.0121167,4.18006052 L14.0436848,4.21533991 L14.0436848,4.21533991" id="path-3"></path>
        <filter x="-23.8%" y="-11.0%" width="147.5%" height="139.2%" filterUnits="objectBoundingBox" id="filter-4">
            <feMorphology radius="0.875" operator="dilate" in="SourceAlpha" result="shadowSpreadOuter1"></feMorphology>
            <feOffset dx="0" dy="1" in="shadowSpreadOuter1" result="shadowOffsetOuter1"></feOffset>
            <feMorphology radius="1" operator="erode" in="SourceAlpha" result="shadowInner"></feMorphology>
            <feOffset dx="0" dy="1" in="shadowInner" result="shadowInner"></feOffset>
            <feComposite in="shadowOffsetOuter1" in2="shadowInner" operator="out" result="shadowOffsetOuter1"></feComposite>
            <feGaussianBlur stdDeviation="0.5" in="shadowOffsetOuter1" result="shadowBlurOuter1"></feGaussianBlur>
            <feColorMatrix values="0 0 0 0 0   0 0 0 0 0   0 0 0 0 0  0 0 0 0.1 0" type="matrix" in="shadowBlurOuter1"></feColorMatrix>
        </filter>
    </defs>
    <g id="com.163.music" stroke="none" stroke-width="1" fill="none" fill-rule="evenodd">
        <g id="编组" filter="url(#filter-1)" transform="translate(2, 2)">
            <rect id="矩形" fill="url(#radialGradient-2)" x="0" y="0" width="20" height="20" rx="3.75"></rect>
            <g id="路径-2" stroke-linecap="round" stroke-linejoin="round">
                <use fill="black" fill-opacity="1" filter="url(#filter-4)" xlink:href="#path-3"></use>
                <use stroke="#FFFFFF" stroke-width="1.75" xlink:href="#path-3"></use>
            </g>
        </g>
    </g>
</svg>