<?xml version="1.0" encoding="UTF-8"?>
<svg width="24px" height="24px" viewBox="0 0 24 24" version="1.1" xmlns="http://www.w3.org/2000/svg" xmlns:xlink="http://www.w3.org/1999/xlink">
    <title>com.sogou.sogoupinyin-uos</title>
    <defs>
        <filter x="-7.0%" y="-6.8%" width="114.0%" height="113.6%" filterUnits="objectBoundingBox" id="filter-1">
            <feOffset dx="0" dy="0" in="SourceAlpha" result="shadowOffsetOuter1"></feOffset>
            <feGaussianBlur stdDeviation="0.5" in="shadowOffsetOuter1" result="shadowBlurOuter1"></feGaussianBlur>
            <feColorMatrix values="0 0 0 0 0   0 0 0 0 0   0 0 0 0 0  0 0 0 0.15 0" type="matrix" in="shadowBlurOuter1" result="shadowMatrixOuter1"></feColorMatrix>
            <feMerge>
                <feMergeNode in="shadowMatrixOuter1"></feMergeNode>
                <feMergeNode in="SourceGraphic"></feMergeNode>
            </feMerge>
        </filter>
        <linearGradient x1="4.884%" y1="21.085%" x2="93.958%" y2="78.992%" id="linearGradient-2">
            <stop stop-color="#E64404" offset="0%"></stop>
            <stop stop-color="#EE6525" offset="100%"></stop>
        </linearGradient>
    </defs>
    <g id="com.sogou.sogoupinyin-uos" stroke="none" stroke-width="1" fill="none" fill-rule="evenodd">
        <g id="sogoupinyin_icon" filter="url(#filter-1)" transform="translate(1.2677, 0.9347)" fill-rule="nonzero">
            <path d="M18.687968,18.8295613 C18.687968,18.8295613 12.4546346,20.9972697 6.86036378,21.614978 C4.90932211,21.8639363 3.71505128,20.9582072 3.36817628,19.3842488 L0.554113781,6.61654052 C0.207238781,5.04310302 1.02182211,3.50351967 2.78484296,3.12435302 C8.57286378,2.28789468 14.3655721,0.571748844 14.3655721,0.571748844 C16.1426555,0.135811344 17.5108846,1.22851968 17.8577596,2.80247802 L20.9186971,15.336853 C21.266093,16.9108113 20.3551555,18.2269572 18.687968,18.8295613 Z" id="路径" fill="url(#linearGradient-2)"></path>
            <path d="M6.17130128,22.1300822 C4.45932211,22.1040405 3.26921796,21.139978 2.90411378,19.4858113 L0.0900512805,6.71862384 C-0.116198719,5.78268634 0.0343221138,4.85404052 0.516092948,4.10508217 C0.993176281,3.36185302 1.74369711,2.86185302 2.68536378,2.65924884 C8.40203046,1.83216551 14.1728638,0.132686344 14.2306763,0.116019677 C14.5681763,0.0326863442 14.8838013,-0.00429282253 15.1890096,0.000394677472 C16.7119263,0.0238321775 17.9713013,1.10872801 18.3228638,2.70039467 L21.3806763,15.224353 C21.7713013,16.9941447 20.7770305,18.580603 18.8499471,19.2764363 C18.781718,19.3003947 12.4957805,21.471228 6.91296796,22.0873738 C6.66244711,22.1196655 6.41036378,22.133728 6.17130128,22.1300822 L6.17130128,22.1300822 Z M15.1739055,0.951436344 C14.9494263,0.947790512 14.7155721,0.975394677 14.4780721,1.03320718 C14.4421346,1.04466551 8.60828046,2.76289467 2.85307211,3.59518634 C2.19630128,3.73685302 1.65359295,4.09362384 1.31609295,4.61914467 C0.972863781,5.15404052 0.867134613,5.82695717 1.01921795,6.51445717 L3.83328046,19.2816447 C4.14317628,20.6910197 5.19057211,21.3472697 6.80098878,21.1436238 C12.2832805,20.5378947 18.4707805,18.4019572 18.5327596,18.380603 C20.0218221,17.8425822 20.7426555,16.7420613 20.4546346,15.439978 L17.3963013,2.91549884 C17.1358846,1.73476968 16.2645305,0.968103012 15.1739055,0.951436344 Z" id="形状" fill="#FFFFFF"></path>
            <path d="M16.2452596,7.30716552 L15.5671346,4.95716552 C15.5671346,4.95716552 4.90932211,3.95404052 3.65515546,8.74049884 C3.65515546,8.74049884 2.97442628,11.7790405 6.62442628,12.3201863 C6.62442628,12.3201863 8.63015546,12.5858113 11.0890096,12.5660197 C11.0890096,12.5660197 14.5270305,12.4259155 12.7884888,13.8884155 C12.7884888,13.8884155 10.9686971,15.7472697 5.07807211,14.705603 L5.70359296,17.0394572 C5.70359296,17.0394572 10.4405721,17.9722697 14.1801555,16.5394572 C14.1801555,16.5394572 18.5239055,15.0727905 17.7801555,12.0227905 C17.7801555,12.0227905 17.3301555,9.84310302 13.6228638,9.83945717 C13.6228638,9.83945717 11.2483846,9.83893634 10.2176555,9.71133217 C10.2176555,9.71133217 7.66869711,9.40195717 8.41400961,8.35924884 C8.41453046,8.35872802 9.45359296,6.78424884 16.2452596,7.30716552 L16.2452596,7.30716552 Z" id="路径" fill="#FFFFFF"></path>
        </g>
    </g>
</svg>