<?xml version="1.0" encoding="UTF-8"?>
<svg width="24px" height="24px" viewBox="0 0 24 24" version="1.1" xmlns="http://www.w3.org/2000/svg" xmlns:xlink="http://www.w3.org/1999/xlink">
    <title>com.360.epp</title>
    <defs>
        <filter x="-7.2%" y="-7.2%" width="114.5%" height="114.5%" filterUnits="objectBoundingBox" id="filter-1">
            <feOffset dx="0" dy="0" in="SourceAlpha" result="shadowOffsetOuter1"></feOffset>
            <feGaussianBlur stdDeviation="0.5" in="shadowOffsetOuter1" result="shadowBlurOuter1"></feGaussianBlur>
            <feColorMatrix values="0 0 0 0 0   0 0 0 0 0   0 0 0 0 0  0 0 0 0.15 0" type="matrix" in="shadowBlurOuter1" result="shadowMatrixOuter1"></feColorMatrix>
            <feMerge>
                <feMergeNode in="shadowMatrixOuter1"></feMergeNode>
                <feMergeNode in="SourceGraphic"></feMergeNode>
            </feMerge>
        </filter>
        <linearGradient x1="50%" y1="0%" x2="50%" y2="106.111749%" id="linearGradient-2">
            <stop stop-color="#FFEF00" offset="0%"></stop>
            <stop stop-color="#FDDB00" offset="100%"></stop>
        </linearGradient>
        <linearGradient x1="18.4618989%" y1="0%" x2="50%" y2="100%" id="linearGradient-3">
            <stop stop-color="#75C406" offset="0%"></stop>
            <stop stop-color="#44A400" offset="100%"></stop>
        </linearGradient>
    </defs>
    <g id="com.360.epp" stroke="none" stroke-width="1" fill="none" fill-rule="evenodd">
        <g id="编组" filter="url(#filter-1)" transform="translate(1.5, 1.7248)">
            <path d="M20.7529412,10.3764706 C20.7529412,12.0179294 20.3714824,13.5709412 19.6930588,14.9505176 C19.3353176,15.6778588 18.6326824,16.2218824 18.1217647,16.8410118 C15.4510588,18.5378118 13.6865647,19.6204235 10.4629412,19.6204235 C7.30997647,19.6204235 4.32748235,17.5204235 2.49628235,17.1271059 C0.939811765,15.3127059 0,12.9542824 0,10.3764706 C0,9.32251765 0.157129412,8.30562353 0.449152941,7.34752941 C2.02143529,3.12924706 5.70310588,0.843952941 10.3804235,0.843952941 C13.5758824,0.843952941 16.0756235,1.93101176 18.3337412,3.71625882 C19.8437647,5.51830588 20.7529412,7.84115294 20.7529412,10.3764706 Z" id="路径" fill="url(#linearGradient-2)" fill-rule="nonzero"></path>
            <path d="M12.6148235,18.4814824 C9.66741176,18.4814824 7.0896,16.9146353 5.65764706,14.5710353 C5.64331765,14.5473176 5.63491765,14.5221176 5.6196,14.4988941 C5.61268235,14.4875294 5.60329412,14.4791294 5.59637647,14.4677647 C5.5524,14.3936471 5.44270588,14.2646824 5.44270588,14.2646824 C4.68423529,13.2932471 3.45388235,12.9424235 2.57138824,13.5012706 C1.61872941,14.1045882 1.43936471,15.5291294 2.17016471,16.6833882 C2.2344,16.7851765 2.37176471,16.9744235 2.37176471,16.9744235 C4.27510588,19.2814588 7.15581176,20.7524471 10.3799294,20.7524471 C15.8172,20.7524471 20.2701882,16.5682588 20.7124235,11.2451294 C20.2568471,15.3161647 16.8069176,18.4814824 12.6148235,18.4814824 Z" id="路径" fill="#5EA42C" fill-rule="nonzero"></path>
            <path d="M8.13811765,2.27096471 C11.0855294,2.27096471 13.6633412,3.83781176 15.0952941,6.18141176 C15.1096235,6.20512941 15.1180235,6.23032941 15.1333412,6.25355294 C15.1402588,6.26491765 15.1496471,6.27331765 15.1565647,6.28468235 C15.2005412,6.3588 15.3102353,6.48776471 15.3102353,6.48776471 C16.0687059,7.4592 17.2990588,7.81002353 18.1815529,7.25117647 C19.1342118,6.64785882 19.3135765,5.22331765 18.5827765,4.06905882 C18.5185412,3.96727059 18.3811765,3.77802353 18.3811765,3.77802353 C16.4778353,1.47098824 13.5971294,0 10.3730118,0 C4.93574118,0 0.482752941,4.18418824 0.0405176471,9.50731765 C0.496094118,5.43677647 3.94602353,2.27096471 8.13811765,2.27096471 Z" id="路径" fill="#5EA42C" fill-rule="nonzero"></path>
            <path d="M11.1646341,5.89451621 C11.7169189,5.89451621 12.1646341,6.34223146 12.1646341,6.89451621 L12.1642927,8.71151621 L13.9817073,8.71158938 C14.5339921,8.71158938 14.9817073,9.15930463 14.9817073,9.71158938 L14.9817073,11.0408577 C14.9817073,11.5931424 14.5339921,12.0408577 13.9817073,12.0408577 L12.1642927,12.0405162 L12.1646341,13.8579308 C12.1646341,14.4102156 11.7169189,14.8579308 11.1646341,14.8579308 L9.83536585,14.8579308 C9.2830811,14.8579308 8.83536585,14.4102156 8.83536585,13.8579308 L8.83529268,12.0405162 L7.01829268,12.0408577 C6.46600793,12.0408577 6.01829268,11.5931424 6.01829268,11.0408577 L6.01829268,9.71158938 C6.01829268,9.15930463 6.46600793,8.71158938 7.01829268,8.71158938 L8.83529268,8.71151621 L8.83536585,6.89451621 C8.83536585,6.34223146 9.2830811,5.89451621 9.83536585,5.89451621 L11.1646341,5.89451621 Z" id="形状结合" fill="url(#linearGradient-3)"></path>
        </g>
    </g>
</svg>