<?xml version="1.0" encoding="UTF-8"?>
<svg width="24px" height="24px" viewBox="0 0 24 24" version="1.1" xmlns="http://www.w3.org/2000/svg" xmlns:xlink="http://www.w3.org/1999/xlink">
    <title>com.360.browser-stable</title>
    <defs>
        <filter x="-6.8%" y="-6.8%" width="113.6%" height="113.6%" filterUnits="objectBoundingBox" id="filter-1">
            <feOffset dx="0" dy="0" in="SourceAlpha" result="shadowOffsetOuter1"></feOffset>
            <feGaussianBlur stdDeviation="0.5" in="shadowOffsetOuter1" result="shadowBlurOuter1"></feGaussianBlur>
            <feColorMatrix values="0 0 0 0 0   0 0 0 0 0   0 0 0 0 0  0 0 0 0.15 0" type="matrix" in="shadowBlurOuter1" result="shadowMatrixOuter1"></feColorMatrix>
            <feMerge>
                <feMergeNode in="shadowMatrixOuter1"></feMergeNode>
                <feMergeNode in="SourceGraphic"></feMergeNode>
            </feMerge>
        </filter>
        <linearGradient x1="50.002%" y1="27.195%" x2="50.002%" y2="99.995%" id="linearGradient-2">
            <stop stop-color="#A1E494" offset="0%"></stop>
            <stop stop-color="#309F6E" offset="100%"></stop>
        </linearGradient>
        <linearGradient x1="18.989%" y1="21.8775449%" x2="61.029%" y2="71.5508464%" id="linearGradient-3">
            <stop stop-color="#5CC093" offset="0%"></stop>
            <stop stop-color="#05A692" stop-opacity="0.11" offset="100%"></stop>
        </linearGradient>
        <linearGradient x1="6.423%" y1="41.5965534%" x2="84.297%" y2="76.1244789%" id="linearGradient-4">
            <stop stop-color="#4BA481" offset="0%"></stop>
            <stop stop-color="#55BA8D" offset="100%"></stop>
        </linearGradient>
    </defs>
    <g id="com.360.browser-stable" stroke="none" stroke-width="1" fill="none" fill-rule="evenodd">
        <g filter="url(#filter-1)" transform="translate(1, 1)" fill-rule="nonzero">
            <path d="M10.9766082,0 C16.9716374,0 22,4.75935673 22,10.754386 C22,11.496345 21.927924,12.3004386 21.7837719,13 L21.4191521,13 L21.4488305,13 L6.10087719,13 C6.10087719,10.8928363 7.80950291,9 9.91666667,9 L17.4380117,9 C16.7299708,6.17631579 14.0038012,4.3245614 10.9554094,4.3245614 C7.36008773,4.3245614 4.3245614,7.36008773 4.3245614,10.9554094 C4.3245614,14.550731 7.36008773,17.6330409 10.9554094,17.6330409 C12.5961988,17.6330409 14.097076,17.0048246 15.2418129,16 L20.677193,16 C18.8922515,19.5444445 15.2163743,22 10.9766082,22 C4.98157895,22 0,16.9716374 0,10.9766082 C0,4.98157895 4.98157895,0 10.9766082,0 Z" id="com.360.browser-stable-c" fill="url(#linearGradient-2)"></path>
            <path d="M8.6871345,2.03508772 C13.5331871,2.03508772 17.6330409,5.8744152 17.6330409,10.7331871 C17.6330409,11.5162014 17.5303481,12.276395 17.3379852,13.0001534 L6.10087719,13 C6.10087719,10.8928363 7.80950293,9 9.91666667,9 L17.4380117,9 C16.7299708,6.17631579 14.0038012,4.3245614 10.9554093,4.3245614 C7.36008771,4.3245614 4.3245614,7.36008771 4.3245614,10.9554094 C4.3245614,14.550731 7.36008771,17.6330409 10.9554094,17.6330409 C12.5961988,17.6330409 14.097076,17.0048246 15.2418129,16 L20.677193,16 C18.8922515,19.5444445 15.2163743,22 10.9766082,22 C4.98157895,22 4.54747351e-13,16.9716374 4.54747351e-13,10.9766082 C4.54747351e-13,9.47957193 0.425783233,8.05338876 0.973771514,6.75602281 C2.46096174,4.01680829 5.35794191,2.03508772 8.6871345,2.03508772 Z" id="路径" fill="url(#linearGradient-3)" opacity="0.63"></path>
            <path d="M4.3245614,10.9554094 C4.3245614,14.550731 7.36008773,17.6330409 10.9554094,17.6330409 C12.5961988,17.6330409 14.097076,17.0048246 15.2418129,16 L20.677193,16 C18.8922515,19.5444445 15.2163743,22 10.9766082,22 C7.14787355,22 3.78259076,19.848634 1.8504395,16.8547628 C1.74591135,16.2537261 1.69152047,15.6354549 1.69152047,15.004386 C1.69152047,10.9678285 3.91956254,7.33149799 7.20259789,5.51405717 C5.53556675,6.6924867 4.3245614,8.75784067 4.3245614,10.9554094 Z" id="路径" fill="url(#linearGradient-4)"></path>
        </g>
    </g>
</svg>