<?xml version="1.0" encoding="UTF-8"?>
<svg width="24px" height="24px" viewBox="0 0 24 24" version="1.1" xmlns="http://www.w3.org/2000/svg" xmlns:xlink="http://www.w3.org/1999/xlink">
    <title>com.alibabainc.dingtalk</title>
    <defs>
        <filter x="-7.1%" y="-7.1%" width="114.3%" height="114.3%" filterUnits="objectBoundingBox" id="filter-1">
            <feOffset dx="0" dy="0" in="SourceAlpha" result="shadowOffsetOuter1"></feOffset>
            <feGaussianBlur stdDeviation="0.5" in="shadowOffsetOuter1" result="shadowBlurOuter1"></feGaussianBlur>
            <feColorMatrix values="0 0 0 0 0   0 0 0 0 0   0 0 0 0 0  0 0 0 0.15 0" type="matrix" in="shadowBlurOuter1" result="shadowMatrixOuter1"></feColorMatrix>
            <feMerge>
                <feMergeNode in="shadowMatrixOuter1"></feMergeNode>
                <feMergeNode in="SourceGraphic"></feMergeNode>
            </feMerge>
        </filter>
        <linearGradient x1="50%" y1="0%" x2="50%" y2="100%" id="linearGradient-2">
            <stop stop-color="#00C1F8" offset="0%"></stop>
            <stop stop-color="#008DEF" offset="100%"></stop>
        </linearGradient>
    </defs>
    <g id="com.alibabainc.dingtalk" stroke="none" stroke-width="1" fill="none" fill-rule="evenodd">
        <g id="apps.com.dingtalk.im_icon" filter="url(#filter-1)" transform="translate(1.5, 1.2535)" fill-rule="nonzero">
            <g id="编组">
                <path d="M10.5,21 C4.71,21 0,16.2895 0,10.5 C0,4.7105 4.71,0 10.5,0 C16.2895,0 21,4.7105 21,10.5 C21,16.2895 16.2895,21 10.5,21 Z" id="路径" fill="url(#linearGradient-2)"></path>
                <path d="M12.008,18.4855 L15.4575,13.8635 L13.6795,13.805 L15.7735,10.19 C15.7735,10.19 16.5265,8.9325 15.156,8.39 L5.454,4.5145 C5.454,4.5145 4.9115,4.1815 5.002,5.1305 C5.002,5.1305 5.213,7.028 6.0565,7.811 L10.9225,9.528 L6.2975,8.5185 C6.2975,8.5185 5.6195,8.3525 5.8755,9.151 C5.8755,9.151 6.403,10.763 7.563,11.1695 L11.239,11.2145 L8.03,11.7265 C8.03,11.7265 7.4575,11.817 7.9695,12.4645 C7.9695,12.4645 8.813,13.6395 10.0485,13.73 L11.8715,13.332 L11.374,15.4965 L12.8375,15.4965 L12.008,18.4855 Z" id="路径" fill="#FFFFFF"></path>
            </g>
        </g>
    </g>
</svg>