<?xml version="1.0" encoding="UTF-8"?>
<svg width="24px" height="24px" viewBox="0 0 24 24" version="1.1" xmlns="http://www.w3.org/2000/svg" xmlns:xlink="http://www.w3.org/1999/xlink">
    <title>net.xmind.vana</title>
    <defs>
        <filter x="-7.5%" y="-7.5%" width="115.0%" height="115.0%" filterUnits="objectBoundingBox" id="filter-1">
            <feOffset dx="0" dy="0" in="SourceAlpha" result="shadowOffsetOuter1"></feOffset>
            <feGaussianBlur stdDeviation="0.5" in="shadowOffsetOuter1" result="shadowBlurOuter1"></feGaussianBlur>
            <feColorMatrix values="0 0 0 0 0   0 0 0 0 0   0 0 0 0 0  0 0 0 0.15 0" type="matrix" in="shadowBlurOuter1" result="shadowMatrixOuter1"></feColorMatrix>
            <feMerge>
                <feMergeNode in="shadowMatrixOuter1"></feMergeNode>
                <feMergeNode in="SourceGraphic"></feMergeNode>
            </feMerge>
        </filter>
    </defs>
    <g id="net.xmind.vana" stroke="none" stroke-width="1" fill="none" fill-rule="evenodd">
        <g id="XMind" filter="url(#filter-1)" transform="translate(2, 2)" fill-rule="nonzero">
            <rect id="矩形" fill="#E72816" x="0" y="0" width="20" height="20" rx="4.5"></rect>
            <path d="M13.1276316,10.1592105 C15.0157895,9.56578948 16.4407895,8.57894738 17.25,7.5 L13.25,7.5 C12.75,8 11.7789474,9.24210528 10.7539474,9.24210528 C9.3513158,9.24210528 8.23552633,7.35394737 7.75,5.25 L3.5,5.25 C3.8236842,6.9763158 5.35921052,8.59473685 7.35526315,9.61973685 C5.19736842,10.1592105 3.41710527,11.6710526 2.5,12.75 L7,12.75 C7.64736842,12.2105263 8.4881579,10.7526316 9.56710527,10.7526316 C11.0776316,10.7526316 12.5144737,12.8421053 13,15 L17.25,15 C16.9263158,12.8421053 15.3934211,11.1302631 13.1276316,10.1592105 Z" id="路径" fill="#FFFFFF"></path>
        </g>
    </g>
</svg>