<?xml version="1.0" encoding="UTF-8"?>
<svg width="24px" height="24px" viewBox="0 0 24 24" version="1.1" xmlns="http://www.w3.org/2000/svg" xmlns:xlink="http://www.w3.org/1999/xlink">
    <title>org.chromium.www</title>
    <defs>
        <filter x="-7.1%" y="-7.1%" width="114.3%" height="114.3%" filterUnits="objectBoundingBox" id="filter-1">
            <feOffset dx="0" dy="0" in="SourceAlpha" result="shadowOffsetOuter1"></feOffset>
            <feGaussianBlur stdDeviation="0.5" in="shadowOffsetOuter1" result="shadowBlurOuter1"></feGaussianBlur>
            <feColorMatrix values="0 0 0 0 0   0 0 0 0 0   0 0 0 0 0  0 0 0 0.15 0" type="matrix" in="shadowBlurOuter1" result="shadowMatrixOuter1"></feColorMatrix>
            <feMerge>
                <feMergeNode in="shadowMatrixOuter1"></feMergeNode>
                <feMergeNode in="SourceGraphic"></feMergeNode>
            </feMerge>
        </filter>
        <linearGradient x1="49.9991752%" y1="24.747626%" x2="35.6925498%" y2="71.2960456%" id="linearGradient-2">
            <stop stop-color="#5992FF" offset="0%"></stop>
            <stop stop-color="#1C3F9C" offset="100%"></stop>
        </linearGradient>
        <linearGradient x1="49.6055351%" y1="1.94520693%" x2="29.7211835%" y2="100%" id="linearGradient-3">
            <stop stop-color="#9BB7F8" offset="0%"></stop>
            <stop stop-color="#B2CEFE" offset="100%"></stop>
        </linearGradient>
        <linearGradient x1="49.9983389%" y1="-0.000919624793%" x2="66.1727381%" y2="96.4719073%" id="linearGradient-4">
            <stop stop-color="#81B1FF" offset="0%"></stop>
            <stop stop-color="#5A88DB" offset="100%"></stop>
        </linearGradient>
        <linearGradient x1="50%" y1="0%" x2="50%" y2="100%" id="linearGradient-5">
            <stop stop-color="#FCFCFC" offset="0%"></stop>
            <stop stop-color="#D0F0FF" offset="100%"></stop>
        </linearGradient>
        <linearGradient x1="48.2715014%" y1="0%" x2="45.6018669%" y2="104.424695%" id="linearGradient-6">
            <stop stop-color="#609AFF" offset="0%"></stop>
            <stop stop-color="#2B6CD5" offset="100%"></stop>
        </linearGradient>
    </defs>
    <g id="org.chromium.www" stroke="none" stroke-width="1" fill="none" fill-rule="evenodd">
        <g id="Group-15" filter="url(#filter-1)" transform="translate(1.5, 1.5)">
            <path d="M19.9623989,5.85411186 C18.2443645,2.38604559 14.664293,0 10.5252103,0 C6.90063788,0 3.66907331,1.88203596 1.77603549,4.66408912 L6.61013208,12.924247 L19.9623989,5.85411186 L19.9623989,5.85411186 Z" id="path11852" fill="url(#linearGradient-2)"></path>
            <path d="M9.82169625,20.9754008 C13.6897735,21.2429059 17.4803493,19.3173691 19.567391,15.750801 C21.3944275,12.6282413 21.4159279,8.88766982 19.9618989,5.85411186 L10.458709,5.83411148 L9.82169625,20.9754008 L9.82169625,20.9754008 Z" id="path11854" fill="url(#linearGradient-3)"></path>
            <path d="M6.61013208,12.924247 L1.77603549,4.66408912 C0.654513078,6.33312101 0,8.34065937 0,10.5007006 C0,16.064307 4.33758667,20.6148939 9.82219626,20.9754008 L14.7317944,12.610741 L6.61013208,12.924247 L6.61013208,12.924247 Z" id="path11865" fill="url(#linearGradient-4)"></path>
            <path d="M10.625,15.75 C7.799075,15.75 5.5,13.4504125 5.5,10.6244875 C5.5,7.7985625 7.799075,5.5 10.625,5.5 C13.4504125,5.5 15.75,7.7985625 15.75,10.6244875 C15.75,13.4504125 13.4504125,15.75 10.625,15.75 L10.625,15.75 Z" id="path11878" fill="url(#linearGradient-5)"></path>
            <circle id="circle11885" fill="url(#linearGradient-6)" cx="10.625" cy="10.625" r="3.875"></circle>
        </g>
    </g>
</svg>