<?xml version="1.0" encoding="UTF-8"?>
<svg width="24px" height="24px" viewBox="0 0 24 24" version="1.1" xmlns="http://www.w3.org/2000/svg" xmlns:xlink="http://www.w3.org/1999/xlink">
    <title>org.gimp</title>
    <defs>
        <filter x="-6.4%" y="-8.0%" width="112.8%" height="115.9%" filterUnits="objectBoundingBox" id="filter-1">
            <feOffset dx="0" dy="0" in="SourceAlpha" result="shadowOffsetOuter1"></feOffset>
            <feGaussianBlur stdDeviation="0.5" in="shadowOffsetOuter1" result="shadowBlurOuter1"></feGaussianBlur>
            <feColorMatrix values="0 0 0 0 0   0 0 0 0 0   0 0 0 0 0  0 0 0 0.15 0" type="matrix" in="shadowBlurOuter1" result="shadowMatrixOuter1"></feColorMatrix>
            <feMerge>
                <feMergeNode in="shadowMatrixOuter1"></feMergeNode>
                <feMergeNode in="SourceGraphic"></feMergeNode>
            </feMerge>
        </filter>
        <linearGradient x1="50%" y1="0%" x2="50%" y2="100%" id="linearGradient-2">
            <stop stop-color="#BDAD6C" offset="0%"></stop>
            <stop stop-color="#8E7938" offset="100%"></stop>
        </linearGradient>
        <linearGradient x1="50%" y1="0%" x2="50%" y2="100%" id="linearGradient-3">
            <stop stop-color="#474A4A" offset="0%"></stop>
            <stop stop-color="#1C2021" offset="100%"></stop>
        </linearGradient>
        <linearGradient x1="50%" y1="0%" x2="50%" y2="100%" id="linearGradient-4">
            <stop stop-color="#F4C411" offset="0%"></stop>
            <stop stop-color="#E59207" offset="100%"></stop>
        </linearGradient>
        <linearGradient x1="50%" y1="0%" x2="60.054%" y2="74.199%" id="linearGradient-5">
            <stop stop-color="#616060" offset="0%"></stop>
            <stop stop-color="#332D2D" offset="100%"></stop>
        </linearGradient>
    </defs>
    <g id="org.gimp" stroke="none" stroke-width="1" fill="none" fill-rule="evenodd">
        <g id="gimp" filter="url(#filter-1)" transform="translate(0, 2.5)" fill-rule="nonzero">
            <path d="M6.1374197,2.14305556 C7.7129197,4.21105556 12.7929197,7.79855556 18.8899197,0.761555556 C18.8899197,0.761555556 19.8999197,-0.951944444 19.9639197,0.761555556 C19.9639197,0.761555556 21.7984197,11.3735556 14.9264197,13.5710556 C14.9264197,13.5710556 8.2944197,15.8015556 3.9934197,10.0420556 C3.9934197,10.0420556 2.6869197,7.90355556 2.9959197,7.83255556 C3.8144197,7.64455556 5.7069197,7.97055556 5.6119197,2.35805556 C5.6069197,2.08155556 5.9699197,1.92305556 6.1374197,2.14305556 Z" id="路径" fill="url(#linearGradient-2)"></path>
            <ellipse id="椭圆形" fill="#EFEFEF" cx="7.6339197" cy="6.78205556" rx="1.6325" ry="1.622"></ellipse>
            <ellipse id="椭圆形" fill="#EFEFEF" cx="12.3549197" cy="6.25005556" rx="2.8165" ry="2.7985"></ellipse>
            <ellipse id="椭圆形" fill="#44565C" cx="12.8519197" cy="6.44455556" rx="1.3715" ry="1.363"></ellipse>
            <ellipse id="椭圆形" fill="url(#linearGradient-3)" transform="translate(3.5149, 8.4048) rotate(-33.366) translate(-3.5149, -8.4048)" cx="3.5149197" cy="8.40480556" rx="2.1675" ry="3.0995"></ellipse>
            <ellipse id="椭圆形" fill="#FEFEFE" cx="2.9484197" cy="6.94905556" rx="1" ry="1"></ellipse>
            <g id="编组" transform="translate(14.5225, 10.7246)">
                <path d="M3.08291337,1.46649285 C5.49191337,3.13999285 6.49641337,4.34449285 6.35241337,4.55149285 C6.20841337,4.75849285 4.70141337,4.35599285 2.29191337,2.68249285 C-0.117586629,1.00899285 -0.180086629,0.730492849 0.134413371,0.276992849 C0.467913371,-0.202007151 0.673913371,-0.206507151 3.08291337,1.46649285 Z" id="路径" fill="url(#linearGradient-4)"></path>
                <path d="M4.56091337,4.04599285 C4.56091337,4.12149285 6.39191337,5.28999285 6.76041337,4.83499285 C7.02991337,4.31349285 6.46141337,4.08249285 5.19791337,3.10949285 C5.19841337,3.10949285 4.56091337,3.23199285 4.56091337,4.04599285 Z" id="路径" fill="#EFEFEF"></path>
                <path d="M6.93391337,6.50199285 C7.85191337,7.16749285 8.31291337,6.82799285 8.67041337,8.13999285 C9.11341337,7.03849285 9.17541337,5.88349285 8.50341337,5.07099285 C7.65891337,4.04999285 6.86691337,4.08049285 6.50391337,4.41599285 C6.14041337,4.75149285 5.85091337,5.71649285 6.93391337,6.50199285 Z" id="路径" fill="url(#linearGradient-5)"></path>
            </g>
            <ellipse id="椭圆形" fill="#1C2021" cx="13.2389197" cy="6.77505556" rx="1" ry="1"></ellipse>
            <ellipse id="椭圆形" fill="#FEFEFE" cx="12.5309197" cy="5.91355556" rx="1" ry="1"></ellipse>
            <ellipse id="椭圆形" fill="#44565C" cx="7.8239197" cy="6.98955556" rx="1" ry="1"></ellipse>
            <circle id="椭圆形" fill="#1C2021" cx="8.0324197" cy="7.24655556" r="1"></circle>
            <ellipse id="椭圆形" fill="#FEFEFE" cx="7.6919197" cy="6.70655556" rx="1" ry="1"></ellipse>
            <path d="M15.2904197,9.81255556 C15.2904197,10.7085556 14.2744197,11.3550556 12.9604197,11.3550556 C12.4624197,11.3550556 11.9509197,11.2805556 11.5694197,11.1250556 C11.3289197,11.0270556 11.2239197,11.1040556 11.4259197,11.2550556 C11.8589197,11.5775556 12.4794197,11.7800556 13.1719197,11.7800556 C14.4859197,11.7800556 15.5514197,11.0540556 15.5514197,10.1580556 C15.5514197,9.81555556 15.2904197,9.60905556 15.2904197,9.81255556 Z" id="路径" fill="#1C2021"></path>
        </g>
    </g>
</svg>