<?xml version="1.0" encoding="UTF-8"?>
<svg width="24px" height="24px" viewBox="0 0 24 24" version="1.1" xmlns="http://www.w3.org/2000/svg" xmlns:xlink="http://www.w3.org/1999/xlink">
    <title>org.videolan.www.vlc</title>
    <defs>
        <filter x="-8.5%" y="-7.5%" width="116.9%" height="115.0%" filterUnits="objectBoundingBox" id="filter-1">
            <feOffset dx="0" dy="0" in="SourceAlpha" result="shadowOffsetOuter1"></feOffset>
            <feGaussianBlur stdDeviation="0.5" in="shadowOffsetOuter1" result="shadowBlurOuter1"></feGaussianBlur>
            <feColorMatrix values="0 0 0 0 0   0 0 0 0 0   0 0 0 0 0  0 0 0 0.15 0" type="matrix" in="shadowBlurOuter1" result="shadowMatrixOuter1"></feColorMatrix>
            <feMerge>
                <feMergeNode in="shadowMatrixOuter1"></feMergeNode>
                <feMergeNode in="SourceGraphic"></feMergeNode>
            </feMerge>
        </filter>
    </defs>
    <g id="org.videolan.www.vlc" stroke="none" stroke-width="1" fill="none" fill-rule="evenodd">
        <g id="vlc" filter="url(#filter-1)" transform="translate(3.125, 1.9798)" fill-rule="nonzero">
            <path d="M17.2569444,20.0403089 L0.493055555,20.0403089 C0.220888889,20.0403089 0,19.8163089 0,19.5403089 L0,18.5403089 C0,18.4023089 0.110444445,18.2903089 0.246527778,18.2903089 L17.5034722,18.2903089 C17.6395556,18.2903089 17.75,18.4023089 17.75,18.5403089 L17.75,19.5403089 C17.75,19.8163089 17.5291111,20.0403089 17.2569444,20.0403089 Z" id="路径" fill="#D65E00"></path>
            <path d="M17.2564514,19.0508203 L0.49354861,19.0508203 C0.162215278,19.0508203 -0.0749444445,18.7383203 0.0221875,18.4291857 L1.87361111,13.1407241 C1.93672222,12.9388011 2.12802778,12.8008203 2.34447917,12.8008203 L15.407,12.8008203 C15.6229583,12.8008203 15.8132778,12.9378395 15.8778681,13.1383203 L17.7273194,18.4267818 C17.8264236,18.7363972 17.5892639,19.0508203 17.2564514,19.0508203 Z" id="路径" fill="#FCA000"></path>
            <path d="M9.89315973,0.239203124 C9.89315973,0.239203124 9.6638889,0 8.96670833,0 C8.27002082,0 8.04222917,0.235297769 8.04222917,0.235297769 C8.04222917,0.235297769 3.42870833,14.845727 3.42081945,15.1064096 L3.41194445,15.1454632 L3.41934028,15.1454632 C3.41934028,15.1454632 3.41884722,15.1444868 3.41884722,15.1488803 C3.41884722,16.6675761 5.90581945,17.8938582 8.97410418,17.8938582 C12.0423889,17.8938582 14.5293611,16.6602536 14.5293611,15.1410696 C14.528868,14.8491442 9.89315973,0.239203124 9.89315973,0.239203124 Z" id="路径" fill="#F48200"></path>
            <path d="M13.1389445,10.5512986 C12.1814306,11.2030051 10.6504931,11.6574911 8.96227083,11.6574911 C7.26714583,11.6574911 5.75247918,11.2362007 4.79545833,10.5801007 L3.8882361,13.530598 C4.68994445,14.4063743 6.8924236,15.1454632 8.86316668,15.1454632 C10.8339097,15.1454632 13.2543195,14.3956346 14.0609583,13.5252281 L13.1389445,10.5512986 Z M7.0255486,3.4396433 L6.00097918,6.70012835 C6.86333333,6.96422812 7.8819861,7.11800157 8.9736111,7.11800157 C10.0603056,7.11800157 11.0745208,6.9661808 11.9339167,6.70452187 L10.9088542,3.44257232 C10.3088056,3.56607925 9.65747918,3.63637567 8.9736111,3.63637567 C8.2848125,3.63637567 7.6290486,3.56461472 7.0255486,3.4396433 Z" id="形状" fill="#F7F8F8"></path>
        </g>
    </g>
</svg>