<?xml version="1.0" encoding="UTF-8"?>
<svg width="24px" height="24px" viewBox="0 0 24 24" version="1.1" xmlns="http://www.w3.org/2000/svg" xmlns:xlink="http://www.w3.org/1999/xlink">
    <title>org.virtualbox.virtualbox</title>
    <defs>
        <filter x="-8.2%" y="-7.0%" width="116.4%" height="114.0%" filterUnits="objectBoundingBox" id="filter-1">
            <feOffset dx="0" dy="0" in="SourceAlpha" result="shadowOffsetOuter1"></feOffset>
            <feGaussianBlur stdDeviation="0.5" in="shadowOffsetOuter1" result="shadowBlurOuter1"></feGaussianBlur>
            <feColorMatrix values="0 0 0 0 0   0 0 0 0 0   0 0 0 0 0  0 0 0 0.15 0" type="matrix" in="shadowBlurOuter1" result="shadowMatrixOuter1"></feColorMatrix>
            <feMerge>
                <feMergeNode in="shadowMatrixOuter1"></feMergeNode>
                <feMergeNode in="SourceGraphic"></feMergeNode>
            </feMerge>
        </filter>
        <linearGradient x1="100%" y1="100%" x2="0%" y2="100%" id="linearGradient-2">
            <stop stop-color="#3A6EBC" offset="0%"></stop>
            <stop stop-color="#BFC8E4" offset="72.793%"></stop>
            <stop stop-color="#5A83B9" offset="100%"></stop>
        </linearGradient>
        <linearGradient x1="50%" y1="57.902%" x2="50%" y2="100%" id="linearGradient-3">
            <stop stop-color="#9193DE" offset="0%"></stop>
            <stop stop-color="#EAEBFF" offset="100%"></stop>
        </linearGradient>
        <linearGradient x1="50%" y1="0%" x2="50%" y2="100%" id="linearGradient-4">
            <stop stop-color="#4E72AA" offset="0%"></stop>
            <stop stop-color="#A9CFFF" offset="100%"></stop>
        </linearGradient>
        <linearGradient x1="107.114%" y1="45.201%" x2="3.255%" y2="50%" id="linearGradient-5">
            <stop stop-color="#CDE3FA" offset="0%"></stop>
            <stop stop-color="#FDFDFF" offset="100%"></stop>
        </linearGradient>
        <linearGradient x1="68.402%" y1="33.195%" x2="36.084%" y2="60.123%" id="linearGradient-6">
            <stop stop-color="#FFF6F0" offset="0%"></stop>
            <stop stop-color="#D9D0DA" offset="100%"></stop>
        </linearGradient>
        <linearGradient x1="70.898%" y1="31.884%" x2="33.492%" y2="61.125%" id="linearGradient-7">
            <stop stop-color="#1A3D69" offset="0%"></stop>
            <stop stop-color="#275382" offset="41.778%"></stop>
            <stop stop-color="#173761" offset="100%"></stop>
        </linearGradient>
        <linearGradient x1="68.527%" y1="31.884%" x2="35.365%" y2="61.125%" id="linearGradient-8">
            <stop stop-color="#1A3D69" offset="0%"></stop>
            <stop stop-color="#275382" offset="41.778%"></stop>
            <stop stop-color="#173761" offset="100%"></stop>
        </linearGradient>
        <linearGradient x1="105.5%" y1="45.051%" x2="6.16%" y2="53.04%" id="linearGradient-9">
            <stop stop-color="#1A3D69" offset="0%"></stop>
            <stop stop-color="#275382" offset="41.778%"></stop>
            <stop stop-color="#173761" offset="100%"></stop>
        </linearGradient>
    </defs>
    <g id="org.virtualbox.virtualbox" stroke="none" stroke-width="1" fill="none" fill-rule="evenodd">
        <g id="com.apps.virtualbox" filter="url(#filter-1)" transform="translate(2.75, 1.25)">
            <g id="编组" transform="translate(4.0602, 12.9865)" fill-rule="nonzero">
                <path d="M5.1551009,8.5135569 C8.00218452,8.5135569 10.3102018,6.8109292 10.3102018,4.71063147 C10.3102018,4.10412627 10.3283001,2.37833406 9.98597162,1.86957496 C9.14283345,0.616526277 7.18002917,0.907706057 5.1551009,0.907706057 C3.13962585,0.907706057 1.26927736,-0.224680884 0.421640575,1.01886695 C0.0718957367,1.53196932 0,4.09715265 0,4.71063147 C0,6.8109292 2.30801729,8.5135569 5.1551009,8.5135569 Z" id="路径" fill="url(#linearGradient-2)"></path>
                <ellipse id="椭圆形" fill="url(#linearGradient-3)" cx="5.155" cy="3.803" rx="5.155" ry="3.803"></ellipse>
            </g>
            <g id="编组">
                <polygon id="路径" fill="url(#linearGradient-4)" fill-rule="nonzero" points="0 4.15 9.19925 0 18.2775 4.15 17.7235 13.98075 9.19925 20.16025 0.63975 13.63525"></polygon>
                <polygon id="路径" fill="url(#linearGradient-5)" fill-rule="nonzero" points="9.19925 0 18.2775 4.15 9.13875 9.767 0 4.15"></polygon>
                <polygon id="路径" fill="url(#linearGradient-6)" fill-rule="nonzero" points="9.13875 9.767 9.13875 20.25 0.63975 13.63525 0 4.15"></polygon>
                <polygon id="路径" fill="url(#linearGradient-7)" fill-rule="nonzero" points="1.13875 6.25 1.52225 12.75075 7.88875 17.25 7.88875 10.3585"></polygon>
                <polygon id="路径" fill="#D8D8D8" fill-rule="nonzero" transform="translate(4.7805, 11.8245) rotate(17) translate(-4.7805, -11.8245)" points="1.893 10.55575 7.378 12.1445 7.668 13.09325 2.18025 11.49575"></polygon>
                <polygon id="路径" fill="url(#linearGradient-8)" fill-rule="nonzero" points="10.63875 10.3125 10.63875 17.5 16.81725 12.7395 17.13875 6.25"></polygon>
                <polygon id="路径" fill="#D8D8D8" fill-rule="nonzero" transform="translate(13.7719, 11.5049) scale(-1, 1) rotate(17) translate(-13.7719, -11.5049)" points="10.90411 10.2332709 16.34936 11.8277709 16.63961 12.7765209 11.19136 11.1732709"></polygon>
                <polygon id="路径" fill="url(#linearGradient-9)" fill-rule="nonzero" points="2.39 3.98675 9.19925 8.0405 16.024 3.98675 9.19925 0.91425"></polygon>
                <polygon id="路径" stroke="#FFFFFF" stroke-width="0.25" points="4.06025 4.15 9.19925 1.722 14.3705 4.15 9.19925 7.072"></polygon>
                <polyline id="路径" stroke="#FFFFFF" stroke-width="0.25" points="7.46025 2.52725 8.39925 2.9795 6.761 4.63775 10.40875 2.9795 8.7535 4.63775 11.1985 3.5825 9.67775 5.26275 10.91875 6.02075"></polyline>
            </g>
        </g>
    </g>
</svg>