<?xml version="1.0" encoding="UTF-8"?>
<svg width="24px" height="24px" viewBox="0 0 24 24" version="1.1" xmlns="http://www.w3.org/2000/svg" xmlns:xlink="http://www.w3.org/1999/xlink">
    <title>org.gnome.brasero</title>
    <defs>
        <filter x="-7.4%" y="-7.4%" width="114.7%" height="114.7%" filterUnits="objectBoundingBox" id="filter-1">
            <feOffset dx="0" dy="0" in="SourceAlpha" result="shadowOffsetOuter1"></feOffset>
            <feGaussianBlur stdDeviation="0.5" in="shadowOffsetOuter1" result="shadowBlurOuter1"></feGaussianBlur>
            <feColorMatrix values="0 0 0 0 0   0 0 0 0 0   0 0 0 0 0  0 0 0 0.15 0" type="matrix" in="shadowBlurOuter1" result="shadowMatrixOuter1"></feColorMatrix>
            <feMerge>
                <feMergeNode in="shadowMatrixOuter1"></feMergeNode>
                <feMergeNode in="SourceGraphic"></feMergeNode>
            </feMerge>
        </filter>
        <linearGradient x1="50.002%" y1="100.002%" x2="50.002%" y2="-0.194%" id="linearGradient-2">
            <stop stop-color="#E7D5EE" offset="0%"></stop>
            <stop stop-color="#FDF9FF" offset="100%"></stop>
        </linearGradient>
        <linearGradient x1="6.733%" y1="25.006%" x2="93.269%" y2="74.993%" id="linearGradient-3">
            <stop stop-color="#FFFFFF" stop-opacity="0" offset="0%"></stop>
            <stop stop-color="#FFFFFF" stop-opacity="0" offset="15%"></stop>
            <stop stop-color="#FFFFFF" offset="50%"></stop>
            <stop stop-color="#FFFFFF" stop-opacity="0" offset="85%"></stop>
            <stop stop-color="#FFFFFF" stop-opacity="0" offset="100%"></stop>
        </linearGradient>
        <linearGradient x1="-56.289%" y1="48.316%" x2="99.286%" y2="48.315%" id="linearGradient-4">
            <stop stop-color="#FF0000" offset="0%"></stop>
            <stop stop-color="#FF0000" stop-opacity="0" offset="100%"></stop>
        </linearGradient>
        <radialGradient cx="50.0443696%" cy="50.0828654%" fx="50.0443696%" fy="50.0828654%" r="50.003022%" gradientTransform="translate(0.5004, 0.5008), scale(1, 0.9999), rotate(-4.9572), translate(-0.5004, -0.5008)" id="radialGradient-5">
            <stop stop-color="#FFC54B" offset="0%"></stop>
            <stop stop-color="#FF0E0E" stop-opacity="0.831" offset="37.14%"></stop>
            <stop stop-color="#FF0000" stop-opacity="0.476" offset="53.48%"></stop>
            <stop stop-color="#FFB46C" stop-opacity="0" offset="61.36%"></stop>
        </radialGradient>
    </defs>
    <g id="org.gnome.brasero" stroke="none" stroke-width="1" fill="none" fill-rule="evenodd">
        <g id="brasero_icon" filter="url(#filter-1)" transform="translate(1.75, 1.75)">
            <path d="M10.2044721,5.09784326 C7.39931108,5.09784326 5.12218041,7.37497396 5.12218041,10.1796496 C5.12218041,12.9843253 7.39931108,15.2624266 10.2044721,15.2624266 C13.0091477,15.2624266 15.2862786,12.9848106 15.2862786,10.1796496 C15.2867638,7.37497396 13.0091477,5.09784326 10.2044721,5.09784326 Z M10.2044721,8.68776989 C11.0280635,8.68776989 11.6958665,9.35557291 11.6958665,10.1791643 C11.6958665,11.0042116 11.0280635,11.671044 10.2044721,11.671044 C9.38039538,11.671044 8.71259233,11.0037263 8.71259233,10.1791643 C8.71259233,9.35557291 9.38039538,8.68776989 10.2044721,8.68776989 Z" id="形状" fill="#FFFFFF" fill-rule="nonzero" opacity="0.3"></path>
            <path d="M10.2044721,11.4346922 C9.51094698,11.4346922 8.94894413,10.87366 8.94894413,10.1796496 C8.94894413,9.48612451 9.51046166,8.92460637 10.2039868,8.92460637 C10.2039868,8.92460637 10.2039868,8.92460637 10.2044721,8.92460637 C10.8975119,8.92412169 11.4595147,9.48563919 11.4595147,10.1791643 C11.4595147,10.8731747 10.8979972,11.4346922 10.2044721,11.4346922 L10.2044721,11.4346922 L10.2044721,11.4346922 Z" id="路径" stroke="#FBFFFF" stroke-width="4.682" opacity="0.3" stroke-linecap="round"></path>
            <path d="M10.2044721,2.1298355e-05 C4.58541431,2.1298355e-05 0.0248437632,4.56059184 0.0248437632,10.1791643 C0.0248437632,15.7987074 4.58541431,20.3592779 10.2044721,20.3592779 C15.8235298,20.3592779 20.3831298,15.7987074 20.3831298,10.1791643 C20.3836151,4.56107716 15.8235298,2.1298355e-05 10.2044721,2.1298355e-05 Z M10.2044721,6.55623579 C12.2039986,6.55623579 13.8274006,8.18012309 13.8274006,10.1791643 C13.8274006,12.1796615 12.2039986,13.8030634 10.2044721,13.8030634 C8.20397493,13.8030634 6.58105826,12.1796615 6.58105826,10.1791643 C6.58105826,8.18012309 8.20397493,6.55623579 10.2044721,6.55623579 Z" id="形状" fill="url(#linearGradient-2)" fill-rule="nonzero"></path>
            <path d="M15.288705,1.36377603 C10.4243229,-1.44526753 4.19715673,0.22472537 1.38908382,5.09056344 C-1.41947442,9.95591619 0.249547836,16.1859943 5.11344461,18.9945526 C9.97782671,21.8050521 16.2045076,20.1350592 19.0130658,15.2692211 C21.8211388,10.403383 20.1526018,4.17379024 15.288705,1.36377603 Z M12.0118111,7.04204309 C13.7434399,8.04277699 14.3369887,10.2592424 13.3377107,11.9913565 C12.3379475,13.7229853 10.1219673,14.3175047 8.39033856,13.3172561 C6.65870976,12.3179782 6.06516101,10.1000568 7.06443893,8.36794271 C8.06420218,6.63631391 10.2806676,6.04227981 12.0118111,7.04204309 L12.0118111,7.04204309 L12.0118111,7.04204309 Z" id="形状" fill="url(#linearGradient-3)" fill-rule="nonzero" opacity="0.8"></path>
            <path d="M14.7509685,10.2107102 C14.7514536,12.7217661 12.7160133,14.7576918 10.2049574,14.7581772 C7.69341621,14.7586624 5.65797586,12.7237074 5.65700504,10.2116809 L5.65700504,10.2102249 C5.65651991,7.69868371 7.69147493,5.66227271 10.2030161,5.66178722 C12.714072,5.66130209 14.7499977,7.69674241 14.750483,10.2077983 C14.7509685,10.2097396 14.7509685,10.2097396 14.7509685,10.2107102 L14.7509685,10.2107102 Z" id="路径" stroke="#000000" stroke-width="3.877" opacity="0.15" stroke-linecap="round"></path>
            <path d="M2.48154357,9.74237451 C2.57715201,5.60063684 6.18600618,2.3218016 10.306875,2.41789535 C13.1304782,2.48389914 15.6750213,4.14564156 16.8820171,6.71153881" id="路径" stroke="url(#linearGradient-4)" stroke-width="0.49625" stroke-linejoin="round"></path>
            <path d="M4.85282671,10.0301704 C4.96833336,11.3677178 3.97876186,12.5460795 2.64121451,12.6615862 C1.30366715,12.7780634 0.125305411,11.7880066 0.00931346021,10.4504593 C-0.107163813,9.11291194 0.882407683,7.93455019 2.21946971,7.81758759 C3.55750238,7.70111031 4.73586413,8.69068181 4.85234141,10.0282292 C4.85234141,10.0291998 4.85234141,10.0291998 4.85282671,10.0301704 L4.85282671,10.0301704 Z" id="路径" fill="url(#radialGradient-5)" fill-rule="nonzero"></path>
        </g>
    </g>
</svg>