<?xml version="1.0" encoding="UTF-8" standalone="no"?>
<svg
   id="svg2"
   height="30"
   style=""
   width="80"
   sodipodi:version="0.32"
   inkscape:version="1.3.2 (091e20ef0f, 2023-11-25)"
   sodipodi:docname="lineedit.svg"
   inkscape:output_extension="org.inkscape.output.svgz.inkscape"
   inkscape:export-filename="/home/pinheiro/Documents/pics/estilo/lingmo/wether.png"
   inkscape:export-xdpi="90"
   inkscape:export-ydpi="90"
   version="1.1"
   xmlns:inkscape="http://www.inkscape.org/namespaces/inkscape"
   xmlns:sodipodi="http://sodipodi.sourceforge.net/DTD/sodipodi-0.dtd"
   xmlns="http://www.w3.org/2000/svg"
   xmlns:svg="http://www.w3.org/2000/svg">
  <defs
     id="defs87" />
  <sodipodi:namedview
     id="namedview85"
     pagecolor="#808080"
     bordercolor="#666666"
     borderopacity="1.0"
     objecttolerance="10.0"
     gridtolerance="10.0"
     guidetolerance="10.0"
     inkscape:pageshadow="2"
     inkscape:pageopacity="0.0"
     inkscape:pagecheckerboard="0"
     showgrid="true"
     inkscape:current-layer="svg2"
     inkscape:blackoutopacity="0.0"
     inkscape:showpageshadow="2"
     inkscape:deskcolor="#d1d1d1"
     inkscape:zoom="20.334495"
     inkscape:cx="-8.1142905"
     inkscape:cy="65.307744"
     inkscape:window-width="2510"
     inkscape:window-height="1412"
     inkscape:window-x="50"
     inkscape:window-y="0"
     inkscape:window-maximized="1"
     showguides="true">
    <inkscape:grid
       type="xygrid"
       id="grid926"
       originx="0"
       originy="0"
       spacingy="1"
       spacingx="1"
       units="px"
       visible="true" />
    <sodipodi:guide
       position="75,35"
       orientation="1,0"
       id="guide2"
       inkscape:locked="false" />
    <sodipodi:guide
       position="5,35"
       orientation="1,0"
       id="guide3"
       inkscape:locked="false" />
    <sodipodi:guide
       position="-5,25"
       orientation="0,-1"
       id="guide4"
       inkscape:locked="false" />
    <sodipodi:guide
       position="-5,5"
       orientation="0,-1"
       id="guide5"
       inkscape:locked="false" />
    <sodipodi:guide
       position="-5,-15"
       orientation="0,-1"
       id="guide1"
       inkscape:locked="false" />
    <sodipodi:guide
       position="-5,-35"
       orientation="0,-1"
       id="guide6"
       inkscape:locked="false" />
    <sodipodi:guide
       position="-5,-55"
       orientation="0,-1"
       id="guide7"
       inkscape:locked="false" />
    <sodipodi:guide
       position="-5,-75"
       orientation="0,-1"
       id="guide8"
       inkscape:locked="false" />
    <sodipodi:guide
       position="-5,-95"
       orientation="0,-1"
       id="guide9"
       inkscape:locked="false" />
    <sodipodi:guide
       position="-5,-115"
       orientation="0,-1"
       id="guide10"
       inkscape:locked="false" />
  </sodipodi:namedview>
  <style
     id="current-color-scheme"
     type="text/css">.ColorScheme-Text { color:#232629; }
.ColorScheme-ViewBackground { color:#fcfcfc; }
.ColorScheme-ViewHover { color:#3daee9; }
.ColorScheme-ViewFocus { color:#3daee9; }
</style>
  <rect
     id="hint-tile-center"
     height="2.07712602615"
     rx="2.07712602615"
     style="fill:#4e9a06;"
     width="2.03293180466"
     x="0"
     y="-4" />
  <rect
     id="hint-focus-over-base"
     height="2.07712602615"
     rx="2.07712602615"
     style="fill:#4e9a06;"
     width="2.03293180466"
     x="4"
     y="-4" />
  <rect
     id="base-center"
     height="14"
     class="ColorScheme-ViewBackground"
     style="fill:currentColor;fill-opacity:1;stroke-width:0.855594"
     width="64"
     x="8"
     y="8" />
  <g
     id="base-topleft"
     style=""
     transform="translate(-147 37)">
    <path
       id="rect4544"
       style="fill:currentColor;"
       class="ColorScheme-ViewBackground"
       d="M 152 -37 A 5 5 0 0 0 147 -32 L 152 -32 L 152 -37 z " />
    <path
       id="path1"
       style="fill-rule:evenodd;fill:currentColor;opacity:0.2;"
       d="m 152,-37 a 5,5 0 0 0 -5,5 h 1 a 4,4 0 0 1 4,-4 z"
       class="ColorScheme-Text" />
  </g>
  <g
     id="base-top"
     style="stroke-width:.532714"
     transform="matrix(3.52380952381 0 0 1 -120.333333332 39)">
    <rect
       id="rect3682"
       height="5"
       class="ColorScheme-ViewBackground"
       style="fill:currentColor;"
       width="19.864864"
       x="35.567566"
       y="-39" />
    <rect
       id="rect3804"
       height="1"
       class="ColorScheme-Text"
       style="fill-rule:evenodd;fill:currentColor;opacity:0.2;"
       width="19.864864"
       x="35.567566"
       y="-39" />
  </g>
  <g
     id="base-topright"
     style=""
     transform="matrix(-1 0 0 1 227.000000001 37)">
    <path
       id="rect4544-7"
       style="fill:currentColor;"
       class="ColorScheme-ViewBackground"
       d="m 147,-32 a 5,5 0 0 1 5,-5 v 5 z" />
    <path
       id="path1-5"
       style="fill-rule:evenodd;fill:currentColor;opacity:0.2;"
       d="m 147,-32 a 5,5 0 0 1 5,-5 v 1 a 4,4 0 0 0 -4,4 z"
       class="ColorScheme-Text" />
  </g>
  <g
     id="base-bottom"
     style="stroke-width:.532714"
     transform="matrix(3.52380952381 0 0 -1 -120.333333333 -8.9999999999)">
    <rect
       id="rect3682-2"
       height="5"
       class="ColorScheme-ViewBackground"
       style="fill:currentColor;"
       width="19.864866"
       x="35.567566"
       y="-39" />
    <rect
       id="rect3804-7"
       height="1"
       class="ColorScheme-Text"
       style="fill-rule:evenodd;fill:currentColor;opacity:0.2;"
       width="19.864864"
       x="35.567566"
       y="-39" />
  </g>
  <g
     id="base-bottomleft"
     style=""
     transform="matrix(1 0 0 -1 -147 -6.9999999999)">
    <path
       id="rect4544-3"
       style="fill:currentColor;"
       class="ColorScheme-ViewBackground"
       d="m 152,-37 a 5,5 0 0 0 -5,5 h 5 z" />
    <path
       id="path1-6"
       style="fill-rule:evenodd;fill:currentColor;opacity:0.2;"
       d="m 152,-37 a 5,5 0 0 0 -5,5 h 1 a 4,4 0 0 1 4,-4 z"
       class="ColorScheme-Text" />
  </g>
  <g
     id="base-bottomright"
     style=""
     transform="matrix(-1 0 0 -1 227 -7)">
    <path
       id="rect4544-7-3"
       style="fill:currentColor;"
       class="ColorScheme-ViewBackground"
       d="m 75,30 a 5,5 0 0 0 5,-5 h -5 z"
       transform="rotate(-180,113.5,-3.5)" />
    <path
       id="path1-5-5"
       style="fill-rule:evenodd;fill:currentColor;opacity:0.2"
       d="m 75,30 a 5,5 0 0 0 5,-5 h -1 a 4,4 0 0 1 -4,4 z"
       class="ColorScheme-Text"
       transform="rotate(-180,113.5,-3.5)" />
  </g>
  <g
     id="base-left"
     style="stroke-width:.935415"
     transform="matrix(0 -1.14285714286 1 0 39 67.0000000002)">
    <rect
       id="rect3682-6"
       height="5"
       class="ColorScheme-ViewBackground"
       style="fill:currentColor;"
       width="17.5"
       x="36.75"
       y="-39" />
    <rect
       id="rect3804-1"
       height="1"
       class="ColorScheme-Text"
       style="fill-rule:evenodd;fill:currentColor;opacity:0.2;"
       width="17.5"
       x="36.75"
       y="-39" />
  </g>
  <g
     id="base-right"
     style="stroke-width:.935415"
     transform="matrix(0 -1.14285714286 -1 0 41.0000000011 67.0000000002)">
    <rect
       id="rect3682-6-7"
       height="5"
       class="ColorScheme-ViewBackground"
       style="fill:currentColor;"
       width="17.5"
       x="36.75"
       y="-39" />
    <rect
       id="rect3804-1-9"
       height="1"
       class="ColorScheme-Text"
       style="fill-rule:evenodd;fill:currentColor;opacity:0.2;"
       width="17.5"
       x="36.75"
       y="-39" />
  </g>
  <rect
     id="base-hint-left-margin"
     height="1.9999999"
     style="fill:#4e9a06;"
     width="6"
     x="0"
     y="14" />
  <rect
     id="base-hint-right-margin"
     height="2"
     style="fill:#4e9a06;"
     width="6"
     x="74"
     y="14" />
  <rect
     id="base-hint-bottom-margin"
     height="6"
     style="fill:#4e9a06;"
     x="40"
     y="24"
     width="2" />
  <rect
     id="base-hint-top-margin"
     height="6"
     style="fill:#4e9a06;"
     width="2"
     x="40"
     y="0" />
  <rect
     id="hover-center"
     height="14"
     class="ColorScheme-ViewBackground"
     style="fill:currentColor;opacity:0.00100002;"
     width="64"
     x="8"
     y="48" />
  <g
     id="hover-topleft"
     style=""
     transform="translate(-147 77)">
    <path
       id="path1-5-6-6-7"
       style="fill-rule:evenodd;fill:currentColor;"
       d="m 152,-37 a 5,5 0 0 0 -5,5 h 1 a 4,4 0 0 1 4,-4 z"
       class="  ColorScheme-ViewHover" />
  </g>
  <g
     id="hover-top"
     style=""
     transform="matrix(3.52380952381 0 0 1 -120.333333332 79)">
    <path
       id="rect3682-2-3-3"
       style="opacity:0.00100002"
       inkscape:label="hint"
       d="M 35.567568,-39 H 55.43243 v 5 H 35.567568 Z"
       class="ColorScheme-ViewBackground" />
    <rect
       id="rect3804-2"
       height="1"
       class="ColorScheme-ViewHover"
       style="fill-rule:evenodd;fill:currentColor;"
       width="19.864864"
       x="35.567566"
       y="-39" />
  </g>
  <g
     id="hover-topright"
     transform="matrix(-1 0 0 1 227.000000001 77)"
     style="">
    <path
       id="path1-5-6"
       style="fill:currentColor;fill-rule:evenodd"
       d="m 152,-37 a 5,5 0 0 0 -5,5 h 1 a 4,4 0 0 1 4,-4 z"
       class="  ColorScheme-ViewHover" />
  </g>
  <g
     id="hover-bottom"
     style=""
     transform="matrix(3.52380952381 0 0 -1 -120.333333333 31.0000000001)">
    <path
       id="rect3682-2-3"
       style="opacity:0.00100002"
       inkscape:label="hint"
       transform="scale(1,-1)"
       d="M 35.567566,34 H 55.43243 v 5 H 35.567566 Z"
       class="ColorScheme-ViewBackground" />
    <rect
       id="rect3804-7-6"
       height="1"
       class="ColorScheme-ViewHover"
       style="fill-rule:evenodd;fill:currentColor;"
       width="19.864864"
       x="35.567566"
       y="-39" />
  </g>
  <g
     id="hover-bottomleft"
     transform="matrix(1 0 0 -1 -147 33.0000000001)"
     style="">
    <path
       id="path1-5-6-6"
       style="fill-rule:evenodd;fill:currentColor;"
       d="m 147,-32 a 5,5 0 0 1 5,-5 v 1 a 4,4 0 0 0 -4,4 z"
       class="  ColorScheme-ViewHover" />
  </g>
  <g
     id="hover-bottomright"
     style=""
     transform="matrix(-1 0 0 -1 227 33)">
    <path
       id="path1-5-6-3"
       style="fill-rule:evenodd;fill:currentColor;"
       d="m 147,-32 a 5,5 0 0 1 5,-5 v 1 a 4,4 0 0 0 -4,4 z"
       class="  ColorScheme-ViewHover" />
  </g>
  <g
     id="hover-left"
     style=""
     transform="matrix(0 -1.14285714286 1 0 39 107)">
    <path
       id="rect3682-2-3-3-6-9-1-2-7-0-9-6"
       style="opacity:0.00100002;"
       inkscape:label="hint"
       d="m 36.75,-34 h 17.5 v -5 h -17.5 z"
       class="ColorScheme-ViewBackground" />
    <rect
       id="rect3804-1-4"
       height="1"
       class="ColorScheme-ViewHover"
       style="fill-rule:evenodd;fill:currentColor;"
       width="17.5"
       x="36.75"
       y="-39" />
  </g>
  <g
     id="hover-right"
     style=""
     transform="matrix(0 -1.14285714286 -1 0 41.0000000011 107)">
    <path
       id="rect3682-2-3-3-6-9-1-2-7-0-9-6-0"
       style="opacity:0.00100002;"
       inkscape:label="hint"
       d="m 54.25,-39 h -17.5 v 5 h 17.5 z"
       class="ColorScheme-ViewBackground" />
    <rect
       id="rect3804-1-9-3"
       height="1"
       class="ColorScheme-ViewHover"
       style="fill-rule:evenodd;fill:currentColor;"
       width="17.5"
       x="36.75"
       y="-39" />
  </g>
  <rect
     id="focus-center"
     height="14"
     class="ColorScheme-ViewBackground"
     style="fill:currentColor;opacity:0.00100002;"
     width="64"
     x="8"
     y="88" />
  <g
     id="focus-topleft"
     style=""
     transform="translate(-147.000000001 117)">
    <path
       id="path1-5-6-6-7-5"
       style="fill-rule:evenodd;fill:currentColor"
       d="M 5,80 A 5,5 0 0 0 0,85 H 1 A 4,4 0 0 1 5,81 Z"
       class="  ColorScheme-ViewFocus"
       transform="translate(147,-117)" />
  </g>
  <g
     id="focus-top"
     style=""
     transform="matrix(3.52380952381 0 0 1 -120.333333333 119)">
    <path
       id="rect3682-2-3-3-6"
       style="opacity:0.00100002"
       inkscape:label="hint"
       d="m 35.567569,-39 h 19.864862 v 5 H 35.567569 Z"
       class="ColorScheme-ViewBackground" />
    <rect
       id="rect3804-6"
       height="1"
       class="ColorScheme-ViewFocus"
       style="fill-rule:evenodd;fill:currentColor;"
       width="19.864866"
       x="35.567566"
       y="-39" />
  </g>
  <g
     id="focus-topright"
     transform="matrix(-1 0 0 1 227 117)"
     style="">
    <path
       id="path1-5-6-9"
       style="fill-rule:evenodd;fill:currentColor"
       d="m 147,-32 a 5,5 0 0 1 5,-5 v 1 a 4,4 0 0 0 -4,4 z"
       class="  ColorScheme-ViewFocus" />
  </g>
  <g
     id="focus-bottom"
     style=""
     transform="matrix(3.52380952381 0 0 -1 -120.333333333 71.0000000001)">
    <path
       id="rect3682-2-3-3-6-9"
       style="opacity:0.00100002"
       inkscape:label="hint"
       d="m 35.567567,-39 h 19.864865 v 5 H 35.567567 Z"
       class="ColorScheme-ViewBackground" />
    <rect
       id="rect3804-7-65"
       height="1"
       class="ColorScheme-ViewFocus"
       style="fill-rule:evenodd;fill:currentColor;"
       width="19.864866"
       x="35.567566"
       y="-39" />
  </g>
  <g
     id="focus-bottomleft"
     style=""
     transform="matrix(1 0 0 -1 -147.000000001 73.0000000001)">
    <path
       id="path1-5-6-6-3"
       style="fill-rule:evenodd;fill:currentColor"
       class="  ColorScheme-ViewFocus"
       d="M 147 -32 A 5 5 0 0 1 152 -37 L 152 -36 A 4 4 0 0 0 148 -32 L 147 -32 z " />
  </g>
  <g
     id="focus-bottomright"
     style=""
     transform="matrix(-1 0 0 -1 227 73)">
    <path
       id="rect4544-2-0-4"
       d="m 35 -39 c -1.662 0 -3 1.338 -3 3 h 3 z"
       class="ColorScheme-ViewBackground"
       style="fill:currentColor;fill-rule:evenodd;opacity:.001;fill-opacity:.0039215689"
       transform="translate(115 2)" />
    <path
       id="path1-5-6-3-1"
       style="fill:currentColor;fill-rule:evenodd"
       d="m 147,-32 a 5,5 0 0 1 5,-5 v 1 a 4,4 0 0 0 -4,4 z"
       class="  ColorScheme-ViewFocus" />
  </g>
  <g
     id="focus-left"
     style=""
     transform="matrix(0 -1.14285714286 1 0 38.9999999995 147)">
    <path
       id="rect3682-2-3-3-6-9-1-2-7-0-9"
       style="opacity:0.00100002;"
       inkscape:label="hint"
       d="m 36.75,-34 h 17.5 v -5 h -17.5 z"
       class="ColorScheme-ViewBackground" />
    <rect
       id="rect3804-1-47"
       height="1"
       class="ColorScheme-ViewFocus"
       style="fill-rule:evenodd;fill:currentColor;"
       width="17.5"
       x="36.75"
       y="-39" />
  </g>
  <g
     id="focus-right"
     style=""
     transform="matrix(0 -1.14285714286 -1 0 41.0000000004 147)">
    <path
       id="rect3682-2-3-3-6-9-1-2-7-0-9-3"
       style="opacity:0.00100002;"
       inkscape:label="hint"
       d="m 54.25,-39 h -17.5 v 5 h 17.5 z"
       class="ColorScheme-ViewBackground" />
    <rect
       id="rect3804-1-9-30"
       height="1"
       class="ColorScheme-ViewFocus"
       style="fill-rule:evenodd;fill:currentColor;"
       width="17.5"
       x="36.75"
       y="-39" />
  </g>
  <rect
     style="fill:#4e9a06;fill-opacity:1;fill-rule:evenodd;stroke-width:1"
     id="hover-hint-top-margin"
     width="2"
     height="0.0010000000475"
     x="40"
     y="39.9990005493" />
  <rect
     style="fill:#4e9a06;fill-opacity:1;fill-rule:evenodd;stroke-width:1"
     id="hover-hint-bottom-margin"
     width="2"
     height="0.0010000000475"
     x="40"
     y="70" />
  <rect
     style="fill:#4e9a06;fill-opacity:1;fill-rule:evenodd;stroke-width:1"
     id="hover-hint-left-margin"
     width="2"
     height="0.0010000000475"
     x="-56"
     y="-0.0010000000475"
     transform="rotate(-90)" />
  <rect
     style="fill:#4e9a06;fill-opacity:1;fill-rule:evenodd;stroke-width:1"
     id="hover-hint-right-margin"
     width="2"
     height="0.0010000000475"
     x="-56"
     y="80"
     transform="rotate(-90)" />
  <rect
     style="fill:#4e9a06;fill-opacity:1;fill-rule:evenodd;stroke-width:1"
     id="focus-hint-top-margin"
     width="2"
     height="0.0010000000475"
     x="40"
     y="79.9990005493" />
  <rect
     style="fill:#4e9a06;fill-opacity:1;fill-rule:evenodd;stroke-width:1"
     id="focus-hint-bottom-margin"
     width="2"
     height="0.0010000000475"
     x="40"
     y="110" />
  <rect
     style="fill:#4e9a06;fill-opacity:1;fill-rule:evenodd;stroke-width:1"
     id="focus-hint-left-margin"
     width="2"
     height="0.0010000000475"
     x="-96"
     y="-0.0010000000475"
     transform="rotate(-90)" />
  <rect
     style="fill:#4e9a06;fill-opacity:1;fill-rule:evenodd;stroke-width:1"
     id="focus-hint-right-margin"
     width="2"
     height="0.0010000000475"
     x="-96"
     y="80"
     transform="rotate(-90)" />
  <rect
     id="focusframe-center"
     height="13.999992"
     class="ColorScheme-ViewBackground"
     style="fill:currentColor;opacity:0.00100002;color:#fcfcfc;"
     width="64"
     x="8"
     y="128" />
  <g
     id="focusframe-topleft"
     transform="translate(-147.000000001,157.000999451)"
     class="ColorScheme-ViewFocus"
     style="fill:currentColor;">
    <path
       id="path10"
       style="opacity:0.33;"
       d="m 152,-39.000999 a 7,7 0 0 0 -7,7 h 2 a 5,5 0 0 1 5,-5 z" />
    <path
       id="path1-5-6-6-7-5-2"
       style=""
       d="m 5,120 a 5,5 0 0 0 -5,5 h 1 a 4,4 0 0 1 4,-4 z"
       class=" "
       transform="translate(147,-157.001)" />
  </g>
  <g
     id="focusframe-top"
     style="fill:currentColor"
     transform="matrix(3.4259259,0,0,1,-116.85185,159.001)"
     class="ColorScheme-ViewFocus">
    <path
       id="rect3682-2-3-3-6-9-1"
       style="opacity:0.00100002"
       inkscape:label="hint"
       d="m 5,125.001 h 70 v -5 H 5 Z"
       transform="matrix(0.29189189,0,0,1,34.108108,-159.001)"
       class="ColorScheme-ViewBackground" />
    <rect
       style="opacity:0.33;"
       id="rect3120"
       width="20.432434"
       height="2"
       x="35.567566"
       y="-41" />
    <rect
       id="rect3804-6-6"
       height="1"
       style=""
       width="20.432432"
       x="35.567566"
       y="-39" />
  </g>
  <g
     id="focusframe-topright"
     transform="matrix(-1,0,0,1,227,157.000999451)"
     class="ColorScheme-ViewFocus"
     style="fill:currentColor;">
    <path
       id="path10-7-6"
       style="opacity:0.33;"
       d="m 145,-32.000999 a 7,7 0 0 1 7,-7 v 2 a 5,5 0 0 0 -5,5 z" />
    <path
       id="path1-5-6-6-7-5-2-0-0"
       style=""
       d="m 147,-32.000999 a 5,5 0 0 1 5,-5 v 1 a 4,4 0 0 0 -4,4 z"
       class=" " />
  </g>
  <g
     id="focusframe-bottom"
     style="fill:currentColor;"
     transform="matrix(3.4285714,0,0,-1,-115,111.001)"
     class="ColorScheme-ViewFocus">
    <path
       id="rect3682-2-3-3-6-9-1-2"
       style="opacity:0.00100002"
       inkscape:label="hint"
       d="m 35,-33.999 h 20.416667 v -5 H 35 Z"
       class="ColorScheme-ViewBackground" />
    <rect
       style="opacity:0.33;"
       id="rect3120-5"
       width="20.416668"
       height="2"
       x="35"
       y="38.999001"
       transform="scale(1,-1)" />
    <rect
       id="rect3804-7-65-0"
       height="1"
       style=""
       width="20.416668"
       x="35"
       y="-39" />
  </g>
  <g
     id="focusframe-bottomleft"
     transform="matrix(1,0,0,-1,-147.000000001,113.000999451)"
     class="ColorScheme-ViewFocus"
     style="fill:currentColor;">
    <path
       id="path10-7"
       style="opacity:0.33;"
       d="m 152,-39 a 7,7 0 0 0 -7,7 h 2 a 5,5 0 0 1 5,-5 z" />
    <path
       id="path1-5-6-6-7-5-2-0"
       style=""
       d="m 152,-37 a 5,5 0 0 0 -5,5 h 1 a 4,4 0 0 1 4,-4 z"
       class=" " />
  </g>
  <g
     id="focusframe-bottomright"
     transform="rotate(180,113.5,56.5004997253)"
     class="ColorScheme-ViewFocus"
     style="fill:currentColor;">
    <path
       id="path10-6"
       style="opacity:0.33;"
       d="m 152,-39 a 7,7 0 0 0 -7,7 h 2 a 5,5 0 0 1 5,-5 z" />
    <path
       id="path1-5-6-6-7-5-2-2"
       style=""
       d="m 152,-37 a 5,5 0 0 0 -5,5 h 1 a 4,4 0 0 1 4,-4 z"
       class=" " />
  </g>
  <g
     id="focusframe-left"
     style="stroke-width:0.935415"
     transform="matrix(0,-1.1428571,1,0,39,187.001)">
    <path
       id="rect3682-2-3-3-6-9-1-2-7-0"
       style="opacity:0.00100002"
       inkscape:label="hint"
       d="m 36.750877,-34 h 17.5 v -5 h -17.5 z"
       class="ColorScheme-ViewBackground" />
    <rect
       style="opacity:0.33;fill:currentColor;fill-rule:evenodd;stroke-width:0.714417"
       id="rect4155"
       width="2"
       height="17.499117"
       x="-41"
       y="-54.250877"
       transform="rotate(90)"
       class="ColorScheme-ViewFocus" />
    <rect
       id="rect3804-1-47-8"
       height="1"
       class="ColorScheme-ViewFocus"
       style="opacity:1;fill:currentColor;fill-rule:evenodd;stroke-width:0.280944"
       width="17.499989"
       x="36.75"
       y="-39" />
  </g>
  <g
     id="focusframe-right"
     style="fill:currentColor"
     transform="matrix(0,-1.14285714286,-1,0,41.0000000004,187.000999451)"
     class="ColorScheme-ViewFocus">
    <path
       id="rect3682-2-3-3-6-9-1-2-7"
       style="opacity:0.00100002"
       inkscape:label="hint"
       d="m 36.750875,-39 h 17.5 v 5 h -17.5 z"
       class="ColorScheme-ViewBackground" />
    <rect
       style="opacity:0.33;"
       id="rect4155-3"
       width="2"
       height="17.499998"
       x="39"
       y="-54.250874"
       transform="matrix(0,-1,-1,0,0,0)" />
    <rect
       id="rect3804-1-9-30-2"
       height="1"
       style=""
       width="17.500874"
       x="36.75"
       y="-39" />
  </g>
  <rect
     style="fill:#4e9a06;"
     id="focusframe-hint-top-margin"
     width="2"
     height="2"
     x="40"
     y="118" />
  <rect
     style="fill:#4e9a06;"
     id="focusframe-hint-bottom-margin"
     width="2"
     height="2"
     x="40"
     y="150.00100708" />
  <rect
     style="fill:#4e9a06;"
     id="focusframe-hint-left-margin"
     width="2"
     height="2"
     x="-136.00100708"
     y="-2.00099992752"
     transform="rotate(-90)" />
  <rect
     style="fill:#4e9a06;"
     id="focusframe-hint-right-margin"
     width="2"
     height="2"
     x="-136.00100708"
     y="80"
     transform="rotate(-90)" />
</svg>
