<?xml version="1.0" encoding="UTF-8"?>
<svg width="18px" height="18px" viewBox="0 0 18 18" version="1.1" xmlns="http://www.w3.org/2000/svg" xmlns:xlink="http://www.w3.org/1999/xlink">
    <g id="页面-1" stroke="none" stroke-width="1" fill="none" fill-rule="evenodd">
        <g id="02升级检查-01检查结果-升级条件-未通过" transform="translate(-352.000000, -586.000000)" fill="#536076">
            <g id="应用窗口备份-3" transform="translate(196.000000, 269.000000)">
                <g id="编组-8" transform="translate(156.000000, 200.000000)">
                    <g id="编组-4备份-2" transform="translate(0.000000, 116.000000)">
                        <g id="cpu" transform="translate(0.000000, 1.000000)">
                            <path d="M11.9752066,0.818181818 C12.2832993,0.818181818 12.5330579,1.06794033 12.5330579,1.37603306 L12.5329091,2.30563636 L13.6487603,2.30578512 C14.837118,2.30578512 15.8085081,3.23473386 15.8763773,4.40607809 L15.8801653,4.53719008 L15.8800909,5.46627273 L16.6239669,5.46694215 C16.9320597,5.46694215 17.1818182,5.71670066 17.1818182,6.02479339 C17.1818182,6.33288612 16.9320597,6.58264463 16.6239669,6.58264463 L15.8800909,6.58227273 L15.8800909,11.4169091 L16.6239669,11.4173554 C16.9320597,11.4173554 17.1818182,11.6671139 17.1818182,11.9752066 C17.1818182,12.2832993 16.9320597,12.5330579 16.6239669,12.5330579 L15.8800909,12.5329091 L15.8801653,13.4628099 C15.8801653,14.6511676 14.9512166,15.6225577 13.7798723,15.6904269 L13.6487603,15.6942149 L12.5329091,15.6935455 L12.5330579,16.6239669 C12.5330579,16.9320597 12.2832993,17.1818182 11.9752066,17.1818182 C11.6671139,17.1818182 11.4173554,16.9320597 11.4173554,16.6239669 L11.4169091,15.6935455 L6.58227273,15.6935455 L6.58264463,16.6239669 C6.58264463,16.9320597 6.33288612,17.1818182 6.02479339,17.1818182 C5.71670066,17.1818182 5.46694215,16.9320597 5.46694215,16.6239669 L5.46627273,15.6935455 L4.7231405,15.6942149 C3.53478281,15.6942149 2.56339273,14.7652661 2.49552349,13.5939219 L2.49173554,13.4628099 L2.49173554,12.5330579 L1.37603306,12.5330579 C1.06794033,12.5330579 0.818181818,12.2832993 0.818181818,11.9752066 C0.818181818,11.6671139 1.06794033,11.4173554 1.37603306,11.4173554 L2.49173554,11.4173554 L2.49173554,6.58264463 L1.37603306,6.58264463 C1.06794033,6.58264463 0.818181818,6.33288612 0.818181818,6.02479339 C0.818181818,5.71670066 1.06794033,5.46694215 1.37603306,5.46694215 L2.49173554,5.46694215 L2.49173554,4.53719008 C2.49173554,3.3488324 3.42068427,2.37744232 4.5920285,2.30957308 L4.7231405,2.30578512 L5.46627273,2.30563636 L5.46694215,1.37603306 C5.46694215,1.06794033 5.71670066,0.818181818 6.02479339,0.818181818 C6.33288612,0.818181818 6.58264463,1.06794033 6.58264463,1.37603306 L6.58227273,2.30563636 L11.4169091,2.30563636 L11.4173554,1.37603306 C11.4173554,1.06794033 11.6671139,0.818181818 11.9752066,0.818181818 Z M13.6487603,3.4214876 L4.75536079,3.42102226 L4.65656555,3.42340744 C4.10422774,3.45541063 3.66225367,3.88972515 3.61216792,4.43393441 L3.60743802,4.53719008 L3.60697268,13.4305896 L3.60935786,13.5293849 C3.64136104,14.0817227 4.07567556,14.5236967 4.61988482,14.5737825 L4.7231405,14.5785124 L13.61654,14.5789777 L13.7153353,14.5765926 C14.2676731,14.5445894 14.7096472,14.1102749 14.7597329,13.5660656 L14.7644628,13.4628099 L14.7649282,4.56941038 L14.762543,4.47061514 C14.7305398,3.91827732 14.2962253,3.47630325 13.752016,3.42621751 L13.6487603,3.4214876 Z M6.18800008,7.51239669 C6.86166378,7.51239669 7.36463884,7.91277311 7.46330192,8.47301191 L7.47700618,8.57987135 L6.83681154,8.57987135 C6.76985532,8.25322349 6.52700165,8.06088374 6.17564638,8.06088374 C5.60205625,8.06088374 5.38052481,8.57538709 5.38052481,9.07375589 C5.38052481,9.68924311 5.6858944,10.0821877 6.16707352,10.0821877 C6.52787726,10.0821877 6.75476826,9.88536371 6.83213568,9.51738382 L6.84951696,9.41280142 L7.49797671,9.41280142 C7.43102049,10.1412745 6.97898909,10.6344996 6.16294096,10.6344996 C5.29673062,10.6344996 4.7231405,10.0107473 4.7231405,9.06931558 C4.7231405,8.20310525 5.27576009,7.51239669 6.18800008,7.51239669 Z M11.7487513,7.58383718 L11.7487513,9.36677177 C11.7487513,9.82254005 11.8785751,10.0821877 12.3889459,10.0821877 C12.8558401,10.0821877 12.9792192,9.84409265 12.9944627,9.45836529 L12.996168,9.36677177 L12.996168,7.58388114 L13.6487603,7.58388114 L13.6487603,9.37503688 C13.6487603,10.2251127 13.2516831,10.6221459 12.3806808,10.6221459 C11.5398605,10.6221459 11.1392667,10.2577565 11.0994281,9.49720412 L11.096115,9.36677177 L11.096115,7.58383718 L11.7487513,7.58383718 Z M9.44577395,7.58383718 C10.0904528,7.58383718 10.5383077,7.88503024 10.5383077,8.54210682 C10.5383077,9.15032634 10.1337889,9.45309917 9.58995225,9.48856992 L9.47940593,9.49211134 L8.8096679,9.49211134 L8.8096679,10.5637186 L8.16085645,10.5637186 L8.16085645,7.58383718 L9.44577395,7.58383718 Z M9.3956557,8.11926709 L8.80971187,8.11926709 L8.80971187,8.97725628 L9.39152315,8.97725628 C9.68449506,8.97725628 9.90224565,8.88110839 9.90224565,8.55032797 C9.90224565,8.26116887 9.72228649,8.14150493 9.47255735,8.1221376 L9.3956557,8.11926709 Z" id="形状"></path>
                        </g>
                    </g>
                </g>
            </g>
        </g>
    </g>
</svg>