<?xml version="1.0" encoding="UTF-8"?>
<svg width="162px" height="162px" viewBox="0 0 162 162" version="1.1" xmlns="http://www.w3.org/2000/svg" xmlns:xlink="http://www.w3.org/1999/xlink">
    <defs>
        <linearGradient x1="50%" y1="0%" x2="50%" y2="100%" id="linearGradient-1">
            <stop stop-color="#50D9FE" offset="0%"></stop>
            <stop stop-color="#5DF891" offset="100%"></stop>
        </linearGradient>
    </defs>
    <g id="页面-1" stroke="none" stroke-width="1" fill="none" fill-rule="evenodd">
        <g id="02升级检查" transform="translate(-879.000000, -404.000000)" fill="url(#linearGradient-1)">
            <g id="应用窗口备份" transform="translate(590.000000, 264.000000)">
                <g id="旋转" transform="translate(289.000000, 140.000000)">
                    <path d="M81.1291601,3.31198472 C80.2540309,3.25222083 79.5640839,2.5746191 79.5640839,1.68586387 C79.5640839,0.797108644 80.2540309,0.0689812324 81.1291601,0.00462410244 L81.2553837,0 C85.2371097,0.0626520646 89.2177614,0.320757151 93.1575914,0.913006583 C97.0877531,1.54274016 100.991058,2.3700687 104.794458,3.54921269 C108.588727,4.74335033 112.322837,6.14311526 115.9087,7.86524381 C119.485432,9.60075955 122.960109,11.546722 126.259683,13.7625702 C139.473556,22.6002597 149.946468,35.4048424 155.960147,50.0611416 C162.018945,64.7029826 163.556203,81.120501 160.405414,96.6062707 C159.587369,100.468744 158.570049,104.294268 157.207894,108.003592 C155.83231,111.703812 154.249396,115.331206 152.361393,118.800631 C150.457276,122.258811 148.342605,125.60186 145.978707,128.765522 C143.590101,131.908835 140.993627,134.890966 138.208084,137.68889 C135.382793,140.447722 132.376491,143.015921 129.211199,145.374745 C126.025496,147.7084 122.663615,149.791448 119.189474,151.664048 C115.703517,153.520584 112.063404,155.070821 108.354002,156.41436 C104.635468,157.745047 100.804138,158.73088 96.9395059,159.518047 C81.4455269,162.547301 65.0808642,160.908709 50.5472691,154.820749 C35.9975601,148.777234 36.79788,147.618974 51.1150128,153.45579 C65.4138832,159.336517 81.4632521,160.829456 96.5925216,157.768073 C100.365305,156.972338 104.102638,155.98597 107.725026,154.66278 C111.339356,153.325667 114.882786,151.789888 118.271523,149.955843 C121.649518,148.106268 124.91579,146.053208 128.006422,143.758107 C131.077717,141.437304 133.990559,138.915692 136.725075,136.210943 C139.420381,133.466569 141.928766,130.54709 144.234117,127.472855 C146.513686,124.379342 148.547788,121.114473 150.377244,117.741436 C152.190586,114.357154 153.703674,110.822399 155.016414,107.22178 C156.315725,103.612057 157.277183,99.892559 158.046887,96.1409319 C161.005385,81.0969396 159.40206,65.1988443 153.454984,51.0967749 C147.55249,36.9738214 137.358885,24.6881264 124.580086,16.2632979 C121.389548,14.1513343 118.033039,12.3017597 114.583606,10.6545994 C111.123968,9.02082633 107.526288,7.70084907 103.874359,6.57578935 C100.213835,5.46732974 96.4603882,4.69944034 92.6843821,4.11790066 C88.8992448,3.57438061 85.0770457,3.35322418 81.2553837,3.31627552 L81.1291601,3.31198472 Z" id="路径"></path>
                </g>
            </g>
        </g>
    </g>
</svg>