<?xml version="1.0" encoding="UTF-8"?>
<svg width="128px" height="128px" viewBox="0 0 128 128" version="1.1" xmlns="http://www.w3.org/2000/svg" xmlns:xlink="http://www.w3.org/1999/xlink">
    <defs>
        <linearGradient x1="50%" y1="0%" x2="50%" y2="100%" id="linearGradient-1">
            <stop stop-color="#55C600" offset="0%"></stop>
            <stop stop-color="#00C3B6" offset="100%"></stop>
        </linearGradient>
        <path d="M49,98 C76.0619527,98 98,76.0619527 98,49 C98,21.9380473 76.0619527,0 49,0 C21.9380473,0 0,21.9380473 0,49 C0,76.0619527 21.9380473,98 49,98 Z" id="path-2"></path>
        <filter x="-12.2%" y="-6.1%" width="124.5%" height="124.5%" filterUnits="objectBoundingBox" id="filter-3">
            <feOffset dx="0" dy="6" in="SourceAlpha" result="shadowOffsetOuter1"></feOffset>
            <feGaussianBlur stdDeviation="3" in="shadowOffsetOuter1" result="shadowBlurOuter1"></feGaussianBlur>
            <feColorMatrix values="0 0 0 0 0   0 0 0 0 0.835294118   0 0 0 0 0.270588235  0 0 0 0.3 0" type="matrix" in="shadowBlurOuter1"></feColorMatrix>
        </filter>
    </defs>
    <g id="页面-1" stroke="none" stroke-width="1" fill="none" fill-rule="evenodd">
        <g id="03镜像获取-03镜像检查" transform="translate(-896.000000, -381.000000)">
            <g id="应用窗口备份" transform="translate(590.000000, 269.000000)">
                <g id="编组-4" transform="translate(306.000000, 112.000000)">
                    <g id="icon/fail" transform="translate(15.000000, 15.000000)">
                        <g id="Combined-Shape">
                            <use fill="black" fill-opacity="1" filter="url(#filter-3)" xlink:href="#path-2"></use>
                            <use fill="url(#linearGradient-1)" fill-rule="evenodd" xlink:href="#path-2"></use>
                        </g>
                        <path d="M38.4382219,63.9845183 C41.4382919,67.229833 46.2950661,67.2138646 49.2746411,63.9613939 L75.7817734,35.0265056 C76.9009716,33.8048014 76.8178741,31.9071249 75.5961698,30.7879267 C74.3744656,29.6687284 72.4767891,29.751826 71.3575909,30.9735302 L45.2285673,59.5671381 C44.4864832,60.3792183 43.2797624,60.3829284 42.5206665,59.5617792 L28.2029373,44.0736281 C27.0782368,42.8569873 25.1802046,42.7824551 23.9635639,43.9071557 C22.7469232,45.0318563 22.672391,46.9298884 23.7970915,48.1465291 L38.4382219,63.9845183 Z" id="Path-119" fill="#FFFFFF" fill-rule="nonzero"></path>
                    </g>
                </g>
            </g>
        </g>
    </g>
</svg>