<?xml version="1.0" encoding="UTF-8"?>
<svg width="120px" height="120px" viewBox="0 0 120 120" version="1.1" xmlns="http://www.w3.org/2000/svg" xmlns:xlink="http://www.w3.org/1999/xlink">
    <defs>
        <radialGradient cx="32.7002966%" cy="33.5690736%" fx="32.7002966%" fy="33.5690736%" r="94.5638306%" id="radialGradient-1">
            <stop stop-color="#9BF2FE" offset="0%"></stop>
            <stop stop-color="#62B2FE" offset="100%"></stop>
        </radialGradient>
        <circle id="path-2" cx="40.4255319" cy="40.4255319" r="30.7234043"></circle>
        <filter x="-11.4%" y="-11.4%" width="122.8%" height="122.8%" filterUnits="objectBoundingBox" id="filter-3">
            <feGaussianBlur stdDeviation="6.5" in="SourceAlpha" result="shadowBlurInner1"></feGaussianBlur>
            <feOffset dx="0" dy="1" in="shadowBlurInner1" result="shadowOffsetInner1"></feOffset>
            <feComposite in="shadowOffsetInner1" in2="SourceAlpha" operator="arithmetic" k2="-1" k3="1" result="shadowInnerInner1"></feComposite>
            <feColorMatrix values="0 0 0 0 1   0 0 0 0 1   0 0 0 0 1  0 0 0 1 0" type="matrix" in="shadowInnerInner1"></feColorMatrix>
        </filter>
        <linearGradient x1="48.2069403%" y1="-3.93568183%" x2="50%" y2="100%" id="linearGradient-4">
            <stop stop-color="#86F2F3" offset="0%"></stop>
            <stop stop-color="#005DFF" offset="100%"></stop>
        </linearGradient>
        <linearGradient x1="50%" y1="11.71875%" x2="52.4708046%" y2="84.2839107%" id="linearGradient-5">
            <stop stop-color="#7DE8F4" offset="0%"></stop>
            <stop stop-color="#025FFF" offset="100%"></stop>
        </linearGradient>
    </defs>
    <g id="页面-1" stroke="none" stroke-width="1" fill="none" fill-rule="evenodd">
        <g id="03镜像获取" transform="translate(-309.000000, -494.000000)">
            <g id="应用窗口备份-3" transform="translate(141.000000, 264.000000)">
                <g id="编组" transform="translate(92.000000, 175.000000)">
                    <g id="ICON/Internet-Control" transform="translate(76.000000, 55.000000)">
                        <rect id="矩形" fill="#FF6969" opacity="0" x="0" y="0" width="120" height="120"></rect>
                        <g id="编组-3" transform="translate(11.489362, 16.595745)">
                            <g id="椭圆形">
                                <use fill="url(#radialGradient-1)" fill-rule="evenodd" xlink:href="#path-2"></use>
                                <use fill="black" fill-opacity="1" filter="url(#filter-3)" xlink:href="#path-2"></use>
                            </g>
                            <path d="M81.929078,40.9409512 C81.929078,40.6330685 81.8595877,40.3351175 81.5716993,40.0173031 C81.134903,39.5306498 80.5591261,39.5703766 80.5591261,39.5703766 L57.6471775,39.5703766 C57.2699444,21.2463897 49.4969566,8.42456471 45.436737,2.98199299 C60.2580278,4.72004053 72.4783956,14.9198967 77.1342465,28.6455064 L77.164028,28.6455064 C77.2930815,29.2712035 77.8192224,29.7479251 78.4744168,29.7479251 C79.228883,29.7479251 79.8443686,29.1321597 79.8443686,28.3773504 C79.8443686,28.2681017 79.8046599,28.158853 79.7748783,28.059536 C79.7748783,28.0496043 79.7947327,28.0297409 79.7947327,28.0198092 C79.7748783,27.9701507 79.755024,27.9304239 79.7450968,27.8807654 C79.7351696,27.860902 79.7351696,27.8509703 79.7252424,27.8311069 C74.4539059,12.2979278 60.1190472,0.916199345 43.0442848,0.0521414261 L43.0442848,0.0422097259 L43.0343576,0.0521414261 C41.6644057,-0.0173804754 40.2845267,-0.0173804754 38.8847932,0.0521414261 L38.8847932,0.0620731264 C35.0032629,0.25077543 31.0125336,0.955926146 26.9721683,2.30663738 C10.6220906,7.8087993 0,23.6796562 0,40.9409512 C0,41.3978094 0.188616562,41.675897 0.407014685,41.9142578 C0.764393434,42.3015941 1.36002468,42.3015941 1.36002468,42.3015941 L24.2719733,42.3015941 C24.6591336,60.5163323 32.5016117,73.4374743 36.5519042,78.8999094 C21.710759,77.2015887 9.46060964,66.9918009 4.78490435,53.2363961 L4.75512279,53.2363961 C4.5863606,52.6702892 4.09000123,52.2531578 3.46458842,52.2531578 C2.71012217,52.2531578 2.09463655,52.8689232 2.09463655,53.6237324 C2.09463655,53.802503 2.1343453,53.9614102 2.19390843,54.1203174 L2.19390843,54.1302491 C7.69357027,70.269262 22.9814389,81.929078 40.9595754,81.929078 C41.6445513,81.929078 42.3096729,81.8595561 42.9946488,81.829761 L43.004576,81.8396927 L43.0145032,81.829761 C64.6458447,80.7472057 81.929078,62.8502819 81.929078,40.9409512 Z M41.6743329,2.72376878 C44.3646007,5.95157135 54.4109144,19.4288885 54.8576378,39.5803083 L27.0714402,39.5803083 C27.5181636,19.4388202 37.5644773,5.97143476 40.2547451,2.73370048 C40.4929976,2.73370048 40.7312501,2.69397368 40.9695026,2.69397368 C41.2077551,2.69397368 41.4360804,2.72376878 41.6743329,2.72376878 Z M2.79946686,39.5803083 C3.47451561,20.6008292 17.9384277,5.15703534 36.4923411,2.98199299 C32.4321214,8.42456471 24.6591336,21.2463897 24.2819005,39.5803083 L2.79946686,39.5803083 Z M27.0714402,42.3115258 L54.8576378,42.3115258 C54.4009872,62.284175 44.3050376,75.900536 41.6147698,79.1680654 C41.3963717,79.1680654 41.1779735,79.1978605 40.9595754,79.1978605 C40.7411773,79.1978605 40.5327064,79.1779971 40.3143082,79.1680654 C37.6339676,75.9104677 27.5280908,62.2941067 27.0714402,42.3115258 L27.0714402,42.3115258 Z M45.3573195,78.9197728 C49.4175391,73.4573377 57.2600172,60.5361957 57.6471775,42.3115258 L79.1296112,42.3115258 C78.4545624,61.3208001 63.9509415,76.7844573 45.3573195,78.9197728 L45.3573195,78.9197728 Z" id="形状" fill="url(#linearGradient-4)" fill-rule="nonzero"></path>
                            <path d="M97.0212766,72.5807469 C97.0212766,80.0939602 90.893617,86.2411348 83.4042553,86.2411348 L58.893617,86.2411348 C51.4042553,86.2411348 45.2765957,80.0939602 45.2765957,72.5807469 C45.2765957,71.3513119 45.412766,70.2584809 45.6851064,69.029046 L45.6851064,68.7558382 C45.8212766,68.2094227 45.9574468,67.7996111 46.2297872,67.2531956 C46.2297872,67.1165917 46.3659574,67.1165917 46.3659574,66.9799878 C46.6382979,66.4335723 46.7744681,66.0237607 47.0468085,65.613949 C47.3191489,65.0675335 47.5914894,64.6577219 48,64.2479102 L48.1361702,64.1113064 C48.8170213,63.1550792 49.6340426,62.3354559 50.587234,61.6524365 C50.9957447,61.2426249 51.5404255,60.9694171 52.0851064,60.6962094 C51.9742527,60.4781666 52.210877,57.4536062 52.2212766,57.4177163 C53.7191489,46.8992176 63.387234,39.659212 73.7361702,41.1618547 C83.1319149,42.5278935 90.0765957,50.5875223 90.0765957,60.1497939 L90.0765957,60.5596055 C94.4340426,63.1550792 97.0212766,67.6630072 97.0212766,72.5807469 Z" id="路径" fill="url(#linearGradient-5)" fill-rule="nonzero"></path>
                            <path d="M94.8652482,71.7257078 C94.8652482,78.523377 89.248227,84.0851064 82.3829787,84.0851064 L59.9148936,84.0851064 C53.0496454,84.0851064 47.5574468,79.5377466 47.5574468,72.7400774 C47.5574468,71.6277315 47.6822695,70.6389796 47.9319149,69.5266338 L47.9319149,69.2794458 C48.0567376,68.7850699 48.1815603,68.4142879 48.4312057,67.919912 C48.4312057,67.796318 48.5560284,67.796318 48.5560284,67.672724 C48.8056738,67.178348 48.9304965,66.8075661 49.1801418,66.4367841 C49.4297872,65.9424082 49.6794326,65.5716262 50.0539007,65.2008443 L50.1787234,65.0772503 C50.8028369,64.2120924 51.263916,63.7458325 52.1376749,63.1278625 C52.512143,62.7570806 53.0114338,62.5098926 53.5107246,62.2627046 C59.5022139,58.802073 66.9915756,59.8888012 70.3617884,65.8213125 C71.1107246,67.0572524 71.8978723,68.1414822 72.1475177,69.5010161 L70.8992908,68.2650762 C70.4,67.7707003 69.6510638,67.7707003 69.151773,68.2650762 C68.6524823,68.7594521 68.6524823,69.5010161 69.151773,69.995392 L72.6468085,73.4560236 C73.1460993,73.9503996 73.8950355,73.9503996 74.3943262,73.4560236 L77.8893617,69.995392 C78.3886525,69.5010161 78.3886525,68.7594521 77.8893617,68.2650762 C77.3900709,67.7707003 76.6411348,67.7707003 76.141844,68.2650762 L74.6439716,69.748204 C73.6453901,61.591001 66.1560284,57.2816797 58.0425532,58.2704316 C56.5446809,58.3940256 55.1716312,58.8884015 53.7985816,59.3827775 C55.179396,48.3647019 64.0340426,41.9395572 73.5205674,43.2990911 C82.1333333,44.5350309 88.0438096,52.5312118 88.0438096,61.1827908 L88.0438096,61.5535728 C92.0381359,63.9018585 94.8652482,67.2763243 94.8652482,71.7257078 Z" id="路径" fill="#FFFFFF" fill-rule="nonzero"></path>
                        </g>
                    </g>
                </g>
            </g>
        </g>
    </g>
</svg>