<?xml version="1.0" encoding="UTF-8"?>
<svg width="70px" height="70px" viewBox="0 0 70 70" version="1.1" xmlns="http://www.w3.org/2000/svg" xmlns:xlink="http://www.w3.org/1999/xlink">
    <defs>
        <path d="M14.2064751,2.59153732 L41.1118913,2.59153732 C44.1842405,2.59153732 46.6748717,5.08216846 46.6748717,8.15451767 L46.6748717,32.0143107 C46.6748717,35.0866599 44.1842405,37.5772911 41.1118913,37.5772911 L14.2064751,37.5772911 C11.1341259,37.5772911 8.64349476,35.0866599 8.64349476,32.0143107 L8.64349476,8.15451767 C8.64349476,5.08216846 11.1341259,2.59153732 14.2064751,2.59153732 Z" id="path-1"></path>
        <filter x="-13.1%" y="-11.4%" width="126.3%" height="128.6%" filterUnits="objectBoundingBox" id="filter-2">
            <feOffset dx="0" dy="1" in="SourceAlpha" result="shadowOffsetOuter1"></feOffset>
            <feGaussianBlur stdDeviation="1.5" in="shadowOffsetOuter1" result="shadowBlurOuter1"></feGaussianBlur>
            <feColorMatrix values="0 0 0 0 0   0 0 0 0 0   0 0 0 0 0  0 0 0 0.5 0" type="matrix" in="shadowBlurOuter1"></feColorMatrix>
        </filter>
        <path d="M14.2064751,3.45538309 L40.2475418,3.45538309 C43.3198911,3.45538309 45.8105222,5.94601423 45.8105222,9.01836344 L45.8105222,32.0143107 C45.8105222,35.0866599 43.3198911,37.5772911 40.2475418,37.5772911 L14.2064751,37.5772911 C11.1341259,37.5772911 8.64349476,35.0866599 8.64349476,32.0143107 L8.64349476,9.01836344 C8.64349476,5.94601423 11.1341259,3.45538309 14.2064751,3.45538309 Z" id="path-3"></path>
        <filter x="-13.5%" y="-11.7%" width="126.9%" height="129.3%" filterUnits="objectBoundingBox" id="filter-4">
            <feOffset dx="0" dy="1" in="SourceAlpha" result="shadowOffsetOuter1"></feOffset>
            <feGaussianBlur stdDeviation="1.5" in="shadowOffsetOuter1" result="shadowBlurOuter1"></feGaussianBlur>
            <feColorMatrix values="0 0 0 0 0   0 0 0 0 0   0 0 0 0 0  0 0 0 0.5 0" type="matrix" in="shadowBlurOuter1"></feColorMatrix>
        </filter>
        <linearGradient x1="50%" y1="0%" x2="50%" y2="100%" id="linearGradient-5">
            <stop stop-color="#FF8B5E" offset="0%"></stop>
            <stop stop-color="#FF724E" offset="100%"></stop>
        </linearGradient>
        <linearGradient x1="50%" y1="0%" x2="50%" y2="100%" id="linearGradient-6">
            <stop stop-color="#F4D367" offset="0%"></stop>
            <stop stop-color="#F3AF44" offset="100%"></stop>
        </linearGradient>
        <linearGradient x1="50%" y1="0%" x2="50%" y2="100%" id="linearGradient-7">
            <stop stop-color="#68E0A4" offset="0%"></stop>
            <stop stop-color="#60CB59" offset="100%"></stop>
        </linearGradient>
        <linearGradient x1="44.8926162%" y1="10.9183709%" x2="56.9827498%" y2="89.0816291%" id="linearGradient-8">
            <stop stop-color="#F3F3F3" offset="0%"></stop>
            <stop stop-color="#D6D6D6" offset="100%"></stop>
        </linearGradient>
        <path d="M5.56298035,0 L14.9632753,0 C17.2446043,-3.0836086e-15 19.367966,1.16499725 20.5936101,3.08912264 L23.3325541,7.38896099 C24.2517872,8.83205504 25.8443084,9.70580297 27.5553052,9.70580297 L50.6197356,9.70580297 C53.6920848,9.70580297 56.1827159,12.1964341 56.1827159,15.2687833 L56.1827159,44.1081515 C56.1827159,47.1805007 53.6920848,49.6711319 50.6197356,49.6711319 L5.56298035,49.6711319 C2.49063114,49.6711319 2.69308883e-15,47.1805007 0,44.1081515 L0,5.56298035 C-1.26443268e-15,2.49063114 2.49063114,-2.10015386e-15 5.56298035,0 Z" id="path-9"></path>
        <filter x="-0.9%" y="-1.0%" width="101.8%" height="102.0%" filterUnits="objectBoundingBox" id="filter-10">
            <feOffset dx="0" dy="1" in="SourceAlpha" result="shadowOffsetInner1"></feOffset>
            <feComposite in="shadowOffsetInner1" in2="SourceAlpha" operator="arithmetic" k2="-1" k3="1" result="shadowInnerInner1"></feComposite>
            <feColorMatrix values="0 0 0 0 0.9744617   0 0 0 0 0.986885738   0 0 0 0 1  0 0 0 1 0" type="matrix" in="shadowInnerInner1"></feColorMatrix>
        </filter>
    </defs>
    <g id="页面-1" stroke="none" stroke-width="1" fill="none" fill-rule="evenodd">
        <g id="03镜像获取-02本地获取" transform="translate(-1069.000000, -511.000000)">
            <g id="应用窗口备份-2" transform="translate(590.000000, 264.000000)">
                <g id="编组" transform="translate(92.000000, 175.000000)">
                    <g id="编组-10" transform="translate(288.000000, 0.000000)">
                        <g id="编组-6" transform="translate(10.000000, 62.000000)">
                            <g id="编组-9" transform="translate(82.000000, 10.000000)">
                                <g id="编组-3" transform="translate(7.000000, 0.000000)">
                                    <rect id="矩形" x="0" y="0" width="70" height="70"></rect>
                                    <g id="未预置" transform="translate(6.914894, 10.319149)">
                                        <g id="编组" transform="translate(0.000000, 3.455383)">
                                            <path d="M5.56298035,0 L43.7049398,0 C46.777289,3.23797025e-16 49.2679201,2.49063114 49.2679201,5.56298035 L49.2679201,40.6527684 C49.2679201,43.7251177 46.777289,46.2157488 43.7049398,46.2157488 L5.56298035,46.2157488 C2.49063114,46.2157488 2.1526111e-15,43.7251177 0,40.6527684 L0,5.56298035 C-3.76254263e-16,2.49063114 2.49063114,2.34073823e-15 5.56298035,0 Z" id="矩形" fill="#D8D8D8"></path>
                                            <path d="M5.56298035,1.72769154 L41.9762408,1.72769154 C45.04859,1.72769154 47.5392212,4.21832269 47.5392212,7.2906719 L47.5392212,40.6527684 C47.5392212,43.7251177 45.04859,46.2157488 41.9762408,46.2157488 L5.56298035,46.2157488 C2.49063114,46.2157488 -1.40010258e-15,43.7251177 0,40.6527684 L0,7.2906719 C5.11924157e-16,4.21832269 2.49063114,1.72769154 5.56298035,1.72769154 Z" id="矩形" fill="#FFFFFF"></path>
                                            <g id="矩形">
                                                <use fill="black" fill-opacity="1" filter="url(#filter-2)" xlink:href="#path-1"></use>
                                                <use fill="#FFFFFF" fill-rule="evenodd" xlink:href="#path-1"></use>
                                            </g>
                                            <g id="矩形">
                                                <use fill="black" fill-opacity="1" filter="url(#filter-4)" xlink:href="#path-3"></use>
                                                <use fill="#FFFFFF" fill-rule="evenodd" xlink:href="#path-3"></use>
                                            </g>
                                            <path d="M25.0362324,0.431922886 L28.9856099,0.431922886 C29.4464622,0.431922886 29.8200569,0.805517557 29.8200569,1.26636994 L29.8200569,1.72769154 L29.8200569,1.72769154 L24.2017853,1.72769154 L24.2017853,1.26636994 C24.2017853,0.805517557 24.57538,0.431922886 25.0362324,0.431922886 Z" id="矩形" fill="url(#linearGradient-5)"></path>
                                            <path d="M30.654504,1.29576866 L34.6038814,1.29576866 C35.0647338,1.29576866 35.4383285,1.66936333 35.4383285,2.13021571 L35.4383285,2.59153732 L35.4383285,2.59153732 L29.8200569,2.59153732 L29.8200569,2.13021571 C29.8200569,1.66936333 30.1936516,1.29576866 30.654504,1.29576866 Z" id="矩形" fill="url(#linearGradient-6)"></path>
                                            <path d="M36.2727756,2.15961443 L40.222153,2.15961443 C40.6830054,2.15961443 41.0566001,2.5332091 41.0566001,2.99406148 L41.0566001,3.45538309 L41.0566001,3.45538309 L35.4383285,3.45538309 L35.4383285,2.99406148 C35.4383285,2.5332091 35.8119232,2.15961443 36.2727756,2.15961443 Z" id="矩形" fill="url(#linearGradient-7)"></path>
                                        </g>
                                        <g id="矩形">
                                            <use fill="url(#linearGradient-8)" fill-rule="evenodd" xlink:href="#path-9"></use>
                                            <use fill="black" fill-opacity="1" filter="url(#filter-10)" xlink:href="#path-9"></use>
                                        </g>
                                    </g>
                                </g>
                            </g>
                        </g>
                    </g>
                </g>
            </g>
        </g>
    </g>
</svg>