<?xml version="1.0" encoding="UTF-8"?>
<svg width="146px" height="138px" viewBox="0 0 146 138" version="1.1" xmlns="http://www.w3.org/2000/svg" xmlns:xlink="http://www.w3.org/1999/xlink">
    <defs>
        <radialGradient cx="53.3679035%" cy="10.0954582%" fx="53.3679035%" fy="10.0954582%" r="100%" gradientTransform="translate(0.533679,0.100955),scale(0.944144,1.000000),rotate(90.000000),translate(-0.533679,-0.100955)" id="radialGradient-1">
            <stop stop-color="#00D3F3" offset="0%"></stop>
            <stop stop-color="#008DEA" offset="100%"></stop>
        </radialGradient>
        <path d="M0,0 L67.5555556,0 C73.8393287,-1.1543104e-15 78.9333333,5.09400462 78.9333333,11.3777778 L78.9333333,63.1466667 C78.9333333,69.4304398 73.8393287,74.5244444 67.5555556,74.5244444 L0,74.5244444 L0,74.5244444 L0,0 Z" id="path-2"></path>
        <filter x="-1.9%" y="-2.0%" width="103.8%" height="104.0%" filterUnits="objectBoundingBox" id="filter-3">
            <feGaussianBlur stdDeviation="1" in="SourceAlpha" result="shadowBlurInner1"></feGaussianBlur>
            <feOffset dx="-1" dy="-1" in="shadowBlurInner1" result="shadowOffsetInner1"></feOffset>
            <feComposite in="shadowOffsetInner1" in2="SourceAlpha" operator="arithmetic" k2="-1" k3="1" result="shadowInnerInner1"></feComposite>
            <feColorMatrix values="0 0 0 0 0.583525703   0 0 0 0 0.880801058   0 0 0 0 0.989560335  0 0 0 1 0" type="matrix" in="shadowInnerInner1"></feColorMatrix>
        </filter>
        <filter x="-82.2%" y="-95.2%" width="264.4%" height="290.5%" filterUnits="objectBoundingBox" id="filter-4">
            <feGaussianBlur stdDeviation="14.2222222" in="SourceGraphic"></feGaussianBlur>
        </filter>
        <path d="M0,0 L67.5555556,0 C73.8393287,-1.1543104e-15 78.9333333,5.09400462 78.9333333,11.3777778 L78.9333333,63.1466667 C78.9333333,69.4304398 73.8393287,74.5244444 67.5555556,74.5244444 L0,74.5244444 L0,74.5244444 L0,0 Z" id="path-5"></path>
        <filter x="-2.5%" y="-2.7%" width="105.1%" height="105.4%" filterUnits="objectBoundingBox" id="filter-6">
            <feGaussianBlur stdDeviation="0.5" in="SourceAlpha" result="shadowBlurInner1"></feGaussianBlur>
            <feOffset dx="0" dy="3" in="shadowBlurInner1" result="shadowOffsetInner1"></feOffset>
            <feComposite in="shadowOffsetInner1" in2="SourceAlpha" operator="arithmetic" k2="-1" k3="1" result="shadowInnerInner1"></feComposite>
            <feColorMatrix values="0 0 0 0 0.778550162   0 0 0 0 0.941337791   0 0 0 0 1  0 0 0 1 0" type="matrix" in="shadowInnerInner1"></feColorMatrix>
        </filter>
        <radialGradient cx="48.6350537%" cy="50%" fx="48.6350537%" fy="50%" r="51.021152%" gradientTransform="translate(0.486351,0.500000),scale(0.707317,1.000000),rotate(88.683399),scale(1.000000,1.332216),translate(-0.486351,-0.500000)" id="radialGradient-7">
            <stop stop-color="#009ECE" stop-opacity="0.225037902" offset="0%"></stop>
            <stop stop-color="#23AAEE" stop-opacity="0" offset="100%"></stop>
        </radialGradient>
        <linearGradient x1="50%" y1="0%" x2="50%" y2="100%" id="linearGradient-8">
            <stop stop-color="#FF674A" offset="0%"></stop>
            <stop stop-color="#EC5783" offset="100%"></stop>
        </linearGradient>
        <path d="M10.589083,0 C16.4481075,0 21.1978497,4.72701265 21.1978497,10.5554891 C21.1978497,16.3839656 16.4481075,21.1109782 10.589083,21.1109782 C4.73990241,21.1109782 0,16.3839716 0,10.5554891 C0,4.72700671 4.73990241,0 10.589083,0 Z" id="path-9"></path>
        <filter x="-9.4%" y="-4.7%" width="118.9%" height="118.9%" filterUnits="objectBoundingBox" id="filter-10">
            <feOffset dx="0" dy="1" in="SourceAlpha" result="shadowOffsetOuter1"></feOffset>
            <feGaussianBlur stdDeviation="0.5" in="shadowOffsetOuter1" result="shadowBlurOuter1"></feGaussianBlur>
            <feColorMatrix values="0 0 0 0 1   0 0 0 0 0.443137255   0 0 0 0 0.443137255  0 0 0 0.3 0" type="matrix" in="shadowBlurOuter1"></feColorMatrix>
        </filter>
        <linearGradient x1="50%" y1="0%" x2="50%" y2="24.5242853%" id="linearGradient-11">
            <stop stop-color="#FFFFFF" offset="0%"></stop>
            <stop stop-color="#FFFFFF" stop-opacity="0" offset="100%"></stop>
        </linearGradient>
        <radialGradient cx="50%" cy="50%" fx="50%" fy="50%" r="112.658425%" gradientTransform="translate(0.500000,0.500000),scale(0.385135,1.000000),scale(1.000000,0.304672),translate(-0.500000,-0.500000)" id="radialGradient-12">
            <stop stop-color="#B1DFFF" offset="0%"></stop>
            <stop stop-color="#D4F1FE" stop-opacity="0" offset="100%"></stop>
        </radialGradient>
        <filter x="-2.5%" y="-6.6%" width="105.1%" height="113.2%" filterUnits="objectBoundingBox" id="filter-13">
            <feGaussianBlur stdDeviation="0.888888889" in="SourceGraphic"></feGaussianBlur>
        </filter>
        <radialGradient cx="50%" cy="50%" fx="50%" fy="50%" r="620.089738%" gradientTransform="translate(0.500000,0.500000),scale(0.079365,1.000000),scale(1.000000,0.071987),translate(-0.500000,-0.500000)" id="radialGradient-14">
            <stop stop-color="#D8EFFD" offset="0%"></stop>
            <stop stop-color="#B3DCFF" stop-opacity="0" offset="100%"></stop>
        </radialGradient>
        <radialGradient cx="50%" cy="50%" fx="50%" fy="50%" r="1710.16813%" gradientTransform="translate(0.500000,0.500000),scale(0.028777,1.000000),scale(1.000000,0.013063),translate(-0.500000,-0.500000)" id="radialGradient-15">
            <stop stop-color="#FFFFFF" stop-opacity="0.995473976" offset="0%"></stop>
            <stop stop-color="#FFFFFF" stop-opacity="0" offset="100%"></stop>
        </radialGradient>
        <linearGradient x1="0%" y1="50%" x2="99.2134713%" y2="50%" id="linearGradient-16">
            <stop stop-color="#FFFFFF" stop-opacity="0" offset="0%"></stop>
            <stop stop-color="#FFFFFF" stop-opacity="0.891541755" offset="49.7980275%"></stop>
            <stop stop-color="#FFFFFF" stop-opacity="0" offset="100%"></stop>
        </linearGradient>
        <radialGradient cx="77.6888131%" cy="43.1868162%" fx="77.6888131%" fy="43.1868162%" r="225.764522%" gradientTransform="translate(0.776888,0.431868),scale(0.394103,1.000000),rotate(177.068515),scale(1.000000,0.505608),translate(-0.776888,-0.431868)" id="radialGradient-17">
            <stop stop-color="#00C9FF" offset="0%"></stop>
            <stop stop-color="#F5FDFF" offset="100%"></stop>
        </radialGradient>
        <path d="M2.39905722,18.6615441 C-1.2559829,42.4106214 15.4669545,49.4972658 52.5678693,39.9214775 C54.9419228,39.2450262 80.6277523,30.8353549 92.2735336,16.9128115 C93.4734173,15.5557953 95.3738386,15.1327118 97.9747974,15.6435611 C102.272684,24.2889977 104.265208,28.9919722 103.952369,29.7524846 C85.151838,39.2364783 75.521224,47.3477974 54.7725574,52.7948775 C10.6154572,63.0011127 -6.84237621,51.623335 2.39905722,18.6615441 Z" id="path-18"></path>
        <filter x="-3.8%" y="-9.8%" width="107.7%" height="119.5%" filterUnits="objectBoundingBox" id="filter-19">
            <feGaussianBlur stdDeviation="2" in="SourceAlpha" result="shadowBlurInner1"></feGaussianBlur>
            <feOffset dx="0" dy="4" in="shadowBlurInner1" result="shadowOffsetInner1"></feOffset>
            <feComposite in="shadowOffsetInner1" in2="SourceAlpha" operator="arithmetic" k2="-1" k3="1" result="shadowInnerInner1"></feComposite>
            <feColorMatrix values="0 0 0 0 0.874067502   0 0 0 0 0.981570854   0 0 0 0 1  0 0 0 1 0" type="matrix" in="shadowInnerInner1"></feColorMatrix>
        </filter>
        <radialGradient cx="83.1789714%" cy="16.3871262%" fx="83.1789714%" fy="16.3871262%" r="67.0533431%" gradientTransform="translate(0.831790,0.163871),scale(0.942637,1.000000),rotate(136.199732),scale(1.000000,1.608251),translate(-0.831790,-0.163871)" id="radialGradient-20">
            <stop stop-color="#00C8FF" offset="0%"></stop>
            <stop stop-color="#79DFF7" offset="100%"></stop>
        </radialGradient>
        <path d="M77.6078543,17.5521053 L122.299729,0 C108.534046,28.0310749 101.63712,42.0738119 101.608952,42.1282108 C97.3380333,29.7601188 89.3376674,21.5680837 77.6078543,17.5521053 Z" id="path-21"></path>
        <filter x="-9.0%" y="-9.5%" width="117.9%" height="119.0%" filterUnits="objectBoundingBox" id="filter-22">
            <feGaussianBlur stdDeviation="2" in="SourceAlpha" result="shadowBlurInner1"></feGaussianBlur>
            <feOffset dx="0" dy="4" in="shadowBlurInner1" result="shadowOffsetInner1"></feOffset>
            <feComposite in="shadowOffsetInner1" in2="SourceAlpha" operator="arithmetic" k2="-1" k3="1" result="shadowInnerInner1"></feComposite>
            <feColorMatrix values="0 0 0 0 0.874067502   0 0 0 0 0.981570854   0 0 0 0 1  0 0 0 1 0" type="matrix" in="shadowInnerInner1"></feColorMatrix>
        </filter>
    </defs>
    <g id="页面-1" stroke="none" stroke-width="1" fill="none" fill-rule="evenodd">
        <g id="应用迁移-网络中断" transform="translate(-878.000000, -366.000000)">
            <g id="应用窗口备份" transform="translate(590.000000, 264.000000)">
                <g id="椭圆形" transform="translate(10.000000, 60.000000)">
                    <g id="编组-5" transform="translate(124.000000, 52.000000)">
                        <g id="升级中插图" transform="translate(172.000000, 0.000000)">
                            <rect id="矩形" x="0" y="0" width="128" height="128"></rect>
                            <g id="编组-6">
                                <g id="电脑">
                                    <g>
                                        <rect id="矩形" x="0" y="0" width="128" height="128"></rect>
                                        <g id="编组-16" transform="translate(7.822222, 12.800000)">
                                            <path d="M22.6133341,2.13333333 L90.0266659,2.13333333 C101.337458,2.13333333 110.506667,11.302542 110.506667,22.6133341 L110.506667,61.8666659 C110.506667,73.177458 101.337458,82.3466667 90.0266659,82.3466667 L22.6133341,82.3466667 C11.302542,82.3466667 2.13333333,73.177458 2.13333333,61.8666659 L2.13333333,22.6133341 C2.13333333,11.302542 11.302542,2.13333333 22.6133341,2.13333333 Z" id="矩形" fill="#E4FAFF"></path>
                                            <g id="编组-4" transform="translate(44.586667, 42.240000) scale(-1, 1) translate(-44.586667, -42.240000) translate(5.120000, 4.977778)">
                                                <g id="矩形" opacity="0.572342646">
                                                    <use fill="url(#radialGradient-1)" fill-rule="evenodd" xlink:href="#path-2"></use>
                                                    <use fill="black" fill-opacity="1" filter="url(#filter-3)" xlink:href="#path-2"></use>
                                                </g>
                                                <ellipse id="椭圆形" fill="#008DFF" filter="url(#filter-4)" cx="40.6044444" cy="37.3333333" rx="25.9555556" ry="22.4"></ellipse>
                                                <g id="矩形" opacity="0.572342646" fill="black" fill-opacity="1">
                                                    <use filter="url(#filter-6)" xlink:href="#path-5"></use>
                                                </g>
                                            </g>
                                            <path d="M16.64,5.12 L16.64,15.99744 L25.6,15.99744 L25.6,5.12 L26.88,5.12 L26.88,15.99744 L35.84,15.99744 L35.84,5.12 L37.12,5.12 L37.12,15.99744 L46.08,15.99744 L46.08,5.12 L47.36,5.12 L47.36,15.99744 L56.32,15.99744 L56.32,5.12 L57.6,5.12 L57.6,15.99744 L66.56,15.99744 L66.56,5.12 L67.84,5.12 L67.84,15.99744 L76.8,15.99744 L76.8,5.12 L78.08,5.12 L78.08,15.99744 L87.04,15.99744 L87.04,5.12 L88.32,5.12 L88.32,15.99744 L97.28,15.99744 L97.28,5.12 L98.56,5.12 L98.56,15.99744 L109.44,16 L109.44,17.28 L98.56,17.27744 L98.56,28.79744 L109.44,28.8 L109.44,30.08 L98.56,30.07744 L98.56,41.59744 L109.44,41.6 L109.44,42.88 L98.56,42.87744 L98.56,54.39744 L109.44,54.4 L109.44,55.68 L98.56,55.67744 L98.56,67.19744 L109.44,67.2 L109.44,68.48 L98.56,68.47744 L98.56,79.36 L97.28,79.36 L97.28,68.47744 L88.32,68.47744 L88.32,79.36 L87.04,79.36 L87.04,68.47744 L78.08,68.47744 L78.08,79.36 L76.8,79.36 L76.8,68.47744 L67.84,68.47744 L67.84,79.36 L66.56,79.36 L66.56,68.47744 L57.6,68.47744 L57.6,79.36 L56.32,79.36 L56.32,68.47744 L47.36,68.47744 L47.36,79.36 L46.08,79.36 L46.08,68.47744 L37.12,68.47744 L37.12,79.36 L35.84,79.36 L35.84,68.47744 L26.88,68.47744 L26.88,79.36 L25.6,79.36 L25.6,68.47744 L16.64,68.47744 L16.64,79.36 L15.36,79.36 L15.36,68.47744 L4.48,68.48 L4.48,67.2 L15.36,67.19744 L15.36,55.67744 L4.48,55.68 L4.48,54.4 L15.36,54.39744 L15.36,42.87744 L4.48,42.88 L4.48,41.6 L15.36,41.59744 L15.36,30.07744 L4.48,30.08 L4.48,28.8 L15.36,28.79744 L15.36,17.27744 L4.48,17.28 L4.48,16 L15.36,15.99744 L15.36,5.12 L16.64,5.12 Z M76.8,55.67744 L67.84,55.67744 L67.84,67.19744 L76.8,67.19744 L76.8,55.67744 Z M35.84,55.67744 L26.88,55.67744 L26.88,67.19744 L35.84,67.19744 L35.84,55.67744 Z M25.6,55.67744 L16.64,55.67744 L16.64,67.19744 L25.6,67.19744 L25.6,55.67744 Z M46.08,55.67744 L37.12,55.67744 L37.12,67.19744 L46.08,67.19744 L46.08,55.67744 Z M66.56,55.67744 L57.6,55.67744 L57.6,67.19744 L66.56,67.19744 L66.56,55.67744 Z M87.04,55.67744 L78.08,55.67744 L78.08,67.19744 L87.04,67.19744 L87.04,55.67744 Z M56.32,55.67744 L47.36,55.67744 L47.36,67.19744 L56.32,67.19744 L56.32,55.67744 Z M97.28,55.67744 L88.32,55.67744 L88.32,67.19744 L97.28,67.19744 L97.28,55.67744 Z M87.04,42.87744 L78.08,42.87744 L78.08,54.39744 L87.04,54.39744 L87.04,42.87744 Z M66.56,42.87744 L57.6,42.87744 L57.6,54.39744 L66.56,54.39744 L66.56,42.87744 Z M46.08,42.87744 L37.12,42.87744 L37.12,54.39744 L46.08,54.39744 L46.08,42.87744 Z M25.6,42.87744 L16.64,42.87744 L16.64,54.39744 L25.6,54.39744 L25.6,42.87744 Z M35.84,42.87744 L26.88,42.87744 L26.88,54.39744 L35.84,54.39744 L35.84,42.87744 Z M56.32,42.87744 L47.36,42.87744 L47.36,54.39744 L56.32,54.39744 L56.32,42.87744 Z M76.8,42.87744 L67.84,42.87744 L67.84,54.39744 L76.8,54.39744 L76.8,42.87744 Z M97.28,42.87744 L88.32,42.87744 L88.32,54.39744 L97.28,54.39744 L97.28,42.87744 Z M87.04,30.07744 L78.08,30.07744 L78.08,41.59744 L87.04,41.59744 L87.04,30.07744 Z M66.56,30.07744 L57.6,30.07744 L57.6,41.59744 L66.56,41.59744 L66.56,30.07744 Z M46.08,30.07744 L37.12,30.07744 L37.12,41.59744 L46.08,41.59744 L46.08,30.07744 Z M25.6,30.07744 L16.64,30.07744 L16.64,41.59744 L25.6,41.59744 L25.6,30.07744 Z M35.84,30.07744 L26.88,30.07744 L26.88,41.59744 L35.84,41.59744 L35.84,30.07744 Z M56.32,30.07744 L47.36,30.07744 L47.36,41.59744 L56.32,41.59744 L56.32,30.07744 Z M76.8,30.07744 L67.84,30.07744 L67.84,41.59744 L76.8,41.59744 L76.8,30.07744 Z M97.28,30.07744 L88.32,30.07744 L88.32,41.59744 L97.28,41.59744 L97.28,30.07744 Z M87.04,17.27744 L78.08,17.27744 L78.08,28.79744 L87.04,28.79744 L87.04,17.27744 Z M66.56,17.27744 L57.6,17.27744 L57.6,28.79744 L66.56,28.79744 L66.56,17.27744 Z M46.08,17.27744 L37.12,17.27744 L37.12,28.79744 L46.08,28.79744 L46.08,17.27744 Z M25.6,17.27744 L16.64,17.27744 L16.64,28.79744 L25.6,28.79744 L25.6,17.27744 Z M35.84,17.27744 L26.88,17.27744 L26.88,28.79744 L35.84,28.79744 L35.84,17.27744 Z M56.32,17.27744 L47.36,17.27744 L47.36,28.79744 L56.32,28.79744 L56.32,17.27744 Z M76.8,17.27744 L67.84,17.27744 L67.84,28.79744 L76.8,28.79744 L76.8,17.27744 Z M97.28,17.27744 L88.32,17.27744 L88.32,28.79744 L97.28,28.79744 L97.28,17.27744 Z" id="形状" fill="url(#radialGradient-7)"></path>
                                            <path d="M92.16,0 C103.470792,0 112.64,9.16920832 112.64,20.48 L112.64,64 C112.64,75.3107917 103.470792,84.48 92.16,84.48 L61.44,84.48 L61.44,97.28 L51.2,97.28 L51.2,84.48 L20.48,84.48 C9.16920832,84.48 0,75.3107917 0,64 L0,20.48 C0,9.16920832 9.16920832,0 20.48,0 L92.16,0 Z M92.16,5.12 L20.48,5.12 C12.1897038,5.12 5.43341629,11.6878717 5.13059449,19.904158 L5.12,20.48 L5.12,64 C5.12,72.2902962 11.6878717,79.0465837 19.904158,79.3494055 L20.48,79.36 L92.16,79.36 C100.450296,79.36 107.206584,72.7921283 107.509406,64.575842 L107.52,64 L107.52,20.48 C107.52,12.1897038 100.952128,5.43341629 92.735842,5.13059449 L92.16,5.12 Z M40.96,97.28 L71.68,97.28 C73.093849,97.28 74.24,98.426151 74.24,99.84 C74.24,101.253849 73.093849,102.4 71.68,102.4 L40.96,102.4 C39.546151,102.4 38.4,101.253849 38.4,99.84 C38.4,98.426151 39.546151,97.28 40.96,97.28 Z" id="形状结合" fill="#2B3349" fill-rule="nonzero"></path>
                                        </g>
                                        <g id="logo" transform="translate(41.813333, 39.880076)">
                                            <g id="编组" transform="translate(6.400000, 0.000000)">
                                                <path d="M17.7679199,23.3867692 C19.5646574,23.3867692 21.021201,24.8373436 21.021201,26.6267179 C21.021201,28.4160922 19.5646574,29.8666667 17.7679199,29.8666667 C15.9711823,29.8666667 14.5146388,28.4160922 14.5146388,26.6267179 C14.5146388,24.8373436 15.9711823,23.3867692 17.7679199,23.3867692 Z M17.7679199,16.9068717 C21.0631527,16.9068717 24.0184814,18.3364611 26.0262488,20.5987194 L23.6948639,22.8883155 C22.2888425,21.206924 20.1558814,20.134428 17.7679199,20.134428 C15.3799583,20.134428 13.2469972,21.206924 11.8409758,22.8883155 L9.50959092,20.5987194 C11.5173583,18.3364611 14.472687,16.9068717 17.7679199,16.9068717 Z M18.0181723,9.92852055 C23.1679853,9.92852055 27.8029965,12.1081777 31.0312967,15.5854857 L28.6871707,17.903779 C26.060502,15.0178455 22.2536283,13.2032399 18.0181723,13.2032399 C13.7827162,13.2032399 9.97584252,15.0178455 7.34917386,17.903779 L5.00504785,15.5854857 C8.23334808,12.1081777 12.8683592,9.92852055 18.0181723,9.92852055 Z M17.7679199,3.44862307 C24.7734485,3.44862307 31.0888494,6.38249488 35.5358397,11.0802963 L33.1855485,13.4176961 C29.3412603,9.3155363 23.8563776,6.74961702 17.7679199,6.74961702 C11.6805459,6.74961702 6.19653206,9.31462292 2.35234424,13.4155057 L0,11.0802963 C4.44699037,6.38249488 10.7623913,3.44862307 17.7679199,3.44862307 Z" id="形状结合" fill="#FFFFFF" fill-rule="nonzero"></path>
                                                <g id="warning" transform="translate(21.468817, 0.000000)">
                                                    <g id="Shape">
                                                        <use fill="black" fill-opacity="1" filter="url(#filter-10)" xlink:href="#path-9"></use>
                                                        <use fill="url(#linearGradient-8)" fill-rule="evenodd" xlink:href="#path-9"></use>
                                                    </g>
                                                    <rect id="矩形" fill="#FFFFFF" x="9.53903238" y="4.22219565" width="2.11978497" height="7.38884238" rx="0.300302871"></rect>
                                                    <ellipse id="椭圆形" fill="#FFFFFF" cx="10.5989249" cy="15.3054592" rx="1.58983873" ry="1.58332337"></ellipse>
                                                </g>
                                            </g>
                                        </g>
                                    </g>
                                    <path d="M28.1599995,19.2 L100.551112,19.2 C107.934545,19.2 113.92,25.1854552 113.92,32.5688883 L113.92,74.6666672 C113.92,82.0501004 107.934545,88.0355556 100.551112,88.0355556 L28.1599995,88.0355556 C20.7765663,88.0355556 14.7911111,82.0501004 14.7911111,74.6666672 L14.7911111,32.5688883 C14.7911111,25.1854552 20.7765663,19.2 28.1599995,19.2 Z" id="矩形" fill="url(#linearGradient-11)"></path>
                                    <path d="M28.1599995,22.0444444 L100.551112,22.0444444 C107.934545,22.0444444 113.92,28.0298996 113.92,35.4133328 L113.92,77.5111117 C113.92,84.8945448 107.934545,90.88 100.551112,90.88 L28.1599995,90.88 C20.7765663,90.88 14.7911111,84.8945448 14.7911111,77.5111117 L14.7911111,35.4133328 C14.7911111,28.0298996 20.7765663,22.0444444 28.1599995,22.0444444 Z" id="矩形" fill="url(#linearGradient-11)" opacity="0.260710217" transform="translate(64.355556, 56.462222) scale(1, -1) translate(-64.355556, -56.462222) "></path>
                                </g>
                                <g id="编组-3" transform="translate(92.444444, 57.244444) rotate(-90.000000) translate(-92.444444, -57.244444) translate(39.822222, 36.977778)">
                                    <polygon id="矩形" fill="url(#radialGradient-12)" opacity="0.799153646" filter="url(#filter-13)" points="0 18.05 52.6222222 0 105.244444 16.15 105.244444 25.0166667 53.3003436 40.5333333 0 26.9166667"></polygon>
                                    <rect id="矩形备份-7" fill="url(#radialGradient-14)" x="8.17777778" y="16.7111111" width="89.6" height="7.11111111"></rect>
                                    <rect id="矩形备份-10" fill="url(#radialGradient-15)" opacity="0.95265997" x="2.84444444" y="18.4888889" width="98.8444444" height="2.84444444"></rect>
                                    <rect id="矩形备份-22" fill="url(#linearGradient-16)" opacity="0.95265997" x="22.7555556" y="19.2" width="59.7333333" height="1"></rect>
                                </g>
                                <g id="箭头" transform="translate(5.280943, 51.738456)">
                                    <g id="路径-6">
                                        <use fill="url(#radialGradient-17)" fill-rule="evenodd" xlink:href="#path-18"></use>
                                        <use fill="black" fill-opacity="1" filter="url(#filter-19)" xlink:href="#path-18"></use>
                                    </g>
                                    <path d="M1.86500228,26.5563641 L2.29019557,26.5917917 C1.57687179,35.1529349 4.53831644,41.3281637 10.0890411,45.4728439 C13.7438991,48.2018962 18.3219318,49.7909899 21.1858525,50.0713884 C48.1795786,51.7781777 72.1331208,44.2722522 93.0566645,27.550509 L94.1362146,26.6773726 L94.4064507,27.0075497 C73.1448973,44.4092397 48.7254827,52.2402134 21.1516124,50.4966156 C18.2073607,50.2084826 13.5556362,48.5938095 9.83376548,45.8147194 C4.33977256,41.7124002 1.32511836,35.6490609 1.80932612,27.3417566 L1.86500228,26.5563641 Z" id="路径-7" fill="#CAF6FF" fill-rule="nonzero"></path>
                                    <g id="路径-5">
                                        <use fill="url(#radialGradient-20)" fill-rule="evenodd" xlink:href="#path-21"></use>
                                        <use fill="black" fill-opacity="1" filter="url(#filter-22)" xlink:href="#path-21"></use>
                                    </g>
                                </g>
                            </g>
                        </g>
                    </g>
                </g>
            </g>
        </g>
    </g>
</svg>