<?xml version="1.0" encoding="UTF-8"?>
<svg width="18px" height="18px" viewBox="0 0 18 18" version="1.1" xmlns="http://www.w3.org/2000/svg" xmlns:xlink="http://www.w3.org/1999/xlink">
    <g id="页面-1" stroke="none" stroke-width="1" fill="none" fill-rule="evenodd">
        <g id="02升级检查-01检查结果-升级条件-未通过" transform="translate(-352.000000, -644.000000)" fill="#536076">
            <g id="应用窗口备份-3" transform="translate(196.000000, 269.000000)">
                <g id="编组-8" transform="translate(156.000000, 200.000000)">
                    <g id="编组-4备份-3" transform="translate(0.000000, 174.000000)">
                        <g id="-mockplus-" transform="translate(0.000000, 1.000000)">
                            <g id="编组-5" transform="translate(2.454545, 1.840909)">
                                <path d="M9.53809428,0 C10.891834,0 12.0785357,0.885896009 12.4801966,2.21062785 L12.5245882,2.37167347 L13.8288607,10.1650011 C13.8813023,10.381723 13.9090909,10.6080709 13.9090909,10.8409091 C13.9090909,12.4224518 12.6269972,13.7045455 11.0454545,13.7045455 L2.86363636,13.7045455 C1.28209367,13.7045455 0,12.4224518 0,10.8409091 C0,10.6288652 0.0230467329,10.4222042 0.0667719304,10.2232943 L1.39442305,2.32403842 C1.72275317,1.01071794 2.87001596,0.0743096074 4.20938976,0.00422097876 L4.37099663,0 L9.53809428,0 Z M11.0454545,9.20454545 L2.86363636,9.20454545 C1.95989768,9.20454545 1.22727273,9.93717041 1.22727273,10.8409091 C1.22727273,11.7035687 1.8948091,12.4103169 2.74151263,12.4727844 L2.86363636,12.4772727 L11.0454545,12.4772727 C11.9491932,12.4772727 12.6818182,11.7446478 12.6818182,10.8409091 C12.6818182,10.7350895 12.6717737,10.6316159 12.6525861,10.5313898 L12.6448329,10.5330118 L12.6272196,10.4201628 C12.451603,9.7582235 11.8715101,9.26096795 11.1675783,9.20903378 L11.0454545,9.20454545 Z M8.66404051,10.1257497 C8.967121,10.1257497 9.21281628,10.371445 9.21281628,10.6745255 C9.21281628,10.977606 8.967121,11.2233012 8.66404051,11.2233012 L5.67068296,11.2233012 C5.36760247,11.2233012 5.12190719,10.977606 5.12190719,10.6745255 C5.12190719,10.371445 5.36760247,10.1257497 5.67068296,10.1257497 L8.66404051,10.1257497 Z M9.53809428,1.22727273 L4.37099663,1.22727273 C3.57319267,1.22727273 2.87207978,1.74007921 2.63213064,2.44892362 L2.59464803,2.57598434 L1.62566593,8.25795833 C2.0003467,8.07805333 2.42022225,7.97727273 2.86363636,7.97727273 L11.0454545,7.97727273 C11.4811065,7.97727273 11.8940368,8.07455579 12.2637067,8.24858322 L11.3240384,2.62169578 C11.1305425,1.84771224 10.4630023,1.29190668 9.67780696,1.23253934 L9.53809428,1.22727273 Z" id="形状"></path>
                            </g>
                        </g>
                    </g>
                </g>
            </g>
        </g>
    </g>
</svg>