<?xml version="1.0" encoding="UTF-8"?>
<svg width="128px" height="128px" viewBox="0 0 128 128" version="1.1" xmlns="http://www.w3.org/2000/svg" xmlns:xlink="http://www.w3.org/1999/xlink">
    <defs>
        <radialGradient cx="53.3679035%" cy="10.0954582%" fx="53.3679035%" fy="10.0954582%" r="100%" gradientTransform="translate(0.533679,0.100955),scale(0.944144,1.000000),rotate(90.000000),translate(-0.533679,-0.100955)" id="radialGradient-1">
            <stop stop-color="#00D3F3" offset="0%"></stop>
            <stop stop-color="#008DEA" offset="100%"></stop>
        </radialGradient>
        <path d="M0,0 L67.5555556,0 C73.8393287,-2.93066724e-15 78.9333333,5.09400462 78.9333333,11.3777778 L78.9333333,63.1466667 C78.9333333,69.4304398 73.8393287,74.5244444 67.5555556,74.5244444 L0,74.5244444 L0,74.5244444 L0,0 Z" id="path-2"></path>
        <filter x="-1.9%" y="-2.0%" width="103.8%" height="104.0%" filterUnits="objectBoundingBox" id="filter-3">
            <feGaussianBlur stdDeviation="1" in="SourceAlpha" result="shadowBlurInner1"></feGaussianBlur>
            <feOffset dx="-1" dy="-1" in="shadowBlurInner1" result="shadowOffsetInner1"></feOffset>
            <feComposite in="shadowOffsetInner1" in2="SourceAlpha" operator="arithmetic" k2="-1" k3="1" result="shadowInnerInner1"></feComposite>
            <feColorMatrix values="0 0 0 0 0.583525703   0 0 0 0 0.880801058   0 0 0 0 0.989560335  0 0 0 1 0" type="matrix" in="shadowInnerInner1"></feColorMatrix>
        </filter>
        <filter x="-82.2%" y="-95.2%" width="264.4%" height="290.5%" filterUnits="objectBoundingBox" id="filter-4">
            <feGaussianBlur stdDeviation="14.2222222" in="SourceGraphic"></feGaussianBlur>
        </filter>
        <path d="M0,0 L67.5555556,0 C73.8393287,-2.93066724e-15 78.9333333,5.09400462 78.9333333,11.3777778 L78.9333333,63.1466667 C78.9333333,69.4304398 73.8393287,74.5244444 67.5555556,74.5244444 L0,74.5244444 L0,74.5244444 L0,0 Z" id="path-5"></path>
        <filter x="-2.5%" y="-2.7%" width="105.1%" height="105.4%" filterUnits="objectBoundingBox" id="filter-6">
            <feGaussianBlur stdDeviation="0.5" in="SourceAlpha" result="shadowBlurInner1"></feGaussianBlur>
            <feOffset dx="0" dy="3" in="shadowBlurInner1" result="shadowOffsetInner1"></feOffset>
            <feComposite in="shadowOffsetInner1" in2="SourceAlpha" operator="arithmetic" k2="-1" k3="1" result="shadowInnerInner1"></feComposite>
            <feColorMatrix values="0 0 0 0 0.778550162   0 0 0 0 0.941337791   0 0 0 0 1  0 0 0 1 0" type="matrix" in="shadowInnerInner1"></feColorMatrix>
        </filter>
        <radialGradient cx="48.6350537%" cy="50%" fx="48.6350537%" fy="50%" r="51.021152%" gradientTransform="translate(0.486351,0.500000),scale(0.707317,1.000000),rotate(88.683399),scale(1.000000,1.332216),translate(-0.486351,-0.500000)" id="radialGradient-7">
            <stop stop-color="#009ECE" stop-opacity="0.225037902" offset="0%"></stop>
            <stop stop-color="#23AAEE" stop-opacity="0" offset="100%"></stop>
        </radialGradient>
        <polygon id="path-8" points="0 0 7.92190002 0 7.92190002 7.40508889 0 7.40508889"></polygon>
        <polygon id="path-10" points="0 0 2.92332185 0 2.92332185 5.86066647 0 5.86066647"></polygon>
        <linearGradient x1="50%" y1="0%" x2="50%" y2="24.5242853%" id="linearGradient-12">
            <stop stop-color="#FFFFFF" offset="0%"></stop>
            <stop stop-color="#FFFFFF" stop-opacity="0" offset="100%"></stop>
        </linearGradient>
        <radialGradient cx="50%" cy="50%" fx="50%" fy="50%" r="112.658425%" gradientTransform="translate(0.500000,0.500000),scale(0.385135,1.000000),scale(1.000000,0.304672),translate(-0.500000,-0.500000)" id="radialGradient-13">
            <stop stop-color="#B1DFFF" offset="0%"></stop>
            <stop stop-color="#D4F1FE" stop-opacity="0" offset="100%"></stop>
        </radialGradient>
        <filter x="-2.5%" y="-6.6%" width="105.1%" height="113.2%" filterUnits="objectBoundingBox" id="filter-14">
            <feGaussianBlur stdDeviation="0.888888889" in="SourceGraphic"></feGaussianBlur>
        </filter>
        <radialGradient cx="50%" cy="50%" fx="50%" fy="50%" r="620.089738%" gradientTransform="translate(0.500000,0.500000),scale(0.079365,1.000000),scale(1.000000,0.071987),translate(-0.500000,-0.500000)" id="radialGradient-15">
            <stop stop-color="#D8EFFD" offset="0%"></stop>
            <stop stop-color="#B3DCFF" stop-opacity="0" offset="100%"></stop>
        </radialGradient>
        <radialGradient cx="50%" cy="50%" fx="50%" fy="50%" r="1710.16813%" gradientTransform="translate(0.500000,0.500000),scale(0.028777,1.000000),scale(1.000000,0.013063),translate(-0.500000,-0.500000)" id="radialGradient-16">
            <stop stop-color="#FFFFFF" stop-opacity="0.995473976" offset="0%"></stop>
            <stop stop-color="#FFFFFF" stop-opacity="0" offset="100%"></stop>
        </radialGradient>
        <linearGradient x1="0%" y1="50%" x2="99.2134713%" y2="50%" id="linearGradient-17">
            <stop stop-color="#FFFFFF" stop-opacity="0" offset="0%"></stop>
            <stop stop-color="#FFFFFF" stop-opacity="0.891541755" offset="49.7980275%"></stop>
            <stop stop-color="#FFFFFF" stop-opacity="0" offset="100%"></stop>
        </linearGradient>
        <radialGradient cx="77.6888131%" cy="43.1868162%" fx="77.6888131%" fy="43.1868162%" r="225.764522%" gradientTransform="translate(0.776888,0.431868),scale(0.394103,1.000000),rotate(177.068515),scale(1.000000,0.505608),translate(-0.776888,-0.431868)" id="radialGradient-18">
            <stop stop-color="#00C9FF" offset="0%"></stop>
            <stop stop-color="#F5FDFF" offset="100%"></stop>
        </radialGradient>
        <path d="M2.39905722,18.6615441 C-1.2559829,42.4106214 15.4669545,49.4972658 52.5678693,39.9214775 C54.9419228,39.2450262 80.6277523,30.8353549 92.2735336,16.9128115 C93.4734173,15.5557953 95.3738386,15.1327118 97.9747974,15.6435611 C102.272684,24.2889977 104.265208,28.9919722 103.952369,29.7524846 C85.151838,39.2364783 75.521224,47.3477974 54.7725574,52.7948775 C10.6154572,63.0011127 -6.84237621,51.623335 2.39905722,18.6615441 Z" id="path-19"></path>
        <filter x="-3.8%" y="-9.8%" width="107.7%" height="119.5%" filterUnits="objectBoundingBox" id="filter-20">
            <feGaussianBlur stdDeviation="2" in="SourceAlpha" result="shadowBlurInner1"></feGaussianBlur>
            <feOffset dx="0" dy="4" in="shadowBlurInner1" result="shadowOffsetInner1"></feOffset>
            <feComposite in="shadowOffsetInner1" in2="SourceAlpha" operator="arithmetic" k2="-1" k3="1" result="shadowInnerInner1"></feComposite>
            <feColorMatrix values="0 0 0 0 0.874067502   0 0 0 0 0.981570854   0 0 0 0 1  0 0 0 1 0" type="matrix" in="shadowInnerInner1"></feColorMatrix>
        </filter>
        <radialGradient cx="83.1789714%" cy="16.3871262%" fx="83.1789714%" fy="16.3871262%" r="67.0533431%" gradientTransform="translate(0.831790,0.163871),scale(0.942637,1.000000),rotate(136.199732),scale(1.000000,1.608251),translate(-0.831790,-0.163871)" id="radialGradient-21">
            <stop stop-color="#00C8FF" offset="0%"></stop>
            <stop stop-color="#79DFF7" offset="100%"></stop>
        </radialGradient>
        <path d="M77.6078543,17.5521053 L122.299729,0 C108.534046,28.0310749 101.63712,42.0738119 101.608952,42.1282108 C97.3380333,29.7601188 89.3376674,21.5680837 77.6078543,17.5521053 Z" id="path-22"></path>
        <filter x="-9.0%" y="-9.5%" width="117.9%" height="119.0%" filterUnits="objectBoundingBox" id="filter-23">
            <feGaussianBlur stdDeviation="2" in="SourceAlpha" result="shadowBlurInner1"></feGaussianBlur>
            <feOffset dx="0" dy="4" in="shadowBlurInner1" result="shadowOffsetInner1"></feOffset>
            <feComposite in="shadowOffsetInner1" in2="SourceAlpha" operator="arithmetic" k2="-1" k3="1" result="shadowInnerInner1"></feComposite>
            <feColorMatrix values="0 0 0 0 0.874067502   0 0 0 0 0.981570854   0 0 0 0 1  0 0 0 1 0" type="matrix" in="shadowInnerInner1"></feColorMatrix>
        </filter>
    </defs>
    <g id="页面-1" stroke="none" stroke-width="1" fill="none" fill-rule="evenodd">
        <g id="04系统升级-02系统升级" transform="translate(-896.000000, -376.000000)">
            <g id="应用窗口备份" transform="translate(590.000000, 264.000000)">
                <g id="椭圆形" transform="translate(10.000000, 60.000000)">
                    <g id="编组-5" transform="translate(124.000000, 52.000000)">
                        <g id="升级中插图" transform="translate(172.000000, 0.000000)">
                            <rect id="矩形" x="0" y="0" width="128" height="128"></rect>
                            <g id="编组-6">
                                <g id="电脑">
                                    <g>
                                        <rect id="矩形" x="0" y="0" width="128" height="128"></rect>
                                        <g id="编组-16" transform="translate(7.680000, 12.800000)">
                                            <path d="M22.6133341,2.13333333 L90.0266659,2.13333333 C101.337458,2.13333333 110.506667,11.302542 110.506667,22.6133341 L110.506667,61.8666659 C110.506667,73.177458 101.337458,82.3466667 90.0266659,82.3466667 L22.6133341,82.3466667 C11.302542,82.3466667 2.13333333,73.177458 2.13333333,61.8666659 L2.13333333,22.6133341 C2.13333333,11.302542 11.302542,2.13333333 22.6133341,2.13333333 Z" id="矩形" fill="#E4FAFF"></path>
                                            <g id="编组-4" transform="translate(44.586667, 42.240000) scale(-1, 1) translate(-44.586667, -42.240000) translate(5.120000, 4.977778)">
                                                <g id="矩形" opacity="0.572342646">
                                                    <use fill="url(#radialGradient-1)" fill-rule="evenodd" xlink:href="#path-2"></use>
                                                    <use fill="black" fill-opacity="1" filter="url(#filter-3)" xlink:href="#path-2"></use>
                                                </g>
                                                <ellipse id="椭圆形" fill="#008DFF" filter="url(#filter-4)" cx="40.6044444" cy="37.3333333" rx="25.9555556" ry="22.4"></ellipse>
                                                <g id="矩形" opacity="0.572342646" fill="black" fill-opacity="1">
                                                    <use filter="url(#filter-6)" xlink:href="#path-5"></use>
                                                </g>
                                            </g>
                                            <path d="M16.64,5.12 L16.64,15.99744 L25.6,15.99744 L25.6,5.12 L26.88,5.12 L26.88,15.99744 L35.84,15.99744 L35.84,5.12 L37.12,5.12 L37.12,15.99744 L46.08,15.99744 L46.08,5.12 L47.36,5.12 L47.36,15.99744 L56.32,15.99744 L56.32,5.12 L57.6,5.12 L57.6,15.99744 L66.56,15.99744 L66.56,5.12 L67.84,5.12 L67.84,15.99744 L76.8,15.99744 L76.8,5.12 L78.08,5.12 L78.08,15.99744 L87.04,15.99744 L87.04,5.12 L88.32,5.12 L88.32,15.99744 L97.28,15.99744 L97.28,5.12 L98.56,5.12 L98.56,15.99744 L109.44,16 L109.44,17.28 L98.56,17.27744 L98.56,28.79744 L109.44,28.8 L109.44,30.08 L98.56,30.07744 L98.56,41.59744 L109.44,41.6 L109.44,42.88 L98.56,42.87744 L98.56,54.39744 L109.44,54.4 L109.44,55.68 L98.56,55.67744 L98.56,67.19744 L109.44,67.2 L109.44,68.48 L98.56,68.47744 L98.56,79.36 L97.28,79.36 L97.28,68.47744 L88.32,68.47744 L88.32,79.36 L87.04,79.36 L87.04,68.47744 L78.08,68.47744 L78.08,79.36 L76.8,79.36 L76.8,68.47744 L67.84,68.47744 L67.84,79.36 L66.56,79.36 L66.56,68.47744 L57.6,68.47744 L57.6,79.36 L56.32,79.36 L56.32,68.47744 L47.36,68.47744 L47.36,79.36 L46.08,79.36 L46.08,68.47744 L37.12,68.47744 L37.12,79.36 L35.84,79.36 L35.84,68.47744 L26.88,68.47744 L26.88,79.36 L25.6,79.36 L25.6,68.47744 L16.64,68.47744 L16.64,79.36 L15.36,79.36 L15.36,68.47744 L4.48,68.48 L4.48,67.2 L15.36,67.19744 L15.36,55.67744 L4.48,55.68 L4.48,54.4 L15.36,54.39744 L15.36,42.87744 L4.48,42.88 L4.48,41.6 L15.36,41.59744 L15.36,30.07744 L4.48,30.08 L4.48,28.8 L15.36,28.79744 L15.36,17.27744 L4.48,17.28 L4.48,16 L15.36,15.99744 L15.36,5.12 L16.64,5.12 Z M76.8,55.67744 L67.84,55.67744 L67.84,67.19744 L76.8,67.19744 L76.8,55.67744 Z M35.84,55.67744 L26.88,55.67744 L26.88,67.19744 L35.84,67.19744 L35.84,55.67744 Z M25.6,55.67744 L16.64,55.67744 L16.64,67.19744 L25.6,67.19744 L25.6,55.67744 Z M46.08,55.67744 L37.12,55.67744 L37.12,67.19744 L46.08,67.19744 L46.08,55.67744 Z M66.56,55.67744 L57.6,55.67744 L57.6,67.19744 L66.56,67.19744 L66.56,55.67744 Z M87.04,55.67744 L78.08,55.67744 L78.08,67.19744 L87.04,67.19744 L87.04,55.67744 Z M56.32,55.67744 L47.36,55.67744 L47.36,67.19744 L56.32,67.19744 L56.32,55.67744 Z M97.28,55.67744 L88.32,55.67744 L88.32,67.19744 L97.28,67.19744 L97.28,55.67744 Z M87.04,42.87744 L78.08,42.87744 L78.08,54.39744 L87.04,54.39744 L87.04,42.87744 Z M66.56,42.87744 L57.6,42.87744 L57.6,54.39744 L66.56,54.39744 L66.56,42.87744 Z M46.08,42.87744 L37.12,42.87744 L37.12,54.39744 L46.08,54.39744 L46.08,42.87744 Z M25.6,42.87744 L16.64,42.87744 L16.64,54.39744 L25.6,54.39744 L25.6,42.87744 Z M35.84,42.87744 L26.88,42.87744 L26.88,54.39744 L35.84,54.39744 L35.84,42.87744 Z M56.32,42.87744 L47.36,42.87744 L47.36,54.39744 L56.32,54.39744 L56.32,42.87744 Z M76.8,42.87744 L67.84,42.87744 L67.84,54.39744 L76.8,54.39744 L76.8,42.87744 Z M97.28,42.87744 L88.32,42.87744 L88.32,54.39744 L97.28,54.39744 L97.28,42.87744 Z M87.04,30.07744 L78.08,30.07744 L78.08,41.59744 L87.04,41.59744 L87.04,30.07744 Z M66.56,30.07744 L57.6,30.07744 L57.6,41.59744 L66.56,41.59744 L66.56,30.07744 Z M46.08,30.07744 L37.12,30.07744 L37.12,41.59744 L46.08,41.59744 L46.08,30.07744 Z M25.6,30.07744 L16.64,30.07744 L16.64,41.59744 L25.6,41.59744 L25.6,30.07744 Z M35.84,30.07744 L26.88,30.07744 L26.88,41.59744 L35.84,41.59744 L35.84,30.07744 Z M56.32,30.07744 L47.36,30.07744 L47.36,41.59744 L56.32,41.59744 L56.32,30.07744 Z M76.8,30.07744 L67.84,30.07744 L67.84,41.59744 L76.8,41.59744 L76.8,30.07744 Z M97.28,30.07744 L88.32,30.07744 L88.32,41.59744 L97.28,41.59744 L97.28,30.07744 Z M87.04,17.27744 L78.08,17.27744 L78.08,28.79744 L87.04,28.79744 L87.04,17.27744 Z M66.56,17.27744 L57.6,17.27744 L57.6,28.79744 L66.56,28.79744 L66.56,17.27744 Z M46.08,17.27744 L37.12,17.27744 L37.12,28.79744 L46.08,28.79744 L46.08,17.27744 Z M25.6,17.27744 L16.64,17.27744 L16.64,28.79744 L25.6,28.79744 L25.6,17.27744 Z M35.84,17.27744 L26.88,17.27744 L26.88,28.79744 L35.84,28.79744 L35.84,17.27744 Z M56.32,17.27744 L47.36,17.27744 L47.36,28.79744 L56.32,28.79744 L56.32,17.27744 Z M76.8,17.27744 L67.84,17.27744 L67.84,28.79744 L76.8,28.79744 L76.8,17.27744 Z M97.28,17.27744 L88.32,17.27744 L88.32,28.79744 L97.28,28.79744 L97.28,17.27744 Z" id="形状" fill="url(#radialGradient-7)"></path>
                                            <path d="M92.16,0 C103.470792,0 112.64,9.16920832 112.64,20.48 L112.64,64 C112.64,75.3107917 103.470792,84.48 92.16,84.48 L61.44,84.48 L61.44,97.28 L51.2,97.28 L51.2,84.48 L20.48,84.48 C9.16920832,84.48 0,75.3107917 0,64 L0,20.48 C0,9.16920832 9.16920832,0 20.48,0 L92.16,0 Z M92.16,5.12 L20.48,5.12 C12.1897038,5.12 5.43341629,11.6878717 5.13059449,19.904158 L5.12,20.48 L5.12,64 C5.12,72.2902962 11.6878717,79.0465837 19.904158,79.3494055 L20.48,79.36 L92.16,79.36 C100.450296,79.36 107.206584,72.7921283 107.509406,64.575842 L107.52,64 L107.52,20.48 C107.52,12.1897038 100.952128,5.43341629 92.735842,5.13059449 L92.16,5.12 Z M40.96,97.28 L71.68,97.28 C73.093849,97.28 74.24,98.426151 74.24,99.84 C74.24,101.253849 73.093849,102.4 71.68,102.4 L40.96,102.4 C39.546151,102.4 38.4,101.253849 38.4,99.84 C38.4,98.426151 39.546151,97.28 40.96,97.28 Z" id="形状结合" fill="#2B3349" fill-rule="nonzero"></path>
                                        </g>
                                        <g id="deepin" transform="translate(39.000000, 47.777778)">
                                            <path d="M17.0731738,5.9038891 C16.8784772,5.9038891 11.5836569,5.90427474 11.5836569,5.90427474 C11.5836569,5.90427474 11.5847995,5.10545756 11.5847995,4.98351781 C11.5847995,4.6702229 11.878825,4.36286687 12.1977588,4.36170994 C12.4936886,4.36063015 16.4711071,4.36170994 16.7776249,4.36170994 C17.0537499,4.36170994 17.3742072,4.67500486 17.3727648,4.97873586 C17.3715412,5.21922172 17.3679611,5.36645953 17.3679611,5.59576178 C17.3679611,5.59576178 17.3679611,5.9038891 17.0731738,5.9038891 M18.5865673,10.2185971 C18.9009308,10.2185971 18.9029113,9.93391676 18.9027589,9.90530219 C18.9023019,9.79817106 18.9007023,9.09730674 18.9007023,8.98940434 C18.9007023,8.68089138 18.5867196,8.70811765 18.5867196,8.70811765 C18.5867196,8.70811765 12.5956073,8.6981681 12.2081944,8.6981681 C11.5943972,8.6981681 11.5836569,8.070807 11.5836569,8.070807 C11.5756588,8.03178011 11.5840377,7.44460282 11.5836569,7.44460282 L17.6798109,7.44460282 C19.3722856,7.44460282 19.2263393,6.20792862 19.2263393,6.20792862 L19.2263393,4.98513751 C19.2263393,4.98513751 19.3658872,2.81690843 17.072793,2.81690843 L11.9370207,2.81690843 C9.60317425,2.81690843 9.76138434,4.9575256 9.76138434,4.9575256 C9.76138434,6.1174572 9.7617652,6.53132733 9.7617652,8.05738669 C9.7617652,10.2192913 11.8977157,10.2091103 11.8977157,10.2091103" id="Fill-1" fill="#FFFFFF"></path>
                                            <path d="M7.34463948,8.37496993 C7.34463948,8.37496993 7.31645569,8.68116904 7.00696719,8.68116904 C6.67485549,8.68116904 5.05146912,8.69019304 4.0549055,8.68710791 C3.05811336,8.68409991 1.82907155,8.45950248 1.82846178,6.54780192 C1.82762427,4.63610137 3.20002256,4.36067643 4.04782146,4.36067643 C4.89516334,4.36067643 7.34281134,4.36044504 7.34281134,4.36044504 C7.34281134,4.36044504 7.34463948,8.10108755 7.34463948,8.37496993 M8.85026331,0.0428060855 C8.71955146,0.0431146861 7.75909356,0.0431146861 7.62868639,0.0428060855 C7.62868639,0.0428060855 7.34342072,0.0414949931 7.34342072,0.359648983 C7.34342072,0.385024173 7.34463948,2.81934568 7.34463948,2.81934568 C6.06189612,2.81896004 4.70511318,2.81988558 3.37011555,2.81942281 C0.502757569,2.81834301 -0.00257018928,5.33272363 9.79888864e-06,6.52597463 C0.00299039655,7.71883999 0.523552637,10.2155582 3.42305537,10.2125502 C6.32278662,10.2098508 6.40893761,10.2194918 7.63637981,10.2194918 C9.15655256,10.2194918 9.17155853,8.68595099 9.17155853,8.68595099 L9.17155853,0.351319133 C9.17155853,0.0428060855 8.85026331,0.0428060855 8.85026331,0.0428060855" id="Fill-3" fill="#FFFFFF"></path>
                                            <path d="M41.1424362,1.85107776 L39.9236777,1.85107776 C39.7554128,1.85107776 39.618988,1.71294108 39.618988,1.5425648 L39.618988,0.30851296 C39.618988,0.138136678 39.7554128,0 39.9236777,0 L41.1424362,0 C41.310701,0 41.4471258,0.138136678 41.4471258,0.30851296 L41.4471258,1.5425648 C41.4471258,1.71294108 41.310701,1.85107776 41.1424362,1.85107776" id="Fill-5" fill="#FFFFFF"></path>
                                            <path d="M41.4686826,9.91271421 C41.4686826,10.0830905 41.3322578,10.2212272 41.163993,10.2212272 L39.9452344,10.2212272 C39.7769696,10.2212272 39.6405448,10.0830905 39.6405448,9.91271421 L39.6405448,3.1254291 C39.6405448,2.95505282 39.7769696,2.81691614 39.9452344,2.81691614 L41.1703153,2.83943759 C41.3385801,2.83943759 41.4471258,2.96145446 41.4471258,3.13183074 L41.4686826,9.91271421 Z" id="Fill-7" fill="#FFFFFF"></path>
                                            <g id="编组" transform="translate(42.078100, 2.816906)">
                                                <mask id="mask-9" fill="white">
                                                    <use xlink:href="#path-8"></use>
                                                </mask>
                                                <g id="Clip-10"></g>
                                                <path d="M4.87503415,0.00153774646 C2.63686027,-0.00139312665 0,0.000766464066 0,0.000766464066 L0,7.0904714 C0,7.2303049 0.0895787525,7.4367772 0.365856078,7.4009897 C0.663842541,7.3999099 1.13283606,7.39829021 1.43082252,7.39721041 C1.85068484,7.45791034 1.83872577,7.08568945 1.83872577,7.08568945 L1.8298136,1.54687916 C1.8298136,1.54687916 4.05915148,1.54464244 4.87472946,1.54464244 C4.92584115,1.54464244 6.10559941,1.56778091 6.10559941,3.08466201 L6.11839637,7.07851652 C6.11809169,7.24920132 6.23303585,7.38479277 6.40160539,7.38471564 L7.61861196,7.38386723 C7.78680064,7.38371297 7.90913353,7.24565342 7.90913353,7.07535427 C7.90913353,7.07535427 7.92193049,3.42518319 7.92193049,2.94428861 C7.92193049,1.23435553 7.11313186,0.00462287606 4.87503415,0.00153774646" id="Fill-9" fill="#FFFFFF" mask="url(#mask-9)"></path>
                                            </g>
                                            <path d="M31.7163555,4.66258721 C31.7163555,4.66258721 31.7116369,4.36163282 32.0210493,4.36163282 C32.353161,4.36163282 33.9750239,4.3577764 34.9715875,4.36093866 C35.9683796,4.36394666 37.1906421,4.58561323 37.1912519,6.49723665 C37.1920894,8.4089372 35.8282986,8.69222923 34.9804997,8.69222923 C34.1330816,8.69222923 31.7178069,8.67047907 31.7178069,8.67047907 C31.7178069,8.67047907 31.7163555,4.93646959 31.7163555,4.66258721 M30.1947396,12.9999978 C30.3255276,12.9996872 31.2774542,12.9996872 31.4078614,12.9999978 C31.4078614,12.9999978 31.7197874,13.0038521 31.7197874,12.6856981 C31.7197874,12.6604 31.7186448,10.223379 31.7186448,10.223379 C33.001312,10.2236876 34.3186376,10.2114242 35.6536352,10.2119641 C38.5209932,10.2129667 39.031196,7.71007822 39.0286159,6.51682722 C39.0256354,5.32396187 38.5130713,2.82408135 35.6135686,2.82708936 C32.7139135,2.82978884 32.6362176,2.82331007 31.4087754,2.82331007 C29.8886027,2.82331007 29.890507,4.35685087 29.890507,4.35685087 L29.890507,12.6914827 C29.890507,12.9999978 30.1947396,12.9999978 30.1947396,12.9999978" id="Fill-13" fill="#FFFFFF"></path>
                                            <path d="M27.1279318,5.9038891 C26.9332351,5.9038891 21.6384148,5.90427474 21.6384148,5.90427474 C21.6384148,5.90427474 21.6395574,5.10545756 21.6395574,4.98351781 C21.6395574,4.6702229 21.9335829,4.36286687 22.2525168,4.36170994 C22.5484466,4.36063015 26.5258651,4.36170994 26.8323828,4.36170994 C27.1085078,4.36170994 27.4289651,4.67500486 27.4275227,4.97873586 C27.4262991,5.21922172 27.422719,5.36645953 27.422719,5.59576178 C27.422719,5.59576178 27.422719,5.9038891 27.1279318,5.9038891 M28.6413252,10.2185971 C28.9556887,10.2185971 28.9576692,9.93391676 28.9575169,9.90530219 C28.9570598,9.79817106 28.9554602,9.09730674 28.9554602,8.98940434 C28.9554602,8.68089138 28.635079,8.70341282 28.635079,8.70341282 C28.635079,8.70341282 22.6572969,8.69801385 22.2699602,8.69801385 C21.656163,8.69801385 21.6384148,8.070807 21.6384148,8.070807 C21.6304167,8.03178011 21.6387957,7.44460282 21.6384148,7.44460282 L27.7345688,7.44460282 C29.4270436,7.44460282 29.2810972,6.20792862 29.2810972,6.20792862 L29.2810972,4.98513751 C29.2810972,4.98513751 29.4206451,2.81690843 27.1275509,2.81690843 L21.9917786,2.81690843 C19.6579322,2.81690843 19.8161423,4.9575256 19.8161423,4.9575256 C19.8161423,6.1174572 19.8165231,6.53132733 19.8165231,8.05738669 C19.8165231,10.2192913 21.9524736,10.2091103 21.9524736,10.2091103" id="Fill-17" fill="#FFFFFF"></path>
                                            <g id="编组" transform="translate(47.076678, 4.359481)">
                                                <mask id="mask-11" fill="white">
                                                    <use xlink:href="#path-10"></use>
                                                </mask>
                                                <g id="Clip-26"></g>
                                            </g>
                                        </g>
                                    </g>
                                    <path d="M28.1599995,19.2 L100.551112,19.2 C107.934545,19.2 113.92,25.1854552 113.92,32.5688883 L113.92,74.6666672 C113.92,82.0501004 107.934545,88.0355556 100.551112,88.0355556 L28.1599995,88.0355556 C20.7765663,88.0355556 14.7911111,82.0501004 14.7911111,74.6666672 L14.7911111,32.5688883 C14.7911111,25.1854552 20.7765663,19.2 28.1599995,19.2 Z" id="矩形" fill="url(#linearGradient-12)"></path>
                                    <path d="M28.1599995,22.0444444 L100.551112,22.0444444 C107.934545,22.0444444 113.92,28.0298996 113.92,35.4133328 L113.92,77.5111117 C113.92,84.8945448 107.934545,90.88 100.551112,90.88 L28.1599995,90.88 C20.7765663,90.88 14.7911111,84.8945448 14.7911111,77.5111117 L14.7911111,35.4133328 C14.7911111,28.0298996 20.7765663,22.0444444 28.1599995,22.0444444 Z" id="矩形" fill="url(#linearGradient-12)" opacity="0.260710217" transform="translate(64.355556, 56.462222) scale(1, -1) translate(-64.355556, -56.462222) "></path>
                                </g>
                                <g id="编组-3" transform="translate(92.444444, 57.244444) rotate(-90.000000) translate(-92.444444, -57.244444) translate(39.822222, 36.977778)">
                                    <polygon id="矩形" fill="url(#radialGradient-13)" opacity="0.799153646" filter="url(#filter-14)" points="0 18.05 52.6222222 0 105.244444 16.15 105.244444 25.0166667 53.3003436 40.5333333 0 26.9166667"></polygon>
                                    <rect id="矩形备份-7" fill="url(#radialGradient-15)" x="8.17777778" y="16.7111111" width="89.6" height="7.11111111"></rect>
                                    <rect id="矩形备份-10" fill="url(#radialGradient-16)" opacity="0.95265997" x="2.84444444" y="18.4888889" width="98.8444444" height="2.84444444"></rect>
                                    <rect id="矩形备份-22" fill="url(#linearGradient-17)" opacity="0.95265997" x="22.7555556" y="19.2" width="59.7333333" height="1"></rect>
                                </g>
                                <g id="箭头" transform="translate(5.280943, 51.738456)">
                                    <g id="路径-6">
                                        <use fill="url(#radialGradient-18)" fill-rule="evenodd" xlink:href="#path-19"></use>
                                        <use fill="black" fill-opacity="1" filter="url(#filter-20)" xlink:href="#path-19"></use>
                                    </g>
                                    <path d="M1.86500228,26.5563641 L2.29019557,26.5917917 C1.57687179,35.1529349 4.53831644,41.3281637 10.0890411,45.4728439 C13.7438991,48.2018962 18.3219318,49.7909899 21.1858525,50.0713884 C48.1795786,51.7781777 72.1331208,44.2722522 93.0566645,27.550509 L94.1362146,26.6773726 L94.4064507,27.0075497 C73.1448973,44.4092397 48.7254827,52.2402134 21.1516124,50.4966156 C18.2073607,50.2084826 13.5556362,48.5938095 9.83376548,45.8147194 C4.33977256,41.7124002 1.32511836,35.6490609 1.80932612,27.3417566 L1.86500228,26.5563641 Z" id="路径-7" fill="#CAF6FF" fill-rule="nonzero"></path>
                                    <g id="路径-5">
                                        <use fill="url(#radialGradient-21)" fill-rule="evenodd" xlink:href="#path-22"></use>
                                        <use fill="black" fill-opacity="1" filter="url(#filter-23)" xlink:href="#path-22"></use>
                                    </g>
                                </g>
                            </g>
                        </g>
                    </g>
                </g>
            </g>
        </g>
    </g>
</svg>