<?xml version="1.0" encoding="UTF-8"?>
<svg width="24px" height="24px" viewBox="0 0 24 24" version="1.1" xmlns="http://www.w3.org/2000/svg" xmlns:xlink="http://www.w3.org/1999/xlink">
    <title>button/clear</title>
    <defs>
        <circle id="path-1" cx="9" cy="9" r="9"></circle>
        <filter x="-61.1%" y="-38.9%" width="222.2%" height="222.2%" filterUnits="objectBoundingBox" id="filter-2">
            <feOffset dx="0" dy="4" in="SourceAlpha" result="shadowOffsetOuter1"></feOffset>
            <feGaussianBlur stdDeviation="3" in="shadowOffsetOuter1" result="shadowBlurOuter1"></feGaussianBlur>
            <feColorMatrix values="0 0 0 0 0   0 0 0 0 0   0 0 0 0 0  0 0 0 0.05 0" type="matrix" in="shadowBlurOuter1"></feColorMatrix>
        </filter>
    </defs>
    <g id="button/clear" stroke="none" stroke-width="1" fill="none" fill-rule="evenodd">
        <g transform="translate(3, 3)" id="清除">
            <g>
                <use fill="black" fill-opacity="1" filter="url(#filter-2)" xlink:href="#path-1"></use>
                <use fill="#FFFFFF" fill-rule="evenodd" xlink:href="#path-1"></use>
            </g>
            <path d="M11.1652735,6.25617641 C11.3250334,6.09641648 11.5840554,6.09641648 11.7438154,6.25617641 C11.9035753,6.41593635 11.9035753,6.67495839 11.7438154,6.83471832 L9.5783626,8.99935646 L11.7438154,11.1652673 C11.8836053,11.3050573 11.9010791,11.5208448 11.7962366,11.6796341 L11.7438154,11.7438092 C11.5840554,11.9035692 11.3250334,11.9035692 11.1652735,11.7438092 L8.9993626,9.57835646 L6.83472446,11.7438092 C6.69493452,11.8835992 6.47914703,11.9010729 6.32035769,11.7962305 L6.25618255,11.7438092 C6.09642261,11.5840493 6.09642261,11.3250273 6.25618255,11.1652673 L8.4203626,8.99935646 L6.25618255,6.83471832 C6.1163926,6.69492838 6.09891886,6.47914089 6.20376132,6.32035156 L6.25618255,6.25617641 C6.41594249,6.09641648 6.67496452,6.09641648 6.83472446,6.25617641 L8.9993626,8.42035646 Z" id="形状结合" fill-opacity="0.5" fill="#000000"></path>
        </g>
    </g>
</svg>