<?xml version="1.0" encoding="UTF-8"?>
<svg width="18px" height="18px" viewBox="0 0 18 18" version="1.1" xmlns="http://www.w3.org/2000/svg" xmlns:xlink="http://www.w3.org/1999/xlink">
    <title>编组 7</title>
    <g id="新" stroke="none" stroke-width="1" fill="none" fill-rule="evenodd">
        <g id="跨端协同-新增新手banner" transform="translate(-756, -82)">
            <g id="编组-5" transform="translate(737, 18)">
                <g id="编组-7" transform="translate(19, 64)">
                    <rect id="矩形" fill-opacity="0.1" fill="#000000" x="0" y="0" width="18" height="18" rx="9"></rect>
                    <path d="M5.16736755,5.16736755 C5.39052429,4.94421082 5.75233285,4.94421082 5.97548959,5.16736755 L9,8.192 L12.0245104,5.16736755 C12.222872,4.96900601 12.5307856,4.94696584 12.753492,5.10124704 L12.8326324,5.16736755 C13.0557892,5.39052429 13.0557892,5.75233285 12.8326324,5.97548959 L9.808,9 L12.8326324,12.0245104 C13.030994,12.222872 13.0530342,12.5307856 12.898753,12.753492 L12.8326324,12.8326324 C12.6094757,13.0557892 12.2476671,13.0557892 12.0245104,12.8326324 L9,9.808 L5.97548959,12.8326324 C5.77712804,13.030994 5.46921444,13.0530342 5.246508,12.898753 L5.16736755,12.8326324 C4.94421082,12.6094757 4.94421082,12.2476671 5.16736755,12.0245104 L8.192,9 L5.16736755,5.97548959 C4.96900601,5.77712804 4.94696584,5.46921444 5.10124704,5.246508 Z" id="形状结合" fill-opacity="0.7" fill="#FFFFFF"></path>
                </g>
            </g>
        </g>
    </g>
</svg>