<?xml version="1.0" encoding="UTF-8"?>
<svg width="52px" height="52px" viewBox="0 0 52 52" version="1.1" xmlns="http://www.w3.org/2000/svg" xmlns:xlink="http://www.w3.org/1999/xlink">
    <title>电脑-可连接</title>
    <defs>
        <filter x="-12.3%" y="-11.0%" width="124.7%" height="127.6%" filterUnits="objectBoundingBox" id="filter-1">
            <feOffset dx="0" dy="1" in="SourceAlpha" result="shadowOffsetOuter1"></feOffset>
            <feGaussianBlur stdDeviation="1.5" in="shadowOffsetOuter1" result="shadowBlurOuter1"></feGaussianBlur>
            <feColorMatrix values="0 0 0 0 0   0 0 0 0 0   0 0 0 0 0  0 0 0 0.15 0" type="matrix" in="shadowBlurOuter1" result="shadowMatrixOuter1"></feColorMatrix>
            <feMerge>
                <feMergeNode in="shadowMatrixOuter1"></feMergeNode>
                <feMergeNode in="SourceGraphic"></feMergeNode>
            </feMerge>
        </filter>
        <linearGradient x1="18.6039735%" y1="29.1545758%" x2="120.533046%" y2="91.5042686%" id="linearGradient-2">
            <stop stop-color="#192A5E" offset="0%"></stop>
            <stop stop-color="#3D7592" offset="100%"></stop>
        </linearGradient>
        <linearGradient x1="50%" y1="0%" x2="50%" y2="65.4361786%" id="linearGradient-3">
            <stop stop-color="#68778F" offset="0%"></stop>
            <stop stop-color="#A6B0C0" offset="100%"></stop>
        </linearGradient>
        <linearGradient x1="48.4405926%" y1="0%" x2="90.9439633%" y2="100%" id="linearGradient-4">
            <stop stop-color="#FFFFFF" stop-opacity="0.333835842" offset="0%"></stop>
            <stop stop-color="#FFFFFF" stop-opacity="0" offset="100%"></stop>
        </linearGradient>
        <filter x="-44.2%" y="-35.4%" width="188.5%" height="188.5%" filterUnits="objectBoundingBox" id="filter-5">
            <feOffset dx="0" dy="1" in="SourceAlpha" result="shadowOffsetOuter1"></feOffset>
            <feGaussianBlur stdDeviation="1.5" in="shadowOffsetOuter1" result="shadowBlurOuter1"></feGaussianBlur>
            <feColorMatrix values="0 0 0 0 0   0 0 0 0 0   0 0 0 0 0  0 0 0 0.15 0" type="matrix" in="shadowBlurOuter1" result="shadowMatrixOuter1"></feColorMatrix>
            <feMerge>
                <feMergeNode in="shadowMatrixOuter1"></feMergeNode>
                <feMergeNode in="SourceGraphic"></feMergeNode>
            </feMerge>
        </filter>
    </defs>
    <g id="电脑-可连接" stroke="none" stroke-width="1" fill="none" fill-rule="evenodd">
        <g id="编组-3" transform="translate(6.0465, 7.8605)">
            <g id="编组" filter="url(#filter-1)" opacity="0.699999988">
                <g id="编组-2">
                    <path d="M3.13043478,0 L37.3811931,0 C39.1100845,-3.17592196e-16 40.5116279,1.40154339 40.5116279,3.13043478 L40.5116279,27.0303776 L40.5116279,27.0303776 L0,27.0303776 L0,3.13043478 C-2.11728131e-16,1.40154339 1.40154339,7.61681406e-16 3.13043478,0 Z" id="蒙版" fill="#CADCF6"></path>
                    <path d="M4.30468487,1.19451864 L36.206943,1.19451864 C37.9358344,1.19451864 39.3373778,2.59606203 39.3373778,4.32495342 L39.3373778,25.835859 L39.3373778,25.835859 L1.17425008,25.835859 L1.17425008,4.32495342 C1.17425008,2.59606203 2.57579348,1.19451864 4.30468487,1.19451864 Z" id="蒙版" fill="url(#linearGradient-2)"></path>
                    <rect id="矩形" fill="#6E88A3" x="4.12740142" y="4.57431749" width="2.26086957" height="2.26086957" rx="0.5"></rect>
                    <rect id="矩形" fill="#6E88A3" x="4.12740142" y="9.09605662" width="2.26086957" height="2.26086957" rx="0.5"></rect>
                    <rect id="矩形" fill="#6E88A3" x="4.12740142" y="13.6177958" width="2.26086957" height="2.26086957" rx="0.5"></rect>
                    <path d="M0,26.8766694 L40.5116279,26.8766694 L40.5116279,28.214427 C40.5116279,29.9433184 39.1100845,31.3448618 37.3811931,31.3448618 L3.13043478,31.3448618 C1.40154339,31.3448618 6.55817341e-16,29.9433184 0,28.214427 L0,26.8766694 L0,26.8766694 Z" id="矩形" fill="#A0BEE9"></path>
                    <path d="M13.9015887,36.2790698 C13.4980623,36.280845 13.2080768,36.224131 13.031632,36.1088855 C12.8644738,35.9997055 12.8797338,35.8538416 13.0774119,35.6712937 L13.1120473,35.6405293 L14.1880932,35.1129135 C15.0068646,34.7114466 15.5565694,33.9115795 15.6379053,33.0033137 L15.7864209,31.3448618 L15.7864209,31.3448618 L24.0520124,31.3448618 L24.2005281,33.0033137 C24.281864,33.9115795 24.8315688,34.7114466 25.6503402,35.1129135 L26.726386,35.6405293 L26.726386,35.6405293 C26.956441,35.8375212 26.9832461,35.9936399 26.8068013,36.1088855 C26.6421196,36.2164479 26.3785311,36.273023 26.0160361,36.2786105 L13.9015887,36.2790698 Z" id="路径" fill="url(#linearGradient-3)"></path>
                    <path d="M36.206943,1.19451864 C37.9358344,1.19451864 39.3373778,2.59606203 39.3373778,4.32495342 L39.3373778,25.835859 L30.6512501,25.835 L14.7832501,1.194 L36.206943,1.19451864 Z" id="形状结合" fill="url(#linearGradient-4)"></path>
                </g>
            </g>
            <g id="DTK/Button/Action/List_Add_normal" filter="url(#filter-5)" transform="translate(31.2578, 22.6613)" fill="#2B98FE" stroke="#FFFFFF">
                <g id="list_add_normal">
                    <rect id="Rectangle-9" x="0.5" y="0.5" width="10.3043478" height="10.3043478" rx="5.15217391"></rect>
                </g>
            </g>
        </g>
        <rect id="矩形" x="0" y="0" width="52" height="52"></rect>
    </g>
</svg>