<?xml version="1.0" encoding="UTF-8"?>
<svg width="128px" height="128px" viewBox="0 0 128 128" version="1.1" xmlns="http://www.w3.org/2000/svg" xmlns:xlink="http://www.w3.org/1999/xlink">
    <title>app/PC-collaboration/128px</title>
    <defs>
        <filter x="-9.1%" y="-7.3%" width="118.2%" height="118.2%" filterUnits="objectBoundingBox" id="filter-1">
            <feOffset dx="0" dy="2" in="SourceAlpha" result="shadowOffsetOuter1"></feOffset>
            <feGaussianBlur stdDeviation="3" in="shadowOffsetOuter1" result="shadowBlurOuter1"></feGaussianBlur>
            <feColorMatrix values="0 0 0 0 0   0 0 0 0 0   0 0 0 0 0  0 0 0 0.2 0" type="matrix" in="shadowBlurOuter1" result="shadowMatrixOuter1"></feColorMatrix>
            <feMerge>
                <feMergeNode in="shadowMatrixOuter1"></feMergeNode>
                <feMergeNode in="SourceGraphic"></feMergeNode>
            </feMerge>
        </filter>
        <linearGradient x1="50%" y1="2.44175981%" x2="50%" y2="108.46406%" id="linearGradient-2">
            <stop stop-color="#F7F7F7" offset="0%"></stop>
            <stop stop-color="#F7F7F7" offset="100%"></stop>
        </linearGradient>
        <linearGradient x1="50%" y1="4.15215062%" x2="50%" y2="100%" id="linearGradient-3">
            <stop stop-color="#8796A1" stop-opacity="0.195814439" offset="0%"></stop>
            <stop stop-color="#2F4355" stop-opacity="0.269287109" offset="100%"></stop>
        </linearGradient>
        <linearGradient x1="110.798211%" y1="17.9381684%" x2="0%" y2="17.9381684%" id="linearGradient-4">
            <stop stop-color="#C970FB" offset="0%"></stop>
            <stop stop-color="#3D48FF" offset="100%"></stop>
        </linearGradient>
        <polygon id="path-5" points="35 58 75 58 75 66 53 66.0002226 53 76.25"></polygon>
        <filter x="-2.5%" y="-5.5%" width="105.0%" height="111.0%" filterUnits="objectBoundingBox" id="filter-6">
            <feOffset dx="0" dy="-2" in="SourceAlpha" result="shadowOffsetInner1"></feOffset>
            <feComposite in="shadowOffsetInner1" in2="SourceAlpha" operator="arithmetic" k2="-1" k3="1" result="shadowInnerInner1"></feComposite>
            <feColorMatrix values="0 0 0 0 0   0 0 0 0 0   0 0 0 0 0  0 0 0 0.105475579 0" type="matrix" in="shadowInnerInner1"></feColorMatrix>
        </filter>
        <linearGradient x1="-14.3920397%" y1="0%" x2="119.034024%" y2="0%" id="linearGradient-7">
            <stop stop-color="#17EFFC" offset="0%"></stop>
            <stop stop-color="#7155F7" offset="100%"></stop>
        </linearGradient>
        <polygon id="path-8" points="35 33.75 75 33.75 75 41.7497774 53 41.75 53 52"></polygon>
        <filter x="-2.5%" y="-5.5%" width="105.0%" height="111.0%" filterUnits="objectBoundingBox" id="filter-9">
            <feOffset dx="0" dy="2" in="SourceAlpha" result="shadowOffsetInner1"></feOffset>
            <feComposite in="shadowOffsetInner1" in2="SourceAlpha" operator="arithmetic" k2="-1" k3="1" result="shadowInnerInner1"></feComposite>
            <feColorMatrix values="0 0 0 0 0   0 0 0 0 0   0 0 0 0 0  0 0 0 0.10612093 0" type="matrix" in="shadowInnerInner1"></feColorMatrix>
        </filter>
        <linearGradient x1="43.0658849%" y1="4.48152103%" x2="43.0658849%" y2="97.9131011%" id="linearGradient-10">
            <stop stop-color="#C3C4D0" offset="0%"></stop>
            <stop stop-color="#5B5E70" offset="100%"></stop>
        </linearGradient>
    </defs>
    <g id="app/PC-collaboration/128px" stroke="none" stroke-width="1" fill="none" fill-rule="evenodd">
        <g id="编组" filter="url(#filter-1)" transform="translate(9, 9)">
            <rect id="矩形" fill="url(#linearGradient-2)" x="0" y="0" width="110" height="110" rx="20"></rect>
            <path d="M90,0 C101.045695,0 110,8.954305 110,20 L110,90 C110,101.045695 101.045695,110 90,110 L20,110 C8.954305,110 0,101.045695 0,90 L0,20 C0,8.954305 8.954305,0 20,0 L90,0 Z M90,8 L20,8 C13.4745433,8 8.16560725,13.2085444 8.00379986,19.6950252 L8,20 L8,90 C8,96.5254567 13.2085444,101.834393 19.6950252,101.9962 L20,102 L90,102 C96.5254567,102 101.834393,96.7914556 101.9962,90.3049748 L102,90 L102,20 C102,13.4745433 96.7914556,8.16560725 90.3049748,8.00379986 L90,8 Z" id="矩形备份" fill="url(#linearGradient-3)" fill-rule="nonzero"></path>
            <g id="路径" opacity="0.852246966" fill-rule="nonzero">
                <use fill="url(#linearGradient-4)" xlink:href="#path-5"></use>
                <use fill="black" fill-opacity="1" filter="url(#filter-6)" xlink:href="#path-5"></use>
            </g>
            <g id="路径" fill-rule="nonzero" transform="translate(55, 42.875) rotate(-180) translate(-55, -42.875)">
                <use fill="url(#linearGradient-7)" xlink:href="#path-8"></use>
                <use fill="black" fill-opacity="1" filter="url(#filter-9)" xlink:href="#path-8"></use>
            </g>
            <path d="M90,21 C92.209139,21 94,22.790861 94,25 L94,85 C94,87.209139 92.209139,89 90,89 C87.790861,89 86,87.209139 86,85 L86,25 C86,22.790861 87.790861,21 90,21 Z" id="矩形" fill="url(#linearGradient-10)" fill-rule="nonzero"></path>
            <path d="M20,21 C22.209139,21 24,22.790861 24,25 L24,85 C24,87.209139 22.209139,89 20,89 C17.790861,89 16,87.209139 16,85 L16,25 C16,22.790861 17.790861,21 20,21 Z" id="矩形" fill="url(#linearGradient-10)" fill-rule="nonzero"></path>
        </g>
    </g>
</svg>