<?xml version="1.0" encoding="utf-8"?>
<!-- Generator: Adobe Illustrator 24.2.1, SVG Export Plug-In . SVG Version: 6.00 Build 0)  -->
<svg version="1.1" id="定位" xmlns="http://www.w3.org/2000/svg" xmlns:xlink="http://www.w3.org/1999/xlink" x="0px" y="0px"
	 width="16px" height="16px" viewBox="0 0 16 16" style="enable-background:new 0 0 16 16;" xml:space="preserve">
<style type="text/css">
	.st0{fill:#1D8EFF;}
	.st1{opacity:0.6;fill:#1D8EFF;}
</style>
<path class="st0" d="M6.3,0.1C4.2,0.6,2.5,2.3,2.1,4.4c-0.3,1.4,0,2.9,0.8,4.2c1,1.4,2,2.9,2.9,4.4l1.7,3l1.6-2.9
	c0.9-1.6,1.9-3.1,3-4.6c0.6-0.9,0.9-2,0.9-3c0-3-2.5-5.5-5.5-5.5C7.1,0,6.7,0,6.3,0.1z M7.5,10C5,10,3,8,3,5.5S5,1,7.5,1
	C10,1,12,3,12,5.5c0,0.9-0.3,1.8-0.8,2.5C10.4,9.2,9,10,7.5,10z"/>
<circle class="st1" cx="7.5" cy="5.5" r="4.5"/>
</svg>
