<svg xmlns="http://www.w3.org/2000/svg" xmlns:xlink="http://www.w3.org/1999/xlink" width="64" height="64" viewBox="0 0 64 64">
  <defs>
    <filter id="dialog-information-a" width="137.5%" height="137.5%" x="-18.8%" y="-18.8%" filterUnits="objectBoundingBox">
      <feOffset dy="1" in="SourceAlpha" result="shadowOffsetOuter1"/>
      <feGaussianBlur in="shadowOffsetOuter1" result="shadowBlurOuter1" stdDeviation="2"/>
      <feColorMatrix in="shadowBlurOuter1" result="shadowMatrixOuter1" values="0 0 0 0 0   0 0 0 0 0   0 0 0 0 0  0 0 0 0.198651934 0"/>
      <feMerge>
        <feMergeNode in="shadowMatrixOuter1"/>
        <feMergeNode in="SourceGraphic"/>
      </feMerge>
    </filter>
    <circle id="dialog-information-b" cx="28" cy="28" r="28"/>
    <filter id="dialog-information-c" width="117.9%" height="117.9%" x="-8.9%" y="-8.9%" filterUnits="objectBoundingBox">
      <feGaussianBlur in="SourceAlpha" result="shadowBlurInner1" stdDeviation="5"/>
      <feOffset in="shadowBlurInner1" result="shadowOffsetInner1"/>
      <feComposite in="shadowOffsetInner1" in2="SourceAlpha" k2="-1" k3="1" operator="arithmetic" result="shadowInnerInner1"/>
      <feColorMatrix in="shadowInnerInner1" values="0 0 0 0 0.784587181   0 0 0 0 0.733472275   0 0 0 0 1  0 0 0 1 0"/>
    </filter>
  </defs>
  <g fill="none" filter="url(#dialog-information-a)" transform="translate(4 4)">
    <use fill="#9C88EE" xlink:href="#dialog-information-b"/>
    <use fill="#000" filter="url(#dialog-information-c)" xlink:href="#dialog-information-b"/>
    <path fill="#FFF" d="M35,37.5 C35.1075261,37.9690455 34.3560093,38.5622173 32.5,40 C30.0039875,41.9532142 28.633344,42.5 26.5,42.5 C24.9426589,42.5 23.936,41.3421565 23.936,40.0264496 C23.936,37 27,27.0055951 27,25.5 C27,23.6918926 22,28 21.5,26.5 C21.2400137,25.720041 21.199988,25.4927164 23.6,24.0956256 C26.000012,22.6985349 27.9146595,22 29.344,22 C30.944008,22 31.744,22.7053168 31.744,24.1159715 C31.744,27 27.628,39 29.344,39 C30.544,39.9994914 34.5,35.3189217 35,37.5 Z"/>
    <circle cx="29" cy="16" r="3" fill="#FFF"/>
  </g>
</svg>
