<?xml version="1.0" encoding="UTF-8"?>
<svg width="26px" height="26px" viewBox="0 0 26 26" version="1.1" xmlns="http://www.w3.org/2000/svg" xmlns:xlink="http://www.w3.org/1999/xlink">
    <!-- Generator: Sketch 58 (84663) - https://sketch.com -->
    <title>icon/record video-white</title>
    <desc>Created with Sketch.</desc>
    <g id="icon/record-video-white" stroke="none" stroke-width="1" fill="none" fill-rule="evenodd">
        <g id="编组-2">
            <rect id="矩形" fill="#D8D8D8" opacity="0" x="0" y="0" width="26" height="26"></rect>
            <path d="M14.8461538,6 C16.3755578,6 17.6153846,7.23982685 17.6153846,8.76923077 L17.6153846,18.2307692 C17.6153846,19.7601732 16.3755578,21 14.8461538,21 L3.76923077,21 C2.23982685,21 1,19.7601732 1,18.2307692 L1,8.76923077 C1,7.23982685 2.23982685,6 3.76923077,6 L14.8461538,6 Z M25,8.59799477 L25,18.3898605 C25,19.0759148 24.5076923,19.3253891 23.8923077,18.9511777 L20.5692308,17.0177519 C19.9538462,16.6435405 19.4615385,16.2693291 19.4615385,15.6456434 L19.4615385,11.2798434 C19.4615385,10.6561576 19.9538462,10.3443148 20.5692308,9.97010335 L23.8923077,8.03667763 C24.5076923,7.6624662 25,7.97430906 25,8.59799477 Z M4.69230769,8.8125 C3.67270508,8.8125 2.84615385,9.65196609 2.84615385,10.6875 C2.84615385,11.7230339 3.67270508,12.5625 4.69230769,12.5625 C5.71191031,12.5625 6.53846154,11.7230339 6.53846154,10.6875 C6.53846154,9.65196609 5.71191031,8.8125 4.69230769,8.8125 Z" id="形状结合" fill="#FFFFFF" fill-rule="nonzero"></path>
        </g>
    </g>
</svg>