<?xml version="1.0" encoding="UTF-8"?>
<svg width="140px" height="140px" viewBox="0 0 140 140" version="1.1" xmlns="http://www.w3.org/2000/svg" xmlns:xlink="http://www.w3.org/1999/xlink">
    <!-- Generator: Sketch 58 (84663) - https://sketch.com -->
    <title>Icon/Not connected</title>
    <desc>Created with Sketch.</desc>
    <g id="Icon/Not-connected" stroke="none" stroke-width="1" fill="none" fill-rule="evenodd">
        <g id="编组">
            <rect id="矩形" fill="#D8D8D8" opacity="0" x="0" y="0" width="140" height="140"></rect>
            <path d="M76.1667832,97.1557844 C76.179582,97.1557845 84.6651334,111.874313 84.6779321,111.874313 C86.0808898,114.304435 84.3943556,117.323033 81.6341684,117.450384 L81.4526547,117.454554 L30.360164,117.454554 C27.5542488,117.454554 25.7781643,114.487662 27.0477487,112.045596 L27.1348865,111.887111 L35.6460354,97.1685831 C23.8840116,90.2316769 16,77.4585541 16,62.8424157 C16,40.8414159 33.8670134,23 55.9064094,23 C77.9458054,23 95.8128186,40.8414159 95.8128186,62.829617 C95.8128186,70.1908751 93.8097746,77.084648 90.3203548,83.0008076 L96.6333682,83.0010321 C102.134857,83.0655578 105.225142,85.6006057 105.225142,90.357906 C105.225142,95.1327034 102.110425,97.6097974 96.6393119,97.5382172 L96.3271147,97.5314419 L87.0752337,97.5314419 L86.9142781,97.5623517 C85.8737955,97.7853012 85.4801874,98.3517261 85.4801874,99.6092346 C85.4801874,101.653063 85.943449,102.312295 86.8502166,102.358324 L86.9568107,102.360957 L108.507164,102.360264 C109.302166,98.779484 112.496911,96.1019128 116.317037,96.1019128 C116.317037,95.549628 116.764752,95.1019128 117.317037,95.1019128 C117.869322,95.1019128 118.317037,95.549628 118.317037,96.1019128 L118.317037,99.1019128 L123.317037,99.1019128 C123.869322,99.1019128 124.317037,99.549628 124.317037,100.101913 C124.317037,100.654198 123.869322,101.101913 123.317037,101.101913 L118.317037,101.101913 L118.317037,107.101913 L123.317037,107.101913 C123.869322,107.101913 124.317037,107.549628 124.317037,108.101913 C124.317037,108.654198 123.869322,109.101913 123.317037,109.101913 L118.317037,109.101913 L118.317037,112.101913 C118.317037,112.654198 117.869322,113.101913 117.317037,113.101913 C116.764752,113.101913 116.317037,112.654198 116.317037,112.101913 C112.327088,112.101913 109.019358,109.180987 108.415522,105.360812 L86.9568107,105.360957 C84.1511162,105.360957 82.4801874,103.256218 82.4801874,99.6092346 C82.4801874,96.8719379 83.9143273,95.0652056 86.4915681,94.5884889 L86.7365244,94.5477054 L86.9568107,94.5314419 L96.3721989,94.5321196 C100.526486,94.6570378 102.225142,93.3543413 102.225142,90.357906 C102.225142,87.3436434 100.501124,85.9785313 96.3271147,86 L88.365072,85.9996825 C85.1263703,90.5113776 80.968265,94.3209226 76.1667832,97.1557844 Z M55.9064094,39.9583041 C43.2356764,39.9583041 32.9711029,50.1972802 32.9711029,62.8424157 C32.9711029,75.4747525 43.2356765,85.7265274 55.9064094,85.7265274 C68.5771422,85.7265274 78.8417157,75.4747525 78.8417157,62.8424157 C78.8417157,50.210079 68.5771422,39.9583041 55.9064094,39.9583041 Z M55.9064094,48.6358364 C63.7520247,48.6358364 70.1257874,54.9840015 70.1257874,62.829617 C70.1257874,70.6752325 63.7520249,77.0233976 55.9064094,77.0233976 C48.0479951,77.0233976 41.6870312,70.6624337 41.6870312,62.829617 C41.6870312,62.1512849 41.7382261,61.4985501 41.8278171,60.8586141 C44.0803919,62.1384861 47.4720527,61.4089591 49.9422057,58.9388061 C52.7707229,56.1102889 53.3210679,52.0658934 51.1708829,49.9157084 C51.0556944,49.80052 50.9277071,49.6853315 50.7869212,49.5829417 C52.3739626,48.9686031 54.1017899,48.6358364 55.9064094,48.6358364 Z" id="形状结合" fill-opacity="0.8" fill="#FFFFFF"></path>
        </g>
    </g>
</svg>