<?xml version="1.0" encoding="UTF-8"?>
<svg width="26px" height="26px" viewBox="0 0 26 26" version="1.1" xmlns="http://www.w3.org/2000/svg" xmlns:xlink="http://www.w3.org/1999/xlink">
    <!-- Generator: Sketch 58 (84663) - https://sketch.com -->
    <title>icon/photograph</title>
    <desc>Created with Sketch.</desc>
    <g id="icon/photograph" stroke="none" stroke-width="1" fill="none" fill-rule="evenodd">
        <g id="编组-2">
            <rect id="矩形" fill="#D8D8D8" opacity="0" x="0" y="0" width="26" height="26"></rect>
            <path d="M15.3342939,5 C15.7888948,5 16.205478,5.23194689 16.4293304,5.59986945 L16.4905495,5.71422952 L17.3258784,7.50072131 L20.8920594,7.50098361 C22.0035067,7.50098361 22.9120391,8.3173803 22.993984,9.35179202 L23,9.50098361 L23,18.9971147 C23,20.0526855 22.1402621,20.9156288 21.0510485,20.9918972 L20.8939536,20.997377 L5.10604646,20.997377 C3.99459916,20.997377 3.08606677,20.1807414 3.00576929,19.1463079 L3,18.9971147 L3,9.50098361 C3,8.44691505 3.85801206,7.58260615 4.94848082,7.50598231 L5.10577587,7.50045902 L8.67222742,7.50045902 L9.50782698,5.71422952 C9.69330805,5.31864084 10.0838604,5.05203197 10.5288369,5.00682696 L10.6638119,5 L15.3342939,5 Z M13,9.5 C10.5147186,9.5 8.5,11.5147186 8.5,14 C8.5,16.4852814 10.5147186,18.5 13,18.5 C15.4852814,18.5 17.5,16.4852814 17.5,14 C17.5,11.5147186 15.4852814,9.5 13,9.5 Z M13,11 C14.6568542,11 16,12.3431458 16,14 C16,15.6568542 14.6568542,17 13,17 C11.3431458,17 10,15.6568542 10,14 C10,12.3431458 11.3431458,11 13,11 Z M8,6 L8,7 L5,7 L5,6 L8,6 Z" id="形状结合" fill="#536076"></path>
        </g>
    </g>
</svg>