<?xml version="1.0" encoding="UTF-8"?>
<svg width="38px" height="38px" viewBox="0 0 38 38" version="1.1" xmlns="http://www.w3.org/2000/svg" xmlns:xlink="http://www.w3.org/1999/xlink">
    <title>-mockplus-</title>
    <g id="PC" stroke="none" stroke-width="1" fill="none" fill-rule="evenodd">
        <g id="PC-相机-拍照模式" transform="translate(-1299.000000, -428.000000)">
            <g id="编组-10" transform="translate(560.000000, 240.000000)">
                <g id="编组-6" transform="translate(726.000000, 187.000000)">
                    <g id="Group-13备份-2" transform="translate(12.000000, 0.000000)">
                        <g id="-mockplus-" transform="translate(1.000000, 1.000000)">
                            <g id="编组-2" transform="translate(7.600000, 8.550000)">
                                <g id="编组" transform="translate(1.900000, 0.000000)" fill-rule="nonzero" stroke="#FFFFFF">
                                    <path d="M12.7634026,0.5 L14.2326956,2.88261315 L17.4189527,2.8828551 C17.7174757,2.8828551 17.9877375,3.00385544 18.1833686,3.19948652 C18.3789997,3.39511759 18.5,3.66537941 18.5,3.96390237 L18.5,3.96390237 L18.5,13.5852602 C18.5,13.8837832 18.3789997,14.154045 18.1833686,14.349676 C17.9877375,14.5453071 17.7174757,14.6663075 17.4189527,14.6663075 L17.4189527,14.6663075 L1.58104727,14.6663075 C1.28252431,14.6663075 1.01226249,14.5453071 0.816631415,14.349676 C0.621000337,14.154045 0.5,13.8837832 0.5,13.5852602 L0.5,13.5852602 L0.5,3.96390237 C0.5,3.66537941 0.621000337,3.39511759 0.816631415,3.19948652 C1.01226249,3.00385544 1.28252431,2.8828551 1.58108637,2.8828551 L1.58108637,2.8828551 L4.6911743,2.88261189 L5.48248042,0.928622917 L12.7634026,0.5 Z" id="形状结合"></path>
                                </g>
                                <circle id="椭圆形" stroke="#FFFFFF" cx="11.4" cy="8.55" r="3.3"></circle>
                                <circle id="椭圆形" fill="#FFFFFF" cx="17.1" cy="5.7" r="1"></circle>
                                <path d="M2.36259986,11.4571758 C0.881053512,12.1785799 -5.06261699e-15,13.4253402 -5.06261699e-15,14.4062903 C-5.06261699e-15,16.2678773 3.17303652,17.5085729 7.60160691,18.0952696 M15.2874914,18.0833084 C19.6694606,17.4872784 22.8,16.255369 22.8,14.4062903 C22.8,13.4593111 21.9789128,12.2412696 20.5891489,11.5327757" id="形状" stroke="#FFFFFF" stroke-linecap="round"></path>
                                <polygon id="三角形" fill="#FFFFFF" transform="translate(9.026607, 18.083308) rotate(-270.000000) translate(-9.026607, -18.083308) " points="9.02660691 16.6583084 10.9266069 19.5083084 7.12660691 19.5083084"></polygon>
                            </g>
                        </g>
                    </g>
                </g>
            </g>
        </g>
    </g>
</svg>