<?xml version="1.0" encoding="UTF-8"?><svg version="1.1" width="40px" height="40px" viewBox="0 0 40.0 40.0" xmlns="http://www.w3.org/2000/svg" xmlns:xlink="http://www.w3.org/1999/xlink"><defs><clipPath id="i0"><path d="M15.9351606,0 C16.4352306,0 16.8870318,0.29845711 17.0832518,0.758421983 L17.8295015,2.50804025 L20.8357397,2.50826853 C21.7548853,2.50826853 22.5,3.25338324 22.5,4.17252881 L22.5,11.748 L22.6079496,11.8058068 C24.0421293,12.6125519 25,13.9599379 25,15.1645161 C25,17.376692 21.865635,18.8223654 16.6594851,19.5304994 C16.3858623,19.5677173 16.1338761,19.3760732 16.0966583,19.1024504 C16.0594405,18.8288276 16.2510846,18.5768414 16.5247074,18.5396236 C21.2299407,17.8996235 24,16.6219801 24,15.1645161 C24,14.4511892 23.4224499,13.5588718 22.50073,12.9175653 L22.5,14.3002739 C22.5,15.2194195 21.7548853,15.9645342 20.8357397,15.9645342 L4.16426028,15.9645342 C3.24511471,15.9645342 2.5,15.2194195 2.5,14.3002739 L2.49958651,12.9262254 C1.57368452,13.5783836 1,14.4551723 1,15.1645161 C1,16.6275029 3.78894554,17.9103629 8.50077198,18.5431017 L8.50169148,17.0350615 L11.5016915,19.0350615 L8.50169148,21.0350615 L8.50139527,19.5477086 L8.43602526,19.5433214 L7.74778908,19.446002 L7.08470865,19.3396756 C2.64093739,18.5823234 0,17.1936588 0,15.1645161 C0,13.9342779 0.999942983,12.572758 2.49966213,11.749538 L2.5,4.17252881 C2.5,3.25338324 3.24511471,2.50826853 4.16426028,2.50826853 L7.08337282,2.50804025 L7.78312205,0.780134766 C7.97385212,0.308622446 8.43160774,0 8.94023514,0 L15.9351606,0 Z M15.9351606,1 L8.94023514,1 C8.83909801,1 8.74807638,1.0613675 8.71000189,1.15549294 L7.75731304,3.50798755 L4.16426028,3.50826853 C3.79739946,3.50826853 3.5,3.80566799 3.5,4.17252881 L3.5,14.3002739 C3.5,14.6671347 3.79739946,14.9645342 4.16426028,14.9645342 L20.8357397,14.9645342 C21.2026005,14.9645342 21.5,14.6671347 21.5,14.3002739 L21.5,4.17252881 C21.5,3.80566799 21.2026005,3.50826853 20.8356638,3.50826852 L17.1688398,3.50799008 L16.1634508,1.1508071 C16.1244338,1.05934619 16.0345962,1 15.9351606,1 Z M12.5,5 C14.709139,5 16.5,6.790861 16.5,9 C16.5,11.209139 14.709139,13 12.5,13 C10.290861,13 8.5,11.209139 8.5,9 C8.5,6.790861 10.290861,5 12.5,5 Z M12.5,6 C10.8431458,6 9.5,7.34314575 9.5,9 C9.5,10.6568542 10.8431458,12 12.5,12 C14.1568542,12 15.5,10.6568542 15.5,9 C15.5,7.34314575 14.1568542,6 12.5,6 Z M18.5,5 C19.0522847,5 19.5,5.44771525 19.5,6 C19.5,6.55228475 19.0522847,7 18.5,7 C17.9477153,7 17.5,6.55228475 17.5,6 C17.5,5.44771525 17.9477153,5 18.5,5 Z"></path></clipPath></defs><g transform="translate(7.499999999999993 9.0)"><g clip-path="url(#i0)"><polygon points="0,0 25,0 25,21.0350615 0,21.0350615 0,0" stroke="none" fill="#0081FF"></polygon></g></g></svg>