<?xml version="1.0" encoding="UTF-8"?>
<svg width="30px" height="30px" viewBox="0 0 30 30" version="1.1" xmlns="http://www.w3.org/2000/svg" xmlns:xlink="http://www.w3.org/1999/xlink">
    <!-- Generator: Sketch 58 (84663) - https://sketch.com -->
    <title>Damage</title>
    <desc>Created with Sketch.</desc>
    <g id="Damage" stroke="none" stroke-width="1" fill="none" fill-rule="evenodd">
        <g id="编组-7" transform="translate(3.000000, 3.000000)">
            <circle id="椭圆形" fill="#E02020" cx="12" cy="12" r="12"></circle>
            <path d="M12,4 C12.5522847,4 13,4.44771525 13,5 L13,11 L19,11 C19.5522847,11 20,11.4477153 20,12 C20,12.5522847 19.5522847,13 19,13 L12.999,13 L13,19 C13,19.5522847 12.5522847,20 12,20 C11.4477153,20 11,19.5522847 11,19 L10.999,12.999 L5,13 C4.44771525,13 4,12.5522847 4,12 C4,11.4477153 4.44771525,11 5,11 L11,10.999 L11,5 C11,4.44771525 11.4477153,4 12,4 Z" id="形状结合" fill="#FFFFFF" transform="translate(12.000000, 12.000000) rotate(-315.000000) translate(-12.000000, -12.000000) "></path>
        </g>
    </g>
</svg>