<?xml version="1.0" encoding="UTF-8"?>
<svg width="136px" height="136px" viewBox="0 0 136 136" version="1.1" xmlns="http://www.w3.org/2000/svg" xmlns:xlink="http://www.w3.org/1999/xlink">
    <title>无可选择/light</title>
    <defs>
        <filter x="-23.4%" y="-139.2%" width="146.8%" height="378.4%" filterUnits="objectBoundingBox" id="filter-1">
            <feGaussianBlur stdDeviation="7 0" in="SourceGraphic"></feGaussianBlur>
        </filter>
        <filter x="-29.4%" y="-88.6%" width="158.8%" height="277.3%" filterUnits="objectBoundingBox" id="filter-2">
            <feGaussianBlur stdDeviation="5" in="SourceGraphic"></feGaussianBlur>
        </filter>
        <linearGradient x1="50.0019771%" y1="2.09994509%" x2="50%" y2="81.6072804%" id="linearGradient-3">
            <stop stop-color="#CCCBCB" offset="0%"></stop>
            <stop stop-color="#4F4F4F" offset="100%"></stop>
        </linearGradient>
        <linearGradient x1="53.120086%" y1="3.61541442%" x2="53.120086%" y2="80.3564932%" id="linearGradient-4">
            <stop stop-color="#D8D8D8" offset="0%"></stop>
            <stop stop-color="#484848" offset="100%"></stop>
        </linearGradient>
        <linearGradient x1="59.5908442%" y1="89.926121%" x2="59.5908442%" y2="8.33914366%" id="linearGradient-5">
            <stop stop-color="#EAE9E9" offset="0%"></stop>
            <stop stop-color="#818181" offset="100%"></stop>
        </linearGradient>
        <linearGradient x1="84.9502822%" y1="65.4391759%" x2="15.0497178%" y2="46.9658878%" id="linearGradient-6">
            <stop stop-color="#C5C5C5" stop-opacity="0.5" offset="0%"></stop>
            <stop stop-color="#484848" stop-opacity="0.241214352" offset="100%"></stop>
        </linearGradient>
        <path d="M60.5269978,62 L12.6024037,50.6139483 C10.7996181,50.1856378 9.52699783,48.5752411 9.52699783,46.7222745 L9.52699783,1 L9.52699783,1 L60.5269978,7.9980516 L60.5269978,62 Z" id="path-7"></path>
        <linearGradient x1="86.2941676%" y1="54.6314233%" x2="13.269605%" y2="43.4726744%" id="linearGradient-8">
            <stop stop-color="#DBDBDB" offset="0%"></stop>
            <stop stop-color="#A6A6A6" offset="100%"></stop>
        </linearGradient>
        <linearGradient x1="46.5751701%" y1="93.7100903%" x2="46.5751701%" y2="9.17228608%" id="linearGradient-9">
            <stop stop-color="#EBE9E9" offset="0%"></stop>
            <stop stop-color="#BCBCBC" offset="100%"></stop>
        </linearGradient>
        <linearGradient x1="15.24962%" y1="52.9111503%" x2="85.9278401%" y2="40.1388626%" id="linearGradient-10">
            <stop stop-color="#F4F4F4" offset="0%"></stop>
            <stop stop-color="#E4E4E4" offset="100%"></stop>
        </linearGradient>
        <linearGradient x1="50%" y1="0%" x2="50%" y2="100%" id="linearGradient-11">
            <stop stop-color="#D6D5D5" offset="0%"></stop>
            <stop stop-color="#B8B8B8" offset="100%"></stop>
        </linearGradient>
        <linearGradient x1="92.5556598%" y1="27.7777778%" x2="19.8382352%" y2="55.8824973%" id="linearGradient-12">
            <stop stop-color="#ACACAC" offset="0%"></stop>
            <stop stop-color="#C5C5C5" offset="100%"></stop>
        </linearGradient>
    </defs>
    <g id="无可选择/light" stroke="none" stroke-width="1" fill="none" fill-rule="evenodd">
        <g id="编组-6" transform="translate(12.473002, 59.000000)">
            <g id="shadow" transform="translate(9.135168, 50.074774)" fill="#000000">
                <path d="M51,16.9252259 L4.87790796,6.02064856 C2.06945094,4.65854141 0.500310073,3.28493415 0.170485343,1.89982677 C0.110063153,1.64530185 26.3921754,2.24161966 51,2.3871114 C72.6148076,2.51490716 86.4452148,2.85337217 86.4044539,3.07757356 C86.0664819,4.93804263 91.6364223,5.48288871 89.4042541,6.02064856 C86.6995975,6.67223732 73.8981795,10.3070964 51,16.9252259 Z" id="路径-3" fill-opacity="0.2" filter="url(#filter-1)"></path>
                <path d="M51,16.9252259 L4.87790796,6.02064856 C1.62596932,5.19702359 0,3.30804366 0,0.353708743 C0,0.894291907 0,0.776388992 0,0 L51,0.819407676 L51,16.9252259 Z" id="路径-3" fill-opacity="0.5" filter="url(#filter-2)"></path>
            </g>
            <polygon id="路径" fill="url(#linearGradient-3)" fill-rule="nonzero" points="101.526998 52 60.5269978 48.3880239 60.5269978 -4.51028104e-15 102.526998 5"></polygon>
            <polygon id="路径" fill="url(#linearGradient-4)" fill-rule="nonzero" points="9.52699783 52 60.5269978 47.087567 60.5269978 7.75768338e-15 9.52699783 5"></polygon>
            <g id="暂无数据" transform="translate(0.000000, 5.000000)" fill-rule="nonzero">
                <g id="编组">
                    <g id="路径">
                        <use fill="url(#linearGradient-5)" xlink:href="#path-7"></use>
                        <use fill="url(#linearGradient-6)" xlink:href="#path-7"></use>
                    </g>
                    <path d="M52.2025719,30.5084853 L1.25617888,17.325062 C0.721505524,17.1867043 0.400228198,16.6411049 0.538585885,16.1064315 C0.560125673,16.0231926 0.592310761,15.9430791 0.634344743,15.8680736 L9.52699783,0 L9.52699783,0 L60.5269978,8 L54.6298632,29.1103568 C54.3367057,30.1597919 53.2574385,30.7814536 52.2025719,30.5084853 Z" id="路径" fill="url(#linearGradient-8)"></path>
                    <path d="M60.5313673,8 L102.526998,0 L102.526998,46.9827943 C102.526998,48.7687158 101.343089,50.3382598 99.6258823,50.8288901 L60.5269978,62 L60.5269978,62 L60.5313673,8 Z" id="矩形" fill="url(#linearGradient-9)"></path>
                    <path d="M109.819148,14.4812608 L102.526998,0 L102.526998,0 L60.5269978,8 L65.3484678,28.8292061 C65.5975632,29.9053219 66.6718592,30.5757544 67.747975,30.3266589 C67.8180293,30.310443 67.8871581,30.2904609 67.9550602,30.2667996 L109.255052,15.875325 C109.77658,15.6935922 110.052039,15.1234866 109.870306,14.6019584 C109.855912,14.5606503 109.838822,14.5203311 109.819148,14.4812608 Z" id="路径" fill="url(#linearGradient-10)"></path>
                </g>
            </g>
        </g>
        <path d="M80.9361618,65.3633664 C72.7884551,65.0871413 38.9602428,67.0843195 40.2066288,49.5545379 C41.2388415,35.0369944 74.2965233,29.3718857 70.3812222,43.5244418 C68.7129976,49.5545379 56.283432,47.0621086 56.283432,35.7199259 C56.283432,24.585305 68.9344626,21.620584 75.4013102,20.5323323" id="路径-7" stroke="url(#linearGradient-11)" stroke-width="1.2" stroke-linecap="round" stroke-linejoin="round" stroke-dasharray="3"></path>
        <g id="编组-2" transform="translate(74.000000, 8.000000)">
            <polygon id="路径-8" fill="url(#linearGradient-12)" points="0 1.76894174 27 0 14.7344202 18 9.74799358 13.1521567 6.49119478 15.1666637 5.69092525 9.33174469 23.5800744 1.69023111 4.80936082 7.33922514"></polygon>
            <polygon id="路径-10" fill="#9E9E9E" points="5.69092525 9.33174469 9.74799358 13.1521567 6.49119478 15.1666637"></polygon>
        </g>
    </g>
</svg>