<?xml version="1.0" encoding="UTF-8"?>
<svg width="16px" height="16px" viewBox="0 0 16 16" version="1.1" xmlns="http://www.w3.org/2000/svg" xmlns:xlink="http://www.w3.org/1999/xlink">
    <title>icon/Space to adius</title>
    <g id="icon/Space-to-adius" stroke="none" stroke-width="1" fill="none" fill-rule="evenodd">
        <path d="M9,14 L9,16 L8,16 L8,14 L9,14 Z M7,1 L7,12 L3,12 C2.44771525,12 2,12.4477153 2,13 C2,13.5128358 2.38604019,13.9355072 2.88337887,13.9932723 L3,14 L7,14 L7,15 L3,15 C1.8954305,15 1,14.1045695 1,13 L1,3 C1,1.8954305 1.8954305,1 3,1 L7,1 Z M13.1166211,2.00672773 L13,2 L10,2 L10,1 L13,1 C14.1045695,1 15,1.8954305 15,3 L15,13 L15,13 C15,14.1045695 14.1045695,15 13,15 L10,15 L10,14 L13,14 C13.5522847,14 14,13.5522847 14,13 C14,12.4871642 13.6139598,12.0644928 13.1166211,12.0067277 L13,12 L10,12 L10,11 L13,11 C13.364732,11 13.7066608,11.0976323 14.0010775,11.2681881 L14,3 C14,2.48716416 13.6139598,2.06449284 13.1166211,2.00672773 Z M9,12 L9,13 L8,13 L8,12 L9,12 Z M9,10 L9,11 L8,11 L8,10 L9,10 Z M9,7 L9,9 L8,9 L8,7 L9,7 Z M9,5 L9,6 L8,6 L8,5 L9,5 Z M9,3 L9,4 L8,4 L8,3 L9,3 Z M9,0 L9,2 L8,2 L8,0 L9,0 Z" id="形状结合" fill="#536076"></path>
    </g>
</svg>