<?xml version="1.0" encoding="UTF-8"?>
<svg width="32px" height="32px" viewBox="0 0 32 32" version="1.1" xmlns="http://www.w3.org/2000/svg" xmlns:xlink="http://www.w3.org/1999/xlink">
    <title>disk/32px/virtual-partition</title>
    <defs>
        <filter x="-20.0%" y="-16.7%" width="140.0%" height="133.3%" filterUnits="objectBoundingBox" id="filter-1">
            <feOffset dx="0" dy="1" in="SourceAlpha" result="shadowOffsetOuter1"></feOffset>
            <feGaussianBlur stdDeviation="0.5" in="shadowOffsetOuter1" result="shadowBlurOuter1"></feGaussianBlur>
            <feColorMatrix values="0 0 0 0 0   0 0 0 0 0   0 0 0 0 0  0 0 0 0.2 0" type="matrix" in="shadowBlurOuter1" result="shadowMatrixOuter1"></feColorMatrix>
            <feMerge>
                <feMergeNode in="shadowMatrixOuter1"></feMergeNode>
                <feMergeNode in="SourceGraphic"></feMergeNode>
            </feMerge>
        </filter>
        <linearGradient x1="102.549264%" y1="57.6822305%" x2="-2.65228894%" y2="57.6822305%" id="linearGradient-2">
            <stop stop-color="#707070" offset="0%"></stop>
            <stop stop-color="#B5BCBE" offset="4.57146722%"></stop>
            <stop stop-color="#AFB0B0" offset="9.93130604%"></stop>
            <stop stop-color="#828689" offset="88.9446523%"></stop>
            <stop stop-color="#909394" offset="93.7925209%"></stop>
            <stop stop-color="#717476" offset="100%"></stop>
        </linearGradient>
        <linearGradient x1="100%" y1="56.4295561%" x2="0%" y2="56.4295561%" id="linearGradient-3">
            <stop stop-color="#FFFFFF" stop-opacity="0.5" offset="0%"></stop>
            <stop stop-color="#FFFFFF" offset="8.38902143%"></stop>
            <stop stop-color="#FFFFFF" stop-opacity="0.8" offset="52.3560063%"></stop>
            <stop stop-color="#FFFFFF" offset="88.1683526%"></stop>
            <stop stop-color="#FFFFFF" stop-opacity="0.5" offset="100%"></stop>
        </linearGradient>
        <radialGradient cx="48.2392027%" cy="19.1031265%" fx="48.2392027%" fy="19.1031265%" r="78.6539217%" gradientTransform="translate(0.482392,0.191031),scale(0.200000,1.000000),rotate(90.000000),scale(1.000000,3.580713),translate(-0.482392,-0.191031)" id="radialGradient-4">
            <stop stop-color="#7CFFFE" offset="0%"></stop>
            <stop stop-color="#D6CDE6" offset="100%"></stop>
        </radialGradient>
        <linearGradient x1="50%" y1="0%" x2="50%" y2="100%" id="linearGradient-5">
            <stop stop-color="#0174FF" offset="0%"></stop>
            <stop stop-color="#01C2FF" offset="50.8499801%"></stop>
            <stop stop-color="#0056FF" offset="100%"></stop>
        </linearGradient>
    </defs>
    <g id="disk/32px/virtual-partition" stroke="none" stroke-width="1" fill="none" fill-rule="evenodd">
        <g id="Group-2" transform="translate(6.000000, 4.000000)" filter="url(#filter-1)">
            <path d="M0,3.49812086 C0,1.56616206 1.56936646,0 3.50662049,0 L16.4933795,0 C18.4300325,0 20,1.5645491 20,3.49812086 L20,20.8327174 C20,21.4773898 19.4855168,22 18.8382682,22 L1.16173178,22 C0.520125034,22 0,21.4778759 0,20.8327174 L0,3.49812086 Z" id="Rectangle-1" fill="url(#linearGradient-2)"></path>
            <path d="M17.6666036,17.5 C18.1735942,17.5 18.6327524,17.703621 18.9648411,18.0344219 C19.2955984,18.3638966 19.5,18.8194567 19.5,19.3243475 L19.5,19.3243475 L19.5,21.2096956 L0.731953773,21.4931581 L0.500166054,19.2995757 C0.506785326,18.8061072 0.710876209,18.3600965 1.03661508,18.0356208 C1.36882958,17.7046947 1.82759514,17.5 2.33339638,17.5 L2.33339638,17.5 Z" id="Rectangle-3" stroke-opacity="0.5" stroke="#FFFFFF" fill="url(#linearGradient-3)"></path>
            <path d="M18.0092049,20.5 C18.4011668,20.5 18.7579168,20.6504966 19.0239737,20.8983877 C19.2877264,21.144132 19.4622606,21.4852607 19.4945475,21.8694195 C19.4926705,22.3396744 19.3320945,22.746927 19.0632823,23.0380644 C18.795052,23.3285715 18.4207578,23.5 18.0092049,23.5 L18.0092049,23.5 L1.99079514,23.5 C1.57861165,23.5 1.20538567,23.3335331 0.935582362,23.0624823 C0.665941003,22.7915942 0.5,22.4165832 0.5,22 C0.5,21.5862316 0.668147257,21.2116783 0.938342159,20.940234 C1.20860607,20.6687205 1.58126802,20.5 1.99079514,20.5 L1.99079514,20.5 Z" id="Rectangle-1" stroke-opacity="0.2" stroke="#003D9C" fill="url(#radialGradient-4)"></path>
            <g id="Group" transform="translate(11.750000, 21.142676)" fill="url(#linearGradient-5)">
                <path d="M5.83333333,0.288976908 C5.83333333,0.129379369 5.96862793,0 6.125,0 L6.125,0 C6.28608305,0 6.41666667,0.137319565 6.41666667,0.288976908 L6.41666667,1.46102309 C6.41666667,1.62062063 6.28137207,1.75 6.125,1.75 L6.125,1.75 C5.96391695,1.75 5.83333333,1.61268044 5.83333333,1.46102309 L5.83333333,0.288976908 Z M4.66666667,0.288976908 C4.66666667,0.129379369 4.80196126,0 4.95833333,0 L4.95833333,0 C5.11941639,0 5.25,0.137319565 5.25,0.288976908 L5.25,1.46102309 C5.25,1.62062063 5.1147054,1.75 4.95833333,1.75 L4.95833333,1.75 C4.79725028,1.75 4.66666667,1.61268044 4.66666667,1.46102309 L4.66666667,0.288976908 Z M3.5,0.288976908 C3.5,0.129379369 3.6352946,0 3.79166667,0 L3.79166667,0 C3.95274972,0 4.08333333,0.137319565 4.08333333,0.288976908 L4.08333333,1.46102309 C4.08333333,1.62062063 3.94803874,1.75 3.79166667,1.75 L3.79166667,1.75 C3.63058361,1.75 3.5,1.61268044 3.5,1.46102309 L3.5,0.288976908 Z M2.33333333,0.288976908 C2.33333333,0.129379369 2.46862793,0 2.625,0 L2.625,0 C2.78608305,0 2.91666667,0.137319565 2.91666667,0.288976908 L2.91666667,1.46102309 C2.91666667,1.62062063 2.78137207,1.75 2.625,1.75 L2.625,1.75 C2.46391695,1.75 2.33333333,1.61268044 2.33333333,1.46102309 L2.33333333,0.288976908 Z M1.16666667,0.288976908 C1.16666667,0.129379369 1.30196126,0 1.45833333,0 L1.45833333,0 C1.61941639,0 1.75,0.137319565 1.75,0.288976908 L1.75,1.46102309 C1.75,1.62062063 1.6147054,1.75 1.45833333,1.75 L1.45833333,1.75 C1.29725028,1.75 1.16666667,1.61268044 1.16666667,1.46102309 L1.16666667,0.288976908 Z M5.55111512e-17,0.288976908 C5.55111512e-17,0.129379369 0.135294596,0 0.291666667,0 L0.291666667,0 C0.452749719,0 0.583333333,0.137319565 0.583333333,0.288976908 L0.583333333,1.46102309 C0.583333333,1.62062063 0.448038737,1.75 0.291666667,1.75 L0.291666667,1.75 C0.130583615,1.75 5.55111512e-17,1.61268044 5.55111512e-17,1.46102309 L5.55111512e-17,0.288976908 Z" id="Combined-Shape"></path>
            </g>
            <path d="M3,21.2916667 C3.19560085,21.2916667 3.37268418,21.3709496 3.5008673,21.4991327 C3.62905042,21.6273158 3.70833333,21.8043992 3.70833333,22 C3.70833333,22.1956008 3.62905042,22.3726842 3.5008673,22.5008673 C3.37268418,22.6290504 3.19560085,22.7083333 3,22.7083333 C2.80439915,22.7083333 2.62731582,22.6290504 2.4991327,22.5008673 C2.37094958,22.3726842 2.29166667,22.1956008 2.29166667,22 C2.29166667,21.8043992 2.37094958,21.6273158 2.4991327,21.4991327 C2.62731582,21.3709496 2.80439915,21.2916667 3,21.2916667 Z" id="Oval" stroke="#01B3FF" stroke-width="0.583333333" fill="#FFFFFF"></path>
        </g>
    </g>
</svg>