<?xml version="1.0" encoding="UTF-8"?>
<svg width="14px" height="14px" viewBox="0 0 14 14" version="1.1" xmlns="http://www.w3.org/2000/svg" xmlns:xlink="http://www.w3.org/1999/xlink">
    <!-- Generator: Sketch 58 (84663) - https://sketch.com -->
    <title>uninstall</title>
    <desc>Created with Sketch.</desc>
    <g id="组件" stroke="none" stroke-width="1" fill="none" fill-rule="evenodd">
        <g id="button/uninstall" transform="translate(-11.000000, -11.000000)" fill="#536076">
            <path d="M23.25,16.25 L23.25,23.4444444 C23.25,24.3035541 22.5535541,25 21.6944444,25 L14.3055556,25 C13.4464459,25 12.75,24.3035541 12.75,23.4444444 L12.75,16.25 L23.25,16.25 Z M15.8786797,18.5036797 C15.7566408,18.6257185 15.7392067,18.8127504 15.8263773,18.9533587 L15.8786797,19.0192784 L17.4772124,20.6174575 L15.9376052,22.1570647 C15.7911586,22.3035113 15.7911586,22.5409482 15.9376052,22.6873948 C16.0631309,22.8129204 16.2555065,22.8308527 16.4001322,22.7411915 L16.4679353,22.6873948 L18.0075425,21.1477876 L19.6057216,22.7463203 C19.7481003,22.888699 19.9789417,22.888699 20.1213203,22.7463203 C20.2433592,22.6242815 20.2607933,22.4372496 20.1736227,22.2966413 L20.1213203,22.2307216 L18.5230233,20.6323068 L20.0623948,19.0929353 C20.2088414,18.9464887 20.2088414,18.7090518 20.0623948,18.5626052 C19.9368691,18.4370796 19.7444935,18.4191473 19.5998678,18.5088085 L19.5320647,18.5626052 L17.9926932,20.1019767 L16.3942784,18.5036797 C16.2518997,18.361301 16.0210583,18.361301 15.8786797,18.5036797 Z M24.25,13.625 C24.6642136,13.625 25,13.9607864 25,14.375 C25,14.7892136 24.6642136,15.125 24.25,15.125 L11.75,15.125 C11.3357864,15.125 11,14.7892136 11,14.375 C11,13.9607864 11.3357864,13.625 11.75,13.625 L24.25,13.625 Z M20.75,11 C21.1642136,11 21.5,11.3357864 21.5,11.75 C21.5,12.1642136 21.1642136,12.5 20.75,12.5 L15.25,12.5 C14.8357864,12.5 14.5,12.1642136 14.5,11.75 C14.5,11.3357864 14.8357864,11 15.25,11 L20.75,11 Z" id="uninstall"></path>
        </g>
    </g>
</svg>