<?xml version="1.0" encoding="UTF-8"?>
<svg width="30px" height="30px" viewBox="0 0 30 30" version="1.1" xmlns="http://www.w3.org/2000/svg" xmlns:xlink="http://www.w3.org/1999/xlink">
    <!-- Generator: Sketch 58 (84663) - https://sketch.com -->
    <title>Warning</title>
    <desc>Created with Sketch.</desc>
    <g id="Warning" stroke="none" stroke-width="1" fill="none" fill-rule="evenodd">
        <g id="编组-24">
            <rect id="矩形" fill="#FF6969" opacity="0" x="0" y="0" width="30" height="30"></rect>
            <path d="M16.7323712,3.0027767 L28.269551,23.0005551 C28.8215292,23.9573173 28.4933869,25.180393 27.5366248,25.7323712 C27.2327183,25.9077018 26.8880358,26 26.5371798,26 L3.46282016,26 C2.35825066,26 1.46282016,25.1045695 1.46282016,24 C1.46282016,23.649144 1.55511837,23.3044615 1.73044898,23.0005551 L13.2676288,3.0027767 C13.819607,2.04601452 15.0426827,1.71787225 15.9994449,2.26985043 C16.3039161,2.44550688 16.5567147,2.69830552 16.7323712,3.0027767 Z" id="三角形" fill="#FA6400"></path>
            <path d="M15,21 C15.5522847,21 16,21.4477153 16,22 C16,22.5522847 15.5522847,23 15,23 C14.4477153,23 14,22.5522847 14,22 C14,21.4477153 14.4477153,21 15,21 Z M15,6 C15.5522847,6 16,6.44771525 16,7 L16,18 C16,18.5522847 15.5522847,19 15,19 C14.4477153,19 14,18.5522847 14,18 L14,7 C14,6.44771525 14.4477153,6 15,6 Z" id="形状结合" fill="#FFFFFF"></path>
        </g>
    </g>
</svg>