<?xml version="1.0" encoding="UTF-8"?>
<svg width="28px" height="28px" viewBox="0 0 28 28" version="1.1" xmlns="http://www.w3.org/2000/svg" xmlns:xlink="http://www.w3.org/1999/xlink">
    <!-- Generator: Sketch 58 (84663) - https://sketch.com -->
    <title>ICon/System upgrade_dark</title>
    <desc>Created with Sketch.</desc>
    <g id="ICon/System-upgrade_dark" stroke="none" stroke-width="1" fill="none" fill-rule="evenodd">
        <g id="编组-27">
            <rect id="矩形" fill="#FF6969" opacity="0" x="0" y="0" width="28" height="28"></rect>
            <path d="M21.9554203,18.46139 C22.0690557,18.9104665 21.9554203,19.359543 21.7281495,19.6589273 L15.1353707,23.5509235 C14.4535583,24.1496922 13.6581106,24.1496922 12.9762982,23.5509235 L6.38351945,19.5092352 C6.04261327,19.359543 5.92897788,18.9104665 6.04261327,18.46139 C6.15624866,18.0123135 6.49715484,17.8626214 6.72442563,18.0123135 L13.3172044,22.0540019 C13.771746,22.3533862 14.2262876,22.3533862 14.6808291,22.0540019 L21.2736079,18.0123135 C21.5008787,17.8626214 21.8417849,18.0123135 21.9554203,18.46139 Z M21.9554258,13.4246605 C22.0690472,13.8735486 21.9554258,14.3224366 21.7281829,14.6216953 L15.1362143,18.5145944 C14.4544857,19.1131118 13.5455143,19.1131118 12.8637857,18.5145944 L6.27181709,14.4720659 C6.04457424,14.3224366 5.93095281,13.8735486 6.04457424,13.4246605 C6.15819567,12.9757725 6.49905995,12.8261431 6.72630281,12.9757725 L13.3182714,17.018301 C13.7727571,17.3175597 14.2272429,17.3175597 14.6817286,17.018301 L21.2736972,12.9757725 C21.5009401,12.8261431 21.8418043,12.9757725 21.9554258,13.4246605 Z M14.5547334,4.13063205 L21.4538505,8.03502417 C21.9345031,8.3070381 22.1036381,8.91719484 21.8316241,9.39784738 C21.7415177,9.55706683 21.6094594,9.68851657 21.4498254,9.77788666 L14.5251048,13.6546492 C14.222733,13.8239302 13.8542748,13.8246015 13.5512882,13.6564234 L6.5714751,9.78215448 C6.08859139,9.51412133 5.91442061,8.90538294 6.18245376,8.42249923 C6.27287391,8.25959992 6.40700437,8.12520009 6.56972195,8.03445332 L13.5751385,4.12756759 C13.879847,3.95763318 14.251094,3.95879455 14.5547334,4.13063205 Z" id="形状结合" fill="#C5CFE0"></path>
        </g>
    </g>
</svg>