<?xml version="1.0" encoding="UTF-8"?>
<svg width="694px" height="694px" viewBox="0 0 694 694" version="1.1" xmlns="http://www.w3.org/2000/svg" xmlns:xlink="http://www.w3.org/1999/xlink">
    <title>棋盘</title>
    <defs>
        <filter x="-3.2%" y="-3.2%" width="106.5%" height="106.5%" filterUnits="objectBoundingBox" id="filter-1">
            <feOffset dx="0" dy="2" in="SourceAlpha" result="shadowOffsetOuter1"></feOffset>
            <feGaussianBlur stdDeviation="4.5" in="shadowOffsetOuter1" result="shadowBlurOuter1"></feGaussianBlur>
            <feColorMatrix values="0 0 0 0 0   0 0 0 0 0   0 0 0 0 0  0 0 0 0.3 0" type="matrix" in="shadowBlurOuter1" result="shadowMatrixOuter1"></feColorMatrix>
            <feMerge>
                <feMergeNode in="shadowMatrixOuter1"></feMergeNode>
                <feMergeNode in="SourceGraphic"></feMergeNode>
            </feMerge>
        </filter>
        <linearGradient x1="50%" y1="0%" x2="50%" y2="100%" id="linearGradient-2">
            <stop stop-color="#FFFFFF" offset="0%"></stop>
            <stop stop-color="#D7A26C" offset="100%"></stop>
        </linearGradient>
        <rect id="path-3" x="4" y="4" width="654" height="654" rx="34"></rect>
        <linearGradient x1="50%" y1="0%" x2="50%" y2="100%" id="linearGradient-5">
            <stop stop-color="#FFFFFF" stop-opacity="0.2" offset="0%"></stop>
            <stop stop-color="#FFFFFF" stop-opacity="0" offset="100%"></stop>
        </linearGradient>
    </defs>
    <g id="页面-1" stroke="none" stroke-width="1" fill="none" fill-rule="evenodd">
        <g id="1首页" transform="translate(-461.000000, -237.000000)">
            <g id="编组-6" transform="translate(435.000000, 175.000000)">
                <g id="棋盘" filter="url(#filter-1)" transform="translate(42.000000, 78.000000)">
                    <mask id="mask-4" fill="white">
                        <use xlink:href="#path-3"></use>
                    </mask>
                    <use id="矩形" fill="url(#linearGradient-2)" opacity="0.50098" xlink:href="#path-3"></use>
                    <path d="M624,0 L38,0 C17.0131795,0 0,17.0131795 0,38 L0,624 C0,644.98682 17.0131795,662 38,662 L624,662 C644.98682,662 662,644.98682 662,624 L662,38 C662,17.0131795 644.98682,0 624,0 Z M624,4 C642.777681,4 658,19.2223185 658,38 L658,624 C658,642.777681 642.777681,658 624,658 L38,658 C19.2223185,658 4,642.777681 4,624 L4,38 C4,19.2223185 19.2223185,4 38,4 L624,4 Z" id="矩形" fill-opacity="0.1" fill="#000000" fill-rule="nonzero"></path>
                    <path d="M624,4 C642.777681,4 658,19.2223185 658,38 L658,624 C658,642.777681 642.777681,658 624,658 L38,658 C19.2223185,658 4,642.777681 4,624 L4,38 C4,19.2223185 19.2223185,4 38,4 L624,4 Z M624,8 L38,8 C21.5971429,8 8.26894286,21.1641715 8,37.5038951 L8,38 L8,624 C8,640.402857 21.1641715,653.731057 37.5038951,654 L38,654 L624,654 C640.402857,654 653.731057,640.835828 654,624.496105 L654,624 L654,38 C654,21.5971429 640.835828,8.26894286 624.496105,8 L624,8 Z" id="矩形" fill="url(#linearGradient-5)" fill-rule="nonzero"></path>
                    <rect id="黄色" fill="#F1BD8D" x="24" y="24" width="614" height="614" rx="18"></rect>
                </g>
            </g>
        </g>
    </g>
</svg>