<?xml version="1.0" encoding="UTF-8"?>
<svg width="96px" height="96px" viewBox="0 0 96 96" version="1.1" xmlns="http://www.w3.org/2000/svg" xmlns:xlink="http://www.w3.org/1999/xlink">
    <title>ICON/垃圾清理</title>
    <defs>
        <filter x="-58.2%" y="-36.0%" width="200.0%" height="167.1%" filterUnits="objectBoundingBox" id="filter-1">
            <feOffset dx="0" dy="4" in="SourceAlpha" result="shadowOffsetOuter1"></feOffset>
            <feGaussianBlur stdDeviation="4.5" in="shadowOffsetOuter1" result="shadowBlurOuter1"></feGaussianBlur>
            <feColorMatrix values="0 0 0 0 0.0357100324   0 0 0 0 0.375277223   0 0 0 0 0.509256114  0 0 0 0.2 0" type="matrix" in="shadowBlurOuter1" result="shadowMatrixOuter1"></feColorMatrix>
            <feMerge>
                <feMergeNode in="shadowMatrixOuter1"></feMergeNode>
                <feMergeNode in="SourceGraphic"></feMergeNode>
            </feMerge>
        </filter>
        <path d="M58.8835587,23.8880347 L53.2796681,76.7765363 C53.2763178,76.7772496 53.2729677,76.7779629 53.2696179,76.778676 C52.9188781,79.675725 42.3888397,82 29.3624454,82 L28.9117903,81.9990711 C16.0976281,81.9461983 5.89833168,79.6427706 5.55157664,76.7795169 L5.5424628,76.7765363 L0.810958432,23.8880347 L58.8835587,23.8880347 Z" id="path-2"></path>
        <filter x="-5.2%" y="-5.2%" width="110.3%" height="110.3%" filterUnits="objectBoundingBox" id="filter-3">
            <feMorphology radius="1" operator="erode" in="SourceAlpha" result="shadowSpreadInner1"></feMorphology>
            <feGaussianBlur stdDeviation="1.5" in="shadowSpreadInner1" result="shadowBlurInner1"></feGaussianBlur>
            <feOffset dx="0" dy="-2" in="shadowBlurInner1" result="shadowOffsetInner1"></feOffset>
            <feComposite in="shadowOffsetInner1" in2="SourceAlpha" operator="arithmetic" k2="-1" k3="1" result="shadowInnerInner1"></feComposite>
            <feColorMatrix values="0 0 0 0 1   0 0 0 0 1   0 0 0 0 1  0 0 0 0.6 0" type="matrix" in="shadowInnerInner1" result="shadowMatrixInner1"></feColorMatrix>
            <feGaussianBlur stdDeviation="0.5" in="SourceAlpha" result="shadowBlurInner2"></feGaussianBlur>
            <feOffset dx="0" dy="0" in="shadowBlurInner2" result="shadowOffsetInner2"></feOffset>
            <feComposite in="shadowOffsetInner2" in2="SourceAlpha" operator="arithmetic" k2="-1" k3="1" result="shadowInnerInner2"></feComposite>
            <feColorMatrix values="0 0 0 0 1   0 0 0 0 1   0 0 0 0 1  0 0 0 0.6 0" type="matrix" in="shadowInnerInner2" result="shadowMatrixInner2"></feColorMatrix>
            <feMerge>
                <feMergeNode in="shadowMatrixInner1"></feMergeNode>
                <feMergeNode in="shadowMatrixInner2"></feMergeNode>
            </feMerge>
        </filter>
        <path d="M28.8214214,46.2862857 C26.1248258,40.774599 23.2882264,45.2128938 23.2882264,45.2128938 L21.1374428,48.9898666 L25.5648105,51.5527406 L28.8214214,46.2862857 Z M38.3964663,44.597804 L36.010314,45.9365288 L35.1357973,44.4068448 C35.1357973,44.4068448 34.4601266,42.8148478 31.1264121,42.9816858 C31.1264121,42.9816858 26.9952845,43.0962614 26.5651278,43.0178676 C26.5651278,43.0178676 27.7358845,43.2470187 28.3182193,44.1455321 L30.9559727,48.7687559 L29.0283836,49.846168 L35.4969666,49.9848647 L38.3964663,44.597804 Z M22.5415393,57.9287691 C19.1956505,63.072608 24.4995639,63.1711028 24.4995639,63.1711028 L28.8680894,63.0283859 L28.7808406,57.9488701 L22.5415393,57.9287691 Z M16.1135371,50.7044795 L18.5078056,52.0271235 L17.639376,53.5608277 C17.639376,53.5608277 16.6207974,54.9638756 18.4976604,57.6935877 C18.4976604,57.6935877 20.747867,61.1348742 20.898016,61.5389038 C20.898016,61.5389038 20.4861207,60.4293301 20.9588872,59.4685036 L23.5763502,54.8332193 L25.5100264,55.900581 L22.2655897,50.3567327 L16.1135371,50.7044795 Z M36.2964088,57.1589018 C42.4626647,57.5448405 39.960857,52.9135764 39.960857,52.9135764 L37.7025343,49.2009268 L33.2711085,51.7577705 L36.2964088,57.1589018 Z M29.7568094,61.0926622 L33.0641464,55.5829856 L33.0641464,57.7800219 L38.4228439,57.7800219 C39.5002647,57.719719 40.2773874,56.8212055 40.2773874,56.8212055 C39.9953507,57.1468413 38.0596455,60.7730567 38.0596455,60.7730567 C36.5703294,63.7278997 34.8375283,63.5309102 34.8375283,63.5309102 L33.0641464,63.5309102 L33.0641464,66.2445415 L29.7568094,61.0926622 Z" id="path-4"></path>
        <filter x="-14.4%" y="-10.7%" width="128.7%" height="130.1%" filterUnits="objectBoundingBox" id="filter-5">
            <feOffset dx="0" dy="1" in="SourceAlpha" result="shadowOffsetOuter1"></feOffset>
            <feGaussianBlur stdDeviation="1" in="shadowOffsetOuter1" result="shadowBlurOuter1"></feGaussianBlur>
            <feColorMatrix values="0 0 0 0 0.253944305   0 0 0 0 0.86865942   0 0 0 0 0  0 0 0 0.4 0" type="matrix" in="shadowBlurOuter1"></feColorMatrix>
        </filter>
        <linearGradient x1="50%" y1="50%" x2="50%" y2="98.7577362%" id="linearGradient-6">
            <stop stop-color="#46ACD5" offset="0%"></stop>
            <stop stop-color="#1284DF" offset="100%"></stop>
        </linearGradient>
        <linearGradient x1="50%" y1="22.7354395%" x2="50%" y2="99.773639%" id="linearGradient-7">
            <stop stop-color="#4FE1FF" offset="0%"></stop>
            <stop stop-color="#0B71D0" offset="100%"></stop>
        </linearGradient>
        <linearGradient x1="51.7606421%" y1="0%" x2="51.7606421%" y2="100%" id="linearGradient-8">
            <stop stop-color="#6B6C77" offset="0%"></stop>
            <stop stop-color="#2B2F42" offset="83.5058272%"></stop>
            <stop stop-color="#5F627C" offset="100%"></stop>
        </linearGradient>
        <linearGradient x1="50%" y1="0%" x2="50%" y2="100%" id="linearGradient-9">
            <stop stop-color="#FFFFFF" stop-opacity="0.15" offset="0%"></stop>
            <stop stop-color="#000000" stop-opacity="0.328238225" offset="100%"></stop>
        </linearGradient>
        <linearGradient x1="50%" y1="0%" x2="50%" y2="100%" id="linearGradient-10">
            <stop stop-color="#393741" offset="0%"></stop>
            <stop stop-color="#1F1C25" offset="100%"></stop>
        </linearGradient>
        <path d="M11.9264051,0.00599209255 C18.4820188,0.00599209255 23.7963936,5.27096255 23.7963936,11.7656327 C23.7963936,13.6825335 23.3334403,15.492311 22.51226,17.0912122 C18.6532452,18.0345411 11.296229,18.7294922 2.50703773,18.9235114 C0.970338745,16.9407701 0.0564165949,14.4589382 0.0564165949,11.7656327 C0.0564165949,5.27096255 5.37079147,0.00599209255 11.9264051,0.00599209255 Z" id="path-11"></path>
        <filter x="-6.3%" y="-7.9%" width="112.6%" height="115.9%" filterUnits="objectBoundingBox" id="filter-13">
            <feOffset dx="0" dy="0" in="SourceAlpha" result="shadowOffsetOuter1"></feOffset>
            <feGaussianBlur stdDeviation="0.5" in="shadowOffsetOuter1" result="shadowBlurOuter1"></feGaussianBlur>
            <feComposite in="shadowBlurOuter1" in2="SourceAlpha" operator="out" result="shadowBlurOuter1"></feComposite>
            <feColorMatrix values="0 0 0 0 0   0 0 0 0 0   0 0 0 0 0  0 0 0 0.3 0" type="matrix" in="shadowBlurOuter1"></feColorMatrix>
        </filter>
        <linearGradient x1="50%" y1="0%" x2="50%" y2="100%" id="linearGradient-14">
            <stop stop-color="#393741" offset="0%"></stop>
            <stop stop-color="#1F1C25" offset="100%"></stop>
        </linearGradient>
        <linearGradient x1="50%" y1="0%" x2="50%" y2="100%" id="linearGradient-15">
            <stop stop-color="#E5E5E5" stop-opacity="0.15" offset="0%"></stop>
            <stop stop-color="#565656" stop-opacity="0.328238225" offset="100%"></stop>
        </linearGradient>
        <ellipse id="path-16" cx="4.55290979" cy="4.44316083" rx="4.55290979" ry="4.44316083"></ellipse>
        <filter x="-22.0%" y="-17.4%" width="143.9%" height="151.2%" filterUnits="objectBoundingBox" id="filter-18">
            <feOffset dx="0" dy="1" in="SourceAlpha" result="shadowOffsetOuter1"></feOffset>
            <feGaussianBlur stdDeviation="0.5" in="shadowOffsetOuter1" result="shadowBlurOuter1"></feGaussianBlur>
            <feComposite in="shadowBlurOuter1" in2="SourceAlpha" operator="out" result="shadowBlurOuter1"></feComposite>
            <feColorMatrix values="0 0 0 0 0   0 0 0 0 0   0 0 0 0 0  0 0 0 0.3 0" type="matrix" in="shadowBlurOuter1"></feColorMatrix>
        </filter>
        <path d="M13.7860262,11.1004367 C15.2692363,11.1004367 16.4716157,12.3028161 16.4716157,13.7860262 C16.4716157,15.2692363 15.2692363,16.4716157 13.7860262,16.4716157 C12.3028161,16.4716157 11.1004367,15.2692363 11.1004367,13.7860262 C11.1004367,12.3028161 12.3028161,11.1004367 13.7860262,11.1004367 Z M13.7860262,12.8908297 C13.2916228,12.8908297 12.8908297,13.2916228 12.8908297,13.7860262 C12.8908297,14.2804296 13.2916228,14.6812227 13.7860262,14.6812227 C14.2804296,14.6812227 14.6812227,14.2804296 14.6812227,13.7860262 C14.6812227,13.2916228 14.2804296,12.8908297 13.7860262,12.8908297 Z" id="path-19"></path>
        <filter x="-37.2%" y="-18.6%" width="174.5%" height="174.5%" filterUnits="objectBoundingBox" id="filter-20">
            <feOffset dx="0" dy="1" in="SourceAlpha" result="shadowOffsetOuter1"></feOffset>
            <feGaussianBlur stdDeviation="0.5" in="shadowOffsetOuter1" result="shadowBlurOuter1"></feGaussianBlur>
            <feColorMatrix values="0 0 0 0 0   0 0 0 0 0   0 0 0 0 0  0 0 0 0.3 0" type="matrix" in="shadowBlurOuter1"></feColorMatrix>
        </filter>
        <path d="M39.7966042,2.58503322 L41.6914586,17.9331664 C38.0392577,18.1442399 33.9712914,18.2620087 29.683274,18.2620087 C15.4603261,18.2620087 3.65835045,16.9663319 1.41937611,15.267732 L1.41937611,15.267732 L1.37225503,15.2669809 L0.403354755,7.40660293 C0.233939979,6.0326791 1.21038749,4.78155596 2.58431132,4.61214118 C2.58516351,4.6120361 2.58601576,4.61193146 2.58686805,4.61182726 L37.0046992,0.403762726 C38.377798,0.235882063 39.6273125,1.21210769 39.7966042,2.58503322 Z" id="path-21"></path>
        <filter x="-46.0%" y="-78.3%" width="192.0%" height="312.6%" filterUnits="objectBoundingBox" id="filter-22">
            <feOffset dx="0" dy="5" in="SourceAlpha" result="shadowOffsetOuter1"></feOffset>
            <feGaussianBlur stdDeviation="5.5" in="shadowOffsetOuter1" result="shadowBlurOuter1"></feGaussianBlur>
            <feColorMatrix values="0 0 0 0 0   0 0 0 0 0   0 0 0 0 0  0 0 0 0.189521416 0" type="matrix" in="shadowBlurOuter1"></feColorMatrix>
        </filter>
        <path d="M2.80934696,2.47808157 L37.1848928,2.47490227 C38.5692223,2.47454242 39.6915468,3.59665938 39.6916748,4.98098884 C39.6916748,4.98106611 39.6916749,4.98114339 39.691443,4.98122066 L39.691443,6.00300473 L39.691443,6.00300473 L0.302796751,6.00664768 L0.302796751,4.98486361 C0.303028586,3.60062468 1.42510806,2.47844142 2.80934696,2.47808157 Z" id="path-23"></path>
        <filter x="-12.7%" y="-113.2%" width="125.4%" height="383.1%" filterUnits="objectBoundingBox" id="filter-24">
            <feOffset dx="0" dy="1" in="SourceAlpha" result="shadowOffsetOuter1"></feOffset>
            <feGaussianBlur stdDeviation="1.5" in="shadowOffsetOuter1" result="shadowBlurOuter1"></feGaussianBlur>
            <feComposite in="shadowBlurOuter1" in2="SourceAlpha" operator="out" result="shadowBlurOuter1"></feComposite>
            <feColorMatrix values="0 0 0 0 0   0 0 0 0 0   0 0 0 0 0  0 0 0 0.03 0" type="matrix" in="shadowBlurOuter1"></feColorMatrix>
        </filter>
        <filter x="-7.6%" y="-56.6%" width="115.2%" height="269.9%" filterUnits="objectBoundingBox" id="filter-25">
            <feOffset dx="0" dy="0" in="SourceAlpha" result="shadowOffsetInner1"></feOffset>
            <feComposite in="shadowOffsetInner1" in2="SourceAlpha" operator="arithmetic" k2="-1" k3="1" result="shadowInnerInner1"></feComposite>
            <feColorMatrix values="0 0 0 0 1   0 0 0 0 1   0 0 0 0 1  0 0 0 0.6 0" type="matrix" in="shadowInnerInner1"></feColorMatrix>
        </filter>
        <filter x="-15.4%" y="-44.4%" width="130.8%" height="188.9%" filterUnits="objectBoundingBox" id="filter-26">
            <feOffset dx="0" dy="0" in="SourceAlpha" result="shadowOffsetOuter1"></feOffset>
            <feGaussianBlur stdDeviation="1" in="shadowOffsetOuter1" result="shadowBlurOuter1"></feGaussianBlur>
            <feColorMatrix values="0 0 0 0 0   0 0 0 0 0   0 0 0 0 0  0 0 0 0.286904502 0" type="matrix" in="shadowBlurOuter1" result="shadowMatrixOuter1"></feColorMatrix>
            <feMerge>
                <feMergeNode in="shadowMatrixOuter1"></feMergeNode>
                <feMergeNode in="SourceGraphic"></feMergeNode>
            </feMerge>
        </filter>
        <linearGradient x1="50%" y1="45.730119%" x2="61.0300062%" y2="54.269881%" id="linearGradient-27">
            <stop stop-color="#F7FFFE" offset="0%"></stop>
            <stop stop-color="#DEF0ED" offset="100%"></stop>
        </linearGradient>
    </defs>
    <g id="ICON/垃圾清理" stroke="none" stroke-width="1" fill="none" fill-rule="evenodd">
        <g id="编组" filter="url(#filter-1)" transform="translate(18.000000, 7.000000)">
            <g id="形状结合">
                <use fill-opacity="0.803021198" fill="#EEF2FF" fill-rule="evenodd" xlink:href="#path-2"></use>
                <use fill="black" fill-opacity="1" filter="url(#filter-3)" xlink:href="#path-2"></use>
            </g>
            <g id="Fill-1">
                <use fill="black" fill-opacity="1" filter="url(#filter-5)" xlink:href="#path-4"></use>
                <use fill="#23C400" fill-rule="evenodd" xlink:href="#path-4"></use>
            </g>
            <path d="M5.46040319,75.8699154 C7.6358112,78.3428464 17.4946847,80.209607 29.4915207,80.209607 C41.0510618,80.209607 50.6976807,78.4764562 53.348171,76.1378595 L53.2796681,76.7765363 L53.2696179,76.778676 L53.2696179,76.778676 C52.9188781,79.675725 42.3888397,82 29.3624454,82 L28.9117903,81.9990711 C16.0976281,81.9461983 5.89833168,79.6427706 5.55157664,76.7795169 L5.5424628,76.7765363 Z" id="形状结合" fill="url(#linearGradient-6)"></path>
            <path d="M60.5152838,17.5458515 L58.8835587,23.8880347 C58.6141263,26.3250652 45.5752022,28.2882096 29.720524,28.2882096 C13.8674611,28.2882096 1.07783382,26.3254652 0.815081035,23.888745 L0.810958432,23.8880347 L0,17.5458515 L60.5152838,17.5458515 Z" id="形状结合" fill="url(#linearGradient-7)"></path>
            <ellipse id="椭圆形" fill="#72EFFF" cx="30.2576419" cy="17.5458515" rx="30.2576419" ry="3.93886463"></ellipse>
            <ellipse id="椭圆形备份-6" fill="#01305E" cx="31.1528384" cy="17.3668122" rx="27.930131" ry="3.40174672"></ellipse>
            <g id="编组-3" transform="translate(31.868996, 0.000000)">
                <path d="M13.6069869,0.323957043 C17.2749943,0.323957043 20.5957518,1.8107108 22.9995074,4.21446641 C25.403263,6.61822202 26.8900168,9.93897949 26.8900168,13.6069869 C26.8900168,15.1232248 26.6360523,16.5801463 26.1680068,17.9376411 C23.2925445,19.2800542 13.8070704,20.2792646 2.20519335,20.4258336 C1.01077978,18.4330483 0.323957043,16.1002157 0.323957043,13.6069869 C0.323957043,9.93897949 1.8107108,6.61822202 4.21446641,4.21446641 C6.61822202,1.8107108 9.93897949,0.323957043 13.6069869,0.323957043 Z" id="形状结合" stroke="url(#linearGradient-9)" stroke-width="0.647914086" fill="url(#linearGradient-8)"></path>
                <g id="编组-2" transform="translate(1.790393, 1.790393)">
                    <mask id="mask-12" fill="white">
                        <use xlink:href="#path-11"></use>
                    </mask>
                    <g id="形状结合">
                        <use fill="black" fill-opacity="1" filter="url(#filter-13)" xlink:href="#path-11"></use>
                        <path stroke="#000000" stroke-width="0.647914086" d="M11.9264051,0.329949135 C15.1151023,0.329949135 18.0020594,1.610182 20.0917545,3.68045055 C22.1803494,5.74962912 23.4724366,8.60809942 23.4724366,11.7656327 C23.4724366,13.5768083 23.0474131,15.2896461 22.2902712,16.8114704 C18.431721,17.7278196 11.2406158,18.4001789 2.66441131,18.5958564 C1.22995351,16.6899685 0.380373638,14.326098 0.380373638,11.7656327 C0.380373638,8.60809942 1.6724608,5.74962912 3.76105573,3.68045055 C5.85075087,1.610182 8.73770793,0.329949135 11.9264051,0.329949135 Z" stroke-linejoin="square" fill="url(#linearGradient-10)" fill-rule="evenodd"></path>
                    </g>
                    <polygon id="Path-4" fill-opacity="0.304632867" fill="#4F4F50" fill-rule="nonzero" mask="url(#mask-12)" transform="translate(12.001312, 12.801888) rotate(-105.000000) translate(-12.001312, -12.801888) " points="-0.970601277 20.0863952 24.9732254 5.31693425 19.7736604 -0.153947925 4.39088878 25.7577248"></polygon>
                    <polygon id="Path-4备份" fill-opacity="0.304632867" fill="#4F4F50" fill-rule="nonzero" opacity="0.413829985" mask="url(#mask-12)" transform="translate(12.001566, 12.801915) rotate(-345.000000) translate(-12.001566, -12.801915) " points="-1.02171694 20.0577289 25.0248482 5.3464453 19.8046547 -0.102820009 4.36104419 25.7066497"></polygon>
                </g>
                <g id="编组" transform="translate(8.951965, 9.310044)">
                    <mask id="mask-17" fill="white">
                        <use xlink:href="#path-16"></use>
                    </mask>
                    <g id="椭圆形备份-3">
                        <use fill="black" fill-opacity="1" filter="url(#filter-18)" xlink:href="#path-16"></use>
                        <ellipse stroke="#000000" stroke-width="2.75363486" stroke-linejoin="square" fill="url(#linearGradient-14)" fill-rule="evenodd" cx="4.55290979" cy="4.44316083" rx="3.17609236" ry="3.0663434"></ellipse>
                        <ellipse stroke="url(#linearGradient-15)" stroke-width="0.546666667" cx="4.55290979" cy="4.44316083" rx="4.82624312" ry="4.71649416"></ellipse>
                    </g>
                    <path d="M3.3901272,6.25166464 L1.9695319,8.29278108 C1.21575215,7.86401323 0.59191535,7.23722089 0.170734117,6.48429531 L2.76395064,5.22642112 C2.84462943,5.63826876 3.07197783,5.99842063 3.3901272,6.25166464 Z M7.35253942,0.562425421 C7.938984,1.03566068 8.40918537,1.64425507 8.7143373,2.33994668 L8.7143373,2.33994668 L5.82210454,3.743114 C5.69729553,3.60266549 5.55000379,3.48221016 5.38578586,3.38723925 Z" id="形状结合" fill-opacity="0.401305726" fill="#4F4F50" fill-rule="nonzero" mask="url(#mask-17)" transform="translate(4.442536, 4.427603) rotate(93.000000) translate(-4.442536, -4.427603) "></path>
                </g>
                <g id="形状结合">
                    <use fill="black" fill-opacity="1" filter="url(#filter-20)" xlink:href="#path-19"></use>
                    <use fill="#EEEEEE" fill-rule="evenodd" xlink:href="#path-19"></use>
                </g>
            </g>
            <g id="编组-4" transform="translate(1.790393, 2.864629)">
                <g id="形状结合">
                    <use fill="black" fill-opacity="1" filter="url(#filter-22)" xlink:href="#path-21"></use>
                    <use fill="#F8F8F8" fill-rule="evenodd" xlink:href="#path-21"></use>
                </g>
                <polygon id="矩形" fill-opacity="0.27734375" fill="#D8D8D8" transform="translate(20.230007, 6.137598) rotate(-7.000000) translate(-20.230007, -6.137598) " points="0.535711148 5.99240532 39.9243306 5.98876237 39.9243038 6.28279023 0.535684351 6.28643318"></polygon>
                <g id="矩形" transform="translate(19.997120, 4.240659) rotate(-7.000000) translate(-19.997120, -4.240659) ">
                    <use fill="black" fill-opacity="1" filter="url(#filter-24)" xlink:href="#path-23"></use>
                    <use fill-opacity="0.8" fill="#FFFFFF" fill-rule="evenodd" xlink:href="#path-23"></use>
                    <use fill="black" fill-opacity="1" filter="url(#filter-25)" xlink:href="#path-23"></use>
                </g>
                <g id="编组-2" transform="translate(34.395300, 2.681904) rotate(-7.000000) translate(-34.395300, -2.681904) translate(29.895300, 1.181904)" fill="#D8D8D8">
                    <path d="M1.62018661,1.67226198 L1.62018661,1.95872486 L0.187872198,1.95872486 L0.187872198,1.67226198 L1.62018661,1.67226198 Z M1.62018661,1.09933621 L1.62018661,1.3857991 L0.187872198,1.3857991 L0.187872198,1.09933621 L1.62018661,1.09933621 Z M1.62018661,0.52641045 L1.62018661,0.812873332 L0.187872198,0.812873332 L0.187872198,0.52641045 L1.62018661,0.52641045 Z" id="形状结合"></path>
                    <rect id="矩形" x="3.05163338" y="1.25675342" width="1.79039301" height="1"></rect>
                    <path d="M7.53144749,0.522722082 L7.53061764,1.30672208 L8.34506988,1.3068052 L8.34506988,1.56816625 L7.53061764,1.56772208 L7.53144749,2.35224937 L7.26024003,2.35224937 L7.25961764,1.56772208 L6.44661764,1.56816625 L6.44661764,1.3068052 L7.25961764,1.30672208 L7.26024003,0.522722082 L7.53144749,0.522722082 Z" id="形状结合" transform="translate(7.395844, 1.437486) rotate(-315.000000) translate(-7.395844, -1.437486) "></path>
                </g>
                <path d="M39.4379203,5.61010965 L40.9604528,17.9695638 C37.5000531,18.1577329 33.683989,18.2620087 29.6743032,18.2620087 L29.6743032,18.2620087 L29.1890147,18.2614989 C16.630057,18.2350936 6.05055077,17.1856772 2.48946808,15.7470828 L1.8102262,10.2199333 C1.74205916,9.67041316 2.10216965,9.16678193 2.62923793,9.04315919 L2.74464138,9.02260683 C2.74483283,9.02258327 2.74502428,9.02255976 2.7452861,9.02311054 L38.2404526,4.67454591 C38.82918,4.60300323 39.3649115,5.02156235 39.4379203,5.61010965 Z" id="形状结合" fill="#FFFFFF"></path>
            </g>
            <g id="编组-5" filter="url(#filter-26)" transform="translate(7.538237, 12.890830)" fill-rule="nonzero">
                <path d="M15.2485754,0.393606577 C15.6729846,0.239134271 16.1421759,0.271773841 16.5414794,0.483730057 C19.3178259,1.84770124 22.3822894,3.36988245 22.9827466,3.62188421 L22.9826385,3.6219239 C23.4964123,3.8004587 23.8914719,4.21951837 24.0411181,4.74564937 L24.0411181,4.74564937 L25.29774,8.22973273 C24.7409279,8.23376368 24.1797246,8.23580786 23.6146011,8.23580786 L23.6146011,8.23580786 L23.1335194,8.23531341 C13.4722423,8.21544011 5.00540407,7.59810318 0.116338376,6.67358041 C0.31079991,6.19946905 0.733014401,5.72569622 1.57870162,5.41504477 L1.57870162,5.41504477 Z" id="形状结合" fill="#1A89F9"></path>
                <path d="M12.5026166,3.26787858 L14.222999,8.03871359 C11.4974829,7.92021737 8.96743174,7.75160715 6.70764561,7.5419932 L6.02462767,5.64747781 L12.5026166,3.26787858 Z" id="形状结合" fill="#0775EB"></path>
                <path d="M10.7085865,7.19227702 C11.0443834,7.07652055 11.4102257,7.25319295 11.5315925,7.58972039 C11.5691154,7.6937698 11.5790028,7.80127428 11.5649747,7.90396849 C10.7515543,7.85636991 9.96111651,7.80434782 9.19472091,7.74796728 Z M8.04826247,6.11761452 L8.1457794,6.12773074 C8.37444924,6.16943701 8.56389198,6.33072281 8.6431543,6.55118063 L8.6431543,6.55118063 L9.07150413,7.73884978 C8.58942622,7.70297032 8.11697505,7.6653607 7.65473264,7.6260918 L7.42863437,6.99731764 C7.34876915,6.77745036 7.39056389,6.53132041 7.53841137,6.35083895 C7.68626216,6.17147535 7.91828284,6.08624577 8.1457794,6.12773074 Z" id="形状结合" fill="#EBFCFF"></path>
                <path d="M15.8429382,2.04085788 L22.4205285,5.34110481 L23.4645158,8.23485788 L23.1335194,8.23531341 C20.6944708,8.23029627 18.3315486,8.18720033 16.0831009,8.11069617 L14.1222827,2.67291675 L15.8429382,2.04085788 Z M4.40534468,6.24214452 L4.80357327,7.34861024 C3.90184769,7.24848719 3.05417653,7.14126615 2.26651583,7.02767253 L4.40534468,6.24214452 Z" id="形状结合" fill="url(#linearGradient-27)"></path>
            </g>
        </g>
    </g>
</svg>