<svg xmlns="http://www.w3.org/2000/svg" width="248" height="221" viewBox="0 0 248 221">
  <g id="icon-anzhuangshibai" transform="translate(-836 -271)">
    <g id="矩形_55" data-name="矩形 55" transform="translate(836 271)" fill="none" stroke="#fff" stroke-width="5" opacity="0.749">
      <rect width="248" height="182" rx="26" stroke="none"/>
      <rect x="2.5" y="2.5" width="243" height="177" rx="23.5" fill="none"/>
    </g>
    <g id="矩形_57" data-name="矩形 57" transform="translate(851 286)" fill="none" stroke="#fff" stroke-width="1" opacity="0.749">
      <rect width="218" height="152" rx="16" stroke="none"/>
      <rect x="0.5" y="0.5" width="217" height="151" rx="15.5" fill="none"/>
    </g>
    <g id="组_72" data-name="组 72" transform="translate(-6.5 -1.5)" opacity="0.749">
      <line id="直线_5" data-name="直线 5" y2="34" transform="translate(949.5 454.5)" fill="none" stroke="#fff" stroke-width="5"/>
      <line id="直线_6" data-name="直线 6" y2="34" transform="translate(983.5 454.5)" fill="none" stroke="#fff" stroke-width="5"/>
    </g>
    <path id="椭圆_1954" data-name="椭圆 1954" d="M45,0A45,45,0,1,1,0,45,45,45,0,0,1,45,0Z" transform="translate(915 317)" fill="none" stroke="#fff" stroke-width="3"/>
    <g id="组_49" data-name="组 49" transform="translate(935.098 337.934)">
      <line id="直线_1" data-name="直线 1" x2="50" y2="49" transform="translate(-0.098 0.066)" fill="none" stroke="#fff" stroke-linecap="round" stroke-width="3"/>
      <line id="直线_2" data-name="直线 2" x1="50" y2="49" transform="translate(-0.098 0.066)" fill="none" stroke="#fff" stroke-linecap="round" stroke-width="3"/>
    </g>
    <path id="路径_39" data-name="路径 39" d="M0,0H132.5" transform="translate(894.251 489.5)" fill="none" stroke="#fff" stroke-linecap="round" stroke-width="5" opacity="0.749"/>
  </g>
</svg>
