<?xml version="1.0" encoding="UTF-8"?>
<svg width="128px" height="128px" viewBox="0 0 128 128" version="1.1" xmlns="http://www.w3.org/2000/svg" xmlns:xlink="http://www.w3.org/1999/xlink">
    <!-- Generator: Sketch 62 (91390) - https://sketch.com -->
    <title>application-x-font-ttf</title>
    <desc>Created with Sketch.</desc>
    <defs>
        <linearGradient x1="50%" y1="0%" x2="50%" y2="99.372%" id="linearGradient-1">
            <stop stop-color="#D6D6D6" offset="0%"></stop>
            <stop stop-color="#AAAAAA" offset="98.276%"></stop>
        </linearGradient>
        <linearGradient x1="50%" y1="0%" x2="50%" y2="100%" id="linearGradient-2">
            <stop stop-color="#D4D4D4" offset="0%"></stop>
            <stop stop-color="#AAAAAA" offset="100%"></stop>
        </linearGradient>
        <path d="M0,0 L28.1856171,28.25 L9.75655977,28.25 C4.36816054,28.25 0,23.8718615 0,18.4711538 L0,0 Z" id="path-3"></path>
        <filter x="-24.8%" y="-17.7%" width="149.7%" height="149.6%" filterUnits="objectBoundingBox" id="filter-4">
            <feOffset dx="0" dy="2" in="SourceAlpha" result="shadowOffsetOuter1"></feOffset>
            <feGaussianBlur stdDeviation="2" in="shadowOffsetOuter1" result="shadowBlurOuter1"></feGaussianBlur>
            <feColorMatrix values="0 0 0 0 0   0 0 0 0 0   0 0 0 0 0  0 0 0 0.1 0" type="matrix" in="shadowBlurOuter1"></feColorMatrix>
        </filter>
        <linearGradient x1="50%" y1="50%" x2="10.489%" y2="91.194%" id="linearGradient-5">
            <stop stop-color="#FFFFFF" stop-opacity="0.1" offset="0%"></stop>
            <stop stop-color="#FFFFFF" stop-opacity="0.3" offset="100%"></stop>
        </linearGradient>
        <linearGradient x1="50%" y1="50%" x2="10.6688891%" y2="91.194%" id="linearGradient-6">
            <stop stop-color="#FFFFFF" stop-opacity="0.1" offset="0%"></stop>
            <stop stop-color="#FFFFFF" stop-opacity="0.3" offset="100%"></stop>
        </linearGradient>
    </defs>
    <g id="深色主题" stroke="none" stroke-width="1" fill="none" fill-rule="evenodd">
        <g id="按钮规范" transform="translate(-347.000000, -19.000000)">
            <g id="application-x-font-ttf" transform="translate(347.000000, 19.000000)">
                <rect id="矩形" x="0" y="0" width="128" height="128"></rect>
                <g id="编组" transform="translate(18.000000, 8.000000)" fill-rule="nonzero">
                    <g id="application-x-font-ttf-b-link" fill="#000000">
                        <path d="M62.8756074,0 L91.0612245,28.25 L91.0612245,103.221154 C91.0612245,108.621862 86.6930639,113 81.3046647,113 L9.75655977,113 C4.36816061,113 0,108.621862 0,103.221154 L0,9.77884615 C0,4.37813856 4.36816061,0 9.75655977,0 L62.8756074,0 Z" id="application-x-font-ttf-b"></path>
                    </g>
                    <g id="application-x-font-ttf-b-link" fill="url(#linearGradient-2)">
                        <path d="M62.8756074,0 L91.0612245,28.25 L91.0612245,103.221154 C91.0612245,108.621862 86.6930639,113 81.3046647,113 L9.75655977,113 C4.36816061,113 0,108.621862 0,103.221154 L0,9.77884615 C0,4.37813856 4.36816061,0 9.75655977,0 L62.8756074,0 Z" id="application-x-font-ttf-b"></path>
                    </g>
                    <g id="application-x-font-ttf-e-link" transform="translate(62.875607, 0.000000)">
                        <g id="application-x-font-ttf-e">
                            <use fill="black" fill-opacity="1" filter="url(#filter-4)" xlink:href="#path-3"></use>
                            <use fill="#D1D1D1" xlink:href="#path-3"></use>
                        </g>
                    </g>
                    <g id="application-x-font-ttf-e-link" transform="translate(62.875607, 0.000000)" fill="url(#linearGradient-6)">
                        <path d="M0,0 L28.1856171,28.25 L9.75655977,28.25 C4.36816054,28.25 0,23.8718615 0,18.4711538 L0,0 Z" id="application-x-font-ttf-e"></path>
                    </g>
                </g>
            </g>
        </g>
    </g>
</svg>