<?xml version="1.0" encoding="UTF-8"?>
<svg width="24px" height="24px" viewBox="0 0 24 24" version="1.1" xmlns="http://www.w3.org/2000/svg" xmlns:xlink="http://www.w3.org/1999/xlink">
    <!-- Generator: Sketch 56.2 (81672) - https://sketch.com -->
    <title>uncollection_press</title>
    <desc>Created with Sketch.</desc>
    <g id="页面-1" stroke="none" stroke-width="1" fill="none" fill-rule="evenodd">
        <g id="按钮规范" transform="translate(-113.000000, -303.000000)" stroke="#0081FF">
            <g id="uncollection_normal备份-2" transform="translate(113.000000, 303.000000)">
                <g id="checkbox/checked/normal" transform="translate(4.000000, 4.000000)">
                    <path d="M8.00002715,15.2654234 C8.79922215,14.4079099 10.3046168,12.8021626 10.6909812,12.383466 C11.7803984,11.2028827 12.5615404,10.3075769 13.2137899,9.47438299 C14.7608449,7.49815025 15.5,5.94159052 15.5,4.50335739 C15.5,0.228893606 10.3478703,-0.971395128 8.44101001,2.59788822 L7.99997813,3.42341683 L7.55898028,2.59787005 C5.64420844,-0.986577687 0.5,0.230142492 0.5,4.50335739 C0.5,5.94152416 1.23922127,7.49802786 2.78645162,9.47437211 C3.43868384,10.3074965 4.21972018,11.2026676 5.30930562,12.383472 C5.69416537,12.8005518 7.20001273,14.4069149 8.00002715,15.2654234 Z" id="收藏"></path>
                </g>
            </g>
        </g>
    </g>
</svg>