<?xml version="1.0" encoding="UTF-8"?>
<svg width="96px" height="96px" viewBox="0 0 96 96" version="1.1" xmlns="http://www.w3.org/2000/svg" xmlns:xlink="http://www.w3.org/1999/xlink">
    <title>wifi-close-dark</title>
    <defs>
        <filter x="-19.9%" y="-21.6%" width="139.7%" height="155.6%" filterUnits="objectBoundingBox" id="filter-1">
            <feOffset dx="0" dy="3" in="SourceAlpha" result="shadowOffsetOuter1"></feOffset>
            <feGaussianBlur stdDeviation="4" in="shadowOffsetOuter1" result="shadowBlurOuter1"></feGaussianBlur>
            <feColorMatrix values="0 0 0 0 0   0 0 0 0 0   0 0 0 0 0  0 0 0 0.552334872 0" type="matrix" in="shadowBlurOuter1" result="shadowMatrixOuter1"></feColorMatrix>
            <feMerge>
                <feMergeNode in="shadowMatrixOuter1"></feMergeNode>
                <feMergeNode in="SourceGraphic"></feMergeNode>
            </feMerge>
        </filter>
        <path d="M33.999758,36.3181818 C35.5441618,36.3181818 37.0170801,36.6230464 38.3611662,37.1756542 C38.3412769,37.4742581 38.3316391,37.7739873 38.3316391,38.0759494 C38.3316391,39.5255594 38.5537526,40.9237113 38.9660633,42.238747 L33.999758,47 L26.1234629,39.4494039 C28.1745962,37.5088918 30.9475765,36.3181818 33.999758,36.3181818 Z M33.999758,25.2090909 C37.368246,25.2090909 40.5589204,25.9674133 43.4091036,27.3220192 C42.0277239,28.4646973 40.8707439,29.8639066 40.0116271,31.4458194 C38.1458825,30.728811 36.1188314,30.3363636 33.999758,30.3363636 C29.2646937,30.3363636 24.9890946,32.2958451 21.9456608,35.4451414 L18.2359756,31.890558 C22.2158971,27.771804 27.8073711,25.2090909 33.999758,25.2090909 Z M33.999758,12.8181818 C43.7134131,12.8181818 52.4844392,16.8382127 58.7274663,23.2991283 L57.1031666,24.8561022 C55.6450112,24.350696 54.0777161,24.0759494 52.4457276,24.0759494 C51.9805997,24.0759494 51.5207268,24.0982667 51.0671379,24.1418808 C46.3037886,20.6075425 40.3970884,18.5151515 33.999758,18.5151515 C25.9050873,18.5151515 18.5959327,21.8651425 13.3934153,27.2491899 L9.2730113,23.2981331 C15.5159775,16.8377999 24.2866016,12.8181818 33.999758,12.8181818 Z M33.999758,0 C47.3555976,0 59.4154069,5.52718141 67.9995159,14.4104311 L63.8783923,18.3607431 C56.3347775,10.5542151 45.7367386,5.6969697 33.999758,5.6969697 C22.2627773,5.6969697 11.6647384,10.5542151 4.12112368,18.3607431 L-2.30926389e-14,14.4104311 C8.58410902,5.52718141 20.6439183,0 33.999758,0 Z" id="path-2"></path>
        <filter x="-2.9%" y="-4.3%" width="105.9%" height="108.5%" filterUnits="objectBoundingBox" id="filter-3">
            <feGaussianBlur stdDeviation="1" in="SourceAlpha" result="shadowBlurInner1"></feGaussianBlur>
            <feOffset dx="0" dy="-2" in="shadowBlurInner1" result="shadowOffsetInner1"></feOffset>
            <feComposite in="shadowOffsetInner1" in2="SourceAlpha" operator="arithmetic" k2="-1" k3="1" result="shadowInnerInner1"></feComposite>
            <feColorMatrix values="0 0 0 0 0   0 0 0 0 0   0 0 0 0 0  0 0 0 0.2 0" type="matrix" in="shadowInnerInner1" result="shadowMatrixInner1"></feColorMatrix>
            <feGaussianBlur stdDeviation="1" in="SourceAlpha" result="shadowBlurInner2"></feGaussianBlur>
            <feOffset dx="0" dy="1" in="shadowBlurInner2" result="shadowOffsetInner2"></feOffset>
            <feComposite in="shadowOffsetInner2" in2="SourceAlpha" operator="arithmetic" k2="-1" k3="1" result="shadowInnerInner2"></feComposite>
            <feColorMatrix values="0 0 0 0 1   0 0 0 0 1   0 0 0 0 1  0 0 0 0.096867488 0" type="matrix" in="shadowInnerInner2" result="shadowMatrixInner2"></feColorMatrix>
            <feMerge>
                <feMergeNode in="shadowMatrixInner1"></feMergeNode>
                <feMergeNode in="shadowMatrixInner2"></feMergeNode>
            </feMerge>
        </filter>
        <path d="M52.557869,27.6671971 C58.3794481,27.6671971 63.0987705,32.3483717 63.0987705,38.1228933 C63.0987705,43.8974149 58.3794481,48.5785895 52.557869,48.5785895 C46.7362898,48.5785895 42.0169675,43.8974149 42.0169675,38.1228933 C42.0169675,32.3483717 46.7362898,27.6671971 52.557869,27.6671971 Z M45.0169675,38.1228933 C45.0169675,42.2350857 48.3877181,45.5785895 52.557869,45.5785895 C53.8776566,45.5785895 55.1173744,45.2436963 56.1955111,44.655531 L45.9632532,34.5044892 C45.360253,35.5765498 45.0169675,36.810579 45.0169675,38.1228933 Z M52.557869,30.6671971 C50.8133399,30.6671971 49.2087106,31.2523303 47.9322336,32.2340905 L58.4994173,42.7143672 C59.501765,41.4479687 60.0987705,39.8535036 60.0987705,38.1228933 C60.0987705,34.0107009 56.7280199,30.6671971 52.557869,30.6671971 Z" id="path-4"></path>
        <filter x="-7.1%" y="-7.2%" width="114.2%" height="114.3%" filterUnits="objectBoundingBox" id="filter-5">
            <feGaussianBlur stdDeviation="1" in="SourceAlpha" result="shadowBlurInner1"></feGaussianBlur>
            <feOffset dx="0" dy="-1" in="shadowBlurInner1" result="shadowOffsetInner1"></feOffset>
            <feComposite in="shadowOffsetInner1" in2="SourceAlpha" operator="arithmetic" k2="-1" k3="1" result="shadowInnerInner1"></feComposite>
            <feColorMatrix values="0 0 0 0 0   0 0 0 0 0   0 0 0 0 0  0 0 0 0.2 0" type="matrix" in="shadowInnerInner1" result="shadowMatrixInner1"></feColorMatrix>
            <feGaussianBlur stdDeviation="1" in="SourceAlpha" result="shadowBlurInner2"></feGaussianBlur>
            <feOffset dx="0" dy="1" in="shadowBlurInner2" result="shadowOffsetInner2"></feOffset>
            <feComposite in="shadowOffsetInner2" in2="SourceAlpha" operator="arithmetic" k2="-1" k3="1" result="shadowInnerInner2"></feComposite>
            <feColorMatrix values="0 0 0 0 1   0 0 0 0 1   0 0 0 0 1  0 0 0 0.096867488 0" type="matrix" in="shadowInnerInner2" result="shadowMatrixInner2"></feColorMatrix>
            <feMerge>
                <feMergeNode in="shadowMatrixInner1"></feMergeNode>
                <feMergeNode in="shadowMatrixInner2"></feMergeNode>
            </feMerge>
        </filter>
    </defs>
    <g id="页面-1" stroke="none" stroke-width="1" fill="none" fill-rule="evenodd">
        <g id="网络列表" transform="translate(-166, -204)">
            <g id="网络" transform="translate(48, 56)">
                <g id="wifi-close-dark" transform="translate(118, 148)">
                    <rect id="矩形" x="0" y="0" width="96" height="96"></rect>
                    <g id="编组-11" filter="url(#filter-1)" transform="translate(14.0002, 24)" fill-rule="nonzero">
                        <g id="形状结合">
                            <use fill-opacity="0.2" fill="#FFFFFF" xlink:href="#path-2"></use>
                            <use fill="black" fill-opacity="1" filter="url(#filter-3)" xlink:href="#path-2"></use>
                        </g>
                        <g id="形状结合">
                            <use fill-opacity="0.2" fill="#FFFFFF" xlink:href="#path-4"></use>
                            <use fill="black" fill-opacity="1" filter="url(#filter-5)" xlink:href="#path-4"></use>
                        </g>
                    </g>
                </g>
            </g>
        </g>
    </g>
</svg>