<?xml version="1.0" encoding="utf-8"?>
<!-- Generator: Adobe Illustrator 24.2.1, SVG Export Plug-In . SVG Version: 6.00 Build 0)  -->
<svg version="1.1" id="选中" xmlns="http://www.w3.org/2000/svg" xmlns:xlink="http://www.w3.org/1999/xlink" x="0px" y="0px"
	 width="24px" height="24px" viewBox="0 0 24 24" style="enable-background:new 0 0 24 24;" xml:space="preserve">
<style type="text/css">
	.st0{fill:#FD625E;}
	.st1{fill:#FFFFFF;}
</style>
<g id="椭圆_1954">
	<path class="st0" d="M12,0c6.6,0,12,5.4,12,12s-5.4,12-12,12S0,18.6,0,12S5.4,0,12,0z"/>
</g>
<g id="组_49" transform="translate(1199.5 939.5)">
	<g id="直线_1">
		<path class="st1" d="M-1181.5-920.9c-0.1,0-0.3-0.1-0.4-0.2l-12-11.2c-0.2-0.2-0.2-0.6,0-0.8c0.2-0.2,0.6-0.2,0.8,0l12,11.3
			c0.2,0.2,0.2,0.6,0,0.8C-1181.2-921-1181.3-920.9-1181.5-920.9z"/>
	</g>
	<g id="直线_2">
		<path class="st1" d="M-1193.5-920.9c-0.1,0-0.3-0.1-0.4-0.2c-0.2-0.2-0.2-0.6,0-0.8l12-11.3c0.2-0.2,0.6-0.2,0.8,0
			c0.2,0.2,0.2,0.6,0,0.8l-12,11.2C-1193.2-921-1193.4-920.9-1193.5-920.9z"/>
	</g>
</g>
</svg>
