<svg width="2123.999512" height="288.000000" viewBox="0 0 2124 288" fill="none" xmlns="http://www.w3.org/2000/svg" xmlns:xlink="http://www.w3.org/1999/xlink">
	<desc>
			Created with Pixso.
	</desc>
	<defs>
		<filter id="filter_2_14_dd" x="47.087036" y="63.679871" width="206.987671" height="171.070435" filterUnits="userSpaceOnUse" color-interpolation-filters="sRGB">
			<feFlood flood-opacity="0" result="BackgroundImageFix"/>
			<feColorMatrix in="SourceAlpha" type="matrix" values="0 0 0 0 0 0 0 0 0 0 0 0 0 0 0 0 0 0 127 0" result="hardAlpha"/>
			<feOffset dx="0" dy="4"/>
			<feGaussianBlur stdDeviation="1.33333"/>
			<feComposite in2="hardAlpha" operator="out" k2="-1" k3="1"/>
			<feColorMatrix type="matrix" values="0 0 0 0 0 0 0 0 0 0 0 0 0 0 0 0 0 0 0.25 0"/>
			<feBlend mode="normal" in2="BackgroundImageFix" result="effect_dropShadow_1"/>
			<feBlend mode="normal" in="SourceGraphic" in2="effect_dropShadow_1" result="shape"/>
			<feColorMatrix in="SourceAlpha" type="matrix" values="0 0 0 0 0 0 0 0 0 0 0 0 0 0 0 0 0 0 127 0" result="hardAlpha"/>
			<feOffset dx="3" dy="6"/>
			<feGaussianBlur stdDeviation="2.66667"/>
			<feComposite in2="hardAlpha" operator="arithmetic" k2="-1" k3="1"/>
			<feColorMatrix type="matrix" values="0 0 0 0 0.32941 0 0 0 0 0.32941 0 0 0 0 0.32941 0 0 0 0.11 0"/>
			<feBlend mode="normal" in2="shape" result="effect_innerShadow_2"/>
		</filter>
		<filter id="filter_2_15_dd" x="28.087463" y="56.679688" width="198.932129" height="195.070404" filterUnits="userSpaceOnUse" color-interpolation-filters="sRGB">
			<feFlood flood-opacity="0" result="BackgroundImageFix"/>
			<feColorMatrix in="SourceAlpha" type="matrix" values="0 0 0 0 0 0 0 0 0 0 0 0 0 0 0 0 0 0 127 0" result="hardAlpha"/>
			<feOffset dx="-7" dy="9"/>
			<feGaussianBlur stdDeviation="5.33333"/>
			<feComposite in2="hardAlpha" operator="out" k2="-1" k3="1"/>
			<feColorMatrix type="matrix" values="0 0 0 0 0.28627 0 0 0 0 0.28627 0 0 0 0 0.28627 0 0 0 0.25 0"/>
			<feBlend mode="normal" in2="BackgroundImageFix" result="effect_dropShadow_1"/>
			<feBlend mode="normal" in="SourceGraphic" in2="effect_dropShadow_1" result="shape"/>
		</filter>
		<filter id="filter_2_16_dd" x="110.565430" y="131.570923" width="148.509399" height="87.844940" filterUnits="userSpaceOnUse" color-interpolation-filters="sRGB">
			<feFlood flood-opacity="0" result="BackgroundImageFix"/>
			<feColorMatrix in="SourceAlpha" type="matrix" values="0 0 0 0 0 0 0 0 0 0 0 0 0 0 0 0 0 0 127 0" result="hardAlpha"/>
			<feOffset dx="-7" dy="9"/>
			<feGaussianBlur stdDeviation="5.33333"/>
			<feComposite in2="hardAlpha" operator="out" k2="-1" k3="1"/>
			<feColorMatrix type="matrix" values="0 0 0 0 0.28627 0 0 0 0 0.28627 0 0 0 0 0.28627 0 0 0 0.25 0"/>
			<feBlend mode="normal" in2="BackgroundImageFix" result="effect_dropShadow_1"/>
			<feBlend mode="normal" in="SourceGraphic" in2="effect_dropShadow_1" result="shape"/>
		</filter>
		<linearGradient x1="110.964310" y1="111.633392" x2="496.044403" y2="346.129150" id="paint_linear_2_14_0" gradientUnits="userSpaceOnUse">
			<stop stop-color="#FFFFFF"/>
			<stop offset="1.000000" stop-color="#FFFFFF" stop-opacity="0.000000"/>
		</linearGradient>
	</defs>
	<rect id="画板 1" width="2123.999512" height="288.000000" fill="#FFFFFF" fill-opacity="0"/>
	<path id="Lingmo OS" d="M1247.22 145.82C1247.22 158.26 1245.06 169.19 1240.76 178.61Q1235.78 189.49 1227.52 196.51L1227.52 196.51Q1225.06 198.6 1222.31 200.34C1214.32 205.42 1205.11 207.96 1194.64 207.96C1178.85 207.96 1166.1 202.31 1156.37 191.01C1146.65 179.71 1141.79 164.46 1141.79 145.26L1141.79 131.32C1141.79 119 1143.97 108.09 1148.34 98.58Q1153.57 87.17 1162.31 79.98Q1164.48 78.19 1166.87 76.66C1174.86 71.55 1184.05 69 1194.46 69C1204.86 69 1214.04 71.5 1222 76.52Q1225.15 78.51 1227.92 80.93Q1235.65 87.67 1240.43 97.79Q1246.93 111.54 1247.22 129.65L1247.22 145.82ZM1352.55 172.85C1352.55 165.35 1349.91 159.42 1344.65 155.06C1339.39 150.69 1329.76 146.54 1315.76 142.61C1301.77 138.68 1291.55 134.39 1285.11 129.75C1275.94 123.18 1271.37 114.57 1271.37 103.92Q1271.37 96.82 1274.04 90.94Q1277.21 83.97 1284.14 78.7C1292.65 72.23 1303.53 69 1316.79 69C1325.76 69 1333.8 70.73 1340.89 74.2C1347.98 77.67 1353.48 82.5 1357.38 88.69C1361.28 94.88 1363.23 101.79 1363.23 109.4L1351.71 109.4C1351.71 100.18 1348.55 92.76 1342.24 87.16Q1341.48 86.48 1340.67 85.86Q1331.48 78.75 1316.79 78.75C1306.43 78.75 1298.21 81.06 1292.07 85.67C1285.94 90.28 1282.88 96.3 1282.88 103.74C1282.88 110.61 1285.64 116.21 1291.15 120.55C1296.66 124.88 1305.48 128.71 1317.62 132.02C1329.76 135.33 1338.95 138.77 1345.21 142.33C1351.46 145.89 1356.17 150.15 1359.33 155.1Q1359.7 155.7 1360.05 156.3L1360.07 156.33Q1364.06 163.36 1364.06 172.66C1364.06 183.31 1359.81 191.86 1351.29 198.3C1342.78 204.74 1331.55 207.96 1317.62 207.96C1308.09 207.96 1299.34 206.26 1291.38 202.85C1283.42 199.44 1277.39 194.68 1273.27 188.55C1269.15 182.41 1267.09 175.39 1267.09 167.46L1278.52 167.46C1278.52 177 1282.07 184.52 1289.19 190.03C1296.31 195.54 1305.79 198.3 1317.62 198.3C1328.15 198.3 1336.6 195.98 1342.98 191.33C1349.36 186.69 1352.55 180.53 1352.55 172.85ZM464 206.1L464 70.3L483.04 70.3L483.04 189.57L542.02 189.57L542.02 206.1L464 206.1ZM568.45 97.65Q565.33 97.65 562.95 96.34Q561.67 95.63 560.6 94.54C558.58 92.43 557.58 89.8 557.58 86.64C557.58 83.58 558.58 81.01 560.6 78.93Q561.71 77.78 563.06 77.05Q565.4 75.78 568.45 75.78Q571.43 75.78 573.73 77.03Q575.08 77.76 576.2 78.93C578.24 81.01 579.27 83.58 579.27 86.64C579.27 89.8 578.24 92.43 576.2 94.54Q575.13 95.65 573.84 96.36Q571.5 97.65 568.45 97.65ZM1235.79 131.14C1235.79 114.85 1232.11 102.1 1224.74 92.87C1217.37 83.64 1207.27 79.03 1194.46 79.03C1181.89 79.03 1171.87 83.66 1164.41 92.91C1156.94 102.17 1153.22 115.1 1153.22 131.7L1153.22 145.82C1153.22 161.85 1156.93 174.57 1164.36 183.95C1171.79 193.33 1181.89 198.02 1194.64 198.02C1207.57 198.02 1217.68 193.39 1224.92 184.13Q1235.79 170.25 1235.79 145.44L1235.79 131.14ZM748.95 204.57C740.71 204.57 733.33 202.6 726.8 198.67C720.26 194.74 715.09 189.32 711.28 182.41C707.48 175.51 705.57 167.74 705.57 159.1C705.57 150.49 707.48 142.8 711.28 136.02C715.09 129.2 720.26 123.8 726.8 119.81C733.33 115.81 740.71 113.82 748.95 113.82C756.07 113.82 762.35 115.22 767.8 118.04C772.5 120.44 776.37 123.68 779.41 127.74L779.41 115.72L796.51 115.72L796.51 202.48C796.51 211.12 794.51 218.66 790.51 225.1C786.52 231.57 780.93 236.65 773.75 240.33C766.6 244.02 758.33 245.86 748.95 245.86C739.69 245.86 731.47 244.14 724.29 240.7C717.14 237.3 711.41 232.48 707.1 226.26L718.16 215.07C721.81 219.74 726.18 223.32 731.25 225.79C736.33 228.27 742.35 229.51 749.32 229.51C758.58 229.51 765.9 227.06 771.29 222.17C776.71 217.28 779.41 210.71 779.41 202.48L779.41 190.44C776.35 194.62 772.41 197.94 767.62 200.39C762.17 203.18 755.95 204.57 748.95 204.57ZM882.68 206.1L882.68 151.48C882.68 144.76 880.62 139.48 876.51 135.64C872.39 131.77 867.22 129.84 860.99 129.84C856.81 129.84 853.07 130.72 849.76 132.49C846.47 134.25 843.81 136.73 841.77 139.92Q841.75 139.95 841.72 139.99Q838.75 144.7 838.75 151.3L838.75 206.1L821.61 206.1L821.61 115.72L838.75 115.72L838.75 126.25C841.39 122.94 844.62 120.23 848.45 118.13C853.66 115.25 859.49 113.82 865.96 113.82C872.31 113.82 878.04 115.22 883.15 118.04C888.29 120.83 892.34 124.76 895.32 129.84C895.38 129.95 895.45 130.07 895.52 130.19Q895.6 130.06 895.69 129.93Q898.24 126.14 901.54 123.17Q904.78 120.25 908.74 118.13C914.06 115.25 919.9 113.82 926.25 113.82C932.84 113.82 938.74 115.22 943.94 118.04C949.14 120.83 953.29 124.76 956.39 129.84C959.51 134.89 961.08 140.97 961.08 148.09L961.08 206.1L943.75 206.1L943.75 151.48C943.75 144.76 941.7 139.48 937.58 135.64C933.46 131.77 928.35 129.84 922.25 129.84C918.07 129.84 914.29 130.72 910.92 132.49C907.58 134.25 904.88 136.73 902.84 139.92Q902.82 139.95 902.8 139.99Q899.82 144.7 899.82 151.3L899.82 206.1L882.68 206.1ZM1025.55 208.01C1016.66 208.01 1008.67 205.92 1001.58 201.74C994.49 197.56 988.84 191.89 984.63 184.74C980.45 177.55 978.36 169.52 978.36 160.63C978.36 151.87 980.45 143.97 984.63 136.94C988.84 129.92 994.49 124.31 1001.58 120.13C1008.67 115.92 1016.66 113.82 1025.55 113.82C1034.31 113.82 1042.27 115.89 1049.42 120.04C1056.6 124.16 1062.28 129.76 1066.46 136.85C1070.64 143.94 1072.73 151.87 1072.73 160.63C1072.73 169.52 1070.64 177.55 1066.46 184.74C1062.28 191.89 1056.6 197.56 1049.42 201.74C1042.27 205.92 1034.31 208.01 1025.55 208.01ZM604.97 119.3C609.03 118.28 614.42 117.2 621.13 116.05C627.85 114.9 635.59 114.33 644.36 114.33C652.22 114.33 658.74 115.45 663.91 117.68C669.11 119.87 673.26 122.97 676.35 126.96C679.48 130.96 681.68 135.76 682.95 141.36C684.22 146.94 684.85 153.08 684.85 159.8L684.85 206.1L667.16 206.1C667.16 206.1 667.17 203.16 667.17 198.55C667.17 183.66 667.04 151.44 665.9 145.36C664.42 137.4 660.95 133.67 654.2 131.75C651.04 130.54 647.13 129.94 642.45 129.94C640.53 129.94 638.55 130 636.51 130.12C634.49 130.25 632.56 130.4 630.7 130.59C628.87 130.77 627.23 131 625.78 131.28C624.32 131.53 623.28 131.72 622.67 131.84L622.67 206.1L604.97 206.1L604.97 119.3ZM559.85 206.1L559.85 115.72L576.99 115.72L576.99 206.1L559.85 206.1ZM752.39 188.41C757.96 188.41 762.87 187.2 767.11 184.78C771.38 182.37 774.65 178.98 776.91 174.61C779.2 170.25 780.34 165.14 780.34 159.28C780.34 153.46 779.17 148.37 776.81 144C774.49 139.61 771.23 136.19 767.01 133.74C762.83 131.26 757.9 130.02 752.2 130.02C746.5 130.02 741.49 131.26 737.15 133.74C732.85 136.19 729.46 139.61 726.98 144C724.5 148.37 723.27 153.4 723.27 159.1C723.27 164.83 724.5 169.91 726.98 174.33C729.46 178.76 732.88 182.21 737.24 184.69C741.64 187.17 746.69 188.41 752.39 188.41ZM1025.55 191.47C1031.24 191.47 1036.31 190.14 1040.73 187.48C1045.18 184.81 1048.68 181.18 1051.23 176.56Q1051.35 176.34 1051.47 176.12Q1055.04 169.31 1055.04 160.63C1055.04 154.81 1053.74 149.62 1051.14 145.07C1048.54 140.49 1045.04 136.9 1040.64 134.3C1036.28 131.7 1031.24 130.39 1025.55 130.39C1019.85 130.39 1014.77 131.7 1010.31 134.3Q1007.47 135.97 1005.15 138.18Q1002.04 141.14 999.86 145.07C997.32 149.62 996.05 154.81 996.05 160.63C996.05 166.61 997.32 171.92 999.86 176.56C1002.4 181.18 1005.89 184.81 1010.31 187.48C1014.77 190.14 1019.85 191.47 1025.55 191.47Z" fill="#2779FF" fill-opacity="1.000000" fill-rule="evenodd"/>
	<ellipse id="椭圆 3" cx="143.991821" cy="144.000000" rx="143.991821" ry="144.000000" fill="#2779FF" fill-opacity="1.000000"/>
	<g filter="url(#filter_2_14_dd)">
		<path id="差集" d="M58.0328 101.127C74.4404 67.8742 114.697 54.2179 147.949 70.6249C164.575 78.8285 176.302 92.9946 181.821 109.266C184.325 116.493 186.273 129.932 188.082 145.276C181.948 149.072 175.861 152.855 170.066 156.407C168.075 137.367 166.036 121.286 163.416 115.51C159.495 103.948 151.162 93.8829 139.349 88.0541C115.723 76.3965 87.1194 86.0996 75.4613 109.727C63.8032 133.354 73.5054 161.958 97.1317 173.615C108.945 179.444 122.002 179.933 133.564 176.011L139.807 194.416C123.535 199.936 105.158 199.248 88.5319 191.045C55.28 174.638 41.6251 134.38 58.0328 101.127ZM172.193 177.477C158.916 185.376 147.066 192.006 139.808 194.416L133.565 176.011C139.743 174.576 153.745 166.411 170.066 156.407C170.773 163.167 171.474 170.3 172.193 177.477ZM172.193 177.477C178.088 173.97 184.265 170.212 190.446 166.463C190.759 169.328 191.073 172.193 191.392 175.034C193.076 190.068 210.493 206.4 218.019 210.113L209.81 226.75C196.343 220.105 177.799 202.582 172.203 177.579C172.2 177.545 172.196 177.511 172.193 177.477ZM190.446 166.463C189.661 159.276 188.885 152.088 188.082 145.276C188.111 145.257 188.141 145.239 188.171 145.221C211.418 134.45 236.607 138.505 250.075 145.15L241.866 161.787C234.34 158.073 210.782 154.187 197.825 161.998C195.377 163.474 192.911 164.968 190.446 166.463Z" clip-rule="evenodd" fill="url(#paint_linear_2_14_0)" fill-opacity="1.000000" fill-rule="evenodd"/>
	</g>
	<path id="矩形 2" d="M1532.01 69L2081.99 69C2105.19 69 2124 87.86 2124 111.14L2124 174.85L2124 217L2081.99 217L1532.01 217C1508.81 217 1490 198.13 1490 174.85L1490 111.14L1490 69L1532.01 69Z" fill="#2779FF" fill-opacity="1.000000" fill-rule="evenodd"/>
	<path id="矢量 16" d="M1745.1 160.76L1745.1 102L1758.01 102L1758.01 160.76C1758.01 164.6 1758.73 167.28 1760.18 168.79C1761.74 170.42 1764.64 171.23 1768.89 171.23L1802.64 171.23L1802.64 184.02L1768.89 184.02C1761.64 184.02 1755.98 182.23 1751.93 178.67C1751.55 178.32 1751.17 177.96 1750.81 177.59C1750.62 177.39 1750.44 177.19 1750.26 176.98C1746.82 173.04 1745.1 167.64 1745.1 160.76ZM1877.72 102L1877.72 146.94C1877.72 152.59 1878.24 157.39 1879.28 161.34C1880.55 166.13 1882.66 170.15 1885.61 173.39C1885.74 173.53 1885.86 173.66 1885.98 173.79C1889.35 177.32 1893.8 179.93 1899.32 181.61C1904.62 183.22 1911.12 184.02 1918.82 184.02L1945.98 184.02L1945.98 102L1933.22 102L1933.22 171.23L1918.82 171.23C1907.07 171.23 1899.2 169.14 1895.21 164.96C1893.57 163.24 1892.37 160.94 1891.62 158.08C1890.86 155.19 1890.48 151.48 1890.48 146.94L1890.48 102L1877.72 102ZM1553 184.81L1553 102.97L1565.9 102.97L1565.9 184.81L1553 184.81ZM1655.53 115.78L1713.9 115.78L1713.9 102.97L1655.53 102.97L1655.53 115.78ZM1833.84 102.97L1833.84 185L1846.52 185L1846.52 102.97L1833.84 102.97ZM1977.19 184.02L1988.81 184.02L1988.81 102.97L1977.19 102.97L1977.19 184.02ZM2020.06 151.39L1994.97 107.39L1994.97 134.14L2013.69 163.43C2015.95 166.78 2023.02 166.97 2025.44 163.43L2050.62 121.58L2050.62 184.02L2063 184.02L2063 110.4C2063 105.31 2060.04 102.97 2055.2 102.97L2047.39 102.97L2020.06 151.39ZM1610.31 133.3L1610.31 103.15L1623.21 103.15L1623.21 185L1610.31 185L1610.31 146.08L1572.35 146.08L1572.35 133.3L1610.31 133.3ZM1654.65 123.91L1654.61 130.31L1654.41 160.66C1654.41 167.61 1656.16 173.06 1659.65 177.02C1659.82 177.21 1659.99 177.39 1660.16 177.57C1660.52 177.95 1660.9 178.31 1661.28 178.65C1665.36 182.23 1671.05 184.02 1678.35 184.02L1713.62 184.02L1713.62 171.22L1678.35 171.22C1674.07 171.22 1671.15 170.4 1669.58 168.77C1668.12 167.25 1667.39 164.57 1667.39 160.74L1667.58 130.4L1667.62 123.99L1654.65 123.91ZM1674.8 147.97L1710.38 147.97L1710.38 135.16L1674.8 135.16L1674.8 147.97Z" fill="#FFFFFF" fill-opacity="1.000000" fill-rule="evenodd"/>
</svg>
