<svg width="1364.063232" height="354.000000" viewBox="0 0 1364.06 354" fill="none" xmlns="http://www.w3.org/2000/svg" xmlns:xlink="http://www.w3.org/1999/xlink">
	<desc>
			Created with Pixso.
	</desc>
	<defs>
		<filter id="filter_6_6_dd" x="47.087036" y="96.679626" width="206.987671" height="171.070374" filterUnits="userSpaceOnUse" color-interpolation-filters="sRGB">
			<feFlood flood-opacity="0" result="BackgroundImageFix"/>
			<feColorMatrix in="SourceAlpha" type="matrix" values="0 0 0 0 0 0 0 0 0 0 0 0 0 0 0 0 0 0 127 0" result="hardAlpha"/>
			<feOffset dx="0" dy="4"/>
			<feGaussianBlur stdDeviation="1.33333"/>
			<feComposite in2="hardAlpha" operator="out" k2="-1" k3="1"/>
			<feColorMatrix type="matrix" values="0 0 0 0 0 0 0 0 0 0 0 0 0 0 0 0 0 0 0.25 0"/>
			<feBlend mode="normal" in2="BackgroundImageFix" result="effect_dropShadow_1"/>
			<feBlend mode="normal" in="SourceGraphic" in2="effect_dropShadow_1" result="shape"/>
			<feColorMatrix in="SourceAlpha" type="matrix" values="0 0 0 0 0 0 0 0 0 0 0 0 0 0 0 0 0 0 127 0" result="hardAlpha"/>
			<feOffset dx="3" dy="6"/>
			<feGaussianBlur stdDeviation="2.66667"/>
			<feComposite in2="hardAlpha" operator="arithmetic" k2="-1" k3="1"/>
			<feColorMatrix type="matrix" values="0 0 0 0 0.32941 0 0 0 0 0.32941 0 0 0 0 0.32941 0 0 0 0.11 0"/>
			<feBlend mode="normal" in2="shape" result="effect_innerShadow_2"/>
		</filter>
		<filter id="filter_6_7_dd" x="28.087402" y="89.679443" width="198.932129" height="195.070435" filterUnits="userSpaceOnUse" color-interpolation-filters="sRGB">
			<feFlood flood-opacity="0" result="BackgroundImageFix"/>
			<feColorMatrix in="SourceAlpha" type="matrix" values="0 0 0 0 0 0 0 0 0 0 0 0 0 0 0 0 0 0 127 0" result="hardAlpha"/>
			<feOffset dx="-7" dy="9"/>
			<feGaussianBlur stdDeviation="5.33333"/>
			<feComposite in2="hardAlpha" operator="out" k2="-1" k3="1"/>
			<feColorMatrix type="matrix" values="0 0 0 0 0.28627 0 0 0 0 0.28627 0 0 0 0 0.28627 0 0 0 0.25 0"/>
			<feBlend mode="normal" in2="BackgroundImageFix" result="effect_dropShadow_1"/>
			<feBlend mode="normal" in="SourceGraphic" in2="effect_dropShadow_1" result="shape"/>
		</filter>
		<filter id="filter_6_8_dd" x="110.565430" y="164.570740" width="148.509399" height="87.844910" filterUnits="userSpaceOnUse" color-interpolation-filters="sRGB">
			<feFlood flood-opacity="0" result="BackgroundImageFix"/>
			<feColorMatrix in="SourceAlpha" type="matrix" values="0 0 0 0 0 0 0 0 0 0 0 0 0 0 0 0 0 0 127 0" result="hardAlpha"/>
			<feOffset dx="-7" dy="9"/>
			<feGaussianBlur stdDeviation="5.33333"/>
			<feComposite in2="hardAlpha" operator="out" k2="-1" k3="1"/>
			<feColorMatrix type="matrix" values="0 0 0 0 0.28627 0 0 0 0 0.28627 0 0 0 0 0.28627 0 0 0 0.25 0"/>
			<feBlend mode="normal" in2="BackgroundImageFix" result="effect_dropShadow_1"/>
			<feBlend mode="normal" in="SourceGraphic" in2="effect_dropShadow_1" result="shape"/>
		</filter>
		<linearGradient x1="110.964371" y1="144.633118" x2="496.044464" y2="379.128845" id="paint_linear_6_6_0" gradientUnits="userSpaceOnUse">
			<stop stop-color="#FFFFFF"/>
			<stop offset="1.000000" stop-color="#FFFFFF" stop-opacity="0.000000"/>
		</linearGradient>
	</defs>
	<rect id="画板 2" width="1364.063232" height="354.000000" fill="#FFFFFF" fill-opacity="0"/>
	<path id="矩形 2" d="M498.32 233L947.67 233C966.63 233 982 248.42 982 267.45L982 319.54L982 354L947.67 354L498.32 354C479.36 354 464 338.57 464 319.54L464 267.45L464 233L498.32 233Z" fill="#2779FF" fill-opacity="1.000000" fill-rule="evenodd"/>
	<path id="矢量 16" d="M672.07 308.14L672.07 260L682.62 260L682.62 308.14C682.62 311.29 683.21 313.48 684.4 314.72C685.67 316.05 688.04 316.72 691.52 316.72L719.11 316.72L719.11 327.2L691.52 327.2C685.59 327.2 680.96 325.73 677.65 322.81C677.34 322.53 677.03 322.24 676.74 321.93C676.58 321.76 676.43 321.6 676.28 321.43C673.47 318.2 672.07 313.77 672.07 308.14ZM780.5 260L780.5 296.81C780.5 301.44 780.93 305.38 781.78 308.61C782.81 312.54 784.54 315.83 786.96 318.49C787.06 318.6 787.16 318.71 787.26 318.81C790.01 321.71 793.65 323.85 798.17 325.22C802.5 326.54 807.81 327.2 814.11 327.2L836.32 327.2L836.32 260L825.88 260L825.88 316.72L814.11 316.72C804.5 316.72 798.06 315 794.8 311.58C793.46 310.17 792.48 308.29 791.87 305.94C791.25 303.58 790.94 300.54 790.94 296.81L790.94 260L780.5 260ZM515 327.85L515 260.79L525.54 260.79L525.54 327.85L515 327.85ZM598.83 271.29L646.55 271.29L646.55 260.79L598.83 260.79L598.83 271.29ZM744.62 260.79L744.62 328L754.99 328L754.99 260.79L744.62 260.79ZM861.83 327.2L871.34 327.2L871.34 260.79L861.83 260.79L861.83 327.2ZM896.88 300.46L876.37 264.41L876.37 286.33L891.68 310.33C893.53 313.07 899.31 313.22 901.29 310.33L921.87 276.04L921.87 327.2L932 327.2L932 266.88C932 262.71 929.58 260.79 925.62 260.79L919.24 260.79L896.88 300.46ZM561.86 285.64L561.86 260.95L572.4 260.95L572.4 328L561.86 328L561.86 296.12L530.82 296.12L530.82 285.64L561.86 285.64ZM598.11 277.95L598.07 283.19L597.92 308.06C597.92 313.75 599.34 318.22 602.2 321.46C602.33 321.61 602.47 321.77 602.62 321.92C602.91 322.22 603.22 322.51 603.53 322.79C606.87 325.73 611.52 327.2 617.49 327.2L646.33 327.2L646.33 316.71L617.49 316.71C613.99 316.71 611.6 316.04 610.31 314.7C609.12 313.45 608.52 311.26 608.52 308.12L608.68 283.26L608.71 278.01L598.11 277.95ZM614.58 297.66L643.67 297.66L643.67 287.17L614.58 287.17L614.58 297.66Z" fill="#FFFFFF" fill-opacity="1.000000" fill-rule="evenodd"/>
	<path id="Lingmo OS" d="M1247.21 76.81C1247.21 89.26 1245.06 100.19 1240.76 109.61Q1235.78 120.49 1227.52 127.51L1227.52 127.51Q1225.06 129.6 1222.31 131.34C1214.32 136.42 1205.11 138.96 1194.64 138.96C1178.85 138.96 1166.1 133.31 1156.37 122.01C1146.65 110.7 1141.79 95.45 1141.79 76.26L1141.79 62.32C1141.79 50 1143.97 39.09 1148.34 29.58Q1153.57 18.17 1162.31 10.98Q1164.48 9.19 1166.87 7.66C1174.86 2.55 1184.05 0 1194.46 0C1204.86 0 1214.04 2.5 1222 7.52Q1225.15 9.51 1227.92 11.93Q1235.65 18.67 1240.43 28.79Q1246.93 42.54 1247.21 60.65L1247.21 76.81ZM1352.55 103.85C1352.55 96.35 1349.91 90.42 1344.65 86.06C1339.39 81.69 1329.76 77.54 1315.76 73.61C1301.77 69.68 1291.55 65.39 1285.11 60.75C1275.94 54.18 1271.36 45.57 1271.36 34.92Q1271.36 27.82 1274.04 21.94Q1277.21 14.97 1284.14 9.7C1292.65 3.23 1303.53 0 1316.78 0C1325.76 0 1333.8 1.73 1340.89 5.2C1347.98 8.66 1353.47 13.5 1357.38 19.69C1361.28 25.88 1363.23 32.79 1363.23 40.4L1351.71 40.4C1351.71 31.18 1348.55 23.76 1342.24 18.16Q1341.47 17.48 1340.67 16.86Q1331.48 9.75 1316.78 9.75C1306.43 9.75 1298.21 12.06 1292.07 16.67C1285.94 21.28 1282.88 27.3 1282.88 34.74C1282.88 41.61 1285.64 47.21 1291.15 51.55C1296.66 55.88 1305.48 59.71 1317.62 63.02C1329.76 66.33 1338.95 69.77 1345.21 73.33C1351.46 76.89 1356.17 81.15 1359.33 86.1Q1359.7 86.7 1360.05 87.3L1360.07 87.33Q1364.06 94.36 1364.06 103.66C1364.06 114.31 1359.81 122.86 1351.29 129.3C1342.78 135.74 1331.55 138.96 1317.62 138.96C1308.07 138.96 1299.34 137.25 1291.38 133.85C1283.42 130.44 1277.39 125.68 1273.27 119.54C1269.15 113.41 1267.09 106.39 1267.09 98.46L1278.52 98.46C1278.52 108 1282.07 115.52 1289.19 121.03C1296.31 126.54 1305.79 129.3 1317.62 129.3C1328.15 129.3 1336.6 126.98 1342.98 122.33C1349.36 117.69 1352.55 111.53 1352.55 103.85ZM464 137.1L464 1.3L483.04 1.3L483.04 120.57L542.02 120.57L542.02 137.1L464 137.1ZM568.44 28.65Q565.33 28.65 562.95 27.33Q561.67 26.63 560.59 25.54C558.58 23.43 557.58 20.8 557.58 17.64C557.58 14.58 558.58 12.01 560.59 9.93Q561.71 8.78 563.06 8.05Q565.4 6.78 568.44 6.78Q571.43 6.78 573.73 8.03Q575.08 8.76 576.2 9.93C578.24 12.01 579.27 14.58 579.27 17.64C579.27 20.8 578.24 23.43 576.2 25.54Q575.13 26.65 573.83 27.36Q571.5 28.65 568.44 28.65ZM1235.79 62.14C1235.79 45.85 1232.1 33.09 1224.74 23.87C1217.37 14.64 1207.27 10.03 1194.46 10.03C1181.89 10.03 1171.87 14.66 1164.41 23.91C1156.94 33.17 1153.22 46.1 1153.22 62.7L1153.22 76.81C1153.22 92.85 1156.93 105.56 1164.36 114.95C1171.79 124.33 1181.89 129.02 1194.64 129.02C1207.57 129.02 1217.68 124.39 1224.92 115.13Q1235.79 101.25 1235.79 76.44L1235.79 62.14ZM748.95 135.57C740.71 135.57 733.33 133.6 726.79 129.67C720.26 125.74 715.09 120.32 711.28 113.41C707.47 106.51 705.57 98.74 705.57 90.1C705.57 81.49 707.47 73.8 711.28 67.02C715.09 60.2 720.26 54.8 726.79 50.81C733.33 46.81 740.71 44.81 748.95 44.81C756.07 44.81 762.35 46.22 767.8 49.04C772.5 51.44 776.37 54.68 779.41 58.74L779.41 46.72L796.5 46.72L796.5 133.48C796.5 142.12 794.51 149.66 790.51 156.1C786.52 162.57 780.93 167.65 773.75 171.33C766.6 175.02 758.33 176.86 748.95 176.86C739.69 176.86 731.47 175.14 724.29 171.7C717.13 168.3 711.41 163.48 707.1 157.26L718.16 146.06C721.81 150.74 726.18 154.32 731.25 156.79C736.33 159.27 742.35 160.51 749.32 160.51C758.58 160.51 765.9 158.06 771.29 153.17C776.7 148.28 779.41 141.71 779.41 133.48L779.41 121.44C776.34 125.62 772.41 128.94 767.62 131.39C762.17 134.17 755.94 135.57 748.95 135.57ZM882.68 137.1L882.68 82.48C882.68 75.76 880.62 70.48 876.51 66.64C872.39 62.77 867.22 60.84 860.99 60.84C856.81 60.84 853.07 61.72 849.75 63.49C846.47 65.25 843.81 67.73 841.77 70.92Q841.74 70.95 841.72 70.98Q838.75 75.7 838.75 82.3L838.75 137.1L821.61 137.1L821.61 46.72L838.75 46.72L838.75 57.24C841.39 53.94 844.62 51.23 848.45 49.13C853.66 46.25 859.49 44.81 865.96 44.81C872.31 44.81 878.04 46.22 883.15 49.04C888.29 51.83 892.34 55.76 895.31 60.84C895.38 60.95 895.45 61.07 895.52 61.18Q895.6 61.06 895.69 60.93Q898.24 57.14 901.54 54.17Q904.78 51.25 908.74 49.13C914.06 46.25 919.9 44.81 926.24 44.81C932.84 44.81 938.74 46.22 943.94 49.04C949.14 51.83 953.29 55.76 956.39 60.84C959.51 65.88 961.08 71.97 961.08 79.09L961.08 137.1L943.75 137.1L943.75 82.48C943.75 75.76 941.69 70.48 937.58 66.64C933.46 62.77 928.35 60.84 922.25 60.84C918.07 60.84 914.29 61.72 910.92 63.49C907.57 65.25 904.88 67.73 902.84 70.92Q902.82 70.95 902.79 70.98Q899.82 75.7 899.82 82.3L899.82 137.1L882.68 137.1ZM1025.55 139C1016.66 139 1008.67 136.92 1001.58 132.74C994.49 128.56 988.84 122.89 984.63 115.74C980.45 108.55 978.36 100.52 978.36 91.63C978.36 82.87 980.45 74.97 984.63 67.94C988.84 60.92 994.49 55.31 1001.58 51.13C1008.67 46.92 1016.66 44.81 1025.55 44.81C1034.31 44.81 1042.27 46.89 1049.42 51.04C1056.6 55.16 1062.28 60.76 1066.46 67.85C1070.64 74.94 1072.73 82.87 1072.73 91.63C1072.73 100.52 1070.64 108.55 1066.46 115.74C1062.28 122.89 1056.6 128.56 1049.42 132.74C1042.27 136.92 1034.31 139 1025.55 139ZM604.97 50.3C609.03 49.28 614.41 48.19 621.13 47.05C627.85 45.9 635.59 45.33 644.35 45.33C652.22 45.33 658.74 46.45 663.91 48.67C669.11 50.87 673.26 53.97 676.35 57.96C679.48 61.96 681.68 66.76 682.95 72.36C684.22 77.93 684.85 84.08 684.85 90.8L684.85 137.1L667.16 137.1C667.16 137.1 667.17 134.16 667.17 129.55C667.17 114.66 667.04 82.44 665.9 76.36C664.42 68.4 660.95 64.67 654.2 62.75C651.04 61.54 647.13 60.94 642.45 60.94C640.53 60.94 638.55 61 636.51 61.12C634.49 61.25 632.56 61.4 630.7 61.59C628.87 61.77 627.23 62 625.78 62.28C624.32 62.53 623.28 62.72 622.67 62.84L622.67 137.1L604.97 137.1L604.97 50.3ZM559.85 137.1L559.85 46.72L576.99 46.72L576.99 137.1L559.85 137.1ZM752.38 119.41C757.96 119.41 762.86 118.2 767.11 115.78C771.38 113.37 774.65 109.98 776.91 105.61C779.2 101.25 780.34 96.14 780.34 90.28C780.34 84.46 779.17 79.37 776.81 75C774.49 70.61 771.22 67.19 767.01 64.74C762.83 62.26 757.9 61.02 752.2 61.02C746.5 61.02 741.49 62.26 737.15 64.74C732.85 67.19 729.46 70.61 726.98 75C724.5 79.37 723.26 84.4 723.26 90.1C723.26 95.83 724.5 100.9 726.98 105.33C729.46 109.76 732.88 113.21 737.24 115.69C741.64 118.17 746.69 119.41 752.38 119.41ZM1025.55 122.47C1031.24 122.47 1036.31 121.14 1040.73 118.48C1045.18 115.81 1048.68 112.18 1051.23 107.56Q1051.35 107.34 1051.47 107.12Q1055.04 100.31 1055.04 91.63C1055.04 85.81 1053.74 80.62 1051.14 76.07C1048.54 71.49 1045.04 67.9 1040.64 65.3C1036.27 62.7 1031.24 61.4 1025.55 61.4C1019.85 61.4 1014.77 62.7 1010.31 65.3Q1007.47 66.97 1005.15 69.18Q1002.04 72.14 999.86 76.07C997.32 80.62 996.05 85.81 996.05 91.63C996.05 97.61 997.32 102.92 999.86 107.56C1002.4 112.18 1005.89 115.81 1010.31 118.48C1014.77 121.14 1019.85 122.47 1025.55 122.47Z" fill="#2779FF" fill-opacity="1.000000" fill-rule="evenodd"/>
	<ellipse id="椭圆 3" cx="143.991821" cy="176.999756" rx="143.991821" ry="144.000000" fill="#2779FF" fill-opacity="1.000000"/>
	<g filter="url(#filter_6_6_dd)">
		<path id="差集" d="M58.0328 134.127C74.4404 100.874 114.697 87.2176 147.949 103.625C164.575 111.828 176.302 125.994 181.821 142.266C184.325 149.493 186.273 162.932 188.082 178.275C181.948 182.072 175.861 185.855 170.066 189.407C168.075 170.367 166.036 154.286 163.416 148.51C159.495 136.948 151.162 126.883 139.349 121.054C115.723 109.396 87.1194 119.099 75.4614 142.726C63.8033 166.354 73.5055 194.958 97.1318 206.615C108.945 212.444 122.002 212.933 133.564 209.011L139.807 227.416C123.535 232.936 105.158 232.248 88.532 224.044C55.2802 207.637 41.6251 167.38 58.0328 134.127ZM172.193 210.477C158.916 218.376 147.066 225.006 139.808 227.416L133.565 209.01C139.743 207.576 153.745 199.411 170.066 189.407C170.773 196.167 171.474 203.3 172.193 210.477ZM172.193 210.477C178.088 206.97 184.265 203.212 190.446 199.463C190.759 202.328 191.073 205.193 191.392 208.033C193.076 223.068 210.493 239.4 218.019 243.113L209.81 259.75C196.343 253.105 177.799 235.582 172.203 210.579C172.2 210.545 172.196 210.511 172.193 210.477ZM190.446 199.463C189.661 192.276 188.885 185.088 188.082 178.275C188.111 178.257 188.141 178.239 188.171 178.22C211.418 167.449 236.607 171.505 250.075 178.15L241.866 194.787C234.34 191.073 210.782 187.187 197.825 194.997C195.377 196.474 192.911 197.968 190.446 199.463Z" clip-rule="evenodd" fill="url(#paint_linear_6_6_0)" fill-opacity="1.000000" fill-rule="evenodd"/>
	</g>
</svg>
