<svg width="1029.802734" height="218.000000" viewBox="0 0 1029.8 218" fill="none" xmlns="http://www.w3.org/2000/svg" xmlns:xlink="http://www.w3.org/1999/xlink">
	<desc>
			Created with Pixso.
	</desc>
	<defs>
		<filter id="filter_89_5_dd" x="16.000000" y="58.000000" width="173.538086" height="119.000000" filterUnits="userSpaceOnUse" color-interpolation-filters="sRGB">
			<feFlood flood-opacity="0" result="BackgroundImageFix"/>
			<feColorMatrix in="SourceAlpha" type="matrix" values="0 0 0 0 0 0 0 0 0 0 0 0 0 0 0 0 0 0 127 0" result="hardAlpha"/>
			<feOffset dx="-7" dy="9"/>
			<feGaussianBlur stdDeviation="5.33333"/>
			<feComposite in2="hardAlpha" operator="out" k2="-1" k3="1"/>
			<feColorMatrix type="matrix" values="0 0 0 0 0.28627 0 0 0 0 0.28627 0 0 0 0 0.28627 0 0 0 0.25 0"/>
			<feBlend mode="normal" in2="BackgroundImageFix" result="effect_dropShadow_1"/>
			<feBlend mode="normal" in="SourceGraphic" in2="effect_dropShadow_1" result="shape"/>
		</filter>
		<linearGradient x1="180.537964" y1="151.999969" x2="64.090187" y2="69.774384" id="paint_linear_89_5_0" gradientUnits="userSpaceOnUse">
			<stop offset="0.018396" stop-color="#0061FF"/>
			<stop offset="1.000000" stop-color="#FFFFFF" stop-opacity="0.000000"/>
		</linearGradient>
	</defs>
	<path id="Our" d="M333.9 152.44Q324.96 152.44 316.93 149.73Q312.14 148.12 307.68 145.55Q301.7 142.08 296.98 137.36Q292.26 132.64 288.8 126.67Q285.97 121.76 284.3 116.49Q281.91 108.92 281.91 100.58Q281.91 92.4 284.23 84.94Q285.91 79.54 288.8 74.53Q292.29 68.5 297.07 63.75Q301.76 59.1 307.68 55.69Q312.21 53.06 317.07 51.43Q325.04 48.76 333.9 48.76Q342.61 48.76 350.47 51.35Q355.45 53 360.09 55.69Q366.01 59.1 370.7 63.75Q375.48 68.5 378.97 74.53Q381.91 79.61 383.61 85.07Q385.9 92.47 385.9 100.58Q385.9 108.84 383.53 116.35L383.53 116.35Q381.85 121.7 378.97 126.67Q375.51 132.64 370.79 137.36Q366.07 142.08 360.09 145.55Q355.52 148.18 350.61 149.81Q342.69 152.44 333.9 152.44ZM333.9 141.64Q340.34 141.64 346.16 139.74L346.16 139.74Q350.22 138.41 353.98 136.16Q358.05 133.72 361.38 130.5L361.38 130.5Q365.53 126.51 368.53 121.32Q370.19 118.46 371.34 115.41Q373.94 108.49 373.94 100.58Q373.94 92.83 371.42 86.01Q370.25 82.84 368.53 79.87Q365.44 74.51 361.13 70.44Q357.9 67.38 353.98 65.04Q350.22 62.78 346.16 61.46Q340.34 59.55 333.9 59.55Q327.57 59.55 321.82 61.4Q317.65 62.73 313.79 65.04Q309.87 67.38 306.64 70.44Q302.33 74.51 299.24 79.87Q297.57 82.77 296.42 85.85Q293.86 92.74 293.86 100.58Q293.86 108.58 296.51 115.57Q297.63 118.54 299.24 121.32Q302.24 126.51 306.39 130.5L306.39 130.5Q309.72 133.72 313.79 136.16Q317.65 138.47 321.82 139.8Q327.57 141.64 333.9 141.64ZM486.1 80.44L486.1 151L496.89 151L496.89 110.67Q496.89 105.72 498.78 101.64Q499.2 100.74 499.71 99.88Q501.25 97.28 503.37 95.3Q505.12 93.67 507.26 92.46Q508.6 91.71 510.02 91.17Q513.63 89.79 517.78 89.79L524.98 89.79L524.98 79.7L519.22 79.7Q514.15 79.7 509.65 81.29Q507.5 82.05 505.47 83.18Q505.22 83.32 504.98 83.46Q500.41 86.1 496.89 90.58L496.89 80.44L486.1 80.44ZM434.55 152.44Q425.93 152.44 419.19 148.88Q418.83 148.7 418.48 148.5Q415.07 146.55 412.41 143.86Q409.64 141.06 407.69 137.46Q407.43 136.97 407.18 136.46Q403.89 129.77 403.89 121.46L403.89 80.44L414.69 80.44L414.69 121.46Q414.69 127.51 417.11 132.29Q418.47 134.91 420.45 136.89Q422.07 138.51 424.11 139.71Q424.49 139.93 424.87 140.13Q429.13 142.35 434.55 142.35Q440.56 142.35 444.99 139.7Q447.15 138.42 448.93 136.51Q450.3 135.05 451.33 133.38Q454.41 128.37 454.41 121.46L454.41 80.44L465.24 80.44L465.24 121.46Q465.24 129.65 462.02 136.27Q461.73 136.87 461.41 137.46Q459.55 140.93 456.91 143.65Q454.18 146.48 450.62 148.5Q450.27 148.7 449.91 148.88Q443.17 152.44 434.55 152.44Z" fill="#005FFF" fill-opacity="1.000000" fill-rule="evenodd"/>
	<path id="Lingmo OS" d="M569 144.79L569 42L583.41 42L583.41 132.28L628.06 132.28L628.06 144.79L569 144.79ZM643.9 61.71Q645.71 62.7 648.06 62.7Q650.37 62.7 652.14 61.72L652.14 61.72L652.14 61.72Q653.12 61.18 653.93 60.35Q654.79 59.46 655.33 58.41L655.33 58.41L655.33 58.41Q656.25 56.63 656.25 54.37Q656.25 52.32 655.45 50.66L655.45 50.66L655.45 50.66Q654.89 49.5 653.93 48.53Q653.09 47.65 652.06 47.09L652.06 47.09Q650.32 46.14 648.06 46.14Q645.76 46.14 643.98 47.11L643.98 47.11L643.98 47.11L643.98 47.11Q642.96 47.66 642.12 48.53Q641.21 49.47 640.67 50.58L640.67 50.58Q639.84 52.27 639.84 54.37Q639.84 56.68 640.78 58.5L640.78 58.5L640.78 58.5Q641.31 59.5 642.12 60.35Q642.93 61.17 643.9 61.7L643.9 61.71L643.9 61.71ZM784.7 143.63Q777.56 143.63 771.54 141.03L771.54 141.03Q769.68 140.22 767.93 139.17Q765.14 137.49 762.79 135.33Q758.89 131.75 756.19 126.86Q755.56 125.73 755.03 124.55L755.03 124.55Q751.86 117.6 751.86 109.21Q751.86 100.6 755.22 93.6L755.22 93.6Q755.68 92.65 756.19 91.74Q758.67 87.3 762.17 83.92L762.17 83.92Q764.77 81.4 767.93 79.47Q769.83 78.31 771.86 77.45L771.86 77.45Q777.74 74.94 784.7 74.94Q792.79 74.94 798.97 78.14Q802.67 80.03 805.46 82.82Q806.7 84.06 807.76 85.47L807.76 76.38L820.7 76.38L820.7 142.05Q820.7 151.01 816.91 157.89Q816.56 158.54 816.17 159.17Q814.83 161.34 813.17 163.23L813.17 163.24Q809.22 167.75 803.47 170.7Q795.35 174.89 784.7 174.89Q774.19 174.89 766.03 170.98Q760.58 168.39 756.59 164.35L756.59 164.35L756.59 164.35L756.58 164.35Q754.63 162.37 753.02 160.05L761.39 151.58Q764.46 155.5 768.41 158.06L768.41 158.06L768.41 158.07Q769.81 158.97 771.31 159.7Q777.07 162.51 784.98 162.51Q794.66 162.51 800.61 157.8Q801.13 157.4 801.61 156.96Q803.58 155.17 804.92 153L804.92 153Q807.76 148.4 807.76 142.05L807.76 132.94Q806.64 134.46 805.32 135.78L805.32 135.79Q802.53 138.58 798.83 140.47Q792.65 143.63 784.7 143.63ZM885.94 103.45L885.94 144.79L898.91 144.79L898.91 103.31Q898.91 98.32 901.16 94.75Q901.18 94.72 901.19 94.69Q902.37 92.86 903.92 91.45L903.92 91.44L903.92 91.44L903.93 91.44Q905.44 90.06 907.31 89.07Q907.72 88.86 908.13 88.67L908.13 88.67Q911.65 87.07 915.89 87.07Q920.32 87.07 923.82 88.86L923.83 88.86L923.83 88.86Q925.8 89.88 927.49 91.46Q928.58 92.48 929.42 93.68Q932.17 97.6 932.17 103.45L932.17 144.79L945.28 144.79L945.28 100.88Q945.28 92.8 941.73 87.07Q939.87 84.02 937.35 81.7Q935.09 79.63 932.31 78.14Q931.89 77.91 931.47 77.7Q925.88 74.94 918.91 74.94Q913.91 74.94 909.46 76.51L909.46 76.51L909.46 76.52Q907.5 77.21 905.66 78.21Q902.66 79.81 900.21 82.02L900.21 82.02Q897.71 84.26 895.78 87.14Q895.72 87.23 895.65 87.33Q895.58 87.2 895.5 87.07Q893.74 84.06 891.3 81.76Q889.08 79.65 886.29 78.14Q885.3 77.59 884.27 77.14L884.27 77.14L884.27 77.14Q879.26 74.94 873.28 74.94Q867.19 74.94 862.08 77.19L862.08 77.19Q861.03 77.65 860.03 78.21Q856.96 79.88 854.57 82.24L854.57 82.24L854.56 82.25Q853.56 83.24 852.68 84.35L852.68 76.38L839.71 76.38L839.71 144.79L852.68 144.79L852.68 103.31Q852.68 98.32 854.93 94.75Q854.95 94.72 854.96 94.69Q856.27 92.65 858.03 91.12L858.03 91.12Q859.39 89.94 861.01 89.07Q861.25 88.94 861.49 88.83Q865.07 87.07 869.52 87.07Q874.29 87.07 877.97 89.07Q879.74 90.03 881.26 91.46Q882.35 92.48 883.19 93.68Q885.94 97.6 885.94 103.45ZM994.08 146.23Q986.3 146.23 979.73 143.41L979.73 143.41Q977.78 142.57 975.94 141.49Q972.18 139.27 969.14 136.32L969.14 136.32Q965.66 132.95 963.11 128.62Q961.89 126.52 960.98 124.3L960.98 124.3Q958.36 117.87 958.36 110.37Q958.36 102.99 960.97 96.69Q961.88 94.5 963.11 92.44Q965.41 88.6 968.47 85.51Q971.76 82.18 975.94 79.72Q977.86 78.58 979.89 77.71Q986.4 74.94 994.08 74.94Q1001.17 74.94 1007.33 77.33Q1009.82 78.29 1012.15 79.65Q1016.42 82.09 1019.75 85.46Q1022.79 88.53 1025.06 92.37Q1026.37 94.61 1027.31 96.98Q1029.8 103.18 1029.8 110.37Q1029.8 117.87 1027.18 124.3L1027.18 124.3Q1026.28 126.52 1025.06 128.62Q1022.74 132.58 1019.62 135.74Q1016.33 139.06 1012.15 141.49Q1009.74 142.9 1007.17 143.89L1007.17 143.89Q1001.08 146.23 994.08 146.23ZM675.71 79.09Q680.32 77.93 687.95 76.63Q695.58 75.33 705.52 75.33Q714.45 75.33 720.33 77.86Q725.73 80.14 729.13 84.13Q729.45 84.5 729.75 84.89Q733.3 89.42 734.74 95.79Q736.18 102.12 736.18 109.75L736.18 144.79L722.79 144.79C722.79 144.79 722.96 104.84 721.84 98.82C720.71 92.79 718.09 89.97 712.98 88.51Q709.39 87.14 704.08 87.14Q701.9 87.14 699.58 87.28Q697.3 87.42 695.19 87.63Q693.11 87.84 691.46 88.16Q689.81 88.44 689.11 88.58L689.11 144.79L675.71 144.79L675.71 79.09ZM641.56 76.38L641.56 144.79L654.53 144.79L654.53 76.38L641.56 76.38ZM787.3 131.4Q793.48 131.4 798.21 128.79L798.21 128.79Q798.24 128.77 798.27 128.76L798.28 128.75Q798.31 128.73 798.34 128.71Q798.37 128.7 798.4 128.68Q798.43 128.67 798.45 128.66Q800.85 127.3 802.69 125.4Q804.57 123.46 805.86 120.96Q808.47 116 808.47 109.35Q808.47 102.75 805.79 97.79Q804.3 94.95 802.1 92.83L802.1 92.83Q800.44 91.22 798.38 90.02Q793.63 87.21 787.16 87.21Q780.88 87.21 776.06 89.86Q775.91 89.94 775.77 90.02Q773.66 91.22 771.93 92.83L771.93 92.84L771.93 92.84Q769.67 94.96 768.07 97.79Q767.96 97.98 767.86 98.17L767.85 98.2Q765.26 103.01 765.26 109.21Q765.26 115.4 767.81 120.26L767.82 120.28L767.82 120.29Q767.95 120.52 768.07 120.75Q769.58 123.44 771.71 125.51L771.71 125.51L771.71 125.51Q773.55 127.28 775.84 128.59Q776.07 128.71 776.29 128.83L776.31 128.84L776.35 128.86L776.38 128.88Q781.18 131.4 787.3 131.4ZM994.08 133.72Q999.46 133.72 1003.84 131.63Q1004.73 131.21 1005.58 130.69Q1007.85 129.34 1009.69 127.53L1009.69 127.53Q1011.94 125.32 1013.53 122.43Q1013.6 122.3 1013.67 122.16Q1013.69 122.13 1013.71 122.09Q1016.41 116.94 1016.41 110.37Q1016.41 104.54 1014.11 99.83Q1013.8 99.21 1013.46 98.6Q1011.63 95.39 1009.04 93.04L1009.04 93.04Q1007.42 91.57 1005.51 90.44Q1004.96 90.11 1004.39 89.82L1004.39 89.82Q999.83 87.49 994.08 87.49Q988.58 87.49 984.1 89.62Q983.31 90 982.55 90.44Q980.4 91.7 978.64 93.38Q976.29 95.62 974.64 98.6Q974.4 99.03 974.18 99.46Q971.76 104.31 971.76 110.37Q971.76 116.94 974.46 122.09Q974.47 122.13 974.49 122.16Q974.56 122.3 974.64 122.43Q976.28 125.42 978.62 127.69L978.62 127.69Q980.39 129.39 982.55 130.69Q983.47 131.24 984.43 131.69L984.44 131.69Q988.79 133.72 994.08 133.72Z" fill="#0061FE" fill-opacity="1.000000" fill-rule="evenodd"/>
	<circle id="椭圆 3" cx="109.000000" cy="109.000000" r="109.000000" fill="#2779FF" fill-opacity="1.000000"/>
	<g filter="url(#filter_89_5_dd)">
		<path id="差集" d="M83.842 65C59.0767 65 39 84.2381 39 107.969C39 131.701 59.0767 150.939 83.842 150.939C97.3506 150.939 109.464 145.215 117.685 136.161C122.917 139.983 131.771 143.336 139.77 145.105C153.525 148.148 160.779 152 180.538 152L180.538 65L160.779 69.37L160.779 130.325L146.681 128.519C139.146 127.554 135.527 127.017 131.858 123.553C128.72 120.589 128.32 118.105 128.272 113.822C128.544 111.909 128.684 109.955 128.684 107.969C128.684 105.968 128.541 103.999 128.265 102.071L128.265 76.561L117.009 79.0505C108.807 70.4181 96.9849 65 83.842 65ZM117.009 79.0505L108.398 80.9549L108.398 114.018C108.398 120.813 110.704 129.644 115.588 134.41C116.195 135.002 116.899 135.587 117.685 136.161C123.275 130.004 127.066 122.307 128.272 113.822C128.266 113.34 128.265 112.835 128.265 112.303L128.265 102.071C127.004 93.2667 122.959 85.3128 117.009 79.0505ZM83.842 84.3557C70.373 84.3557 59.4543 94.9279 59.4543 107.969C59.4543 121.011 70.373 131.583 83.842 131.583C97.311 131.583 108.23 121.011 108.23 107.969C108.23 94.9279 97.311 84.3557 83.842 84.3557Z" clip-rule="evenodd" fill="#FFFFFF" fill-opacity="1.000000" fill-rule="evenodd"/>
		<path id="差集" d="M83.842 65C59.0767 65 39 84.2381 39 107.969C39 131.701 59.0767 150.939 83.842 150.939C97.3506 150.939 109.464 145.215 117.685 136.161C122.917 139.983 131.771 143.336 139.77 145.105C153.525 148.148 160.779 152 180.538 152L180.538 65L160.779 69.37L160.779 130.325L146.681 128.519C139.146 127.554 135.527 127.017 131.858 123.553C128.72 120.589 128.32 118.105 128.272 113.822C128.544 111.909 128.684 109.955 128.684 107.969C128.684 105.968 128.541 103.999 128.265 102.071L128.265 76.561L117.009 79.0505C108.807 70.4181 96.9849 65 83.842 65ZM117.009 79.0505L108.398 80.9549L108.398 114.018C108.398 120.813 110.704 129.644 115.588 134.41C116.195 135.002 116.899 135.587 117.685 136.161C123.275 130.004 127.066 122.307 128.272 113.822C128.266 113.34 128.265 112.835 128.265 112.303L128.265 102.071C127.004 93.2667 122.959 85.3128 117.009 79.0505ZM83.842 84.3557C70.373 84.3557 59.4543 94.9279 59.4543 107.969C59.4543 121.011 70.373 131.583 83.842 131.583C97.311 131.583 108.23 121.011 108.23 107.969C108.23 94.9279 97.311 84.3557 83.842 84.3557Z" clip-rule="evenodd" fill="url(#paint_linear_89_5_0)" fill-opacity="0.450000" fill-rule="evenodd"/>
	</g>
</svg>
