<?xml version="1.0" encoding="UTF-8"?>
<svg width="16px" height="16px" viewBox="0 0 16 16" version="1.1" xmlns="http://www.w3.org/2000/svg" xmlns:xlink="http://www.w3.org/1999/xlink">
    <title>ICON/快捷面板/多屏显示/拓展</title>
    <g id="ICON/快捷面板/多屏显示/拓展" stroke="none" stroke-width="1" fill="none" fill-rule="evenodd">
        <path d="M1,4 C1,3.44771525 1.44771525,3 2,3 L14,3 C14.5522847,3 15,3.44771525 15,4 L15,13 L15.5,13 C15.7761424,13 16,13.2238576 16,13.5 C16,13.7761424 15.7761424,14 15.5,14 L0.5,14 C0.223857625,14 3.38176876e-17,13.7761424 0,13.5 C-3.38176876e-17,13.2238576 0.223857625,13 0.5,13 L1,13 L1,4 Z M8,9 L2,9 L2,12 L8,12 L8,9 Z M14,4 L2,4 L2,8 L8,8 C8.08912532,8 8.17552742,8.01165945 8.25776423,8.03353625 L8.19844661,8.09444661 C8.24263709,8.05025613 8.29089105,8.00200216 8.34453537,7.94835785 L8.83574107,7.45715215 C8.90079063,7.39210259 8.97064486,7.32224836 9.04586352,7.2470297 L10.292,6 L8.5,6 C8.25454011,6 8.05039163,5.82312484 8.00805567,5.58987563 L8,5.5 C8,5.22385763 8.22385763,5 8.5,5 L11.5,5 C11.7761424,5 12,5.22385763 12,5.5 L12,8.5 C12,8.77614237 11.7761424,9 11.5,9 C11.2238576,9 11,8.77614237 11,8.5 L11,6.706 L9.7529703,7.95413648 C9.67775164,8.02935514 9.60789741,8.09920937 9.54284785,8.16425893 L8.96471323,8.74239355 C8.98834055,8.82447258 9,8.91087468 9,9 L9,12 L14,12 L14,4 Z" id="形状结合" fill="#000000" fill-rule="nonzero"></path>
    </g>
</svg>