<svg id="安装程序" xmlns="http://www.w3.org/2000/svg" xmlns:xlink="http://www.w3.org/1999/xlink" viewBox="0 0 96 96"><defs><style>.cls-1{fill:url(#未命名的渐变_26);}.cls-2,.cls-3{fill:#f9f9f9;}.cls-2{fill-rule:evenodd;}</style><linearGradient id="未命名的渐变_26" x1="70" y1="86.11" x2="26" y2="9.89" gradientUnits="userSpaceOnUse"><stop offset="0" stop-color="#dd4814"/><stop offset="1" stop-color="#dd7514"/></linearGradient></defs><g id="_96" data-name="96"><circle class="cls-1" cx="48" cy="48" r="44"/><polygon class="cls-2" points="45.76 43.96 48.07 40.86 47.21 37.54 48.72 33.14 45.19 36.75 44.68 36.6 45.62 34.37 42.3 37.69 39.13 39.63 35.81 45.84 37.61 50.45 38.26 53.99 38.98 55.79 36.39 58.89 39.99 58.89 40.5 55.65 41.94 53.41 44.32 53.84 46.99 52.76 49.01 51.75 50.96 53.05 48.65 55.79 46.27 57.95 49.95 58.03 49.95 56.58 52.83 54.35 53.84 55.57 50.88 59.83 54.64 59.83 54.49 57.74 57.23 55.21 55.86 52.4 55.65 49.01 58.46 47.42 59.97 47.71 62.14 46.99 62.72 42.66 59.47 43.67 57.45 46.63 53.99 48.43 49.23 46.48 45.76 43.96"/><circle class="cls-3" cx="64.5" cy="20.5" r="6.5"/><circle class="cls-3" cx="16.5" cy="47.5" r="6.5"/><circle class="cls-3" cx="64.5" cy="75.5" r="6.5"/><path class="cls-3" d="M40.35,30.62A19,19,0,0,1,66.89,46h9a28,28,0,0,0-8-17.71A8.37,8.37,0,0,1,64.5,29,8.5,8.5,0,0,1,56,21.18,27.66,27.66,0,0,0,48,20a27.94,27.94,0,0,0-12.21,2.82Z"/><path class="cls-3" d="M66.89,50A19,19,0,0,1,40.43,65.42l-4.28,7.94A27.91,27.91,0,0,0,56,74.82,8.5,8.5,0,0,1,64.5,67a8.37,8.37,0,0,1,3.39.71,28,28,0,0,0,8-17.71Z"/><path class="cls-3" d="M37,63.43a18.94,18.94,0,0,1-.08-30.81l-4.55-7.8A28.06,28.06,0,0,0,21.07,40.34a8.49,8.49,0,0,1-.23,14.46A28,28,0,0,0,32.66,71.42Z"/></g></svg>