<?xml version="1.0" encoding="UTF-8"?>
<svg width="406px" height="340px" viewBox="0 0 406 340" version="1.1" xmlns="http://www.w3.org/2000/svg" xmlns:xlink="http://www.w3.org/1999/xlink">
    <title>菜单 3</title>
    <defs>
        <rect id="path-1" x="0" y="0" width="380" height="314" rx="18"></rect>
        <filter x="-5.8%" y="-5.1%" width="111.6%" height="114.0%" filterUnits="objectBoundingBox" id="filter-3">
            <feMorphology radius="1" operator="dilate" in="SourceAlpha" result="shadowSpreadOuter1"></feMorphology>
            <feOffset dx="0" dy="6" in="shadowSpreadOuter1" result="shadowOffsetOuter1"></feOffset>
            <feGaussianBlur stdDeviation="6" in="shadowOffsetOuter1" result="shadowBlurOuter1"></feGaussianBlur>
            <feComposite in="shadowBlurOuter1" in2="SourceAlpha" operator="out" result="shadowBlurOuter1"></feComposite>
            <feColorMatrix values="0 0 0 0 0   0 0 0 0 0   0 0 0 0 0  0 0 0 0.2 0" type="matrix" in="shadowBlurOuter1"></feColorMatrix>
        </filter>
    </defs>
    <g id="概览" stroke="none" stroke-width="1" fill="none" fill-rule="evenodd">
        <g id="V23控件-浅色" transform="translate(-426.000000, -5024.000000)">
            <g id="MENU" transform="translate(200.000000, 4956.000000)">
                <g id="菜单-3" transform="translate(239.000000, 75.000000)">
                    <mask id="mask-2" fill="white">
                        <use xlink:href="#path-1"></use>
                    </mask>
                    <g id="menu_bg">
                        <use fill="black" fill-opacity="1" filter="url(#filter-3)" xlink:href="#path-1"></use>
                        <use fill-opacity="0.8" fill="#EEEEEE" fill-rule="evenodd" xlink:href="#path-1"></use>
                        <rect stroke-opacity="0.06" stroke="#000000" stroke-width="1" x="-0.5" y="-0.5" width="381" height="315" rx="18"></rect>
                        <rect stroke-opacity="0.1" stroke="#FFFFFF" stroke-width="1" stroke-linejoin="square" x="0.5" y="0.5" width="379" height="313" rx="18"></rect>
                    </g>
                    <g id="编组" mask="url(#mask-2)">
                        <g transform="translate(10.000000, 122.000000)" id="menuitem" fill="#000000">
                            <text id="新建文档" font-family="SourceHanSansSC-Medium, Source Han Sans SC" font-size="14" font-weight="400">
                                <tspan x="34" y="20">CROWN - TOMORROW X TOGETHER</tspan>
                            </text>
                            <g id="编组" transform="translate(10.000000, 7.000000)" fill-rule="nonzero">
                                <g id="形状结合">
                                    <path d="M13.9900744,2.77661404 C13.9966874,2.84274374 14,2.90916196 14,2.97562148 L14,11.0782513 C13.9258925,12.139383 13.1494826,12.9603669 12,12.9603669 C10.7950151,12.9603669 10,12.0581872 10,10.9204872 C10,9.78278722 10.7950151,8.88060751 12,8.88060751 C12.3777977,8.88060751 12.7152952,8.96929216 13.0006254,9.126115 L13,3.89842857 C13,3.34614382 12.5522847,2.89842857 12,2.89842857 C11.958535,2.89842857 11.9171101,2.90100759 11.8759653,2.9061507 L5.87596527,3.6561507 C5.37553644,3.7187043 5,4.1441053 5,4.64842857 L5,12.7656464 C5,13.9033463 4.20498491,15.0002466 3,15.0002466 C1.79501509,15.0002466 1,14.0980669 1,12.9603669 C1,11.8226669 1.79501509,10.9204872 3,10.9204872 C3.37800872,10.9204872 3.71567219,10.9901084 4.00110342,11.1207927 L4,3.57562148 C4,2.54811858 4.77858897,1.68778746 5.80099256,1.5855471 L11.8009926,0.985547098 C12.9000803,0.875638325 13.8801656,1.67752631 13.9900744,2.77661404 Z"></path>
                                </g>
                            </g>
                        </g>
                    </g>
                    <g id="编组" mask="url(#mask-2)">
                        <g transform="translate(10.000000, 274.000000)" id="menuitem" fill="#000000">
                            <text id="新建文档" font-family="SourceHanSansSC-Medium, Source Han Sans SC" font-size="14" font-weight="400">
                                <tspan x="34" y="20">CROWN - TOMORROW X TOGETHER</tspan>
                            </text>
                            <g id="编组" transform="translate(10.000000, 7.000000)" fill-opacity="0.7" fill-rule="nonzero">
                                <g id="Combined-Shape">
                                    <path d="M13,1 C14.1045695,1 15,1.8954305 15,3 L15,13 C15,14.1045695 14.1045695,15 13,15 L3,15 C1.8954305,15 1,14.1045695 1,13 L1,3 C1,1.8954305 1.8954305,1 3,1 L13,1 Z M8,3 C5.23857625,3 3,5.23857625 3,8 C3,10.7614237 5.23857625,13 8,13 C10.7614237,13 13,10.7614237 13,8 C13,5.23857625 10.7614237,3 8,3 Z M8,6 C9.1045695,6 10,6.8954305 10,8 C10,9.1045695 9.1045695,10 8,10 C6.8954305,10 6,9.1045695 6,8 C6,6.8954305 6.8954305,6 8,6 Z"></path>
                                </g>
                            </g>
                        </g>
                    </g>
                    <g id="编组" mask="url(#mask-2)">
                        <g transform="translate(10.000000, 90.000000)" id="menuitem" fill="#000000">
                            <text id="新建文档" font-family="SourceHanSansSC-Medium, Source Han Sans SC" font-size="14" font-weight="400">
                                <tspan x="34" y="20">Tomorrow will be fine. - Sodagreen</tspan>
                            </text>
                            <g id="编组" transform="translate(10.000000, 7.000000)" fill-rule="nonzero">
                                <g id="形状结合">
                                    <path d="M13.9900744,2.77661404 C13.9966874,2.84274374 14,2.90916196 14,2.97562148 L14,11.0782513 C13.9258925,12.139383 13.1494826,12.9603669 12,12.9603669 C10.7950151,12.9603669 10,12.0581872 10,10.9204872 C10,9.78278722 10.7950151,8.88060751 12,8.88060751 C12.3777977,8.88060751 12.7152952,8.96929216 13.0006254,9.126115 L13,3.89842857 C13,3.34614382 12.5522847,2.89842857 12,2.89842857 C11.958535,2.89842857 11.9171101,2.90100759 11.8759653,2.9061507 L5.87596527,3.6561507 C5.37553644,3.7187043 5,4.1441053 5,4.64842857 L5,12.7656464 C5,13.9033463 4.20498491,15.0002466 3,15.0002466 C1.79501509,15.0002466 1,14.0980669 1,12.9603669 C1,11.8226669 1.79501509,10.9204872 3,10.9204872 C3.37800872,10.9204872 3.71567219,10.9901084 4.00110342,11.1207927 L4,3.57562148 C4,2.54811858 4.77858897,1.68778746 5.80099256,1.5855471 L11.8009926,0.985547098 C12.9000803,0.875638325 13.8801656,1.67752631 13.9900744,2.77661404 Z"></path>
                                </g>
                            </g>
                        </g>
                    </g>
                    <g id="编组" mask="url(#mask-2)">
                        <g transform="translate(10.000000, 242.000000)" id="menuitem" fill="#000000">
                            <text id="新建文档" font-family="SourceHanSansSC-Medium, Source Han Sans SC" font-size="14" font-weight="400">
                                <tspan x="34" y="20">Tomorrow will be fine. - Sodagreen</tspan>
                            </text>
                            <g id="编组" transform="translate(10.000000, 7.000000)" fill-opacity="0.7" fill-rule="nonzero">
                                <g id="Combined-Shape">
                                    <path d="M13,1 C14.1045695,1 15,1.8954305 15,3 L15,13 C15,14.1045695 14.1045695,15 13,15 L3,15 C1.8954305,15 1,14.1045695 1,13 L1,3 C1,1.8954305 1.8954305,1 3,1 L13,1 Z M8,3 C5.23857625,3 3,5.23857625 3,8 C3,10.7614237 5.23857625,13 8,13 C10.7614237,13 13,10.7614237 13,8 C13,5.23857625 10.7614237,3 8,3 Z M8,6 C9.1045695,6 10,6.8954305 10,8 C10,9.1045695 9.1045695,10 8,10 C6.8954305,10 6,9.1045695 6,8 C6,6.8954305 6.8954305,6 8,6 Z"></path>
                                </g>
                            </g>
                        </g>
                    </g>
                    <g id="编组" mask="url(#mask-2)">
                        <g transform="translate(10.000000, 60.000000)" id="menuitem" fill="#000000">
                            <text id="新建文档" font-family="SourceHanSansSC-Medium, Source Han Sans SC" font-size="14" font-weight="400">
                                <tspan x="34" y="20">Tomorrow With You (EN]ABA)- Senpai Kondor</tspan>
                            </text>
                            <g id="编组" transform="translate(10.000000, 7.000000)" fill-rule="nonzero">
                                <g id="形状结合">
                                    <path d="M13.9900744,2.77661404 C13.9966874,2.84274374 14,2.90916196 14,2.97562148 L14,11.0782513 C13.9258925,12.139383 13.1494826,12.9603669 12,12.9603669 C10.7950151,12.9603669 10,12.0581872 10,10.9204872 C10,9.78278722 10.7950151,8.88060751 12,8.88060751 C12.3777977,8.88060751 12.7152952,8.96929216 13.0006254,9.126115 L13,3.89842857 C13,3.34614382 12.5522847,2.89842857 12,2.89842857 C11.958535,2.89842857 11.9171101,2.90100759 11.8759653,2.9061507 L5.87596527,3.6561507 C5.37553644,3.7187043 5,4.1441053 5,4.64842857 L5,12.7656464 C5,13.9033463 4.20498491,15.0002466 3,15.0002466 C1.79501509,15.0002466 1,14.0980669 1,12.9603669 C1,11.8226669 1.79501509,10.9204872 3,10.9204872 C3.37800872,10.9204872 3.71567219,10.9901084 4.00110342,11.1207927 L4,3.57562148 C4,2.54811858 4.77858897,1.68778746 5.80099256,1.5855471 L11.8009926,0.985547098 C12.9000803,0.875638325 13.8801656,1.67752631 13.9900744,2.77661404 Z"></path>
                                </g>
                            </g>
                        </g>
                    </g>
                    <g id="编组" mask="url(#mask-2)">
                        <g transform="translate(10.000000, 30.000000)" id="menuitem" fill="#000000">
                            <text id="新建文档" font-family="SourceHanSansSC-Medium, Source Han Sans SC" font-size="14" font-weight="400">
                                <tspan x="34" y="20">Tomorrow - Fly By Midnight</tspan>
                            </text>
                            <g id="编组" transform="translate(10.000000, 7.000000)" fill-rule="nonzero">
                                <g id="形状结合">
                                    <path d="M13.9900744,2.77661404 C13.9966874,2.84274374 14,2.90916196 14,2.97562148 L14,11.0782513 C13.9258925,12.139383 13.1494826,12.9603669 12,12.9603669 C10.7950151,12.9603669 10,12.0581872 10,10.9204872 C10,9.78278722 10.7950151,8.88060751 12,8.88060751 C12.3777977,8.88060751 12.7152952,8.96929216 13.0006254,9.126115 L13,3.89842857 C13,3.34614382 12.5522847,2.89842857 12,2.89842857 C11.958535,2.89842857 11.9171101,2.90100759 11.8759653,2.9061507 L5.87596527,3.6561507 C5.37553644,3.7187043 5,4.1441053 5,4.64842857 L5,12.7656464 C5,13.9033463 4.20498491,15.0002466 3,15.0002466 C1.79501509,15.0002466 1,14.0980669 1,12.9603669 C1,11.8226669 1.79501509,10.9204872 3,10.9204872 C3.37800872,10.9204872 3.71567219,10.9901084 4.00110342,11.1207927 L4,3.57562148 C4,2.54811858 4.77858897,1.68778746 5.80099256,1.5855471 L11.8009926,0.985547098 C12.9000803,0.875638325 13.8801656,1.67752631 13.9900744,2.77661404 Z"></path>
                                </g>
                            </g>
                        </g>
                    </g>
                    <g id="编组" mask="url(#mask-2)">
                        <g transform="translate(10.000000, 182.000000)" id="menuitem" fill="#000000">
                            <text id="新建文档" font-family="SourceHanSansSC-Medium, Source Han Sans SC" font-size="14" font-weight="400">
                                <tspan x="34" y="20">Tomorrow - Fly By Midnight</tspan>
                            </text>
                            <g id="编组" transform="translate(10.000000, 7.000000)" fill-rule="nonzero">
                                <g id="Page-1">
                                    <path d="M0,15 C0,14.9124996 0.00508173474,14.7970493 0.0152453545,14.6536458 C0.0254089761,14.5102423 0.0813080563,14.2793418 0.182944254,13.9609375 C0.28458047,13.6425331 0.426868949,13.3958343 0.609814179,13.2208333 C0.787677558,13.0506941 1.14085812,12.8635421 1.66936641,12.6593755 C2.19787372,12.4552069 2.7949784,12.2401053 3.46069644,12.0140632 C4.12641253,11.7880192 4.61425997,11.5996539 4.92425047,11.4489579 C5.31554822,11.2593736 5.619183,10.9822931 5.83515869,10.6177088 C6.05113633,10.2531227 6.1591232,9.87395973 6.1591232,9.4802088 C6.1591232,9.21284613 5.99142528,8.89687733 5.65602748,8.5322912 C5.31554432,8.15798347 5.03986148,7.64878853 4.8289653,7.00468773 C4.61807106,6.36058693 4.51262492,5.61806053 4.51262492,4.77708427 C4.51262492,4.14513547 4.60663778,3.582468 4.79466349,3.0890632 C4.98269116,2.59565653 5.23931853,2.200696 5.5645534,1.90416667 C5.88979023,1.60763733 6.25948593,1.38281413 6.67365416,1.22968773 C7.08782239,1.07656133 7.53120315,1 8.00381012,1 C8.47641903,1 8.91725907,1.07656133 9.32634584,1.22968773 C9.73543066,1.38281413 10.1038579,1.60763733 10.4316335,1.90416667 C10.7594111,2.200696 11.0173088,2.59565653 11.2053365,3.0890632 C11.3933622,3.582468 11.4873751,4.14513547 11.4873751,4.77708427 C11.4873751,5.61806053 11.3831993,6.36058693 11.1748438,7.00468773 C10.9664903,7.64878853 10.6920779,8.15798347 10.3515967,8.5322912 C10.0111135,8.90173813 9.8408768,9.21770693 9.8408768,9.4802088 C9.8408768,9.86909893 9.95013403,10.2470467 10.1686524,10.6140632 C10.3871688,10.9810779 10.692074,11.2593736 11.0833737,11.4489579 C11.3933622,11.5996539 11.8812097,11.7880192 12.5469277,12.0140632 C13.2126438,12.2401053 13.8072058,12.4552069 14.3306332,12.6593755 C14.8540606,12.8635421 15.2046989,13.0506941 15.3825617,13.2208333 C15.5655079,13.3958343 15.7077966,13.6315958 15.8094316,13.9281249 C15.9110686,14.2246542 15.9669686,14.4774295 15.9771315,14.6864582 L16,15 L0,15 Z"></path>
                                </g>
                            </g>
                        </g>
                    </g>
                    <g id="编组" mask="url(#mask-2)" font-family="SourceHanSansSC-Medium, Source Han Sans SC" font-size="12" font-weight="400" opacity="0.5">
                        <g transform="translate(10.000000, 10.000000)" id="menuitem" fill="#000000">
                            <text id="label">
                                <tspan x="10" y="15">单曲</tspan>
                            </text>
                        </g>
                    </g>
                    <g id="编组" mask="url(#mask-2)" font-family="SourceHanSansSC-Medium, Source Han Sans SC" font-size="12" font-weight="400" opacity="0.5">
                        <g transform="translate(10.000000, 162.000000)" id="menuitem" fill="#000000">
                            <text id="label">
                                <tspan x="10" y="15">歌手</tspan>
                            </text>
                        </g>
                    </g>
                    <g id="编组" mask="url(#mask-2)" font-family="SourceHanSansSC-Medium, Source Han Sans SC" font-size="12" font-weight="400" opacity="0.5">
                        <g transform="translate(10.000000, 222.000000)" id="menuitem" fill="#000000">
                            <text id="label">
                                <tspan x="10" y="15">专辑</tspan>
                            </text>
                        </g>
                    </g>
                </g>
            </g>
        </g>
    </g>
</svg>