<?xml version="1.0" encoding="UTF-8"?>
<svg width="226px" height="258px" viewBox="0 0 226 258" version="1.1" xmlns="http://www.w3.org/2000/svg" xmlns:xlink="http://www.w3.org/1999/xlink">
    <title>菜单 3</title>
    <defs>
        <rect id="path-1" x="0" y="0" width="200" height="232" rx="18"></rect>
        <filter x="-11.0%" y="-6.9%" width="122.0%" height="119.0%" filterUnits="objectBoundingBox" id="filter-3">
            <feMorphology radius="1" operator="dilate" in="SourceAlpha" result="shadowSpreadOuter1"></feMorphology>
            <feOffset dx="0" dy="6" in="shadowSpreadOuter1" result="shadowOffsetOuter1"></feOffset>
            <feGaussianBlur stdDeviation="6" in="shadowOffsetOuter1" result="shadowBlurOuter1"></feGaussianBlur>
            <feComposite in="shadowBlurOuter1" in2="SourceAlpha" operator="out" result="shadowBlurOuter1"></feComposite>
            <feColorMatrix values="0 0 0 0 0   0 0 0 0 0   0 0 0 0 0  0 0 0 0.2 0" type="matrix" in="shadowBlurOuter1"></feColorMatrix>
        </filter>
    </defs>
    <g id="概览" stroke="none" stroke-width="1" fill="none" fill-rule="evenodd">
        <g id="V23控件-浅色" transform="translate(-471.000000, -5666.000000)">
            <g id="MENU" transform="translate(200.000000, 4956.000000)">
                <g id="菜单-3" transform="translate(284.000000, 717.000000)">
                    <mask id="mask-2" fill="white">
                        <use xlink:href="#path-1"></use>
                    </mask>
                    <g id="menu_bg">
                        <use fill="black" fill-opacity="1" filter="url(#filter-3)" xlink:href="#path-1"></use>
                        <use fill-opacity="0.8" fill="#EEEEEE" fill-rule="evenodd" xlink:href="#path-1"></use>
                        <rect stroke-opacity="0.06" stroke="#000000" stroke-width="1" x="-0.5" y="-0.5" width="201" height="233" rx="18"></rect>
                        <rect stroke-opacity="0.1" stroke="#FFFFFF" stroke-width="1" stroke-linejoin="square" x="0.5" y="0.5" width="199" height="231" rx="18"></rect>
                    </g>
                    <g id="编组" mask="url(#mask-2)">
                        <g transform="translate(10.000000, 192.000000)" id="menuitem" fill="#000000">
                            <text id="新建文档" font-family="SourceHanSansSC-Medium, Source Han Sans SC" font-size="14" font-weight="400">
                                <tspan x="10" y="20">壁纸与屏保</tspan>
                            </text>
                            <g id="编组" transform="translate(164.000000, 10.000000)" fill-rule="nonzero">
                                <g id="菜单箭头选中">
                                    <path d="M1.11126984,1.07573593 C1.31954946,0.867456309 1.64285874,0.844314129 1.87670051,1.00630939 L1.95979797,1.07573593 L5.49979794,4.61573589 C5.70807756,4.82401552 5.73121974,5.1473248 5.56922448,5.38116657 L5.49979794,5.46426403 L1.95979797,9.00426399 C1.7254834,9.23857857 1.34558441,9.23857857 1.11126984,9.00426399 C0.902990215,8.79598437 0.879848035,8.47267509 1.0418433,8.23883332 L1.11126984,8.15573585 L4.227,5.04 L1.11126984,1.92426407 C0.902990215,1.71598445 0.879848035,1.39267517 1.0418433,1.1588334 L1.11126984,1.07573593 Z"></path>
                                </g>
                            </g>
                        </g>
                    </g>
                    <g id="编组" mask="url(#mask-2)">
                        <g transform="translate(10.000000, 162.000000)" id="menuitem" fill="#000000">
                            <text id="新建文档" font-family="SourceHanSansSC-Medium, Source Han Sans SC" font-size="14" font-weight="400">
                                <tspan x="10" y="20">显示设置</tspan>
                            </text>
                            <g id="编组" transform="translate(164.000000, 10.000000)" fill-rule="nonzero">
                                <g id="菜单箭头选中">
                                    <path d="M1.11126984,1.07573593 C1.31954946,0.867456309 1.64285874,0.844314129 1.87670051,1.00630939 L1.95979797,1.07573593 L5.49979794,4.61573589 C5.70807756,4.82401552 5.73121974,5.1473248 5.56922448,5.38116657 L5.49979794,5.46426403 L1.95979797,9.00426399 C1.7254834,9.23857857 1.34558441,9.23857857 1.11126984,9.00426399 C0.902990215,8.79598437 0.879848035,8.47267509 1.0418433,8.23883332 L1.11126984,8.15573585 L4.227,5.04 L1.11126984,1.92426407 C0.902990215,1.71598445 0.879848035,1.39267517 1.0418433,1.1588334 L1.11126984,1.07573593 Z"></path>
                                </g>
                            </g>
                        </g>
                    </g>
                    <g id="编组" mask="url(#mask-2)" font-family="SourceHanSansSC-Medium, Source Han Sans SC" font-size="14" font-weight="400">
                        <g transform="translate(10.000000, 130.000000)" id="新建文档" fill="#000000">
                            <text>
                                <tspan x="10" y="20">在终端中打开</tspan>
                            </text>
                        </g>
                    </g>
                    <g id="编组" mask="url(#mask-2)" font-family="SourceHanSansSC-Medium, Source Han Sans SC" font-size="14" font-weight="400">
                        <g transform="translate(10.000000, 100.000000)" id="新建文档" fill="#000000">
                            <text>
                                <tspan x="10" y="20">全选</tspan>
                            </text>
                        </g>
                    </g>
                    <g id="编组" mask="url(#mask-2)" fill-opacity="0.1">
                        <g transform="translate(10.000000, 160.000000)">
                            <rect id="menuitem_seperater" fill="#000000" x="0" y="0" width="182" height="2"></rect>
                        </g>
                    </g>
                    <g id="编组" mask="url(#mask-2)">
                        <g transform="translate(10.000000, 40.000000)" id="menuitem" fill="#000000">
                            <rect id="Rectangle" fill-opacity="0.15" x="0" y="0" width="180" height="30" rx="8"></rect>
                            <text id="新建文档" font-family="SourceHanSansSC-Medium, Source Han Sans SC" font-size="14" font-weight="400">
                                <tspan x="10" y="20">排序方式</tspan>
                            </text>
                            <g id="编组" transform="translate(164.000000, 10.000000)" fill-rule="nonzero">
                                <g id="菜单箭头选中">
                                    <path d="M1.11126984,1.07573593 C1.31954946,0.867456309 1.64285874,0.844314129 1.87670051,1.00630939 L1.95979797,1.07573593 L5.49979794,4.61573589 C5.70807756,4.82401552 5.73121974,5.1473248 5.56922448,5.38116657 L5.49979794,5.46426403 L1.95979797,9.00426399 C1.7254834,9.23857857 1.34558441,9.23857857 1.11126984,9.00426399 C0.902990215,8.79598437 0.879848035,8.47267509 1.0418433,8.23883332 L1.11126984,8.15573585 L4.227,5.04 L1.11126984,1.92426407 C0.902990215,1.71598445 0.879848035,1.39267517 1.0418433,1.1588334 L1.11126984,1.07573593 Z"></path>
                                </g>
                            </g>
                        </g>
                    </g>
                    <g id="编组" mask="url(#mask-2)">
                        <g transform="translate(10.000000, 70.000000)" id="menuitem" fill="#000000">
                            <text id="新建文档" font-family="SourceHanSansSC-Medium, Source Han Sans SC" font-size="14" font-weight="400">
                                <tspan x="10" y="20">桌面显示</tspan>
                            </text>
                            <g id="编组" transform="translate(164.000000, 10.000000)" fill-rule="nonzero">
                                <g id="菜单箭头选中">
                                    <path d="M1.11126984,1.07573593 C1.31954946,0.867456309 1.64285874,0.844314129 1.87670051,1.00630939 L1.95979797,1.07573593 L5.49979794,4.61573589 C5.70807756,4.82401552 5.73121974,5.1473248 5.56922448,5.38116657 L5.49979794,5.46426403 L1.95979797,9.00426399 C1.7254834,9.23857857 1.34558441,9.23857857 1.11126984,9.00426399 C0.902990215,8.79598437 0.879848035,8.47267509 1.0418433,8.23883332 L1.11126984,8.15573585 L4.227,5.04 L1.11126984,1.92426407 C0.902990215,1.71598445 0.879848035,1.39267517 1.0418433,1.1588334 L1.11126984,1.07573593 Z"></path>
                                </g>
                            </g>
                        </g>
                    </g>
                    <g id="编组" mask="url(#mask-2)">
                        <g transform="translate(10.000000, 10.000000)" id="menuitem" fill="#000000">
                            <text id="新建文档" font-family="SourceHanSansSC-Medium, Source Han Sans SC" font-size="14" font-weight="400">
                                <tspan x="10" y="20">新建</tspan>
                            </text>
                            <g id="编组" transform="translate(164.000000, 10.000000)" fill-rule="nonzero">
                                <g id="菜单箭头选中">
                                    <path d="M1.11126984,1.07573593 C1.31954946,0.867456309 1.64285874,0.844314129 1.87670051,1.00630939 L1.95979797,1.07573593 L5.49979794,4.61573589 C5.70807756,4.82401552 5.73121974,5.1473248 5.56922448,5.38116657 L5.49979794,5.46426403 L1.95979797,9.00426399 C1.7254834,9.23857857 1.34558441,9.23857857 1.11126984,9.00426399 C0.902990215,8.79598437 0.879848035,8.47267509 1.0418433,8.23883332 L1.11126984,8.15573585 L4.227,5.04 L1.11126984,1.92426407 C0.902990215,1.71598445 0.879848035,1.39267517 1.0418433,1.1588334 L1.11126984,1.07573593 Z"></path>
                                </g>
                            </g>
                        </g>
                    </g>
                </g>
            </g>
        </g>
    </g>
</svg>