<?xml version="1.0" encoding="UTF-8"?>
<svg width="96px" height="96px" viewBox="0 0 96 96" version="1.1" xmlns="http://www.w3.org/2000/svg" xmlns:xlink="http://www.w3.org/1999/xlink">
    <title>ICON / TrayICON / wifi-dark</title>
    <defs>
        <filter x="-27.0%" y="-21.0%" width="154.0%" height="154.0%" filterUnits="objectBoundingBox" id="filter-1">
            <feOffset dx="0" dy="3" in="SourceAlpha" result="shadowOffsetOuter1"></feOffset>
            <feGaussianBlur stdDeviation="4" in="shadowOffsetOuter1" result="shadowBlurOuter1"></feGaussianBlur>
            <feColorMatrix values="0 0 0 0 0   0 0 0 0 0   0 0 0 0 0  0 0 0 0.552334872 0" type="matrix" in="shadowBlurOuter1" result="shadowMatrixOuter1"></feColorMatrix>
            <feMerge>
                <feMergeNode in="shadowMatrixOuter1"></feMergeNode>
                <feMergeNode in="SourceGraphic"></feMergeNode>
            </feMerge>
        </filter>
        <path d="M20.8847619,24.0276264 L25.9419261,29.0795207 C26.0015872,29.1391197 26.0587043,29.2003011 26.1132773,29.2629301 C25.0287148,31.1898568 24.3902572,33.3966024 24.3355121,35.7464673 L20.590305,39.488006 C19.9662776,40.1113831 19.133971,40.4822784 18.2531867,40.5294805 L12.4178577,40.842202 L3.92350311,49.3277048 C3.02562647,50.2246458 1.57087296,50.2246458 0.672996323,49.3277048 C-0.223670972,48.4319719 -0.224428449,46.9789444 0.67130445,46.0822772 L9.16735092,37.5950824 L9.43762371,31.7330258 C9.47873137,30.8414249 9.85161029,29.997385 10.483066,29.3665873 L15.8275963,24.0276264 C17.2245202,22.6321582 19.4878379,22.6321582 20.8847619,24.0276264 Z M49.3265923,0.672705739 C50.2240171,1.57106491 50.2232596,3.02409235 49.3265923,3.91982525 L40.8322377,12.4053281 L40.5193686,18.2312515 C40.4720066,19.1131774 40.1001176,19.9464203 39.4752778,20.570609 L37.9590819,22.0843217 C34.4712089,22.2015551 31.304324,23.5740831 28.9031332,25.7607947 L24.0054001,20.8686818 C22.6062646,19.4680896 22.6074456,17.2027385 24.0054001,15.8062407 L29.3460303,10.4711758 C29.9766593,9.84120405 30.8197362,9.46932399 31.7101736,9.42835549 L37.5817309,9.15820858 L46.0760855,0.672705739 C46.9739622,-0.224235246 48.4287157,-0.224235246 49.3265923,0.672705739 Z" id="path-2"></path>
        <filter x="-4.0%" y="-4.0%" width="108.0%" height="108.0%" filterUnits="objectBoundingBox" id="filter-3">
            <feGaussianBlur stdDeviation="1" in="SourceAlpha" result="shadowBlurInner1"></feGaussianBlur>
            <feOffset dx="0" dy="-2" in="shadowBlurInner1" result="shadowOffsetInner1"></feOffset>
            <feComposite in="shadowOffsetInner1" in2="SourceAlpha" operator="arithmetic" k2="-1" k3="1" result="shadowInnerInner1"></feComposite>
            <feColorMatrix values="0 0 0 0 0   0 0 0 0 0   0 0 0 0 0  0 0 0 0.2 0" type="matrix" in="shadowInnerInner1" result="shadowMatrixInner1"></feColorMatrix>
            <feGaussianBlur stdDeviation="1" in="SourceAlpha" result="shadowBlurInner2"></feGaussianBlur>
            <feOffset dx="0" dy="1" in="shadowBlurInner2" result="shadowOffsetInner2"></feOffset>
            <feComposite in="shadowOffsetInner2" in2="SourceAlpha" operator="arithmetic" k2="-1" k3="1" result="shadowInnerInner2"></feComposite>
            <feColorMatrix values="0 0 0 0 1   0 0 0 0 1   0 0 0 0 1  0 0 0 0.096867488 0" type="matrix" in="shadowInnerInner2" result="shadowMatrixInner2"></feColorMatrix>
            <feMerge>
                <feMergeNode in="shadowMatrixInner1"></feMergeNode>
                <feMergeNode in="shadowMatrixInner2"></feMergeNode>
            </feMerge>
        </filter>
        <path d="M14.2262299,3.59124774 C20.047809,3.59124774 24.7671314,8.27242238 24.7671314,14.0469439 C24.7671314,19.8214655 20.047809,24.5026401 14.2262299,24.5026401 C8.40465071,24.5026401 3.68532835,19.8214655 3.68532835,14.0469439 C3.68532835,8.27242238 8.40465071,3.59124774 14.2262299,3.59124774 Z M6.68532835,14.0469439 C6.68532835,18.1591363 10.056079,21.5026401 14.2262299,21.5026401 C15.5460175,21.5026401 16.7857353,21.1677469 17.8638719,20.5795816 L7.63161413,10.4285399 C7.02861387,11.5006005 6.68532835,12.7346296 6.68532835,14.0469439 Z M14.2262299,6.59124774 C12.4817007,6.59124774 10.8770715,7.17638092 9.60059446,8.15814117 L20.1677781,18.6384178 C21.1701259,17.3720193 21.7671314,15.7775542 21.7671314,14.0469439 C21.7671314,9.93475155 18.3963808,6.59124774 14.2262299,6.59124774 Z" id="path-4"></path>
        <filter x="-7.1%" y="-7.2%" width="114.2%" height="114.3%" filterUnits="objectBoundingBox" id="filter-5">
            <feGaussianBlur stdDeviation="1" in="SourceAlpha" result="shadowBlurInner1"></feGaussianBlur>
            <feOffset dx="0" dy="-1" in="shadowBlurInner1" result="shadowOffsetInner1"></feOffset>
            <feComposite in="shadowOffsetInner1" in2="SourceAlpha" operator="arithmetic" k2="-1" k3="1" result="shadowInnerInner1"></feComposite>
            <feColorMatrix values="0 0 0 0 0   0 0 0 0 0   0 0 0 0 0  0 0 0 0.2 0" type="matrix" in="shadowInnerInner1" result="shadowMatrixInner1"></feColorMatrix>
            <feGaussianBlur stdDeviation="1" in="SourceAlpha" result="shadowBlurInner2"></feGaussianBlur>
            <feOffset dx="0" dy="1" in="shadowBlurInner2" result="shadowOffsetInner2"></feOffset>
            <feComposite in="shadowOffsetInner2" in2="SourceAlpha" operator="arithmetic" k2="-1" k3="1" result="shadowInnerInner2"></feComposite>
            <feColorMatrix values="0 0 0 0 1   0 0 0 0 1   0 0 0 0 1  0 0 0 0.096867488 0" type="matrix" in="shadowInnerInner2" result="shadowMatrixInner2"></feColorMatrix>
            <feMerge>
                <feMergeNode in="shadowMatrixInner1"></feMergeNode>
                <feMergeNode in="shadowMatrixInner2"></feMergeNode>
            </feMerge>
        </filter>
    </defs>
    <g id="页面-1" stroke="none" stroke-width="1" fill="none" fill-rule="evenodd">
        <g id="网络列表" transform="translate(-1617, -2169)">
            <g id="网络" transform="translate(1500, 2055)">
                <g id="ICON-/-TrayICON-/-wifi-dark" transform="translate(117, 114)">
                    <rect id="矩形" x="0" y="0" width="96" height="96"></rect>
                    <g id="编组-8" filter="url(#filter-1)" transform="translate(22.0002, 20.9998)" fill-rule="nonzero">
                        <g id="形状结合">
                            <use fill-opacity="0.2" fill="#FFFFFF" xlink:href="#path-2"></use>
                            <use fill="black" fill-opacity="1" filter="url(#filter-3)" xlink:href="#path-2"></use>
                        </g>
                        <g id="形状结合" transform="translate(24.3317, 22.0762)">
                            <use fill-opacity="0.2" fill="#FFFFFF" xlink:href="#path-4"></use>
                            <use fill="black" fill-opacity="1" filter="url(#filter-5)" xlink:href="#path-4"></use>
                        </g>
                    </g>
                </g>
            </g>
        </g>
    </g>
</svg>