<?xml version="1.0" encoding="UTF-8"?><svg version="1.1" width="36px" height="36px" viewBox="0 0 36.0 36.0" xmlns="http://www.w3.org/2000/svg" xmlns:xlink="http://www.w3.org/1999/xlink"><defs><clipPath id="i0"><path d="M1920,0 L1920,1080 L0,1080 L0,0 L1920,0 Z"></path></clipPath><clipPath id="i1"><path d="M1539.99947,171 C1549.94757,171 1558,179.061968 1558,189.00691 L1558,852.99309 C1558,862.942251 1549.94089,871 1539.99947,871 L478.000533,871 C468.052433,871 460,862.938032 460,852.99309 L460,189.00691 C460,179.057749 468.059113,171 478.000533,171 Z"></path></clipPath><clipPath id="i2"><path d="M18,0 C27.9411255,0 36,8.0588745 36,18 C36,27.9411255 27.9411255,36 18,36 C8.0588745,36 0,27.9411255 0,18 C0,8.0588745 8.0588745,0 18,0 Z M12.7058824,13.0241975 L12.7058824,22.9761778 C12.7058824,25.1259025 14.0983649,26.0182581 15.8035196,24.9769796 L24.1307891,19.8918067 C25.841567,18.8470943 25.8359438,17.1498471 24.1307891,16.1085687 L15.8035196,11.0233957 C14.0927418,9.97868337 12.7058824,10.8809929 12.7058824,13.0241975 Z"></path></clipPath></defs><g transform="translate(-972.0 -808.0)"><g clip-path="url(#i0)"><g clip-path="url(#i1)"><g transform="translate(952.0 791.0)"><g transform="translate(20.0 17.0)"><g clip-path="url(#i2)"><polygon points="0,0 36,0 36,36 0,36 0,0" stroke="none" fill="#000000"></polygon></g></g></g></g></g></g></svg>