<?xml version="1.0" encoding="UTF-8"?>
<svg width="36px" height="36px" viewBox="0 0 36 36" version="1.1" xmlns="http://www.w3.org/2000/svg" xmlns:xlink="http://www.w3.org/1999/xlink">
    <title>sidebar</title>
    <g id="浅色" stroke="none" stroke-width="1" fill="none" fill-rule="evenodd">
        <g id="sidebar" fill="#000000">
            <rect id="DTK-/-Button-/ToolButton-/-Light-Normal" fill-opacity="0" x="0" y="0" width="36" height="36" rx="8"></rect>
            <g id="ICON" transform="translate(10.000000, 11.000000)" fill-rule="nonzero">
                <path d="M2,13 C0.8954305,13 0,12.1045695 0,11 L0,2 C0,0.8954305 0.8954305,0 2,0 L12,0 C13.1045695,0 14,0.8954305 14,2 L14,11 C14,12.1045695 13.1045695,13 12,13 L2,13 Z M12,1 L6,1 L6,12 L12,12 C12.5128358,12 12.9355072,11.6139598 12.9932723,11.1166211 L13,11 L13,2 C13,1.48716416 12.6139598,1.06449284 12.1166211,1.00672773 L12,1 Z M4,9 L2,9 L2,10 L4,10 L4,9 Z M4,6 L2,6 L2,7 L4,7 L4,6 Z M4,3 L2,3 L2,4 L4,4 L4,3 Z" id="形状结合"></path>
            </g>
        </g>
    </g>
</svg>