<?xml version="1.0" encoding="UTF-8"?>
<svg width="32px" height="32px" viewBox="0 0 32 32" version="1.1" xmlns="http://www.w3.org/2000/svg" xmlns:xlink="http://www.w3.org/1999/xlink">
    <title>uosid</title>
    <defs>
        <filter x="-14.3%" y="-14.3%" width="128.6%" height="128.6%" filterUnits="objectBoundingBox" id="filter-1">
            <feOffset dx="0" dy="1" in="SourceAlpha" result="shadowOffsetOuter1"></feOffset>
            <feGaussianBlur stdDeviation="0.5" in="shadowOffsetOuter1" result="shadowBlurOuter1"></feGaussianBlur>
            <feColorMatrix values="0 0 0 0 0   0 0 0 0 0   0 0 0 0 0  0 0 0 0.15 0" type="matrix" in="shadowBlurOuter1" result="shadowMatrixOuter1"></feColorMatrix>
            <feMerge>
                <feMergeNode in="shadowMatrixOuter1"></feMergeNode>
                <feMergeNode in="SourceGraphic"></feMergeNode>
            </feMerge>
        </filter>
        <linearGradient x1="50.0006818%" y1="2.22971221%" x2="50.0006818%" y2="97.1222502%" id="linearGradient-2">
            <stop stop-color="#FFFFFF" offset="0%"></stop>
            <stop stop-color="#C0E9FE" offset="100%"></stop>
        </linearGradient>
        <linearGradient x1="50%" y1="0%" x2="50%" y2="100%" id="linearGradient-3">
            <stop stop-color="#00A9FF" offset="0%"></stop>
            <stop stop-color="#0049EA" offset="100%"></stop>
        </linearGradient>
        <circle id="path-4" cx="14" cy="14" r="12.1333333"></circle>
        <filter x="-8.2%" y="-8.2%" width="116.5%" height="116.5%" filterUnits="objectBoundingBox" id="filter-5">
            <feGaussianBlur stdDeviation="2" in="SourceAlpha" result="shadowBlurInner1"></feGaussianBlur>
            <feOffset dx="0" dy="0" in="shadowBlurInner1" result="shadowOffsetInner1"></feOffset>
            <feComposite in="shadowOffsetInner1" in2="SourceAlpha" operator="arithmetic" k2="-1" k3="1" result="shadowInnerInner1"></feComposite>
            <feColorMatrix values="0 0 0 0 0   0 0 0 0 0.171342171   0 0 0 0 0.336347055  0 0 0 0.5 0" type="matrix" in="shadowInnerInner1"></feColorMatrix>
        </filter>
        <linearGradient x1="50.0006818%" y1="2.22971221%" x2="50.0006818%" y2="97.1222502%" id="linearGradient-6">
            <stop stop-color="#FFFFFF" offset="0%"></stop>
            <stop stop-color="#C0E9FE" offset="100%"></stop>
        </linearGradient>
        <path d="M24.830303,15.6238552 C24.830303,13.8477894 23.5466546,12.3508451 21.7900581,11.8752719 C21.2855489,10.0467598 19.4955069,8.69204292 17.358291,8.69204292 C16.736487,8.69204292 16.144831,8.80760275 15.6040499,9.01472153 C14.6769966,8.1044656 13.3641421,7.53333333 11.9043158,7.53333333 C9.12315587,7.53333333 6.86676088,9.59696532 6.82389409,12.1561712 C5.23829376,12.6846352 4.1030303,14.0824648 4.1030303,15.728748 C4.1030303,17.8163809 5.92557565,19.5093324 8.18102854,19.5284443 L8.18102854,19.5333333 L20.7273384,19.5333333 L20.7273384,19.526222 C23.0044602,19.462664 24.830303,17.7421559 24.830303,15.6238552 L24.830303,15.6238552 Z" id="path-7"></path>
        <filter x="-7.2%" y="-12.5%" width="114.5%" height="125.0%" filterUnits="objectBoundingBox" id="filter-8">
            <feGaussianBlur stdDeviation="1" in="SourceAlpha" result="shadowBlurInner1"></feGaussianBlur>
            <feOffset dx="0" dy="1" in="shadowBlurInner1" result="shadowOffsetInner1"></feOffset>
            <feComposite in="shadowOffsetInner1" in2="SourceAlpha" operator="arithmetic" k2="-1" k3="1" result="shadowInnerInner1"></feComposite>
            <feColorMatrix values="0 0 0 0 0   0 0 0 0 0.379746835   0 0 0 0 1  0 0 0 0.329547162 0" type="matrix" in="shadowInnerInner1"></feColorMatrix>
        </filter>
        <linearGradient x1="50%" y1="-44.5205284%" x2="50%" y2="100%" id="linearGradient-9">
            <stop stop-color="#0088FF" offset="0%"></stop>
            <stop stop-color="#0050FF" offset="100%"></stop>
        </linearGradient>
    </defs>
    <g id="uosid" stroke="none" stroke-width="1" fill="none" fill-rule="evenodd">
        <g id="编组" filter="url(#filter-1)" transform="translate(2.000000, 2.000000)">
            <circle id="椭圆形" fill="url(#linearGradient-2)" fill-rule="nonzero" cx="14" cy="14" r="14"></circle>
            <g id="椭圆形" fill-rule="nonzero">
                <use fill="url(#linearGradient-3)" xlink:href="#path-4"></use>
                <use fill="black" fill-opacity="1" filter="url(#filter-5)" xlink:href="#path-4"></use>
            </g>
            <g id="Shape" fill-rule="nonzero" transform="translate(14.466667, 13.533333) scale(-1, 1) translate(-14.466667, -13.533333) ">
                <use fill="url(#linearGradient-6)" xlink:href="#path-7"></use>
                <use fill="black" fill-opacity="1" filter="url(#filter-8)" xlink:href="#path-7"></use>
            </g>
            <path d="M12.0344,13.0666667 C12.089,13.0666667 12.1333333,13.1109067 12.1333333,13.1656 L12.1333333,13.9010667 C12.1333333,13.95576 12.1775733,14 12.2322667,14 L12.96764,14 C13.02224,14 13.0666667,14.0443333 13.0666667,14.0989333 L13.0666667,14.8344 C13.0666667,14.889 13.02224,14.9333333 12.96764,14.9333333 L9.43236,14.9333333 C9.37766667,14.9333333 9.33333333,14.889 9.33333333,14.8344 L9.33333333,13.1656 C9.33333333,13.1109067 9.37766667,13.0666667 9.43236,13.0666667 L12.0344,13.0666667 Z M18.56764,13.0666667 C18.6223333,13.0666667 18.6666667,13.1109067 18.6666667,13.1656 L18.6666667,13.1656 L18.6666667,14.8344 C18.6666667,14.889 18.6223333,14.9333333 18.56764,14.9333333 L18.56764,14.9333333 L15.03236,14.9333333 C14.97776,14.9333333 14.9333333,14.889 14.9333333,14.8344 L14.9333333,14.8344 L14.9333333,14.0989333 C14.9333333,14.0443333 14.97776,14 15.03236,14 L15.03236,14 L15.7677333,14 C15.8224267,14 15.8666667,13.95576 15.8666667,13.9010667 L15.8666667,13.9010667 L15.8666667,13.1656 C15.8666667,13.1109067 15.911,13.0666667 15.9656,13.0666667 L15.9656,13.0666667 L18.56764,13.0666667 Z" id="形状结合" fill="url(#linearGradient-9)"></path>
        </g>
    </g>
</svg>