<?xml version="1.0" encoding="UTF-8" standalone="no"?>
<svg
   width="16"
   height="16"
   version="1.1"
   id="svg10"
   sodipodi:docname="battery.svg"
   inkscape:version="1.2.2 (b0a8486541, 2022-12-01)"
   xmlns:inkscape="http://www.inkscape.org/namespaces/inkscape"
   xmlns:sodipodi="http://sodipodi.sourceforge.net/DTD/sodipodi-0.dtd"
   xmlns="http://www.w3.org/2000/svg"
   xmlns:svg="http://www.w3.org/2000/svg"
   xmlns:rdf="http://www.w3.org/1999/02/22-rdf-syntax-ns#"
   xmlns:cc="http://creativecommons.org/ns#"
   xmlns:dc="http://purl.org/dc/elements/1.1/">
  <metadata
     id="metadata16">
    <rdf:RDF>
      <cc:Work
         rdf:about="">
        <dc:format>image/svg+xml</dc:format>
        <dc:type
           rdf:resource="http://purl.org/dc/dcmitype/StillImage" />
        <dc:title />
      </cc:Work>
    </rdf:RDF>
  </metadata>
  <defs
     id="defs14" />
  <sodipodi:namedview
     pagecolor="#ffffff"
     bordercolor="#666666"
     borderopacity="1"
     objecttolerance="10"
     gridtolerance="10"
     guidetolerance="10"
     inkscape:pageopacity="0"
     inkscape:pageshadow="2"
     inkscape:window-width="1920"
     inkscape:window-height="958"
     id="namedview12"
     showgrid="false"
     inkscape:zoom="22.96875"
     inkscape:cx="-3.3088435"
     inkscape:cy="10.536054"
     inkscape:window-x="0"
     inkscape:window-y="24"
     inkscape:window-maximized="1"
     inkscape:current-layer="svg10"
     inkscape:document-rotation="0"
     inkscape:showpageshadow="2"
     inkscape:pagecheckerboard="0"
     inkscape:deskcolor="#d1d1d1" />
  <g
     fill="#363636"
     fill-rule="evenodd"
     id="g8"
     style="fill:#000000;fill-opacity:1">
    <path
       d="m2 3c-1.108 0-2 0.892-2 2v6c0 1.108 0.892 2 2 2h9c1.108 0 2-0.892 2-2v-6c0-1.108-0.892-2-2-2h-9zm0 1h9c0.554 0 1 0.446 1 1v6c0 0.554-0.446 1-1 1h-9c-0.554 0-1-0.446-1-1v-6c0-0.554 0.446-1 1-1z"
       style="paint-order:stroke fill markers;fill:#000000;fill-opacity:1"
       id="path2" />
    <rect
       x="2"
       y="5"
       width="9"
       height="6"
       rx=".54715"
       ry=".54584"
       style="paint-order:stroke fill markers;fill:#000000;fill-opacity:1"
       id="rect4" />
    <path
       d="m14 6v4a2 2 0 0 0 2-2 2 2 0 0 0-2-2z"
       enable-background="new"
       style="paint-order:stroke fill markers;fill:#000000;fill-opacity:1"
       id="path6" />
  </g>
</svg>
