<?xml version="1.0" encoding="UTF-8"?>
<svg width="24px" height="24px" viewBox="0 0 24 24" version="1.1" xmlns="http://www.w3.org/2000/svg" xmlns:xlink="http://www.w3.org/1999/xlink">
    <title>模糊激活</title>
    <g id="模糊激活" stroke="none" stroke-width="1" fill="none" fill-rule="evenodd">
        <path d="M14.1052632,8.31578948 C13.2332346,8.31578948 12.5263158,9.0227083 12.5263158,9.89473685 C12.5263158,10.7667654 13.2332346,11.4736842 14.1052632,11.4736842 C14.9772917,11.4736842 15.6842105,10.7667654 15.6842105,9.89473685 C15.6842105,9.0227083 14.9772917,8.31578948 14.1052632,8.31578948 M14.1052632,12.5263158 C13.2332346,12.5263158 12.5263158,13.2332346 12.5263158,14.1052632 C12.5263158,14.9772917 13.2332346,15.6842105 14.1052632,15.6842105 C14.9772917,15.6842105 15.6842105,14.9772917 15.6842105,14.1052632 C15.6842105,13.2332346 14.9772917,12.5263158 14.1052632,12.5263158 M9.89473685,17.2631579 C9.61556159,17.2631579 9.34782063,17.3740598 9.15041391,17.5714665 C8.9530072,17.7688733 8.84210526,18.0366142 8.84210526,18.3157895 C8.84210526,18.5949647 8.9530072,18.8627057 9.15041391,19.0601124 C9.34782063,19.2575191 9.61556159,19.3684211 9.89473685,19.3684211 C10.4760892,19.3684211 10.9473684,18.8971418 10.9473684,18.3157895 C10.9473684,17.7344371 10.4760892,17.2631579 9.89473685,17.2631579 M9.89473685,8.31578948 C9.0227083,8.31578948 8.31578948,9.0227083 8.31578948,9.89473685 C8.31578948,10.7667654 9.0227083,11.4736842 9.89473685,11.4736842 C10.7667654,11.4736842 11.4736842,10.7667654 11.4736842,9.89473685 C11.4736842,9.47597397 11.3073313,9.07436253 11.0112212,8.77825246 C10.7151112,8.48214238 10.3134997,8.31578948 9.89473685,8.31578948 M14.1052632,20.9473684 C13.814587,20.9473684 13.5789474,21.183008 13.5789474,21.4736842 C13.5789474,21.7643604 13.814587,22 14.1052632,22 C14.2448508,22 14.3787213,21.944549 14.4774246,21.8458457 C14.576128,21.7471423 14.631579,21.6132718 14.631579,21.4736842 C14.631579,21.3340966 14.576128,21.2002261 14.4774246,21.1015228 C14.3787213,21.0028194 14.2448508,20.9473684 14.1052632,20.9473684 M14.1052632,17.2631579 C13.5239108,17.2631579 13.0526316,17.7344371 13.0526316,18.3157895 C13.0526316,18.8971418 13.5239108,19.3684211 14.1052632,19.3684211 C14.6866155,19.3684211 15.1578947,18.8971419 15.1578947,18.3157895 C15.1578947,17.7344371 14.6866155,17.2631579 14.1052632,17.2631579 M21.4736842,13.5789474 C21.183008,13.5789474 20.9473684,13.814587 20.9473684,14.1052632 C20.9473684,14.2448508 21.0028194,14.3787213 21.1015228,14.4774246 C21.2002261,14.576128 21.3340966,14.631579 21.4736842,14.631579 C21.6132718,14.631579 21.7471423,14.576128 21.8458457,14.4774246 C21.944549,14.3787213 22,14.2448508 22,14.1052632 C22,13.814587 21.7643604,13.5789474 21.4736842,13.5789474 M18.3157895,4.63157893 C17.7344371,4.63157893 17.2631579,5.10285815 17.2631579,5.68421052 C17.2631579,5.96338578 17.3740598,6.23112674 17.5714665,6.42853346 C17.7688733,6.62594017 18.0366142,6.73684211 18.3157895,6.73684211 C18.5949647,6.73684211 18.8627057,6.62594017 19.0601124,6.42853346 C19.2575191,6.23112674 19.3684211,5.96338578 19.3684211,5.68421052 C19.3684211,5.10285815 18.8971419,4.63157893 18.3157895,4.63157893 M18.3157895,8.84210526 C18.0366142,8.84210526 17.7688733,8.9530072 17.5714665,9.15041391 C17.3740598,9.34782063 17.2631579,9.61556159 17.2631579,9.89473685 C17.2631579,10.4760892 17.7344371,10.9473684 18.3157895,10.9473684 C18.8971418,10.9473684 19.3684211,10.4760892 19.3684211,9.89473685 C19.3684211,9.31338448 18.8971419,8.84210526 18.3157895,8.84210526 M18.3157895,17.2631579 C17.7344371,17.2631579 17.2631579,17.7344371 17.2631579,18.3157895 C17.2631579,18.8971419 17.7344371,19.3684211 18.3157895,19.3684211 C18.8971419,19.3684211 19.3684211,18.8971419 19.3684211,18.3157895 C19.3684211,17.7344371 18.8971419,17.2631579 18.3157895,17.2631579 M18.3157895,13.0526316 C17.7344371,13.0526316 17.2631579,13.5239108 17.2631579,14.1052632 C17.2631579,14.6866155 17.7344371,15.1578947 18.3157895,15.1578947 C18.8971419,15.1578947 19.3684211,14.6866155 19.3684211,14.1052632 C19.3684211,13.5239108 18.8971418,13.0526316 18.3157895,13.0526316 M9.89473685,12.5263158 C9.0227083,12.5263158 8.31578948,13.2332346 8.31578948,14.1052632 C8.31578948,14.9772917 9.0227083,15.6842105 9.89473685,15.6842105 C10.7667654,15.6842105 11.4736842,14.9772917 11.4736842,14.1052632 C11.4736842,13.2332346 10.7667654,12.5263158 9.89473685,12.5263158 M9.89473685,6.73684211 C10.4760892,6.73684211 10.9473684,6.26556288 10.9473684,5.68421052 C10.9473684,5.10285816 10.4760892,4.63157893 9.89473685,4.63157893 C9.31338448,4.63157893 8.84210526,5.10285815 8.84210526,5.68421052 C8.84210526,5.96338578 8.9530072,6.23112674 9.15041391,6.42853346 C9.34782063,6.62594017 9.61556159,6.73684211 9.89473685,6.73684211 M9.89473685,3.05263156 C10.185413,3.05263156 10.4210526,2.81699196 10.4210526,2.52631578 C10.4210526,2.2356396 10.185413,2 9.89473685,2 C9.75514922,2 9.62127874,2.05545096 9.52257537,2.15415431 C9.42387201,2.25285767 9.36842104,2.38672815 9.36842104,2.52631578 C9.36842104,2.66590341 9.42387201,2.79977389 9.52257537,2.89847725 C9.62127874,2.99718061 9.75514922,3.05263156 9.89473685,3.05263156 M9.89473685,20.9473684 C9.75514922,20.9473684 9.62127874,21.0028194 9.52257537,21.1015228 C9.42387201,21.2002261 9.36842104,21.3340966 9.36842104,21.4736842 C9.36842104,21.6132718 9.42387201,21.7471423 9.52257537,21.8458457 C9.62127874,21.944549 9.75514922,22 9.89473685,22 C10.185413,22 10.4210526,21.7643604 10.4210526,21.4736842 C10.4210526,21.183008 10.185413,20.9473684 9.89473685,20.9473684 M2.52631578,13.5789474 C2.2356396,13.5789474 2,13.814587 2,14.1052632 C2,14.2448508 2.05545096,14.3787213 2.15415431,14.4774246 C2.25285767,14.576128 2.38672815,14.631579 2.52631578,14.631579 C2.66590341,14.631579 2.79977389,14.576128 2.89847725,14.4774246 C2.99718061,14.3787213 3.05263156,14.2448508 3.05263156,14.1052632 C3.05263156,13.814587 2.81699196,13.5789474 2.52631578,13.5789474 M14.1052632,3.05263156 C14.2448508,3.05263156 14.3787213,2.99718061 14.4774246,2.89847725 C14.576128,2.79977389 14.631579,2.66590341 14.631579,2.52631578 C14.631579,2.38672815 14.576128,2.25285767 14.4774246,2.15415431 C14.3787213,2.05545096 14.2448508,2 14.1052632,2 C13.814587,2 13.5789474,2.2356396 13.5789474,2.52631578 C13.5789474,2.81699196 13.814587,3.05263156 14.1052632,3.05263156 M14.1052632,6.73684211 C14.3844384,6.73684211 14.6521794,6.62594017 14.8495861,6.42853346 C15.0469928,6.23112674 15.1578947,5.96338578 15.1578947,5.68421052 C15.1578947,5.10285815 14.6866155,4.63157893 14.1052632,4.63157893 C13.5239108,4.63157893 13.0526316,5.10285816 13.0526316,5.68421052 C13.0526316,6.26556288 13.5239108,6.73684211 14.1052632,6.73684211 M21.4736842,10.4210526 C21.7643604,10.4210526 22,10.185413 22,9.89473685 C22,9.75514922 21.944549,9.62127874 21.8458457,9.52257537 C21.7471423,9.42387201 21.6132718,9.36842104 21.4736842,9.36842104 C21.3340966,9.36842104 21.2002261,9.42387201 21.1015228,9.52257537 C21.0028194,9.62127874 20.9473684,9.75514922 20.9473684,9.89473685 C20.9473684,10.185413 21.183008,10.4210526 21.4736842,10.4210526 M5.68421052,4.63157893 C5.10285815,4.63157893 4.63157893,5.10285815 4.63157893,5.68421052 C4.63157893,5.96338578 4.74248087,6.23112674 4.93988759,6.42853346 C5.1372943,6.62594017 5.40503527,6.73684211 5.68421052,6.73684211 C5.96338578,6.73684211 6.23112674,6.62594017 6.42853346,6.42853346 C6.62594017,6.23112674 6.73684211,5.96338578 6.73684211,5.68421052 C6.73684211,5.40503527 6.62594017,5.1372943 6.42853346,4.93988759 C6.23112674,4.74248087 5.96338578,4.63157893 5.68421052,4.63157893 M2.52631578,9.36842104 C2.38672815,9.36842104 2.25285767,9.42387201 2.15415431,9.52257537 C2.05545096,9.62127874 2,9.75514922 2,9.89473685 C2,10.185413 2.2356396,10.4210526 2.52631578,10.4210526 C2.81699196,10.4210526 3.05263156,10.185413 3.05263156,9.89473685 C3.05263156,9.75514922 2.99718061,9.62127874 2.89847725,9.52257537 C2.79977389,9.42387201 2.66590341,9.36842104 2.52631578,9.36842104 M5.68421052,8.84210526 C5.40503527,8.84210526 5.1372943,8.9530072 4.93988759,9.15041391 C4.74248087,9.34782063 4.63157893,9.61556159 4.63157893,9.89473685 C4.63157893,10.4760892 5.10285816,10.9473684 5.68421052,10.9473684 C6.26556288,10.9473684 6.73684211,10.4760892 6.73684211,9.89473685 C6.73684211,9.31338448 6.26556289,8.84210526 5.68421052,8.84210526 M5.68421052,17.2631579 C5.10285815,17.2631579 4.63157893,17.7344371 4.63157893,18.3157895 C4.63157893,18.8971419 5.10285815,19.3684211 5.68421052,19.3684211 C6.26556289,19.3684211 6.73684211,18.8971419 6.73684211,18.3157895 C6.73684211,18.0366142 6.62594017,17.7688733 6.42853346,17.5714665 C6.23112674,17.3740598 5.96338578,17.2631579 5.68421052,17.2631579 M5.68421052,13.0526316 C5.10285816,13.0526316 4.63157893,13.5239108 4.63157893,14.1052632 C4.63157893,14.6866155 5.10285815,15.1578947 5.68421052,15.1578947 C5.96338578,15.1578947 6.23112674,15.0469928 6.42853346,14.8495861 C6.62594017,14.6521794 6.73684211,14.3844384 6.73684211,14.1052632 C6.73684211,13.5239108 6.26556288,13.0526316 5.68421052,13.0526316 Z" id="模糊" fill="#0062F0" fill-rule="nonzero"></path>
    </g>
</svg>