<?xml version="1.0" encoding="UTF-8"?>
<svg width="18px" height="22px" viewBox="0 0 18 22" version="1.1" xmlns="http://www.w3.org/2000/svg" xmlns:xlink="http://www.w3.org/1999/xlink">
    <!-- Generator: Sketch 61.2 (89653) - https://sketch.com -->
    <title>图钉icon</title>
    <desc>Created with Sketch.</desc>
    <g id="控件" stroke="none" stroke-width="1" fill="none" fill-rule="evenodd">
        <g id="图钉" transform="translate(-7.000000, -5.000000)" fill="#272727">
            <g id="图钉icon">
                <path d="M18.3378185,5.3660254 C18.8901032,5.3660254 19.3378185,5.81374065 19.3378185,6.3660254 C19.3378185,6.37842737 19.3375878,6.39082826 19.3371265,6.40322165 L19.0021482,15.3920254 L22.653387,18.9018813 C22.7330263,18.9784209 22.7355392,19.105029 22.6589996,19.1846683 C22.62129,19.2239051 22.5692198,19.2460811 22.5147998,19.2460811 L16.2521482,19.2460254 L15.2333655,28.4438126 C15.2272822,28.498705 15.1778516,28.5382726 15.1229592,28.5321893 C15.0764517,28.5270352 15.0397365,28.49032 15.0345825,28.4438126 L14.0151482,19.2460254 L7.75314822,19.2460811 C7.64269127,19.2460811 7.55314822,19.1565381 7.55314822,19.0460811 C7.55314822,18.9916611 7.57532424,18.9395909 7.61456101,18.9018813 L11.2031482,15.4520254 L10.9239793,6.39682595 C10.9069686,5.84480324 11.3406816,5.38351053 11.8927043,5.36649985 L18.3378185,5.3660254 Z" transform="translate(15.133974, 16.949416) rotate(-690.000000) translate(-15.133974, -16.949416) "></path>
            </g>
        </g>
    </g>
</svg>