<?xml version="1.0" encoding="UTF-8"?>
<svg width="24px" height="24px" viewBox="0 0 24 24" version="1.1" xmlns="http://www.w3.org/2000/svg" xmlns:xlink="http://www.w3.org/1999/xlink">
    <title>撤销</title>
    <g id="撤销" stroke="none" stroke-width="1" fill="none" fill-rule="evenodd" opacity="0.779697731">
        <g id="编组" transform="translate(3.000000, 3.000000)" stroke="#000000">
            <path d="M2.20577137,13.7477877 C4.55258969,17.8125963 9.75024026,19.2053025 13.8150488,16.8584842 C17.8798574,14.5116659 19.2725637,9.31401533 16.9257454,5.24920675 C15.1557768,2.1835313 11.764208,0.637791621 8.46003874,1.06991288 C7.38317821,1.21074536 6.31560101,1.56166045 5.31646789,2.13851023 C4.01394409,2.89052269 2.98579509,3.93526217 2.26714239,5.14165346" id="椭圆形" stroke-width="2" stroke-linecap="round"></path>
            <path d="M0.646446609,0.646446609 C1.13807119,0.5 1.26307119,0.555964406 1.35355339,0.646446609 C1.44403559,0.736928813 1.5,0.861928813 1.5,1 L1.5,1 L1.5,5.5 L6,5.5 C6.13807119,5.5 6.26307119,5.55596441 6.35355339,5.64644661 C6.44403559,5.73692881 6.5,5.86192881 6.5,6 C6.5,6.13807119 6.44403559,6.26307119 6.35355339,6.35355339 C6.26307119,6.44403559 6.13807119,6.5 6,6.5 L6,6.5 L1,6.5 C0.861928813,6.5 0.736928813,6.44403559 0.646446609,6.35355339 C0.555964406,6.26307119 0.5,6.13807119 0.5,6 L0.5,6 L0.5,1 C0.5,0.861928813 0.555964406,0.736928813 0.646446609,0.646446609 Z" id="形状结合"></path>
        </g>
    </g>
</svg>