<?xml version="1.0" encoding="UTF-8" standalone="no"?>
<svg
   viewBox="0 0 24 24"
   fill="rgba(255,255,255,1)"
   version="1.1"
   id="svg4"
   sodipodi:docname="resources.svg"
   inkscape:version="1.2.2 (b0a8486541, 2022-12-01)"
   xmlns:inkscape="http://www.inkscape.org/namespaces/inkscape"
   xmlns:sodipodi="http://sodipodi.sourceforge.net/DTD/sodipodi-0.dtd"
   xmlns="http://www.w3.org/2000/svg"
   xmlns:svg="http://www.w3.org/2000/svg">
  <defs
     id="defs8" />
  <sodipodi:namedview
     id="namedview6"
     pagecolor="#ffffff"
     bordercolor="#000000"
     borderopacity="0.25"
     inkscape:showpageshadow="2"
     inkscape:pageopacity="0.0"
     inkscape:pagecheckerboard="0"
     inkscape:deskcolor="#d1d1d1"
     showgrid="false"
     inkscape:zoom="8.125"
     inkscape:cx="21.661538"
     inkscape:cy="6.0307692"
     inkscape:window-width="1920"
     inkscape:window-height="958"
     inkscape:window-x="0"
     inkscape:window-y="24"
     inkscape:window-maximized="1"
     inkscape:current-layer="svg4" />
  <path
     d="M6 18H18V6H6V18ZM14 20H10V22H8V20H5C4.44772 20 4 19.5523 4 19V16H2V14H4V10H2V8H4V5C4 4.44772 4.44772 4 5 4H8V2H10V4H14V2H16V4H19C19.5523 4 20 4.44772 20 5V8H22V10H20V14H22V16H20V19C20 19.5523 19.5523 20 19 20H16V22H14V20ZM8 8H16V16H8V8Z"
     id="path2"
     style="fill:#ffffff" />
</svg>
