<?xml version="1.0" encoding="UTF-8"?>
<svg width="24px" height="24px" viewBox="0 0 24 24" version="1.1" xmlns="http://www.w3.org/2000/svg" xmlns:xlink="http://www.w3.org/1999/xlink">
    <title>delete_dark</title>
    <g id="Q4新需求" stroke="none" stroke-width="1" fill="none" fill-rule="evenodd">
        <g id="3多个笔记拖拽_dak" transform="translate(-1380.000000, -617.000000)" fill="#9A2F2F">
            <g id="icon/reply备份-2" transform="translate(1380.000000, 617.000000)">
                <g id="icon/delete_dark">
                    <path d="M8.1798,17.8514167 C8.8608,18.6173333 10.4208,19 11.9802,19 C13.5408,19 15.0996,18.6173333 15.7812,17.8514167 C15.8298,17.61575 18,7.07841667 18,6.83691667 C18,5.39433333 13.5972,5 12,5 C9.0048,5 6,5.7245 6,6.834 C6,7.07083333 8.1336,17.6186667 8.1798,17.8514167 Z M12.0306,8.00241667 C9.504,8.00241667 7.4556,7.56725 7.4556,7.03 C7.4556,6.49275 9.504,6.05758333 12.0306,6.05758333 C14.5572,6.05758333 16.605,6.49275 16.605,7.03 C16.605,7.56725 14.5572,8.00241667 12.0306,8.00241667 Z" id="形状结合"></path>
                </g>
            </g>
        </g>
    </g>
</svg>