<?xml version="1.0" encoding="UTF-8"?>
<svg width="24px" height="24px" viewBox="0 0 24 24" version="1.1" xmlns="http://www.w3.org/2000/svg" xmlns:xlink="http://www.w3.org/1999/xlink">
    <title>icon/txt_dark 2</title>
    <g id="Q4新需求" stroke="none" stroke-width="1" fill="none" fill-rule="evenodd">
        <g id="3多个笔记拖拽_dak" transform="translate(-1174.000000, -617.000000)" fill="#C5CFE0">
            <g id="icon/txt_dark-2" transform="translate(1174.000000, 617.000000)">
                <g id="icon/txt_dark">
                    <path d="M13,5 L13,9.7 C13,9.84201608 13.0986801,9.96098419 13.2312128,9.99207679 L13.3,10 L18,10 L18,18 C18,18.5522847 17.5522847,19 17,19 L7,19 C6.44771525,19 6,18.5522847 6,18 L6,6 C6,5.44771525 6.44771525,5 7,5 L13,5 Z M14,5 L18,9 L14.3,9 C14.1343146,9 14,8.86568542 14,8.7 L14,5 Z" id="形状结合"></path>
                </g>
            </g>
        </g>
    </g>
</svg>