<?xml version="1.0" encoding="UTF-8"?>
<svg width="290px" height="98px" viewBox="0 0 290 98" version="1.1" xmlns="http://www.w3.org/2000/svg" xmlns:xlink="http://www.w3.org/1999/xlink">
    <title>多条笔记_dark</title>
    <defs>
        <path d="M271,45 L271,65 C271,69.418278 267.418278,73 263,73 L39,73 C36.0204722,73 33.4213824,71.3711516 32.0446137,68.9553379 C33.2112069,69.6201985 34.5612498,70 36,70 L36,70 L260,70 C264.418278,70 268,66.418278 268,62 L268,62 L268,42 C268,40.5620792 267.620636,39.2127636 266.956536,38.04668 C269.371937,39.4226362 271,42.0211909 271,45 Z" id="path-1"></path>
        <filter x="-13.8%" y="-77.2%" width="127.6%" height="288.8%" filterUnits="objectBoundingBox" id="filter-2">
            <feOffset dx="0" dy="6" in="SourceAlpha" result="shadowOffsetOuter1"></feOffset>
            <feGaussianBlur stdDeviation="10" in="shadowOffsetOuter1" result="shadowBlurOuter1"></feGaussianBlur>
            <feColorMatrix values="0 0 0 0 0   0 0 0 0 0   0 0 0 0 0  0 0 0 0.2 0" type="matrix" in="shadowBlurOuter1"></feColorMatrix>
        </filter>
    </defs>
    <g id="Q4新需求" stroke="none" stroke-width="1" fill="none" fill-rule="evenodd">
        <g id="3多个笔记拖拽_dak" transform="translate(-815.000000, -702.000000)">
            <g id="多条笔记_light备份-2" transform="translate(815.000000, 702.000000)">
                <g id="形状结合" opacity="0.5">
                    <use fill="black" fill-opacity="1" filter="url(#filter-2)" xlink:href="#path-1"></use>
                    <use fill="#2A2A2A" fill-rule="evenodd" xlink:href="#path-1"></use>
                </g>
                <path d="M266.522056,38.2941219 C267.14459,39.3872193 267.5,40.6521177 267.5,42 L267.496195,62.2413645 C267.432495,64.2585336 266.572119,66.0746938 265.219473,67.3858324 C263.869382,68.6944947 262.028756,69.5 260,69.5 L35.6799194,69.4933014 C34.4511596,69.4417677 33.298802,69.0946196 32.2921878,68.5209336 C31.7794805,68.2287333 31.2980676,67.8740502 30.8604717,67.4601154 C31.0440653,68.0649084 31.2950768,68.6499494 31.6102061,69.2029062 C32.3542726,70.5085184 33.4344216,71.5977533 34.7328919,72.3528334 C35.9870123,73.0821233 37.4446921,73.5 39,73.5 L263,73.5 C265.34721,73.5 267.47221,72.5486051 269.010408,71.0104076 C270.548605,69.4722102 271.5,67.3472102 271.5,65 L271.5,45 C271.5,43.4449402 271.082256,41.9874783 270.35312,40.733624 C269.59828,39.4355676 268.509381,38.3558356 267.204026,37.6122277 C266.651656,37.297565 266.067281,37.0469367 265.463124,36.8634558 C265.876204,37.3008158 266.23032,37.781866 266.522056,38.2941219 Z" id="形状结合" stroke-opacity="0.3" stroke="#000000" fill="#2A2A2A"></path>
                <path d="M268,42 L268,62 C268,66.418278 264.418278,70 260,70 L36,70 C33.0204722,70 30.4213824,68.3711516 29.0446137,65.9553379 C30.2112069,66.6201985 31.5612498,67 33,67 L33,67 L257,67 C261.418278,67 265,63.418278 265,59 L265,59 L265,39 C265,37.5620792 264.620636,36.2127636 263.956536,35.04668 C266.371937,36.4226362 268,39.0211909 268,42 Z" id="形状结合" fill="#2A2A2A" opacity="0.5"></path>
                <path d="M263.522056,35.2941219 C264.14459,36.3872193 264.5,37.6521177 264.5,39 L264.496195,59.2413645 C264.432495,61.2585336 263.572119,63.0746938 262.219473,64.3858324 C260.869382,65.6944947 259.028756,66.5 257,66.5 L32.6799194,66.4933014 C31.4511596,66.4417677 30.298802,66.0946196 29.2921878,65.5209336 C28.7794805,65.2287333 28.2980676,64.8740502 27.8604717,64.4601154 C28.0440653,65.0649084 28.2950768,65.6499494 28.6102061,66.2029062 C29.3542726,67.5085184 30.4344216,68.5977533 31.7328919,69.3528334 C32.9870123,70.0821233 34.4446921,70.5 36,70.5 L260,70.5 C262.34721,70.5 264.47221,69.5486051 266.010408,68.0104076 C267.548605,66.4722102 268.5,64.3472102 268.5,62 L268.5,42 C268.5,40.4449402 268.082256,38.9874783 267.35312,37.733624 C266.59828,36.4355676 265.509381,35.3558356 264.204026,34.6122277 C263.651656,34.297565 263.067281,34.0469367 262.463124,33.8634558 C262.876204,34.3008158 263.23032,34.781866 263.522056,35.2941219 Z" id="形状结合" stroke-opacity="0.3" stroke="#000000" fill="#2A2A2A"></path>
                <rect id="Rectangle" fill="#2A2A2A" opacity="0.5" x="25" y="31" width="240" height="36" rx="8"></rect>
                <rect id="Rectangle" stroke-opacity="0.3" stroke="#000000" fill="#2A2A2A" opacity="0.95" x="24.5" y="30.5" width="241" height="37" rx="8"></rect>
            </g>
        </g>
    </g>
</svg>