<?xml version="1.0" encoding="UTF-8"?>
<svg width="16px" height="14px" viewBox="0 0 16 14" version="1.1" xmlns="http://www.w3.org/2000/svg" xmlns:xlink="http://www.w3.org/1999/xlink">
    <!-- Generator: Sketch 58 (84663) - https://sketch.com -->
    <title>voice3_dark</title>
    <desc>Created with Sketch.</desc>
    <g id="浅色新版本" stroke="none" stroke-width="1" fill="none" fill-rule="evenodd">
        <g id="喇叭切图" transform="translate(-62.000000, -63.000000)" fill="#C0C6D4" fill-rule="nonzero">
            <path d="M74.5,65 C74.7761424,65 75,65.1955259 75,65.4367194 L75,74.5632806 C75,74.8044741 74.7761424,75 74.5,75 C74.2238576,75 74,74.8044741 74,74.5632806 L74,65.4367194 C74,65.1955259 74.2238576,65 74.5,65 Z M70,65.4174322 L70,74.5825678 C70,74.9537161 69.5212703,75.1395879 69.2412859,74.8771464 L67.4740767,73.2206645 C66.9798378,72.7573929 66.3278121,72.4995824 65.6503959,72.4995824 L63.7777778,72.4995824 C62.7959382,72.4995824 62,71.7036442 62,70.7218046 L62,69.2781954 C62,68.2963558 62.7959382,67.5004176 63.7777778,67.5004176 L65.6503959,67.5004176 C66.3278121,67.5004176 66.9798378,67.2426071 67.4740767,66.7793355 L69.2412859,65.1228536 C69.5212703,64.8604121 70,65.0462839 70,65.4174322 Z M72.5,67 C72.7761424,67 73,67.2018294 73,67.4507986 L73,73.5492014 C73,73.7981706 72.7761424,74 72.5,74 C72.2238576,74 72,73.7981706 72,73.5492014 L72,67.4507986 C72,67.2018294 72.2238576,67 72.5,67 Z" id="Combined-Shape"></path>
        </g>
    </g>
</svg>