<?xml version="1.0" encoding="UTF-8"?>
<svg width="28px" height="28px" viewBox="0 0 28 28" version="1.1" xmlns="http://www.w3.org/2000/svg" xmlns:xlink="http://www.w3.org/1999/xlink">
    <!-- Generator: Sketch 58 (84663) - https://sketch.com -->
    <title>ICon/Trojan virus</title>
    <desc>Created with Sketch.</desc>
    <g id="ICon/Trojan-virus" stroke="none" stroke-width="1" fill="none" fill-rule="evenodd">
        <g id="编组-27">
            <rect id="矩形" fill="#FF6969" opacity="0" x="0" y="0" width="28" height="28"></rect>
            <path d="M23.6992638,8.53147778 C23.848327,8.37516715 23.9523089,8.18074071 24,7.96915833 L24,7.82295526 C23.9220314,7.24938941 22.4740424,6.00104021 20.836701,5.25877853 C20.4707479,5.08584857 20.0712111,4.99748231 19.6671715,5.00005459 C18.422595,5.11522989 17.3023469,5.80969912 16.637533,6.87825857 C16.1249713,7.64743584 15.6527956,8.44327802 15.2229592,9.26249307 C15.0558836,9.55489918 14.9110847,9.86979808 14.744009,10.1509578 C14.3579644,10.0336675 13.9548324,9.98421391 13.5522027,10.0047548 L13.0732525,10.0047548 C12.1321131,10.0238859 11.2086747,10.2666164 10.3777654,10.7132773 C10.3598344,10.7201998 10.3400044,10.7201998 10.3220735,10.7132773 C10.1104443,10.7020309 9.58694063,10.6233062 8.9409148,10.6233062 C7.35926531,10.6233062 5.05362135,10.9157123 4.35190362,12.3215109 C4.26610292,12.4847811 4.19166703,12.6538859 4.12913609,12.8275985 C3.85067667,13.5698601 4.07344422,13.9522374 4.31848849,14.1659188 C4.9756527,14.8407021 5.86672285,15.6054566 6.54616381,15.6054566 L6.67982433,15.6054566 C6.92756509,15.5732389 7.13966768,15.4104777 7.23674317,15.1780938 C7.47205025,14.60216 7.85684157,14.1009656 8.35058082,13.7273096 C7.60471089,15.4544483 7.22529,17.3201466 7.23674317,19.2043011 C7.22523337,19.2561409 7.22523337,19.3099107 7.23674317,19.3617506 C6.71319548,19.2393691 6.19640044,19.0892089 5.68850881,18.911895 C5.56007948,18.8647569 5.42415567,18.8418832 5.28752726,18.8444166 C5.0160288,18.847301 4.75183864,18.9336032 4.53011765,19.0918372 C4.2576592,19.2755459 4.09130175,19.5820924 4.08458258,19.9128236 L4.08458258,20.5651142 C4.10849271,20.9984874 4.37725927,21.3792848 4.77516192,21.5435501 C7.69930345,22.568202 10.7806582,23.0594497 13.8752156,22.9943343 C17.0072162,23.0483059 20.1245002,22.5497276 23.0866531,21.5210573 C23.4958669,21.3715189 23.7708008,20.9819835 23.7772325,20.5426214 L23.7772325,19.8903308 C23.7705133,19.5595996 23.6041558,19.2530531 23.3316974,19.0693444 C23.1068647,18.9089211 22.8384549,18.8225112 22.5631494,18.8219239 C22.4267507,18.82233 22.2913242,18.84512 22.1621679,18.8894022 C21.7500479,19.0356053 21.337928,19.1480692 20.9146697,19.2605331 L20.9146697,19.2043011 C20.8836895,18.9768255 20.8650976,18.7478045 20.8589778,18.5182714 C20.8024415,16.4725285 20.2395479,14.4736299 19.2216364,12.7038882 C19.1750807,12.634062 19.1376437,12.5584618 19.1102526,12.4789604 C19.1102526,12.4789604 19.1102526,12.2765254 19.5000958,11.9616265 C19.889939,11.6467276 19.889939,11.6242348 20.0570147,11.5904956 C20.2402413,11.831351 20.3970932,12.0915351 20.5248265,12.3664965 C20.7835526,12.8334984 21.2758697,13.1187855 21.8057398,13.1087582 C21.9742056,13.1061395 22.1420406,13.0873104 22.3069668,13.0525262 C22.9975461,12.872584 23.6992638,12.3102645 23.6992638,11.7029595 C23.6711703,11.3244265 23.6153254,10.948517 23.5321882,10.5783206 C23.3959573,10.1076808 23.3394702,9.61718115 23.3651125,9.1275364 C23.4256901,8.90389224 23.5405377,8.6990274 23.6992638,8.53147778 L23.6992638,8.53147778 Z M14.2840467,19.9997705 C12.8517894,20.0008149 11.420898,19.9242563 10,19.7705563 C10.7950751,18.2084818 12.5297451,17.1446422 14.5175097,17.0000546 C16.4835639,17.1352545 18.2045353,18.1798077 19,19.7207271 C17.4381939,19.9126388 15.8619304,20.0059065 14.2840467,19.9997705 L14.2840467,19.9997705 Z" id="形状" fill="#536076"></path>
        </g>
    </g>
</svg>