<?xml version="1.0" encoding="UTF-8"?>
<svg width="16px" height="16px" viewBox="0 0 16 16" version="1.1" xmlns="http://www.w3.org/2000/svg" xmlns:xlink="http://www.w3.org/1999/xlink">
    <title>icon/multi_</title>
    <g id="icon/multi_" stroke="none" stroke-width="1" fill="none" fill-rule="evenodd">
        <path d="M8,2.5 C9.7447796,2.5 11.3381152,3.32005352 12.3579923,4.64321007 L14,3 L14,7 L10,7 L11.6435211,5.35738512 C10.8135761,4.21398819 9.47276557,3.5 8,3.5 C5.51471863,3.5 3.5,5.51471863 3.5,8 C3.5,10.4852814 5.51471863,12.5 8,12.5 C10.1211786,12.5 11.9417664,11.0205043 12.3938261,8.97668462 C12.4534629,8.70705885 12.720383,8.53682918 12.9900088,8.59646602 C13.2596346,8.65610286 13.4298642,8.92302294 13.3702274,9.19264872 C12.8173866,11.6921129 10.5926978,13.5 8,13.5 C4.96243388,13.5 2.5,11.0375661 2.5,8 C2.5,4.96243388 4.96243388,2.5 8,2.5 Z" id="形状结合" fill="#FFFFFF" fill-rule="nonzero"></path>
    </g>
</svg>