<?xml version="1.0" encoding="UTF-8"?>
<svg width="88px" height="88px" viewBox="0 0 88 88" version="1.1" xmlns="http://www.w3.org/2000/svg" xmlns:xlink="http://www.w3.org/1999/xlink">
    <title>disk/88px/virtual-partition</title>
    <defs>
        <filter x="-18.8%" y="-16.0%" width="137.5%" height="132.0%" filterUnits="objectBoundingBox" id="filter-1">
            <feOffset dx="0" dy="2" in="SourceAlpha" result="shadowOffsetOuter1"></feOffset>
            <feGaussianBlur stdDeviation="2" in="shadowOffsetOuter1" result="shadowBlurOuter1"></feGaussianBlur>
            <feColorMatrix values="0 0 0 0 0   0 0 0 0 0   0 0 0 0 0  0 0 0 0.2 0" type="matrix" in="shadowBlurOuter1" result="shadowMatrixOuter1"></feColorMatrix>
            <feMerge>
                <feMergeNode in="shadowMatrixOuter1"></feMergeNode>
                <feMergeNode in="SourceGraphic"></feMergeNode>
            </feMerge>
        </filter>
        <linearGradient x1="102.549264%" y1="57.6822305%" x2="-2.65228894%" y2="57.6822305%" id="linearGradient-2">
            <stop stop-color="#707070" offset="0%"></stop>
            <stop stop-color="#B5BCBE" offset="4.57146722%"></stop>
            <stop stop-color="#AFB0B0" offset="9.93130604%"></stop>
            <stop stop-color="#828689" offset="88.9446523%"></stop>
            <stop stop-color="#909394" offset="93.7925209%"></stop>
            <stop stop-color="#717476" offset="100%"></stop>
        </linearGradient>
        <linearGradient x1="100%" y1="56.4295561%" x2="0%" y2="56.4295561%" id="linearGradient-3">
            <stop stop-color="#FFFFFF" stop-opacity="0.5" offset="0%"></stop>
            <stop stop-color="#FFFFFF" offset="8.38902143%"></stop>
            <stop stop-color="#FFFFFF" stop-opacity="0.8" offset="52.3560063%"></stop>
            <stop stop-color="#FFFFFF" offset="88.1683526%"></stop>
            <stop stop-color="#FFFFFF" stop-opacity="0.5" offset="100%"></stop>
        </linearGradient>
        <radialGradient cx="48.2392027%" cy="19.1031265%" fx="48.2392027%" fy="19.1031265%" r="78.6539217%" gradientTransform="translate(0.482392,0.191031),scale(0.203125,1.000000),rotate(90.000000),scale(1.000000,3.580713),translate(-0.482392,-0.191031)" id="radialGradient-4">
            <stop stop-color="#7CFFFE" offset="0%"></stop>
            <stop stop-color="#D6CDE6" offset="100%"></stop>
        </radialGradient>
        <linearGradient x1="50%" y1="0%" x2="50%" y2="100%" id="linearGradient-5">
            <stop stop-color="#01C8FF" offset="0%"></stop>
            <stop stop-color="#01C2FF" offset="50.8499801%"></stop>
            <stop stop-color="#1E6AFF" offset="100%"></stop>
        </linearGradient>
    </defs>
    <g id="disk/88px/virtual-partition" stroke="none" stroke-width="1" fill="none" fill-rule="evenodd">
        <g id="Group-2备份" filter="url(#filter-1)" transform="translate(12.000000, 5.000000)">
            <path d="M0,11.2588597 C0,5.04076319 5.03532398,0 11.2578679,0 L52.7421321,0 C58.9596809,0 64,5.04577938 64,11.2588597 L64,69 L3.74101655,69 C1.67491016,69 0,67.3285615 0,65.2412594 L0,11.2588597 Z" id="Rectangle-1" fill="url(#linearGradient-2)"></path>
            <path d="M56.5016863,53.9375 C58.3140981,53.9375 59.9549097,54.6717015 61.1422553,55.8605949 C62.3289624,57.048849 63.0625,58.6911447 63.0625,60.5080885 L63.0625,60.5080885 L63.0625,68.0625 L0.9375,68.0625 L0.9375,60.5080885 C0.9375,58.6928157 1.67097196,57.0493093 2.85873321,55.8599997 C4.04512716,54.6720592 5.68469313,53.9375 7.49831371,53.9375 L7.49831371,53.9375 Z" id="Rectangle-3" stroke-opacity="0.5" stroke="#FFFFFF" stroke-width="1.875" fill="url(#linearGradient-3)"></path>
            <path d="M57.4962836,62.9375 C58.9964203,62.9375 60.3578759,63.5322275 61.3588106,64.4973898 C62.3606188,65.4633944 63.0017585,66.8005229 63.0583921,68.2848001 C63.0560337,69.9142411 62.4439704,71.3538252 61.4442713,72.3893722 C60.4373327,73.4324182 59.0393967,74.0625 57.4962836,74.0625 L57.4962836,74.0625 L6.50371636,74.0625 C4.9674037,74.0625 3.5765632,73.4387226 2.56941585,72.4321508 C1.56140484,71.4247158 0.9375,70.03367 0.9375,68.5 C0.9375,66.9645148 1.56116293,65.5744509 2.56819025,64.567999 C3.57605373,63.5607115 4.96799131,62.9375 6.50371636,62.9375 L6.50371636,62.9375 Z" id="Rectangle-1" stroke-opacity="0.2" stroke="#003D9C" stroke-width="1.875" fill="url(#radialGradient-4)"></path>
            <g id="Group" transform="translate(37.000000, 65.000000)" fill="url(#linearGradient-5)">
                <path d="M20,0.990777969 C20,0.443586406 20.4438648,0 21,0 L21,0 C21.5522847,0 22,0.45097518 22,0.990777969 L22,5.00922203 C22,5.55641359 21.5561352,6 21,6 L21,6 C20.4477153,6 20,5.54902482 20,5.00922203 L20,0.990777969 Z M16,0.990777969 C16,0.443586406 16.4438648,0 17,0 L17,0 C17.5522847,0 18,0.45097518 18,0.990777969 L18,5.00922203 C18,5.55641359 17.5561352,6 17,6 L17,6 C16.4477153,6 16,5.54902482 16,5.00922203 L16,0.990777969 Z M12,0.990777969 C12,0.443586406 12.4438648,0 13,0 L13,0 C13.5522847,0 14,0.45097518 14,0.990777969 L14,5.00922203 C14,5.55641359 13.5561352,6 13,6 L13,6 C12.4477153,6 12,5.54902482 12,5.00922203 L12,0.990777969 Z M8,0.990777969 C8,0.443586406 8.44386482,0 9,0 L9,0 C9.55228475,0 10,0.45097518 10,0.990777969 L10,5.00922203 C10,5.55641359 9.55613518,6 9,6 L9,6 C8.44771525,6 8,5.54902482 8,5.00922203 L8,0.990777969 Z M4,0.990777969 C4,0.443586406 4.44386482,0 5,0 L5,0 C5.55228475,0 6,0.45097518 6,0.990777969 L6,5.00922203 C6,5.55641359 5.55613518,6 5,6 L5,6 C4.44771525,6 4,5.54902482 4,5.00922203 L4,0.990777969 Z M0,0.990777969 C0,0.443586406 0.443864822,0 1,0 L1,0 C1.55228475,0 2,0.45097518 2,0.990777969 L2,5.00922203 C2,5.55641359 1.55613518,6 1,6 L1,6 C0.44771525,6 0,5.54902482 0,5.00922203 L0,0.990777969 Z" id="Combined-Shape"></path>
            </g>
            <path d="M8,65.9375 C8.56954365,65.9375 9.08516865,66.1683532 9.45840774,66.5415923 C9.83164682,66.9148314 10.0625,67.4304564 10.0625,68 C10.0625,68.5695436 9.83164682,69.0851686 9.45840774,69.4584077 C9.08516865,69.8316468 8.56954365,70.0625 8,70.0625 C7.43045635,70.0625 6.91483135,69.8316468 6.54159226,69.4584077 C6.16835318,69.0851686 5.9375,68.5695436 5.9375,68 C5.9375,67.4304564 6.16835318,66.9148314 6.54159226,66.5415923 C6.91483135,66.1683532 7.43045635,65.9375 8,65.9375 Z" id="Oval" stroke="#01B3FF" stroke-width="1.875" fill="#FFFFFF"></path>
        </g>
    </g>
</svg>