<?xml version="1.0" encoding="UTF-8"?>
<svg width="94px" height="90px" viewBox="0 0 94 90" version="1.1" xmlns="http://www.w3.org/2000/svg" xmlns:xlink="http://www.w3.org/1999/xlink">
    <title>无可用分区/dark</title>
    <defs>
        <filter x="-24.4%" y="-25.3%" width="152.4%" height="154.4%" filterUnits="objectBoundingBox" id="filter-1">
            <feOffset dx="0" dy="4" in="SourceAlpha" result="shadowOffsetOuter1"></feOffset>
            <feGaussianBlur stdDeviation="3" in="shadowOffsetOuter1" result="shadowBlurOuter1"></feGaussianBlur>
            <feColorMatrix values="0 0 0 0 0   0 0 0 0 0   0 0 0 0 0  0 0 0 0.2 0" type="matrix" in="shadowBlurOuter1" result="shadowMatrixOuter1"></feColorMatrix>
            <feMerge>
                <feMergeNode in="shadowMatrixOuter1"></feMergeNode>
                <feMergeNode in="SourceGraphic"></feMergeNode>
            </feMerge>
        </filter>
        <linearGradient x1="-2.65228894%" y1="57.6822305%" x2="102.549264%" y2="57.6822305%" id="linearGradient-2">
            <stop stop-color="#858585" offset="0%"></stop>
            <stop stop-color="#ADADAD" offset="11.790442%"></stop>
            <stop stop-color="#707070" offset="90.2994436%"></stop>
            <stop stop-color="#636363" offset="100%"></stop>
        </linearGradient>
        <linearGradient x1="100%" y1="56.4295561%" x2="0%" y2="56.4295561%" id="linearGradient-3">
            <stop stop-color="#FFFFFF" stop-opacity="0" offset="0%"></stop>
            <stop stop-color="#FFFFFF" stop-opacity="0.455313729" offset="7.96398446%"></stop>
            <stop stop-color="#FFFFFF" stop-opacity="0.6" offset="52.3560063%"></stop>
            <stop stop-color="#FFFFFF" stop-opacity="0.495987899" offset="89.7082814%"></stop>
            <stop stop-color="#ECECEC" stop-opacity="0.0786388904" offset="100%"></stop>
        </linearGradient>
        <linearGradient x1="91.5188572%" y1="50%" x2="6.30591606%" y2="50%" id="linearGradient-4">
            <stop stop-color="#626262" offset="0%"></stop>
            <stop stop-color="#888888" offset="100%"></stop>
        </linearGradient>
        <filter x="-10.0%" y="-10.0%" width="120.0%" height="120.0%" filterUnits="objectBoundingBox" id="filter-5">
            <feOffset dx="0" dy="0" in="SourceAlpha" result="shadowOffsetOuter1"></feOffset>
            <feGaussianBlur stdDeviation="1" in="shadowOffsetOuter1" result="shadowBlurOuter1"></feGaussianBlur>
            <feColorMatrix values="0 0 0 0 0   0 0 0 0 0   0 0 0 0 0  0 0 0 0.2 0" type="matrix" in="shadowBlurOuter1" result="shadowMatrixOuter1"></feColorMatrix>
            <feMerge>
                <feMergeNode in="shadowMatrixOuter1"></feMergeNode>
                <feMergeNode in="SourceGraphic"></feMergeNode>
            </feMerge>
        </filter>
        <linearGradient x1="50%" y1="0%" x2="50%" y2="100%" id="linearGradient-6">
            <stop stop-color="#CDCDCD" offset="0%"></stop>
            <stop stop-color="#909090" offset="100%"></stop>
        </linearGradient>
        <linearGradient x1="43.5062061%" y1="20.4075304%" x2="127.530776%" y2="138.284289%" id="linearGradient-7">
            <stop stop-color="#FFFFFF" stop-opacity="0.198003169" offset="0%"></stop>
            <stop stop-color="#000000" stop-opacity="0.1" offset="100%"></stop>
        </linearGradient>
    </defs>
    <g id="无可用分区/dark" stroke="none" stroke-width="1" fill="none" fill-rule="evenodd">
        <g id="无可用分区" transform="translate(6.000000, 4.000000)" filter="url(#filter-1)">
            <g id="Group-2">
                <path d="M0,10.4943626 C0,4.69848617 4.70809937,0 10.5026816,0 L49.4973184,0 C55.2977893,0 60,4.6936473 60,10.4943626 L60,66 L0,66 L0,10.4943626 Z" id="Rectangle-1" fill="url(#linearGradient-2)"></path>
                <path d="M0,57.9949688 C0,54.1317542 3.14138263,51 7.00018913,51 L52.9998109,51 C56.8659086,51 60,54.1262329 60,57.9949688 L60,65.1287012 C60,65.6099062 59.6168518,66 59.1286926,66 L0.87130744,66 C0.390097629,66 0,65.5987862 0,65.1287012 L0,57.9949688 Z" id="Rectangle-3" fill="url(#linearGradient-3)"></path>
                <path d="M0,66 C0,62.6862915 2.69463714,60 6.0000383,60 L53.9999617,60 C57.3136914,60 60,62.6930342 60,66 L60,66 C60,69.3137085 57.3053629,72 53.9999617,72 L6.0000383,72 C2.68630865,72 0,69.3069658 0,66 L0,66 Z" id="Rectangle-1" fill="url(#linearGradient-4)"></path>
                <rect id="矩形" fill="#505050" x="29" y="63" width="2" height="6" rx="1"></rect>
                <rect id="矩形" fill="#505050" x="33" y="63" width="2" height="6" rx="1"></rect>
                <rect id="矩形" fill="#505050" x="37" y="63" width="2" height="6" rx="1"></rect>
                <rect id="矩形" fill="#505050" x="41" y="63" width="2" height="6" rx="1"></rect>
                <path d="M9,68 C10.1045695,68 11,67.1045695 11,66 C11,64.8954305 10.1045695,64 9,64 C7.8954305,64 7,64.8954305 7,66 C7,67.1045695 7.8954305,68 9,68 Z" id="Oval" fill="#424242"></path>
            </g>
            <g id="icon/info" filter="url(#filter-5)" transform="translate(42.000000, 39.000000)" fill-rule="nonzero">
                <path d="M19.9814286,0.5 C25.3710922,0.5 30.2505849,2.68298591 33.7827579,6.21188208 C37.3151049,9.74095212 39.5,14.6160863 39.5,20 C39.5,25.3839137 37.3151049,30.2590479 33.7827579,33.7881179 C30.2505849,37.3170141 25.3710922,39.5 19.9814286,39.5 C14.601419,39.5 9.73153364,37.3172972 6.20643713,33.7889244 C2.68052197,30.2597321 0.5,25.384262 0.5,20 C0.5,14.6157381 2.68052199,9.74026793 6.20643716,6.21107565 C9.73153368,2.68270279 14.6014191,0.5 19.9814286,0.5 Z" id="info-b" stroke="url(#linearGradient-7)" fill="url(#linearGradient-6)"></path>
                <path d="M20,10 C21.1045695,10 22,10.8954305 22,12 L22,20 C22,21.1045695 21.1045695,22 20,22 C18.8954305,22 18,21.1045695 18,20 L18,12 C18,10.8954305 18.8954305,10 20,10 Z M20,26 C21.1045695,26 22,26.8954305 22,28 C22,29.1045695 21.1045695,30 20,30 C18.8954305,30 18,29.1045695 18,28 C18,26.8954305 18.8954305,26 20,26 Z" id="形状" fill="#FFFFFF" opacity="0.7" transform="translate(20.000000, 20.000000) scale(-1, 1) rotate(-180.000000) translate(-20.000000, -20.000000) "></path>
            </g>
        </g>
    </g>
</svg>