<?xml version="1.0" encoding="UTF-8"?>
<svg width="16px" height="16px" viewBox="0 0 16 16" version="1.1" xmlns="http://www.w3.org/2000/svg" xmlns:xlink="http://www.w3.org/1999/xlink">
    <title>refresh-dark</title>
    <g id="refresh-dark" stroke="none" stroke-width="1" fill="none" fill-rule="evenodd" fill-opacity="0.7">
        <g id="图标/单色图标/动作/Redo" transform="translate(1.5, 1.5)" fill="#FFFFFF" fill-rule="nonzero">
            <path d="M6.5,0 C8.26057212,0 9.89995317,0.705897141 11.0971362,1.90393336 L12.5,0.5 L12.5,4.5 L8.5,4.5 L10.3900122,2.61102015 C9.37687749,1.59703036 7.99003685,1 6.5,1 C3.46243388,1 1,3.46243388 1,6.5 C1,9.53756612 3.46243388,12 6.5,12 C9.53756612,12 12,9.53756612 12,6.5 L13,6.5 C13,10.0898509 10.0898509,13 6.5,13 C2.91014913,13 0,10.0898509 0,6.5 C0,2.91014913 2.91014913,0 6.5,0 Z" id="形状结合"></path>
        </g>
    </g>
</svg>