<?xml version="1.0" encoding="UTF-8"?>
<svg width="14px" height="15px" viewBox="0 0 14 15" version="1.1" xmlns="http://www.w3.org/2000/svg" xmlns:xlink="http://www.w3.org/1999/xlink">
    <!-- Generator: Sketch 58 (84663) - https://sketch.com -->
    <title>uninstall_dark</title>
    <desc>Created with Sketch.</desc>
    <g id="组件" stroke="none" stroke-width="1" fill="none" fill-rule="evenodd">
        <g id="button/uninstall_dark" transform="translate(-11.000000, -10.000000)" fill="#C5CFE0">
            <path d="M23.25,16.0442286 L23.25,23.2386731 C23.25,24.0977827 22.5535541,24.7942286 21.6944444,24.7942286 L14.3055556,24.7942286 C13.4464459,24.7942286 12.75,24.0977827 12.75,23.2386731 L12.75,16.0442286 L23.25,16.0442286 Z M15.8786797,18.2979083 C15.7566408,18.4199471 15.7392067,18.606979 15.8263773,18.7475873 L15.8786797,18.813507 L17.4772124,20.4116862 L15.9376052,21.9512933 C15.7911586,22.0977399 15.7911586,22.3351768 15.9376052,22.4816234 C16.0631309,22.6071491 16.2555065,22.6250813 16.4001322,22.5354201 L16.4679353,22.4816234 L18.0075425,20.9420162 L19.6057216,22.540549 C19.7481003,22.6829276 19.9789417,22.6829276 20.1213203,22.540549 C20.2433592,22.4185101 20.2607933,22.2314783 20.1736227,22.09087 L20.1213203,22.0249503 L18.5230233,20.4265354 L20.0623948,18.8871639 C20.2088414,18.7407173 20.2088414,18.5032805 20.0623948,18.3568339 C19.9368691,18.2313082 19.7444935,18.213376 19.5998678,18.3030371 L19.5320647,18.3568339 L17.9926932,19.8962053 L16.3942784,18.2979083 C16.2518997,18.1555296 16.0210583,18.1555296 15.8786797,18.2979083 Z M24.25,13.4192286 C24.6642136,13.4192286 25,13.7550151 25,14.1692286 C25,14.5834422 24.6642136,14.9192286 24.25,14.9192286 L11.75,14.9192286 C11.3357864,14.9192286 11,14.5834422 11,14.1692286 C11,13.7550151 11.3357864,13.4192286 11.75,13.4192286 L24.25,13.4192286 Z M20.75,10.7942286 C21.1642136,10.7942286 21.5,11.1300151 21.5,11.5442286 C21.5,11.9584422 21.1642136,12.2942286 20.75,12.2942286 L15.25,12.2942286 C14.8357864,12.2942286 14.5,11.9584422 14.5,11.5442286 C14.5,11.1300151 14.8357864,10.7942286 15.25,10.7942286 L20.75,10.7942286 Z" id="uninstall_dark"></path>
        </g>
    </g>
</svg>