<?xml version="1.0" encoding="UTF-8"?>
<svg width="40px" height="40px" viewBox="0 0 40 40" version="1.1" xmlns="http://www.w3.org/2000/svg" xmlns:xlink="http://www.w3.org/1999/xlink">
    <title>关闭闪光灯-press</title>
    <g id="关闭闪光灯-press" stroke="none" stroke-width="1" fill="none" fill-rule="evenodd">
        <path d="M15.533,16.155 L20.53,24.811 L15.8109585,30.5654046 C15.4606814,30.9923992 14.8305781,31.0545909 14.4035836,30.7043137 C14.0780195,30.4372432 13.954643,29.9948412 14.0950095,29.5978325 L16.781,22 L15,22 C14.4477153,22 14,21.5522847 14,21 C14,20.8943143 14.0167536,20.7892967 14.0496369,20.6888569 L15.533,16.155 Z M24.7338492,10 C25.2861339,10 25.7338492,10.4477153 25.7338492,11 C25.7338492,11.1980397 25.675047,11.3916202 25.5648972,11.5562007 L21.921,17 L24.8253348,17 C25.3776196,17 25.8253348,17.4477153 25.8253348,18 C25.8253348,18.2312841 25.7451648,18.4554175 25.5984769,18.6342329 L22.699,22.168 L16.87,12.072 L17.3235765,10.6888569 C17.4581155,10.2779177 17.8415374,10 18.2739396,10 L24.7338492,10 Z" id="形状结合" fill="#0081FF" fill-rule="nonzero"></path>
        <path d="M19.6,9 C19.9313708,9 20.2,9.26862915 20.2,9.6 L20.2,30.4 C20.2,30.7313708 19.9313708,31 19.6,31 C19.2686292,31 19,30.7313708 19,30.4 L19,9.6 C19,9.26862915 19.2686292,9 19.6,9 Z" id="矩形" fill="#0081FF" fill-rule="nonzero" transform="translate(19.600000, 20.000000) rotate(-30.000000) translate(-19.600000, -20.000000) "></path>
    </g>
</svg>