<?xml version="1.0" encoding="UTF-8"?>
<svg width="40px" height="40px" viewBox="0 0 40 40" version="1.1" xmlns="http://www.w3.org/2000/svg" xmlns:xlink="http://www.w3.org/1999/xlink">
    <title>倒计时-hover</title>
    <g id="倒计时-hover" stroke="none" stroke-width="1" fill="none" fill-rule="evenodd">
        <path d="M19.4839678,10 C19.2145597,9.99058048 19,9.77034679 19,9.5 C19,9.22385763 19.2238576,9 19.5,9 L19.483,9.002 L19.4839678,9 L20.0423307,9 L20,9 C26.0751322,9 31,13.9248678 31,20 C31,26.0751322 26.0751322,31 20,31 C13.9248678,31 9,26.0751322 9,20 C9,19.2903311 9.06720393,18.5963585 9.19559491,17.9240991 C9.23330306,17.6864139 9.4397052,17.5045915 9.68857425,17.5045915 C9.96471663,17.5045915 10.1885743,17.7284491 10.1885743,18.0045915 C10.1885743,18.0385227 10.1851943,18.0716645 10.1787528,18.1036986 L10.1796844,18.1030478 C10.0617474,18.7172381 10,19.3514081 10,20 C10,25.5228475 14.4771525,30 20,30 C25.5228475,30 30,25.5228475 30,20 C30,14.4771525 25.5228475,10 20,10 L19.4839678,10 Z" id="形状结合" fill="#FFFFFF" fill-rule="nonzero"></path>
        <path d="M20,11 C24.9705627,11 29,15.0294373 29,20 C29,24.9705627 24.9705627,29 20,29 C15.0294373,29 11,24.9705627 11,20 C11,15.0294373 15.0294373,11 20,11 Z M15.450156,14.1391765 L18.3103823,20.9085523 C18.3515001,21.0058669 18.4027836,21.0985654 18.4633789,21.1851045 C18.9385452,21.8637123 19.8738639,22.0286342 20.5524716,21.553468 L20.5524716,21.553468 L20.6722163,21.4696219 C20.7587554,21.4090265 20.8386509,21.3394584 20.9105725,21.2620756 C21.4745557,20.6552688 21.4398403,19.7061561 20.8330335,19.1421729 L20.8330335,19.1421729 L15.450156,14.1391765 Z" id="形状结合" fill="#FFFFFF"></path>
        <path d="M15.30219,11.0128234 C15.6887894,11.0128234 16.00219,10.6994227 16.00219,10.3128234 C16.00219,9.92622404 15.6887894,9.61282337 15.30219,9.61282337 C14.9155907,9.61282337 14.60219,9.92622404 14.60219,10.3128234 C14.60219,10.6994227 14.9155907,11.0128234 15.30219,11.0128234 Z" id="椭圆形" fill="#FFFFFF" fill-rule="nonzero"></path>
        <path d="M11.7071888,14.002334 C12.0937881,14.002334 12.4071888,13.6889334 12.4071888,13.302334 C12.4071888,12.9157347 12.0937881,12.602334 11.7071888,12.602334 C11.3205894,12.602334 11.0071888,12.9157347 11.0071888,13.302334 C11.0071888,13.6889334 11.3205894,14.002334 11.7071888,14.002334 Z" id="椭圆形备份" fill="#FFFFFF" fill-rule="nonzero"></path>
    </g>
</svg>