<?xml version="1.0" encoding="UTF-8"?>
<svg width="40px" height="40px" viewBox="0 0 40 40" version="1.1" xmlns="http://www.w3.org/2000/svg" xmlns:xlink="http://www.w3.org/1999/xlink">
    <title>倒计时3s -press</title>
    <g id="倒计时3s--press" stroke="none" stroke-width="1" fill="none" fill-rule="evenodd">
        <path d="M20,9 C26.0751322,9 31,13.9248678 31,20 C31,26.0751322 26.0751322,31 20,31 C13.9248678,31 9,26.0751322 9,20 C9,19.2903311 9.06720393,18.5963585 9.19559491,17.9240991 C9.23330306,17.6864139 9.4397052,17.5045915 9.68857425,17.5045915 C9.96471663,17.5045915 10.1885743,17.7284491 10.1885743,18.0045915 C10.1885743,18.0385227 10.1851943,18.0716645 10.1787528,18.1036986 L10.1796844,18.1030478 C10.0617474,18.7172381 10,19.3514081 10,20 C10,25.5228475 14.4771525,30 20,30 C25.5228475,30 30,25.5228475 30,20 C30,14.4771525 25.5228475,10 20,10 L19.4839678,10 C19.2145597,9.99058048 19,9.77034679 19,9.5 C19,9.25454011 19.1768752,9.05039163 19.4101244,9.00805567 L19.483,9.002 L19.4839678,9 L20,9 Z M20,11 C24.9705627,11 29,15.0294373 29,20 C29,24.9705627 24.9705627,29 20,29 C15.0294373,29 11,24.9705627 11,20 C11,15.0294373 15.0294373,11 20,11 Z M19.706,14.78 C18.516,14.78 17.564,15.298 16.752,16.04 L17.592,17.048 C18.18,16.46 18.852,16.068 19.65,16.068 C20.63,16.068 21.232,16.614 21.232,17.51 C21.232,18.476 20.56,19.218 18.53,19.218 L18.53,20.408 C20.854,20.408 21.582,21.122 21.582,22.228 C21.582,23.236 20.784,23.866 19.622,23.866 C18.558,23.866 17.788,23.348 17.186,22.732 L16.402,23.768 C17.088,24.538 18.138,25.182 19.762,25.182 C21.652,25.182 23.206,24.118 23.206,22.312 C23.206,20.954 22.268,20.086 21.078,19.792 L21.078,19.722 C22.17,19.316 22.856,18.546 22.856,17.384 C22.856,15.732 21.554,14.78 19.706,14.78 Z M11.7071888,12.602334 C12.0937881,12.602334 12.4071888,12.9157347 12.4071888,13.302334 C12.4071888,13.6889334 12.0937881,14.002334 11.7071888,14.002334 C11.3205894,14.002334 11.0071888,13.6889334 11.0071888,13.302334 C11.0071888,12.9157347 11.3205894,12.602334 11.7071888,12.602334 Z M15.30219,9.61282337 C15.6887894,9.61282337 16.00219,9.92622404 16.00219,10.3128234 C16.00219,10.6994227 15.6887894,11.0128234 15.30219,11.0128234 C14.9155907,11.0128234 14.60219,10.6994227 14.60219,10.3128234 C14.60219,9.92622404 14.9155907,9.61282337 15.30219,9.61282337 Z" id="形状结合" fill="#0081FF" fill-rule="nonzero"></path>
    </g>
</svg>