<?xml version="1.0" encoding="UTF-8"?>
<svg width="40px" height="40px" viewBox="0 0 40 40" version="1.1" xmlns="http://www.w3.org/2000/svg" xmlns:xlink="http://www.w3.org/1999/xlink">
    <title>倒计时6S-press</title>
    <g id="倒计时6S-press" stroke="none" stroke-width="1" fill="none" fill-rule="evenodd">
        <path d="M20,9 C26.0751322,9 31,13.9248678 31,20 C31,26.0751322 26.0751322,31 20,31 C13.9248678,31 9,26.0751322 9,20 C9,19.2903311 9.06720393,18.5963585 9.19559491,17.9240991 C9.23330306,17.6864139 9.4397052,17.5045915 9.68857425,17.5045915 C9.96471663,17.5045915 10.1885743,17.7284491 10.1885743,18.0045915 C10.1885743,18.0385227 10.1851943,18.0716645 10.1787528,18.1036986 L10.1796844,18.1030478 C10.0617474,18.7172381 10,19.3514081 10,20 C10,25.5228475 14.4771525,30 20,30 C25.5228475,30 30,25.5228475 30,20 C30,14.4771525 25.5228475,10 20,10 L19.4839678,10 C19.2145597,9.99058048 19,9.77034679 19,9.5 C19,9.25454011 19.1768752,9.05039163 19.4101244,9.00805567 L19.483,9.002 L19.4839678,9 L20,9 Z M20,11 C24.9705627,11 29,15.0294373 29,20 C29,24.9705627 24.9705627,29 20,29 C15.0294373,29 11,24.9705627 11,20 C11,15.0294373 15.0294373,11 20,11 Z M20.42,14.6080738 C18.376,14.6080738 16.528,16.2040738 16.528,20.1520738 C16.528,23.4560738 18.124,25.0100738 20.084,25.0100738 C21.764,25.0100738 23.164,23.7220738 23.164,21.7480738 C23.164,19.6760738 21.988,18.6540738 20.266,18.6540738 C19.524,18.6540738 18.628,19.1160738 18.026,19.8580738 C18.096,16.9180738 19.188,15.9380738 20.49,15.9380738 C21.106,15.9380738 21.736,16.2460738 22.114,16.6940738 L22.996,15.7140738 C22.408,15.0980738 21.568,14.6080738 20.42,14.6080738 Z M19.972,19.8300738 C21.064,19.8300738 21.68,20.5160738 21.68,21.7480738 C21.68,23.0220738 20.966,23.7780738 20.07,23.7780738 C18.978,23.7780738 18.236,22.9100738 18.068,21.0480738 C18.684,20.1520738 19.398,19.8300738 19.972,19.8300738 Z M11.7071888,12.602334 C12.0937881,12.602334 12.4071888,12.9157347 12.4071888,13.302334 C12.4071888,13.6889334 12.0937881,14.002334 11.7071888,14.002334 C11.3205894,14.002334 11.0071888,13.6889334 11.0071888,13.302334 C11.0071888,12.9157347 11.3205894,12.602334 11.7071888,12.602334 Z M15.30219,9.61282337 C15.6887894,9.61282337 16.00219,9.92622404 16.00219,10.3128234 C16.00219,10.6994227 15.6887894,11.0128234 15.30219,11.0128234 C14.9155907,11.0128234 14.60219,10.6994227 14.60219,10.3128234 C14.60219,9.92622404 14.9155907,9.61282337 15.30219,9.61282337 Z" id="形状结合" fill="#0081FF" fill-rule="nonzero"></path>
    </g>
</svg>