<?xml version="1.0" encoding="UTF-8"?>
<svg width="40px" height="40px" viewBox="0 0 40 40" version="1.1" xmlns="http://www.w3.org/2000/svg" xmlns:xlink="http://www.w3.org/1999/xlink">
    <title>倒计时</title>
    <g id="倒计时" stroke="none" stroke-width="1" fill="none" fill-rule="evenodd">
        <path d="M19.4839678,10 C19.2145597,9.99058048 19,9.77034679 19,9.5 C19,9.22385763 19.2238576,9 19.5,9 L19.483,9.002 L19.4839678,9 L20.0423307,9 L20,9 C26.0751322,9 31,13.9248678 31,20 C31,26.0751322 26.0751322,31 20,31 C13.9248678,31 9,26.0751322 9,20 C9,19.2903311 9.06720393,18.5963585 9.19559491,17.9240991 C9.23330306,17.6864139 9.4397052,17.5045915 9.68857425,17.5045915 C9.96471663,17.5045915 10.1885743,17.7284491 10.1885743,18.0045915 C10.1885743,18.0385227 10.1851943,18.0716645 10.1787528,18.1036986 L10.1796844,18.1030478 C10.0617474,18.7172381 10,19.3514081 10,20 C10,25.5228475 14.4771525,30 20,30 C25.5228475,30 30,25.5228475 30,20 C30,14.4771525 25.5228475,10 20,10 L19.4839678,10 Z" id="形状结合" fill="#FFFFFF" fill-rule="nonzero"></path>
        <path d="M15.30219,11.0128234 C15.6887894,11.0128234 16.00219,10.6994227 16.00219,10.3128234 C16.00219,9.92622404 15.6887894,9.61282337 15.30219,9.61282337 C14.9155907,9.61282337 14.60219,9.92622404 14.60219,10.3128234 C14.60219,10.6994227 14.9155907,11.0128234 15.30219,11.0128234 Z" id="椭圆形" fill="#FFFFFF" fill-rule="nonzero"></path>
        <path d="M11.7071888,14.002334 C12.0937881,14.002334 12.4071888,13.6889334 12.4071888,13.302334 C12.4071888,12.9157347 12.0937881,12.602334 11.7071888,12.602334 C11.3205894,12.602334 11.0071888,12.9157347 11.0071888,13.302334 C11.0071888,13.6889334 11.3205894,14.002334 11.7071888,14.002334 Z" id="椭圆形备份" fill="#FFFFFF" fill-rule="nonzero"></path>
        <path d="M18.25,14.0669873 L19.605093,20.3907546 C19.7654638,21.1391518 19.2887743,21.8758538 18.5403771,22.0362246 C18.4449381,22.0566759 18.3476056,22.0669873 18.25,22.0669873 C17.4846131,22.0669873 16.8641444,21.4465186 16.8641444,20.6811317 C16.8641444,20.5835261 16.8744558,20.4861936 16.894907,20.3907546 L18.25,14.0669873 L18.25,14.0669873 Z" id="矩形" fill="#FFFFFF" transform="translate(18.250000, 18.066987) rotate(-35.000000) translate(-18.250000, -18.066987) "></path>
    </g>
</svg>