<?xml version="1.0" encoding="UTF-8"?>
<svg width="40px" height="40px" viewBox="0 0 40 40" version="1.1" xmlns="http://www.w3.org/2000/svg" xmlns:xlink="http://www.w3.org/1999/xlink">
    <title>滤镜-normal</title>
    <g id="滤镜-normal" stroke="none" stroke-width="1" fill="none" fill-rule="evenodd">
        <path d="M20.0126738,10 C23.3263823,10 26.0126738,12.6862915 26.0126738,16 C26.0126738,16.7807336 25.8635557,17.5266388 25.5922471,18.2107881 C26.072947,18.3423912 26.5452757,18.5379874 26.9977241,18.7992086 C29.8674798,20.4560629 30.8507307,24.1256053 29.1938765,26.995361 C27.5370222,29.8651168 23.8674798,30.8483677 20.9977241,29.1915134 C20.6329649,28.9809196 20.2986833,28.7378097 19.9964267,28.4679588 C19.6965911,28.7376544 19.3638783,28.9793426 19.0010018,29.1888495 C16.1312461,30.8457037 12.4617036,29.8624528 10.8048494,26.992697 C9.14799515,24.1229413 10.1312461,20.4533989 13.0010018,18.7965446 C13.460579,18.5312076 13.940668,18.3335798 14.4297173,18.2005663 C14.1602661,17.5189861 14.0126738,16.7767291 14.0126738,16 C14.0126738,12.6862915 16.6989653,10 20.0126738,10 Z M20.0126738,11 C17.2512501,11 15.0126738,13.2385763 15.0126738,16 C15.0126738,16.717936 15.1639872,17.4005309 15.4364625,18.0176333 C17.0319348,17.8683877 18.6376557,18.3651841 19.8707684,19.4052667 C19.9182444,19.4430021 19.9587523,19.4895954 19.990431,19.5444645 C20.1285022,19.7836108 20.0465646,20.089406 19.8074183,20.2274772 C19.6163543,20.337788 19.3827478,20.3076655 19.2261221,20.1691359 L19.2254045,20.1694988 C17.6605918,18.8499244 15.3759559,18.5800648 13.5010018,19.66257 C11.1095387,21.0432819 10.2901629,24.1012339 11.6708748,26.492697 C13.0515867,28.8841601 16.1095387,29.7035359 18.5010018,28.322824 C18.7950433,28.1530591 19.0653181,27.957938 19.3106591,27.7418171 C18.2342779,26.3961455 17.7857852,24.6377032 18.0900096,22.93776 C18.0989513,22.8777769 18.1190484,22.8193994 18.1507271,22.7645303 C18.2887983,22.525384 18.5945935,22.4434464 18.8337398,22.5815176 C19.0248038,22.6918284 19.1155202,22.9091989 19.0738628,23.1141055 L19.0745359,23.1145455 C18.7141573,25.1295002 19.62277,27.2429828 21.4977241,28.325488 C23.8891872,29.7061999 26.9471392,28.8868241 28.3278511,26.495361 C29.7085629,24.1038979 28.8891872,21.0459459 26.4977241,19.665234 C26.0982371,19.4345901 25.680152,19.2653391 25.2543937,19.1545535 L25.1343547,19.1270922 C24.4279975,20.2815245 23.3422886,21.1786354 22.0506217,21.6450313 C21.9942039,21.6672791 21.9335989,21.6790633 21.8702416,21.6790633 C21.5940992,21.6790633 21.3702416,21.4552056 21.3702416,21.1790633 C21.3702416,20.989959 21.4752221,20.8253742 21.6300828,20.7404091 L21.7114592,20.7040138 C23.6366506,20.0086334 25.0126738,18.1650104 25.0126738,16 C25.0126738,13.2385763 22.7740976,11 20.0126738,11 Z" id="形状结合" fill="#FFFFFF" fill-rule="nonzero"></path>
    </g>
</svg>