<?xml version="1.0" encoding="UTF-8"?>
<svg width="40px" height="40px" viewBox="0 0 40 40" version="1.1" xmlns="http://www.w3.org/2000/svg" xmlns:xlink="http://www.w3.org/1999/xlink">
    <title>切换摄像头</title>
    <g id="切换摄像头" stroke="none" stroke-width="1" fill="none" fill-rule="evenodd">
        <path d="M24.1455041,10.5 C24.3458213,10.5 24.5364708,10.5597777 24.6966914,10.6656185 C24.856912,10.7714592 24.9867036,10.9233629 25.0652924,11.1075851 L25.0652924,11.1075851 L26.0916692,13.5139749 L30.034702,13.5142743 C30.4489156,13.5142743 30.8239156,13.6821676 31.0953622,13.9536142 C31.3668088,14.2250608 31.534702,14.6000608 31.534702,15.0142743 L31.534702,15.0142743 L31.534702,27.0114374 C31.534702,27.425651 31.3668088,27.800651 31.0953622,28.0720976 C30.8239156,28.3435442 30.4489156,28.5114374 30.034702,28.5114374 L30.034702,28.5114374 L10,28.5114374 C9.58578644,28.5114374 9.21078644,28.3435442 8.93933983,28.0720976 C8.66789322,27.800651 8.5,27.425651 8.5,27.0114374 L8.5,27.0114374 L8.5,15.0142743 C8.5,14.6000608 8.66789322,14.2250608 8.93933983,13.9536142 C9.21078644,13.6821676 9.58578644,13.5142743 10.0000391,13.5142743 L10.0000391,13.5142743 L13.8449701,13.5139736 L14.8124277,11.1250102 C14.88883,10.9361326 15.0187147,10.77988 15.1804351,10.6708469 C15.3421554,10.5618137 15.5357115,10.5 15.7394566,10.5 L15.7394566,10.5 Z" id="形状结合" stroke="#FFFFFF" fill-rule="nonzero"></path>
        <path d="M19.9630992,15 C21.9059532,15 23.6135209,16.0073802 24.5919643,17.5283026 L25.6499879,16.9881683 L25.2112489,20 L22.5167415,18.584637 L23.6944466,17.9838248 C22.8857482,16.7869195 21.5163211,16 19.9630992,16 C18.1084914,16 16.5159254,17.1219344 15.8270844,18.7241198 C15.7517664,18.9053679 15.5730854,19.0329676 15.3646018,19.0329676 C15.0884594,19.0329676 14.8646018,18.8091099 14.8646018,18.5329676 C14.8646018,18.4700291 14.8762307,18.4098068 14.897457,18.3543319 L14.8974402,18.3541377 C15.7335729,16.382774 17.6868539,15 19.9630992,15 Z" id="形状结合" fill="#FFFFFF"></path>
        <path d="M19.6853227,21 C21.6281767,21 23.3357444,22.0073802 24.3141878,23.5283026 L25.3722114,22.9881683 L24.9334724,26 L22.2389651,24.584637 L23.4166702,23.9838248 C22.6079717,22.7869195 21.2385447,22 19.6853227,22 C17.8307149,22 16.2381489,23.1219344 15.5493079,24.7241198 C15.47399,24.9053679 15.2953089,25.0329676 15.0868253,25.0329676 C14.810683,25.0329676 14.5868253,24.8091099 14.5868253,24.5329676 C14.5868253,24.4700291 14.5984542,24.4098068 14.6196805,24.3543319 L14.6196637,24.3541377 C15.4557964,22.382774 17.4090775,21 19.6853227,21 Z" id="形状结合备份" fill="#FFFFFF" transform="translate(19.979518, 23.500000) rotate(-180.000000) translate(-19.979518, -23.500000) "></path>
    </g>
</svg>