<?xml version="1.0" encoding="UTF-8"?>
<svg width="40px" height="40px" viewBox="0 0 40 40" version="1.1" xmlns="http://www.w3.org/2000/svg" xmlns:xlink="http://www.w3.org/1999/xlink">
    <title>切换摄像头-press</title>
    <g id="切换摄像头-press" stroke="none" stroke-width="1" fill="none" fill-rule="evenodd">
        <path d="M24.1455041,10 C24.7464557,10 25.2894011,10.3586664 25.5252056,10.9114223 L26.422,13.014 L30.034702,13.0142743 C31.1392715,13.0142743 32.034702,13.9097048 32.034702,15.0142743 L32.034702,27.0114374 C32.034702,28.1160069 31.1392715,29.0114374 30.034702,29.0114374 L10,29.0114374 C8.8954305,29.0114374 8,28.1160069 8,27.0114374 L8,15.0142743 C8,13.9097048 8.8954305,13.0142743 10,13.0142743 L13.508,13.014 L14.3489132,10.9375153 C14.5781202,10.3708824 15.1282212,10 15.7394566,10 L24.1455041,10 Z M15.0255643,21 L14.5868253,24.0118317 L15.6448489,23.4716974 C16.6232923,24.9926198 18.33086,26 20.273714,26 C22.5499593,26 24.5032403,24.617226 25.339373,22.6458623 L25.339373,22.6458623 L25.3573081,22.588686 C25.367043,22.5497432 25.3722114,22.5089914 25.3722114,22.4670324 C25.3722114,22.1908901 25.1483538,21.9670324 24.8722114,21.9670324 C24.6637279,21.9670324 24.4850468,22.0946321 24.4097288,22.2758802 C23.7208879,23.8780656 22.1283218,25 20.273714,25 C18.7204921,25 17.351065,24.2130805 16.5423666,23.0161752 L16.5423666,23.0161752 L17.7200717,22.415363 L15.0255643,21 Z M19.9630992,15 C17.6868539,15 15.7335729,16.382774 14.8974402,18.3541377 L14.8974402,18.3541377 L14.8795051,18.411314 C14.8697702,18.4502568 14.8646018,18.4910086 14.8646018,18.5329676 C14.8646018,18.8091099 15.0884594,19.0329676 15.3646018,19.0329676 C15.5730854,19.0329676 15.7517664,18.9053679 15.8270844,18.7241198 C16.5159254,17.1219344 18.1084914,16 19.9630992,16 C21.5163211,16 22.8857482,16.7869195 23.6944466,17.9838248 L23.6944466,17.9838248 L22.5167415,18.584637 L25.2112489,20 L25.6499879,16.9881683 L24.5919643,17.5283026 C23.6135209,16.0073802 21.9059532,15 19.9630992,15 Z" id="形状结合" fill="#0081FF" fill-rule="nonzero"></path>
    </g>
</svg>