<svg width="325.999878" height="326.000000" viewBox="0 0 326 326" fill="none" xmlns="http://www.w3.org/2000/svg" xmlns:xlink="http://www.w3.org/1999/xlink">
	<desc>
			Created with Pixso.
	</desc>
	<defs>
		<filter id="filter_2_83_dd" x="47.835205" y="70.080719" width="249.250610" height="208.589081" filterUnits="userSpaceOnUse" color-interpolation-filters="sRGB">
			<feFlood flood-opacity="0" result="BackgroundImageFix"/>
			<feColorMatrix in="SourceAlpha" type="matrix" values="0 0 0 0 0 0 0 0 0 0 0 0 0 0 0 0 0 0 127 0" result="hardAlpha"/>
			<feOffset dx="2" dy="10"/>
			<feGaussianBlur stdDeviation="4"/>
			<feComposite in2="hardAlpha" operator="out" k2="-1" k3="1"/>
			<feColorMatrix type="matrix" values="0 0 0 0 0 0 0 0 0 0 0 0 0 0 0 0 0 0 0.25 0"/>
			<feBlend mode="normal" in2="BackgroundImageFix" result="effect_dropShadow_1"/>
			<feBlend mode="normal" in="SourceGraphic" in2="effect_dropShadow_1" result="shape"/>
			<feColorMatrix in="SourceAlpha" type="matrix" values="0 0 0 0 0 0 0 0 0 0 0 0 0 0 0 0 0 0 127 0" result="hardAlpha"/>
			<feOffset dx="5" dy="4"/>
			<feGaussianBlur stdDeviation="7"/>
			<feComposite in2="hardAlpha" operator="arithmetic" k2="-1" k3="1"/>
			<feColorMatrix type="matrix" values="0 0 0 0 0 0 0 0 0 0 0 0 0 0 0 0 0 0 0.28 0"/>
			<feBlend mode="normal" in2="shape" result="effect_innerShadow_2"/>
		</filter>
	</defs>
	<circle id="椭圆 3" cx="163.000000" cy="163.000000" r="163.000000" fill="#0061FE" fill-opacity="1.000000"/>
	<g filter="url(#filter_2_83_dd)">
		<path id="差集" d="M65.6964 114.47C84.2682 76.8289 129.838 61.3701 167.479 79.942C186.3 89.2279 199.575 105.263 205.824 123.682C208.658 131.863 210.863 147.074 212.912 164.443C205.969 168.74 199.079 173.023 192.519 177.043C190.265 155.491 187.956 137.288 184.99 130.75C180.55 117.663 171.118 106.269 157.745 99.6713C131 86.4755 98.6215 97.4594 85.4257 124.205C72.2299 150.95 83.2137 183.328 109.959 196.524C123.332 203.122 138.112 203.675 151.2 199.235C158.193 197.611 174.043 188.368 192.519 177.043C193.32 184.695 194.113 192.77 194.927 200.894C179.898 209.836 166.484 217.341 158.267 220.069C139.848 226.318 119.045 225.539 100.225 216.253C62.5834 197.682 47.1245 152.112 65.6964 114.47ZM194.927 200.894C201.601 196.924 208.592 192.67 215.589 188.426C215.944 191.669 216.3 194.913 216.66 198.129C218.567 215.147 238.284 233.634 246.804 237.837L237.512 256.67C222.266 249.148 201.274 229.312 194.939 201.01C194.935 200.971 194.931 200.933 194.927 200.894ZM215.589 188.426C214.7 180.291 213.822 172.154 212.912 164.443C212.945 164.422 212.978 164.402 213.011 164.381C239.326 152.189 267.84 156.779 283.086 164.301L273.794 183.133C265.275 178.93 238.607 174.531 223.941 183.372C221.169 185.043 218.379 186.734 215.589 188.426Z" clip-rule="evenodd" fill="#FFFFFF" fill-opacity="1.000000" fill-rule="evenodd"/>
	</g>
</svg>
