<svg width="56.001999" height="56.001999" viewBox="0 0 56.002 56.002" fill="none" xmlns="http://www.w3.org/2000/svg" xmlns:xlink="http://www.w3.org/1999/xlink">
	<desc>
			Created with Pixso.
	</desc>
	<defs>
		<filter id="filter_2_26_dd" x="0.000000" y="0.000000" width="56.001999" height="56.001999" filterUnits="userSpaceOnUse" color-interpolation-filters="sRGB">
			<feFlood flood-opacity="0" result="BackgroundImageFix"/>
			<feBlend mode="normal" in="SourceGraphic" in2="BackgroundImageFix" result="shape"/>
			<feColorMatrix in="SourceAlpha" type="matrix" values="0 0 0 0 0 0 0 0 0 0 0 0 0 0 0 0 0 0 127 0" result="hardAlpha"/>
			<feOffset dx="2" dy="4"/>
			<feGaussianBlur stdDeviation="1.33333"/>
			<feComposite in2="hardAlpha" operator="arithmetic" k2="-1" k3="1"/>
			<feColorMatrix type="matrix" values="0 0 0 0 0 0 0 0 0 0 0 0 0 0 0 0 0 0 0.25 0"/>
			<feBlend mode="normal" in2="shape" result="effect_innerShadow_1"/>
		</filter>
		<filter id="filter_2_25_dd" x="15.431641" y="17.206551" width="29.701523" height="29.240234" filterUnits="userSpaceOnUse" color-interpolation-filters="sRGB">
			<feFlood flood-opacity="0" result="BackgroundImageFix"/>
			<feColorMatrix in="SourceAlpha" type="matrix" values="0 0 0 0 0 0 0 0 0 0 0 0 0 0 0 0 0 0 127 0" result="hardAlpha"/>
			<feOffset dx="2" dy="4"/>
			<feGaussianBlur stdDeviation="0.666667"/>
			<feComposite in2="hardAlpha" operator="out" k2="-1" k3="1"/>
			<feColorMatrix type="matrix" values="0 0 0 0 0 0 0 0 0 0 0 0 0 0 0 0 0 0 0.25 0"/>
			<feBlend mode="normal" in2="BackgroundImageFix" result="effect_dropShadow_1"/>
			<feBlend mode="normal" in="SourceGraphic" in2="effect_dropShadow_1" result="shape"/>
		</filter>
		<linearGradient id="paint_linear_2_26_0" x1="41.001007" y1="40.000801" x2="25.731016" y2="4.589364" gradientUnits="userSpaceOnUse">
			<stop stop-color="#F9AFFF"/>
			<stop offset="1.000000" stop-color="#6FBFFF"/>
		</linearGradient>
	</defs>
	<rect id="画板 1" width="56.001999" height="56.001999" fill="#FFFFFF" fill-opacity="0"/>
	<g filter="url(#filter_2_26_dd)">
		<path id="矢量 2" d="M13.002 0C5.7988 0 0 5.7987 0 13.002L0 43C0 50.2032 5.79871 56.002 13.002 56.002L43 56.002C50.2032 56.002 56.002 50.2033 56.002 43L56.002 13.002C56.002 5.7988 50.2033 0 43 0L13.002 0Z" fill="url(#paint_linear_2_26_0)" fill-opacity="1.000000" fill-rule="nonzero"/>
	</g>
	<g filter="url(#filter_2_25_dd)">
		<path id="矢量 1" d="M20.7749 38.8169Q22.2764 39.4468 24.3198 39.4468Q26.3633 39.4468 27.8428 38.8169Q29.3167 38.1925 30.2867 37.1146Q30.2952 37.1052 30.3037 37.0957Q30.4545 36.9256 30.593 36.7461Q31.3493 35.7658 31.7393 34.5029Q32.208 33.0015 32.208 31.2583L32.208 18.2066L29.3003 18.2066L29.3003 30.9287C29.3003 31.9688 29.1807 32.8648 28.9414 33.6167Q28.5825 34.7373 27.916 35.4624Q27.5976 35.8091 27.2194 36.0686Q26.8146 36.3465 26.3413 36.5244Q25.4331 36.8687 24.3198 36.8687Q22.7824 36.8687 21.6457 36.1937Q21.1416 35.8944 20.7163 35.4624Q19.3394 34.0488 19.3394 30.9287L19.3394 18.2066L16.4316 18.2066L16.4316 31.2583Q16.4316 33.0015 16.8931 34.5029Q17.319 35.8605 18.1499 36.8915Q18.2336 36.9953 18.3213 37.0957Q19.2808 38.187 20.7749 38.8169ZM40.1332 18.2066L37.2181 18.2066L37.2181 39L40.1332 39L40.1332 18.2066Z" fill="#FFFFFF" fill-opacity="1.000000" fill-rule="evenodd"/>
	</g>
	<path id="矢量 1" d="M17.6656 37.8622Q18.7534 39.0499 20.3864 39.7384L20.388 39.739Q22.0751 40.4468 24.3198 40.4468Q26.5673 40.4468 28.2329 39.7377Q29.7981 39.0746 30.8783 37.9469Q30.9668 37.8546 31.0519 37.7591Q31.2818 37.5 31.4865 37.2223Q32.2773 36.1496 32.6938 34.8009Q33.208 33.1539 33.208 31.2583L33.208 17.2066L28.3003 17.2066L28.3003 30.9287Q28.3003 32.3335 27.9891 33.3117Q27.6973 34.2227 27.1795 34.786Q26.95 35.0359 26.6788 35.226Q26.3614 35.4485 25.9869 35.5893Q25.25 35.8687 24.3198 35.8687Q22.9813 35.8687 22.0372 35.2584Q21.7114 35.0479 21.4326 34.7646Q20.3394 33.6423 20.3394 30.9287L20.3394 17.2066L15.4316 17.2066L15.4316 31.2583Q15.4316 33.1517 15.9389 34.8023Q16.3908 36.2426 17.2532 37.3685Q17.4053 37.5672 17.5703 37.756Q17.6174 37.8096 17.6656 37.8622ZM41.1332 40L41.1332 17.2066L36.2181 17.2066L36.2181 40L41.1332 40ZM32.208 19.2066L32.208 31.2583Q32.208 33.0015 31.7393 34.5029Q31.3493 35.7658 30.593 36.7461L30.593 36.7461L30.5926 36.7466Q30.4543 36.9259 30.3037 37.0957Q30.2952 37.1052 30.2867 37.1146L30.2867 37.1147Q29.3166 38.1925 27.8428 38.8169Q26.3633 39.4468 24.3198 39.4468Q22.2764 39.4468 20.7749 38.8169Q19.2808 38.187 18.3213 37.0957Q18.2336 36.9953 18.1499 36.8915Q17.319 35.8605 16.8931 34.5029Q16.4316 33.0015 16.4316 31.2583L16.4316 18.2066L19.3394 18.2066L19.3394 30.9287Q19.3394 34.0488 20.7163 35.4624Q21.1415 35.8944 21.6455 36.1936L21.6457 36.1937Q22.7824 36.8687 24.3198 36.8687Q25.4331 36.8687 26.3413 36.5244Q26.8146 36.3465 27.2194 36.0687L27.2194 36.0686Q27.5976 35.8091 27.916 35.4624Q28.5825 34.7373 28.9414 33.6167C29.1807 32.8648 29.3003 31.9688 29.3003 30.9287L29.3003 18.2066L32.208 18.2066L32.208 19.2066ZM40.1332 18.2066L37.2181 18.2066L37.2181 39L40.1332 39L40.1332 18.2066Z" fill="#000000" fill-opacity="0.100000" fill-rule="evenodd"/>
</svg>
