<svg width="337.704926" height="343.911865" viewBox="0 0 337.705 343.912" fill="none" xmlns="http://www.w3.org/2000/svg" xmlns:xlink="http://www.w3.org/1999/xlink">
	<desc>
			Created with Pixso.
	</desc>
	<defs>
		<filter id="filter_2_74_dd" x="0.000000" y="0.000000" width="337.704926" height="343.911865" filterUnits="userSpaceOnUse" color-interpolation-filters="sRGB">
			<feFlood flood-opacity="0" result="BackgroundImageFix"/>
			<feBlend mode="normal" in="SourceGraphic" in2="BackgroundImageFix" result="shape"/>
			<feColorMatrix in="SourceAlpha" type="matrix" values="0 0 0 0 0 0 0 0 0 0 0 0 0 0 0 0 0 0 127 0" result="hardAlpha"/>
			<feOffset dx="25" dy="24"/>
			<feGaussianBlur stdDeviation="13.3333"/>
			<feComposite in2="hardAlpha" operator="arithmetic" k2="-1" k3="1"/>
			<feColorMatrix type="matrix" values="0 0 0 0 0 0 0 0 0 0 0 0 0 0 0 0 0 0 0.25 0"/>
			<feBlend mode="normal" in2="shape" result="effect_innerShadow_1"/>
		</filter>
		<filter id="filter_2_75_dd" x="53.766296" y="79.766113" width="249.250580" height="208.589111" filterUnits="userSpaceOnUse" color-interpolation-filters="sRGB">
			<feFlood flood-opacity="0" result="BackgroundImageFix"/>
			<feColorMatrix in="SourceAlpha" type="matrix" values="0 0 0 0 0 0 0 0 0 0 0 0 0 0 0 0 0 0 127 0" result="hardAlpha"/>
			<feOffset dx="2" dy="10"/>
			<feGaussianBlur stdDeviation="4"/>
			<feComposite in2="hardAlpha" operator="out" k2="-1" k3="1"/>
			<feColorMatrix type="matrix" values="0 0 0 0 0 0 0 0 0 0 0 0 0 0 0 0 0 0 0.25 0"/>
			<feBlend mode="normal" in2="BackgroundImageFix" result="effect_dropShadow_1"/>
			<feBlend mode="normal" in="SourceGraphic" in2="effect_dropShadow_1" result="shape"/>
			<feColorMatrix in="SourceAlpha" type="matrix" values="0 0 0 0 0 0 0 0 0 0 0 0 0 0 0 0 0 0 127 0" result="hardAlpha"/>
			<feOffset dx="5" dy="4"/>
			<feGaussianBlur stdDeviation="7"/>
			<feComposite in2="hardAlpha" operator="arithmetic" k2="-1" k3="1"/>
			<feColorMatrix type="matrix" values="0 0 0 0 0 0 0 0 0 0 0 0 0 0 0 0 0 0 0.28 0"/>
			<feBlend mode="normal" in2="shape" result="effect_innerShadow_2"/>
		</filter>
	</defs>
	<rect id="画板 3" width="337.704834" height="343.911865" transform="translate(0.000031 0.000000)" fill="#FFFFFF" fill-opacity="0"/>
	<g filter="url(#filter_2_74_dd)">
		<rect id="image" rx="70.000000" width="337.704865" height="343.911804" fill="#0061FE" fill-opacity="1.000000"/>
	</g>
	<g filter="url(#filter_2_75_dd)">
		<path id="差集" d="M71.6275 124.156C90.1994 86.5143 135.769 71.0555 173.411 89.6274C192.231 98.9133 205.506 114.949 211.755 133.368C214.589 141.548 216.795 156.76 218.843 174.128C211.901 178.425 205.01 182.708 198.45 186.729C196.196 165.176 193.887 146.973 190.921 140.435C186.481 127.348 177.049 115.955 163.676 109.357C136.931 96.1608 104.553 107.145 91.3568 133.89C78.161 160.635 89.1449 193.014 115.89 206.209C129.263 212.807 144.044 213.36 157.131 208.921C164.124 207.297 179.974 198.053 198.45 186.729C199.251 194.381 200.045 202.455 200.858 210.579C185.829 219.521 172.415 227.027 164.198 229.755C145.779 236.003 124.977 235.225 106.156 225.939C68.5145 207.367 53.0557 161.797 71.6275 124.156ZM200.858 210.579C207.532 206.609 214.524 202.356 221.52 198.111C221.875 201.355 222.231 204.598 222.591 207.814C224.498 224.832 244.215 243.319 252.735 247.523L243.443 266.355C228.198 258.833 207.206 238.998 200.87 210.695C200.866 210.657 200.862 210.618 200.858 210.579ZM221.52 198.111C220.631 189.976 219.753 181.84 218.843 174.128C218.876 174.108 218.909 174.087 218.942 174.067C245.258 161.874 273.772 166.464 289.017 173.986L279.725 192.819C271.206 188.615 244.538 184.216 229.872 193.058C227.1 194.728 224.31 196.419 221.52 198.111Z" clip-rule="evenodd" fill="#FFFFFF" fill-opacity="1.000000" fill-rule="evenodd"/>
	</g>
</svg>
