<svg id="图层_1" data-name="图层 1" xmlns="http://www.w3.org/2000/svg" viewBox="0 0 16 16"><defs><style>.cls-1{fill:#8c8e91;}</style></defs><title>删除线-new</title><rect class="cls-1" x="1" y="8" width="14" height="1" rx="0.5"/><path class="cls-1" d="M5.93,7,7.85,1.75H8L10,7h1.07L8.85,1.07A.51.51,0,0,0,8.38.75H7.5A.5.5,0,0,0,7,1.08L4.87,7Z"/><path class="cls-1" d="M3.77,10,2.1,14.58a.49.49,0,0,0,.3.64.5.5,0,0,0,.64-.3L4.83,10Z"/><path class="cls-1" d="M12.19,10H11.12L13,14.93a.51.51,0,0,0,.47.32l.18,0a.51.51,0,0,0,.29-.65Z"/></svg>