<svg id="图层_1" data-name="图层 1" xmlns="http://www.w3.org/2000/svg" viewBox="0 0 16 16"><defs><style>.cls-1{fill:#8c8e91;}</style></defs><title>删除-new</title><path class="cls-1" d="M11,3V1a.94.94,0,0,0-1-1H5A.94.94,0,0,0,4,1V3H0V4H1V14a2,2,0,0,0,2,2h9a2,2,0,0,0,2-2V4h1V3ZM5,1h5V3H5Zm8,13a.94.94,0,0,1-1,1H3a.94.94,0,0,1-1-1V4H13Z"/><rect class="cls-1" x="4" y="6.99" width="1" height="5"/><rect class="cls-1" x="7" y="6.99" width="1" height="5"/><rect class="cls-1" x="10" y="6.99" width="1" height="5"/></svg>