<svg id="图层_1" data-name="图层 1" xmlns="http://www.w3.org/2000/svg" viewBox="0 0 16 16"><defs><style>.cls-1{fill:#8c8e91;}</style></defs><title>编号 副本</title><polygon class="cls-1" points="2 4 1 4 1 1 0 1 0 0 2 0 2 4"/><polygon class="cls-1" points="3 10 0.02 10 0.02 7 2 7 2 6 0 6 0 5 3 5 3 8 1.02 8 1.02 9 3 9 3 10"/><polygon class="cls-1" points="0 11 0 12 2 12 2 13 0 13 0 14 2 14 2 15 0 15 0 16 3 16 3 11 0 11"/><rect class="cls-1" x="5" y="1" width="11" height="1"/><rect class="cls-1" x="5" y="7" width="11" height="1"/><rect class="cls-1" x="5" y="13" width="11" height="1"/></svg>