<svg id="图层_1" data-name="图层 1" xmlns="http://www.w3.org/2000/svg" viewBox="0 0 16 16"><defs><style>.cls-1{fill:#8c8e91;}</style></defs><title>项目符号-new</title><path class="cls-1" d="M1.5,1a.5.5,0,1,1-.5.5A.5.5,0,0,1,1.5,1m0-1A1.5,1.5,0,1,0,3,1.5,1.5,1.5,0,0,0,1.5,0Z"/><path class="cls-1" d="M1.5,7a.5.5,0,1,1-.5.5A.5.5,0,0,1,1.5,7m0-1A1.5,1.5,0,1,0,3,7.5,1.5,1.5,0,0,0,1.5,6Z"/><path class="cls-1" d="M1.5,13a.5.5,0,1,1-.5.5.5.5,0,0,1,.5-.5m0-1A1.5,1.5,0,1,0,3,13.5,1.5,1.5,0,0,0,1.5,12Z"/><rect class="cls-1" x="5" y="1" width="11" height="1"/><rect class="cls-1" x="5" y="7" width="11" height="1"/><rect class="cls-1" x="5" y="13" width="11" height="1"/></svg>