<?xml version="1.0" encoding="UTF-8"?>
<svg width="24px" height="24px" viewBox="0 0 24 24" version="1.1" xmlns="http://www.w3.org/2000/svg" xmlns:xlink="http://www.w3.org/1999/xlink">
    <!-- Generator: Sketch 59 (86127) - https://sketch.com -->
    <title>360</title>
    <desc>Created with Sketch.</desc>
    <g id="页面-1" stroke="none" stroke-width="1" fill="none" fill-rule="evenodd">
        <g id="搜索设置-添加/删除2" transform="translate(-1476.000000, -630.000000)">
            <g id="编组-11" transform="translate(1471.000000, 630.000000)">
                <rect id="矩形备份-15" x="0" y="0" width="24" height="24"></rect>
                <g id="360" transform="translate(7.000000, 3.000000)" fill-rule="nonzero">
                    <path d="M16.3973402,16.1013473 C16.3973402,15.1220886 17.1776523,14.3264408 18.1680485,14.3264408 C19.1584446,14.3264408 19.9087447,15.1220886 19.9087447,16.1013473 C19.9087447,17.0806061 19.1284326,17.9068557 18.1680485,17.9068557 C17.2076643,17.9068557 16.3973402,17.1112079 16.3973402,16.1013473 Z" id="路径" fill="#FF9932"></path>
                    <path d="M16.4273522,12.4597288 L13.8763318,11.4192664 C13.6662478,11.3274609 13.6662478,11.1744517 13.7562838,10.9602389 C13.9963798,10.3482021 14.1164278,9.64435991 14.1164278,8.97111953 C14.1164278,6.03334326 11.6854554,3.55459454 8.80430297,3.55459452 C5.92315053,3.5545945 3.49217813,6.06394509 3.49217811,8.97111953 C3.49217811,9.64435993 3.67225014,10.378804 3.91234618,10.9908407 C3.9723702,11.113248 3.9723702,11.2662572 3.91234618,11.3886646 C3.85232217,11.4804701 3.79229817,11.3886646 3.70226216,11.4192664 L1.09121773,12.2761178 C1.06120574,12.3067197 1.00118172,12.3067197 0.971169723,12.3067197 C0.791097696,12.3067197 0.671049665,12.2149141 0.61102567,12.0313031 C0.220869599,11.0214425 0.0107855548,10.011582 0.0107855548,8.97111953 C0.0107855548,4.04422391 3.9723702,0.0047815345 8.80430297,0.0047815345 C13.6362358,0.0047815345 17.5978204,4.01362206 17.5978204,8.94051768 C17.5978204,10.1033874 17.3877363,11.2050535 16.9975803,12.245516 C16.9675683,12.3373215 16.8775323,12.429127 16.7574842,12.4597288 C16.6974602,12.4903307 16.6674482,12.4903307 16.6074242,12.4903307 C16.5474002,12.4903307 16.4873762,12.4903307 16.4273522,12.4597288 Z" id="路径" fill="#0FB264"></path>
                    <path d="M0.971169723,13.0717656 C0.821109694,12.7657472 0.701061683,12.4597288 0.581013652,12.1537105 C0.520989636,12.0007013 0.520989636,11.8782939 0.520989636,11.8170903 C0.520989636,10.8378315 1.30130176,10.0421838 2.29169792,10.0421838 C3.01198603,10.0421838 3.64223814,10.5012113 3.9423582,11.1438499 C3.9723702,11.2050536 4.06240621,11.3886646 4.12243023,11.4804701 C5.02279038,13.2553766 6.82351066,14.3876445 8.77429098,14.3876445 C10.6950593,14.3876445 12.4657676,13.2859784 13.3961397,11.5722756 C13.4861757,11.3886646 13.7262718,10.9602389 13.7562838,10.9602389 C14.0564038,10.3482021 14.5966199,10.0727856 15.256884,10.0727856 C16.2472802,10.0727856 17.0275923,10.8684333 17.0275923,11.8476921 C17.0275923,11.9700995 17.0275923,12.1231086 16.9375563,12.3067197 L16.7574842,12.7657472 L16.7574842,12.796349 C16.7274722,12.8881545 16.6974602,12.9493582 16.6374362,13.0411637 C15.136836,16.0707455 12.1356355,17.9680593 8.77429098,17.9680593 C5.47297044,17.9068556 2.50178197,16.0707455 0.971169723,13.0717656 L0.971169723,13.0717656 Z" id="路径" fill="#FF9932"></path>
                </g>
            </g>
        </g>
    </g>
</svg>