<?xml version="1.0" encoding="UTF-8"?>
<svg width="24px" height="24px" viewBox="0 0 24 24" version="1.1" xmlns="http://www.w3.org/2000/svg" xmlns:xlink="http://www.w3.org/1999/xlink">
    <!-- Generator: Sketch 59 (86127) - https://sketch.com -->
    <title>baidu</title>
    <desc>Created with Sketch.</desc>
    <g id="页面-1" stroke="none" stroke-width="1" fill="none" fill-rule="evenodd">
        <g id="搜索设置-添加/删除2" transform="translate(-1403.000000, -630.000000)">
            <g id="编组-9" transform="translate(1403.000000, 630.000000)">
                <rect id="矩形" x="0" y="0" width="24" height="24"></rect>
                <g id="百度-(1)" transform="translate(3.000000, 2.000000)" fill="#306CFF" fill-rule="nonzero">
                    <path d="M5.68082736,5.83823414 C5.97571721,6.08933339 6.36891009,6.23998901 6.71296107,6.18975738 C7.10615394,6.18975738 7.45018571,5.98888976 7.74507556,5.73779052 C8.08914575,5.43647927 8.33485528,5.0347244 8.53146132,4.58275754 C8.8755123,3.72899655 8.8755123,2.67440719 8.58062244,1.77045383 C8.38401639,1.16783134 8.03998463,0.615420854 7.54848873,0.263897613 C7.25359887,0.0630103643 6.81124488,-0.0374136307 6.418052,0.0127983668 C6.17232326,0.0630103643 5.92657531,0.163453989 5.68082736,0.314109611 C5.23849257,0.615420854 4.9435835,1.11761935 4.74697746,1.61981784 C4.50124872,2.52375157 4.4520876,3.42770493 4.69785476,4.33165829 C4.8944416,4.88406878 5.18933145,5.43647927 5.68082736,5.83821451 L5.68082736,5.83823414 Z M10.5957287,5.88844614 C10.9397797,6.18975738 11.3821145,6.39064463 11.8244685,6.39064463 C12.2176422,6.44085663 12.5616931,6.34043263 12.9057249,6.13954538 C13.2497759,5.93867776 13.5446849,5.63734689 13.7412718,5.28582365 C13.9870197,4.88406878 14.1836066,4.48231391 14.3310515,4.03032742 C14.4293545,3.67880418 14.4784964,3.27704931 14.4293545,2.87529444 C14.3801934,2.32288395 14.1344647,1.82068546 13.7904137,1.36871859 C13.5446657,1.06740735 13.2497759,0.766096106 12.9057441,0.615420854 C12.6599962,0.514996859 12.3650871,0.414553235 12.1193391,0.464765232 C11.7753074,0.514996859 11.4804175,0.715864479 11.2346696,0.916751727 C10.8906186,1.21806297 10.5957287,1.56958621 10.3991227,1.97134108 C10.2025359,2.32288395 10.005949,2.72463882 9.95678791,3.17660568 C9.907646,3.67880418 9.907646,4.18100267 10.005949,4.63296954 C10.1042328,5.0849364 10.2516778,5.53690327 10.5957287,5.88846577 L10.5957287,5.88844614 Z M3.76400487,10.0064384 C4.10807505,9.7051272 4.30466189,9.3033527 4.45210681,8.90159783 C4.64869365,8.24876335 4.64869365,7.59590923 4.59955174,6.94305512 C4.59955174,6.69195587 4.50124872,6.44085663 4.4029457,6.18975738 C4.15719775,5.63734689 3.71486296,5.13516803 3.17422515,4.83383715 C2.73189037,4.63296954 2.28955558,4.53252591 1.89634349,4.63296954 C1.4048668,4.68318153 1.01167392,5.0347244 0.716784068,5.43647927 C0.323591189,5.98888976 0.127004355,6.6919755 0.0286821209,7.34480999 C-0.0204597848,7.74656486 0.0286821209,8.14831972 0.126985143,8.55005496 C0.274430072,9.15269708 0.569319928,9.70510757 1.01165471,10.1068624 C1.3557249,10.4081737 1.79805968,10.5588489 2.24039447,10.5588489 C2.78103227,10.5588489 3.32167008,10.4081933 3.76402408,10.0064384 L3.76400487,10.0064384 Z M17.9189293,8.49984296 C17.8697874,8.0980881 17.7714844,7.74656486 17.5748975,7.39502198 C17.3782915,6.99326712 17.0342405,6.59151225 16.6410476,6.39064463 C16.1987129,6.13954538 15.6580751,6.08933339 15.1665984,6.13954538 C14.9208504,6.18975738 14.6259413,6.23998901 14.3801934,6.39064463 C14.0361616,6.59151225 13.7904137,6.94305512 13.5938268,7.34480999 C13.3972208,7.84700848 13.298937,8.39941897 13.298937,8.95182946 C13.298937,9.45400832 13.298937,10.0064384 13.4463627,10.5086369 C13.5446657,10.8601602 13.7412526,11.261915 14.0853227,11.4627827 C14.4293545,11.7640939 14.8716893,11.8645375 15.3140433,11.9147692 C15.6580751,11.9649812 16.0512679,11.9649812 16.3953189,11.8645375 C16.7393507,11.7641135 17.0834016,11.5632263 17.2799885,11.261915 C17.5257364,10.9606038 17.6731814,10.5588489 17.7223425,10.2073061 C17.9680904,9.60468357 17.9189293,9.05227308 17.9189293,8.49984296 L17.9189293,8.49984296 Z M15.6580943,14.1244111 C15.559772,14.0239675 15.4614882,13.9235239 15.3140241,13.8230999 C14.6751025,13.2706894 14.0361616,12.6680473 13.3972208,12.0654248 C12.75828,11.412551 12.168481,10.7095046 11.6278624,9.95620682 C11.2346696,9.3033527 10.6940126,8.70071058 9.95678791,8.34918734 C9.51445313,8.14831972 8.97381532,8.0478761 8.48231942,8.0980881 C7.59764985,8.19853172 6.81124488,8.70071058 6.27060707,9.40379633 C6.12316214,9.55445195 6.02487833,9.7553392 5.92657531,9.95620682 C5.53338243,10.5588293 5.04190574,11.1614714 4.50124872,11.6636699 C4.20635886,11.9649812 3.91146901,12.2160804 3.61657915,12.4671796 C3.46911501,12.6178353 3.27250897,12.7684909 3.12508325,12.9191465 C2.53530353,13.3711134 1.94550461,13.9737555 1.60145364,14.6266096 C1.35570569,15.0785765 1.20826076,15.580775 1.15911885,16.1331658 C1.15911885,16.5851523 1.20826076,17.0371192 1.35570569,17.4388741 C1.50315061,17.8908606 1.69975666,18.3428274 1.99466573,18.6943703 C2.48614242,19.2969928 3.22336706,19.6987476 3.96061091,19.7489596 C4.8944416,19.7991913 5.82827228,19.7489596 6.71296107,19.598304 C7.10615394,19.548092 7.49934682,19.3974364 7.94168161,19.3472048 C8.82635118,19.2467808 9.71103996,19.2969928 10.5465868,19.548092 C11.2346696,19.7991913 11.9718942,19.8996349 12.7091381,19.9498469 C13.4463627,20.0000589 14.2327677,19.8996349 14.9208504,19.49788 C15.4123271,19.2467808 15.80552,18.7947943 16.0512679,18.2926154 C16.4444608,17.6397417 16.6410476,16.8864636 16.5427638,16.0829538 C16.4936027,15.3798877 16.149571,14.6768216 15.6580943,14.1244111 Z M8.28573258,18.1419598 L6.02487833,18.1419598 C5.77913038,18.1419598 5.53338243,18.1419598 5.28763448,18.0917282 C4.79613858,17.9912845 4.35378458,17.6899733 4.05889472,17.2380064 C3.81316598,16.9366952 3.66572106,16.5851523 3.61655994,16.1833975 C3.56741236,15.7832184 3.56741236,15.3783315 3.61655994,14.9781525 C3.71486296,14.526166 3.96061091,14.1244111 4.25551998,13.8230999 C4.50124872,13.5720006 4.84529969,13.3711134 5.18933145,13.2204774 C5.33677638,13.1702261 5.48422131,13.1200338 5.63168545,13.1200338 L6.95870902,13.1200338 L6.95870902,11.2116834 L8.23657147,11.2116834 C8.28573258,13.5720006 8.28573258,15.8820862 8.28573258,18.1419598 L8.28573258,18.1419598 Z M13.3480789,18.1419598 L10.2516778,18.1419598 C9.907646,18.0917282 9.61275615,17.9912845 9.3670082,17.7904169 C9.07211834,17.5393177 8.9246542,17.1375628 8.9246542,16.7860396 L8.9246542,13.3711134 L10.2025359,13.3711134 L10.2025359,16.5349403 C10.2025359,16.6855959 10.2516778,16.7860396 10.3499808,16.8864636 C10.4482838,16.9869072 10.5957287,17.0371192 10.7431737,17.0371192 L12.0701972,17.0371192 L12.0701972,13.3209014 L13.3480789,13.3209014 L13.3480789,18.1419598 L13.3480789,18.1419598 Z" id="形状"></path>
                    <path d="M5.58254355,14.4257224 C5.33677638,14.526166 5.09102843,14.7270336 4.9435835,15.0283448 C4.84529969,15.2794441 4.79613858,15.5305433 4.79613858,15.7816426 C4.79613858,16.0829538 4.8944416,16.3842651 5.04188653,16.6353643 C5.23849257,16.9366756 5.58252433,17.1375628 5.9265561,17.0873508 L6.95870902,17.0873508 L6.95870902,14.3755104 L5.82825307,14.3755104 C5.77911117,14.3252787 5.68080815,14.3755104 5.58250512,14.4257224 L5.58254355,14.4257224 Z" id="路径"></path>
                </g>
            </g>
        </g>
    </g>
</svg>