<?xml version="1.0" encoding="UTF-8"?>
<svg width="24px" height="24px" viewBox="0 0 24 24" version="1.1" xmlns="http://www.w3.org/2000/svg" xmlns:xlink="http://www.w3.org/1999/xlink">
    <!-- Generator: Sketch 59 (86127) - https://sketch.com -->
    <title>sougou</title>
    <desc>Created with Sketch.</desc>
    <defs>
        <linearGradient x1="24.2116501%" y1="13.4446809%" x2="84.5451665%" y2="97.3997161%" id="linearGradient-1">
            <stop stop-color="#FD8449" offset="0%"></stop>
            <stop stop-color="#FA4D23" offset="100%"></stop>
        </linearGradient>
    </defs>
    <g id="页面-1" stroke="none" stroke-width="1" fill="none" fill-rule="evenodd">
        <g id="搜索设置-添加/删除2" transform="translate(-1442.000000, -630.000000)">
            <g id="编组-10" transform="translate(1442.000000, 630.000000)">
                <rect id="矩形备份-12" x="0" y="0" width="24" height="24"></rect>
                <g id="搜狗" transform="translate(2.000000, 2.000000)" fill="url(#linearGradient-1)" fill-rule="nonzero">
                    <path d="M17.811,16.201375 L18.535,16.706375 C17.4840306,17.9285167 16.1537307,18.8790739 14.657,19.477375 L14.657,19.477375 L14.206,18.723375 C15.5948993,18.1884192 16.8323353,17.3227289 17.811,16.201375 L17.811,16.201375 Z M9.999,0.004375 C15.52,0.004375 19.998,4.345375 20,9.702375 C19.9986243,11.9758025 19.1802151,14.1730148 17.694,15.893375 L17.694,15.893375 L16.97,15.388375 C18.3483127,13.814701 19.1087129,11.7943105 19.11,9.702375 C19.11,4.822375 15.031,0.867375 9.998,0.867375 C4.967,0.867375 0.888,4.822375 0.888,9.702375 C0.888,14.579375 4.967,18.534375 9.999,18.534375 C11.1498074,18.5349329 12.2908639,18.3234001 13.365,17.910375 L13.365,17.910375 L13.816,18.664375 C12.607,19.150375 11.309,19.399375 9.999,19.397387 C4.475,19.397387 0,15.056375 0,9.699375 C0,4.345375 4.475,0.004375 9.999,0.004375 Z M4.774,5.817375 C7.913,2.471375 15.885,5.403375 15.885,5.403375 L15.885,5.403375 L15.885,7.583375 C15.885,7.583375 14.095,6.692375 10.575,6.416375 C7.606,6.183375 8.645,7.350375 8.645,7.350375 C10.535,8.406375 12.213,8.803375 12.213,8.803375 C16.463,9.891375 16.213,11.475375 16.213,11.475375 C16.108,18.140375 4.368,13.990375 4.368,13.990375 L4.368,13.990375 L4.521,11.526375 C6.464,13.289375 10.031,13.264375 10.031,13.264375 C14.688,12.874375 10.945,11.214375 10.945,11.214375 C8.042,10.487375 5.872,9.267375 4.807,8.307375 C3.741,7.347375 4.774,5.817375 4.774,5.817375 Z" id="形状结合"></path>
                </g>
            </g>
        </g>
    </g>
</svg>