<?xml version="1.0" encoding="utf-8"?>
<!-- Generator: Adobe Illustrator 24.0.0, SVG Export Plug-In . SVG Version: 6.00 Build 0)  -->
<svg version="1.1" id="图层_1" xmlns="http://www.w3.org/2000/svg" xmlns:xlink="http://www.w3.org/1999/xlink" x="0px" y="0px"
	 viewBox="0 0 96 96" style="enable-background:new 0 0 96 96;" xml:space="preserve">
<style type="text/css">
	.st0{fill-rule:evenodd;clip-rule:evenodd;fill:url(#Fill-1_2_);}
	.st1{fill-rule:evenodd;clip-rule:evenodd;fill:url(#Fill-1_3_);}
	.st2{fill-rule:evenodd;clip-rule:evenodd;fill:url(#Fill-3_1_);}
	.st3{fill:url(#路径-8_1_);}
	.st4{fill-rule:evenodd;clip-rule:evenodd;fill:#FFFFFF;}
	.st5{fill-rule:evenodd;clip-rule:evenodd;fill:#F1F4FF;}
	.st6{opacity:0.4681;fill-rule:evenodd;clip-rule:evenodd;fill:#D3E2F3;enable-background:new    ;}
	.st7{fill-rule:evenodd;clip-rule:evenodd;fill:#5B7AFF;}
	.st8{fill-rule:evenodd;clip-rule:evenodd;fill:#5978FC;}
	.st9{fill-rule:evenodd;clip-rule:evenodd;fill:url(#path-8_3_);}
	.st10{filter:url(#Adobe_OpacityMaskFilter);}
	.st11{mask:url(#mask-9_1_);fill-rule:evenodd;clip-rule:evenodd;fill:url(#路径_2_);}
	.st12{fill:url(#路径_3_);}
	.st13{fill-rule:evenodd;clip-rule:evenodd;fill:url(#Fill-5_2_);}
	.st14{fill-rule:evenodd;clip-rule:evenodd;fill:url(#SVGID_1_);}
	.st15{fill-rule:evenodd;clip-rule:evenodd;fill:url(#SVGID_2_);}
	.st16{fill-rule:evenodd;clip-rule:evenodd;fill:url(#SVGID_3_);}
	.st17{fill-rule:evenodd;clip-rule:evenodd;fill:url(#SVGID_4_);}
	.st18{fill-rule:evenodd;clip-rule:evenodd;fill:url(#SVGID_5_);}
	.st19{fill-rule:evenodd;clip-rule:evenodd;fill:url(#SVGID_6_);}
</style>
<title>编组备份 3</title>
<desc>Created with Sketch.</desc>
<g>
	
		<linearGradient id="Fill-1_2_" gradientUnits="userSpaceOnUse" x1="0.2363" y1="96.1326" x2="0.5956" y2="95.3613" gradientTransform="matrix(109.1263 0 0 -108.9753 0.8528 10462.6357)">
		<stop  offset="0" style="stop-color:#8AF7FF"/>
		<stop  offset="1" style="stop-color:#4848FF"/>
	</linearGradient>
	<path id="Fill-1" class="st0" d="M48,90.7L48,90.7c-23.2,0-42-18.8-42-42v-42h84v42C90,71.9,71.2,90.7,48,90.7"/>
	
		<linearGradient id="Fill-1_3_" gradientUnits="userSpaceOnUse" x1="0.179" y1="95.8809" x2="0.7467" y2="95.3989" gradientTransform="matrix(109.1272 0 0 -108.9881 0.8524 10463.8672)">
		<stop  offset="0" style="stop-color:#8ADAFF"/>
		<stop  offset="1" style="stop-color:#4848FF"/>
	</linearGradient>
	<path id="Fill-1_1_" class="st1" d="M62,6.7v17.4h3.5v23.6c0,8.3-6.8,15.1-15.1,15.1h-4.8c-8.3,0-15.1-6.8-15.1-15.1V24.1H34V6.7H6
		v42c0,23.2,18.8,42,42,42c23.2,0,42-18.8,42-42v-42H62z"/>
	
		<linearGradient id="Fill-3_1_" gradientUnits="userSpaceOnUse" x1="4.860606e-02" y1="96.68" x2="0.4299" y2="95.3995" gradientTransform="matrix(67.7535 0 0 -79.6898 0.8523 7651.2295)">
		<stop  offset="0" style="stop-color:#8AF7FF"/>
		<stop  offset="1" style="stop-color:#4848FF"/>
	</linearGradient>
	<path id="Fill-3" class="st2" d="M58.2,60.5c-2.2,1.3-4.9,2.1-7.7,2.1h-4.8c-8.4,0-15.1-6.7-15.1-15.1V24h3.5V6.7H6v41.9
		c0,3.4,0.4,6.7,1.2,9.9c7.3,6,16.6,9.6,26.8,9.6C43,68.1,51.3,65.3,58.2,60.5"/>
	
		<linearGradient id="路径-8_1_" gradientUnits="userSpaceOnUse" x1="9.189788e-02" y1="96.3336" x2="0.8617" y2="96.2943" gradientTransform="matrix(52.1438 0 0 -13.6146 2.2402 1374.6285)">
		<stop  offset="0" style="stop-color:#C0E2FF"/>
		<stop  offset="1" style="stop-color:#FFFFFF;stop-opacity:0"/>
	</linearGradient>
	<path id="路径-8" class="st3" d="M7.2,58.9c10.1,9.2,25.4,11.8,40,7.8l-0.3-0.6C31.2,71,15.7,66.3,7.1,58L7.2,58.9z"/>
	<polygon id="Fill-5_1_" class="st4" points="34,24.1 62,24.1 62,6.7 34,6.7 	"/>
	<polygon id="Fill-5备份-2" class="st5" points="44.5,23.9 62,24 62,6.7 36.3,6.7 	"/>
	<polygon id="Fill-5备份" class="st6" points="34,24 62,24 62,22.3 34,23.4 	"/>
	<polygon id="Fill-7" class="st7" points="39,18.1 44.5,18.1 44.5,12.6 39,12.6 	"/>
	<polygon id="Fill-8" class="st8" points="51.5,18.1 57,18.1 57,12.6 51.5,12.6 	"/>
	<g id="蒙版">
		
			<linearGradient id="path-8_3_" gradientUnits="userSpaceOnUse" x1="0.6203" y1="95.3372" x2="0.129" y2="95.9808" gradientTransform="matrix(45.5275 0 0 -50.1771 32.652 4840.5493)">
			<stop  offset="0" style="stop-color:#BACBFF"/>
			<stop  offset="1" style="stop-color:#FFFFFF"/>
		</linearGradient>
		<path id="path-8_1_" class="st9" d="M45.6,62.7c-8.3,0-15.1-6.8-15.1-15.1V24h35v23.6c0,8.3-6.8,15.1-15.1,15.1H45.6z"/>
	</g>
	<defs>
		<filter id="Adobe_OpacityMaskFilter" filterUnits="userSpaceOnUse" x="30.5" y="45" width="35" height="17.8">
			<feColorMatrix  type="matrix" values="1 0 0 0 0  0 1 0 0 0  0 0 1 0 0  0 0 0 1 0"/>
		</filter>
	</defs>
	<mask maskUnits="userSpaceOnUse" x="30.5" y="45" width="35" height="17.8" id="mask-9_1_">
		<g class="st10">
			<path id="path-8_2_" class="st4" d="M45.6,62.7c-8.3,0-15.1-6.8-15.1-15.1V24h35v23.6c0,8.3-6.8,15.1-15.1,15.1H45.6z"/>
		</g>
	</mask>
	
		<linearGradient id="路径_2_" gradientUnits="userSpaceOnUse" x1="0.6214" y1="95.826" x2="0.1212" y2="95.9714" gradientTransform="matrix(45.5275 0 0 -23.0351 32.6515 2262.1428)">
		<stop  offset="0" style="stop-color:#D4DFFF"/>
		<stop  offset="1" style="stop-color:#FFFFFF"/>
	</linearGradient>
	<path id="路径" class="st11" d="M30.5,47.7V45c0,8.3,6.6,15,14.8,15.1l0.3,0h4.8c8.3,0,15-6.6,15.1-14.8l0-0.3v2.6
		c0,8.3-6.8,15.1-15.1,15.1h-4.8C37.2,62.8,30.5,56,30.5,47.7V45V47.7z"/>
	
		<g id="usb" transform="translate(55.389282, 46.516323) scale(1, -1) rotate(90.000000) translate(-55.389282, -46.516323) translate(42.598584, 38.425810)">
		
			<linearGradient id="路径_3_" gradientUnits="userSpaceOnUse" x1="-35.6947" y1="62.406" x2="-36.4653" y2="62.3597" gradientTransform="matrix(0 15.5824 -25.5392 0 1621.2229 571.7698)">
			<stop  offset="0" style="stop-color:#6DA8FD"/>
			<stop  offset="1" style="stop-color:#5364FF"/>
		</linearGradient>
		<path id="路径_1_" class="st12" d="M27.4,15.3c0,0.1-0.1,0.2-0.1,0.2l-2.7,1.6c0,0-0.1,0-0.1,0c0,0-0.1,0-0.1,0
			c-0.1-0.1-0.1-0.1-0.1-0.2v-1.1h-7.3c0.8,1.2,1.2,3.3,2.1,3.3h0.8v-0.8c0-0.2,0.1-0.3,0.3-0.3h2.7c0.2,0,0.3,0.1,0.3,0.3V21
			c0,0.2-0.1,0.3-0.3,0.3H20c-0.2,0-0.3-0.1-0.3-0.3v-0.8h-0.8c-2.3,0-2.5-4.4-3.8-4.4H12c-0.2,0.9-1.1,1.6-2.1,1.6
			c-1.2,0-2.2-1-2.2-2.2s1-2.2,2.2-2.2c1,0,1.9,0.7,2.1,1.6c1.2,0,1.3,0.3,2.3-1.8c1.2-2.7,1.8-2.5,3.3-2.5c0.2-0.6,0.8-1.1,1.5-1.1
			c0.9,0,1.6,0.7,1.6,1.6s-0.7,1.6-1.6,1.6c-0.7,0-1.3-0.5-1.5-1.1h-0.9c-0.9,0-1.4,2.1-2.1,3.3h9.5v-1.1c0-0.1,0.1-0.2,0.1-0.2
			c0.1-0.1,0.2,0,0.3,0l2.7,1.6C27.3,15.1,27.4,15.2,27.4,15.3z"/>
	</g>
	
		<linearGradient id="Fill-5_2_" gradientUnits="userSpaceOnUse" x1="0.4947" y1="95.7275" x2="0.3544" y2="95.1562" gradientTransform="matrix(67.7535 0 0 -79.6898 0.8525 7651.2295)">
		<stop  offset="0" style="stop-color:#8AF7FF"/>
		<stop  offset="1" style="stop-color:#4848FF"/>
	</linearGradient>
	<path id="Fill-5" class="st13" d="M6,6.7L6,6.7l0,41.9c0,3.4,0.4,6.7,1.2,9.9c7.3,6,16.6,9.6,26.8,9.6c9,0,17.3-2.8,24.2-7.5
		c0,0-0.1,0-0.1,0c-4.5,3.1-9.5,4.8-14.7,4.8C23.1,65.4,6.6,39.3,6,6.7z"/>
	<g>
		<linearGradient id="SVGID_1_" gradientUnits="userSpaceOnUse" x1="58.1237" y1="60.5539" x2="58.1183" y2="60.5321">
			<stop  offset="0" style="stop-color:#8AF7FF"/>
			<stop  offset="1" style="stop-color:#4848FF"/>
		</linearGradient>
		<path class="st14" d="M58.1,60.6C58.1,60.6,58.1,60.5,58.1,60.6C58.2,60.5,58.2,60.5,58.1,60.6C58.1,60.5,58.1,60.6,58.1,60.6
			C58.1,60.6,58.1,60.6,58.1,60.6z"/>
		<linearGradient id="SVGID_2_" gradientUnits="userSpaceOnUse" x1="32.3586" y1="24.3117" x2="32.1819" y2="23.5926">
			<stop  offset="0" style="stop-color:#8AF7FF"/>
			<stop  offset="1" style="stop-color:#4848FF"/>
		</linearGradient>
		<line class="st15" x1="34.1" y1="24" x2="30.5" y2="24"/>
		<linearGradient id="SVGID_3_" gradientUnits="userSpaceOnUse" x1="31.7717" y1="69.1295" x2="17.9628" y2="12.9272">
			<stop  offset="0" style="stop-color:#FFFFFF;stop-opacity:0"/>
			<stop  offset="1" style="stop-color:#FFFFFF"/>
		</linearGradient>
		<path class="st16" d="M6.7,6.7L6.7,6.7L6.7,6.7L6,6.7c0.5,32.6,17.1,58.7,37.4,58.7c0.1,0,0.2,0,0.3,0C23.6,65.1,7.2,39.1,6.7,6.7
			z"/>
		<linearGradient id="SVGID_4_" gradientUnits="userSpaceOnUse" x1="20.9211" y1="8.9533" x2="19.554" y2="3.3891">
			<stop  offset="0" style="stop-color:#8AF7FF"/>
			<stop  offset="1" style="stop-color:#4848FF"/>
		</linearGradient>
		<polygon class="st17" points="34.1,6.7 6.7,6.7 6.7,6.7 34.1,6.7 		"/>
		<linearGradient id="SVGID_5_" gradientUnits="userSpaceOnUse" x1="52.5612" y1="63.8127" x2="52.5602" y2="63.8085">
			<stop  offset="0" style="stop-color:#8AF7FF"/>
			<stop  offset="1" style="stop-color:#4848FF"/>
		</linearGradient>
		<path class="st18" d="M52.5,63.8C52.6,63.8,52.6,63.8,52.5,63.8C52.6,63.8,52.6,63.8,52.5,63.8C52.6,63.8,52.6,63.8,52.5,63.8z"/>
		<linearGradient id="SVGID_6_" gradientUnits="userSpaceOnUse" x1="39.1973" y1="67.9044" x2="39.0824" y2="67.437">
			<stop  offset="0" style="stop-color:#8AF7FF"/>
			<stop  offset="1" style="stop-color:#4848FF"/>
		</linearGradient>
		<path class="st19" d="M41.4,67.4c-1.5,0.3-3,0.5-4.6,0.6C38.4,67.9,39.9,67.7,41.4,67.4z"/>
	</g>
</g>
</svg>
