<?xml version="1.0" encoding="UTF-8"?>
<svg width="36px" height="36px" viewBox="0 0 36 36" version="1.1" xmlns="http://www.w3.org/2000/svg" xmlns:xlink="http://www.w3.org/1999/xlink">
    <!-- Generator: Sketch 58 (84663) - https://sketch.com -->
    <title>button/Switch camera_dark</title>
    <desc>Created with Sketch.</desc>
    <g id="button/Switch-camera_dark" stroke="none" stroke-width="1" fill="none" fill-rule="evenodd">
        <g id="button/Switch-camera">
            <rect id="Rectangle-175" fill="#D8D8D8" opacity="0" transform="translate(18.000000, 18.000000) scale(-1, 1) translate(-18.000000, -18.000000) " x="0" y="0" width="36" height="36" rx="8"></rect>
            <path d="M11.1108209,20.1390861 C11.1108209,20.1390861 10.9668353,20.2110789 10.7508569,20.3550645 C10.5168803,20.5170483 10.1929127,20.7312269 9.90494151,21.0731927 C9.7609559,21.2351765 9.63496851,21.4493551 9.5809739,21.6653335 C9.50898113,21.8993101 9.54497753,22.1134887 9.67096492,22.3114689 C9.92293972,22.7074293 10.4808839,23.0295971 11.0748245,23.2455755 C12.2807039,23.6937306 13.7187601,23.8557144 14.9606359,23.9277072 C15.3205999,23.9457054 15.6625658,23.9637036 15.9865334,23.9637036 L15.9847335,23.9637036 L15.9847335,22.9756024 L18.3244996,24.9878012 L15.9865334,27 L15.9865334,25.849915 C15.5905729,25.7959204 15.1586162,25.7239276 14.7266593,25.6339366 C13.3947925,25.3459654 11.9027417,24.9158084 10.6068713,24.1436856 C10.2829037,23.9457054 9.97693432,23.7315268 9.72495951,23.479552 C9.45498651,23.209579 9.2030117,22.9054094 9.0770243,22.5454454 C8.9510369,22.1854814 8.9870333,21.7733227 9.1310189,21.4853515 C9.27500451,21.1991801 9.4909829,21.0011999 9.68896311,20.8392161 C10.1029217,20.5350465 10.4628857,20.3910609 10.7148605,20.2830717 C10.9668353,20.1750825 11.1108209,20.1390861 11.1108209,20.1390861 Z M24.8542466,20.1210879 C24.8542466,20.1210879 24.9982322,20.1570843 25.250207,20.2650735 C25.5021818,20.3730627 25.880144,20.5152485 26.2761044,20.8212179 C26.4740846,20.9652035 26.690063,21.1613839 26.8520468,21.5033497 C27.0140306,21.7913209 27.050027,22.2034797 26.9240396,22.5634437 C26.7980522,22.9414059 26.5640756,23.2455754 26.2941026,23.4975502 C26.0241296,23.7495251 25.7181602,23.9637036 25.3941926,24.1616838 C24.0983222,24.9338066 22.6062714,25.3639636 21.2744046,25.6519348 C20.6984622,25.759924 20.1585162,25.849915 19.6725648,25.9039096 L19.6725648,25.9039096 L19.6725648,23.9817018 C20.0865234,23.9817018 20.5544766,23.9817018 21.040428,23.9457054 C22.2823038,23.8737126 23.72036,23.6937306 24.9262394,23.2455755 C25.52018,23.0115988 26.0781242,22.7056294 26.3121008,22.2934707 C26.4380882,22.0954904 26.4560864,21.8633137 26.4020918,21.6473353 C26.330099,21.4313569 26.2041116,21.2171783 26.060126,21.0551945 C25.7541566,20.7132287 25.430189,20.4810519 25.2142106,20.3370663 C24.980234,20.1930807 24.8542466,20.1210879 24.8542466,20.1210879 Z M18.000532,9 C21.099822,9 23.6123708,11.5089491 23.6123708,14.6010399 C23.6123708,16.6564343 22.5018818,18.4526547 20.849647,19.4281572 C20.8514469,19.4281572 22.0447275,21.4979502 22.0465274,21.4979502 C22.2337086,21.8221749 22.0298147,22.2208902 21.6769398,22.2761953 L21.5929727,22.2826717 L14.4080912,22.2826717 C14.0337286,22.2826717 13.7897245,21.9071154 13.9181729,21.5753444 L13.9545366,21.49975 L15.1514169,19.429957 C13.4973823,18.4544546 12.3886931,16.6582342 12.3886931,14.6028397 C12.3886931,11.5089491 14.9012419,9 18.000532,9 Z M18.000532,11.3847615 C16.2187101,11.3847615 14.7752545,12.8246175 14.7752545,14.6028397 C14.7752545,16.3792621 16.2187102,17.8209179 18.000532,17.8209179 C19.7823538,17.8209179 21.2258094,16.3792621 21.2258094,14.6028397 C21.2258094,12.8264174 19.7823538,11.3847615 18.000532,11.3847615 Z M18.000532,12.6050395 C19.1038216,12.6050395 20.000132,13.4977502 20.000132,14.6010399 C20.000132,15.7043296 19.1038216,16.5970403 18.000532,16.5970403 C16.8954425,16.5970403 16.0009319,15.7025297 16.0009319,14.6010399 C16.0009319,14.5056494 16.0081312,14.4138586 16.0207299,14.3238676 C16.3374983,14.5038496 16.8144506,14.4012599 17.1618158,14.0538946 C17.5595761,13.6561344 17.6369683,13.0873913 17.3345986,12.7850215 C17.3184002,12.7688231 17.300402,12.7526247 17.2806039,12.7382262 C17.5037816,12.6518348 17.7467573,12.6050395 18.000532,12.6050395 Z" id="形状结合" fill="#C5CFE0"></path>
        </g>
    </g>
</svg>