<?xml version="1.0" encoding="UTF-8"?>
<svg width="36px" height="36px" viewBox="0 0 36 36" version="1.1" xmlns="http://www.w3.org/2000/svg" xmlns:xlink="http://www.w3.org/1999/xlink">
    <title>export</title>
    <defs>
        <linearGradient x1="50%" y1="0%" x2="50%" y2="95.6533653%" id="linearGradient-1">
            <stop stop-color="#E6E6E6" offset="0%"></stop>
            <stop stop-color="#E3E3E3" offset="100%"></stop>
        </linearGradient>
        <rect id="path-2" x="0" y="0" width="36" height="36" rx="8"></rect>
        <filter x="-8.3%" y="-8.3%" width="116.7%" height="116.7%" filterUnits="objectBoundingBox" id="filter-3">
            <feOffset dx="0" dy="2" in="SourceAlpha" result="shadowOffsetOuter1"></feOffset>
            <feGaussianBlur stdDeviation="2" in="shadowOffsetOuter1" result="shadowBlurOuter1"></feGaussianBlur>
            <feComposite in="shadowBlurOuter1" in2="SourceAlpha" operator="out" result="shadowBlurOuter1"></feComposite>
            <feColorMatrix values="0 0 0 0 0   0 0 0 0 0   0 0 0 0 0  0 0 0 0.05 0" type="matrix" in="shadowBlurOuter1"></feColorMatrix>
        </filter>
    </defs>
    <g id="浅色" stroke="none" stroke-width="1" fill="none" fill-rule="evenodd">
        <g id="V5.9需求" transform="translate(-647.000000, -179.000000)">
            <g id="操作日志" transform="translate(509.000000, 172.000000)">
                <g id="export" transform="translate(138.000000, 7.000000)">
                    <g id="矩形" opacity="0">
                        <use fill="black" fill-opacity="1" filter="url(#filter-3)" xlink:href="#path-2"></use>
                        <use fill-opacity="0.08" fill="#000000" fill-rule="evenodd" xlink:href="#path-2"></use>
                        <rect stroke-opacity="0.03" stroke="#000000" stroke-width="1" stroke-linejoin="square" fill="url(#linearGradient-1)" fill-rule="evenodd" x="0.5" y="0.5" width="35" height="35" rx="8"></rect>
                    </g>
                    <g id="编组" transform="translate(10.000000, 10.000000)" fill="#536076" fill-rule="nonzero">
                        <g id="形状结合">
                            <path d="M11.1146,1 C12.1558777,1 13,1.89528126 13,2.99966667 L13,4 L12,4 L12,2.99966667 C12,2.47518383 11.6464873,2.06278306 11.2153465,2.0065446 L11.1146,2 L3.8854,2 C3.44394883,2 3.05890392,2.3749377 3.0061498,2.88073289 L3,2.99966667 L3,13.0003333 C3,13.5248162 3.35351269,13.9372169 3.78465352,13.9934554 L3.8854,14 L11.1146,14 C11.5560512,14 11.9410961,13.6250623 11.9938502,13.1192671 L12,13.0003333 L12,12 L13,12 L13,13.0003333 C13,14.1047187 12.1558777,15 11.1146,15 L3.8854,15 C2.84412233,15 2,14.1047187 2,13.0003333 L2,2.99966667 C2,1.89528126 2.84412233,1 3.8854,1 L11.1146,1 Z M12.0259647,6.04117393 L15.0259647,8.54117393 L12.0259647,11.0411739 L12.025,8.99917393 L8,9 L8,8 L12.025,7.99917393 L12.0259647,6.04117393 Z"></path>
                        </g>
                    </g>
                </g>
            </g>
        </g>
    </g>
</svg>