<?xml version="1.0" encoding="UTF-8"?>
<svg width="20px" height="20px" viewBox="0 0 20 20" version="1.1" xmlns="http://www.w3.org/2000/svg" xmlns:xlink="http://www.w3.org/1999/xlink">
    <!-- Generator: Sketch 49.1 (51147) - http://www.bohemiancoding.com/sketch -->
    <title>Facebook</title>
    <desc>Created with Sketch.</desc>
    <defs>
        <linearGradient x1="50%" y1="0%" x2="50%" y2="96.9746492%" id="linearGradient-1">
            <stop stop-color="#7EA8FF" offset="0%"></stop>
            <stop stop-color="#2058CB" offset="100%"></stop>
        </linearGradient>
        <path d="M10,20 C15.5228478,20 20,15.5228478 20,10 C20,4.47715223 15.5228478,0 10,0 C4.47715223,0 0,4.47715223 0,10 C0,15.5228478 4.47715223,20 10,20 Z" id="path-2"></path>
        <filter x="-2.5%" y="-2.5%" width="105.0%" height="105.0%" filterUnits="objectBoundingBox" id="filter-3">
            <feMorphology radius="1" operator="erode" in="SourceAlpha" result="shadowSpreadInner1"></feMorphology>
            <feOffset dx="0" dy="0" in="shadowSpreadInner1" result="shadowOffsetInner1"></feOffset>
            <feComposite in="shadowOffsetInner1" in2="SourceAlpha" operator="arithmetic" k2="-1" k3="1" result="shadowInnerInner1"></feComposite>
            <feColorMatrix values="0 0 0 0 0   0 0 0 0 0   0 0 0 0 0  0 0 0 0.05 0" type="matrix" in="shadowInnerInner1"></feColorMatrix>
        </filter>
        <linearGradient x1="50%" y1="0%" x2="50%" y2="100%" id="linearGradient-4">
            <stop stop-color="#FFFFFF" offset="0%"></stop>
            <stop stop-color="#FFFFFF" stop-opacity="0.7" offset="80.200377%"></stop>
            <stop stop-color="#FFFFFF" stop-opacity="0.9" offset="100%"></stop>
        </linearGradient>
    </defs>
    <g id="Symbols" stroke="none" stroke-width="1" fill="none" fill-rule="evenodd">
        <g id="bottom_area" transform="translate(-60.000000, 0.000000)">
            <g id="Facebook">
                <g transform="translate(60.000000, 0.000000)">
                    <g id="Button-Shape">
                        <use fill="url(#linearGradient-1)" fill-rule="evenodd" xlink:href="#path-2"></use>
                        <use fill="black" fill-opacity="1" filter="url(#filter-3)" xlink:href="#path-2"></use>
                    </g>
                    <path d="M8.18488958,17.9257252 L8.18488958,10.9995845 L6.77731558,10.9995845 L6.77731558,8.70374254 L8.18488957,8.70374254 L8.18488958,7.31535457 C8.18488958,5.44265689 8.74479793,4.09224759 10.7952409,4.09224759 L13.2345438,4.09224759 L13.2345438,6.38337598 L11.5169018,6.38337598 C10.6567578,6.38337598 10.4607495,6.95495052 10.4607495,7.55350438 L10.4607495,8.70374212 L13.1077692,8.70374233 L12.7464691,10.9995845 L10.4607495,10.9995845 L10.4607495,17.9257249 L8.18488958,17.9257252 Z" id="Icon" fill="url(#linearGradient-4)"></path>
                </g>
            </g>
        </g>
    </g>
</svg>