<?xml version="1.0" encoding="UTF-8"?>
<svg width="32px" height="32px" viewBox="0 0 32 32" version="1.1" xmlns="http://www.w3.org/2000/svg" xmlns:xlink="http://www.w3.org/1999/xlink">
    <!-- Generator: Sketch 56.2 (81672) - https://sketch.com -->
    <title>dde-introduction-32px 2</title>
    <desc>Created with Sketch.</desc>
    <defs>
        <filter x="-14.3%" y="-13.8%" width="128.6%" height="127.6%" filterUnits="objectBoundingBox" id="filter-1">
            <feOffset dx="0" dy="1" in="SourceAlpha" result="shadowOffsetOuter1"></feOffset>
            <feGaussianBlur stdDeviation="0.5" in="shadowOffsetOuter1" result="shadowBlurOuter1"></feGaussianBlur>
            <feComposite in="shadowBlurOuter1" in2="SourceAlpha" operator="out" result="shadowBlurOuter1"></feComposite>
            <feColorMatrix values="0 0 0 0 0   0 0 0 0 0   0 0 0 0 0  0 0 0 0.15 0" type="matrix" in="shadowBlurOuter1" result="shadowMatrixOuter1"></feColorMatrix>
            <feMerge>
                <feMergeNode in="shadowMatrixOuter1"></feMergeNode>
                <feMergeNode in="SourceGraphic"></feMergeNode>
            </feMerge>
        </filter>
        <linearGradient x1="42.15262%" y1="0%" x2="42.1526194%" y2="100%" id="linearGradient-2">
            <stop stop-color="#00D8A5" offset="0%"></stop>
            <stop stop-color="#0058FF" offset="100%"></stop>
        </linearGradient>
    </defs>
    <g id="Page-1" stroke="none" stroke-width="1" fill="none" fill-rule="evenodd">
        <g id="welcome_screen2" transform="translate(-10.000000, -8.000000)">
            <g id="main_frame">
                <g id="dde-introduction-32px-2" transform="translate(10.000000, 8.000000)">
                    <g id="dde-introduction-32px">
                        <g id="编组" filter="url(#filter-1)" transform="translate(2.000000, 1.659522)">
                            <circle id="Mask" fill="url(#linearGradient-2)" cx="14" cy="14.3404784" r="14"></circle>
                            <path d="M10.7431428,23.2127429 L20.9054131,23.2898704 C20.9087335,23.2898914 20.9087335,23.2898914 20.9120538,23.2898956 C21.395303,23.2898956 21.7870538,22.8981448 21.7870538,22.4148956 L21.7870538,10.922476 C21.7870538,7.85868959 19.3033643,5.375 16.2395779,5.375 C16.231828,5.37500362 16.231828,5.37500362 16.2240782,5.37502172 C13.1694573,5.38358198 10.7001373,7.86678094 10.7086975,10.9214018 L10.7431428,23.2127429 Z" id="Rectangle" stroke="#373737" stroke-width="0.75" fill="#404040" transform="translate(16.247865, 14.332448) rotate(-315.000000) translate(-16.247865, -14.332448) "></path>
                            <path d="M8.72070449,8.1931144 L19.6156061,8.1931144 C20.305962,8.1931144 20.8656061,8.75275846 20.8656061,9.4431144 L20.8656061,19.1533112 C20.8656061,19.8436671 20.305962,20.4033112 19.6156061,20.4033112 L8.72070449,20.4033112 C5.34895175,20.4033112 2.6156061,17.6699655 2.6156061,14.2982128 C2.6156061,10.9264601 5.34895175,8.1931144 8.72070449,8.1931144 Z" id="Rectangle-13" fill="#FFFFFF" transform="translate(11.740606, 14.298213) rotate(-315.000000) translate(-11.740606, -14.298213) "></path>
                            <rect id="Rectangle-2" stroke="#373737" stroke-width="0.875" fill="#606060" transform="translate(17.722383, 16.275325) rotate(-315.000000) translate(-17.722383, -16.275325) " x="14.6075991" y="16.263921" width="6.22956731" height="1"></rect>
                            <rect id="Rectangle-2" stroke="#373737" stroke-width="0.875" fill="#606060" transform="translate(15.861128, 18.179865) rotate(-315.000000) translate(-15.861128, -18.179865) " x="12.7463445" y="18.1684606" width="6.22956731" height="1"></rect>
                            <path d="M7.24433027,18.4545047 L10.1313124,18.4475346 L10.0780753,15.9277233 C10.0614766,15.142075 9.41983362,14.5138451 8.63401006,14.5138451 C8.63155582,14.5138466 8.63155582,14.5138466 8.62910159,14.5138537 C7.85668486,14.5165646 7.23271498,15.1449297 7.23542586,15.9173464 L7.24433027,18.4545047 Z" id="Rectangle-14" stroke="#373737" stroke-width="0.875" fill="#404040" transform="translate(8.688024, 16.484702) rotate(-315.000000) translate(-8.688024, -16.484702) "></path>
                            <path d="M9.16502496,20.3202801 L11.915302,20.2894006 L11.915302,17.7184382 C11.915302,16.9909092 11.3255233,16.4011305 10.5979944,16.4011305 C9.85848376,16.4011305 9.25355124,16.9901953 9.23389919,17.7294447 L9.16502496,20.3202801 Z" id="Rectangle-14" stroke="#373737" stroke-width="0.875" fill="#404040" transform="translate(10.534204, 18.363242) rotate(-315.000000) translate(-10.534204, -18.363242) "></path>
                            <path d="M11.1376957,22.240143 L13.7723111,22.240143 L13.7723111,19.6740652 C13.7723111,18.9465362 13.1825323,18.3567575 12.4550034,18.3567575 C11.7274744,18.3567575 11.1376957,18.9465362 11.1376957,19.6740652 L11.1376957,22.240143 Z" id="Rectangle-14" stroke="#373737" stroke-width="0.875" fill="#404040" transform="translate(12.455003, 20.298450) rotate(-315.000000) translate(-12.455003, -20.298450) "></path>
                            <path d="M12.9732518,24.2081673 L14.9708479,24.2081673 C15.4195793,24.2081673 15.7833479,23.8443986 15.7833479,23.3956673 L15.7833479,21.7298299 C15.7833479,20.9538432 15.1542865,20.3247818 14.3782998,20.3247818 C13.6023132,20.3247818 12.9732518,20.9538432 12.9732518,21.7298299 L12.9732518,24.2081673 Z" id="Rectangle-14" stroke="#373737" stroke-width="0.875" fill="#404040" transform="translate(14.378300, 22.266475) rotate(-315.000000) translate(-14.378300, -22.266475) "></path>
                            <path d="M14.5874577,7.863128 L14.5874577,11.2898277 C14.5874577,13.1297719 13.2125629,14.6213414 11.5165443,14.6213414 L11.5165443,7.863128 L11.5165443,7.863128" id="Rectangle-15" stroke="#373737" stroke-width="0.875" fill="#404040" transform="translate(13.052001, 11.242235) rotate(-315.000000) translate(-13.052001, -11.242235) "></path>
                        </g>
                        <g id="Group" transform="translate(2.000000, 5.000000)"></g>
                    </g>
                </g>
            </g>
        </g>
    </g>
</svg>