<?xml version="1.0" encoding="UTF-8"?>
<svg width="20px" height="20px" viewBox="0 0 20 20" version="1.1" xmlns="http://www.w3.org/2000/svg" xmlns:xlink="http://www.w3.org/1999/xlink">
    <!-- Generator: Sketch 49.1 (51147) - http://www.bohemiancoding.com/sketch -->
    <title>Twitter</title>
    <desc>Created with Sketch.</desc>
    <defs>
        <linearGradient x1="50%" y1="0%" x2="50%" y2="97.5745376%" id="linearGradient-1">
            <stop stop-color="#47B3FF" offset="0%"></stop>
            <stop stop-color="#007FDE" offset="100%"></stop>
        </linearGradient>
        <path d="M10,20 C15.5228478,20 20,15.5228478 20,10 C20,4.47715223 15.5228478,0 10,0 C4.47715223,0 0,4.47715223 0,10 C0,15.5228478 4.47715223,20 10,20 Z" id="path-2"></path>
        <filter x="-2.5%" y="-2.5%" width="105.0%" height="105.0%" filterUnits="objectBoundingBox" id="filter-3">
            <feMorphology radius="1" operator="erode" in="SourceAlpha" result="shadowSpreadInner1"></feMorphology>
            <feOffset dx="0" dy="0" in="shadowSpreadInner1" result="shadowOffsetInner1"></feOffset>
            <feComposite in="shadowOffsetInner1" in2="SourceAlpha" operator="arithmetic" k2="-1" k3="1" result="shadowInnerInner1"></feComposite>
            <feColorMatrix values="0 0 0 0 0   0 0 0 0 0   0 0 0 0 0  0 0 0 0.05 0" type="matrix" in="shadowInnerInner1"></feColorMatrix>
        </filter>
        <linearGradient x1="50%" y1="0%" x2="50%" y2="100%" id="linearGradient-4">
            <stop stop-color="#FFFFFF" offset="0%"></stop>
            <stop stop-color="#FFFFFF" stop-opacity="0.7" offset="80.200377%"></stop>
            <stop stop-color="#FFFFFF" stop-opacity="0.9" offset="100%"></stop>
        </linearGradient>
    </defs>
    <g id="Symbols" stroke="none" stroke-width="1" fill="none" fill-rule="evenodd">
        <g id="bottom_area" transform="translate(-30.000000, 0.000000)">
            <g id="Twitter">
                <g transform="translate(30.000000, 0.000000)">
                    <g id="Button-Shape">
                        <use fill="url(#linearGradient-1)" fill-rule="evenodd" xlink:href="#path-2"></use>
                        <use fill="black" fill-opacity="1" filter="url(#filter-3)" xlink:href="#path-2"></use>
                    </g>
                    <path d="M14.4208554,6.37467771 C13.9372738,5.8248806 13.2482154,5.47458564 12.4856246,5.46189241 C11.02144,5.43752124 9.83426154,6.67476936 9.83426154,8.22524642 C9.83426154,8.44529647 9.85771692,8.65987735 9.90294769,8.86586926 C7.69943385,8.72294103 5.74578769,7.57550824 4.43816615,5.84588872 C4.20994462,6.26034468 4.07916308,6.74475308 4.07916308,7.26366015 C4.07916308,8.24599538 4.54723692,9.1178109 5.25865231,9.63256696 C4.82404923,9.61337997 4.41522769,9.48181513 4.05777538,9.26598081 C4.05751692,9.27777799 4.05751692,9.28957798 4.05751692,9.30158498 C4.05751692,10.6734199 4.97143692,11.8242831 6.18433231,12.0923753 C5.96186154,12.1554152 5.72763077,12.1884065 5.48584,12.1868032 C5.31499692,12.1856703 5.14887077,12.1667247 4.98700923,12.1327072 C5.32436615,13.2577511 6.30348308,14.0787065 7.46371692,14.1058512 C6.55632308,14.8590785 5.41314769,15.3076773 4.17091692,15.3051148 C3.95691077,15.3046733 3.74587692,15.2908448 3.53846154,15.2642399 C4.71181231,16.0693256 6.10543692,16.5380684 7.60270462,16.5384612 C12.4794215,16.5397407 15.1462923,12.2958043 15.1462923,8.61470747 C15.1462923,8.49393453 15.1436431,8.37380765 15.1386031,8.25426078 C15.6566246,7.86826658 16.1060892,7.38431566 16.4615385,6.8316876 C15.9860985,7.04600646 15.4750554,7.18834745 14.9388123,7.24805516 C15.4861692,6.91118607 15.9066215,6.37203843 16.1045385,5.72550336 C15.5922031,6.03619692 15.0248154,6.25900514 14.4208554,6.37467771 Z" id="Icon" fill="url(#linearGradient-4)"></path>
                </g>
            </g>
        </g>
    </g>
</svg>