<?xml version="1.0" encoding="UTF-8"?>
<svg width="12px" height="12px" viewBox="0 0 12 12" version="1.1" xmlns="http://www.w3.org/2000/svg" xmlns:xlink="http://www.w3.org/1999/xlink">
    <title>icon/maximize</title>
    <g id="SP2影音" stroke="none" stroke-width="1" fill="none" fill-rule="evenodd">
        <g id="icon/maximize" fill="#FFFFFF">
            <path d="M10,1 C10.5522847,1 11,1.44771525 11,2 L11,10 C11,10.5522847 10.5522847,11 10,11 L2,11 C1.44771525,11 1,10.5522847 1,10 L1,2 C1,1.44771525 1.44771525,1 2,1 L10,1 M10,0 L2,0 C0.8954305,0 0,0.8954305 0,2 L0,10 C0,11.1045695 0.8954305,12 2,12 L10,12 C11.1045695,12 12,11.1045695 12,10 L12,2 C12,0.8954305 11.1045695,0 10,0 Z" id="lightmode/icon/maximize"></path>
        </g>
    </g>
</svg>