<?xml version="1.0" encoding="UTF-8"?>
<svg width="32px" height="32px" viewBox="0 0 32 32" version="1.1" xmlns="http://www.w3.org/2000/svg" xmlns:xlink="http://www.w3.org/1999/xlink">
    <defs>
        <linearGradient x1="50%" y1="30.9668065%" x2="50%" y2="105.246241%" id="linearGradient-1">
            <stop stop-color="#FFFFFF" offset="0%"></stop>
            <stop stop-color="#E7E7E7" offset="99.9317089%"></stop>
        </linearGradient>
        <path d="M12.5,0 C16.0966604,0 19.1020091,2.53170675 19.8311804,5.91025466 C19.8707848,6.04480712 19.9057919,6.18077912 19.9356475,6.31789422 C22.2988329,7.12331565 24,9.36299339 24,12 C24,12.0578285 23.9991819,12.115466 23.9975566,12.1729014 C23.9992205,12.2255242 24,12.2793406 24,12.3333333 C24,15.3918193 21.4986168,17.8843733 18.229315,17.9960914 L18,18 L18,18 L7,18 L7,18 C6.94389355,18 6.88232713,17.9814928 6.81603956,17.9459741 C6.54906105,17.9812673 6.27671815,18 6,18 C2.6862915,18 0,15.3137085 0,12 C0,8.98753773 2.22007562,6.4936019 5.11336397,6.06505541 L5.13757151,6.06273946 C5.80803145,2.60816931 8.84943043,0 12.5,0 Z" id="path-2"></path>
        <filter x="-29.2%" y="-27.8%" width="158.3%" height="177.8%" filterUnits="objectBoundingBox" id="filter-3">
            <feOffset dx="0" dy="2" in="SourceAlpha" result="shadowOffsetOuter1"></feOffset>
            <feGaussianBlur stdDeviation="2" in="shadowOffsetOuter1" result="shadowBlurOuter1"></feGaussianBlur>
            <feColorMatrix values="0 0 0 0 0.758027008   0 0 0 0 0.758027008   0 0 0 0 0.758027008  0 0 0 0.2 0" type="matrix" in="shadowBlurOuter1"></feColorMatrix>
        </filter>
        <filter x="-22.9%" y="-19.4%" width="145.8%" height="161.1%" filterUnits="objectBoundingBox" id="filter-4">
            <feGaussianBlur stdDeviation="1" in="SourceAlpha" result="shadowBlurInner1"></feGaussianBlur>
            <feOffset dx="0" dy="-1" in="shadowBlurInner1" result="shadowOffsetInner1"></feOffset>
            <feComposite in="shadowOffsetInner1" in2="SourceAlpha" operator="arithmetic" k2="-1" k3="1" result="shadowInnerInner1"></feComposite>
            <feColorMatrix values="0 0 0 0 0.764532559   0 0 0 0 0.763059363   0 0 0 0 0.763059363  0 0 0 0.5 0" type="matrix" in="shadowInnerInner1"></feColorMatrix>
        </filter>
    </defs>
    <g id="v23主页400" stroke="none" stroke-width="1" fill="none" fill-rule="evenodd">
        <g id="控制中心_Union-ID-系统设置展开2" transform="translate(-700.000000, -499.000000)" fill-rule="nonzero">
            <g id="控制中心" transform="translate(500.000000, 193.000000)">
                <g id="-mockplus-" transform="translate(180.000000, 50.000000)">
                    <g id="-mockplus-" transform="translate(10.000000, 248.000000)">
                        <g id="-mockplus-" transform="translate(10.000000, 8.000000)">
                            <g id="形状结合" transform="translate(4.000000, 7.000000)">
                                <use fill="black" fill-opacity="1" filter="url(#filter-3)" xlink:href="#path-2"></use>
                                <use fill="url(#linearGradient-1)" xlink:href="#path-2"></use>
                                <use fill="black" fill-opacity="1" filter="url(#filter-4)" xlink:href="#path-2"></use>
                            </g>
                        </g>
                    </g>
                </g>
            </g>
        </g>
    </g>
</svg>