<svg xmlns="http://www.w3.org/2000/svg" width="16" height="16" viewBox="0 0 16 16">
  <path fill="#FFF" d="M8,2 C11.3137085,2 14,4.6862915 14,8 C14,11.3137085 11.3137085,14 8,14 C4.6862915,14 2,11.3137085 2,8 C2,4.6862915 4.6862915,2 8,2 Z M8,3 C5.23857625,3 3,5.23857625 3,8 C3,10.7614237 5.23857625,13 8,13 C10.7614237,13 13,10.7614237 13,8 C13,5.23857625 10.7614237,3 8,3 Z M7.5,4 C7.74545989,4 7.94960837,4.17687516 7.99194433,4.41012437 L8,4.5 L8,8 L11.5,8 C11.7454599,8 11.9496084,8.17687516 11.9919443,8.41012437 L12,8.5 C12,8.74545989 11.8231248,8.94960837 11.5898756,8.99194433 L11.5,9 L7.5,9 C7.25454011,9 7.05039163,8.82312484 7.00805567,8.58987563 L7,8.5 L7,4.5 C7,4.22385763 7.22385763,4 7.5,4 Z"/>
</svg>
