<svg xmlns="http://www.w3.org/2000/svg" width="16" height="16" viewBox="0 0 16 16">
  <g fill="#FFF" fill-rule="evenodd" transform="translate(2 2)">
    <circle cx="2.457" cy="8.045" r="1.636" opacity=".01" transform="rotate(-120 2.457 8.045)"/>
    <circle cx="2.156" cy="7.399" r="1.636" opacity=".02" transform="rotate(-110 2.156 7.4)"/>
    <circle cx="1.971" cy="6.71" r="1.636" opacity=".03" transform="rotate(-100 1.971 6.71)"/>
    <circle cx="1.909" cy="6" r="1.636" opacity=".04" transform="rotate(-90 1.91 6)"/>
    <circle cx="1.971" cy="5.29" r="1.636" opacity=".05" transform="rotate(-80 1.971 5.29)"/>
    <circle cx="2.156" cy="4.601" r="1.636" opacity=".1" transform="rotate(-70 2.156 4.6)"/>
    <circle cx="2.457" cy="3.955" r="1.636" opacity=".15" transform="rotate(-60 2.457 3.955)"/>
    <circle cx="2.866" cy="3.37" r="1.636" opacity=".3" transform="rotate(-50 2.866 3.37)"/>
    <circle cx="3.37" cy="2.866" r="1.636" transform="rotate(-40 3.37 2.866)"/>
    <circle cx="6" cy="1.909" r="1.636" opacity=".01"/>
    <circle cx="6.71" cy="1.971" r="1.636" opacity=".02" transform="rotate(10 6.71 1.971)"/>
    <circle cx="7.399" cy="2.156" r="1.636" opacity=".03" transform="rotate(20 7.4 2.156)"/>
    <circle cx="8.045" cy="2.457" r="1.636" opacity=".04" transform="rotate(30 8.045 2.457)"/>
    <circle cx="8.63" cy="2.866" r="1.636" opacity=".05" transform="rotate(40 8.63 2.866)"/>
    <circle cx="9.134" cy="3.37" r="1.636" opacity=".1" transform="rotate(50 9.134 3.37)"/>
    <circle cx="9.543" cy="3.955" r="1.636" opacity=".15" transform="rotate(60 9.543 3.955)"/>
    <circle cx="9.844" cy="4.601" r="1.636" opacity=".3" transform="rotate(70 9.844 4.6)"/>
    <circle cx="10.029" cy="5.29" r="1.636" transform="rotate(80 10.029 5.29)"/>
    <circle cx="9.543" cy="8.045" r="1.636" opacity=".01" transform="rotate(120 9.543 8.045)"/>
    <circle cx="9.134" cy="8.63" r="1.636" opacity=".02" transform="rotate(130 9.134 8.63)"/>
    <circle cx="8.63" cy="9.134" r="1.636" opacity=".03" transform="rotate(140 8.63 9.134)"/>
    <circle cx="8.045" cy="9.543" r="1.636" opacity=".04" transform="rotate(150 8.045 9.543)"/>
    <circle cx="7.399" cy="9.844" r="1.636" opacity=".05" transform="rotate(160 7.4 9.844)"/>
    <circle cx="6.71" cy="10.029" r="1.636" opacity=".1" transform="rotate(170 6.71 10.029)"/>
    <circle cx="6" cy="10.091" r="1.636" opacity=".15" transform="rotate(180 6 10.09)"/>
    <circle cx="5.29" cy="10.029" r="1.636" opacity=".3" transform="rotate(-170 5.29 10.029)"/>
    <circle cx="4.601" cy="9.844" r="1.636" transform="rotate(-160 4.6 9.844)"/>
  </g>
</svg>
