<?xml version="1.0" encoding="UTF-8"?>
<svg width="16px" height="16px" viewBox="0 0 16 16" version="1.1"
    xmlns="http://www.w3.org/2000/svg"
    xmlns:xlink="http://www.w3.org/1999/xlink">
    <title>password_hint</title>
    <g id="password_hint" stroke="none" stroke-width="1" fill="none" fill-rule="evenodd">
        <rect id="矩形" x="0" y="0" width="16" height="16"></rect>
        <path d="M9,15 C9.27614237,15 9.5,15.2238576 9.5,15.5 C9.5,15.7761424 9.27614237,16 9,16 L7,16 C6.72385763,16 6.5,15.7761424 6.5,15.5 C6.5,15.2238576 6.72385763,15 7,15 L9,15 Z M10,13 C10.2761424,13 10.5,13.2238576 10.5,13.5 C10.5,13.7761424 10.2761424,14 10,14 L6,14 C5.72385763,14 5.5,13.7761424 5.5,13.5 C5.5,13.2238576 5.72385763,13 6,13 L10,13 Z M8,0 C11.0375661,0 13.5,2.46243388 13.5,5.5 C13.5,7.43049499 12.5053954,9.12868763 11.0006599,10.1101043 L11.0001746,11.5 C10.9999036,11.7760742 10.7760742,11.9998254 10.5,12 L5.5,12 C5.25454011,12.0000777 5.05039163,11.8232111 5.00805567,11.5899629 L5.00008737,11.5 L5.00033014,10.1107499 C3.49504085,9.12943244 2.5,7.43091834 2.5,5.5 C2.5,2.46243388 4.96243388,0 8,0 Z M8,1 C5.51471863,1 3.5,3.01471863 3.5,5.5 C3.5,6.9594659 4.19924114,8.29843401 5.35043627,9.13783048 L5.54644448,9.27303923 L6.00042482,9.56899485 L6,11 L10,11 L10.000849,9.56830302 L10.4543658,9.27251089 C11.721257,8.44622069 12.5,7.04020478 12.5,5.5 C12.5,3.01471863 10.4852814,1 8,1 Z M7.3197379,2.53468128 C7.42497485,2.78998462 7.303322,3.08226028 7.04801866,3.18749722 C6.29185462,3.49919073 5.72967168,4.16710671 5.55640131,4.96899792 C5.49807923,5.23891113 5.23199194,5.41043964 4.96207872,5.35211756 C4.6921655,5.29379548 4.52063699,5.0277082 4.57895907,4.75779498 C4.82193157,3.63332395 5.60795052,2.69947384 6.66692196,2.26296204 C6.9222253,2.15772509 7.21450095,2.27937794 7.3197379,2.53468128 Z" id="形状结合" fill="#FFFFFF"></path>
    </g>
</svg>
