<?xml version="1.0" encoding="UTF-8"?>
<svg width="24px" height="24px" viewBox="0 0 24 24" version="1.1"
    xmlns="http://www.w3.org/2000/svg"
    xmlns:xlink="http://www.w3.org/1999/xlink">
    <title>再次尝试</title>
    <g id="登录" stroke="none" stroke-width="1" fill="none" fill-rule="evenodd">
        <g id="登录-人脸识别-再次扫描" transform="translate(-1048.000000, -633.000000)">
            <g id="再次尝试" transform="translate(1048.000000, 633.000000)">
                <rect id="矩形" x="0" y="0" width="24" height="24"></rect>
                <g id="编组" transform="translate(4.000000, 4.000000)" fill="#FFFFFF" fill-rule="nonzero">
                    <g id="ICON-/-Action-/-Redo">
                        <path d="M8.25,1.25 C11.9779221,1.25 15,4.27207794 15,8 C15,11.7279221 11.9779221,14.75 8.25,14.75 C4.60139543,14.75 1.62891859,11.855153 1.50408192,8.23697157 L1.5,8 L3,8 C3,10.8994949 5.35050506,13.25 8.25,13.25 C11.1494949,13.25 13.5,10.8994949 13.5,8 C13.5,5.10050506 11.1494949,2.75 8.25,2.75 C6.58616267,2.75 5.05498452,3.52899825 4.07098053,4.82159166 L6.25,7 L1.25,7 L1.25,2 L3.00278097,3.75339247 C4.26965566,2.18843573 6.18108259,1.25 8.25,1.25 Z" id="形状结合" transform="translate(8.125000, 8.000000) scale(-1, 1) translate(-8.125000, -8.000000) "></path>
                    </g>
                </g>
            </g>
        </g>
    </g>
</svg>
