<?xml version="1.0" encoding="UTF-8"?>
<svg width="32px" height="32px" viewBox="0 0 32 32" version="1.1" xmlns="http://www.w3.org/2000/svg" xmlns:xlink="http://www.w3.org/1999/xlink">
    <title>icon</title>
    <defs>
        <filter x="-7.0%" y="-3.7%" width="114.1%" height="114.8%" filterUnits="objectBoundingBox" id="filter-1">
            <feOffset dx="0" dy="1" in="SourceAlpha" result="shadowOffsetOuter1"></feOffset>
            <feGaussianBlur stdDeviation="0.5" in="shadowOffsetOuter1" result="shadowBlurOuter1"></feGaussianBlur>
            <feColorMatrix values="0 0 0 0 0   0 0 0 0 0   0 0 0 0 0  0 0 0 0.15 0" type="matrix" in="shadowBlurOuter1" result="shadowMatrixOuter1"></feColorMatrix>
            <feMerge>
                <feMergeNode in="shadowMatrixOuter1"></feMergeNode>
                <feMergeNode in="SourceGraphic"></feMergeNode>
            </feMerge>
        </filter>
        <linearGradient x1="20.9329173%" y1="8.8817842e-14%" x2="20.9329173%" y2="90.355637%" id="linearGradient-2">
            <stop stop-color="#0074FF" offset="0%"></stop>
            <stop stop-color="#AA72E4" offset="100%"></stop>
        </linearGradient>
        <linearGradient x1="50%" y1="0%" x2="50%" y2="100%" id="linearGradient-3">
            <stop stop-color="#050000" stop-opacity="0.203497186" offset="0%"></stop>
            <stop stop-color="#020000" stop-opacity="0.3" offset="100%"></stop>
        </linearGradient>
        <linearGradient x1="50%" y1="0%" x2="50%" y2="98.1385523%" id="linearGradient-4">
            <stop stop-color="#FFFFFF" offset="0%"></stop>
            <stop stop-color="#EDEDED" offset="100%"></stop>
        </linearGradient>
        <linearGradient x1="86.4262295%" y1="26.0074409%" x2="20.9329173%" y2="86.6088176%" id="linearGradient-5">
            <stop stop-color="#4440A6" offset="0%"></stop>
            <stop stop-color="#7373DD" offset="100%"></stop>
        </linearGradient>
    </defs>
    <g id="icon" stroke="none" stroke-width="1" fill="none" fill-rule="evenodd">
        <g id="编组" filter="url(#filter-1)" transform="translate(1.8125, 2.5)">
            <path d="M21.4375,0.5 C22.4902928,0.5 23.4434178,0.926728598 24.1333446,1.6166554 C24.8232714,2.3065822 25.25,3.2597072 25.25,4.3125 L25.25,20.1875 C25.25,21.2402928 24.8232714,22.1934178 24.1333446,22.8833446 C23.4434178,23.5732714 22.4902928,24 21.4375,24 L4.3125,24 C3.2597072,24 2.3065822,23.5732714 1.6166554,22.8833446 C0.926728598,22.1934178 0.5,21.2402928 0.5,20.1875 L0.5,4.3125 C0.5,3.2597072 0.926728598,2.3065822 1.6166554,1.6166554 C2.3065822,0.926728598 3.2597072,0.5 4.3125,0.5 Z" id="矩形" stroke="url(#linearGradient-3)" fill="url(#linearGradient-2)"></path>
            <path d="M13.5625,11.625 L25.375,11.625 C27.0318542,11.625 28.375,12.9681458 28.375,14.625 L28.375,24 C28.375,25.6568542 27.0318542,27 25.375,27 L13.5625,27 C11.9056458,27 10.5625,25.6568542 10.5625,24 L10.5625,14.625 C10.5625,12.9681458 11.9056458,11.625 13.5625,11.625 Z" id="矩形" fill="url(#linearGradient-4)"></path>
            <path d="M24.6031967,14.4686072 C24.7189741,14.6102782 24.7203154,14.8135007 24.6064181,14.9566875 L18.765328,22.2986272 L20.515008,24.143987 L14.402328,23.6091968 L14.8758534,18.1967769 L16.416328,19.8226272 L24.1480787,14.4057522 C24.2928449,14.304322 24.4913417,14.3317358 24.6031967,14.4686072 Z" id="形状结合" fill="url(#linearGradient-5)" transform="translate(19.5466, 19.2443) rotate(85) translate(-19.5466, -19.2443)"></path>
        </g>
    </g>
</svg>