<?xml version="1.0" encoding="UTF-8"?>
<svg width="20px" height="20px" viewBox="0 0 20 20" version="1.1" xmlns="http://www.w3.org/2000/svg" xmlns:xlink="http://www.w3.org/1999/xlink">
    <title>编组 18</title>
    <g id="页面-1" stroke="none" stroke-width="1" fill="none" fill-rule="evenodd">
        <g id="自定义日程" transform="translate(-654.000000, -1222.000000)">
            <g id="编组-13" transform="translate(66.000000, 910.000000)">
                <g id="编组-11" transform="translate(196.000000, 304.000000)">
                    <g id="编组-18" transform="translate(392.000000, 8.000000)">
                        <rect id="矩形" x="0" y="0" width="20" height="20"></rect>
                        <g id="编组" fill="#626E88" fill-rule="nonzero">
                            <g id="icon/schedule/delete">
                                <path d="M16.7428709,4.67485247 C17.1040914,5.03607298 17.1040914,5.62172714 16.7428709,5.98294764 L11.0541574,11.6716612 C10.9252286,11.8005899 10.7610705,11.8885379 10.5823101,11.924454 L8.94896593,12.2526218 C8.4481318,12.3532482 7.96055166,12.0288158 7.8599252,11.5279817 C7.83586996,11.4082548 7.83576123,11.2849497 7.8596053,11.1651806 L8.18548388,9.52828802 C8.22119321,9.34891958 8.30927493,9.18416292 8.43859661,9.05484124 L14.1266806,3.3667573 C14.4879011,3.0055368 15.0735552,3.0055368 15.4347757,3.3667573 L16.7428709,4.67485247 Z M16.0116766,5.38074701 L14.7288812,4.0979516 L9.15081001,9.67602278 L8.83123422,11.2812563 L10.432988,10.9594356 L16.0116766,5.38074701 Z" id="形状结合"></path>
                                <path d="M9.99944444,4.44444444 L9.99944444,5.55544444 L5.55555556,5.55555556 L5.55555556,14.4444444 L14.4444444,14.4444444 L14.4444444,9.99944444 L15.5554444,9.99944444 L15.5555556,14.4555556 C15.5555556,15.0630688 15.0630688,15.5555556 14.4555556,15.5555556 L5.54444444,15.5555556 C4.93693122,15.5555556 4.44444444,15.0630688 4.44444444,14.4555556 L4.44444444,5.54444444 C4.44444444,4.93693122 4.93693122,4.44444444 5.54444444,4.44444444 L9.99944444,4.44444444 Z" id="形状结合"></path>
                            </g>
                        </g>
                    </g>
                </g>
            </g>
        </g>
    </g>
</svg>