<?xml version="1.0" encoding="UTF-8"?>
<svg width="20px" height="20px" viewBox="0 0 20 20" version="1.1" xmlns="http://www.w3.org/2000/svg" xmlns:xlink="http://www.w3.org/1999/xlink">
    <title>icon/schedule/delete</title>
    <g id="页面-1" stroke="none" stroke-width="1" fill="none" fill-rule="evenodd">
        <g id="自定义日程" transform="translate(-690.000000, -1222.000000)">
            <g id="编组-13" transform="translate(66.000000, 910.000000)">
                <g id="编组-11" transform="translate(196.000000, 304.000000)">
                    <g id="编组-20" transform="translate(428.000000, 8.000000)">
                        <rect id="矩形" x="0" y="0" width="20" height="20"></rect>
                        <g id="编组" fill="#626E88" fill-rule="nonzero">
                            <g id="icon/schedule/delete">
                                <path d="M15,7.77777778 C15.3068249,7.77777778 15.5555556,8.02650847 15.5555556,8.33333333 L15.5555556,8.33333333 L15.5555556,15.0222222 C15.5555556,16.2372487 14.570582,17.2222222 13.3555556,17.2222222 L7.75555556,17.2222222 C6.54052911,17.2222222 5.55555556,16.2372487 5.55555556,15.0222222 L5.55555556,8.33333333 L5.56282684,8.24321934 C5.60588264,7.97924964 5.83496874,7.77777778 6.11111111,7.77777778 C6.38725349,7.77777778 6.61633959,7.97924964 6.65939538,8.24321934 L6.66666667,8.33333333 L6.66666667,15.0111111 C6.66666667,15.5781235 7.09567737,16.044935 7.64680955,16.1046565 L7.76666667,16.1111111 L13.3444444,16.1111111 C13.9114568,16.1111111 14.3782683,15.6821004 14.4379898,15.1309682 L14.4444444,15.0111111 L14.4444444,8.33333333 L14.4517157,8.24321934 C14.4947715,7.97924964 14.7238576,7.77777778 15,7.77777778 Z M9.45,7.77777778 C9.75375661,7.77777778 10,8.02402117 10,8.32777778 L10,11.6722222 C10,11.9759788 9.75375661,12.2222222 9.45,12.2222222 L9.43888889,12.2222222 C9.13513228,12.2222222 8.88888889,11.9759788 8.88888889,11.6722222 L8.88888889,8.32777778 C8.88888889,8.02402117 9.13513228,7.77777778 9.43888889,7.77777778 L9.45,7.77777778 Z M11.6722222,7.77777778 C11.9759788,7.77777778 12.2222222,8.02402117 12.2222222,8.32777778 L12.2222222,11.6722222 C12.2222222,11.9759788 11.9759788,12.2222222 11.6722222,12.2222222 L11.6611111,12.2222222 C11.3573545,12.2222222 11.1111111,11.9759788 11.1111111,11.6722222 L11.1111111,8.32777778 C11.1111111,8.02402117 11.3573545,7.77777778 11.6611111,7.77777778 L11.6722222,7.77777778 Z M12.2333333,3.33333333 C12.8408466,3.33333333 13.3333333,3.82582011 13.3333333,4.43333333 L13.3324444,5.55533333 L16.1166667,5.55555556 C16.4204233,5.55555556 16.6666667,5.80179894 16.6666667,6.10555556 L16.6666667,6.11666667 C16.6666667,6.42042328 16.4204233,6.66666667 16.1166667,6.66666667 L4.99444444,6.66666667 C4.69068783,6.66666667 4.44444444,6.42042328 4.44444444,6.11666667 L4.44444444,6.10555556 C4.44444444,5.80179894 4.69068783,5.55555556 4.99444444,5.55555556 L7.77744444,5.55533333 L7.77777778,4.43333333 C7.77777778,3.82582011 8.27026455,3.33333333 8.87777778,3.33333333 L12.2333333,3.33333333 Z M12.2222222,4.44444444 L8.88888889,4.44444444 L8.88888889,5.55555556 L12.2222222,5.55555556 L12.2222222,4.44444444 Z" id="形状结合"></path>
                            </g>
                        </g>
                    </g>
                </g>
            </g>
        </g>
    </g>
</svg>