<?xml version="1.0" encoding="UTF-8"?>
<svg width="36px" height="36px" viewBox="0 0 36 36" version="1.1" xmlns="http://www.w3.org/2000/svg" xmlns:xlink="http://www.w3.org/1999/xlink">
    <title>retest</title>
    <g id="驱动管理一期1052dark" stroke="none" stroke-width="1" fill="none" fill-rule="evenodd">
        <g id="retest">
            <rect id="矩形" x="0" y="0" width="36" height="36" rx="8"></rect>
            <path d="M18,12 C21.3137085,12 24,14.6862915 24,18 C24,21.3137085 21.3137085,24 18,24 C15.3556388,24 13.0461538,22.2740229 12.2710342,19.7878974 L12.2710342,19.7878974 L13.2257101,19.4902503 C13.8714674,21.561458 15.796343,23 18,23 C20.7614237,23 23,20.7614237 23,18 C23,15.2385763 20.7614237,13 18,13 C16.2224765,13 14.6073148,13.934722 13.7092267,15.4314202 L13.7617864,15.347 L15.5857864,17.1715729 L11.5857864,17.1715729 L11.5857864,13.1715729 L13.0386218,14.6247849 C14.1442255,13.0011232 15.9857451,12 18,12 Z" id="形状结合" fill="#536076"></path>
        </g>
    </g>
</svg>