<?xml version="1.0" encoding="UTF-8"?>
<svg width="27px" height="20px" viewBox="0 0 27 20" version="1.1" xmlns="http://www.w3.org/2000/svg" xmlns:xlink="http://www.w3.org/1999/xlink">
    <title>视频</title>
    <g id="v5.9" stroke="none" stroke-width="1" fill="none" fill-rule="evenodd" fill-opacity="0.25">
        <g id="相册-个人收藏-2" transform="translate(-1172.000000, -597.000000)" fill="#FFFFFF" fill-rule="nonzero">
            <g id="编组-14" transform="translate(310.000000, 75.000000)">
                <g id="视频" transform="translate(862.000000, 522.000000)">
                    <path d="M10.5053489,14.0791755 L17.2529484,10.7466312 C17.8720389,10.4385026 17.8720389,9.56151576 17.2529484,9.25812679 L10.5053489,5.92083239 C9.94384863,5.64588647 9.28156799,6.04408436 9.28156799,6.66508329 L9.28156799,13.3301718 C9.28156799,13.9511713 9.94384863,14.3541109 10.5053489,14.079165 L10.5053489,14.0791755 Z M24.4756494,0 L2.52435061,0 C1.13739806,0 0,1.12822937 0,2.5124435 L0,17.4875565 C0,18.8765103 1.12779879,20 2.52435061,20 L24.4756494,20 C25.8626019,20 27,18.8717706 27,17.4875565 L27,2.5124435 C27,1.12348973 25.8722012,0 24.4756494,0 Z M5.0631227,17.4922883 C5.0631227,17.9568536 4.7031859,18.3360898 4.20887524,18.3360898 L2.5387721,18.3360898 C2.06845563,18.3360898 1.68452464,17.9805544 1.68452464,17.4922883 L1.68452464,15.8426075 C1.68452464,15.3780421 2.04446144,14.9988059 2.5387721,14.9988059 L4.20887524,14.9988059 C4.67919171,14.9988059 5.0583244,15.3543413 5.0583244,15.8426075 L5.0583244,17.4922883 L5.0631227,17.4922883 Z M5.0631227,10.8224496 C5.0631227,11.2870149 4.7031859,11.6662511 4.20887524,11.6662511 L2.5387721,11.6662511 C2.06845563,11.6662511 1.68452464,11.3107157 1.68452464,10.8224496 L1.68452464,9.17276879 C1.68452464,8.70820345 2.04446144,8.32896724 2.5387721,8.32896724 L4.20887524,8.32896724 C4.67919171,8.32896724 5.0583244,8.68450266 5.0583244,9.17276879 L5.0583244,10.8224496 L5.0631227,10.8224496 Z M5.0631227,4.15736105 C5.0631227,4.62192639 4.7031859,5.0011626 4.20887524,5.0011626 L2.5387721,5.0011626 C2.06845563,5.0011626 1.68452464,4.64562718 1.68452464,4.15736105 L1.68452464,2.50768025 C1.68452464,2.04311491 2.04446144,1.6638787 2.5387721,1.6638787 L4.20887524,1.6638787 C4.67919171,1.6638787 5.0583244,2.01941412 5.0583244,2.50768025 L5.0583244,4.15736105 L5.0631227,4.15736105 Z M20.2476128,18.3313292 L6.75241377,18.3313292 L6.75241377,1.66388395 L20.2523952,1.66388395 L20.2523952,18.3313292 L20.2476128,18.3313292 Z M25.3107036,17.4922673 C25.3107036,17.9568326 24.9507668,18.3360688 24.4564562,18.3360688 L22.786353,18.3360688 C22.3160366,18.3360688 21.9369039,17.9805334 21.9369039,17.4922673 L21.9369039,15.8425865 C21.9369039,15.3780211 22.2968407,14.9987849 22.7911513,14.9987849 L24.4612545,14.9987849 C24.9315709,14.9987849 25.3107036,15.3543203 25.3107036,15.8425865 L25.3107036,17.4922673 Z M25.3107036,10.8224286 C25.3107036,11.2869939 24.9507668,11.6662301 24.4564562,11.6662301 L22.786353,11.6662301 C22.3160366,11.6662301 21.9369039,11.3106947 21.9369039,10.8224286 L21.9369039,9.1727478 C21.9369039,8.70818245 22.2968407,8.32894624 22.7911513,8.32894624 L24.4612545,8.32894624 C24.9315709,8.32894624 25.3107036,8.68448167 25.3107036,9.1727478 L25.3107036,10.8224286 L25.3107036,10.8224286 Z M25.3107036,4.15734005 C25.3107036,4.6219054 24.9507668,5.00114161 24.4564562,5.00114161 L22.786353,5.00114161 C22.3160366,5.00114161 21.9369039,4.64560618 21.9369039,4.15734005 L21.9369039,2.50765926 C21.9369039,2.04309391 22.2968407,1.6638577 22.7911513,1.6638577 L24.4612545,1.6638577 C24.9315709,1.6638577 25.3107036,2.01939313 25.3107036,2.50765926 L25.3107036,4.15734005 Z" id="形状"></path>
                </g>
            </g>
        </g>
    </g>
</svg>