<?xml version="1.0" encoding="UTF-8"?>
<svg width="96px" height="97px" viewBox="0 0 96 97" version="1.1" xmlns="http://www.w3.org/2000/svg" xmlns:xlink="http://www.w3.org/1999/xlink">
    <title>ICON/Startup Programs</title>
    <defs>
        <linearGradient x1="50%" y1="1.09016263%" x2="50%" y2="99.2116034%" id="linearGradient-1">
            <stop stop-color="#FFFFFF" offset="0%"></stop>
            <stop stop-color="#F7FBFF" offset="100%"></stop>
        </linearGradient>
        <linearGradient x1="50%" y1="0%" x2="50%" y2="100%" id="linearGradient-2">
            <stop stop-color="#30C7FF" offset="0%"></stop>
            <stop stop-color="#0077CF" offset="100%"></stop>
        </linearGradient>
        <rect id="path-3" x="0" y="0" width="40" height="32" rx="2"></rect>
        <filter x="-35.0%" y="-31.2%" width="170.0%" height="187.5%" filterUnits="objectBoundingBox" id="filter-4">
            <feOffset dx="0" dy="4" in="SourceAlpha" result="shadowOffsetOuter1"></feOffset>
            <feGaussianBlur stdDeviation="4" in="shadowOffsetOuter1" result="shadowBlurOuter1"></feGaussianBlur>
            <feComposite in="shadowBlurOuter1" in2="SourceAlpha" operator="out" result="shadowBlurOuter1"></feComposite>
            <feColorMatrix values="0 0 0 0 0   0 0 0 0 0.548951049   0 0 0 0 1  0 0 0 0.176860249 0" type="matrix" in="shadowBlurOuter1"></feColorMatrix>
        </filter>
        <linearGradient x1="50%" y1="0%" x2="50%" y2="100%" id="linearGradient-5">
            <stop stop-color="#44BAFE" offset="0%"></stop>
            <stop stop-color="#419EFF" offset="100%"></stop>
        </linearGradient>
        <rect id="path-6" x="0" y="0" width="40" height="32" rx="2"></rect>
        <filter x="-35.0%" y="-31.2%" width="170.0%" height="187.5%" filterUnits="objectBoundingBox" id="filter-7">
            <feOffset dx="0" dy="4" in="SourceAlpha" result="shadowOffsetOuter1"></feOffset>
            <feGaussianBlur stdDeviation="4" in="shadowOffsetOuter1" result="shadowBlurOuter1"></feGaussianBlur>
            <feComposite in="shadowBlurOuter1" in2="SourceAlpha" operator="out" result="shadowBlurOuter1"></feComposite>
            <feColorMatrix values="0 0 0 0 0   0 0 0 0 0.548951049   0 0 0 0 1  0 0 0 0.176860249 0" type="matrix" in="shadowBlurOuter1"></feColorMatrix>
        </filter>
        <rect id="path-8" x="0" y="0" width="40" height="32" rx="2"></rect>
        <filter x="-35.0%" y="-31.2%" width="170.0%" height="187.5%" filterUnits="objectBoundingBox" id="filter-9">
            <feOffset dx="0" dy="4" in="SourceAlpha" result="shadowOffsetOuter1"></feOffset>
            <feGaussianBlur stdDeviation="4" in="shadowOffsetOuter1" result="shadowBlurOuter1"></feGaussianBlur>
            <feComposite in="shadowBlurOuter1" in2="SourceAlpha" operator="out" result="shadowBlurOuter1"></feComposite>
            <feColorMatrix values="0 0 0 0 0   0 0 0 0 0.548951049   0 0 0 0 1  0 0 0 0.176860249 0" type="matrix" in="shadowBlurOuter1"></feColorMatrix>
        </filter>
        <rect id="path-10" x="0" y="0" width="40" height="32" rx="2"></rect>
        <filter x="-35.0%" y="-31.2%" width="170.0%" height="187.5%" filterUnits="objectBoundingBox" id="filter-11">
            <feOffset dx="0" dy="4" in="SourceAlpha" result="shadowOffsetOuter1"></feOffset>
            <feGaussianBlur stdDeviation="4" in="shadowOffsetOuter1" result="shadowBlurOuter1"></feGaussianBlur>
            <feComposite in="shadowBlurOuter1" in2="SourceAlpha" operator="out" result="shadowBlurOuter1"></feComposite>
            <feColorMatrix values="0 0 0 0 0   0 0 0 0 0.548951049   0 0 0 0 1  0 0 0 0.176860249 0" type="matrix" in="shadowBlurOuter1"></feColorMatrix>
        </filter>
        <linearGradient x1="50%" y1="0%" x2="50%" y2="100%" id="linearGradient-12">
            <stop stop-color="#FFFFFF" offset="0%"></stop>
            <stop stop-color="#F5FBFF" offset="100%"></stop>
        </linearGradient>
        <circle id="path-13" cx="48" cy="49" r="13"></circle>
        <filter x="-61.5%" y="-42.3%" width="223.1%" height="223.1%" filterUnits="objectBoundingBox" id="filter-14">
            <feOffset dx="0" dy="5" in="SourceAlpha" result="shadowOffsetOuter1"></feOffset>
            <feGaussianBlur stdDeviation="4.5" in="shadowOffsetOuter1" result="shadowBlurOuter1"></feGaussianBlur>
            <feColorMatrix values="0 0 0 0 0   0 0 0 0 0.60903013   0 0 0 0 1  0 0 0 0.467903191 0" type="matrix" in="shadowBlurOuter1"></feColorMatrix>
        </filter>
        <filter x="-36.5%" y="-17.3%" width="173.1%" height="173.1%" filterUnits="objectBoundingBox" id="filter-15">
            <feOffset dx="0" dy="1" in="SourceAlpha" result="shadowOffsetInner1"></feOffset>
            <feComposite in="shadowOffsetInner1" in2="SourceAlpha" operator="arithmetic" k2="-1" k3="1" result="shadowInnerInner1"></feComposite>
            <feColorMatrix values="0 0 0 0 1   0 0 0 0 1   0 0 0 0 1  0 0 0 1 0" type="matrix" in="shadowInnerInner1"></feColorMatrix>
        </filter>
        <linearGradient x1="50%" y1="0%" x2="50%" y2="100%" id="linearGradient-16">
            <stop stop-color="#44D9FE" offset="0%"></stop>
            <stop stop-color="#419EFF" offset="100%"></stop>
        </linearGradient>
    </defs>
    <g id="ICON/Startup-Programs" stroke="none" stroke-width="1" fill="none" fill-rule="evenodd">
        <g id="编组-9">
            <rect id="矩形" fill="#FF6969" opacity="0" x="0" y="0" width="96" height="96"></rect>
            <g id="编组-3" transform="translate(5.000000, 11.000000)">
                <g id="矩形">
                    <use fill="black" fill-opacity="1" filter="url(#filter-4)" xlink:href="#path-3"></use>
                    <rect stroke="url(#linearGradient-2)" stroke-width="1" stroke-linejoin="square" fill="url(#linearGradient-1)" fill-rule="evenodd" x="0.5" y="0.5" width="39" height="31" rx="2"></rect>
                </g>
                <path d="M2,1 L38,1 C38.5522847,1 39,1.44771525 39,2 L39,7 L39,7 L1,7 L1,2 C1,1.44771525 1.44771525,1 2,1 Z" id="矩形" fill="url(#linearGradient-5)"></path>
            </g>
            <g id="编组-3备份-2" transform="translate(5.000000, 53.000000)">
                <g id="矩形">
                    <use fill="black" fill-opacity="1" filter="url(#filter-7)" xlink:href="#path-6"></use>
                    <rect stroke="url(#linearGradient-2)" stroke-width="1" stroke-linejoin="square" fill="url(#linearGradient-1)" fill-rule="evenodd" x="0.5" y="0.5" width="39" height="31" rx="2"></rect>
                </g>
                <path d="M2,1 L38,1 C38.5522847,1 39,1.44771525 39,2 L39,7 L39,7 L1,7 L1,2 C1,1.44771525 1.44771525,1 2,1 Z" id="矩形" fill="url(#linearGradient-5)"></path>
            </g>
            <g id="编组-3备份" transform="translate(51.000000, 11.000000)">
                <g id="矩形">
                    <use fill="black" fill-opacity="1" filter="url(#filter-9)" xlink:href="#path-8"></use>
                    <rect stroke="url(#linearGradient-2)" stroke-width="1" stroke-linejoin="square" fill="url(#linearGradient-1)" fill-rule="evenodd" x="0.5" y="0.5" width="39" height="31" rx="2"></rect>
                </g>
                <path d="M2,1 L38,1 C38.5522847,1 39,1.44771525 39,2 L39,7 L39,7 L1,7 L1,2 C1,1.44771525 1.44771525,1 2,1 Z" id="矩形" fill="url(#linearGradient-5)"></path>
            </g>
            <g id="编组-3备份-3" transform="translate(51.000000, 53.000000)">
                <g id="矩形">
                    <use fill="black" fill-opacity="1" filter="url(#filter-11)" xlink:href="#path-10"></use>
                    <rect stroke="url(#linearGradient-2)" stroke-width="1" stroke-linejoin="square" fill="url(#linearGradient-1)" fill-rule="evenodd" x="0.5" y="0.5" width="39" height="31" rx="2"></rect>
                </g>
                <path d="M2,1 L38,1 C38.5522847,1 39,1.44771525 39,2 L39,7 L39,7 L1,7 L1,2 C1,1.44771525 1.44771525,1 2,1 Z" id="矩形" fill="url(#linearGradient-5)"></path>
            </g>
            <circle id="椭圆形" fill="#68F3FF" opacity="0.02" cx="48" cy="49" r="48"></circle>
            <circle id="椭圆形备份-5" fill="#68D3FF" opacity="0.0544782366" cx="48" cy="49" r="34"></circle>
            <circle id="椭圆形备份-2" fill-opacity="0.773768712" fill="#44B4FF" opacity="0.0989780971" cx="48" cy="49" r="22"></circle>
            <g id="椭圆形备份">
                <use fill="black" fill-opacity="1" filter="url(#filter-14)" xlink:href="#path-13"></use>
                <use fill="url(#linearGradient-12)" fill-rule="evenodd" xlink:href="#path-13"></use>
                <use fill="black" fill-opacity="1" filter="url(#filter-15)" xlink:href="#path-13"></use>
            </g>
            <path d="M43.3520034,43.2115037 C43.8042227,42.8937596 44.4175839,42.9665129 44.7831449,43.3632563 L44.8629202,43.4605335 L44.9313825,43.5673086 C45.1974229,44.0410697 45.0671053,44.6479328 44.6115811,44.9668181 C43.8708388,45.4905358 43.2573277,46.182213 42.8378894,46.9669482 C42.3962342,47.7915705 42.1730359,48.6816821 42.1730359,49.6186272 C42.1730359,51.1480644 42.7773653,52.5833033 43.8780714,53.6663417 C44.9786166,54.7501696 46.4407372,55.3463454 47.9997179,55.3463454 C49.5579912,55.3463454 51.0210839,54.7499953 52.1227374,53.6662977 C53.2224406,52.5835706 53.826236,51.1483168 53.826236,49.6186458 C53.826236,48.681389 53.6028979,47.7893609 53.1614118,46.9667308 C52.7421276,46.1829495 52.1277482,45.4905431 51.3897326,44.9689305 C50.8966143,44.6240319 50.782425,43.9468716 51.1370698,43.4596684 C51.4876541,42.9805826 52.1624558,42.8701325 52.6465917,43.2134864 C53.6614463,43.9287718 54.5033891,44.8777493 55.081482,45.9588548 C55.6829875,47.080438 56.0001749,48.3449194 56,49.6202084 C56,50.6848186 55.7877191,51.7177214 55.3690022,52.6909236 C54.9663163,53.6291636 54.3884109,54.4725687 53.6532805,55.1959328 C52.9203883,55.9180151 52.0652035,56.4855145 51.1107403,56.8839083 C50.125079,57.2929382 49.0783229,57.5 47.9996997,57.5 C46.9196434,57.5 45.8709044,57.2916553 44.8887222,56.8809837 C43.9370034,56.486016 43.0810652,55.9179183 42.3472243,55.1948677 C41.612156,54.4726172 41.0346089,53.6295658 40.6305902,52.6897019 C40.2122965,51.7169796 40,50.6831304 40,49.6187016 C40,48.3453779 40.317285,47.0804051 40.9177854,45.957629 C41.4980363,44.8752269 42.3387453,43.9267378 43.3520034,43.2115037 Z M48,40.5 C48.5128358,40.5 48.9355072,40.8860402 48.9932723,41.3833789 L49,41.5 L49,48.5 C49,49.0522847 48.5522847,49.5 48,49.5 C47.4871642,49.5 47.0644928,49.1139598 47.0067277,48.6166211 L47,48.5 L47,41.5 C47,40.9477153 47.4477153,40.5 48,40.5 Z" id="形状结合" fill="url(#linearGradient-16)" fill-rule="nonzero"></path>
        </g>
    </g>
</svg>