<?xml version="1.0" encoding="UTF-8"?>
<svg width="14px" height="19px" viewBox="0 0 14 19" version="1.1" xmlns="http://www.w3.org/2000/svg" xmlns:xlink="http://www.w3.org/1999/xlink">
    <!-- Generator: Sketch 58 (84663) - https://sketch.com -->
    <title>Icon_remove</title>
    <desc>Created with Sketch.</desc>
    <g id="页面-1" stroke="none" stroke-width="1" fill="none" fill-rule="evenodd">
        <g id="系统安全-USB安全-白名单" transform="translate(-925.000000, -332.000000)">
            <g id="编组-4" transform="translate(542.000000, 287.000000)">
                <g id="编组-5" transform="translate(10.000000, 37.000000)">
                    <g id="Icon_remove" transform="translate(373.000000, 8.000000)">
                        <g>
                            <path d="M10,0 C10.5522847,-1.01453063e-16 11,0.44771525 11,1 L11,4 C11,4.04189265 10.997424,4.08318363 10.9924217,4.12372319 L11.9321429,4.12398922 C12.5357143,4.12398922 13,4.58221024 13,5.17789756 L13.0005473,10.2576141 C12.5834734,9.91307913 12.1147353,9.62886197 11.607692,9.41832174 L11.6071429,5.4986523 L1.39285714,5.4986523 L1.39285714,15.5336927 L4.0969723,15.5336204 C4.19554102,16.0519943 4.36686169,16.5445926 4.59990903,17.0003901 L1.06785715,17 C0.464285728,17 -5.95079541e-14,16.541779 -5.95079541e-14,15.9460917 L-5.95079541e-14,5.17789756 C-5.95079541e-14,4.58221024 0.464285707,4.12398922 1.06785715,4.12398922 L2.00757834,4.12372319 C2.00257603,4.08318363 2,4.04189265 2,4 L2,1 C2,0.44771525 2.44771525,1.01453063e-16 3,0 L10,0 Z M8.72857143,6.50673854 C9.1,6.50673854 9.425,6.82749325 9.425,7.19407008 C9.425,7.56064691 9.1,7.88140162 8.72857143,7.88140162 L4.31785714,7.88140162 C3.9,7.88140162 3.62142857,7.56064691 3.62142857,7.19407008 C3.62142857,6.82749325 3.94642856,6.50673854 4.31785714,6.50673854 L8.72857143,6.50673854 Z M9.514286,1.174663 L3.514286,1.174663 L3.514,4.123 L9.514,4.123 L9.514286,1.174663 Z M5.29285714,1.87870619 C5.66428572,1.87870619 5.98928571,2.1994609 5.98928571,2.56603772 L5.98928571,2.84097034 C5.98928571,3.20754717 5.66428572,3.52830188 5.29285714,3.52830188 C4.92142856,3.52830188 4.59642857,3.20754717 4.59642857,2.84097034 L4.59642857,2.56603772 C4.59642857,2.1994609 4.92142856,1.87870619 5.29285714,1.87870619 Z M7.89285714,1.87870619 C8.26428572,1.87870619 8.58928571,2.1994609 8.58928571,2.56603772 L8.58928571,2.84097034 C8.58928571,3.20754717 8.26428572,3.52830188 7.89285714,3.52830188 C7.52142856,3.52830188 7.19642857,3.20754717 7.19642857,2.84097034 L7.19642857,2.56603772 C7.19642857,2.1994609 7.52142856,1.87870619 7.89285714,1.87870619 Z" id="形状结合" fill="#536076"></path>
                            <g id="编组-6" transform="translate(5.000000, 10.000000)">
                                <circle id="椭圆形" stroke="#536076" cx="4.5" cy="4.5" r="4"></circle>
                                <rect id="矩形" fill="#526077" x="2" y="4" width="5" height="1"></rect>
                            </g>
                        </g>
                    </g>
                </g>
            </g>
        </g>
    </g>
</svg>