<?xml version="1.0" encoding="UTF-8"?>
<svg width="17px" height="17px" viewBox="0 0 17 17" version="1.1" xmlns="http://www.w3.org/2000/svg" xmlns:xlink="http://www.w3.org/1999/xlink">
    <!-- Generator: Sketch 58 (84663) - https://sketch.com -->
    <title>Icon_details</title>
    <desc>Created with Sketch.</desc>
    <g id="页面-1" stroke="none" stroke-width="1" fill="none" fill-rule="evenodd">
        <g id="系统安全-USB安全-白名单" transform="translate(-880.000000, -332.000000)" fill="#536076">
            <g id="Icon_details" transform="translate(880.000000, 332.000000)">
                <g id="形状">
                    <path d="M11.9144168,2.04169141 C9.19269038,-0.680563803 4.763604,-0.680563803 2.04142272,2.04169141 C-0.68047424,4.76354858 -0.68047424,9.19268169 2.04142272,11.9145199 C4.67019647,14.5434049 8.89042377,14.6328515 11.6283372,12.1845088 L12.1818072,12.7379633 C12.0438946,13.0911627 12.1161111,13.5064004 12.4009206,13.7913445 L15.3214792,16.7119782 C15.7056101,17.0961115 16.3282638,17.095903 16.711845,16.7119782 C17.0960517,16.3282809 17.0960517,15.705718 16.711845,15.3216037 L13.7915139,12.4013491 C13.5065716,12.1166135 13.0905025,12.0444345 12.7379497,12.1821963 L12.1844798,11.6283438 C14.6331104,8.89050795 14.5432663,4.67036792 11.9143978,2.04169141 L11.9144168,2.04169141 Z M2.87591135,11.080481 C0.61394412,8.81848059 0.61394412,5.13810982 2.87591135,2.87614736 C5.13787857,0.613729993 8.81843476,0.614146993 11.080402,2.87614736 C13.3423692,5.13812877 13.3423692,8.818727 11.080402,11.0806895 C8.81841581,13.3426898 5.13784066,13.3424624 2.87591135,11.0804999 L2.87591135,11.080481 Z"></path>
                </g>
            </g>
        </g>
    </g>
</svg>