<?xml version="1.0" encoding="UTF-8"?>
<svg width="96px" height="96px" viewBox="0 0 96 96" version="1.1" xmlns="http://www.w3.org/2000/svg" xmlns:xlink="http://www.w3.org/1999/xlink">
    <!-- Generator: Sketch 58 (84663) - https://sketch.com -->
    <title>ICON/快速查杀</title>
    <desc>Created with Sketch.</desc>
    <defs>
        <filter x="-27.3%" y="-13.0%" width="154.5%" height="126.1%" filterUnits="objectBoundingBox" id="filter-1">
            <feOffset dx="0" dy="2" in="SourceAlpha" result="shadowOffsetOuter1"></feOffset>
            <feGaussianBlur stdDeviation="2" in="shadowOffsetOuter1" result="shadowBlurOuter1"></feGaussianBlur>
            <feColorMatrix values="0 0 0 0 0   0 0 0 0 0   0 0 0 0 0  0 0 0 0.2 0" type="matrix" in="shadowBlurOuter1" result="shadowMatrixOuter1"></feColorMatrix>
            <feMerge>
                <feMergeNode in="shadowMatrixOuter1"></feMergeNode>
                <feMergeNode in="SourceGraphic"></feMergeNode>
            </feMerge>
        </filter>
        <radialGradient cx="50%" cy="0%" fx="50%" fy="0%" r="210.355987%" gradientTransform="translate(0.500000,0.000000),scale(1.000000,0.475385),rotate(90.000000),translate(-0.500000,-0.000000)" id="radialGradient-2">
            <stop stop-color="#F86300" offset="0%"></stop>
            <stop stop-color="#FFB800" offset="100%"></stop>
        </radialGradient>
        <radialGradient cx="50%" cy="3.38365709%" fx="50%" fy="3.38365709%" r="144.980402%" gradientTransform="translate(0.500000,0.033837),scale(1.000000,0.660256),rotate(90.000000),translate(-0.500000,-0.033837)" id="radialGradient-3">
            <stop stop-color="#FF7400" offset="0%"></stop>
            <stop stop-color="#FF6A00" offset="100%"></stop>
        </radialGradient>
        <linearGradient x1="100%" y1="67.9399359%" x2="0%" y2="67.9399359%" id="linearGradient-4">
            <stop stop-color="#F8FFFF" offset="0%"></stop>
            <stop stop-color="#BDC7C7" offset="33.910473%"></stop>
            <stop stop-color="#CDDADA" offset="64.7460938%"></stop>
            <stop stop-color="#919191" offset="100%"></stop>
        </linearGradient>
        <rect id="path-5" x="15.0384615" y="61.631068" width="13.2692308" height="8.03883495" rx="1.76923077"></rect>
        <filter x="-15.1%" y="-24.9%" width="130.1%" height="149.8%" filterUnits="objectBoundingBox" id="filter-6">
            <feOffset dx="0" dy="4" in="SourceAlpha" result="shadowOffsetInner1"></feOffset>
            <feComposite in="shadowOffsetInner1" in2="SourceAlpha" operator="arithmetic" k2="-1" k3="1" result="shadowInnerInner1"></feComposite>
            <feColorMatrix values="0 0 0 0 0   0 0 0 0 0   0 0 0 0 0  0 0 0 0.115329983 0" type="matrix" in="shadowInnerInner1"></feColorMatrix>
        </filter>
        <linearGradient x1="131.979677%" y1="81.2515355%" x2="24.2611209%" y2="81.2515355%" id="linearGradient-7">
            <stop stop-color="#004890" offset="0%"></stop>
            <stop stop-color="#C1E2FF" offset="100%"></stop>
        </linearGradient>
        <linearGradient x1="100%" y1="55.9473493%" x2="0%" y2="55.9473493%" id="linearGradient-8">
            <stop stop-color="#F1F7FE" offset="0%"></stop>
            <stop stop-color="#D1E6FB" offset="100%"></stop>
        </linearGradient>
        <path d="M6.24779398,64.3106796 C2.5647076,56.2781161 0.723164405,46.7939634 0.723164405,35.8582216 C0.723164405,24.9224797 5.44111312,12.9697392 14.8770106,0 L14.8770106,0 C24.312908,12.9697392 29.0308567,24.9224797 29.0308567,35.8582216 C29.0308567,46.7939634 27.1893135,56.2781161 23.5062271,64.3106796 L14.8770106,64.3106796 Z" id="path-9"></path>
        <linearGradient x1="26.1404877%" y1="66.7080572%" x2="77.324378%" y2="66.7080572%" id="linearGradient-11">
            <stop stop-color="#4B85FF" offset="0%"></stop>
            <stop stop-color="#60DFFF" offset="100%"></stop>
        </linearGradient>
        <linearGradient x1="100%" y1="50%" x2="4.97846994%" y2="50%" id="linearGradient-12">
            <stop stop-color="#6D7478" offset="0%"></stop>
            <stop stop-color="#BDBCBC" offset="22.9281039%"></stop>
            <stop stop-color="#595959" offset="100%"></stop>
        </linearGradient>
        <linearGradient x1="50%" y1="0%" x2="50%" y2="100%" id="linearGradient-13">
            <stop stop-color="#FFFFFF" stop-opacity="0.46208479" offset="0%"></stop>
            <stop stop-color="#FFFFFF" stop-opacity="0.706075175" offset="100%"></stop>
        </linearGradient>
        <filter x="-26.2%" y="-3.7%" width="152.4%" height="107.4%" filterUnits="objectBoundingBox" id="filter-14">
            <feGaussianBlur stdDeviation="0.884615385" in="SourceGraphic"></feGaussianBlur>
        </filter>
        <filter x="-13.4%" y="-3.9%" width="126.9%" height="107.8%" filterUnits="objectBoundingBox" id="filter-15">
            <feGaussianBlur stdDeviation="0.884615385" in="SourceGraphic"></feGaussianBlur>
        </filter>
        <linearGradient x1="44.962048%" y1="100%" x2="57.4627119%" y2="0%" id="linearGradient-16">
            <stop stop-color="#11B4DD" offset="0%"></stop>
            <stop stop-color="#40EA98" offset="100%"></stop>
        </linearGradient>
        <linearGradient x1="50%" y1="0%" x2="50%" y2="98.1564892%" id="linearGradient-17">
            <stop stop-color="#27EC95" offset="0%"></stop>
            <stop stop-color="#1188EE" offset="100%"></stop>
        </linearGradient>
    </defs>
    <g id="ICON/快速查杀" stroke="none" stroke-width="1" fill="none" fill-rule="evenodd">
        <g id="编组-18" filter="url(#filter-1)" transform="translate(26.000000, 2.000000)">
            <path d="M21.8965345,91.5096565 C18.503973,83.8832812 16.8076923,78.8734945 16.8076923,76.4802962 C16.8076923,74.0361789 18.0944056,71.7660478 20.6678322,69.6699029 L20.6678322,69.6699029 L22.1153846,69.6699029 L23.5629371,69.6699029 C26.1363636,71.7660478 27.4230769,74.0361789 27.4230769,76.4802962 C27.4230769,78.9244136 25.6538462,84.0976482 22.1153846,92 Z" id="形状结合" fill="url(#radialGradient-2)"></path>
            <path d="M21.873071,84.4630418 C19.0858955,79.9417802 17.6923077,76.9682818 17.6923077,75.5425467 C17.6923077,74.0760763 18.7645688,72.7139976 20.9090909,71.4563107 L20.9090909,71.4563107 L22.1153846,71.4563107 L23.3216783,71.4563107 C25.4662005,72.7139976 26.5384615,74.0760763 26.5384615,75.5425467 C26.5384615,77.0090171 25.0641026,80.1129578 22.1153846,84.8543689 Z" id="形状结合备份-2" fill="url(#radialGradient-3)"></path>
            <g id="矩形">
                <use fill="url(#linearGradient-4)" fill-rule="evenodd" xlink:href="#path-5"></use>
                <use fill="black" fill-opacity="1" filter="url(#filter-6)" xlink:href="#path-5"></use>
            </g>
            <path d="M12.3846154,40.0919703 C5.15433763,49.2959894 1.25629514,54.463451 0.690487917,55.5943551 C-0.158222923,57.2907113 -1.10747814,62.4220674 3.72195333,62.4220674 C6.94157432,62.4220674 9.82912834,62.4220674 12.3846154,62.4220674 L12.3846154,40.0919703 Z" id="路径-14" fill="url(#linearGradient-7)"></path>
            <path d="M43.3461538,40.0919703 C36.1158761,49.2959894 32.2178336,54.463451 31.6520264,55.5943551 C30.8033155,57.2907113 29.8540603,62.4220674 34.6834918,62.4220674 C37.9031128,62.4220674 40.7906668,62.4220674 43.3461538,62.4220674 L43.3461538,40.0919703 Z" id="路径-14备份" fill="url(#linearGradient-7)" transform="translate(37.153846, 51.257019) scale(-1, 1) translate(-37.153846, -51.257019) "></path>
            <g id="编组-16" transform="translate(6.353759, 0.000000)">
                <mask id="mask-10" fill="white">
                    <use xlink:href="#path-9"></use>
                </mask>
                <use id="形状结合" fill="url(#linearGradient-8)" xlink:href="#path-9"></use>
                <path d="M-0.161450979,30.4136315 C0.0327683412,30.4136315 3.57122988,29.2077931 10.4539336,26.7961165 L20.1847029,26.7961165 L29.0308567,30.4136315 L33.0272214,28.604874 L31.9509822,3.57281553 L15.3193183,-9.09350334 L5.44812066,-1.30831449 L-0.161450979,12.213745 C-0.3556703,24.3470026 -0.3556703,30.4136315 -0.161450979,30.4136315 Z" id="路径-4" fill="url(#linearGradient-11)" mask="url(#mask-10)"></path>
                <path d="M0.723164405,28.9519966 C4.85136953,26.5929668 9.27444646,25.413452 13.9923952,25.413452 C18.7103439,25.413452 23.4282926,26.5929668 28.1462413,28.9519966 L28.5967783,31.4652856 C23.114372,29.4480077 18.3936802,28.4393688 14.4347029,28.4393688 C10.4757256,28.4393688 5.70745063,29.4480077 0.129878001,31.4652856 L0.723164405,28.9519966 Z" id="路径-9" fill="url(#linearGradient-12)" mask="url(#mask-10)"></path>
                <path d="M14.8770106,0 C16.687372,10.2276432 17.5925527,23.0302322 17.5925527,38.407767 C17.5925527,53.7853018 16.8348079,64.6897313 15.3193183,71.1210557 L17.5925527,71.6415812 C24.6239441,60.0082617 26.6545997,46.2283596 23.6845194,30.3018751 C20.714439,14.3753905 17.7786028,4.27476545 14.8770106,0 Z" id="路径-11" fill="url(#linearGradient-13)" opacity="0.592610677" filter="url(#filter-14)" mask="url(#mask-10)"></path>
                <path d="M15.3193183,0 C7.87366079,13.4372795 4.15083207,25.7932665 4.15083207,37.0679612 C4.15083207,48.3426558 7.14676396,58.7549235 13.1386278,68.3047644 L0.723164405,68.3047644 L-4.42307692,38.407767 L-4.42307692,5.03046022 L15.3193183,0 Z" id="路径-12" fill-opacity="0.366231425" fill="#858484" filter="url(#filter-15)" mask="url(#mask-10)"></path>
            </g>
            <path d="M19.9831544,37.063805 L15.6901605,47.867773 L20.3696592,47.867773 C20.3790717,47.8664994 20.3895696,47.8650909 20.4013236,47.8635138 C21.0200656,47.8377964 21.534164,48.3155681 21.6087634,48.9369427 L21.670977,48.9551284 L20.4911648,54.4826285 L27.4097385,45.6091118 L24.1429174,45.5727577 C24.1366777,45.5737261 24.1299908,45.5747609 24.1228142,45.5758715 C24.0539354,45.57347 24.0238043,45.5724195 24.0015274,45.5691502 C23.3947378,45.5364169 22.9154234,45.0267208 22.8935263,44.3885982 C22.8926801,44.3419147 22.8943988,44.2953233 22.8986408,44.2490506 L22.8427633,44.217847 L25.8819758,37.0665185 L19.9831544,37.063805 Z M20.2729748,47.8861712 C20.2692336,47.8875217 20.2657076,47.8890742 20.2613164,47.8910109 C20.2613471,47.8910098 20.261377,47.8909991 20.2614369,47.8909779 C20.2657687,47.8891367 20.2694728,47.8875623 20.2729748,47.8861712 Z M24.244675,45.5516829 C24.2485894,45.5501906 24.2520535,45.5484881 24.2564342,45.5463321 C24.2564124,45.5463319 24.2563932,45.5463392 24.2563549,45.5463536 C24.2519428,45.5484134 24.2482171,45.5501528 24.244675,45.5516829 Z M24.2564342,45.5463321 C24.2564584,45.5463202 24.2564826,45.5463083 24.2565068,45.5462964 C24.2564691,45.5463106 24.2564503,45.5463177 24.2564313,45.5463248 Z M23.9601794,44.7117511 C23.9543169,44.7135653 23.9503843,44.7155649 23.9448839,44.718372 C23.9449082,44.7183769 23.9449388,44.7183654 23.9450001,44.7183424 C23.9507655,44.7157103 23.9554176,44.7135866 23.9601794,44.7117511 Z M20.4199122,48.7477391 C20.4198388,48.7477419 20.4197653,48.7477448 20.4196918,48.7477476 C20.4309904,48.7464071 20.4412055,48.7451951 20.4504588,48.7440911 Z M20.5419208,48.7307808 C20.5476259,48.7291148 20.5517248,48.7272423 20.5574284,48.7246232 C20.5573944,48.7246166 20.5573414,48.7246355 20.5572353,48.7246731 C20.5513805,48.7270991 20.5466081,48.7290767 20.5419208,48.7307808 Z M20.5574284,48.7246232 C20.557488,48.7245958 20.5575478,48.7245683 20.5576078,48.7245408 C20.5575276,48.7245693 20.5574875,48.7245835 20.5574409,48.7246001 Z" id="路径" stroke="url(#linearGradient-17)" stroke-width="0.884615385" fill="url(#linearGradient-16)" fill-rule="nonzero"></path>
        </g>
    </g>
</svg>