<?xml version="1.0" encoding="UTF-8"?>
<svg width="14px" height="14px" viewBox="0 0 14 14" version="1.1" xmlns="http://www.w3.org/2000/svg" xmlns:xlink="http://www.w3.org/1999/xlink">
    <!-- Generator: Sketch 58 (84663) - https://sketch.com -->
    <title>Icon/Whitelist</title>
    <desc>Created with Sketch.</desc>
    <g id="病毒查杀" stroke="none" stroke-width="1" fill="none" fill-rule="evenodd">
        <g id="病毒查杀_病毒库后台更新" transform="translate(-558.000000, -621.000000)">
            <g id="编组" transform="translate(68.000000, 47.000000)">
                <g id="编组-8" transform="translate(255.000000, 572.000000)">
                    <g id="编组-5" transform="translate(234.000000, 0.000000)">
                        <g id="Icon_信任区" transform="translate(0.000000, 1.000000)">
                            <g id="Icon/Whitelist">
                                <g id="编组-2">
                                    <rect id="矩形" fill="#FF6969" opacity="0" x="0" y="0" width="16" height="16"></rect>
                                    <path d="M14,1 C14.5522847,1 15,1.44771525 15,2 L15,14 C15,14.5522847 14.5522847,15 14,15 L2,15 C1.44771525,15 1,14.5522847 1,14 L1,2 C1,1.44771525 1.44771525,1 2,1 L14,1 Z M14,2 L13,2 L13,5.61897503 C13,5.73768697 12.9578166,5.85149259 12.8825772,5.94090478 L12.8200922,6.00308567 C12.6079538,6.17986771 12.2926714,6.15120568 12.1158894,5.93906723 L12.1158894,5.93906723 L10.5,4 L8.88411064,5.93906723 C8.78911373,6.05306353 8.64838992,6.11898757 8.5,6.11898757 C8.22385763,6.11898757 8,5.89511741 8,5.61897503 L8,5.61897503 L8,2 L2,2 L2,14 L14,14 L14,2 Z M12.5,11 C12.7761424,11 13,11.2238576 13,11.5 C13,11.7761424 12.7761424,12 12.5,12 L3.5,12 C3.22385763,12 3,11.7761424 3,11.5 C3,11.2238576 3.22385763,11 3.5,11 L12.5,11 Z M7.5,8 C7.77614237,8 8,8.22385763 8,8.5 C8,8.77614237 7.77614237,9 7.5,9 L3.5,9 C3.22385763,9 3,8.77614237 3,8.5 C3,8.22385763 3.22385763,8 3.5,8 L7.5,8 Z M5.5,5 C5.77614237,5 6,5.22385763 6,5.5 C6,5.77614237 5.77614237,6 5.5,6 L3.5,6 C3.22385763,6 3,5.77614237 3,5.5 C3,5.22385763 3.22385763,5 3.5,5 L5.5,5 Z M12,2 L9,2 L9,4.23795006 L10.5,2.43795006 L12,4.23795006 L12,2 Z" id="形状结合" fill="#536076"></path>
                                </g>
                            </g>
                        </g>
                    </g>
                </g>
            </g>
        </g>
    </g>
</svg>