<?xml version="1.0" standalone="no"?><!DOCTYPE svg PUBLIC "-//W3C//DTD SVG 1.1//EN" "http://www.w3.org/Graphics/SVG/1.1/DTD/svg11.dtd"><svg t="1723877679593" class="icon" viewBox="0 0 1024 1024" version="1.1" xmlns="http://www.w3.org/2000/svg" p-id="1509" width="16" height="16" xmlns:xlink="http://www.w3.org/1999/xlink"><path d="M0 0h1024v1024H0z" fill="#FFFFFF" fill-opacity=".01" p-id="1510"></path><path d="M510.592 43.648c257.877333 0 467.029333 209.749333 467.029333 467.029333 0 257.28-209.749333 467.029333-467.029333 467.029334-257.834667 0-466.986667-209.749333-466.986667-467.029334 0-257.834667 209.749333-467.029333 466.986667-467.029333z m29.013333 67.114667v35.456a29.44 29.44 0 0 1-29.013333 29.013333 29.056 29.056 0 0 1-28.970667-29.013333v-35.456A400.768 400.768 0 0 0 170.24 299.434667l40.789333 23.509333a28.586667 28.586667 0 0 1 10.453334 39.381333 28.586667 28.586667 0 0 1-39.424 10.453334l-38.656-22.229334a398.08 398.08 0 0 0-33.194667 159.573334 398.08 398.08 0 0 0 33.194667 159.573333l38.656-22.272a28.458667 28.458667 0 0 1 39.424 10.410667 28.458667 28.458667 0 0 1-10.453334 39.424l-40.832 23.466666a400.512 400.512 0 0 0 340.394667 189.738667 400.512 400.512 0 0 0 341.461333-191.445333l-38.997333-22.357334a28.586667 28.586667 0 0 1-10.410667-39.381333 28.586667 28.586667 0 0 1 39.381334-10.453333l36.565333 21.034666a398.122667 398.122667 0 0 0 32.426667-157.781333 398.08 398.08 0 0 0-32.938667-158.976l-36.608 21.077333a28.714667 28.714667 0 0 1-39.424-10.410666 28.458667 28.458667 0 0 1 10.453333-39.424l38.826667-22.314667a400.810667 400.810667 0 0 0-311.765333-189.269333zM282.282667 375.04a32.213333 32.213333 0 0 1 43.434666-12.16l131.541334 74.154667c11.008-10.410667 24.917333-17.365333 39.381333-21.418667 50.986667-13.909333 104.32 16.810667 117.077333 67.797333 13.909333 50.986667-16.810667 103.68-67.84 117.632-50.944 13.866667-103.68-16.810667-117.589333-67.84a96 96 0 0 1-1.706667-40.533333L294.442667 418.56a32.213333 32.213333 0 0 1-12.16-43.477333z m271.146666 124.586667a32.768 32.768 0 0 0-39.978666-23.168 32 32 0 0 0-20.266667 16.213333 30.72 30.72 0 0 0-2.901333 23.765333c4.650667 17.365333 22.613333 27.818667 39.978666 23.168a33.706667 33.706667 0 0 0 23.168-39.978666z" fill="#37C991" p-id="1511"></path></svg>