<?xml version="1.0" encoding="UTF-8"?>
<svg width="32px" height="32px" viewBox="0 0 32 32" version="1.1"
    xmlns="http://www.w3.org/2000/svg"
    xmlns:xlink="http://www.w3.org/1999/xlink">
    <title>unlock_1</title>
    <g id="unlock_1" stroke="none" stroke-width="1" fill="none" fill-rule="evenodd">
        <g id="unlock_ICON00000" transform="translate(6.000000, 5.000000)">
            <path d="M17,8 C18.6568542,8 20,9.34314575 20,11 L20,19 C20,20.6568542 18.6568542,22 17,22 L3,22 C1.34314575,22 2.02906125e-16,20.6568542 0,19 L0,11 C-2.02906125e-16,9.34314575 1.34314575,8 3,8 L17,8 Z M10,12 C8.8954305,12 8,12.8954305 8,14 C8,14.7402524 8.40216612,15.3865739 8.99992752,15.7323937 L8.99992752,15.7323937 L9,18 C9,18.5522847 9.44771525,19 10,19 C10.5522847,19 11,18.5522847 11,18 L11,18 L11.0010775,15.7318119 C11.5982846,15.3858493 12,14.7398375 12,14 C12,12.8954305 11.1045695,12 10,12 Z" id="形状结合" fill="#FFFFFF"></path>
            <path d="M5,8.30297778 L5,5.55555556 C5,2.48731111 7.23858,0 10,0 L10,0 C12.76142,0 15,2.48731111 15,5.55555556 L15,10" id="路径" stroke="#FFFFFF" stroke-width="2"></path>
        </g>
    </g>
</svg>
