<?xml version="1.0" encoding="UTF-8"?>
<svg width="98px" height="87px" viewBox="0 0 98 87" version="1.1" xmlns="http://www.w3.org/2000/svg" xmlns:xlink="http://www.w3.org/1999/xlink">
    <!-- Generator: Sketch 59 (86127) - https://sketch.com -->
    <title>image-viewer-app-symbolic</title>
    <desc>Created with Sketch.</desc>
    <defs>
        <filter x="-2.4%" y="-2.7%" width="104.7%" height="105.3%" filterUnits="objectBoundingBox" id="filter-1">
            <feOffset dx="0" dy="0" in="SourceAlpha" result="shadowOffsetOuter1"></feOffset>
            <feGaussianBlur stdDeviation="4" in="shadowOffsetOuter1" result="shadowBlurOuter1"></feGaussianBlur>
            <feColorMatrix values="0 0 0 0 0   0 0 0 0 0   0 0 0 0 0  0 0 0 0.3 0" type="matrix" in="shadowBlurOuter1" result="shadowMatrixOuter1"></feColorMatrix>
            <feMerge>
                <feMergeNode in="shadowMatrixOuter1"></feMergeNode>
                <feMergeNode in="SourceGraphic"></feMergeNode>
            </feMerge>
        </filter>
    </defs>
    <g id="综合搜索" stroke="none" stroke-width="1" fill="none" fill-rule="evenodd" opacity="0.200000003">
        <g id="搜索结果——网页" transform="translate(-883.000000, -627.000000)">
            <g id="编组-2" filter="url(#filter-1)" transform="translate(447.000000, 427.000000)">
                <g id="image-viewer-app-symbolic" transform="translate(436.000000, 200.000000)">
                    <g id="图层_2" transform="translate(4.000000, 5.000000)">
                        <path d="M24,72 L12,72 C5.4,72 0,66.6 0,60 L0,12 C0,5.4 5.4,0 12,0 L78,0 C84.6,0 90,5.4 90,12 L90,60" id="路径" stroke="#1F2022" stroke-width="6" stroke-linecap="round"></path>
                        <path d="M51,15 C34.2,15 21,28.2 21,45 C21,61.8 34.2,75 51,75 C67.8,75 81,61.8 81,45 C81,28.2 67.8,15 51,15 Z M51,21 C64.2,21 75,31.8 75,45 C75,58.2 64.2,69 51,69 C37.8,69 27,58.2 27,45 C27,31.8 37.8,21 51,21 Z" id="circle2567-9" fill="#1F2022" fill-rule="nonzero"></path>
                        <path d="M71.4,60.6 L67.2,64.8 L80.1,77.7 C81.259798,78.859798 83.140202,78.859798 84.3,77.7 C85.459798,76.540202 85.459798,74.659798 84.3,73.5 L71.4,60.6 L71.4,60.6 Z" id="path2570-36" fill="#1F2022"></path>
                    </g>
                </g>
            </g>
        </g>
    </g>
</svg>