<?xml version="1.0" encoding="UTF-8"?>
<svg width="28px" height="28px" viewBox="0 0 28 28" version="1.1" xmlns="http://www.w3.org/2000/svg" xmlns:xlink="http://www.w3.org/1999/xlink">
    <title>搜索</title>
    <defs>
        <filter x="-10.4%" y="-10.4%" width="120.8%" height="120.8%" filterUnits="objectBoundingBox" id="filter-1">
            <feOffset dx="0" dy="0" in="SourceAlpha" result="shadowOffsetOuter1"></feOffset>
            <feGaussianBlur stdDeviation="0.5" in="shadowOffsetOuter1" result="shadowBlurOuter1"></feGaussianBlur>
            <feColorMatrix values="0 0 0 0 0   0 0 0 0 0   0 0 0 0 0  0 0 0 0.304021662 0" type="matrix" in="shadowBlurOuter1" result="shadowMatrixOuter1"></feColorMatrix>
            <feMerge>
                <feMergeNode in="shadowMatrixOuter1"></feMergeNode>
                <feMergeNode in="SourceGraphic"></feMergeNode>
            </feMerge>
        </filter>
        <linearGradient x1="50%" y1="0%" x2="50%" y2="99.4562097%" id="linearGradient-2">
            <stop stop-color="#F4F5F8" offset="0%"></stop>
            <stop stop-color="#D7DAE3" offset="100%"></stop>
        </linearGradient>
        <path d="M2.81753333,1.07293333 C1.71513333,1.70993333 0.926466667,2.73693333 0.597133333,3.96673333 L0.597133333,3.96673333 C0.266933333,5.19566667 0.435933333,6.48093333 1.07206667,7.58246667 L1.07206667,7.58246667 C1.9214,9.0532 3.5048,9.96666667 5.20433333,9.96666667 L5.20433333,9.96666667 C6.03633333,9.96666667 6.85793333,9.74566667 7.58246667,9.32706667 L7.58246667,9.32706667 C8.68573333,8.69006667 9.4744,7.66306667 9.80373333,6.43326667 L9.80373333,6.43326667 C10.1322,5.20433333 9.96406667,3.91906667 9.32793333,2.81753333 L9.32793333,2.81753333 C8.4786,1.3468 6.8952,0.433333333 5.19566667,0.433333333 L5.19566667,0.433333333 C4.36366667,0.433333333 3.54206667,0.654333333 2.81753333,1.07293333" id="path-3"></path>
        <linearGradient x1="67.6564459%" y1="76.5684866%" x2="29.1508454%" y2="18.6250777%" id="linearGradient-5">
            <stop stop-color="#3D8AFD" offset="0%"></stop>
            <stop stop-color="#75A8FF" offset="100%"></stop>
        </linearGradient>
    </defs>
    <g id="组件" stroke="none" stroke-width="1" fill="none" fill-rule="evenodd">
        <g id="搜索" transform="translate(2.000000, 2.000000)" filter="url(#filter-1)">
            <rect id="矩形" x="0" y="0" width="24" height="24"></rect>
            <rect id="矩形" fill="url(#linearGradient-2)" x="2" y="2" width="20" height="20" rx="7"></rect>
            <rect id="矩形" fill="#7299FF" opacity="0.5" x="5" y="5" width="14" height="2" rx="1"></rect>
            <rect id="矩形备份" fill="#7299FF" opacity="0.5" x="5" y="9" width="12" height="2" rx="1"></rect>
            <rect id="矩形备份-2" fill="#7299FF" opacity="0.5" x="5" y="13" width="9" height="2" rx="1"></rect>
            <rect id="矩形备份-3" fill="#7299FF" opacity="0.5" x="5" y="17" width="9" height="2" rx="1"></rect>
            <g id="编组-9" transform="translate(14.200000, 13.500000) scale(-1, 1) translate(-14.200000, -13.500000) translate(9.000000, 7.000000)">
                <polygon id="Fill-13" fill="#E5E5E5" points="2.18694667 11.0043267 1.65134667 10.6949267 2.88981333 8.54992667 3.42541333 8.86019333"></polygon>
                <path d="M1.04442,12.48884 L0.936953333,12.4273067 C0.52182,12.18724 0.379686667,11.6577067 0.619753333,11.24344 L1.30095333,10.0639067 C1.53928667,9.64964 2.07055333,9.50750667 2.48482,9.74670667 L2.59142,9.80824 C3.00655333,10.04744 3.14868667,10.57784 2.90862,10.9921067 L2.22742,12.17164 C1.98908667,12.5859067 1.45868667,12.72804 1.04442,12.48884" id="Fill-14" fill="#FF6438"></path>
                <g id="编组">
                    <mask id="mask-4" fill="white">
                        <use xlink:href="#path-3"></use>
                    </mask>
                    <g id="Clip-16"></g>
                    <path d="M2.81753333,1.07293333 C1.71513333,1.70993333 0.926466667,2.73693333 0.597133333,3.96673333 L0.597133333,3.96673333 C0.266933333,5.19566667 0.435933333,6.48093333 1.07206667,7.58246667 L1.07206667,7.58246667 C1.9214,9.0532 3.5048,9.96666667 5.20433333,9.96666667 L5.20433333,9.96666667 C6.03633333,9.96666667 6.85793333,9.74566667 7.58246667,9.32706667 L7.58246667,9.32706667 C8.68573333,8.69006667 9.4744,7.66306667 9.80373333,6.43326667 L9.80373333,6.43326667 C10.1322,5.20433333 9.96406667,3.91906667 9.32793333,2.81753333 L9.32793333,2.81753333 C8.4786,1.3468 6.8952,0.433333333 5.19566667,0.433333333 L5.19566667,0.433333333 C4.36366667,0.433333333 3.54206667,0.654333333 2.81753333,1.07293333" id="Fill-15" fill="url(#linearGradient-5)" mask="url(#mask-4)"></path>
                </g>
                <path d="M5.19488667,0 C4.31262,0 3.41908667,0.224466667 2.60095333,0.697666667 C0.11362,2.13286667 -0.738313333,5.31266667 0.697753333,7.8 C1.66062,9.46746667 3.40782,10.4 5.20528667,10.4 C6.08668667,10.4 6.98108667,10.1755333 7.79922,9.70233333 C10.2865533,8.26713333 11.13762,5.08733333 9.70242,2.6 C8.73955333,0.932533333 6.99148667,0 5.19488667,0 M5.19575333,0.866666667 L5.19575333,0.866666667 C6.74102,0.866666667 8.17968667,1.69693333 8.95188667,3.03333333 C10.1461533,5.10293333 9.43548667,7.75753333 7.36588667,8.9518 C6.70722,9.33226667 5.96015333,9.53333333 5.20528667,9.53333333 C3.66002,9.53333333 2.21962,8.70306667 1.44828667,7.36666667 C0.25402,5.29706667 0.964686667,2.64246667 3.03428667,1.4482 C3.69295333,1.06773333 4.44002,0.866666667 5.19575333,0.866666667" id="Fill-17" fill="#EDFFFE"></path>
            </g>
        </g>
    </g>
</svg>