<?xml version="1.0" encoding="UTF-8"?>
<svg width="128px" height="128px" viewBox="0 0 128 128" version="1.1" xmlns="http://www.w3.org/2000/svg" xmlns:xlink="http://www.w3.org/1999/xlink">
    <title> Search-web-浅色模式</title>
    <defs>
        <linearGradient x1="50%" y1="82.1875396%" x2="50%" y2="100%" id="linearGradient-1">
            <stop stop-color="#425369" stop-opacity="0.08" offset="0%"></stop>
            <stop stop-color="#425369" stop-opacity="0.2" offset="100%"></stop>
        </linearGradient>
    </defs>
    <g id="综合搜索SP2" stroke="none" stroke-width="1" fill="none" fill-rule="evenodd">
        <g id="搜索-网页-预览" transform="translate(-570.000000, -340.000000)">
            <g id="-Search-web-浅色模式" transform="translate(570.000000, 340.000000)">
                <rect id="矩形" x="0" y="0" width="128" height="128"></rect>
                <path d="M14,36 L114,36 L114,107 C114,111.970563 109.970563,116 105,116 L23,116 C18.0294373,116 14,111.970563 14,107 L14,36 L14,36 Z" id="矩形" fill="url(#linearGradient-1)"></path>
                <path d="M77.1694915,53 C91.0702179,53 102.338983,64.2687652 102.338983,78.1694915 C102.338983,83.8006309 100.48974,88.9998566 97.3654105,93.1930131 L104.505604,100.333085 C105.933956,101.761436 105.933956,104.077252 104.505604,105.505604 C103.077252,106.933956 100.761436,106.933956 99.3330846,105.505604 L92.1930131,98.3654105 C87.9998566,101.48974 82.8006309,103.338983 77.1694915,103.338983 C63.2687652,103.338983 52,92.0702179 52,78.1694915 C52,64.2687652 63.2687652,53 77.1694915,53 Z M77.1694915,60.3220339 C67.3126129,60.3220339 59.3220339,68.3126129 59.3220339,78.1694915 C59.3220339,88.0263702 67.3126129,96.0169492 77.1694915,96.0169492 C87.0263702,96.0169492 95.0169492,88.0263702 95.0169492,78.1694915 C95.0169492,68.3126129 87.0263702,60.3220339 77.1694915,60.3220339 Z" id="形状结合" fill-opacity="0.2" fill="#425369"></path>
                <path d="M22,17 L106,17 C110.418278,17 114,20.581722 114,25 L114,36 L114,36 L14,36 L14,25 C14,20.581722 17.581722,17 22,17 Z" id="形状结合" fill-opacity="0.4" fill="#425369"></path>
                <path d="M80.5,23 C82.4329966,23 84,24.5670034 84,26.5 C84,28.4329966 82.4329966,30 80.5,30 C78.5670034,30 77,28.4329966 77,26.5 C77,24.5670034 78.5670034,23 80.5,23 Z M92.5,23 C94.4329966,23 96,24.5670034 96,26.5 C96,28.4329966 94.4329966,30 92.5,30 C90.5670034,30 89,28.4329966 89,26.5 C89,24.5670034 90.5670034,23 92.5,23 Z M104.5,23 C106.432997,23 108,24.5670034 108,26.5 C108,28.4329966 106.432997,30 104.5,30 C102.567003,30 101,28.4329966 101,26.5 C101,24.5670034 102.567003,23 104.5,23 Z" id="形状结合" fill-opacity="0.6" fill="#FFFFFF"></path>
            </g>
        </g>
    </g>
</svg>