<?xml version="1.0" encoding="UTF-8"?>
<svg width="20px" height="20px" viewBox="0 0 20 20" version="1.1" xmlns="http://www.w3.org/2000/svg" xmlns:xlink="http://www.w3.org/1999/xlink">
    <title>reset</title>
    <g id="组件" stroke="none" stroke-width="1" fill="none" fill-rule="evenodd">
        <g id="icon/ai/reset" transform="translate(-10, -10)">
            <g id="reset" transform="translate(10, 10)">
                <rect id="矩形" x="0" y="0" width="20" height="20"></rect>
                <path d="M8.07150019,6.45708883 L13.4082881,11.8407706 C13.8304158,12.2118424 13.9078561,12.8385067 13.6333427,13.23773 C12.597364,15.0395264 11.919741,17.0297385 11.6388917,19.0958765 L11.6430224,19.0630454 L11.641348,19.0983856 C11.5798231,19.6637419 11.1334771,19.9565632 10.6946649,19.9955103 L10.5937129,20 C10.4111635,20 10.2320965,19.9500305 10.075924,19.8555084 L8.2499834,18.7503739 C8.17694855,18.7061702 8.10987473,18.6527961 8.05039837,18.5915538 C8.01835587,18.5585599 7.98869282,18.5237598 7.96149306,18.4874134 C7.72963263,18.5348977 7.48593067,18.5094078 7.26923674,18.3975581 L7.1633467,18.3344007 C7.07184073,18.271971 6.91683441,18.1634895 6.71904102,18.0204201 C6.38966546,17.7821738 6.05998469,17.5328719 5.74985045,17.2830623 C5.58274977,17.1484646 5.42543598,17.0169462 5.27941822,16.8891515 C4.90422847,16.5607857 4.61109904,16.2649019 4.40542244,15.9889878 C4.37967911,15.9544533 4.35630321,15.9184411 4.3353775,15.8812007 L4.31882613,15.8450859 L4.30870187,15.8260487 L4.29533831,15.8007736 L4.28102244,15.7670454 L4.26202244,15.7150454 L4.2454187,15.6693534 C4.21418171,15.582159 4.20388395,15.5184974 4.20873918,15.4123363 L4.20702244,15.3930454 L4.20902244,15.4030454 L4.21513137,15.3237151 L4.21702244,15.3030454 L4.18442471,15.3056044 L4.12960124,15.3056044 C3.84483581,15.3056044 3.57357684,15.1841989 3.38385692,14.9718367 C3.13618883,14.6946104 2.88181677,14.4032857 2.59949982,14.065034 C2.1342668,13.5076255 1.79178613,13.057727 1.59973506,12.7213971 C1.51349191,12.5703635 1.46813108,12.3994482 1.46813108,12.2255258 L1.46813108,12.1885981 L1.47302244,12.1150454 L1.38482739,12.0572686 L1.28008943,11.9683434 C1.2035883,11.8944182 1.13937335,11.8087593 1.08986651,11.7145975 L0.121939716,9.87360523 L0.0825780334,9.79238359 C0.000792574323,9.60015499 -0.0209117808,9.38725022 0.0204588769,9.18219901 L0.0528742244,9.06033894 C0.160427302,8.73670067 0.420947823,8.48565734 0.828669828,8.37253166 C1.45079554,8.24768645 2.35302482,8.03090788 3.29838688,7.74659422 C4.7385139,7.31348209 5.92136101,6.82487011 6.64378457,6.32220596 C7.11040263,5.99712285 7.74704022,6.07751758 8.07150019,6.45708883 Z M7.21541682,7.14271591 C5.33465281,8.45135683 1.4821072,9.26133951 1.02542247,9.35298482 C1.01434093,9.35615034 1.00551713,9.36465314 1.00184421,9.37570536 C0.998171279,9.38675757 1,9.39893372 1.00705928,9.40824155 L1.97498608,11.2492338 C1.98961608,11.2633712 2.00974473,11.2701008 2.02980954,11.2675629 L4.6592065,10.3287377 C4.65920652,10.3287377 2.79680569,11.912584 2.46813108,12.1885981 L2.46813108,12.2255258 C2.81490275,12.8328106 3.96513087,14.1215052 4.12960124,14.3056044 L4.18442471,14.3056044 L7.6356413,12.2069272 L7.61133494,12.2386413 C7.6033963,12.2489985 7.5935956,12.2617841 7.58205546,12.2768377 L7.49292209,12.3930875 C7.31284705,12.6279087 6.98334874,13.0573736 6.62703417,13.5207719 L6.37757737,13.8450323 C5.87612236,14.4964955 5.37750027,15.1419127 5.20717497,15.3546736 C5.18854563,15.3730026 5.20717497,15.3730026 5.20717497,15.3913317 C5.81076528,16.2010448 7.72692502,17.508338 7.72692502,17.508338 L8.21980389,16.8271978 C8.87928271,15.8910982 9.60555048,15.0051612 10.3927822,14.1764924 C10.5753497,13.9923932 8.91387954,17.4714104 8.74914302,17.8396088 C8.74674238,17.8599376 8.75359703,17.8802693 8.76777234,17.8948655 L10.5937129,19 C10.6120761,19 10.6485364,18.9814014 10.6480041,18.9611855 C10.9462565,16.7670168 11.6659443,14.6532584 12.7664251,12.7392785 C12.798095,12.6926472 12.7903771,12.6290346 12.7480619,12.5918374 L7.361524,7.16131451 C7.32453147,7.11845686 7.26145787,7.11064006 7.21541682,7.14271591 Z M17.9112859,0.557186651 C18.5260476,0.719308384 19.0039365,1.20582227 19.1600309,1.82608199 C19.3028111,2.39343623 19.1560547,2.99188264 18.775499,3.42534464 L18.6810009,3.52198219 L15.482,6.766 L15.5456684,6.8953134 C16.1929769,8.29639039 16.0445283,9.79214687 15.0516684,10.9598185 L14.9040817,11.1243512 C14.7931506,11.2411606 14.6390976,11.3075738 14.4776514,11.3075738 C14.3162052,11.3075738 14.1621522,11.2411606 14.0581899,11.1315437 L8.68275919,5.6933306 C8.56587904,5.58206488 8.5,5.42777997 8.5,5.266765 C8.5,5.10575003 8.56587904,4.95146512 8.68102785,4.84185551 C9.85498421,3.71351871 11.4117968,3.52208116 12.8780669,4.19547634 L13.005,4.257 L16.2037228,1.05080495 C16.6406779,0.584256772 17.295149,0.394702244 17.9112859,0.557186651 Z M16.9226653,1.7456965 L13.5081751,5.16891788 C13.4531965,5.22403705 13.3861066,5.26555665 13.3122488,5.29016974 C13.2133463,5.32312903 13.1090667,5.33824055 13.0045655,5.33366716 C12.9246957,5.33017174 12.8468286,5.3075753 12.7774948,5.26777303 C11.749003,4.67734904 10.6910924,4.64911706 9.81679468,5.21145159 L9.695,5.295 L14.449,10.104 L14.5314192,9.98485976 C15.0613625,9.14926327 15.0694722,8.15169175 14.5727246,7.18066986 L14.4736723,6.99896041 C14.4295998,6.92283052 14.4063922,6.83642069 14.4063921,6.74845397 C14.4063921,6.69959401 14.4103901,6.6595229 14.4176501,6.62047497 L14.4287122,6.57256074 L14.4311437,6.5413242 C14.4432985,6.46437806 14.4732821,6.39130153 14.5186745,6.32799292 L14.5691135,6.26815874 L17.9655066,2.82606922 L17.9768729,2.8146417 C18.175939,2.62535432 18.2581345,2.33980688 18.1902683,2.07013222 C18.1227362,1.80178539 17.9177236,1.59307267 17.6562891,1.52412853 C17.3962298,1.45554707 17.1197528,1.53562313 16.9226653,1.7456965 Z" id="形状结合" fill-opacity="0.703524503" fill="#000000" fill-rule="nonzero"></path>
            </g>
        </g>
    </g>
</svg>