<?xml version="1.0" encoding="UTF-8"?>
<svg width="370px" height="218px" viewBox="0 0 370 218" version="1.1" xmlns="http://www.w3.org/2000/svg" xmlns:xlink="http://www.w3.org/1999/xlink">
    <title>背景</title>
    <defs>
        <linearGradient x1="50%" y1="0%" x2="50%" y2="100%" id="linearGradient-1">
            <stop stop-color="#A6FCD6" offset="0%"></stop>
            <stop stop-color="#246267" offset="100%"></stop>
        </linearGradient>
        <rect id="path-2" x="0" y="0" width="370" height="218"></rect>
        <linearGradient x1="50%" y1="0%" x2="50%" y2="100%" id="linearGradient-4">
            <stop stop-color="#FFFFFF" stop-opacity="0.3" offset="0%"></stop>
            <stop stop-color="#FFFFFF" stop-opacity="0" offset="100%"></stop>
        </linearGradient>
        <linearGradient x1="50%" y1="0%" x2="50%" y2="100%" id="linearGradient-5">
            <stop stop-color="#EED58C" offset="0%"></stop>
            <stop stop-color="#FFFFFF" stop-opacity="0" offset="100%"></stop>
        </linearGradient>
        <linearGradient x1="50%" y1="0%" x2="50%" y2="100%" id="linearGradient-6">
            <stop stop-color="#FFFFFF" offset="0%"></stop>
            <stop stop-color="#FFFFFF" stop-opacity="0" offset="100%"></stop>
        </linearGradient>
    </defs>
    <g id="页面-1" stroke="none" stroke-width="1" fill="none" fill-rule="evenodd">
        <g id="7胜利" transform="translate(-762.000000, -442.000000)">
            <g id="胜利弹窗" transform="translate(435.000000, 175.000000)">
                <g id="胜利背景" transform="translate(327.000000, 167.000000)">
                    <g id="背景" transform="translate(0.000000, 100.000000)">
                        <mask id="mask-3" fill="white">
                            <use xlink:href="#path-2"></use>
                        </mask>
                        <use id="矩形" fill="url(#linearGradient-1)" xlink:href="#path-2"></use>
                        <path d="M370,0 L370,18 L370,200 L370,218 L0,218 L0,200 L0,0 L370,0 Z M352,4 L4,4 L4,200 L4,214 L366,214 L366,200 L366,18 L366,4 L352,4 Z" id="矩形" fill="url(#linearGradient-4)" fill-rule="nonzero" mask="url(#mask-3)"></path>
                        <polygon id="路径" fill="url(#linearGradient-5)" opacity="0.154146" points="370 0 370 120.224527 365.321584 131.795091 259.777 218 0 218 0 109.250428 117.310937 0.000857977623"></polygon>
                        <path d="M117,0 L370,0 L370,19 L370,120 L365,132 L260,218 L0,218 L0,109 L117,0 Z M4,110.999984 L4,213.999158 L258,213.999158 L362,128.999984 L366,118.999984 L366,18.9999843 L366,3.99998426 L119,3.99998426 L4,110.999984 Z" id="路径" fill="url(#linearGradient-6)" fill-rule="nonzero" opacity="0.15"></path>
                    </g>
                </g>
            </g>
        </g>
    </g>
</svg>