<?xml version="1.0" encoding="UTF-8"?>
<svg width="15px" height="15px" viewBox="0 0 15 15" version="1.1" xmlns="http://www.w3.org/2000/svg" xmlns:xlink="http://www.w3.org/1999/xlink">
    <title>形状</title>
    <g id="浅色主题" stroke="none" stroke-width="1" fill="none" fill-rule="evenodd">
        <g id="压缩sp4" transform="translate(-898.000000, -175.000000)" fill="#536076" fill-rule="nonzero">
            <g id="编组" transform="translate(779.000000, 157.000000)">
                <g id="button_previous" transform="translate(108.000000, 7.000000)">
                    <path d="M18.5,26 C14.3580078,26 11,22.6421387 11,18.5 C11,14.3580078 14.3580078,11 18.5,11 C22.6421387,11 26,14.3578613 26,18.5 C26,22.6421387 22.6421387,26 18.5,26 Z M18.5,12.0183594 C14.9203613,12.0183594 12.0183594,14.9203613 12.0183594,18.5 C12.0183594,22.0797852 14.9202148,24.9816406 18.5,24.9816406 C22.0797852,24.9816406 24.9816406,22.0797852 24.9816406,18.5 C24.9816406,14.9203613 22.0796387,12.0183594 18.5,12.0183594 Z M17.8373047,22.3620605 C17.1936523,22.3620605 17.1936523,21.7184082 17.1936523,21.7184082 L17.8373047,18.5 C17.8373047,18.5 17.8373047,17.8563477 17.1936523,17.8563477 C17.1936523,17.8563477 16.55,17.8563477 16.55,17.2126953 L18.480957,17.2126953 C18.480957,17.2126953 19.1246094,17.2126953 19.1246094,17.8563477 C19.1246094,18.5 18.480957,20.430957 18.480957,21.0747559 C18.480957,21.7184082 19.1246094,21.7184082 19.1246094,21.7184082 L19.7684082,21.7184082 C19.7682617,21.7184082 19.7682617,22.3620605 17.8373047,22.3620605 L17.8373047,22.3620605 Z M19.1246094,15.9252441 C18.7690918,15.9252441 18.480957,15.6369629 18.480957,15.2815918 C18.480957,14.9260742 18.7692383,14.637793 19.1246094,14.637793 C19.480127,14.637793 19.7684082,14.9260742 19.7684082,15.2815918 C19.7684082,15.6371094 19.480127,15.9252441 19.1246094,15.9252441 L19.1246094,15.9252441 Z" id="形状"></path>
                </g>
            </g>
        </g>
    </g>
</svg>