<?xml version="1.0" encoding="UTF-8"?>
<svg width="386px" height="345px" viewBox="0 0 386 345" version="1.1" xmlns="http://www.w3.org/2000/svg" xmlns:xlink="http://www.w3.org/1999/xlink">
    <title>失败背景</title>
    <defs>
        <linearGradient x1="50%" y1="0%" x2="50%" y2="100%" id="linearGradient-1">
            <stop stop-color="#EDEDED" offset="0%"></stop>
            <stop stop-color="#575757" offset="100%"></stop>
        </linearGradient>
        <rect id="path-2" x="0" y="0" width="370" height="218" rx="18"></rect>
        <filter x="-3.0%" y="-5.0%" width="107.0%" height="111.9%" filterUnits="objectBoundingBox" id="filter-3">
            <feOffset dx="2" dy="2" in="SourceAlpha" result="shadowOffsetOuter1"></feOffset>
            <feGaussianBlur stdDeviation="4" in="shadowOffsetOuter1" result="shadowBlurOuter1"></feGaussianBlur>
            <feColorMatrix values="0 0 0 0 0   0 0 0 0 0   0 0 0 0 0  0 0 0 0.2 0" type="matrix" in="shadowBlurOuter1"></feColorMatrix>
        </filter>
        <linearGradient x1="50%" y1="0%" x2="50%" y2="100%" id="linearGradient-4">
            <stop stop-color="#FFFFFF" stop-opacity="0.2" offset="0%"></stop>
            <stop stop-color="#FFFFFF" stop-opacity="0" offset="100%"></stop>
        </linearGradient>
        <linearGradient x1="52.6248261%" y1="34.2408663%" x2="45.8923389%" y2="57.1988306%" id="linearGradient-5">
            <stop stop-color="#C4C4C4" stop-opacity="0.402191802" offset="0%"></stop>
            <stop stop-color="#FFFFFF" stop-opacity="0.103131488" offset="100%"></stop>
        </linearGradient>
        <linearGradient x1="50%" y1="32.642805%" x2="43.3474192%" y2="55.3401695%" id="linearGradient-6">
            <stop stop-color="#FFFFFF" stop-opacity="0.5" offset="0%"></stop>
            <stop stop-color="#FFFFFF" stop-opacity="0" offset="100%"></stop>
            <stop stop-color="#FFFFFF" stop-opacity="0" offset="100%"></stop>
        </linearGradient>
        <linearGradient x1="55.3862009%" y1="88.2944529%" x2="48.8428792%" y2="-2.93999553%" id="linearGradient-7">
            <stop stop-color="#C7C7C7" offset="0%"></stop>
            <stop stop-color="#E8E8E8" offset="100%"></stop>
        </linearGradient>
        <path d="M220.382732,126.432659 L195.821898,139.345053 C193.377675,140.630057 190.354539,139.690325 189.069535,137.246102 C188.557839,136.272799 188.381266,135.157959 188.56715,134.074171 L193.257852,106.72528 C193.536042,105.10331 192.998299,103.448309 191.819869,102.299623 L171.949737,82.9310313 C169.972319,81.0035253 169.931857,77.8379589 171.859364,75.8605411 C172.626907,75.0731229 173.632619,74.560687 174.720804,74.4025644 L202.180651,70.4124151 C203.809202,70.1757728 205.21703,69.1529259 205.94534,67.6772086 L218.225757,42.7943659 C219.447868,40.3180976 222.445997,39.3014026 224.922266,40.5235141 C225.908329,41.0101653 226.706466,41.8083029 227.193118,42.7943659 L239.473535,67.6772086 C240.201845,69.1529259 241.609673,70.1757728 243.238223,70.4124151 L270.698071,74.4025644 C273.430795,74.7996525 275.324202,77.3368668 274.927114,80.0695911 C274.768991,81.1577762 274.256556,82.1634883 273.469137,82.9310313 L253.599005,102.299623 C252.420575,103.448309 251.882832,105.10331 252.161022,106.72528 L256.851724,134.074171 C257.318529,136.795853 255.49059,139.380633 252.768908,139.847438 C251.68512,140.033322 250.570279,139.856749 249.596977,139.345053 L225.036143,126.432659 C223.579523,125.666868 221.839352,125.666868 220.382732,126.432659 Z" id="path-8"></path>
        <filter x="0.2%" y="-0.2%" width="99.6%" height="95.8%" filterUnits="objectBoundingBox" id="filter-9">
            <feOffset dx="0" dy="2" in="SourceAlpha" result="shadowOffsetOuter1"></feOffset>
            <feGaussianBlur stdDeviation="2.5" in="shadowOffsetOuter1" result="shadowBlurOuter1"></feGaussianBlur>
            <feColorMatrix values="0 0 0 0 0   0 0 0 0 0   0 0 0 0 0  0 0 0 0.1 0" type="matrix" in="shadowBlurOuter1"></feColorMatrix>
        </filter>
        <path d="M72.3827315,126.432659 L47.8218975,139.345053 C45.3776746,140.630057 42.3545388,139.690325 41.0695348,137.246102 C40.5578394,136.272799 40.3812661,135.157959 40.5671503,134.074171 L45.2578522,106.72528 C45.5360419,105.10331 44.9982994,103.448309 43.819869,102.299623 L23.9497369,82.9310313 C21.972319,81.0035253 21.9318575,77.8379589 23.8593636,75.8605411 C24.6269066,75.0731229 25.6326186,74.560687 26.7208038,74.4025644 L54.180651,70.4124151 C55.8092018,70.1757728 57.2170297,69.1529259 57.9453398,67.6772086 L70.2257568,42.7943659 C71.4478682,40.3180976 74.4459974,39.3014026 76.9222657,40.5235141 C77.9083287,41.0101653 78.7064663,41.8083029 79.1931175,42.7943659 L91.4735345,67.6772086 C92.2018446,69.1529259 93.6096725,70.1757728 95.2382233,70.4124151 L122.698071,74.4025644 C125.430795,74.7996525 127.324202,77.3368668 126.927114,80.0695911 C126.768991,81.1577762 126.256556,82.1634883 125.469137,82.9310313 L105.599005,102.299623 C104.420575,103.448309 103.882832,105.10331 104.161022,106.72528 L108.851724,134.074171 C109.318529,136.795853 107.49059,139.380633 104.768908,139.847438 C103.68512,140.033322 102.570279,139.856749 101.596977,139.345053 L77.0361428,126.432659 C75.5795227,125.666868 73.8393516,125.666868 72.3827315,126.432659 Z" id="path-10"></path>
        <filter x="0.2%" y="-0.2%" width="99.6%" height="95.8%" filterUnits="objectBoundingBox" id="filter-11">
            <feOffset dx="0" dy="2" in="SourceAlpha" result="shadowOffsetOuter1"></feOffset>
            <feGaussianBlur stdDeviation="2.5" in="shadowOffsetOuter1" result="shadowBlurOuter1"></feGaussianBlur>
            <feColorMatrix values="0 0 0 0 0   0 0 0 0 0   0 0 0 0 0  0 0 0 0.1 0" type="matrix" in="shadowBlurOuter1"></feColorMatrix>
        </filter>
        <linearGradient x1="48.8428792%" y1="77.2818459%" x2="48.8428792%" y2="-2.93999553%" id="linearGradient-12">
            <stop stop-color="#C5C4C4" offset="0%"></stop>
            <stop stop-color="#FFFFFF" offset="100%"></stop>
        </linearGradient>
        <path d="M86.2079532,134.967866 L47.4479455,155.345208 C44.5148779,156.887213 40.887115,155.759534 39.3451102,152.826466 C38.7310757,151.658503 38.5191877,150.320695 38.7422488,149.020149 L46.1447515,105.860246 C46.4785792,103.913882 45.8332883,101.92788 44.4191717,100.549457 L13.0616668,69.9834445 C10.6887653,67.6704372 10.6402114,63.8717576 12.9532187,61.4988562 C13.8742703,60.5539544 15.0811248,59.9390313 16.386947,59.7492842 L59.7219531,53.4523392 C61.6762141,53.1683685 63.3656076,51.9409523 64.2395797,50.1700914 L83.6195835,10.9019145 C85.0861173,7.93039254 88.6838723,6.71035855 91.6553943,8.17689231 C92.8386699,8.76087375 93.796435,9.71863887 94.3804165,10.9019145 L113.76042,50.1700914 C114.634392,51.9409523 116.323786,53.1683685 118.278047,53.4523392 L161.613053,59.7492842 C164.892322,60.2257899 167.164411,63.270447 166.687905,66.5497162 C166.498158,67.8555384 165.883235,69.0623929 164.938333,69.9834445 L133.580828,100.549457 C132.166712,101.92788 131.521421,103.913882 131.855248,105.860246 L139.257751,149.020149 C139.817917,152.286168 137.62439,155.387903 134.358372,155.948069 C133.057826,156.17113 131.720017,155.959242 130.552055,155.345208 L91.7920468,134.967866 C90.0441026,134.048917 87.9558974,134.048917 86.2079532,134.967866 Z" id="path-13"></path>
        <filter x="2.4%" y="1.4%" width="95.2%" height="91.3%" filterUnits="objectBoundingBox" id="filter-14">
            <feOffset dx="0" dy="2" in="SourceAlpha" result="shadowOffsetOuter1"></feOffset>
            <feGaussianBlur stdDeviation="2" in="shadowOffsetOuter1" result="shadowBlurOuter1"></feGaussianBlur>
            <feColorMatrix values="0 0 0 0 0   0 0 0 0 0   0 0 0 0 0  0 0 0 0.1 0" type="matrix" in="shadowBlurOuter1"></feColorMatrix>
        </filter>
        <linearGradient x1="50%" y1="0%" x2="50%" y2="58.4233426%" id="linearGradient-15">
            <stop stop-color="#FFFFFF" offset="0%"></stop>
            <stop stop-color="#FFFFFF" stop-opacity="0" offset="100%"></stop>
        </linearGradient>
        <linearGradient x1="48.8428792%" y1="102.939996%" x2="48.8428792%" y2="-2.93999553%" id="linearGradient-16">
            <stop stop-color="#767676" offset="0%"></stop>
            <stop stop-color="#B7B6B6" offset="100%"></stop>
        </linearGradient>
        <path d="M221,104 L289.807989,104 C292.017128,104 293.807989,105.790861 293.807989,108 C293.807989,108.745678 293.599552,109.47651 293.206206,110.110004 L275.888889,138 L275.888889,138 L293.206206,165.889996 C294.37153,167.766779 293.794777,170.232894 291.917993,171.398217 C291.284499,171.791563 290.553667,172 289.807989,172 L229,172 C224.581722,172 221,168.418278 221,164 L221,104 L221,104 Z" id="path-17"></path>
        <filter x="-15.1%" y="-19.9%" width="126.1%" height="135.3%" filterUnits="objectBoundingBox" id="filter-18">
            <feOffset dx="0" dy="-2" in="SourceAlpha" result="shadowOffsetOuter1"></feOffset>
            <feGaussianBlur stdDeviation="3.5" in="shadowOffsetOuter1" result="shadowBlurOuter1"></feGaussianBlur>
            <feColorMatrix values="0 0 0 0 0   0 0 0 0 0   0 0 0 0 0  0 0 0 0.1 0" type="matrix" in="shadowBlurOuter1" result="shadowMatrixOuter1"></feColorMatrix>
            <feOffset dx="0" dy="2" in="SourceAlpha" result="shadowOffsetOuter2"></feOffset>
            <feGaussianBlur stdDeviation="2" in="shadowOffsetOuter2" result="shadowBlurOuter2"></feGaussianBlur>
            <feColorMatrix values="0 0 0 0 0   0 0 0 0 0   0 0 0 0 0  0 0 0 0.2 0" type="matrix" in="shadowBlurOuter2" result="shadowMatrixOuter2"></feColorMatrix>
            <feMerge>
                <feMergeNode in="shadowMatrixOuter1"></feMergeNode>
                <feMergeNode in="shadowMatrixOuter2"></feMergeNode>
            </feMerge>
        </filter>
        <path d="M3,104 L71.807989,104 C74.017128,104 75.807989,105.790861 75.807989,108 C75.807989,108.745678 75.5995524,109.47651 75.2062065,110.110004 L57.8888889,138 L57.8888889,138 L75.2062065,165.889996 C76.3715297,167.766779 75.794777,170.232894 73.9179933,171.398217 C73.2844994,171.791563 72.5536669,172 71.807989,172 L11,172 C6.581722,172 3,168.418278 3,164 L3,104 L3,104 Z" id="path-19"></path>
        <filter x="-15.1%" y="-19.9%" width="126.1%" height="135.3%" filterUnits="objectBoundingBox" id="filter-20">
            <feOffset dx="0" dy="-2" in="SourceAlpha" result="shadowOffsetOuter1"></feOffset>
            <feGaussianBlur stdDeviation="3.5" in="shadowOffsetOuter1" result="shadowBlurOuter1"></feGaussianBlur>
            <feColorMatrix values="0 0 0 0 0   0 0 0 0 0   0 0 0 0 0  0 0 0 0.1 0" type="matrix" in="shadowBlurOuter1" result="shadowMatrixOuter1"></feColorMatrix>
            <feOffset dx="0" dy="2" in="SourceAlpha" result="shadowOffsetOuter2"></feOffset>
            <feGaussianBlur stdDeviation="2" in="shadowOffsetOuter2" result="shadowBlurOuter2"></feGaussianBlur>
            <feColorMatrix values="0 0 0 0 0   0 0 0 0 0   0 0 0 0 0  0 0 0 0.2 0" type="matrix" in="shadowBlurOuter2" result="shadowMatrixOuter2"></feColorMatrix>
            <feMerge>
                <feMergeNode in="shadowMatrixOuter1"></feMergeNode>
                <feMergeNode in="shadowMatrixOuter2"></feMergeNode>
            </feMerge>
        </filter>
        <linearGradient x1="48.8428792%" y1="102.939996%" x2="48.8428792%" y2="-2.93999553%" id="linearGradient-21">
            <stop stop-color="#808080" offset="0%"></stop>
            <stop stop-color="#D6D6D6" offset="100%"></stop>
        </linearGradient>
        <linearGradient x1="50%" y1="0%" x2="50%" y2="100%" id="linearGradient-22">
            <stop stop-color="#000000" stop-opacity="0.05" offset="0%"></stop>
            <stop stop-color="#000000" stop-opacity="0" offset="100%"></stop>
        </linearGradient>
        <linearGradient x1="50%" y1="0%" x2="50%" y2="100%" id="linearGradient-23">
            <stop stop-color="#FFFFFF" stop-opacity="0.2" offset="0%"></stop>
            <stop stop-color="#FFFFFF" stop-opacity="0" offset="100%"></stop>
        </linearGradient>
        <rect id="path-24" x="55" y="92" width="190" height="74" rx="8"></rect>
        <filter x="-6.6%" y="-19.6%" width="113.2%" height="135.1%" filterUnits="objectBoundingBox" id="filter-25">
            <feMorphology radius="1" operator="dilate" in="SourceAlpha" result="shadowSpreadOuter1"></feMorphology>
            <feOffset dx="0" dy="-2" in="shadowSpreadOuter1" result="shadowOffsetOuter1"></feOffset>
            <feGaussianBlur stdDeviation="3.5" in="shadowOffsetOuter1" result="shadowBlurOuter1"></feGaussianBlur>
            <feComposite in="shadowBlurOuter1" in2="SourceAlpha" operator="out" result="shadowBlurOuter1"></feComposite>
            <feColorMatrix values="0 0 0 0 0   0 0 0 0 0   0 0 0 0 0  0 0 0 0.1 0" type="matrix" in="shadowBlurOuter1" result="shadowMatrixOuter1"></feColorMatrix>
            <feMorphology radius="1" operator="dilate" in="SourceAlpha" result="shadowSpreadOuter2"></feMorphology>
            <feOffset dx="0" dy="2" in="shadowSpreadOuter2" result="shadowOffsetOuter2"></feOffset>
            <feGaussianBlur stdDeviation="2" in="shadowOffsetOuter2" result="shadowBlurOuter2"></feGaussianBlur>
            <feComposite in="shadowBlurOuter2" in2="SourceAlpha" operator="out" result="shadowBlurOuter2"></feComposite>
            <feColorMatrix values="0 0 0 0 0   0 0 0 0 0   0 0 0 0 0  0 0 0 0.2 0" type="matrix" in="shadowBlurOuter2" result="shadowMatrixOuter2"></feColorMatrix>
            <feMerge>
                <feMergeNode in="shadowMatrixOuter1"></feMergeNode>
                <feMergeNode in="shadowMatrixOuter2"></feMergeNode>
            </feMerge>
        </filter>
        <path d="M94.8513274,150 C96.2554572,150 97.2684366,149.732673 97.8902655,149.19802 C98.5120944,148.663366 98.8230088,148.118812 98.8230088,147.564356 L98.8230088,147.564356 L98.8230088,131.346535 L111.580531,131.346535 C112.864307,131.346535 113.787021,131.09901 114.348673,130.60396 C114.910324,130.108911 115.19115,129.267327 115.19115,128.079208 C115.19115,126.930693 114.910324,126.079208 114.348673,125.524752 C113.666667,124.970297 112.743953,124.693069 111.580531,124.693069 L111.580531,124.693069 L98.8230088,124.693069 L98.8230088,114.653465 L113.385841,114.653465 C114.549263,114.653465 115.451917,114.405941 116.093805,113.910891 C116.735693,113.415842 117.036578,112.554455 116.99646,111.326733 C116.956342,110.09901 116.645428,109.237624 116.063717,108.742574 C115.482006,108.247525 114.60944,108 113.446018,108 L113.446018,108 L94.8513274,108 C93.5675516,108 92.6047198,108.237624 91.9628319,108.712871 C91.320944,109.188119 91,110.039604 91,111.267327 L91,111.267327 L91,147.564356 C91,148.118812 91.2908555,148.663366 91.8725664,149.19802 C92.4542773,149.732673 93.4471976,150 94.8513274,150 Z M153.143252,150 L153.400906,149.996131 C154.625867,149.996131 155.603861,149.646325 156.334887,148.946714 C157.065912,148.247102 157.194336,147.137718 156.720157,145.618561 L156.720157,145.618561 L144.39151,109.458635 C144.193935,108.81899 143.76915,108.249306 143.117154,107.749584 C142.465158,107.249861 141.585952,107 140.479535,107 C139.373118,107 138.493911,107.249861 137.841916,107.749584 C137.18992,108.249306 136.765135,108.81899 136.56756,109.458635 L136.56756,109.458635 L124.357458,145.498628 C123.804249,147.137718 123.893158,148.297074 124.624183,148.976697 C125.355209,149.65632 126.333203,149.996131 127.558164,149.996131 C128.783126,149.996131 129.711726,149.706292 130.343964,149.126614 C130.976203,148.546936 131.470139,147.777363 131.825773,146.817896 L131.825773,146.817896 L134.433756,139.921724 L146.466042,139.921724 L149.311114,147.117729 C149.627233,147.917285 150.081654,148.606902 150.674378,149.186581 C151.267101,149.766259 152.175944,150.036109 153.400906,149.996131 L153.143252,150 Z M145,133 L136,133 L140.5,118 L145,133 Z M169.938462,150 C171.374359,150 172.410256,149.680149 173.046154,149.040446 C173.682051,148.400744 174,147.44119 174,146.161785 L174,146.161785 L174,110.778243 C174,109.378894 173.651282,108.399349 172.953846,107.839609 C172.25641,107.27987 171.251282,107 169.938462,107 C167.312821,107 166,108.279405 166,110.838215 L166,110.838215 L166,146.221757 C166,147.461181 166.297436,148.400744 166.892308,149.040446 C167.487179,149.680149 168.502564,150 169.938462,150 Z M203.835979,149 C204.566138,149 205.276014,148.742574 205.965608,148.227723 C206.655203,147.712871 207,146.821782 207,145.554455 C207,144.326733 206.675485,143.445545 206.026455,142.910891 C205.377425,142.376238 204.647266,142.108911 203.835979,142.108911 L203.835979,142.108911 L191.910053,142.108911 L191.910053,110.029703 C191.910053,109.079208 191.544974,108.336634 190.814815,107.80198 C190.084656,107.267327 189.131393,107 187.955026,107 C186.859788,107 185.926808,107.267327 185.156085,107.80198 C184.385362,108.336634 184,109.079208 184,110.029703 L184,110.029703 L184,144.722772 C184,145.910891 184.385362,146.920792 185.156085,147.752475 C185.926808,148.584158 186.981481,149 188.320106,149 L188.320106,149 L203.835979,149 Z" id="path-26"></path>
        <filter x="-0.9%" y="-2.3%" width="101.7%" height="109.3%" filterUnits="objectBoundingBox" id="filter-27">
            <feOffset dx="0" dy="2" in="SourceAlpha" result="shadowOffsetOuter1"></feOffset>
            <feColorMatrix values="0 0 0 0 0   0 0 0 0 0   0 0 0 0 0  0 0 0 0.4 0" type="matrix" in="shadowOffsetOuter1"></feColorMatrix>
        </filter>
        <filter x="-0.9%" y="-2.3%" width="101.7%" height="109.3%" filterUnits="objectBoundingBox" id="filter-28">
            <feOffset dx="0" dy="-2" in="SourceAlpha" result="shadowOffsetInner1"></feOffset>
            <feComposite in="shadowOffsetInner1" in2="SourceAlpha" operator="arithmetic" k2="-1" k3="1" result="shadowInnerInner1"></feComposite>
            <feColorMatrix values="0 0 0 0 0   0 0 0 0 0   0 0 0 0 0  0 0 0 0.3 0" type="matrix" in="shadowInnerInner1"></feColorMatrix>
        </filter>
    </defs>
    <g id="页面-1" stroke="none" stroke-width="1" fill="none" fill-rule="evenodd">
        <g id="8失败" transform="translate(-756.000000, -325.000000)">
            <g id="失败弹窗" transform="translate(761.000000, 325.000000)">
                <g id="失败背景" transform="translate(1.000000, 0.000000)">
                    <g id="背景" transform="translate(0.000000, 117.000000)">
                        <g id="矩形">
                            <use fill="black" fill-opacity="1" filter="url(#filter-3)" xlink:href="#path-2"></use>
                            <use fill="url(#linearGradient-1)" fill-rule="evenodd" xlink:href="#path-2"></use>
                        </g>
                        <path d="M352,0 C361.941125,0 370,8.0588745 370,18 L370,200 C370,209.941125 361.941125,218 352,218 L18,218 C8.0588745,218 0,209.941125 0,200 L0,18 C0,8.0588745 8.0588745,0 18,0 L352,0 Z M352,4 L18,4 C10.3724998,4 4.16967311,10.0997524 4,17.687355 L4,18 L4,200 C4,207.6275 10.0997524,213.830327 17.687355,213.996578 L18,214 L352,214 C359.6275,214 365.830327,207.900248 366,200.312645 L366,200 L366,18 C366,10.3724998 359.900248,4.16967311 352.312645,4.00342205 L352,4 Z" id="矩形" fill="url(#linearGradient-4)" fill-rule="nonzero"></path>
                        <path d="M370,18 L370,120.224 L370,120.224 L365.321584,131.79461 L259.777,218 L18,218 C8.0588745,218 1.21743675e-15,209.941125 0,200 L0,109.25 L0,109.25 L117.310937,0 L352,0 C361.941125,1.72655855e-15 370,8.0588745 370,18 Z" id="路径" fill="url(#linearGradient-5)" opacity="0.15"></path>
                        <path d="M352,0 C361.941125,0 370,8.0588745 370,18 L370,120 L365,132 L260,218 L18,218 C8.0588745,218 0,209.941125 0,200 L0,109 L117,0 L352,0 Z M119,4 L4,111 L4,200 C4,207.6275 10.0997524,213.830327 18,214 L18,214 L258,214 L362,129 L366,119 L366,18 C366,10.3724998 359.900248,4.16967311 352,4 L352,4 L119,4 Z" id="路径" fill="url(#linearGradient-6)" fill-rule="nonzero" opacity="0.4"></path>
                    </g>
                    <g id="星星" transform="translate(35.000000, 0.000000)">
                        <g id="星形备份-2" transform="translate(222.709437, 94.709437) scale(-1, 1) rotate(-75.000000) translate(-222.709437, -94.709437) ">
                            <use fill="black" fill-opacity="1" filter="url(#filter-9)" xlink:href="#path-8"></use>
                            <use fill="url(#linearGradient-7)" fill-rule="evenodd" xlink:href="#path-8"></use>
                        </g>
                        <g id="星形备份-2" transform="translate(74.709437, 94.709437) rotate(-75.000000) translate(-74.709437, -94.709437) ">
                            <use fill="black" fill-opacity="1" filter="url(#filter-11)" xlink:href="#path-10"></use>
                            <use fill="url(#linearGradient-7)" fill-rule="evenodd" xlink:href="#path-10"></use>
                        </g>
                        <g id="编组-2" transform="translate(60.000000, 0.000000)">
                            <g id="星形备份">
                                <use fill="black" fill-opacity="1" filter="url(#filter-14)" xlink:href="#path-13"></use>
                                <use fill="url(#linearGradient-12)" fill-rule="evenodd" xlink:href="#path-13"></use>
                            </g>
                            <path d="M91.6635192,8.61891584 C92.8505896,9.20101073 93.8114262,10.1556818 94.3972805,11.3351349 L113.839436,50.4764559 C114.71621,52.241596 116.411022,53.4650471 118.37155,53.7481004 L161.84553,60.0247031 C165.135316,60.4996695 167.414691,63.5344908 166.936657,66.8031663 C166.746302,68.10477 166.129407,69.3077258 165.181475,70.2258019 L133.723407,100.693071 C132.304755,102.067041 131.657395,104.046627 131.992293,105.986703 L139.418536,149.007178 C139.980498,152.262646 137.779937,155.354362 134.503444,155.912718 C133.198727,156.135058 131.856629,155.923855 130.68492,155.311804 L91.80061,135.000291 C90.0470602,134.084311 87.9521581,134.084311 86.1986084,135.000291 L47.3142983,155.311804 C44.3718245,156.848828 40.7324275,155.724791 39.1854775,152.801199 C38.5694738,151.637009 38.3569063,150.303523 38.5806827,149.007178 L46.0069251,105.986703 C46.3418233,104.046627 45.694463,102.067041 44.2758114,100.693071 L12.8177438,70.2258019 C10.4372325,67.9202668 10.3885229,64.1338589 12.7089479,61.7686231 C13.6329533,60.8267738 14.8436782,60.2138372 16.1536881,60.0247031 L59.6276684,53.7481004 C61.5881966,53.4650471 63.283008,52.241596 64.1597828,50.4764559 L83.6019379,11.3351349 C85.0731748,8.37321239 88.6824677,7.15711972 91.6635192,8.61891584 Z M90.331934,11.3094185 C88.8964249,10.6056805 87.1695944,11.1433841 86.3866912,12.50644 L86.3006156,12.6673548 L66.8559151,51.8036844 C65.585937,54.3597682 63.1719198,56.1584857 60.3596572,56.6616022 L60.0568534,56.7105254 L16.5771814,62.9863277 C15.9220907,63.0808826 15.316649,63.3873118 14.8545858,63.8581764 C13.740636,64.9933448 13.7185263,66.7833059 14.7717397,67.9444514 L14.9089909,68.0862266 L46.3711771,98.5496108 C48.4260449,100.539245 49.4022477,103.375624 49.0149178,106.187867 L48.9681876,106.489046 L41.5409729,149.504035 C41.4290701,150.152125 41.5353677,150.818783 41.8434099,151.400804 C42.5883352,152.80828 44.3035481,153.3815 45.7434969,152.735872 L45.9083524,152.655946 L84.7977533,132.347023 C87.3344699,131.022293 90.3473568,130.974981 92.9180855,132.205088 L93.2018558,132.347023 L132.091257,152.655946 C132.677188,152.961932 133.348325,153.067521 134.000769,152.956365 C135.580713,152.687191 136.660366,151.24035 136.483498,149.678046 L136.458636,149.504035 L129.031422,106.489046 C128.546333,103.679638 129.434951,100.814991 131.412408,98.7659863 L131.628432,98.5496108 L163.090618,68.0862266 C163.564646,67.6272471 163.873134,67.0258459 163.968325,66.375127 C164.198835,64.7993595 163.147194,63.3323023 161.596716,63.0166131 L161.422428,62.9863277 L117.942756,56.7105254 C115.102998,56.3006383 112.634851,54.5759276 111.284107,52.0746279 L111.143694,51.8036844 L91.6989936,12.6673548 C91.4385798,12.1432203 91.0300055,11.7078772 90.5255128,11.4132192 L90.331934,11.3094185 Z" id="星形备份" fill="url(#linearGradient-15)" fill-rule="nonzero"></path>
                        </g>
                        <g id="矩形">
                            <use fill="black" fill-opacity="1" filter="url(#filter-18)" xlink:href="#path-17"></use>
                            <use fill="url(#linearGradient-16)" fill-rule="evenodd" xlink:href="#path-17"></use>
                        </g>
                        <g id="矩形" transform="translate(41.000000, 138.000000) scale(-1, 1) translate(-41.000000, -138.000000) ">
                            <use fill="black" fill-opacity="1" filter="url(#filter-20)" xlink:href="#path-19"></use>
                            <use fill="url(#linearGradient-16)" fill-rule="evenodd" xlink:href="#path-19"></use>
                        </g>
                        <g id="矩形">
                            <use fill="black" fill-opacity="1" filter="url(#filter-25)" xlink:href="#path-24"></use>
                            <use fill="url(#linearGradient-21)" fill-rule="evenodd" xlink:href="#path-24"></use>
                            <rect stroke="url(#linearGradient-22)" stroke-width="1" x="54.5" y="91.5" width="191" height="75" rx="8"></rect>
                            <rect stroke="url(#linearGradient-23)" stroke-width="1" stroke-linejoin="square" x="55.5" y="92.5" width="189" height="73" rx="8"></rect>
                        </g>
                        <g id="FAIL" fill-rule="nonzero">
                            <use fill="black" fill-opacity="1" filter="url(#filter-27)" xlink:href="#path-26"></use>
                            <use fill="#FFFFFF" xlink:href="#path-26"></use>
                            <use fill="black" fill-opacity="1" filter="url(#filter-28)" xlink:href="#path-26"></use>
                        </g>
                    </g>
                </g>
            </g>
        </g>
    </g>
</svg>