<?xml version="1.0" encoding="UTF-8"?>
<svg width="388px" height="345px" viewBox="0 0 388 345" version="1.1" xmlns="http://www.w3.org/2000/svg" xmlns:xlink="http://www.w3.org/1999/xlink">
    <title>胜利背景</title>
    <defs>
        <linearGradient x1="50%" y1="0%" x2="50%" y2="100%" id="linearGradient-1">
            <stop stop-color="#A6FCD6" offset="0%"></stop>
            <stop stop-color="#246267" offset="100%"></stop>
        </linearGradient>
        <rect id="path-2" x="0.6064371" y="0.286197165" width="370" height="218" rx="18"></rect>
        <filter x="-3.0%" y="-5.0%" width="107.0%" height="111.9%" filterUnits="objectBoundingBox" id="filter-4">
            <feOffset dx="2" dy="2" in="SourceAlpha" result="shadowOffsetOuter1"></feOffset>
            <feGaussianBlur stdDeviation="4" in="shadowOffsetOuter1" result="shadowBlurOuter1"></feGaussianBlur>
            <feColorMatrix values="0 0 0 0 0   0 0 0 0 0   0 0 0 0 0  0 0 0 0.2 0" type="matrix" in="shadowBlurOuter1"></feColorMatrix>
        </filter>
        <linearGradient x1="50%" y1="0%" x2="50%" y2="100%" id="linearGradient-5">
            <stop stop-color="#FFFFFF" stop-opacity="0.3" offset="0%"></stop>
            <stop stop-color="#FFFFFF" stop-opacity="0" offset="100%"></stop>
        </linearGradient>
        <linearGradient x1="50%" y1="0%" x2="50%" y2="100%" id="linearGradient-6">
            <stop stop-color="#EED58C" offset="0%"></stop>
            <stop stop-color="#FFFFFF" stop-opacity="0" offset="100%"></stop>
        </linearGradient>
        <linearGradient x1="50%" y1="0%" x2="50%" y2="100%" id="linearGradient-7">
            <stop stop-color="#FFFFFF" offset="0%"></stop>
            <stop stop-color="#FFFFFF" stop-opacity="0" offset="100%"></stop>
        </linearGradient>
        <filter x="-11.5%" y="-14.9%" width="122.9%" height="127.1%" filterUnits="objectBoundingBox" id="filter-8">
            <feOffset dx="0" dy="2" in="SourceAlpha" result="shadowOffsetOuter1"></feOffset>
            <feGaussianBlur stdDeviation="3.5" in="shadowOffsetOuter1" result="shadowBlurOuter1"></feGaussianBlur>
            <feColorMatrix values="0 0 0 0 0   0 0 0 0 0   0 0 0 0 0  0 0 0 0.2 0" type="matrix" in="shadowBlurOuter1" result="shadowMatrixOuter1"></feColorMatrix>
            <feMerge>
                <feMergeNode in="shadowMatrixOuter1"></feMergeNode>
                <feMergeNode in="SourceGraphic"></feMergeNode>
            </feMerge>
        </filter>
        <radialGradient cx="46.370474%" cy="26.1772511%" fx="46.370474%" fy="26.1772511%" r="70.9823953%" gradientTransform="translate(0.463705,0.261773),rotate(74.562359),scale(1.000000,1.227469),translate(-0.463705,-0.261773)" id="radialGradient-9">
            <stop stop-color="#FFFFFF" offset="0%"></stop>
            <stop stop-color="#E9CB81" offset="100%"></stop>
        </radialGradient>
        <circle id="path-10" cx="105" cy="12" r="12"></circle>
        <filter x="-41.7%" y="-33.3%" width="183.3%" height="183.3%" filterUnits="objectBoundingBox" id="filter-11">
            <feOffset dx="0" dy="2" in="SourceAlpha" result="shadowOffsetOuter1"></feOffset>
            <feGaussianBlur stdDeviation="3" in="shadowOffsetOuter1" result="shadowBlurOuter1"></feGaussianBlur>
            <feColorMatrix values="0 0 0 0 0   0 0 0 0 0   0 0 0 0 0  0 0 0 0.3 0" type="matrix" in="shadowBlurOuter1"></feColorMatrix>
        </filter>
        <circle id="path-12" cx="10" cy="45" r="10"></circle>
        <filter x="-50.0%" y="-40.0%" width="200.0%" height="200.0%" filterUnits="objectBoundingBox" id="filter-13">
            <feOffset dx="0" dy="2" in="SourceAlpha" result="shadowOffsetOuter1"></feOffset>
            <feGaussianBlur stdDeviation="3" in="shadowOffsetOuter1" result="shadowBlurOuter1"></feGaussianBlur>
            <feColorMatrix values="0 0 0 0 0   0 0 0 0 0   0 0 0 0 0  0 0 0 0.3 0" type="matrix" in="shadowBlurOuter1"></feColorMatrix>
        </filter>
        <circle id="path-14" cx="195" cy="45" r="10"></circle>
        <filter x="-50.0%" y="-40.0%" width="200.0%" height="200.0%" filterUnits="objectBoundingBox" id="filter-15">
            <feOffset dx="0" dy="2" in="SourceAlpha" result="shadowOffsetOuter1"></feOffset>
            <feGaussianBlur stdDeviation="3" in="shadowOffsetOuter1" result="shadowBlurOuter1"></feGaussianBlur>
            <feColorMatrix values="0 0 0 0 0   0 0 0 0 0   0 0 0 0 0  0 0 0 0.3 0" type="matrix" in="shadowBlurOuter1"></feColorMatrix>
        </filter>
        <linearGradient x1="48.8428792%" y1="102.939996%" x2="48.8428792%" y2="-2.93999553%" id="linearGradient-16">
            <stop stop-color="#B53C3C" offset="0%"></stop>
            <stop stop-color="#DC6464" offset="100%"></stop>
        </linearGradient>
        <path d="M218,12 L286.807989,12 C289.017128,12 290.807989,13.790861 290.807989,16 C290.807989,16.7456779 290.599552,17.4765104 290.206206,18.1100043 L272.888889,46 L272.888889,46 L290.206206,73.8899957 C291.37153,75.7667794 290.794777,78.2328943 288.917993,79.3982175 C288.284499,79.7915633 287.553667,80 286.807989,80 L226,80 C221.581722,80 218,76.418278 218,72 L218,12 L218,12 Z" id="path-17"></path>
        <filter x="-15.1%" y="-19.9%" width="126.1%" height="135.3%" filterUnits="objectBoundingBox" id="filter-18">
            <feOffset dx="0" dy="-2" in="SourceAlpha" result="shadowOffsetOuter1"></feOffset>
            <feGaussianBlur stdDeviation="3.5" in="shadowOffsetOuter1" result="shadowBlurOuter1"></feGaussianBlur>
            <feColorMatrix values="0 0 0 0 0   0 0 0 0 0   0 0 0 0 0  0 0 0 0.1 0" type="matrix" in="shadowBlurOuter1" result="shadowMatrixOuter1"></feColorMatrix>
            <feOffset dx="0" dy="2" in="SourceAlpha" result="shadowOffsetOuter2"></feOffset>
            <feGaussianBlur stdDeviation="2" in="shadowOffsetOuter2" result="shadowBlurOuter2"></feGaussianBlur>
            <feColorMatrix values="0 0 0 0 0   0 0 0 0 0   0 0 0 0 0  0 0 0 0.2 0" type="matrix" in="shadowBlurOuter2" result="shadowMatrixOuter2"></feColorMatrix>
            <feMerge>
                <feMergeNode in="shadowMatrixOuter1"></feMergeNode>
                <feMergeNode in="shadowMatrixOuter2"></feMergeNode>
            </feMerge>
        </filter>
        <path d="M0,12 L68.807989,12 C71.017128,12 72.807989,13.790861 72.807989,16 C72.807989,16.7456779 72.5995524,17.4765104 72.2062065,18.1100043 L54.8888889,46 L54.8888889,46 L72.2062065,73.8899957 C73.3715297,75.7667794 72.794777,78.2328943 70.9179933,79.3982175 C70.2844994,79.7915633 69.5536669,80 68.807989,80 L8,80 C3.581722,80 5.41083001e-16,76.418278 0,72 L0,12 L0,12 Z" id="path-19"></path>
        <filter x="-15.1%" y="-19.9%" width="126.1%" height="135.3%" filterUnits="objectBoundingBox" id="filter-20">
            <feOffset dx="0" dy="-2" in="SourceAlpha" result="shadowOffsetOuter1"></feOffset>
            <feGaussianBlur stdDeviation="3.5" in="shadowOffsetOuter1" result="shadowBlurOuter1"></feGaussianBlur>
            <feColorMatrix values="0 0 0 0 0   0 0 0 0 0   0 0 0 0 0  0 0 0 0.1 0" type="matrix" in="shadowBlurOuter1" result="shadowMatrixOuter1"></feColorMatrix>
            <feOffset dx="0" dy="2" in="SourceAlpha" result="shadowOffsetOuter2"></feOffset>
            <feGaussianBlur stdDeviation="2" in="shadowOffsetOuter2" result="shadowBlurOuter2"></feGaussianBlur>
            <feColorMatrix values="0 0 0 0 0   0 0 0 0 0   0 0 0 0 0  0 0 0 0.2 0" type="matrix" in="shadowBlurOuter2" result="shadowMatrixOuter2"></feColorMatrix>
            <feMerge>
                <feMergeNode in="shadowMatrixOuter1"></feMergeNode>
                <feMergeNode in="shadowMatrixOuter2"></feMergeNode>
            </feMerge>
        </filter>
        <linearGradient x1="48.8428792%" y1="102.939996%" x2="48.8428792%" y2="-2.93999553%" id="linearGradient-21">
            <stop stop-color="#D94F4F" offset="0%"></stop>
            <stop stop-color="#FF9F9F" offset="100%"></stop>
        </linearGradient>
        <linearGradient x1="50%" y1="0%" x2="50%" y2="100%" id="linearGradient-22">
            <stop stop-color="#000000" stop-opacity="0.05" offset="0%"></stop>
            <stop stop-color="#000000" stop-opacity="0" offset="100%"></stop>
        </linearGradient>
        <linearGradient x1="50%" y1="0%" x2="50%" y2="100%" id="linearGradient-23">
            <stop stop-color="#FFFFFF" stop-opacity="0.2" offset="0%"></stop>
            <stop stop-color="#FFFFFF" stop-opacity="0" offset="100%"></stop>
        </linearGradient>
        <rect id="path-24" x="52" y="0" width="190" height="74" rx="8"></rect>
        <filter x="-6.6%" y="-19.6%" width="113.2%" height="135.1%" filterUnits="objectBoundingBox" id="filter-25">
            <feMorphology radius="1" operator="dilate" in="SourceAlpha" result="shadowSpreadOuter1"></feMorphology>
            <feOffset dx="0" dy="-2" in="shadowSpreadOuter1" result="shadowOffsetOuter1"></feOffset>
            <feGaussianBlur stdDeviation="3.5" in="shadowOffsetOuter1" result="shadowBlurOuter1"></feGaussianBlur>
            <feComposite in="shadowBlurOuter1" in2="SourceAlpha" operator="out" result="shadowBlurOuter1"></feComposite>
            <feColorMatrix values="0 0 0 0 0   0 0 0 0 0   0 0 0 0 0  0 0 0 0.1 0" type="matrix" in="shadowBlurOuter1" result="shadowMatrixOuter1"></feColorMatrix>
            <feMorphology radius="1" operator="dilate" in="SourceAlpha" result="shadowSpreadOuter2"></feMorphology>
            <feOffset dx="0" dy="2" in="shadowSpreadOuter2" result="shadowOffsetOuter2"></feOffset>
            <feGaussianBlur stdDeviation="2" in="shadowOffsetOuter2" result="shadowBlurOuter2"></feGaussianBlur>
            <feComposite in="shadowBlurOuter2" in2="SourceAlpha" operator="out" result="shadowBlurOuter2"></feComposite>
            <feColorMatrix values="0 0 0 0 0   0 0 0 0 0   0 0 0 0 0  0 0 0 0.2 0" type="matrix" in="shadowBlurOuter2" result="shadowMatrixOuter2"></feColorMatrix>
            <feMerge>
                <feMergeNode in="shadowMatrixOuter1"></feMergeNode>
                <feMergeNode in="shadowMatrixOuter2"></feMergeNode>
            </feMerge>
        </filter>
        <linearGradient x1="50%" y1="0%" x2="50%" y2="34.8905832%" id="linearGradient-26">
            <stop stop-color="#FFD646" offset="0%"></stop>
            <stop stop-color="#FFFFFF" stop-opacity="0.404010052" offset="100%"></stop>
        </linearGradient>
        <linearGradient x1="50%" y1="0%" x2="50%" y2="40.458069%" id="linearGradient-27">
            <stop stop-color="#FFFFFF" offset="0%"></stop>
            <stop stop-color="#FFFFFF" stop-opacity="0" offset="100%"></stop>
        </linearGradient>
        <path d="M105.72,57.2 C108.04,57.28 109.54,56.14 110.22,53.78 L110.22,53.78 L117.78,26.84 L125.22,53.18 C125.66,54.66 126.3,55.7 127.14,56.3 C127.98,56.9 128.86,57.2 129.78,57.2 C131.1,57.2 132.21,56.85 133.11,56.15 C134.01,55.45 134.62,54.2 134.94,52.4 L134.94,52.4 L140.58,17.48 C140.74,16.6 140.57,15.83 140.07,15.17 C139.57,14.51 138.64,14.18 137.28,14.18 C136.2,14.18 135.37,14.41 134.79,14.87 C134.21,15.33 133.82,16.24 133.62,17.6 L133.62,17.6 L130.08,41.9 C129.88,43.38 129.69,44.06 129.51,43.94 C129.33,43.82 129.06,43.14 128.7,41.9 C127.54,37.78 126.39,33.74 125.25,29.78 C124.11,25.82 122.96,21.78 121.8,17.66 C121.4,16.26 120.87,15.33 120.21,14.87 C119.55,14.41 118.7,14.18 117.66,14.18 C116.74,14.18 115.9,14.46 115.14,15.02 C114.38,15.58 113.86,16.38 113.58,17.42 L113.58,17.42 L107.22,41.96 C106.9,43.24 106.62,43.9 106.38,43.94 C106.14,43.98 105.92,43.32 105.72,41.96 L105.72,41.96 L102.06,17.3 C101.86,15.86 101.43,14.98 100.77,14.66 C100.11,14.34 99.34,14.18 98.46,14.18 C97.06,14.18 96.1,14.55 95.58,15.29 C95.06,16.03 94.88,16.86 95.04,17.78 L95.04,17.78 L100.26,51.2 C100.46,52.44 100.75,53.45 101.13,54.23 C101.51,55.01 101.94,55.62 102.42,56.06 C102.9,56.5 103.42,56.8 103.98,56.96 C104.54,57.12 105.12,57.2 105.72,57.2 Z M152.1,57.2 C153.5,57.2 154.51,56.88 155.13,56.24 C155.75,55.6 156.06,54.64 156.06,53.36 L156.06,53.36 L156.06,17.96 C156.06,16.56 155.72,15.58 155.04,15.02 C154.36,14.46 153.38,14.18 152.1,14.18 C149.54,14.18 148.26,15.46 148.26,18.02 L148.26,18.02 L148.26,53.42 C148.26,54.66 148.55,55.6 149.13,56.24 C149.71,56.88 150.7,57.2 152.1,57.2 Z M196.68,57.2 C198.08,57.2 198.98,56.92 199.38,56.36 C199.78,55.8 199.98,55.18 199.98,54.5 L199.98,54.5 L199.98,17.3 C199.98,16.5 199.68,15.78 199.08,15.14 C198.48,14.5 197.48,14.18 196.08,14.18 C194.68,14.18 193.68,14.52 193.08,15.2 C192.48,15.88 192.18,16.58 192.18,17.3 L192.18,17.3 L192.18,41.84 L173.22,16.34 C172.86,15.86 172.43,15.38 171.93,14.9 C171.43,14.42 170.78,14.18 169.98,14.18 C168.54,14.18 167.62,14.47 167.22,15.05 C166.82,15.63 166.62,16.28 166.62,17 L166.62,17 L166.62,54.08 C166.62,54.8 166.92,55.5 167.52,56.18 C168.12,56.86 169.12,57.2 170.52,57.2 C171.92,57.2 172.92,56.88 173.52,56.24 C174.12,55.6 174.42,54.88 174.42,54.08 L174.42,54.08 L174.42,30.38 L193.32,55.04 C193.68,55.52 194.13,56 194.67,56.48 C195.21,56.96 195.88,57.2 196.68,57.2 Z" id="path-28"></path>
        <filter x="-8.1%" y="-15.1%" width="116.2%" height="139.5%" filterUnits="objectBoundingBox" id="filter-29">
            <feOffset dx="0" dy="2" in="SourceAlpha" result="shadowOffsetOuter1"></feOffset>
            <feGaussianBlur stdDeviation="2.5" in="shadowOffsetOuter1" result="shadowBlurOuter1"></feGaussianBlur>
            <feComposite in="shadowBlurOuter1" in2="SourceAlpha" operator="out" result="shadowBlurOuter1"></feComposite>
            <feColorMatrix values="0 0 0 0 0   0 0 0 0 0   0 0 0 0 0  0 0 0 0.301795373 0" type="matrix" in="shadowBlurOuter1"></feColorMatrix>
        </filter>
        <filter x="-6.2%" y="-10.5%" width="112.4%" height="130.2%" filterUnits="objectBoundingBox" id="filter-30">
            <feOffset dx="0" dy="-3" in="SourceAlpha" result="shadowOffsetInner1"></feOffset>
            <feComposite in="shadowOffsetInner1" in2="SourceAlpha" operator="arithmetic" k2="-1" k3="1" result="shadowInnerInner1"></feComposite>
            <feColorMatrix values="0 0 0 0 1   0 0 0 0 0   0 0 0 0 0  0 0 0 0.407940204 0" type="matrix" in="shadowInnerInner1"></feColorMatrix>
        </filter>
    </defs>
    <g id="页面-1" stroke="none" stroke-width="1" fill="none" fill-rule="evenodd">
        <g id="7胜利" transform="translate(-755.000000, -325.000000)">
            <g id="胜利弹窗" transform="translate(435.000000, 175.000000)">
                <g id="胜利背景" transform="translate(326.393563, 167.000000)">
                    <g id="背景" transform="translate(0.000000, 99.713803)">
                        <mask id="mask-3" fill="white">
                            <use xlink:href="#path-2"></use>
                        </mask>
                        <g id="矩形">
                            <use fill="black" fill-opacity="1" filter="url(#filter-4)" xlink:href="#path-2"></use>
                            <use fill="url(#linearGradient-1)" fill-rule="evenodd" xlink:href="#path-2"></use>
                        </g>
                        <path d="M352.606437,-0.713802835 L18.6064371,-0.713802835 C8.11302685,-0.713802835 -0.3935629,7.79278692 -0.3935629,18.2861972 L-0.3935629,200.286197 C-0.3935629,210.779607 8.11302685,219.286197 18.6064371,219.286197 L352.606437,219.286197 C363.099847,219.286197 371.606437,210.779607 371.606437,200.286197 L371.606437,18.2861972 C371.606437,7.79278692 363.099847,-0.713802835 352.606437,-0.713802835 Z M352.606437,0.286197165 C362.547563,0.286197165 370.606437,8.34507167 370.606437,18.2861972 L370.606437,200.286197 C370.606437,210.227323 362.547563,218.286197 352.606437,218.286197 L18.6064371,218.286197 C8.6653116,218.286197 0.6064371,210.227323 0.6064371,200.286197 L0.6064371,18.2861972 C0.6064371,8.34507167 8.6653116,0.286197165 18.6064371,0.286197165 L352.606437,0.286197165 Z" id="矩形" fill-opacity="0.1" fill="#000000" fill-rule="nonzero" mask="url(#mask-3)"></path>
                        <path d="M352.606437,0.286197165 C362.547563,0.286197165 370.606437,8.34507167 370.606437,18.2861972 L370.606437,200.286197 C370.606437,210.227323 362.547563,218.286197 352.606437,218.286197 L18.6064371,218.286197 C8.6653116,218.286197 0.6064371,210.227323 0.6064371,200.286197 L0.6064371,18.2861972 C0.6064371,8.34507167 8.6653116,0.286197165 18.6064371,0.286197165 L352.606437,0.286197165 Z M352.606437,4.28619717 L18.6064371,4.28619717 C10.9789369,4.28619717 4.77611021,10.3859495 4.6064371,17.9735521 L4.6064371,18.2861972 L4.6064371,200.286197 C4.6064371,207.913697 10.7061895,214.116524 18.2937921,214.282775 L18.6064371,214.286197 L352.606437,214.286197 C360.233937,214.286197 366.436764,208.186445 366.606437,200.598842 L366.606437,200.286197 L366.606437,18.2861972 C366.606437,10.658697 360.506685,4.45587028 352.919082,4.28961921 L352.606437,4.28619717 Z" id="矩形" fill="url(#linearGradient-5)" fill-rule="nonzero" mask="url(#mask-3)"></path>
                        <path d="M370.606437,19.2861972 L370.606437,120.510724 L370.606437,120.510724 L365.928021,132.081288 L260.383437,218.286197 L0.6064371,218.286197 L0.6064371,109.536625 L117.917374,0.286197165 L351.606437,0.286197165 C362.099847,0.286197165 370.606437,8.79278692 370.606437,19.2861972 Z" id="路径" fill="url(#linearGradient-6)" opacity="0.154146"></path>
                        <path d="M117.606437,0.286197165 L351.606437,0.286197165 C362.099847,0.286197165 370.606437,8.79275344 370.606437,19.2861972 L370.606437,120.286197 L365.606437,132.286197 L260.606437,218.286197 L0.6064371,218.286197 L0.6064371,109.286197 L117.606437,0.286197165 Z M4.6064371,111.286181 L4.6064371,214.285355 L258.606437,214.285355 L362.606437,129.286181 L366.606437,119.286181 L366.606437,19.2861814 C366.606437,11.1067475 360.059651,4.45645053 351.606437,4.28618142 L351.606437,4.28618142 L119.606437,4.28618142 L4.6064371,111.286181 Z" id="路径" fill="url(#linearGradient-7)" fill-rule="nonzero" opacity="0.15"></path>
                    </g>
                    <g id="皇冠" filter="url(#filter-8)" transform="translate(82.606437, 0.000000)">
                        <path d="M56.854836,35.0633228 L113.311828,100.629411 L113.311828,100.629411 L111.741935,144 L54.4682962,144 C45.7980195,144 38.7693715,136.971352 38.7693715,128.301075 C38.7693715,127.563901 38.8212947,126.827642 38.9247556,126.097764 L51.6111766,36.5997948 C51.8437127,34.9593397 53.362072,33.8179958 55.0025272,34.0505318 C55.7222781,34.1525572 56.3804999,34.5124546 56.854836,35.0633228 Z" id="矩形" fill="#FFCE67"></path>
                        <path d="M111.801073,35.0633228 L168.258065,100.629411 L168.258065,100.629411 L166.688172,144 L109.414533,144 C100.744256,144 93.715608,136.971352 93.715608,128.301075 C93.715608,127.563901 93.7675312,126.827642 93.8709921,126.097764 L106.557413,36.5997948 C106.789949,34.9593397 108.308309,33.8179958 109.948764,34.0505318 C110.668515,34.1525572 111.326736,34.5124546 111.801073,35.0633228 Z" id="矩形" fill="#FFCE67" transform="translate(129.795699, 87.025799) scale(-1, 1) translate(-129.795699, -87.025799) "></path>
                        <path d="M10.152293,48.1401393 L90.5483871,100.629411 L88.9784946,144 L46.300158,144 C39.0915436,144 32.8092985,139.09075 31.0667909,132.095909 L10.152293,48.1401393 L10.152293,48.1401393 Z" id="矩形" fill="#FFC64F"></path>
                        <path d="M113.765196,48.1401393 L194.16129,100.629411 L192.591398,144 L149.622745,144 C142.395046,144 136.101341,139.065253 134.37709,132.046236 L113.765196,48.1401393 L113.765196,48.1401393 Z" id="矩形" fill="#FFC64F" transform="translate(153.963243, 96.070070) scale(-1, 1) translate(-153.963243, -96.070070) "></path>
                        <path d="M104.284946,16.59375 L154.873211,110.434733 C160.838895,121.501047 156.704016,135.30821 145.637702,141.273894 C142.318464,143.063246 138.606701,144 134.835876,144 L70.2755514,144 C57.7036501,144 47.5121105,133.80846 47.5121105,121.236559 C47.5121105,117.248268 48.5599673,113.329972 50.5507439,109.874068 L104.284946,16.59375 L104.284946,16.59375 Z" id="三角形" fill="#FBBD3D"></path>
                        <g id="椭圆形">
                            <use fill="black" fill-opacity="1" filter="url(#filter-11)" xlink:href="#path-10"></use>
                            <use fill="url(#radialGradient-9)" fill-rule="evenodd" xlink:href="#path-10"></use>
                        </g>
                        <g id="椭圆形备份-2">
                            <use fill="black" fill-opacity="1" filter="url(#filter-13)" xlink:href="#path-12"></use>
                            <use fill="url(#radialGradient-9)" fill-rule="evenodd" xlink:href="#path-12"></use>
                        </g>
                        <g id="椭圆形备份">
                            <use fill="black" fill-opacity="1" filter="url(#filter-15)" xlink:href="#path-14"></use>
                            <use fill="url(#radialGradient-9)" fill-rule="evenodd" xlink:href="#path-14"></use>
                        </g>
                    </g>
                    <g id="红" transform="translate(38.606437, 75.000000)">
                        <g id="矩形">
                            <use fill="black" fill-opacity="1" filter="url(#filter-18)" xlink:href="#path-17"></use>
                            <use fill="url(#linearGradient-16)" fill-rule="evenodd" xlink:href="#path-17"></use>
                        </g>
                        <g id="矩形" transform="translate(38.000000, 46.000000) scale(-1, 1) translate(-38.000000, -46.000000) ">
                            <use fill="black" fill-opacity="1" filter="url(#filter-20)" xlink:href="#path-19"></use>
                            <use fill="url(#linearGradient-16)" fill-rule="evenodd" xlink:href="#path-19"></use>
                        </g>
                        <g id="矩形">
                            <use fill="black" fill-opacity="1" filter="url(#filter-25)" xlink:href="#path-24"></use>
                            <use fill="url(#linearGradient-21)" fill-rule="evenodd" xlink:href="#path-24"></use>
                            <rect stroke="url(#linearGradient-22)" stroke-width="1" x="51.5" y="-0.5" width="191" height="75" rx="8"></rect>
                            <rect stroke="url(#linearGradient-23)" stroke-width="1" stroke-linejoin="square" x="52.5" y="0.5" width="189" height="73" rx="8"></rect>
                        </g>
                        <g id="WIN" fill-rule="nonzero">
                            <use fill="black" fill-opacity="1" filter="url(#filter-29)" xlink:href="#path-28"></use>
                            <use fill="#FFFFFF" xlink:href="#path-28"></use>
                            <use fill="url(#linearGradient-26)" xlink:href="#path-28"></use>
                            <use fill="black" fill-opacity="1" filter="url(#filter-30)" xlink:href="#path-28"></use>
                            <path stroke="url(#linearGradient-27)" stroke-width="1" d="M137.28,14.68 C138.420902,14.68 139.242878,14.9062086 139.671454,15.4719288 C140.087028,16.0204863 140.220643,16.6613775 140.086397,17.4002771 L140.086397,17.4002771 L134.448022,52.3102111 C134.085304,54.0885848 133.577344,55.1530798 132.80303,55.7553239 C131.985995,56.3907956 130.976206,56.7 129.78,56.7 C128.960087,56.7 128.178149,56.4270835 127.430619,55.8931333 C126.663555,55.3452302 126.099231,54.3828445 125.701173,53.0440877 L125.701173,53.0440877 L117.77843,24.9950212 L109.741185,53.63568 C109.390366,54.7216776 108.898274,55.5143405 108.232247,56.020521 C107.567183,56.5259697 106.735169,56.7347087 105.737231,56.700297 C105.167393,56.7 104.633153,56.6266072 104.117361,56.479238 C103.628585,56.3395877 103.176433,56.0751125 102.757862,55.6914229 C102.317688,55.2879295 101.92764,54.7256296 101.579495,54.0110153 C101.217053,53.2670554 100.944305,52.3026298 100.75401,51.1228386 L100.75401,51.1228386 L95.5353843,17.7116355 C95.4278874,16.8089934 95.5799217,16.1597591 95.9890958,15.5774728 C96.4352313,14.9425877 97.2833721,14.68 98.46,14.68 C99.2561006,14.68 99.954188,14.8201251 100.551863,15.1099071 C101.113628,15.3822776 101.400699,16.1875899 101.565418,17.3734052 L101.565418,17.3734052 L105.226083,42.0377587 C105.343357,42.7826688 105.458414,43.3087416 105.571036,43.6466093 C106.762907,44.8589016 106.952264,44.2656248 107.230291,43.6102749 C107.377454,43.2633902 107.536855,42.7541328 107.704009,42.08544 L107.704009,42.08544 L114.060763,17.5579651 C114.388062,16.5223388 114.816866,15.8791736 115.4366,15.4225279 C116.107149,14.9284389 116.847981,14.68 117.66,14.68 C118.580424,14.68 119.3381,14.8717725 119.924104,15.2801991 C120.517272,15.6936198 120.962811,16.5498656 121.318713,17.7955081 C122.478982,21.9164646 123.629249,25.9574025 124.769514,29.9183218 C125.909249,33.8774025 127.058982,37.9164646 128.219827,42.0394051 C128.644069,43.500683 129.026106,44.2183295 129.23265,44.3560251 C129.316747,44.4120901 129.500785,44.4580317 129.791489,44.48125 C130.359516,43.3428376 130.467912,42.7630799 130.574777,41.9720787 L130.574777,41.9720787 L134.113883,17.6782159 C134.334297,16.3915367 134.622676,15.640869 135.100697,15.2617488 C135.608326,14.8591467 136.341008,14.68 137.28,14.68 Z M152.1,14.68 C153.234875,14.68 154.115664,14.9065087 154.722146,15.4059651 C155.312876,15.892448 155.56,16.7634188 155.56,17.96 L155.56,17.96 L155.56,53.3518092 C155.519037,54.5875004 155.278975,55.3676166 154.77088,55.8921024 C154.224363,56.4562486 153.320297,56.7 152.1,56.7 C150.891699,56.7 150.008141,56.4644033 149.500493,55.9042403 C148.98955,55.3404411 148.76,54.5042886 148.76,53.42 L148.76,53.42 L148.76,18.0278103 C148.796251,16.8849745 149.064016,16.0339166 149.619312,15.4786202 C150.179579,14.9183535 151.015776,14.68 152.1,14.68 Z M196.08,14.68 C197.294447,14.68 198.188185,14.9197879 198.715231,15.4819706 C199.22024,16.020646 199.48,16.6248439 199.48,17.3 L199.48,17.3 L199.48,54.4853417 C199.438457,55.1776017 199.276488,55.644684 198.973133,56.0693809 C198.63341,56.5449937 197.827162,56.7 196.68,56.7 C196.014172,56.7 195.452939,56.5069683 195.002182,56.1062953 C194.48961,55.6506757 194.061749,55.1956654 193.71685,54.735845 L193.71685,54.735845 L173.92,28.9056696 L173.92,54.0642763 C173.869078,54.8511758 173.61907,55.4032678 173.155231,55.8980294 C172.628185,56.4602121 171.734447,56.7 170.52,56.7 C169.310889,56.7 168.419935,56.4442076 167.894919,55.8491892 C167.389436,55.2763089 167.12,54.6902439 167.12,54.08 L167.12,54.08 L167.12,17.0138358 C167.161823,16.2735163 167.324781,15.7787635 167.631606,15.3338665 C167.971953,14.8403635 168.799605,14.68 169.98,14.68 C170.634612,14.68 171.17252,14.8659283 171.583734,15.2606937 C172.062759,15.7205577 172.475088,16.1801167 172.818757,16.6383358 L172.818757,16.6383358 L192.68,43.3504503 L192.68,17.3173583 C192.731747,16.5973915 192.990093,16.0576133 193.454919,15.5308108 C193.979935,14.9357924 194.870889,14.68 196.08,14.68 Z" stroke-linejoin="square"></path>
                        </g>
                    </g>
                </g>
            </g>
        </g>
    </g>
</svg>