<?xml version="1.0" encoding="UTF-8"?>
<svg width="372px" height="336px" viewBox="0 0 372 336" version="1.1" xmlns="http://www.w3.org/2000/svg" xmlns:xlink="http://www.w3.org/1999/xlink">
    <title>失败弹窗</title>
    <defs>
        <linearGradient x1="50%" y1="0%" x2="50%" y2="100%" id="linearGradient-1">
            <stop stop-color="#EDEDED" offset="0%"></stop>
            <stop stop-color="#575757" offset="100%"></stop>
        </linearGradient>
        <linearGradient x1="50%" y1="0%" x2="50%" y2="100%" id="linearGradient-2">
            <stop stop-color="#FFFFFF" stop-opacity="0.2" offset="0%"></stop>
            <stop stop-color="#FFFFFF" stop-opacity="0" offset="100%"></stop>
        </linearGradient>
        <linearGradient x1="50%" y1="32.642805%" x2="43.3474192%" y2="55.3401695%" id="linearGradient-3">
            <stop stop-color="#FFFFFF" stop-opacity="0.5" offset="0%"></stop>
            <stop stop-color="#FFFFFF" stop-opacity="0" offset="100%"></stop>
            <stop stop-color="#FFFFFF" stop-opacity="0" offset="100%"></stop>
        </linearGradient>
        <linearGradient x1="55.3862009%" y1="88.2944529%" x2="48.8428792%" y2="-2.93999553%" id="linearGradient-4">
            <stop stop-color="#C7C7C7" offset="0%"></stop>
            <stop stop-color="#E8E8E8" offset="100%"></stop>
        </linearGradient>
        <linearGradient x1="48.8428792%" y1="77.2818459%" x2="48.8428792%" y2="-2.93999553%" id="linearGradient-5">
            <stop stop-color="#C5C4C4" offset="0%"></stop>
            <stop stop-color="#FFFFFF" offset="100%"></stop>
        </linearGradient>
        <linearGradient x1="50%" y1="0%" x2="50%" y2="58.4233426%" id="linearGradient-6">
            <stop stop-color="#FFFFFF" offset="0%"></stop>
            <stop stop-color="#FFFFFF" stop-opacity="0" offset="100%"></stop>
        </linearGradient>
        <linearGradient x1="48.8428792%" y1="102.939996%" x2="48.8428792%" y2="-2.93999553%" id="linearGradient-7">
            <stop stop-color="#767676" offset="0%"></stop>
            <stop stop-color="#B7B6B6" offset="100%"></stop>
        </linearGradient>
        <linearGradient x1="48.8428792%" y1="102.939996%" x2="48.8428792%" y2="-2.93999553%" id="linearGradient-8">
            <stop stop-color="#808080" offset="0%"></stop>
            <stop stop-color="#D6D6D6" offset="100%"></stop>
        </linearGradient>
        <linearGradient x1="50%" y1="0%" x2="50%" y2="100%" id="linearGradient-9">
            <stop stop-color="#000000" stop-opacity="0.05" offset="0%"></stop>
            <stop stop-color="#000000" stop-opacity="0" offset="100%"></stop>
        </linearGradient>
        <linearGradient x1="50%" y1="0%" x2="50%" y2="100%" id="linearGradient-10">
            <stop stop-color="#FFFFFF" stop-opacity="0.2" offset="0%"></stop>
            <stop stop-color="#FFFFFF" stop-opacity="0" offset="100%"></stop>
        </linearGradient>
        <rect id="path-11" x="55" y="92" width="190" height="74" rx="8"></rect>
        <filter x="-6.6%" y="-19.6%" width="113.2%" height="135.1%" filterUnits="objectBoundingBox" id="filter-12">
            <feMorphology radius="1" operator="dilate" in="SourceAlpha" result="shadowSpreadOuter1"></feMorphology>
            <feOffset dx="0" dy="-2" in="shadowSpreadOuter1" result="shadowOffsetOuter1"></feOffset>
            <feGaussianBlur stdDeviation="3.5" in="shadowOffsetOuter1" result="shadowBlurOuter1"></feGaussianBlur>
            <feComposite in="shadowBlurOuter1" in2="SourceAlpha" operator="out" result="shadowBlurOuter1"></feComposite>
            <feColorMatrix values="0 0 0 0 0   0 0 0 0 0   0 0 0 0 0  0 0 0 0.1 0" type="matrix" in="shadowBlurOuter1" result="shadowMatrixOuter1"></feColorMatrix>
            <feMorphology radius="1" operator="dilate" in="SourceAlpha" result="shadowSpreadOuter2"></feMorphology>
            <feOffset dx="0" dy="2" in="shadowSpreadOuter2" result="shadowOffsetOuter2"></feOffset>
            <feGaussianBlur stdDeviation="2" in="shadowOffsetOuter2" result="shadowBlurOuter2"></feGaussianBlur>
            <feComposite in="shadowBlurOuter2" in2="SourceAlpha" operator="out" result="shadowBlurOuter2"></feComposite>
            <feColorMatrix values="0 0 0 0 0   0 0 0 0 0   0 0 0 0 0  0 0 0 0.2 0" type="matrix" in="shadowBlurOuter2" result="shadowMatrixOuter2"></feColorMatrix>
            <feMerge>
                <feMergeNode in="shadowMatrixOuter1"></feMergeNode>
                <feMergeNode in="shadowMatrixOuter2"></feMergeNode>
            </feMerge>
        </filter>
        <path d="M95.14,150.2 C96.54,150.2 97.55,149.93 98.17,149.39 C98.79,148.85 99.1,148.3 99.1,147.74 L99.1,147.74 L99.1,131.36 L111.82,131.36 C113.1,131.36 114.02,131.11 114.58,130.61 C115.14,130.11 115.42,129.26 115.42,128.06 C115.42,126.9 115.14,126.04 114.58,125.48 C113.9,124.92 112.98,124.64 111.82,124.64 L111.82,124.64 L99.1,124.64 L99.1,114.5 L113.62,114.5 C114.78,114.5 115.68,114.25 116.32,113.75 C116.96,113.25 117.26,112.38 117.22,111.14 C117.18,109.9 116.87,109.03 116.29,108.53 C115.71,108.03 114.84,107.78 113.68,107.78 L113.68,107.78 L95.14,107.78 C93.86,107.78 92.9,108.02 92.26,108.5 C91.62,108.98 91.3,109.84 91.3,111.08 L91.3,111.08 L91.3,147.74 C91.3,148.3 91.59,148.85 92.17,149.39 C92.75,149.93 93.74,150.2 95.14,150.2 Z M153.859184,150.203871 L154.12,150.2 C155.36,150.2 156.35,149.85 157.09,149.15 C157.83,148.45 157.96,147.34 157.48,145.82 L157.48,145.82 L145,109.64 C144.8,109 144.37,108.43 143.71,107.93 C143.05,107.43 142.16,107.18 141.04,107.18 C139.92,107.18 139.03,107.43 138.37,107.93 C137.71,108.43 137.28,109 137.08,109.64 L137.08,109.64 L124.72,145.7 C124.16,147.34 124.25,148.5 124.99,149.18 C125.73,149.86 126.72,150.2 127.96,150.2 C129.2,150.2 130.14,149.91 130.78,149.33 C131.42,148.75 131.92,147.98 132.28,147.02 L132.28,147.02 L134.92,140.12 L147.1,140.12 L149.98,147.32 C150.3,148.12 150.76,148.81 151.36,149.39 C151.96,149.97 152.88,150.24 154.12,150.2 L153.859184,150.203871 Z M145.66,133.34 L136.42,133.34 L141.04,118.46 L145.66,133.34 Z M169.96,150.2 C171.36,150.2 172.37,149.88 172.99,149.24 C173.61,148.6 173.92,147.64 173.92,146.36 L173.92,146.36 L173.92,110.96 C173.92,109.56 173.58,108.58 172.9,108.02 C172.22,107.46 171.24,107.18 169.96,107.18 C167.4,107.18 166.12,108.46 166.12,111.02 L166.12,111.02 L166.12,146.42 C166.12,147.66 166.41,148.6 166.99,149.24 C167.57,149.88 168.56,150.2 169.96,150.2 Z M204.04,149.6 C204.76,149.6 205.46,149.34 206.14,148.82 C206.82,148.3 207.16,147.4 207.16,146.12 C207.16,144.88 206.84,143.99 206.2,143.45 C205.56,142.91 204.84,142.64 204.04,142.64 L204.04,142.64 L192.28,142.64 L192.28,110.24 C192.28,109.28 191.92,108.53 191.2,107.99 C190.48,107.45 189.54,107.18 188.38,107.18 C187.3,107.18 186.38,107.45 185.62,107.99 C184.86,108.53 184.48,109.28 184.48,110.24 L184.48,110.24 L184.48,145.28 C184.48,146.48 184.86,147.5 185.62,148.34 C186.38,149.18 187.42,149.6 188.74,149.6 L188.74,149.6 L204.04,149.6 Z" id="path-13"></path>
        <filter x="-0.9%" y="-2.3%" width="101.7%" height="109.3%" filterUnits="objectBoundingBox" id="filter-14">
            <feOffset dx="0" dy="2" in="SourceAlpha" result="shadowOffsetOuter1"></feOffset>
            <feColorMatrix values="0 0 0 0 0   0 0 0 0 0   0 0 0 0 0  0 0 0 0.4 0" type="matrix" in="shadowOffsetOuter1"></feColorMatrix>
        </filter>
        <filter x="-0.9%" y="-2.3%" width="101.7%" height="109.3%" filterUnits="objectBoundingBox" id="filter-15">
            <feOffset dx="0" dy="-2" in="SourceAlpha" result="shadowOffsetInner1"></feOffset>
            <feComposite in="shadowOffsetInner1" in2="SourceAlpha" operator="arithmetic" k2="-1" k3="1" result="shadowInnerInner1"></feComposite>
            <feColorMatrix values="0 0 0 0 0   0 0 0 0 0   0 0 0 0 0  0 0 0 0.3 0" type="matrix" in="shadowInnerInner1"></feColorMatrix>
        </filter>
    </defs>
    <g id="页面-1" stroke="none" stroke-width="1" fill="none" fill-rule="evenodd">
        <g id="8失败" transform="translate(-761.000000, -325.000000)">
            <g id="失败弹窗" transform="translate(761.000000, 325.000000)">
                <g id="失败背景" transform="translate(1.000000, 0.000000)">
                    <g id="编组" transform="translate(0.000000, 117.000000)">
                        <rect id="矩形" fill="url(#linearGradient-1)" x="0" y="0" width="370" height="218"></rect>
                        <path d="M370,0 L0,0 L0,218 L370,218 L370,0 Z M369,1 L369,217 L1,217 L1,1 L369,1 Z" id="矩形" fill-opacity="0.1" fill="#000000" fill-rule="nonzero"></path>
                        <path d="M370,0 L370,218 L0,218 L0,0 L370,0 Z M365.999563,3.99980283 L3.9995629,3.99980283 L3.9995629,213.999803 L365.999563,213.999803 L365.999563,3.99980283 Z" id="矩形" fill="url(#linearGradient-2)" fill-rule="nonzero"></path>
                        <path d="M370,0 L370,18 L370,120 L365,132 L260,218 L18,218 C8.0588745,218 0,209.941125 0,200 L0,109 L117,0 L370,0 Z M119,4 L4,111 L4,200 C4,207.6275 10.0997524,213.830327 18,214 L18,214 L258,214 L362,129 L366,119 L366,18 L366,4 L119,4 Z" id="路径" fill="url(#linearGradient-3)" fill-rule="nonzero" opacity="0.4"></path>
                    </g>
                    <g id="星星" transform="translate(35.000000, 0.000000)">
                        <path d="M220.382732,126.432659 L195.821898,139.345053 C193.377675,140.630057 190.354539,139.690325 189.069535,137.246102 C188.557839,136.272799 188.381266,135.157959 188.56715,134.074171 L193.257852,106.72528 C193.536042,105.10331 192.998299,103.448309 191.819869,102.299623 L171.949737,82.9310313 C169.972319,81.0035253 169.931857,77.8379589 171.859364,75.8605411 C172.626907,75.0731229 173.632619,74.560687 174.720804,74.4025644 L202.180651,70.4124151 C203.809202,70.1757728 205.21703,69.1529259 205.94534,67.6772086 L218.225757,42.7943659 C219.447868,40.3180976 222.445997,39.3014026 224.922266,40.5235141 C225.908329,41.0101653 226.706466,41.8083029 227.193118,42.7943659 L239.473535,67.6772086 C240.201845,69.1529259 241.609673,70.1757728 243.238223,70.4124151 L270.698071,74.4025644 C273.430795,74.7996525 275.324202,77.3368668 274.927114,80.0695911 C274.768991,81.1577762 274.256556,82.1634883 273.469137,82.9310313 L253.599005,102.299623 C252.420575,103.448309 251.882832,105.10331 252.161022,106.72528 L256.851724,134.074171 C257.318529,136.795853 255.49059,139.380633 252.768908,139.847438 C251.68512,140.033322 250.570279,139.856749 249.596977,139.345053 L225.036143,126.432659 C223.579523,125.666868 221.839352,125.666868 220.382732,126.432659 Z" id="星形备份-2" fill="url(#linearGradient-4)" transform="translate(222.709437, 94.709437) scale(-1, 1) rotate(-75.000000) translate(-222.709437, -94.709437) "></path>
                        <path d="M72.6732944,126.723222 L48.1124604,139.635616 C45.6682374,140.92062 42.6451017,139.980888 41.3600976,137.536665 C40.8484023,136.563362 40.6718289,135.448522 40.8577131,134.364734 L45.548415,107.015843 C45.8266047,105.393873 45.2888623,103.738872 44.1104319,102.590186 L24.2402998,83.2215942 C22.2628819,81.2940881 22.2224203,78.1285218 24.1499264,76.1511039 C24.9174694,75.3636857 25.9231815,74.8512498 27.0113666,74.6931273 L54.4712138,70.7029779 C56.0997646,70.4663356 57.5075926,69.4434888 58.2359026,67.9677714 L70.5163196,43.0849288 C71.7384311,40.6086605 74.7365603,39.5919655 77.2128286,40.8140769 C78.1988916,41.3007281 78.9970292,42.0988657 79.4836804,43.0849288 L91.7640974,67.9677714 C92.4924074,69.4434888 93.9002354,70.4663356 95.5287862,70.7029779 L122.988633,74.6931273 C125.721358,75.0902154 127.614765,77.6274296 127.217677,80.3601539 C127.059554,81.4483391 126.547118,82.4540511 125.7597,83.2215942 L105.889568,102.590186 C104.711138,103.738872 104.173395,105.393873 104.451585,107.015843 L109.142287,134.364734 C109.609092,137.086416 107.781153,139.671196 105.059471,140.138001 C103.975682,140.323885 102.860842,140.147311 101.88754,139.635616 L77.3267056,126.723222 C75.8700855,125.957431 74.1299145,125.957431 72.6732944,126.723222 Z" id="星形备份-2" fill="url(#linearGradient-4)" transform="translate(75.000000, 95.000000) rotate(-75.000000) translate(-75.000000, -95.000000) "></path>
                        <g id="编组-2" transform="translate(60.000000, 0.000000)">
                            <path d="M86.2079532,134.967866 L47.4479455,155.345208 C44.5148779,156.887213 40.887115,155.759534 39.3451102,152.826466 C38.7310757,151.658503 38.5191877,150.320695 38.7422488,149.020149 L46.1447515,105.860246 C46.4785792,103.913882 45.8332883,101.92788 44.4191717,100.549457 L13.0616668,69.9834445 C10.6887653,67.6704372 10.6402114,63.8717576 12.9532187,61.4988562 C13.8742703,60.5539544 15.0811248,59.9390313 16.386947,59.7492842 L59.7219531,53.4523392 C61.6762141,53.1683685 63.3656076,51.9409523 64.2395797,50.1700914 L83.6195835,10.9019145 C85.0861173,7.93039254 88.6838723,6.71035855 91.6553943,8.17689231 C92.8386699,8.76087375 93.796435,9.71863887 94.3804165,10.9019145 L113.76042,50.1700914 C114.634392,51.9409523 116.323786,53.1683685 118.278047,53.4523392 L161.613053,59.7492842 C164.892322,60.2257899 167.164411,63.270447 166.687905,66.5497162 C166.498158,67.8555384 165.883235,69.0623929 164.938333,69.9834445 L133.580828,100.549457 C132.166712,101.92788 131.521421,103.913882 131.855248,105.860246 L139.257751,149.020149 C139.817917,152.286168 137.62439,155.387903 134.358372,155.948069 C133.057826,156.17113 131.720017,155.959242 130.552055,155.345208 L91.7920468,134.967866 C90.0441026,134.048917 87.9558974,134.048917 86.2079532,134.967866 Z" id="星形备份" fill="url(#linearGradient-5)"></path>
                            <path d="M91.6553943,8.17689231 C92.8386699,8.76087375 93.796435,9.71863887 94.3804165,10.9019145 L113.76042,50.1700914 C114.634392,51.9409523 116.323786,53.1683685 118.278047,53.4523392 L161.613053,59.7492842 C164.892322,60.2257899 167.164411,63.270447 166.687905,66.5497162 C166.498158,67.8555384 165.883235,69.0623929 164.938333,69.9834445 L133.580828,100.549457 C132.166712,101.92788 131.521421,103.913882 131.855248,105.860246 L139.257751,149.020149 C139.817917,152.286168 137.62439,155.387903 134.358372,155.948069 C133.057826,156.17113 131.720017,155.959242 130.552055,155.345208 L91.7920468,134.967866 C90.0441026,134.048917 87.9558974,134.048917 86.2079532,134.967866 L47.4479455,155.345208 C44.5148779,156.887213 40.887115,155.759534 39.3451102,152.826466 C38.7310757,151.658503 38.5191877,150.320695 38.7422488,149.020149 L46.1447515,105.860246 C46.4785792,103.913882 45.8332883,101.92788 44.4191717,100.549457 L13.0616668,69.9834445 C10.6887653,67.6704372 10.6402114,63.8717576 12.9532187,61.4988562 C13.8742703,60.5539544 15.0811248,59.9390313 16.386947,59.7492842 L59.7219531,53.4523392 C61.6762141,53.1683685 63.3656076,51.9409523 64.2395797,50.1700914 L83.6195835,10.9019145 C85.0861173,7.93039254 88.6838723,6.71035855 91.6553943,8.17689231 Z M90.3276971,10.8671005 C88.8969643,10.1609917 87.1758793,10.7005069 86.3955811,12.0681547 L86.3097918,12.2296116 L66.9297879,51.4977886 C65.6640352,54.0624836 63.25805,55.8672608 60.4551443,56.3720723 L60.153348,56.4211603 L16.818342,62.7181053 C16.1654309,62.8129788 15.5620036,63.1204403 15.1014778,63.5928912 C13.9912343,64.7318839 13.9691982,66.5278752 15.0189074,67.6929325 L15.1557018,67.8351854 L46.5132068,98.4011984 C48.5612376,100.397535 49.5341925,103.24347 49.1481512,106.065187 L49.1015765,106.367381 L41.6990737,149.527284 C41.5875432,150.177557 41.6934872,150.846461 42.0005044,151.430443 C42.7429512,152.84266 44.4524573,153.417812 45.8876151,152.770009 L46.0519221,152.689814 L84.8119299,132.312472 C87.3402062,130.983278 90.3430687,130.935807 92.905244,132.170058 L93.1880701,132.312472 L131.948078,152.689814 C132.532059,152.996831 133.200964,153.102775 133.851236,152.991244 C135.425924,152.721164 136.501985,151.269449 136.325705,149.701881 L136.300926,149.527284 L128.898423,106.367381 C128.414949,103.548509 129.300611,100.67421 131.271488,98.6183028 L131.486793,98.4011984 L162.844298,67.8351854 C163.316749,67.3746596 163.624211,66.7712324 163.719084,66.1183213 C163.948828,64.537245 162.900686,63.0652455 161.355367,62.7484928 L161.181658,62.7181053 L117.846652,56.4211603 C115.016343,56.0098923 112.556407,54.2793712 111.210158,51.7696449 L111.070212,51.4977886 L91.6902082,12.2296116 C91.4306609,11.7037114 91.023446,11.2669016 90.5206319,10.971251 L90.3276971,10.8671005 Z" id="星形备份" fill="url(#linearGradient-6)" fill-rule="nonzero"></path>
                        </g>
                        <path d="M221,104 L289.807989,104 C292.017128,104 293.807989,105.790861 293.807989,108 C293.807989,108.745678 293.599552,109.47651 293.206206,110.110004 L275.888889,138 L275.888889,138 L293.206206,165.889996 C294.37153,167.766779 293.794777,170.232894 291.917993,171.398217 C291.284499,171.791563 290.553667,172 289.807989,172 L229,172 C224.581722,172 221,168.418278 221,164 L221,104 L221,104 Z" id="矩形" fill="url(#linearGradient-7)"></path>
                        <path d="M3,104 L71.807989,104 C74.017128,104 75.807989,105.790861 75.807989,108 C75.807989,108.745678 75.5995524,109.47651 75.2062065,110.110004 L57.8888889,138 L57.8888889,138 L75.2062065,165.889996 C76.3715297,167.766779 75.794777,170.232894 73.9179933,171.398217 C73.2844994,171.791563 72.5536669,172 71.807989,172 L11,172 C6.581722,172 3,168.418278 3,164 L3,104 L3,104 Z" id="矩形" fill="url(#linearGradient-7)" transform="translate(41.000000, 138.000000) scale(-1, 1) translate(-41.000000, -138.000000) "></path>
                        <g id="矩形">
                            <use fill="black" fill-opacity="1" filter="url(#filter-12)" xlink:href="#path-11"></use>
                            <use fill="url(#linearGradient-8)" fill-rule="evenodd" xlink:href="#path-11"></use>
                            <rect stroke="url(#linearGradient-9)" stroke-width="1" x="54.5" y="91.5" width="191" height="75" rx="8"></rect>
                            <rect stroke="url(#linearGradient-10)" stroke-width="1" stroke-linejoin="square" x="55.5" y="92.5" width="189" height="73" rx="8"></rect>
                        </g>
                        <g id="FAIL" fill-rule="nonzero">
                            <use fill="black" fill-opacity="1" filter="url(#filter-14)" xlink:href="#path-13"></use>
                            <use fill="#FFFFFF" xlink:href="#path-13"></use>
                            <use fill="black" fill-opacity="1" filter="url(#filter-15)" xlink:href="#path-13"></use>
                        </g>
                    </g>
                </g>
            </g>
        </g>
    </g>
</svg>