<?xml version="1.0" encoding="UTF-8"?>
<svg width="16px" height="16px" viewBox="0 0 16 16" version="1.1" xmlns="http://www.w3.org/2000/svg" xmlns:xlink="http://www.w3.org/1999/xlink">
    <title>list_icon_ml/normal</title>
    <g id="list_icon_ml/normal" stroke="none" stroke-width="1" fill="none" fill-rule="evenodd">
        <path d="M6,2 L7,3 L13,3 C14.1045695,3 15,3.8954305 15,5 L15,12 C15,13.1045695 14.1045695,14 13,14 L3,14 C1.8954305,14 1,13.1045695 1,12 L1,3.5 C1,2.67157288 1.67157288,2 2.5,2 L6,2 Z M5.36685552,6 L4,6 L4,11 L5.13314448,11 L5.13314448,9.28629032 C5.13314448,8.78897849 5.03399433,8.04301075 4.97025496,7.55241935 L4.99858357,7.55241935 L5.42351275,8.74865591 L6.1388102,10.5766129 L6.83286119,10.5766129 L7.54107649,8.74865591 L7.98016997,7.55241935 L8.00849858,7.55241935 C7.94475921,8.04301075 7.84560907,8.78897849 7.84560907,9.28629032 L7.84560907,11 L9,11 L9,6 L7.62606232,6 L6.81869688,8.15725806 C6.71954674,8.44623656 6.63456091,8.76209677 6.52832861,9.07123656 L6.49291785,9.07123656 C6.39376771,8.76209677 6.30878187,8.44623656 6.20254958,8.15725806 L5.36685552,6 Z M11.1474359,6 L10,6 L10,11 L13,11 L13,9.99193548 L11.1474359,9.99193548 L11.1474359,6 Z" id="形状结合" fill="#536076"></path>
    </g>
</svg>