<svg xmlns="http://www.w3.org/2000/svg" width="16" height="16" viewBox="0 0 16 16">
  <path fill="#536076" fill-rule="evenodd" d="M15,5 L15,12 C15,13.1045695 14.1045695,14 13,14 L3,14 C1.8954305,14 1,13.1045695 1,12 L1,3.5 C1,2.67157288 1.67157288,2 2.5,2 L6,2 L6,2 L7,3 L13,3 C14.1045695,3 15,3.8954305 15,5 Z M5.61005746,6 C6.8645719,6 7.49594785,6.62439816 7.49594785,7.55539816 C7.49594785,8.1013036 7.36493055,8.65629965 6.765,8.84288078 C7.353,8.96888078 7.75278113,9.48211705 7.75278113,10.182117 C7.75278113,11.204117 6.863,11.8304662 5.722,11.8304662 L5.722,11.8304662 L4,11.8304662 L4,11.6784662 L4.01405746,6 Z M12.5924754,6 L12.5924754,7 L11,7 L11,11.5035692 L10,11.5035692 L10,7 L8.48293216,7 L8.48293216,6 L12.5924754,6 Z M5.59453335,9.45364959 L5.01619768,9.45364959 L5.01619768,10.9859244 L5.526,10.9859244 C6.32253335,10.9859244 6.69571713,10.655914 6.69571713,10.2128637 C6.69571713,9.7311549 6.32253335,9.45364959 5.59453335,9.45364959 L5.59453335,9.45364959 Z M5.526,7.02431492 L5.01619768,7.02431492 L5.01619768,8.54274321 L5.526,8.54274321 C6.254,8.54274321 6.63576021,8.22657935 6.63576021,7.78352906 C6.63576021,7.30182024 6.254,7.02431492 5.526,7.02431492 L5.526,7.02431492 Z"/>
</svg>
