<?xml version="1.0" encoding="UTF-8"?>
<svg width="24px" height="24px" viewBox="0 0 24 24" version="1.1" xmlns="http://www.w3.org/2000/svg" xmlns:xlink="http://www.w3.org/1999/xlink">
    <title>ICON/Login/fingerprint</title>
    <g id="ICON/Login/fingerprint" stroke="none" stroke-width="1" fill="none" fill-rule="evenodd">
        <rect id="矩形" fill-rule="nonzero" x="0" y="0" width="24" height="24"></rect>
        <path d="M12.5,4 C16.6421356,4 20,7.581722 20,12 C20,16.418278 16.6421356,20 12.5,20 C8.35786438,20 5,16.418278 5,12 C5,7.581722 8.35786438,4 12.5,4 Z M12.5,13 C11.6715729,13 11,13.6715729 11,14.5 L11,14.5 L11,16.5 L11.0080557,16.5898756 C11.0503916,16.8231248 11.2545401,17 11.5,17 C11.7761424,17 12,16.7761424 12,16.5 L12,16.5 L12,14.5 L12.0080557,14.4101244 C12.0503916,14.1768752 12.2545401,14 12.5,14 C12.7761424,14 13,14.2238576 13,14.5 L13,14.5 L13,16.5 L13.0080557,16.5898756 C13.0503916,16.8231248 13.2545401,17 13.5,17 C13.7761424,17 14,16.7761424 14,16.5 L14,16.5 L14,14.5 L13.9931334,14.35554 C13.9204487,13.5948881 13.2796961,13 12.5,13 Z M12.5,11 C10.5670034,11 9,12.5670034 9,14.5 L9,14.5 L9,16.5 L9.00805567,16.5898756 C9.05039163,16.8231248 9.25454011,17 9.5,17 C9.77614237,17 10,16.7761424 10,16.5 L10,16.5 L10,14.5 L10.0053177,14.3356243 C10.0899613,13.0315359 11.1745166,12 12.5,12 C13.8807119,12 15,13.1192881 15,14.5 L15,14.5 L15,16.5 L15.0080557,16.5898756 C15.0503916,16.8231248 15.2545401,17 15.5,17 C15.7761424,17 16,16.7761424 16,16.5 L16,16.5 L16,14.5 L15.9948211,14.3079648 C15.8951264,12.4642776 14.3685634,11 12.5,11 Z M15.4994486,9.88917504 C15.2681022,9.73839888 14.9583306,9.80371396 14.8075545,10.0350604 C14.6567783,10.2664068 14.7220934,10.5761783 14.9534398,10.7269545 C16.0874559,11.4660306 16.8381095,12.6782436 16.9766071,14.0379489 C17.0045897,14.3126699 17.2499795,14.5126907 17.5247004,14.4847081 C17.7994213,14.4567254 17.9994422,14.2113357 17.9714595,13.9366147 C17.8020651,12.2735781 16.884537,10.7918833 15.4994486,9.88917504 Z M12.5,9 C9.74981749,9 7.43284158,11.0302989 7.05375211,13.7284632 C7.01533173,14.0019198 7.20586619,14.254746 7.47932274,14.2931663 C7.75277929,14.3315867 8.0056055,14.1410523 8.04402588,13.8675957 C8.35398674,11.6614534 10.2500363,10 12.5,10 C12.7761424,10 13,9.77614237 13,9.5 C13,9.22385763 12.7761424,9 12.5,9 Z M12.5,7 C10.3648298,7 8.37274746,7.89765831 6.96090218,9.44341326 C6.7746716,9.6473073 6.78899066,9.9635658 6.99288471,10.1497964 C7.19677875,10.336027 7.51303725,10.3217079 7.69926783,10.1178139 C8.92358452,8.77737408 10.6487322,8 12.5,8 C14.3454368,8 16.0656455,8.77244914 17.289478,10.1055238 C17.4762274,10.3089428 17.7925213,10.3224562 17.9959403,10.1357069 C18.1993593,9.94895754 18.2128728,9.63266359 18.0261234,9.42924458 C16.614831,7.89197694 14.6284394,7 12.5,7 Z" id="形状结合" fill="#FFFFFF" fill-rule="nonzero"></path>
    </g>
</svg>