<?xml version="1.0" encoding="UTF-8"?>
<svg width="24px" height="24px" viewBox="0 0 24 24" version="1.1" xmlns="http://www.w3.org/2000/svg" xmlns:xlink="http://www.w3.org/1999/xlink">
    <title>ICON/Login/pass world</title>
    <g id="ICON/Login/pass-world" stroke="none" stroke-width="1" fill="none" fill-rule="evenodd">
        <rect id="矩形" fill-rule="nonzero" x="0" y="0" width="24" height="24"></rect>
        <path d="M12,3.50422863 C14.4852814,3.50422863 16.5,5.51894726 16.5,8.00422863 C16.5,9.77060376 15.482278,11.2992772 14.0012214,12.0358616 L14,20.0042286 L12,21.5042286 L10,20.0042286 L10,19.0042286 L11,18.0042286 L10,17.0042286 L10,16.0042286 L11,15.0042286 L10,14.0042286 L9.99978782,12.0363634 C8.51818431,11.2999715 7.5,9.77100493 7.5,8.00422863 C7.5,5.51894726 9.51471863,3.50422863 12,3.50422863 Z M12,5.00422863 C11.4477153,5.00422863 11,5.45194388 11,6.00422863 C11,6.55651338 11.4477153,7.00422863 12,7.00422863 C12.5522847,7.00422863 13,6.55651338 13,6.00422863 C13,5.45194388 12.5522847,5.00422863 12,5.00422863 Z" id="形状结合" fill="#FFFFFF" fill-rule="nonzero" transform="translate(12.000000, 12.504229) rotate(-30.000000) translate(-12.000000, -12.504229) "></path>
    </g>
</svg>