<?xml version="1.0" encoding="UTF-8"?>
<svg width="28px" height="28px" viewBox="0 0 28 28" version="1.1" xmlns="http://www.w3.org/2000/svg" xmlns:xlink="http://www.w3.org/1999/xlink">
    <title>ICon/rdp port_dark</title>
    <g id="ICon/rdp-port_dark" stroke="none" stroke-width="1" fill="none" fill-rule="evenodd">
        <g id="ICon/disk">
            <rect id="矩形" fill="#FF6969" opacity="0" transform="translate(14.000000, 14.000000) rotate(-360.000000) translate(-14.000000, -14.000000) " x="0" y="0" width="28" height="28"></rect>
            <path d="M20,6 C21.1045695,6 22,6.8954305 22,8 L22,13 L16,13 L16.0014939,13.9081303 C15.2111706,13.3334068 14.1399001,12.9971227 12.9992394,13 C11.3272285,12.9973781 9.8050729,13.7225631 9.09766186,14.858807 C8.78313735,15.3646986 9.26703041,15.9362874 9.99564859,15.9950532 L10.119256,16 L15.8872228,16 L16,15.995 L16,19 L14,19 L14,21 L16,21 L16,22 L8.5,22 C8.22385763,22 8,21.7761424 8,21.5 C8,21.2238576 8.22385763,21 8.5,21 L12,21 L12,19 L6,19 C4.8954305,19 4,18.1045695 4,17 L4,8 C4,6.8954305 4.8954305,6 6,6 L20,6 Z M22,14 L20.2063517,15.7928932 L23.3890873,18.9748737 L21.9748737,20.3890873 L18.7921382,17.2071068 L17,19 L17,14 L22,14 Z M12.9973338,8 C12.4676154,7.99964657 11.9594814,8.20987407 11.5848512,8.58437916 C11.2102211,8.95888425 10.999824,9.46694804 11,9.99666661 C10.998895,11.1011926 11.8928095,11.9977924 12.9973338,12 C14.1027226,11.9977975 14.998166,11.1020561 15,9.99666661 C14.9974259,8.89266324 14.10134,7.99926194 12.9973338,8 Z" id="形状结合" fill="#C5CFE0"></path>
        </g>
    </g>
</svg>