<svg width="64" height="64" viewBox="0 0 64 64" fill="none" xmlns="http://www.w3.org/2000/svg">
<path d="M31.2941 38.3589C31.2131 38.1383 31.115 37.9243 31.0008 37.7189C30.9158 37.4954 30.8086 37.281 30.6808 37.0789C30.2375 36.2975 29.6903 35.5799 29.0542 34.9455C28.4233 34.3054 27.7051 33.7578 26.9208 33.3189C26.7191 33.1947 26.5098 33.0834 26.2941 32.9855C26.0808 32.8788 25.8675 32.7855 25.6541 32.6922C23.7957 31.9441 21.7584 31.7589 19.7955 32.1595C17.8326 32.5602 16.0308 33.529 14.6141 34.9455L8.28082 41.2789C6.37531 43.1957 5.30753 45.7898 5.31153 48.4926C5.31554 51.1954 6.39099 53.7863 8.30216 55.6975C10.2133 57.6087 12.8043 58.6841 15.5071 58.6881C18.2099 58.6921 20.804 57.6244 22.7208 55.7189L29.0542 49.3855C30.4665 47.969 31.4317 46.1689 31.83 44.2086C32.2282 42.2483 32.0419 40.2142 31.2941 38.3589ZM25.2808 45.6122L18.9475 51.9455C18.0334 52.8596 16.7936 53.3732 15.5008 53.3732C14.2081 53.3732 12.9683 52.8596 12.0541 51.9455C11.14 51.0314 10.6265 49.7916 10.6265 48.4989C10.6265 47.2061 11.14 45.9663 12.0541 45.0522L18.3875 38.7189C19.0967 38.0082 20.0105 37.5373 21.0008 37.3722C21.2777 37.3191 21.5589 37.2923 21.8408 37.2921C21.8857 37.2899 21.9306 37.2944 21.9741 37.3055C22.2657 37.3035 22.5564 37.3349 22.8408 37.3989C23.7655 37.5915 24.6136 38.0503 25.2808 38.7189C25.9588 39.379 26.4193 40.2302 26.6008 41.1589C26.6648 41.4433 26.6961 41.734 26.6942 42.0255C26.719 42.3559 26.6965 42.6882 26.6275 43.0122C26.4678 44.0004 25.9958 44.9116 25.2808 45.6122ZM29.0542 34.9455C28.4233 34.3054 27.7051 33.7578 26.9208 33.3189L22.8408 37.3989C23.7655 37.5916 24.6136 38.0504 25.2808 38.7189C25.9588 39.379 26.4193 40.2303 26.6008 41.1589L30.6808 37.079C30.2375 36.2976 29.6903 35.5799 29.0542 34.9455V34.9455Z" fill="#F6F6F6"/>
<path d="M55.7194 8.28299C53.8043 6.36848 51.2073 5.29297 48.4994 5.29297C45.7914 5.29297 43.1944 6.36848 41.2794 8.28299L34.946 14.6163C33.5336 16.0328 32.5684 17.833 32.1702 19.7933C31.772 21.7536 31.9583 23.7877 32.706 25.643C32.7871 25.8636 32.8851 26.0776 32.9994 26.283C33.0844 26.5065 33.1916 26.7209 33.3194 26.923C33.7627 27.7044 34.3099 28.422 34.946 29.0563C35.5769 29.6964 36.2951 30.2441 37.0794 30.683C37.2811 30.8071 37.4904 30.9184 37.706 31.0163C37.9194 31.123 38.1326 31.2162 38.346 31.3097C40.2052 32.0535 42.2414 32.2364 44.2034 31.836C46.1654 31.4355 47.9671 30.4692 49.386 29.0563L55.7194 22.723C57.6279 20.8048 58.6993 18.2089 58.6993 15.503C58.6993 12.797 57.6279 10.2012 55.7194 8.28299V8.28299ZM51.946 18.9497L45.6127 25.283C44.907 25.9985 43.9915 26.4702 42.9994 26.6297C42.6798 26.6987 42.352 26.7212 42.026 26.6963C41.7345 26.6983 41.4437 26.6669 41.1594 26.6029C40.235 26.4094 39.3871 25.9507 38.7193 25.2829C38.0516 24.6151 37.5929 23.7672 37.3994 22.8429C37.3354 22.5585 37.3041 22.2677 37.306 21.9762C37.2812 21.6458 37.3037 21.3136 37.3727 20.9896C37.5324 20.0013 38.0043 19.0902 38.7194 18.3897L45.0527 12.0563C45.9668 11.1422 47.2066 10.6287 48.4994 10.6287C49.1395 10.6287 49.7733 10.7547 50.3647 10.9997C50.9561 11.2447 51.4934 11.6037 51.946 12.0563C52.3986 12.5089 52.7577 13.0463 53.0026 13.6377C53.2476 14.229 53.3737 14.8629 53.3737 15.503C53.3737 16.1431 53.2476 16.7769 53.0026 17.3683C52.7577 17.9597 52.3986 18.497 51.946 18.9497Z" fill="#F6F6F6"/>
<path d="M23.9993 42.6651C23.4719 42.665 22.9564 42.5086 22.518 42.2155C22.0795 41.9225 21.7378 41.5061 21.536 41.0188C21.3342 40.5316 21.2814 39.9955 21.3842 39.4783C21.4871 38.9611 21.741 38.4859 22.1139 38.113L27.1139 33.113C27.6139 32.613 28.2921 32.332 28.9993 32.332C29.7064 32.332 30.3846 32.613 30.8847 33.113C31.3847 33.613 31.6656 34.2912 31.6656 34.9984C31.6656 35.7056 31.3847 36.3838 30.8847 36.8838L25.8847 41.8838C25.6374 42.1318 25.3435 42.3285 25.0199 42.4626C24.6964 42.5967 24.3495 42.6655 23.9993 42.6651Z" fill="#ECECEC"/>
<path d="M34.6663 32.333C34.1389 32.333 33.6234 32.1765 33.185 31.8835C32.7465 31.5905 32.4048 31.174 32.203 30.6868C32.0012 30.1996 31.9484 29.6635 32.0512 29.1462C32.1541 28.629 32.408 28.1539 32.7808 27.781L37.7808 22.781C38.2809 22.2809 38.9591 22 39.6663 22C40.3734 22 41.0516 22.2809 41.5517 22.781C42.0517 23.281 42.3326 23.9592 42.3326 24.6664C42.3326 25.3735 42.0517 26.0517 41.5517 26.5518L36.5517 31.5518C36.3044 31.7998 36.0105 31.9965 35.6869 32.1306C35.3634 32.2647 35.0165 32.3335 34.6663 32.333Z" fill="#ECECEC"/>
<circle cx="50" cy="50" r="12" fill="#FB5050"/>
<rect x="54.2422" y="42.9297" width="4" height="16" rx="2" transform="rotate(45 54.2422 42.9297)" fill="white"/>
<rect width="4" height="16" rx="2" transform="matrix(-0.707107 0.707107 0.707107 0.707107 45.7578 42.9297)" fill="white"/>
<line x1="27.1456" y1="24.9698" x2="25.9698" y2="20.8544" stroke="#ECECEC" stroke-width="3" stroke-linecap="round"/>
<line x1="35.1456" y1="41.9698" x2="33.9698" y2="37.8544" stroke="#ECECEC" stroke-width="3" stroke-linecap="round"/>
<line x1="24.1456" y1="28.0302" x2="20.0302" y2="26.8544" stroke="#ECECEC" stroke-width="3" stroke-linecap="round"/>
<line x1="41.1456" y1="36.0302" x2="37.0302" y2="34.8544" stroke="#ECECEC" stroke-width="3" stroke-linecap="round"/>
</svg>
