<svg width="64" height="64" viewBox="0 0 64 64" fill="none" xmlns="http://www.w3.org/2000/svg">
<rect opacity="0.01" width="64" height="64" rx="2" fill="#737373"/>
<path d="M30.6324 2.83675L6.16184 51.793C5.6521 52.8112 6.40842 54 7.56466 54H56.4353C57.5916 54 58.3479 52.8112 57.8382 51.793L33.3676 2.83675C32.8123 1.72108 31.1898 1.72108 30.6324 2.83675Z" fill="#F6F6F6"/>
<path d="M32 10L24 53.976L31.0257 61.5643C31.5635 62.1452 32.4365 62.1452 32.9743 61.5643L40 53.976L32 10Z" fill="#ECECEC"/>
<circle cx="50" cy="50" r="12" fill="#0FCE75"/>
<path fill-rule="evenodd" clip-rule="evenodd" d="M57.4244 45.317C56.6434 44.536 55.3771 44.536 54.596 45.317L48.232 51.681L45.4036 48.8525C44.6226 48.0715 43.3562 48.0715 42.5752 48.8525C41.7941 49.6336 41.7941 50.8999 42.5752 51.681L46.8178 55.9236C47.5989 56.7047 48.8652 56.7047 49.6463 55.9236L57.4244 48.1454C58.2055 47.3644 58.2055 46.0981 57.4244 45.317Z" fill="white"/>
</svg>
