<svg width="64" height="64" viewBox="0 0 64 64" fill="none" xmlns="http://www.w3.org/2000/svg">
<rect opacity="0.01" width="64" height="64" rx="2" fill="#737373"/>
<path d="M30.6324 2.83675L6.16184 51.793C5.6521 52.8112 6.40842 54 7.56466 54H56.4353C57.5916 54 58.3479 52.8112 57.8382 51.793L33.3676 2.83675C32.8123 1.72108 31.1898 1.72108 30.6324 2.83675Z" fill="#F6F6F6"/>
<path d="M32 10L24 53.976L31.0257 61.5643C31.5635 62.1452 32.4365 62.1452 32.9743 61.5643L40 53.976L32 10Z" fill="#ECECEC"/>
<circle cx="50" cy="50" r="12" fill="#FB5050"/>
<rect x="54.2422" y="42.9297" width="4" height="16" rx="2" transform="rotate(45 54.2422 42.9297)" fill="white"/>
<rect width="4" height="16" rx="2" transform="matrix(-0.707107 0.707107 0.707107 0.707107 45.7578 42.9297)" fill="white"/>
</svg>
