<svg viewBox="0 0 64 64" fill="none" xmlns="http://www.w3.org/2000/svg">
<path opacity="0.75" fill-rule="evenodd" clip-rule="evenodd" d="M34.625 20.7539C34.625 18.9767 36.7697 18.0823 38.0324 19.333L38.1254 19.425C38.9154 20.2076 38.9154 21.4844 38.1254 22.267L35.36 25.006L39.0612 28.672L45.5528 22.2422C46.3434 21.4592 46.3429 20.1814 45.5516 19.399L32.5436 6.5375C32.1953 6.19314 31.7253 6 31.2355 6C30.208 6 29.375 6.83298 29.375 7.86051V19.078L34.625 24.278V20.7539ZM16.1087 12.594C15.3292 11.822 14.0733 11.822 13.2938 12.594L12.4346 13.445C11.6445 14.2276 11.6445 15.5044 12.4346 16.287L28.2987 32L15.0596 45.113C14.2695 45.8956 14.2695 47.1724 15.0596 47.955L15.9188 48.806C16.6983 49.578 17.9542 49.578 18.7337 48.806L29.375 38.266V56.1402C29.375 57.1673 30.2077 58 31.2348 58C31.725 58 32.1954 57.8065 32.5436 57.4615L41.8569 48.237C42.6351 47.4661 43.8887 47.4648 44.6686 48.2339L47.8913 51.4121C48.6713 52.1812 49.9248 52.1799 50.7031 51.409L51.5654 50.555C52.3554 49.7724 52.3554 48.4956 51.5654 47.713L16.1087 12.594ZM39.56 43.154L34.625 38.266V48.042L39.56 43.154Z" fill="#A8A8A8"/>
</svg>
