<svg id="安装程序" xmlns="http://www.w3.org/2000/svg" xmlns:xlink="http://www.w3.org/1999/xlink" viewBox="0 0 256 256"><defs><style>.cls-1{fill:url(#未命名的渐变_26);}.cls-2,.cls-3{fill:#f9f9f9;}.cls-2{fill-rule:evenodd;}</style><linearGradient id="未命名的渐变_26" x1="185.01" y1="226.74" x2="70.99" y2="29.26" gradientUnits="userSpaceOnUse"><stop offset="0" stop-color="#dd4814"/><stop offset="1" stop-color="#dd7514"/></linearGradient></defs><g id="_256" data-name="256"><circle class="cls-1" cx="128" cy="128" r="114"/><polygon class="cls-2" points="122.21 117.53 128.19 109.5 125.94 100.9 129.87 89.5 120.71 98.85 119.4 98.47 121.83 92.68 113.24 101.28 105.01 106.32 96.42 122.39 101.09 134.35 102.77 143.51 104.64 148.18 97.91 156.22 107.26 156.22 108.56 147.81 112.3 142.02 118.47 143.14 125.38 140.33 130.62 137.72 135.66 141.08 129.68 148.18 123.52 153.79 133.05 153.98 133.05 150.24 140.52 144.45 143.14 147.62 135.47 158.65 145.19 158.65 144.82 153.23 151.92 146.69 148.37 139.4 147.81 130.62 155.1 126.5 159.02 127.25 164.63 125.38 166.13 114.17 157.72 116.79 152.48 124.45 143.51 129.12 131.18 124.08 122.21 117.53"/><circle class="cls-3" cx="170.5" cy="57.5" r="16.5"/><circle class="cls-3" cx="45.5" cy="128.5" r="16.5"/><circle class="cls-3" cx="171.5" cy="198.5" r="16.5"/><path class="cls-3" d="M109,85.38a48,48,0,0,1,67.68,38.12h25.09A72.72,72.72,0,0,0,180.2,77a22,22,0,0,1-31.12-18.16A72.94,72.94,0,0,0,95.86,64Z"/><path class="cls-3" d="M100.41,167.53a47.94,47.94,0,0,1,.8-77.63L88.12,68.54a73.09,73.09,0,0,0-29.59,41.38,22,22,0,0,1-.43,36.45,73.09,73.09,0,0,0,30,43.08Z"/><path class="cls-3" d="M176.86,132.5a48,48,0,0,1-68.75,39.71L95.83,194A73,73,0,0,0,149,199.2a1.34,1.34,0,0,1,0-.2,22,22,0,0,1,32.52-19.33,72.66,72.66,0,0,0,20.39-47.17Z"/></g></svg>