<svg xmlns="http://www.w3.org/2000/svg" xmlns:xlink="http://www.w3.org/1999/xlink" width="156" height="46" viewBox="0 0 156 46">
  <defs>
    <linearGradient id="distribution_logo_transparent-c" x1="50%" x2="50%" y1="0%" y2="100%">
      <stop offset="0%" stop-color="#FFF"/>
      <stop offset="100%" stop-color="#F9F9F9"/>
    </linearGradient>
    <path id="distribution_logo_transparent-b" d="M57.9707378,34.003001 C59.0026594,34.003001 59.0086589,33.080001 59.007659,32.987001 C59.0066591,32.640001 59.0016595,30.368001 59.0016595,30.019001 C59.0016595,29.019001 57.9867365,29.003001 57.9867365,29.003001 C57.9867365,29.003001 42.2431146,28.987001 40.9722112,28.987001 C38.9573642,28.987001 38.9883618,27.037001 38.9883618,27.037001 C38.9623638,26.910001 38.9893618,25.003001 38.9883618,25.003001 L54.9949638,25.003001 C60.548542,25.003001 59.9865846,21.003001 59.9865846,21.003001 C59.9865846,18.486001 59.9865846,20.660001 59.9865846,18.039001 C59.9865846,18.039001 60.5285435,11.003001 53.0031151,11.003001 L40.1482737,11.003001 C32.4888555,11.003001 33.0078161,17.946001 33.0078161,17.946001 C33.0078161,21.705001 33.0098159,22.049001 33.0098159,26.995001 C33.0098159,34.003001 40.0192835,33.971001 40.0192835,33.971001 L57.9707378,34.003001 Z M95.9889275,11.003001 C99.8464373,11.003001 96.5779859,11.0222703 104.655132,11.0159893 L105.792001,11.015005 C115.307278,11.0050017 116.98915,19.1107036 116.999149,22.978993 C117.008149,26.8482828 115.351275,34.0010003 105.940989,33.996999 C101.560322,33.9959987 101.200532,33.9979993 96.9908514,33.996999 C96.9908514,33.996999 96.9875773,40.4554035 96.9869536,41.7463279 L96.9868517,41.9686562 C96.9868517,43 95.9879276,43 95.9879276,43 L91.9952877,42.9998285 C91.8958896,42.9969126 91.0013063,42.9444259 91.0013063,41.9996666 L91.0013063,41.9996666 L91.0015661,15.9549499 C91.0082634,15.6074447 91.1875941,11.003001 95.9889275,11.003001 Z M124.001352,11.003001 C124.55331,11.003001 125.001276,11.451001 125.001276,12.003001 L125.001276,33.003001 C125.001276,33.555001 124.55331,34.003001 124.001352,34.003001 L120.001656,34.003001 C119.449698,34.003001 119.001732,33.555001 119.001732,33.003001 L119.001732,12.003001 C119.001732,11.451001 119.449698,11.003001 120.001656,11.003001 L124.001352,11.003001 Z M127.001853,11.0070013 C127.001853,11.0070013 131.655317,11.0000021 139.000759,11.0100009 C146.346202,11.0199998 149,14.0045561 149,19.5469388 L149,19.5469388 L149,33.0014404 C149,33.553379 148.553034,34.0003292 148.001076,34.0013291 L148.001076,34.0013291 L144.00338,34.0033289 C143.449422,34.0043287 143.001456,33.5553787 143.002456,33.0014404 L143.002456,33.0014404 L143.031453,20.0018882 C143.031453,15.0854357 139.159747,16.0104441 138.99276,16.0104441 C136.640424,16.0104441 133.794786,16.0166215 133.139496,16.0181191 L133.000398,16.0184432 L133.029395,32.969444 C133.029395,32.969444 133.069392,34.1753097 131.691497,33.9793315 C130.713571,33.9823312 129.176688,33.9873306 128.198762,33.9913302 C127.291831,34.1073173 127.001853,33.4383918 127.001853,32.9844423 L127.001853,32.9844423 Z M82.0035556,11.003001 C89.528984,11.003001 88.9870252,18.039001 88.9870252,18.039001 L88.9875423,21.0069199 C89.0054383,21.1471332 89.4480083,25.003001 83.9954043,25.003001 L83.9954043,25.003001 L67.9888023,25.003001 C67.9898023,25.003001 67.9628043,26.910001 67.9888023,27.037001 C67.9888023,27.037001 67.9578047,28.987001 69.9726517,28.987001 C71.2435551,28.987001 86.987177,29.003001 86.987177,29.003001 C86.987177,29.003001 88.0021,29.019001 88.0021,30.019001 C88.0021,30.368001 88.0070996,32.640001 88.0080995,32.987001 C88.0090994,33.080001 88.0030999,34.003001 86.9711783,34.003001 L86.9711783,34.003001 L69.019724,33.971001 C69.019724,33.971001 62.0102564,34.003001 62.0102564,26.995001 C62.0102564,23.9974252 62.0095219,22.6902076 62.0089431,21.2886694 L62.0082566,17.946001 C62.0082566,17.946001 61.489296,11.003001 69.1487142,11.003001 L69.1487142,11.003001 Z M29.9998868,3.00017152 C30.0999376,3.00308745 31.0003949,3.05557408 31.0003949,4.00033344 L31.0003949,4.00033344 L31.0001062,29.0460463 C30.992924,29.3934816 30.8072247,33.996999 26.0088213,33.996999 C22.1519356,33.996999 25.4133409,33.9777297 17.3390252,33.9840107 L16.2025908,33.984995 C6.69121424,33.9949983 5.01003147,25.8892964 5.00003633,22.021007 C4.9910407,18.1527176 6.64723562,11 16.0536631,11.003001 C20.4335341,11.0050017 20.7923571,11.0020007 25.0003116,11.003001 C25.0003116,11.003001 25.0031468,6.11728009 25.0040421,4.52543646 L25.0043096,4.03134378 C25.0043096,3 26.0058228,3 26.0058228,3 Z M18.9694775,16.0278924 L17.6759207,16.0277071 C14.8956738,16.036962 11.012742,16.2992331 11.0155418,22.0850283 C11.0175417,28.2830944 15.028237,29.0023341 18.2999885,29.0113371 C21.1026328,29.0199114 22.4748028,29.012317 23.4960164,29.0099722 L23.9823746,29.0093364 C24.9982975,29.0093364 24.9822987,28.0340113 24.9822987,28.0340113 L24.9820124,26.8705039 C24.9813755,24.7401338 24.9798277,20.3318911 24.9789445,17.8459439 L24.978299,16.0386796 C24.978299,16.0386796 21.6638081,16.0294334 18.9694775,16.0278924 Z M103.676775,15.9886629 C100.873273,15.9800886 99.5009808,15.987683 98.4797497,15.9900278 L97.9933886,15.9906636 C96.9784657,15.9906636 96.9934646,16.966989 96.9934646,16.966989 L96.9939845,18.5552251 C96.9949735,21.103643 96.9971089,25.9277511 96.9980284,27.9888944 L96.9984642,28.9623208 C96.9984642,28.9623208 100.312955,28.9707264 103.007286,28.9721273 L104.300842,28.9722929 C107.081089,28.963038 110.964021,28.7007669 110.961221,22.9149717 C110.959222,16.7169056 106.948526,15.9986662 103.676775,15.9886629 Z M52.043061,16.0206736 C52.9489922,16.0206736 54.0009123,17.036012 53.9959127,18.0213404 C53.991913,18.8006002 53.9799139,18.2777593 53.9799139,19.0220073 C53.9799139,19.0220073 53.9799139,20.0203401 53.0129873,20.0203401 L48.3389268,20.0209672 C44.2580332,20.021554 38.9972342,20.0223408 38.9972342,20.0223408 L38.9977943,19.7944143 C38.998895,19.3398988 39.0012339,18.338505 39.0012339,18.0363454 C39.0012339,17.021007 39.9661606,16.0236746 41.0130811,16.0206736 L41.1993897,16.020166 C42.8087502,16.0170358 51.0839246,16.0206736 52.043061,16.0206736 Z M81.0406762,16.0206736 C80.0815398,16.0206736 71.8063654,16.0170358 70.1970049,16.020166 L70.0106963,16.0206736 C68.9637758,16.0236746 67.9988491,17.021007 67.9988491,18.0363454 C67.9988491,18.4314772 67.9948494,20.0223408 67.9948494,20.0223408 C67.9948494,20.0223408 73.2556485,20.021554 77.336542,20.0209672 L82.0106026,20.0203401 C82.9775291,20.0203401 82.9775291,19.0220073 82.9775291,19.0220073 L82.9777055,18.8809835 C82.9792025,18.3458074 82.9898139,18.7449388 82.9935279,18.0213404 C82.9985275,17.036012 81.9466074,16.0206736 81.0406762,16.0206736 Z M124.001352,3 C124.55331,3 125.001276,3.44814938 125.001276,4.00033344 L125.001276,8.00166722 C125.001276,8.55385128 124.55331,9.00200067 124.001352,9.00200067 L120.001656,9.00200067 C119.449698,9.00200067 119.001732,8.55385128 119.001732,8.00166722 L119.001732,4.00033344 C119.001732,3.44814938 119.449698,3 120.001656,3 L124.001352,3 Z"/>
    <filter id="distribution_logo_transparent-a" width="106.9%" height="125%" x="-3.5%" y="-10%" filterUnits="objectBoundingBox">
      <feOffset dy="1" in="SourceAlpha" result="shadowOffsetOuter1"/>
      <feGaussianBlur in="shadowOffsetOuter1" result="shadowBlurOuter1" stdDeviation="1.5"/>
      <feColorMatrix in="shadowBlurOuter1" values="0 0 0 0 0   0 0 0 0 0   0 0 0 0 0  0 0 0 0.1 0"/>
    </filter>
  </defs>
  <g fill="none" fill-rule="evenodd" opacity=".4">
    <use fill="#000" filter="url(#distribution_logo_transparent-a)" xlink:href="#distribution_logo_transparent-b"/>
    <use fill="url(#distribution_logo_transparent-c)" xlink:href="#distribution_logo_transparent-b"/>
  </g>
</svg>
