<?xml version="1.0" encoding="UTF-8"?>
<svg width="32px" height="32px" viewBox="0 0 32 32" version="1.1" xmlns="http://www.w3.org/2000/svg" xmlns:xlink="http://www.w3.org/1999/xlink">
    <title>ICON/uos/password-white</title>
    <defs>
        <linearGradient x1="50%" y1="18.7857256%" x2="50%" y2="100%" id="linearGradient-1">
            <stop stop-color="#FFFFFF" offset="0%"></stop>
            <stop stop-color="#D5D5D5" offset="100%"></stop>
        </linearGradient>
        <path d="M15.4166667,11 C14.8183582,11 14.3333333,10.5075132 14.3333333,9.9 L14.3333333,6.6 C14.3333333,4.1699471 12.3932339,2.2 10,2.2 C7.60676608,2.2 5.66666667,4.1699471 5.66666667,6.6 L5.66666667,9.9 C5.66666667,10.5075132 5.18164181,11 4.58333333,11 C3.98502485,11 3.5,10.5075132 3.5,9.9 L3.5,6.6 C3.5,2.95492065 6.41014913,0 10,0 C13.5898509,0 16.5,2.95492065 16.5,6.6 L16.5,9.9 C16.5,10.5075132 16.0149751,11 15.4166667,11 Z" id="path-2"></path>
        <filter x="-26.9%" y="-22.7%" width="153.8%" height="163.6%" filterUnits="objectBoundingBox" id="filter-3">
            <feOffset dx="0" dy="1" in="SourceAlpha" result="shadowOffsetOuter1"></feOffset>
            <feGaussianBlur stdDeviation="1" in="shadowOffsetOuter1" result="shadowBlurOuter1"></feGaussianBlur>
            <feColorMatrix values="0 0 0 0 0   0 0 0 0 0   0 0 0 0 0  0 0 0 0.2 0" type="matrix" in="shadowBlurOuter1"></feColorMatrix>
        </filter>
        <filter x="-26.9%" y="-22.7%" width="153.8%" height="163.6%" filterUnits="objectBoundingBox" id="filter-4">
            <feGaussianBlur stdDeviation="1" in="SourceAlpha" result="shadowBlurInner1"></feGaussianBlur>
            <feOffset dx="0" dy="-1" in="shadowBlurInner1" result="shadowOffsetInner1"></feOffset>
            <feComposite in="shadowOffsetInner1" in2="SourceAlpha" operator="arithmetic" k2="-1" k3="1" result="shadowInnerInner1"></feComposite>
            <feColorMatrix values="0 0 0 0 0   0 0 0 0 0   0 0 0 0 0  0 0 0 0.3 0" type="matrix" in="shadowInnerInner1"></feColorMatrix>
        </filter>
        <linearGradient x1="50%" y1="20.4821829%" x2="50%" y2="100%" id="linearGradient-5">
            <stop stop-color="#FFFFFF" offset="0%"></stop>
            <stop stop-color="#D5D5D5" offset="100%"></stop>
        </linearGradient>
        <path d="M16.76,9 C18.5494026,9 20,10.4505974 20,12.24 L20,21.76 C20,23.5494026 18.5494026,25 16.76,25 L3.24000001,25 C1.45059741,25 2.19138616e-16,23.5494026 0,21.76 L0,12.24 C-2.19138616e-16,10.4505974 1.45059741,9 3.24000001,9 L16.76,9 Z M10,13 C8.8954305,13 8,13.8954305 8,15 C8,15.7398375 8.40171539,16.3858493 8.9989225,16.7318119 L9,18.8 C9,19.4627417 9.44771525,20 10,20 C10.5522847,20 11,19.4627417 11,18.8 L11.0000725,16.7323937 C11.5978339,16.3865739 12,15.7402524 12,15 C12,13.8954305 11.1045695,13 10,13 Z" id="path-6"></path>
        <filter x="-17.5%" y="-15.6%" width="135.0%" height="143.8%" filterUnits="objectBoundingBox" id="filter-7">
            <feOffset dx="0" dy="1" in="SourceAlpha" result="shadowOffsetOuter1"></feOffset>
            <feGaussianBlur stdDeviation="1" in="shadowOffsetOuter1" result="shadowBlurOuter1"></feGaussianBlur>
            <feColorMatrix values="0 0 0 0 0   0 0 0 0 0   0 0 0 0 0  0 0 0 0.2 0" type="matrix" in="shadowBlurOuter1"></feColorMatrix>
        </filter>
        <filter x="-20.0%" y="-18.8%" width="140.0%" height="150.0%" filterUnits="objectBoundingBox" id="filter-8">
            <feGaussianBlur stdDeviation="1.5" in="SourceAlpha" result="shadowBlurInner1"></feGaussianBlur>
            <feOffset dx="0" dy="-1" in="shadowBlurInner1" result="shadowOffsetInner1"></feOffset>
            <feComposite in="shadowOffsetInner1" in2="SourceAlpha" operator="arithmetic" k2="-1" k3="1" result="shadowInnerInner1"></feComposite>
            <feColorMatrix values="0 0 0 0 0   0 0 0 0 0   0 0 0 0 0  0 0 0 0.3 0" type="matrix" in="shadowInnerInner1"></feColorMatrix>
        </filter>
    </defs>
    <g id="ICON/uos/password-white" stroke="none" stroke-width="1" fill="none" fill-rule="evenodd">
        <g id="9004738_lock_security_padlock_secure_icon" transform="translate(6.000000, 3.000000)" fill-rule="nonzero">
            <g id="路径">
                <use fill="black" fill-opacity="1" filter="url(#filter-3)" xlink:href="#path-2"></use>
                <use fill="url(#linearGradient-1)" xlink:href="#path-2"></use>
                <use fill="black" fill-opacity="1" filter="url(#filter-4)" xlink:href="#path-2"></use>
            </g>
            <g id="形状结合">
                <use fill="black" fill-opacity="1" filter="url(#filter-7)" xlink:href="#path-6"></use>
                <use fill="url(#linearGradient-5)" xlink:href="#path-6"></use>
                <use fill="black" fill-opacity="1" filter="url(#filter-8)" xlink:href="#path-6"></use>
            </g>
        </g>
    </g>
</svg>