<?xml version="1.0" encoding="UTF-8"?>
<svg width="32px" height="32px" viewBox="0 0 32 32" version="1.1" xmlns="http://www.w3.org/2000/svg" xmlns:xlink="http://www.w3.org/1999/xlink">
    <title>app/deepin-id/32px</title>
    <defs>
        <filter x="-7.1%" y="-3.6%" width="114.3%" height="114.3%" filterUnits="objectBoundingBox" id="filter-1">
            <feOffset dx="0" dy="1" in="SourceAlpha" result="shadowOffsetOuter1"></feOffset>
            <feGaussianBlur stdDeviation="0.5" in="shadowOffsetOuter1" result="shadowBlurOuter1"></feGaussianBlur>
            <feColorMatrix values="0 0 0 0 0   0 0 0 0 0   0 0 0 0 0  0 0 0 0.15 0" type="matrix" in="shadowBlurOuter1" result="shadowMatrixOuter1"></feColorMatrix>
            <feMerge>
                <feMergeNode in="shadowMatrixOuter1"></feMergeNode>
                <feMergeNode in="SourceGraphic"></feMergeNode>
            </feMerge>
        </filter>
        <linearGradient x1="50.0006818%" y1="2.22971221%" x2="50.0006818%" y2="97.1222502%" id="linearGradient-2">
            <stop stop-color="#DFFFFF" offset="0%"></stop>
            <stop stop-color="#C0E9FE" offset="100%"></stop>
        </linearGradient>
        <linearGradient x1="50%" y1="0%" x2="50%" y2="100%" id="linearGradient-3">
            <stop stop-color="#00A9FF" offset="0%"></stop>
            <stop stop-color="#0049EA" offset="100%"></stop>
        </linearGradient>
        <circle id="path-4" cx="14" cy="14" r="12"></circle>
        <filter x="-8.3%" y="-8.3%" width="116.7%" height="116.7%" filterUnits="objectBoundingBox" id="filter-5">
            <feGaussianBlur stdDeviation="2" in="SourceAlpha" result="shadowBlurInner1"></feGaussianBlur>
            <feOffset dx="0" dy="0" in="shadowBlurInner1" result="shadowOffsetInner1"></feOffset>
            <feComposite in="shadowOffsetInner1" in2="SourceAlpha" operator="arithmetic" k2="-1" k3="1" result="shadowInnerInner1"></feComposite>
            <feColorMatrix values="0 0 0 0 0   0 0 0 0 0.171342171   0 0 0 0 0.336347055  0 0 0 0.5 0" type="matrix" in="shadowInnerInner1"></feColorMatrix>
        </filter>
        <linearGradient x1="50.0006818%" y1="2.22971221%" x2="50.0006818%" y2="97.1222502%" id="linearGradient-6">
            <stop stop-color="#FFFFFF" offset="0%"></stop>
            <stop stop-color="#C0E9FE" offset="100%"></stop>
        </linearGradient>
        <linearGradient x1="50%" y1="0%" x2="50%" y2="100%" id="linearGradient-7">
            <stop stop-color="#008BF9" stop-opacity="0.147561667" offset="0%"></stop>
            <stop stop-color="#005DEC" stop-opacity="0.265206717" offset="100%"></stop>
        </linearGradient>
    </defs>
    <g id="app/deepin-id/32px" stroke="none" stroke-width="1" fill="none" fill-rule="evenodd">
        <g id="编组" filter="url(#filter-1)" transform="translate(2, 2)">
            <circle id="椭圆形" fill="url(#linearGradient-2)" fill-rule="nonzero" cx="14" cy="14" r="14"></circle>
            <path d="M14,0 C21.7319865,0 28,6.2680135 28,14 C28,21.7319865 21.7319865,28 14,28 C6.2680135,28 0,21.7319865 0,14 C0,6.2680135 6.2680135,0 14,0 Z M14,1 C6.82029825,1 1,6.82029825 1,14 C1,21.1797017 6.82029825,27 14,27 C21.1797017,27 27,21.1797017 27,14 C27,6.82029825 21.1797017,1 14,1 Z" id="椭圆形" fill-opacity="0.05" fill="#000000" fill-rule="nonzero"></path>
            <g id="椭圆形" fill-rule="nonzero">
                <use fill="url(#linearGradient-3)" xlink:href="#path-4"></use>
                <use fill="black" fill-opacity="1" filter="url(#filter-5)" xlink:href="#path-4"></use>
            </g>
            <path d="M24,15.4163117 C24,13.7882514 22.8233223,12.4160524 21.2131088,11.9801104 C20.750642,10.3039742 19.1097702,9.06215045 17.1506557,9.06215045 C16.5806686,9.06215045 16.0383173,9.1680803 15.5426013,9.35793918 C14.6928024,8.52353791 13.4893525,8 12.1511784,8 C9.60178177,8 7.5334197,9.89166265 7.49412514,12.2376014 C6.04065817,12.7220267 5,14.0033705 5,15.5124634 C5,17.4261269 6.67066657,18.9779992 8.73816505,18.9955184 L8.73816505,19 L20.2389491,19 L20.2389491,18.9934813 C22.3263108,18.9352198 24,17.3580873 24,15.4163117 L24,15.4163117 Z" id="Shape" fill="url(#linearGradient-6)" fill-rule="nonzero" transform="translate(14.5, 13.5) scale(-1, 1) translate(-14.5, -13.5)"></path>
            <path d="M17.498595,10.8281287 C21.0025392,14.0133235 20.3381322,17.4628003 19.7798149,19.0006738 L16.8616294,18.9995962 L16.9931857,18.89876 C19.0100403,17.2608231 18.7404877,14.7930998 18.7404877,14.7930998 C18.7037843,12.8039526 17.498595,10.8281287 17.498595,10.8281287 Z M11.8493443,9.06215045 L12.0145754,9.06652509 C11.5256839,10.5565666 11.2870757,12.1222732 11.321154,13.2618557 C11.321154,13.2618557 11.2290226,16.1259099 13.1827812,17.1417791 C13.1827812,17.1417791 14.9385906,17.9153798 16.1351509,15.4139016 C16.1351509,15.4139016 16.9575287,14.0021961 16.6227854,10.8117036 C16.6227854,10.8117036 16.943045,10.8683679 16.9792573,10.9192838 C17.0154695,10.9697895 17.6865696,13.3755945 17.2150259,15.401578 C17.2150259,15.401578 16.7809063,17.7823384 14.6464946,18.3268145 C12.5128865,18.8712971 10.8500185,17.5540341 9.72105092,16.3131482 C9.08941493,15.6189327 8.22782381,14.0456612 7.57762935,12.0437726 C7.64644234,12.0201628 7.71624956,11.9992356 7.78689118,11.9801104 C8.24935797,10.3039742 9.89022977,9.06215045 11.8493443,9.06215045 Z M20.5333239,9.67109566 L20.5864791,9.73743802 C20.4868671,9.73642477 20.38625,9.73432062 20.2849611,9.73097995 C20.2849611,9.73097995 17.791654,9.84798069 16.3935538,10.5487035 C16.3935538,10.5487035 15.3509689,11.0158477 14.3088048,11.8078986 C14.3088048,11.8078986 14.3050882,11.8097656 14.2986419,11.8139047 C14.2415202,11.853187 14.0894108,11.9870419 14.0983235,12.327234 C14.1077369,12.734202 13.8861266,13.8191617 13.1477169,14.4550749 C13.1477169,14.4550749 12.6206495,14.7273674 12.88418,15.1170772 C12.88418,15.1170772 13.2401226,15.6364126 13.7415264,15.0909816 C13.7415264,15.0909816 15.0343827,13.7543521 15.1135293,11.6004156 C15.1135293,11.6004156 15.522521,11.2494262 16.1685187,11.1458962 C16.1685187,11.1458962 16.1695017,11.1726014 16.17009,11.2223751 L16.170332,11.3516031 C16.1651962,12.0881486 16.0456742,14.6230346 14.6916993,15.9996103 C14.6916993,15.9996103 14.6872643,16.0044638 14.6787967,16.0132567 L14.6416986,16.0505393 C14.375548,16.3105373 13.1210887,17.3941518 12.6861032,15.1949346 C12.6861032,15.1949346 12.0922938,12.8457234 15.153313,10.0558802 L15.3223881,9.88747958 C15.6650111,9.54768655 16.4769104,8.74979607 17.2777771,8.01659622 C18.6015632,8.12984657 19.7639396,8.75275886 20.5333239,9.67109566 Z" id="形状结合" fill="url(#linearGradient-7)"></path>
        </g>
    </g>
</svg>