<?xml version="1.0" encoding="UTF-8"?>
<svg width="40px" height="40px" viewBox="0 0 40 40" version="1.1" xmlns="http://www.w3.org/2000/svg" xmlns:xlink="http://www.w3.org/1999/xlink">
    <title>x11</title>
    <g id="关机" stroke="none" stroke-width="1" fill="none" fill-rule="evenodd">
        <g id="登录-wayland切换" transform="translate(-837.000000, -512.000000)">
            <g id="编组-4" transform="translate(805.000000, 490.000000)">
                <g id="x11" transform="translate(32.000000, 22.000000)">
                    <rect id="矩形" x="0" y="0" width="40" height="40" rx="2"></rect>
                    <path d="M7.05262401,31.8105503 C7.6213595,32.1352303 8.21730548,32.4386399 8.83772919,32.7191138 L7,35 L4.5,35 Z M33.3489264,31.575056 L36,35 L28,35 L27.3230962,34.0729471 C29.5530105,33.4845811 31.5904951,32.6343531 33.3489264,31.575056 Z M36,4 L31.154,10.259 L31.1538776,10.2599674 L29.0902177,12.9246836 L29.091,12.924 L24,19.5 L31.3996943,29.0576648 C29.6917416,30.0787324 27.607935,30.8269501 25.2306431,31.2102374 L18.5,22 L33,4 L36,4 Z M12,4 L21.5,17 L11.810222,29.0287021 C11.225735,28.6799628 10.6821201,28.3010135 10.1831622,27.8962868 L16.5,20 L11.8040304,13.7380684 L9.10858111,10.1436677 L9.107,10.143 L4.5,4 L12,4 Z" id="形状结合" fill="#FFFFFF" fill-rule="nonzero"></path>
                    <path d="M8.8014387,11.4008967 L10.3642601,13.4849301 C7.37572007,15.4398461 5.5,18.152933 5.5,21 C5.5,26.5 11.4925237,32.5 21.5,32.5 C31.5074763,32.5 37.5,27 37.5,21 C37.5,17.4491402 34.6980877,14.4236389 30.6488252,12.5453211 L31.4426874,11.5202407 C36.0332971,13.8020192 39,17.4230785 39,21.5 C39,28.4035594 30.4934102,34 20,34 C9.50658975,34 1,28.4035594 1,21.5 C1,17.3512545 4.07215382,13.6745747 8.8014387,11.4008967 Z M20,9 C22.4665361,9 24.8232981,9.30921002 26.9856129,9.87192418 L26.0524936,11.031342 C24.4307795,10.6854823 22.7256943,10.5 21,10.5 C19.3843621,10.5 19.64813,12.1705828 20.1718694,13.4874559 L17.0054273,9.15437066 C17.9809063,9.05276585 18.9810868,9 20,9 Z" id="形状结合" fill="#FFFFFF" fill-rule="nonzero"></path>
                </g>
            </g>
        </g>
    </g>
</svg>