<?xml version="1.0" encoding="UTF-8"?>
<svg width="158px" height="48px" viewBox="0 0 158 48" version="1.1" xmlns="http://www.w3.org/2000/svg" xmlns:xlink="http://www.w3.org/1999/xlink">
    <!-- Generator: Sketch 49 (51002) - http://www.bohemiancoding.com/sketch -->
    <title>watermark_logo</title>
    <desc>Created with Sketch.</desc>
    <defs>
        <linearGradient x1="50%" y1="0%" x2="50%" y2="100%" id="linearGradient-1">
            <stop stop-color="#FFFFFF" offset="0%"></stop>
            <stop stop-color="#F9F9F9" offset="100%"></stop>
        </linearGradient>
        <path d="M58.9699332,35.003001 C60.0018391,35.003001 60.0078386,34.080001 60.0068387,33.987001 C60.0058387,33.640001 60.0008392,31.368001 60.0008392,31.019001 C60.0008392,30.019001 58.9859317,30.003001 58.9859317,30.003001 C58.9859317,30.003001 43.2425489,29.987001 41.9716648,29.987001 C39.9568484,29.987001 39.9878456,28.037001 39.9878456,28.037001 C39.9618479,27.910001 39.9888455,26.003001 39.9878456,26.003001 L55.9942044,26.003001 C61.5476982,26.003001 60.9857494,22.003001 60.9857494,22.003001 C60.9857494,19.486001 60.9857494,21.660001 60.9857494,19.039001 C60.9857494,19.039001 61.5277,12.003001 54.0023859,12.003001 L41.1477399,12.003001 C33.488438,12.003001 34.0073907,18.946001 34.0073907,18.946001 C34.0073907,22.705001 34.0093905,23.049001 34.0093905,27.995001 C34.0093905,35.003001 41.0187516,34.971001 41.0187516,34.971001 L58.9699332,35.003001 Z M39.9967178,21.0223408 C39.9967178,21.0223408 40.0007174,19.4314772 40.0007174,19.0363454 C40.0007174,18.021007 40.9656295,17.0236746 42.0125341,17.0206736 C42.9834456,17.0166722 52.0364381,17.0206736 53.0423465,17.0206736 C53.9482639,17.0206736 55.000168,18.036012 54.9951685,19.0213404 C54.9911688,19.8006002 54.9791699,19.2777593 54.9791699,20.0220073 C54.9791699,20.0220073 54.9791699,21.0203401 54.0122581,21.0203401 C53.3733163,21.0203401 39.9967178,21.0223408 39.9967178,21.0223408 Z M27.0055037,4 C27.4332893,4.00100033 30.561721,4.00100033 30.9905061,4 C30.9905061,4 32,4 32,5.00033344 C32,5.1903968 32,28.4448149 32,30.0253418 C32,30.0253418 31.9950025,34.996999 27.0085022,34.996999 C22.9815209,34.996999 26.7146521,34.975992 17.2024206,34.984995 C7.69118856,34.9949983 6.01003132,26.8892964 6.00003633,23.021007 C5.99104084,19.1527176 7.6472106,12 17.0534952,12.003001 C21.4332997,12.0050017 21.7921172,12.0020007 26.0000078,12.003001 C26.0000078,12.003001 26.0040058,5.11337112 26.0040058,5.03134378 C26.0040058,4 27.0055037,4 27.0055037,4 Z M24.9820863,30.0093364 C25.9979937,30.0093364 25.9819952,29.0340113 25.9819952,29.0340113 C25.9819952,28.1457152 25.9779955,17.0386796 25.9779955,17.0386796 C25.9779955,17.0386796 22.0335373,17.0276759 19.2527908,17.0276759 C16.4700444,17.0276759 12.0124507,16.885962 12.0154504,23.0850283 C12.0174503,29.2830944 16.0280847,30.0023341 19.2997865,30.0113371 C22.5694885,30.0213404 23.8921856,30.0093364 24.9820863,30.0093364 Z M120.999909,10.0020007 C120.447959,10.0020007 120,9.55385128 120,9.00166722 L120,5.00033344 C120,4.44814938 120.447959,4 120.999909,4 L124.999544,4 C125.551494,4 125.999453,4.44814938 125.999453,5.00033344 L125.999453,9.00166722 C125.999453,9.55385128 125.551494,10.0020007 124.999544,10.0020007 L120.999909,10.0020007 Z M120.999909,35.003001 C120.447959,35.003001 120,34.555001 120,34.003001 L120,13.003001 C120,12.451001 120.447959,12.003001 120.999909,12.003001 L124.999544,12.003001 C125.551494,12.003001 125.999453,12.451001 125.999453,13.003001 L125.999453,34.003001 C125.999453,34.555001 125.551494,35.003001 124.999544,35.003001 L120.999909,35.003001 Z M128,12.0070013 C128,12.0070013 132.653394,12.0000021 139.998724,12.0100009 C147.344055,12.0199998 149.997813,15.0045561 149.997813,20.5469388 L149.997813,34.0014404 C149.997813,34.553379 149.550853,35.0003292 148.998904,35.0013291 L145.001268,35.0033289 C144.447319,35.0043287 143.999359,34.5553787 144.000359,34.0014404 L144.029357,21.0018882 C144.029357,16.0854357 140.15771,17.0104441 139.990725,17.0104441 C137.313969,17.0104441 133.998453,17.0184432 133.998453,17.0184432 L134.027451,33.969444 C134.027451,33.969444 134.067447,35.1753097 132.689573,34.9793315 C131.711662,34.9823312 130.174802,34.9873306 129.196891,34.9913302 C128.289974,35.1073173 128,34.4383918 128,33.9844423 L128,12.0070013 Z M96.9865455,44 C96.5585845,43.9989997 93.4318695,43.9989997 93.0029086,44 C93.0029086,44 92,44 92,42.9996666 C92,42.8096032 92,18.5551851 92,16.9756586 C92,16.9756586 91.9980002,12.003001 96.9875454,12.003001 C101.015178,12.003001 97.274337,12.024008 106.79047,12.015005 C116.305602,12.0050017 117.987449,20.1107036 117.997448,23.978993 C118.006447,27.8482828 116.349598,35.0010003 106.939456,34.996999 C102.558855,34.9959987 102.19907,34.9979993 97.9894541,34.996999 C97.9894541,34.996999 97.9854545,42.8866289 97.9854545,42.9686562 C97.9854545,44 96.9865455,44 96.9865455,44 Z M98.9919761,16.9906636 C97.9770686,16.9906636 97.9920672,17.966989 97.9920672,17.966989 C97.9920672,18.8542848 97.9970668,29.9623208 97.9970668,29.9623208 C97.9970668,29.9623208 101.941525,29.9723241 104.722272,29.9723241 C107.505018,29.9723241 111.962612,30.114038 111.959612,23.9149717 C111.957612,17.7169056 107.946978,16.9986662 104.675276,16.9886629 C101.404574,16.9786596 100.081877,16.9906636 98.9919761,16.9906636 Z M87.9699332,35.003001 L70.0187516,34.971001 C70.0187516,34.971001 63.0093905,35.003001 63.0093905,27.995001 C63.0093905,23.049001 63.0073907,22.705001 63.0073907,18.946001 C63.0073907,18.946001 62.488438,12.003001 70.1477399,12.003001 L83.0023859,12.003001 C90.5277,12.003001 89.9857494,19.039001 89.9857494,19.039001 C89.9857494,21.660001 89.9857494,19.486001 89.9857494,22.003001 C89.9857494,22.003001 90.5476982,26.003001 84.9942044,26.003001 L68.9878456,26.003001 C68.9888455,26.003001 68.9618479,27.910001 68.9878456,28.037001 C68.9878456,28.037001 68.9568484,29.987001 70.9716648,29.987001 C72.2425489,29.987001 87.9859317,30.003001 87.9859317,30.003001 C87.9859317,30.003001 89.0008392,30.019001 89.0008392,31.019001 C89.0008392,31.368001 89.0058387,33.640001 89.0068387,33.987001 C89.0078386,34.080001 89.0018391,35.003001 87.9699332,35.003001 Z M68.9938926,21.0223408 C68.9938926,21.0223408 82.3704911,21.0203401 83.0094328,21.0203401 C83.9763447,21.0203401 83.9763447,20.0220073 83.9763447,20.0220073 C83.9763447,19.2777593 83.9883436,19.8006002 83.9923432,19.0213404 C83.9973428,18.036012 82.9454387,17.0206736 82.0395212,17.0206736 C81.0336129,17.0206736 71.9806203,17.0166722 71.0097088,17.0206736 C69.9628042,17.0236746 68.9978922,18.021007 68.9978922,19.0363454 C68.9978922,19.4314772 68.9938926,21.0223408 68.9938926,21.0223408 Z" id="path-2"></path>
        <filter x="-3.5%" y="-10.0%" width="106.9%" height="125.0%" filterUnits="objectBoundingBox" id="filter-3">
            <feOffset dx="0" dy="1" in="SourceAlpha" result="shadowOffsetOuter1"></feOffset>
            <feGaussianBlur stdDeviation="1.5" in="shadowOffsetOuter1" result="shadowBlurOuter1"></feGaussianBlur>
            <feColorMatrix values="0 0 0 0 0   0 0 0 0 0   0 0 0 0 0  0 0 0 0.1 0" type="matrix" in="shadowBlurOuter1"></feColorMatrix>
        </filter>
    </defs>
    <g id="watermark_logo" stroke="none" stroke-width="1" fill="none" fill-rule="evenodd" opacity="0.400000006">
        <g>
            <use fill="black" fill-opacity="1" filter="url(#filter-3)" xlink:href="#path-2"></use>
            <use fill="url(#linearGradient-1)" fill-rule="evenodd" xlink:href="#path-2"></use>
        </g>
    </g>
</svg>