/* XPM */
static char *top_right_active[] = {
/* columns rows colors chars-per-pixel */
"16 32 3 1 ",
"  c None",
". c #939393",
"X c white",
/* pixels */
".....           ",
"XXXXX...        ",
"XXXXXXXX..      ",
"XXXXXXXXXX.     ",
"XXXXXXXXXXX.    ",
"XXXXXXXXXXXX.   ",
"XXXXXXXXXXXXX.  ",
"XXXXXXXXXXXXX.  ",
"XXXXXXXXXXXXXX. ",
"XXXXXXXXXXXXXX. ",
"XXXXXXXXXXXXXXX.",
"XXXXXXXXXXXXXXX.",
"XXXXXXXXXXXXXXX.",
"XXXXXXXXXXXXXXX.",
"XXXXXXXXXXXXXXX.",
"XXXXXXXXXXXXXXX.",
"XXXXXXXXXXXXXXX.",
"XXXXXXXXXXXXXXX.",
"XXXXXXXXXXXXXXX.",
"XXXXXXXXXXXXXXX.",
"XXXXXXXXXXXXXXX.",
"XXXXXXXXXXXXXXX.",
"XXXXXXXXXXXXXXX.",
"XXXXXXXXXXXXXXX.",
"XXXXXXXXXXXXXXX.",
"XXXXXXXXXXXXXXX.",
"XXXXXXXXXXXXXXX.",
"XXXXXXXXXXXXXXX.",
"XXXXXXXXXXXXXXX.",
"XXXXXXXXXXXXXXX.",
"XXXXXXXXXXXXXXX.",
"XXXXXXXXXXXXXXX."
};
