<svg width="24" height="24" viewBox="0 0 24 24" fill="none" xmlns="http://www.w3.org/2000/svg">
<g clip-path="url(#clip0_1579_30292)">
<path fill-rule="evenodd" clip-rule="evenodd" d="M10.5 17C14.0899 17 17 14.0899 17 10.5C17 6.91015 14.0899 4 10.5 4C6.91015 4 4 6.91015 4 10.5C4 14.0899 6.91015 17 10.5 17ZM10.5 21C16.299 21 21 16.299 21 10.5C21 4.70101 16.299 0 10.5 0C4.70101 0 0 4.70101 0 10.5C0 16.299 4.70101 21 10.5 21Z" fill="url(#paint0_radial_1579_30292)"/>
<path d="M17.7019 20.7019L20.5303 17.8735L22.6569 20C23.4379 20.781 23.4379 22.0474 22.6569 22.8284C21.8758 23.6095 20.6095 23.6095 19.8284 22.8284L17.7019 20.7019Z" fill="url(#paint1_radial_1579_30292)"/>
</g>
<defs>
<radialGradient id="paint0_radial_1579_30292" cx="0" cy="0" r="1" gradientUnits="userSpaceOnUse" gradientTransform="translate(3.98925 2.46944) rotate(47.4635) scale(27.2766 37.8883)">
<stop offset="0.000275725" stop-color="#FFC118"/>
<stop offset="0.299664" stop-color="#FF5368"/>
<stop offset="0.676441" stop-color="#CC3CCD"/>
<stop offset="1" stop-color="#732AF4"/>
</radialGradient>
<radialGradient id="paint1_radial_1579_30292" cx="0" cy="0" r="1" gradientUnits="userSpaceOnUse" gradientTransform="translate(3.98925 2.46944) rotate(47.4635) scale(27.2766 37.8883)">
<stop offset="0.000275725" stop-color="#FFC118"/>
<stop offset="0.299664" stop-color="#FF5368"/>
<stop offset="0.676441" stop-color="#CC3CCD"/>
<stop offset="1" stop-color="#732AF4"/>
</radialGradient>
<clipPath id="clip0_1579_30292">
<rect width="24" height="24" fill="white"/>
</clipPath>
</defs>
</svg>
