<?xml version="1.0" encoding="UTF-8"?>
<svg width="56px" height="56px" viewBox="0 0 56 56" version="1.1" xmlns="http://www.w3.org/2000/svg" xmlns:xlink="http://www.w3.org/1999/xlink">
    <title>dark/arrow-l-dark</title>
    <g id="dark/arrow-l-dark" stroke="none" stroke-width="1" fill="none" fill-rule="evenodd">
        <path d="M10.2555408,3.90809465e-17 L45.7444592,-1.13556947e-15 C49.3105342,6.59798564e-16 50.6036791,0.371302445 51.9073828,1.06853082 C53.2110865,1.76575919 54.2342408,2.78891348 54.9314692,4.09261719 C55.6286976,5.39632089 56,6.68946584 56,10.2555408 L56,45.7444592 C56,49.3105342 55.6286976,50.6036791 54.9314692,51.9073828 C54.2342408,53.2110865 53.2110865,54.2342408 51.9073828,54.9314692 C50.6036791,55.6286976 49.3105342,56 45.7444592,56 L10.2555408,56 C6.68946584,56 5.39632089,55.6286976 4.09261719,54.9314692 C2.78891348,54.2342408 1.76575919,53.2110865 1.06853082,51.9073828 C0.371302445,50.6036791 1.06103393e-15,49.3105342 -1.82612968e-15,45.7444592 L7.29641152e-16,10.2555408 C-4.23942521e-16,6.68946584 0.371302445,5.39632089 1.06853082,4.09261719 C1.76575919,2.78891348 2.78891348,1.76575919 4.09261719,1.06853082 C5.39632089,0.371302445 6.68946584,-2.27071554e-17 10.2555408,3.90809465e-17 Z" id="矩形" fill="#262626" opacity="0.400000006" transform="translate(28.000000, 28.000000) scale(-1, 1) translate(-28.000000, -28.000000) "></path>
        <path d="M39.7610495,23.4827745 L28.5125948,34.1254451 C28.4348064,34.1993963 28.1848383,34.3814709 28.1423335,34.438701 C27.7232492,35.0006173 27.1206618,35.1692885 26.7956403,34.8134999 L16.2019603,23.2260851 C15.8769388,22.8699648 15.9519922,22.1250117 16.3711039,21.5618014 C16.7902155,20.9988897 17.3927756,20.830849 17.7188912,21.1866375 L27.3601814,31.731934 L38.3677216,21.3167903 C38.7136944,20.9901642 39.3052592,21.2107239 39.6890323,21.8084381 C40.0736532,22.4064841 40.1059283,23.1561483 39.7610495,23.4827745 Z" id="下拉" fill="#FFFFFF" fill-rule="nonzero" opacity="0.847762468" transform="translate(28.000000, 28.000000) rotate(-270.000000) translate(-28.000000, -28.000000) "></path>
    </g>
</svg>