<?xml version="1.0" encoding="UTF-8"?>
<svg width="39px" height="39px" viewBox="0 0 39 39" version="1.1" xmlns="http://www.w3.org/2000/svg" xmlns:xlink="http://www.w3.org/1999/xlink">
    <title>icon/ add plus</title>
    <g id="icon/-add-plus" stroke="none" stroke-width="1" fill="none" fill-rule="evenodd" opacity="0.796039">
        <g fill="#000000">
            <path d="M1.5,18 L37.5,18 C38.3284271,18 39,18.6715729 39,19.5 C39,20.3284271 38.3284271,21 37.5,21 L1.5,21 C0.671572875,21 1.01453063e-16,20.3284271 0,19.5 C-1.01453063e-16,18.6715729 0.671572875,18 1.5,18 Z" id="矩形备份-2"></path>
            <path d="M1.5,18 L37.5,18 C38.3284271,18 39,18.6715729 39,19.5 C39,20.3284271 38.3284271,21 37.5,21 L1.5,21 C0.671572875,21 1.01453063e-16,20.3284271 0,19.5 C-1.01453063e-16,18.6715729 0.671572875,18 1.5,18 Z" id="矩形备份-3" transform="translate(19.500000, 19.500000) rotate(90.000000) translate(-19.500000, -19.500000) "></path>
        </g>
    </g>
</svg>