<svg width="24" height="24" viewBox="0 0 24 24" fill="none" xmlns="http://www.w3.org/2000/svg">
<g opacity="0.8">
<path d="M12.0064 22C7.96069 22.0025 4.31207 19.5671 2.76268 15.8298C1.21329 12.0926 2.06844 7.78992 4.92918 4.92918C7.78992 2.06844 12.0926 1.21329 15.8298 2.76268C19.5671 4.31207 22.0025 7.96069 22 12.0064C21.9931 17.5229 17.5229 21.9931 12.0064 22V22Z" stroke="#262626" stroke-width="2"/>
<path d="M17 21V18.5C17 17.6716 16.3284 17 15.5 17H8.5C7.67157 17 7 17.6716 7 18.5V21" stroke="#262626" stroke-width="2"/>
<path d="M15 17V13.5C15 13.2239 14.7761 13 14.5 13H9.5C9.22386 13 9 13.2239 9 13.5V17" stroke="#262626" stroke-width="2"/>
<path d="M11.0136 6.91836C11.1993 5.80423 12.8007 5.80423 12.9864 6.91836L14 13H10L11.0136 6.91836Z" fill="#D9D9D9" stroke="#262626" stroke-width="1.8"/>
</g>
</svg>
