<?xml version="1.0" encoding="UTF-8"?>
<svg width="30px" height="30px" viewBox="0 0 30 30" version="1.1" xmlns="http://www.w3.org/2000/svg" xmlns:xlink="http://www.w3.org/1999/xlink">
    <!-- Generator: Sketch 64 (93537) - https://sketch.com -->
    <title>checkbox_unchecked 2</title>
    <desc>Created with Sketch.</desc>
    <g id="浅色主题" stroke="none" stroke-width="1" fill="none" fill-rule="evenodd" opacity="0.4">
        <g id="字体验证-字体已损坏" transform="translate(-734.000000, -527.000000)" fill="#414D68" fill-rule="nonzero">
            <g id="对话框-25-1" transform="translate(720.000000, 350.000000)">
                <g id="编组备份-2" transform="translate(10.000000, 168.000000)">
                    <g id="option_checkbox" transform="translate(4.000000, 9.000000)">
                        <g id="checkbox_unchecked-2">
                            <g>
                                <g id="checkbox/unchecked/normal" transform="translate(4.000000, 5.000000)">
                                    <path d="M13.0068977,2 L6.99310226,2 C4.2353522,2 2,4.23518094 2,6.99310226 L2,13.0068977 C2,15.7646478 4.23518094,18 6.99310226,18 L13.0068977,18 C15.7646478,18 18,15.7648191 18,13.0068977 L18,6.99310226 C18,4.2353522 15.7648191,2 13.0068977,2 Z M13.0068977,3 C15.1458285,3 16.8912927,4.68106458 16.9951143,6.79380618 L17,6.99310226 L17,13.0068977 C17,15.1458285 15.3189354,16.8912927 13.2061938,16.9951143 L13.0068977,17 L6.99310226,17 C4.85417146,17 3.10870727,15.3189354 3.00488568,13.2061938 L3,13.0068977 L3,6.99310226 C3,4.85417146 4.68106458,3.10870727 6.79380618,3.00488568 L6.99310226,3 L13.0068977,3 Z" id="check"></path>
                                </g>
                            </g>
                        </g>
                    </g>
                </g>
            </g>
        </g>
    </g>
</svg>