<?xml version="1.0" encoding="UTF-8"?>
<svg width="32px" height="32px" viewBox="0 0 32 32" version="1.1" xmlns="http://www.w3.org/2000/svg" xmlns:xlink="http://www.w3.org/1999/xlink">
    <!-- Generator: Sketch 56.2 (81672) - https://sketch.com -->
    <title>deepin-font-installer-32px</title>
    <desc>Created with Sketch.</desc>
    <defs>
        <filter x="-16.7%" y="-13.8%" width="133.3%" height="127.6%" filterUnits="objectBoundingBox" id="filter-1">
            <feOffset dx="0" dy="1" in="SourceAlpha" result="shadowOffsetOuter1"></feOffset>
            <feGaussianBlur stdDeviation="0.5" in="shadowOffsetOuter1" result="shadowBlurOuter1"></feGaussianBlur>
            <feComposite in="shadowBlurOuter1" in2="SourceAlpha" operator="out" result="shadowBlurOuter1"></feComposite>
            <feColorMatrix values="0 0 0 0 0   0 0 0 0 0   0 0 0 0 0  0 0 0 0.15 0" type="matrix" in="shadowBlurOuter1" result="shadowMatrixOuter1"></feColorMatrix>
            <feMerge>
                <feMergeNode in="shadowMatrixOuter1"></feMergeNode>
                <feMergeNode in="SourceGraphic"></feMergeNode>
            </feMerge>
        </filter>
        <linearGradient x1="15.7550535%" y1="0%" x2="85.614743%" y2="100.999999%" id="linearGradient-2">
            <stop stop-color="#FCE7FF" offset="0%"></stop>
            <stop stop-color="#9A8FFF" offset="100%"></stop>
        </linearGradient>
        <path d="M0,2.96722411 C0,1.32847148 1.32453024,0 2.96694227,0 L21.0330577,0 C22.6716547,0 24,1.32142675 24,2.96722411 L24,26.0327759 C24,27.6715285 22.6754698,29 21.0330577,29 L2.96694227,29 C1.3283453,29 0,27.6785733 0,26.0327759 L0,2.96722411 Z" id="path-3"></path>
    </defs>
    <g id="deepin-font-installer-32px" stroke="none" stroke-width="1" fill="none" fill-rule="evenodd">
        <g id="编组" filter="url(#filter-1)" transform="translate(4.000000, 1.000000)">
            <mask id="mask-4" fill="white">
                <use xlink:href="#path-3"></use>
            </mask>
            <use id="蒙版" fill="url(#linearGradient-2)" xlink:href="#path-3"></use>
            <path d="M24.5,20.0309278 L24.5,20 L25.5,20 L25.5,24.0309278 C25.5,25.9468435 23.9468435,27.5 22.0309278,27.5 L4,27.5 C2.61928813,27.5 1.5,26.3807119 1.5,25 C1.5,23.6192881 2.61928813,22.5 4,22.5 L22.0309278,22.5 C23.3945587,22.5 24.5,21.3945587 24.5,20.0309278 Z" id="蒙版" stroke-opacity="0.2" stroke="#000000" fill="#FFFFFF" stroke-linejoin="round" mask="url(#mask-4)"></path>
        </g>
        <path d="M10,22 C11.1045695,22 12,21.1045695 12,20 L12,7 L10,7 L10,6 L22,6 L22,10 L21,10 C21,8.34314575 19.6568542,7 18,7 L14,7 L14,13 L16,13 C17.1045695,13 18,12.1045695 18,11 L18,11 L18,17 C18,15.3431458 16.6568542,14 15,14 L14,14 L14,20 C14,21.1045695 14.8954305,22 16,22 L16,22 L10,22 Z" id="F" fill="#000000" fill-rule="nonzero"></path>
    </g>
</svg>