<svg xmlns="http://www.w3.org/2000/svg" width="16" height="16" viewBox="0 0 16 16">
 <defs>
  <style id="current-color-scheme" type="text/css">
   .ColorScheme-Text { color:#536076; } .ColorScheme-Highlight { color:#ffffff; }
  </style>
 </defs>
 <path style="fill:currentColor" class="ColorScheme-Text" d="M12,2 C13.6568542,2 15,3.34314575 15,5 L15,11 C15,12.6568542 13.6568542,14 12,14 L4,14 C2.34314575,14 1,12.6568542 1,11 L1,5 C1,3.34314575 2.34314575,2 4,2 L12,2 Z M6.81532454,6.65828008 C6.54583168,6.55430591 6.23302837,6.65780719 6.08228627,6.91514005 C6.02840287,7.00712477 6,7.11180481 6,7.21840973 L6,7.21840973 L6,10.7815903 L6.00785299,10.8789134 C6.05435325,11.1640007 6.30176624,11.3815903 6.6,11.3815903 C6.70660492,11.3815903 6.81128496,11.3531874 6.90326968,11.299304 L6.90326968,11.299304 L9.94463451,9.51771373 L10.0246411,9.46174581 C10.2471269,9.27752556 10.3098207,8.95406318 10.1590786,8.69673032 C10.1071397,8.60806516 10.0332997,8.53422512 9.94463451,8.48228627 L9.94463451,8.48228627 L6.90326968,6.700696 Z M4,3 C3.44771525,3 3,3.44771525 3,4 C3,4.55228475 3.44771525,5 4,5 C4.55228475,5 5,4.55228475 5,4 C5,3.44771525 4.55228475,3 4,3 Z M8,3 C7.44771525,3 7,3.44771525 7,4 C7,4.55228475 7.44771525,5 8,5 C8.55228475,5 9,4.55228475 9,4 C9,3.44771525 8.55228475,3 8,3 Z M12,3 C11.4477153,3 11,3.44771525 11,4 C11,4.55228475 11.4477153,5 12,5 C12.5522847,5 13,4.55228475 13,4 C13,3.44771525 12.5522847,3 12,3 Z"/>
</svg>
