<svg xmlns="http://www.w3.org/2000/svg" width="16" height="16" viewBox="0 0 16 16">
 <defs>
  <style id="current-color-scheme" type="text/css">
   .ColorScheme-Text { color:#536076; } .ColorScheme-Highlight { color:#ffffff; }
  </style>
 </defs>
 <path style="fill:currentColor" class="ColorScheme-Text" d="M7.29282017,2 C7.68901545,2 8.07100805,2.13773295 8.37478514,2.38667999 L8.5,2.50010329 C8.82014106,2.8203105 9.25438522,3.00020659 9.70717983,3.00020659 L13,3.00020659 C14.1045695,3.00020659 15,3.89563709 15,5.00020659 L15,11 C15,12.6568542 13.6568542,14 12,14 L4,14 C2.34314575,14 1,12.6568542 1,11 L1,5 C1,3.34314575 2.34314575,2 4,2 L7.29282017,2 Z M14,6.0001033 L8,6 L8,9.79289322 C8,10.0690356 7.77614237,10.2928932 7.5,10.2928932 C7.36739176,10.2928932 7.2402148,10.2402148 7.14644661,10.1464466 L6.35355339,9.35355339 C6.15829124,9.15829124 5.84170876,9.15829124 5.64644661,9.35355339 L4.85355339,10.1464466 C4.65829124,10.3417088 4.34170876,10.3417088 4.14644661,10.1464466 C4.05267842,10.0526784 4,9.92550146 4,9.79289322 L4,6 L2,6.0001033 L2,11 C2,12.0543618 2.81587779,12.9181651 3.85073766,12.9945143 L4,13 L12,13 C13.0543618,13 13.9181651,12.1841222 13.9945143,11.1492623 L14,11 L14,6.0001033 Z M7,6 L5,6 L5,8.591 L5.05326224,8.54347634 C5.60314559,8.0949836 6.39685441,8.0949836 6.94673776,8.54347634 L7,8.592 L7,6 Z M7.29282017,3 L4,3 C2.9456382,3 2.08183488,3.81587779 2.00548574,4.85073766 L2,5 L4,5 L4,5 L8,5 L8,5 L14,5.00020659 C14,4.48737075 13.6139598,4.06469943 13.1166211,4.00693432 L13,4.00020659 L9.70717983,4.00020659 C8.98913294,4.00020659 8.30050357,3.7149253 7.79282019,3.20713704 C7.68674119,3.10103612 7.55041567,3.03212897 7.40410695,3.00881014 L7.29282017,3 Z"/>
</svg>
