<?xml version="1.0" encoding="UTF-8"?>
<svg width="100px" height="80px" viewBox="0 0 100 80" version="1.1" xmlns="http://www.w3.org/2000/svg" xmlns:xlink="http://www.w3.org/1999/xlink">
    <title>ICON/Internet Control</title>
    <defs>
        <linearGradient x1="53.091949%" y1="-23.0311321%" x2="53.091949%" y2="118.217308%" id="linearGradient-1">
            <stop stop-color="#BDD4FF" stop-opacity="0.670488691" offset="0%"></stop>
            <stop stop-color="#3570FF" offset="100%"></stop>
        </linearGradient>
        <linearGradient x1="42.8689053%" y1="11.249759%" x2="42.8689053%" y2="93.0669264%" id="linearGradient-2">
            <stop stop-color="#ECF4FF" stop-opacity="0.540151743" offset="0%"></stop>
            <stop stop-color="#F7FAFF" stop-opacity="0.689465076" offset="100%"></stop>
        </linearGradient>
        <linearGradient x1="53.091949%" y1="-23.0311321%" x2="53.091949%" y2="118.217308%" id="linearGradient-3">
            <stop stop-color="#BDD4FF" stop-opacity="0.670488691" offset="0%"></stop>
            <stop stop-color="#3570FF" offset="100%"></stop>
        </linearGradient>
        <linearGradient x1="42.8689053%" y1="11.249759%" x2="42.8689053%" y2="93.0669264%" id="linearGradient-4">
            <stop stop-color="#ECF4FF" stop-opacity="0.540151743" offset="0%"></stop>
            <stop stop-color="#F7FAFF" stop-opacity="0.689465076" offset="100%"></stop>
        </linearGradient>
        <linearGradient x1="14.962063%" y1="66.4528177%" x2="93.1198781%" y2="50%" id="linearGradient-5">
            <stop stop-color="#70FFDD" stop-opacity="0.685435902" offset="0%"></stop>
            <stop stop-color="#88FFE3" stop-opacity="0.37995964" offset="100%"></stop>
        </linearGradient>
        <linearGradient x1="50%" y1="35.7956347%" x2="50%" y2="124.066009%" id="linearGradient-6">
            <stop stop-color="#DBFFF6" offset="0%"></stop>
            <stop stop-color="#CBFFF3" offset="100%"></stop>
        </linearGradient>
        <linearGradient x1="9.37147959%" y1="53.9576096%" x2="100%" y2="50%" id="linearGradient-7">
            <stop stop-color="#70FFDD" stop-opacity="0.685435902" offset="0%"></stop>
            <stop stop-color="#74F8D8" stop-opacity="0.508106152" offset="100%"></stop>
        </linearGradient>
        <linearGradient x1="50%" y1="-1.41601366%" x2="50%" y2="100%" id="linearGradient-8">
            <stop stop-color="#DCFFF7" offset="0%"></stop>
            <stop stop-color="#D9FFF5" offset="100%"></stop>
        </linearGradient>
        <linearGradient x1="35.507915%" y1="66.4528177%" x2="67.8348668%" y2="50%" id="linearGradient-9">
            <stop stop-color="#70FFDD" stop-opacity="0.685435902" offset="0%"></stop>
            <stop stop-color="#74F8D8" stop-opacity="0.508106152" offset="100%"></stop>
        </linearGradient>
        <linearGradient x1="50%" y1="10.9973776%" x2="50%" y2="125.298501%" id="linearGradient-10">
            <stop stop-color="#DEFFF7" offset="0%"></stop>
            <stop stop-color="#CBFFF3" offset="100%"></stop>
        </linearGradient>
    </defs>
    <g id="页面-1" stroke="none" stroke-width="1" fill="none" fill-rule="evenodd">
        <g id="WIN-PC迁移-选择内容" transform="translate(-1333, -499)">
            <g id="应用窗口" transform="translate(1013, 264)">
                <g id="编组" transform="translate(290, 185)">
                    <g id="编组" transform="translate(30, 50)">
                        <rect id="矩形" stroke="url(#linearGradient-2)" fill="url(#linearGradient-1)" x="20.5" y="12.5" width="27" height="27" rx="13.5"></rect>
                        <rect id="矩形" stroke="url(#linearGradient-2)" fill="url(#linearGradient-1)" x="22.5" y="44.5" width="22" height="22" rx="3"></rect>
                        <path d="M65.2282564,14.6010619 C65.5834416,14.3879508 65.9913818,14.3389821 66.3638034,14.4320875 C66.7362251,14.5251929 67.0731283,14.7603724 67.2862394,15.1155576 L78.7538586,34.2282564 C78.8937325,34.4613795 78.9676192,34.7281341 78.9676192,35 C78.9676192,35.4142136 78.799726,35.7892136 78.5282794,36.0606602 C78.2568328,36.3321068 77.8818328,36.5 77.4676192,36.5 L54.5323808,36.5 C54.2605148,36.5 53.9937602,36.4261132 53.7606371,36.2862394 C53.4054519,36.0731283 53.1702724,35.7362251 53.077167,35.3638034 C52.9840616,34.9913818 53.0330302,34.5834416 53.2461414,34.2282564 L64.7137606,15.1155576 C64.8404353,14.9044332 65.017132,14.7277365 65.2282564,14.6010619 Z" id="路径-23" stroke="url(#linearGradient-4)" fill="url(#linearGradient-3)"></path>
                        <polygon id="多边形" stroke="url(#linearGradient-6)" fill="url(#linearGradient-5)" stroke-linejoin="round" points="66.5497842 42 79.5043978 48.309252 79.5043978 64.2151016 66.5497842 70 53.5020962 64.0610888 53.5020962 48.2963829"></polygon>
                        <path d="M53.5020962,48.2963829 C53.5020962,48.2963829 57.8513255,50.4485472 66.5497842,54.7528757 L79.5043978,48.309252 L66.5497842,42 C57.8513255,46.1975886 53.5020962,48.2963829 53.5020962,48.2963829 Z" id="路径-24" stroke="url(#linearGradient-8)" fill="url(#linearGradient-7)" stroke-linejoin="round"></path>
                        <path d="M66.5497842,54.7528757 L66.5497842,70 C75.1861933,66.1434011 79.5043978,64.2151016 79.5043978,64.2151016 C79.5043978,64.2151016 79.5043978,58.9131517 79.5043978,48.309252 L66.5497842,54.7528757 Z" id="路径-25" stroke="url(#linearGradient-10)" fill="url(#linearGradient-9)" stroke-linejoin="round"></path>
                    </g>
                </g>
            </g>
        </g>
    </g>
</svg>