<?xml version="1.0" encoding="UTF-8"?>
<svg width="64px" height="64px" viewBox="0 0 64 64" version="1.1" xmlns="http://www.w3.org/2000/svg" xmlns:xlink="http://www.w3.org/1999/xlink">
    <title>zip-64-2</title>
    <defs>
        <linearGradient x1="50%" y1="0%" x2="50%" y2="100%" id="linearGradient-1">
            <stop stop-color="#327DFF" offset="0%"></stop>
            <stop stop-color="#1066FF" offset="100%"></stop>
        </linearGradient>
        <path d="M42,47.5 C42,49.9852814 39.9852814,52 37.5,52 L4.5,52 C2.01471863,52 3.04359188e-16,49.9852814 0,47.5 L0,4.5 C-3.04359188e-16,2.01471863 2.01471863,4.56538782e-16 4.5,0 L29,0 L42,13 L42,47.5 Z" id="path-2"></path>
        <filter x="-15.5%" y="-10.6%" width="131.0%" height="125.0%" filterUnits="objectBoundingBox" id="filter-3">
            <feOffset dx="0" dy="1" in="SourceAlpha" result="shadowOffsetOuter1"></feOffset>
            <feGaussianBlur stdDeviation="2" in="shadowOffsetOuter1" result="shadowBlurOuter1"></feGaussianBlur>
            <feColorMatrix values="0 0 0 0 0.0391387195   0 0 0 0 0.388542822   0 0 0 0 1  0 0 0 0.5 0" type="matrix" in="shadowBlurOuter1"></feColorMatrix>
        </filter>
        <linearGradient x1="50%" y1="50%" x2="10.4891306%" y2="91.1942727%" id="linearGradient-4">
            <stop stop-color="#FFFFFF" stop-opacity="0.1" offset="0%"></stop>
            <stop stop-color="#FFFFFF" stop-opacity="0.3" offset="100%"></stop>
        </linearGradient>
        <path d="M29,0 L42,13 L33.5,13 C31.0147186,13 29,10.9852814 29,8.5 L29,0 L29,0 Z" id="path-5"></path>
        <filter x="-26.9%" y="-19.2%" width="153.8%" height="153.8%" filterUnits="objectBoundingBox" id="filter-6">
            <feOffset dx="0" dy="1" in="SourceAlpha" result="shadowOffsetOuter1"></feOffset>
            <feGaussianBlur stdDeviation="1" in="shadowOffsetOuter1" result="shadowBlurOuter1"></feGaussianBlur>
            <feComposite in="shadowBlurOuter1" in2="SourceAlpha" operator="out" result="shadowBlurOuter1"></feComposite>
            <feColorMatrix values="0 0 0 0 0   0 0 0 0 0   0 0 0 0 0  0 0 0 0.05 0" type="matrix" in="shadowBlurOuter1"></feColorMatrix>
        </filter>
    </defs>
    <g id="zip-64-2" stroke="none" stroke-width="1" fill="none" fill-rule="evenodd">
        <g id="application-x-zip" transform="translate(11, 7)">
            <g id="编组">
                <g id="蒙版">
                    <use fill="black" fill-opacity="1" filter="url(#filter-3)" xlink:href="#path-2"></use>
                    <use fill="url(#linearGradient-1)" fill-rule="evenodd" xlink:href="#path-2"></use>
                </g>
                <g id="折角">
                    <use fill="black" fill-opacity="1" filter="url(#filter-6)" xlink:href="#path-5"></use>
                    <use fill="url(#linearGradient-4)" fill-rule="evenodd" xlink:href="#path-5"></use>
                </g>
                <g id="Group" transform="translate(0, 19.75)">
                    <path d="M15,2.25 L15,7.25 L0,7.25 L0,2.25 L15,2.25 Z M42,2.25 L42,7.25 L27,7.25 L27,2.25 L42,2.25 Z M18,2.25 L24,2.25 L24,7.25 L18,7.25 L18,6.25 L23,6.25 L23,3.25 L18,3.25 L18,2.25 Z" id="Combined-Shape" fill-opacity="0.5" fill="#FFF8F8"></path>
                    <path d="M25,0.25 C25.5522847,0.25 26,0.69771525 26,1.25 L26,8.25 C26,8.80228475 25.5522847,9.25 25,9.25 L17,9.25 C16.4477153,9.25 16,8.80228475 16,8.25 L16,1.25 C16,0.69771525 16.4477153,0.25 17,0.25 L25,0.25 Z M17,8.25 L25,8.25 L25,1.25 L17,1.25 L17,4.25 L22,4.25 L22,5.25 L17,5.25 L17,8.25 Z" id="Combined-Shape" fill="#F4F4F4"></path>
                </g>
            </g>
            <path d="M19,35.5 L19,36.5 L13.5,43.5 L19,43.5 L19,44.5 L12,44.5 L12,43.5 L17.5,36.5 L12,36.5 L12,35.5 L19,35.5 Z M22,35.5 L22,44.5 L21,44.5 L21,35.5 L22,35.5 Z M27.9796351,35.470046 C29.6618205,35.470046 31,36.7620776 31,38.5 C31,40.2258898 29.6735484,41.5 27.9796351,41.5 L25,41.5 L25,44.5 L24,44.5 L24,35.5 L27.9796351,35.470046 Z M28,36.5 L25,36.5 L25,40.5 L28,40.5 C29.1121754,40.5 30,39.6098078 30,38.5 C30,37.3878246 29.1098078,36.5 28,36.5 Z" id="Combined-Shape" fill="#FFFFFF"></path>
        </g>
    </g>
</svg>