<?xml version="1.0" encoding="UTF-8"?>
<svg width="96px" height="96px" viewBox="0 0 96 96" version="1.1" xmlns="http://www.w3.org/2000/svg" xmlns:xlink="http://www.w3.org/1999/xlink">
    <title>computer</title>
    <defs>
        <filter x="-4.6%" y="-3.8%" width="109.2%" height="110.8%" filterUnits="objectBoundingBox" id="filter-1">
            <feOffset dx="0" dy="1" in="SourceAlpha" result="shadowOffsetOuter1"></feOffset>
            <feGaussianBlur stdDeviation="1" in="shadowOffsetOuter1" result="shadowBlurOuter1"></feGaussianBlur>
            <feColorMatrix values="0 0 0 0 0   0 0 0 0 0   0 0 0 0 0  0 0 0 0.15 0" type="matrix" in="shadowBlurOuter1" result="shadowMatrixOuter1"></feColorMatrix>
            <feMerge>
                <feMergeNode in="shadowMatrixOuter1"></feMergeNode>
                <feMergeNode in="SourceGraphic"></feMergeNode>
            </feMerge>
        </filter>
        <linearGradient x1="46.8261315%" y1="0.564822635%" x2="46.8261315%" y2="99.6640703%" id="linearGradient-2">
            <stop stop-color="#2F80FF" offset="0%"></stop>
            <stop stop-color="#00296A" offset="100%"></stop>
        </linearGradient>
        <linearGradient x1="48.4916239%" y1="0%" x2="89.6040815%" y2="100%" id="linearGradient-3">
            <stop stop-color="#FFFFFF" stop-opacity="0.0831819548" offset="0%"></stop>
            <stop stop-color="#FFFFFF" stop-opacity="0" offset="100%"></stop>
        </linearGradient>
        <linearGradient x1="50%" y1="0%" x2="50%" y2="65.4361786%" id="linearGradient-4">
            <stop stop-color="#B2C0E1" offset="0%"></stop>
            <stop stop-color="#E1EEFB" offset="100%"></stop>
        </linearGradient>
    </defs>
    <g id="computer" stroke="none" stroke-width="1" fill="none" fill-rule="evenodd">
        <g id="编组" filter="url(#filter-1)" transform="translate(10, 16)">
            <path d="M4,0 L72,0 C74.209139,0 76,1.790861 76,4 L76,50 L0,50 L0,4 C0,1.790861 1.790861,0 4,0 Z" id="蒙版" fill="#F6FAFF"></path>
            <path d="M4.00347829,2 L71.9965217,2 C73.1030122,2 74,2.89698778 74,4.00347829 L74,48 L2,48 L2,4.00347829 C2,2.89698778 2.89698778,2 4.00347829,2 Z" id="蒙版" fill="url(#linearGradient-2)"></path>
            <path d="M9.31999999,8 L12.68,8 C12.8567311,8 13,8.14326888 13,8.31999999 L13,11.68 C13,11.8567311 12.8567311,12 12.68,12 L9.31999999,12 C9.14326888,12 9,11.8567311 9,11.68 L9,8.31999999 C9,8.14326888 9.14326888,8 9.31999999,8 Z M9.31999999,16 L12.68,16 C12.8567311,16 13,16.1432689 13,16.32 L13,19.68 C13,19.8567311 12.8567311,20 12.68,20 L9.31999999,20 C9.14326888,20 9,19.8567311 9,19.68 L9,16.32 C9,16.1432689 9.14326888,16 9.31999999,16 Z M9.31999999,24 L12.68,24 C12.8567311,24 13,24.1432689 13,24.32 L13,27.68 C13,27.8567311 12.8567311,28 12.68,28 L9.31999999,28 C9.14326888,28 9,27.8567311 9,27.68 L9,24.32 C9,24.1432689 9.14326888,24 9.31999999,24 Z" id="形状" fill-opacity="0.457797817" fill="#FFFFFF"></path>
            <polygon id="路径-4" fill="url(#linearGradient-3)" points="27 0 59.1914364 50 76 50 76 0"></polygon>
            <path d="M0,50 L76,50 L76,53.9965217 C76,55.1030122 75.1030122,56 73.9965217,56 L2.00347829,56 C0.896987783,56 0,55.1030122 0,53.9965217 L0,50 Z" id="矩形" fill="#E1EEFB"></path>
            <path d="M26.8283403,65.0000737 C26.0791982,65.003238 25.5408432,64.8997916 25.2132755,64.6895837 C24.9029481,64.4904393 24.9312781,64.2243833 25.2982653,63.8914158 L25.3625656,63.8353016 L29.9620416,62.0661814 C30.5553944,61.837957 30.9676438,61.2925628 31.0253488,60.6594561 L31.4500387,56 L44.5499613,56 L44.9746512,60.6594561 C45.0323562,61.2925628 45.4446056,61.837957 46.0379584,62.0661814 L50.6374344,63.8353016 C51.0645289,64.194615 51.1142923,64.4793757 50.7867245,64.6895837 C50.4809946,64.8857777 49.9916457,64.9889706 49.3186776,64.9991623 L26.8283403,65.0000737 Z" id="路径" fill="url(#linearGradient-4)"></path>
        </g>
    </g>
</svg>