<?xml version="1.0" encoding="UTF-8"?>
<svg width="100px" height="80px" viewBox="0 0 100 80" version="1.1" xmlns="http://www.w3.org/2000/svg" xmlns:xlink="http://www.w3.org/1999/xlink">
    <title>ICON/Internet Control</title>
    <defs>
        <linearGradient x1="50%" y1="35.3584136%" x2="-82.4700712%" y2="50%" id="linearGradient-1">
            <stop stop-color="#5F8CFE" offset="0%"></stop>
            <stop stop-color="#72A6FF" offset="100%"></stop>
        </linearGradient>
        <linearGradient x1="42.8689053%" y1="11.4870831%" x2="42.8689053%" y2="93.0669264%" id="linearGradient-2">
            <stop stop-color="#D2E5FF" stop-opacity="0.305235536" offset="0%"></stop>
            <stop stop-color="#EBF3FF" stop-opacity="0.682555726" offset="100%"></stop>
        </linearGradient>
        <linearGradient x1="44.7362961%" y1="-0.840453377%" x2="83.7181187%" y2="95.5722888%" id="linearGradient-3">
            <stop stop-color="#98B9FF" stop-opacity="0.616140939" offset="0%"></stop>
            <stop stop-color="#417BFF" stop-opacity="0.304619209" offset="100%"></stop>
        </linearGradient>
        <linearGradient x1="8.49878523%" y1="-3.75685943%" x2="79.0098402%" y2="92.7492548%" id="linearGradient-4">
            <stop stop-color="#FFFFFF" stop-opacity="0.393085186" offset="0%"></stop>
            <stop stop-color="#FFFFFF" stop-opacity="0.279179073" offset="100%"></stop>
        </linearGradient>
    </defs>
    <g id="页面-1" stroke="none" stroke-width="1" fill="none" fill-rule="evenodd">
        <g id="WIN-PC迁移-选择内容" transform="translate(-1503, -499)">
            <g id="应用窗口" transform="translate(1013, 264)">
                <g id="编组" transform="translate(460, 185)">
                    <g id="编组" transform="translate(30, 50)">
                        <circle id="椭圆形" stroke="url(#linearGradient-2)" fill="url(#linearGradient-1)" cx="64.7263736" cy="48.6820113" r="20.8328607"></circle>
                        <path d="M51.0661191,12.8881177 C54.9027876,14.0902122 58.3708747,16.1256149 61.2585589,18.7821324 L61.0217935,25.48833 C60.9914454,26.3486087 61.2078454,27.1798461 61.6218818,27.8969781 C62.0359181,28.6141101 62.6475908,29.2171366 63.4077909,29.6209952 L69.3406406,32.7727922 C69.761716,34.6671869 69.9837343,36.6365225 69.9837343,38.6577176 C69.9837343,40.6789127 69.761716,42.6482482 69.3406406,44.542643 L63.4077881,47.6944414 C62.6475908,48.0982985 62.0359181,48.7013251 61.6218818,49.4184571 C61.2078454,50.135589 60.9914454,50.9668264 61.0217941,51.8271193 L61.2585589,58.5333027 C58.3711152,61.189599 54.9033652,63.2248839 51.0670777,64.4270171 L45.3697288,60.8638289 C44.6398796,60.4074073 43.8118069,60.1791965 42.9837343,60.1791965 C42.1556616,60.1791965 41.3275889,60.4074073 40.5977253,60.863838 L34.9003908,64.4270171 C31.0641033,63.2248839 27.5963533,61.189599 24.7089096,58.5333027 L24.945675,51.8271051 C24.9760231,50.9668264 24.7596231,50.135589 24.3455867,49.4184571 C23.9315504,48.7013251 23.3198777,48.0982985 22.559727,47.6944661 L16.6266137,44.5416795 C16.2056772,42.6475805 15.9837343,40.67857 15.9837343,38.6577176 C15.9837343,36.6368651 16.2056772,34.6678546 16.6266137,32.7737556 L22.5596804,29.6209938 C23.3198777,29.2171366 23.9315504,28.6141101 24.3455867,27.8969781 C24.7596231,27.1798461 24.9760231,26.3486087 24.9456745,25.4883158 L24.7089096,18.7821324 C27.5965938,16.1256149 31.0646809,14.0902122 34.9013494,12.8881177 L40.5977397,16.4516062 C41.3275889,16.9080278 42.1556616,17.1362386 42.9837343,17.1362386 C43.8118069,17.1362386 44.6398796,16.9080278 45.3697914,16.4515671 Z" id="形状结合" stroke="url(#linearGradient-4)" fill="url(#linearGradient-3)"></path>
                    </g>
                </g>
            </g>
        </g>
    </g>
</svg>