<?xml version="1.0" encoding="UTF-8"?>
<svg width="24px" height="24px" viewBox="0 0 24 24" version="1.1" xmlns="http://www.w3.org/2000/svg" xmlns:xlink="http://www.w3.org/1999/xlink">
    <title>folder</title>
    <defs>
        <filter x="-6.8%" y="-8.3%" width="113.6%" height="116.7%" filterUnits="objectBoundingBox" id="filter-1">
            <feOffset dx="0" dy="0" in="SourceAlpha" result="shadowOffsetOuter1"></feOffset>
            <feGaussianBlur stdDeviation="0.5" in="shadowOffsetOuter1" result="shadowBlurOuter1"></feGaussianBlur>
            <feColorMatrix values="0 0 0 0 0   0 0 0 0 0   0 0 0 0 0  0 0 0 0.15 0" type="matrix" in="shadowBlurOuter1" result="shadowMatrixOuter1"></feColorMatrix>
            <feMerge>
                <feMergeNode in="shadowMatrixOuter1"></feMergeNode>
                <feMergeNode in="SourceGraphic"></feMergeNode>
            </feMerge>
        </filter>
        <linearGradient x1="50%" y1="0%" x2="50%" y2="37.9679618%" id="linearGradient-2">
            <stop stop-color="#00B8FF" offset="0%"></stop>
            <stop stop-color="#2E5DFF" offset="100%"></stop>
        </linearGradient>
        <path d="M2.66216216,3 L19.3378378,3 C20.2558247,3 21,3.74417535 21,4.66216216 L21,9.33783784 C21,10.2558247 20.2558247,11 19.3378378,11 L2.66216216,11 C1.74417535,11 1,10.2558247 1,9.33783784 L1,4.66216216 C1,3.74417535 1.74417535,3 2.66216216,3 Z" id="path-3"></path>
        <filter x="-7.5%" y="-18.8%" width="115.0%" height="137.5%" filterUnits="objectBoundingBox" id="filter-4">
            <feOffset dx="0" dy="0" in="SourceAlpha" result="shadowOffsetOuter1"></feOffset>
            <feGaussianBlur stdDeviation="0.5" in="shadowOffsetOuter1" result="shadowBlurOuter1"></feGaussianBlur>
            <feColorMatrix values="0 0 0 0 0   0 0 0 0 0   0 0 0 0 0  0 0 0 0.2 0" type="matrix" in="shadowBlurOuter1"></feColorMatrix>
        </filter>
        <linearGradient x1="57.2579805%" y1="-14.0435111%" x2="57.2579805%" y2="97.586286%" id="linearGradient-5">
            <stop stop-color="#48D5FF" offset="0%"></stop>
            <stop stop-color="#0083F6" offset="100%"></stop>
        </linearGradient>
    </defs>
    <g id="folder" stroke="none" stroke-width="1" fill="none" fill-rule="evenodd">
        <g id="Group-2" filter="url(#filter-1)" transform="translate(1, 3)">
            <path d="M13,1 C13.306433,1.61286606 13.9328289,2 14.618034,2 L19.4144144,2 C20.8423939,2 22,3.1576061 22,4.58558559 L22,15.4144144 C22,16.8423939 20.8423939,18 19.4144144,18 L2.58558559,18 C1.1576061,18 1.06305547e-15,16.8423939 8.8817842e-16,15.4144144 L0,2.58558559 C-1.74877051e-16,1.1576061 1.1576061,-6.25862843e-16 2.58558559,-8.8817842e-16 L11.381966,0 C12.0671711,-1.25870133e-16 12.693567,0.387133935 13,1 Z" id="Mask" fill="url(#linearGradient-2)"></path>
            <g id="Rectangle">
                <use fill="black" fill-opacity="1" filter="url(#filter-4)" xlink:href="#path-3"></use>
                <use fill="#CEF5FF" fill-rule="evenodd" xlink:href="#path-3"></use>
            </g>
            <path d="M7.10542736e-15,5 L22,5 L22,15.4144144 C22,16.8423939 20.8423939,18 19.4144144,18 L2.58558559,18 C1.1576061,18 8.99269418e-15,16.8423939 7.54951657e-15,15.4144144 L7.10542736e-15,5 L7.10542736e-15,5 Z" id="Rectangle" fill="url(#linearGradient-5)"></path>
        </g>
    </g>
</svg>