<?xml version="1.0" encoding="UTF-8"?>
<svg width="32px" height="32px" viewBox="0 0 32 32" version="1.1" xmlns="http://www.w3.org/2000/svg" xmlns:xlink="http://www.w3.org/1999/xlink">
    <title>media-optical-32px</title>
    <defs>
        <filter x="-7.1%" y="-3.6%" width="114.3%" height="114.3%" filterUnits="objectBoundingBox" id="filter-1">
            <feOffset dx="0" dy="1" in="SourceAlpha" result="shadowOffsetOuter1"></feOffset>
            <feGaussianBlur stdDeviation="0.5" in="shadowOffsetOuter1" result="shadowBlurOuter1"></feGaussianBlur>
            <feColorMatrix values="0 0 0 0 0   0 0 0 0 0   0 0 0 0 0  0 0 0 0.15 0" type="matrix" in="shadowBlurOuter1" result="shadowMatrixOuter1"></feColorMatrix>
            <feMerge>
                <feMergeNode in="shadowMatrixOuter1"></feMergeNode>
                <feMergeNode in="SourceGraphic"></feMergeNode>
            </feMerge>
        </filter>
        <linearGradient x1="28.8395889%" y1="5.6059543%" x2="73.7075197%" y2="93.9492692%" id="linearGradient-2">
            <stop stop-color="#5CD4FB" offset="0%"></stop>
            <stop stop-color="#FFADF1" offset="47.7870472%"></stop>
            <stop stop-color="#7DF8FF" offset="100%"></stop>
        </linearGradient>
    </defs>
    <g id="media-optical-32px" stroke="none" stroke-width="1" fill="none" fill-rule="evenodd">
        <g id="Group" filter="url(#filter-1)" transform="translate(2, 2)">
            <path d="M14,0 C21.7319865,0 28,6.2680135 28,14 C28,21.7319865 21.7319865,28 14,28 C6.2680135,28 0,21.7319865 0,14 C0,6.2680135 6.2680135,0 14,0 Z M14,9.33333333 C11.4226712,9.33333333 9.33333333,11.4226712 9.33333333,14 C9.33333333,16.5773288 11.4226712,18.6666667 14,18.6666667 C16.5773288,18.6666667 18.6666667,16.5773288 18.6666667,14 C18.6666667,11.4226712 16.5773288,9.33333333 14,9.33333333 Z" id="Combined-Shape" fill="url(#linearGradient-2)"></path>
            <path d="M27.3333333,14 C27.3333333,6.63620334 21.3637967,0.666666667 14,0.666666667 C6.63620334,0.666666667 0.666666667,6.63620334 0.666666667,14 C0.666666667,21.3637967 6.63620334,27.3333333 14,27.3333333 C21.3637967,27.3333333 27.3333333,21.3637967 27.3333333,14 Z M14,20.6666667 C17.6818983,20.6666667 20.6666667,17.6818983 20.6666667,14 C20.6666667,10.3181017 17.6818983,7.33333333 14,7.33333333 C10.3181017,7.33333333 7.33333333,10.3181017 7.33333333,14 C7.33333333,17.6818983 10.3181017,20.6666667 14,20.6666667 L14,20.6666667 Z" id="Combined-Shape" fill="#FFFFFF" opacity="0.39738806"></path>
            <path d="M14,18.6666667 C16.5773288,18.6666667 18.6666667,16.5773288 18.6666667,14 C18.6666667,11.4226712 16.5773288,9.33333333 14,9.33333333 C11.4226712,9.33333333 9.33333333,11.4226712 9.33333333,14 C9.33333333,16.5773288 11.4226712,18.6666667 14,18.6666667 L14,18.6666667 Z M14,16 C15.1045695,16 16,15.1045695 16,14 C16,12.8954305 15.1045695,12 14,12 C12.8954305,12 12,12.8954305 12,14 C12,15.1045695 12.8954305,16 14,16 L14,16 Z" id="Combined-Shape" fill="#CBD4E5" opacity="0.8"></path>
            <path d="M14,20.6666667 C17.6818983,20.6666667 20.6666667,17.6818983 20.6666667,14 C20.6666667,10.3181017 17.6818983,7.33333333 14,7.33333333 C10.3181017,7.33333333 7.33333333,10.3181017 7.33333333,14 C7.33333333,17.6818983 10.3181017,20.6666667 14,20.6666667 L14,20.6666667 Z M14,18 C16.209139,18 18,16.209139 18,14 C18,11.790861 16.209139,10 14,10 C11.790861,10 10,11.790861 10,14 C10,16.209139 11.790861,18 14,18 L14,18 Z" id="Combined-Shape" fill="#B792AF" opacity="0.4"></path>
            <path d="M14,0.666666667 C12.614785,0.666666667 11.2765577,0.867845436 10.0129422,1.24257908 C10.0129422,1.24257906 13.3563006,12 13.3563006,12.0440323 C13.5667136,12.0150022 13.7816048,12 14,12 C14.2356514,12 14.4672233,12.0174666 14.6934916,12.0511759 C14.6934915,12.0174669 18.0268436,1.24257906 18.0268436,1.25444256 C16.7515446,0.872093087 15.3997622,0.666666667 14,0.666666667 Z M14,27.3393861 C12.614785,27.3393861 11.2765577,27.1382073 10.0129422,26.7634737 C10.0129422,26.7634737 13.3496106,15.9567955 13.3496106,15.9610925 C13.562158,15.9907308 13.7792897,16.0060528 14,16.0060528 C14.2309434,16.0060528 14.4579685,15.9892771 14.6799235,15.9567955 C14.9165803,15.9223325 18.0268436,26.7634737 18.0268436,26.7516102 C16.7515446,27.1339597 15.3997622,27.3393861 14,27.3393861 Z" id="Combined-Shape" fill="#FFFFFF" opacity="0.25" transform="translate(14.0199, 14.003) rotate(-30) translate(-14.0199, -14.003)"></path>
        </g>
    </g>
</svg>