<?xml version="1.0" encoding="UTF-8"?>
<svg width="96px" height="96px" viewBox="0 0 96 96" version="1.1" xmlns="http://www.w3.org/2000/svg" xmlns:xlink="http://www.w3.org/1999/xlink">
    <title>icon/success half-96</title>
    <defs>
        <linearGradient x1="50%" y1="0%" x2="50%" y2="100%" id="linearGradient-1">
            <stop stop-color="#F9CE00" offset="0%"></stop>
            <stop stop-color="#F59E00" offset="100%"></stop>
        </linearGradient>
        <path d="M36.75,73.5 C57.0464646,73.5 73.5,57.0464646 73.5,36.75 C73.5,16.4535354 57.0464646,0 36.75,0 C16.4535354,0 0,16.4535354 0,36.75 C0,57.0464646 16.4535354,73.5 36.75,73.5 Z" id="path-2"></path>
        <filter x="-13.6%" y="-6.8%" width="127.2%" height="127.2%" filterUnits="objectBoundingBox" id="filter-3">
            <feOffset dx="0" dy="5" in="SourceAlpha" result="shadowOffsetOuter1"></feOffset>
            <feGaussianBlur stdDeviation="2.5" in="shadowOffsetOuter1" result="shadowBlurOuter1"></feGaussianBlur>
            <feColorMatrix values="0 0 0 0 0.835294118   0 0 0 0 0.482679091   0 0 0 0 0  0 0 0 0.3 0" type="matrix" in="shadowBlurOuter1"></feColorMatrix>
        </filter>
    </defs>
    <g id="icon/success-half-96" stroke="none" stroke-width="1" fill="none" fill-rule="evenodd">
        <g id="icon/success" transform="translate(11.25, 11.25)">
            <g id="Combined-Shape">
                <use fill="black" fill-opacity="1" filter="url(#filter-3)" xlink:href="#path-2"></use>
                <use fill="url(#linearGradient-1)" fill-rule="evenodd" xlink:href="#path-2"></use>
            </g>
            <path d="M35.1260007,42.9264264 L34.5015777,19.4885164 C34.4472125,17.4448941 35.8047888,15.75 37.4994292,15.75 C39.1894096,15.75 40.5454326,17.4336447 40.498834,19.4716424 L39.9567354,42.9114273 C39.9210096,44.4938286 38.8507922,45.75 37.541368,45.75 C36.2366036,45.75 35.1679395,44.501328 35.1260007,42.9264264 Z" id="Shape" fill="#FFFFFF" fill-rule="nonzero"></path>
            <circle id="Oval" fill="#FFFFFF" fill-rule="nonzero" cx="37.5" cy="53.25" r="3"></circle>
        </g>
    </g>
</svg>