<?xml version="1.0" encoding="UTF-8"?>
<svg width="24px" height="24px" viewBox="0 0 24 24" version="1.1" xmlns="http://www.w3.org/2000/svg" xmlns:xlink="http://www.w3.org/1999/xlink">
    <title>ICON / Media / Play_paused</title>
    <g id="页面-1" stroke="none" stroke-width="1" fill="none" fill-rule="evenodd">
        <g id="音乐插件" transform="translate(-319, -291)" fill="#000000" fill-rule="nonzero">
            <g id="UDE-/-ControlPanel" transform="translate(78, 123)">
                <g id="编组-4" transform="translate(0, 150)">
                    <g id="编组-9" transform="translate(0, 10)">
                        <g id="ICON-/-Media-/-Play_paused" transform="translate(244, 9.5)">
                            <path d="M2,0 L4,0 C5.1045695,-2.02906125e-16 6,0.8954305 6,2 L6,19 C6,20.1045695 5.1045695,21 4,21 L2,21 C0.8954305,21 1.3527075e-16,20.1045695 0,19 L0,2 C-1.3527075e-16,0.8954305 0.8954305,2.02906125e-16 2,0 Z M14,0 L16,0 C17.1045695,-2.02906125e-16 18,0.8954305 18,2 L18,19 C18,20.1045695 17.1045695,21 16,21 L14,21 C12.8954305,21 12,20.1045695 12,19 L12,2 C12,0.8954305 12.8954305,2.02906125e-16 14,0 Z" id="形状结合"></path>
                        </g>
                    </g>
                </g>
            </g>
        </g>
    </g>
</svg>