<?xml version="1.0" encoding="UTF-8"?>
<svg width="96px" height="96px" viewBox="0 0 96 96" version="1.1" xmlns="http://www.w3.org/2000/svg" xmlns:xlink="http://www.w3.org/1999/xlink">
    <title>自定义屏保-96px</title>
    <defs>
        <filter x="-14.0%" y="-14.3%" width="133.1%" height="135.1%" filterUnits="objectBoundingBox" id="filter-1">
            <feOffset dx="0" dy="2" in="SourceAlpha" result="shadowOffsetOuter1"></feOffset>
            <feGaussianBlur stdDeviation="2" in="shadowOffsetOuter1" result="shadowBlurOuter1"></feGaussianBlur>
            <feColorMatrix values="0 0 0 0 0   0 0 0 0 0   0 0 0 0 0  0 0 0 0.2 0" type="matrix" in="shadowBlurOuter1" result="shadowMatrixOuter1"></feColorMatrix>
            <feMerge>
                <feMergeNode in="shadowMatrixOuter1"></feMergeNode>
                <feMergeNode in="SourceGraphic"></feMergeNode>
            </feMerge>
        </filter>
        <radialGradient cx="7.54112503%" cy="7.50007269%" fx="7.54112503%" fy="7.50007269%" r="109.143822%" id="radialGradient-2">
            <stop stop-color="#FFCF35" offset="0%"></stop>
            <stop stop-color="#DF429D" offset="74.9315935%"></stop>
            <stop stop-color="#523AD5" offset="100%"></stop>
        </radialGradient>
        <linearGradient x1="50%" y1="0%" x2="50%" y2="100%" id="linearGradient-3">
            <stop stop-color="#FFFFFF" stop-opacity="0.2" offset="0%"></stop>
            <stop stop-color="#000000" stop-opacity="0.14" offset="100%"></stop>
        </linearGradient>
        <linearGradient x1="50%" y1="0%" x2="50%" y2="100%" id="linearGradient-4">
            <stop stop-color="#FFFFFF" offset="0%"></stop>
            <stop stop-color="#FFFFFF" stop-opacity="0.2" offset="100%"></stop>
        </linearGradient>
        <linearGradient x1="50%" y1="0%" x2="50%" y2="41.062716%" id="linearGradient-5">
            <stop stop-color="#000000" stop-opacity="0.1" offset="0%"></stop>
            <stop stop-color="#FFFFFF" stop-opacity="0" offset="100%"></stop>
        </linearGradient>
        <ellipse id="path-6" cx="30" cy="15.2238806" rx="7.6119403" ry="15.2238806"></ellipse>
        <filter x="-19.0%" y="-9.5%" width="138.1%" height="119.0%" filterUnits="objectBoundingBox" id="filter-7">
            <feGaussianBlur stdDeviation="1.5" in="SourceAlpha" result="shadowBlurInner1"></feGaussianBlur>
            <feOffset dx="0" dy="1" in="shadowBlurInner1" result="shadowOffsetInner1"></feOffset>
            <feComposite in="shadowOffsetInner1" in2="SourceAlpha" operator="arithmetic" k2="-1" k3="1" result="shadowInnerInner1"></feComposite>
            <feColorMatrix values="0 0 0 0 1   0 0 0 0 1   0 0 0 0 1  0 0 0 0.5 0" type="matrix" in="shadowInnerInner1"></feColorMatrix>
        </filter>
        <ellipse id="path-8" cx="40.4482942" cy="19.5517058" rx="7.6119403" ry="15.2238806"></ellipse>
        <filter x="-19.0%" y="-9.5%" width="138.1%" height="119.0%" filterUnits="objectBoundingBox" id="filter-9">
            <feGaussianBlur stdDeviation="1.5" in="SourceAlpha" result="shadowBlurInner1"></feGaussianBlur>
            <feOffset dx="0" dy="1" in="shadowBlurInner1" result="shadowOffsetInner1"></feOffset>
            <feComposite in="shadowOffsetInner1" in2="SourceAlpha" operator="arithmetic" k2="-1" k3="1" result="shadowInnerInner1"></feComposite>
            <feColorMatrix values="0 0 0 0 1   0 0 0 0 1   0 0 0 0 1  0 0 0 0.5 0" type="matrix" in="shadowInnerInner1"></feColorMatrix>
        </filter>
        <ellipse id="path-10" cx="44.7761194" cy="30" rx="7.6119403" ry="15.2238806"></ellipse>
        <filter x="-19.0%" y="-9.5%" width="138.1%" height="119.0%" filterUnits="objectBoundingBox" id="filter-11">
            <feGaussianBlur stdDeviation="1.5" in="SourceAlpha" result="shadowBlurInner1"></feGaussianBlur>
            <feOffset dx="0" dy="1" in="shadowBlurInner1" result="shadowOffsetInner1"></feOffset>
            <feComposite in="shadowOffsetInner1" in2="SourceAlpha" operator="arithmetic" k2="-1" k3="1" result="shadowInnerInner1"></feComposite>
            <feColorMatrix values="0 0 0 0 1   0 0 0 0 1   0 0 0 0 1  0 0 0 0.5 0" type="matrix" in="shadowInnerInner1"></feColorMatrix>
        </filter>
        <ellipse id="path-12" cx="40.4482942" cy="40.4482942" rx="7.6119403" ry="15.2238806"></ellipse>
        <filter x="-19.0%" y="-9.5%" width="138.1%" height="119.0%" filterUnits="objectBoundingBox" id="filter-13">
            <feGaussianBlur stdDeviation="1.5" in="SourceAlpha" result="shadowBlurInner1"></feGaussianBlur>
            <feOffset dx="0" dy="1" in="shadowBlurInner1" result="shadowOffsetInner1"></feOffset>
            <feComposite in="shadowOffsetInner1" in2="SourceAlpha" operator="arithmetic" k2="-1" k3="1" result="shadowInnerInner1"></feComposite>
            <feColorMatrix values="0 0 0 0 1   0 0 0 0 1   0 0 0 0 1  0 0 0 0.5 0" type="matrix" in="shadowInnerInner1"></feColorMatrix>
        </filter>
        <ellipse id="path-14" cx="30" cy="44.7761194" rx="7.6119403" ry="15.2238806"></ellipse>
        <filter x="-19.0%" y="-9.5%" width="138.1%" height="119.0%" filterUnits="objectBoundingBox" id="filter-15">
            <feGaussianBlur stdDeviation="1.5" in="SourceAlpha" result="shadowBlurInner1"></feGaussianBlur>
            <feOffset dx="0" dy="1" in="shadowBlurInner1" result="shadowOffsetInner1"></feOffset>
            <feComposite in="shadowOffsetInner1" in2="SourceAlpha" operator="arithmetic" k2="-1" k3="1" result="shadowInnerInner1"></feComposite>
            <feColorMatrix values="0 0 0 0 1   0 0 0 0 1   0 0 0 0 1  0 0 0 0.5 0" type="matrix" in="shadowInnerInner1"></feColorMatrix>
        </filter>
        <ellipse id="path-16" cx="19.5517058" cy="40.4482942" rx="7.6119403" ry="15.2238806"></ellipse>
        <filter x="-19.0%" y="-9.5%" width="138.1%" height="119.0%" filterUnits="objectBoundingBox" id="filter-17">
            <feGaussianBlur stdDeviation="1.5" in="SourceAlpha" result="shadowBlurInner1"></feGaussianBlur>
            <feOffset dx="0" dy="1" in="shadowBlurInner1" result="shadowOffsetInner1"></feOffset>
            <feComposite in="shadowOffsetInner1" in2="SourceAlpha" operator="arithmetic" k2="-1" k3="1" result="shadowInnerInner1"></feComposite>
            <feColorMatrix values="0 0 0 0 1   0 0 0 0 1   0 0 0 0 1  0 0 0 0.5 0" type="matrix" in="shadowInnerInner1"></feColorMatrix>
        </filter>
        <ellipse id="path-18" cx="15.2238806" cy="30" rx="7.6119403" ry="15.2238806"></ellipse>
        <filter x="-19.0%" y="-9.5%" width="138.1%" height="119.0%" filterUnits="objectBoundingBox" id="filter-19">
            <feGaussianBlur stdDeviation="1.5" in="SourceAlpha" result="shadowBlurInner1"></feGaussianBlur>
            <feOffset dx="0" dy="1" in="shadowBlurInner1" result="shadowOffsetInner1"></feOffset>
            <feComposite in="shadowOffsetInner1" in2="SourceAlpha" operator="arithmetic" k2="-1" k3="1" result="shadowInnerInner1"></feComposite>
            <feColorMatrix values="0 0 0 0 1   0 0 0 0 1   0 0 0 0 1  0 0 0 0.5 0" type="matrix" in="shadowInnerInner1"></feColorMatrix>
        </filter>
        <ellipse id="path-20" cx="19.5517058" cy="19.5517058" rx="7.6119403" ry="15.2238806"></ellipse>
        <filter x="-19.0%" y="-9.5%" width="138.1%" height="119.0%" filterUnits="objectBoundingBox" id="filter-21">
            <feGaussianBlur stdDeviation="1.5" in="SourceAlpha" result="shadowBlurInner1"></feGaussianBlur>
            <feOffset dx="0" dy="1" in="shadowBlurInner1" result="shadowOffsetInner1"></feOffset>
            <feComposite in="shadowOffsetInner1" in2="SourceAlpha" operator="arithmetic" k2="-1" k3="1" result="shadowInnerInner1"></feComposite>
            <feColorMatrix values="0 0 0 0 1   0 0 0 0 1   0 0 0 0 1  0 0 0 0.5 0" type="matrix" in="shadowInnerInner1"></feColorMatrix>
        </filter>
        <radialGradient cx="7.54112503%" cy="7.50007269%" fx="7.54112503%" fy="7.50007269%" r="109.143822%" id="radialGradient-22">
            <stop stop-color="#FFDA65" offset="0%"></stop>
            <stop stop-color="#E15DAA" offset="74.9315935%"></stop>
            <stop stop-color="#745EF4" offset="100%"></stop>
        </radialGradient>
        <linearGradient x1="50%" y1="2.62267488%" x2="50%" y2="100%" id="linearGradient-23">
            <stop stop-color="#F9F9F9" offset="0%"></stop>
            <stop stop-color="#F2F2F2" offset="100%"></stop>
        </linearGradient>
        <linearGradient x1="50%" y1="0%" x2="50%" y2="100%" id="linearGradient-24">
            <stop stop-color="#FFFFFF" offset="0%"></stop>
            <stop stop-color="#E9E9E9" offset="100%"></stop>
        </linearGradient>
        <path d="M9.765624,1.25 C7.8177,2.083336 6.1198,3.223952 4.671876,4.671876 C3.2239512,6.1198 2.0833376,7.8177 1.25,9.765624 C0.4166624,11.713552 0,13.791656 0,16 C0,18.208344 0.4166624,20.286448 1.25,22.234376 C2.0833376,24.1823 3.2239512,25.8802 4.671876,27.328124 C6.1198,28.7760488 7.8177,29.9166624 9.765624,30.75 C11.713552,31.5833376 13.791656,32 16,32 C18.208344,32 20.286448,31.5833376 22.234376,30.75 C24.1823,29.9166624 25.8802,28.7760488 27.328124,27.328124 C28.776048,25.8802 29.916664,24.1823 30.75,22.234376 C31.583336,20.286448 32,18.208344 32,16 C32,13.791656 31.583336,11.713552 30.75,9.765624 C29.916664,7.8177 28.776048,6.1198 27.328124,4.671876 C25.8802,3.223952 24.1823,2.083336 22.234376,1.25 C20.286448,0.416664 18.208344,0 16,0 C13.791656,0 11.713552,0.416664 9.765624,1.25 Z" id="path-25"></path>
        <filter x="-21.9%" y="-18.8%" width="143.8%" height="143.8%" filterUnits="objectBoundingBox" id="filter-26">
            <feMorphology radius="0.5" operator="dilate" in="SourceAlpha" result="shadowSpreadOuter1"></feMorphology>
            <feOffset dx="0" dy="1" in="shadowSpreadOuter1" result="shadowOffsetOuter1"></feOffset>
            <feGaussianBlur stdDeviation="2" in="shadowOffsetOuter1" result="shadowBlurOuter1"></feGaussianBlur>
            <feComposite in="shadowBlurOuter1" in2="SourceAlpha" operator="out" result="shadowBlurOuter1"></feComposite>
            <feColorMatrix values="0 0 0 0 0   0 0 0 0 0   0 0 0 0 0  0 0 0 0.3 0" type="matrix" in="shadowBlurOuter1"></feColorMatrix>
        </filter>
        <filter x="-15.6%" y="-12.5%" width="131.2%" height="131.2%" filterUnits="objectBoundingBox" id="filter-27">
            <feOffset dx="0" dy="1" in="SourceAlpha" result="shadowOffsetInner1"></feOffset>
            <feComposite in="shadowOffsetInner1" in2="SourceAlpha" operator="arithmetic" k2="-1" k3="1" result="shadowInnerInner1"></feComposite>
            <feColorMatrix values="0 0 0 0 1   0 0 0 0 1   0 0 0 0 1  0 0 0 0.2 0" type="matrix" in="shadowInnerInner1"></feColorMatrix>
        </filter>
        <linearGradient x1="46.8261315%" y1="0.564822635%" x2="46.8261315%" y2="110.21685%" id="linearGradient-28">
            <stop stop-color="#785E81" offset="0%"></stop>
            <stop stop-color="#271F2B" offset="100%"></stop>
        </linearGradient>
        <path d="M14.3348707,3.43225006 L14.869863,4.98439013 C14.9637393,5.25537742 15.2254597,5.43174047 15.5118586,5.4168235 C15.7102207,5.4065268 15.8728972,5.40137845 15.999888,5.40137845 C16.1268787,5.40137845 16.2895552,5.4065268 16.4879173,5.4168235 C16.7743162,5.43174047 17.0360366,5.25537742 17.129913,4.98439013 L17.6649052,3.43225006 C17.7719371,3.12172485 18.0956149,2.9416048 18.4159165,3.01432757 L19.2427409,3.20205361 C19.5615795,3.27444422 19.7754871,3.57437477 19.7400859,3.89940587 L19.5584246,5.56730439 C19.5288499,5.83883993 19.6738818,6.09947046 19.9202195,6.21747029 L20.8678772,6.67141404 C21.1159236,6.7902324 21.4120605,6.73830981 21.6048882,6.54219162 L22.7640536,5.36324547 C22.9947926,5.12856901 23.3653982,5.10576302 23.6231699,5.31037796 L24.2904973,5.84009147 C24.5454907,6.04250109 24.6091881,6.40344608 24.43888,6.6809104 L23.5697198,8.09693718 C23.426762,8.3298425 23.4464652,8.62763148 23.6188628,8.83967129 L24.3250756,9.70827523 C24.4969251,9.91964092 24.7832265,9.99993118 25.0399231,9.90874675 L26.5953791,9.35621356 C26.9026052,9.24707989 27.2429095,9.3849077 27.3876034,9.67707499 L27.7647635,10.4386406 C27.9101937,10.7322948 27.811778,11.0883359 27.5361755,11.2656096 L26.1675024,12.1459707 C25.9359852,12.2948878 25.8248001,12.5745528 25.8908724,12.8417811 L26.1811689,14.0158804 C26.2455868,14.2764177 26.4649077,14.4696366 26.7314865,14.500703 L28.3993289,14.695069 C28.7126479,14.7315824 28.9533348,14.9897838 28.9677859,15.3048921 L28.9993303,15.99272 L28.9997854,16.0390573 L28.9997854,16.0390573 L28.9909512,16.3763776 C28.9855335,16.5832446 28.8288604,16.7546641 28.6233135,16.778618 L26.8171727,16.989101 C26.5397668,17.0214292 26.3148638,17.2289683 26.2603981,17.5028891 L26.0090211,18.7671233 C25.9574571,19.0264506 26.069734,19.2909321 26.2921081,19.4339681 L27.7177789,20.3509914 C27.9859125,20.5234609 28.0873822,20.8662333 27.9563402,21.1568694 L27.6286277,21.8836982 C27.4909467,22.1890588 27.1420716,22.3377736 26.8264301,22.2256506 L25.3272373,21.6931034 C25.0622508,21.5989742 24.7668324,21.6877704 24.5976573,21.9123988 L23.7910268,22.9834322 C23.6318861,23.1947372 23.6182363,23.4818951 23.7566164,23.7073424 L24.6529122,25.1675783 C24.8199816,25.439766 24.7621918,25.7932963 24.5171482,25.998118 L23.9356809,26.4841423 C23.6783787,26.6992104 23.2990587,26.6806789 23.0639459,26.441554 L21.9306459,25.2889147 C21.7343111,25.0892295 21.431393,25.0394073 21.1814447,25.1656906 L19.9617892,25.7819067 C19.7224412,25.9028343 19.5831489,26.1594887 19.6121845,26.4260743 L19.7966853,28.1200431 C19.8318409,28.4428189 19.6210833,28.74124 19.305135,28.8160515 L18.5941491,28.9844015 C18.2723191,29.0606057 17.9451164,28.8804992 17.837343,28.5678229 L17.3033587,27.0186069 C17.2095718,26.7465088 16.9465429,26.5697462 16.6591775,26.5856995 L16.0355651,26.62032 C16.0117986,26.6216394 15.9879773,26.6216394 15.9642108,26.62032 L15.3405984,26.5856995 C15.053233,26.5697462 14.7902041,26.7465088 14.6964172,27.0186069 L14.1624329,28.5678229 C14.0546595,28.8804992 13.7274568,29.0606057 13.4056269,28.9844015 L12.6946409,28.8160515 C12.3786926,28.74124 12.1679351,28.4428189 12.2030906,28.1200431 L12.3875915,26.4260743 C12.416627,26.1594887 12.2773347,25.9028343 12.0379867,25.7819067 L10.8183312,25.1656906 C10.568383,25.0394073 10.2654649,25.0892295 10.06913,25.2889147 L8.93583001,26.441554 C8.70071725,26.6806789 8.32139723,26.6992104 8.06409505,26.4841423 L7.48262773,25.998118 C7.23758414,25.7932963 7.17979438,25.439766 7.34686373,25.1675783 L8.24315958,23.7073424 C8.38153966,23.4818951 8.36788986,23.1947372 8.20874912,22.9834322 L7.40211866,21.9123988 C7.23294359,21.6877704 6.9375251,21.5989742 6.67253861,21.6931034 L5.17334588,22.2256506 C4.85770432,22.3377736 4.50882928,22.1890588 4.37114828,21.8836982 L4.04343573,21.1568694 C3.91239371,20.8662333 4.01386345,20.5234609 4.28199706,20.3509914 L5.70766782,19.4339681 C5.93004189,19.2909321 6.04231879,19.0264506 5.99075483,18.7671233 L5.73937782,17.5028891 C5.68491212,17.2289683 5.4600091,17.0214292 5.1826032,16.989101 L3.37646248,16.778618 C3.17091555,16.7546641 3.0142424,16.5832446 3.00882469,16.3763776 L2.99999051,16.0390573 L3.00044568,15.99272 L3.00044568,15.99272 L3.03199002,15.3048921 C3.04644114,14.9897838 3.287128,14.7315824 3.60044709,14.695069 L5.26828942,14.500703 C5.53486819,14.4696366 5.75418911,14.2764177 5.81860705,14.0158804 L6.10890352,12.8417811 C6.17497581,12.5745528 6.06379071,12.2948878 5.83227351,12.1459707 L4.46360045,11.2656096 C4.18799791,11.0883359 4.08958221,10.7322948 4.23501244,10.4386406 L4.61217257,9.67707499 C4.75686641,9.3849077 5.09717075,9.24707989 5.40439685,9.35621356 L6.95985286,9.90874675 C7.2165494,9.99993118 7.50285082,9.91964092 7.67470033,9.70827523 L8.38091313,8.83967129 C8.55331073,8.62763148 8.57301395,8.3298425 8.43005618,8.09693718 L7.56089598,6.6809104 C7.3905878,6.40344608 7.45428522,6.04250109 7.70927869,5.84009147 L8.37660607,5.31037796 C8.63437777,5.10576302 9.00498333,5.12856901 9.23572232,5.36324547 L10.3948878,6.54219162 C10.5877154,6.73830981 10.8838523,6.7902324 11.1318988,6.67141404 L12.0795564,6.21747029 C12.3258941,6.09947046 12.470926,5.83883993 12.4413514,5.56730439 L12.25969,3.89940587 C12.2242888,3.57437477 12.4381965,3.27444422 12.7570351,3.20205361 L13.5838594,3.01432757 C13.9041611,2.9416048 14.2278388,3.12172485 14.3348707,3.43225006 Z M24.2686771,14.2461186 C21.7980547,13.9920564 19.2927591,15.1733426 17.9705625,17.4636487 C16.721468,19.6273274 16.8574197,22.210624 18.1050315,24.1877788 C21.753687,23.2523483 24.4506061,19.9416344 24.4506061,16.0009679 C24.4506061,15.3998061 24.387842,14.8133049 24.2686771,14.2461186 Z M14.029994,17.4636487 C12.724543,15.2023495 10.2657714,14.0221564 7.82576531,14.2371555 L7.82576531,14.2371555 L7.73204673,14.2476607 C7.61271445,14.8133049 7.54995035,15.3998061 7.54995035,16.0009679 C7.54995035,19.941994 10.2473616,23.2529524 13.8972551,24.1867038 C15.1431368,22.210624 15.2790885,19.6273274 14.029994,17.4636487 Z M16.0002941,14.6998783 C15.2822961,14.6998783 14.7002436,15.2819801 14.7002436,16.000039 C14.7002436,16.718098 15.2822961,17.3001998 16.0002941,17.3001998 C16.7182921,17.3001998 17.3003445,16.718098 17.3003445,16.000039 C17.3003445,15.2819801 16.7182921,14.6998783 16.0002941,14.6998783 Z M16.0002782,7.54992319 C13.6533197,7.54992319 11.5298296,8.50678647 9.99928509,10.0528121 C10.9795039,12.4006833 13.2972132,14.0507268 16.0002782,14.0507268 C18.7037277,14.0507268 21.0217119,12.4002139 22.0009813,10.0507059 C20.4698074,8.5063722 18.3467286,7.54992319 16.0002782,7.54992319 Z" id="path-29"></path>
    </defs>
    <g id="自定义屏保-96px" stroke="none" stroke-width="1" fill="none" fill-rule="evenodd">
        <g id="编组-4" filter="url(#filter-1)" transform="translate(5.000000, 5.000000)">
            <g id="编组-2" fill-rule="nonzero">
                <rect id="Rectangle" stroke="url(#linearGradient-3)" stroke-width="2" fill="url(#radialGradient-2)" x="1" y="1" width="78" height="78" rx="18"></rect>
                <g id="编组" transform="translate(10.000000, 10.000000)">
                    <g id="椭圆形">
                        <use fill="url(#linearGradient-4)" xlink:href="#path-6"></use>
                        <use fill="black" fill-opacity="1" filter="url(#filter-7)" xlink:href="#path-6"></use>
                        <ellipse stroke="url(#linearGradient-5)" stroke-width="0.9" cx="30" cy="15.2238806" rx="8.0619403" ry="15.6738806"></ellipse>
                    </g>
                    <g id="椭圆形" transform="translate(40.448294, 19.551706) rotate(45.000000) translate(-40.448294, -19.551706) ">
                        <use fill="url(#linearGradient-4)" xlink:href="#path-8"></use>
                        <use fill="black" fill-opacity="1" filter="url(#filter-9)" xlink:href="#path-8"></use>
                        <ellipse stroke="url(#linearGradient-5)" stroke-width="0.9" cx="40.4482942" cy="19.5517058" rx="8.0619403" ry="15.6738806"></ellipse>
                    </g>
                    <g id="椭圆形" transform="translate(44.776119, 30.000000) rotate(90.000000) translate(-44.776119, -30.000000) ">
                        <use fill="url(#linearGradient-4)" xlink:href="#path-10"></use>
                        <use fill="black" fill-opacity="1" filter="url(#filter-11)" xlink:href="#path-10"></use>
                        <ellipse stroke="url(#linearGradient-5)" stroke-width="0.9" cx="44.7761194" cy="30" rx="8.0619403" ry="15.6738806"></ellipse>
                    </g>
                    <g id="椭圆形" transform="translate(40.448294, 40.448294) rotate(135.000000) translate(-40.448294, -40.448294) ">
                        <use fill="url(#linearGradient-4)" xlink:href="#path-12"></use>
                        <use fill="black" fill-opacity="1" filter="url(#filter-13)" xlink:href="#path-12"></use>
                        <ellipse stroke="url(#linearGradient-5)" stroke-width="0.9" cx="40.4482942" cy="40.4482942" rx="8.0619403" ry="15.6738806"></ellipse>
                    </g>
                    <g id="椭圆形" transform="translate(30.000000, 44.776119) rotate(180.000000) translate(-30.000000, -44.776119) ">
                        <use fill="url(#linearGradient-4)" xlink:href="#path-14"></use>
                        <use fill="black" fill-opacity="1" filter="url(#filter-15)" xlink:href="#path-14"></use>
                        <ellipse stroke="url(#linearGradient-5)" stroke-width="0.9" cx="30" cy="44.7761194" rx="8.0619403" ry="15.6738806"></ellipse>
                    </g>
                    <g id="椭圆形" transform="translate(19.551706, 40.448294) rotate(225.000000) translate(-19.551706, -40.448294) ">
                        <use fill="url(#linearGradient-4)" xlink:href="#path-16"></use>
                        <use fill="black" fill-opacity="1" filter="url(#filter-17)" xlink:href="#path-16"></use>
                        <ellipse stroke="url(#linearGradient-5)" stroke-width="0.9" cx="19.5517058" cy="40.4482942" rx="8.0619403" ry="15.6738806"></ellipse>
                    </g>
                    <g id="椭圆形" transform="translate(15.223881, 30.000000) rotate(270.000000) translate(-15.223881, -30.000000) ">
                        <use fill="url(#linearGradient-4)" xlink:href="#path-18"></use>
                        <use fill="black" fill-opacity="1" filter="url(#filter-19)" xlink:href="#path-18"></use>
                        <ellipse stroke="url(#linearGradient-5)" stroke-width="0.9" cx="15.2238806" cy="30" rx="8.0619403" ry="15.6738806"></ellipse>
                    </g>
                    <g id="椭圆形" transform="translate(19.551706, 19.551706) rotate(315.000000) translate(-19.551706, -19.551706) ">
                        <use fill="url(#linearGradient-4)" xlink:href="#path-20"></use>
                        <use fill="black" fill-opacity="1" filter="url(#filter-21)" xlink:href="#path-20"></use>
                        <ellipse stroke="url(#linearGradient-5)" stroke-width="0.9" cx="19.5517058" cy="19.5517058" rx="8.0619403" ry="15.6738806"></ellipse>
                    </g>
                    <path d="M30,27.4137237 C30.7274497,27.4137237 31.3860318,27.7085809 31.8627514,28.1853006 C32.3394711,28.6620203 32.6343284,29.3206024 32.6343284,30.048052 C32.6343284,30.7755017 32.3394711,31.4340838 31.8627514,31.9108035 C31.3860318,32.3875232 30.7274497,32.6823804 30,32.6823804 C29.2725503,32.6823804 28.6139682,32.3875232 28.1372486,31.9108035 C27.6605289,31.4340838 27.3656716,30.7755017 27.3656716,30.048052 C27.3656716,29.3206024 27.6605289,28.6620203 28.1372486,28.1853006 C28.6139682,27.7085809 29.2725503,27.4137237 30,27.4137237 Z" id="椭圆形" stroke="url(#linearGradient-3)" fill="url(#radialGradient-22)"></path>
                </g>
            </g>
            <g id="编组-3" transform="translate(54.000000, 52.000000)">
                <g id="Path">
                    <use fill="black" fill-opacity="1" filter="url(#filter-26)" xlink:href="#path-25"></use>
                    <use fill="url(#linearGradient-23)" fill-rule="evenodd" xlink:href="#path-25"></use>
                    <use fill="black" fill-opacity="1" filter="url(#filter-27)" xlink:href="#path-25"></use>
                    <use stroke="url(#linearGradient-24)" stroke-width="1" xlink:href="#path-25"></use>
                </g>
                <mask id="mask-30" fill="white">
                    <use xlink:href="#path-29"></use>
                </mask>
                <use id="Mask" fill="url(#linearGradient-28)" xlink:href="#path-29"></use>
            </g>
        </g>
    </g>
</svg>