<?xml version="1.0" encoding="UTF-8"?>
<svg width="14px" height="14px" viewBox="0 0 14 14" version="1.1" xmlns="http://www.w3.org/2000/svg" xmlns:xlink="http://www.w3.org/1999/xlink">
    <title>编组 7备份</title>
    <g id="页面-1" stroke="none" stroke-width="1" fill="none" fill-rule="evenodd">
        <g id="防火墙" transform="translate(-301.000000, -293.000000)" fill="#536076">
            <g id="编组-7" transform="translate(65.000000, 45.000000)">
                <g id="编组-5" transform="translate(220.000000, 231.000000)">
                    <g id="编组-7备份" transform="translate(15.000000, 16.000000)">
                        <path d="M7.39000572,1.60253931 C7.78070896,1.441416 8.21929104,1.441416 8.60999428,1.60253931 L8.60999428,1.60253931 L13.6721721,3.69014626 C14.2712728,3.93721121 14.6621778,4.52125849 14.6621778,5.16930378 L14.6621778,5.16930378 L14.6621778,10.8306962 C14.6621778,11.4787415 14.2712728,12.0627888 13.6721721,12.3098537 L13.6721721,12.3098537 L8.60999428,14.3974607 C8.21929104,14.558584 7.78070896,14.558584 7.39000572,14.3974607 L7.39000572,14.3974607 L2.32782789,12.3098537 C1.72872723,12.0627888 1.33782217,11.4787415 1.33782217,10.8306962 L1.33782217,10.8306962 L1.33782217,5.16930378 C1.33782217,4.52125849 1.72872723,3.93721121 2.32782789,3.69014626 L2.32782789,3.69014626 Z M2.53682217,5.56569683 L2.53782217,10.8306962 C2.53782217,10.9927075 2.63554844,11.1387194 2.7853236,11.2004856 L2.7853236,11.2004856 L7.39982217,13.1036968 L7.39982217,7.65469683 L2.53682217,5.56569683 Z M13.4618222,5.73969683 L8.59982217,7.66569683 L8.59982217,13.1026968 L13.2146764,11.2004856 C13.339489,11.1490137 13.4281566,11.039038 13.4542454,10.9100526 L13.4621778,10.8306962 L13.4618222,5.73969683 Z M8.15249857,2.71190745 C8.05482276,2.67162662 7.94517724,2.67162662 7.84750143,2.71190745 L7.84750143,2.71190745 L3.29982217,4.58669683 L8.009,6.61 L12.9038222,4.67069683 Z" id="形状结合"></path>
                    </g>
                </g>
            </g>
        </g>
    </g>
</svg>