<?xml version="1.0" encoding="UTF-8"?>
<svg width="18px" height="18px" viewBox="0 0 18 18" version="1.1" xmlns="http://www.w3.org/2000/svg" xmlns:xlink="http://www.w3.org/1999/xlink">
    <title>提示</title>
    <g id="V4.4" stroke="none" stroke-width="1" fill="none" fill-rule="evenodd">
        <g id="安全工具_流量监控备份" transform="translate(-980.000000, -218.000000)" fill="#536076">
            <g id="编组-12" transform="translate(68.000000, 47.000000)">
                <g id="编组-4" transform="translate(210.000000, 126.000000)">
                    <g id="编组-3" transform="translate(10.000000, 45.000000)">
                        <g id="注意" transform="translate(692.500000, 0.500000)">
                            <path d="M8.49257143,0 C3.80194563,0 0,3.80601265 0,8.5 C0,13.1939874 3.80194561,17 8.49257143,17 C13.1906776,17 17,13.1939317 17,8.5 C17,3.80606832 13.1906776,0 8.49257143,0 Z M8.49257143,1 C12.6385841,1 16,4.35854447 16,8.5 C16,12.6414555 12.6385841,16 8.49257143,16 C4.35446984,16 1,12.6419418 1,8.5 C1,4.35805821 4.35446986,1 8.49257143,1 Z" id="Shape" fill-rule="nonzero"></path>
                            <path d="M7.7,4.5 L9.3,4.5 L9.3,9.3 L7.7,9.3 L7.7,4.5 Z M7.7,10.9 L9.3,10.9 L9.3,12.5 L7.7,12.5 L7.7,10.9 Z" id="Combined-Shape" transform="translate(8.500000, 8.500000) rotate(-180.000000) translate(-8.500000, -8.500000) "></path>
                        </g>
                    </g>
                </g>
            </g>
        </g>
    </g>
</svg>