<?xml version="1.0" encoding="UTF-8"?>
<svg width="350px" height="350px" viewBox="0 0 350 350" version="1.1" xmlns="http://www.w3.org/2000/svg" xmlns:xlink="http://www.w3.org/1999/xlink">
    <title>Illustratio/Super_protection</title>
    <defs>
        <linearGradient x1="66.3663468%" y1="96.6444396%" x2="66.3663468%" y2="0%" id="linearGradient-1">
            <stop stop-color="#FFA53C" offset="0%"></stop>
            <stop stop-color="#FFDA1A" offset="100%"></stop>
        </linearGradient>
        <linearGradient x1="50%" y1="0.153372107%" x2="50%" y2="103.767911%" id="linearGradient-2">
            <stop stop-color="#FFBF00" offset="0%"></stop>
            <stop stop-color="#FF8F00" offset="100%"></stop>
        </linearGradient>
        <path d="M130.591056,40.3915745 C130.516065,33.2072597 130.376795,25.3551376 130.376795,16.7490396 C130.378944,14.5919205 128.950724,12.6978623 126.884347,12.1174723 C107.204511,6.12874828 89.6030018,2.61737399 66.1307523,0 L65.3808402,0 C53.5000897,0.603180846 42.358538,2.08959075 32.3418547,4.41614542 C22.1644759,6.73192898 12.5870267,9.34930312 3.6737855,12.1174723 C1.65406553,12.749844 0.272488166,14.6222506 0.256328886,16.7490396 C0.256328886,24.5257641 0.181337674,31.6346813 0.117059366,38.215815 C-0.493583237,94.4516579 -0.718556874,115.466048 54.0250281,145.980536 C58.55664,148.522512 61.9633836,149.567308 65.6058138,149.567308 C69.1732529,149.567308 72.6657009,148.522512 77.1223215,146.055934 C131.63022,116.360048 131.415959,98.7170082 130.591056,40.3915745 Z" id="path-3"></path>
        <filter x="-24.1%" y="-19.1%" width="148.1%" height="142.1%" filterUnits="objectBoundingBox" id="filter-5">
            <feMorphology radius="9" operator="dilate" in="SourceAlpha" result="shadowSpreadOuter1"></feMorphology>
            <feOffset dx="0" dy="3" in="shadowSpreadOuter1" result="shadowOffsetOuter1"></feOffset>
            <feGaussianBlur stdDeviation="7" in="shadowOffsetOuter1" result="shadowBlurOuter1"></feGaussianBlur>
            <feComposite in="shadowBlurOuter1" in2="SourceAlpha" operator="out" result="shadowBlurOuter1"></feComposite>
            <feColorMatrix values="0 0 0 0 0.9703922   0 0 0 0 0.663072399   0 0 0 0 0  0 0 0 0.252074342 0" type="matrix" in="shadowBlurOuter1"></feColorMatrix>
        </filter>
        <linearGradient x1="50%" y1="0%" x2="50%" y2="100%" id="linearGradient-6">
            <stop stop-color="#FFFFFF" offset="0%"></stop>
            <stop stop-color="#FFFFFF" stop-opacity="0.902161071" offset="100%"></stop>
        </linearGradient>
        <path d="M42.3522893,0 C52.2219447,0 60.2517496,7.96826621 60.2517496,17.7621804 C60.2517496,23.2295021 57.7470589,28.3184886 53.3797695,31.7244183 L52.6049252,32.3287925 L53.5184163,32.6912013 C59.0695993,34.8924472 63.8070008,38.642039 67.219205,43.5345168 C70.713435,48.5447837 72.5601763,54.4188925 72.5601763,60.5208652 L72.5601763,66.6287274 C72.5601763,68.0027952 71.4324885,69.1208791 70.0462702,69.1208791 L14.6578102,69.1208791 C13.2717579,69.1208791 12.143904,68.0029611 12.143904,66.6288933 L12.143904,60.5210311 C12.143904,54.4201368 13.9909775,48.5465256 17.4852905,43.535761 C20.8977438,38.6425367 25.6353113,34.8923642 31.1858301,32.6912013 L32.0994042,32.3287925 L31.3245599,31.7244183 C26.9572706,28.3186545 24.4525798,23.229668 24.4525798,17.7621804 C24.4525798,7.96818326 32.4823017,0 42.3522893,0 Z M61.0400435,6.1107654 C69.0945059,6.24821366 75.6045931,12.7937203 75.6045931,20.8199686 C75.6045931,24.4609788 74.2353943,27.9647896 71.7489684,30.6859664 L71.2525798,31.2292894 L71.9075404,31.5659837 C79.8823017,35.66521 84.4998407,44.9541415 84.8356433,52.7422229 L84.8356433,57.4670586 C84.8356433,58.8405457 83.7081215,59.958049 82.3219862,59.958049 L77.3671502,59.958049 C77.3671502,40.9946878 62.7424306,32.6617148 59.7802198,31.5659837 C62.294038,30.1162088 70.8120149,17.8737841 61.1930531,6.35696119 C61.1425757,6.27442588 61.0914341,6.19255416 61.0400435,6.1107654 Z M23.7955998,6.1107654 C23.7442092,6.19255416 23.6930677,6.27442588 23.6425903,6.35696119 C14.0236284,17.8737841 22.5416053,30.1162088 25.0554236,31.5659837 C22.0932127,32.6617148 7.46849315,40.9946878 7.46849315,59.958049 L7.46849315,59.958049 L2.51365712,59.958049 C1.12752179,59.958049 0,58.8405457 0,57.4670586 L0,57.4670586 L0,52.7422229 C0.335802605,44.9541415 4.95334164,35.66521 12.9281029,31.5659837 L12.9281029,31.5659837 L13.5830635,31.2292894 L13.086675,30.6859664 C10.6002491,27.9647896 9.23105023,24.4609788 9.23105023,20.8199686 C9.23105023,12.7937203 15.7411374,6.24821366 23.7955998,6.1107654 Z" id="path-7"></path>
        <filter x="-16.5%" y="-18.8%" width="133.0%" height="140.5%" filterUnits="objectBoundingBox" id="filter-8">
            <feOffset dx="0" dy="1" in="SourceAlpha" result="shadowOffsetOuter1"></feOffset>
            <feGaussianBlur stdDeviation="4.5" in="shadowOffsetOuter1" result="shadowBlurOuter1"></feGaussianBlur>
            <feColorMatrix values="0 0 0 0 1   0 0 0 0 0.57172954   0 0 0 0 0  0 0 0 0.500399503 0" type="matrix" in="shadowBlurOuter1"></feColorMatrix>
        </filter>
    </defs>
    <g id="Illustratio/Super_protection" stroke="none" stroke-width="1" fill="none" fill-rule="evenodd">
        <g id="编组" transform="translate(5.000000, 5.000000)">
            <g id="矩形备份-30" transform="translate(104.615385, 100.879121)">
                <mask id="mask-4" fill="white">
                    <use xlink:href="#path-3"></use>
                </mask>
                <g id="蒙版">
                    <use fill="black" fill-opacity="1" filter="url(#filter-5)" xlink:href="#path-3"></use>
                    <path stroke="url(#linearGradient-2)" stroke-width="9" d="M66.3803581,-4.5 C90.2913856,-1.84471183 108.182009,1.72246589 128.194636,7.8118893 C130.160053,8.38603682 131.823345,9.57320401 132.999266,11.1326713 C134.188542,12.7098489 134.878871,14.6678844 134.876795,16.7490395 C134.876795,22.984551 134.950245,28.8229745 135.019019,34.2972982 C135.044968,36.3628717 135.070266,38.3768562 135.090855,40.3455591 C135.544361,72.4178765 135.563704,92.4927934 127.242094,108.937873 C119.846967,123.552048 105.934999,135.48328 79.2752264,150.007619 C73.9878002,152.930182 69.8263952,154.067308 65.6058138,154.067308 C61.286966,154.067308 57.2165769,152.930446 51.8195835,149.903071 C25.4466408,135.20078 11.4915906,122.466899 3.97161172,107.434085 C-4.7116111,90.0758895 -4.72222529,69.4370886 -4.38272444,38.1717049 L-4.38272444,38.1717049 L-4.37037027,36.9114252 C-4.30935705,30.6985301 -4.24367111,24.0159866 -4.24367111,16.7490396 C-4.22805067,14.6760745 -3.5572627,12.7596153 -2.40726524,11.2010613 C-1.25239618,9.63590501 0.385355163,8.43166212 2.33911348,7.81995552 C11.3568993,5.0193181 21.0466848,2.37124895 31.34441,0.0280318712 C41.6275175,-2.35889382 53.0672172,-3.88657612 65.267234,-4.5 L65.267234,-4.5 Z" fill="url(#linearGradient-1)" fill-rule="evenodd"></path>
                </g>
                <g id="客户会员管理" mask="url(#mask-4)" fill-rule="nonzero">
                    <g transform="translate(22.581939, 32.692308)" id="形状结合">
                        <use fill="black" fill-opacity="1" filter="url(#filter-8)" xlink:href="#path-7"></use>
                        <use fill="url(#linearGradient-6)" xlink:href="#path-7"></use>
                    </g>
                </g>
            </g>
            <circle id="椭圆形" stroke="#FFB119" opacity="0.699999988" cx="170" cy="170" r="116.216418"></circle>
            <circle id="椭圆形" stroke="#FFB119" opacity="0.5" cx="170" cy="170" r="143.281095"></circle>
            <circle id="椭圆形" stroke="#FFB119" opacity="0.300000012" cx="170" cy="170" r="169.5"></circle>
        </g>
    </g>
</svg>