<?xml version="1.0" encoding="UTF-8"?>
<svg width="18px" height="18px" viewBox="0 0 18 18" version="1.1" xmlns="http://www.w3.org/2000/svg" xmlns:xlink="http://www.w3.org/1999/xlink">
    <title>注意</title>
    <g id="注意" stroke="none" stroke-width="1" fill="none" fill-rule="evenodd">
        <g transform="translate(1.000000, 1.000000)" fill-rule="nonzero">
            <path d="M7.99257143,-0.5 C3.30194563,-0.5 -0.5,3.30601265 -0.5,8 C-0.5,12.6939874 3.30194561,16.5 7.99257143,16.5 C12.6906776,16.5 16.5,12.6939317 16.5,8 C16.5,3.30606832 12.6906776,-0.5 7.99257143,-0.5 Z M7.99257143,0.5 C12.1385841,0.5 15.5,3.85854447 15.5,8 C15.5,12.1414555 12.1385841,15.5 7.99257143,15.5 C3.85446984,15.5 0.5,12.1419418 0.5,8 C0.5,3.85805821 3.85446986,0.5 7.99257143,0.5 Z" id="Shape" fill="#536076"></path>
            <path d="M7.43899981,11.4299627 L8.78699978,11.4299627 L8.78699978,12.7729626 L7.43899981,12.7729626 L7.43899981,11.4289627 L7.43899981,11.4299627 Z M7.51099981,10.4069998 L7.51099936,10.4069998 C7.50731505,10.2890001 7.50531503,10.1710045 7.50499991,10.0529998 C7.50499991,9.58999982 7.57099991,9.19099983 7.7029999,8.85399984 C7.7989999,8.59999984 7.9549999,8.34499985 8.16999989,8.08699985 C8.32799989,7.89899986 8.61199988,7.62499986 9.02099988,7.26399987 C9.43099987,6.90399988 9.69799986,6.61699988 9.81999986,6.40199989 C9.94199986,6.18699989 10.0039999,5.9539999 10.0039999,5.69999991 C10.0039999,5.24199992 9.82399986,4.83799992 9.46499987,4.49099993 L9.4649999,4.49099997 C9.11224835,4.14674216 8.63577336,3.95896404 8.14299993,3.96999998 C7.63899994,3.96999998 7.21799995,4.12699998 6.87999996,4.44199997 C6.54299997,4.75599996 6.32099997,5.24799995 6.21599997,5.91599994 L5,5.77199994 C5.11,4.87599996 5.43499999,4.18999997 5.97599998,3.71299998 C6.51599997,3.23699999 7.23299995,3 8.12199993,3 C9.06499991,3 9.81699989,3.25599999 10.3779999,3.76699998 C10.9379999,4.27799997 11.2189999,4.89699996 11.2189999,5.62199994 C11.2189999,6.04199993 11.1199999,6.42899993 10.9229999,6.78199992 C10.7249999,7.13599991 10.3389999,7.5659999 9.7659999,8.07299989 C9.3799999,8.41399988 9.12899991,8.66499988 9.00999991,8.82699987 L9.00999992,8.82699987 C8.88855445,8.99475299 8.7993718,9.18363111 8.74699992,9.38399985 C8.68999992,9.59399985 8.65699993,9.93399984 8.64899993,10.4069998 L7.51099995,10.4069998 L7.51099981,10.4069998 Z" id="形状" fill="#505D72"></path>
        </g>
    </g>
</svg>