<?xml version="1.0" encoding="UTF-8"?>
<svg width="14px" height="12px" viewBox="0 0 14 12" version="1.1" xmlns="http://www.w3.org/2000/svg" xmlns:xlink="http://www.w3.org/1999/xlink">
    <title>编组 6</title>
    <g id="页面-1" stroke="none" stroke-width="1" fill="none" fill-rule="evenodd">
        <g id="防火墙" transform="translate(-300.000000, -236.000000)" fill="#626E88" fill-rule="nonzero">
            <g id="编组-7" transform="translate(65.000000, 45.000000)">
                <g id="编组-3备份" transform="translate(220.000000, 173.000000)">
                    <g id="编组" transform="translate(14.000000, 16.000000)">
                        <g id="编组-6" transform="translate(1.000000, 2.000000)">
                            <path d="M6,10 L2,10 C0.8954305,10 0,9.1045695 0,8 L0,2 C0,0.8954305 0.8954305,0 2,0 L12,0 C13.1045695,0 14,0.8954305 14,2 L14,8 C14,9.1045695 13.1045695,10 12,10 L8,10 L8,11 L11.5,11 C11.7761424,11 12,11.2238576 12,11.5 C12,11.7761424 11.7761424,12 11.5,12 L2.5,12 C2.22385763,12 2,11.7761424 2,11.5 C2,11.2238576 2.22385763,11 2.5,11 L6,11 L6,10 Z M12,1.2 L2,1.2 C1.59215895,1.2 1.25559842,1.50518815 1.20623314,1.8996497 L1.2,2 L1.2,8 C1.2,8.40784105 1.50518815,8.74440158 1.8996497,8.79376686 L2,8.8 L12,8.8 C12.407841,8.8 12.7444016,8.49481185 12.7937669,8.1003503 L12.8,8 L12.8,2 C12.8,1.59215895 12.4948119,1.25559842 12.1003503,1.20623314 L12,1.2 Z" id="形状结合"></path>
                        </g>
                    </g>
                </g>
            </g>
        </g>
    </g>
</svg>