<?xml version="1.0" encoding="UTF-8"?>
<svg width="96px" height="96px" viewBox="0 0 96 96" version="1.1" xmlns="http://www.w3.org/2000/svg" xmlns:xlink="http://www.w3.org/1999/xlink">
    <title>ICON/登录安全</title>
    <defs>
        <linearGradient x1="52.8433927%" y1="21.1823782%" x2="1.96646186%" y2="78.075964%" id="linearGradient-1">
            <stop stop-color="#39BCFB" offset="0%"></stop>
            <stop stop-color="#529AFF" offset="100%"></stop>
            <stop stop-color="#489BFF" offset="100%"></stop>
        </linearGradient>
        <linearGradient x1="50%" y1="0%" x2="50%" y2="100%" id="linearGradient-2">
            <stop stop-color="#FFFFFF" offset="0%"></stop>
            <stop stop-color="#FFFFFF" offset="100%"></stop>
        </linearGradient>
        <rect id="path-3" x="0" y="0" width="64" height="51" rx="3.2"></rect>
        <filter x="-26.6%" y="-25.5%" width="153.1%" height="166.7%" filterUnits="objectBoundingBox" id="filter-4">
            <feOffset dx="0" dy="4" in="SourceAlpha" result="shadowOffsetOuter1"></feOffset>
            <feGaussianBlur stdDeviation="5" in="shadowOffsetOuter1" result="shadowBlurOuter1"></feGaussianBlur>
            <feComposite in="shadowBlurOuter1" in2="SourceAlpha" operator="out" result="shadowBlurOuter1"></feComposite>
            <feColorMatrix values="0 0 0 0 0.0474952147   0 0 0 0 0.553297077   0 0 0 0 0.969839787  0 0 0 0.400259165 0" type="matrix" in="shadowBlurOuter1"></feColorMatrix>
        </filter>
        <linearGradient x1="50%" y1="29.7102266%" x2="50%" y2="174.48447%" id="linearGradient-5">
            <stop stop-color="#FFFFFF" offset="0%"></stop>
            <stop stop-color="#FFFFFF" stop-opacity="0" offset="100%"></stop>
        </linearGradient>
        <path d="M34.9906152,22.2752695 L29.8087188,22.2752695 C24.9585762,22.2752695 21.0111973,26.1612031 21.0111973,30.9408359 L21.0111973,31.4504258 C21.0111973,34 24.8939063,34 29.8087188,34 L34.9906152,34 C39.711418,34 43.7874512,34 43.7884668,31.4504512 L43.7884668,30.9395664 C43.7884668,26.162168 39.8407324,22.2739746 34.9906152,22.2739746 L34.9906152,22.2752695 Z M32.1406445,8 C28.2890137,8 25.1564453,11.0866367 25.1564453,14.8813672 C25.1564453,18.6760977 28.2876934,21.7634199 32.1406445,21.7634199 C35.9935957,21.7634199 39.1248438,18.676123 39.1248438,14.8813672 C39.1248438,11.0866113 35.9919961,8 32.1406699,8 L32.1406445,8 Z" id="path-6"></path>
        <filter x="-4.4%" y="-3.8%" width="108.8%" height="111.5%" filterUnits="objectBoundingBox" id="filter-7">
            <feMorphology radius="0.5" operator="dilate" in="SourceAlpha" result="shadowSpreadOuter1"></feMorphology>
            <feOffset dx="0" dy="1" in="shadowSpreadOuter1" result="shadowOffsetOuter1"></feOffset>
            <feComposite in="shadowOffsetOuter1" in2="SourceAlpha" operator="out" result="shadowOffsetOuter1"></feComposite>
            <feColorMatrix values="0 0 0 0 0.103672182   0 0 0 0 0.428452917   0 0 0 0 0.858681941  0 0 0 0.347055288 0" type="matrix" in="shadowOffsetOuter1"></feColorMatrix>
        </filter>
        <filter x="-4.4%" y="-3.8%" width="108.8%" height="111.5%" filterUnits="objectBoundingBox" id="filter-8">
            <feOffset dx="0" dy="1" in="SourceAlpha" result="shadowOffsetInner1"></feOffset>
            <feComposite in="shadowOffsetInner1" in2="SourceAlpha" operator="arithmetic" k2="-1" k3="1" result="shadowInnerInner1"></feComposite>
            <feColorMatrix values="0 0 0 0 1   0 0 0 0 1   0 0 0 0 1  0 0 0 0.5 0" type="matrix" in="shadowInnerInner1"></feColorMatrix>
        </filter>
        <linearGradient x1="41.5408797%" y1="100%" x2="62.5304842%" y2="0%" id="linearGradient-9">
            <stop stop-color="#22C2EA" offset="0%"></stop>
            <stop stop-color="#51ECA1" offset="100%"></stop>
        </linearGradient>
        <linearGradient x1="50%" y1="0%" x2="50%" y2="98.1564892%" id="linearGradient-10">
            <stop stop-color="#27EC95" offset="0%"></stop>
            <stop stop-color="#1188EE" offset="100%"></stop>
        </linearGradient>
        <path d="M73.9427744,34.9626962 C73.918689,32.6570646 73.873959,30.1371165 73.8739589,27.375198 C73.8746491,26.682923 73.4159383,26.075071 72.7522669,25.8888089 C66.4315663,23.9668731 60.7783759,22.8399827 53.2396416,22 L52.9987875,22 C49.18297,22.1935763 45.6045657,22.6706035 42.3874428,23.4172548 C39.1187082,24.1604493 36.0426568,25.0004321 33.1799335,25.8888089 C32.5312469,26.0917532 32.0875168,26.6926567 32.0823268,27.375198 C32.0823268,29.8709492 32.0582414,32.1523837 32.0375967,34.264439 C31.8414727,52.3119689 31.7692164,59.0560277 49.3515679,68.8489126 C50.807015,69.6646983 51.9011808,70 53.0710437,70 C54.2168212,70 55.3385133,69.6646983 56.769875,68.8731096 C74.2765294,59.3429354 74.207714,53.6808296 73.9427744,34.9626962 Z" id="path-11"></path>
        <filter x="-27.4%" y="-15.6%" width="154.8%" height="147.9%" filterUnits="objectBoundingBox" id="filter-12">
            <feMorphology radius="0.384782609" operator="dilate" in="SourceAlpha" result="shadowSpreadOuter1"></feMorphology>
            <feOffset dx="0" dy="4" in="shadowSpreadOuter1" result="shadowOffsetOuter1"></feOffset>
            <feGaussianBlur stdDeviation="3" in="shadowOffsetOuter1" result="shadowBlurOuter1"></feGaussianBlur>
            <feComposite in="shadowBlurOuter1" in2="SourceAlpha" operator="out" result="shadowBlurOuter1"></feComposite>
            <feColorMatrix values="0 0 0 0 0.0474952147   0 0 0 0 0.553297077   0 0 0 0 0.969839787  0 0 0 0.27336238 0" type="matrix" in="shadowBlurOuter1"></feColorMatrix>
        </filter>
        <linearGradient x1="86.0843913%" y1="8.25653754%" x2="30.0285555%" y2="86.1347115%" id="linearGradient-13">
            <stop stop-color="#FEFEFE" offset="0%"></stop>
            <stop stop-color="#F1F8FF" offset="100%"></stop>
        </linearGradient>
        <path d="M43.2742679,27.3177087 C46.221708,26.6336879 49.5115335,26.19024 53.043337,26.0030629 C59.5337352,26.7358695 64.5375276,27.6853251 69.879738,29.2116382 L69.9780452,38.0665247 L69.9881747,40.4256208 C69.9867354,47.8276414 69.6179213,50.7594804 68.4217299,53.6056913 L68.3489619,53.7763963 C66.7226687,57.5390367 63.2522251,60.6915224 55.7741375,64.8553196 L54.8573918,65.3599333 C53.9644456,65.8536598 53.4819944,66 53.0710437,66 C52.6837014,66 52.2713476,65.881871 51.5061603,65.4690792 L51.3073231,65.3596403 C43.4610114,60.9894447 39.6427794,57.4954202 37.8279083,53.3657165 L37.7192797,53.1120704 C36.2681025,49.6335866 35.9496833,46.2678652 36.0186277,36.3753904 L36.0771584,29.4982124 L36.0785598,29.1914329 C38.4276787,28.5008518 40.8289589,27.8736855 43.2742679,27.3177087 Z" id="path-14"></path>
        <filter x="-1.5%" y="-1.3%" width="102.9%" height="102.5%" filterUnits="objectBoundingBox" id="filter-15">
            <feOffset dx="0" dy="-1" in="SourceAlpha" result="shadowOffsetInner1"></feOffset>
            <feComposite in="shadowOffsetInner1" in2="SourceAlpha" operator="arithmetic" k2="-1" k3="1" result="shadowInnerInner1"></feComposite>
            <feColorMatrix values="0 0 0 0 0.458741425   0 0 0 0 0.883677015   0 0 0 0 1  0 0 0 0.279025418 0" type="matrix" in="shadowInnerInner1"></feColorMatrix>
        </filter>
        <linearGradient x1="40.2129633%" y1="100%" x2="64.4975252%" y2="0%" id="linearGradient-16">
            <stop stop-color="#22C2EA" offset="0%"></stop>
            <stop stop-color="#51ECA1" offset="100%"></stop>
        </linearGradient>
        <path d="M53,36 C55.209139,36 57,37.790861 57,40 L57,42 L59,42 C60.1045695,42 61,42.8954305 61,44 L61,51 C61,52.1045695 60.1045695,53 59,53 L47,53 C45.8954305,53 45,52.1045695 45,51 L45,44 C45,42.8954305 45.8954305,42 47,42 L49,42 L49,40 C49,37.790861 50.790861,36 53,36 Z M53,38 C51.8954305,38 51,38.8954305 51,40 L51,42 L55,42 L55,40 C55,38.8954305 54.1045695,38 53,38 Z" id="path-17"></path>
        <filter x="-3.1%" y="-2.9%" width="106.2%" height="111.8%" filterUnits="objectBoundingBox" id="filter-18">
            <feOffset dx="0" dy="1" in="SourceAlpha" result="shadowOffsetOuter1"></feOffset>
            <feColorMatrix values="0 0 0 0 1   0 0 0 0 1   0 0 0 0 1  0 0 0 0.6 0" type="matrix" in="shadowOffsetOuter1"></feColorMatrix>
        </filter>
        <filter x="-3.1%" y="-2.9%" width="106.2%" height="111.8%" filterUnits="objectBoundingBox" id="filter-19">
            <feOffset dx="0" dy="1" in="SourceAlpha" result="shadowOffsetInner1"></feOffset>
            <feComposite in="shadowOffsetInner1" in2="SourceAlpha" operator="arithmetic" k2="-1" k3="1" result="shadowInnerInner1"></feComposite>
            <feColorMatrix values="0 0 0 0 0.0941176471   0 0 0 0 0.635294118   0 0 0 0 0.694117647  0 0 0 0.635706335 0" type="matrix" in="shadowInnerInner1"></feColorMatrix>
        </filter>
        <circle id="path-20" cx="53" cy="47" r="2"></circle>
        <filter x="-12.5%" y="-12.5%" width="125.0%" height="150.0%" filterUnits="objectBoundingBox" id="filter-21">
            <feOffset dx="0" dy="1" in="SourceAlpha" result="shadowOffsetOuter1"></feOffset>
            <feColorMatrix values="0 0 0 0 0.152941176   0 0 0 0 0.721568627   0 0 0 0 0.705882353  0 0 0 1 0" type="matrix" in="shadowOffsetOuter1"></feColorMatrix>
        </filter>
        <filter x="-12.5%" y="-12.5%" width="125.0%" height="150.0%" filterUnits="objectBoundingBox" id="filter-22">
            <feOffset dx="0" dy="1" in="SourceAlpha" result="shadowOffsetInner1"></feOffset>
            <feComposite in="shadowOffsetInner1" in2="SourceAlpha" operator="arithmetic" k2="-1" k3="1" result="shadowInnerInner1"></feComposite>
            <feColorMatrix values="0 0 0 0 1   0 0 0 0 1   0 0 0 0 1  0 0 0 0.266034747 0" type="matrix" in="shadowInnerInner1"></feColorMatrix>
        </filter>
    </defs>
    <g id="ICON/登录安全" stroke="none" stroke-width="1" fill="none" fill-rule="evenodd">
        <rect id="矩形" fill="#FF6969" opacity="0" x="0" y="0" width="96" height="96"></rect>
        <g id="编组" transform="translate(11.000000, 13.000000)">
            <g id="矩形">
                <use fill="black" fill-opacity="1" filter="url(#filter-4)" xlink:href="#path-3"></use>
                <rect stroke="url(#linearGradient-2)" stroke-width="2" stroke-linejoin="square" fill="url(#linearGradient-1)" fill-rule="evenodd" x="1" y="1" width="62" height="49" rx="3.2"></rect>
            </g>
            <g id="形状" opacity="0.935128348" fill-rule="nonzero">
                <use fill="black" fill-opacity="1" filter="url(#filter-7)" xlink:href="#path-6"></use>
                <use fill="url(#linearGradient-5)" xlink:href="#path-6"></use>
                <use fill="black" fill-opacity="1" filter="url(#filter-8)" xlink:href="#path-6"></use>
                <use stroke-opacity="0.344931436" stroke="#38B2F8" stroke-width="1" xlink:href="#path-6"></use>
            </g>
            <g id="路径" fill-rule="nonzero">
                <use fill="black" fill-opacity="1" filter="url(#filter-12)" xlink:href="#path-11"></use>
                <use stroke="url(#linearGradient-10)" stroke-width="0.769565217" fill="url(#linearGradient-9)" xlink:href="#path-11"></use>
                <path stroke-opacity="0.332285634" stroke="#4AB7E6" stroke-width="1" d="M52.9734551,21.5006421 C60.8682736,22.3467831 66.5476337,23.479562 72.8977529,25.4103511 C73.333171,25.535029 73.7014904,25.7967063 73.9613574,26.1410641 C74.2227885,26.4874947 74.3744154,26.9176092 74.3739589,27.375198 C74.373959,29.3805468 74.3975774,31.2581918 74.4197122,33.0187416 C74.4280431,33.681357 74.4361653,34.327413 74.4427244,34.9556199 C74.5853862,45.0347623 74.6435658,51.3613836 72.0236413,56.5348096 C69.7127168,61.0980695 65.3261825,64.7845604 57.0118523,69.3106562 C55.486851,70.1540305 54.2901259,70.5 53.0710437,70.5 C51.8260647,70.5 50.6582075,70.1544763 49.1082736,69.2857282 C41.6119753,65.1104968 37.2953271,61.4689284 34.8073595,57.3077045 C32.0242983,52.6529248 31.5213369,47.3355052 31.5007056,39.8290533 L31.5007056,39.8290533 L31.5004341,38.8720739 C31.5033015,37.419049 31.519958,35.8848506 31.5376208,34.2595267 C31.5612106,31.8585613 31.5823268,29.7107932 31.5823413,27.3713962 C31.5857607,26.9216987 31.733728,26.498932 31.9875978,26.1551391 C32.241931,25.8107187 32.6025161,25.545558 33.0317422,25.4112742 C35.9060744,24.5192949 38.9945997,23.6759064 42.2744039,22.9302001 C45.5181265,22.1773754 49.1260508,21.6958208 52.9734551,21.5006421 Z"></path>
            </g>
            <g id="路径" fill-rule="nonzero">
                <use fill="url(#linearGradient-13)" xlink:href="#path-14"></use>
                <use fill="black" fill-opacity="1" filter="url(#filter-15)" xlink:href="#path-14"></use>
            </g>
            <g id="形状结合" fill-rule="nonzero">
                <use fill="black" fill-opacity="1" filter="url(#filter-18)" xlink:href="#path-17"></use>
                <use fill="url(#linearGradient-16)" xlink:href="#path-17"></use>
                <use fill="black" fill-opacity="1" filter="url(#filter-19)" xlink:href="#path-17"></use>
            </g>
            <g id="椭圆形">
                <use fill="black" fill-opacity="1" filter="url(#filter-21)" xlink:href="#path-20"></use>
                <use fill="#FFFFFF" fill-rule="evenodd" xlink:href="#path-20"></use>
                <use fill="black" fill-opacity="1" filter="url(#filter-22)" xlink:href="#path-20"></use>
            </g>
        </g>
    </g>
</svg>