<?xml version="1.0" encoding="UTF-8"?>
<svg width="96px" height="96px" viewBox="0 0 96 96" version="1.1" xmlns="http://www.w3.org/2000/svg" xmlns:xlink="http://www.w3.org/1999/xlink">
    <title>ICON/USB管控</title>
    <defs>
        <filter x="-58.1%" y="-29.1%" width="216.2%" height="158.1%" filterUnits="objectBoundingBox" id="filter-1">
            <feOffset dx="0" dy="3" in="SourceAlpha" result="shadowOffsetOuter1"></feOffset>
            <feGaussianBlur stdDeviation="4" in="shadowOffsetOuter1" result="shadowBlurOuter1"></feGaussianBlur>
            <feColorMatrix values="0 0 0 0 0   0 0 0 0 0.431623932   0 0 0 0 1  0 0 0 0.256695941 0" type="matrix" in="shadowBlurOuter1" result="shadowMatrixOuter1"></feColorMatrix>
            <feMerge>
                <feMergeNode in="shadowMatrixOuter1"></feMergeNode>
                <feMergeNode in="SourceGraphic"></feMergeNode>
            </feMerge>
        </filter>
        <path d="M7,0 L30,0 C31.1045695,-2.02906125e-16 32,0.8954305 32,2 L32,29 L32,29 L5,29 L5,2 C5,0.8954305 5.8954305,2.02906125e-16 7,0 Z" id="path-2"></path>
        <filter x="-3.7%" y="-3.4%" width="107.4%" height="106.9%" filterUnits="objectBoundingBox" id="filter-3">
            <feGaussianBlur stdDeviation="1" in="SourceAlpha" result="shadowBlurInner1"></feGaussianBlur>
            <feOffset dx="0" dy="0" in="shadowBlurInner1" result="shadowOffsetInner1"></feOffset>
            <feComposite in="shadowOffsetInner1" in2="SourceAlpha" operator="arithmetic" k2="-1" k3="1" result="shadowInnerInner1"></feComposite>
            <feColorMatrix values="0 0 0 0 0   0 0 0 0 0.291496586   0 0 0 0 0.55101566  0 0 0 0.5 0" type="matrix" in="shadowInnerInner1"></feColorMatrix>
        </filter>
        <linearGradient x1="50.0005263%" y1="0.348205128%" x2="50.0005263%" y2="103.831213%" id="linearGradient-4">
            <stop stop-color="#47A1FF" offset="0%"></stop>
            <stop stop-color="#428FFF" offset="100%"></stop>
        </linearGradient>
        <path d="M0,19 L37,19 L37,66 C37,70.418278 33.418278,74 29,74 L8,74 C3.581722,74 5.41083001e-16,70.418278 0,66 L0,19 L0,19 Z" id="path-5"></path>
        <filter x="-1.4%" y="-0.9%" width="102.7%" height="101.8%" filterUnits="objectBoundingBox" id="filter-6">
            <feOffset dx="0" dy="-1" in="SourceAlpha" result="shadowOffsetInner1"></feOffset>
            <feComposite in="shadowOffsetInner1" in2="SourceAlpha" operator="arithmetic" k2="-1" k3="1" result="shadowInnerInner1"></feComposite>
            <feColorMatrix values="0 0 0 0 0   0 0 0 0 0.246390141   0 0 0 0 0.788508761  0 0 0 0.361203494 0" type="matrix" in="shadowInnerInner1"></feColorMatrix>
        </filter>
        <path d="M3,15 L34,15 C35.6568542,15 37,16.3431458 37,18 L37,20 L37,20 L0,20 L0,18 C-2.02906125e-16,16.3431458 1.34314575,15 3,15 Z" id="path-7"></path>
        <filter x="-1.4%" y="-10.0%" width="102.7%" height="120.0%" filterUnits="objectBoundingBox" id="filter-8">
            <feOffset dx="0" dy="1" in="SourceAlpha" result="shadowOffsetInner1"></feOffset>
            <feComposite in="shadowOffsetInner1" in2="SourceAlpha" operator="arithmetic" k2="-1" k3="1" result="shadowInnerInner1"></feComposite>
            <feColorMatrix values="0 0 0 0 1   0 0 0 0 1   0 0 0 0 1  0 0 0 0.427399749 0" type="matrix" in="shadowInnerInner1"></feColorMatrix>
        </filter>
        <filter x="-13.2%" y="-8.2%" width="126.3%" height="116.4%" filterUnits="objectBoundingBox" id="filter-9">
            <feOffset dx="0" dy="1" in="SourceAlpha" result="shadowOffsetOuter1"></feOffset>
            <feColorMatrix values="0 0 0 0 0.0862745098   0 0 0 0 0.360784314   0 0 0 0 0.854901961  0 0 0 0.46338915 0" type="matrix" in="shadowOffsetOuter1" result="shadowMatrixOuter1"></feColorMatrix>
            <feMerge>
                <feMergeNode in="shadowMatrixOuter1"></feMergeNode>
                <feMergeNode in="SourceGraphic"></feMergeNode>
            </feMerge>
        </filter>
        <filter x="-56.6%" y="-56.6%" width="213.2%" height="213.2%" filterUnits="objectBoundingBox" id="filter-10">
            <feOffset dx="0" dy="3" in="SourceAlpha" result="shadowOffsetOuter1"></feOffset>
            <feGaussianBlur stdDeviation="4" in="shadowOffsetOuter1" result="shadowBlurOuter1"></feGaussianBlur>
            <feColorMatrix values="0 0 0 0 0   0 0 0 0 0.360266374   0 0 0 0 0.834676549  0 0 0 0.299845662 0" type="matrix" in="shadowBlurOuter1" result="shadowMatrixOuter1"></feColorMatrix>
            <feMerge>
                <feMergeNode in="shadowMatrixOuter1"></feMergeNode>
                <feMergeNode in="SourceGraphic"></feMergeNode>
            </feMerge>
        </filter>
        <linearGradient x1="50%" y1="0%" x2="50%" y2="98.6697635%" id="linearGradient-11">
            <stop stop-color="#94A8BA" offset="0%"></stop>
            <stop stop-color="#324F73" offset="100%"></stop>
        </linearGradient>
        <linearGradient x1="50%" y1="0%" x2="50%" y2="100%" id="linearGradient-12">
            <stop stop-color="#E9F3FF" offset="0%"></stop>
            <stop stop-color="#DCEAFA" offset="100%"></stop>
        </linearGradient>
        <path d="M19,10 C23.9626735,10 28,14.0373265 28,19 C28,23.9626735 23.9626735,28 19,28 C14.0373265,28 10,23.9626735 10,19 C10,14.0373265 14.0370978,10 19,10 Z M18.9997741,13 C15.6918363,13 13,15.6915539 13,18.9997741 C13,22.3081637 15.6916104,25 19,25 L19,25 L19.2243994,24.9958536 C22.4296149,24.8773379 25,22.233249 25,18.9997741 C25,15.6918363 22.3084461,13 18.9997741,13 Z" id="path-13"></path>
        <filter x="-47.2%" y="-36.1%" width="194.4%" height="194.4%" filterUnits="objectBoundingBox" id="filter-14">
            <feOffset dx="0" dy="2" in="SourceAlpha" result="shadowOffsetOuter1"></feOffset>
            <feGaussianBlur stdDeviation="2.5" in="shadowOffsetOuter1" result="shadowBlurOuter1"></feGaussianBlur>
            <feColorMatrix values="0 0 0 0 0.00836701514   0 0 0 0 0.205718003   0 0 0 0 0.356648321  0 0 0 0.654301997 0" type="matrix" in="shadowBlurOuter1"></feColorMatrix>
        </filter>
    </defs>
    <g id="ICON/USB管控" stroke="none" stroke-width="1" fill="none" fill-rule="evenodd">
        <rect id="矩形" fill="#FF6969" opacity="0" x="0" y="0" width="96" height="96"></rect>
        <g id="编组-3" transform="translate(8.978530, 5.707060)">
            <g id="编组-2" filter="url(#filter-1)" transform="translate(34.521470, 41.292940) rotate(-330.000000) translate(-34.521470, -41.292940) translate(16.021470, 4.292940)">
                <g id="USB">
                    <g id="矩形">
                        <use fill="#DEDEDE" fill-rule="evenodd" xlink:href="#path-2"></use>
                        <use fill="black" fill-opacity="1" filter="url(#filter-3)" xlink:href="#path-2"></use>
                    </g>
                    <rect id="矩形" fill="#5D7895" x="9" y="7" width="5" height="3"></rect>
                    <rect id="矩形备份" fill="#5D7895" x="24" y="7" width="5" height="3"></rect>
                    <polyline id="路径-6" stroke="#5D7895" points="18.0230609 0 18.0230609 3.96769102 21 3.96769102 21 7.03485318 18.0230609 7.03485318 18.0230609 10.9868489 21 10.9868489 21 13.9062128 18.0230609 13.9062128 18.0230609 17.5"></polyline>
                    <polyline id="路径-6备份" stroke-opacity="0.349022072" stroke="#FFFFFF" points="17 0 17 3.96769102 19.9769391 3.96769102 19.9769391 7.03485318 17 7.03485318 17 10.9868489 19.9769391 10.9868489 19.9769391 13.9062128 17 13.9062128 17 17.5"></polyline>
                    <g id="矩形">
                        <use fill="url(#linearGradient-4)" fill-rule="evenodd" xlink:href="#path-5"></use>
                        <use fill="black" fill-opacity="1" filter="url(#filter-6)" xlink:href="#path-5"></use>
                    </g>
                    <g id="矩形">
                        <use fill="#3381F0" fill-rule="evenodd" xlink:href="#path-7"></use>
                        <use fill="black" fill-opacity="1" filter="url(#filter-8)" xlink:href="#path-7"></use>
                    </g>
                </g>
                <g id="编组" filter="url(#filter-9)" transform="translate(9.000000, 27.471750)" fill-rule="nonzero">
                    <path d="M10,25.5282502 L9,25.5282502 L9,21.6836658 C9,21.3718185 7.78571414,20.7389631 5.43082465,19.8818704 L5.43082465,19.8818704 L4.15470865,19.4172656 C2.61379031,18.8131138 1.84059757,17.9894569 2,16.9881831 L2,16.9881831 L2,14.213696 L3,14.213696 L2.99420426,17.0640919 C2.91444235,17.5833819 3.42183174,18.0907713 4.71055734,18.558215 L4.71055734,18.558215 L6.07348822,19.0522316 C7.42039579,19.5483404 8.37201123,19.9432626 9.00074545,20.3263331 L9,3.52825025 L10,3.52825025 L9.99787256,16.9679309 C10.1838127,16.8509965 10.3975652,16.7274375 10.6406336,16.5945133 L10.6406336,16.5945133 L11.0725529,16.3641434 L11.5344346,16.1267116 L12.228668,15.7821127 L14.740265,14.5818993 C15.5089031,14.1938805 15.9131247,13.6989555 16,13.1495321 L16,13.1495321 L16,11.0600651 L17,11.0600651 L16.9945992,13.2228236 C16.8510858,14.1913076 16.2323666,14.9488613 15.1909128,15.4746012 L15.1909128,15.4746012 L12.6665927,16.6811244 L11.9868828,17.0185023 C11.3280798,17.3527446 10.813356,17.6388676 10.450772,17.8777794 C10.2608895,18.0028957 10.1190511,18.111261 10.0319184,18.1962813 L10.0319184,18.1962813 L10.0160903,18.2109681 C10.0078352,18.2175415 10.0038126,18.2170885 10.0018538,18.2060667 L10.0018538,18.2060667 L10,18.1377518 L10,25.5282502 Z" id="形状结合" fill="#FFFFFF" opacity="0.733629232"></path>
                    <path d="M9.5,24.0282502 C10.3284271,24.0282502 11.0784271,24.3640367 11.6213203,24.9069299 C12.1642136,25.4498231 12.5,26.1998231 12.5,27.0282502 C12.5,27.8566774 12.1642136,28.6066774 11.6213203,29.1495706 C11.0784271,29.6924638 10.3284271,30.0282502 9.5,30.0282502 C8.67157288,30.0282502 7.92157288,29.6924638 7.37867966,29.1495706 C6.83578644,28.6066774 6.5,27.8566774 6.5,27.0282502 C6.5,26.1998231 6.83578644,25.4498231 7.37867966,24.9069299 C7.92157288,24.3640367 8.67157288,24.0282502 9.5,24.0282502 Z M2.5,10.0282502 C3.05228475,10.0282502 3.55228475,10.2521079 3.91421356,10.6140367 C4.27614237,10.9759655 4.5,11.4759655 4.5,12.0282502 C4.5,12.580535 4.27614237,13.080535 3.91421356,13.4424638 C3.55228475,13.8043926 3.05228475,14.0282502 2.5,14.0282502 C1.94771525,14.0282502 1.44771525,13.8043926 1.08578644,13.4424638 C0.723857625,13.080535 0.5,12.580535 0.5,12.0282502 C0.5,11.4759655 0.723857625,10.9759655 1.08578644,10.6140367 C1.44771525,10.2521079 1.94771525,10.0282502 2.5,10.0282502 Z M18,7.02825025 L18.5,10.5282502 L15,11.0282502 L14.5,7.52825025 L18,7.02825025 Z M9.32499408,0.802961172 L11.5678994,3.96179269 L7.46137441,4.02694537 L9.32499408,0.802961172 Z" id="形状结合" stroke-opacity="0.834983132" stroke="#FFFFFF" fill="#B3DBFF"></path>
                </g>
            </g>
            <g id="设-置" filter="url(#filter-10)" transform="translate(35.021470, 44.292940)" fill-rule="nonzero">
                <path d="M34.6696562,19 C34.6696562,17.3576133 35.6668594,15.9137617 37.2099043,15.3213848 L38,15.0182012 L37.7910742,14.1983437 C37.3361365,12.4098954 36.6268041,10.6960202 35.6847832,9.10916406 L35.2529785,8.38170898 L34.4801387,8.72552734 C33.9704399,8.95294264 33.4184452,9.07010715 32.8603145,9.0693457 C31.8176444,9.07222709 30.8173304,8.6570347 30.0831602,7.9166543 C28.9217852,6.7552793 28.6059473,5.02965625 29.2785918,3.52067773 L29.623709,2.74635352 L28.8941387,2.31454883 C27.3056317,1.37370061 25.590866,0.664601718 23.8018047,0.208740234 L22.9835801,0 L22.6795801,0.788128906 C22.083418,2.33247266 20.639084,3.33034375 19.0004824,3.33034375 C17.3584297,3.33034375 15.9144668,2.33314062 15.3220527,0.789613281 L15.0187207,0 L14.1987891,0.208740234 C12.410347,0.663626553 10.6965156,1.37304165 9.10979492,2.31525391 L8.38237695,2.74705859 L8.72600977,3.51989844 C9.39768945,5.03017578 9.08185156,6.75613281 7.92158984,7.91669141 C7.18036719,8.65813672 6.19236719,9.0665625 5.13987109,9.0665625 C4.58310493,9.06752367 4.03238977,8.9511038 3.52364648,8.72489648 L2.752625,8.38308203 L2.32063477,9.1077168 C1.37544166,10.6940723 0.664415698,12.4086739 0.20959375,14.1983809 L0.00129882813,15.0167539 L0.789279297,15.3207539 C2.33295508,15.916916 3.3305293,17.3610645 3.3305293,18.9998516 C3.3305293,20.6419043 2.33328906,22.0858672 0.789761719,22.6786152 L0,22.9820957 L0.208740234,23.8018418 C0.663734862,25.5901892 1.37301163,27.3039883 2.31488281,28.8908359 L2.7466875,29.6184023 L3.51986133,29.2744355 C4.0294932,29.0469755 4.58144926,28.9298085 5.13953711,28.9306172 C6.18906445,28.9306172 7.17491211,29.3395625 7.91632031,30.0827891 C9.07806641,31.2443496 9.39371875,32.9699727 8.72122266,34.4789512 L8.37610547,35.2534238 L9.10567578,35.6852656 C10.6940546,36.6261859 12.4087806,37.3352192 14.1978242,37.7908516 L15.0162344,37.9992949 L15.3202344,37.2113516 C15.9170645,35.6673047 17.3610645,34.6696191 19,34.6696191 C20.6422383,34.6696191 22.0860527,35.6668223 22.6787637,37.2102012 L22.9820957,37.9999629 L23.8019902,37.7910371 C25.5903603,37.3360225 27.3042093,36.6268135 28.8911699,35.6850801 L29.6187734,35.2529414 L29.2746582,34.4797676 C28.6028301,32.9696387 28.918334,31.2438301 30.079041,30.0829746 C30.8203008,29.3417148 31.8079668,28.933252 32.8602773,28.933252 C33.4215937,28.933252 33.9657656,29.0484023 34.476873,29.2747695 L35.248043,29.616918 L35.6798477,28.8921348 C36.6249792,27.3057967 37.3360135,25.5912551 37.7909258,23.8016191 L37.999332,22.9817246 L37.2097187,22.6782441 C35.6665254,22.0860156 34.6696562,20.6418672 34.6696562,18.9999629 L34.6696562,19 Z" id="路径" fill-opacity="0.1" fill="#003868"></path>
                <path d="M34.4278516,27.2415469 C33.917268,27.1006313 33.3899493,27.0295265 32.8602773,27.0301719 C31.2991602,27.0301719 29.8336367,27.6363535 28.7329355,28.7373887 C27.218873,30.2519336 26.6728828,32.4121816 27.2392832,34.4316367 C26.2328757,34.9691167 25.1761266,35.4064831 24.0842441,35.7374414 C23.0569824,33.9081719 21.1426953,32.7665391 19,32.7665391 C16.861127,32.7665391 14.9469883,33.9081719 13.9168691,35.7374414 C12.8226189,35.4061287 11.7635743,34.9680876 10.755002,34.4296328 C11.3049258,32.4260234 10.7521816,30.226625 9.26342773,28.738168 C8.16324609,27.6350547 6.69887305,27.0273887 5.13987109,27.0273887 C4.60375195,27.0273887 4.07817187,27.0986387 3.56888281,27.2400625 C3.03100365,26.2335438 2.59351447,25.1765197 2.26274414,24.0842813 C4.09197656,23.0569453 5.23364648,21.1424727 5.23364648,18.9998516 C5.23364648,16.8609785 4.09197656,14.9466543 2.26274414,13.9167207 C2.59362484,12.8232761 3.03224393,11.7653818 3.57214844,10.7586016 C4.08267821,10.8994545 4.60993375,10.9705092 5.13953711,10.9698281 C6.70035742,10.9698281 8.16621484,10.3636465 9.26691602,9.26261133 C10.781127,7.74821484 11.3274512,5.5879668 10.7609395,3.56836328 C11.7671408,3.0306384 12.8238283,2.59326152 13.9157187,2.26255859 C14.9430547,4.09182813 16.8573789,5.23379492 18.9998516,5.23379492 C21.1388359,5.23379492 23.0526777,4.09216211 24.0829453,2.26255859 C25.1771733,2.59396695 26.236221,3.03200416 27.2448496,3.57036719 C26.6945918,5.57397656 27.2476328,7.773375 28.7360527,9.26212891 C29.8365684,10.3652793 31.301127,10.9727969 32.8599805,10.9727969 C33.3908652,10.9734471 33.9193719,10.9018876 34.4309687,10.7600859 C34.9687446,11.766718 35.4062292,12.8237933 35.7371074,13.9160527 C33.9078379,14.9428691 32.766502,16.8571934 32.766502,18.9998516 C32.766502,21.1424727 33.9079863,23.0569453 35.7371074,24.0842813 C35.4059683,25.1773178 34.9673453,26.2348557 34.427666,27.2413984 L34.4278516,27.2415469 Z" id="路径" fill="url(#linearGradient-11)"></path>
                <g id="形状结合" opacity="0.96085176">
                    <use fill="black" fill-opacity="1" filter="url(#filter-14)" xlink:href="#path-13"></use>
                    <use fill="url(#linearGradient-12)" xlink:href="#path-13"></use>
                </g>
            </g>
        </g>
    </g>
</svg>