<?xml version="1.0" encoding="UTF-8"?>
<svg width="96px" height="96px" viewBox="0 0 96 96" version="1.1" xmlns="http://www.w3.org/2000/svg" xmlns:xlink="http://www.w3.org/1999/xlink">
    <title>ICON/Data Usage</title>
    <defs>
        <circle id="path-1" cx="39" cy="39" r="39"></circle>
        <filter x="-7.7%" y="-7.7%" width="115.4%" height="115.4%" filterUnits="objectBoundingBox" id="filter-3">
            <feOffset dx="0" dy="0" in="SourceAlpha" result="shadowOffsetOuter1"></feOffset>
            <feGaussianBlur stdDeviation="2" in="shadowOffsetOuter1" result="shadowBlurOuter1"></feGaussianBlur>
            <feColorMatrix values="0 0 0 0 1   0 0 0 0 1   0 0 0 0 1  0 0 0 1 0" type="matrix" in="shadowBlurOuter1"></feColorMatrix>
        </filter>
        <filter x="-45.5%" y="-22.7%" width="190.9%" height="145.5%" filterUnits="objectBoundingBox" id="filter-4">
            <feOffset dx="0" dy="0" in="SourceAlpha" result="shadowOffsetOuter1"></feOffset>
            <feGaussianBlur stdDeviation="5" in="shadowOffsetOuter1" result="shadowBlurOuter1"></feGaussianBlur>
            <feColorMatrix values="0 0 0 0 0   0 0 0 0 0.516396689   0 0 0 0 1  0 0 0 0.142233042 0" type="matrix" in="shadowBlurOuter1" result="shadowMatrixOuter1"></feColorMatrix>
            <feMerge>
                <feMergeNode in="shadowMatrixOuter1"></feMergeNode>
                <feMergeNode in="SourceGraphic"></feMergeNode>
            </feMerge>
        </filter>
        <linearGradient x1="50%" y1="0.866980965%" x2="50%" y2="55.6997945%" id="linearGradient-5">
            <stop stop-color="#ECF8FF" offset="0%"></stop>
            <stop stop-color="#BDE0FF" offset="100%"></stop>
        </linearGradient>
        <path d="M9.94594595,0 L34.0540541,0 C36.2631931,1.11220812e-15 38.0540541,1.790861 38.0540541,4 L38.0540541,34.4864865 L38.0540541,34.4864865 L5.94594595,34.4864865 L5.94594595,4 C5.94594595,1.790861 7.73680695,-3.82769592e-17 9.94594595,0 Z" id="path-6"></path>
        <filter x="-4.7%" y="-4.3%" width="109.3%" height="108.7%" filterUnits="objectBoundingBox" id="filter-7">
            <feGaussianBlur stdDeviation="1.5" in="SourceAlpha" result="shadowBlurInner1"></feGaussianBlur>
            <feOffset dx="0" dy="0" in="shadowBlurInner1" result="shadowOffsetInner1"></feOffset>
            <feComposite in="shadowOffsetInner1" in2="SourceAlpha" operator="arithmetic" k2="-1" k3="1" result="shadowInnerInner1"></feComposite>
            <feColorMatrix values="0 0 0 0 0.311380526   0 0 0 0 0.675671853   0 0 0 0 1  0 0 0 0.5 0" type="matrix" in="shadowInnerInner1"></feColorMatrix>
        </filter>
        <linearGradient x1="50.0005263%" y1="0.348205128%" x2="50.0005263%" y2="103.831213%" id="linearGradient-8">
            <stop stop-color="#47A1FF" offset="0%"></stop>
            <stop stop-color="#428FFF" offset="100%"></stop>
        </linearGradient>
        <rect id="path-9" x="10.7027027" y="8.32432432" width="5.94594595" height="3.56756757"></rect>
        <filter x="-16.8%" y="-28.0%" width="133.6%" height="156.1%" filterUnits="objectBoundingBox" id="filter-10">
            <feGaussianBlur stdDeviation="1" in="SourceAlpha" result="shadowBlurInner1"></feGaussianBlur>
            <feOffset dx="0" dy="0" in="shadowBlurInner1" result="shadowOffsetInner1"></feOffset>
            <feComposite in="shadowOffsetInner1" in2="SourceAlpha" operator="arithmetic" k2="-1" k3="1" result="shadowInnerInner1"></feComposite>
            <feColorMatrix values="0 0 0 0 0   0 0 0 0 0.316800033   0 0 0 0 0.85117329  0 0 0 1 0" type="matrix" in="shadowInnerInner1"></feColorMatrix>
        </filter>
        <rect id="path-11" x="28.5405405" y="8.32432432" width="5.94594595" height="3.56756757"></rect>
        <filter x="-16.8%" y="-28.0%" width="133.6%" height="156.1%" filterUnits="objectBoundingBox" id="filter-12">
            <feGaussianBlur stdDeviation="1" in="SourceAlpha" result="shadowBlurInner1"></feGaussianBlur>
            <feOffset dx="0" dy="0" in="shadowBlurInner1" result="shadowOffsetInner1"></feOffset>
            <feComposite in="shadowOffsetInner1" in2="SourceAlpha" operator="arithmetic" k2="-1" k3="1" result="shadowInnerInner1"></feComposite>
            <feColorMatrix values="0 0 0 0 0   0 0 0 0 0.316800033   0 0 0 0 0.85117329  0 0 0 1 0" type="matrix" in="shadowInnerInner1"></feColorMatrix>
        </filter>
        <linearGradient x1="50.0005263%" y1="0.348205128%" x2="50.0005263%" y2="103.831213%" id="linearGradient-13">
            <stop stop-color="#47A1FF" offset="0%"></stop>
            <stop stop-color="#428FFF" offset="100%"></stop>
        </linearGradient>
        <path d="M5,0 L39,0 C41.7614237,-5.07265313e-16 44,2.23857625 44,5 L44,62 C44,66.418278 40.418278,70 36,70 L8,70 C3.581722,70 5.41083001e-16,66.418278 0,62 L0,5 C-3.38176876e-16,2.23857625 2.23857625,-3.04544837e-15 5,0 Z" id="path-14"></path>
        <filter x="-6.8%" y="-4.3%" width="113.6%" height="108.6%" filterUnits="objectBoundingBox" id="filter-16">
            <feGaussianBlur stdDeviation="2.5" in="SourceAlpha" result="shadowBlurInner1"></feGaussianBlur>
            <feOffset dx="0" dy="1" in="shadowBlurInner1" result="shadowOffsetInner1"></feOffset>
            <feComposite in="shadowOffsetInner1" in2="SourceAlpha" operator="arithmetic" k2="-1" k3="1" result="shadowInnerInner1"></feComposite>
            <feColorMatrix values="0 0 0 0 1   0 0 0 0 1   0 0 0 0 1  0 0 0 1 0" type="matrix" in="shadowInnerInner1"></feColorMatrix>
        </filter>
    </defs>
    <g id="V4.5" stroke="none" stroke-width="1" fill="none" fill-rule="evenodd">
        <g id="安全工具_USB安全4" transform="translate(-218.000000, -179.000000)">
            <g id="编组-8" transform="translate(198.000000, 99.000000)">
                <g id="ICON/Data-Usage" transform="translate(20.000000, 80.000000)">
                    <rect id="矩形" fill="#FF6969" opacity="0" x="0" y="0" width="96" height="96"></rect>
                    <g id="编组-3" transform="translate(9.000000, 9.000000)">
                        <mask id="mask-2" fill="white">
                            <use xlink:href="#path-1"></use>
                        </mask>
                        <g id="蒙版">
                            <use fill="black" fill-opacity="1" filter="url(#filter-3)" xlink:href="#path-1"></use>
                            <use fill="#FFFFFF" fill-rule="evenodd" xlink:href="#path-1"></use>
                        </g>
                        <g id="编组-2" filter="url(#filter-4)" mask="url(#mask-2)">
                            <g transform="translate(39.000000, 62.000000) rotate(-360.000000) translate(-39.000000, -62.000000) translate(17.000000, 18.000000)">
                                <g id="USB">
                                    <g id="矩形">
                                        <use fill="url(#linearGradient-5)" fill-rule="evenodd" xlink:href="#path-6"></use>
                                        <use fill="black" fill-opacity="1" filter="url(#filter-7)" xlink:href="#path-6"></use>
                                    </g>
                                    <g id="矩形">
                                        <use fill="url(#linearGradient-8)" fill-rule="evenodd" xlink:href="#path-9"></use>
                                        <use fill="black" fill-opacity="1" filter="url(#filter-10)" xlink:href="#path-9"></use>
                                    </g>
                                    <g id="矩形备份">
                                        <use fill="url(#linearGradient-8)" fill-rule="evenodd" xlink:href="#path-11"></use>
                                        <use fill="black" fill-opacity="1" filter="url(#filter-12)" xlink:href="#path-11"></use>
                                    </g>
                                    <polyline id="路径-6" stroke="#007CFF" opacity="0.200000003" points="21.4328292 0 21.4328292 4.53450402 24.972973 4.53450402 24.972973 8.03983221 21.4328292 8.03983221 21.4328292 12.5563987 24.972973 12.5563987 24.972973 15.8928147 21.4328292 15.8928147 21.4328292 20"></polyline>
                                    <g id="矩形" transform="translate(0.000000, 18.000000)">
                                        <mask id="mask-15" fill="white">
                                            <use xlink:href="#path-14"></use>
                                        </mask>
                                        <g id="蒙版">
                                            <use fill="url(#linearGradient-13)" fill-rule="evenodd" xlink:href="#path-14"></use>
                                            <use fill="black" fill-opacity="1" filter="url(#filter-16)" xlink:href="#path-14"></use>
                                        </g>
                                        <path d="M3,-0.162162162 L41,-0.162162162 C42.6568542,-0.162162162 44,1.18098359 44,2.83783784 L44,6.83783784 L44,6.83783784 L0,6.83783784 L0,2.83783784 C-2.02906125e-16,1.18098359 1.34314575,-0.162162162 3,-0.162162162 Z" fill="#0063FF" opacity="0.5" mask="url(#mask-15)"></path>
                                    </g>
                                </g>
                                <g id="编组" transform="translate(10.702703, 32.579858)">
                                    <path d="M11.8918919,30.4471692 L10.7027027,30.4471692 L10.7027027,25.8752309 C10.7027027,25.5043855 9.25868709,24.7518006 6.45827796,23.7325553 L6.45827796,23.7325553 L4.94073461,23.1800523 C3.10829118,22.4616015 2.18881873,21.4821176 2.37837838,20.2914136 L2.37837838,20.2914136 L2.37837838,16.9920236 L3.56756757,16.9920236 L3.56067534,20.3816835 C3.46582333,20.9992176 4.06920531,21.6025996 5.60174387,22.1584786 L5.60174387,22.1584786 L7.22252654,22.7459578 C8.82383776,23.3357716 9.95531643,23.8053179 10.7030056,24.26075 L10.7027027,4.285007 L11.8918919,4.285007 L11.8907057,20.2664851 C12.1115096,20.1276776 12.3652574,19.9810177 12.6537265,19.8232658 L12.6537265,19.8232658 L13.1673603,19.5493124 L13.716625,19.266961 L14.5421998,18.8571678 L17.5289638,17.429887 C18.4430199,16.9684592 18.9237159,16.3798998 19.027027,15.7265314 L19.027027,15.7265314 L19.027027,13.2417599 L20.2162162,13.2417599 L20.2097936,15.8136888 C20.039129,16.9653995 19.3033549,17.8662742 18.0648693,18.4914784 L18.0648693,18.4914784 L15.0629751,19.9262627 L14.2546714,20.3274689 C13.4712301,20.7249462 12.8591261,21.0652006 12.427945,21.349312 C12.2021388,21.4980989 12.0334661,21.6269657 11.929849,21.728071 L11.929849,21.728071 L11.9110263,21.7455364 C11.9012094,21.7533533 11.8964258,21.7528147 11.8940964,21.7397076 L11.8940964,21.7397076 L11.8918919,21.6584683 L11.8918919,30.4471692 Z" id="形状结合" fill="#FFFFFF" fill-rule="nonzero" opacity="0.5"></path>
                                    <path d="M11.2972973,28.0687908 C13.595996,28.0687908 15.4594595,29.9322543 15.4594595,32.230953 C15.4594595,34.5296516 13.595996,36.3931151 11.2972973,36.3931151 C8.99859861,36.3931151 7.13513514,34.5296516 7.13513514,32.230953 C7.13513514,29.9322543 8.99859861,28.0687908 11.2972973,28.0687908 Z M2.97297297,11.4201421 C4.61490061,11.4201421 5.94594595,12.7511875 5.94594595,14.3931151 C5.94594595,16.0350427 4.61490061,17.3660881 2.97297297,17.3660881 C1.33104534,17.3660881 0,16.0350427 0,14.3931151 C0,12.7511875 1.33104534,11.4201421 2.97297297,11.4201421 Z M21.5945946,7.85257457 C22.1468793,7.85257457 22.5945946,8.30028982 22.5945946,8.85257457 L22.5945946,12.7985205 C22.5945946,13.3508053 22.1468793,13.7985205 21.5945946,13.7985205 L17.6486486,13.7985205 C17.0963639,13.7985205 16.6486486,13.3508053 16.6486486,12.7985205 L16.6486486,8.85257457 C16.6486486,8.30028982 17.0963639,7.85257457 17.6486486,7.85257457 L21.5945946,7.85257457 Z M11.5545452,0.0713291012 C11.62492,0.113553982 11.6838189,0.172452884 11.7260438,0.242827686 L14.4105161,4.71694832 C14.5525902,4.95373845 14.4758077,5.26086858 14.2390176,5.40294266 C14.1613099,5.44956728 14.0723916,5.47419619 13.9817697,5.47419619 L8.61282492,5.47419619 C8.33668254,5.47419619 8.11282492,5.25033857 8.11282492,4.97419619 C8.11282492,4.88357422 8.13745384,4.79465602 8.18407846,4.71694832 L10.8685508,0.242827686 C11.0106249,0.00603755333 11.317755,-0.0707449786 11.5545452,0.0713291012 Z" id="形状结合" fill="#D7ECFF" fill-rule="nonzero"></path>
                                </g>
                            </g>
                        </g>
                    </g>
                </g>
            </g>
        </g>
    </g>
</svg>