<?xml version="1.0" encoding="UTF-8"?>
<svg width="14px" height="14px" viewBox="0 0 14 14" version="1.1" xmlns="http://www.w3.org/2000/svg" xmlns:xlink="http://www.w3.org/1999/xlink">
    <title>编组 4</title>
    <g id="页面-1" stroke="none" stroke-width="1" fill="none" fill-rule="evenodd">
        <g id="防火墙" transform="translate(-300.000000, -177.000000)" fill="#626E88" fill-rule="nonzero">
            <g id="编组-7" transform="translate(65.000000, 45.000000)">
                <g id="编组-3" transform="translate(220.000000, 115.000000)">
                    <g id="形状结合" transform="translate(14.000000, 16.000000)">
                        <path d="M8,1 C9.1045695,1 10,1.8954305 10,3 C10,3.11305511 9.9906195,3.22391929 9.97259436,3.33185666 C12.3167263,4.14694659 14,6.37689848 14,9 C14,9.4122689 13.9584199,9.81482624 13.8792245,10.2037072 C14.5428154,10.528251 15,11.2107349 15,12 C15,13.1045695 14.1045695,14 13,14 C12.562224,14 12.1572994,13.8593468 11.8279514,13.6207657 C10.7897625,14.4818127 9.45539583,15 8,15 C6.54460417,15 5.21023747,14.4818127 4.17133359,13.6198717 C3.84270059,13.8593468 3.43777595,14 3,14 C1.8954305,14 1,13.1045695 1,12 C1,11.2107349 1.45718461,10.528251 2.12117466,10.2029274 C2.04158011,9.81482624 2,9.4122689 2,9 C2,6.37689848 3.68327368,4.14694659 6.02857058,3.3313948 C6.0093805,3.22391929 6,3.11305511 6,3 C6,1.8954305 6.8954305,1 8,1 Z M9.56076095,4.24841535 L9.50943372,4.3121469 C9.14276174,4.73359093 8.60249245,5 8,5 C7.36848841,5 6.80533833,4.70730963 6.43880449,4.25018363 C4.44212989,4.90401568 3,6.7835941 3,9 C3,9.3439433 3.03472798,9.67977545 3.10086873,10.0041812 C4.15889849,10.0553776 5,10.9294639 5,12 C5,12.3036562 4.93232783,12.5915067 4.81124207,12.849293 C5.67629645,13.5686037 6.78776923,14 8,14 C9.21223077,14 10.3237035,13.5686037 11.1892722,12.8509573 C11.0676722,12.5915067 11,12.3036562 11,12 C11,10.8954305 11.8954305,10 13,10 L12.8991313,10.0041812 C12.965272,9.67977545 13,9.3439433 13,9 C13,6.7835941 11.5578701,4.90401568 9.56076095,4.24841535 Z"></path>
                    </g>
                </g>
            </g>
        </g>
    </g>
</svg>