<?xml version="1.0" encoding="UTF-8"?>
<svg width="96px" height="96px" viewBox="0 0 96 96" version="1.1" xmlns="http://www.w3.org/2000/svg" xmlns:xlink="http://www.w3.org/1999/xlink">
    <title>ICON/系统安全等级</title>
    <defs>
        <linearGradient x1="50%" y1="-2.81825888%" x2="50%" y2="100%" id="linearGradient-1">
            <stop stop-color="#58D9FF" offset="0%"></stop>
            <stop stop-color="#3A82F9" offset="100%"></stop>
        </linearGradient>
        <path d="M61.1665461,18.903932 C61.1314215,15.5415526 61.0661902,11.8666282 61.0661901,7.83883049 C61.0671966,6.82926271 60.3982433,5.94281181 59.4303892,5.67117959 C50.2127009,2.86835664 41.9684648,1.22497478 30.9744774,0 L30.6232318,0 C25.0584979,0.282298718 19.8399917,0.977963397 15.148354,2.06682987 C10.3814494,3.15065529 5.89554119,4.37563013 1.7207363,5.67117959 C0.774735105,5.96714009 0.127628648,6.8434577 0.120059927,7.83883049 C0.120059927,11.4784675 0.0849353664,14.8055596 0.0548285415,17.8856402 C-0.231185678,44.2049546 -0.336559359,54.0400404 25.3043698,68.3213309 C27.4268968,69.5110183 29.0225554,70 30.7286055,70 C32.3995309,70 34.0353319,69.5110183 36.1227344,68.3566182 C61.6532721,54.4584474 61.5529162,46.2012099 61.1665461,18.903932 Z" id="path-2"></path>
        <filter x="-24.5%" y="-17.1%" width="148.9%" height="142.9%" filterUnits="objectBoundingBox" id="filter-4">
            <feMorphology radius="3" operator="dilate" in="SourceAlpha" result="shadowSpreadOuter1"></feMorphology>
            <feOffset dx="0" dy="3" in="shadowSpreadOuter1" result="shadowOffsetOuter1"></feOffset>
            <feGaussianBlur stdDeviation="3.5" in="shadowOffsetOuter1" result="shadowBlurOuter1"></feGaussianBlur>
            <feComposite in="shadowBlurOuter1" in2="SourceAlpha" operator="out" result="shadowBlurOuter1"></feComposite>
            <feColorMatrix values="0 0 0 0 0   0 0 0 0 0.571047764   0 0 0 0 0.9703922  0 0 0 0.231013371 0" type="matrix" in="shadowBlurOuter1"></feColorMatrix>
        </filter>
        <linearGradient x1="50%" y1="0%" x2="50%" y2="100%" id="linearGradient-5">
            <stop stop-color="#5793FF" offset="0%"></stop>
            <stop stop-color="#004CB5" offset="100%"></stop>
        </linearGradient>
        <rect id="path-6" x="29" y="17" width="4" height="30" rx="2"></rect>
        <filter x="-225.0%" y="-20.0%" width="550.0%" height="160.0%" filterUnits="objectBoundingBox" id="filter-7">
            <feOffset dx="0" dy="3" in="SourceAlpha" result="shadowOffsetOuter1"></feOffset>
            <feGaussianBlur stdDeviation="2.5" in="shadowOffsetOuter1" result="shadowBlurOuter1"></feGaussianBlur>
            <feColorMatrix values="0 0 0 0 0.101960784   0 0 0 0 0.49427485   0 0 0 0 0.768627451  0 0 0 0.332468313 0" type="matrix" in="shadowBlurOuter1"></feColorMatrix>
        </filter>
        <rect id="path-8" x="41" y="17" width="4" height="30" rx="2"></rect>
        <filter x="-225.0%" y="-20.0%" width="550.0%" height="160.0%" filterUnits="objectBoundingBox" id="filter-9">
            <feOffset dx="0" dy="3" in="SourceAlpha" result="shadowOffsetOuter1"></feOffset>
            <feGaussianBlur stdDeviation="2.5" in="shadowOffsetOuter1" result="shadowBlurOuter1"></feGaussianBlur>
            <feColorMatrix values="0 0 0 0 0.101960784   0 0 0 0 0.49427485   0 0 0 0 0.768627451  0 0 0 0.332468313 0" type="matrix" in="shadowBlurOuter1"></feColorMatrix>
        </filter>
        <rect id="path-10" x="17" y="17" width="4" height="30" rx="2"></rect>
        <filter x="-225.0%" y="-20.0%" width="550.0%" height="160.0%" filterUnits="objectBoundingBox" id="filter-11">
            <feOffset dx="0" dy="3" in="SourceAlpha" result="shadowOffsetOuter1"></feOffset>
            <feGaussianBlur stdDeviation="2.5" in="shadowOffsetOuter1" result="shadowBlurOuter1"></feGaussianBlur>
            <feColorMatrix values="0 0 0 0 0.101960784   0 0 0 0 0.49427485   0 0 0 0 0.768627451  0 0 0 0.332468313 0" type="matrix" in="shadowBlurOuter1"></feColorMatrix>
        </filter>
        <filter x="-25.0%" y="-41.7%" width="150.0%" height="183.3%" filterUnits="objectBoundingBox" id="filter-12">
            <feOffset dx="0" dy="1" in="SourceAlpha" result="shadowOffsetOuter1"></feOffset>
            <feColorMatrix values="0 0 0 0 0.103672182   0 0 0 0 0.428452917   0 0 0 0 0.858681941  0 0 0 0.347055288 0" type="matrix" in="shadowOffsetOuter1" result="shadowMatrixOuter1"></feColorMatrix>
            <feMerge>
                <feMergeNode in="shadowMatrixOuter1"></feMergeNode>
                <feMergeNode in="SourceGraphic"></feMergeNode>
            </feMerge>
        </filter>
        <linearGradient x1="50%" y1="0%" x2="50%" y2="100%" id="linearGradient-13">
            <stop stop-color="#69EEFF" offset="0%"></stop>
            <stop stop-color="#ADB4FF" offset="100%"></stop>
        </linearGradient>
        <linearGradient x1="50%" y1="29.7102266%" x2="50%" y2="100%" id="linearGradient-14">
            <stop stop-color="#FFFFFF" offset="0%"></stop>
            <stop stop-color="#DCDCDC" offset="100%"></stop>
        </linearGradient>
        <path d="M3,1 L7,1 C8.1045695,1 9,1.8954305 9,3 C9,4.1045695 8.1045695,5 7,5 L3,5 C1.8954305,5 1,4.1045695 1,3 C1,1.8954305 1.8954305,1 3,1 Z" id="path-15"></path>
        <filter x="-6.2%" y="-12.5%" width="112.5%" height="125.0%" filterUnits="objectBoundingBox" id="filter-16">
            <feOffset dx="0" dy="1" in="SourceAlpha" result="shadowOffsetInner1"></feOffset>
            <feComposite in="shadowOffsetInner1" in2="SourceAlpha" operator="arithmetic" k2="-1" k3="1" result="shadowInnerInner1"></feComposite>
            <feColorMatrix values="0 0 0 0 1   0 0 0 0 1   0 0 0 0 1  0 0 0 0.5 0" type="matrix" in="shadowInnerInner1"></feColorMatrix>
        </filter>
        <filter x="-25.0%" y="-41.7%" width="150.0%" height="183.3%" filterUnits="objectBoundingBox" id="filter-17">
            <feOffset dx="0" dy="1" in="SourceAlpha" result="shadowOffsetOuter1"></feOffset>
            <feColorMatrix values="0 0 0 0 0.103672182   0 0 0 0 0.428452917   0 0 0 0 0.858681941  0 0 0 0.347055288 0" type="matrix" in="shadowOffsetOuter1" result="shadowMatrixOuter1"></feColorMatrix>
            <feMerge>
                <feMergeNode in="shadowMatrixOuter1"></feMergeNode>
                <feMergeNode in="SourceGraphic"></feMergeNode>
            </feMerge>
        </filter>
        <path d="M3,1 L7,1 C8.1045695,1 9,1.8954305 9,3 C9,4.1045695 8.1045695,5 7,5 L3,5 C1.8954305,5 1,4.1045695 1,3 C1,1.8954305 1.8954305,1 3,1 Z" id="path-18"></path>
        <filter x="-6.2%" y="-12.5%" width="112.5%" height="125.0%" filterUnits="objectBoundingBox" id="filter-19">
            <feOffset dx="0" dy="1" in="SourceAlpha" result="shadowOffsetInner1"></feOffset>
            <feComposite in="shadowOffsetInner1" in2="SourceAlpha" operator="arithmetic" k2="-1" k3="1" result="shadowInnerInner1"></feComposite>
            <feColorMatrix values="0 0 0 0 1   0 0 0 0 1   0 0 0 0 1  0 0 0 0.5 0" type="matrix" in="shadowInnerInner1"></feColorMatrix>
        </filter>
        <filter x="-25.0%" y="-41.7%" width="150.0%" height="183.3%" filterUnits="objectBoundingBox" id="filter-20">
            <feOffset dx="0" dy="1" in="SourceAlpha" result="shadowOffsetOuter1"></feOffset>
            <feColorMatrix values="0 0 0 0 0.103672182   0 0 0 0 0.428452917   0 0 0 0 0.858681941  0 0 0 0.347055288 0" type="matrix" in="shadowOffsetOuter1" result="shadowMatrixOuter1"></feColorMatrix>
            <feMerge>
                <feMergeNode in="shadowMatrixOuter1"></feMergeNode>
                <feMergeNode in="SourceGraphic"></feMergeNode>
            </feMerge>
        </filter>
        <path d="M3,1 L7,1 C8.1045695,1 9,1.8954305 9,3 C9,4.1045695 8.1045695,5 7,5 L3,5 C1.8954305,5 1,4.1045695 1,3 C1,1.8954305 1.8954305,1 3,1 Z" id="path-21"></path>
        <filter x="-6.2%" y="-12.5%" width="112.5%" height="125.0%" filterUnits="objectBoundingBox" id="filter-22">
            <feOffset dx="0" dy="1" in="SourceAlpha" result="shadowOffsetInner1"></feOffset>
            <feComposite in="shadowOffsetInner1" in2="SourceAlpha" operator="arithmetic" k2="-1" k3="1" result="shadowInnerInner1"></feComposite>
            <feColorMatrix values="0 0 0 0 1   0 0 0 0 1   0 0 0 0 1  0 0 0 0.5 0" type="matrix" in="shadowInnerInner1"></feColorMatrix>
        </filter>
    </defs>
    <g id="高保真（远古版本）" stroke="none" stroke-width="1" fill="none" fill-rule="evenodd">
        <g id="ICON/系统安全等级">
            <rect id="矩形" fill="#FF6969" opacity="0" x="0" y="0" width="96" height="96"></rect>
            <g id="矩形备份-30" transform="translate(17.000000, 13.000000)">
                <mask id="mask-3" fill="white">
                    <use xlink:href="#path-2"></use>
                </mask>
                <g id="蒙版">
                    <use fill="black" fill-opacity="1" filter="url(#filter-4)" xlink:href="#path-2"></use>
                    <path stroke="#FFFFFF" stroke-width="3" d="M30.5472346,-1.49807357 C42.238158,-0.25462397 50.5609031,1.40642332 59.8668749,4.23587044 C60.6615405,4.46629028 61.3339054,4.94524391 61.8089391,5.57472586 C62.2886758,6.21043988 62.5670274,6.99969252 62.5661901,7.83883046 C62.5661902,10.7598541 62.6006108,13.4948621 62.6328528,16.0593076 C62.6450089,17.0261817 62.6568602,17.9688928 62.6663958,18.8827029 C62.8769544,33.7587923 62.9197451,43.0809778 59.0554895,50.7115183 C55.6329996,57.4697276 49.1693494,62.9622314 36.8486661,69.669258 C34.4803449,70.9790151 32.6194451,71.5 30.7286055,71.5 C28.7972068,71.5 26.9804744,70.9803525 24.574487,69.6317778 C12.3693782,62.8338687 5.88565067,56.9648734 2.40395279,50.0102189 C-0.876579593,43.4573902 -1.47120934,35.8928505 -1.4940441,25.4911041 L-1.49407328,24.1759766 C-1.49010869,22.1807236 -1.46913876,20.0830509 -1.44509928,17.8709253 L-1.44509928,17.8709253 L-1.43931291,17.2811041 C-1.41071741,14.3715349 -1.37994007,11.2420241 -1.37994007,7.83883049 C-1.37363895,7.00445792 -1.10275831,6.23081889 -0.638177385,5.60167906 C-0.172206152,4.97065646 0.4885134,4.48499081 1.27616241,4.23857565 C5.48579381,2.93221863 10.0091241,1.69702639 14.8092374,0.605665983 C19.580674,-0.50172076 24.8877404,-1.21096767 30.5472346,-1.49807357 Z" fill="url(#linearGradient-1)" fill-rule="evenodd"></path>
                </g>
                <g id="矩形备份-2" mask="url(#mask-3)">
                    <use fill="black" fill-opacity="1" filter="url(#filter-7)" xlink:href="#path-6"></use>
                    <use fill="url(#linearGradient-5)" fill-rule="evenodd" xlink:href="#path-6"></use>
                </g>
                <g id="矩形备份-6" mask="url(#mask-3)">
                    <use fill="black" fill-opacity="1" filter="url(#filter-9)" xlink:href="#path-8"></use>
                    <use fill="url(#linearGradient-5)" fill-rule="evenodd" xlink:href="#path-8"></use>
                </g>
                <g id="矩形备份-4" mask="url(#mask-3)">
                    <use fill="black" fill-opacity="1" filter="url(#filter-11)" xlink:href="#path-10"></use>
                    <use fill="url(#linearGradient-5)" fill-rule="evenodd" xlink:href="#path-10"></use>
                </g>
                <g id="编组" filter="url(#filter-12)" mask="url(#mask-3)" fill-rule="nonzero">
                    <g transform="translate(38.000000, 35.000000)" id="矩形备份-7">
                        <path d="M7,0 L3,0 C1.34314575,0 0,1.34314575 0,3 C0,4.65685425 1.34314575,6 3,6 L7,6 C8.65685425,6 10,4.65685425 10,3 C10,1.34314575 8.65685425,0 7,0 Z M7,1 C8.1045695,1 9,1.8954305 9,3 C9,4.1045695 8.1045695,5 7,5 L3,5 C1.8954305,5 1,4.1045695 1,3 C1,1.8954305 1.8954305,1 3,1 L7,1 Z" fill="url(#linearGradient-13)"></path>
                        <g fill="none">
                            <use fill="url(#linearGradient-14)" xlink:href="#path-15"></use>
                            <use fill="black" fill-opacity="1" filter="url(#filter-16)" xlink:href="#path-15"></use>
                        </g>
                    </g>
                </g>
                <g id="编组备份" filter="url(#filter-17)" mask="url(#mask-3)" fill-rule="nonzero">
                    <g transform="translate(26.000000, 29.000000)" id="矩形备份-7">
                        <path d="M7,0 L3,0 C1.34314575,0 0,1.34314575 0,3 C0,4.65685425 1.34314575,6 3,6 L7,6 C8.65685425,6 10,4.65685425 10,3 C10,1.34314575 8.65685425,0 7,0 Z M7,1 C8.1045695,1 9,1.8954305 9,3 C9,4.1045695 8.1045695,5 7,5 L3,5 C1.8954305,5 1,4.1045695 1,3 C1,1.8954305 1.8954305,1 3,1 L7,1 Z" fill="url(#linearGradient-13)"></path>
                        <g fill="none">
                            <use fill="url(#linearGradient-14)" xlink:href="#path-18"></use>
                            <use fill="black" fill-opacity="1" filter="url(#filter-19)" xlink:href="#path-18"></use>
                        </g>
                    </g>
                </g>
                <g id="编组备份-2" filter="url(#filter-20)" mask="url(#mask-3)" fill-rule="nonzero">
                    <g transform="translate(14.000000, 24.000000)" id="矩形备份-7">
                        <path d="M7,0 L3,0 C1.34314575,0 0,1.34314575 0,3 C0,4.65685425 1.34314575,6 3,6 L7,6 C8.65685425,6 10,4.65685425 10,3 C10,1.34314575 8.65685425,0 7,0 Z M7,1 C8.1045695,1 9,1.8954305 9,3 C9,4.1045695 8.1045695,5 7,5 L3,5 C1.8954305,5 1,4.1045695 1,3 C1,1.8954305 1.8954305,1 3,1 L7,1 Z" fill="url(#linearGradient-13)"></path>
                        <g fill="none">
                            <use fill="url(#linearGradient-14)" xlink:href="#path-21"></use>
                            <use fill="black" fill-opacity="1" filter="url(#filter-22)" xlink:href="#path-21"></use>
                        </g>
                    </g>
                </g>
            </g>
        </g>
    </g>
</svg>