<?xml version="1.0" encoding="UTF-8"?>
<svg width="56px" height="56px" viewBox="0 0 56 56" version="1.1" xmlns="http://www.w3.org/2000/svg" xmlns:xlink="http://www.w3.org/1999/xlink">
    <title>ICON/Security_tools/Internet_Control</title>
    <defs>
        <radialGradient cx="37.9383115%" cy="33.6449721%" fx="37.9383115%" fy="33.6449721%" r="69.755632%" id="radialGradient-1">
            <stop stop-color="#5DEFFF" offset="0%"></stop>
            <stop stop-color="#0069F5" offset="79.1034327%"></stop>
            <stop stop-color="#004FD7" offset="100%"></stop>
        </radialGradient>
        <linearGradient x1="50%" y1="100%" x2="18.4577486%" y2="4.58416779%" id="linearGradient-2">
            <stop stop-color="#7F9AFF" offset="0%"></stop>
            <stop stop-color="#65E8FF" offset="100%"></stop>
        </linearGradient>
        <path d="M23.001,-6.42693155e-13 L23.3803471,0.00308134287 C35.9074685,0.206189525 46,10.4244762 46,23 C46,35.5751937 35.9079983,45.7932741 23.3813334,45.9969026 L23.0010002,46 L23.001469,45.9650195 L22.9984625,45.9653393 L22.9989998,46 C22.8582379,45.999994 22.7177713,45.9987235 22.5776108,45.9961993 L22.5584265,45.99628 L22.343515,46 C22.3432966,45.9908052 22.3429638,45.9907958 22.3426309,45.9907865 L22.3428571,46 C22.1119154,46 21.8825194,45.987131 21.6548486,45.9617418 C9.8104669,45.2780699 0.369396174,35.6326643 0.0105809331,23.7044027 L3.28135975e-05,23.6576871 C0.00308639294,23.4391059 1.12134882e-12,23.2199134 1.12134882e-12,23 C1.12134882e-12,10.7491345 9.57814691,0.735365049 21.6544267,0.0387056837 C21.8825194,0.0128689753 22.1119154,-1.28932947e-12 22.3428571,-1.28928704e-12 C22.3429414,0.009204812 22.3432743,0.00919547589 22.3436072,0.00918614685 C22.4216771,-1.2893014e-12 22.4996621,0.00147411455 22.5774631,0.00440882578 L22.6196529,0.00308134287 L22.999,-6.42693155e-13 L22.9994647,0.0347671177 L23.001469,0.0349804638 L23.001,-6.42693155e-13 Z M12.2282716,28.8510407 L12.2668542,29.1224138 C13.5366124,37.7789894 17.4053153,44.1236364 21.7571163,44.6502793 C21.9514354,44.6616735 22.14645,44.6700955 22.3421156,44.6759256 L22.3420118,29.5698417 C18.6957107,29.5433643 15.2610248,29.2865447 12.2282716,28.8510407 Z M32.4343276,29.0205253 L32.2987536,29.0371064 C29.5563132,29.3678602 26.5312537,29.5572743 23.3490978,29.5712783 L23.657,29.569 L23.6575871,44.5070992 C27.7242591,43.3990457 31.2502493,37.2419418 32.4343276,29.0205253 Z M44.5433818,25.4981433 L44.5126931,25.5200306 C42.5401505,26.9484871 38.694507,28.1285018 33.7874817,28.8397511 C32.8332796,35.9292425 30.1826391,41.6845595 26.7296596,44.3668996 C36.1240838,42.7379057 43.4461415,35.0643917 44.5433818,25.4981433 Z M1.46199945,25.5467755 L1.47697884,25.6701491 C2.56628033,34.5429025 9.01537062,41.7584216 17.4867243,43.9786637 C14.2326378,41.1261082 11.7614413,35.4953141 10.8726441,28.6408986 C6.60658332,27.9226944 3.26884852,26.8371004 1.46199945,25.5467755 Z M22.342,18.403 L22.9687507,18.4 C19.0467358,18.4 15.2883731,18.6719733 11.9963486,19.1690532 C11.8866978,20.4112071 11.8285714,21.6911603 11.8285714,23 C11.8285714,24.5442703 11.9094897,26.0483272 12.0622838,27.4971871 C15.3379779,27.9894329 19.0726145,28.257829 22.9687507,28.257829 L22.342,28.255 L22.342,18.403 Z M23.6579484,18.4028042 L23.6579484,28.2550247 C26.8120556,28.2293333 29.8476033,28.0277107 32.6046933,27.6749147 C32.7701143,26.1715359 32.8578007,24.6075564 32.8578007,23 C32.8578007,21.6289851 32.7940207,20.2896665 32.6727885,18.9925293 C29.8978362,18.6334674 26.8381572,18.4287082 23.6579484,18.4028042 Z M34.0107016,19.1795988 L34.0206106,19.3093227 C34.1202856,20.5109331 34.1720864,21.7437039 34.1720864,23 C34.1720864,24.5353521 34.0947172,26.0355669 33.9471461,27.486708 C35.7511101,27.2152651 37.4144415,26.8751782 38.8879287,26.4752316 L38.8879287,26.4752316 L39.375736,26.338427 L39.7018431,26.2418196 C42.4855925,25.3986211 44.1618741,24.4061617 44.5613597,23.6578587 L44.5613597,23.6578587 L44.6759376,23.6574809 C44.6788022,23.5612805 44.6810403,23.4649228 44.682648,23.3684116 L44.6857143,23.0006861 C44.2837627,22.246383 42.4598899,21.2437616 39.6355838,20.3960305 L39.375736,20.319402 L38.8879287,20.1825973 C37.4316099,19.7873108 35.7898452,19.4504971 34.0107016,19.1795988 Z M10.6593817,19.3870821 L10.5748929,19.4028642 C9.31091222,19.628613 8.12927616,19.889535 7.04957272,20.1825973 L6.51632638,20.3326074 C3.56361029,21.1933632 1.7263084,22.2274835 1.31428571,23.0006861 C1.31428571,23.2203474 1.31755211,23.4392461 1.32403897,23.6573363 L1.37619103,23.6579511 C1.81331261,24.4765592 3.77832695,25.5873221 7.04957272,26.4752316 C8.17016333,26.7793919 9.4005529,27.0489316 10.7188427,27.2804599 C10.5844905,25.8931919 10.5142857,24.4625377 10.5142857,23 C10.5142857,21.7707882 10.5638771,20.5640984 10.6593817,19.3870821 Z M26.7294743,1.63376645 L26.8073123,1.6940474 C30.3297217,4.48708987 33.0042835,10.4867798 33.8718386,17.8280856 C38.8081406,18.5504057 42.6668191,19.7455752 44.6118747,21.1899106 C43.7946572,11.3055407 36.3484099,3.30103221 26.7294743,1.63376645 Z M17.486612,2.02152274 L17.4558256,2.02945902 C8.73659243,4.32850427 2.16649822,11.921288 1.39105453,21.1622987 C3.16912157,19.8579094 6.50738357,18.7586503 10.791013,18.0315779 C11.6016564,10.8735821 14.1268726,4.96662239 17.486612,2.02152274 Z M22.342,1.324 L22.2841794,1.32587701 C22.1079483,1.33159246 21.9322488,1.33941062 21.7571051,1.34930721 C17.2488549,1.89529804 13.2590537,8.68474958 12.1400759,17.820079 C15.1945838,17.3762754 18.6604277,17.1147213 22.342001,17.0879873 L22.342,1.324 Z M23.6575871,1.49290082 L23.657,17.088 L23.8026364,17.0897409 C26.9040951,17.1197389 29.8511859,17.316394 32.524969,17.6477111 C31.4393983,9.0926808 27.8335611,2.63073597 23.6575871,1.49290082 Z" id="path-3"></path>
        <filter x="-23.9%" y="-15.2%" width="147.8%" height="147.8%" filterUnits="objectBoundingBox" id="filter-4">
            <feOffset dx="0" dy="4" in="SourceAlpha" result="shadowOffsetOuter1"></feOffset>
            <feGaussianBlur stdDeviation="3" in="shadowOffsetOuter1" result="shadowBlurOuter1"></feGaussianBlur>
            <feColorMatrix values="0 0 0 0 0.371136623   0 0 0 0 0.807877841   0 0 0 0 1  0 0 0 0.4 0" type="matrix" in="shadowBlurOuter1"></feColorMatrix>
        </filter>
    </defs>
    <g id="ICON/Security_tools/Internet_Control" stroke="none" stroke-width="1" fill="none" fill-rule="evenodd">
        <rect id="矩形" fill="#FF6969" opacity="0" x="0" y="0" width="56" height="56"></rect>
        <g id="编组-10" transform="translate(5.000000, 5.000000)">
            <circle id="椭圆形" fill="url(#radialGradient-1)" opacity="0.900000036" cx="23" cy="23" r="17.7428571"></circle>
            <g id="形状结合" fill-rule="nonzero">
                <use fill="black" fill-opacity="1" filter="url(#filter-4)" xlink:href="#path-3"></use>
                <use fill="url(#linearGradient-2)" xlink:href="#path-3"></use>
            </g>
        </g>
    </g>
</svg>