<?xml version="1.0" encoding="UTF-8"?>
<svg width="96px" height="96px" viewBox="0 0 96 96" version="1.1" xmlns="http://www.w3.org/2000/svg" xmlns:xlink="http://www.w3.org/1999/xlink">
    <title>illustrations/No_related_tool_is_found</title>
    <defs>
        <linearGradient x1="50%" y1="0%" x2="50%" y2="65.6583234%" id="linearGradient-1">
            <stop stop-color="#EBF1FF" offset="0%"></stop>
            <stop stop-color="#E0E9FF" offset="100%"></stop>
        </linearGradient>
        <linearGradient x1="50%" y1="28.7059054%" x2="50%" y2="100%" id="linearGradient-2">
            <stop stop-color="#FFFFFF" offset="0%"></stop>
            <stop stop-color="#EBF2FF" offset="100%"></stop>
        </linearGradient>
        <rect id="path-3" x="0" y="8.25" width="71" height="55.5" rx="10"></rect>
        <filter x="-19.7%" y="-18.0%" width="139.4%" height="150.5%" filterUnits="objectBoundingBox" id="filter-5">
            <feOffset dx="0" dy="4" in="SourceAlpha" result="shadowOffsetOuter1"></feOffset>
            <feGaussianBlur stdDeviation="4" in="shadowOffsetOuter1" result="shadowBlurOuter1"></feGaussianBlur>
            <feColorMatrix values="0 0 0 0 0.923739996   0 0 0 0 0.981208673   0 0 0 0 1  0 0 0 0.373367843 0" type="matrix" in="shadowBlurOuter1"></feColorMatrix>
        </filter>
        <linearGradient x1="50.0005263%" y1="1.98297122%" x2="50.0005263%" y2="103.831213%" id="linearGradient-6">
            <stop stop-color="#EEF9FF" offset="0%"></stop>
            <stop stop-color="#CCD9FF" offset="100%"></stop>
        </linearGradient>
        <linearGradient x1="50.0005263%" y1="0.348205128%" x2="50.0005263%" y2="103.831213%" id="linearGradient-7">
            <stop stop-color="#F4FBFF" offset="0%"></stop>
            <stop stop-color="#BECFFF" offset="100%"></stop>
        </linearGradient>
        <linearGradient x1="50.0005263%" y1="1.98297122%" x2="50.0005263%" y2="103.831213%" id="linearGradient-8">
            <stop stop-color="#EEF9FF" offset="0%"></stop>
            <stop stop-color="#CCD9FF" offset="100%"></stop>
        </linearGradient>
        <linearGradient x1="50%" y1="28.7059054%" x2="50%" y2="100%" id="linearGradient-9">
            <stop stop-color="#FFFFFF" offset="0%"></stop>
            <stop stop-color="#EEF4FF" offset="100%"></stop>
        </linearGradient>
    </defs>
    <g id="illustrations/No_related_tool_is_found" stroke="none" stroke-width="1" fill="none" fill-rule="evenodd">
        <rect id="矩形" fill="#FF6969" opacity="0" x="0" y="0" width="96" height="96"></rect>
        <g id="编组-3" transform="translate(9.000000, 12.000000)">
            <rect id="矩形" stroke="url(#linearGradient-1)" stroke-width="5" x="22.75" y="2.5" width="25" height="9.25" rx="4.625"></rect>
            <mask id="mask-4" fill="white">
                <use xlink:href="#path-3"></use>
            </mask>
            <g id="蒙版">
                <use fill="black" fill-opacity="1" filter="url(#filter-5)" xlink:href="#path-3"></use>
                <use fill="url(#linearGradient-2)" fill-rule="evenodd" xlink:href="#path-3"></use>
            </g>
            <path d="M2,8.25 L69,8.25 C70.1045695,8.25 71,9.1454305 71,10.25 L71,31.5 L71,31.5 L0,31.5 L0,10.25 C-1.3527075e-16,9.1454305 0.8954305,8.25 2,8.25 Z" id="矩形" fill="url(#linearGradient-6)" mask="url(#mask-4)"></path>
            <rect id="矩形" stroke="#FFFFFF" stroke-width="3" fill="url(#linearGradient-7)" mask="url(#mask-4)" x="24.75" y="27" width="21" height="10.5" rx="3"></rect>
            <g id="编组-2" transform="translate(45.750000, 39.381672)">
                <path d="M15.75,0 L31.5,5.58158566 L30.5008141,14.1872094 C29.5419321,22.4457133 24.2921187,29.5518091 16.7469988,32.915331 L15.75,33.3326137 L14.7530011,32.915331 C7.53593004,29.6980492 2.41891245,23.05656 1.14842749,15.2576572 L0.999185715,14.1872094 L0,5.58158566 L15.75,0 Z" id="路径" fill="url(#linearGradient-8)"></path>
                <path d="M19.9068423,10.5129969 L19.7072677,10.7881806 L15.6829807,17.5285867 L11.7151179,10.796956 L11.5170367,10.5206953 C10.9334223,9.84472742 9.93252865,9.66126788 9.13594207,10.1308497 C8.33935554,10.6004315 8.01521058,11.5649915 8.32404042,12.4029426 L8.46983583,12.7100255 L14.0512837,22.1782503 L14.2536241,22.4607256 C14.9858035,23.3084897 16.3163494,23.3205511 17.0649861,22.4937133 L17.2913604,22.1870256 L22.9421394,12.7188008 L23.0895961,12.412512 C23.4029604,11.5762462 23.0840447,10.6099446 22.2900135,10.1360548 C21.4959822,9.66216496 20.4941093,9.84020028 19.9068423,10.5129969 Z" id="路径" fill="url(#linearGradient-9)"></path>
            </g>
        </g>
    </g>
</svg>