<?xml version="1.0" encoding="UTF-8"?>
<svg width="16px" height="16px" viewBox="0 0 16 16" version="1.1" xmlns="http://www.w3.org/2000/svg" xmlns:xlink="http://www.w3.org/1999/xlink">
    <title>ICon/System upgrade</title>
    <g id="ICon/System-upgrade" stroke="none" stroke-width="1" fill="none" fill-rule="evenodd">
        <rect id="矩形" fill="#FF6969" opacity="0" x="0" y="0" width="16" height="16"></rect>
        <path d="M13.5443695,11.122973 C13.6239143,11.4373266 13.5443695,11.7516801 13.3852799,11.9612491 L8.77033478,14.6856465 C8.29306613,15.1047845 7.73625271,15.1047845 7.25898406,14.6856465 L2.6440389,11.8564646 C2.40540458,11.7516801 2.3258598,11.4373266 2.40540458,11.122973 C2.48494935,10.8086195 2.72358368,10.703835 2.88267323,10.8086195 L7.49761838,13.6378013 C7.81579748,13.8473704 8.13397658,13.8473704 8.45215568,13.6378013 L13.0671008,10.8086195 C13.2261904,10.703835 13.4648247,10.8086195 13.5443695,11.122973 Z M13.5443733,7.59726236 C13.6239083,7.91148399 13.5443733,8.22570562 13.3853033,8.43518671 L8.77092529,11.1602161 C8.29371529,11.5791783 7.65743529,11.5791783 7.18022529,11.1602161 L2.56584725,8.33044616 C2.40677725,8.22570562 2.32724225,7.91148399 2.40677725,7.59726236 C2.48631225,7.28304073 2.72491725,7.17830018 2.88398725,7.28304073 L7.49836529,10.1128107 C7.81650529,10.3222918 8.13464529,10.3222918 8.45278529,10.1128107 L13.0671633,7.28304073 C13.2262333,7.17830018 13.4648383,7.28304073 13.5443733,7.59726236 Z M8.51056963,1.17445307 L12.7294258,3.56201491 C13.2100784,3.83402884 13.3792134,4.44418557 13.1071994,4.92483811 C13.0170929,5.08405757 12.8850346,5.2155073 12.7254007,5.3048774 L8.48907279,7.67655968 C8.186701,7.84584068 7.81824276,7.84651198 7.51525616,7.6783339 L3.24705038,5.30919067 C2.76416668,5.04115751 2.58999589,4.43241912 2.85802905,3.94953542 C2.9484492,3.78663611 3.08257966,3.65223628 3.24529724,3.5614895 L7.53097473,1.17138861 C7.83568323,1.0014542 8.20693029,1.00261557 8.51056963,1.17445307 Z" id="形状结合" fill-opacity="0.7" fill="#000000" fill-rule="nonzero"></path>
    </g>
</svg>