<?xml version="1.0" encoding="UTF-8"?>
<svg width="16px" height="16px" viewBox="0 0 16 16" version="1.1" xmlns="http://www.w3.org/2000/svg" xmlns:xlink="http://www.w3.org/1999/xlink">
    <title>ICon/Trojan virus</title>
    <g id="ICon/Trojan-virus" stroke="none" stroke-width="1" fill="none" fill-rule="evenodd">
        <rect id="矩形" fill="#FF6969" opacity="0" x="0" y="0" width="16" height="16"></rect>
        <g id="编组-27">
            <rect id="矩形" fill="#FF6969" opacity="0" x="0" y="0" width="16" height="16"></rect>
            <path d="M13.5424365,4.87513016 C13.6276154,4.7858098 13.6870337,4.67470898 13.7142857,4.55380476 L13.7142857,4.47026015 C13.6697322,4.14250824 12.8423099,3.42916584 11.9066863,3.0050163 C11.6975702,2.90619919 11.4692635,2.85570418 11.2383837,2.85717405 C10.5271972,2.92298851 9.88705535,3.31982807 9.50716174,3.93043347 C9.21426929,4.36996334 8.94445462,4.8247303 8.69883384,5.29285318 C8.60336204,5.45994239 8.52061981,5.63988462 8.42514801,5.80054733 C8.20455107,5.7335243 7.97418993,5.70526509 7.74411584,5.71700272 L7.47043001,5.71700272 C6.93263607,5.72793482 6.40495696,5.86663796 5.93015165,6.12187273 C5.9199054,6.12582847 5.90857396,6.12582847 5.89832771,6.12187273 C5.77739677,6.11544623 5.47825179,6.07046067 5.10909417,6.07046067 C4.20529446,6.07046067 2.88778363,6.23754987 2.48680207,7.04086339 C2.4377731,7.1341606 2.3952383,7.23079196 2.35950634,7.33005626 C2.20038667,7.75420579 2.32768241,7.97270707 2.46770771,8.09481072 C2.84323011,8.4804012 3.35241306,8.91740375 3.74066503,8.91740375 L3.81704247,8.91740375 C3.95860863,8.89899363 4.0798101,8.80598726 4.13528181,8.67319645 C4.269743,8.34409143 4.48962376,8.05769464 4.77176047,7.8441769 C4.34554908,8.8311133 4.12873714,9.89722662 4.13528181,10.9738864 C4.12870478,11.0035091 4.12870478,11.0342347 4.13528181,11.0638575 C3.8361117,10.9939252 3.54080025,10.9081194 3.25057647,10.8067971 C3.17718828,10.7798611 3.09951753,10.7667904 3.02144415,10.7682381 C2.86630217,10.7698863 2.71533636,10.8192018 2.58863866,10.9096213 C2.43294812,11.0145976 2.33788671,11.1897671 2.33404719,11.3787564 L2.33404719,11.7514938 C2.34771012,11.9991357 2.50129101,12.2167342 2.72866396,12.3106 C4.39960197,12.8961154 6.16037609,13.1768284 7.92869465,13.1396196 C9.71840923,13.1704605 11.4997144,12.8855586 13.1923732,12.297747 C13.4262097,12.2122965 13.5833147,11.9897048 13.58699,11.7386408 L13.58699,11.3659033 C13.5831505,11.176914 13.4880891,11.0017446 13.3323985,10.8967683 C13.2039227,10.8050977 13.0505456,10.7557207 12.8932282,10.7553851 C12.8152861,10.7556172 12.7378995,10.76864 12.6640959,10.7939441 C12.4285988,10.8774887 12.1931017,10.9417538 11.9512398,11.0060189 L11.9512398,10.9738864 C11.9335369,10.8439003 11.9229129,10.7130311 11.9194159,10.5818694 C11.8871094,9.41287344 11.5654559,8.27064563 10.9837922,7.25936466 C10.957189,7.21946399 10.9357964,7.17626388 10.9201444,7.1308345 C10.9201444,7.1308345 10.9201444,7.01515736 11.1429119,6.83521513 C11.3656795,6.65527289 11.3656794,6.64241988 11.4611512,6.62314036 C11.5658521,6.76077198 11.6554818,6.90944862 11.7284723,7.06656942 C11.8763158,7.33342763 12.1576399,7.49644887 12.4604227,7.49071895 C12.5566889,7.48922258 12.6525946,7.47846306 12.7468381,7.45858642 C13.1414549,7.35576228 13.5424365,7.03443688 13.5424365,6.68740544 C13.526383,6.47110088 13.4944717,6.2562954 13.4469647,6.04475463 C13.3691185,5.77581762 13.3368401,5.49553209 13.3514929,5.21573508 C13.3861086,5.08793842 13.4517358,4.9708728 13.5424365,4.87513016 L13.5424365,4.87513016 Z M8.16231239,11.4284403 C7.34387964,11.4290371 6.52622744,11.3852893 5.71428571,11.2974608 C6.16861437,10.4048468 7.15985432,9.79693837 8.29571984,9.71431691 C9.41917937,9.79157401 10.4025916,10.3884616 10.8571429,11.2689869 C9.96468222,11.3786507 9.06396021,11.4319465 8.16231239,11.4284403 L8.16231239,11.4284403 Z" id="形状" fill-opacity="0.7" fill="#000000" fill-rule="nonzero"></path>
        </g>
    </g>
</svg>