<?xml version="1.0" encoding="UTF-8"?>
<svg width="16px" height="16px" viewBox="0 0 16 16" version="1.1" xmlns="http://www.w3.org/2000/svg" xmlns:xlink="http://www.w3.org/1999/xlink">
    <title>ICon/Remote login</title>
    <g id="ICon/Remote-login" stroke="none" stroke-width="1" fill="none" fill-rule="evenodd">
        <rect id="矩形" fill="#FF6969" opacity="0" x="0" y="0" width="16" height="16"></rect>
        <path d="M12.5,2 C13.6045695,2 14.5,2.8954305 14.5,4 L14.5,7.25 L10,7.25 L10.0013914,7.93129479 C9.40862284,7.500132 8.60505544,7.24784168 7.74942958,7.25 C6.4954214,7.24803357 5.35380467,7.7919223 4.82324639,8.64410527 C4.58981023,9.01957171 4.94277696,9.4432898 5.47971967,9.4947879 L5.58944199,9.5 L9.91541713,9.5 L10,9.495 L10,11.75 L8.5,11.75 L8.499,13.25 L10,13.25 L10,14 L4.375,14 C4.16789322,14 4,13.8321068 4,13.625 C4,13.4178932 4.16789322,13.25 4.375,13.25 L6.999,13.25 L7,11.75 L3,11.75 C1.8954305,11.75 1,10.8545695 1,9.75 L1,4 C1,2.8954305 1.8954305,2 3,2 L12.5,2 Z M14.5,8 L13.1544102,9.34466991 L15.5418155,11.7311553 L14.4811553,12.7918155 L12.0937501,10.4053301 L10.75,11.75 L10.75,8 L14.5,8 Z M7.74800038,3.5 C7.35071152,3.49973493 6.96961103,3.65740555 6.68863842,3.93828437 C6.40766582,4.21916319 6.24986799,4.60021103 6.25,4.99749996 C6.24917127,5.82589448 6.9196071,6.4983443 7.74800038,6.5 C8.57704198,6.49834814 9.2486245,5.82654205 9.25,4.99749996 C9.24806946,4.16949743 8.57600498,3.49944646 7.74800038,3.5 Z" id="形状结合" fill-opacity="0.7" fill="#000000" fill-rule="nonzero"></path>
    </g>
</svg>