<?xml version="1.0" encoding="UTF-8"?>
<svg width="16px" height="16px" viewBox="0 0 16 16" version="1.1" xmlns="http://www.w3.org/2000/svg" xmlns:xlink="http://www.w3.org/1999/xlink">
    <title>警告</title>
    <defs>
        <linearGradient x1="50%" y1="0%" x2="50%" y2="97.6283482%" id="linearGradient-1">
            <stop stop-color="#FFD200" offset="0%"></stop>
            <stop stop-color="#FFB223" offset="100%"></stop>
        </linearGradient>
    </defs>
    <g id="高保真（远古版本）" stroke="none" stroke-width="1" fill="none" fill-rule="evenodd">
        <g id="Page-1-+-Path-+-Rectangle-115">
            <path d="M0.633333333,4.8875008 C1.05555776,3.90138453 1.62360747,3.051392 2.33749973,2.33749973 C3.051392,1.62360747 3.90138453,1.0555584 4.8875008,0.633333333 C5.87361707,0.211108267 6.91110613,0 8,0 C9.08333867,0 10.1180501,0.211108267 11.1041664,0.633333333 C12.0902827,1.0555584 12.941664,1.62360747 13.6583339,2.33749973 C14.3750037,3.051392 14.9444416,3.90138453 15.3666667,4.8875008 C15.7888917,5.87361707 16,6.91110613 16,8 C16,9.08333867 15.7888917,10.1194389 15.3666667,11.1083328 C14.9444416,12.0972267 14.3750037,12.948608 13.6583339,13.6625003 C12.941664,14.3763925 12.0902827,14.9444422 11.1041664,15.3666667 C10.1180501,15.788891 9.08333867,16 8,16 C6.91110613,16 5.87361707,15.788891 4.8875008,15.3666667 C3.90138453,14.9444422 3.051392,14.3763925 2.33749973,13.6625003 C1.62360747,12.948608 1.05555776,12.0972267 0.633333333,11.1083328 C0.211108992,10.1194389 0,9.08333867 0,8 C0,6.91110613 0.211108992,5.87361707 0.633333333,4.8875008 Z" id="Page-1" fill="url(#linearGradient-1)"></path>
            <path d="M6.81481481,11.3074074 C6.81481481,11.6518533 6.93703775,11.9462959 7.18148361,12.1907397 C7.42592735,12.4351855 7.72037001,12.5574085 8.06481588,12.5574085 C8.40926175,12.5574085 8.70370441,12.4351855 8.94814815,12.1907397 C9.19259401,11.9462959 9.31481695,11.6518533 9.31481695,11.3074074 C9.31481695,10.9629615 9.19259401,10.6685189 8.94814815,10.4240751 C8.71481481,10.1907397 8.42037215,10.0740741 8.06481588,10.0740741 C7.70925961,10.0740741 7.41481695,10.1907397 7.18148361,10.4240751 C6.93703775,10.6685189 6.81481481,10.9629615 6.81481481,11.3074074 L6.81481481,11.3074074 Z" id="Path" fill="#FFFFFF"></path>
            <rect id="Rectangle-115" fill="#FFFFFF" x="7.11111111" y="2.96296296" width="1.77777778" height="5.92592593" rx="0.888888889"></rect>
        </g>
    </g>
</svg>