<?xml version="1.0" encoding="UTF-8"?>
<svg width="29px" height="29px" viewBox="0 0 29 29" version="1.1" xmlns="http://www.w3.org/2000/svg" xmlns:xlink="http://www.w3.org/1999/xlink">
    <!-- Generator: Sketch 58 (84663) - https://sketch.com -->
    <title>编组 8</title>
    <desc>Created with Sketch.</desc>
    <defs>
        <circle id="path-1" cx="8.5" cy="8.5" r="8.5"></circle>
        <filter x="-64.7%" y="-41.2%" width="229.4%" height="229.4%" filterUnits="objectBoundingBox" id="filter-2">
            <feOffset dx="0" dy="4" in="SourceAlpha" result="shadowOffsetOuter1"></feOffset>
            <feGaussianBlur stdDeviation="3" in="shadowOffsetOuter1" result="shadowBlurOuter1"></feGaussianBlur>
            <feColorMatrix values="0 0 0 0 0.253944305   0 0 0 0 0.86865942   0 0 0 0 0  0 0 0 0.4 0" type="matrix" in="shadowBlurOuter1"></feColorMatrix>
        </filter>
    </defs>
    <g id="高保真" stroke="none" stroke-width="1" fill="none" fill-rule="evenodd">
        <g id="开机自启动" transform="translate(-529.000000, -216.000000)">
            <g id="高保真1备份-19" transform="translate(65.000000, 45.000000)">
                <g id="编组-4" transform="translate(210.000000, 60.000000)">
                    <g id="编组-2" transform="translate(0.000000, 62.000000)">
                        <g id="编组-7" transform="translate(10.000000, 36.000000)">
                            <g id="编组-8" transform="translate(250.000000, 15.000000)">
                                <g id="椭圆形">
                                    <use fill="black" fill-opacity="1" filter="url(#filter-2)" xlink:href="#path-1"></use>
                                    <use fill="#23C400" fill-rule="evenodd" xlink:href="#path-1"></use>
                                </g>
                                <path d="M8.07703174,12 C7.91946893,12 7.76225394,11.9347059 7.64225577,11.8048235 L5.18003253,9.13835294 C4.93998916,8.87118408 4.93998916,8.46246297 5.18003253,8.19529412 C5.29149964,8.07092768 5.44948677,8.00003018 5.61515631,8.00003018 C5.78082586,8.00003018 5.93881299,8.07092768 6.0502801,8.19529412 L8.07668391,10.3905882 L11.9496682,6.19588235 C12.1896645,5.93470588 12.5792238,5.93470588 12.8199158,6.19588235 C13.0600281,6.46275346 13.0600281,6.8713642 12.8199158,7.1382353 L8.51250334,11.8044706 C8.39215736,11.9343529 8.23424673,11.9996471 8.07703174,11.9996471 L8.07703174,12 Z" id="路径" fill="#FFFFFF" fill-rule="nonzero"></path>
                            </g>
                        </g>
                    </g>
                </g>
            </g>
        </g>
    </g>
</svg>