<?xml version="1.0" encoding="UTF-8"?>
<svg width="16px" height="16px" viewBox="0 0 16 16" version="1.1" xmlns="http://www.w3.org/2000/svg" xmlns:xlink="http://www.w3.org/1999/xlink">
    <title>ICon/self-starting</title>
    <g id="ICon/self-starting" stroke="none" stroke-width="1" fill="none" fill-rule="evenodd">
        <g id="编组-27">
            <rect id="矩形" fill="#FF6969" opacity="0" x="0" y="0" width="16" height="16"></rect>
            <path d="M10.2105263,7.15789474 C12.0999215,7.15789474 13.6315789,8.68955217 13.6315789,10.5789474 C13.6315789,12.4683426 12.0999215,14 10.2105263,14 C8.32113112,14 6.78947368,12.4683426 6.78947368,10.5789474 C6.78947368,8.68955217 8.32113112,7.15789474 10.2105263,7.15789474 Z M10.2631579,1 C11.3677274,1 12.2631579,1.8954305 12.2631579,3 L12.2637406,7.02323247 C11.6597794,6.67372744 10.9585142,6.47368421 10.2105263,6.47368421 C7.94325208,6.47368421 6.10526316,8.31167313 6.10526316,10.5789474 C6.10526316,11.6304792 6.50061127,12.5896726 7.15077562,13.3159956 L4,13.3157895 C2.8954305,13.3157895 2,12.420359 2,11.3157895 L2,3 C2,1.8954305 2.8954305,1 4,1 L10.2631579,1 Z M10.9216474,9.36089221 C10.7896911,9.49611676 10.7923405,9.71270962 10.9275651,9.84466592 C11.1244745,10.0368162 11.2371716,10.2986635 11.2371716,10.5792768 C11.2371716,11.1460954 10.7776743,11.6055926 10.2108558,11.6055926 C9.64403721,11.6055926 9.18453998,11.1460954 9.18453998,10.5792768 C9.18453998,10.299912 9.29622646,10.0391364 9.49158565,9.8471735 C9.62635239,9.71474968 9.62825169,9.49814894 9.49582787,9.3633822 C9.36340405,9.22861546 9.1468033,9.22671616 9.01203657,9.35913998 C8.68706539,9.67846155 8.50032946,10.1144694 8.50032946,10.5792768 C8.50032946,11.5239744 9.26615817,12.2898031 10.2108558,12.2898031 C11.1555534,12.2898031 11.9213821,11.5239744 11.9213821,10.5792768 C11.9213821,10.1123857 11.7329621,9.67459918 11.4054211,9.35497453 C11.2701966,9.22301823 11.0536037,9.22566767 10.9216474,9.36089221 Z M10.2105263,8.52631579 C10.0452042,8.52631579 9.90727145,8.64358331 9.87537142,8.79947491 L9.86842105,8.86842105 L9.86842105,10.2368421 C9.86842105,10.4257816 10.0215868,10.5789474 10.2105263,10.5789474 C10.3758484,10.5789474 10.5137812,10.4616798 10.5456812,10.3057882 L10.5526316,10.2368421 L10.5526316,8.86842105 C10.5526316,8.67948153 10.3994658,8.52631579 10.2105263,8.52631579 Z M9.71052632,4.42105263 L4.55263158,4.42105263 C4.30717169,4.42105263 4.10302321,4.59792779 4.06068725,4.831177 L4.05263158,4.92105263 L4.05263158,5.28947368 C4.05263158,5.53493357 4.22950674,5.73908205 4.46275595,5.78141801 L4.55263158,5.78947368 L9.71052632,5.78947368 C9.9559862,5.78947368 10.1601347,5.61259852 10.2024706,5.37934932 L10.2105263,5.28947368 L10.2105263,4.92105263 C10.2105263,4.64491026 9.98666869,4.42105263 9.71052632,4.42105263 Z M9.71052632,2.36842105 L4.55263158,2.36842105 C4.30717169,2.36842105 4.10302321,2.54529621 4.06068725,2.77854542 L4.05263158,2.86842105 L4.05263158,3.23684211 C4.05263158,3.48230199 4.22950674,3.68645048 4.46275595,3.72878644 L4.55263158,3.73684211 L9.71052632,3.73684211 C9.9559862,3.73684211 10.1601347,3.55996694 10.2024706,3.32671774 L10.2105263,3.23684211 L10.2105263,2.86842105 C10.2105263,2.59227868 9.98666869,2.36842105 9.71052632,2.36842105 Z" id="形状结合" fill-opacity="0.7" fill="#000000" fill-rule="nonzero"></path>
        </g>
    </g>
</svg>