<?xml version="1.0" encoding="UTF-8"?>
<svg width="400px" height="220px" viewBox="0 0 400 220" version="1.1" xmlns="http://www.w3.org/2000/svg" xmlns:xlink="http://www.w3.org/1999/xlink">
    <title>Illustration/Garbage_cleaning/Clean_up_complete </title>
    <defs>
        <linearGradient x1="50%" y1="66.5241948%" x2="50%" y2="7.7506595%" id="linearGradient-1">
            <stop stop-color="#4692DC" offset="0%"></stop>
            <stop stop-color="#5AA6F1" offset="100%"></stop>
        </linearGradient>
        <linearGradient x1="60.3179433%" y1="0%" x2="47.3922955%" y2="89.0980547%" id="linearGradient-2">
            <stop stop-color="#D4FCFF" offset="0%"></stop>
            <stop stop-color="#A2D1FF" offset="100%"></stop>
        </linearGradient>
        <linearGradient x1="50%" y1="30.2096788%" x2="50%" y2="99.3401395%" id="linearGradient-3">
            <stop stop-color="#A0D8FF" offset="0%"></stop>
            <stop stop-color="#5AA6F1" offset="100%"></stop>
        </linearGradient>
        <linearGradient x1="88.4649026%" y1="38.0137071%" x2="40.2785763%" y2="59.3728147%" id="linearGradient-4">
            <stop stop-color="#D4FCFF" offset="0%"></stop>
            <stop stop-color="#A2D1FF" offset="100%"></stop>
        </linearGradient>
        <linearGradient x1="37.2085054%" y1="84.7596357%" x2="37.2085054%" y2="62.9564824%" id="linearGradient-5">
            <stop stop-color="#E9ECF0" offset="0%"></stop>
            <stop stop-color="#BECBD9" offset="100%"></stop>
        </linearGradient>
        <linearGradient x1="37.2085054%" y1="129.776111%" x2="37.2085054%" y2="-55.0549596%" id="linearGradient-6">
            <stop stop-color="#E9ECF0" offset="0%"></stop>
            <stop stop-color="#BECBD9" offset="100%"></stop>
        </linearGradient>
        <linearGradient x1="50%" y1="0%" x2="50%" y2="100%" id="linearGradient-7">
            <stop stop-color="#707070" offset="0%"></stop>
            <stop stop-color="#696969" offset="100%"></stop>
        </linearGradient>
        <path d="M16,0 L204,0 C212.836556,0 220,7.163444 220,16 L220,139 C220,147.836556 212.836556,155 204,155 L16,155 C7.163444,155 0,147.836556 0,139 L0,16 C0,7.163444 7.163444,0 16,0 Z" id="path-8"></path>
        <filter x="-1.1%" y="-1.6%" width="102.3%" height="103.2%" filterUnits="objectBoundingBox" id="filter-10">
            <feGaussianBlur stdDeviation="1.5" in="SourceAlpha" result="shadowBlurInner1"></feGaussianBlur>
            <feOffset dx="-1" dy="-2" in="shadowBlurInner1" result="shadowOffsetInner1"></feOffset>
            <feComposite in="shadowOffsetInner1" in2="SourceAlpha" operator="arithmetic" k2="-1" k3="1" result="shadowInnerInner1"></feComposite>
            <feColorMatrix values="0 0 0 0 0   0 0 0 0 0   0 0 0 0 0  0 0 0 0.378308703 0" type="matrix" in="shadowInnerInner1" result="shadowMatrixInner1"></feColorMatrix>
            <feGaussianBlur stdDeviation="1.5" in="SourceAlpha" result="shadowBlurInner2"></feGaussianBlur>
            <feOffset dx="1" dy="1" in="shadowBlurInner2" result="shadowOffsetInner2"></feOffset>
            <feComposite in="shadowOffsetInner2" in2="SourceAlpha" operator="arithmetic" k2="-1" k3="1" result="shadowInnerInner2"></feComposite>
            <feColorMatrix values="0 0 0 0 1   0 0 0 0 1   0 0 0 0 1  0 0 0 0.5 0" type="matrix" in="shadowInnerInner2" result="shadowMatrixInner2"></feColorMatrix>
            <feMerge>
                <feMergeNode in="shadowMatrixInner1"></feMergeNode>
                <feMergeNode in="shadowMatrixInner2"></feMergeNode>
            </feMerge>
        </filter>
        <linearGradient x1="13.9252458%" y1="25.4968509%" x2="75.5310839%" y2="73.1107297%" id="linearGradient-11">
            <stop stop-color="#FFFFFF" offset="0%"></stop>
            <stop stop-color="#EEF4FF" offset="100%"></stop>
        </linearGradient>
        <path d="M5.98638099,0.426745951 L193.986381,0 C197.22477,-0.00733483558 199.869761,2.55224295 199.995336,5.76145303 L200,6 L200,6 L200,129.546001 C200,132.854392 197.322002,135.538476 194.013619,135.545986 L6.01361901,135.972732 C2.77523041,135.980066 0.130238959,133.420489 0.00466449071,130.211279 L0,129.972731 L0,129.972731 L0,6.42673049 C0,3.11833931 2.67799832,0.434255455 5.98638099,0.426745951 Z" id="path-12"></path>
        <linearGradient x1="44.0543565%" y1="78.9077659%" x2="44.0543565%" y2="0%" id="linearGradient-14">
            <stop stop-color="#007FA8" offset="0%"></stop>
            <stop stop-color="#1CFEF2" stop-opacity="0.285458438" offset="100%"></stop>
        </linearGradient>
        <circle id="path-15" cx="55" cy="55" r="55"></circle>
        <filter x="-12.7%" y="-9.1%" width="125.5%" height="125.5%" filterUnits="objectBoundingBox" id="filter-16">
            <feOffset dx="0" dy="4" in="SourceAlpha" result="shadowOffsetOuter1"></feOffset>
            <feGaussianBlur stdDeviation="4" in="shadowOffsetOuter1" result="shadowBlurOuter1"></feGaussianBlur>
            <feColorMatrix values="0 0 0 0 0.35180545   0 0 0 0 0.715441034   0 0 0 0 1  0 0 0 0.20165162 0" type="matrix" in="shadowBlurOuter1"></feColorMatrix>
        </filter>
        <filter x="-10.0%" y="-6.4%" width="120.0%" height="120.0%" filterUnits="objectBoundingBox" id="filter-17">
            <feGaussianBlur stdDeviation="1" in="SourceAlpha" result="shadowBlurInner1"></feGaussianBlur>
            <feOffset dx="0" dy="2" in="shadowBlurInner1" result="shadowOffsetInner1"></feOffset>
            <feComposite in="shadowOffsetInner1" in2="SourceAlpha" operator="arithmetic" k2="-1" k3="1" result="shadowInnerInner1"></feComposite>
            <feColorMatrix values="0 0 0 0 1   0 0 0 0 1   0 0 0 0 1  0 0 0 1 0" type="matrix" in="shadowInnerInner1" result="shadowMatrixInner1"></feColorMatrix>
            <feGaussianBlur stdDeviation="2" in="SourceAlpha" result="shadowBlurInner2"></feGaussianBlur>
            <feOffset dx="0" dy="-2" in="shadowBlurInner2" result="shadowOffsetInner2"></feOffset>
            <feComposite in="shadowOffsetInner2" in2="SourceAlpha" operator="arithmetic" k2="-1" k3="1" result="shadowInnerInner2"></feComposite>
            <feColorMatrix values="0 0 0 0 0   0 0 0 0 0.296536959   0 0 0 0 1  0 0 0 0.182881815 0" type="matrix" in="shadowInnerInner2" result="shadowMatrixInner2"></feColorMatrix>
            <feMerge>
                <feMergeNode in="shadowMatrixInner1"></feMergeNode>
                <feMergeNode in="shadowMatrixInner2"></feMergeNode>
            </feMerge>
        </filter>
        <linearGradient x1="50%" y1="100%" x2="50%" y2="0%" id="linearGradient-18">
            <stop stop-color="#3DD0FF" offset="0%"></stop>
            <stop stop-color="#BDEEFF" offset="100%"></stop>
        </linearGradient>
        <path d="M100,55 C100,79.8528137 79.8528137,100 55,100 C30.1471863,100 10,79.8528137 10,55 C10,30.1471863 30.1471863,10 55,10 L55,10 L55,55 Z" id="path-19"></path>
        <filter x="-11.1%" y="-8.9%" width="122.2%" height="122.2%" filterUnits="objectBoundingBox" id="filter-20">
            <feOffset dx="0" dy="2" in="SourceAlpha" result="shadowOffsetOuter1"></feOffset>
            <feGaussianBlur stdDeviation="3" in="shadowOffsetOuter1" result="shadowBlurOuter1"></feGaussianBlur>
            <feColorMatrix values="0 0 0 0 0   0 0 0 0 0.424459818   0 0 0 0 1  0 0 0 0 0" type="matrix" in="shadowBlurOuter1"></feColorMatrix>
        </filter>
    </defs>
    <g id="Illustration/Garbage_cleaning/Clean_up_complete-" stroke="none" stroke-width="1" fill="none" fill-rule="evenodd">
        <g id="编组-8" transform="translate(225.610113, 21.000000)">
            <path d="M-4.8316906e-13,87.3155855 C53.5907309,55.6119957 81.6294439,38.0844411 84.1161391,34.7329218 C87.8461819,29.7056428 82.1304129,26.9082356 78.0454613,31.0074591 C73.9605097,35.1066826 84.439197,39.7508983 92.5045938,39.7555495 C100.569991,39.7602008 125.389887,33.1249668 132.433007,27.324377" id="路径-10" stroke="#7DBEFF" opacity="0.800000012" stroke-linecap="round" stroke-linejoin="round" stroke-dasharray="1,4"></path>
            <g id="纸飞机" transform="translate(120.389887, 0.000000)" fill-rule="nonzero">
                <polygon id="路径" fill="url(#linearGradient-1)" points="23.9336216 22.9496361 20.3972894 32.8668351 27.0832346 26.0820616"></polygon>
                <path d="M39.9394996,0 L23.3621366,22.915261 L30.6470784,30.6731558 C31.0251376,31.0757594 31.6579899,31.0956565 32.0605935,30.7175973 C32.2002291,30.5864744 32.2992675,30.4180059 32.3459305,30.2322267 L39.9394996,0 L39.9394996,0 Z" id="路径" fill="url(#linearGradient-2)"></path>
                <polygon id="路径" fill="url(#linearGradient-3)" points="39.9394996 0 11.0601691 18.725803 20.3972894 32.8668351 23.9336216 22.9496361"></polygon>
                <path d="M39.9394996,0 L3.87674781,17.6569751 C3.38072663,17.899836 3.1754997,18.4988183 3.41836063,18.9948395 C3.58624325,19.3377243 3.93470824,19.5551009 4.31648643,19.5551009 L11.6918105,19.5551009 L11.6918105,19.5551009 L39.9394996,0 Z" id="路径" fill="url(#linearGradient-4)"></path>
            </g>
        </g>
        <ellipse id="椭圆形" fill="#E7ECF2" cx="194.5" cy="206.5" rx="180.5" ry="1"></ellipse>
        <g id="编组" transform="translate(90.000000, 26.000000)">
            <path d="M129.940146,106 C134.006873,133.44434 137.542437,151.002771 140.546838,158.675291 C143.630548,166.550349 151.035571,172.506746 162.761905,176.544482 L58,176.544482 C67.6826579,175.325408 75.1364769,169.369011 80.3614569,158.675291 C82.9896956,153.296199 86.7634704,135.737768 91.6827813,106 L129.940146,106 Z" id="三角形" fill="url(#linearGradient-5)"></path>
            <rect id="矩形" fill="url(#linearGradient-6)" x="58" y="174" width="104.761905" height="6.34702823" rx="3.17351412"></rect>
            <g id="蒙版">
                <mask id="mask-9" fill="white">
                    <use xlink:href="#path-8"></use>
                </mask>
                <g>
                    <use fill="url(#linearGradient-7)" fill-rule="evenodd" xlink:href="#path-8"></use>
                    <use fill="black" fill-opacity="1" filter="url(#filter-10)" xlink:href="#path-8"></use>
                </g>
                <g id="编组-2" mask="url(#mask-9)">
                    <g transform="translate(10.000000, 9.000000)" id="形状结合">
                        <mask id="mask-13" fill="white">
                            <use xlink:href="#path-12"></use>
                        </mask>
                        <use id="蒙版" fill="url(#linearGradient-11)" xlink:href="#path-12"></use>
                        <path d="M5.25,-6.76363417 L5.249,5.98636583 L11.749,5.98636583 L11.75,-6.76363417 L12.25,-6.76363417 L12.249,5.98636583 L18.749,5.98636583 L18.75,-6.76363417 L19.25,-6.76363417 L19.249,5.98636583 L25.749,5.98636583 L25.75,-6.76363417 L26.25,-6.76363417 L26.249,5.98636583 L32.749,5.98636583 L32.75,-6.76363417 L33.25,-6.76363417 L33.249,5.98636583 L39.749,5.98636583 L39.75,-6.76363417 L40.25,-6.76363417 L40.249,5.98636583 L46.749,5.98636583 L46.75,-6.76363417 L47.25,-6.76363417 L47.249,5.98636583 L53.749,5.98636583 L53.75,-6.76363417 L54.25,-6.76363417 L54.249,5.98636583 L60.749,5.98636583 L60.75,-6.76363417 L61.25,-6.76363417 L61.249,5.98636583 L67.749,5.98636583 L67.75,-6.76363417 L68.25,-6.76363417 L68.249,5.98636583 L74.749,5.98636583 L74.75,-6.76363417 L75.25,-6.76363417 L75.249,5.98636583 L81.749,5.98636583 L81.75,-6.76363417 L82.25,-6.76363417 L82.249,5.98636583 L88.749,5.98636583 L88.75,-6.76363417 L89.25,-6.76363417 L89.249,5.98636583 L95.749,5.98636583 L95.75,-6.76363417 L96.25,-6.76363417 L96.249,5.98636583 L102.749,5.98636583 L102.75,-6.76363417 L103.25,-6.76363417 L103.249,5.98636583 L109.749,5.98636583 L109.75,-6.76363417 L110.25,-6.76363417 L110.249,5.98636583 L116.749,5.98636583 L116.75,-6.76363417 L117.25,-6.76363417 L117.249,5.98636583 L123.749,5.98636583 L123.75,-6.76363417 L124.25,-6.76363417 L124.249,5.98636583 L130.749,5.98636583 L130.75,-6.76363417 L131.25,-6.76363417 L131.249,5.98636583 L137.749,5.98636583 L137.75,-6.76363417 L138.25,-6.76363417 L138.249,5.98636583 L144.749,5.98636583 L144.75,-6.76363417 L145.25,-6.76363417 L145.249,5.98636583 L151.749,5.98636583 L151.75,-6.76363417 L152.25,-6.76363417 L152.249,5.98636583 L158.749,5.98636583 L158.75,-6.76363417 L159.25,-6.76363417 L159.249,5.98636583 L165.749,5.98636583 L165.75,-6.76363417 L166.25,-6.76363417 L166.249,5.98636583 L172.749,5.98636583 L172.75,-6.76363417 L173.25,-6.76363417 L173.249,5.98636583 L179.749,5.98636583 L179.75,-6.76363417 L180.25,-6.76363417 L180.249,5.98636583 L186.749,5.98636583 L186.75,-6.76363417 L187.25,-6.76363417 L187.249,5.98636583 L193.749,5.98636583 L193.75,-6.76363417 L194.25,-6.76363417 L194.249,5.98636583 L200.749,5.98636583 L200.75,-6.76363417 L201.25,-6.76363417 L201.249,5.98636583 L203,5.98636583 L203,6.48636583 L201.249,6.48636583 L201.249,12.9863658 L203,12.9863658 L203,13.4863658 L201.249,13.4863658 L201.249,19.9863658 L203,19.9863658 L203,20.4863658 L201.249,20.4863658 L201.249,26.9863658 L203,26.9863658 L203,27.4863658 L201.249,27.4863658 L201.249,33.9863658 L203,33.9863658 L203,34.4863658 L201.249,34.4863658 L201.249,40.9863658 L203,40.9863658 L203,41.4863658 L201.249,41.4863658 L201.249,47.9863658 L203,47.9863658 L203,48.4863658 L201.249,48.4863658 L201.249,54.9863658 L203,54.9863658 L203,55.4863658 L201.249,55.4863658 L201.249,61.9863658 L203,61.9863658 L203,62.4863658 L201.249,62.4863658 L201.249,68.9863658 L203,68.9863658 L203,69.4863658 L201.249,69.4863658 L201.249,75.9863658 L203,75.9863658 L203,76.4863658 L201.249,76.4863658 L201.249,82.9863658 L203,82.9863658 L203,83.4863658 L201.249,83.4863658 L201.249,89.9863658 L203,89.9863658 L203,90.4863658 L201.249,90.4863658 L201.249,96.9863658 L203,96.9863658 L203,97.4863658 L201.249,97.4863658 L201.249,103.986366 L203,103.986366 L203,104.486366 L201.249,104.486366 L201.249,110.986366 L203,110.986366 L203,111.486366 L201.249,111.486366 L201.249,117.986366 L203,117.986366 L203,118.486366 L201.249,118.486366 L201.249,124.986366 L203,124.986366 L203,125.486366 L201.249,125.486366 L201.249,131.986366 L203,131.986366 L203,132.486366 L201.249,132.486366 L201.249,138.986366 L203,138.986366 L203,139.486366 L201.249,139.486366 L201.25,144.236366 L200.75,144.236366 L200.749,139.486366 L194.249,139.486366 L194.25,144.236366 L193.75,144.236366 L193.749,139.486366 L187.249,139.486366 L187.25,144.236366 L186.75,144.236366 L186.749,139.486366 L180.249,139.486366 L180.25,144.236366 L179.75,144.236366 L179.749,139.486366 L173.249,139.486366 L173.25,144.236366 L172.75,144.236366 L172.749,139.486366 L166.249,139.486366 L166.25,144.236366 L165.75,144.236366 L165.749,139.486366 L159.249,139.486366 L159.25,144.236366 L158.75,144.236366 L158.749,139.486366 L152.249,139.486366 L152.25,144.236366 L151.75,144.236366 L151.749,139.486366 L145.249,139.486366 L145.25,144.236366 L144.75,144.236366 L144.749,139.486366 L138.249,139.486366 L138.25,144.236366 L137.75,144.236366 L137.749,139.486366 L131.249,139.486366 L131.25,144.236366 L130.75,144.236366 L130.749,139.486366 L124.249,139.486366 L124.25,144.236366 L123.75,144.236366 L123.749,139.486366 L117.249,139.486366 L117.25,144.236366 L116.75,144.236366 L116.749,139.486366 L110.249,139.486366 L110.25,144.236366 L109.75,144.236366 L109.749,139.486366 L103.249,139.486366 L103.25,144.236366 L102.75,144.236366 L102.749,139.486366 L96.249,139.486366 L96.25,144.236366 L95.75,144.236366 L95.749,139.486366 L89.249,139.486366 L89.25,144.236366 L88.75,144.236366 L88.749,139.486366 L82.249,139.486366 L82.25,144.236366 L81.75,144.236366 L81.749,139.486366 L75.249,139.486366 L75.25,144.236366 L74.75,144.236366 L74.749,139.486366 L68.249,139.486366 L68.25,144.236366 L67.75,144.236366 L67.749,139.486366 L61.249,139.486366 L61.25,144.236366 L60.75,144.236366 L60.749,139.486366 L54.249,139.486366 L54.25,144.236366 L53.75,144.236366 L53.749,139.486366 L47.249,139.486366 L47.25,144.236366 L46.75,144.236366 L46.749,139.486366 L40.249,139.486366 L40.25,144.236366 L39.75,144.236366 L39.749,139.486366 L33.249,139.486366 L33.25,144.236366 L32.75,144.236366 L32.749,139.486366 L26.249,139.486366 L26.25,144.236366 L25.75,144.236366 L25.749,139.486366 L19.249,139.486366 L19.25,144.236366 L18.75,144.236366 L18.749,139.486366 L12.249,139.486366 L12.25,144.236366 L11.75,144.236366 L11.749,139.486366 L5.249,139.486366 L5.25,144.236366 L4.75,144.236366 L4.749,139.486366 L-3,139.486366 L-3,138.986366 L4.749,138.986366 L4.749,132.486366 L-3,132.486366 L-3,131.986366 L4.749,131.986366 L4.749,125.486366 L-3,125.486366 L-3,124.986366 L4.749,124.986366 L4.749,118.486366 L-3,118.486366 L-3,117.986366 L4.749,117.986366 L4.749,111.486366 L-3,111.486366 L-3,110.986366 L4.749,110.986366 L4.749,104.486366 L-3,104.486366 L-3,103.986366 L4.749,103.986366 L4.749,97.4863658 L-3,97.4863658 L-3,96.9863658 L4.749,96.9863658 L4.749,90.4863658 L-3,90.4863658 L-3,89.9863658 L4.749,89.9863658 L4.749,83.4863658 L-3,83.4863658 L-3,82.9863658 L4.749,82.9863658 L4.749,76.4863658 L-3,76.4863658 L-3,75.9863658 L4.749,75.9863658 L4.749,69.4863658 L-3,69.4863658 L-3,68.9863658 L4.749,68.9863658 L4.749,62.4863658 L-3,62.4863658 L-3,61.9863658 L4.749,61.9863658 L4.749,55.4863658 L-3,55.4863658 L-3,54.9863658 L4.749,54.9863658 L4.749,48.4863658 L-3,48.4863658 L-3,47.9863658 L4.749,47.9863658 L4.749,41.4863658 L-3,41.4863658 L-3,40.9863658 L4.749,40.9863658 L4.749,34.4863658 L-3,34.4863658 L-3,33.9863658 L4.749,33.9863658 L4.749,27.4863658 L-3,27.4863658 L-3,26.9863658 L4.749,26.9863658 L4.749,20.4863658 L-3,20.4863658 L-3,19.9863658 L4.749,19.9863658 L4.749,13.4863658 L-3,13.4863658 L-3,12.9863658 L4.749,12.9863658 L4.749,6.48636583 L-3,6.48636583 L-3,5.98636583 L4.749,5.98636583 L4.75,-6.76363417 L5.25,-6.76363417 Z M11.749,132.486366 L5.249,132.486366 L5.249,138.986366 L11.749,138.986366 L11.749,132.486366 Z M18.749,132.486366 L12.249,132.486366 L12.249,138.986366 L18.749,138.986366 L18.749,132.486366 Z M25.749,132.486366 L19.249,132.486366 L19.249,138.986366 L25.749,138.986366 L25.749,132.486366 Z M32.749,132.486366 L26.249,132.486366 L26.249,138.986366 L32.749,138.986366 L32.749,132.486366 Z M39.749,132.486366 L33.249,132.486366 L33.249,138.986366 L39.749,138.986366 L39.749,132.486366 Z M46.749,132.486366 L40.249,132.486366 L40.249,138.986366 L46.749,138.986366 L46.749,132.486366 Z M53.749,132.486366 L47.249,132.486366 L47.249,138.986366 L53.749,138.986366 L53.749,132.486366 Z M60.749,132.486366 L54.249,132.486366 L54.249,138.986366 L60.749,138.986366 L60.749,132.486366 Z M67.749,132.486366 L61.249,132.486366 L61.249,138.986366 L67.749,138.986366 L67.749,132.486366 Z M74.749,132.486366 L68.249,132.486366 L68.249,138.986366 L74.749,138.986366 L74.749,132.486366 Z M81.749,132.486366 L75.249,132.486366 L75.249,138.986366 L81.749,138.986366 L81.749,132.486366 Z M88.749,132.486366 L82.249,132.486366 L82.249,138.986366 L88.749,138.986366 L88.749,132.486366 Z M95.749,132.486366 L89.249,132.486366 L89.249,138.986366 L95.749,138.986366 L95.749,132.486366 Z M102.749,132.486366 L96.249,132.486366 L96.249,138.986366 L102.749,138.986366 L102.749,132.486366 Z M109.749,132.486366 L103.249,132.486366 L103.249,138.986366 L109.749,138.986366 L109.749,132.486366 Z M116.749,132.486366 L110.249,132.486366 L110.249,138.986366 L116.749,138.986366 L116.749,132.486366 Z M123.749,132.486366 L117.249,132.486366 L117.249,138.986366 L123.749,138.986366 L123.749,132.486366 Z M130.749,132.486366 L124.249,132.486366 L124.249,138.986366 L130.749,138.986366 L130.749,132.486366 Z M137.749,132.486366 L131.249,132.486366 L131.249,138.986366 L137.749,138.986366 L137.749,132.486366 Z M144.749,132.486366 L138.249,132.486366 L138.249,138.986366 L144.749,138.986366 L144.749,132.486366 Z M151.749,132.486366 L145.249,132.486366 L145.249,138.986366 L151.749,138.986366 L151.749,132.486366 Z M158.749,132.486366 L152.249,132.486366 L152.249,138.986366 L158.749,138.986366 L158.749,132.486366 Z M165.749,132.486366 L159.249,132.486366 L159.249,138.986366 L165.749,138.986366 L165.749,132.486366 Z M172.749,132.486366 L166.249,132.486366 L166.249,138.986366 L172.749,138.986366 L172.749,132.486366 Z M179.749,132.486366 L173.249,132.486366 L173.249,138.986366 L179.749,138.986366 L179.749,132.486366 Z M186.749,132.486366 L180.249,132.486366 L180.249,138.986366 L186.749,138.986366 L186.749,132.486366 Z M193.749,132.486366 L187.249,132.486366 L187.249,138.986366 L193.749,138.986366 L193.749,132.486366 Z M200.749,132.486366 L194.249,132.486366 L194.249,138.986366 L200.749,138.986366 L200.749,132.486366 Z M11.749,125.486366 L5.249,125.486366 L5.249,131.986366 L11.749,131.986366 L11.749,125.486366 Z M18.749,125.486366 L12.249,125.486366 L12.249,131.986366 L18.749,131.986366 L18.749,125.486366 Z M25.749,125.486366 L19.249,125.486366 L19.249,131.986366 L25.749,131.986366 L25.749,125.486366 Z M32.749,125.486366 L26.249,125.486366 L26.249,131.986366 L32.749,131.986366 L32.749,125.486366 Z M39.749,125.486366 L33.249,125.486366 L33.249,131.986366 L39.749,131.986366 L39.749,125.486366 Z M46.749,125.486366 L40.249,125.486366 L40.249,131.986366 L46.749,131.986366 L46.749,125.486366 Z M53.749,125.486366 L47.249,125.486366 L47.249,131.986366 L53.749,131.986366 L53.749,125.486366 Z M60.749,125.486366 L54.249,125.486366 L54.249,131.986366 L60.749,131.986366 L60.749,125.486366 Z M67.749,125.486366 L61.249,125.486366 L61.249,131.986366 L67.749,131.986366 L67.749,125.486366 Z M74.749,125.486366 L68.249,125.486366 L68.249,131.986366 L74.749,131.986366 L74.749,125.486366 Z M81.749,125.486366 L75.249,125.486366 L75.249,131.986366 L81.749,131.986366 L81.749,125.486366 Z M88.749,125.486366 L82.249,125.486366 L82.249,131.986366 L88.749,131.986366 L88.749,125.486366 Z M95.749,125.486366 L89.249,125.486366 L89.249,131.986366 L95.749,131.986366 L95.749,125.486366 Z M102.749,125.486366 L96.249,125.486366 L96.249,131.986366 L102.749,131.986366 L102.749,125.486366 Z M109.749,125.486366 L103.249,125.486366 L103.249,131.986366 L109.749,131.986366 L109.749,125.486366 Z M116.749,125.486366 L110.249,125.486366 L110.249,131.986366 L116.749,131.986366 L116.749,125.486366 Z M123.749,125.486366 L117.249,125.486366 L117.249,131.986366 L123.749,131.986366 L123.749,125.486366 Z M130.749,125.486366 L124.249,125.486366 L124.249,131.986366 L130.749,131.986366 L130.749,125.486366 Z M137.749,125.486366 L131.249,125.486366 L131.249,131.986366 L137.749,131.986366 L137.749,125.486366 Z M144.749,125.486366 L138.249,125.486366 L138.249,131.986366 L144.749,131.986366 L144.749,125.486366 Z M151.749,125.486366 L145.249,125.486366 L145.249,131.986366 L151.749,131.986366 L151.749,125.486366 Z M158.749,125.486366 L152.249,125.486366 L152.249,131.986366 L158.749,131.986366 L158.749,125.486366 Z M165.749,125.486366 L159.249,125.486366 L159.249,131.986366 L165.749,131.986366 L165.749,125.486366 Z M172.749,125.486366 L166.249,125.486366 L166.249,131.986366 L172.749,131.986366 L172.749,125.486366 Z M179.749,125.486366 L173.249,125.486366 L173.249,131.986366 L179.749,131.986366 L179.749,125.486366 Z M186.749,125.486366 L180.249,125.486366 L180.249,131.986366 L186.749,131.986366 L186.749,125.486366 Z M193.749,125.486366 L187.249,125.486366 L187.249,131.986366 L193.749,131.986366 L193.749,125.486366 Z M200.749,125.486366 L194.249,125.486366 L194.249,131.986366 L200.749,131.986366 L200.749,125.486366 Z M11.749,118.486366 L5.249,118.486366 L5.249,124.986366 L11.749,124.986366 L11.749,118.486366 Z M18.749,118.486366 L12.249,118.486366 L12.249,124.986366 L18.749,124.986366 L18.749,118.486366 Z M25.749,118.486366 L19.249,118.486366 L19.249,124.986366 L25.749,124.986366 L25.749,118.486366 Z M32.749,118.486366 L26.249,118.486366 L26.249,124.986366 L32.749,124.986366 L32.749,118.486366 Z M39.749,118.486366 L33.249,118.486366 L33.249,124.986366 L39.749,124.986366 L39.749,118.486366 Z M46.749,118.486366 L40.249,118.486366 L40.249,124.986366 L46.749,124.986366 L46.749,118.486366 Z M53.749,118.486366 L47.249,118.486366 L47.249,124.986366 L53.749,124.986366 L53.749,118.486366 Z M60.749,118.486366 L54.249,118.486366 L54.249,124.986366 L60.749,124.986366 L60.749,118.486366 Z M67.749,118.486366 L61.249,118.486366 L61.249,124.986366 L67.749,124.986366 L67.749,118.486366 Z M74.749,118.486366 L68.249,118.486366 L68.249,124.986366 L74.749,124.986366 L74.749,118.486366 Z M81.749,118.486366 L75.249,118.486366 L75.249,124.986366 L81.749,124.986366 L81.749,118.486366 Z M88.749,118.486366 L82.249,118.486366 L82.249,124.986366 L88.749,124.986366 L88.749,118.486366 Z M95.749,118.486366 L89.249,118.486366 L89.249,124.986366 L95.749,124.986366 L95.749,118.486366 Z M102.749,118.486366 L96.249,118.486366 L96.249,124.986366 L102.749,124.986366 L102.749,118.486366 Z M109.749,118.486366 L103.249,118.486366 L103.249,124.986366 L109.749,124.986366 L109.749,118.486366 Z M116.749,118.486366 L110.249,118.486366 L110.249,124.986366 L116.749,124.986366 L116.749,118.486366 Z M123.749,118.486366 L117.249,118.486366 L117.249,124.986366 L123.749,124.986366 L123.749,118.486366 Z M130.749,118.486366 L124.249,118.486366 L124.249,124.986366 L130.749,124.986366 L130.749,118.486366 Z M137.749,118.486366 L131.249,118.486366 L131.249,124.986366 L137.749,124.986366 L137.749,118.486366 Z M144.749,118.486366 L138.249,118.486366 L138.249,124.986366 L144.749,124.986366 L144.749,118.486366 Z M151.749,118.486366 L145.249,118.486366 L145.249,124.986366 L151.749,124.986366 L151.749,118.486366 Z M158.749,118.486366 L152.249,118.486366 L152.249,124.986366 L158.749,124.986366 L158.749,118.486366 Z M165.749,118.486366 L159.249,118.486366 L159.249,124.986366 L165.749,124.986366 L165.749,118.486366 Z M172.749,118.486366 L166.249,118.486366 L166.249,124.986366 L172.749,124.986366 L172.749,118.486366 Z M179.749,118.486366 L173.249,118.486366 L173.249,124.986366 L179.749,124.986366 L179.749,118.486366 Z M186.749,118.486366 L180.249,118.486366 L180.249,124.986366 L186.749,124.986366 L186.749,118.486366 Z M193.749,118.486366 L187.249,118.486366 L187.249,124.986366 L193.749,124.986366 L193.749,118.486366 Z M200.749,118.486366 L194.249,118.486366 L194.249,124.986366 L200.749,124.986366 L200.749,118.486366 Z M11.749,111.486366 L5.249,111.486366 L5.249,117.986366 L11.749,117.986366 L11.749,111.486366 Z M18.749,111.486366 L12.249,111.486366 L12.249,117.986366 L18.749,117.986366 L18.749,111.486366 Z M25.749,111.486366 L19.249,111.486366 L19.249,117.986366 L25.749,117.986366 L25.749,111.486366 Z M32.749,111.486366 L26.249,111.486366 L26.249,117.986366 L32.749,117.986366 L32.749,111.486366 Z M39.749,111.486366 L33.249,111.486366 L33.249,117.986366 L39.749,117.986366 L39.749,111.486366 Z M46.749,111.486366 L40.249,111.486366 L40.249,117.986366 L46.749,117.986366 L46.749,111.486366 Z M53.749,111.486366 L47.249,111.486366 L47.249,117.986366 L53.749,117.986366 L53.749,111.486366 Z M60.749,111.486366 L54.249,111.486366 L54.249,117.986366 L60.749,117.986366 L60.749,111.486366 Z M67.749,111.486366 L61.249,111.486366 L61.249,117.986366 L67.749,117.986366 L67.749,111.486366 Z M74.749,111.486366 L68.249,111.486366 L68.249,117.986366 L74.749,117.986366 L74.749,111.486366 Z M81.749,111.486366 L75.249,111.486366 L75.249,117.986366 L81.749,117.986366 L81.749,111.486366 Z M88.749,111.486366 L82.249,111.486366 L82.249,117.986366 L88.749,117.986366 L88.749,111.486366 Z M95.749,111.486366 L89.249,111.486366 L89.249,117.986366 L95.749,117.986366 L95.749,111.486366 Z M102.749,111.486366 L96.249,111.486366 L96.249,117.986366 L102.749,117.986366 L102.749,111.486366 Z M109.749,111.486366 L103.249,111.486366 L103.249,117.986366 L109.749,117.986366 L109.749,111.486366 Z M116.749,111.486366 L110.249,111.486366 L110.249,117.986366 L116.749,117.986366 L116.749,111.486366 Z M123.749,111.486366 L117.249,111.486366 L117.249,117.986366 L123.749,117.986366 L123.749,111.486366 Z M130.749,111.486366 L124.249,111.486366 L124.249,117.986366 L130.749,117.986366 L130.749,111.486366 Z M137.749,111.486366 L131.249,111.486366 L131.249,117.986366 L137.749,117.986366 L137.749,111.486366 Z M144.749,111.486366 L138.249,111.486366 L138.249,117.986366 L144.749,117.986366 L144.749,111.486366 Z M151.749,111.486366 L145.249,111.486366 L145.249,117.986366 L151.749,117.986366 L151.749,111.486366 Z M158.749,111.486366 L152.249,111.486366 L152.249,117.986366 L158.749,117.986366 L158.749,111.486366 Z M165.749,111.486366 L159.249,111.486366 L159.249,117.986366 L165.749,117.986366 L165.749,111.486366 Z M172.749,111.486366 L166.249,111.486366 L166.249,117.986366 L172.749,117.986366 L172.749,111.486366 Z M179.749,111.486366 L173.249,111.486366 L173.249,117.986366 L179.749,117.986366 L179.749,111.486366 Z M186.749,111.486366 L180.249,111.486366 L180.249,117.986366 L186.749,117.986366 L186.749,111.486366 Z M193.749,111.486366 L187.249,111.486366 L187.249,117.986366 L193.749,117.986366 L193.749,111.486366 Z M200.749,111.486366 L194.249,111.486366 L194.249,117.986366 L200.749,117.986366 L200.749,111.486366 Z M11.749,104.486366 L5.249,104.486366 L5.249,110.986366 L11.749,110.986366 L11.749,104.486366 Z M18.749,104.486366 L12.249,104.486366 L12.249,110.986366 L18.749,110.986366 L18.749,104.486366 Z M25.749,104.486366 L19.249,104.486366 L19.249,110.986366 L25.749,110.986366 L25.749,104.486366 Z M32.749,104.486366 L26.249,104.486366 L26.249,110.986366 L32.749,110.986366 L32.749,104.486366 Z M39.749,104.486366 L33.249,104.486366 L33.249,110.986366 L39.749,110.986366 L39.749,104.486366 Z M46.749,104.486366 L40.249,104.486366 L40.249,110.986366 L46.749,110.986366 L46.749,104.486366 Z M53.749,104.486366 L47.249,104.486366 L47.249,110.986366 L53.749,110.986366 L53.749,104.486366 Z M60.749,104.486366 L54.249,104.486366 L54.249,110.986366 L60.749,110.986366 L60.749,104.486366 Z M67.749,104.486366 L61.249,104.486366 L61.249,110.986366 L67.749,110.986366 L67.749,104.486366 Z M74.749,104.486366 L68.249,104.486366 L68.249,110.986366 L74.749,110.986366 L74.749,104.486366 Z M81.749,104.486366 L75.249,104.486366 L75.249,110.986366 L81.749,110.986366 L81.749,104.486366 Z M88.749,104.486366 L82.249,104.486366 L82.249,110.986366 L88.749,110.986366 L88.749,104.486366 Z M95.749,104.486366 L89.249,104.486366 L89.249,110.986366 L95.749,110.986366 L95.749,104.486366 Z M102.749,104.486366 L96.249,104.486366 L96.249,110.986366 L102.749,110.986366 L102.749,104.486366 Z M109.749,104.486366 L103.249,104.486366 L103.249,110.986366 L109.749,110.986366 L109.749,104.486366 Z M116.749,104.486366 L110.249,104.486366 L110.249,110.986366 L116.749,110.986366 L116.749,104.486366 Z M123.749,104.486366 L117.249,104.486366 L117.249,110.986366 L123.749,110.986366 L123.749,104.486366 Z M130.749,104.486366 L124.249,104.486366 L124.249,110.986366 L130.749,110.986366 L130.749,104.486366 Z M137.749,104.486366 L131.249,104.486366 L131.249,110.986366 L137.749,110.986366 L137.749,104.486366 Z M144.749,104.486366 L138.249,104.486366 L138.249,110.986366 L144.749,110.986366 L144.749,104.486366 Z M151.749,104.486366 L145.249,104.486366 L145.249,110.986366 L151.749,110.986366 L151.749,104.486366 Z M158.749,104.486366 L152.249,104.486366 L152.249,110.986366 L158.749,110.986366 L158.749,104.486366 Z M165.749,104.486366 L159.249,104.486366 L159.249,110.986366 L165.749,110.986366 L165.749,104.486366 Z M172.749,104.486366 L166.249,104.486366 L166.249,110.986366 L172.749,110.986366 L172.749,104.486366 Z M179.749,104.486366 L173.249,104.486366 L173.249,110.986366 L179.749,110.986366 L179.749,104.486366 Z M186.749,104.486366 L180.249,104.486366 L180.249,110.986366 L186.749,110.986366 L186.749,104.486366 Z M193.749,104.486366 L187.249,104.486366 L187.249,110.986366 L193.749,110.986366 L193.749,104.486366 Z M200.749,104.486366 L194.249,104.486366 L194.249,110.986366 L200.749,110.986366 L200.749,104.486366 Z M11.749,97.4863658 L5.249,97.4863658 L5.249,103.986366 L11.749,103.986366 L11.749,97.4863658 Z M18.749,97.4863658 L12.249,97.4863658 L12.249,103.986366 L18.749,103.986366 L18.749,97.4863658 Z M25.749,97.4863658 L19.249,97.4863658 L19.249,103.986366 L25.749,103.986366 L25.749,97.4863658 Z M32.749,97.4863658 L26.249,97.4863658 L26.249,103.986366 L32.749,103.986366 L32.749,97.4863658 Z M39.749,97.4863658 L33.249,97.4863658 L33.249,103.986366 L39.749,103.986366 L39.749,97.4863658 Z M46.749,97.4863658 L40.249,97.4863658 L40.249,103.986366 L46.749,103.986366 L46.749,97.4863658 Z M53.749,97.4863658 L47.249,97.4863658 L47.249,103.986366 L53.749,103.986366 L53.749,97.4863658 Z M60.749,97.4863658 L54.249,97.4863658 L54.249,103.986366 L60.749,103.986366 L60.749,97.4863658 Z M67.749,97.4863658 L61.249,97.4863658 L61.249,103.986366 L67.749,103.986366 L67.749,97.4863658 Z M74.749,97.4863658 L68.249,97.4863658 L68.249,103.986366 L74.749,103.986366 L74.749,97.4863658 Z M81.749,97.4863658 L75.249,97.4863658 L75.249,103.986366 L81.749,103.986366 L81.749,97.4863658 Z M88.749,97.4863658 L82.249,97.4863658 L82.249,103.986366 L88.749,103.986366 L88.749,97.4863658 Z M95.749,97.4863658 L89.249,97.4863658 L89.249,103.986366 L95.749,103.986366 L95.749,97.4863658 Z M102.749,97.4863658 L96.249,97.4863658 L96.249,103.986366 L102.749,103.986366 L102.749,97.4863658 Z M109.749,97.4863658 L103.249,97.4863658 L103.249,103.986366 L109.749,103.986366 L109.749,97.4863658 Z M116.749,97.4863658 L110.249,97.4863658 L110.249,103.986366 L116.749,103.986366 L116.749,97.4863658 Z M123.749,97.4863658 L117.249,97.4863658 L117.249,103.986366 L123.749,103.986366 L123.749,97.4863658 Z M130.749,97.4863658 L124.249,97.4863658 L124.249,103.986366 L130.749,103.986366 L130.749,97.4863658 Z M137.749,97.4863658 L131.249,97.4863658 L131.249,103.986366 L137.749,103.986366 L137.749,97.4863658 Z M144.749,97.4863658 L138.249,97.4863658 L138.249,103.986366 L144.749,103.986366 L144.749,97.4863658 Z M151.749,97.4863658 L145.249,97.4863658 L145.249,103.986366 L151.749,103.986366 L151.749,97.4863658 Z M158.749,97.4863658 L152.249,97.4863658 L152.249,103.986366 L158.749,103.986366 L158.749,97.4863658 Z M165.749,97.4863658 L159.249,97.4863658 L159.249,103.986366 L165.749,103.986366 L165.749,97.4863658 Z M172.749,97.4863658 L166.249,97.4863658 L166.249,103.986366 L172.749,103.986366 L172.749,97.4863658 Z M179.749,97.4863658 L173.249,97.4863658 L173.249,103.986366 L179.749,103.986366 L179.749,97.4863658 Z M186.749,97.4863658 L180.249,97.4863658 L180.249,103.986366 L186.749,103.986366 L186.749,97.4863658 Z M193.749,97.4863658 L187.249,97.4863658 L187.249,103.986366 L193.749,103.986366 L193.749,97.4863658 Z M200.749,97.4863658 L194.249,97.4863658 L194.249,103.986366 L200.749,103.986366 L200.749,97.4863658 Z M11.749,90.4863658 L5.249,90.4863658 L5.249,96.9863658 L11.749,96.9863658 L11.749,90.4863658 Z M18.749,90.4863658 L12.249,90.4863658 L12.249,96.9863658 L18.749,96.9863658 L18.749,90.4863658 Z M25.749,90.4863658 L19.249,90.4863658 L19.249,96.9863658 L25.749,96.9863658 L25.749,90.4863658 Z M32.749,90.4863658 L26.249,90.4863658 L26.249,96.9863658 L32.749,96.9863658 L32.749,90.4863658 Z M39.749,90.4863658 L33.249,90.4863658 L33.249,96.9863658 L39.749,96.9863658 L39.749,90.4863658 Z M46.749,90.4863658 L40.249,90.4863658 L40.249,96.9863658 L46.749,96.9863658 L46.749,90.4863658 Z M53.749,90.4863658 L47.249,90.4863658 L47.249,96.9863658 L53.749,96.9863658 L53.749,90.4863658 Z M60.749,90.4863658 L54.249,90.4863658 L54.249,96.9863658 L60.749,96.9863658 L60.749,90.4863658 Z M67.749,90.4863658 L61.249,90.4863658 L61.249,96.9863658 L67.749,96.9863658 L67.749,90.4863658 Z M74.749,90.4863658 L68.249,90.4863658 L68.249,96.9863658 L74.749,96.9863658 L74.749,90.4863658 Z M81.749,90.4863658 L75.249,90.4863658 L75.249,96.9863658 L81.749,96.9863658 L81.749,90.4863658 Z M88.749,90.4863658 L82.249,90.4863658 L82.249,96.9863658 L88.749,96.9863658 L88.749,90.4863658 Z M95.749,90.4863658 L89.249,90.4863658 L89.249,96.9863658 L95.749,96.9863658 L95.749,90.4863658 Z M102.749,90.4863658 L96.249,90.4863658 L96.249,96.9863658 L102.749,96.9863658 L102.749,90.4863658 Z M109.749,90.4863658 L103.249,90.4863658 L103.249,96.9863658 L109.749,96.9863658 L109.749,90.4863658 Z M116.749,90.4863658 L110.249,90.4863658 L110.249,96.9863658 L116.749,96.9863658 L116.749,90.4863658 Z M123.749,90.4863658 L117.249,90.4863658 L117.249,96.9863658 L123.749,96.9863658 L123.749,90.4863658 Z M130.749,90.4863658 L124.249,90.4863658 L124.249,96.9863658 L130.749,96.9863658 L130.749,90.4863658 Z M137.749,90.4863658 L131.249,90.4863658 L131.249,96.9863658 L137.749,96.9863658 L137.749,90.4863658 Z M144.749,90.4863658 L138.249,90.4863658 L138.249,96.9863658 L144.749,96.9863658 L144.749,90.4863658 Z M151.749,90.4863658 L145.249,90.4863658 L145.249,96.9863658 L151.749,96.9863658 L151.749,90.4863658 Z M158.749,90.4863658 L152.249,90.4863658 L152.249,96.9863658 L158.749,96.9863658 L158.749,90.4863658 Z M165.749,90.4863658 L159.249,90.4863658 L159.249,96.9863658 L165.749,96.9863658 L165.749,90.4863658 Z M172.749,90.4863658 L166.249,90.4863658 L166.249,96.9863658 L172.749,96.9863658 L172.749,90.4863658 Z M179.749,90.4863658 L173.249,90.4863658 L173.249,96.9863658 L179.749,96.9863658 L179.749,90.4863658 Z M186.749,90.4863658 L180.249,90.4863658 L180.249,96.9863658 L186.749,96.9863658 L186.749,90.4863658 Z M193.749,90.4863658 L187.249,90.4863658 L187.249,96.9863658 L193.749,96.9863658 L193.749,90.4863658 Z M200.749,90.4863658 L194.249,90.4863658 L194.249,96.9863658 L200.749,96.9863658 L200.749,90.4863658 Z M11.749,83.4863658 L5.249,83.4863658 L5.249,89.9863658 L11.749,89.9863658 L11.749,83.4863658 Z M18.749,83.4863658 L12.249,83.4863658 L12.249,89.9863658 L18.749,89.9863658 L18.749,83.4863658 Z M25.749,83.4863658 L19.249,83.4863658 L19.249,89.9863658 L25.749,89.9863658 L25.749,83.4863658 Z M32.749,83.4863658 L26.249,83.4863658 L26.249,89.9863658 L32.749,89.9863658 L32.749,83.4863658 Z M39.749,83.4863658 L33.249,83.4863658 L33.249,89.9863658 L39.749,89.9863658 L39.749,83.4863658 Z M46.749,83.4863658 L40.249,83.4863658 L40.249,89.9863658 L46.749,89.9863658 L46.749,83.4863658 Z M53.749,83.4863658 L47.249,83.4863658 L47.249,89.9863658 L53.749,89.9863658 L53.749,83.4863658 Z M60.749,83.4863658 L54.249,83.4863658 L54.249,89.9863658 L60.749,89.9863658 L60.749,83.4863658 Z M67.749,83.4863658 L61.249,83.4863658 L61.249,89.9863658 L67.749,89.9863658 L67.749,83.4863658 Z M74.749,83.4863658 L68.249,83.4863658 L68.249,89.9863658 L74.749,89.9863658 L74.749,83.4863658 Z M81.749,83.4863658 L75.249,83.4863658 L75.249,89.9863658 L81.749,89.9863658 L81.749,83.4863658 Z M88.749,83.4863658 L82.249,83.4863658 L82.249,89.9863658 L88.749,89.9863658 L88.749,83.4863658 Z M95.749,83.4863658 L89.249,83.4863658 L89.249,89.9863658 L95.749,89.9863658 L95.749,83.4863658 Z M102.749,83.4863658 L96.249,83.4863658 L96.249,89.9863658 L102.749,89.9863658 L102.749,83.4863658 Z M109.749,83.4863658 L103.249,83.4863658 L103.249,89.9863658 L109.749,89.9863658 L109.749,83.4863658 Z M116.749,83.4863658 L110.249,83.4863658 L110.249,89.9863658 L116.749,89.9863658 L116.749,83.4863658 Z M123.749,83.4863658 L117.249,83.4863658 L117.249,89.9863658 L123.749,89.9863658 L123.749,83.4863658 Z M130.749,83.4863658 L124.249,83.4863658 L124.249,89.9863658 L130.749,89.9863658 L130.749,83.4863658 Z M137.749,83.4863658 L131.249,83.4863658 L131.249,89.9863658 L137.749,89.9863658 L137.749,83.4863658 Z M144.749,83.4863658 L138.249,83.4863658 L138.249,89.9863658 L144.749,89.9863658 L144.749,83.4863658 Z M151.749,83.4863658 L145.249,83.4863658 L145.249,89.9863658 L151.749,89.9863658 L151.749,83.4863658 Z M158.749,83.4863658 L152.249,83.4863658 L152.249,89.9863658 L158.749,89.9863658 L158.749,83.4863658 Z M165.749,83.4863658 L159.249,83.4863658 L159.249,89.9863658 L165.749,89.9863658 L165.749,83.4863658 Z M172.749,83.4863658 L166.249,83.4863658 L166.249,89.9863658 L172.749,89.9863658 L172.749,83.4863658 Z M179.749,83.4863658 L173.249,83.4863658 L173.249,89.9863658 L179.749,89.9863658 L179.749,83.4863658 Z M186.749,83.4863658 L180.249,83.4863658 L180.249,89.9863658 L186.749,89.9863658 L186.749,83.4863658 Z M193.749,83.4863658 L187.249,83.4863658 L187.249,89.9863658 L193.749,89.9863658 L193.749,83.4863658 Z M200.749,83.4863658 L194.249,83.4863658 L194.249,89.9863658 L200.749,89.9863658 L200.749,83.4863658 Z M11.749,76.4863658 L5.249,76.4863658 L5.249,82.9863658 L11.749,82.9863658 L11.749,76.4863658 Z M18.749,76.4863658 L12.249,76.4863658 L12.249,82.9863658 L18.749,82.9863658 L18.749,76.4863658 Z M25.749,76.4863658 L19.249,76.4863658 L19.249,82.9863658 L25.749,82.9863658 L25.749,76.4863658 Z M32.749,76.4863658 L26.249,76.4863658 L26.249,82.9863658 L32.749,82.9863658 L32.749,76.4863658 Z M39.749,76.4863658 L33.249,76.4863658 L33.249,82.9863658 L39.749,82.9863658 L39.749,76.4863658 Z M46.749,76.4863658 L40.249,76.4863658 L40.249,82.9863658 L46.749,82.9863658 L46.749,76.4863658 Z M53.749,76.4863658 L47.249,76.4863658 L47.249,82.9863658 L53.749,82.9863658 L53.749,76.4863658 Z M60.749,76.4863658 L54.249,76.4863658 L54.249,82.9863658 L60.749,82.9863658 L60.749,76.4863658 Z M67.749,76.4863658 L61.249,76.4863658 L61.249,82.9863658 L67.749,82.9863658 L67.749,76.4863658 Z M74.749,76.4863658 L68.249,76.4863658 L68.249,82.9863658 L74.749,82.9863658 L74.749,76.4863658 Z M81.749,76.4863658 L75.249,76.4863658 L75.249,82.9863658 L81.749,82.9863658 L81.749,76.4863658 Z M88.749,76.4863658 L82.249,76.4863658 L82.249,82.9863658 L88.749,82.9863658 L88.749,76.4863658 Z M95.749,76.4863658 L89.249,76.4863658 L89.249,82.9863658 L95.749,82.9863658 L95.749,76.4863658 Z M102.749,76.4863658 L96.249,76.4863658 L96.249,82.9863658 L102.749,82.9863658 L102.749,76.4863658 Z M109.749,76.4863658 L103.249,76.4863658 L103.249,82.9863658 L109.749,82.9863658 L109.749,76.4863658 Z M116.749,76.4863658 L110.249,76.4863658 L110.249,82.9863658 L116.749,82.9863658 L116.749,76.4863658 Z M123.749,76.4863658 L117.249,76.4863658 L117.249,82.9863658 L123.749,82.9863658 L123.749,76.4863658 Z M130.749,76.4863658 L124.249,76.4863658 L124.249,82.9863658 L130.749,82.9863658 L130.749,76.4863658 Z M137.749,76.4863658 L131.249,76.4863658 L131.249,82.9863658 L137.749,82.9863658 L137.749,76.4863658 Z M144.749,76.4863658 L138.249,76.4863658 L138.249,82.9863658 L144.749,82.9863658 L144.749,76.4863658 Z M151.749,76.4863658 L145.249,76.4863658 L145.249,82.9863658 L151.749,82.9863658 L151.749,76.4863658 Z M158.749,76.4863658 L152.249,76.4863658 L152.249,82.9863658 L158.749,82.9863658 L158.749,76.4863658 Z M165.749,76.4863658 L159.249,76.4863658 L159.249,82.9863658 L165.749,82.9863658 L165.749,76.4863658 Z M172.749,76.4863658 L166.249,76.4863658 L166.249,82.9863658 L172.749,82.9863658 L172.749,76.4863658 Z M179.749,76.4863658 L173.249,76.4863658 L173.249,82.9863658 L179.749,82.9863658 L179.749,76.4863658 Z M186.749,76.4863658 L180.249,76.4863658 L180.249,82.9863658 L186.749,82.9863658 L186.749,76.4863658 Z M193.749,76.4863658 L187.249,76.4863658 L187.249,82.9863658 L193.749,82.9863658 L193.749,76.4863658 Z M200.749,76.4863658 L194.249,76.4863658 L194.249,82.9863658 L200.749,82.9863658 L200.749,76.4863658 Z M11.749,69.4863658 L5.249,69.4863658 L5.249,75.9863658 L11.749,75.9863658 L11.749,69.4863658 Z M18.749,69.4863658 L12.249,69.4863658 L12.249,75.9863658 L18.749,75.9863658 L18.749,69.4863658 Z M25.749,69.4863658 L19.249,69.4863658 L19.249,75.9863658 L25.749,75.9863658 L25.749,69.4863658 Z M32.749,69.4863658 L26.249,69.4863658 L26.249,75.9863658 L32.749,75.9863658 L32.749,69.4863658 Z M39.749,69.4863658 L33.249,69.4863658 L33.249,75.9863658 L39.749,75.9863658 L39.749,69.4863658 Z M46.749,69.4863658 L40.249,69.4863658 L40.249,75.9863658 L46.749,75.9863658 L46.749,69.4863658 Z M53.749,69.4863658 L47.249,69.4863658 L47.249,75.9863658 L53.749,75.9863658 L53.749,69.4863658 Z M60.749,69.4863658 L54.249,69.4863658 L54.249,75.9863658 L60.749,75.9863658 L60.749,69.4863658 Z M67.749,69.4863658 L61.249,69.4863658 L61.249,75.9863658 L67.749,75.9863658 L67.749,69.4863658 Z M74.749,69.4863658 L68.249,69.4863658 L68.249,75.9863658 L74.749,75.9863658 L74.749,69.4863658 Z M81.749,69.4863658 L75.249,69.4863658 L75.249,75.9863658 L81.749,75.9863658 L81.749,69.4863658 Z M88.749,69.4863658 L82.249,69.4863658 L82.249,75.9863658 L88.749,75.9863658 L88.749,69.4863658 Z M95.749,69.4863658 L89.249,69.4863658 L89.249,75.9863658 L95.749,75.9863658 L95.749,69.4863658 Z M102.749,69.4863658 L96.249,69.4863658 L96.249,75.9863658 L102.749,75.9863658 L102.749,69.4863658 Z M109.749,69.4863658 L103.249,69.4863658 L103.249,75.9863658 L109.749,75.9863658 L109.749,69.4863658 Z M116.749,69.4863658 L110.249,69.4863658 L110.249,75.9863658 L116.749,75.9863658 L116.749,69.4863658 Z M123.749,69.4863658 L117.249,69.4863658 L117.249,75.9863658 L123.749,75.9863658 L123.749,69.4863658 Z M130.749,69.4863658 L124.249,69.4863658 L124.249,75.9863658 L130.749,75.9863658 L130.749,69.4863658 Z M137.749,69.4863658 L131.249,69.4863658 L131.249,75.9863658 L137.749,75.9863658 L137.749,69.4863658 Z M144.749,69.4863658 L138.249,69.4863658 L138.249,75.9863658 L144.749,75.9863658 L144.749,69.4863658 Z M151.749,69.4863658 L145.249,69.4863658 L145.249,75.9863658 L151.749,75.9863658 L151.749,69.4863658 Z M158.749,69.4863658 L152.249,69.4863658 L152.249,75.9863658 L158.749,75.9863658 L158.749,69.4863658 Z M165.749,69.4863658 L159.249,69.4863658 L159.249,75.9863658 L165.749,75.9863658 L165.749,69.4863658 Z M172.749,69.4863658 L166.249,69.4863658 L166.249,75.9863658 L172.749,75.9863658 L172.749,69.4863658 Z M179.749,69.4863658 L173.249,69.4863658 L173.249,75.9863658 L179.749,75.9863658 L179.749,69.4863658 Z M186.749,69.4863658 L180.249,69.4863658 L180.249,75.9863658 L186.749,75.9863658 L186.749,69.4863658 Z M193.749,69.4863658 L187.249,69.4863658 L187.249,75.9863658 L193.749,75.9863658 L193.749,69.4863658 Z M200.749,69.4863658 L194.249,69.4863658 L194.249,75.9863658 L200.749,75.9863658 L200.749,69.4863658 Z M11.749,62.4863658 L5.249,62.4863658 L5.249,68.9863658 L11.749,68.9863658 L11.749,62.4863658 Z M18.749,62.4863658 L12.249,62.4863658 L12.249,68.9863658 L18.749,68.9863658 L18.749,62.4863658 Z M25.749,62.4863658 L19.249,62.4863658 L19.249,68.9863658 L25.749,68.9863658 L25.749,62.4863658 Z M32.749,62.4863658 L26.249,62.4863658 L26.249,68.9863658 L32.749,68.9863658 L32.749,62.4863658 Z M39.749,62.4863658 L33.249,62.4863658 L33.249,68.9863658 L39.749,68.9863658 L39.749,62.4863658 Z M46.749,62.4863658 L40.249,62.4863658 L40.249,68.9863658 L46.749,68.9863658 L46.749,62.4863658 Z M53.749,62.4863658 L47.249,62.4863658 L47.249,68.9863658 L53.749,68.9863658 L53.749,62.4863658 Z M60.749,62.4863658 L54.249,62.4863658 L54.249,68.9863658 L60.749,68.9863658 L60.749,62.4863658 Z M67.749,62.4863658 L61.249,62.4863658 L61.249,68.9863658 L67.749,68.9863658 L67.749,62.4863658 Z M74.749,62.4863658 L68.249,62.4863658 L68.249,68.9863658 L74.749,68.9863658 L74.749,62.4863658 Z M81.749,62.4863658 L75.249,62.4863658 L75.249,68.9863658 L81.749,68.9863658 L81.749,62.4863658 Z M88.749,62.4863658 L82.249,62.4863658 L82.249,68.9863658 L88.749,68.9863658 L88.749,62.4863658 Z M95.749,62.4863658 L89.249,62.4863658 L89.249,68.9863658 L95.749,68.9863658 L95.749,62.4863658 Z M102.749,62.4863658 L96.249,62.4863658 L96.249,68.9863658 L102.749,68.9863658 L102.749,62.4863658 Z M109.749,62.4863658 L103.249,62.4863658 L103.249,68.9863658 L109.749,68.9863658 L109.749,62.4863658 Z M116.749,62.4863658 L110.249,62.4863658 L110.249,68.9863658 L116.749,68.9863658 L116.749,62.4863658 Z M123.749,62.4863658 L117.249,62.4863658 L117.249,68.9863658 L123.749,68.9863658 L123.749,62.4863658 Z M130.749,62.4863658 L124.249,62.4863658 L124.249,68.9863658 L130.749,68.9863658 L130.749,62.4863658 Z M137.749,62.4863658 L131.249,62.4863658 L131.249,68.9863658 L137.749,68.9863658 L137.749,62.4863658 Z M144.749,62.4863658 L138.249,62.4863658 L138.249,68.9863658 L144.749,68.9863658 L144.749,62.4863658 Z M151.749,62.4863658 L145.249,62.4863658 L145.249,68.9863658 L151.749,68.9863658 L151.749,62.4863658 Z M158.749,62.4863658 L152.249,62.4863658 L152.249,68.9863658 L158.749,68.9863658 L158.749,62.4863658 Z M165.749,62.4863658 L159.249,62.4863658 L159.249,68.9863658 L165.749,68.9863658 L165.749,62.4863658 Z M172.749,62.4863658 L166.249,62.4863658 L166.249,68.9863658 L172.749,68.9863658 L172.749,62.4863658 Z M179.749,62.4863658 L173.249,62.4863658 L173.249,68.9863658 L179.749,68.9863658 L179.749,62.4863658 Z M186.749,62.4863658 L180.249,62.4863658 L180.249,68.9863658 L186.749,68.9863658 L186.749,62.4863658 Z M193.749,62.4863658 L187.249,62.4863658 L187.249,68.9863658 L193.749,68.9863658 L193.749,62.4863658 Z M200.749,62.4863658 L194.249,62.4863658 L194.249,68.9863658 L200.749,68.9863658 L200.749,62.4863658 Z M11.749,55.4863658 L5.249,55.4863658 L5.249,61.9863658 L11.749,61.9863658 L11.749,55.4863658 Z M18.749,55.4863658 L12.249,55.4863658 L12.249,61.9863658 L18.749,61.9863658 L18.749,55.4863658 Z M25.749,55.4863658 L19.249,55.4863658 L19.249,61.9863658 L25.749,61.9863658 L25.749,55.4863658 Z M32.749,55.4863658 L26.249,55.4863658 L26.249,61.9863658 L32.749,61.9863658 L32.749,55.4863658 Z M39.749,55.4863658 L33.249,55.4863658 L33.249,61.9863658 L39.749,61.9863658 L39.749,55.4863658 Z M46.749,55.4863658 L40.249,55.4863658 L40.249,61.9863658 L46.749,61.9863658 L46.749,55.4863658 Z M53.749,55.4863658 L47.249,55.4863658 L47.249,61.9863658 L53.749,61.9863658 L53.749,55.4863658 Z M60.749,55.4863658 L54.249,55.4863658 L54.249,61.9863658 L60.749,61.9863658 L60.749,55.4863658 Z M67.749,55.4863658 L61.249,55.4863658 L61.249,61.9863658 L67.749,61.9863658 L67.749,55.4863658 Z M74.749,55.4863658 L68.249,55.4863658 L68.249,61.9863658 L74.749,61.9863658 L74.749,55.4863658 Z M81.749,55.4863658 L75.249,55.4863658 L75.249,61.9863658 L81.749,61.9863658 L81.749,55.4863658 Z M88.749,55.4863658 L82.249,55.4863658 L82.249,61.9863658 L88.749,61.9863658 L88.749,55.4863658 Z M95.749,55.4863658 L89.249,55.4863658 L89.249,61.9863658 L95.749,61.9863658 L95.749,55.4863658 Z M102.749,55.4863658 L96.249,55.4863658 L96.249,61.9863658 L102.749,61.9863658 L102.749,55.4863658 Z M109.749,55.4863658 L103.249,55.4863658 L103.249,61.9863658 L109.749,61.9863658 L109.749,55.4863658 Z M116.749,55.4863658 L110.249,55.4863658 L110.249,61.9863658 L116.749,61.9863658 L116.749,55.4863658 Z M123.749,55.4863658 L117.249,55.4863658 L117.249,61.9863658 L123.749,61.9863658 L123.749,55.4863658 Z M130.749,55.4863658 L124.249,55.4863658 L124.249,61.9863658 L130.749,61.9863658 L130.749,55.4863658 Z M137.749,55.4863658 L131.249,55.4863658 L131.249,61.9863658 L137.749,61.9863658 L137.749,55.4863658 Z M144.749,55.4863658 L138.249,55.4863658 L138.249,61.9863658 L144.749,61.9863658 L144.749,55.4863658 Z M151.749,55.4863658 L145.249,55.4863658 L145.249,61.9863658 L151.749,61.9863658 L151.749,55.4863658 Z M158.749,55.4863658 L152.249,55.4863658 L152.249,61.9863658 L158.749,61.9863658 L158.749,55.4863658 Z M165.749,55.4863658 L159.249,55.4863658 L159.249,61.9863658 L165.749,61.9863658 L165.749,55.4863658 Z M172.749,55.4863658 L166.249,55.4863658 L166.249,61.9863658 L172.749,61.9863658 L172.749,55.4863658 Z M179.749,55.4863658 L173.249,55.4863658 L173.249,61.9863658 L179.749,61.9863658 L179.749,55.4863658 Z M186.749,55.4863658 L180.249,55.4863658 L180.249,61.9863658 L186.749,61.9863658 L186.749,55.4863658 Z M193.749,55.4863658 L187.249,55.4863658 L187.249,61.9863658 L193.749,61.9863658 L193.749,55.4863658 Z M200.749,55.4863658 L194.249,55.4863658 L194.249,61.9863658 L200.749,61.9863658 L200.749,55.4863658 Z M11.749,48.4863658 L5.249,48.4863658 L5.249,54.9863658 L11.749,54.9863658 L11.749,48.4863658 Z M18.749,48.4863658 L12.249,48.4863658 L12.249,54.9863658 L18.749,54.9863658 L18.749,48.4863658 Z M25.749,48.4863658 L19.249,48.4863658 L19.249,54.9863658 L25.749,54.9863658 L25.749,48.4863658 Z M32.749,48.4863658 L26.249,48.4863658 L26.249,54.9863658 L32.749,54.9863658 L32.749,48.4863658 Z M39.749,48.4863658 L33.249,48.4863658 L33.249,54.9863658 L39.749,54.9863658 L39.749,48.4863658 Z M46.749,48.4863658 L40.249,48.4863658 L40.249,54.9863658 L46.749,54.9863658 L46.749,48.4863658 Z M53.749,48.4863658 L47.249,48.4863658 L47.249,54.9863658 L53.749,54.9863658 L53.749,48.4863658 Z M60.749,48.4863658 L54.249,48.4863658 L54.249,54.9863658 L60.749,54.9863658 L60.749,48.4863658 Z M67.749,48.4863658 L61.249,48.4863658 L61.249,54.9863658 L67.749,54.9863658 L67.749,48.4863658 Z M74.749,48.4863658 L68.249,48.4863658 L68.249,54.9863658 L74.749,54.9863658 L74.749,48.4863658 Z M81.749,48.4863658 L75.249,48.4863658 L75.249,54.9863658 L81.749,54.9863658 L81.749,48.4863658 Z M88.749,48.4863658 L82.249,48.4863658 L82.249,54.9863658 L88.749,54.9863658 L88.749,48.4863658 Z M95.749,48.4863658 L89.249,48.4863658 L89.249,54.9863658 L95.749,54.9863658 L95.749,48.4863658 Z M102.749,48.4863658 L96.249,48.4863658 L96.249,54.9863658 L102.749,54.9863658 L102.749,48.4863658 Z M109.749,48.4863658 L103.249,48.4863658 L103.249,54.9863658 L109.749,54.9863658 L109.749,48.4863658 Z M116.749,48.4863658 L110.249,48.4863658 L110.249,54.9863658 L116.749,54.9863658 L116.749,48.4863658 Z M123.749,48.4863658 L117.249,48.4863658 L117.249,54.9863658 L123.749,54.9863658 L123.749,48.4863658 Z M130.749,48.4863658 L124.249,48.4863658 L124.249,54.9863658 L130.749,54.9863658 L130.749,48.4863658 Z M137.749,48.4863658 L131.249,48.4863658 L131.249,54.9863658 L137.749,54.9863658 L137.749,48.4863658 Z M144.749,48.4863658 L138.249,48.4863658 L138.249,54.9863658 L144.749,54.9863658 L144.749,48.4863658 Z M151.749,48.4863658 L145.249,48.4863658 L145.249,54.9863658 L151.749,54.9863658 L151.749,48.4863658 Z M158.749,48.4863658 L152.249,48.4863658 L152.249,54.9863658 L158.749,54.9863658 L158.749,48.4863658 Z M165.749,48.4863658 L159.249,48.4863658 L159.249,54.9863658 L165.749,54.9863658 L165.749,48.4863658 Z M172.749,48.4863658 L166.249,48.4863658 L166.249,54.9863658 L172.749,54.9863658 L172.749,48.4863658 Z M179.749,48.4863658 L173.249,48.4863658 L173.249,54.9863658 L179.749,54.9863658 L179.749,48.4863658 Z M186.749,48.4863658 L180.249,48.4863658 L180.249,54.9863658 L186.749,54.9863658 L186.749,48.4863658 Z M193.749,48.4863658 L187.249,48.4863658 L187.249,54.9863658 L193.749,54.9863658 L193.749,48.4863658 Z M200.749,48.4863658 L194.249,48.4863658 L194.249,54.9863658 L200.749,54.9863658 L200.749,48.4863658 Z M11.749,41.4863658 L5.249,41.4863658 L5.249,47.9863658 L11.749,47.9863658 L11.749,41.4863658 Z M18.749,41.4863658 L12.249,41.4863658 L12.249,47.9863658 L18.749,47.9863658 L18.749,41.4863658 Z M25.749,41.4863658 L19.249,41.4863658 L19.249,47.9863658 L25.749,47.9863658 L25.749,41.4863658 Z M32.749,41.4863658 L26.249,41.4863658 L26.249,47.9863658 L32.749,47.9863658 L32.749,41.4863658 Z M39.749,41.4863658 L33.249,41.4863658 L33.249,47.9863658 L39.749,47.9863658 L39.749,41.4863658 Z M46.749,41.4863658 L40.249,41.4863658 L40.249,47.9863658 L46.749,47.9863658 L46.749,41.4863658 Z M53.749,41.4863658 L47.249,41.4863658 L47.249,47.9863658 L53.749,47.9863658 L53.749,41.4863658 Z M60.749,41.4863658 L54.249,41.4863658 L54.249,47.9863658 L60.749,47.9863658 L60.749,41.4863658 Z M67.749,41.4863658 L61.249,41.4863658 L61.249,47.9863658 L67.749,47.9863658 L67.749,41.4863658 Z M74.749,41.4863658 L68.249,41.4863658 L68.249,47.9863658 L74.749,47.9863658 L74.749,41.4863658 Z M81.749,41.4863658 L75.249,41.4863658 L75.249,47.9863658 L81.749,47.9863658 L81.749,41.4863658 Z M88.749,41.4863658 L82.249,41.4863658 L82.249,47.9863658 L88.749,47.9863658 L88.749,41.4863658 Z M95.749,41.4863658 L89.249,41.4863658 L89.249,47.9863658 L95.749,47.9863658 L95.749,41.4863658 Z M102.749,41.4863658 L96.249,41.4863658 L96.249,47.9863658 L102.749,47.9863658 L102.749,41.4863658 Z M109.749,41.4863658 L103.249,41.4863658 L103.249,47.9863658 L109.749,47.9863658 L109.749,41.4863658 Z M116.749,41.4863658 L110.249,41.4863658 L110.249,47.9863658 L116.749,47.9863658 L116.749,41.4863658 Z M123.749,41.4863658 L117.249,41.4863658 L117.249,47.9863658 L123.749,47.9863658 L123.749,41.4863658 Z M130.749,41.4863658 L124.249,41.4863658 L124.249,47.9863658 L130.749,47.9863658 L130.749,41.4863658 Z M137.749,41.4863658 L131.249,41.4863658 L131.249,47.9863658 L137.749,47.9863658 L137.749,41.4863658 Z M144.749,41.4863658 L138.249,41.4863658 L138.249,47.9863658 L144.749,47.9863658 L144.749,41.4863658 Z M151.749,41.4863658 L145.249,41.4863658 L145.249,47.9863658 L151.749,47.9863658 L151.749,41.4863658 Z M158.749,41.4863658 L152.249,41.4863658 L152.249,47.9863658 L158.749,47.9863658 L158.749,41.4863658 Z M165.749,41.4863658 L159.249,41.4863658 L159.249,47.9863658 L165.749,47.9863658 L165.749,41.4863658 Z M172.749,41.4863658 L166.249,41.4863658 L166.249,47.9863658 L172.749,47.9863658 L172.749,41.4863658 Z M179.749,41.4863658 L173.249,41.4863658 L173.249,47.9863658 L179.749,47.9863658 L179.749,41.4863658 Z M186.749,41.4863658 L180.249,41.4863658 L180.249,47.9863658 L186.749,47.9863658 L186.749,41.4863658 Z M193.749,41.4863658 L187.249,41.4863658 L187.249,47.9863658 L193.749,47.9863658 L193.749,41.4863658 Z M200.749,41.4863658 L194.249,41.4863658 L194.249,47.9863658 L200.749,47.9863658 L200.749,41.4863658 Z M11.749,34.4863658 L5.249,34.4863658 L5.249,40.9863658 L11.749,40.9863658 L11.749,34.4863658 Z M18.749,34.4863658 L12.249,34.4863658 L12.249,40.9863658 L18.749,40.9863658 L18.749,34.4863658 Z M25.749,34.4863658 L19.249,34.4863658 L19.249,40.9863658 L25.749,40.9863658 L25.749,34.4863658 Z M32.749,34.4863658 L26.249,34.4863658 L26.249,40.9863658 L32.749,40.9863658 L32.749,34.4863658 Z M39.749,34.4863658 L33.249,34.4863658 L33.249,40.9863658 L39.749,40.9863658 L39.749,34.4863658 Z M46.749,34.4863658 L40.249,34.4863658 L40.249,40.9863658 L46.749,40.9863658 L46.749,34.4863658 Z M53.749,34.4863658 L47.249,34.4863658 L47.249,40.9863658 L53.749,40.9863658 L53.749,34.4863658 Z M60.749,34.4863658 L54.249,34.4863658 L54.249,40.9863658 L60.749,40.9863658 L60.749,34.4863658 Z M67.749,34.4863658 L61.249,34.4863658 L61.249,40.9863658 L67.749,40.9863658 L67.749,34.4863658 Z M74.749,34.4863658 L68.249,34.4863658 L68.249,40.9863658 L74.749,40.9863658 L74.749,34.4863658 Z M81.749,34.4863658 L75.249,34.4863658 L75.249,40.9863658 L81.749,40.9863658 L81.749,34.4863658 Z M88.749,34.4863658 L82.249,34.4863658 L82.249,40.9863658 L88.749,40.9863658 L88.749,34.4863658 Z M95.749,34.4863658 L89.249,34.4863658 L89.249,40.9863658 L95.749,40.9863658 L95.749,34.4863658 Z M102.749,34.4863658 L96.249,34.4863658 L96.249,40.9863658 L102.749,40.9863658 L102.749,34.4863658 Z M109.749,34.4863658 L103.249,34.4863658 L103.249,40.9863658 L109.749,40.9863658 L109.749,34.4863658 Z M116.749,34.4863658 L110.249,34.4863658 L110.249,40.9863658 L116.749,40.9863658 L116.749,34.4863658 Z M123.749,34.4863658 L117.249,34.4863658 L117.249,40.9863658 L123.749,40.9863658 L123.749,34.4863658 Z M130.749,34.4863658 L124.249,34.4863658 L124.249,40.9863658 L130.749,40.9863658 L130.749,34.4863658 Z M137.749,34.4863658 L131.249,34.4863658 L131.249,40.9863658 L137.749,40.9863658 L137.749,34.4863658 Z M144.749,34.4863658 L138.249,34.4863658 L138.249,40.9863658 L144.749,40.9863658 L144.749,34.4863658 Z M151.749,34.4863658 L145.249,34.4863658 L145.249,40.9863658 L151.749,40.9863658 L151.749,34.4863658 Z M158.749,34.4863658 L152.249,34.4863658 L152.249,40.9863658 L158.749,40.9863658 L158.749,34.4863658 Z M165.749,34.4863658 L159.249,34.4863658 L159.249,40.9863658 L165.749,40.9863658 L165.749,34.4863658 Z M172.749,34.4863658 L166.249,34.4863658 L166.249,40.9863658 L172.749,40.9863658 L172.749,34.4863658 Z M179.749,34.4863658 L173.249,34.4863658 L173.249,40.9863658 L179.749,40.9863658 L179.749,34.4863658 Z M186.749,34.4863658 L180.249,34.4863658 L180.249,40.9863658 L186.749,40.9863658 L186.749,34.4863658 Z M193.749,34.4863658 L187.249,34.4863658 L187.249,40.9863658 L193.749,40.9863658 L193.749,34.4863658 Z M200.749,34.4863658 L194.249,34.4863658 L194.249,40.9863658 L200.749,40.9863658 L200.749,34.4863658 Z M11.749,27.4863658 L5.249,27.4863658 L5.249,33.9863658 L11.749,33.9863658 L11.749,27.4863658 Z M18.749,27.4863658 L12.249,27.4863658 L12.249,33.9863658 L18.749,33.9863658 L18.749,27.4863658 Z M25.749,27.4863658 L19.249,27.4863658 L19.249,33.9863658 L25.749,33.9863658 L25.749,27.4863658 Z M32.749,27.4863658 L26.249,27.4863658 L26.249,33.9863658 L32.749,33.9863658 L32.749,27.4863658 Z M39.749,27.4863658 L33.249,27.4863658 L33.249,33.9863658 L39.749,33.9863658 L39.749,27.4863658 Z M46.749,27.4863658 L40.249,27.4863658 L40.249,33.9863658 L46.749,33.9863658 L46.749,27.4863658 Z M53.749,27.4863658 L47.249,27.4863658 L47.249,33.9863658 L53.749,33.9863658 L53.749,27.4863658 Z M60.749,27.4863658 L54.249,27.4863658 L54.249,33.9863658 L60.749,33.9863658 L60.749,27.4863658 Z M67.749,27.4863658 L61.249,27.4863658 L61.249,33.9863658 L67.749,33.9863658 L67.749,27.4863658 Z M74.749,27.4863658 L68.249,27.4863658 L68.249,33.9863658 L74.749,33.9863658 L74.749,27.4863658 Z M81.749,27.4863658 L75.249,27.4863658 L75.249,33.9863658 L81.749,33.9863658 L81.749,27.4863658 Z M88.749,27.4863658 L82.249,27.4863658 L82.249,33.9863658 L88.749,33.9863658 L88.749,27.4863658 Z M95.749,27.4863658 L89.249,27.4863658 L89.249,33.9863658 L95.749,33.9863658 L95.749,27.4863658 Z M102.749,27.4863658 L96.249,27.4863658 L96.249,33.9863658 L102.749,33.9863658 L102.749,27.4863658 Z M109.749,27.4863658 L103.249,27.4863658 L103.249,33.9863658 L109.749,33.9863658 L109.749,27.4863658 Z M116.749,27.4863658 L110.249,27.4863658 L110.249,33.9863658 L116.749,33.9863658 L116.749,27.4863658 Z M123.749,27.4863658 L117.249,27.4863658 L117.249,33.9863658 L123.749,33.9863658 L123.749,27.4863658 Z M130.749,27.4863658 L124.249,27.4863658 L124.249,33.9863658 L130.749,33.9863658 L130.749,27.4863658 Z M137.749,27.4863658 L131.249,27.4863658 L131.249,33.9863658 L137.749,33.9863658 L137.749,27.4863658 Z M144.749,27.4863658 L138.249,27.4863658 L138.249,33.9863658 L144.749,33.9863658 L144.749,27.4863658 Z M151.749,27.4863658 L145.249,27.4863658 L145.249,33.9863658 L151.749,33.9863658 L151.749,27.4863658 Z M158.749,27.4863658 L152.249,27.4863658 L152.249,33.9863658 L158.749,33.9863658 L158.749,27.4863658 Z M165.749,27.4863658 L159.249,27.4863658 L159.249,33.9863658 L165.749,33.9863658 L165.749,27.4863658 Z M172.749,27.4863658 L166.249,27.4863658 L166.249,33.9863658 L172.749,33.9863658 L172.749,27.4863658 Z M179.749,27.4863658 L173.249,27.4863658 L173.249,33.9863658 L179.749,33.9863658 L179.749,27.4863658 Z M186.749,27.4863658 L180.249,27.4863658 L180.249,33.9863658 L186.749,33.9863658 L186.749,27.4863658 Z M193.749,27.4863658 L187.249,27.4863658 L187.249,33.9863658 L193.749,33.9863658 L193.749,27.4863658 Z M200.749,27.4863658 L194.249,27.4863658 L194.249,33.9863658 L200.749,33.9863658 L200.749,27.4863658 Z M11.749,20.4863658 L5.249,20.4863658 L5.249,26.9863658 L11.749,26.9863658 L11.749,20.4863658 Z M18.749,20.4863658 L12.249,20.4863658 L12.249,26.9863658 L18.749,26.9863658 L18.749,20.4863658 Z M25.749,20.4863658 L19.249,20.4863658 L19.249,26.9863658 L25.749,26.9863658 L25.749,20.4863658 Z M32.749,20.4863658 L26.249,20.4863658 L26.249,26.9863658 L32.749,26.9863658 L32.749,20.4863658 Z M39.749,20.4863658 L33.249,20.4863658 L33.249,26.9863658 L39.749,26.9863658 L39.749,20.4863658 Z M46.749,20.4863658 L40.249,20.4863658 L40.249,26.9863658 L46.749,26.9863658 L46.749,20.4863658 Z M53.749,20.4863658 L47.249,20.4863658 L47.249,26.9863658 L53.749,26.9863658 L53.749,20.4863658 Z M60.749,20.4863658 L54.249,20.4863658 L54.249,26.9863658 L60.749,26.9863658 L60.749,20.4863658 Z M67.749,20.4863658 L61.249,20.4863658 L61.249,26.9863658 L67.749,26.9863658 L67.749,20.4863658 Z M74.749,20.4863658 L68.249,20.4863658 L68.249,26.9863658 L74.749,26.9863658 L74.749,20.4863658 Z M81.749,20.4863658 L75.249,20.4863658 L75.249,26.9863658 L81.749,26.9863658 L81.749,20.4863658 Z M88.749,20.4863658 L82.249,20.4863658 L82.249,26.9863658 L88.749,26.9863658 L88.749,20.4863658 Z M95.749,20.4863658 L89.249,20.4863658 L89.249,26.9863658 L95.749,26.9863658 L95.749,20.4863658 Z M102.749,20.4863658 L96.249,20.4863658 L96.249,26.9863658 L102.749,26.9863658 L102.749,20.4863658 Z M109.749,20.4863658 L103.249,20.4863658 L103.249,26.9863658 L109.749,26.9863658 L109.749,20.4863658 Z M116.749,20.4863658 L110.249,20.4863658 L110.249,26.9863658 L116.749,26.9863658 L116.749,20.4863658 Z M123.749,20.4863658 L117.249,20.4863658 L117.249,26.9863658 L123.749,26.9863658 L123.749,20.4863658 Z M130.749,20.4863658 L124.249,20.4863658 L124.249,26.9863658 L130.749,26.9863658 L130.749,20.4863658 Z M137.749,20.4863658 L131.249,20.4863658 L131.249,26.9863658 L137.749,26.9863658 L137.749,20.4863658 Z M144.749,20.4863658 L138.249,20.4863658 L138.249,26.9863658 L144.749,26.9863658 L144.749,20.4863658 Z M151.749,20.4863658 L145.249,20.4863658 L145.249,26.9863658 L151.749,26.9863658 L151.749,20.4863658 Z M158.749,20.4863658 L152.249,20.4863658 L152.249,26.9863658 L158.749,26.9863658 L158.749,20.4863658 Z M165.749,20.4863658 L159.249,20.4863658 L159.249,26.9863658 L165.749,26.9863658 L165.749,20.4863658 Z M172.749,20.4863658 L166.249,20.4863658 L166.249,26.9863658 L172.749,26.9863658 L172.749,20.4863658 Z M179.749,20.4863658 L173.249,20.4863658 L173.249,26.9863658 L179.749,26.9863658 L179.749,20.4863658 Z M186.749,20.4863658 L180.249,20.4863658 L180.249,26.9863658 L186.749,26.9863658 L186.749,20.4863658 Z M193.749,20.4863658 L187.249,20.4863658 L187.249,26.9863658 L193.749,26.9863658 L193.749,20.4863658 Z M200.749,20.4863658 L194.249,20.4863658 L194.249,26.9863658 L200.749,26.9863658 L200.749,20.4863658 Z M11.749,13.4863658 L5.249,13.4863658 L5.249,19.9863658 L11.749,19.9863658 L11.749,13.4863658 Z M18.749,13.4863658 L12.249,13.4863658 L12.249,19.9863658 L18.749,19.9863658 L18.749,13.4863658 Z M25.749,13.4863658 L19.249,13.4863658 L19.249,19.9863658 L25.749,19.9863658 L25.749,13.4863658 Z M32.749,13.4863658 L26.249,13.4863658 L26.249,19.9863658 L32.749,19.9863658 L32.749,13.4863658 Z M39.749,13.4863658 L33.249,13.4863658 L33.249,19.9863658 L39.749,19.9863658 L39.749,13.4863658 Z M46.749,13.4863658 L40.249,13.4863658 L40.249,19.9863658 L46.749,19.9863658 L46.749,13.4863658 Z M53.749,13.4863658 L47.249,13.4863658 L47.249,19.9863658 L53.749,19.9863658 L53.749,13.4863658 Z M60.749,13.4863658 L54.249,13.4863658 L54.249,19.9863658 L60.749,19.9863658 L60.749,13.4863658 Z M67.749,13.4863658 L61.249,13.4863658 L61.249,19.9863658 L67.749,19.9863658 L67.749,13.4863658 Z M74.749,13.4863658 L68.249,13.4863658 L68.249,19.9863658 L74.749,19.9863658 L74.749,13.4863658 Z M81.749,13.4863658 L75.249,13.4863658 L75.249,19.9863658 L81.749,19.9863658 L81.749,13.4863658 Z M88.749,13.4863658 L82.249,13.4863658 L82.249,19.9863658 L88.749,19.9863658 L88.749,13.4863658 Z M95.749,13.4863658 L89.249,13.4863658 L89.249,19.9863658 L95.749,19.9863658 L95.749,13.4863658 Z M102.749,13.4863658 L96.249,13.4863658 L96.249,19.9863658 L102.749,19.9863658 L102.749,13.4863658 Z M109.749,13.4863658 L103.249,13.4863658 L103.249,19.9863658 L109.749,19.9863658 L109.749,13.4863658 Z M116.749,13.4863658 L110.249,13.4863658 L110.249,19.9863658 L116.749,19.9863658 L116.749,13.4863658 Z M123.749,13.4863658 L117.249,13.4863658 L117.249,19.9863658 L123.749,19.9863658 L123.749,13.4863658 Z M130.749,13.4863658 L124.249,13.4863658 L124.249,19.9863658 L130.749,19.9863658 L130.749,13.4863658 Z M137.749,13.4863658 L131.249,13.4863658 L131.249,19.9863658 L137.749,19.9863658 L137.749,13.4863658 Z M144.749,13.4863658 L138.249,13.4863658 L138.249,19.9863658 L144.749,19.9863658 L144.749,13.4863658 Z M151.749,13.4863658 L145.249,13.4863658 L145.249,19.9863658 L151.749,19.9863658 L151.749,13.4863658 Z M158.749,13.4863658 L152.249,13.4863658 L152.249,19.9863658 L158.749,19.9863658 L158.749,13.4863658 Z M165.749,13.4863658 L159.249,13.4863658 L159.249,19.9863658 L165.749,19.9863658 L165.749,13.4863658 Z M172.749,13.4863658 L166.249,13.4863658 L166.249,19.9863658 L172.749,19.9863658 L172.749,13.4863658 Z M179.749,13.4863658 L173.249,13.4863658 L173.249,19.9863658 L179.749,19.9863658 L179.749,13.4863658 Z M186.749,13.4863658 L180.249,13.4863658 L180.249,19.9863658 L186.749,19.9863658 L186.749,13.4863658 Z M193.749,13.4863658 L187.249,13.4863658 L187.249,19.9863658 L193.749,19.9863658 L193.749,13.4863658 Z M200.749,13.4863658 L194.249,13.4863658 L194.249,19.9863658 L200.749,19.9863658 L200.749,13.4863658 Z M11.749,6.48636583 L5.249,6.48636583 L5.249,12.9863658 L11.749,12.9863658 L11.749,6.48636583 Z M18.749,6.48636583 L12.249,6.48636583 L12.249,12.9863658 L18.749,12.9863658 L18.749,6.48636583 Z M25.749,6.48636583 L19.249,6.48636583 L19.249,12.9863658 L25.749,12.9863658 L25.749,6.48636583 Z M32.749,6.48636583 L26.249,6.48636583 L26.249,12.9863658 L32.749,12.9863658 L32.749,6.48636583 Z M39.749,6.48636583 L33.249,6.48636583 L33.249,12.9863658 L39.749,12.9863658 L39.749,6.48636583 Z M46.749,6.48636583 L40.249,6.48636583 L40.249,12.9863658 L46.749,12.9863658 L46.749,6.48636583 Z M53.749,6.48636583 L47.249,6.48636583 L47.249,12.9863658 L53.749,12.9863658 L53.749,6.48636583 Z M60.749,6.48636583 L54.249,6.48636583 L54.249,12.9863658 L60.749,12.9863658 L60.749,6.48636583 Z M67.749,6.48636583 L61.249,6.48636583 L61.249,12.9863658 L67.749,12.9863658 L67.749,6.48636583 Z M74.749,6.48636583 L68.249,6.48636583 L68.249,12.9863658 L74.749,12.9863658 L74.749,6.48636583 Z M81.749,6.48636583 L75.249,6.48636583 L75.249,12.9863658 L81.749,12.9863658 L81.749,6.48636583 Z M88.749,6.48636583 L82.249,6.48636583 L82.249,12.9863658 L88.749,12.9863658 L88.749,6.48636583 Z M95.749,6.48636583 L89.249,6.48636583 L89.249,12.9863658 L95.749,12.9863658 L95.749,6.48636583 Z M102.749,6.48636583 L96.249,6.48636583 L96.249,12.9863658 L102.749,12.9863658 L102.749,6.48636583 Z M109.749,6.48636583 L103.249,6.48636583 L103.249,12.9863658 L109.749,12.9863658 L109.749,6.48636583 Z M116.749,6.48636583 L110.249,6.48636583 L110.249,12.9863658 L116.749,12.9863658 L116.749,6.48636583 Z M123.749,6.48636583 L117.249,6.48636583 L117.249,12.9863658 L123.749,12.9863658 L123.749,6.48636583 Z M130.749,6.48636583 L124.249,6.48636583 L124.249,12.9863658 L130.749,12.9863658 L130.749,6.48636583 Z M137.749,6.48636583 L131.249,6.48636583 L131.249,12.9863658 L137.749,12.9863658 L137.749,6.48636583 Z M144.749,6.48636583 L138.249,6.48636583 L138.249,12.9863658 L144.749,12.9863658 L144.749,6.48636583 Z M151.749,6.48636583 L145.249,6.48636583 L145.249,12.9863658 L151.749,12.9863658 L151.749,6.48636583 Z M158.749,6.48636583 L152.249,6.48636583 L152.249,12.9863658 L158.749,12.9863658 L158.749,6.48636583 Z M165.749,6.48636583 L159.249,6.48636583 L159.249,12.9863658 L165.749,12.9863658 L165.749,6.48636583 Z M172.749,6.48636583 L166.249,6.48636583 L166.249,12.9863658 L172.749,12.9863658 L172.749,6.48636583 Z M179.749,6.48636583 L173.249,6.48636583 L173.249,12.9863658 L179.749,12.9863658 L179.749,6.48636583 Z M186.749,6.48636583 L180.249,6.48636583 L180.249,12.9863658 L186.749,12.9863658 L186.749,6.48636583 Z M193.749,6.48636583 L187.249,6.48636583 L187.249,12.9863658 L193.749,12.9863658 L193.749,6.48636583 Z M200.749,6.48636583 L194.249,6.48636583 L194.249,12.9863658 L200.749,12.9863658 L200.749,6.48636583 Z" fill="url(#linearGradient-14)" fill-rule="nonzero" opacity="0.200000003" mask="url(#mask-13)"></path>
                    </g>
                </g>
                <g id="编组-82" mask="url(#mask-9)">
                    <g transform="translate(55.000000, 22.000000)" id="编组-81">
                        <g id="椭圆形">
                            <use fill="black" fill-opacity="1" filter="url(#filter-16)" xlink:href="#path-15"></use>
                            <use fill="#FFFFFF" fill-rule="evenodd" xlink:href="#path-15"></use>
                            <use fill="black" fill-opacity="1" filter="url(#filter-17)" xlink:href="#path-15"></use>
                        </g>
                        <g id="形状结合" fill-rule="nonzero">
                            <use fill="black" fill-opacity="1" filter="url(#filter-20)" xlink:href="#path-19"></use>
                            <use fill="url(#linearGradient-18)" xlink:href="#path-19"></use>
                        </g>
                    </g>
                </g>
            </g>
        </g>
    </g>
</svg>