<?xml version="1.0" encoding="UTF-8"?>
<svg width="16px" height="16px" viewBox="0 0 16 16" version="1.1" xmlns="http://www.w3.org/2000/svg" xmlns:xlink="http://www.w3.org/1999/xlink">
    <title>ignore 1</title>
    <g id="ignore-1" stroke="none" stroke-width="1" fill="none" fill-rule="evenodd" fill-opacity="0.7">
        <path d="M7.76132003,3 C10.7672891,3 13.0426925,4.63188524 14.5334455,7.82025298 C14.5953281,7.95260534 14.5962247,8.10540331 14.5358996,8.23847279 C13.0856489,11.4375363 10.8223122,13.0755665 7.8025067,13.0755665 C4.7825876,13.0755665 2.51168495,11.4280921 1.04503974,8.21067073 C0.984875972,8.07868775 0.984991964,7.9270829 1.04535762,7.79519214 C2.49694836,4.62366369 4.75447605,3 7.76132003,3 Z M7.76132003,4 C5.16790484,4 3.25121918,5.37852258 1.95464238,8.21136666 L2.037,8.035 L2.05232003,8.00445361 L2.08825967,8.07885961 C3.35166506,10.6739911 5.15537697,11.9836585 7.54430836,12.0708946 L7.54430836,12.0708946 L7.8025067,12.0755665 C10.4070382,12.0755665 12.3290364,10.684571 13.6251186,7.82558299 L13.52632,8.03545361 L13.4921039,7.9632493 C12.2089376,5.39027149 10.399081,4.09116825 8.01856137,4.00463435 L8.01856137,4.00463435 Z M7.6625028,5.53202789 C9.04321468,5.53202789 10.1625028,6.65131601 10.1625028,8.03202789 C10.1625028,9.41273976 9.04321468,10.5320279 7.6625028,10.5320279 C6.28179093,10.5320279 5.1625028,9.41273976 5.1625028,8.03202789 C5.1625028,6.65131601 6.28179093,5.53202789 7.6625028,5.53202789 Z M7.6625028,6.53202789 C6.83407568,6.53202789 6.1625028,7.20360076 6.1625028,8.03202789 C6.1625028,8.86045501 6.83407568,9.53202789 7.6625028,9.53202789 C8.49092993,9.53202789 9.1625028,8.86045501 9.1625028,8.03202789 C9.1625028,7.20360076 8.49092993,6.53202789 7.6625028,6.53202789 Z" id="形状结合" fill="#000000" fill-rule="nonzero"></path>
    </g>
</svg>