<?xml version="1.0" encoding="UTF-8"?>
<svg width="20px" height="20px" viewBox="0 0 20 20" version="1.1" xmlns="http://www.w3.org/2000/svg" xmlns:xlink="http://www.w3.org/1999/xlink">
    <title>icon/Trace information</title>
    <g id="icon/Trace-information" stroke="none" stroke-width="1" fill="none" fill-rule="evenodd" fill-opacity="0.7">
        <path d="M15,2 C15.5128358,2 15.9355072,2.38604019 15.9932723,2.88337887 L16,3 L16.0003581,6.25212715 C15.6747839,6.16831397 15.3411878,6.10448087 15.0009551,6.06201291 L15,3 L3,3 L3,17 L6.58190884,17.0009677 C6.72205816,17.3470645 6.88572535,17.6811224 7.07092854,18.0011597 L3,18 C2.48716416,18 2.06449284,17.6139598 2.00672773,17.1166211 L2,17 L2,3 C2,2.48716416 2.38604019,2.06449284 2.88337887,2.00672773 L3,2 L15,2 Z M7.07035011,9.99984002 L5.5,10 C5.22385763,10 5,9.77614237 5,9.5 C5,9.22385763 5.22385763,9 5.5,9 L7.75431938,9.00038632 C7.50218721,9.31495041 7.27332717,9.64897192 7.07035011,9.99984002 Z M12.5,5 C12.7761424,5 13,5.22385763 13,5.5 C13,5.77614237 12.7761424,6 12.5,6 L5.5,6 C5.22385763,6 5,5.77614237 5,5.5 C5,5.22385763 5.22385763,5 5.5,5 L12.5,5 Z" id="形状结合" fill="#000000" fill-rule="nonzero"></path>
        <path d="M14,8 C10.6862915,8 8,10.6862915 8,14 C8,17.3137085 10.6862915,20 14,20 C17.3137085,20 20,17.3137085 20,14 C20,10.6862915 17.3137085,8 14,8 Z M14,9 C16.7614237,9 19,11.2385763 19,14 C19,16.7614237 16.7614237,19 14,19 C11.2385763,19 9,16.7614237 9,14 C9,11.2385763 11.2385763,9 14,9 Z" id="椭圆形" fill="#000000" fill-rule="nonzero"></path>
        <path d="M13.999929,11 C14.2760714,11 14.499929,11.2238576 14.499929,11.5 L14.499929,14.009 L16.5,14.0093061 C16.7761424,14.0093061 17,14.2331637 17,14.5093061 C17,14.7854485 16.7761424,15.0093061 16.5,15.0093061 L14.0548284,15.0093061 C14.0147606,15.0093061 13.9757937,15.0045931 13.9384516,14.9956913 L13.999929,15 C13.7237867,15 13.499929,14.7761424 13.499929,14.5 L13.499929,11.5 C13.499929,11.2238576 13.7237867,11 13.999929,11 Z" id="形状结合" fill="#000000" fill-rule="nonzero"></path>
    </g>
</svg>