<?xml version="1.0" encoding="UTF-8"?>
<svg width="320px" height="320px" viewBox="0 0 320 320" version="1.1" xmlns="http://www.w3.org/2000/svg" xmlns:xlink="http://www.w3.org/1999/xlink">
    <title>Illustration/physical_examination/home</title>
    <defs>
        <linearGradient x1="50%" y1="0%" x2="50%" y2="100%" id="linearGradient-1">
            <stop stop-color="#00E2FF" stop-opacity="0.632999447" offset="0%"></stop>
            <stop stop-color="#006AFF" stop-opacity="0.136616313" offset="100%"></stop>
        </linearGradient>
        <filter x="-39.5%" y="-39.5%" width="178.9%" height="178.9%" filterUnits="objectBoundingBox" id="filter-2">
            <feGaussianBlur stdDeviation="30" in="SourceGraphic"></feGaussianBlur>
        </filter>
        <linearGradient x1="-4.51811227%" y1="100%" x2="50%" y2="100%" id="linearGradient-3">
            <stop stop-color="#FFFFFF" stop-opacity="0" offset="0%"></stop>
            <stop stop-color="#02C1FF" offset="100%"></stop>
        </linearGradient>
        <radialGradient cx="50%" cy="50%" fx="50%" fy="50%" r="50%" id="radialGradient-4">
            <stop stop-color="#D0EAFF" offset="0%"></stop>
            <stop stop-color="#16C2FF" offset="100%"></stop>
        </radialGradient>
        <path d="M7.97871054,0 L91.5001265,0 C95.9066466,0 99.478837,3.581722 99.478837,8 L99.478837,74.5015253 C99.478837,78.9198033 95.9066466,82.5015253 91.5001265,82.5015253 L7.97871054,82.5015253 C3.57219039,82.5015253 0,78.9198033 0,74.5015253 L0,8 C0,3.581722 3.57219039,0 7.97871054,0 Z" id="path-5"></path>
        <filter x="-12.1%" y="-12.1%" width="128.1%" height="133.9%" filterUnits="objectBoundingBox" id="filter-6">
            <feOffset dx="2" dy="4" in="SourceAlpha" result="shadowOffsetOuter1"></feOffset>
            <feGaussianBlur stdDeviation="4" in="shadowOffsetOuter1" result="shadowBlurOuter1"></feGaussianBlur>
            <feColorMatrix values="0 0 0 0 0   0 0 0 0 0.392565787   0 0 0 0 1  0 0 0 0.123839052 0" type="matrix" in="shadowBlurOuter1"></feColorMatrix>
        </filter>
        <filter x="-10.1%" y="-9.7%" width="124.1%" height="129.1%" filterUnits="objectBoundingBox" id="filter-7">
            <feGaussianBlur stdDeviation="3" in="SourceAlpha" result="shadowBlurInner1"></feGaussianBlur>
            <feOffset dx="0" dy="-2" in="shadowBlurInner1" result="shadowOffsetInner1"></feOffset>
            <feComposite in="shadowOffsetInner1" in2="SourceAlpha" operator="arithmetic" k2="-1" k3="1" result="shadowInnerInner1"></feComposite>
            <feColorMatrix values="0 0 0 0 0   0 0 0 0 0.604784787   0 0 0 0 1  0 0 0 0.205659453 0" type="matrix" in="shadowInnerInner1"></feColorMatrix>
        </filter>
        <path d="M7.97871054,0 L59.0613753,0 C63.4678954,0 67.0400858,3.581722 67.0400858,8 L67.0400858,48.448412 C67.0400858,52.86669 63.4678954,56.448412 59.0613753,56.448412 L7.97871054,56.448412 C3.57219039,56.448412 0,52.86669 0,48.448412 L0,8 C0,3.581722 3.57219039,0 7.97871054,0 Z" id="path-8"></path>
        <filter x="-16.4%" y="-23.0%" width="138.8%" height="146.1%" filterUnits="objectBoundingBox" id="filter-9">
            <feOffset dx="2" dy="0" in="SourceAlpha" result="shadowOffsetOuter1"></feOffset>
            <feGaussianBlur stdDeviation="4" in="shadowOffsetOuter1" result="shadowBlurOuter1"></feGaussianBlur>
            <feColorMatrix values="0 0 0 0 0   0 0 0 0 0.392565787   0 0 0 0 1  0 0 0 0.123839052 0" type="matrix" in="shadowBlurOuter1"></feColorMatrix>
        </filter>
        <filter x="-14.9%" y="-21.3%" width="135.8%" height="142.5%" filterUnits="objectBoundingBox" id="filter-10">
            <feGaussianBlur stdDeviation="3" in="SourceAlpha" result="shadowBlurInner1"></feGaussianBlur>
            <feOffset dx="0" dy="-2" in="shadowBlurInner1" result="shadowOffsetInner1"></feOffset>
            <feComposite in="shadowOffsetInner1" in2="SourceAlpha" operator="arithmetic" k2="-1" k3="1" result="shadowInnerInner1"></feComposite>
            <feColorMatrix values="0 0 0 0 0   0 0 0 0 0.604784787   0 0 0 0 1  0 0 0 0.205659453 0" type="matrix" in="shadowInnerInner1"></feColorMatrix>
        </filter>
        <linearGradient x1="50%" y1="0%" x2="50%" y2="100%" id="linearGradient-11">
            <stop stop-color="#00BBFF" offset="0%"></stop>
            <stop stop-color="#0083FF" offset="100%"></stop>
        </linearGradient>
        <linearGradient x1="50%" y1="0%" x2="50%" y2="100%" id="linearGradient-12">
            <stop stop-color="#F8FCFF" offset="0%"></stop>
            <stop stop-color="#E3F3FF" offset="100%"></stop>
        </linearGradient>
        <path d="M9.97338818,0 L89.5054488,0 C95.013599,0 99.478837,4.4771525 99.478837,10 L99.478837,81.1858964 C99.478837,86.7087439 95.013599,91.1858964 89.5054488,91.1858964 L9.97338818,91.1858964 C4.46523798,91.1858964 0,86.7087439 0,81.1858964 L0,10 C0,4.4771525 4.46523798,0 9.97338818,0 Z" id="path-13"></path>
        <filter x="-11.1%" y="-9.9%" width="130.2%" height="132.9%" filterUnits="objectBoundingBox" id="filter-14">
            <feOffset dx="4" dy="6" in="SourceAlpha" result="shadowOffsetOuter1"></feOffset>
            <feGaussianBlur stdDeviation="4" in="shadowOffsetOuter1" result="shadowBlurOuter1"></feGaussianBlur>
            <feColorMatrix values="0 0 0 0 0   0 0 0 0 0.604795039   0 0 0 0 1  0 0 0 0.123839052 0" type="matrix" in="shadowBlurOuter1"></feColorMatrix>
        </filter>
        <filter x="-8.0%" y="-6.6%" width="124.1%" height="126.3%" filterUnits="objectBoundingBox" id="filter-15">
            <feGaussianBlur stdDeviation="3" in="SourceAlpha" result="shadowBlurInner1"></feGaussianBlur>
            <feOffset dx="0" dy="-2" in="shadowBlurInner1" result="shadowOffsetInner1"></feOffset>
            <feComposite in="shadowOffsetInner1" in2="SourceAlpha" operator="arithmetic" k2="-1" k3="1" result="shadowInnerInner1"></feComposite>
            <feColorMatrix values="0 0 0 0 0   0 0 0 0 0.604784787   0 0 0 0 1  0 0 0 0.390497808 0" type="matrix" in="shadowInnerInner1"></feColorMatrix>
        </filter>
        <linearGradient x1="44.9039319%" y1="100%" x2="57.5487993%" y2="0%" id="linearGradient-16">
            <stop stop-color="#0074FF" offset="0%"></stop>
            <stop stop-color="#00FFFF" offset="100%"></stop>
        </linearGradient>
        <linearGradient x1="60.9341509%" y1="0%" x2="60.9341509%" y2="105.955681%" id="linearGradient-17">
            <stop stop-color="#52BAFF" offset="0%"></stop>
            <stop stop-color="#006EF9" offset="100%"></stop>
        </linearGradient>
        <path d="M5.05679985,5.4534155e-13 L94.3425965,5.4534155e-13 C97.0250997,5.4534155e-13 99.1996982,2.23857625 99.1996982,5 L99.1996982,26.0531133 L0.199698164,26.0531133 L0.199698164,5 C0.199698164,2.23857625 2.37429666,5.4534155e-13 5.05679985,5.4534155e-13 Z" id="path-18"></path>
        <filter x="-4.0%" y="-15.4%" width="108.1%" height="130.7%" filterUnits="objectBoundingBox" id="filter-19">
            <feGaussianBlur stdDeviation="3" in="SourceAlpha" result="shadowBlurInner1"></feGaussianBlur>
            <feOffset dx="0" dy="2" in="shadowBlurInner1" result="shadowOffsetInner1"></feOffset>
            <feComposite in="shadowOffsetInner1" in2="SourceAlpha" operator="arithmetic" k2="-1" k3="1" result="shadowInnerInner1"></feComposite>
            <feColorMatrix values="0 0 0 0 0.999901831   0 0 0 0 1   0 0 0 0 0.999879897  0 0 0 0.5 0" type="matrix" in="shadowInnerInner1"></feColorMatrix>
        </filter>
        <linearGradient x1="72.2610188%" y1="2.89447447%" x2="21.6191454%" y2="84.8244217%" id="linearGradient-20">
            <stop stop-color="#FFFFFF" stop-opacity="0.979731206" offset="0%"></stop>
            <stop stop-color="#FFFFFF" stop-opacity="0" offset="100%"></stop>
        </linearGradient>
        <filter x="0.0%" y="0.0%" width="100.0%" height="100.0%" filterUnits="objectBoundingBox" id="filter-21">
            <feGaussianBlur stdDeviation="0" in="SourceGraphic"></feGaussianBlur>
        </filter>
    </defs>
    <g id="Illustration/physical_examination/home" stroke="none" stroke-width="1" fill="none" fill-rule="evenodd">
        <g id="编组-2">
            <rect id="矩形" x="0" y="0" width="320" height="320"></rect>
            <circle id="椭圆形" fill="url(#linearGradient-1)" opacity="0.600000024" filter="url(#filter-2)" cx="158.255452" cy="157.330218" r="114"></circle>
            <g id="编组" transform="translate(20.000000, 23.000000)">
                <path d="M138.255452,3.48909657 C63.5851771,3.48909657 3.0529595,64.0213142 3.0529595,138.691589" id="路径" stroke="url(#linearGradient-3)" stroke-width="3" opacity="0.400000006" stroke-linecap="round"></path>
                <path d="M276.074766,3.48909657 C201.404492,3.48909657 140.872274,64.0213142 140.872274,138.691589" id="路径" stroke="url(#linearGradient-3)" stroke-width="3" opacity="0.400000006" stroke-linecap="round" transform="translate(208.473520, 71.090343) rotate(-270.000000) translate(-208.473520, -71.090343) "></path>
                <path d="M276.074766,135.202492 C201.404492,135.202492 140.872274,195.73471 140.872274,270.404984" id="路径" stroke="url(#linearGradient-3)" stroke-width="3" opacity="0.400000006" stroke-linecap="round" transform="translate(208.473520, 202.803738) rotate(-180.000000) translate(-208.473520, -202.803738) "></path>
                <path d="M138.255452,135.202492 C63.5851771,135.202492 3.0529595,195.73471 3.0529595,270.404984" id="路径" stroke="url(#linearGradient-3)" stroke-width="3" opacity="0.400000006" stroke-linecap="round" transform="translate(70.654206, 202.803738) rotate(-90.000000) translate(-70.654206, -202.803738) "></path>
                <circle id="椭圆形" fill="url(#radialGradient-4)" cx="276.510903" cy="141.308411" r="3.48909657"></circle>
                <circle id="椭圆形" fill="url(#radialGradient-4)" cx="137.819315" cy="270.404984" r="3.48909657"></circle>
                <circle id="椭圆形" fill="url(#radialGradient-4)" cx="3.48909657" cy="135.202492" r="3.48909657"></circle>
                <circle id="椭圆形" fill="url(#radialGradient-4)" cx="137.819315" cy="3.48909657" r="3.48909657"></circle>
            </g>
            <g id="编组-3" transform="translate(44.255452, 43.330218)">
                <circle id="椭圆形" fill="url(#linearGradient-1)" opacity="0.600000024" cx="114" cy="114" r="114"></circle>
                <g id="编组-10" transform="translate(29.000000, 45.000000)">
                    <g id="编组-13" transform="translate(43.251668, 0.000000)">
                        <g id="蒙版">
                            <use fill="black" fill-opacity="1" filter="url(#filter-6)" xlink:href="#path-5"></use>
                            <use fill="#FFFFFF" fill-rule="evenodd" xlink:href="#path-5"></use>
                            <use fill="black" fill-opacity="1" filter="url(#filter-7)" xlink:href="#path-5"></use>
                        </g>
                        <path d="M7.97871054,0 L91.5001265,0 C95.9066466,0 99.478837,3.581722 99.478837,8 L99.478837,21.7109277 L0,21.7109277 L0,8 C0,3.581722 3.57219039,0 7.97871054,0 Z" id="矩形备份-5" fill-opacity="0.5" fill="#A7D8FF"></path>
                        <path d="M11.1487286,60.7905976 C13.3519887,60.7905976 15.1380839,62.5814586 15.1380839,64.7905976 L15.1380839,65.4749687 C15.1380839,67.6841077 13.3519887,69.4749687 11.1487286,69.4749687 L10.4771055,69.4749687 C8.27384543,69.4749687 6.48775024,67.6841077 6.48775024,65.4749687 L6.48775024,64.7905976 C6.48775024,62.5814586 8.27384543,60.7905976 10.4771055,60.7905976 L11.1487286,60.7905976 Z M89.0017315,60.7905976 C91.2049916,60.7905976 92.9910868,62.5814586 92.9910868,64.7905976 L92.9910868,65.4749687 C92.9910868,67.6841077 91.2049916,69.4749687 89.0017315,69.4749687 L27.7777728,69.4749687 C25.5745127,69.4749687 23.7884175,67.6841077 23.7884175,65.4749687 L23.7884175,64.7905976 C23.7884175,62.5814586 25.5745127,60.7905976 27.7777728,60.7905976 L89.0017315,60.7905976 Z M11.1487286,45.5929482 C13.3519887,45.5929482 15.1380839,47.3838092 15.1380839,49.5929482 L15.1380839,50.2773193 C15.1380839,52.4864583 13.3519887,54.2773193 11.1487286,54.2773193 L10.4771055,54.2773193 C8.27384543,54.2773193 6.48775024,52.4864583 6.48775024,50.2773193 L6.48775024,49.5929482 C6.48775024,47.3838092 8.27384543,45.5929482 10.4771055,45.5929482 L11.1487286,45.5929482 Z M89.0017315,45.5929482 C91.2049916,45.5929482 92.9910868,47.3838092 92.9910868,49.5929482 L92.9910868,50.2773193 C92.9910868,52.4864583 91.2049916,54.2773193 89.0017315,54.2773193 L27.7777728,54.2773193 C25.5745127,54.2773193 23.7884175,52.4864583 23.7884175,50.2773193 L23.7884175,49.5929482 C23.7884175,47.3838092 25.5745127,45.5929482 27.7777728,45.5929482 L89.0017315,45.5929482 Z M11.1487286,30.3952988 C13.3519887,30.3952988 15.1380839,32.1861598 15.1380839,34.3952988 L15.1380839,35.0796699 C15.1380839,37.2888089 13.3519887,39.0796699 11.1487286,39.0796699 L10.4771055,39.0796699 C8.27384543,39.0796699 6.48775024,37.2888089 6.48775024,35.0796699 L6.48775024,34.3952988 C6.48775024,32.1861598 8.27384543,30.3952988 10.4771055,30.3952988 L11.1487286,30.3952988 Z M89.0017315,30.3952988 C91.2049916,30.3952988 92.9910868,32.1861598 92.9910868,34.3952988 L92.9910868,35.0796699 C92.9910868,37.2888089 91.2049916,39.0796699 89.0017315,39.0796699 L27.7777728,39.0796699 C25.5745127,39.0796699 23.7884175,37.2888089 23.7884175,35.0796699 L23.7884175,34.3952988 C23.7884175,32.1861598 25.5745127,30.3952988 27.7777728,30.3952988 L89.0017315,30.3952988 Z" id="形状" fill="#00AFFF" opacity="0.100000001"></path>
                    </g>
                    <g id="编组-5" transform="translate(103.804004, 51.250763)">
                        <g id="蒙版">
                            <use fill="black" fill-opacity="1" filter="url(#filter-9)" xlink:href="#path-8"></use>
                            <use fill="#FFFFFF" fill-rule="evenodd" xlink:href="#path-8"></use>
                            <use fill="black" fill-opacity="1" filter="url(#filter-10)" xlink:href="#path-8"></use>
                        </g>
                        <path d="M7.97871054,0 L59.0613753,0 C63.4678954,0 67.0400858,3.581722 67.0400858,8 L67.0400858,15.1976494 L0,15.1976494 L0,8 C0,3.581722 3.57219039,0 7.97871054,0 Z" id="矩形备份-5" fill-opacity="0.5" fill="#A7D8FF"></path>
                        <path d="M46.0836831,22.5559046 C46.8141277,21.7290591 48.0747769,21.6524908 48.899422,22.3848843 C49.6606328,23.06094 49.7842555,24.1899731 49.2242558,25.0100065 L49.0699871,25.2081364 L32.4681593,44.0009987 C31.4397352,45.1626508 29.7133636,45.3344211 28.4833181,44.4450545 L28.2442805,44.2530116 L18.1390719,35.258948 C17.3152064,34.5256729 17.2401866,33.2615789 17.9715104,32.4355152 C18.6465784,31.6729948 19.7727382,31.5502465 20.5899916,32.1126149 L20.7874295,32.2675065 L30.1455631,40.596 L46.0836831,22.5559046 Z" id="Path-3" fill="url(#linearGradient-11)" fill-rule="nonzero"></path>
                    </g>
                    <g id="编组-4" transform="translate(0.000000, 51.250763)">
                        <g id="蒙版">
                            <use fill="black" fill-opacity="1" filter="url(#filter-14)" xlink:href="#path-13"></use>
                            <use fill="url(#linearGradient-12)" fill-rule="evenodd" xlink:href="#path-13"></use>
                            <use fill="black" fill-opacity="1" filter="url(#filter-15)" xlink:href="#path-13"></use>
                        </g>
                        <path d="M45.9556871,34.7374843 L62.7441374,34.7451629 L55.2181721,52.6682587 C54.7905307,53.6866872 55.2694583,54.8589585 56.2878868,55.2865999 C56.52744,55.387189 56.7842974,55.440139 57.0441019,55.4424901 L67.0400858,55.5329483 L45.8920796,82.5015253 L50.1856491,65.6426226 C50.4582554,64.572221 49.8115146,63.483498 48.741113,63.2108916 C48.5797963,63.169808 48.4139815,63.1490252 48.2475156,63.1490252 L34.6013346,63.1490252 L45.9556871,34.7374843 Z" id="路径" fill="url(#linearGradient-16)" fill-rule="nonzero" opacity="0.800000012"></path>
                        <g id="矩形备份-3">
                            <use fill="url(#linearGradient-17)" fill-rule="evenodd" xlink:href="#path-18"></use>
                            <use fill="black" fill-opacity="1" filter="url(#filter-19)" xlink:href="#path-18"></use>
                        </g>
                    </g>
                </g>
                <path d="M42.5748605,46.1727297 C61.5058764,26.0058973 88.0935985,16.5418641 113.789063,18.3369774 C90.6896563,21.196993 68.2945936,31.8515505 51.2595988,49.9985896 C28.2732884,74.4854462 20.4518046,106.856119 27.3713018,136.120921 C13.6785586,107.379564 18.5301149,71.7871162 42.5748605,46.1727297 Z" id="形状结合" fill="url(#linearGradient-20)" filter="url(#filter-21)"></path>
            </g>
        </g>
    </g>
</svg>