<?xml version="1.0" encoding="UTF-8"?>
<svg width="260px" height="160px" viewBox="0 0 260 160" version="1.1" xmlns="http://www.w3.org/2000/svg" xmlns:xlink="http://www.w3.org/1999/xlink">
    <title>Illustration/Anti_Virus/home</title>
    <defs>
        <linearGradient x1="37.2085054%" y1="84.7596357%" x2="37.2085054%" y2="62.9564824%" id="linearGradient-1">
            <stop stop-color="#E9ECF0" offset="0%"></stop>
            <stop stop-color="#BECBD9" offset="100%"></stop>
        </linearGradient>
        <linearGradient x1="37.2085054%" y1="129.776111%" x2="37.2085054%" y2="-55.0549596%" id="linearGradient-2">
            <stop stop-color="#E9ECF0" offset="0%"></stop>
            <stop stop-color="#BECBD9" offset="100%"></stop>
        </linearGradient>
        <linearGradient x1="0%" y1="89.5822313%" x2="74.4170108%" y2="89.5822313%" id="linearGradient-3">
            <stop stop-color="#E9ECF0" offset="0%"></stop>
            <stop stop-color="#BECBD9" offset="100%"></stop>
        </linearGradient>
        <rect id="path-4" x="0" y="0" width="137.405628" height="107.924528" rx="11"></rect>
        <linearGradient x1="50%" y1="0%" x2="50%" y2="100%" id="linearGradient-6">
            <stop stop-color="#EEEEEE" offset="0%"></stop>
            <stop stop-color="#595959" offset="0.92069449%"></stop>
            <stop stop-color="#2A2A2A" offset="100%"></stop>
        </linearGradient>
        <ellipse id="path-7" cx="69.92965" cy="-8.58490566" rx="67.475978" ry="18.3962264"></ellipse>
        <filter x="-37.1%" y="-130.5%" width="174.1%" height="371.8%" filterUnits="objectBoundingBox" id="filter-8">
            <feGaussianBlur stdDeviation="12" in="SourceGraphic"></feGaussianBlur>
        </filter>
        <filter x="-43.0%" y="-152.2%" width="186.0%" height="415.3%" filterUnits="objectBoundingBox" id="filter-9">
            <feOffset dx="0" dy="2" in="SourceAlpha" result="shadowOffsetOuter1"></feOffset>
            <feGaussianBlur stdDeviation="7" in="shadowOffsetOuter1" result="shadowBlurOuter1"></feGaussianBlur>
            <feColorMatrix values="0 0 0 0 1   0 0 0 0 1   0 0 0 0 1  0 0 0 0.5 0" type="matrix" in="shadowBlurOuter1"></feColorMatrix>
        </filter>
        <linearGradient x1="50%" y1="0%" x2="50%" y2="98.0639277%" id="linearGradient-10">
            <stop stop-color="#00FF8F" offset="0%"></stop>
            <stop stop-color="#00CA59" offset="100%"></stop>
        </linearGradient>
        <linearGradient x1="50%" y1="0%" x2="50%" y2="98.0639277%" id="linearGradient-11">
            <stop stop-color="#00FF8F" offset="0%"></stop>
            <stop stop-color="#00CA59" offset="100%"></stop>
        </linearGradient>
        <path d="M52.1428202,19.2459752 C52.0619601,18.632682 51.6495801,18.1160968 51.0736766,17.9064279 L32.8894204,12.5510711 C32.1051236,12.268905 31.3581519,12.3055245 30.74706,12.5510711 L12.5627371,17.9064279 C11.9865667,18.1160967 11.5744536,18.6327494 11.4935934,19.2459752 C11.4529296,19.5544426 10.5199329,26.8992594 12.4273915,35.2933648 C13.5609028,40.2812445 15.4680943,44.5999917 18.0964169,48.129766 C21.3497199,52.4988223 25.6986747,55.6423717 31.0258306,57.4790818 C31.4673899,57.659819 31.9501471,57.7424997 32.6102492,57.4790818 C37.9374051,55.6424391 42.2866938,52.4988223 45.5399968,48.129766 C48.1680522,44.5999917 50.075511,40.2812445 51.2090224,35.2933648 C53.1165475,26.8992595 52.1832839,19.5544427 52.1428202,19.2459752 L52.1428202,19.2459752 Z" id="path-12"></path>
        <filter x="-63.1%" y="-48.6%" width="226.3%" height="214.8%" filterUnits="objectBoundingBox" id="filter-13">
            <feOffset dx="0" dy="4" in="SourceAlpha" result="shadowOffsetOuter1"></feOffset>
            <feGaussianBlur stdDeviation="8" in="shadowOffsetOuter1" result="shadowBlurOuter1"></feGaussianBlur>
            <feComposite in="shadowBlurOuter1" in2="SourceAlpha" operator="out" result="shadowBlurOuter1"></feComposite>
            <feColorMatrix values="0 0 0 0 0.811523438   0 0 0 0 0.986726504   0 0 0 0 1  0 0 0 0.501645815 0" type="matrix" in="shadowBlurOuter1"></feColorMatrix>
        </filter>
        <filter x="-41.3%" y="-28.7%" width="182.6%" height="175.1%" filterUnits="objectBoundingBox" id="filter-14">
            <feGaussianBlur stdDeviation="0.5" in="SourceAlpha" result="shadowBlurInner1"></feGaussianBlur>
            <feOffset dx="0" dy="1" in="shadowBlurInner1" result="shadowOffsetInner1"></feOffset>
            <feComposite in="shadowOffsetInner1" in2="SourceAlpha" operator="arithmetic" k2="-1" k3="1" result="shadowInnerInner1"></feComposite>
            <feColorMatrix values="0 0 0 0 1   0 0 0 0 1   0 0 0 0 1  0 0 0 0.5 0" type="matrix" in="shadowInnerInner1" result="shadowMatrixInner1"></feColorMatrix>
            <feGaussianBlur stdDeviation="0.5" in="SourceAlpha" result="shadowBlurInner2"></feGaussianBlur>
            <feOffset dx="0" dy="-1" in="shadowBlurInner2" result="shadowOffsetInner2"></feOffset>
            <feComposite in="shadowOffsetInner2" in2="SourceAlpha" operator="arithmetic" k2="-1" k3="1" result="shadowInnerInner2"></feComposite>
            <feColorMatrix values="0 0 0 0 0   0 0 0 0 0.774277839   0 0 0 0 0.241943318  0 0 0 0.522017045 0" type="matrix" in="shadowInnerInner2" result="shadowMatrixInner2"></feColorMatrix>
            <feMerge>
                <feMergeNode in="shadowMatrixInner1"></feMergeNode>
                <feMergeNode in="shadowMatrixInner2"></feMergeNode>
            </feMerge>
        </filter>
        <linearGradient x1="50%" y1="1.79026897%" x2="50.8612269%" y2="100%" id="linearGradient-15">
            <stop stop-color="#FFFFFF" offset="0%"></stop>
            <stop stop-color="#86FFC1" offset="100%"></stop>
        </linearGradient>
        <linearGradient x1="50%" y1="0%" x2="50%" y2="98.0639277%" id="linearGradient-16">
            <stop stop-color="#00FF8F" offset="0%"></stop>
            <stop stop-color="#00CA59" offset="100%"></stop>
        </linearGradient>
        <path d="M44.7119263,7.45700953 C44.6235577,6.79353775 44.1728852,6.23468649 43.5435051,6.00786291 L23.6707108,0.214340571 C22.8135863,-0.0909118844 21.997253,-0.0512962135 21.3294169,0.214340571 L1.45654973,6.00786287 C0.826877789,6.23468646 0.37649705,6.79361067 0.288128419,7.45700949 C0.243688688,7.7907152 -0.775943499,15.7364716 1.30863628,24.8173674 C2.54740221,30.2133463 4.63169008,34.8854455 7.50407123,38.7040195 C11.0594666,43.4305442 15.812253,46.831293 21.6340734,48.8182794 C22.1166346,49.0138042 22.6442193,49.1032497 23.3656165,48.8182794 C29.1874369,46.8313659 33.9405881,43.4305442 37.4959836,38.7040195 C40.3680726,34.8854455 42.4526526,30.2133463 43.6914186,24.8173674 C45.7760711,15.7364716 44.7561472,7.79071524 44.7119263,7.45700953 L44.7119263,7.45700953 Z" id="path-17"></path>
        <filter x="-34.4%" y="-23.5%" width="168.9%" height="163.3%" filterUnits="objectBoundingBox" id="filter-18">
            <feOffset dx="0" dy="4" in="SourceAlpha" result="shadowOffsetOuter1"></feOffset>
            <feGaussianBlur stdDeviation="4.5" in="shadowOffsetOuter1" result="shadowBlurOuter1"></feGaussianBlur>
            <feColorMatrix values="0 0 0 0 0.811523438   0 0 0 0 0.986726504   0 0 0 0 1  0 0 0 0.392113746 0" type="matrix" in="shadowBlurOuter1"></feColorMatrix>
        </filter>
        <linearGradient x1="50%" y1="0%" x2="50%" y2="98.0639277%" id="linearGradient-19">
            <stop stop-color="#00FF8F" offset="0%"></stop>
            <stop stop-color="#00CA59" offset="100%"></stop>
        </linearGradient>
        <path d="M30.8015492,5.17425151 C30.7406731,4.71388333 30.4302098,4.32610899 29.9966368,4.1687212 L16.3064896,0.14872611 C15.7160261,-0.0630817157 15.1536632,-0.035593291 14.6935983,0.14872611 L1.00340092,4.16872118 C0.569626921,4.32610897 0.259364634,4.71393393 0.198488466,5.17425148 C0.16787443,5.40580239 -0.534538855,10.9191844 0.901504995,17.2202141 C1.75487708,20.9643628 3.19071983,24.2062275 5.16947129,26.8558503 C7.61874366,30.1354796 10.8928854,32.4951829 14.9034728,33.8739082 C15.2359038,34.0095784 15.599351,34.0716426 16.0963136,33.8739082 C20.106901,32.4952335 23.381294,30.1354796 25.8305665,26.8558503 C27.8091167,24.2062275 29.2451606,20.9643628 30.0985328,17.2202141 C31.5346268,10.9191844 30.8320125,5.40580241 30.8015492,5.17425151 L30.8015492,5.17425151 Z" id="path-20"></path>
        <filter x="-50.0%" y="-33.8%" width="200.0%" height="191.2%" filterUnits="objectBoundingBox" id="filter-21">
            <feOffset dx="0" dy="4" in="SourceAlpha" result="shadowOffsetOuter1"></feOffset>
            <feGaussianBlur stdDeviation="4.5" in="shadowOffsetOuter1" result="shadowBlurOuter1"></feGaussianBlur>
            <feColorMatrix values="0 0 0 0 0.811523438   0 0 0 0 0.986726504   0 0 0 0 1  0 0 0 0.392113746 0" type="matrix" in="shadowBlurOuter1"></feColorMatrix>
        </filter>
    </defs>
    <g id="Illustration/Anti_Virus/home" stroke="none" stroke-width="1" fill="none" fill-rule="evenodd">
        <ellipse id="椭圆形" fill-opacity="0.08" fill="#0036AC" cx="140" cy="152.142857" rx="67" ry="1.14285714"></ellipse>
        <g id="编组" transform="translate(68.000000, 21.000000)">
            <path d="M87.5007527,73.0228702 C90.6439533,94.2347836 93.3766142,107.805811 95.6987355,113.735953 C98.0821559,119.822638 103.805547,124.426377 112.868909,127.54717 L31.8977351,127.54717 C39.3815258,126.604939 45.1426321,122.001201 49.181054,113.735953 C51.2124372,109.578417 54.1292129,96.0073894 57.9313809,73.0228702 L87.5007527,73.0228702 Z" id="三角形" fill="url(#linearGradient-1)"></path>
            <rect id="矩形" fill="url(#linearGradient-2)" x="31.8977351" y="125.09434" width="80.9711736" height="4.90566038" rx="2.45283019"></rect>
            <g id="蒙版" transform="translate(2.453672, 0.000000)">
                <mask id="mask-5" fill="white">
                    <use xlink:href="#path-4"></use>
                </mask>
                <use fill="url(#linearGradient-3)" xlink:href="#path-4"></use>
                <polygon id="矩形" fill="url(#linearGradient-6)" mask="url(#mask-5)" points="-1.95399252e-14 -2.66153846 139 -3 139 95.6615385 -2.83582681e-14 96"></polygon>
                <g id="椭圆形" opacity="0.252283732" filter="url(#filter-8)" mask="url(#mask-5)">
                    <use fill="black" fill-opacity="1" filter="url(#filter-9)" xlink:href="#path-7"></use>
                    <use fill="#FFFFFF" fill-rule="evenodd" xlink:href="#path-7"></use>
                </g>
            </g>
        </g>
        <g id="编组-2" transform="translate(28.363636, 31.000000)">
            <path d="M63.2289867,10.6528708 C63.1040209,9.70505392 62.4667064,8.90669499 61.5766738,8.5826613 L33.4737324,0.306200815 C32.2616372,-0.129874121 31.1072265,-0.073280305 30.1628118,0.306200815 L2.05976729,8.58266125 C1.16932213,8.90669494 0.53242007,9.7051581 0.407454329,10.6528707 C0.344610266,11.1295931 -1.09729384,22.4806737 1.85059676,35.4533819 C3.60238696,43.1619233 6.54986476,49.8363507 10.6118179,55.2914565 C15.6396498,62.0436345 22.3607618,66.9018472 30.5936391,69.7403992 C31.2760489,70.0197203 32.0221282,70.1474995 33.042286,69.7403992 C41.2751633,66.9019513 47.9967913,62.0436345 53.0246232,55.2914565 C57.0861633,49.8363507 60.0340541,43.1619233 61.7858445,35.4533819 C64.7338379,22.4806738 63.2915213,11.1295932 63.2289867,10.6528708 L63.2289867,10.6528708 Z" id="path-7" fill="url(#linearGradient-10)" fill-rule="nonzero" opacity="0.400000006"></path>
            <g id="path-7" fill-rule="nonzero">
                <use fill="black" fill-opacity="1" filter="url(#filter-13)" xlink:href="#path-12"></use>
                <use fill="url(#linearGradient-11)" xlink:href="#path-12"></use>
                <use fill="black" fill-opacity="1" filter="url(#filter-14)" xlink:href="#path-12"></use>
                <path stroke-opacity="0.146200967" stroke="#00AE6B" stroke-width="4" d="M31.4343037,14.4336045 C31.6638698,14.3150358 31.9567059,14.3319963 32.2567813,14.4496856 L32.2567813,14.4496856 L50.1865385,19.7300912 C50.331217,21.0240312 50.9247313,27.5189656 49.2587484,34.8501589 C48.1922786,39.5430303 46.4094586,43.6129801 43.9358667,46.9352926 C40.9227002,50.9818552 36.8910128,53.8876741 31.9583654,55.5883022 C26.7450871,53.8876186 22.7137134,50.981855 19.7005538,46.9353017 C17.2266624,43.6129248 15.4441271,39.5429945 14.3776719,34.8501872 C12.7113561,27.517273 13.3053117,21.021059 13.4498136,19.7301096 L13.4498136,19.7301096 Z" stroke-linejoin="square"></path>
            </g>
            <path d="M27.326065,25.7892861 C27.6610528,24.5346825 29.0010039,23.6215686 30.2292925,23.6215686 L34.9959604,23.6215686 C36.224249,23.6215686 36.782562,24.5346825 36.3359116,25.6754562 L34.6597472,30.1 L38.1737391,30.1 C40.6303162,30.1 41.3002918,31.6985679 39.7370154,33.5247956 L28.6404032,47.9156862 C27.858765,48.8288 27.4121146,48.7149701 27.7471024,47.4603665 L30.2292925,36.5784313 L26.3211016,36.5784313 C25.092813,36.5784313 24.4228374,35.6653174 24.7578252,34.4107139 L27.326065,25.7892861 Z" id="path-9" fill="url(#linearGradient-15)"></path>
        </g>
        <g id="编组" transform="translate(191.000000, 31.000000)" fill-rule="nonzero" opacity="0.5">
            <g id="path-7">
                <use fill="black" fill-opacity="1" filter="url(#filter-18)" xlink:href="#path-17"></use>
                <use fill="url(#linearGradient-16)" xlink:href="#path-17"></use>
            </g>
        </g>
        <g id="编组" transform="translate(175.000000, 106.000000)" fill-rule="nonzero" opacity="0.5">
            <g id="path-7">
                <use fill="black" fill-opacity="1" filter="url(#filter-21)" xlink:href="#path-20"></use>
                <use fill="url(#linearGradient-19)" xlink:href="#path-20"></use>
            </g>
        </g>
    </g>
</svg>