<?xml version="1.0" encoding="UTF-8"?>
<svg width="22px" height="23px" viewBox="0 0 22 23" version="1.1" xmlns="http://www.w3.org/2000/svg" xmlns:xlink="http://www.w3.org/1999/xlink">
    <title>防护等级/高</title>
    <defs>
        <filter x="-90.9%" y="-87.0%" width="281.8%" height="273.9%" filterUnits="objectBoundingBox" id="filter-1">
            <feOffset dx="0" dy="4" in="SourceAlpha" result="shadowOffsetOuter1"></feOffset>
            <feGaussianBlur stdDeviation="3" in="shadowOffsetOuter1" result="shadowBlurOuter1"></feGaussianBlur>
            <feColorMatrix values="0 0 0 0 0.26035503   0 0 0 0 1   0 0 0 0 0  0 0 0 0.204992761 0" type="matrix" in="shadowBlurOuter1" result="shadowMatrixOuter1"></feColorMatrix>
            <feMerge>
                <feMergeNode in="shadowMatrixOuter1"></feMergeNode>
                <feMergeNode in="SourceGraphic"></feMergeNode>
            </feMerge>
        </filter>
        <linearGradient x1="50%" y1="0%" x2="50%" y2="100%" id="linearGradient-2">
            <stop stop-color="#55C600" offset="0%"></stop>
            <stop stop-color="#00C3B6" offset="100%"></stop>
        </linearGradient>
        <linearGradient x1="100%" y1="50%" x2="0%" y2="50%" id="linearGradient-3">
            <stop stop-color="#55C600" offset="0%"></stop>
            <stop stop-color="#FFFFFF" offset="100%"></stop>
        </linearGradient>
        <linearGradient x1="50%" y1="0%" x2="50%" y2="154.590221%" id="linearGradient-4">
            <stop stop-color="#ECFFF7" offset="0%"></stop>
            <stop stop-color="#9DFFE4" offset="100%"></stop>
        </linearGradient>
        <linearGradient x1="50%" y1="0%" x2="50%" y2="100%" id="linearGradient-5">
            <stop stop-color="#FFFFFF" offset="0%"></stop>
            <stop stop-color="#E0FFF2" offset="100%"></stop>
        </linearGradient>
    </defs>
    <g id="组件" stroke="none" stroke-width="1" fill="none" fill-rule="evenodd">
        <g id="编组-15" filter="url(#filter-1)" transform="translate(-0.000000, 0.000000)">
            <path d="M0.000214379918,4.73794924 L0.201669206,4.73494716 L0.394529713,4.72706762 L0.616355527,4.71163796 C0.924621855,4.68494684 1.26925923,4.63161323 1.48678857,4.52560183 C1.699712,4.4218351 1.93595925,4.26892335 2.19644948,4.08135158 L2.42568531,3.91242545 L2.66692389,3.72855003 L3.46394237,3.10749857 L3.75447821,2.88409652 L4.05765994,2.65588044 L4.37361618,2.42487739 L4.70247558,2.19311442 C6.32335248,1.07435604 8.40088454,0 11.0004288,0 L11.2670589,0.00379019318 C14.0601819,0.0831824399 16.2363207,1.39573992 17.8800034,2.60939472 L18.1915095,2.84270294 L18.4898542,3.07139491 L19.3072821,3.70831067 L19.5543433,3.89707501 L19.7889241,4.07049178 C20.0553745,4.26302396 20.2966221,4.41983958 20.5136402,4.52560183 C20.7311695,4.63161323 21.0758069,4.68494684 21.3840732,4.71163796 L21.605899,4.72706762 L21.7987596,4.73494716 L22.0002144,4.73794924 C22.0002144,17.4153873 17.5337719,21.2290931 11.1927241,22.9489622 L11,23 C4.55734371,21.3346352 0.000214379918,17.6268139 0.000214379918,4.73794924 Z" id="路径" fill="url(#linearGradient-2)"></path>
            <path d="M0.000428759835,0 L0.267058935,0.00379019318 C3.06018192,0.0831824399 5.23632073,1.39573992 6.88000343,2.60939472 L7.19150948,2.84270294 L7.48985418,3.07139491 L8.30728207,3.70831067 L8.55434328,3.89707501 L8.7889241,4.07049178 C9.05537446,4.26302396 9.29662208,4.41983958 9.51364019,4.52560183 C9.73116953,4.63161323 10.0758069,4.68494684 10.3840732,4.71163796 L10.605899,4.72706762 L10.7987596,4.73494716 L11.0002144,4.73794924 C11.0002144,17.4153873 6.53377193,21.2290931 0.192724094,22.9489622 L-3.55271368e-15,23 L0.000428759835,0 L0.000428759835,0 Z" id="形状结合" fill="url(#linearGradient-3)" opacity="0.3" transform="translate(5.500107, 11.500000) scale(-1, 1) translate(-5.500107, -11.500000) "></path>
            <path d="M1.57164295,5.70395649 L1.74431852,5.70138328 L1.90962752,5.69462939 L2.09976393,5.68140396 C2.36399222,5.65852586 2.65939568,5.61281134 2.8458494,5.52194443 C3.0283552,5.43300151 3.23085284,5.3019343 3.45413018,5.1411585 L3.65061804,4.99636467 L3.85739396,4.83875717 L4.54055266,4.30642734 L4.78958338,4.11493987 L5.04945343,3.91932609 L5.32027307,3.72132348 L5.60215255,3.5226695 C6.99147561,2.56373375 8.77221737,1.64285714 11.0003981,1.64285714 L11.2289383,1.64610588 C13.6230437,1.71415638 15.4883055,2.83920564 16.8971764,3.87948119 L17.1641816,4.07945966 L17.4199056,4.27548135 L18.1205581,4.82140914 L18.3323249,4.98320715 L18.5333941,5.1318501 C18.7617802,5.29687768 18.9685638,5.43129107 19.1545794,5.52194443 C19.3410331,5.61281134 19.6364365,5.65852586 19.9006648,5.68140396 L20.0908012,5.69462939 L20.2561102,5.70138328 L20.4287858,5.70395649 C20.4287858,16.2850065 16.6004066,19.8392226 11.1652227,21.3133961 L11.0000306,21.3571429 C5.4777538,19.9296873 1.57164295,16.1353034 1.57164295,5.70395649 Z" id="路径" stroke="url(#linearGradient-4)" stroke-width="0.8" stroke-linejoin="round"></path>
            <path d="M11.8599397,6.27694342 L11.8592221,10.1867515 L11.8592221,10.1867515 L14.1716268,10.1870855 L11.0581646,15.5013438 C10.9185739,15.7396063 10.6122633,15.8195956 10.3740007,15.6800048 C10.2208538,15.5902807 10.1267535,15.426091 10.1267522,15.2485962 L10.1267221,11.3367515 L10.1267221,11.3367515 L7.81541744,11.337757 L10.9285272,6.02410023 C11.068118,5.7858377 11.3744286,5.70584844 11.6126911,5.8454392 C11.7658675,5.93518055 11.8599723,6.09941455 11.8599397,6.27694342 Z" id="路径" fill="url(#linearGradient-5)"></path>
        </g>
    </g>
</svg>