<?xml version="1.0" encoding="UTF-8"?>
<svg width="20px" height="20px" viewBox="0 0 20 20" version="1.1" xmlns="http://www.w3.org/2000/svg" xmlns:xlink="http://www.w3.org/1999/xlink">
    <title>icon/cookies</title>
    <g id="icon/cookies" stroke="none" stroke-width="1" fill="none" fill-rule="evenodd" fill-opacity="0.7">
        <path d="M17.5839322,13.4600403 C18.2306531,13.8549388 18.2306531,14.7819821 17.592312,15.171868 L17.592312,15.171868 L10.5212442,19.4907345 C10.2012328,19.6861911 9.79876724,19.6861911 9.47875577,19.4907345 L9.47875577,19.4907345 L2.40768796,15.171868 C1.76934693,14.7819821 1.76934693,13.8549388 2.40768796,13.4650529 L2.40768796,13.4650529 L2.41593219,13.4600403 L3.37393219,14.0450403 L2.92893219,14.3184605 L10,18.637327 L17.0710678,14.3184605 L16.6249322,14.0460403 L17.5839322,13.4600403 Z" id="形状结合" fill="#000000" fill-rule="nonzero"></path>
        <path d="M17.5839322,9.4600403 C18.2306531,9.85493884 18.2306531,10.7819821 17.592312,11.171868 L17.592312,11.171868 L10.5212442,15.4907345 C10.2012328,15.6861911 9.79876724,15.6861911 9.47875577,15.4907345 L9.47875577,15.4907345 L2.40768796,11.171868 C1.76934693,10.7819821 1.76934693,9.85493884 2.40768796,9.46505294 L2.40768796,9.46505294 L2.41593219,9.4600403 L3.37393219,10.0450403 L2.92893219,10.3184605 L10,14.637327 L17.0710678,10.3184605 L16.6249322,10.0460403 L17.5839322,9.4600403 Z" id="形状结合" fill="#000000" fill-rule="nonzero"></path>
        <path d="M17.592312,5.46505294 L10.5212442,1.14618644 C10.2012328,0.950729846 9.79876724,0.950729846 9.47875577,1.14618644 L2.40768796,5.46505294 C1.76934693,5.85493884 1.76934693,6.78198214 2.40768796,7.17186805 L9.47875577,11.4907345 C9.79876724,11.6861911 10.2012328,11.6861911 10.5212442,11.4907345 L17.592312,7.17186805 C18.2306531,6.78198214 18.2306531,5.85493884 17.592312,5.46505294 Z M17.0710678,6.31846049 L10,10.637327 L2.92893219,6.31846049 L10,1.99959399 L17.0710678,6.31846049 Z" id="形状" fill="#000000" fill-rule="nonzero"></path>
    </g>
</svg>