<?xml version="1.0" encoding="UTF-8"?>
<svg width="56px" height="56px" viewBox="0 0 56 56" version="1.1" xmlns="http://www.w3.org/2000/svg" xmlns:xlink="http://www.w3.org/1999/xlink">
    <title>ICON/Security_tools/Reliable_protection</title>
    <defs>
        <linearGradient x1="50%" y1="-2.81825888%" x2="50%" y2="100%" id="linearGradient-1">
            <stop stop-color="#FFFFFF" offset="0%"></stop>
            <stop stop-color="#F2F7FF" offset="100%"></stop>
        </linearGradient>
        <linearGradient x1="50%" y1="0.153372107%" x2="50%" y2="99.1548978%" id="linearGradient-2">
            <stop stop-color="#828282" offset="0%"></stop>
            <stop stop-color="#242424" offset="100%"></stop>
        </linearGradient>
        <linearGradient x1="50%" y1="0%" x2="50%" y2="100%" id="linearGradient-3">
            <stop stop-color="#00D9F6" offset="0%"></stop>
            <stop stop-color="#4250FF" offset="100%"></stop>
        </linearGradient>
        <path d="M11.2553635,24.3319428 C11.2100715,24.0840286 11.4007747,23.852801 11.6534565,23.852801 L12.4806317,23.852801 C12.6570322,23.852801 12.8119785,23.9672229 12.8596544,24.136472 C12.9836114,24.5870083 13.3983909,24.920739 13.8870679,24.920739 C14.4758641,24.920739 14.9526222,24.4415971 14.9526222,23.852801 L14.9526222,18.7085816 C14.9526222,18.4868892 15.1314064,18.3081049 15.3530989,18.3081049 L16.1612038,18.3081049 C16.3828963,18.3081049 16.5616806,18.4868892 16.5616806,18.7085816 L16.5616806,23.7765197 C16.5616806,25.0542312 15.6987485,26.2151371 14.4472586,26.4725864 C12.897795,26.7896305 11.5128129,25.7550656 11.2553635,24.3319428 Z M15.7511919,7.5 C16.1869637,7.5 16.5402265,7.85326281 16.5402265,8.28903456 C16.5402265,8.30057369 16.5399788,8.31205497 16.5394884,8.32347336 C21.1318822,8.72298027 24.75,12.58999 24.75,17.2878427 L24.75,17.2878427 L24.75,17.8766389 C23.920441,17.2258641 22.8787247,16.8349225 21.7440405,16.8349225 C20.5187723,16.8349225 19.4031585,17.2902265 18.5473778,18.0363528 C17.7559595,17.4809297 16.7929082,17.1519666 15.7511919,17.1519666 C14.7094756,17.1519666 13.7464243,17.4809297 12.955006,18.0363528 C12.0992253,17.2902265 10.9836114,16.8349225 9.75834327,16.8349225 C8.62127533,16.8349225 7.579559,17.2258641 6.75,17.8766389 L6.75,17.8766389 L6.75,17.2878427 C6.75,12.5922465 10.3702536,8.72322141 14.964336,8.32314899 L14.9621573,8.28903456 C14.9621573,7.85326281 15.3154201,7.5 15.7511919,7.5 Z" id="path-4"></path>
        <filter x="-30.6%" y="-18.4%" width="161.1%" height="157.8%" filterUnits="objectBoundingBox" id="filter-5">
            <feOffset dx="0" dy="2" in="SourceAlpha" result="shadowOffsetOuter1"></feOffset>
            <feGaussianBlur stdDeviation="1.5" in="shadowOffsetOuter1" result="shadowBlurOuter1"></feGaussianBlur>
            <feColorMatrix values="0 0 0 0 0.277117473   0 0 0 0 0.775066792   0 0 0 0 1  0 0 0 0.308991546 0" type="matrix" in="shadowBlurOuter1"></feColorMatrix>
        </filter>
    </defs>
    <g id="ICON/Security_tools/Reliable_protection" stroke="none" stroke-width="1" fill="none" fill-rule="evenodd">
        <rect id="矩形" fill="#FF6969" opacity="0" x="0" y="0" width="56" height="56"></rect>
        <g id="编组-11" transform="translate(12.000000, 10.000000)">
            <path d="M15.6730934,-1.49807357 C21.8534751,-0.849611718 26.1718769,0.013221526 31.0006057,1.48133344 C31.5602597,1.6457344 32.0339003,1.98406471 32.3690131,2.4281331 C32.7088183,2.87841952 32.9060621,3.43744132 32.9054692,4.03139851 C32.9054692,5.53038467 32.9231496,6.93391276 32.9396953,8.24991309 C32.9459537,8.74769202 32.9520545,9.23303101 32.9569306,9.70079305 C32.9768842,11.1105264 32.9953269,12.42193 32.9992446,13.6515139 L32.9992446,13.6515139 L32.9997333,14.3779063 C32.987854,20.1826236 32.5190462,24.1042092 30.409652,27.4962602 C28.4823867,30.5954353 25.1555196,33.281732 19.3033379,36.467472 C17.948898,37.2165205 16.8825301,37.5 15.8032828,37.5 C14.7005371,37.5 13.6588388,37.2178579 12.2837931,36.4471314 C6.42218772,33.1823788 3.08232122,30.3067925 1.13994379,27.0580896 C-1.03881154,23.4140354 -1.4832831,19.2630173 -1.49947074,13.3721107 L-1.49947074,13.3721107 L-1.49967224,12.6518354 C-1.4975155,11.5589155 -1.48500337,10.4049393 -1.47173007,9.1835923 C-1.45407564,7.38672296 -1.43825489,5.77934519 -1.43825489,4.03139854 C-1.43379189,3.43875936 -1.24240752,2.89239702 -0.914299125,2.44806957 C-0.584800421,2.00185934 -0.117529654,1.65854175 0.440376204,1.4840027 C2.62224523,0.806912563 4.96670586,0.166708109 7.45146543,-0.398222812 C9.94410661,-0.976731553 12.71647,-1.34808419 15.6730934,-1.49807357 Z" id="路径" stroke="url(#linearGradient-2)" stroke-width="3" fill="url(#linearGradient-1)"></path>
            <g id="形状结合">
                <use fill="black" fill-opacity="1" filter="url(#filter-5)" xlink:href="#path-4"></use>
                <use fill="url(#linearGradient-3)" fill-rule="evenodd" xlink:href="#path-4"></use>
            </g>
        </g>
    </g>
</svg>