<?xml version="1.0" encoding="UTF-8"?>
<svg width="56px" height="56px" viewBox="0 0 56 56" version="1.1" xmlns="http://www.w3.org/2000/svg" xmlns:xlink="http://www.w3.org/1999/xlink">
    <title>ICON/Security_tools/System_security_level</title>
    <defs>
        <linearGradient x1="50%" y1="-2.81825888%" x2="50%" y2="100%" id="linearGradient-1">
            <stop stop-color="#58C7FF" offset="0%"></stop>
            <stop stop-color="#2D7CFF" offset="100%"></stop>
        </linearGradient>
        <path d="M35.6804852,11.0272937 C35.6599959,9.06590569 35.6219443,6.92219979 35.6219442,4.57265112 C35.6225313,3.98373658 35.2323086,3.46664022 34.667727,3.30818809 C29.2907422,1.67320804 24.4816045,0.714568619 18.0684451,0 L17.8635519,0 C14.6174571,0.164674252 11.5733285,0.570478648 8.83653984,1.20565076 C6.05584548,1.83788225 3.43906569,2.55245091 1.00376284,3.30818809 C0.451928811,3.48083172 0.0744500449,3.99201699 0.0700349574,4.57265112 C0.0700349574,6.69577273 0.0495456304,8.63657643 0.0319833159,10.4332901 C-0.134858312,25.7862235 -0.196326293,31.5233569 14.7608824,39.8541097 C15.9990232,40.548094 16.929824,40.8333333 17.9250198,40.8333333 C18.8997264,40.8333333 19.8539436,40.548094 21.0715951,39.874694 C35.9644087,31.7674276 35.9058678,26.9507058 35.6804852,11.0272937 Z" id="path-2"></path>
        <filter x="-33.6%" y="-22.0%" width="167.2%" height="158.8%" filterUnits="objectBoundingBox" id="filter-4">
            <feOffset dx="0" dy="3" in="SourceAlpha" result="shadowOffsetOuter1"></feOffset>
            <feGaussianBlur stdDeviation="3.5" in="shadowOffsetOuter1" result="shadowBlurOuter1"></feGaussianBlur>
            <feColorMatrix values="0 0 0 0 0   0 0 0 0 0.571047764   0 0 0 0 0.9703922  0 0 0 0.231013371 0" type="matrix" in="shadowBlurOuter1"></feColorMatrix>
        </filter>
        <linearGradient x1="50%" y1="0%" x2="50%" y2="98.5187664%" id="linearGradient-5">
            <stop stop-color="#004AD3" offset="0%"></stop>
            <stop stop-color="#000000" offset="100%"></stop>
        </linearGradient>
        <path d="M18.0833333,9.41666667 C18.6356181,9.41666667 19.0833333,9.86438192 19.0833333,10.4166667 L19.0833333,26.4166667 C19.0833333,26.9689514 18.6356181,27.4166667 18.0833333,27.4166667 C17.5310486,27.4166667 17.0833333,26.9689514 17.0833333,26.4166667 L17.0833333,10.4166667 C17.0833333,9.86438192 17.5310486,9.41666667 18.0833333,9.41666667 Z" id="path-6"></path>
        <filter x="-450.0%" y="-33.3%" width="1000.0%" height="200.0%" filterUnits="objectBoundingBox" id="filter-7">
            <feOffset dx="0" dy="3" in="SourceAlpha" result="shadowOffsetOuter1"></feOffset>
            <feGaussianBlur stdDeviation="2.5" in="shadowOffsetOuter1" result="shadowBlurOuter1"></feGaussianBlur>
            <feColorMatrix values="0 0 0 0 0.101960784   0 0 0 0 0.49427485   0 0 0 0 0.768627451  0 0 0 0.332468313 0" type="matrix" in="shadowBlurOuter1"></feColorMatrix>
        </filter>
        <path d="M26.0833333,9.41666667 C26.6356181,9.41666667 27.0833333,9.86438192 27.0833333,10.4166667 L27.0833333,26.4166667 C27.0833333,26.9689514 26.6356181,27.4166667 26.0833333,27.4166667 C25.5310486,27.4166667 25.0833333,26.9689514 25.0833333,26.4166667 L25.0833333,10.4166667 C25.0833333,9.86438192 25.5310486,9.41666667 26.0833333,9.41666667 Z" id="path-8"></path>
        <filter x="-450.0%" y="-33.3%" width="1000.0%" height="200.0%" filterUnits="objectBoundingBox" id="filter-9">
            <feOffset dx="0" dy="3" in="SourceAlpha" result="shadowOffsetOuter1"></feOffset>
            <feGaussianBlur stdDeviation="2.5" in="shadowOffsetOuter1" result="shadowBlurOuter1"></feGaussianBlur>
            <feColorMatrix values="0 0 0 0 0.101960784   0 0 0 0 0.49427485   0 0 0 0 0.768627451  0 0 0 0.332468313 0" type="matrix" in="shadowBlurOuter1"></feColorMatrix>
        </filter>
        <path d="M10.0833333,9.41666667 C10.6356181,9.41666667 11.0833333,9.86438192 11.0833333,10.4166667 L11.0833333,26.4166667 C11.0833333,26.9689514 10.6356181,27.4166667 10.0833333,27.4166667 C9.53104858,27.4166667 9.08333333,26.9689514 9.08333333,26.4166667 L9.08333333,10.4166667 C9.08333333,9.86438192 9.53104858,9.41666667 10.0833333,9.41666667 Z" id="path-10"></path>
        <filter x="-450.0%" y="-33.3%" width="1000.0%" height="200.0%" filterUnits="objectBoundingBox" id="filter-11">
            <feOffset dx="0" dy="3" in="SourceAlpha" result="shadowOffsetOuter1"></feOffset>
            <feGaussianBlur stdDeviation="2.5" in="shadowOffsetOuter1" result="shadowBlurOuter1"></feGaussianBlur>
            <feColorMatrix values="0 0 0 0 0.101960784   0 0 0 0 0.49427485   0 0 0 0 0.768627451  0 0 0 0.332468313 0" type="matrix" in="shadowBlurOuter1"></feColorMatrix>
        </filter>
        <linearGradient x1="50%" y1="0%" x2="50%" y2="100%" id="linearGradient-12">
            <stop stop-color="#FFFFFF" offset="0%"></stop>
            <stop stop-color="#D0E7FF" offset="100%"></stop>
        </linearGradient>
        <path d="M17.75,9 L20.25,9 C21.2164983,9 22,9.78350169 22,10.75 C22,11.7164983 21.2164983,12.5 20.25,12.5 L17.75,12.5 C16.7835017,12.5 16,11.7164983 16,10.75 C16,9.78350169 16.7835017,9 17.75,9 Z" id="path-13"></path>
        <filter x="-33.3%" y="-28.6%" width="166.7%" height="214.3%" filterUnits="objectBoundingBox" id="filter-14">
            <feOffset dx="0" dy="1" in="SourceAlpha" result="shadowOffsetOuter1"></feOffset>
            <feGaussianBlur stdDeviation="0.5" in="shadowOffsetOuter1" result="shadowBlurOuter1"></feGaussianBlur>
            <feComposite in="shadowBlurOuter1" in2="SourceAlpha" operator="out" result="shadowBlurOuter1"></feComposite>
            <feColorMatrix values="0 0 0 0 0.103672182   0 0 0 0 0.428452917   0 0 0 0 0.858681941  0 0 0 0.347055288 0" type="matrix" in="shadowBlurOuter1"></feColorMatrix>
        </filter>
        <path d="M9.75,5 L12.25,5 C13.2164983,5 14,5.78350169 14,6.75 C14,7.71649831 13.2164983,8.5 12.25,8.5 L9.75,8.5 C8.78350169,8.5 8,7.71649831 8,6.75 C8,5.78350169 8.78350169,5 9.75,5 Z" id="path-15"></path>
        <filter x="-33.3%" y="-28.6%" width="166.7%" height="214.3%" filterUnits="objectBoundingBox" id="filter-16">
            <feOffset dx="0" dy="1" in="SourceAlpha" result="shadowOffsetOuter1"></feOffset>
            <feGaussianBlur stdDeviation="0.5" in="shadowOffsetOuter1" result="shadowBlurOuter1"></feGaussianBlur>
            <feComposite in="shadowBlurOuter1" in2="SourceAlpha" operator="out" result="shadowBlurOuter1"></feComposite>
            <feColorMatrix values="0 0 0 0 0.103672182   0 0 0 0 0.428452917   0 0 0 0 0.858681941  0 0 0 0.347055288 0" type="matrix" in="shadowBlurOuter1"></feColorMatrix>
        </filter>
        <path d="M1.75,0 L4.25,0 C5.21649831,0 6,0.783501688 6,1.75 C6,2.71649831 5.21649831,3.5 4.25,3.5 L1.75,3.5 C0.783501688,3.5 0,2.71649831 0,1.75 C0,0.783501688 0.783501688,0 1.75,0 Z" id="path-17"></path>
        <filter x="-33.3%" y="-28.6%" width="166.7%" height="214.3%" filterUnits="objectBoundingBox" id="filter-18">
            <feOffset dx="0" dy="1" in="SourceAlpha" result="shadowOffsetOuter1"></feOffset>
            <feGaussianBlur stdDeviation="0.5" in="shadowOffsetOuter1" result="shadowBlurOuter1"></feGaussianBlur>
            <feComposite in="shadowBlurOuter1" in2="SourceAlpha" operator="out" result="shadowBlurOuter1"></feComposite>
            <feColorMatrix values="0 0 0 0 0.103672182   0 0 0 0 0.428452917   0 0 0 0 0.858681941  0 0 0 0.347055288 0" type="matrix" in="shadowBlurOuter1"></feColorMatrix>
        </filter>
    </defs>
    <g id="ICON/Security_tools/System_security_level" stroke="none" stroke-width="1" fill="none" fill-rule="evenodd">
        <rect id="矩形" fill="#FF6969" opacity="0" x="0" y="0" width="56" height="56"></rect>
        <g id="矩形备份-30" transform="translate(9.916667, 7.583333)">
            <mask id="mask-3" fill="white">
                <use xlink:href="#path-2"></use>
            </mask>
            <g id="蒙版">
                <use fill="black" fill-opacity="1" filter="url(#filter-4)" xlink:href="#path-2"></use>
                <use fill="url(#linearGradient-1)" fill-rule="evenodd" xlink:href="#path-2"></use>
            </g>
            <g id="矩形备份-2" opacity="0.5" mask="url(#mask-3)">
                <use fill="black" fill-opacity="1" filter="url(#filter-7)" xlink:href="#path-6"></use>
                <use fill="url(#linearGradient-5)" fill-rule="evenodd" xlink:href="#path-6"></use>
            </g>
            <g id="矩形备份-6" opacity="0.5" mask="url(#mask-3)">
                <use fill="black" fill-opacity="1" filter="url(#filter-9)" xlink:href="#path-8"></use>
                <use fill="url(#linearGradient-5)" fill-rule="evenodd" xlink:href="#path-8"></use>
            </g>
            <g id="矩形备份-4" opacity="0.5" mask="url(#mask-3)">
                <use fill="black" fill-opacity="1" filter="url(#filter-11)" xlink:href="#path-10"></use>
                <use fill="url(#linearGradient-5)" fill-rule="evenodd" xlink:href="#path-10"></use>
            </g>
            <g id="编组" mask="url(#mask-3)" fill-rule="nonzero">
                <g transform="translate(7.083333, 12.166667)" id="矩形备份-7">
                    <g>
                        <use fill="black" fill-opacity="1" filter="url(#filter-14)" xlink:href="#path-13"></use>
                        <use fill="url(#linearGradient-12)" xlink:href="#path-13"></use>
                    </g>
                    <g>
                        <use fill="black" fill-opacity="1" filter="url(#filter-16)" xlink:href="#path-15"></use>
                        <use fill="url(#linearGradient-12)" xlink:href="#path-15"></use>
                    </g>
                    <g>
                        <use fill="black" fill-opacity="1" filter="url(#filter-18)" xlink:href="#path-17"></use>
                        <use fill="url(#linearGradient-12)" xlink:href="#path-17"></use>
                    </g>
                </g>
            </g>
        </g>
    </g>
</svg>