<svg xmlns="http://www.w3.org/2000/svg" width="16" height="16" viewBox="0 0 16 16">
  <path fill="#626E88" d="M5.942,0 L5.94290386,3.66178349 C5.94290386,4.38949986 6.49813274,4.98753559 7.20807452,5.05537468 L7.34290386,5.06178349 L7.58034402,5.06178349 C8.3080604,5.06178349 8.90609612,4.50655461 8.97393521,3.79661283 L8.98034402,3.66178349 L8.98,0 L9.38454652,0.000166107892 C9.70069749,0.000166107892 9.98719468,0.186352925 10.1155958,0.475255335 L11.7399384,4.1300264 C11.8433592,4.36272301 11.8298225,4.63075542 11.7034837,4.85184832 L10.1347815,7.59707726 C9.99234719,7.84633726 9.72727244,8.00016611 9.44018696,8.00016611 L8.954,8 L9.39716412,15.3032079 C9.45062091,16.1852451 8.7789238,16.9436128 7.89688662,16.9970696 C7.86465954,16.9990228 7.83238073,17 7.80009452,17 L7.19990548,17 C6.31624988,17 5.59990548,16.2836556 5.59990548,15.4 C5.59990548,15.3677138 5.60088273,15.335435 5.60283588,15.3032079 L6.045,8 L5.36870301,8.00016611 C5.08161754,8.00016611 4.81654279,7.84633726 4.6741085,7.59707726 L3.10540625,4.85184832 C2.97906745,4.63075542 2.96553081,4.36272301 3.06895153,4.1300264 L4.69329422,0.475255335 C4.82169529,0.186352925 5.10819248,0.000166107892 5.42434346,0.000166107892 L5.942,0 Z" transform="rotate(45 7.404 8.5)"/>
</svg>
