<svg xmlns="http://www.w3.org/2000/svg" width="16" height="16" viewBox="0 0 16 16">
 <defs>
  <style id="current-color-scheme" type="text/css">
   .ColorScheme-Text { color:#536076; } .ColorScheme-Highlight { color:#ffffff; }
  </style>
 </defs>
 <path style="fill:currentColor" class="ColorScheme-Text" d="M12,2 C13.6568542,2 15,3.34314575 15,5 L15,11 C15,12.6568542 13.6568542,14 12,14 L4,14 C2.34314575,14 1,12.6568542 1,11 L1,5 C1,3.34314575 2.34314575,2 4,2 L12,2 Z M9.87634166,6.17040501 C9.66623838,5.92840509 9.27061423,5.94269082 9.08397485,6.2226499 L9.08397485,6.2226499 L7.72024506,9.04429842 L7.67625184,9.11909116 C7.55039412,9.29430517 7.3613981,9.27591071 7.23410064,9.07009862 L7.23410064,9.07009862 L6.35355339,7.64644661 L6.2840211,7.58833113 C6.06443446,7.4361843 5.75475977,7.4831038 5.59313326,7.7093809 L5.59313326,7.7093809 L3.09313326,11.2093809 L3.04960864,11.2820516 C2.89141423,11.6036387 3.12236274,11.9999975 3.5,11.9999975 L3.5,11.9999975 L12.5,11.9999975 L12.5869175,11.9927055 C12.9229754,11.9353061 13.1133225,11.5503788 12.9287465,11.2427521 L12.9287465,11.2427521 L9.92874646,6.24275212 Z M4.5,4 C3.67157288,4 3,4.67157288 3,5.5 C3,6.32842712 3.67157288,7 4.5,7 C5.32842712,7 6,6.32842712 6,5.5 C6,4.67157288 5.32842712,4 4.5,4 Z"/>
</svg>
