<svg xmlns="http://www.w3.org/2000/svg" width="16" height="16" viewBox="0 0 16 16">
 <defs>
  <style id="current-color-scheme" type="text/css">
   .ColorScheme-Text { color:#536076; } .ColorScheme-Highlight { color:#ffffff; }
  </style>
 </defs>
 <path style="fill:currentColor" class="ColorScheme-Text" d="M9.23315918,1.48851165 L14.6061914,5.69191751 C14.8547575,5.88637457 15,6.18440748 15,6.5 C15,6.77614237 14.7761424,7 14.5,7 L14.0010066,7 L14.0010065,13 C14.0010065,14.1045695 13.105576,15 12.0010065,15 L4.00100658,15 C2.89653535,14.9997483 2.00114556,14.1044712 2.00075493,13 L2,7 L1.5,7 C1.22385763,7 1,6.77614237 1,6.5 C1,6.18441313 1.14526279,5.88639135 1.39385154,5.69197246 L6.76871904,1.48833971 C7.49266243,0.922150467 8.50929479,0.922221395 9.23315918,1.48851165 Z M8,6 C6.34314575,6 5,7.34314575 5,9 L5,9 L5,11.5 C5,11.7761424 5.22385763,12 5.5,12 C5.77614237,12 6,11.7761424 6,11.5 L6,11.5 L6,9 C6,7.8954305 6.8954305,7 8,7 C9.1045695,7 10,7.8954305 10,9 L10,9 L10,11.5 C10,11.7761424 10.2238576,12 10.5,12 C10.7761424,12 11,11.7761424 11,11.5 L11,11.5 L11,9 C11,7.34314575 9.65685425,6 8,6 Z"/>
</svg>
