<svg id="安装程序" xmlns="http://www.w3.org/2000/svg" xmlns:xlink="http://www.w3.org/1999/xlink" viewBox="0 0 32 32"><defs><style>.cls-1{fill:url(#未命名的渐变_26);}.cls-2,.cls-3{fill:#f9f9f9;}.cls-2{fill-rule:evenodd;}</style><linearGradient id="未命名的渐变_26" x1="23.5" y1="28.99" x2="8.5" y2="3.01" gradientUnits="userSpaceOnUse"><stop offset="0" stop-color="#dd4814"/><stop offset="1" stop-color="#dd7514"/></linearGradient></defs><g id="_32" data-name="32"><circle class="cls-1" cx="16" cy="16" r="15"/><polygon class="cls-2" points="15.24 14.62 16.02 13.57 15.73 12.43 16.25 10.93 15.04 12.16 14.87 12.12 15.19 11.35 14.06 12.48 12.97 13.15 11.84 15.26 12.46 16.84 12.68 18.04 12.93 18.66 12.04 19.71 13.27 19.71 13.44 18.61 13.93 17.84 14.75 17.99 15.66 17.62 16.34 17.28 17.01 17.72 16.22 18.66 15.41 19.39 16.66 19.42 16.66 18.93 17.65 18.16 17.99 18.58 16.98 20.03 18.26 20.03 18.21 19.32 19.15 18.46 18.68 17.5 18.61 16.34 19.57 15.8 20.08 15.9 20.82 15.66 21.02 14.18 19.91 14.53 19.22 15.53 18.04 16.15 16.42 15.48 15.24 14.62"/><circle class="cls-3" cx="21.5" cy="6.5" r="2.5"/><circle class="cls-3" cx="5.5" cy="15.5" r="2.5"/><circle class="cls-3" cx="21.5" cy="25.5" r="2.5"/><path class="cls-3" d="M12.72,21a6,6,0,0,1,.06-10.08L10.72,7.51a10.07,10.07,0,0,0-4,4.73,3.48,3.48,0,0,1-.32,6.62,10,10,0,0,0,4.08,5.49Z"/><path class="cls-3" d="M13.67,10.47a6,6,0,0,1,8.3,5h4a10,10,0,0,0-2.5-6.12,3.45,3.45,0,0,1-2,.62A3.5,3.5,0,0,1,18,6.5a2.85,2.85,0,0,1,0-.29A9.71,9.71,0,0,0,16,6a10,10,0,0,0-4.4,1Z"/><path class="cls-3" d="M22,16.5a6,6,0,0,1-8.37,5l-2.24,3.36A10,10,0,0,0,16,26a9.71,9.71,0,0,0,2-.21,2.85,2.85,0,0,1,0-.29A3.5,3.5,0,0,1,21.5,22a3.45,3.45,0,0,1,2,.62A10,10,0,0,0,26,16.5Z"/></g></svg>