<?xml version="1.0" encoding="UTF-8"?>
<svg width="362px" height="552px" viewBox="0 0 362 552" version="1.1" xmlns="http://www.w3.org/2000/svg" xmlns:xlink="http://www.w3.org/1999/xlink">
    <title>文件信息</title>
    <defs>
        <rect id="path-1" x="0" y="0" width="280" height="470" rx="18"></rect>
        <filter x="-25.4%" y="-10.9%" width="150.7%" height="130.2%" filterUnits="objectBoundingBox" id="filter-2">
            <feMorphology radius="1" operator="dilate" in="SourceAlpha" result="shadowSpreadOuter1"></feMorphology>
            <feOffset dx="0" dy="20" in="shadowSpreadOuter1" result="shadowOffsetOuter1"></feOffset>
            <feGaussianBlur stdDeviation="20" in="shadowOffsetOuter1" result="shadowBlurOuter1"></feGaussianBlur>
            <feComposite in="shadowBlurOuter1" in2="SourceAlpha" operator="out" result="shadowBlurOuter1"></feComposite>
            <feColorMatrix values="0 0 0 0 0   0 0 0 0 0   0 0 0 0 0  0 0 0 0.2 0" type="matrix" in="shadowBlurOuter1"></feColorMatrix>
        </filter>
    </defs>
    <g id="概览" stroke="none" stroke-width="1" fill="none" fill-rule="evenodd">
        <g id="V23控件-浅色" transform="translate(-877.000000, -9445.000000)">
            <g id="编组-58" transform="translate(200.000000, 8990.000000)">
                <g id="文件信息" transform="translate(718.000000, 476.000000)">
                    <g id="矩形">
                        <use fill="black" fill-opacity="1" filter="url(#filter-2)" xlink:href="#path-1"></use>
                        <rect stroke-opacity="0.05" stroke="#000000" stroke-width="1" fill-opacity="0.8" fill="#F7F7F7" fill-rule="evenodd" x="-0.5" y="-0.5" width="281" height="471" rx="18"></rect>
                    </g>
                    <g id="编组" transform="translate(230.000000, 0.000000)" fill="#000000" fill-opacity="0.7" fill-rule="nonzero">
                        <g id="close_normal" transform="translate(19.444365, 19.444365)">
                            <polygon id="Combined-Shape" points="10.7480231 4.51401584e-18 11.5965512 0.848528137 6.64680374 5.79827561 11.5965512 10.7480231 10.7480231 11.5965512 5.79827561 6.64680374 0.848528137 11.5965512 -1.99205481e-17 10.7480231 4.94974747 5.79827561 -1.99205481e-17 0.848528137 0.848528137 2.50112255e-12 5.79827561 4.94974747"></polygon>
                        </g>
                    </g>
                    <g id="基本信息" transform="translate(10.000000, 50.000000)">
                        <g id="InfoGroup/Top" transform="translate(0.000000, 28.000000)" fill="#000000">
                            <path d="M8,0 L252,0 C256.418278,-8.11624501e-16 260,3.581722 260,8 L260,40 L260,40 L0,40 L0,8 C-5.41083001e-16,3.581722 3.581722,8.11624501e-16 8,0 Z" id="Bg" fill-opacity="0.05"></path>
                            <g id="编组" transform="translate(10.000000, 3.000000)" font-family="SourceHanSansSC-Medium, Source Han Sans SC" font-weight="400">
                                <g id="DTK/Property/INFO/Light">
                                    <text id="添加日期" opacity="0.600000024" font-size="10" fill-opacity="0.6">
                                        <tspan x="0" y="12.2419355">文件名</tspan>
                                    </text>
                                    <text id="2014年4月23日-下午5：28" font-size="12">
                                        <tspan x="0" y="28.7258065">IMG1234.jpg</tspan>
                                    </text>
                                </g>
                            </g>
                            <g id="编组" transform="translate(236.000000, 19.000000)" fill-opacity="0.7" fill-rule="nonzero">
                                <g id="ICON/Action/Edit">
                                    <path d="M4.53498122,14.3543282 L1.36500066,14.9939211 C1.20002728,15.027207 1.03930634,14.9204533 1.00602039,14.7554799 C0.997994845,14.7157033 0.997994381,14.6747244 1.00601903,14.6349476 L1.64563068,11.4645037 L1.64563068,11.4645037 L9.78287855,3.32783386 C10.0208761,3.08981317 10.4067651,3.08982688 10.6447658,3.32784445 C10.6447725,3.32785113 10.6447791,3.3278578 10.6447658,3.3278845 L12.6727876,5.3562389 C12.9107827,5.59426201 12.9107511,5.98015104 12.6727225,6.21814065 C12.6727206,6.21814249 12.6727188,6.21814433 12.6727114,6.21814065 L4.53498122,14.3543282 L4.53498122,14.3543282 Z M14.8215301,3.20599807 L12.7932276,1.17843221 C12.5551726,0.940472305 12.1692869,0.940540466 11.931316,1.17858446 L11.3628747,1.7472209 C11.1251112,1.98536056 11.1251115,2.3711361 11.3628755,2.60927533 L13.3909731,4.63806189 C13.6286418,4.87641129 14.0145308,4.87647683 14.2525804,4.63850813 C14.2526804,4.63840814 14.2527804,4.63830812 14.2525803,4.63790832 L14.8218352,4.06805383 C15.0595124,3.82982901 15.0593759,3.44405456 14.8215301,3.20599807 Z" id="形状"></path>
                                </g>
                            </g>
                        </g>
                        <g id="DTK/Property/INFO-Title/Light" transform="translate(10.000000, 0.000000)">
                            <text id="基本信息" font-family="SourceHanSansSC-Medium, Source Han Sans SC" font-size="16" font-weight="400" fill="#000000">
                                <tspan x="0" y="19">基本信息</tspan>
                            </text>
                            <g id="编组" transform="translate(224.000000, 4.000000)">
                                <g id="下拉箭头-2" transform="translate(8.000000, 8.000000) scale(1, -1) translate(-8.000000, -8.000000) ">
                                    <circle id="椭圆形" fill-opacity="0.2" fill="#FFFFFF" cx="8" cy="8" r="8"></circle>
                                    <g id="编组" transform="translate(2.000000, 2.000000)" fill="#000000" fill-opacity="0.7" fill-rule="nonzero">
                                        <g id="ICON/Arrow" transform="translate(6.000000, 6.000000) scale(-1, 1) rotate(-90.000000) translate(-6.000000, -6.000000) ">
                                            <path d="M7.62598722,1.22688911 C7.94031165,0.924370296 8.44993225,0.924370296 8.76425668,1.22688911 C9.04365617,1.49579473 9.07470056,1.91321282 8.85738984,2.2151212 L8.76425668,2.32240666 L4.94195122,6 L8.76425668,9.67759334 C9.04365617,9.94649895 9.07470056,10.363917 8.85738984,10.6658254 L8.76425668,10.7731109 C8.48485718,11.0420165 8.05114961,11.0718949 7.73745943,10.8627461 L7.62598722,10.7731109 L3.23574332,6.54775877 C2.95634383,6.27885316 2.92529944,5.86143507 3.14261016,5.55952669 L3.23574332,5.45224123 L7.62598722,1.22688911 Z" id="arrow"></path>
                                        </g>
                                    </g>
                                </g>
                            </g>
                        </g>
                        <g id="编组" transform="translate(0.000000, 69.000000)" fill="#000000">
                            <polygon id="矩形" fill-opacity="0.05" points="0 0 66 0 66 40 0 40"></polygon>
                            <polygon id="矩形" fill-opacity="0.05" points="67 0 173 0 173 40 67 40"></polygon>
                            <polygon id="矩形" fill-opacity="0.05" points="174 0 260 0 260 40 174 40"></polygon>
                            <g transform="translate(77.000000, 3.000000)" font-family="SourceHanSansSC-Medium, Source Han Sans SC" font-weight="400" id="DTK/Property/INFO/Light">
                                <g>
                                    <text id="添加日期" opacity="0.600000024" font-size="10" fill-opacity="0.6">
                                        <tspan x="0" y="12">快门</tspan>
                                    </text>
                                    <text id="2014年4月23日-下午5：28" font-size="12">
                                        <tspan x="0" y="28">1/500s</tspan>
                                    </text>
                                </g>
                            </g>
                            <g transform="translate(10.000000, 3.000000)" font-family="SourceHanSansSC-Medium, Source Han Sans SC" font-weight="400" id="DTK/Property/INFO/Light">
                                <g>
                                    <text id="添加日期" opacity="0.600000024" font-size="10" fill-opacity="0.6">
                                        <tspan x="0" y="12">光圈</tspan>
                                    </text>
                                    <text id="2014年4月23日-下午5：28" font-size="12">
                                        <tspan x="0" y="28">f2.8</tspan>
                                    </text>
                                </g>
                            </g>
                            <g transform="translate(184.000000, 3.000000)" font-family="SourceHanSansSC-Medium, Source Han Sans SC" font-weight="400" id="DTK/Property/INFO/Light">
                                <g>
                                    <text id="添加日期" opacity="0.600000024" font-size="10" fill-opacity="0.6">
                                        <tspan x="0" y="12">ISO</tspan>
                                    </text>
                                    <text id="2014年4月23日-下午5：28" font-size="12">
                                        <tspan x="0" y="28">200</tspan>
                                    </text>
                                </g>
                            </g>
                        </g>
                        <g id="编组" transform="translate(0.000000, 110.000000)" fill="#000000">
                            <path d="M0,0 L66,0 L66,40 L8,40 C3.581722,40 5.41083001e-16,36.418278 0,32 L0,0 L0,0 Z" id="矩形" fill-opacity="0.05"></path>
                            <polygon id="矩形" fill-opacity="0.05" points="67 0 173 0 173 40 67 40"></polygon>
                            <path d="M174,0 L260,0 L260,32 C260,36.418278 256.418278,40 252,40 L174,40 L174,40 L174,0 Z" id="矩形" fill-opacity="0.05"></path>
                            <g transform="translate(77.000000, 3.000000)" font-family="SourceHanSansSC-Medium, Source Han Sans SC" font-weight="400" id="DTK/Property/INFO/Light">
                                <g>
                                    <text id="添加日期" opacity="0.600000024" font-size="10" fill-opacity="0.6">
                                        <tspan x="0" y="12">分辨率</tspan>
                                    </text>
                                    <text id="2014年4月23日-下午5：28" font-size="12">
                                        <tspan x="0" y="28">8000X6000</tspan>
                                    </text>
                                </g>
                            </g>
                            <g transform="translate(10.000000, 3.000000)" font-family="SourceHanSansSC-Medium, Source Han Sans SC" font-weight="400" id="DTK/Property/INFO/Light">
                                <g>
                                    <text id="添加日期" opacity="0.600000024" font-size="10" fill-opacity="0.6">
                                        <tspan x="0" y="12">大小</tspan>
                                    </text>
                                    <text id="2014年4月23日-下午5：28" font-size="12">
                                        <tspan x="0" y="28">16.8M</tspan>
                                    </text>
                                </g>
                            </g>
                            <g transform="translate(184.000000, 3.000000)" font-family="SourceHanSansSC-Medium, Source Han Sans SC" font-weight="400" id="DTK/Property/INFO/Light">
                                <g>
                                    <text id="添加日期" opacity="0.600000024" font-size="10" fill-opacity="0.6">
                                        <tspan x="0" y="12">白平衡</tspan>
                                    </text>
                                    <text id="2014年4月23日-下午5：28" font-size="12">
                                        <tspan x="0" y="28">自动</tspan>
                                    </text>
                                </g>
                            </g>
                        </g>
                        <g id="编组-9" transform="translate(0.000000, 160.000000)" fill="#000000">
                            <path d="M8,0 L252,0 C256.418278,-8.11624501e-16 260,3.581722 260,8 L260,40 L260,40 L0,40 L0,8 C-5.41083001e-16,3.581722 3.581722,8.11624501e-16 8,0 Z" id="矩形" fill-opacity="0.05"></path>
                            <g id="编组" transform="translate(10.000000, 3.000000)" font-family="SourceHanSansSC-Medium, Source Han Sans SC" font-weight="400">
                                <g id="DTK/Property/INFO/Light">
                                    <text id="添加日期" opacity="0.600000024" font-size="10" fill-opacity="0.6">
                                        <tspan x="0" y="12">拍摄日期</tspan>
                                    </text>
                                    <text id="2014年4月23日-下午5：28" font-size="12">
                                        <tspan x="0" y="28">2021年5月31日 下午3：27</tspan>
                                    </text>
                                </g>
                            </g>
                        </g>
                        <g id="编组-10" transform="translate(0.000000, 201.000000)" fill="#000000">
                            <path d="M0,0 L260,0 L260,32 C260,36.418278 256.418278,40 252,40 L8,40 C3.581722,40 5.41083001e-16,36.418278 0,32 L0,0 L0,0 Z" id="矩形" fill-opacity="0.05"></path>
                            <g id="编组" transform="translate(10.000000, 2.000000)" font-family="SourceHanSansSC-Medium, Source Han Sans SC" font-weight="400">
                                <g id="DTK/Property/INFO/Light">
                                    <text id="添加日期" opacity="0.600000024" font-size="10" fill-opacity="0.6">
                                        <tspan x="0" y="12">修改日期</tspan>
                                    </text>
                                    <text id="2014年4月23日-下午5：28" font-size="12">
                                        <tspan x="0" y="28">2021年6月2日 上午9：37</tspan>
                                    </text>
                                </g>
                            </g>
                        </g>
                    </g>
                    <g id="编组-53" transform="translate(10.000000, 301.000000)">
                        <g id="InfoGroup/Top" transform="translate(0.000000, 119.000000)" fill="#000000">
                            <rect id="Bg" fill-opacity="0.05" x="0" y="0" width="260" height="40" rx="8"></rect>
                            <g id="编组" transform="translate(10.000000, 3.000000)" font-family="SourceHanSansSC-Medium, Source Han Sans SC" font-weight="400">
                                <g id="DTK/Property/INFO/Light">
                                    <text id="添加日期" opacity="0.600000024" font-size="10" fill-opacity="0.6">
                                        <tspan x="0" y="12.2419355">镜头型号</tspan>
                                    </text>
                                    <text id="2014年4月23日-下午5：28" font-size="12">
                                        <tspan x="0" y="28.7258065">AF-S DX VR ZOOM... 19-105mm f/2 5.5 6G</tspan>
                                    </text>
                                </g>
                            </g>
                        </g>
                        <g id="编组" transform="translate(0.000000, 28.000000)" fill="#000000">
                            <path d="M0,0 L66,0 L66,40 L8,40 C3.581722,40 5.41083001e-16,36.418278 0,32 L0,0 L0,0 Z" id="矩形" fill-opacity="0.05" transform="translate(33.000000, 20.000000) scale(1, -1) translate(-33.000000, -20.000000) "></path>
                            <polygon id="矩形" fill-opacity="0.05" transform="translate(120.000000, 20.000000) scale(1, -1) translate(-120.000000, -20.000000) " points="67 0 173 0 173 40 67 40"></polygon>
                            <path d="M174,0 L260,0 L260,32 C260,36.418278 256.418278,40 252,40 L174,40 L174,40 L174,0 Z" id="矩形" fill-opacity="0.05" transform="translate(217.000000, 20.000000) scale(1, -1) translate(-217.000000, -20.000000) "></path>
                            <g transform="translate(77.000000, 3.000000)" font-family="SourceHanSansSC-Medium, Source Han Sans SC" font-weight="400" id="DTK/Property/INFO/Light">
                                <g>
                                    <text id="添加日期" opacity="0.600000024" font-size="10" fill-opacity="0.6">
                                        <tspan x="0" y="12">曝光程序</tspan>
                                    </text>
                                    <text id="2014年4月23日-下午5：28" font-size="12">
                                        <tspan x="0" y="28">光圈优先</tspan>
                                    </text>
                                </g>
                            </g>
                            <g transform="translate(10.000000, 3.000000)" font-family="SourceHanSansSC-Medium, Source Han Sans SC" font-weight="400" id="DTK/Property/INFO/Light">
                                <g>
                                    <text id="添加日期" opacity="0.600000024" font-size="10" fill-opacity="0.6">
                                        <tspan x="0" y="12">曝光</tspan>
                                    </text>
                                    <text id="2014年4月23日-下午5：28" font-size="12">
                                        <tspan x="0" y="28">自动</tspan>
                                    </text>
                                </g>
                            </g>
                            <g transform="translate(184.000000, 3.000000)" font-family="SourceHanSansSC-Medium, Source Han Sans SC" font-weight="400" id="DTK/Property/INFO/Light">
                                <g>
                                    <text id="添加日期" opacity="0.600000024" font-size="10" fill-opacity="0.6">
                                        <tspan x="0" y="12">曝光补偿</tspan>
                                    </text>
                                    <text id="2014年4月23日-下午5：28" font-size="12">
                                        <tspan x="0" y="28">-2</tspan>
                                    </text>
                                </g>
                            </g>
                        </g>
                        <g id="编组" transform="translate(0.000000, 69.000000)" fill="#000000">
                            <path d="M0,0 L66,0 L66,40 L8,40 C3.581722,40 5.41083001e-16,36.418278 0,32 L0,0 L0,0 Z" id="矩形" fill-opacity="0.05"></path>
                            <polygon id="矩形" fill-opacity="0.05" transform="translate(120.000000, 20.000000) scale(1, -1) translate(-120.000000, -20.000000) " points="67 0 173 0 173 40 67 40"></polygon>
                            <path d="M174,0 L260,0 L260,32 C260,36.418278 256.418278,40 252,40 L174,40 L174,40 L174,0 Z" id="矩形" fill-opacity="0.05"></path>
                            <g transform="translate(77.000000, 3.000000)" font-family="SourceHanSansSC-Medium, Source Han Sans SC" font-weight="400" id="DTK/Property/INFO/Light">
                                <g>
                                    <text id="添加日期" opacity="0.600000024" font-size="10" fill-opacity="0.6">
                                        <tspan x="0" y="12">闪光灯</tspan>
                                    </text>
                                    <text id="2014年4月23日-下午5：28" font-size="12">
                                        <tspan x="0" y="28">TTL</tspan>
                                    </text>
                                </g>
                            </g>
                            <g transform="translate(10.000000, 3.000000)" font-family="SourceHanSansSC-Medium, Source Han Sans SC" font-weight="400" id="DTK/Property/INFO/Light">
                                <g>
                                    <text id="添加日期" opacity="0.600000024" font-size="10" fill-opacity="0.6">
                                        <tspan x="0" y="12">焦距</tspan>
                                    </text>
                                    <text id="2014年4月23日-下午5：28" font-size="12">
                                        <tspan x="0" y="28">55mm</tspan>
                                    </text>
                                </g>
                            </g>
                            <g transform="translate(184.000000, 3.000000)" font-family="SourceHanSansSC-Medium, Source Han Sans SC" font-weight="400" id="DTK/Property/INFO/Light">
                                <g>
                                    <text id="添加日期" opacity="0.600000024" font-size="10" fill-opacity="0.6">
                                        <tspan x="0" y="12">测光模式</tspan>
                                    </text>
                                    <text id="2014年4月23日-下午5：28" font-size="12">
                                        <tspan x="0" y="28">点测光</tspan>
                                    </text>
                                </g>
                            </g>
                        </g>
                        <g id="DTK/Property/INFO-Title/Light" transform="translate(11.000000, 0.000000)">
                            <text id="基本信息" font-family="SourceHanSansSC-Medium, Source Han Sans SC" font-size="16" font-weight="400" fill="#000000">
                                <tspan x="0" y="19">详细信息</tspan>
                            </text>
                            <g id="编组" transform="translate(224.000000, 4.000000)">
                                <g id="下拉箭头-2" transform="translate(8.000000, 8.000000) scale(1, -1) translate(-8.000000, -8.000000) ">
                                    <circle id="椭圆形" fill-opacity="0.2" fill="#FFFFFF" cx="8" cy="8" r="8"></circle>
                                    <g id="编组" transform="translate(2.000000, 2.000000)" fill="#000000" fill-opacity="0.7" fill-rule="nonzero">
                                        <g id="ICON/Arrow" transform="translate(6.000000, 6.000000) scale(-1, 1) rotate(-90.000000) translate(-6.000000, -6.000000) ">
                                            <path d="M7.62598722,1.22688911 C7.94031165,0.924370296 8.44993225,0.924370296 8.76425668,1.22688911 C9.04365617,1.49579473 9.07470056,1.91321282 8.85738984,2.2151212 L8.76425668,2.32240666 L4.94195122,6 L8.76425668,9.67759334 C9.04365617,9.94649895 9.07470056,10.363917 8.85738984,10.6658254 L8.76425668,10.7731109 C8.48485718,11.0420165 8.05114961,11.0718949 7.73745943,10.8627461 L7.62598722,10.7731109 L3.23574332,6.54775877 C2.95634383,6.27885316 2.92529944,5.86143507 3.14261016,5.55952669 L3.23574332,5.45224123 L7.62598722,1.22688911 Z" id="arrow"></path>
                                        </g>
                                    </g>
                                </g>
                            </g>
                        </g>
                    </g>
                    <g id="编组-2" transform="translate(99.000000, 12.000000)" fill="#000000" fill-opacity="0.7" font-family="SourceHanSansSC-Medium, Source Han Sans SC" font-size="14" font-weight="400">
                        <text id="IMG1234.jpg">
                            <tspan x="0.095" y="16">IMG1234.jpg</tspan>
                        </text>
                    </g>
                </g>
            </g>
        </g>
    </g>
</svg>