<?xml version="1.0" encoding="UTF-8"?>
<svg width="40px" height="40px" viewBox="0 0 40 40" version="1.1" xmlns="http://www.w3.org/2000/svg" xmlns:xlink="http://www.w3.org/1999/xlink">
    <title>更多-press</title>
    <g id="更多-press" stroke="none" stroke-width="1" fill="none" fill-rule="evenodd">
        <path d="M20,21.4686758 C20.8284271,21.4686758 21.5,20.7971029 21.5,19.9686758 C21.5,19.1402486 20.8284271,18.4686758 20,18.4686758 C19.1715729,18.4686758 18.5,19.1402486 18.5,19.9686758 C18.5,20.7971029 19.1715729,21.4686758 20,21.4686758 Z" id="椭圆形" fill="#0081FF" transform="translate(20.000000, 19.968676) rotate(-180.000000) translate(-20.000000, -19.968676) "></path>
        <path d="M27.5,21.4686758 C28.3284271,21.4686758 29,20.7971029 29,19.9686758 C29,19.1402486 28.3284271,18.4686758 27.5,18.4686758 C26.6715729,18.4686758 26,19.1402486 26,19.9686758 C26,20.7971029 26.6715729,21.4686758 27.5,21.4686758 Z" id="椭圆形备份" fill="#0081FF" transform="translate(27.500000, 19.968676) rotate(-180.000000) translate(-27.500000, -19.968676) "></path>
        <path d="M12.5,21.4686758 C13.3284271,21.4686758 14,20.7971029 14,19.9686758 C14,19.1402486 13.3284271,18.4686758 12.5,18.4686758 C11.6715729,18.4686758 11,19.1402486 11,19.9686758 C11,20.7971029 11.6715729,21.4686758 12.5,21.4686758 Z" id="椭圆形备份-2" fill="#0081FF" transform="translate(12.500000, 19.968676) rotate(-180.000000) translate(-12.500000, -19.968676) "></path>
    </g>
</svg>