<svg xmlns="http://www.w3.org/2000/svg" width="48" height="48" viewBox="0 0 48 48">
  <g fill="none" fill-rule="evenodd">
    <rect width="48" height="48" fill="#656565"/>
    <path fill="#FFF" fill-rule="nonzero" d="M18.225,15.694 L14.019,15.694 C13.783,15.511 13.608,15.259 13.493,14.937 C13.375,14.617 13.318,14.227 13.318,13.767 C12.499,14.503 11.505,15.053 10.339,15.419 C9.17,15.786 7.943,15.969 6.659,15.969 C4.789,15.969 3.212,15.603 1.928,14.868 C0.641,14.134 2.84217094e-14,13.078 2.84217094e-14,11.702 C2.84217094e-14,10.325 0.583,9.224 1.752,8.398 C2.918,7.572 4.731,7.022 7.184,6.746 C8.819,6.563 10.251,6.333 11.477,6.058 C12.704,5.783 13.317,5.417 13.317,4.957 C13.317,4.406 13.054,3.856 12.528,3.305 C12.002,2.754 10.863,2.479 9.111,2.479 C7.709,2.479 6.685,2.686 6.044,3.098 C5.4,3.511 4.962,4.085 4.73,4.819 L0.876,4.819 C1.109,3.352 1.955,2.182 3.417,1.308 C4.876,0.437 6.774,0 9.112,0 C11.68,0 13.608,0.46 14.895,1.377 C16.179,2.296 16.823,3.58 16.823,5.232 L16.823,12.803 C16.823,13.354 16.938,13.859 17.174,14.317 C17.406,14.777 17.757,15.235 18.225,15.694 Z M13.318,10.6 L13.318,7.847 C12.617,8.032 11.943,8.191 11.303,8.329 C10.66,8.467 9.578,8.628 8.061,8.811 C6.309,8.996 5.17,9.317 4.644,9.774 C4.118,10.234 3.855,10.785 3.855,11.426 C3.855,11.977 4.118,12.459 4.644,12.871 C5.17,13.284 5.958,13.491 7.01,13.491 C8.061,13.491 9.201,13.263 10.427,12.803 C11.654,12.345 12.617,11.611 13.318,10.6 Z" transform="translate(15.177 16.031)"/>
  </g>
</svg>
