<svg xmlns="http://www.w3.org/2000/svg" xmlns:xlink="http://www.w3.org/1999/xlink" width="48" height="48" viewBox="0 0 48 48">
  <defs>
    <filter id="disabled-audio-output-plugged-a" width="131%" height="131%" x="-15.5%" y="-15.5%" filterUnits="objectBoundingBox">
      <feOffset dy="1" in="SourceAlpha" result="shadowOffsetOuter1"/>
      <feGaussianBlur in="shadowOffsetOuter1" result="shadowBlurOuter1" stdDeviation="1"/>
      <feColorMatrix in="shadowBlurOuter1" result="shadowMatrixOuter1" values="0 0 0 0 0   0 0 0 0 0   0 0 0 0 0  0 0 0 0.2 0"/>
      <feMerge>
        <feMergeNode in="shadowMatrixOuter1"/>
        <feMergeNode in="SourceGraphic"/>
      </feMerge>
    </filter>
    <circle id="disabled-audio-output-plugged-b" cx="21" cy="21" r="21"/>
    <filter id="disabled-audio-output-plugged-c" width="123.8%" height="123.8%" x="-11.9%" y="-11.9%" filterUnits="objectBoundingBox">
      <feGaussianBlur in="SourceAlpha" result="shadowBlurInner1" stdDeviation="5"/>
      <feOffset in="shadowBlurInner1" result="shadowOffsetInner1"/>
      <feComposite in="shadowOffsetInner1" in2="SourceAlpha" k2="-1" k3="1" operator="arithmetic" result="shadowInnerInner1"/>
      <feColorMatrix in="shadowInnerInner1" values="0 0 0 0 1   0 0 0 0 1   0 0 0 0 1  0 0 0 0.5 0"/>
    </filter>
  </defs>
  <g fill="none" filter="url(#disabled-audio-output-plugged-a)" transform="translate(3 3)">
    <use fill="#A348FF" xlink:href="#disabled-audio-output-plugged-b"/>
    <use fill="#000" filter="url(#disabled-audio-output-plugged-c)" xlink:href="#disabled-audio-output-plugged-b"/>
    <path fill="#FFF" d="M25,23 C28.3136847,23 31,25.6863153 31,29 C31,32.3136847 28.3136847,35 25,35 C21.6863153,35 19,32.3136847 19,29 C19,25.6863153 21.6863153,23 25,23 Z M21.5532437,26.9690263 C21.2017099,27.564321 21,28.2586075 21,29 C21,31.2091153 22.7908847,33 25,33 C25.7413925,33 26.435679,32.7982901 27.0309737,32.4467563 L21.5532437,26.9690263 Z M25,25 C24.2586075,25 23.564321,25.2017099 22.9690263,25.5532437 L28.4467563,31.0309737 C28.7982901,30.435679 29,29.7413925 29,29 C29,26.7908847 27.2091153,25 25,25 Z M28.9935846,8.88584712 L29,9.00095017 L29.0001494,22.0703553 C27.8234199,21.389615 26.4572068,21 25,21 C20.6806342,21 17.1607508,24.4232083 17.005352,28.7046226 L14.7829708,27.8409285 C14.5905935,27.9228532 14.3827535,27.9755041 14.1650446,27.9932875 L14,28 L8,28 C6.9456382,28 6.08183488,27.1841222 6.00548574,26.1492623 L6,26 L6,15 C6,13.9456382 6.81587779,13.0818349 7.85073766,13.0054857 L8,13 L14,13 C14.2361622,13 14.4627641,13.0409323 14.6730982,13.1160895 L14.7530025,13.0796043 L27.6375537,8.0689455 C28.2566721,7.82817724 28.9216131,8.24613667 28.9935846,8.88584712 Z M35,26.0106588 C35.5522847,26.0106588 36,26.4583741 36,27.0106588 C36,27.5234947 35.6139598,27.946166 35.1166211,28.0039311 L35,28.0106588 L33.5683832,28.0106588 C33.0160984,28.0106588 32.5683832,27.5629436 32.5683832,27.0106588 C32.5683832,26.497823 32.9544234,26.0751517 33.4517621,26.0173866 L33.5683832,26.0106588 L35,26.0106588 Z M14,15 L8,15 L8,26 L14,26 L14,15 Z M36,20 C36.5522847,20 37,20.4477153 37,21 C37,21.5128358 36.6139598,21.9355072 36.1166211,21.9932723 L36,22 L32.420958,22 C31.8686732,22 31.420958,21.5522847 31.420958,21 C31.420958,20.4871642 31.8069982,20.0644928 32.3043369,20.0067277 L32.420958,20 L36,20 Z M35,13.9893412 C35.5522847,13.9893412 36,14.4370564 36,14.9893412 C36,15.502177 35.6139598,15.9248483 35.1166211,15.9826134 L35,15.9893412 L33.5683832,15.9893412 C33.0160984,15.9893412 32.5683832,15.5416259 32.5683832,14.9893412 C32.5683832,14.4765053 32.9544234,14.053834 33.4517621,13.9960689 L33.5683832,13.9893412 L35,13.9893412 Z"/>
  </g>
</svg>
