<svg xmlns="http://www.w3.org/2000/svg" xmlns:xlink="http://www.w3.org/1999/xlink" width="48" height="48" viewBox="0 0 48 48">
  <defs>
    <filter id="disabled-audio-input-plugged-a" width="131%" height="131%" x="-15.5%" y="-15.5%" filterUnits="objectBoundingBox">
      <feOffset dy="1" in="SourceAlpha" result="shadowOffsetOuter1"/>
      <feGaussianBlur in="shadowOffsetOuter1" result="shadowBlurOuter1" stdDeviation="1"/>
      <feColorMatrix in="shadowBlurOuter1" result="shadowMatrixOuter1" values="0 0 0 0 0   0 0 0 0 0   0 0 0 0 0  0 0 0 0.2 0"/>
      <feMerge>
        <feMergeNode in="shadowMatrixOuter1"/>
        <feMergeNode in="SourceGraphic"/>
      </feMerge>
    </filter>
    <circle id="disabled-audio-input-plugged-b" cx="21" cy="21" r="21"/>
    <filter id="disabled-audio-input-plugged-c" width="123.8%" height="123.8%" x="-11.9%" y="-11.9%" filterUnits="objectBoundingBox">
      <feGaussianBlur in="SourceAlpha" result="shadowBlurInner1" stdDeviation="5"/>
      <feOffset in="shadowBlurInner1" result="shadowOffsetInner1"/>
      <feComposite in="shadowOffsetInner1" in2="SourceAlpha" k2="-1" k3="1" operator="arithmetic" result="shadowInnerInner1"/>
      <feColorMatrix in="shadowInnerInner1" values="0 0 0 0 1   0 0 0 0 1   0 0 0 0 1  0 0 0 0.5 0"/>
    </filter>
  </defs>
  <g fill="none" fill-rule="evenodd" filter="url(#disabled-audio-input-plugged-a)" transform="translate(3 3)">
    <g fill-rule="nonzero">
      <use fill="#A348FF" xlink:href="#disabled-audio-input-plugged-b"/>
      <use fill="#000" filter="url(#disabled-audio-input-plugged-c)" xlink:href="#disabled-audio-input-plugged-b"/>
    </g>
    <path fill="#FFF" d="M27,23 C30.3136847,23 33,25.6863153 33,29 C33,32.3136847 30.3136847,35 27,35 C23.6863153,35 21,32.3136847 21,29 C21,25.6863153 23.6863153,23 27,23 Z M23.5532437,26.9690263 C23.2017099,27.564321 23,28.2586075 23,29 C23,31.2091153 24.7908847,33 27,33 C27.7413925,33 28.435679,32.7982901 29.0309737,32.4467563 L23.5532437,26.9690263 Z M27,25 C26.2586075,25 25.564321,25.2017099 24.9690263,25.5532437 L30.4467563,31.0309737 C30.7982901,30.435679 31,29.7413925 31,29 C31,26.7908847 29.2091153,25 27,25 Z M25,7 C28.3137085,7 31,9.6862915 31,13 C31,16.3137085 28.3137085,19 25,19 C24.904763,19 24.8100442,18.9977811 24.7158925,18.9933922 L12.7005622,29.749 L12.6804807,29.7714475 C12.3078594,30.1395246 11.8720388,30.3335721 11.435238,30.3964681 L11.2715132,30.4139901 L11.1084257,30.4197191 C10.6142077,30.4197191 10.1054047,30.2684942 9.67155977,29.8970326 L9.52984383,29.7649605 L8.23274785,28.4678645 C7.40014791,27.6352645 7.36230245,26.308168 8.1568191,25.3944805 L8.27598787,25.266864 L19.0066546,13.2851091 C19.0022347,13.1906276 19,13.0955748 19,13 C19,9.6862915 21.6862915,7 25,7 Z M19.3830238,15.1140202 L9.35070025,26.311777 L9.29340802,26.3690692 C9.03298882,26.6294884 9.00931435,27.0376363 9.2223846,27.3249153 L9.29340802,27.4072043 L10.590504,28.7043003 C10.7761308,28.8922188 10.996133,28.9197191 11.1084257,28.9197191 C11.2046767,28.9197191 11.3783773,28.8978311 11.5443811,28.7746812 L11.6263474,28.7043003 L11.6538477,28.6745083 L22.8868539,18.6173053 C21.2733089,18.0100185 19.9905544,16.7274458 19.3830238,15.1140202 Z M19.5389971,18.4696699 C19.8052636,18.7359365 19.8294697,19.1526002 19.6116152,19.4462117 L19.5389971,19.5303301 L16.5389971,22.5303301 C16.2461039,22.8232233 15.7712301,22.8232233 15.4783369,22.5303301 C15.2120703,22.2640635 15.1878643,21.8473998 15.4057188,21.5537883 L15.4783369,21.4696699 L18.4783369,18.4696699 C18.7712301,18.1767767 19.2461039,18.1767767 19.5389971,18.4696699 Z"/>
  </g>
</svg>
