<svg xmlns="http://www.w3.org/2000/svg" xmlns:xlink="http://www.w3.org/1999/xlink" width="48" height="48" viewBox="0 0 48 48">
  <defs>
    <filter id="notification-network-wired-disconnected-a" width="131%" height="131%" x="-15.5%" y="-15.5%" filterUnits="objectBoundingBox">
      <feOffset dy="1" in="SourceAlpha" result="shadowOffsetOuter1"/>
      <feGaussianBlur in="shadowOffsetOuter1" result="shadowBlurOuter1" stdDeviation="1"/>
      <feColorMatrix in="shadowBlurOuter1" result="shadowMatrixOuter1" values="0 0 0 0 0   0 0 0 0 0   0 0 0 0 0  0 0 0 0.2 0"/>
      <feMerge>
        <feMergeNode in="shadowMatrixOuter1"/>
        <feMergeNode in="SourceGraphic"/>
      </feMerge>
    </filter>
    <circle id="notification-network-wired-disconnected-b" cx="21" cy="21" r="21"/>
    <filter id="notification-network-wired-disconnected-c" width="123.8%" height="123.8%" x="-11.9%" y="-11.9%" filterUnits="objectBoundingBox">
      <feGaussianBlur in="SourceAlpha" result="shadowBlurInner1" stdDeviation="5"/>
      <feOffset in="shadowBlurInner1" result="shadowOffsetInner1"/>
      <feComposite in="shadowOffsetInner1" in2="SourceAlpha" k2="-1" k3="1" operator="arithmetic" result="shadowInnerInner1"/>
      <feColorMatrix in="shadowInnerInner1" values="0 0 0 0 1   0 0 0 0 0.487725086   0 0 0 0 0.487725086  0 0 0 1 0"/>
    </filter>
  </defs>
  <g fill="none" filter="url(#notification-network-wired-disconnected-a)" transform="translate(3 3)">
    <use fill="#E04141" xlink:href="#notification-network-wired-disconnected-b"/>
    <use fill="#000" filter="url(#notification-network-wired-disconnected-c)" xlink:href="#notification-network-wired-disconnected-b"/>
    <path fill="#FFF" d="M8.25980392 10.4176471C7.90882353 10.4666667 7.57647059 10.6372549 7.33529412 10.8960784L5.14705882 13.0794118C4.85294118 13.3647059 4.6754902 13.7647059 4.66764706 14.172549L4.66764706 16.3558824C4.66764706 16.3656863 4.66764706 16.3784314 4.66764706 16.3901961L.570588235 20.4333333C.141176471 20.8617647.141176471 21.5754902.570588235 22.0039216 1.00098039 22.4294118 1.71568627 22.4294118 2.14509804 22.0039216L6.24019608 17.9254902 8.43039216 17.9254902C8.83823529 17.9147059 9.24019608 17.7401961 9.5254902 17.4470588L11.7127451 15.2637255C12.2754902 14.6833333 12.2754902 13.6568627 11.7127451 13.0794118L9.5254902 10.8960784C9.20098039 10.5607843 8.72352941 10.3794118 8.25980392 10.4176471L8.25980392 10.4176471zM14.3 12.1705882C14.6490196 12.1215686 14.9803922 11.95 15.2235294 11.6931373L17.4107843 9.50980392C17.7068627 9.2245098 17.8823529 8.82352941 17.8901961 8.41666667L17.8901961 6.23235294C17.8901961 6.22156863 17.8901961 6.20980392 17.8901961 6.2L21.9852941 2.15392157C22.4147059 1.72745098 22.4147059 1.01176471 21.9852941.585294118 21.5558824.158823529 20.8411765.158823529 20.4107843.585294118L16.3147059 4.6627451 14.127451 4.6627451C13.7196078 4.67254902 13.3166667 4.84901961 13.0323529 5.14313725L10.8431373 7.3254902C10.2803922 7.90490196 10.2803922 8.93235294 10.8431373 9.51078431L13.0323529 11.6941176C13.3568627 12.0294118 13.8343137 12.2107843 14.3 12.1705882z" transform="translate(9.431 9.392)"/>
    <path fill="#FFF" d="M28.8620588,29.3705882 L31.0680882,27.1645588 C31.4458824,26.7867647 31.4458824,26.1732353 31.0680882,25.7954412 C30.6902941,25.4176471 30.0767647,25.4176471 29.6989706,25.7954412 L27.4929412,28.0014706 L25.2869118,25.7954412 C24.9091176,25.4176471 24.2955882,25.4176471 23.9177941,25.7954412 C23.54,26.1732353 23.54,26.7867647 23.9177941,27.1645588 L26.1238235,29.3705882 L23.9177941,31.5766176 C23.54,31.9544118 23.54,32.5679412 23.9177941,32.9457353 C24.1072059,33.1351471 24.3552941,33.2288235 24.6023529,33.2288235 C24.8494118,33.2288235 25.0975,33.1341176 25.2869118,32.9457353 L27.4929412,30.7397059 L29.6989706,32.9457353 C29.8883824,33.1351471 30.1364706,33.2288235 30.3835294,33.2288235 C30.6305882,33.2288235 30.8786765,33.1341176 31.0680882,32.9457353 C31.4458824,32.5679412 31.4458824,31.9544118 31.0680882,31.5766176 L28.8620588,29.3705882 Z"/>
  </g>
</svg>
