<svg xmlns="http://www.w3.org/2000/svg" xmlns:xlink="http://www.w3.org/1999/xlink" width="48" height="48" viewBox="0 0 48 48">
  <defs>
    <filter id="notification-network-wireless-disabled-a" width="131%" height="131%" x="-15.5%" y="-15.5%" filterUnits="objectBoundingBox">
      <feOffset dy="1" in="SourceAlpha" result="shadowOffsetOuter1"/>
      <feGaussianBlur in="shadowOffsetOuter1" result="shadowBlurOuter1" stdDeviation="1"/>
      <feColorMatrix in="shadowBlurOuter1" result="shadowMatrixOuter1" values="0 0 0 0 0   0 0 0 0 0   0 0 0 0 0  0 0 0 0.2 0"/>
      <feMerge>
        <feMergeNode in="shadowMatrixOuter1"/>
        <feMergeNode in="SourceGraphic"/>
      </feMerge>
    </filter>
    <circle id="notification-network-wireless-disabled-b" cx="21" cy="21" r="21"/>
    <filter id="notification-network-wireless-disabled-c" width="123.8%" height="123.8%" x="-11.9%" y="-11.9%" filterUnits="objectBoundingBox">
      <feGaussianBlur in="SourceAlpha" result="shadowBlurInner1" stdDeviation="5"/>
      <feOffset in="shadowBlurInner1" result="shadowOffsetInner1"/>
      <feComposite in="shadowOffsetInner1" in2="SourceAlpha" k2="-1" k3="1" operator="arithmetic" result="shadowInnerInner1"/>
      <feColorMatrix in="shadowInnerInner1" values="0 0 0 0 1   0 0 0 0 0.487725086   0 0 0 0 0.487725086  0 0 0 1 0"/>
    </filter>
  </defs>
  <g fill="none" filter="url(#notification-network-wireless-disabled-a)" transform="translate(3 3)">
    <use fill="#E04141" xlink:href="#notification-network-wireless-disabled-b"/>
    <use fill="#000" filter="url(#notification-network-wireless-disabled-c)" xlink:href="#notification-network-wireless-disabled-b"/>
    <path fill="#FFF" d="M19.0003819,11 L18.9999858,13.0260541 C15.2179435,13.4619303 11.6843173,15.1211937 8.78455889,17.8045005 L8.46499161,18.1068498 L21.0146059,30.74027 L33.5752102,18.1188663 C30.8609449,15.4894887 27.5585749,13.7809357 24.0006526,13.1661441 L24.0004818,11.1239705 C28.4238311,11.7997405 32.5087636,13.973201 35.7282568,17.4098887 C36.0777859,17.7833267 36.0884981,18.3547182 35.7698231,18.7397078 L35.6832976,18.8318495 L35.652562,18.8626648 C35.64253,18.8727361 35.6300894,18.8852289 35.6153088,18.900074 L35.4209646,19.0953247 C33.6725359,20.8521735 23.7234049,30.8532916 21.9812882,32.6045169 L21.7879047,32.7989117 L21.767666,32.8192562 L21.767666,32.8192562 L21.720965,32.8662015 C21.5341345,33.0554625 21.2793657,33.1606075 21.0136068,33.1606075 C20.7913085,33.1606075 20.5780298,33.0868947 20.4044141,32.9533773 L20.3052495,32.8662015 L6.19704921,18.625565 C5.87134471,18.260061 5.98024591,17.7503582 6.29895675,17.4098887 C9.75340851,13.7215122 14.2042283,11.4890162 19.0003819,11 Z M21.5,24 C22.3284271,24 23,24.6715729 23,25.5 C23,26.3284271 22.3284271,27 21.5,27 C20.6715729,27 20,26.3284271 20,25.5 C20,24.6715729 20.6715729,24 21.5,24 Z M21.6093856,9 C22.3740716,9 23,9.60224888 23,10.338006 L23,20.6610195 C23,21.3977511 22.3740716,22 21.6093856,22 L21.3906144,22 C20.6259284,22 20,21.3977511 20,20.661994 L20,10.338006 C20,9.60224888 20.6259284,9 21.3906144,9 L21.6093856,9 Z"/>
  </g>
</svg>
