<svg xmlns="http://www.w3.org/2000/svg" xmlns:xlink="http://www.w3.org/1999/xlink" width="48" height="48" viewBox="0 0 48 48">
  <defs>
    <filter id="notification-network-wired-local-a" width="131%" height="131%" x="-15.5%" y="-15.5%" filterUnits="objectBoundingBox">
      <feOffset dy="1" in="SourceAlpha" result="shadowOffsetOuter1"/>
      <feGaussianBlur in="shadowOffsetOuter1" result="shadowBlurOuter1" stdDeviation="1"/>
      <feColorMatrix in="shadowBlurOuter1" result="shadowMatrixOuter1" values="0 0 0 0 0   0 0 0 0 0   0 0 0 0 0  0 0 0 0.2 0"/>
      <feMerge>
        <feMergeNode in="shadowMatrixOuter1"/>
        <feMergeNode in="SourceGraphic"/>
      </feMerge>
    </filter>
    <circle id="notification-network-wired-local-b" cx="21" cy="21" r="21"/>
    <filter id="notification-network-wired-local-c" width="123.8%" height="123.8%" x="-11.9%" y="-11.9%" filterUnits="objectBoundingBox">
      <feGaussianBlur in="SourceAlpha" result="shadowBlurInner1" stdDeviation="5"/>
      <feOffset in="shadowBlurInner1" result="shadowOffsetInner1"/>
      <feComposite in="shadowOffsetInner1" in2="SourceAlpha" k2="-1" k3="1" operator="arithmetic" result="shadowInnerInner1"/>
      <feColorMatrix in="shadowInnerInner1" values="0 0 0 0 1   0 0 0 0 1   0 0 0 0 1  0 0 0 0.499803663 0"/>
    </filter>
  </defs>
  <g fill="none" filter="url(#notification-network-wired-local-a)" transform="translate(3 3)">
    <use fill="#EA5514" xlink:href="#notification-network-wired-local-b"/>
    <use fill="#000" filter="url(#notification-network-wired-local-c)" xlink:href="#notification-network-wired-local-b"/>
    <path fill="#FFF" d="M8.998 11.142C8.64 11.192 8.301 11.366 8.055 11.63L5.823 13.857C5.523 14.148 5.342 14.556 5.334 14.972L5.334 17.199C5.334 17.209 5.334 17.222 5.334 17.234L1.155 21.358C.717 21.795.717 22.523 1.155 22.96 1.594 23.394 2.323 23.394 2.761 22.96L6.938 18.8 9.172 18.8C9.588 18.789 9.998 18.611 10.289 18.312L12.52 16.085C13.094 15.493 13.094 14.446 12.52 13.857L10.289 11.63C9.958 11.288 9.471 11.103 8.998 11.142zM15.159 12.93C15.515 12.88 15.853 12.705 16.101 12.443L18.332 10.216C18.634 9.925 18.813 9.516 18.821 9.101L18.821 6.873C18.821 6.862 18.821 6.85 18.821 6.84L22.998 2.713C23.436 2.278 23.436 1.548 22.998 1.113 22.56.678 21.831.678 21.392 1.113L17.215 5.272 14.984 5.272C14.568 5.282 14.157 5.462 13.867 5.762L11.634 7.988C11.06 8.579 11.06 9.627 11.634 10.217L13.867 12.444C14.197 12.785 14.684 12.97 15.159 12.93zM19.0025333 22.992L19.0025333 22.992C18.45 22.992 18.002 22.544 18.002 21.9914667L18.002 21.9914667C18.002 21.4389333 18.45 20.992 19.0025333 20.992L19.0025333 20.992C19.5550667 20.992 20.002 21.44 20.002 21.9914667L20.002 21.9914667C20.002 22.544 19.5550667 22.992 19.0025333 22.992zM19.1358667 19.992L18.8681333 19.992C18.3902667 19.992 18.002 19.6048 18.002 19.1258667L18.002 14.8581333C18.002 14.3802667 18.3892 13.992 18.8681333 13.992L19.1358667 13.992C19.6137333 13.992 20.002 14.3792 20.002 14.8581333L20.002 19.1258667C20.002 19.6048 19.6137333 19.992 19.1358667 19.992z" transform="translate(8.998 9.008)"/>
  </g>
</svg>
