<svg xmlns="http://www.w3.org/2000/svg" xmlns:xlink="http://www.w3.org/1999/xlink" width="48" height="48" viewBox="0 0 48 48">
  <defs>
    <filter id="notification-network-wireless-full-a" width="131%" height="131%" x="-15.5%" y="-15.5%" filterUnits="objectBoundingBox">
      <feOffset dy="1" in="SourceAlpha" result="shadowOffsetOuter1"/>
      <feGaussianBlur in="shadowOffsetOuter1" result="shadowBlurOuter1" stdDeviation="1"/>
      <feColorMatrix in="shadowBlurOuter1" result="shadowMatrixOuter1" values="0 0 0 0 0   0 0 0 0 0   0 0 0 0 0  0 0 0 0.2 0"/>
      <feMerge>
        <feMergeNode in="shadowMatrixOuter1"/>
        <feMergeNode in="SourceGraphic"/>
      </feMerge>
    </filter>
    <circle id="notification-network-wireless-full-b" cx="21" cy="21" r="21"/>
    <filter id="notification-network-wireless-full-c" width="123.8%" height="123.8%" x="-11.9%" y="-11.9%" filterUnits="objectBoundingBox">
      <feGaussianBlur in="SourceAlpha" result="shadowBlurInner1" stdDeviation="5"/>
      <feOffset in="shadowBlurInner1" result="shadowOffsetInner1"/>
      <feComposite in="shadowOffsetInner1" in2="SourceAlpha" k2="-1" k3="1" operator="arithmetic" result="shadowInnerInner1"/>
      <feColorMatrix in="shadowInnerInner1" values="0 0 0 0 0   0 0 0 0 0.961397917   0 0 0 0 0.602040443  0 0 0 1 0"/>
    </filter>
  </defs>
  <g fill="none" filter="url(#notification-network-wireless-full-a)" transform="translate(3 3)">
    <use fill="#00C77D" xlink:href="#notification-network-wireless-full-b"/>
    <use fill="#000" filter="url(#notification-network-wireless-full-c)" xlink:href="#notification-network-wireless-full-b"/>
    <g fill="#FFF" transform="translate(5.987 11.091)">
      <path d="M28.9944897,8.195 C28.7264897,8.195 28.4594897,8.089 28.2624897,7.878 C24.7084897,4.094 19.9984897,2.009 14.9994897,2.009 C10.0004897,2.009 5.28948966,4.094 1.73648966,7.878 C1.35748966,8.281 0.72048966,8.302 0.31648966,7.922 C-0.08751034,7.543 -0.10751034,6.906 0.27248966,6.502 C4.20948966,2.309 9.43948966,0 15.0004897,0 C20.5614897,0 25.7914897,2.309 29.7284897,6.502 C30.1074897,6.906 30.0884897,7.543 29.6844897,7.922 C29.4884897,8.104 29.2404897,8.195 28.9944897,8.195 Z"/>
      <path d="M24.9954897,12.454 C24.7274897,12.454 24.4604897,12.348 24.2634897,12.137 C21.7804897,9.492 18.4904897,8.036 14.9984897,8.036 C11.5064897,8.036 8.21648966,9.492 5.73348966,12.137 C5.35448966,12.541 4.71748966,12.561 4.31348966,12.181 C3.90948966,11.802 3.88848966,11.165 4.26948966,10.761 C7.13548966,7.708 10.9454897,6.027 14.9984897,6.027 C19.0514897,6.027 22.8614897,7.708 25.7274897,10.761 C26.1074897,11.165 26.0874897,11.802 25.6834897,12.181 C25.4894897,12.363 25.2424897,12.454 24.9954897,12.454 Z"/>
      <path d="M8.99848966 16.711C8.75148966 16.711 8.50448966 16.621 8.31048966 16.439 7.90648966 16.06 7.88548966 15.424 8.26648966 15.019 10.0604897 13.108 12.4514897 12.054 14.9984897 12.054 17.5444897 12.054 19.9364897 13.107 21.7314897 15.019 22.1104897 15.423 22.0914897 16.06 21.6874897 16.439 21.2834897 16.818 20.6464897 16.799 20.2674897 16.395 18.8554897 14.892 16.9844897 14.064 14.9984897 14.064 13.0114897 14.064 11.1414897 14.892 9.73048966 16.395 9.53348966 16.605 9.26648966 16.711 8.99848966 16.711zM12.0114897 19.432L15.0144897 22.631 18.0114897 19.438C18.0114897 19.438 17.9814897 19.423 17.9634897 19.404 16.3204897 17.653 13.4994897 17.847 12.0114897 19.432z"/>
    </g>
  </g>
</svg>
