<svg xmlns="http://www.w3.org/2000/svg" xmlns:xlink="http://www.w3.org/1999/xlink" width="48" height="48" viewBox="0 0 48 48">
  <defs>
    <filter id="notification-network-wired-connected-a" width="131%" height="131%" x="-15.5%" y="-15.5%" filterUnits="objectBoundingBox">
      <feOffset dy="1" in="SourceAlpha" result="shadowOffsetOuter1"/>
      <feGaussianBlur in="shadowOffsetOuter1" result="shadowBlurOuter1" stdDeviation="1"/>
      <feColorMatrix in="shadowBlurOuter1" result="shadowMatrixOuter1" values="0 0 0 0 0   0 0 0 0 0   0 0 0 0 0  0 0 0 0.2 0"/>
      <feMerge>
        <feMergeNode in="shadowMatrixOuter1"/>
        <feMergeNode in="SourceGraphic"/>
      </feMerge>
    </filter>
    <circle id="notification-network-wired-connected-b" cx="21" cy="21" r="21"/>
    <filter id="notification-network-wired-connected-c" width="123.8%" height="123.8%" x="-11.9%" y="-11.9%" filterUnits="objectBoundingBox">
      <feGaussianBlur in="SourceAlpha" result="shadowBlurInner1" stdDeviation="5"/>
      <feOffset in="shadowBlurInner1" result="shadowOffsetInner1"/>
      <feComposite in="shadowOffsetInner1" in2="SourceAlpha" k2="-1" k3="1" operator="arithmetic" result="shadowInnerInner1"/>
      <feColorMatrix in="shadowInnerInner1" values="0 0 0 0 0.583333333   0 0 0 0 1   0 0 0 0 0  0 0 0 1 0"/>
    </filter>
  </defs>
  <g fill="none" filter="url(#notification-network-wired-connected-a)" transform="translate(3 3)">
    <use fill="#88C92E" xlink:href="#notification-network-wired-connected-b"/>
    <use fill="#000" filter="url(#notification-network-wired-connected-c)" xlink:href="#notification-network-wired-connected-b"/>
    <path fill="#FFF" d="M8.478 9.689C8.12 9.739 7.781 9.913 7.535 10.177L5.303 12.404C5.003 12.695 4.822 13.103 4.814 13.519L4.814 15.746C4.814 15.756 4.814 15.769 4.814 15.781L.635 19.905C.197 20.342.197 21.07.635 21.507 1.074 21.941 1.803 21.941 2.241 21.507L6.418 17.347 8.652 17.347C9.068 17.336 9.478 17.158 9.769 16.859L12 14.632C12.574 14.04 12.574 12.993 12 12.404L9.769 10.177C9.438 9.834 8.951 9.649 8.478 9.689zM13.747 12.208C14.103 12.159 14.441 11.983 14.689 11.721L16.92 9.494C17.222 9.203 17.401 8.794 17.409 8.379L17.409 6.151C17.409 6.14 17.409 6.128 17.409 6.118L21.586 1.991C22.024 1.556 22.024.826 21.586.391 21.148-.044 20.419-.044 19.98.391L15.803 4.55 13.572 4.55C13.156 4.56 12.745 4.74 12.455 5.04L10.222 7.266C9.648 7.857 9.648 8.905 10.222 9.495L12.455 11.722C12.785 12.064 13.272 12.248 13.747 12.208z" transform="translate(9.987 10.008)"/>
  </g>
</svg>
