<svg xmlns="http://www.w3.org/2000/svg" xmlns:xlink="http://www.w3.org/1999/xlink" width="48" height="48" viewBox="0 0 48 48">
  <defs>
    <filter id="notification-network-mobile-2g-disconnected-a" width="131%" height="131%" x="-15.5%" y="-15.5%" filterUnits="objectBoundingBox">
      <feOffset dy="1" in="SourceAlpha" result="shadowOffsetOuter1"/>
      <feGaussianBlur in="shadowOffsetOuter1" result="shadowBlurOuter1" stdDeviation="1"/>
      <feColorMatrix in="shadowBlurOuter1" result="shadowMatrixOuter1" values="0 0 0 0 0   0 0 0 0 0   0 0 0 0 0  0 0 0 0.2 0"/>
      <feMerge>
        <feMergeNode in="shadowMatrixOuter1"/>
        <feMergeNode in="SourceGraphic"/>
      </feMerge>
    </filter>
    <circle id="notification-network-mobile-2g-disconnected-b" cx="21" cy="21" r="21"/>
    <filter id="notification-network-mobile-2g-disconnected-c" width="123.8%" height="123.8%" x="-11.9%" y="-11.9%" filterUnits="objectBoundingBox">
      <feGaussianBlur in="SourceAlpha" result="shadowBlurInner1" stdDeviation="5"/>
      <feOffset in="shadowBlurInner1" result="shadowOffsetInner1"/>
      <feComposite in="shadowOffsetInner1" in2="SourceAlpha" k2="-1" k3="1" operator="arithmetic" result="shadowInnerInner1"/>
      <feColorMatrix in="shadowInnerInner1" values="0 0 0 0 1   0 0 0 0 0.487725086   0 0 0 0 0.487725086  0 0 0 1 0"/>
    </filter>
  </defs>
  <g fill="none" filter="url(#notification-network-mobile-2g-disconnected-a)" transform="translate(3 3)">
    <use fill="#E04141" xlink:href="#notification-network-mobile-2g-disconnected-b"/>
    <use fill="#000" filter="url(#notification-network-mobile-2g-disconnected-c)" xlink:href="#notification-network-mobile-2g-disconnected-b"/>
    <path fill="#FFF" d="M6.5.047L5.5.047C2.468.047 0 2.515 0 5.547 0 6.1.447 6.547 1 6.547 1.553 6.547 2 6.1 2 5.547 2 3.617 3.57 2.047 5.5 2.047L6.5 2.047C8.43 2.047 10 3.617 10 5.547 10 5.547 10 5.547 10 5.547 10 5.547 10 5.547 10 5.547 10 7.709 7.853 9.374 5.578 11.137 2.964 13.165 0 15.463 0 19.043 0 19.596.447 20.047 1 20.047L11 20.047C11.553 20.047 12 19.6 12 19.047 12 18.494 11.553 18.047 11 18.047L2.119 18.047C2.625 16.047 4.663 14.38 6.804 12.72 9.358 10.741 12 8.689 12 5.548 12 5.548 12 5.548 12 5.548 12 5.548 12 5.548 12 5.548 12 2.515 9.532.047 6.5.047zM24.743 9.047L19.975 9.047C19.422 9.047 18.975 9.494 18.975 10.047 18.975 10.6 19.422 11.047 19.975 11.047L24 11.047 24 14.057C24 16.257 22.21 18.047 19.99 18.047 17.79 18.047 16 16.257 16 14.057L16 6.037C16 3.837 17.79 2.047 20.01 2.047 22.21 2.047 24 3.837 24 6.037 24 6.59 24.447 7.037 25 7.037 25.553 7.037 26 6.59 26 6.037 26 2.734 23.312.047 19.99.047 16.687.047 14 2.735 14 6.037L14 14.057C14 17.36 16.688 20.047 20.01 20.047 21.543 20.047 22.94 19.463 24 18.512L24 19.04C24 19.593 24.447 20.04 25 20.04 25.553 20.04 26 19.593 26 19.04L26 9.996C26 9.443 25.578 9.047 24.743 9.047z" transform="translate(8 11)"/>
  </g>
</svg>
