<svg xmlns="http://www.w3.org/2000/svg" xmlns:xlink="http://www.w3.org/1999/xlink" width="48" height="48" viewBox="0 0 48 48">
  <defs>
    <filter id="notification-change-language-failed-a" width="131%" height="131%" x="-15.5%" y="-15.5%" filterUnits="objectBoundingBox">
      <feOffset dy="1" in="SourceAlpha" result="shadowOffsetOuter1"/>
      <feGaussianBlur in="shadowOffsetOuter1" result="shadowBlurOuter1" stdDeviation="1"/>
      <feColorMatrix in="shadowBlurOuter1" result="shadowMatrixOuter1" values="0 0 0 0 0   0 0 0 0 0   0 0 0 0 0  0 0 0 0.2 0"/>
      <feMerge>
        <feMergeNode in="shadowMatrixOuter1"/>
        <feMergeNode in="SourceGraphic"/>
      </feMerge>
    </filter>
    <circle id="notification-change-language-failed-b" cx="21" cy="21" r="21"/>
    <filter id="notification-change-language-failed-c" width="123.8%" height="123.8%" x="-11.9%" y="-11.9%" filterUnits="objectBoundingBox">
      <feGaussianBlur in="SourceAlpha" result="shadowBlurInner1" stdDeviation="5"/>
      <feOffset in="shadowBlurInner1" result="shadowOffsetInner1"/>
      <feComposite in="shadowOffsetInner1" in2="SourceAlpha" k2="-1" k3="1" operator="arithmetic" result="shadowInnerInner1"/>
      <feColorMatrix in="shadowInnerInner1" values="0 0 0 0 1   0 0 0 0 1   0 0 0 0 1  0 0 0 0.499803663 0"/>
    </filter>
  </defs>
  <g fill="none" fill-rule="evenodd" filter="url(#notification-change-language-failed-a)" transform="translate(3 3)">
    <g fill-rule="nonzero">
      <use fill="#EA5514" xlink:href="#notification-change-language-failed-b"/>
      <use fill="#000" filter="url(#notification-change-language-failed-c)" xlink:href="#notification-change-language-failed-b"/>
    </g>
    <g fill="#FFF" fill-rule="nonzero" transform="translate(5.601 8.512)">
      <path d="M4.001,8.488 L7.491,12.488 L4.756,12.488 C4.756,12.492 4.755,12.496 4.755,12.5 C4.755,18.437 9.568,23.25 15.505,23.25 C18.557,23.25 21.306,21.972 23.262,19.93 L23.262,19.93 L24.414,21.261 C22.147,23.567 18.994,25 15.505,25 C8.601,25 3.005,19.404 3.005,12.5 C3.005,12.496 3.006,12.492 3.006,12.488 L3.006,12.488 L0.506,12.488 L4.001,8.488 Z M15.414,16.493 C15.954,16.493 16.391,16.941 16.391,17.493 C16.391,18.045 15.954,18.493 15.414,18.493 L15.368,18.493 C14.828,18.493 14.391,18.045 14.391,17.493 C14.391,16.941 14.828,16.493 15.368,16.493 L15.414,16.493 Z M15.506,0 C22.405,0 27.999,5.59 28.005,12.488 L28.005,12.488 L30.508,12.488 L26.966,16.486 L23.53,12.488 L26.254,12.488 C26.248,6.557 21.438,1.75 15.505,1.75 C12.45,1.75 9.699,3.031 7.742,5.077 L7.742,5.077 L6.59,3.746 C8.858,1.436 12.013,0 15.506,0 Z M15.408,6.491 C15.96,6.491 16.408,6.939 16.408,7.491 L16.408,14.491 C16.408,15.043 15.96,15.491 15.408,15.491 C14.856,15.491 14.408,15.043 14.408,14.491 L14.408,7.491 C14.408,6.939 14.856,6.491 15.408,6.491 Z"/>
      <polygon points=".501 12.497 .501 12.494 .499 12.497"/>
    </g>
  </g>
</svg>
