<svg xmlns="http://www.w3.org/2000/svg" xmlns:xlink="http://www.w3.org/1999/xlink" width="48" height="48" viewBox="0 0 48 48">
  <defs>
    <filter id="notification-network-vpn-disconnected-a" width="131%" height="131%" x="-15.5%" y="-15.5%" filterUnits="objectBoundingBox">
      <feOffset dy="1" in="SourceAlpha" result="shadowOffsetOuter1"/>
      <feGaussianBlur in="shadowOffsetOuter1" result="shadowBlurOuter1" stdDeviation="1"/>
      <feColorMatrix in="shadowBlurOuter1" result="shadowMatrixOuter1" values="0 0 0 0 0   0 0 0 0 0   0 0 0 0 0  0 0 0 0.2 0"/>
      <feMerge>
        <feMergeNode in="shadowMatrixOuter1"/>
        <feMergeNode in="SourceGraphic"/>
      </feMerge>
    </filter>
    <circle id="notification-network-vpn-disconnected-b" cx="21" cy="21" r="21"/>
    <filter id="notification-network-vpn-disconnected-c" width="123.8%" height="123.8%" x="-11.9%" y="-11.9%" filterUnits="objectBoundingBox">
      <feGaussianBlur in="SourceAlpha" result="shadowBlurInner1" stdDeviation="5"/>
      <feOffset in="shadowBlurInner1" result="shadowOffsetInner1"/>
      <feComposite in="shadowOffsetInner1" in2="SourceAlpha" k2="-1" k3="1" operator="arithmetic" result="shadowInnerInner1"/>
      <feColorMatrix in="shadowInnerInner1" values="0 0 0 0 1   0 0 0 0 0.487725086   0 0 0 0 0.487725086  0 0 0 1 0"/>
    </filter>
  </defs>
  <g fill="none" filter="url(#notification-network-vpn-disconnected-a)" transform="translate(3 3)">
    <use fill="#E04141" xlink:href="#notification-network-vpn-disconnected-b"/>
    <use fill="#000" filter="url(#notification-network-vpn-disconnected-c)" xlink:href="#notification-network-vpn-disconnected-b"/>
    <path fill="#FFF" d="M29.0310078,19 L27,19 L27,16.0017996 C27,12.7634275 24.4147287,10 21.1937984,10 L20.7606589,10 C17.5843023,10 15,12.817691 15,16.0017996 L15,19 L12.9689922,19 C12.4331395,19 12,19.4331395 12,19.9689922 L12,31.0310078 C12,31.5668605 12.4331395,32 12.9689922,32 L29.0310078,32 C29.5668605,32 30,31.5668605 30,31.0310078 L30,19.9689922 C30,19.4331395 29.5668605,19 29.0310078,19 Z M17,16.0017996 C17,13.5996678 18.8817829,12 20.7606589,12 L21.1937984,12 C23.0649225,12 25,13.5996678 25,16.0017996 L25,19 L17,19 L17,16.0017996 Z"/>
  </g>
</svg>
