<svg xmlns="http://www.w3.org/2000/svg" xmlns:xlink="http://www.w3.org/1999/xlink" width="48" height="48" viewBox="0 0 48 48">
  <defs>
    <filter id="notification-change-language-start-a" width="131%" height="131%" x="-15.5%" y="-15.5%" filterUnits="objectBoundingBox">
      <feOffset dy="1" in="SourceAlpha" result="shadowOffsetOuter1"/>
      <feGaussianBlur in="shadowOffsetOuter1" result="shadowBlurOuter1" stdDeviation="1"/>
      <feColorMatrix in="shadowBlurOuter1" result="shadowMatrixOuter1" values="0 0 0 0 0   0 0 0 0 0   0 0 0 0 0  0 0 0 0.2 0"/>
      <feMerge>
        <feMergeNode in="shadowMatrixOuter1"/>
        <feMergeNode in="SourceGraphic"/>
      </feMerge>
    </filter>
    <circle id="notification-change-language-start-b" cx="21" cy="21" r="21"/>
    <filter id="notification-change-language-start-c" width="123.8%" height="123.8%" x="-11.9%" y="-11.9%" filterUnits="objectBoundingBox">
      <feGaussianBlur in="SourceAlpha" result="shadowBlurInner1" stdDeviation="5"/>
      <feOffset in="shadowBlurInner1" result="shadowOffsetInner1"/>
      <feComposite in="shadowOffsetInner1" in2="SourceAlpha" k2="-1" k3="1" operator="arithmetic" result="shadowInnerInner1"/>
      <feColorMatrix in="shadowInnerInner1" values="0 0 0 0 0   0 0 0 0 1   0 0 0 0 0.425675676  0 0 0 1 0"/>
    </filter>
  </defs>
  <g fill="none" filter="url(#notification-change-language-start-a)" transform="translate(3.003 3)">
    <use fill="#42D681" xlink:href="#notification-change-language-start-b"/>
    <use fill="#000" filter="url(#notification-change-language-start-c)" xlink:href="#notification-change-language-start-b"/>
    <g fill="#FFF" transform="translate(4.997 8)">
      <path d="M16.005 23.762C10.068 23.762 5.255 18.949 5.255 13.012 5.255 13.008 5.256 13.004 5.256 13L7.991 13 4.501 9 1.006 13 3.506 13C3.506 13.004 3.505 13.008 3.505 13.012 3.505 19.916 9.101 25.512 16.005 25.512 19.494 25.512 22.647 24.079 24.914 21.773L23.762 20.442C21.805 22.484 19.056 23.762 16.005 23.762zM31.007 13L28.504 13C28.498 6.102 22.904.512 16.005.512 12.512.512 9.357 1.948 7.089 4.258L8.241 5.589C10.198 3.543 12.949 2.262 16.004 2.262 21.937 2.262 26.747 7.069 26.753 13L24.03 13 27.466 16.998 31.007 13z"/>
      <polygon points="1 13.009 1 13.006 .998 13.009"/>
      <path d="M20.523,19.524 C20.267,19.524 20.011,19.426 19.816,19.231 L14.293,13.707 C14.105,13.52 14,13.266 14,13 L14,6.061 C14,5.508 14.447,5.061 15,5.061 C15.553,5.061 16,5.508 16,6.061 L16,12.586 L21.23,17.817 C21.621,18.208 21.621,18.84 21.23,19.231 C21.035,19.427 20.779,19.524 20.523,19.524 Z"/>
    </g>
  </g>
</svg>
