<svg xmlns="http://www.w3.org/2000/svg" xmlns:xlink="http://www.w3.org/1999/xlink" width="48" height="48" viewBox="0 0 48 48">
  <defs>
    <filter id="notification-battery-low-a" width="131%" height="131%" x="-15.5%" y="-15.5%" filterUnits="objectBoundingBox">
      <feOffset dy="1" in="SourceAlpha" result="shadowOffsetOuter1"/>
      <feGaussianBlur in="shadowOffsetOuter1" result="shadowBlurOuter1" stdDeviation="1"/>
      <feColorMatrix in="shadowBlurOuter1" result="shadowMatrixOuter1" values="0 0 0 0 0   0 0 0 0 0   0 0 0 0 0  0 0 0 0.2 0"/>
      <feMerge>
        <feMergeNode in="shadowMatrixOuter1"/>
        <feMergeNode in="SourceGraphic"/>
      </feMerge>
    </filter>
    <path id="notification-battery-low-b" d="M41.0813985,27.1245154 C37.6991656,38.2146697 25.9652738,44.4635753 14.8748671,41.0814194 C3.78446033,37.6992635 -2.46353788,25.9656389 0.918695021,14.8754846 C4.30092792,3.78533034 16.03377,-2.46357534 27.1241767,0.918580553 C38.2145835,4.30073647 44.4636314,16.0343611 41.0813985,27.1245154"/>
    <filter id="notification-battery-low-c" width="123.8%" height="123.8%" x="-11.9%" y="-11.9%" filterUnits="objectBoundingBox">
      <feGaussianBlur in="SourceAlpha" result="shadowBlurInner1" stdDeviation="5"/>
      <feOffset in="shadowBlurInner1" result="shadowOffsetInner1"/>
      <feComposite in="shadowOffsetInner1" in2="SourceAlpha" k2="-1" k3="1" operator="arithmetic" result="shadowInnerInner1"/>
      <feColorMatrix in="shadowInnerInner1" values="0 0 0 0 1   0 0 0 0 1   0 0 0 0 1  0 0 0 0.499803663 0"/>
    </filter>
  </defs>
  <g fill="none" filter="url(#notification-battery-low-a)" transform="translate(3 3)">
    <use fill="#EA5514" xlink:href="#notification-battery-low-b"/>
    <use fill="#000" filter="url(#notification-battery-low-c)" xlink:href="#notification-battery-low-b"/>
    <path fill="#FFF" d="M14.361687,22.508516 C14.2705304,22.696869 14.4101745,22.9147118 14.6235195,22.915663 L21.5969936,22.9422989 C21.7744579,22.9432501 21.910223,23.0983085 21.8840397,23.2704898 L20.3469855,33.3378658 C20.2965586,33.663203 20.7542807,33.7992357 20.896834,33.502437 L27.6385378,19.5167464 C27.7296943,19.3274421 27.5881108,19.1086481 27.3747657,19.1086481 L20.4177773,19.1086481 C20.2393432,19.1086481 20.1026085,18.9526385 20.1297615,18.7804571 L21.7327587,8.56753562 C21.7831857,8.24219848 21.3254635,8.10521438 21.1819406,8.40201324 L14.361687,22.508516 Z"/>
  </g>
</svg>
