<svg xmlns="http://www.w3.org/2000/svg" xmlns:xlink="http://www.w3.org/1999/xlink" width="48" height="48" viewBox="0 0 48 48">
  <defs>
    <filter id="notification-login-reminder-a" width="131%" height="131%" x="-15.5%" y="-15.5%" filterUnits="objectBoundingBox">
      <feOffset dy="1" in="SourceAlpha" result="shadowOffsetOuter1"/>
      <feGaussianBlur in="shadowOffsetOuter1" result="shadowBlurOuter1" stdDeviation="1"/>
      <feColorMatrix in="shadowBlurOuter1" result="shadowMatrixOuter1" values="0 0 0 0 0   0 0 0 0 0   0 0 0 0 0  0 0 0 0.2 0"/>
      <feMerge>
        <feMergeNode in="shadowMatrixOuter1"/>
        <feMergeNode in="SourceGraphic"/>
      </feMerge>
    </filter>
    <circle id="notification-login-reminder-b" cx="21" cy="21" r="21"/>
    <filter id="notification-login-reminder-c" width="123.8%" height="123.8%" x="-11.9%" y="-11.9%" filterUnits="objectBoundingBox">
      <feGaussianBlur in="SourceAlpha" result="shadowBlurInner1" stdDeviation="5"/>
      <feOffset in="shadowBlurInner1" result="shadowOffsetInner1"/>
      <feComposite in="shadowOffsetInner1" in2="SourceAlpha" k2="-1" k3="1" operator="arithmetic" result="shadowInnerInner1"/>
      <feColorMatrix in="shadowInnerInner1" values="0 0 0 0 0.61372904   0 0 0 0 0.86446633   0 0 0 0 1  0 0 0 1 0"/>
    </filter>
    <linearGradient id="notification-login-reminder-d" x1="50%" x2="50%" y1="5.939%" y2="90.889%">
      <stop offset="0%" stop-color="#FFF"/>
      <stop offset="100%" stop-color="#E6EEFC"/>
    </linearGradient>
  </defs>
  <g fill="none" fill-rule="evenodd" filter="url(#notification-login-reminder-a)" transform="translate(3 3)">
    <g fill-rule="nonzero">
      <use fill="#0298EA" xlink:href="#notification-login-reminder-b"/>
      <use fill="#000" filter="url(#notification-login-reminder-c)" xlink:href="#notification-login-reminder-b"/>
    </g>
    <path fill="url(#notification-login-reminder-d)" d="M7.6507378,1.18582721 C10.1564779,-0.26373092 15.5810662,-0.67507772 16.7637093,1.63082501 C22.5073444,2.03555351 20.3249579,9.53842401 19.5627786,10.9883527 C20.8807517,11.7015359 20.1771283,14.8942418 18.8742161,14.8942418 C18.6654641,15.8105461 17.7032636,18.3715066 16.7637093,18.9824569 C16.7637093,19.8387331 16.0152677,22.7678169 19.5627786,23.861468 C21.3024022,24.3977711 23.229296,25.1695723 25.3434601,26.1768715 C21.9855933,29.1770859 17.5537547,31 12.6961518,31 C7.8156655,31 3.3649645,29.1598706 1.77635684e-15,26.1355629 C2.214649,25.2181473 4.1102711,24.4602384 5.6872715,23.861468 C8.8360076,22.6659261 8.2850319,20.151727 8.2850319,18.9824569 C7.8601049,18.478264 6.2320255,16.9063811 6.2320255,14.8942418 C4.2401003,14.6351145 4.2401003,11.3681994 5.4299915,10.9883527 C3.4101785,7.20265331 5.1449977,2.63538541 7.6507378,1.18582721 Z" transform="translate(8.304 9)"/>
  </g>
</svg>
