<svg xmlns="http://www.w3.org/2000/svg" xmlns:xlink="http://www.w3.org/1999/xlink" width="48" height="48" viewBox="0 0 48 48">
  <defs>
    <filter id="stock-cell-phone-success-a" width="131%" height="131%" x="-15.5%" y="-15.5%" filterUnits="objectBoundingBox">
      <feOffset dy="1" in="SourceAlpha" result="shadowOffsetOuter1"/>
      <feGaussianBlur in="shadowOffsetOuter1" result="shadowBlurOuter1" stdDeviation="1"/>
      <feColorMatrix in="shadowBlurOuter1" result="shadowMatrixOuter1" values="0 0 0 0 0   0 0 0 0 0   0 0 0 0 0  0 0 0 0.2 0"/>
      <feMerge>
        <feMergeNode in="shadowMatrixOuter1"/>
        <feMergeNode in="SourceGraphic"/>
      </feMerge>
    </filter>
    <path id="stock-cell-phone-success-b" d="M41.0813985,27.1245154 C37.6991656,38.2146697 25.9652738,44.4635753 14.8748671,41.0814194 C3.78446033,37.6992635 -2.46353788,25.9656389 0.918695021,14.8754846 C4.30092792,3.78533034 16.03377,-2.46357534 27.1241767,0.918580553 C38.2145835,4.30073647 44.4636314,16.0343611 41.0813985,27.1245154"/>
    <filter id="stock-cell-phone-success-c" width="123.8%" height="123.8%" x="-11.9%" y="-11.9%" filterUnits="objectBoundingBox">
      <feGaussianBlur in="SourceAlpha" result="shadowBlurInner1" stdDeviation="5"/>
      <feOffset in="shadowBlurInner1" result="shadowOffsetInner1"/>
      <feComposite in="shadowOffsetInner1" in2="SourceAlpha" k2="-1" k3="1" operator="arithmetic" result="shadowInnerInner1"/>
      <feColorMatrix in="shadowInnerInner1" values="0 0 0 0 0.578947368   0 0 0 0 1   0 0 0 0 0  0 0 0 1 0"/>
    </filter>
  </defs>
  <g fill="none" fill-rule="evenodd" filter="url(#stock-cell-phone-success-a)" transform="translate(3 3)">
    <g fill-rule="nonzero">
      <use fill="#88C92E" xlink:href="#stock-cell-phone-success-b"/>
      <use fill="#000" filter="url(#stock-cell-phone-success-c)" xlink:href="#stock-cell-phone-success-b"/>
    </g>
    <g transform="translate(13.381 7.619)">
      <path stroke="#FFF" stroke-linecap="round" stroke-linejoin="round" d="M1.08560035,0.905122303 C0.55567842,0.905122303 0.126091811,1.338706 0.126091811,1.85317662 L0.126091811,23.9385696 C0.126091811,24.4621655 0.553634863,24.8866239 1.08560035,24.8866239 L14.1831345,24.8866239 C14.7130565,24.8866239 15.1426431,24.4530401 15.1426431,23.9385696 L15.1426431,1.85317662 C15.1426431,1.32958068 14.7151001,0.905122303 14.1831345,0.905122303 L1.08560035,0.905122303 Z"/>
      <polygon fill="#FFF" fill-rule="nonzero" points="1.619 4.381 1.619 21.381 13.619 21.381 13.619 4.381"/>
      <line x1="7.143" x2="8.143" y1="22.889" y2="22.889" stroke="#FFF" stroke-linecap="round" stroke-linejoin="round"/>
      <line x1="6.119" x2="9.119" y1="2.903" y2="2.903" stroke="#FFF" stroke-linecap="round" stroke-linejoin="round"/>
    </g>
  </g>
</svg>
