<svg xmlns="http://www.w3.org/2000/svg" xmlns:xlink="http://www.w3.org/1999/xlink" width="48" height="48" viewBox="0 0 48 48">
  <defs>
    <filter id="system_updated-a" width="131%" height="131%" x="-15.5%" y="-15.5%" filterUnits="objectBoundingBox">
      <feOffset dy="1" in="SourceAlpha" result="shadowOffsetOuter1"/>
      <feGaussianBlur in="shadowOffsetOuter1" result="shadowBlurOuter1" stdDeviation="1"/>
      <feColorMatrix in="shadowBlurOuter1" result="shadowMatrixOuter1" values="0 0 0 0 0   0 0 0 0 0   0 0 0 0 0  0 0 0 0.2 0"/>
      <feMerge>
        <feMergeNode in="shadowMatrixOuter1"/>
        <feMergeNode in="SourceGraphic"/>
      </feMerge>
    </filter>
    <circle id="system_updated-b" cx="21" cy="21" r="21"/>
    <filter id="system_updated-c" width="123.8%" height="123.8%" x="-11.9%" y="-11.9%" filterUnits="objectBoundingBox">
      <feGaussianBlur in="SourceAlpha" result="shadowBlurInner1" stdDeviation="5"/>
      <feOffset in="shadowBlurInner1" result="shadowOffsetInner1"/>
      <feComposite in="shadowOffsetInner1" in2="SourceAlpha" k2="-1" k3="1" operator="arithmetic" result="shadowInnerInner1"/>
      <feColorMatrix in="shadowInnerInner1" values="0 0 0 0 0.263592083   0 0 0 0 0.903435474   0 0 0 0 1  0 0 0 1 0"/>
    </filter>
  </defs>
  <g fill="none" filter="url(#system_updated-a)" transform="translate(3 3)">
    <use fill="#009FE8" xlink:href="#system_updated-b"/>
    <use fill="#000" filter="url(#system_updated-c)" xlink:href="#system_updated-b"/>
    <path fill="#FFF" d="M11.569,21.003 L16.997,21.006 L16.997,30 C16.997,30.552 17.51,31.006 18.063,31.006 L24.063,31.006 C24.615,31.006 24.997,30.552 24.997,30 L24.997,21.006 L30.475,21.003 C30.976,21.003 31.232,20.457 30.877,20.102 L21.388,10.242 C21.168,10.022 20.813,10.037 20.594,10.257 L11.175,20.094 C10.821,20.449 11.068,21.003 11.569,21.003 Z"/>
  </g>
</svg>
