<?xml version="1.0" encoding="UTF-8"?>
<svg width="30px" height="30px" viewBox="0 0 30 30" version="1.1" xmlns="http://www.w3.org/2000/svg" xmlns:xlink="http://www.w3.org/1999/xlink">
    <!-- Generator: Sketch 58 (84663) - https://sketch.com -->
    <title>Unknown</title>
    <desc>Created with Sketch.</desc>
    <g id="Unknown" stroke="none" stroke-width="1" fill="none" fill-rule="evenodd">
        <g id="编组-7" transform="translate(3.000000, 3.000000)">
            <circle id="椭圆形" fill="#777777" cx="12" cy="12" r="12"></circle>
            <path d="M12.194644,4 C13.657877,4 14.8261303,4.37298489 15.7177359,5.16537768 C16.5643445,5.91294824 16.9993147,6.94546006 16.9993147,8.26451391 C17.0164946,9.19076082 16.7102274,10.0958509 16.1293743,10.8353883 C15.9010566,11.0995192 15.2827657,11.6710025 14.276168,12.527427 C13.7728692,12.9452341 13.4295594,13.3406301 13.2012417,13.7360261 C12.9029288,14.2194658 12.7662715,14.7477276 12.7662715,15.341622 L12.7662715,15.845872 L10.9363969,15.845872 L10.9363969,15.341622 C10.9363969,14.6164626 11.0730542,13.9777459 11.3480353,13.4286738 C11.6680134,12.7691468 12.4229617,11.9351334 13.657877,10.8786097 C14.0245186,10.5264351 14.2994997,10.263905 14.436157,10.0878177 C14.894459,9.53874555 15.1227766,8.96726226 15.1227766,8.35255755 C15.1227766,7.47212112 14.8477955,6.79178388 14.3444966,6.30834424 C13.8195326,5.78008238 13.0629178,5.53996336 12.1029836,5.53996336 C10.9580621,5.53996336 10.1114534,5.89053714 9.56315767,6.6156966 C9.05985883,7.2304013 8.80820941,8.06601552 8.80820941,9.14334955 L7,9.14334955 C7,7.60498699 7.43330364,6.37397678 8.34990748,5.45031892 C9.26651133,4.48343964 10.5464236,4 12.194644,4 Z M11.8513342,17.3858353 C12.2396409,17.3858353 12.5846173,17.4946893 12.8579319,17.7588202 C13.1141403,18.0022859 13.2545987,18.3363917 13.2462386,18.6824781 C13.2462386,19.0778741 13.1095813,19.3852264 12.8346001,19.6269462 C12.5699986,19.8696448 12.2171779,20.0034813 11.8513342,19.9999311 C11.4854905,20.0034813 11.1326697,19.8696448 10.8680682,19.6269462 C10.6056388,19.378776 10.4640889,19.0359594 10.478095,18.6824781 C10.478095,18.3078924 10.5930871,18.00054 10.8664017,17.7588202 C11.1250538,17.5073327 11.4819161,17.3719632 11.8496676,17.3858353 L11.8513342,17.3858353 Z" id="形状" fill="#FFFFFF" fill-rule="nonzero"></path>
        </g>
    </g>
</svg>