<?xml version="1.0" encoding="UTF-8"?>
<svg width="16px" height="16px" viewBox="0 0 16 16" version="1.1" xmlns="http://www.w3.org/2000/svg" xmlns:xlink="http://www.w3.org/1999/xlink">
    <title>网络检测</title>
    <g id="dock" stroke="none" stroke-width="1" fill="none" fill-rule="evenodd">
        <g id="dock-插件暂用方案" transform="translate(-1925, -438)">
            <g id="Group-3备份-8" transform="translate(1893, 164)">
                <g id="wifi列表" transform="translate(0, 48)">
                    <g id="选项-copy-12" transform="translate(0, 216)">
                        <g id="网络检测" transform="translate(32, 10)">
                            <rect id="矩形" x="0" y="0" width="16" height="16"></rect>
                            <path fill="#FFFFFF" fill-rule="evenodd" d="M11.7582521,3.33058262 C14.0194523,5.59178277 14.1858169,9.15454688 12.2573459,11.6072685 L14.2367158,13.5872209 C14.529609,13.8801141 14.529609,14.3549878 14.2367158,14.6478811 C13.9438226,14.9407743 13.4689489,14.9407743 13.1760557,14.6478811 L11.1968982,12.6678859 C8.74415157,14.597018 5.18086185,14.4308619 2.91941738,12.1694174 C0.478640559,9.72864056 0.478640559,5.77135944 2.91941738,3.33058262 C5.36019421,0.889805794 9.31747532,0.889805794 11.7582521,3.33058262 Z M3.76794552,4.17911075 C1.79579785,6.15125843 1.79579785,9.34874157 3.76794552,11.3208892 C5.74009319,13.2930369 8.93757634,13.2930369 10.909724,11.3208892 C12.8818717,9.34874157 12.8818717,6.15125843 10.909724,4.17911075 C8.93757634,2.20696308 5.74009319,2.20696308 3.76794552,4.17911075 Z M6.97677505,5.34938276 L8.132,9.008 L8.56598773,8.25173935 C8.64019686,8.12200606 8.76757311,8.03367593 8.91176083,8.00783625 L9,8 L11,8 C11.2761424,8 11.5,8.22385763 11.5,8.5 C11.5,8.77614237 11.2761424,9 11,9 L9.29,9 L8.43401227,10.4964727 C8.23306985,10.8477627 7.73318639,10.8208022 7.55768363,10.4824162 L7.52322495,10.3988293 L6.395,6.827 L5.9472136,7.7236068 C5.87663359,7.86476681 5.74464001,7.96259986 5.5930043,7.99128976 L5.5,8 L3.5,8 C3.22385763,8 3,7.77614237 3,7.5 C3,7.22385763 3.22385763,7 3.5,7 L5.19,7 L6.0527864,5.2763932 C6.2537028,4.87456042 6.84144163,4.92098826 6.97677505,5.34938276 Z" id="形状结合"></path>
                        </g>
                    </g>
                </g>
            </g>
        </g>
    </g>
</svg>