<?xml version="1.0" encoding="UTF-8"?>
<svg width="16px" height="16px" viewBox="0 0 16 16" version="1.1" xmlns="http://www.w3.org/2000/svg" xmlns:xlink="http://www.w3.org/1999/xlink">
    <title>ICON / TrayICON / wifi</title>
    <g id="任务栏/快捷面板" stroke="none" stroke-width="1" fill="none" fill-rule="evenodd">
        <g id="快捷面板调整" transform="translate(-2004, -1234)" fill="#FFFFFF" fill-rule="nonzero">
            <g id="Dock_EMode备份" transform="translate(62, 1222)">
                <g id="taskbar/efficient_mode/tray_light" transform="translate(1644, 12)">
                    <g id="ICON-/-TrayICON-/-wifi" transform="translate(298, 2)">
                        <path d="M14,0 C15.1045695,0 16,0.8954305 16,2 L16,10 C16,11.1045695 15.1045695,12 14,12 L2,12 C0.8954305,12 0,11.1045695 0,10 L0,2 C0,0.8954305 0.8954305,0 2,0 L14,0 Z M14,1 L2,1 C1.44771525,1 1,1.44771525 1,2 L1,10 C1,10.5522847 1.44771525,11 2,11 L14,11 C14.5522847,11 15,10.5522847 15,10 L15,2 C15,1.44771525 14.5522847,1 14,1 Z M8.5,3 C8.77614237,3 9,3.22385763 9,3.5 L9,6.5 C9,6.77614237 8.77614237,7 8.5,7 L6,7 L6,8.5 C6,8.77614237 5.77614237,9 5.5,9 C5.22385763,9 5,8.77614237 5,8.5 L5,3.5 C5,3.22385763 5.22385763,3 5.5,3 L8.5,3 Z M10.9287465,3.24275212 L13,6.696 L13,3.5 C13,3.25454011 13.1768752,3.05039163 13.4101244,3.00805567 L13.5,3 C13.7761424,3 14,3.22385763 14,3.5 L14,8.5 C14,9.00711152 13.3321603,9.19209242 13.0712535,8.75724788 L11,5.304 L11,8.5 C11,8.74545989 10.8231248,8.94960837 10.5898756,8.99194433 L10.5,9 C10.2238576,9 10,8.77614237 10,8.5 L10,3.5 C10,2.99288848 10.6678397,2.80790758 10.9287465,3.24275212 Z M4.64367394,3.02108686 C4.90817037,3.10043578 5.05826207,3.37917752 4.97891314,3.64367394 L3.47891314,8.64367394 C3.33638272,9.11877535 2.66361728,9.11877535 2.52108686,8.64367394 L1.02108686,3.64367394 C0.94173793,3.37917752 1.09182963,3.10043578 1.35632606,3.02108686 C1.62082248,2.94173793 1.89956422,3.09182963 1.97891314,3.35632606 L3,6.761 L4.02108686,3.35632606 C4.10043578,3.09182963 4.37917752,2.94173793 4.64367394,3.02108686 Z M8,4 L6,4 L6,6 L8,6 L8,4 Z" id="形状"></path>
                    </g>
                </g>
            </g>
        </g>
    </g>
</svg>