<?xml version="1.0" encoding="UTF-8"?>
<svg width="36px" height="36px" viewBox="0 0 36 36" version="1.1" xmlns="http://www.w3.org/2000/svg" xmlns:xlink="http://www.w3.org/1999/xlink">
    <title>fast-icon/camera_normal</title>
    <g id="fast-icon/camera_normal" stroke="none" stroke-width="1" fill="none" fill-rule="evenodd">
        <path d="M22.3915047,6 C23.0810848,6 23.7220246,6.35523939 24.0875013,6.94000212 L26,10 L29,10 C30.6568542,10 32,11.3431458 32,13 L32,26 C32,27.6568542 30.6568542,29 29,29 L7,29 C5.34314575,29 4,27.6568542 4,26 L4,13 C4,11.3431458 5.34314575,10 7,10 L10,10 L11.9124987,6.94000212 C12.2779754,6.35523939 12.9189152,6 13.6084953,6 L22.3915047,6 Z M18,12 C14.1340068,12 11,15.1340068 11,19 C11,22.8659932 14.1340068,26 18,26 C21.8659932,26 25,22.8659932 25,19 C25,15.1340068 21.8659932,12 18,12 Z M18,14 C20.7614237,14 23,16.2385763 23,19 C23,21.7614237 20.7614237,24 18,24 C15.2385763,24 13,21.7614237 13,19 C13,16.2385763 15.2385763,14 18,14 Z M28.5,12 C27.6715729,12 27,12.6715729 27,13.5 C27,14.3284271 27.6715729,15 28.5,15 C29.3284271,15 30,14.3284271 30,13.5 C30,12.6715729 29.3284271,12 28.5,12 Z" id="形状结合" fill="#000000"></path>
    </g>
</svg>