<?xml version="1.0" encoding="UTF-8"?>
<svg width="96px" height="96px" viewBox="0 0 96 96" version="1.1" xmlns="http://www.w3.org/2000/svg" xmlns:xlink="http://www.w3.org/1999/xlink">
    <title>status/backups</title>
    <defs>
        <linearGradient x1="50%" y1="0%" x2="50%" y2="98.5538974%" id="linearGradient-1">
            <stop stop-color="#5BBCFF" offset="0%"></stop>
            <stop stop-color="#2986F6" offset="100%"></stop>
        </linearGradient>
        <linearGradient x1="50%" y1="0%" x2="50%" y2="100%" id="linearGradient-2">
            <stop stop-color="#FFFFFF" offset="0%"></stop>
            <stop stop-color="#60B8E5" offset="100%"></stop>
        </linearGradient>
        <circle id="path-3" cx="48" cy="48" r="41"></circle>
        <path d="M33.6666667,0 C15.4412699,0 0.666666667,14.7746033 0.666666667,33 C0.666666667,51.2253967 15.4412699,66 33.6666667,66 C51.8920634,66 66.6666667,51.2253967 66.6666667,33 C66.6666667,14.7746033 51.8920634,0 33.6666667,0 Z" id="path-4"></path>
        <linearGradient x1="50%" y1="12.0048828%" x2="52.6700107%" y2="90.5%" id="linearGradient-6">
            <stop stop-color="#F2F7FF" offset="0.977928322%"></stop>
            <stop stop-color="#C3DFF6" offset="100%"></stop>
        </linearGradient>
        <path d="M64.375,20.1666667 L70.3333333,33 L66.6666667,33 C66.6666667,36.9164025 65.9834369,40.7417454 64.6641161,44.3453822 C59.9412241,57.2456467 47.6312739,66 33.6666667,66 C21.5475693,66 10.5834589,59.4096476 4.80302597,49.0082965 C4.31117797,48.1232618 4.62991878,47.0070778 5.51495348,46.5152298 C6.39998819,46.0233818 7.51617216,46.3421226 8.00802016,47.2271573 C13.1480184,56.4761059 22.8924577,62.3333333 33.6666667,62.3333333 C46.080112,62.3333333 57.0230227,54.5511649 61.2209485,43.0848105 C62.3929593,39.8835411 63,36.4847738 63,33 L58.4166667,33 L64.375,20.1666667 Z M33.6666667,-7.10542736e-15 C45.785764,-7.10542736e-15 56.7498744,6.59035239 62.5303074,16.9917035 C63.0221554,17.8767382 62.7034146,18.9929222 61.8183799,19.4847702 C60.9333451,19.9766182 59.8171612,19.6578774 59.3253132,18.7728427 C54.1853149,9.52389415 44.4408756,3.66666667 33.6666667,3.66666667 C21.2532213,3.66666667 10.3103107,11.4488351 6.11238485,22.9151895 C4.94037404,26.1164589 4.33333333,29.5152262 4.33333333,33 L8.91666667,33 L2.95833333,45.8333333 L-3,33 L0.666666667,33 C0.666666667,29.0835975 1.34989639,25.2582546 2.66921722,21.6546178 C7.3921092,8.75435333 19.7020594,-7.10542736e-15 33.6666667,-7.10542736e-15 Z" id="path-7"></path>
        <filter x="-2.0%" y="-2.3%" width="104.1%" height="104.5%" filterUnits="objectBoundingBox" id="filter-8">
            <feOffset dx="0" dy="0" in="SourceAlpha" result="shadowOffsetOuter1"></feOffset>
            <feGaussianBlur stdDeviation="0.5" in="shadowOffsetOuter1" result="shadowBlurOuter1"></feGaussianBlur>
            <feColorMatrix values="0 0 0 0 0   0 0 0 0 0   0 0 0 0 0  0 0 0 0.3 0" type="matrix" in="shadowBlurOuter1"></feColorMatrix>
        </filter>
        <filter x="-2.7%" y="-3.0%" width="105.5%" height="106.1%" filterUnits="objectBoundingBox" id="filter-9">
            <feGaussianBlur stdDeviation="0.5" in="SourceAlpha" result="shadowBlurInner1"></feGaussianBlur>
            <feOffset dx="0" dy="1" in="shadowBlurInner1" result="shadowOffsetInner1"></feOffset>
            <feComposite in="shadowOffsetInner1" in2="SourceAlpha" operator="arithmetic" k2="-1" k3="1" result="shadowInnerInner1"></feComposite>
            <feColorMatrix values="0 0 0 0 1   0 0 0 0 1   0 0 0 0 1  0 0 0 0.736888112 0" type="matrix" in="shadowInnerInner1"></feColorMatrix>
        </filter>
        <linearGradient x1="39.9923383%" y1="8.96776765%" x2="69.2279046%" y2="149.744545%" id="linearGradient-10">
            <stop stop-color="#FFFFFF" offset="0%"></stop>
            <stop stop-color="#A7D0E5" offset="100%"></stop>
        </linearGradient>
        <path d="M42.4599158,65.6445709 L42.713439,63.3150994 C42.7601397,62.8859949 42.5359906,62.4728756 42.1507922,62.2781096 L40.4897566,61.4382483 C40.0871245,61.2346674 39.5990466,61.3149622 39.2828522,61.6367989 L37.7377884,63.2094331 C37.3591524,63.5948256 36.7479711,63.6246864 36.3335694,63.2780399 L35.6144753,62.6765185 C35.2202548,62.3467534 35.1272745,61.7778805 35.395987,61.3397613 L36.6297069,59.3282568 C36.8522579,58.9654011 36.8303014,58.503362 36.5743446,58.1632453 L35.4764315,56.7043331 C35.2040238,56.3423565 34.7280748,56.1992641 34.3012184,56.3510094 L32.260113,57.076612 C31.7517219,57.2573424 31.1897157,57.0177613 30.9680807,56.5258234 L30.5587174,55.6172067 C30.3479545,55.1494006 30.5112263,54.5977937 30.9426599,54.3200733 L32.9032847,53.0579889 C33.2611068,52.8276533 33.4417575,52.4019897 33.3588284,51.9846002 L33.0174441,50.2663822 C32.9298054,49.8252885 32.5676919,49.4910538 32.1210038,49.438958 L29.5508865,49.1392136 C29.2502415,49.1041503 29.0210956,48.8534096 29.0131774,48.5508305 L29.0003547,48.0608395 C28.9997043,48.0359875 28.9999484,48.0111201 29.0010865,47.9862856 L29.0433419,47.0641955 C29.0665919,46.5568378 29.454094,46.1410861 29.958565,46.0822513 L32.2495107,45.8150658 C32.6787773,45.7650018 33.0319119,45.4538113 33.135569,45.0342503 L33.5278405,43.4464984 C33.6341031,43.0163916 33.4552082,42.5663039 33.0826788,42.326501 L31.2106254,41.1214313 C30.7671756,40.8359759 30.6088152,40.2630222 30.8427238,39.7903496 L31.3188416,38.8282307 C31.5517757,38.3575273 32.099986,38.1354747 32.5948331,38.3113904 L34.7236836,39.068186 C35.137194,39.2151868 35.5984633,39.0857955 35.8751903,38.7451751 L36.8224334,37.5792238 C37.0997227,37.2379113 37.1314176,36.7587626 36.901502,36.3838994 L35.7099063,34.441076 C35.4359816,33.9944586 35.53847,33.4136486 35.9487099,33.0877573 L36.7906268,32.4189452 C37.2057946,32.0891393 37.8029365,32.1258886 38.1745306,32.5041135 L39.7600408,34.1179159 C40.070587,34.4340035 40.5477368,34.5176845 40.9473107,34.3261353 L42.2095674,33.7210299 C42.6060253,33.5309744 42.8394172,33.1114493 42.7918487,32.6743713 L42.5427228,30.3853034 C42.4857746,29.8620411 42.8301054,29.3791954 43.3433746,29.2625711 L44.3849001,29.025917 C44.9007757,28.9087004 45.4221291,29.1988471 45.5944025,29.6990363 L46.3257619,31.8225109 C46.4763441,32.256187 46.8943562,32.5390233 47.3529259,32.5174877 C47.6130328,32.5046623 47.8287241,32.4982496 48,32.4982496 C48.1712759,32.4982496 48.3869672,32.5046623 48.6470741,32.5174877 C49.1056438,32.5390233 49.5236559,32.256187 49.6742381,31.8225109 L50.4055975,29.6990363 C50.5778709,29.1988471 51.0992243,28.9087004 51.6150999,29.025917 L52.6566254,29.2625711 C53.1698946,29.3791954 53.5142254,29.8620411 53.4572772,30.3853034 L53.2081513,32.6743713 C53.1605828,33.1114493 53.3939747,33.5309744 53.7904326,33.7210299 L55.0526893,34.3261353 C55.4522632,34.5176845 55.929413,34.4340035 56.2399592,34.1179159 L57.8254694,32.5041135 C58.1970635,32.1258886 58.7942054,32.0891393 59.2093732,32.4189452 L60.0512901,33.0877573 C60.46153,33.4136486 60.5640184,33.9944586 60.2900937,34.441076 L59.098498,36.3838994 C58.8685824,36.7587626 58.9002773,37.2379113 59.1775666,37.5792238 L60.1248097,38.7451751 C60.4015367,39.0857955 60.862806,39.2151868 61.2763164,39.068186 L63.4051669,38.3113904 C63.900014,38.1354747 64.4482243,38.3575273 64.6811584,38.8282307 L65.1572762,39.7903496 C65.3911848,40.2630222 65.2328244,40.8359759 64.7893746,41.1214313 L62.9173212,42.326501 C62.5447918,42.5663039 62.3658969,43.0163916 62.4721595,43.4464984 L62.864431,45.0342503 C62.9680881,45.4538113 63.3212227,45.7650018 63.7504893,45.8150658 L66.041435,46.0822513 C66.545906,46.1410861 66.9334081,46.5568378 66.9566581,47.0641955 L66.9989135,47.9862856 C67.0000516,48.0111201 67.0002957,48.0359875 66.9996453,48.0608395 L66.9868226,48.5508305 C66.9789044,48.8534096 66.7497585,49.1041503 66.4491135,49.1392136 L63.8789962,49.438958 C63.4323081,49.4910538 63.0701946,49.8252885 62.9825559,50.2663822 L62.6411716,51.9846002 C62.5582425,52.4019897 62.7388932,52.8276533 63.0967153,53.0579889 L65.0573401,54.3200733 C65.4887737,54.5977937 65.6520455,55.1494006 65.4412826,55.6172067 L65.0319193,56.5258234 C64.8102843,57.0177613 64.2482781,57.2573424 63.739887,57.076612 L61.6987816,56.3510094 C61.2719252,56.1992641 60.7959762,56.3423565 60.5235685,56.7043331 L59.4256554,58.1632453 C59.1696986,58.503362 59.1477421,58.9654011 59.3702931,59.3282568 L60.604013,61.3397613 C60.8727255,61.7778805 60.7797452,62.3467534 60.3855247,62.6765185 L59.6664306,63.2780399 C59.2520289,63.6246864 58.6408476,63.5948256 58.2622116,63.2094331 L56.7171478,61.6367989 C56.4009534,61.3149622 55.9128755,61.2346674 55.5102434,61.4382483 L53.8492078,62.2781096 C53.4640094,62.4728756 53.2398603,62.8859949 53.286561,63.3150994 L53.5400842,65.6445709 C53.5966368,66.1641994 53.2573809,66.6446129 52.7487689,66.7651364 L51.8761974,66.9719056 C51.3578603,67.0947336 50.8308258,66.8046091 50.6573585,66.3009533 L49.9285207,64.1848 C49.7775764,63.7465391 49.353969,63.4618038 48.8911563,63.487517 L48.0574901,63.5338342 C48.0191929,63.5359619 47.9808071,63.5359619 47.9425099,63.5338342 L47.1088437,63.487517 C46.646031,63.4618038 46.2224236,63.7465391 46.0714793,64.1848 L45.3426415,66.3009533 C45.1691742,66.8046091 44.6421397,67.0947336 44.1238026,66.9719056 L43.2512311,66.7651364 C42.7426191,66.6446129 42.4033632,66.1641994 42.4599158,65.6445709 Z M48,58.6497863 C53.8763183,58.6497863 58.6400155,53.8818842 58.6400155,48.000379 C58.6400155,42.1188737 53.8763183,37.3509716 48,37.3509716 C42.1236817,37.3509716 37.3599845,42.1188737 37.3599845,48.000379 C37.3599845,53.8818842 42.1236817,58.6497863 48,58.6497863 Z M48.0000276,55.8781438 C52.3509601,55.8781438 55.8780878,52.3510087 55.8780878,48.0000672 C55.8780878,43.6491256 52.3509601,40.1219906 48.0000276,40.1219906 C43.6490951,40.1219906 40.1219674,43.6491256 40.1219674,48.0000672 C40.1219674,52.3510087 43.6490951,55.8781438 48.0000276,55.8781438 Z M48.0000276,52.1708136 C50.3034625,52.1708136 52.1707654,50.3035068 52.1707654,48.0000672 C52.1707654,45.6966275 50.3034625,43.8293208 48.0000276,43.8293208 C45.6965928,43.8293208 43.8292898,45.6966275 43.8292898,48.0000672 C43.8292898,50.3035068 45.6965928,52.1708136 48.0000276,52.1708136 Z" id="path-11"></path>
        <filter x="-9.2%" y="-6.6%" width="118.4%" height="118.4%" filterUnits="objectBoundingBox" id="filter-12">
            <feOffset dx="0" dy="1" in="SourceAlpha" result="shadowOffsetOuter1"></feOffset>
            <feGaussianBlur stdDeviation="1" in="shadowOffsetOuter1" result="shadowBlurOuter1"></feGaussianBlur>
            <feColorMatrix values="0 0 0 0 0.043708791   0 0 0 0 0.319738208   0 0 0 0 0.566519475  0 0 0 0.500163899 0" type="matrix" in="shadowBlurOuter1"></feColorMatrix>
        </filter>
    </defs>
    <g id="status/backups" stroke="none" stroke-width="1" fill="none" fill-rule="evenodd">
        <g id="Oval">
            <circle stroke="url(#linearGradient-2)" stroke-width="2" stroke-linejoin="square" fill="url(#linearGradient-1)" fill-rule="evenodd" cx="48" cy="48" r="40"></circle>
            <circle stroke-opacity="0.08" stroke="#000000" stroke-width="1" cx="48" cy="48" r="41.5"></circle>
        </g>
        <g id="编组" transform="translate(14.3333, 15)">
            <mask id="mask-5" fill="white">
                <use xlink:href="#path-4"></use>
            </mask>
            <g id="蒙版" fill-rule="nonzero"></g>
            <g id="形状结合" fill-rule="nonzero" mask="url(#mask-5)">
                <use fill="black" fill-opacity="1" filter="url(#filter-8)" xlink:href="#path-7"></use>
                <use fill="url(#linearGradient-6)" xlink:href="#path-7"></use>
                <use fill="black" fill-opacity="1" filter="url(#filter-9)" xlink:href="#path-7"></use>
            </g>
        </g>
        <g id="Combined-Shape">
            <use fill="black" fill-opacity="1" filter="url(#filter-12)" xlink:href="#path-11"></use>
            <use fill="url(#linearGradient-10)" fill-rule="evenodd" xlink:href="#path-11"></use>
        </g>
    </g>
</svg>