<?xml version="1.0" encoding="UTF-8"?>
<svg width="32px" height="32px" viewBox="0 0 32 32" version="1.1" xmlns="http://www.w3.org/2000/svg" xmlns:xlink="http://www.w3.org/1999/xlink">
    <title>device/cpu</title>
    <defs>
        <filter x="-14.3%" y="-15.4%" width="128.6%" height="130.8%" filterUnits="objectBoundingBox" id="filter-1">
            <feOffset dx="0" dy="1" in="SourceAlpha" result="shadowOffsetOuter1"></feOffset>
            <feGaussianBlur stdDeviation="0.5" in="shadowOffsetOuter1" result="shadowBlurOuter1"></feGaussianBlur>
            <feColorMatrix values="0 0 0 0 0   0 0 0 0 0   0 0 0 0 0  0 0 0 0.15 0" type="matrix" in="shadowBlurOuter1" result="shadowMatrixOuter1"></feColorMatrix>
            <feMerge>
                <feMergeNode in="shadowMatrixOuter1"></feMergeNode>
                <feMergeNode in="SourceGraphic"></feMergeNode>
            </feMerge>
        </filter>
        <linearGradient x1="26.2556455%" y1="6.8877551%" x2="66.0703728%" y2="91.4864022%" id="linearGradient-2">
            <stop stop-color="#8ABC11" offset="0%"></stop>
            <stop stop-color="#317007" offset="100%"></stop>
        </linearGradient>
        <linearGradient x1="26.2556455%" y1="13.2653061%" x2="66.0703728%" y2="85.3493604%" id="linearGradient-3">
            <stop stop-color="#50A609" offset="0%"></stop>
            <stop stop-color="#367C07" offset="100%"></stop>
        </linearGradient>
        <path d="M3.5,6 L24.5,6 C24.7761424,6 25,6.22385763 25,6.5 L25,7.5 C25,7.77614237 24.7761424,8 24.5,8 L3.5,8 C3.22385763,8 3,7.77614237 3,7.5 L3,6.5 C3,6.22385763 3.22385763,6 3.5,6 Z M3.5,9 L24.5,9 C24.7761424,9 25,9.22385763 25,9.5 L25,10.5 C25,10.7761424 24.7761424,11 24.5,11 L3.5,11 C3.22385763,11 3,10.7761424 3,10.5 L3,9.5 C3,9.22385763 3.22385763,9 3.5,9 Z M3.5,12 L24.5,12 C24.7761424,12 25,12.2238576 25,12.5 L25,13.5 C25,13.7761424 24.7761424,14 24.5,14 L3.5,14 C3.22385763,14 3,13.7761424 3,13.5 L3,12.5 C3,12.2238576 3.22385763,12 3.5,12 Z M3.5,15 L24.5,15 C24.7761424,15 25,15.2238576 25,15.5 L25,16.5 C25,16.7761424 24.7761424,17 24.5,17 L3.5,17 C3.22385763,17 3,16.7761424 3,16.5 L3,15.5 C3,15.2238576 3.22385763,15 3.5,15 Z M3.5,18 L24.5,18 C24.7761424,18 25,18.2238576 25,18.5 L25,19.5 C25,19.7761424 24.7761424,20 24.5,20 L3.5,20 C3.22385763,20 3,19.7761424 3,19.5 L3,18.5 C3,18.2238576 3.22385763,18 3.5,18 Z" id="path-4"></path>
        <filter x="-9.1%" y="-7.1%" width="118.2%" height="128.6%" filterUnits="objectBoundingBox" id="filter-5">
            <feOffset dx="0" dy="1" in="SourceAlpha" result="shadowOffsetOuter1"></feOffset>
            <feGaussianBlur stdDeviation="0.5" in="shadowOffsetOuter1" result="shadowBlurOuter1"></feGaussianBlur>
            <feComposite in="shadowBlurOuter1" in2="SourceAlpha" operator="out" result="shadowBlurOuter1"></feComposite>
            <feColorMatrix values="0 0 0 0 0   0 0 0 0 0   0 0 0 0 0  0 0 0 0.230741914 0" type="matrix" in="shadowBlurOuter1"></feColorMatrix>
        </filter>
        <path d="M4.5,6 L23.5,6 C23.7761424,6 24,6.22385763 24,6.5 L24,7.5 C24,7.77614237 23.7761424,8 23.5,8 L4.5,8 C4.22385763,8 4,7.77614237 4,7.5 L4,6.5 C4,6.22385763 4.22385763,6 4.5,6 Z M4.5,9 L23.5,9 C23.7761424,9 24,9.22385763 24,9.5 L24,10.5 C24,10.7761424 23.7761424,11 23.5,11 L4.5,11 C4.22385763,11 4,10.7761424 4,10.5 L4,9.5 C4,9.22385763 4.22385763,9 4.5,9 Z M4.5,12 L23.5,12 C23.7761424,12 24,12.2238576 24,12.5 L24,13.5 C24,13.7761424 23.7761424,14 23.5,14 L4.5,14 C4.22385763,14 4,13.7761424 4,13.5 L4,12.5 C4,12.2238576 4.22385763,12 4.5,12 Z M4.5,15 L23.5,15 C23.7761424,15 24,15.2238576 24,15.5 L24,16.5 C24,16.7761424 23.7761424,17 23.5,17 L4.5,17 C4.22385763,17 4,16.7761424 4,16.5 L4,15.5 C4,15.2238576 4.22385763,15 4.5,15 Z M4.5,18 L23.5,18 C23.7761424,18 24,18.2238576 24,18.5 L24,19.5 C24,19.7761424 23.7761424,20 23.5,20 L4.5,20 C4.22385763,20 4,19.7761424 4,19.5 L4,18.5 C4,18.2238576 4.22385763,18 4.5,18 Z" id="path-6"></path>
        <filter x="-10.0%" y="-7.1%" width="120.0%" height="128.6%" filterUnits="objectBoundingBox" id="filter-7">
            <feOffset dx="0" dy="1" in="SourceAlpha" result="shadowOffsetOuter1"></feOffset>
            <feGaussianBlur stdDeviation="0.5" in="shadowOffsetOuter1" result="shadowBlurOuter1"></feGaussianBlur>
            <feComposite in="shadowBlurOuter1" in2="SourceAlpha" operator="out" result="shadowBlurOuter1"></feComposite>
            <feColorMatrix values="0 0 0 0 0   0 0 0 0 0   0 0 0 0 0  0 0 0 0.230741914 0" type="matrix" in="shadowBlurOuter1"></feColorMatrix>
        </filter>
        <linearGradient x1="0%" y1="49.0031409%" x2="100%" y2="50.9954821%" id="linearGradient-8">
            <stop stop-color="#E2D46C" offset="0%"></stop>
            <stop stop-color="#D7BC26" offset="18.1492935%"></stop>
            <stop stop-color="#CFB009" offset="38.885663%"></stop>
            <stop stop-color="#E7BF00" offset="56.4734084%"></stop>
            <stop stop-color="#D5B630" offset="70.4022382%"></stop>
            <stop stop-color="#C9A10A" offset="83.4427313%"></stop>
            <stop stop-color="#C2A422" offset="100%"></stop>
        </linearGradient>
        <path d="M7.375,23 L7.625,23 C7.83210678,23 8,23.1678932 8,23.375 L8,24.625 C8,24.8321068 7.83210678,25 7.625,25 L7.375,25 C7.16789322,25 7,24.8321068 7,24.625 L7,23.375 C7,23.1678932 7.16789322,23 7.375,23 Z M9.375,23 L9.625,23 C9.83210678,23 10,23.1678932 10,23.375 L10,24.625 C10,24.8321068 9.83210678,25 9.625,25 L9.375,25 C9.16789322,25 9,24.8321068 9,24.625 L9,23.375 C9,23.1678932 9.16789322,23 9.375,23 Z M11.375,23 L11.625,23 C11.8321068,23 12,23.1678932 12,23.375 L12,24.625 C12,24.8321068 11.8321068,25 11.625,25 L11.375,25 C11.1678932,25 11,24.8321068 11,24.625 L11,23.375 C11,23.1678932 11.1678932,23 11.375,23 Z M13.375,23 L13.625,23 C13.8321068,23 14,23.1678932 14,23.375 L14,24.625 C14,24.8321068 13.8321068,25 13.625,25 L13.375,25 C13.1678932,25 13,24.8321068 13,24.625 L13,23.375 C13,23.1678932 13.1678932,23 13.375,23 Z M15.375,23 L15.625,23 C15.8321068,23 16,23.1678932 16,23.375 L16,24.625 C16,24.8321068 15.8321068,25 15.625,25 L15.375,25 C15.1678932,25 15,24.8321068 15,24.625 L15,23.375 C15,23.1678932 15.1678932,23 15.375,23 Z M17.375,23 L17.625,23 C17.8321068,23 18,23.1678932 18,23.375 L18,24.625 C18,24.8321068 17.8321068,25 17.625,25 L17.375,25 C17.1678932,25 17,24.8321068 17,24.625 L17,23.375 C17,23.1678932 17.1678932,23 17.375,23 Z M19.375,23 L19.625,23 C19.8321068,23 20,23.1678932 20,23.375 L20,24.625 C20,24.8321068 19.8321068,25 19.625,25 L19.375,25 C19.1678932,25 19,24.8321068 19,24.625 L19,23.375 C19,23.1678932 19.1678932,23 19.375,23 Z" id="path-9"></path>
        <filter x="-3.8%" y="-25.0%" width="107.7%" height="150.0%" filterUnits="objectBoundingBox" id="filter-10">
            <feOffset dx="0" dy="1" in="SourceAlpha" result="shadowOffsetInner1"></feOffset>
            <feComposite in="shadowOffsetInner1" in2="SourceAlpha" operator="arithmetic" k2="-1" k3="1" result="shadowInnerInner1"></feComposite>
            <feColorMatrix values="0 0 0 0 0.926828578   0 0 0 0 0.558558022   0 0 0 0 0  0 0 0 0.55 0" type="matrix" in="shadowInnerInner1"></feColorMatrix>
        </filter>
        <linearGradient x1="25.7071738%" y1="5.31005227%" x2="75.490452%" y2="95.833067%" id="linearGradient-11">
            <stop stop-color="#3F3F3F" offset="0.0686233108%"></stop>
            <stop stop-color="#2F2F2F" offset="100%"></stop>
        </linearGradient>
        <rect id="path-12" x="4" y="4" width="20" height="18" rx="2.5"></rect>
        <filter x="-10.0%" y="-5.6%" width="120.0%" height="122.2%" filterUnits="objectBoundingBox" id="filter-13">
            <feOffset dx="0" dy="1" in="SourceAlpha" result="shadowOffsetOuter1"></feOffset>
            <feGaussianBlur stdDeviation="0.5" in="shadowOffsetOuter1" result="shadowBlurOuter1"></feGaussianBlur>
            <feColorMatrix values="0 0 0 0 0   0 0 0 0 0   0 0 0 0 0  0 0 0 0.515133304 0" type="matrix" in="shadowBlurOuter1"></feColorMatrix>
        </filter>
        <filter x="-10.0%" y="-5.6%" width="120.0%" height="122.2%" filterUnits="objectBoundingBox" id="filter-14">
            <feGaussianBlur stdDeviation="0.5" in="SourceAlpha" result="shadowBlurInner1"></feGaussianBlur>
            <feOffset dx="0" dy="-1" in="shadowBlurInner1" result="shadowOffsetInner1"></feOffset>
            <feComposite in="shadowOffsetInner1" in2="SourceAlpha" operator="arithmetic" k2="-1" k3="1" result="shadowInnerInner1"></feComposite>
            <feColorMatrix values="0 0 0 0 0.109744086   0 0 0 0 0.109843023   0 0 0 0 0.110252491  0 0 0 0.250573645 0" type="matrix" in="shadowInnerInner1" result="shadowMatrixInner1"></feColorMatrix>
            <feGaussianBlur stdDeviation="0.5" in="SourceAlpha" result="shadowBlurInner2"></feGaussianBlur>
            <feOffset dx="0" dy="1" in="shadowBlurInner2" result="shadowOffsetInner2"></feOffset>
            <feComposite in="shadowOffsetInner2" in2="SourceAlpha" operator="arithmetic" k2="-1" k3="1" result="shadowInnerInner2"></feComposite>
            <feColorMatrix values="0 0 0 0 0.7109375   0 0 0 0 0.7109375   0 0 0 0 0.7109375  0 0 0 0.568209135 0" type="matrix" in="shadowInnerInner2" result="shadowMatrixInner2"></feColorMatrix>
            <feMerge>
                <feMergeNode in="shadowMatrixInner1"></feMergeNode>
                <feMergeNode in="shadowMatrixInner2"></feMergeNode>
            </feMerge>
        </filter>
        <linearGradient x1="50%" y1="100%" x2="50%" y2="0%" id="linearGradient-15">
            <stop stop-color="#C6C6C6" offset="0%"></stop>
            <stop stop-color="#FFFFFF" offset="100%"></stop>
        </linearGradient>
        <path d="M9.751,16.098 C10.423,16.098 10.976,15.832 11.403,15.335 L10.857,14.691 C10.577,14.992 10.227,15.202 9.786,15.202 C8.967,15.202 8.435,14.523 8.435,13.396 C8.435,12.283 9.023,11.611 9.807,11.611 C10.199,11.611 10.5,11.793 10.759,12.045 L11.305,11.387 C10.969,11.037 10.444,10.722 9.786,10.722 C8.477,10.722 7.378,11.723 7.378,13.431 C7.378,15.16 8.442,16.098 9.751,16.098 Z M13.272,16 L13.272,14.159 L13.965,14.159 C15.078,14.159 15.967,13.627 15.967,12.444 C15.967,11.219 15.085,10.82 13.937,10.82 L12.236,10.82 L12.236,16 L13.272,16 Z M13.895,13.34 L13.272,13.34 L13.272,11.639 L13.86,11.639 C14.574,11.639 14.952,11.842 14.952,12.444 C14.952,13.039 14.609,13.34 13.895,13.34 Z M18.893,16.098 C20.16,16.098 20.895,15.391 20.895,13.669 L20.895,10.82 L19.901,10.82 L19.901,13.76 C19.901,14.838 19.509,15.202 18.893,15.202 C18.284,15.202 17.913,14.838 17.913,13.76 L17.913,10.82 L16.877,10.82 L16.877,13.669 C16.877,15.391 17.633,16.098 18.893,16.098 Z" id="path-16"></path>
        <filter x="-7.4%" y="-18.6%" width="114.8%" height="137.2%" filterUnits="objectBoundingBox" id="filter-17">
            <feGaussianBlur stdDeviation="0.5" in="SourceAlpha" result="shadowBlurInner1"></feGaussianBlur>
            <feOffset dx="0" dy="1" in="shadowBlurInner1" result="shadowOffsetInner1"></feOffset>
            <feComposite in="shadowOffsetInner1" in2="SourceAlpha" operator="arithmetic" k2="-1" k3="1" result="shadowInnerInner1"></feComposite>
            <feColorMatrix values="0 0 0 0 0   0 0 0 0 0   0 0 0 0 0  0 0 0 0.381091565 0" type="matrix" in="shadowInnerInner1"></feColorMatrix>
        </filter>
        <circle id="path-18" cx="9.5" cy="10.5" r="1.5"></circle>
        <filter x="-8.3%" y="-8.3%" width="116.7%" height="116.7%" filterUnits="objectBoundingBox" id="filter-19">
            <feOffset dx="0.5" dy="0.5" in="SourceAlpha" result="shadowOffsetInner1"></feOffset>
            <feComposite in="shadowOffsetInner1" in2="SourceAlpha" operator="arithmetic" k2="-1" k3="1" result="shadowInnerInner1"></feComposite>
            <feColorMatrix values="0 0 0 0 0   0 0 0 0 0   0 0 0 0 0  0 0 0 0.608282343 0" type="matrix" in="shadowInnerInner1"></feColorMatrix>
        </filter>
    </defs>
    <g id="device/cpu" stroke="none" stroke-width="1" fill="none" fill-rule="evenodd">
        <g id="编组" filter="url(#filter-1)" transform="translate(2.000000, 3.000000)">
            <path d="M24.25,0 C26.3210678,-2.66401593e-15 28,1.67893219 28,3.75 L28,5.5 C26.8954305,5.5 26,6.3954305 26,7.5 C26,8.6045695 26.8954305,9.5 28,9.5 L28,22.25 C28,24.3210678 26.3210678,26 24.25,26 L23,26 L23,23.5 C23,23.2545401 22.8231248,23.0503916 22.5898756,23.0080557 L22.5,23 C22.2238576,23 22,23.2238576 22,23.5 L22,23.5 L22,26 L6,26 L6,23.5 C6,23.2545401 5.82312484,23.0503916 5.58987563,23.0080557 L5.5,23 C5.22385763,23 5,23.2238576 5,23.5 L5,23.5 L5,26 L3.75,26 C1.67893219,26 6.97721867e-16,24.3210678 0,22.25 L0,9.5 C1.1045695,9.5 2,8.6045695 2,7.5 C2,6.3954305 1.1045695,5.5 0,5.5 L0,3.75 C1.90456553e-16,1.67893219 1.67893219,8.24538195e-16 3.75,0 L24.25,0 Z M25,21 C24.4477153,21 24,21.4477153 24,22 C24,22.5522847 24.4477153,23 25,23 C25.5522847,23 26,22.5522847 26,22 C26,21.4477153 25.5522847,21 25,21 Z M3,3 C2.44771525,3 2,3.44771525 2,4 C2,4.55228475 2.44771525,5 3,5 C3.55228475,5 4,4.55228475 4,4 C4,3.44771525 3.55228475,3 3,3 Z M25,3 C24.4477153,3 24,3.44771525 24,4 C24,4.55228475 24.4477153,5 25,5 C25.5522847,5 26,4.55228475 26,4 C26,3.44771525 25.5522847,3 25,3 Z" id="形状结合" fill="url(#linearGradient-2)"></path>
            <path d="M24.25,1 C26.3210678,1 28,2.67893219 28,4.75 L28,5.5 C26.8954305,5.5 26,6.3954305 26,7.5 C26,8.6045695 26.8954305,9.5 28,9.5 L28,21.25 C28,23.3210678 26.3210678,25 24.25,25 L23,25 L23,24.5 C23,24.2238576 22.7761424,24 22.5,24 C22.2238576,24 22,24.2238576 22,24.5 L22,25 L6,25 L6,24.5 C6,24.2238576 5.77614237,24 5.5,24 C5.22385763,24 5,24.2238576 5,24.5 L5,25 L3.75,25 C1.67893219,25 2.53632657e-16,23.3210678 0,21.25 L0,9.5 C1.1045695,9.5 2,8.6045695 2,7.5 C2,6.3954305 1.1045695,5.5 0,5.5 L0,4.75 C-2.53632657e-16,2.67893219 1.67893219,1 3.75,1 L24.25,1 Z" id="形状结合" fill="url(#linearGradient-3)"></path>
            <g id="形状结合">
                <use fill="black" fill-opacity="1" filter="url(#filter-5)" xlink:href="#path-4"></use>
                <use fill-opacity="0.4" fill="#000000" fill-rule="evenodd" xlink:href="#path-4"></use>
            </g>
            <g id="形状结合" transform="translate(14.000000, 13.000000) rotate(-270.000000) translate(-14.000000, -13.000000) ">
                <use fill="black" fill-opacity="1" filter="url(#filter-7)" xlink:href="#path-6"></use>
                <use fill-opacity="0.4" fill="#000000" fill-rule="evenodd" xlink:href="#path-6"></use>
            </g>
            <g id="形状结合">
                <use fill="url(#linearGradient-8)" fill-rule="evenodd" xlink:href="#path-9"></use>
                <use fill="black" fill-opacity="1" filter="url(#filter-10)" xlink:href="#path-9"></use>
            </g>
            <g id="矩形">
                <use fill="black" fill-opacity="1" filter="url(#filter-13)" xlink:href="#path-12"></use>
                <use fill="url(#linearGradient-11)" fill-rule="evenodd" xlink:href="#path-12"></use>
                <use fill="black" fill-opacity="1" filter="url(#filter-14)" xlink:href="#path-12"></use>
            </g>
            <g id="CPU" opacity="0.643091388" fill-rule="nonzero">
                <use fill="url(#linearGradient-15)" xlink:href="#path-16"></use>
                <use fill="black" fill-opacity="1" filter="url(#filter-17)" xlink:href="#path-16"></use>
            </g>
        </g>
        <g id="椭圆形">
            <use fill="#2C2C2C" fill-rule="evenodd" xlink:href="#path-18"></use>
            <use fill="black" fill-opacity="1" filter="url(#filter-19)" xlink:href="#path-18"></use>
            <circle stroke-opacity="0.31411167" stroke="#979797" stroke-width="0.1" stroke-linejoin="square" cx="9.5" cy="10.5" r="1.45"></circle>
        </g>
    </g>
</svg>