<?xml version="1.0" encoding="UTF-8"?>
<svg width="96px" height="96px" viewBox="0 0 96 96" version="1.1" xmlns="http://www.w3.org/2000/svg" xmlns:xlink="http://www.w3.org/1999/xlink">
    <title>终端</title>
    <defs>
        <linearGradient x1="50%" y1="100%" x2="50%" y2="0%" id="linearGradient-1">
            <stop stop-color="#CFDAFC" offset="0%"></stop>
            <stop stop-color="#CDCFD2" offset="100%"></stop>
        </linearGradient>
        <polygon id="path-2" points="38.4166667 44.09375 54.3125 44.09375 54.3125 83.8333333 38.4166667 83.8333333"></polygon>
        <filter x="-12.6%" y="-5.0%" width="125.2%" height="110.1%" filterUnits="objectBoundingBox" id="filter-3">
            <feGaussianBlur stdDeviation="1" in="SourceAlpha" result="shadowBlurInner1"></feGaussianBlur>
            <feOffset dx="0" dy="2" in="shadowBlurInner1" result="shadowOffsetInner1"></feOffset>
            <feComposite in="shadowOffsetInner1" in2="SourceAlpha" operator="arithmetic" k2="-1" k3="1" result="shadowInnerInner1"></feComposite>
            <feColorMatrix values="0 0 0 0 0.305544245   0 0 0 0 0.316030326   0 0 0 0 0.533769248  0 0 0 0.178130463 0" type="matrix" in="shadowInnerInner1"></feColorMatrix>
        </filter>
        <linearGradient x1="50%" y1="0%" x2="50%" y2="80.1038369%" id="linearGradient-4">
            <stop stop-color="#FFFFFF" offset="0%"></stop>
            <stop stop-color="#EBF4FF" offset="100%"></stop>
        </linearGradient>
        <path d="M31.0364583,82.6979167 L61.6927083,82.6979167 C62.6333183,82.6979167 63.3958333,83.4604317 63.3958333,84.4010417 C63.3958333,85.3416516 62.6333183,86.1041667 61.6927083,86.1041667 L31.0364583,86.1041667 C30.0958484,86.1041667 29.3333333,85.3416516 29.3333333,84.4010417 C29.3333333,83.4604317 30.0958484,82.6979167 31.0364583,82.6979167 Z" id="path-5"></path>
        <filter x="-1.5%" y="-14.7%" width="102.9%" height="129.4%" filterUnits="objectBoundingBox" id="filter-6">
            <feOffset dx="0" dy="-1" in="SourceAlpha" result="shadowOffsetInner1"></feOffset>
            <feComposite in="shadowOffsetInner1" in2="SourceAlpha" operator="arithmetic" k2="-1" k3="1" result="shadowInnerInner1"></feComposite>
            <feColorMatrix values="0 0 0 0 0   0 0 0 0 0   0 0 0 0 0  0 0 0 0.168651661 0" type="matrix" in="shadowInnerInner1"></feColorMatrix>
        </filter>
        <linearGradient x1="39.598747%" y1="22.5651578%" x2="75.3018846%" y2="77.4348422%" id="linearGradient-7">
            <stop stop-color="#D7E4FF" offset="0%"></stop>
            <stop stop-color="#F4F9FF" offset="100%"></stop>
        </linearGradient>
        <rect id="path-8" x="15.7083333" y="10.03125" width="61.3125" height="45.4166667" rx="6.58102931"></rect>
        <filter x="-0.8%" y="-1.1%" width="101.6%" height="102.2%" filterUnits="objectBoundingBox" id="filter-9">
            <feOffset dx="0" dy="-1" in="SourceAlpha" result="shadowOffsetInner1"></feOffset>
            <feComposite in="shadowOffsetInner1" in2="SourceAlpha" operator="arithmetic" k2="-1" k3="1" result="shadowInnerInner1"></feComposite>
            <feColorMatrix values="0 0 0 0 0   0 0 0 0 0   0 0 0 0 0  0 0 0 0.12 0" type="matrix" in="shadowInnerInner1" result="shadowMatrixInner1"></feColorMatrix>
            <feOffset dx="0" dy="1" in="SourceAlpha" result="shadowOffsetInner2"></feOffset>
            <feComposite in="shadowOffsetInner2" in2="SourceAlpha" operator="arithmetic" k2="-1" k3="1" result="shadowInnerInner2"></feComposite>
            <feColorMatrix values="0 0 0 0 1   0 0 0 0 1   0 0 0 0 1  0 0 0 1 0" type="matrix" in="shadowInnerInner2" result="shadowMatrixInner2"></feColorMatrix>
            <feMerge>
                <feMergeNode in="shadowMatrixInner1"></feMergeNode>
                <feMergeNode in="shadowMatrixInner2"></feMergeNode>
            </feMerge>
        </filter>
        <linearGradient x1="46.8261315%" y1="0.564822635%" x2="46.8261315%" y2="99.6640703%" id="linearGradient-10">
            <stop stop-color="#4F5D73" offset="0%"></stop>
            <stop stop-color="#313A46" offset="100%"></stop>
        </linearGradient>
        <rect id="path-11" x="0" y="0" width="56.7708333" height="38.6041667" rx="2.9295007"></rect>
    </defs>
    <g id="sp2" stroke="none" stroke-width="1" fill="none" fill-rule="evenodd">
        <g id="终端">
            <g id="矩形">
                <use fill="url(#linearGradient-1)" fill-rule="evenodd" xlink:href="#path-2"></use>
                <use fill="black" fill-opacity="1" filter="url(#filter-3)" xlink:href="#path-2"></use>
            </g>
            <g id="矩形">
                <use fill="url(#linearGradient-4)" fill-rule="evenodd" xlink:href="#path-5"></use>
                <use fill="black" fill-opacity="1" filter="url(#filter-6)" xlink:href="#path-5"></use>
            </g>
            <g id="蒙版">
                <use fill="url(#linearGradient-7)" fill-rule="evenodd" xlink:href="#path-8"></use>
                <use fill="black" fill-opacity="1" filter="url(#filter-9)" xlink:href="#path-8"></use>
            </g>
            <g id="kevin-lanceplaine-243768-unsplash" transform="translate(17.979167, 13.437500)">
                <mask id="mask-12" fill="white">
                    <use xlink:href="#path-11"></use>
                </mask>
                <use id="蒙版" fill="url(#linearGradient-10)" xlink:href="#path-11"></use>
                <g id="编组" mask="url(#mask-12)">
                    <g transform="translate(-1.135417, -7.947917)">
                        <path d="M45.4410318,5.67708333 C40.4413001,17.3023103 38.4238644,23.7560209 39.388725,25.0382151 C40.8360157,26.9615063 40.3097282,31.8338441 38.3361499,34.5264518 C36.3625715,37.2190596 30.1786928,39.0141314 29.5208333,41.1938614 C28.8629739,43.3735915 12.284916,44.9122245 10.7060533,46.7072963 C9.12719063,48.5023681 11.8902003,47.8612711 11.8902003,48.5023681 C11.8902003,48.9297662 27.985828,48.9297662 60.1770833,48.5023681 L60.1770833,5.67708333 L45.4410318,5.67708333 Z" id="路径-3" fill="#1C4186"></path>
                        <path d="M43.921,5.75734956 C46.3781666,5.75734956 45.807753,9.16911227 42.209759,15.9926377 C36.8127681,26.2279258 35.233161,30.0661588 33.653554,32.752922 C32.0739469,35.4396851 24.834081,46.3146787 21.8065008,47.2102664 C18.7789205,48.1058541 10.3543493,47.4661486 8.64310833,47.4661486 C7.50228099,47.4661486 7.76554883,35.6529203 9.43291188,12.0264635 L20.7534294,0 L43.921,5.75734956 Z" id="路径-2" fill="#E080A9"></path>
                        <path d="M20.4375,5.5619863 C18.7752591,8.45289193 18.2940842,12.4916572 18.9939751,17.678282 C20.0438114,25.4582192 13.0886457,33.6207763 14.5321707,39.4876142 C15.9756956,45.3544521 8.50504658,51.09375 8.50504658,51.09375 C8.50504658,51.09375 6.00854037,49.7758371 1.01552795,47.1400114 L0,11.5563642 L4.29626647,4.54166667 L20.4375,5.5619863 Z" id="路径" fill="#101852"></path>
                        <path d="M41.0715366,15.1885534 C37.463581,17.5738539 35.6596033,20.2678136 35.6596033,23.2704326 C35.6596033,28.6135979 32.9870779,34.6083688 28.577411,36.041901 C24.1677441,37.4754331 19.624451,37.0844698 18.5554408,41.2547452 C17.4864307,45.4250206 14.2794002,42.0366718 12.5422587,43.7308462 C10.8051172,45.4250206 11.2151623,49.0740115 9.2107683,49.7256171 C7.87450561,50.1600208 17.0471206,49.9862593 36.7286134,49.2043327 C37.9757919,41.1244241 40.9155698,35.4337358 45.5479472,32.1322678 C52.4965132,27.1800658 39.2675125,25.7465336 44.7461896,21.4459371 C48.3986409,18.5788728 48.649445,13.3225882 45.4986018,5.67708333 L44.0345515,11.0859763 C43.5791181,12.7685483 42.5256103,14.2272325 41.0715366,15.1885534 Z" id="路径-4" fill="#7A6C9F"></path>
                    </g>
                </g>
                <g id="编组-2" mask="url(#mask-12)">
                    <g transform="translate(3.241346, 4.168742)">
                        <rect id="矩形备份-2" fill="#75FFAC" x="0.164903953" y="7.18542499" width="3.40625" height="3.40625" rx="0.564200134"></rect>
                        <rect id="矩形备份" fill="#FF7D52" x="0.164903953" y="0.372924994" width="3.40625" height="3.40625" rx="0.564200134"></rect>
                        <rect id="矩形备份-3" fill="#FFB656" x="0.164903953" y="13.997925" width="3.40625" height="3.40625" rx="0.564200134"></rect>
                        <rect id="矩形备份-3" fill="#F85353" x="0.164903953" y="20.810425" width="3.40625" height="3.40625" rx="0.564200134"></rect>
                    </g>
                </g>
            </g>
        </g>
    </g>
</svg>