<?xml version="1.0" encoding="UTF-8"?>
<svg width="128px" height="128px" viewBox="0 0 128 128" version="1.1" xmlns="http://www.w3.org/2000/svg" xmlns:xlink="http://www.w3.org/1999/xlink">
    <title>fail</title>
    <defs>
        <linearGradient x1="50%" y1="0%" x2="50%" y2="100%" id="linearGradient-1">
            <stop stop-color="#FF674A" offset="0%"></stop>
            <stop stop-color="#EC5783" offset="100%"></stop>
        </linearGradient>
        <circle id="path-2" cx="49" cy="49" r="49"></circle>
        <filter x="-12.2%" y="-6.1%" width="124.5%" height="124.5%" filterUnits="objectBoundingBox" id="filter-3">
            <feOffset dx="0" dy="6" in="SourceAlpha" result="shadowOffsetOuter1"></feOffset>
            <feGaussianBlur stdDeviation="3" in="shadowOffsetOuter1" result="shadowBlurOuter1"></feGaussianBlur>
            <feColorMatrix values="0 0 0 0 1   0 0 0 0 0.443137255   0 0 0 0 0.443137255  0 0 0 0.3 0" type="matrix" in="shadowBlurOuter1"></feColorMatrix>
        </filter>
    </defs>
    <g id="驱动管理一期1052" stroke="none" stroke-width="1" fill="none" fill-rule="evenodd">
        <g id="1_2检测失败" transform="translate(-896.000000, -455.000000)">
            <g id="fail" transform="translate(896.000000, 455.000000)">
                <rect id="矩形" fill="#D8D8D8" opacity="0" x="0" y="0" width="128" height="128"></rect>
                <g transform="translate(15.000000, 15.000000)">
                    <g id="Oval-1">
                        <use fill="black" fill-opacity="1" filter="url(#filter-3)" xlink:href="#path-2"></use>
                        <use fill="url(#linearGradient-1)" fill-rule="evenodd" xlink:href="#path-2"></use>
                    </g>
                    <path d="M33.4142136,30.7304474 L49.677,46.9936609 L65.9411255,30.7304474 C66.6810663,29.9905066 67.8565504,29.9515624 68.6423379,30.6136146 L68.7695526,30.7304474 C69.5506012,31.511496 69.5506012,32.7778259 68.7695526,33.5588745 L68.7695526,33.5588745 L52.506,49.8216609 L68.7695526,66.0857864 C69.5506012,66.866835 69.5506012,68.133165 68.7695526,68.9142136 C67.988504,69.6952621 66.7221741,69.6952621 65.9411255,68.9142136 L49.677,52.6506609 L33.4142136,68.9142136 C32.6742728,69.6541543 31.4987886,69.6930986 30.7130012,69.0310463 L30.5857864,68.9142136 C29.8047379,68.133165 29.8047379,66.866835 30.5857864,66.0857864 L30.5857864,66.0857864 L46.849,49.8216609 L30.5857864,33.5588745 C29.8047379,32.7778259 29.8047379,31.511496 30.5857864,30.7304474 C31.366835,29.9493988 32.633165,29.9493988 33.4142136,30.7304474 Z" id="形状结合" fill="#FFFFFF" fill-rule="nonzero"></path>
                </g>
            </g>
        </g>
    </g>
</svg>