<?xml version="1.0" encoding="UTF-8"?>
<svg width="32px" height="32px" viewBox="0 0 32 32" version="1.1" xmlns="http://www.w3.org/2000/svg" xmlns:xlink="http://www.w3.org/1999/xlink">
    <title>device/keyboard</title>
    <defs>
        <filter x="-14.3%" y="-23.5%" width="128.6%" height="147.1%" filterUnits="objectBoundingBox" id="filter-1">
            <feOffset dx="0" dy="1" in="SourceAlpha" result="shadowOffsetOuter1"></feOffset>
            <feGaussianBlur stdDeviation="0.5" in="shadowOffsetOuter1" result="shadowBlurOuter1"></feGaussianBlur>
            <feColorMatrix values="0 0 0 0 0   0 0 0 0 0   0 0 0 0 0  0 0 0 0.15 0" type="matrix" in="shadowBlurOuter1" result="shadowMatrixOuter1"></feColorMatrix>
            <feMerge>
                <feMergeNode in="shadowMatrixOuter1"></feMergeNode>
                <feMergeNode in="SourceGraphic"></feMergeNode>
            </feMerge>
        </filter>
        <linearGradient x1="50%" y1="0%" x2="50%" y2="100%" id="linearGradient-2">
            <stop stop-color="#D6D4D4" offset="0%"></stop>
            <stop stop-color="#9E9E9E" offset="100%"></stop>
        </linearGradient>
        <path d="M3.30882353,0 L24.6911765,0 C26.5185892,-3.35690281e-16 28,1.48141075 28,3.30882353 L28,13.6911765 C28,15.5185892 26.5185892,17 24.6911765,17 L3.30882353,17 C1.48141075,17 -2.20295689e-16,15.5185892 0,13.6911765 L0,3.30882353 C-2.23793521e-16,1.48141075 1.48141075,7.79779491e-16 3.30882353,0 Z" id="path-3"></path>
        <filter x="-1.8%" y="-2.9%" width="103.6%" height="105.9%" filterUnits="objectBoundingBox" id="filter-4">
            <feOffset dx="0" dy="-1" in="SourceAlpha" result="shadowOffsetInner1"></feOffset>
            <feComposite in="shadowOffsetInner1" in2="SourceAlpha" operator="arithmetic" k2="-1" k3="1" result="shadowInnerInner1"></feComposite>
            <feColorMatrix values="0 0 0 0 0   0 0 0 0 0   0 0 0 0 0  0 0 0 0.25 0" type="matrix" in="shadowInnerInner1"></feColorMatrix>
        </filter>
        <linearGradient x1="50%" y1="0%" x2="50%" y2="100%" id="linearGradient-5">
            <stop stop-color="#E9E9E9" offset="0%"></stop>
            <stop stop-color="#E3E3E3" offset="100%"></stop>
        </linearGradient>
        <path d="M10.5,11 L21.5,11 C22.3284271,11 23,11.6715729 23,12.5 C23,13.3284271 22.3284271,14 21.5,14 L10.5,14 C9.67157288,14 9,13.3284271 9,12.5 C9,11.6715729 9.67157288,11 10.5,11 Z M2.5,6 L5.5,6 C6.32842712,6 7,6.67157288 7,7.5 C7,8.32842712 6.32842712,9 5.5,9 L2.5,9 C1.67157288,9 1,8.32842712 1,7.5 C1,6.67157288 1.67157288,6 2.5,6 Z M23.5,6 L25.5,6 C26.3284271,6 27,6.67157288 27,7.5 C27,8.32842712 26.3284271,9 25.5,9 L23.5,9 C22.6715729,9 22,8.32842712 22,7.5 C22,6.67157288 22.6715729,6 23.5,6 Z M25.5,14 C26.3284271,14 27,13.3284271 27,12.5 C27,11.6715729 26.3284271,11 25.5,11 C24.6715729,11 24,11.6715729 24,12.5 C24,13.3284271 24.6715729,14 25.5,14 Z M2.5,14 C3.32842712,14 4,13.3284271 4,12.5 C4,11.6715729 3.32842712,11 2.5,11 C1.67157288,11 1,11.6715729 1,12.5 C1,13.3284271 1.67157288,14 2.5,14 Z M6.5,14 C7.32842712,14 8,13.3284271 8,12.5 C8,11.6715729 7.32842712,11 6.5,11 C5.67157288,11 5,11.6715729 5,12.5 C5,13.3284271 5.67157288,14 6.5,14 Z M10,9 C10.8284271,9 11.5,8.32842712 11.5,7.5 C11.5,6.67157288 10.8284271,6 10,6 C9.17157288,6 8.5,6.67157288 8.5,7.5 C8.5,8.32842712 9.17157288,9 10,9 Z M2.5,4 C3.32842712,4 4,3.32842712 4,2.5 C4,1.67157288 3.32842712,1 2.5,1 C1.67157288,1 1,1.67157288 1,2.5 C1,3.32842712 1.67157288,4 2.5,4 Z M16.3,4 C17.1284271,4 17.8,3.32842712 17.8,2.5 C17.8,1.67157288 17.1284271,1 16.3,1 C15.4715729,1 14.8,1.67157288 14.8,2.5 C14.8,3.32842712 15.4715729,4 16.3,4 Z M19,9 C19.8284271,9 20.5,8.32842712 20.5,7.5 C20.5,6.67157288 19.8284271,6 19,6 C18.1715729,6 17.5,6.67157288 17.5,7.5 C17.5,8.32842712 18.1715729,9 19,9 Z M14.5,9 C15.3284271,9 16,8.32842712 16,7.5 C16,6.67157288 15.3284271,6 14.5,6 C13.6715729,6 13,6.67157288 13,7.5 C13,8.32842712 13.6715729,9 14.5,9 Z M7.1,4 C7.92842712,4 8.6,3.32842712 8.6,2.5 C8.6,1.67157288 7.92842712,1 7.1,1 C6.27157288,1 5.6,1.67157288 5.6,2.5 C5.6,3.32842712 6.27157288,4 7.1,4 Z M11.7,4 C12.5284271,4 13.2,3.32842712 13.2,2.5 C13.2,1.67157288 12.5284271,1 11.7,1 C10.8715729,1 10.2,1.67157288 10.2,2.5 C10.2,3.32842712 10.8715729,4 11.7,4 Z M20.9,4 C21.7284271,4 22.4,3.32842712 22.4,2.5 C22.4,1.67157288 21.7284271,1 20.9,1 C20.0715729,1 19.4,1.67157288 19.4,2.5 C19.4,3.32842712 20.0715729,4 20.9,4 Z M25.5,4 C26.3284271,4 27,3.32842712 27,2.5 C27,1.67157288 26.3284271,1 25.5,1 C24.6715729,1 24,1.67157288 24,2.5 C24,3.32842712 24.6715729,4 25.5,4 Z" id="path-6"></path>
        <filter x="-1.9%" y="-3.8%" width="103.8%" height="115.4%" filterUnits="objectBoundingBox" id="filter-7">
            <feOffset dx="0" dy="1" in="SourceAlpha" result="shadowOffsetOuter1"></feOffset>
            <feColorMatrix values="0 0 0 0 0   0 0 0 0 0   0 0 0 0 0  0 0 0 0.08 0" type="matrix" in="shadowOffsetOuter1"></feColorMatrix>
        </filter>
        <filter x="-1.9%" y="-3.8%" width="103.8%" height="115.4%" filterUnits="objectBoundingBox" id="filter-8">
            <feOffset dx="0" dy="1" in="SourceAlpha" result="shadowOffsetInner1"></feOffset>
            <feComposite in="shadowOffsetInner1" in2="SourceAlpha" operator="arithmetic" k2="-1" k3="1" result="shadowInnerInner1"></feComposite>
            <feColorMatrix values="0 0 0 0 1   0 0 0 0 1   0 0 0 0 1  0 0 0 0.3 0" type="matrix" in="shadowInnerInner1"></feColorMatrix>
        </filter>
    </defs>
    <g id="device/keyboard" stroke="none" stroke-width="1" fill="none" fill-rule="evenodd">
        <g id="编组-2" filter="url(#filter-1)" transform="translate(2.000000, 7.000000)">
            <g id="编组">
                <g id="矩形">
                    <use fill="url(#linearGradient-2)" fill-rule="evenodd" xlink:href="#path-3"></use>
                    <use fill="black" fill-opacity="1" filter="url(#filter-4)" xlink:href="#path-3"></use>
                </g>
                <g id="形状结合">
                    <use fill="black" fill-opacity="1" filter="url(#filter-7)" xlink:href="#path-6"></use>
                    <use fill="url(#linearGradient-5)" fill-rule="evenodd" xlink:href="#path-6"></use>
                    <use fill="black" fill-opacity="1" filter="url(#filter-8)" xlink:href="#path-6"></use>
                </g>
            </g>
        </g>
    </g>
</svg>