<?xml version="1.0" encoding="UTF-8"?>
<svg width="96px" height="96px" viewBox="0 0 96 96" version="1.1" xmlns="http://www.w3.org/2000/svg" xmlns:xlink="http://www.w3.org/1999/xlink">
    <title>status/latest</title>
    <defs>
        <filter x="-12.5%" y="-12.5%" width="125.0%" height="125.0%" filterUnits="objectBoundingBox" id="filter-1">
            <feOffset dx="0" dy="2" in="SourceAlpha" result="shadowOffsetOuter1"></feOffset>
            <feGaussianBlur stdDeviation="2" in="shadowOffsetOuter1" result="shadowBlurOuter1"></feGaussianBlur>
            <feColorMatrix values="0 0 0 0 0   0 0 0 0 0   0 0 0 0 0  0 0 0 0.2 0" type="matrix" in="shadowBlurOuter1" result="shadowMatrixOuter1"></feColorMatrix>
            <feMerge>
                <feMergeNode in="shadowMatrixOuter1"></feMergeNode>
                <feMergeNode in="SourceGraphic"></feMergeNode>
            </feMerge>
        </filter>
        <linearGradient x1="50%" y1="100%" x2="50%" y2="0%" id="linearGradient-2">
            <stop stop-color="#CFDAFC" offset="0%"></stop>
            <stop stop-color="#CDCFD2" offset="100%"></stop>
        </linearGradient>
        <polygon id="path-3" points="41 75 55 75 55 84 41 84"></polygon>
        <filter x="-14.3%" y="-22.2%" width="128.6%" height="144.4%" filterUnits="objectBoundingBox" id="filter-4">
            <feGaussianBlur stdDeviation="1" in="SourceAlpha" result="shadowBlurInner1"></feGaussianBlur>
            <feOffset dx="0" dy="2" in="shadowBlurInner1" result="shadowOffsetInner1"></feOffset>
            <feComposite in="shadowOffsetInner1" in2="SourceAlpha" operator="arithmetic" k2="-1" k3="1" result="shadowInnerInner1"></feComposite>
            <feColorMatrix values="0 0 0 0 0.305544245   0 0 0 0 0.316030326   0 0 0 0 0.533769248  0 0 0 0.178130463 0" type="matrix" in="shadowInnerInner1"></feColorMatrix>
        </filter>
        <linearGradient x1="50%" y1="0%" x2="50%" y2="80.1038369%" id="linearGradient-5">
            <stop stop-color="#FFFFFF" offset="0%"></stop>
            <stop stop-color="#EBF4FF" offset="100%"></stop>
        </linearGradient>
        <path d="M34.5,82 L61.5,82 C62.3284271,82 63,82.6715729 63,83.5 C63,84.3284271 62.3284271,85 61.5,85 L34.5,85 C33.6715729,85 33,84.3284271 33,83.5 C33,82.6715729 33.6715729,82 34.5,82 Z" id="path-6"></path>
        <filter x="-1.7%" y="-16.7%" width="103.3%" height="133.3%" filterUnits="objectBoundingBox" id="filter-7">
            <feOffset dx="0" dy="-1" in="SourceAlpha" result="shadowOffsetInner1"></feOffset>
            <feComposite in="shadowOffsetInner1" in2="SourceAlpha" operator="arithmetic" k2="-1" k3="1" result="shadowInnerInner1"></feComposite>
            <feColorMatrix values="0 0 0 0 0   0 0 0 0 0   0 0 0 0 0  0 0 0 0.168651661 0" type="matrix" in="shadowInnerInner1"></feColorMatrix>
        </filter>
        <linearGradient x1="39.598747%" y1="23.553719%" x2="75.3018846%" y2="76.446281%" id="linearGradient-8">
            <stop stop-color="#D7E4FF" offset="0%"></stop>
            <stop stop-color="#F4F9FF" offset="100%"></stop>
        </linearGradient>
        <rect id="path-9" x="4" y="11" width="88" height="64" rx="9.375"></rect>
        <filter x="-0.6%" y="-0.8%" width="101.1%" height="101.6%" filterUnits="objectBoundingBox" id="filter-10">
            <feOffset dx="0" dy="-1" in="SourceAlpha" result="shadowOffsetInner1"></feOffset>
            <feComposite in="shadowOffsetInner1" in2="SourceAlpha" operator="arithmetic" k2="-1" k3="1" result="shadowInnerInner1"></feComposite>
            <feColorMatrix values="0 0 0 0 0   0 0 0 0 0   0 0 0 0 0  0 0 0 0.12 0" type="matrix" in="shadowInnerInner1" result="shadowMatrixInner1"></feColorMatrix>
            <feOffset dx="0" dy="1" in="SourceAlpha" result="shadowOffsetInner2"></feOffset>
            <feComposite in="shadowOffsetInner2" in2="SourceAlpha" operator="arithmetic" k2="-1" k3="1" result="shadowInnerInner2"></feComposite>
            <feColorMatrix values="0 0 0 0 1   0 0 0 0 1   0 0 0 0 1  0 0 0 1 0" type="matrix" in="shadowInnerInner2" result="shadowMatrixInner2"></feColorMatrix>
            <feMerge>
                <feMergeNode in="shadowMatrixInner1"></feMergeNode>
                <feMergeNode in="shadowMatrixInner2"></feMergeNode>
            </feMerge>
        </filter>
        <linearGradient x1="46.8261315%" y1="0.564822635%" x2="46.8261315%" y2="99.6640703%" id="linearGradient-11">
            <stop stop-color="#7BBAFF" offset="0%"></stop>
            <stop stop-color="#1F89DE" offset="100%"></stop>
        </linearGradient>
        <linearGradient x1="39.9923383%" y1="8.96776765%" x2="50%" y2="93.9215423%" id="linearGradient-12">
            <stop stop-color="#FFFFFF" offset="0%"></stop>
            <stop stop-color="#EDEDED" offset="100%"></stop>
        </linearGradient>
        <linearGradient x1="39.9923383%" y1="23.3141639%" x2="81.9949593%" y2="137.138375%" id="linearGradient-13">
            <stop stop-color="#FFFFFF" offset="0%"></stop>
            <stop stop-color="#9CD8F8" offset="100%"></stop>
        </linearGradient>
        <path d="M54.4857317,17.6934812 C55.2073021,16.8571739 56.4702116,16.7641613 57.3065188,17.4857317 C58.1010108,18.1712236 58.2246792,19.345274 57.6164034,20.1779942 L57.5142683,20.3065188 L39.3953553,41.3065188 C38.6288883,42.1948616 37.2778452,42.228778 36.4662174,41.413787 L36.3540614,41.2915854 L27.4729744,30.7915854 C26.7596515,29.9482325 26.8650616,28.6862974 27.7084146,27.9729744 C28.5095999,27.2953176 29.6885556,27.3565675 30.4160334,28.0874563 L30.5270256,28.2084146 L37.896,36.92 L54.4857317,17.6934812 Z" id="path-14"></path>
        <filter x="-17.7%" y="-14.0%" width="135.5%" height="144.0%" filterUnits="objectBoundingBox" id="filter-15">
            <feOffset dx="0" dy="2" in="SourceAlpha" result="shadowOffsetOuter1"></feOffset>
            <feGaussianBlur stdDeviation="1.5" in="shadowOffsetOuter1" result="shadowBlurOuter1"></feGaussianBlur>
            <feColorMatrix values="0 0 0 0 0.043708791   0 0 0 0 0.319738208   0 0 0 0 0.566519475  0 0 0 0.2 0" type="matrix" in="shadowBlurOuter1"></feColorMatrix>
        </filter>
    </defs>
    <g id="status/latest" stroke="none" stroke-width="1" fill="none" fill-rule="evenodd">
        <g id="驱动已是最新" filter="url(#filter-1)">
            <g id="矩形">
                <use fill="url(#linearGradient-2)" fill-rule="evenodd" xlink:href="#path-3"></use>
                <use fill="black" fill-opacity="1" filter="url(#filter-4)" xlink:href="#path-3"></use>
            </g>
            <g id="矩形">
                <use fill="url(#linearGradient-5)" fill-rule="evenodd" xlink:href="#path-6"></use>
                <use fill="black" fill-opacity="1" filter="url(#filter-7)" xlink:href="#path-6"></use>
            </g>
            <g id="蒙版">
                <use fill="url(#linearGradient-8)" fill-rule="evenodd" xlink:href="#path-9"></use>
                <use fill="black" fill-opacity="1" filter="url(#filter-10)" xlink:href="#path-9"></use>
            </g>
            <g id="kevin-lanceplaine-243768-unsplash" transform="translate(7.000000, 13.625000)">
                <rect id="蒙版" stroke-opacity="0.2" stroke="#000000" stroke-width="0.5" fill="url(#linearGradient-11)" x="0" y="0" width="82" height="58" rx="6.75"></rect>
                <path d="M54.3617053,36.6961956 L55.4088109,36.7363972 C55.943207,36.7569142 56.3763696,37.176635 56.4137169,37.7101191 L56.5693123,39.9327029 C56.6043638,40.395886 56.9392692,40.7815151 57.3932235,40.8799596 C57.6428067,40.9339408 57.849115,40.9827738 58.0121484,41.0264584 C58.1751818,41.0701431 58.3782664,41.1310067 58.6214024,41.2090491 C59.0637606,41.3507709 59.5466118,41.1842589 59.8085588,40.8006564 L61.0546003,38.95364 C61.3536861,38.5103029 61.9386763,38.3633954 62.4117354,38.6128251 L63.3386563,39.1015624 C63.8093253,39.3497319 64.0192161,39.9112978 63.826703,40.4073383 L63.0001456,42.5370934 C62.8393404,42.9514332 62.957472,43.4221436 63.2948679,43.7114526 L64.3453029,44.6121756 C64.6853506,44.9037584 65.1731586,44.9468893 65.5590929,44.7194961 L67.4925489,43.5803004 C67.9543512,43.3082057 68.5470465,43.4285576 68.8661475,43.8592215 L69.4942704,44.7069464 C69.8095838,45.1324984 69.757696,45.7264462 69.373369,46.090877 L67.7325977,47.6467075 C67.4100173,47.9525883 67.3156016,48.4287464 67.4970604,48.8345714 L68.1037352,50.1913737 C68.284826,50.5963757 68.7013793,50.8434063 69.1436135,50.8080577 L71.3778433,50.6294715 C71.9070641,50.5871699 72.3842672,50.9474269 72.4885615,51.4679908 L72.695488,52.5008227 C72.8002186,53.0235643 72.4956801,53.5415926 71.9879864,53.7043021 L69.8851218,54.378244 C69.458623,54.5149316 69.1661801,54.9076145 69.1574075,55.3553955 L69.1256837,56.974675 C69.1171262,57.4114768 69.3805253,57.8077331 69.7865846,57.9689312 L69.8639737,57.9994135 L64.450795,58.0002918 C65.4974027,52.5653867 62.1813547,47.1675016 56.7561715,45.7138281 C51.0800839,44.192925 45.2446818,47.5654294 43.7224362,53.2465274 C43.2921996,54.8521921 43.2525507,56.4704204 43.5452209,58.0001854 L35.4239737,58.0001147 C35.5463656,57.8581521 35.7078767,57.7477233 35.8973832,57.6869888 L38.1012708,56.9806702 C38.5109317,56.8493789 38.7986987,56.4810044 38.8269281,56.0517463 L38.9408399,54.3195904 C38.9706724,53.865954 38.7045351,53.4448467 38.2819961,53.2771065 L35.8846746,52.3254139 C35.6033489,52.2137328 35.4469074,51.9122285 35.5175722,51.6179101 L35.6319106,51.1416916 C35.6377778,51.1172547 35.6445224,51.0930368 35.6521314,51.0690849 L35.9285723,50.1988861 C36.0840196,49.7095589 36.5711737,49.4049834 37.0791587,49.4795235 L39.3439511,49.8118521 C39.7762078,49.8752802 40.2024463,49.6638116 40.4134362,49.2812514 L41.1956023,47.8630524 C41.4118955,47.4708764 41.354974,46.9845816 41.053959,46.6529572 L39.5697958,45.0178741 C39.2114749,44.6231167 39.2067509,44.0222218 39.5588211,43.6218796 L40.2544407,42.8308842 C40.6050441,42.4322098 41.1984427,42.3588196 41.6356105,42.6600642 L43.4812172,43.9318393 C43.8465289,44.1835692 44.3307899,44.1779111 44.6901202,43.9177144 L45.8939171,43.0460266 C46.2539775,42.7853013 46.4102902,42.3257284 46.2838678,41.8995376 L45.6408334,39.7317632 C45.4902118,39.2239934 45.7422496,38.6836756 46.228095,38.4727934 L47.1959279,38.0527037 C47.6876094,37.8392883 48.2610745,38.0314082 48.5249597,38.4979502 L49.6297839,40.4512506 C49.8503162,40.841146 50.2943357,41.0476976 50.7346171,40.9652034 L52.0946819,40.7103718 C52.5315299,40.6285209 52.8691901,40.2799395 52.9370986,39.8407081 L53.2861565,37.5830073 C53.3674554,37.0571671 53.8300091,36.6757822 54.3617053,36.6961956 Z M48.861169,54.6234467 C49.6222919,51.7828977 52.5399929,50.0966455 55.3780367,50.8570971 C58.2160805,51.6175486 59.8997576,54.5367364 59.1386348,57.3772854 C59.0812182,57.5915669 59.0115293,57.7992796 58.9305279,57.9998688 L56.2915347,57.9997072 C56.5871924,57.6608586 56.8120557,57.2509402 56.9363207,56.7871771 C57.371248,55.1640062 56.4091468,53.495899 54.7874075,53.0613552 C53.1656682,52.6268115 51.4984105,53.5903841 51.0634831,55.213555 C50.7912837,56.2294171 51.0662845,57.2628802 51.7077228,58.0005349 L49.0677386,57.9997598 C48.6478277,56.9636311 48.5494114,55.7869422 48.861169,54.6234467 Z" id="形状结合" fill="#FFFFFF" opacity="0.1"></path>
                <path d="M23.9393744,45.3948836 L24.2395985,42.6363055 C24.2949021,42.1281537 24.0294615,41.6389316 23.5733039,41.4082869 L21.6062936,40.4137171 C21.1294907,40.1726336 20.5515017,40.2677199 20.1770595,40.6488437 L18.3473839,42.5111685 C17.8989975,42.967556 17.1752275,43.0029177 16.6844869,42.5924137 L15.8329342,41.8800907 C15.3660924,41.489578 15.2559838,40.8159103 15.5741971,40.2970831 L17.0351777,37.915044 C17.2987259,37.4853449 17.2727247,36.9381913 16.9696169,36.5354202 L15.6694603,34.8077659 C15.3468711,34.3791078 14.7832452,34.2096556 14.2777556,34.3893546 L11.860664,35.2486185 C11.2586198,35.4626422 10.5930837,35.1789266 10.3306202,34.5963665 L9.84585103,33.5203801 C9.59626256,32.9663972 9.78961146,32.3131762 10.3005214,31.9842956 L12.6223083,30.4897255 C13.0460465,30.2169587 13.2599757,29.7128815 13.1617699,29.2186028 L12.7575003,27.1838769 C12.6537172,26.6615272 12.224897,26.2657215 11.6959224,26.2040289 L8.65236561,25.8490688 C8.29633863,25.8075465 8.02498168,25.5106167 8.01560479,25.1522993 L8.00042002,24.5720469 C7.99964986,24.5426168 7.99993891,24.5131685 8.00128661,24.4837592 L8.05132572,23.3918142 C8.07885873,22.7909936 8.53774451,22.2986544 9.13514646,22.2289813 L11.8481018,21.9125782 C12.3564456,21.8532917 12.7746327,21.4847753 12.8973851,20.987925 L13.3619157,19.1076984 C13.4877534,18.5983595 13.2759034,18.065359 12.8347486,17.7813809 L10.6178491,16.3543284 C10.0927094,16.0162879 9.90517666,15.3377876 10.1821746,14.7780418 L10.7459949,13.6386974 C11.0218389,13.0812835 11.6710376,12.8183255 12.2570429,13.0266474 L14.7780434,13.9228504 C15.2677285,14.096931 15.8139705,13.9437039 16.1416747,13.5403362 L17.263406,12.1596092 C17.5917761,11.7554219 17.6293097,11.1880069 17.3570402,10.7440883 L15.9459437,8.44338223 C15.621558,7.91449126 15.7429263,7.22668755 16.2287384,6.84076225 L17.2257391,6.04875279 C17.717387,5.65819166 18.4245313,5.70171077 18.8645786,6.14961033 L20.7421513,8.06068705 C21.1099048,8.43500275 21.6749527,8.53409894 22.1481339,8.30726352 L23.642906,7.59069406 C24.1123973,7.36562754 24.3887834,6.86881977 24.3324521,6.35122553 L24.0374353,3.640494 C23.9699965,3.02083903 24.377758,2.44904609 24.985579,2.31093779 L26.2189568,2.0306913 C26.8298643,1.8918817 27.4472587,2.23547763 27.6512674,2.82780909 L28.5173496,5.34244647 C28.695671,5.85601001 29.190685,6.19094711 29.7337281,6.16544537 C30.0417493,6.15025738 30.2971733,6.14266338 30.5,6.14266338 C30.7028267,6.14266338 30.9582507,6.15025738 31.2662719,6.16544537 C31.809315,6.19094711 32.304329,5.85601001 32.4826504,5.34244647 L33.3487326,2.82780909 C33.5527413,2.23547763 34.1701357,1.8918817 34.7810432,2.0306913 L36.014421,2.31093779 C36.622242,2.44904609 37.0300035,3.02083903 36.9625647,3.640494 L36.6675479,6.35122553 C36.6112166,6.86881977 36.8876027,7.36562754 37.357094,7.59069406 L38.8518661,8.30726352 C39.3250473,8.53409894 39.8900952,8.43500275 40.2578487,8.06068705 L42.1354214,6.14961033 C42.5754687,5.70171077 43.282613,5.65819166 43.7742609,6.04875279 L44.7712616,6.84076225 C45.2570737,7.22668755 45.378442,7.91449126 45.0540563,8.44338223 L43.6429598,10.7440883 C43.3706903,11.1880069 43.4082239,11.7554219 43.736594,12.1596092 L44.8583253,13.5403362 C45.1860295,13.9437039 45.7322715,14.096931 46.2219566,13.9228504 L48.7429571,13.0266474 C49.3289624,12.8183255 49.9781611,13.0812835 50.2540051,13.6386974 L50.8178254,14.7780418 C51.0948233,15.3377876 50.9072906,16.0162879 50.3821509,16.3543284 L48.1652514,17.7813809 C47.7240966,18.065359 47.5122466,18.5983595 47.6380843,19.1076984 L48.1026149,20.987925 C48.2253673,21.4847753 48.6435544,21.8532917 49.1518982,21.9125782 L51.8648535,22.2289813 C52.4622555,22.2986544 52.9211413,22.7909936 52.9486743,23.3918142 L52.9987134,24.4837592 C53.0000611,24.5131685 53.0003501,24.5426168 52.99958,24.5720469 L52.9843952,25.1522993 C52.9750183,25.5106167 52.7036614,25.8075465 52.3476344,25.8490688 L49.3040776,26.2040289 C48.775103,26.2657215 48.3462828,26.6615272 48.2424997,27.1838769 L47.8382301,29.2186028 C47.7400243,29.7128815 47.9539535,30.2169587 48.3776917,30.4897255 L50.6994786,31.9842956 C51.2103885,32.3131762 51.4037374,32.9663972 51.154149,33.5203801 L50.6693798,34.5963665 C50.4069163,35.1789266 49.7413802,35.4626422 49.139336,35.2486185 L46.7222444,34.3893546 C46.2167548,34.2096556 45.6531289,34.3791078 45.3305397,34.8077659 L44.0303831,36.5354202 C43.7272753,36.9381913 43.7012741,37.4853449 43.9648223,37.915044 L45.4258029,40.2970831 C45.7440162,40.8159103 45.6339076,41.489578 45.1670658,41.8800907 L44.3155131,42.5924137 C43.8247725,43.0029177 43.1010025,42.967556 42.6526161,42.5111685 L40.8229405,40.6488437 C40.4484983,40.2677199 39.8705093,40.1726336 39.3937064,40.4137171 L37.4266961,41.4082869 C36.9705385,41.6389316 36.7050979,42.1281537 36.7604015,42.6363055 L37.0606256,45.3948836 C37.1275961,46.0102353 36.7258441,46.5791481 36.1235384,46.7218737 L35.0902377,46.9667302 C34.4764152,47.1121849 33.8522931,46.7686152 33.6468706,46.1721785 L32.7837756,43.6662144 C32.6050252,43.1472193 32.103383,42.8100315 31.5553133,42.8404815 L30.5680807,42.8953306 C30.5227285,42.8978503 30.4772715,42.8978503 30.4319193,42.8953306 L29.4446867,42.8404815 C28.896617,42.8100315 28.3949748,43.1472193 28.2162244,43.6662144 L27.3531294,46.1721785 C27.1477069,46.7686152 26.5235848,47.1121849 25.9097623,46.9667302 L24.8764616,46.7218737 C24.2741559,46.5791481 23.8724039,46.0102353 23.9393744,45.3948836 Z M30.5,37.1115895 C37.458798,37.1115895 43.1000183,31.4653895 43.1000183,24.5004488 C43.1000183,17.5355081 37.458798,11.8893081 30.5,11.8893081 C23.541202,11.8893081 17.8999817,17.5355081 17.8999817,24.5004488 C17.8999817,31.4653895 23.541202,37.1115895 30.5,37.1115895 Z M30.5,30.8060191 C33.979399,30.8060191 36.8000092,27.9829191 36.8000092,24.5004488 C36.8000092,21.0179784 33.979399,18.1948784 30.5,18.1948784 C27.020601,18.1948784 24.1999908,21.0179784 24.1999908,24.5004488 C24.1999908,27.9829191 27.020601,30.8060191 30.5,30.8060191 Z M30.5,28.1036318 C32.488228,28.1036318 34.1000052,26.4904318 34.1000052,24.5004488 C34.1000052,22.5104657 32.488228,20.8972657 30.5,20.8972657 C28.511772,20.8972657 26.8999948,22.5104657 26.8999948,24.5004488 C26.8999948,26.4904318 28.511772,28.1036318 30.5,28.1036318 Z" id="Combined-Shape" fill="url(#linearGradient-12)" opacity="0.1"></path>
                <g id="Path-1766">
                    <use fill="black" fill-opacity="1" filter="url(#filter-15)" xlink:href="#path-14"></use>
                    <use fill="url(#linearGradient-13)" fill-rule="evenodd" xlink:href="#path-14"></use>
                </g>
            </g>
        </g>
    </g>
</svg>