<?xml version="1.0" encoding="UTF-8"?>
<svg width="36px" height="36px" viewBox="0 0 36 36" version="1.1" xmlns="http://www.w3.org/2000/svg" xmlns:xlink="http://www.w3.org/1999/xlink">
    <title>retest_dark</title>
    <g id="驱动管理一期1052dark" stroke="none" stroke-width="1" fill="none" fill-rule="evenodd">
        <g id="retest_dark">
            <rect id="矩形" x="0" y="0" width="36" height="36" rx="8"></rect>
            <g id="编组-48" transform="translate(11.585786, 12.000000)" fill="#C5CFE0">
                <path d="M6.41421356,0 C9.72792206,0 12.4142136,2.6862915 12.4142136,6 C12.4142136,9.3137085 9.72792206,12 6.41421356,12 C3.76985231,12 1.46036733,10.2740229 0.685247725,7.78789742 L0.685247725,7.78789742 L1.63992369,7.49025032 C2.285681,9.56145805 4.21055651,11 6.41421356,11 C9.17563731,11 11.4142136,8.76142375 11.4142136,6 C11.4142136,3.23857625 9.17563731,1 6.41421356,1 C4.6366901,1 3.02152841,1.93472195 2.12344022,3.43142018 L2.176,3.347 L4,5.17157288 L0,5.17157288 L4.4408921e-16,1.17157288 L1.45283539,2.62478492 C2.55843908,1.00112324 4.3999587,0 6.41421356,0 Z" id="形状结合"></path>
            </g>
        </g>
    </g>
</svg>