<?xml version="1.0" encoding="UTF-8"?>
<svg width="32px" height="32px" viewBox="0 0 32 32" version="1.1" xmlns="http://www.w3.org/2000/svg" xmlns:xlink="http://www.w3.org/1999/xlink">
    <title>device/scaner</title>
    <defs>
        <filter x="-15.4%" y="-21.1%" width="131.5%" height="142.1%" filterUnits="objectBoundingBox" id="filter-1">
            <feOffset dx="0" dy="1" in="SourceAlpha" result="shadowOffsetOuter1"></feOffset>
            <feGaussianBlur stdDeviation="0.5" in="shadowOffsetOuter1" result="shadowBlurOuter1"></feGaussianBlur>
            <feColorMatrix values="0 0 0 0 0   0 0 0 0 0   0 0 0 0 0  0 0 0 0.15 0" type="matrix" in="shadowBlurOuter1" result="shadowMatrixOuter1"></feColorMatrix>
            <feMerge>
                <feMergeNode in="shadowMatrixOuter1"></feMergeNode>
                <feMergeNode in="SourceGraphic"></feMergeNode>
            </feMerge>
        </filter>
        <linearGradient x1="50%" y1="6.58854167%" x2="50%" y2="100%" id="linearGradient-2">
            <stop stop-color="#B3B3B3" offset="0%"></stop>
            <stop stop-color="#F0EFEF" offset="61.9051107%"></stop>
            <stop stop-color="#BAB9B9" offset="63.0981445%"></stop>
            <stop stop-color="#AAAAAA" offset="79.8510742%"></stop>
            <stop stop-color="#A8A8A8" offset="100%"></stop>
        </linearGradient>
        <path d="M4.55532924,4 L21.4293427,4 C22.6548045,4 23.6996105,4.88828021 23.8967739,6.09777738 L25.5269009,16.0977774 C25.7490423,17.460502 24.8244169,18.7452898 23.4616922,18.9674312 C23.3287147,18.9891083 23.1942024,19 23.0594696,19 L2.9370838,19 C1.55637192,19 0.437083798,17.8807119 0.437083798,16.5 C0.437083798,16.3662335 0.447819861,16.2326827 0.469188585,16.100634 L2.08743403,6.10063398 C2.28337211,4.88982827 3.32877219,4 4.55532924,4 Z" id="path-3"></path>
        <filter x="-0.2%" y="-3.3%" width="100.5%" height="106.7%" filterUnits="objectBoundingBox" id="filter-4">
            <feOffset dx="0" dy="-1" in="SourceAlpha" result="shadowOffsetInner1"></feOffset>
            <feComposite in="shadowOffsetInner1" in2="SourceAlpha" operator="arithmetic" k2="-1" k3="1" result="shadowInnerInner1"></feComposite>
            <feColorMatrix values="0 0 0 0 0   0 0 0 0 0   0 0 0 0 0  0 0 0 0.0914554196 0" type="matrix" in="shadowInnerInner1"></feColorMatrix>
        </filter>
        <path d="M22.6744147,15 L23.296839,15 C23.4915203,15 23.6659374,15.1203339 23.7350536,15.3023333 L23.8101196,15.5 C23.8824702,15.6905163 23.786678,15.9036121 23.5961617,15.9759627 C23.5543137,15.9918549 23.5099233,16 23.4651593,16 L22.5278006,16 C22.3186441,16 22.1490892,15.8304451 22.1490892,15.6212886 C22.1490892,15.5800425 22.1558271,15.5390735 22.1690369,15.5 L22.230355,15.3186251 C22.294738,15.1281843 22.4733853,15 22.6744147,15 Z" id="path-5"></path>
        <filter x="-92.5%" y="-100.0%" width="284.3%" height="500.0%" filterUnits="objectBoundingBox" id="filter-6">
            <feOffset dx="0" dy="1" in="SourceAlpha" result="shadowOffsetOuter1"></feOffset>
            <feGaussianBlur stdDeviation="0.5" in="shadowOffsetOuter1" result="shadowBlurOuter1"></feGaussianBlur>
            <feColorMatrix values="0 0 0 0 0.0625546329   0 0 0 0 1   0 0 0 0 0  0 0 0 0.77611451 0" type="matrix" in="shadowBlurOuter1"></feColorMatrix>
        </filter>
        <linearGradient x1="55.0035265%" y1="99.1932871%" x2="55.0035265%" y2="11.5804036%" id="linearGradient-7">
            <stop stop-color="#5D5D5D" stop-opacity="0.448590472" offset="0%"></stop>
            <stop stop-color="#000000" offset="100%"></stop>
        </linearGradient>
        <polygon id="path-8" points="4.67504883 5 21.4155273 5 22 11 4 11"></polygon>
        <filter x="-2.8%" y="-8.3%" width="105.6%" height="116.7%" filterUnits="objectBoundingBox" id="filter-9">
            <feOffset dx="0" dy="-1" in="SourceAlpha" result="shadowOffsetInner1"></feOffset>
            <feComposite in="shadowOffsetInner1" in2="SourceAlpha" operator="arithmetic" k2="-1" k3="1" result="shadowInnerInner1"></feComposite>
            <feColorMatrix values="0 0 0 0 0   0 0 0 0 0   0 0 0 0 0  0 0 0 0.25 0" type="matrix" in="shadowInnerInner1"></feColorMatrix>
        </filter>
        <linearGradient x1="57.5578962%" y1="-89.6443685%" x2="57.5578962%" y2="76.0213216%" id="linearGradient-10">
            <stop stop-color="#57FF59" offset="0%"></stop>
            <stop stop-color="#F7F7F7" offset="100%"></stop>
        </linearGradient>
        <path d="M6.52503798,6 L19.5454102,6 L19.9185111,10.9244516 C19.9602354,11.4751579 19.5476238,11.9554179 18.9969174,11.9971421 C18.9717796,11.9990467 18.9465788,12 18.921369,12 L7.09132771,12 C6.53904296,12 6.09132771,11.5522847 6.09132771,11 C6.09132771,10.9709007 6.09259786,10.9418153 6.09513454,10.9128268 L6.52503798,6 L6.52503798,6 Z" id="path-11"></path>
        <filter x="-11.8%" y="-29.2%" width="123.8%" height="158.3%" filterUnits="objectBoundingBox" id="filter-12">
            <feGaussianBlur stdDeviation="0.5" in="SourceAlpha" result="shadowBlurInner1"></feGaussianBlur>
            <feOffset dx="0" dy="2" in="shadowBlurInner1" result="shadowOffsetInner1"></feOffset>
            <feComposite in="shadowOffsetInner1" in2="SourceAlpha" operator="arithmetic" k2="-1" k3="1" result="shadowInnerInner1"></feComposite>
            <feColorMatrix values="0 0 0 0 0   0 0 0 0 0   0 0 0 0 0  0 0 0 0.145460009 0" type="matrix" in="shadowInnerInner1"></feColorMatrix>
        </filter>
        <radialGradient cx="50%" cy="50%" fx="50%" fy="50%" r="94.5776543%" gradientTransform="translate(0.500000,0.500000),scale(0.458763,1.000000),scale(1.000000,0.304672),translate(-0.500000,-0.500000)" id="radialGradient-13">
            <stop stop-color="#33FF26" offset="0%"></stop>
            <stop stop-color="#F2FF3D" stop-opacity="0" offset="100%"></stop>
        </radialGradient>
        <filter x="-3.9%" y="-8.4%" width="107.7%" height="116.9%" filterUnits="objectBoundingBox" id="filter-14">
            <feGaussianBlur stdDeviation="0.3125" in="SourceGraphic"></feGaussianBlur>
        </filter>
        <radialGradient cx="50.0551178%" cy="50%" fx="50.0551178%" fy="50%" r="520.127095%" gradientTransform="translate(0.500551,0.500000),scale(0.094512,1.000000),scale(1.000000,0.071987),translate(-0.500551,-0.500000)" id="radialGradient-15">
            <stop stop-color="#81FF87" stop-opacity="0.995473976" offset="0%"></stop>
            <stop stop-color="#F8FF98" stop-opacity="0" offset="100%"></stop>
        </radialGradient>
        <radialGradient cx="50%" cy="50%" fx="50%" fy="50%" r="1628.5185%" gradientTransform="translate(0.500000,0.500000),scale(0.030220,1.000000),scale(1.000000,0.013063),translate(-0.500000,-0.500000)" id="radialGradient-16">
            <stop stop-color="#FFFFFF" stop-opacity="0.995473976" offset="0%"></stop>
            <stop stop-color="#FFFFFF" stop-opacity="0" offset="100%"></stop>
        </radialGradient>
        <linearGradient x1="0%" y1="50%" x2="99.2134713%" y2="50%" id="linearGradient-17">
            <stop stop-color="#FFFFFF" stop-opacity="0" offset="0%"></stop>
            <stop stop-color="#FFFFFF" stop-opacity="0.891541755" offset="49.7980275%"></stop>
            <stop stop-color="#FFFFFF" stop-opacity="0" offset="100%"></stop>
        </linearGradient>
        <linearGradient x1="50%" y1="0%" x2="50%" y2="100%" id="linearGradient-18">
            <stop stop-color="#000000" stop-opacity="0.08" offset="0%"></stop>
            <stop stop-color="#000000" stop-opacity="0.04" offset="100%"></stop>
        </linearGradient>
        <linearGradient x1="50%" y1="7.22655654%" x2="50%" y2="71.2687174%" id="linearGradient-19">
            <stop stop-color="#C2C2C2" offset="0%"></stop>
            <stop stop-color="#DDDDDD" offset="100%"></stop>
        </linearGradient>
        <path d="M3.84979673,0 L22.1502033,0 C22.6710148,1.6806853e-15 23.1471266,0.294253267 23.3800407,0.760081306 L25.5477458,5.0954915 C25.702114,5.40422806 25.5769738,5.77964871 25.2682373,5.93401699 C25.1814526,5.97740932 25.0857569,6 24.9887288,6 L1.01127124,6 C0.666093274,6 0.386271243,5.72017797 0.386271243,5.375 C0.386271243,5.27797182 0.408861925,5.18227615 0.452254249,5.0954915 L2.61995935,0.760081306 C2.85287337,0.294253267 3.32898515,7.6180535e-16 3.84979673,0 Z" id="path-20"></path>
        <filter x="-0.4%" y="-8.3%" width="100.9%" height="116.7%" filterUnits="objectBoundingBox" id="filter-21">
            <feOffset dx="0" dy="-1" in="SourceAlpha" result="shadowOffsetInner1"></feOffset>
            <feComposite in="shadowOffsetInner1" in2="SourceAlpha" operator="arithmetic" k2="-1" k3="1" result="shadowInnerInner1"></feComposite>
            <feColorMatrix values="0 0 0 0 1   0 0 0 0 1   0 0 0 0 1  0 0 0 0.809003497 0" type="matrix" in="shadowInnerInner1"></feColorMatrix>
        </filter>
    </defs>
    <g id="device/scaner" stroke="none" stroke-width="1" fill="none" fill-rule="evenodd">
        <g id="编组-3" filter="url(#filter-1)" transform="translate(3.000000, 7.000000)">
            <g id="矩形备份">
                <use fill="url(#linearGradient-2)" fill-rule="evenodd" xlink:href="#path-3"></use>
                <use fill="black" fill-opacity="1" filter="url(#filter-4)" xlink:href="#path-3"></use>
            </g>
            <g id="矩形">
                <use fill="black" fill-opacity="1" filter="url(#filter-6)" xlink:href="#path-5"></use>
                <use fill="#A7F668" fill-rule="evenodd" xlink:href="#path-5"></use>
            </g>
            <g id="矩形备份">
                <use fill="url(#linearGradient-7)" fill-rule="evenodd" xlink:href="#path-8"></use>
                <use fill="black" fill-opacity="1" filter="url(#filter-9)" xlink:href="#path-8"></use>
                <path stroke="#979797" stroke-width="0.5" d="M4.89849908,5.25 L21.188697,5.25 L21.7244636,10.75 L4.27970432,10.75 L4.89849908,5.25 Z" stroke-linejoin="square"></path>
            </g>
            <g id="矩形备份">
                <use fill="url(#linearGradient-10)" fill-rule="evenodd" xlink:href="#path-11"></use>
                <use fill="black" fill-opacity="1" filter="url(#filter-12)" xlink:href="#path-11"></use>
                <use stroke-opacity="0.22923951" stroke="#979797" stroke-width="0.5" xlink:href="#path-11"></use>
            </g>
            <polygon id="矩形" fill="url(#radialGradient-13)" opacity="0.799153646" filter="url(#filter-14)" points="1 5.95410156 13.125 1 25.25 5.43261719 25.25 7.86621094 13.28125 12.125 1 8.38769531"></polygon>
            <g id="编组-4" transform="translate(2.000000, 6.000000)">
                <rect id="矩形备份-7" fill="url(#radialGradient-15)" x="1.125" y="0" width="20.5" height="1.9375"></rect>
                <rect id="矩形备份-10" fill="url(#radialGradient-16)" opacity="0.95265997" x="0" y="0.625" width="22.75" height="1"></rect>
                <rect id="矩形备份-22" fill="url(#linearGradient-17)" opacity="0.95265997" x="4.5" y="0.875" width="13.75" height="1"></rect>
            </g>
            <path d="M8.5,3 L16.5,3 C16.7761424,3 17,3.22385763 17,3.5 C17,3.77614237 16.7761424,4 16.5,4 L8.5,4 C8.22385763,4 8,3.77614237 8,3.5 C8,3.22385763 8.22385763,3 8.5,3 Z M8.5,5 L12.5,5 C12.7761424,5 13,5.22385763 13,5.5 C13,5.77614237 12.7761424,6 12.5,6 L8.5,6 C8.22385763,6 8,5.77614237 8,5.5 C8,5.22385763 8.22385763,5 8.5,5 Z M14.5,5 L17.5,5 C17.7761424,5 18,5.22385763 18,5.5 C18,5.77614237 17.7761424,6 17.5,6 L14.5,6 C14.2238576,6 14,5.77614237 14,5.5 C14,5.22385763 14.2238576,5 14.5,5 Z M8.5,7 L17.5,7 C17.7761424,7 18,7.22385763 18,7.5 C18,7.77614237 17.7761424,8 17.5,8 L8.5,8 C8.22385763,8 8,7.77614237 8,7.5 C8,7.22385763 8.22385763,7 8.5,7 Z M8.5,9 L9.5,9 C9.77614237,9 10,9.22385763 10,9.5 C10,9.77614237 9.77614237,10 9.5,10 L8.5,10 C8.22385763,10 8,9.77614237 8,9.5 C8,9.22385763 8.22385763,9 8.5,9 Z M11.5,9 L14.5,9 C14.7761424,9 15,9.22385763 15,9.5 C15,9.77614237 14.7761424,10 14.5,10 L11.5,10 C11.2238576,10 11,9.77614237 11,9.5 C11,9.22385763 11.2238576,9 11.5,9 Z" id="形状结合" fill="url(#linearGradient-18)" transform="translate(13.000000, 6.500000) scale(1, -1) translate(-13.000000, -6.500000) "></path>
            <g id="编组" transform="translate(7.780045, 7.354502) rotate(172.000000) translate(-7.780045, -7.354502) translate(5.780045, 5.854502)">
                <g id="编组-4" transform="translate(0.500000, 0.250000)"></g>
            </g>
            <g id="矩形备份-2">
                <use fill="url(#linearGradient-19)" fill-rule="evenodd" xlink:href="#path-20"></use>
                <use fill="black" fill-opacity="1" filter="url(#filter-21)" xlink:href="#path-20"></use>
            </g>
        </g>
    </g>
</svg>