<?xml version="1.0" encoding="UTF-8"?>
<svg width="96px" height="96px" viewBox="0 0 96 96" version="1.1" xmlns="http://www.w3.org/2000/svg" xmlns:xlink="http://www.w3.org/1999/xlink">
    <title>status/latest</title>
    <defs>
        <filter x="-12.5%" y="-12.5%" width="125.0%" height="125.0%" filterUnits="objectBoundingBox" id="filter-1">
            <feOffset dx="0" dy="2" in="SourceAlpha" result="shadowOffsetOuter1"></feOffset>
            <feGaussianBlur stdDeviation="2" in="shadowOffsetOuter1" result="shadowBlurOuter1"></feGaussianBlur>
            <feColorMatrix values="0 0 0 0 0   0 0 0 0 0   0 0 0 0 0  0 0 0 0.2 0" type="matrix" in="shadowBlurOuter1" result="shadowMatrixOuter1"></feColorMatrix>
            <feMerge>
                <feMergeNode in="shadowMatrixOuter1"></feMergeNode>
                <feMergeNode in="SourceGraphic"></feMergeNode>
            </feMerge>
        </filter>
        <linearGradient x1="50%" y1="100%" x2="50%" y2="0%" id="linearGradient-2">
            <stop stop-color="#CFDAFC" offset="0%"></stop>
            <stop stop-color="#CDCFD2" offset="100%"></stop>
        </linearGradient>
        <polygon id="path-3" points="41 75 55 75 55 84 41 84"></polygon>
        <filter x="-14.3%" y="-22.2%" width="128.6%" height="144.4%" filterUnits="objectBoundingBox" id="filter-4">
            <feGaussianBlur stdDeviation="1" in="SourceAlpha" result="shadowBlurInner1"></feGaussianBlur>
            <feOffset dx="0" dy="2" in="shadowBlurInner1" result="shadowOffsetInner1"></feOffset>
            <feComposite in="shadowOffsetInner1" in2="SourceAlpha" operator="arithmetic" k2="-1" k3="1" result="shadowInnerInner1"></feComposite>
            <feColorMatrix values="0 0 0 0 0.305544245   0 0 0 0 0.316030326   0 0 0 0 0.533769248  0 0 0 0.178130463 0" type="matrix" in="shadowInnerInner1"></feColorMatrix>
        </filter>
        <linearGradient x1="50%" y1="0%" x2="50%" y2="80.1038369%" id="linearGradient-5">
            <stop stop-color="#FFFFFF" offset="0%"></stop>
            <stop stop-color="#EBF4FF" offset="100%"></stop>
        </linearGradient>
        <path d="M34.5,82 L61.5,82 C62.3284271,82 63,82.6715729 63,83.5 C63,84.3284271 62.3284271,85 61.5,85 L34.5,85 C33.6715729,85 33,84.3284271 33,83.5 C33,82.6715729 33.6715729,82 34.5,82 Z" id="path-6"></path>
        <filter x="-1.7%" y="-16.7%" width="103.3%" height="133.3%" filterUnits="objectBoundingBox" id="filter-7">
            <feOffset dx="0" dy="-1" in="SourceAlpha" result="shadowOffsetInner1"></feOffset>
            <feComposite in="shadowOffsetInner1" in2="SourceAlpha" operator="arithmetic" k2="-1" k3="1" result="shadowInnerInner1"></feComposite>
            <feColorMatrix values="0 0 0 0 0   0 0 0 0 0   0 0 0 0 0  0 0 0 0.168651661 0" type="matrix" in="shadowInnerInner1"></feColorMatrix>
        </filter>
        <linearGradient x1="39.598747%" y1="23.553719%" x2="75.3018846%" y2="76.446281%" id="linearGradient-8">
            <stop stop-color="#D7E4FF" offset="0%"></stop>
            <stop stop-color="#F4F9FF" offset="100%"></stop>
        </linearGradient>
        <rect id="path-9" x="4" y="11" width="88" height="64" rx="9.375"></rect>
        <filter x="-0.6%" y="-0.8%" width="101.1%" height="101.6%" filterUnits="objectBoundingBox" id="filter-10">
            <feOffset dx="0" dy="-1" in="SourceAlpha" result="shadowOffsetInner1"></feOffset>
            <feComposite in="shadowOffsetInner1" in2="SourceAlpha" operator="arithmetic" k2="-1" k3="1" result="shadowInnerInner1"></feComposite>
            <feColorMatrix values="0 0 0 0 0   0 0 0 0 0   0 0 0 0 0  0 0 0 0.12 0" type="matrix" in="shadowInnerInner1" result="shadowMatrixInner1"></feColorMatrix>
            <feOffset dx="0" dy="1" in="SourceAlpha" result="shadowOffsetInner2"></feOffset>
            <feComposite in="shadowOffsetInner2" in2="SourceAlpha" operator="arithmetic" k2="-1" k3="1" result="shadowInnerInner2"></feComposite>
            <feColorMatrix values="0 0 0 0 1   0 0 0 0 1   0 0 0 0 1  0 0 0 1 0" type="matrix" in="shadowInnerInner2" result="shadowMatrixInner2"></feColorMatrix>
            <feMerge>
                <feMergeNode in="shadowMatrixInner1"></feMergeNode>
                <feMergeNode in="shadowMatrixInner2"></feMergeNode>
            </feMerge>
        </filter>
        <linearGradient x1="46.8261315%" y1="0.564822635%" x2="46.8261315%" y2="99.6640703%" id="linearGradient-11">
            <stop stop-color="#7BBAFF" offset="0%"></stop>
            <stop stop-color="#1F89DE" offset="100%"></stop>
        </linearGradient>
        <rect id="path-12" x="0" y="0" width="82" height="58" rx="6.75"></rect>
        <linearGradient x1="39.9923383%" y1="8.96776765%" x2="50%" y2="93.9215423%" id="linearGradient-14">
            <stop stop-color="#FFFFFF" offset="0%"></stop>
            <stop stop-color="#EDEDED" offset="100%"></stop>
        </linearGradient>
        <linearGradient x1="39.9923383%" y1="23.3141639%" x2="81.9949593%" y2="137.138375%" id="linearGradient-15">
            <stop stop-color="#FFFFFF" offset="0%"></stop>
            <stop stop-color="#9CD8F8" offset="100%"></stop>
        </linearGradient>
        <path d="M54.4857317,17.6934812 C55.2073021,16.8571739 56.4702116,16.7641613 57.3065188,17.4857317 C58.1010108,18.1712236 58.2246792,19.345274 57.6164034,20.1779942 L57.5142683,20.3065188 L39.3953553,41.3065188 C38.6288883,42.1948616 37.2778452,42.228778 36.4662174,41.413787 L36.3540614,41.2915854 L27.4729744,30.7915854 C26.7596515,29.9482325 26.8650616,28.6862974 27.7084146,27.9729744 C28.5095999,27.2953176 29.6885556,27.3565675 30.4160334,28.0874563 L30.5270256,28.2084146 L37.896,36.92 L54.4857317,17.6934812 Z" id="path-16"></path>
        <filter x="-17.7%" y="-14.0%" width="135.5%" height="144.0%" filterUnits="objectBoundingBox" id="filter-17">
            <feOffset dx="0" dy="2" in="SourceAlpha" result="shadowOffsetOuter1"></feOffset>
            <feGaussianBlur stdDeviation="1.5" in="shadowOffsetOuter1" result="shadowBlurOuter1"></feGaussianBlur>
            <feColorMatrix values="0 0 0 0 0.043708791   0 0 0 0 0.319738208   0 0 0 0 0.566519475  0 0 0 0.2 0" type="matrix" in="shadowBlurOuter1"></feColorMatrix>
        </filter>
    </defs>
    <g id="status/latest" stroke="none" stroke-width="1" fill="none" fill-rule="evenodd">
        <g id="驱动已是最新" filter="url(#filter-1)">
            <g id="矩形">
                <use fill="url(#linearGradient-2)" fill-rule="evenodd" xlink:href="#path-3"></use>
                <use fill="black" fill-opacity="1" filter="url(#filter-4)" xlink:href="#path-3"></use>
            </g>
            <g id="矩形">
                <use fill="url(#linearGradient-5)" fill-rule="evenodd" xlink:href="#path-6"></use>
                <use fill="black" fill-opacity="1" filter="url(#filter-7)" xlink:href="#path-6"></use>
            </g>
            <g id="蒙版">
                <use fill="url(#linearGradient-8)" fill-rule="evenodd" xlink:href="#path-9"></use>
                <use fill="black" fill-opacity="1" filter="url(#filter-10)" xlink:href="#path-9"></use>
            </g>
            <g id="kevin-lanceplaine-243768-unsplash" transform="translate(7.000000, 13.625000)">
                <mask id="mask-13" fill="white">
                    <use xlink:href="#path-12"></use>
                </mask>
                <use id="蒙版" stroke-opacity="0.2" stroke="#000000" stroke-width="0.5" fill="url(#linearGradient-11)" xlink:href="#path-12"></use>
                <path d="M23.9393744,45.3948836 L24.2395985,42.6363055 C24.2949021,42.1281537 24.0294615,41.6389316 23.5733039,41.4082869 L21.6062936,40.4137171 C21.1294907,40.1726336 20.5515017,40.2677199 20.1770595,40.6488437 L18.3473839,42.5111685 C17.8989975,42.967556 17.1752275,43.0029177 16.6844869,42.5924137 L15.8329342,41.8800907 C15.3660924,41.489578 15.2559838,40.8159103 15.5741971,40.2970831 L17.0351777,37.915044 C17.2987259,37.4853449 17.2727247,36.9381913 16.9696169,36.5354202 L15.6694603,34.8077659 C15.3468711,34.3791078 14.7832452,34.2096556 14.2777556,34.3893546 L11.860664,35.2486185 C11.2586198,35.4626422 10.5930837,35.1789266 10.3306202,34.5963665 L9.84585103,33.5203801 C9.59626256,32.9663972 9.78961146,32.3131762 10.3005214,31.9842956 L12.6223083,30.4897255 C13.0460465,30.2169587 13.2599757,29.7128815 13.1617699,29.2186028 L12.7575003,27.1838769 C12.6537172,26.6615272 12.224897,26.2657215 11.6959224,26.2040289 L8.65236561,25.8490688 C8.29633863,25.8075465 8.02498168,25.5106167 8.01560479,25.1522993 L8.00042002,24.5720469 C7.99964986,24.5426168 7.99993891,24.5131685 8.00128661,24.4837592 L8.05132572,23.3918142 C8.07885873,22.7909936 8.53774451,22.2986544 9.13514646,22.2289813 L11.8481018,21.9125782 C12.3564456,21.8532917 12.7746327,21.4847753 12.8973851,20.987925 L13.3619157,19.1076984 C13.4877534,18.5983595 13.2759034,18.065359 12.8347486,17.7813809 L10.6178491,16.3543284 C10.0927094,16.0162879 9.90517666,15.3377876 10.1821746,14.7780418 L10.7459949,13.6386974 C11.0218389,13.0812835 11.6710376,12.8183255 12.2570429,13.0266474 L14.7780434,13.9228504 C15.2677285,14.096931 15.8139705,13.9437039 16.1416747,13.5403362 L17.263406,12.1596092 C17.5917761,11.7554219 17.6293097,11.1880069 17.3570402,10.7440883 L15.9459437,8.44338223 C15.621558,7.91449126 15.7429263,7.22668755 16.2287384,6.84076225 L17.2257391,6.04875279 C17.717387,5.65819166 18.4245313,5.70171077 18.8645786,6.14961033 L20.7421513,8.06068705 C21.1099048,8.43500275 21.6749527,8.53409894 22.1481339,8.30726352 L23.642906,7.59069406 C24.1123973,7.36562754 24.3887834,6.86881977 24.3324521,6.35122553 L24.0374353,3.640494 C23.9699965,3.02083903 24.377758,2.44904609 24.985579,2.31093779 L26.2189568,2.0306913 C26.8298643,1.8918817 27.4472587,2.23547763 27.6512674,2.82780909 L28.5173496,5.34244647 C28.695671,5.85601001 29.190685,6.19094711 29.7337281,6.16544537 C30.0417493,6.15025738 30.2971733,6.14266338 30.5,6.14266338 C30.7028267,6.14266338 30.9582507,6.15025738 31.2662719,6.16544537 C31.809315,6.19094711 32.304329,5.85601001 32.4826504,5.34244647 L33.3487326,2.82780909 C33.5527413,2.23547763 34.1701357,1.8918817 34.7810432,2.0306913 L36.014421,2.31093779 C36.622242,2.44904609 37.0300035,3.02083903 36.9625647,3.640494 L36.6675479,6.35122553 C36.6112166,6.86881977 36.8876027,7.36562754 37.357094,7.59069406 L38.8518661,8.30726352 C39.3250473,8.53409894 39.8900952,8.43500275 40.2578487,8.06068705 L42.1354214,6.14961033 C42.5754687,5.70171077 43.282613,5.65819166 43.7742609,6.04875279 L44.7712616,6.84076225 C45.2570737,7.22668755 45.378442,7.91449126 45.0540563,8.44338223 L43.6429598,10.7440883 C43.3706903,11.1880069 43.4082239,11.7554219 43.736594,12.1596092 L44.8583253,13.5403362 C45.1860295,13.9437039 45.7322715,14.096931 46.2219566,13.9228504 L48.7429571,13.0266474 C49.3289624,12.8183255 49.9781611,13.0812835 50.2540051,13.6386974 L50.8178254,14.7780418 C51.0948233,15.3377876 50.9072906,16.0162879 50.3821509,16.3543284 L48.1652514,17.7813809 C47.7240966,18.065359 47.5122466,18.5983595 47.6380843,19.1076984 L48.1026149,20.987925 C48.2253673,21.4847753 48.6435544,21.8532917 49.1518982,21.9125782 L51.8648535,22.2289813 C52.4622555,22.2986544 52.9211413,22.7909936 52.9486743,23.3918142 L52.9987134,24.4837592 C53.0000611,24.5131685 53.0003501,24.5426168 52.99958,24.5720469 L52.9843952,25.1522993 C52.9750183,25.5106167 52.7036614,25.8075465 52.3476344,25.8490688 L49.3040776,26.2040289 C48.775103,26.2657215 48.3462828,26.6615272 48.2424997,27.1838769 L47.8382301,29.2186028 C47.7400243,29.7128815 47.9539535,30.2169587 48.3776917,30.4897255 L50.6994786,31.9842956 C51.2103885,32.3131762 51.4037374,32.9663972 51.154149,33.5203801 L50.6693798,34.5963665 C50.4069163,35.1789266 49.7413802,35.4626422 49.139336,35.2486185 L46.7222444,34.3893546 C46.2167548,34.2096556 45.6531289,34.3791078 45.3305397,34.8077659 L44.0303831,36.5354202 C43.7272753,36.9381913 43.7012741,37.4853449 43.9648223,37.915044 L45.4258029,40.2970831 C45.7440162,40.8159103 45.6339076,41.489578 45.1670658,41.8800907 L44.3155131,42.5924137 C43.8247725,43.0029177 43.1010025,42.967556 42.6526161,42.5111685 L40.8229405,40.6488437 C40.4484983,40.2677199 39.8705093,40.1726336 39.3937064,40.4137171 L37.4266961,41.4082869 C36.9705385,41.6389316 36.7050979,42.1281537 36.7604015,42.6363055 L37.0606256,45.3948836 C37.1275961,46.0102353 36.7258441,46.5791481 36.1235384,46.7218737 L35.0902377,46.9667302 C34.4764152,47.1121849 33.8522931,46.7686152 33.6468706,46.1721785 L32.7837756,43.6662144 C32.6050252,43.1472193 32.103383,42.8100315 31.5553133,42.8404815 L30.5680807,42.8953306 C30.5227285,42.8978503 30.4772715,42.8978503 30.4319193,42.8953306 L29.4446867,42.8404815 C28.896617,42.8100315 28.3949748,43.1472193 28.2162244,43.6662144 L27.3531294,46.1721785 C27.1477069,46.7686152 26.5235848,47.1121849 25.9097623,46.9667302 L24.8764616,46.7218737 C24.2741559,46.5791481 23.8724039,46.0102353 23.9393744,45.3948836 Z M30.5,37.1115895 C37.458798,37.1115895 43.1000183,31.4653895 43.1000183,24.5004488 C43.1000183,17.5355081 37.458798,11.8893081 30.5,11.8893081 C23.541202,11.8893081 17.8999817,17.5355081 17.8999817,24.5004488 C17.8999817,31.4653895 23.541202,37.1115895 30.5,37.1115895 Z M30.5,30.8060191 C33.979399,30.8060191 36.8000092,27.9829191 36.8000092,24.5004488 C36.8000092,21.0179784 33.979399,18.1948784 30.5,18.1948784 C27.020601,18.1948784 24.1999908,21.0179784 24.1999908,24.5004488 C24.1999908,27.9829191 27.020601,30.8060191 30.5,30.8060191 Z M30.5,28.1036318 C32.488228,28.1036318 34.1000052,26.4904318 34.1000052,24.5004488 C34.1000052,22.5104657 32.488228,20.8972657 30.5,20.8972657 C28.511772,20.8972657 26.8999948,22.5104657 26.8999948,24.5004488 C26.8999948,26.4904318 28.511772,28.1036318 30.5,28.1036318 Z" id="Combined-Shape" fill="url(#linearGradient-14)" opacity="0.1" mask="url(#mask-13)"></path>
                <path d="M48.4609946,73.6346597 L48.7125931,71.3228723 C48.7598027,70.8890918 48.5332111,70.4714707 48.1438151,70.2745823 L46.4971233,69.4419735 C46.0901036,69.2361742 45.5967071,69.317344 45.277067,69.6426878 L43.7450943,71.2019974 C43.3623323,71.5915895 42.7444908,71.6217758 42.3255734,71.2713517 L41.6219537,70.6827746 C41.2234373,70.3494161 41.1294438,69.7743441 41.4010844,69.3314507 L42.6256878,67.3348102 C42.850664,66.9680004 42.8284682,66.5009263 42.5697222,66.1571034 L41.4814204,64.7109627 C41.2060443,64.3450416 40.7249087,64.2003899 40.2934009,64.3537888 L38.269918,65.0731267 C37.7559869,65.2558266 37.1878564,65.0136347 36.9638062,64.5163361 L36.5627134,63.6260765 C36.3496538,63.1531726 36.5147048,62.5955548 36.9508397,62.314808 L38.896823,61.0621485 C39.2585443,60.8293029 39.4411636,60.3990008 39.3573309,59.9770631 L39.0190464,58.2744464 C38.9304526,57.8285461 38.5643931,57.4906691 38.1128374,57.4380056 L35.5508865,57.1392136 C35.2502415,57.1041504 35.0210956,56.8534097 35.0131774,56.5508305 L35.0003653,56.0612458 C34.9997079,56.036123 34.9999546,56.0109847 35.0011051,55.9858796 L35.0429025,55.0737839 C35.0664058,54.5608974 35.4581307,54.1406153 35.9680989,54.0811394 L38.2417333,53.8159728 C38.6756777,53.7653632 39.0326603,53.4507817 39.137447,53.0266487 L39.5259046,51.4543341 C39.6333251,51.0195404 39.4524808,50.5645481 39.0758919,50.322132 L37.2191097,49.1268926 C36.7708276,48.8383265 36.6107416,48.2591293 36.847199,47.781306 L37.3143913,46.8372234 C37.5498637,46.3613907 38.1040479,46.1369184 38.6042874,46.314751 L40.7161662,47.0655133 C41.1341827,47.214116 41.6004785,47.0833147 41.8802211,46.7389825 L42.8173901,45.5854312 C43.0977011,45.2403993 43.1297414,44.7560293 42.8973204,44.3770812 L41.7151356,42.4496015 C41.4382258,41.9981172 41.5418311,41.4109781 41.9565414,41.0815355 L42.7826689,40.4252664 C43.2023608,40.0918665 43.8060099,40.1290163 44.1816533,40.5113628 L45.7543829,42.1121565 C46.0683131,42.4316887 46.5506626,42.5162815 46.9545906,42.3226449 L48.2023571,41.7244859 C48.6031352,41.5323594 48.8390704,41.1082627 48.7909836,40.6664218 L48.5438116,38.3953075 C48.4862429,37.8663431 48.8343258,37.3782358 49.3531882,37.2603406 L50.3750196,37.0281614 C50.8965167,36.9096675 51.4235514,37.2029759 51.597702,37.7086157 L52.3232426,39.8151958 C52.4769804,40.2535243 52.9002823,40.5393336 53.3642478,40.5169316 C53.619298,40.5044766 53.8312154,40.4982491 54,40.4982491 C54.1687846,40.4982491 54.380702,40.5044766 54.6357522,40.5169316 C55.0997177,40.5393336 55.5230196,40.2535243 55.6767574,39.8151958 L56.402298,37.7086157 C56.5764486,37.2029759 57.1034833,36.9096675 57.6249804,37.0281614 L58.6468118,37.2603406 C59.1656742,37.3782358 59.5137571,37.8663431 59.4561884,38.3953075 L59.2090164,40.6664218 C59.1609296,41.1082627 59.3968648,41.5323594 59.7976429,41.7244859 L61.0454094,42.3226449 C61.4493374,42.5162815 61.9316869,42.4316887 62.2456171,42.1121565 L63.8183467,40.5113628 C64.1939901,40.1290163 64.7976392,40.0918665 65.2173311,40.4252664 L66.0434586,41.0815355 C66.4581689,41.4109781 66.5617742,41.9981172 66.2848644,42.4496015 L65.1026796,44.3770812 C64.8702586,44.7560293 64.9022989,45.2403993 65.1826099,45.5854312 L66.1197789,46.7389825 C66.3995215,47.0833147 66.8658173,47.214116 67.2838338,47.0655133 L69.3957126,46.314751 C69.8959521,46.1369184 70.4501363,46.3613907 70.6856087,46.8372234 L71.152801,47.781306 C71.3892584,48.2591293 71.2291724,48.8383265 70.7808903,49.1268926 L68.9241081,50.322132 C68.5475192,50.5645481 68.3666749,51.0195404 68.4740954,51.4543341 L68.862553,53.0266487 C68.9673397,53.4507817 69.3243223,53.7653632 69.7582667,53.8159728 L72.0319011,54.0811394 C72.5418693,54.1406153 72.9335942,54.5608974 72.9570975,55.0737839 L72.9988949,55.9858796 C73.0000454,56.0109847 73.0002921,56.036123 72.9996347,56.0612458 L72.9868226,56.5508305 C72.9789044,56.8534097 72.7497585,57.1041504 72.4491135,57.1392136 L69.8871626,57.4380056 C69.4356069,57.4906691 69.0695474,57.8285461 68.9809536,58.2744464 L68.6426691,59.9770631 C68.5588364,60.3990008 68.7414557,60.8293029 69.103177,61.0621485 L71.0491603,62.314808 C71.4852952,62.5955548 71.6503462,63.1531726 71.4372866,63.6260765 L71.0361938,64.5163361 C70.8121436,65.0136347 70.2440131,65.2558266 69.730082,65.0731267 L67.7065991,64.3537888 C67.2750913,64.2003899 66.7939557,64.3450416 66.5185796,64.7109627 L65.4302778,66.1571034 C65.1715318,66.5009263 65.149336,66.9680004 65.3743122,67.3348102 L66.5989156,69.3314507 C66.8705562,69.7743441 66.7765627,70.3494161 66.3780463,70.6827746 L65.6744266,71.2713517 C65.2555092,71.6217758 64.6376677,71.5915895 64.2549057,71.2019974 L62.722933,69.6426878 C62.4032929,69.317344 61.9098964,69.2361742 61.5028767,69.4419735 L59.8561849,70.2745823 C59.4667889,70.4714707 59.2401973,70.8890918 59.2874069,71.3228723 L59.5390054,73.6346597 C59.5961744,74.1599506 59.2532215,74.6455992 58.7390671,74.767436 L57.8861489,74.9695481 C57.3621634,75.0937146 56.8293857,74.8004285 56.6540281,74.2912843 L55.9313008,72.1928726 C55.7787117,71.7498359 55.3504882,71.4619977 54.8826321,71.4879911 L54.0581166,71.5338 C54.0194021,71.5359509 53.9805979,71.5359509 53.9418834,71.5338 L53.1173679,71.4879911 C52.6495118,71.4619977 52.2212883,71.7498359 52.0686992,72.1928726 L51.3459719,74.2912843 C51.1706143,74.8004285 50.6378366,75.0937146 50.1138511,74.9695481 L49.2609329,74.767436 C48.7467785,74.6455992 48.4038256,74.1599506 48.4609946,73.6346597 Z M54,66.6497867 C59.8763183,66.6497867 64.6400155,61.8818845 64.6400155,56.000379 C64.6400155,50.1188735 59.8763183,45.3509712 54,45.3509712 C48.1236817,45.3509712 43.3599845,50.1188735 43.3599845,56.000379 C43.3599845,61.8818845 48.1236817,66.6497867 54,66.6497867 Z M54,61.3250828 C56.9381591,61.3250828 59.3200077,58.9411317 59.3200077,56.000379 C59.3200077,53.0596262 56.9381591,50.6756751 54,50.6756751 C51.0618409,50.6756751 48.6799923,53.0596262 48.6799923,56.000379 C48.6799923,58.9411317 51.0618409,61.3250828 54,61.3250828 Z M54,59.0430669 C55.6789481,59.0430669 57.0400044,57.6808091 57.0400044,56.000379 C57.0400044,54.3199488 55.6789481,52.957691 54,52.957691 C52.3210519,52.957691 50.9599956,54.3199488 50.9599956,56.000379 C50.9599956,57.6808091 52.3210519,59.0430669 54,59.0430669 Z" id="Combined-Shape备份" fill="url(#linearGradient-14)" opacity="0.1" mask="url(#mask-13)" transform="translate(54.000000, 56.000000) rotate(15.000000) translate(-54.000000, -56.000000) "></path>
                <g id="Path-1766" mask="url(#mask-13)">
                    <use fill="black" fill-opacity="1" filter="url(#filter-17)" xlink:href="#path-16"></use>
                    <use fill="url(#linearGradient-15)" fill-rule="evenodd" xlink:href="#path-16"></use>
                </g>
            </g>
        </g>
    </g>
</svg>