<?xml version="1.0" encoding="UTF-8"?>
<svg width="32px" height="32px" viewBox="0 0 32 32" version="1.1" xmlns="http://www.w3.org/2000/svg" xmlns:xlink="http://www.w3.org/1999/xlink">
    <title>device/voice</title>
    <defs>
        <filter x="-46.0%" y="-57.5%" width="191.8%" height="210.0%" filterUnits="objectBoundingBox" id="filter-1">
            <feOffset dx="0" dy="2" in="SourceAlpha" result="shadowOffsetOuter1"></feOffset>
            <feGaussianBlur stdDeviation="1.5" in="shadowOffsetOuter1" result="shadowBlurOuter1"></feGaussianBlur>
            <feColorMatrix values="0 0 0 0 0   0 0 0 0 0   0 0 0 0 0  0 0 0 0.2 0" type="matrix" in="shadowBlurOuter1" result="shadowMatrixOuter1"></feColorMatrix>
            <feMerge>
                <feMergeNode in="shadowMatrixOuter1"></feMergeNode>
                <feMergeNode in="SourceGraphic"></feMergeNode>
            </feMerge>
        </filter>
        <linearGradient x1="0%" y1="64.0259294%" x2="100%" y2="64.0259294%" id="linearGradient-2">
            <stop stop-color="#D0D4DD" offset="0%"></stop>
            <stop stop-color="#E8EAF6" offset="13.7144801%"></stop>
            <stop stop-color="#A6A7AE" offset="63.0230318%"></stop>
            <stop stop-color="#AEB0B9" offset="100%"></stop>
        </linearGradient>
        <linearGradient x1="5.23805677%" y1="64.935111%" x2="78.7479692%" y2="77.6640504%" id="linearGradient-3">
            <stop stop-color="#DBDBDB" offset="0%"></stop>
            <stop stop-color="#90969D" offset="100%"></stop>
        </linearGradient>
        <linearGradient x1="4.04304053%" y1="53.4290845%" x2="96.7557891%" y2="57.016915%" id="linearGradient-4">
            <stop stop-color="#383838" offset="0%"></stop>
            <stop stop-color="#5A5A5A" offset="26.1108372%"></stop>
            <stop stop-color="#1A1A1A" offset="100%"></stop>
        </linearGradient>
        <linearGradient x1="50%" y1="9.95246098%" x2="50%" y2="32.9758387%" id="linearGradient-5">
            <stop stop-color="#E4E4E4" offset="0%"></stop>
            <stop stop-color="#B1B1B4" offset="100%"></stop>
        </linearGradient>
        <linearGradient x1="69.7220326%" y1="37.9787456%" x2="38.8808346%" y2="40.5894135%" id="linearGradient-6">
            <stop stop-color="#E4E4E4" stop-opacity="0" offset="0%"></stop>
            <stop stop-color="#9898A0" stop-opacity="0.620244565" offset="100%"></stop>
        </linearGradient>
        <ellipse id="path-7" cx="12.4784425" cy="6.03795607" rx="12.4784425" ry="6.03795607"></ellipse>
        <filter x="-6.0%" y="-12.4%" width="112.0%" height="124.8%" filterUnits="objectBoundingBox" id="filter-8">
            <feOffset dx="0" dy="0" in="SourceAlpha" result="shadowOffsetOuter1"></feOffset>
            <feGaussianBlur stdDeviation="0.5" in="shadowOffsetOuter1" result="shadowBlurOuter1"></feGaussianBlur>
            <feColorMatrix values="0 0 0 0 0   0 0 0 0 0   0 0 0 0 0  0 0 0 0.2 0" type="matrix" in="shadowBlurOuter1"></feColorMatrix>
        </filter>
        <radialGradient cx="67.4759072%" cy="67.4768759%" fx="67.4759072%" fy="67.4768759%" r="150.607055%" gradientTransform="translate(0.674759,0.674769),scale(0.446429,1.000000),rotate(-172.428437),translate(-0.674759,-0.674769)" id="radialGradient-9">
            <stop stop-color="#505255" offset="0%"></stop>
            <stop stop-color="#1E1F21" offset="100%"></stop>
        </radialGradient>
        <linearGradient x1="86.4617429%" y1="53.0026211%" x2="2.82775201%" y2="50%" id="linearGradient-10">
            <stop stop-color="#343434" offset="0%"></stop>
            <stop stop-color="#151515" offset="100%"></stop>
        </linearGradient>
        <radialGradient cx="35.7422851%" cy="61.1747878%" fx="35.7422851%" fy="61.1747878%" r="88.1826707%" gradientTransform="translate(0.357423,0.611748),scale(0.500000,1.000000),rotate(-172.719722),scale(1.000000,0.641108),translate(-0.357423,-0.611748)" id="radialGradient-11">
            <stop stop-color="#BFBFBF" offset="0%"></stop>
            <stop stop-color="#5E6168" offset="100%"></stop>
        </radialGradient>
        <path d="M12.4784425,6.03795607 C15.1461794,6.03795607 17.3088074,7.20937957 17.3088074,8.6544037 C17.3088074,9.47119961 16.6178381,10.2005789 15.5352459,10.6803957 C14.5630047,10.8030757 13.5377911,10.8683209 12.4784425,10.8683209 C11.41873,10.8683209 10.393176,10.8030308 9.4208631,10.6809698 C8.33901027,10.2005402 7.64807769,9.47117792 7.64807769,8.6544037 C7.64807769,7.20937957 9.8107057,6.03795607 12.4784425,6.03795607 Z" id="path-12"></path>
        <filter x="-36.2%" y="-93.2%" width="172.5%" height="244.9%" filterUnits="objectBoundingBox" id="filter-13">
            <feOffset dx="0" dy="-1" in="SourceAlpha" result="shadowOffsetOuter1"></feOffset>
            <feGaussianBlur stdDeviation="1" in="shadowOffsetOuter1" result="shadowBlurOuter1"></feGaussianBlur>
            <feColorMatrix values="0 0 0 0 0   0 0 0 0 0   0 0 0 0 0  0 0 0 0.5 0" type="matrix" in="shadowBlurOuter1"></feColorMatrix>
        </filter>
    </defs>
    <g id="device/voice" stroke="none" stroke-width="1" fill="none" fill-rule="evenodd">
        <g id="Group" filter="url(#filter-1)" transform="translate(15.500000, 17.000000) rotate(-300.000000) translate(-15.500000, -17.000000) translate(3.000000, 7.000000)">
            <path d="M13.6860338,10.3274207 C14.8358005,10.3274207 15.876719,10.7934558 16.6301958,11.5469325 C17.3836726,12.3004093 17.8497076,13.3413278 17.8497076,14.4910946 C17.8497076,15.9292306 17.3543939,17.1600308 16.5443705,18.0375563 C15.7165907,18.9343176 14.5613646,19.4598292 13.2835034,19.4598292 L13.2835034,19.4598292 L11.6733817,19.4598292 C10.4124592,19.4598292 9.27090817,18.9487394 8.44458772,18.122419 C7.61826728,17.2960985 7.10717746,16.1545475 7.10717746,14.893625 C7.10717746,13.5667199 7.55767147,12.4359946 8.29563181,11.630947 C9.05039896,10.8075646 10.1046093,10.3274207 11.2708513,10.3274207 L11.2708513,10.3274207 Z" id="Rectangle" stroke="url(#linearGradient-3)" stroke-width="0.528321156" fill="url(#linearGradient-2)"></path>
            <ellipse id="Oval-2" fill="url(#linearGradient-4)" cx="12.4784425" cy="14.0885642" rx="5.63542566" ry="3.22024324"></ellipse>
            <path d="M17.1379595,4.49296303 C23.399671,8.94339011 25.6962792,12.0699634 24.027784,13.8726827 C21.3013543,16.8184434 3.65553077,16.8184434 0.929101095,13.8726827 C-0.739394127,12.0699634 1.55721404,8.94339011 7.8189256,4.49296303 L7.81746034,4.4908995 C10.6087286,2.50890158 14.3481565,2.50890158 17.1394247,4.4908995 Z" id="Triangle" fill="url(#linearGradient-5)" transform="translate(12.478443, 9.449858) scale(1, -1) translate(-12.478443, -9.449858) "></path>
            <path d="M17.1379595,4.49296303 C23.399671,8.94339011 25.6962792,12.0699634 24.027784,13.8726827 C21.3013543,16.8184434 3.65553077,16.8184434 0.929101095,13.8726827 C-0.739394127,12.0699634 1.55721404,8.94339011 7.8189256,4.49296303 L7.81746034,4.4908995 C10.6087286,2.50890158 14.3481565,2.50890158 17.1394247,4.4908995 Z" id="Triangle" fill="url(#linearGradient-6)" transform="translate(12.478443, 9.449858) scale(1, -1) translate(-12.478443, -9.449858) "></path>
            <g id="Oval">
                <use fill="black" fill-opacity="1" filter="url(#filter-8)" xlink:href="#path-7"></use>
                <use fill="#FAFAFA" fill-rule="evenodd" xlink:href="#path-7"></use>
            </g>
            <path d="M24.9500836,5.8366958 C24.9546061,5.90351362 24.9568851,5.97060607 24.9568851,6.03795607 C24.9568851,9.37262712 19.3700961,12.0759121 12.4784425,12.0759121 C5.58678902,12.0759121 -4.24549285e-13,9.37262712 -4.24549285e-13,6.03795607 C-4.24549285e-13,5.97060607 0.00227893248,5.90351362 0.00680152035,5.8366958 C0.226203849,9.07818993 5.72597902,11.6733817 12.4784425,11.6733817 C19.1364807,11.6733817 24.5766203,9.15026395 24.9377926,5.97228748 Z" id="Combined-Shape" fill="#A1A1A1"></path>
            <ellipse id="Oval" stroke="url(#linearGradient-10)" stroke-width="0.528321156" fill="url(#radialGradient-9)" cx="12.4784425" cy="5.83669087" rx="11.0066907" ry="4.76746948"></ellipse>
            <g id="Combined-Shape">
                <use fill="black" fill-opacity="1" filter="url(#filter-13)" xlink:href="#path-12"></use>
                <use fill="url(#radialGradient-11)" fill-rule="evenodd" xlink:href="#path-12"></use>
            </g>
        </g>
    </g>
</svg>