<svg id="安装程序" xmlns="http://www.w3.org/2000/svg" xmlns:xlink="http://www.w3.org/1999/xlink" viewBox="0 0 24 24"><defs><style>.cls-1{fill:url(#未命名的渐变_26);}.cls-2,.cls-3{fill:#f9f9f9;}.cls-2{fill-rule:evenodd;}</style><linearGradient id="未命名的渐变_26" x1="17.5" y1="21.53" x2="6.5" y2="2.47" gradientUnits="userSpaceOnUse"><stop offset="0" stop-color="#dd4814"/><stop offset="1" stop-color="#dd7514"/></linearGradient></defs><g id="_24" data-name="24"><circle class="cls-1" cx="12" cy="12" r="11"/><polygon class="cls-2" points="11.44 10.99 12.02 10.21 11.8 9.38 12.18 8.29 11.3 9.19 11.17 9.15 11.4 8.59 10.57 9.42 9.78 9.91 8.95 11.46 9.4 12.61 9.57 13.5 9.75 13.95 9.1 14.72 10 14.72 10.13 13.91 10.48 13.35 11.08 13.46 11.75 13.19 12.25 12.94 12.74 13.26 12.16 13.95 11.57 14.49 12.49 14.51 12.49 14.15 13.21 13.59 13.46 13.89 12.72 14.96 13.66 14.96 13.62 14.43 14.31 13.8 13.97 13.1 13.91 12.25 14.62 11.86 14.99 11.93 15.53 11.75 15.68 10.67 14.87 10.92 14.36 11.66 13.5 12.11 12.31 11.62 11.44 10.99"/><circle class="cls-3" cx="16" cy="5" r="2"/><circle class="cls-3" cx="4" cy="12" r="2"/><circle class="cls-3" cx="16" cy="19" r="2"/><path class="cls-3" d="M17,12.5A5,5,0,0,1,10,16.59L9,18.3a6.73,6.73,0,0,0,4.77.46,2.24,2.24,0,0,1,2.23-2,2.27,2.27,0,0,1,.94.21,7,7,0,0,0,2-4.46Z"/><path class="cls-3" d="M10,7.41A5,5,0,0,1,17,11.5h2a7,7,0,0,0-2-4.46,2.27,2.27,0,0,1-.94.21,2.24,2.24,0,0,1-2.23-2A6.73,6.73,0,0,0,9,5.7Z"/><path class="cls-3" d="M9.16,16.1a5,5,0,0,1,0-8.2l-1-1.71a7.06,7.06,0,0,0-2.87,4,2.24,2.24,0,0,1,0,3.72,7.06,7.06,0,0,0,2.87,3.95Z"/></g></svg>