<svg id="安装程序" xmlns="http://www.w3.org/2000/svg" xmlns:xlink="http://www.w3.org/1999/xlink" viewBox="0 0 16 16"><defs><style>.cls-1{fill:url(#未命名的渐变_26);}.cls-2,.cls-3{fill:#f9f9f9;}.cls-2{fill-rule:evenodd;}</style><linearGradient id="未命名的渐变_26" x1="12" y1="14.93" x2="4" y2="1.07" gradientUnits="userSpaceOnUse"><stop offset="0" stop-color="#dd4814"/><stop offset="1" stop-color="#dd7514"/></linearGradient></defs><g id="_16" data-name="16"><circle class="cls-1" cx="8" cy="8" r="8"/><polygon class="cls-2" points="7.59 7.27 8.01 6.7 7.86 6.1 8.13 5.3 7.49 5.95 7.4 5.93 7.57 5.52 6.96 6.13 6.39 6.48 5.78 7.61 6.11 8.45 6.23 9.09 6.36 9.42 5.89 9.98 6.54 9.98 6.64 9.39 6.9 8.98 7.33 9.06 7.82 8.87 8.18 8.68 8.54 8.92 8.12 9.42 7.68 9.81 8.35 9.82 8.35 9.56 8.88 9.15 9.06 9.38 8.53 10.15 9.21 10.15 9.18 9.77 9.68 9.31 9.43 8.8 9.39 8.18 9.9 7.89 10.18 7.95 10.57 7.82 10.68 7.03 10.09 7.21 9.72 7.75 9.09 8.08 8.22 7.72 7.59 7.27"/><circle class="cls-3" cx="11" cy="3" r="1"/><circle class="cls-3" cx="2" cy="8" r="1"/><circle class="cls-3" cx="11" cy="13" r="1"/><path class="cls-3" d="M6.92,5.21a3,3,0,0,1,4,2.42h2a5,5,0,0,0-1.14-2.81A2.09,2.09,0,0,1,11,5,2,2,0,0,1,9,3.1,5.58,5.58,0,0,0,8,3a4.92,4.92,0,0,0-2.2.52Z"/><path class="cls-3" d="M11,8.38A3,3,0,0,1,8,11a3,3,0,0,1-1-.18l-.9,1.79A5,5,0,0,0,8,13a5.58,5.58,0,0,0,1-.1A2,2,0,0,1,11,11a2.09,2.09,0,0,1,.83.18A5,5,0,0,0,13,8.38Z"/><path class="cls-3" d="M6.33,10.49a3,3,0,0,1-.07-4.92L5.16,3.91A5,5,0,0,0,3.27,6.46a2,2,0,0,1,0,3.08,5,5,0,0,0,2.17,2.73Z"/></g></svg>