<?xml version="1.0" encoding="UTF-8"?>
<svg width="24px" height="24px" viewBox="0 0 24 24" version="1.1" xmlns="http://www.w3.org/2000/svg" xmlns:xlink="http://www.w3.org/1999/xlink">
    <title>icon_tips/dark</title>
    <g id="icon_tips/dark" stroke="none" stroke-width="1" fill="none" fill-rule="evenodd">
        <g id="编组">
            <rect id="矩形" x="0" y="0" width="24" height="24"></rect>
            <g id="icon/new" transform="translate(2, 2)" fill="#FFFFFF" fill-opacity="0.7" fill-rule="nonzero">
                <path d="M10,0 C15.5139999,0 20,4.48600006 20,10 C20,15.5139999 15.5139999,20 10,20 C4.48600006,20 0,15.5139999 0,10 C0,4.48600006 4.48600006,0 10,0 Z M10,2 C5.58900023,2 2,5.58900023 2,10 C2,14.4109993 5.58900023,18 10,18 C14.4109993,18 18,14.4109993 18,10 C18,5.58900023 14.4109993,2 10,2 Z M9.99491525,13 C10.2722707,13 10.5169901,13.0932587 10.7142175,13.281335 C10.9005689,13.4715553 11,13.7151443 11,13.9948097 C11,14.2816221 10.8953722,14.5365642 10.6987962,14.7238441 C10.5056144,14.9078905 10.270356,15 9.99491525,15 C9.72384707,15 9.48790523,14.9010245 9.29103427,14.7134635 C9.09599142,14.5276441 9,14.2843727 9,13.9948097 C9,13.7052467 9.09599142,13.4619752 9.29103427,13.2761559 C9.48421606,13.0921095 9.71947454,13 9.99491525,13 Z M10.132,5.014 C10.9807596,5.014 11.6721092,5.24335768 12.1926262,5.71185583 C12.7291585,6.18132167 12.998,6.82654116 12.998,7.628 C12.998,8.27017745 12.8309679,8.81804284 12.4898235,9.27124118 C12.3640754,9.41096131 11.9861319,9.75932665 11.4320461,10.2440553 C11.2504642,10.3953735 11.1128205,10.569376 11.0156068,10.7638034 C10.9117885,10.97144 10.862,11.1855306 10.862,11.432 L10.862,11.85 L8.982,11.85 L8.982,11.432 C8.982,10.9222408 9.06700125,10.4939652 9.24674958,10.1475461 C9.42043884,9.78680687 9.89710588,9.27041757 10.6861858,8.56930216 L10.8265107,8.40569055 C11.0059281,8.18640257 11.094,7.95399065 11.094,7.712 C11.094,7.38579572 11.0015048,7.13265096 10.8312233,6.9527767 C10.6574812,6.77903456 10.4000028,6.69 10.048,6.69 C9.59129271,6.69 9.30134052,6.81525935 9.12104404,7.08059777 C8.9560847,7.30377804 8.87,7.64550822 8.87,8.108 L8.87,8.358 L7.002,8.358 L7.002,8.108 C7.002,7.14746167 7.28304138,6.38930354 7.85731512,5.84115596 C8.42375702,5.28788712 9.18346773,5.014 10.132,5.014 Z" id="形状结合"></path>
            </g>
        </g>
    </g>
</svg>