<?xml version="1.0" encoding="UTF-8" standalone="no"?>
<svg
   width="36px"
   height="36px"
   viewBox="0 0 36 36"
   version="1.1"
   id="svg1237"
   sodipodi:docname="open_dark.svg"
   inkscape:version="1.2 (dc2aeda, 2022-05-15)"
   xmlns:inkscape="http://www.inkscape.org/namespaces/inkscape"
   xmlns:sodipodi="http://sodipodi.sourceforge.net/DTD/sodipodi-0.dtd"
   xmlns="http://www.w3.org/2000/svg"
   xmlns:svg="http://www.w3.org/2000/svg">
  <defs
     id="defs1241" />
  <sodipodi:namedview
     id="namedview1239"
     pagecolor="#ffffff"
     bordercolor="#000000"
     borderopacity="0.25"
     inkscape:showpageshadow="2"
     inkscape:pageopacity="0.0"
     inkscape:pagecheckerboard="0"
     inkscape:deskcolor="#d1d1d1"
     showgrid="false"
     inkscape:zoom="22.638889"
     inkscape:cx="17.977914"
     inkscape:cy="18.044172"
     inkscape:window-width="1920"
     inkscape:window-height="991"
     inkscape:window-x="0"
     inkscape:window-y="0"
     inkscape:window-maximized="1"
     inkscape:current-layer="svg1237" />
  <title
     id="title1230">下载 </title>
  <g
     id="6.0"
     stroke="none"
     stroke-width="1"
     fill="none"
     fill-rule="evenodd"
     transform="rotate(180,18.5,18.5)">
    <g
       id="OCR_1备份"
       transform="translate(-1285,-774)"
       fill="#c5cfe0"
       fill-rule="nonzero">
      <g
         id="下载-"
         transform="translate(1285,774)">
        <path
           d="M 18.281305,20.914877 C 18.342667,20.972915 18.421844,21 18.501021,21 c 0.07918,0 0.158353,-0.02902 0.219715,-0.08512 l 3.810442,-3.360271 c 0.05147,-0.04837 0.08116,-0.106403 0.09303,-0.166376 0.03563,-0.177984 -0.09897,-0.371445 -0.312748,-0.371445 h -2.316099 v -5.70725 C 19.995361,11.139292 19.854823,11 19.678655,11 h -2.356272 c -0.174189,0 -0.316707,0.137357 -0.316707,0.309538 v 5.709181 h -2.348083 c -0.215757,0 -0.348378,0.193461 -0.312748,0.371445 0.01188,0.05997 0.04157,0.116077 0.09303,0.166377 z"
           id="路径" />
        <path
           d="m 25.669011,21 h -4.817956 l -1.206041,1.251125 c -0.310302,0.321782 -0.715763,0.49955 -1.14398,0.49955 -0.428217,0 -0.835746,-0.177768 -1.14398,-0.49955 L 16.151014,21 H 11.333058 C 11.148945,21 11,21.162016 11,21.360036 v 4.277678 C 11,25.837984 11.148945,26 11.333058,26 H 25.669011 C 25.853124,26 26,25.837984 26,25.637714 V 21.362286 C 26,21.162016 25.851055,21 25.669011,21 Z"
           id="形状" />
      </g>
    </g>
  </g>
</svg>
