<?xml version="1.0" encoding="UTF-8"?>
<svg width="22px" height="32px" viewBox="0 0 22 32" version="1.1" xmlns="http://www.w3.org/2000/svg" xmlns:xlink="http://www.w3.org/1999/xlink">
    <!-- Generator: Sketch 58 (84663) - https://sketch.com -->
    <title>warning</title>
    <desc>Created with Sketch.</desc>
    <defs>
        <polygon id="path-1" points="11 10 17.9282032 22 4.07179677 22"></polygon>
        <filter x="-62.1%" y="-43.8%" width="224.1%" height="212.5%" filterUnits="objectBoundingBox" id="filter-2">
            <feOffset dx="0" dy="4" in="SourceAlpha" result="shadowOffsetOuter1"></feOffset>
            <feGaussianBlur stdDeviation="3" in="shadowOffsetOuter1" result="shadowBlurOuter1"></feGaussianBlur>
            <feColorMatrix values="0 0 0 0 0.97254902   0 0 0 0 0.881246572   0 0 0 0 0.17254902  0 0 0 0.4 0" type="matrix" in="shadowBlurOuter1"></feColorMatrix>
        </filter>
    </defs>
    <g id="浅色切图标注" stroke="none" stroke-width="1" fill="none" fill-rule="evenodd">
        <g id="系统日志" transform="translate(-664.000000, -392.000000)">
            <g id="警告icon-2" transform="translate(664.000000, 392.000000)">
                <g id="警告icon">
                    <g id="编组">
                        <g id="多边形">
                            <use fill="black" fill-opacity="1" filter="url(#filter-2)" xlink:href="#path-1"></use>
                            <use fill="#F8CB00" fill-rule="evenodd" xlink:href="#path-1"></use>
                        </g>
                        <path d="M11,19 C11.5522847,19 12,19.4477153 12,20 C12,20.5522847 11.5522847,21 11,21 C10.4477153,21 10,20.5522847 10,20 C10,19.4477153 10.4477153,19 11,19 Z M11,13 C11.5522847,13 12,13.4477153 12,14 L12,17 C12,17.5522847 11.5522847,18 11,18 C10.4477153,18 10,17.5522847 10,17 L10,14 C10,13.4477153 10.4477153,13 11,13 Z" id="形状结合" fill="#FFFFFF"></path>
                    </g>
                </g>
            </g>
        </g>
    </g>
</svg>