<?xml version="1.0" encoding="UTF-8"?>
<svg width="94px" height="94px" viewBox="0 0 94 94" version="1.1" xmlns="http://www.w3.org/2000/svg" xmlns:xlink="http://www.w3.org/1999/xlink">
    <!-- Generator: Sketch 58 (84663) - https://sketch.com -->
    <title>ICON/Internet Control_dark</title>
    <desc>Created with Sketch.</desc>
    <defs>
        <linearGradient x1="81.402036%" y1="10.769876%" x2="13.9027361%" y2="80.5773289%" id="linearGradient-1">
            <stop stop-color="#33FEE4" offset="0%"></stop>
            <stop stop-color="#56ACFF" offset="100%"></stop>
        </linearGradient>
        <linearGradient x1="0%" y1="100%" x2="100%" y2="100%" id="linearGradient-2">
            <stop stop-color="#364C59" offset="0%"></stop>
            <stop stop-color="#37454D" offset="11.128257%"></stop>
            <stop stop-color="#4BBCF9" offset="12.8309648%"></stop>
            <stop stop-color="#5BD2F6" offset="32.2582348%"></stop>
            <stop stop-color="#04AEFE" offset="100%"></stop>
        </linearGradient>
        <path d="M34.9524467,26 L35.5312357,26.0012727 C53.9790313,26.0824578 69.0048824,30.0376501 69.9524467,35.0002519 L68,35.0010441 C67.3883346,33.8531915 64.612876,32.3274633 60.3150189,31.0374378 L59.9195983,30.9208291 L59.1772828,30.7126481 C52.8398931,28.9924995 44.1947739,28 34.9524467,28 C25.7101195,28 17.0650004,28.9924995 10.7276107,30.7126481 L9.91614885,30.9409243 C5.42288522,32.2507701 2.62699105,33.8244314 2,35.0010441 L-4.19220214e-13,35.0004774 C0.957039633,29.9859706 16.2397923,26 34.9524467,26 Z" id="path-3"></path>
        <filter x="-15.7%" y="-77.8%" width="131.4%" height="344.4%" filterUnits="objectBoundingBox" id="filter-4">
            <feOffset dx="0" dy="4" in="SourceAlpha" result="shadowOffsetOuter1"></feOffset>
            <feGaussianBlur stdDeviation="3" in="shadowOffsetOuter1" result="shadowBlurOuter1"></feGaussianBlur>
            <feColorMatrix values="0 0 0 0 0.17254902   0 0 0 0 0.654901961   0 0 0 0 0.97254902  0 0 0 0.4 0" type="matrix" in="shadowBlurOuter1"></feColorMatrix>
        </filter>
        <linearGradient x1="0%" y1="100%" x2="100%" y2="100%" id="linearGradient-5">
            <stop stop-color="#0481FE" offset="0%"></stop>
            <stop stop-color="#087FF3" offset="24.3378527%"></stop>
            <stop stop-color="#00ABFE" offset="49.2234724%"></stop>
            <stop stop-color="#3BE0EC" offset="86.6068812%"></stop>
            <stop stop-color="#363D44" offset="89.3569949%"></stop>
            <stop stop-color="#37434D" offset="100%"></stop>
        </linearGradient>
        <path d="M34.9524467,36 L35.5312357,36.0012727 C53.9790313,36.0824578 68.9572861,40.0376501 69.9048504,45.0002519 L67.8113458,45.0010441 C67.1811451,43.8184081 64.4542862,42.2346479 59.9195983,40.9208291 L59.9195983,40.9208291 L59.1772828,40.7126481 C52.8398931,38.9924995 44.1947739,38 34.9524467,38 C25.7101195,38 17.0650004,38.9924995 10.7276107,40.7126481 C5.7479895,42.0642596 2.75742055,43.7552189 2.09354768,45.0010441 L-4.19417973e-13,45.0004774 C0.957039633,39.9859706 16.2397923,36 34.9524467,36 L34.9524467,36 Z" id="path-6"></path>
        <filter x="-15.7%" y="-77.8%" width="131.5%" height="344.4%" filterUnits="objectBoundingBox" id="filter-7">
            <feOffset dx="0" dy="4" in="SourceAlpha" result="shadowOffsetOuter1"></feOffset>
            <feGaussianBlur stdDeviation="3" in="shadowOffsetOuter1" result="shadowBlurOuter1"></feGaussianBlur>
            <feColorMatrix values="0 0 0 0 0.17254902   0 0 0 0 0.654901961   0 0 0 0 0.97254902  0 0 0 0.4 0" type="matrix" in="shadowBlurOuter1"></feColorMatrix>
        </filter>
        <linearGradient x1="100%" y1="100%" x2="100%" y2="0%" id="linearGradient-8">
            <stop stop-color="#324150" offset="0%"></stop>
            <stop stop-color="#3DA0F8" offset="25.0881694%"></stop>
            <stop stop-color="#299BEE" offset="43.2636774%"></stop>
            <stop stop-color="#1A8DE7" offset="69.1783443%"></stop>
            <stop stop-color="#067DE5" offset="100%"></stop>
        </linearGradient>
        <path d="M34,0 L34,2 C25.5241954,2 18,16.63038 18,35 C18,53.36962 25.5241954,68 34,68 C34.0003337,68 34.0006674,68 34.0010011,67.9999999 L34,70 C24.1582858,70 16.1613657,54.6417999 16.0024115,35.578789 L16,35 C16,15.6700338 24.0588745,-1.82615513e-15 34,0 L34,0 Z" id="path-9"></path>
        <filter x="-61.1%" y="-10.0%" width="222.2%" height="131.4%" filterUnits="objectBoundingBox" id="filter-10">
            <feOffset dx="0" dy="4" in="SourceAlpha" result="shadowOffsetOuter1"></feOffset>
            <feGaussianBlur stdDeviation="3" in="shadowOffsetOuter1" result="shadowBlurOuter1"></feGaussianBlur>
            <feColorMatrix values="0 0 0 0 0.17254902   0 0 0 0 0.654901961   0 0 0 0 0.97254902  0 0 0 0.4 0" type="matrix" in="shadowBlurOuter1"></feColorMatrix>
        </filter>
        <linearGradient x1="50.0059264%" y1="1.82390265%" x2="50%" y2="100%" id="linearGradient-11">
            <stop stop-color="#364E5C" offset="0%"></stop>
            <stop stop-color="#374955" offset="11.0924556%"></stop>
            <stop stop-color="#2BEDE9" offset="13.7321093%"></stop>
            <stop stop-color="#25DAEF" offset="32.8921123%"></stop>
            <stop stop-color="#1FAEF8" offset="61.4899009%"></stop>
            <stop stop-color="#47A9FE" offset="100%"></stop>
        </linearGradient>
        <path d="M52,0 L52,2 C43.5241954,2 36,16.63038 36,35 C36,53.36962 43.5241954,68 52,68 C52.0003337,68 52.0006674,68 52.0010011,67.9999999 L52,70 C42.1582858,70 34.1613657,54.6417999 34.0024115,35.578789 L34,35 C34,15.6700338 42.0588745,-1.82615513e-15 52,0 L52,0 Z" id="path-12"></path>
        <filter x="-61.1%" y="-10.0%" width="222.2%" height="131.4%" filterUnits="objectBoundingBox" id="filter-13">
            <feOffset dx="0" dy="4" in="SourceAlpha" result="shadowOffsetOuter1"></feOffset>
            <feGaussianBlur stdDeviation="3" in="shadowOffsetOuter1" result="shadowBlurOuter1"></feGaussianBlur>
            <feColorMatrix values="0 0 0 0 0.17254902   0 0 0 0 0.654901961   0 0 0 0 0.97254902  0 0 0 0.4 0" type="matrix" in="shadowBlurOuter1"></feColorMatrix>
        </filter>
        <linearGradient x1="94.7168519%" y1="100%" x2="94.7168519%" y2="3.88578059e-14%" id="linearGradient-14">
            <stop stop-color="#00AAFE" offset="0%"></stop>
            <stop stop-color="#1680B8" offset="10.2315074%"></stop>
            <stop stop-color="#25617E" offset="28.2899832%"></stop>
            <stop stop-color="#37454F" offset="48.1705666%"></stop>
            <stop stop-color="#0A7EFF" offset="48.9297368%"></stop>
            <stop stop-color="#027AE4" offset="100%"></stop>
        </linearGradient>
        <path d="M35,0 L35,2 C16.7746033,2 2,16.7746033 2,35 C2,53.2253967 16.7746033,68 35,68 L35,68 L35,70 C15.6700338,70 0,54.3299662 0,35 C0,15.6700338 15.6700338,0 35,0 L35,0 Z" id="path-15"></path>
        <filter x="-31.4%" y="-10.0%" width="162.9%" height="131.4%" filterUnits="objectBoundingBox" id="filter-16">
            <feOffset dx="0" dy="4" in="SourceAlpha" result="shadowOffsetOuter1"></feOffset>
            <feGaussianBlur stdDeviation="3" in="shadowOffsetOuter1" result="shadowBlurOuter1"></feGaussianBlur>
            <feColorMatrix values="0 0 0 0 0.17254902   0 0 0 0 0.654901961   0 0 0 0 0.97254902  0 0 0 0.4 0" type="matrix" in="shadowBlurOuter1"></feColorMatrix>
        </filter>
        <linearGradient x1="94.7168519%" y1="100%" x2="94.7168519%" y2="0%" id="linearGradient-17">
            <stop stop-color="#373F44" offset="0%"></stop>
            <stop stop-color="#1584B5" offset="26.9578455%"></stop>
            <stop stop-color="#00B0FF" offset="48.8889632%"></stop>
            <stop stop-color="#374147" offset="49.1032379%"></stop>
            <stop stop-color="#1C64A6" offset="85.315764%"></stop>
            <stop stop-color="#0978E4" offset="100%"></stop>
        </linearGradient>
        <path d="M70,0 L70,2 C51.7746033,2 37,16.7746033 37,35 C37,53.2253967 51.7746033,68 70,68 L70,68 L70,70 C50.6700338,70 35,54.3299662 35,35 C35,15.6700338 50.6700338,0 70,0 L70,0 Z" id="path-18"></path>
        <filter x="-31.4%" y="-10.0%" width="162.9%" height="131.4%" filterUnits="objectBoundingBox" id="filter-19">
            <feOffset dx="0" dy="4" in="SourceAlpha" result="shadowOffsetOuter1"></feOffset>
            <feGaussianBlur stdDeviation="3" in="shadowOffsetOuter1" result="shadowBlurOuter1"></feGaussianBlur>
            <feColorMatrix values="0 0 0 0 0.17254902   0 0 0 0 0.654901961   0 0 0 0 0.97254902  0 0 0 0.4 0" type="matrix" in="shadowBlurOuter1"></feColorMatrix>
        </filter>
        <linearGradient x1="41.0469103%" y1="6.16449861%" x2="67.1189596%" y2="79.7806027%" id="linearGradient-20">
            <stop stop-color="#047EFE" offset="0%"></stop>
            <stop stop-color="#0484FF" offset="100%"></stop>
        </linearGradient>
        <path d="M2,35.1932591 L2,35.561283 C2.032538,35.9360052 2.32139233,36.3672856 2.8569502,36.8293493 L2.31015032,38.9013653 C0.817778167,37.8453299 0,36.6985867 0,35.5 C0,35.1923991 0.0538606954,34.8882126 0.159161895,34.5880977 C0.531496353,34.71088 1.14554439,34.9125846 2,35.1932591 Z" id="path-21"></path>
        <filter x="-385.0%" y="-162.3%" width="870.1%" height="610.1%" filterUnits="objectBoundingBox" id="filter-22">
            <feOffset dx="0" dy="4" in="SourceAlpha" result="shadowOffsetOuter1"></feOffset>
            <feGaussianBlur stdDeviation="3" in="shadowOffsetOuter1" result="shadowBlurOuter1"></feGaussianBlur>
            <feColorMatrix values="0 0 0 0 0.17254902   0 0 0 0 0.654901961   0 0 0 0 0.97254902  0 0 0 0.4 0" type="matrix" in="shadowBlurOuter1"></feColorMatrix>
        </filter>
        <linearGradient x1="44.3413807%" y1="12.5022534%" x2="53.7738946%" y2="78.4025012%" id="linearGradient-23">
            <stop stop-color="#24A7FF" offset="0%"></stop>
            <stop stop-color="#02B1FF" offset="100%"></stop>
        </linearGradient>
        <path d="M67.890606,32.2934869 L67.8862029,32.2409993 C69.1778224,33.2009746 69.915171,34.2333612 69.9931121,35.309622 L69.9966844,35.4309993 L69.9966844,35.4319993 L69.9960107,35.5338895 C69.9953176,35.5802374 69.9945345,35.6265634 69.9936614,35.6728675 C69.9212032,36.7847326 69.1444082,37.8499313 67.7796844,38.8370968 C67.9028043,37.7707884 67.9754862,36.6882871 67.9947832,35.5927642 L67.9954243,35.5850884 L68,35.5 C68,35.4778529 67.9990453,35.4554823 67.9971385,35.4328945 L68,35 C68,34.0887302 67.9630635,33.1860873 67.890606,32.2934869 L67.8862029,32.2409993 Z M69.9978194,35.3947805 L69.9986844,35.4659993 L69.9966844,35.4319993 L69.9966844,35.4309993 L69.9978194,35.3947805 Z" id="path-24"></path>
        <filter x="-495.7%" y="-106.1%" width="1091.4%" height="433.5%" filterUnits="objectBoundingBox" id="filter-25">
            <feOffset dx="0" dy="4" in="SourceAlpha" result="shadowOffsetOuter1"></feOffset>
            <feGaussianBlur stdDeviation="3" in="shadowOffsetOuter1" result="shadowBlurOuter1"></feGaussianBlur>
            <feColorMatrix values="0 0 0 0 0.17254902   0 0 0 0 0.654901961   0 0 0 0 0.97254902  0 0 0 0.4 0" type="matrix" in="shadowBlurOuter1"></feColorMatrix>
        </filter>
        <linearGradient x1="88.5112713%" y1="48.2181043%" x2="34.1118877%" y2="51.0133255%" id="linearGradient-26">
            <stop stop-color="#42A8FF" offset="0%"></stop>
            <stop stop-color="#43AFFF" offset="100%"></stop>
        </linearGradient>
        <path d="M26.7362029,67.0332067 L26.6101278,66.9240259 C28.7050803,67.4730958 30.8813052,67.8214124 33.1170049,67.9471781 C33.4105396,67.98224 33.7046922,68 34,68 C34.1061144,68 34.2120796,67.9977068 34.3178828,67.9931418 C34.5442358,67.9976847 34.7718475,68 35,68 C36.93588,68 38.8328266,67.8333065 40.6772693,67.51349 C38.7117513,69.0402612 36.5756039,69.9133995 34.3398052,69.9938882 C33.8714721,69.9852369 33.4051956,69.9673656 32.9413428,69.9404611 C30.7439978,69.6926731 28.6523923,68.6784371 26.7362029,67.0332067 L26.6101278,66.9240259 Z" id="path-27"></path>
        <filter x="-78.2%" y="-228.0%" width="256.4%" height="816.6%" filterUnits="objectBoundingBox" id="filter-28">
            <feOffset dx="0" dy="4" in="SourceAlpha" result="shadowOffsetOuter1"></feOffset>
            <feGaussianBlur stdDeviation="3" in="shadowOffsetOuter1" result="shadowBlurOuter1"></feGaussianBlur>
            <feColorMatrix values="0 0 0 0 0.17254902   0 0 0 0 0.654901961   0 0 0 0 0.97254902  0 0 0 0.4 0" type="matrix" in="shadowBlurOuter1"></feColorMatrix>
        </filter>
        <linearGradient x1="50%" y1="0%" x2="50%" y2="100%" id="linearGradient-29">
            <stop stop-color="#0F7AE4" offset="0%"></stop>
            <stop stop-color="#42ACFF" offset="100%"></stop>
        </linearGradient>
    </defs>
    <g id="ICON/Internet-Control_dark" stroke="none" stroke-width="1" fill="none" fill-rule="evenodd">
        <rect id="矩形" fill="#FF6969" opacity="0" x="0" y="0" width="94" height="94"></rect>
        <g id="编组-10" transform="translate(12.000000, 12.000000)">
            <circle id="椭圆形" fill="url(#linearGradient-1)" cx="35" cy="35" r="27"></circle>
            <g id="路径" fill-rule="nonzero">
                <use fill="black" fill-opacity="1" filter="url(#filter-4)" xlink:href="#path-3"></use>
                <use fill="url(#linearGradient-2)" xlink:href="#path-3"></use>
            </g>
            <g id="形状结合备份-9" fill-rule="nonzero" transform="translate(34.952425, 40.500522) scale(1, -1) translate(-34.952425, -40.500522) ">
                <use fill="black" fill-opacity="1" filter="url(#filter-7)" xlink:href="#path-6"></use>
                <use fill="url(#linearGradient-5)" xlink:href="#path-6"></use>
            </g>
            <g id="形状结合" fill-rule="nonzero">
                <use fill="black" fill-opacity="1" filter="url(#filter-10)" xlink:href="#path-9"></use>
                <use fill="url(#linearGradient-8)" xlink:href="#path-9"></use>
            </g>
            <g id="形状结合备份-8" fill-rule="nonzero" transform="translate(43.000501, 35.000000) scale(-1, 1) translate(-43.000501, -35.000000) ">
                <use fill="black" fill-opacity="1" filter="url(#filter-13)" xlink:href="#path-12"></use>
                <use fill="url(#linearGradient-11)" xlink:href="#path-12"></use>
            </g>
            <g id="形状结合" fill-rule="nonzero">
                <use fill="black" fill-opacity="1" filter="url(#filter-16)" xlink:href="#path-15"></use>
                <use fill="url(#linearGradient-14)" xlink:href="#path-15"></use>
            </g>
            <g id="形状结合备份-10" fill-rule="nonzero" transform="translate(52.500000, 35.000000) scale(-1, 1) translate(-52.500000, -35.000000) ">
                <use fill="black" fill-opacity="1" filter="url(#filter-19)" xlink:href="#path-18"></use>
                <use fill="url(#linearGradient-17)" xlink:href="#path-18"></use>
            </g>
            <g id="形状结合" fill-rule="nonzero">
                <use fill="black" fill-opacity="1" filter="url(#filter-22)" xlink:href="#path-21"></use>
                <use fill="url(#linearGradient-20)" xlink:href="#path-21"></use>
            </g>
            <g id="形状结合" fill-rule="nonzero">
                <use fill="black" fill-opacity="1" filter="url(#filter-25)" xlink:href="#path-24"></use>
                <use fill="url(#linearGradient-23)" xlink:href="#path-24"></use>
            </g>
            <g id="形状结合" fill-rule="nonzero">
                <use fill="black" fill-opacity="1" filter="url(#filter-28)" xlink:href="#path-27"></use>
                <use fill="url(#linearGradient-26)" xlink:href="#path-27"></use>
            </g>
            <rect id="矩形" fill="url(#linearGradient-29)" x="34" y="1" width="2" height="68"></rect>
        </g>
    </g>
</svg>