<?xml version="1.0" encoding="UTF-8"?>
<svg width="28px" height="28px" viewBox="0 0 28 28" version="1.1" xmlns="http://www.w3.org/2000/svg" xmlns:xlink="http://www.w3.org/1999/xlink">
    <!-- Generator: Sketch 58 (84663) - https://sketch.com -->
    <title>ICon/virus reservoir_dark</title>
    <desc>Created with Sketch.</desc>
    <g id="ICon/virus-reservoir_dark" stroke="none" stroke-width="1" fill="none" fill-rule="evenodd">
        <g id="编组-27">
            <rect id="矩形" fill="#FF6969" opacity="0" x="0" y="0" width="28" height="28"></rect>
            <path d="M18,14 C20.7614237,14 23,16.2385763 23,19 C23,21.7614237 20.7614237,24 18,24 C15.2385763,24 13,21.7614237 13,19 C13,16.2385763 15.2385763,14 18,14 Z M19,5 C20.1045695,5 21,5.8954305 21,7 L21.000963,13.8032504 C20.1182253,13.2923955 19.093259,13 18,13 C14.6862915,13 12,15.6862915 12,19 C12,20.5371282 12.5780225,21.939252 13.5285648,23.0008689 L8,23 C6.8954305,23 6,22.1045695 6,21 L6,7 C6,5.8954305 6.8954305,5 8,5 L19,5 Z M17.5689012,16.1762767 L17.516987,16.2500835 L16.016987,18.8481597 C15.8789158,19.087306 15.9608534,19.3931012 16.1999997,19.5311724 C16.2568946,19.5640207 16.3175619,19.5844164 16.3788456,19.5932052 L16.4708388,19.5977888 L16.5,19.5991218 L18.6849162,19.599 L17.616987,21.4481597 C17.4789158,21.687306 17.5608534,21.9931012 17.7999997,22.1311724 C18.0125742,22.2539023 18.2778096,22.2027982 18.4310982,22.0219664 L18.4830124,21.9481597 L19.9830124,19.3500835 C20.1210836,19.1109372 20.039146,18.805142 19.7999997,18.6670708 C19.7428964,18.6341022 19.681993,18.6136775 19.6204803,18.6049419 L19.5281533,18.6004983 L19.5,18.5991218 L17.3149162,18.599 L18.3830124,16.7500835 C18.5210836,16.5109372 18.439146,16.205142 18.1999997,16.0670708 C17.9874252,15.9443408 17.7221899,15.995445 17.5689012,16.1762767 Z M13.5,13 L9.5,13 C9.22385763,13 9,13.2238576 9,13.5 C9,13.7454599 9.17687516,13.9496084 9.41012437,13.9919443 L9.5,14 L13.5,14 C13.7761424,14 14,13.7761424 14,13.5 C14,13.2238576 13.7761424,13 13.5,13 Z M17.5,10 L9.5,10 C9.22385763,10 9,10.2238576 9,10.5 C9,10.7454599 9.17687516,10.9496084 9.41012437,10.9919443 L9.5,11 L17.5,11 C17.7761424,11 18,10.7761424 18,10.5 C18,10.2238576 17.7761424,10 17.5,10 Z" id="形状结合" fill="#C5CFE0"></path>
        </g>
    </g>
</svg>