<?xml version="1.0" encoding="UTF-8"?>
<svg width="128px" height="128px" viewBox="0 0 128 128" version="1.1" xmlns="http://www.w3.org/2000/svg" xmlns:xlink="http://www.w3.org/1999/xlink">
    <!-- Generator: Sketch 56.2 (81672) - https://sketch.com -->
    <title>lock</title>
    <desc>Created with Sketch.</desc>
    <defs>
        <filter x="-13.7%" y="-13.7%" width="127.3%" height="127.3%" filterUnits="objectBoundingBox" id="filter-1">
            <feOffset dx="0" dy="3" in="SourceAlpha" result="shadowOffsetOuter1"></feOffset>
            <feGaussianBlur stdDeviation="3" in="shadowOffsetOuter1" result="shadowBlurOuter1"></feGaussianBlur>
            <feColorMatrix values="0 0 0 0 0   0 0 0 0 0   0 0 0 0 0  0 0 0 0.2 0" type="matrix" in="shadowBlurOuter1" result="shadowMatrixOuter1"></feColorMatrix>
            <feMerge>
                <feMergeNode in="shadowMatrixOuter1"></feMergeNode>
                <feMergeNode in="SourceGraphic"></feMergeNode>
            </feMerge>
        </filter>
        <linearGradient x1="10.0854621%" y1="19.7530864%" x2="100%" y2="76.0110061%" id="linearGradient-2">
            <stop stop-color="#EFD46E" offset="0%"></stop>
            <stop stop-color="#C6A766" offset="100%"></stop>
        </linearGradient>
    </defs>
    <g id="Page-1" stroke="none" stroke-width="1" fill="none" fill-rule="evenodd">
        <g id="按钮规范" transform="translate(-397.000000, -288.000000)">
            <g id="lock" filter="url(#filter-1)" transform="translate(397.000000, 288.000000)">
                <path d="M64,16 C77.8071187,16 89,27.1928813 89,41 L89,46 C89,59.8071187 77.8071187,71 64,71 C50.1928813,71 39,59.8071187 39,46 L39,41 C39,27.1928813 50.1928813,16 64,16 Z M64,26 C55.7157288,26 49,32.7157288 49,41 L49,46 C49,54.2842712 55.7157288,61 64,61 C72.2842712,61 79,54.2842712 79,46 L79,41 C79,32.7157288 72.2842712,26 64,26 Z" id="矩形" fill="#405D80" fill-rule="nonzero"></path>
                <rect id="矩形" fill="url(#linearGradient-2)" x="23" y="48" width="81" height="63" rx="8"></rect>
                <path d="M60.4955246,79.2921984 C57.2659648,77.9256231 55,74.7274338 55,71 C55,66.0294373 59.0294373,62 64,62 C68.9705627,62 73,66.0294373 73,71 C73,74.7274338 70.7340352,77.9256231 67.5044754,79.2921984 L72.1953384,94.4072016 C72.522732,95.4621363 71.9329433,96.5827347 70.8780086,96.9101283 C70.6860476,96.9697024 70.486203,97 70.2852101,97 L57.7147899,97 C56.6102204,97 55.7147899,96.1045695 55.7147899,95 C55.7147899,94.7990072 55.7450875,94.5991626 55.8046616,94.4072016 L60.4955246,79.2921984 Z" id="形状结合" fill="#2C4666"></path>
            </g>
        </g>
    </g>
</svg>