<?xml version="1.0" encoding="UTF-8"?>
<svg width="96px" height="96px" viewBox="0 0 96 96" version="1.1" xmlns="http://www.w3.org/2000/svg" xmlns:xlink="http://www.w3.org/1999/xlink">
    <title>音乐占位图-浅色模式</title>
    <defs>
        <linearGradient x1="50%" y1="7.99254464%" x2="23.5599782%" y2="100%" id="linearGradient-1">
            <stop stop-color="#DCE2E9" offset="0%"></stop>
            <stop stop-color="#9EA7B2" offset="100%"></stop>
        </linearGradient>
        <linearGradient x1="102.136737%" y1="-16.5567921%" x2="6.43996708%" y2="114.222129%" id="linearGradient-2">
            <stop stop-color="#8A95A4" stop-opacity="0" offset="0%"></stop>
            <stop stop-color="#E8EEF5" offset="52.6857415%"></stop>
            <stop stop-color="#8A95A4" stop-opacity="0" offset="100%"></stop>
        </linearGradient>
    </defs>
    <g id="SP2音乐" stroke="none" stroke-width="1" fill="none" fill-rule="evenodd">
        <g id="灵墨影音_空页面-深色" transform="translate(-1213.000000, -434.000000)">
            <g id="音乐占位图-浅色模式" transform="translate(1213.000000, 434.000000)">
                <rect id="矩形" x="0" y="0" width="96" height="96"></rect>
                <ellipse id="椭圆形备份" fill-opacity="0.05" fill="#425369" opacity="0.8" cx="48.1054688" cy="49.9394531" rx="36.7382812" ry="37.0605469"></ellipse>
                <ellipse id="椭圆形" stroke-opacity="0.05" stroke="#425369" stroke-width="1.5" cx="48.1054688" cy="49.9394531" rx="35.9882812" ry="36.3105469"></ellipse>
                <circle id="椭圆形备份-2" stroke="#425369" stroke-width="3.2" fill="#425369" opacity="0.25" cx="48" cy="49.5" r="16.4"></circle>
                <g id="路径" transform="translate(38.250000, 4.499908)">
                    <path d="M23.25,9.20709181e-05 C27.788237,0.175606241 31.8989285,2.26378936 34.5,6.00009207 C39.5339977,12.2866448 45.8716016,15.368908 50.25,15.0000921 C48.2822762,17.8193498 40.9991427,19.2366786 37.5,18.7500921 C35.343019,18.6971348 33.3681609,17.9324112 31.5,16.5000921 C28.4687457,14.5150954 26.4374669,14.9637497 25.5,15.0000921 C22.9674528,28.4278915 21.2360613,37.4582463 20.3058255,42.0911565 L20.222233,42.5063199 C19.7749896,44.7210252 19.5342453,45.8022826 19.5,45.7500921 C19.513828,45.5009118 19.5141273,45.2552755 19.5017237,45.0130541 C19.4929271,50.3919378 15.1304143,54.7500921 9.75,54.7500921 C4.36522369,54.7500921 0,50.3848684 0,45.0000921 C0,39.6153158 4.36522369,35.2500921 9.75,35.2500921 C12.0752338,35.2500921 14.2103564,36.0640546 15.8859788,37.4225905 L21.75,1.50009207 C22.0200425,0.527292777 22.6486365,-0.0080744604 23.25,9.20709181e-05 Z" id="形状结合" fill="url(#linearGradient-1)"></path>
                    <path d="M37.0023087,18.647851 C40.1314314,18.9268234 46.0716229,18.1456023 48.8351144,16.1230523 C49.0714921,15.9357194 49.3985894,15.6160875 49.8164062,15.1641566 C47.9651358,15.1642569 45.8438414,14.6432899 44.1518968,13.8729573 C35.3512392,20.114965 31.3222708,9.5986835 24.0351562,15.3350537 C26.339483,14.8381341 29.0689623,14.8817235 31.2372403,16.3812002 C32.9329611,17.6398264 34.9205633,18.4212916 37.0023087,18.647851 Z" fill="#425369" fill-rule="nonzero" opacity="0.30875651"></path>
                </g>
                <path d="M48,12.75 C68.2964646,12.75 84.75,29.3714287 84.75,50.25 C84.75,70.3785713 68.2964646,87 48,87 C27.7035354,87 11.25,70.3785713 11.25,50.25 C11.25,29.3714287 27.7035354,12.75 48,12.75 Z M48,39.75 C42.6152237,39.75 38.25,44.1152237 38.25,49.5 C38.25,54.8847763 42.6152237,59.25 48,59.25 C53.3847763,59.25 57.75,54.8847763 57.75,49.5 C57.75,44.1152237 53.3847763,39.75 48,39.75 Z" id="形状结合" fill="url(#linearGradient-2)" opacity="0.593308222"></path>
            </g>
        </g>
    </g>
</svg>