<?xml version="1.0" encoding="UTF-8"?>
<svg width="96px" height="96px" viewBox="0 0 96 96" version="1.1" xmlns="http://www.w3.org/2000/svg" xmlns:xlink="http://www.w3.org/1999/xlink">
    <title>音乐占位图-深色模式</title>
    <defs>
        <linearGradient x1="41.0822114%" y1="56.284396%" x2="23.5601505%" y2="100%" id="linearGradient-1">
            <stop stop-color="#4D5C6C" offset="0%"></stop>
            <stop stop-color="#879EB9" stop-opacity="0.6" offset="100%"></stop>
        </linearGradient>
        <linearGradient x1="81.7645003%" y1="16.2583593%" x2="21.8610042%" y2="90.9381955%" id="linearGradient-2">
            <stop stop-color="#D4E8FF" stop-opacity="0" offset="0%"></stop>
            <stop stop-color="#D4E8FF" stop-opacity="0.4" offset="52.6857415%"></stop>
            <stop stop-color="#D4E8FF" stop-opacity="0" offset="100%"></stop>
        </linearGradient>
    </defs>
    <g id="SP2音乐" stroke="none" stroke-width="1" fill="none" fill-rule="evenodd">
        <g id="灵墨影音_空页面-深色" transform="translate(-1003.000000, -434.000000)">
            <g id="音乐占位图-深色模式" transform="translate(1003.000000, 434.000000)">
                <rect id="矩形" x="0" y="0" width="96" height="96"></rect>
                <ellipse id="椭圆形备份" fill-opacity="0.05" fill="#425369" opacity="0.8" cx="48" cy="49.875" rx="36.75" ry="37.125"></ellipse>
                <ellipse id="椭圆形" stroke-opacity="0.05" stroke="#425369" stroke-width="1.5" cx="48" cy="49.875" rx="36" ry="36.375"></ellipse>
                <circle id="椭圆形备份-2" fill="#D4E8FF" opacity="0.120977493" cx="48" cy="49.5" r="18"></circle>
                <g id="路径" transform="translate(38.250000, 4.499730)">
                    <path d="M23.3833297,8.8132369e-05 C27.788237,0.175784598 31.7544263,1.79323313 34.5,5.25027043 C39.3894955,11.8160886 45.8716016,15.1112661 50.25,15.0002704 C48.2822762,17.5617079 40.9991427,19.236857 37.4129448,18.9294845 C35.343019,18.6973132 33.3681609,17.9325895 31.6801391,16.7095719 C28.4687457,14.5152738 26.4374669,14.9639281 25.4487048,15.1318197 C22.1659796,32.6167051 20.2784127,42.6129388 19.7860039,45.1205208 L19.7535628,45.2850887 C19.6882945,45.6147037 19.6556604,45.7691516 19.6556604,45.7484324 C19.6569545,45.1381977 19.5838322,44.5491645 19.4470173,43.9819345 C19.4821977,44.3166756 19.5,44.656394 19.5,45.0002704 C19.5,50.3850467 15.1347763,54.7502704 9.75,54.7502704 C4.36522369,54.7502704 0,50.3850467 0,45.0002704 C0,39.6154941 4.36522369,35.2502704 9.75,35.2502704 C12.0942285,35.2502704 14.2452272,36.0775857 15.9269509,37.4561712 L21.9096664,1.25556561 C22.0200425,0.527471133 22.6486365,-0.00789610399 23.3833297,8.8132369e-05 Z" id="形状结合" fill="url(#linearGradient-1)"></path>
                    <path d="M37.105803,18.8131468 C40.2349257,19.0921192 46.0716229,18.1457807 48.8351144,16.1232307 C49.0714921,15.9358977 49.3985894,15.6162658 49.8164062,15.1643349 C47.9651358,15.1644352 45.8438414,14.6434683 44.1518968,13.8731357 C35.3512392,20.1151433 31.3222708,9.59886186 24.0351562,15.335232 C26.339483,14.8383124 27.6050657,14.4219768 31.2079191,16.4336487 C32.9036399,17.6922749 35.0240576,18.5865873 37.105803,18.8131468 Z" fill="#33445A" fill-rule="nonzero"></path>
                </g>
                <path d="M48,12.75 C68.2964646,12.75 84.75,29.3714287 84.75,50.25 C84.75,70.3785713 68.2964646,87 48,87 C27.7035354,87 11.25,70.3785713 11.25,50.25 C11.25,29.3714287 27.7035354,12.75 48,12.75 Z M48,39.75 C42.6152237,39.75 38.25,44.1152237 38.25,49.5 C38.25,54.8847763 42.6152237,59.25 48,59.25 C53.3847763,59.25 57.75,54.8847763 57.75,49.5 C57.75,44.1152237 53.3847763,39.75 48,39.75 Z" id="形状结合" fill="url(#linearGradient-2)" opacity="0.593308222"></path>
            </g>
        </g>
    </g>
</svg>