<?xml version="1.0" encoding="UTF-8"?>
<svg width="145px" height="106px" viewBox="0 0 145 106" version="1.1" xmlns="http://www.w3.org/2000/svg" xmlns:xlink="http://www.w3.org/1999/xlink">
    <!-- Generator: Sketch 58 (84663) - https://sketch.com -->
    <title>dcc_Full marks empty_150px</title>
    <desc>Created with Sketch.</desc>
    <defs>
        <path d="M118.959498,0.0111433544 C91.2208987,1.94552797 41.3099501,10.4829888 41.3099501,60.396109 C41.3099501,62.8635274 42.0270155,66.5548665 39.9561506,70.2561179 C38.6025974,72.635069 35.4507135,78.4382229 33.4710218,82.2281894 C32.4811759,84.1633174 33.1075608,86.5415252 34.8243285,87.5979282 C36.5319789,88.6538355 38.5217735,87.5087175 39.4209389,85.5743328 L43.2896417,77.303265 C44.4613413,74.8358467 46.9865939,73.5229631 49.50199,74.312973 C55.2700535,76.0696797 66.4318772,78.448383 76.9776654,73.7008887 C92.2918148,66.7422089 103.191207,54.9574798 107.969179,33.0361887 C110.403751,22.9985019 116.97956,13.4046381 122.020455,7.15716553 C124.273174,4.32447908 122.384163,-0.255497395 118.959498,0.0111433544 Z" id="path-1"></path>
    </defs>
    <g id="高保真" stroke="none" stroke-width="1" fill="none" fill-rule="evenodd">
        <g id="首页_评分_满分" transform="translate(-412.000000, -337.000000)">
            <g id="高保真1备份-19" transform="translate(65.000000, 45.000000)">
                <g id="编组" transform="translate(230.530474, 132.715243)">
                    <g id="dcc_Full-marks-empty_150px" transform="translate(113.469526, 137.284757)">
                        <rect id="矩形" fill-opacity="0" fill="#D8D8D8" x="0" y="0" width="150" height="150"></rect>
                        <g id="编组-24" transform="translate(3.000000, 22.000000)">
                            <g id="土壤-绿苗" transform="translate(0.000000, 71.000000)" fill-rule="nonzero">
                                <path d="M0.87191623,22.9974852 C0.46419899,22.9786373 0.120848096,22.6816145 0.0376072053,22.275749 C-0.0744164616,21.8593105 0.0687456397,21.4151329 0.401534293,21.1466215 C2.2443833,19.6905104 3.87256987,17.9739651 5.23656548,16.0492018 C5.56088145,15.5814564 5.91243004,15.0231795 6.28378424,14.4322108 C7.99944049,11.7062104 10.3463988,7.97430571 14.1366869,6.65405642 C14.6366424,6.4230791 15.1684847,6.27127061 15.7137043,6.2039143 C15.7731209,5.98764488 15.8399647,5.78059627 15.9142355,5.58276844 C14.8919534,5.53906494 13.9372707,5.05190194 13.2924751,4.24491583 C12.2254508,2.89700419 12.3343814,1.11403894 12.3492355,0.915372831 C12.3606388,0.43193449 12.7310868,0.0360648953 13.2058258,0 L13.4088328,0 C16.874805,0 18.2958535,1.20708505 18.8702147,2.36387493 C19.2537904,2.16709991 19.678374,2.06704213 20.1080619,2.07216271 C20.9894091,2.07216271 22.051482,2.43428824 23.2645722,3.14596544 C23.6743852,3.41568975 23.8476441,3.93637884 23.6829646,4.40334574 C23.4032111,5.23824625 22.5169125,6.65405642 20.9597007,6.65405642 C20.2169924,6.65405642 19.4000133,6.31456375 18.5582772,5.6481522 C18.3823937,5.82205514 18.2360066,6.0242831 18.1250306,6.24666523 C18.577784,6.32734524 19.0186614,6.4659204 19.4371487,6.65908593 C22.5738535,7.75300677 24.7277077,10.4890663 26.4186069,13.0742401 C28.2209125,14.0801443 29.4042944,15.9662147 30.2782145,17.349333 C30.4911243,17.6863109 30.6916555,18.0056855 30.8748569,18.2697354 C31.6421939,19.3570419 32.5593146,20.3267452 33.5981207,21.1491362 C33.9314711,21.4172503 34.0747558,21.8618083 33.9620478,22.2782637 C33.8788069,22.6841292 33.535456,22.981152 33.1277388,23 L0.87191623,22.9974852 Z" id="路径" fill="#FFFFFF"></path>
                                <path d="M30.9930971,18.9027712 C29.9806719,17.4887642 28.7328578,14.9626734 26.5536125,13.8707178 C24.9236079,11.4125598 22.8101703,8.65247851 19.6994938,7.60581141 C19.1659002,7.3575352 18.5893911,7.21319654 18.0011505,7.1806029 L17.3987575,7.1806029 C17.6138978,6.11380761 18.0973309,4.95140327 19.1553152,4.43813386 C22.3722963,7.38440109 23.5087437,4.04563371 23.5087437,4.04563367 C20.6638288,2.40770033 19.5704096,3.21031284 19.1755637,3.81415921 C19.0793833,3.85106093 18.9865777,3.89215604 18.8971468,3.93744454 C18.8844915,3.09960764 18.3909342,0.940856772 13.6274735,1.0012414 C13.6274735,1.0012414 13.2680626,5.46970477 18.183387,4.43310181 C17.4240681,5.15520146 17.0418776,6.21696473 16.8672342,7.17557086 L16.5584445,7.17557086 C15.9684838,7.20752679 15.3901967,7.35188033 14.8550391,7.60077936 C10.435803,9.09026714 8.03635526,14.0292275 6.15830649,16.6836356 C4.70657356,18.6944215 2.96904007,20.4851955 1,22 L34,22 C32.8522734,21.1175981 31.8394207,20.0743198 30.9930971,18.9027712 L30.9930971,18.9027712 Z" id="路径" fill="#72BB2B"></path>
                                <path d="M28.7715152,16.6188455 C26.8653502,13.9320883 24.4358237,8.93293717 19.9538988,7.43039049 C19.4130457,7.17908855 18.8286932,7.03299085 18.2324496,7 L16.7752468,7 C16.1772597,7.03234538 15.5911051,7.17845814 15.0486667,7.43039049 C10.5641763,8.93293717 8.13208427,13.9320883 6.22848481,16.6188455 C4.75702905,18.6541598 2.99585292,20.4667615 1,22 L34,22 C32.0041471,20.4667615 30.242971,18.6541598 28.7715152,16.6188455 L28.7715152,16.6188455 Z" id="路径" fill="#755030"></path>
                                <path d="M31.9650667,19.1296998 C30.8681333,17.6980472 29.4697334,15.0282717 26.8984,14.2331682 C26.5866683,14.0975969 26.2495302,14.0184382 25.9053333,14 L25.0693334,14 C24.7251365,14.0184382 24.3879984,14.0975969 24.0762667,14.2331682 C21.4973333,15.0352667 20.0989333,17.7050423 19.0096,19.1296998 C18.1625173,20.2154111 17.1487561,21.1822502 16,22 L35,22 C33.8422677,21.1839749 32.8198854,20.2170528 31.9650667,19.1296998 L31.9650667,19.1296998 Z" id="路径" fill="#503419"></path>
                                <path d="M17.9392134,19.8489583 C17.1903059,18.7734375 16.2425507,16.7734375 14.4684148,16.171875 C14.2550079,16.0713 14.0244454,16.0129534 13.7892332,16 L13.2159317,16 C12.9807195,16.0129534 12.750157,16.0713 12.5367501,16.171875 C10.772944,16.7734375 9.81485894,18.7760417 9.06595152,19.8489583 C8.48424524,20.6630877 7.78832576,21.38767 7,22 L20,22 C19.2135042,21.3872855 18.5193422,20.6627217 17.9392134,19.8489583 L17.9392134,19.8489583 Z" id="路径" fill="#503419"></path>
                                <path d="M16.0183767,9 C16.0014837,8.7983871 15.6608071,4.07526881 18.833885,3 L19,3.58064515 C16.2633259,4.51075266 16.5758473,8.9032258 16.5786628,8.95698924 L16.0183767,9 Z" id="路径" fill="#72BB2B"></path>
                                <path d="M18.3153678,4.5125274 C18.3153678,4.5125274 18.980944,0.928168328 13.006118,1.001098 C13.006118,1.00920129 12.6042124,6.2520355 18.3153678,4.5125274 Z M18.4126443,4.5125274 C18.4126443,4.5125274 18.9630246,1.81142786 23,4.27212953 C23,4.27212953 21.8070827,7.9942447 18.4126443,4.5125274 Z" id="形状" fill="#72BB2B"></path>
                            </g>
                            <g id="土壤-绿苗备份" transform="translate(22.000000, 0.000000)">
                                <path d="M56.8816764,95.9515143 C53.5265646,91.1875264 49.2502646,82.3233481 41.3614619,79.6591274 C40.4094864,79.2135347 39.3809458,78.9544835 38.3314753,78.8959862 L35.7665984,78.8959862 C34.7140591,78.953339 33.6823466,79.2124169 32.7275806,79.6591274 C24.8342623,82.3233481 20.5534467,91.1875264 17.2028505,95.9515143 C14.6128865,99.5604048 11.5129749,102.774396 8,105.493037 L66.0845269,105.493037 C62.571552,102.774396 59.4716404,99.5604048 56.8816764,95.9515143 L56.8816764,95.9515143 Z" id="路径" fill="#755030" fill-rule="nonzero"></path>
                                <path d="M61.5101954,99.9342985 C59.5549284,97.1617027 57.0623016,91.9913083 52.4789388,90.4514791 C51.9232817,90.1889263 51.3223382,90.0356243 50.7088125,89.9999162 L49.2186552,89.9999162 C48.6051295,90.0356243 48.004186,90.1889263 47.4485289,90.4514791 C42.8516193,92.0048552 40.3589924,97.1752496 38.4172723,99.9342985 C36.9073601,102.03693 35.1003462,103.90935 33.0527058,105.493037 L66.9199181,105.493037 C64.8562778,103.91269 63.0338968,102.04011 61.5101954,99.9342985 L61.5101954,99.9342985 Z" id="路径" fill="#503419" fill-rule="nonzero"></path>
                                <path d="M36.7699146,101.763128 C35.4603824,99.8981734 33.8031468,96.4301709 30.7009102,95.3870608 C30.3277489,95.2126636 29.9245896,95.1114905 29.5132999,95.0890293 L28.5108304,95.0890293 C28.0995407,95.1114905 27.6963815,95.2126636 27.3232202,95.3870608 C24.2390461,96.4301709 22.5637479,99.9026891 21.2542158,101.763128 C20.2370498,103.174829 19.0201718,104.431256 17.6417131,105.493037 L40.373386,105.493037 C38.9981271,104.430589 37.7843222,103.174195 36.7699146,101.763128 L36.7699146,101.763128 Z" id="路径" fill="#503419" fill-rule="nonzero"></path>
                                <g id="双叶子" transform="translate(0.000000, 0.000000)">
                                    <path d="M1.68443493,42.000967 C0.180386564,41.9484452 -0.554721424,44.0478196 0.487863164,45.2793326 C2.8193123,47.9937133 5.8896009,52.1849592 7.15607636,56.6575724 C9.68604199,66.4358957 14.6927369,71.5287672 21.5348386,74.3614471 C26.2455001,76.2920013 31.0830332,75.0012136 33.5726984,74.0965868 C34.6575736,73.691418 35.789217,74.2328935 36.3514316,75.3210969 L38.2102224,78.9698668 C38.6425804,79.8234724 39.5361533,80.2999209 40.2625544,79.7907088 C41.012565,79.2142651 41.2202486,78.1675907 40.747651,77.3459404 C39.8048222,75.6779956 38.3094806,73.1264327 37.6694018,72.0817475 C36.6887603,70.4555701 36.9288209,68.7791217 36.8793162,67.6679089 C35.8800171,45.1895452 13.8640923,42.3266026 1.68443493,42.000967 Z" id="路径" fill="#59DA5E" fill-rule="nonzero"></path>
                                    <path d="M12.9919134,49.318015 C13.1707772,48.9538632 13.7036372,48.9878774 14.0330054,49.2179733 C26.4718785,57.076747 31.9308328,64.9730363 33.8756973,67.8652411 C34.3408925,68.5615311 34.9774886,69.2278087 34.7757382,70.0694092 C34.5719976,70.8714933 33.6329002,71.0740777 33.2094978,70.4160536 C25.0275343,57.8720782 15.8689097,51.4514036 13.3951655,50.0125543 C13.0657973,49.7869603 12.8088205,49.6826668 12.9921622,49.318015 L12.9919134,49.318015 Z" id="路径" fill="#20AC6C" fill-rule="nonzero"></path>
                                    <mask id="mask-2" fill="white">
                                        <use xlink:href="#path-1"></use>
                                    </mask>
                                    <use id="路径" fill="#61C52D" fill-rule="nonzero" xlink:href="#path-1"></use>
                                    <path d="M93.9179021,17.3527057 C94.3727827,18.1424679 93.7971591,18.3989485 93.069498,18.9319824 C87.5744615,22.366593 67.341392,37.5076256 49.9563778,66.1204601 C49.0577052,67.620934 46.8959135,67.2655781 46.3503525,65.5083758 C45.8047914,63.6632018 47.1888999,62.1233266 48.1787458,60.5338899 C52.3204755,53.9310615 63.9672424,35.8886998 91.5340911,17.2345016 C92.2617523,16.6913078 93.4733708,16.5631913 93.9179021,17.3527057 Z" id="路径" fill="#4B9723" fill-rule="nonzero" mask="url(#mask-2)"></path>
                                    <path d="M118,-2.01929895 C121.195993,2.05347727 121.994992,4.69989888 120.396995,5.91996586 C118,7.75006633 107.604753,21.7326761 107.604753,25.7982282 C107.604753,29.8637804 90.0389994,72.9481983 67.6170579,72.9481983 C45.1951164,72.9481983 46.4880001,71.0880701 45.4560279,72.1897829 C44.4240557,73.2914958 39.2701507,83.0095713 38.4800626,83.9786686 C37.6899745,84.9477658 37.2828871,88.6277219 33,82.4986795 C30.1447419,78.4126513 28.2930637,80.0797392 27.4449653,87.4999432 C30.2810406,91.9110781 31.6990783,94.1166456 31.6990783,94.1166456 C31.6990783,94.1166456 44.2739035,94.4539213 44.2739035,94.4539213 C44.2739035,94.4539213 67.8746799,84.3003808 115.076233,63.9932998 L139.304489,19.0616254 L134.255909,3.7249073 L124.095295,-6.02418142 L113.748016,-2.90940148 L118,-2.01929895 Z" id="路径-3" fill="#9EFC6C" mask="url(#mask-2)"></path>
                                    <circle id="椭圆形" fill="#755030" mask="url(#mask-2)" cx="36" cy="87" r="5"></circle>
                                </g>
                            </g>
                        </g>
                    </g>
                </g>
            </g>
        </g>
    </g>
</svg>