<?xml version="1.0" encoding="UTF-8"?>
<svg width="29px" height="29px" viewBox="0 0 29 29" version="1.1" xmlns="http://www.w3.org/2000/svg" xmlns:xlink="http://www.w3.org/1999/xlink">
    <!-- Generator: Sketch 58 (84663) - https://sketch.com -->
    <title>list_delete</title>
    <desc>Created with Sketch.</desc>
    <defs>
        <circle id="path-1" cx="8.5" cy="8.5" r="8.5"></circle>
        <filter x="-64.7%" y="-41.2%" width="229.4%" height="229.4%" filterUnits="objectBoundingBox" id="filter-2">
            <feOffset dx="0" dy="4" in="SourceAlpha" result="shadowOffsetOuter1"></feOffset>
            <feGaussianBlur stdDeviation="3" in="shadowOffsetOuter1" result="shadowBlurOuter1"></feGaussianBlur>
            <feColorMatrix values="0 0 0 0 1   0 0 0 0 0.0705882353   0 0 0 0 0.0705882353  0 0 0 0.4 0" type="matrix" in="shadowBlurOuter1"></feColorMatrix>
        </filter>
    </defs>
    <g id="高保真" stroke="none" stroke-width="1" fill="none" fill-rule="evenodd">
        <g id="开机自启动" transform="translate(-529.000000, -362.000000)">
            <g id="高保真1备份-19" transform="translate(65.000000, 45.000000)">
                <g id="编组-4" transform="translate(210.000000, 60.000000)">
                    <g id="编组-2" transform="translate(0.000000, 62.000000)">
                        <g id="编组-7备份-3" transform="translate(10.000000, 180.000000)">
                            <g id="list_delete" transform="translate(250.000000, 17.000000)">
                                <g id="Oval-359">
                                    <use fill="black" fill-opacity="1" filter="url(#filter-2)" xlink:href="#path-1"></use>
                                    <use fill="#FF6A6A" fill-rule="evenodd" xlink:href="#path-1"></use>
                                </g>
                                <path d="M8.5,5 C8.77614237,5 9,5.23290253 9,5.50342274 L8.999,8 L11.4965773,8 C11.7437174,8 11.9492634,8.18325617 11.9918892,8.41225137 L12,8.5 C12,8.77614237 11.7670975,9 11.4965773,9 L8.999,9 L9,11.4965773 C9,11.7437174 8.81674383,11.9492634 8.58774863,11.9918892 L8.5,12 C8.22385763,12 8,11.7670975 8,11.4965773 L7.999,9 L5.50342274,9 C5.22539004,9 5,8.76806641 5,8.5 C5,8.22385763 5.23290253,8 5.50342274,8 L7.999,8 L8,5.50342274 C8,5.22539004 8.23193359,5 8.5,5 Z" id="形状结合" fill="#FFFFFF" transform="translate(8.500000, 8.500000) rotate(-315.000000) translate(-8.500000, -8.500000) "></path>
                            </g>
                        </g>
                    </g>
                </g>
            </g>
        </g>
    </g>
</svg>