<?xml version="1.0" encoding="UTF-8"?>
<svg width="16px" height="20px" viewBox="0 0 16 20" version="1.1" xmlns="http://www.w3.org/2000/svg" xmlns:xlink="http://www.w3.org/1999/xlink">
    <!-- Generator: Sketch 58 (84663) - https://sketch.com -->
    <title>dcc_Low_20px</title>
    <desc>Created with Sketch.</desc>
    <defs>
        <path d="M16,4.55791448 C15.9996996,4.23710894 15.8161107,3.95243431 15.5440705,3.85094584 L13.999957,3.27517717 C12.6727795,2.78031384 11.4105474,2.08959088 10.246662,1.22128627 L8.7401026,0.250296574 C8.2921309,-0.0834321913 7.70902348,-0.0834321913 7.2612237,0.250296574 L5.75466433,1.22128627 C4.59015894,2.08930652 3.32752395,2.78000587 2.00004298,3.27517717 L0.456101462,3.85094584 C0.184007483,3.95238932 0.000347936243,4.23706619 0,4.55791448 L0,13.1124823 C0.0186173887,14.9262842 5.12088715,20 8.04187684,20 C11.3925156,20 15.7222865,14.7144683 15.9887018,13.0173314 L16,4.55791448 Z" id="path-1"></path>
        <filter x="-68.8%" y="-35.0%" width="237.5%" height="210.0%" filterUnits="objectBoundingBox" id="filter-2">
            <feOffset dx="0" dy="4" in="SourceAlpha" result="shadowOffsetOuter1"></feOffset>
            <feGaussianBlur stdDeviation="3" in="shadowOffsetOuter1" result="shadowBlurOuter1"></feGaussianBlur>
            <feColorMatrix values="0 0 0 0 0.97254902   0 0 0 0 0.17254902   0 0 0 0 0.535354964  0 0 0 0.4 0" type="matrix" in="shadowBlurOuter1"></feColorMatrix>
        </filter>
    </defs>
    <g id="dcc_Low_20px" stroke="none" stroke-width="1" fill="none" fill-rule="evenodd">
        <g id="安全-(1)备份-2">
            <g id="路径">
                <use fill="black" fill-opacity="1" filter="url(#filter-2)" xlink:href="#path-1"></use>
                <use fill="#D8316C" fill-rule="evenodd" xlink:href="#path-1"></use>
            </g>
            <path d="M8,14 C8.55228475,14 9,14.4477153 9,15 C9,15.5522847 8.55228475,16 8,16 C7.44771525,16 7,15.5522847 7,15 C7,14.4477153 7.44771525,14 8,14 Z M8,4 C8.51283584,4 8.93550716,4.38604019 8.99327227,4.88337887 L9,5 L8.54053639,13 L7.50980634,13 L7.00821625,5.12878671 C7.00279517,5.0866235 7,5.04363818 7,5 C7,4.44771525 7.44771525,4 8,4 Z" id="形状结合" fill="#FFFFFF"></path>
        </g>
    </g>
</svg>