<?xml version="1.0" encoding="UTF-8"?>
<svg width="100px" height="82px" viewBox="0 0 100 82" version="1.1" xmlns="http://www.w3.org/2000/svg" xmlns:xlink="http://www.w3.org/1999/xlink">
    <!-- Generator: Sketch 58 (84663) - https://sketch.com -->
    <title>无内容</title>
    <desc>Created with Sketch.</desc>
    <g id="病毒查杀" stroke="none" stroke-width="1" fill="none" fill-rule="evenodd">
        <g id="系统安全_病毒查杀_自定义查杀_未发现异常" transform="translate(-593.000000, -372.000000)">
            <g id="编组-8" transform="translate(323.000000, 248.000000)">
                <g id="无内容" transform="translate(270.000000, 124.000000)">
                    <path d="M98.3430725,55.2792359 L88.0153048,47.4420592 C88.3566149,45.3113786 88.5292025,43.156966 88.5314519,40.9989919 C88.5314519,18.3569149 70.2188942,0 47.6295173,0 C40.8789743,0 34.5130272,1.64413751 28.9009846,4.54809502 L24.2327307,1.00575888 C23.3402587,0.328678422 22.1552353,0.180311688 21.1240473,0.616546997 C20.0928594,1.05278231 19.3721688,2.00734513 19.2334528,3.12066091 C19.0947367,4.23397668 19.5590696,5.33690624 20.4515415,6.0139867 L24.8027854,9.31597302 C26.5712829,10.7266165 26.9059939,13.2998914 25.533759,15.1162258 C24.7441402,16.163363 23.5097911,16.7780006 22.2003263,16.7760909 C21.7497538,16.7760909 21.2971696,16.7002758 20.8610798,16.5514687 L10.0473374,8.34570197 C7.2891894,6.25232004 3.35874814,6.79633314 1.2704246,9.56237182 C-0.818301239,12.327604 -0.274798077,16.2671624 2.48415453,18.3605443 L10.2858995,24.2805687 C8.00366893,29.3839685 6.72878979,35.0418665 6.72878979,40.9993951 C6.72878979,63.6422786 25.0413475,82 47.6303219,82 C57.3474027,82 66.2695448,78.5996154 73.2847993,72.9255866 L79.198967,77.4135941 C80.2854004,78.240871 81.6125996,78.6879785 82.9769377,78.6863188 C84.9410228,78.6891829 86.792424,77.7672132 87.9766844,76.196521 C90.0650079,73.4312889 89.5231139,69.4913272 86.7633567,67.3987518 L77.9083983,60.6794434 C76.5647265,59.2175846 76.4118535,56.9592646 77.6509282,55.3195631 C79.0078759,53.522989 81.527864,53.1386713 83.3579129,54.4105893 L93.3022916,61.9562008 C94.0266997,62.5072989 94.9112697,62.805325 95.8206705,62.8046838 C97.0846876,62.8046838 98.3326127,62.2320384 99.1537008,61.1444154 C100.545648,59.3010617 100.182776,56.6749582 98.3430725,55.2792359 L98.3430725,55.2792359 Z" id="路径" fill="#DDDDDE" fill-rule="nonzero"></path>
                    <g id="编组-2" transform="translate(33.000000, 20.000000)">
                        <ellipse id="椭圆形" fill="#A3A3A3" cx="17.5" cy="34.5" rx="15.5" ry="7.5"></ellipse>
                        <path d="M27.244955,2.73026333 C28.5758203,2.59256624 29.7376869,2.69848707 30.7305547,3.05861792 C31.7234224,3.40815671 32.5472915,3.90598467 33.2127241,4.54150972 C33.8781568,5.17703476 34.3640283,5.91848068 34.6597761,6.75525532 C34.9555239,7.59202996 35.0611482,8.42880464 34.9660864,9.25498722 C34.8710246,10.0811698 34.5858392,10.864984 34.1105301,11.6064299 C33.635221,12.3478758 32.9486635,12.9410326 32.0508576,13.375308 C30.8573037,13.9684647 29.6848748,14.508661 28.544133,14.9747127 C27.4033913,15.4513565 26.3048993,15.8432636 25.2592194,16.1504341 C24.2135395,16.4576046 23.2417965,16.6694462 22.3439905,16.7753671 C21.4461846,16.8812879 20.6434404,16.8601037 19.935758,16.6906304 C19.5871981,18.3112193 19.2808878,20.0906894 19.0379521,22.0290408 C18.7950163,23.9673923 18.6682672,25.948112 18.6682673,27.9712002 C18.6682673,28.9138957 18.6893921,29.8671832 18.7316418,30.8098787 C18.7738915,31.7525742 18.8161412,32.6211251 18.8795157,33.4049394 C18.9006405,33.8180307 18.9323278,34.2205298 18.9640151,34.6230291 C19.0168272,35.364475 18.4358939,36 17.6859619,36 L14.5911718,36 C13.7989901,36 13.1652447,35.3326987 13.2180568,34.5277003 C13.2286193,34.3476349 13.2391817,34.1569774 13.2497441,33.9663198 C13.2814314,33.2672423 13.3025562,32.3457309 13.3342435,31.2017858 C13.3659308,30.0684328 13.3764932,28.6702777 13.3764932,27.0179125 C13.3764932,24.9100878 13.5138047,22.8869997 13.7884277,20.9698324 C14.0630507,19.0526652 14.369361,17.3155634 14.7284833,15.769119 C13.672241,16.012737 12.5420617,16.0021449 11.3485079,15.7267507 C10.1549541,15.4513565 8.95083782,15.006489 7.75728398,14.3709639 C6.56373013,13.7354389 5.40186357,12.9516246 4.29280914,12.0195212 C3.17319226,11.0874178 2.19088689,10.0811698 1.31420578,9.0007772 C0.743834921,8.30169965 0.363587694,7.59203 0.173464062,6.89295242 C-0.0166595695,6.19387487 -0.0483468171,5.49479729 0.0678398062,4.81690391 C0.19458887,4.13901053 0.437524629,3.50348544 0.796647012,2.91032876 C1.16633184,2.33835621 1.58882879,1.79815989 2.07470023,1.31092404 C2.50775959,0.90842485 3.02531832,0.590662326 3.62737646,0.378820594 C4.2294346,0.166978936 4.87374244,0.039873904 5.56029995,0.00809767349 C6.25741988,-0.0236785936 6.96510224,0.0398739406 7.683347,0.166978936 C8.40159177,0.304676032 9.09871173,0.516517727 9.78526925,0.813096049 C10.4612643,1.14145067 11.1900715,1.57572613 11.9716909,2.13710658 C12.7427478,2.68789497 13.4926798,3.32342001 14.2109246,4.04368176 C14.9291694,4.76394348 15.5946021,5.52657356 16.2072226,6.33157197 C16.8198432,7.14716245 17.3268395,7.95216086 17.738774,8.76775133 C18.1718333,8.00512125 18.7422042,7.28485954 19.4498866,6.59637406 C20.1575689,5.90788858 20.9391883,5.29354769 21.7947445,4.75335141 C22.6503008,4.21315513 23.5481068,3.75769551 24.4881625,3.39756461 C25.4282182,3.03743376 26.347149,2.81499996 27.244955,2.73026333 Z" id="路径" fill="#92E507" fill-rule="nonzero"></path>
                    </g>
                </g>
            </g>
        </g>
    </g>
</svg>