<?xml version="1.0" encoding="UTF-8"?>
<svg width="248px" height="277px" viewBox="0 0 248 277" version="1.1" xmlns="http://www.w3.org/2000/svg" xmlns:xlink="http://www.w3.org/1999/xlink">
    <!-- Generator: Sketch 58 (84663) - https://sketch.com -->
    <title>dcc_Home detection image_300px</title>
    <desc>Created with Sketch.</desc>
    <defs>
        <path d="M256.790074,35 L256.791224,34.8257965 C256.309357,34.9397151 255.806755,35 255.290074,35 C251.700223,35 248.790074,32.0898509 248.790074,28.5 C248.790074,24.9101491 251.700223,22 255.290074,22 C256.60567,22 257.829979,22.3908479 258.853218,23.0627617 C259.310665,19.6395784 262.242116,17 265.790074,17 C269.109307,17 271.88896,19.3102199 272.60881,22.4104386 C273.284235,22.1449901 274.020222,22 274.790074,22 C277.712374,22 280.146722,24.0891725 280.681031,26.8554299 C281.413319,25.7235857 282.534095,25 283.790074,25 C285.999213,25 287.790074,27.2385763 287.790074,30 C287.790074,32.3295145 286.515612,34.2869461 284.790706,34.8422746 L284.790074,35 L283.790074,35 L283.790074,35 L256.790074,35 Z" id="path-1"></path>
        <filter x="-28.2%" y="-38.9%" width="156.4%" height="222.2%" filterUnits="objectBoundingBox" id="filter-2">
            <feOffset dx="0" dy="4" in="SourceAlpha" result="shadowOffsetOuter1"></feOffset>
            <feGaussianBlur stdDeviation="3" in="shadowOffsetOuter1" result="shadowBlurOuter1"></feGaussianBlur>
            <feColorMatrix values="0 0 0 0 0.17254902   0 0 0 0 0.654901961   0 0 0 0 0.97254902  0 0 0 0.4 0" type="matrix" in="shadowBlurOuter1"></feColorMatrix>
        </filter>
        <path d="M157.290074,0 C202.17371,0 241.077735,25.6017632 260.195456,62.9985982 L277.790074,63 C279.999213,63 281.790074,64.790861 281.790074,67 C281.790074,69.209139 279.999213,71 277.790074,71 L263.905601,70.9990866 L263.905074,71 L259.790074,71 C258.192393,71 256.886413,72.24892 256.795166,73.8237272 L256.790074,74 C256.790074,75.5976809 258.038994,76.9036609 259.613801,76.9949073 L259.790074,77 L293.790074,77 C295.999213,77 297.790074,78.790861 297.790074,81 C297.790074,83.209139 295.999213,85 293.790074,85 L259.790074,85 C258.133219,85 256.790074,86.3431458 256.790074,88 C256.790074,89.5976809 258.038994,90.9036609 259.613801,90.9949073 L259.790074,91 L270.186376,90.999975 C270.684979,93.3084125 271.114577,95.6425307 271.472905,98.000063 L277.790074,98 C279.999213,98 281.790074,99.790861 281.790074,102 C281.790074,104.209139 279.999213,106 277.790074,106 L272.404966,105.99979 C272.593434,108.314726 272.713639,110.648972 272.763564,113.000512 L296.790074,113 C298.999213,113 300.790074,114.790861 300.790074,117 C300.790074,119.209139 298.999213,121 296.790074,121 L272.661393,121.000725 C269.790287,182.23537 219.234975,231 157.290074,231 C96.7001807,231 47.007046,184.345432 42.1752345,125.000862 L26.7900736,125 C24.5809346,125 22.7900736,123.209139 22.7900736,121 C22.7900736,118.790861 24.5809346,117 26.7900736,117 L41.7996224,117.000626 C41.7932629,116.501175 41.7900736,116.00096 41.7900736,115.5 C41.7900736,112.980559 41.8707418,110.479958 42.0296362,108.000641 L32.7900736,108 C30.5809346,108 28.7900736,106.209139 28.7900736,104 C28.7900736,101.790861 30.5809346,100 32.7900736,100 L60.7900736,100 C62.4469278,100 63.7900736,98.6568542 63.7900736,97 C63.7900736,95.3431458 62.4469278,94 60.7900736,94 L60.7900736,94 L43.7875492,93.9997919 C44.3605392,90.9562259 45.0529214,87.9548056 45.8596449,85.0005818 L60.7900736,85 C62.4469278,85 63.7900736,83.6568542 63.7900736,82 C63.7900736,80.4023191 62.5411536,79.0963391 60.9663464,79.0050927 L60.7900736,79 L26.7900736,79 C24.5809346,79 22.7900736,77.209139 22.7900736,75 C22.7900736,72.790861 24.5809346,71 26.7900736,71 L50.6742072,70.9998975 C68.0987669,29.3017666 109.272523,0 157.290074,0 Z M18.7900736,98 C20.9992126,98 22.7900736,99.790861 22.7900736,102 C22.7900736,104.209139 20.9992126,106 18.7900736,106 L15.7900736,106 C13.5809346,106 11.7900736,104.209139 11.7900736,102 C11.7900736,99.790861 13.5809346,98 15.7900736,98 L18.7900736,98 Z" id="path-3"></path>
        <filter x="-3.8%" y="-3.0%" width="107.6%" height="109.5%" filterUnits="objectBoundingBox" id="filter-4">
            <feOffset dx="0" dy="4" in="SourceAlpha" result="shadowOffsetOuter1"></feOffset>
            <feGaussianBlur stdDeviation="3" in="shadowOffsetOuter1" result="shadowBlurOuter1"></feGaussianBlur>
            <feColorMatrix values="0 0 0 0 0.17254902   0 0 0 0 0.654901961   0 0 0 0 0.97254902  0 0 0 0.4 0" type="matrix" in="shadowBlurOuter1"></feColorMatrix>
        </filter>
        <rect id="path-5" x="61.7900736" y="13" width="17" height="8" rx="4"></rect>
        <filter x="-64.7%" y="-87.5%" width="229.4%" height="375.0%" filterUnits="objectBoundingBox" id="filter-6">
            <feOffset dx="0" dy="4" in="SourceAlpha" result="shadowOffsetOuter1"></feOffset>
            <feGaussianBlur stdDeviation="3" in="shadowOffsetOuter1" result="shadowBlurOuter1"></feGaussianBlur>
            <feColorMatrix values="0 0 0 0 0.17254902   0 0 0 0 0.654901961   0 0 0 0 0.97254902  0 0 0 0.4 0" type="matrix" in="shadowBlurOuter1"></feColorMatrix>
        </filter>
        <path d="M14.352071,118.303071 C28.1191383,108.051753 38.5865939,95.2878913 45.7544379,80.0114869 C56.5062038,57.0968804 49.6551599,8.53780274 55.7544379,0.0103436571 C51.78571,-0.0860316024 29.2514793,6.01148695 20.5029586,35.0114869 C14.6706114,54.3448203 7.83629191,77.5809588 3.55271368e-15,104.719903 L14.352071,118.303071 Z" id="path-7"></path>
        <rect id="path-9" x="0" y="0" width="231" height="143" rx="8"></rect>
        <filter x="-22.5%" y="-26.6%" width="145.0%" height="172.7%" filterUnits="objectBoundingBox" id="filter-11">
            <feOffset dx="0" dy="14" in="SourceAlpha" result="shadowOffsetOuter1"></feOffset>
            <feGaussianBlur stdDeviation="15" in="shadowOffsetOuter1" result="shadowBlurOuter1"></feGaussianBlur>
            <feColorMatrix values="0 0 0 0 0   0 0 0 0 0   0 0 0 0 0  0 0 0 0.189521416 0" type="matrix" in="shadowBlurOuter1"></feColorMatrix>
        </filter>
        <rect id="path-12" x="0" y="0" width="231" height="17.1052632"></rect>
        <filter x="-7.4%" y="-76.0%" width="114.7%" height="298.8%" filterUnits="objectBoundingBox" id="filter-13">
            <feOffset dx="0" dy="4" in="SourceAlpha" result="shadowOffsetOuter1"></feOffset>
            <feGaussianBlur stdDeviation="5" in="shadowOffsetOuter1" result="shadowBlurOuter1"></feGaussianBlur>
            <feComposite in="shadowBlurOuter1" in2="SourceAlpha" operator="out" result="shadowBlurOuter1"></feComposite>
            <feColorMatrix values="0 0 0 0 0   0 0 0 0 0   0 0 0 0 0  0 0 0 0.03 0" type="matrix" in="shadowBlurOuter1"></feColorMatrix>
        </filter>
        <filter x="-4.5%" y="-38.0%" width="109.1%" height="222.8%" filterUnits="objectBoundingBox" id="filter-14">
            <feOffset dx="0" dy="1" in="SourceAlpha" result="shadowOffsetInner1"></feOffset>
            <feComposite in="shadowOffsetInner1" in2="SourceAlpha" operator="arithmetic" k2="-1" k3="1" result="shadowInnerInner1"></feComposite>
            <feColorMatrix values="0 0 0 0 1   0 0 0 0 1   0 0 0 0 1  0 0 0 0.6 0" type="matrix" in="shadowInnerInner1"></feColorMatrix>
        </filter>
        <path d="M188,10 L188,11 L182,11 L182,10 L188,10 Z M188,8 L188,9 L182,9 L182,8 L188,8 Z M186,6 L186,7 L182,7 L182,6 L186,6 Z" id="path-15"></path>
        <filter x="-183.3%" y="-140.0%" width="466.7%" height="540.0%" filterUnits="objectBoundingBox" id="filter-16">
            <feOffset dx="0" dy="4" in="SourceAlpha" result="shadowOffsetOuter1"></feOffset>
            <feGaussianBlur stdDeviation="3" in="shadowOffsetOuter1" result="shadowBlurOuter1"></feGaussianBlur>
            <feColorMatrix values="0 0 0 0 0.625934103   0 0 0 0 0.625910249   0 0 0 0 0.625910249  0 0 0 0.4 0" type="matrix" in="shadowBlurOuter1"></feColorMatrix>
        </filter>
        <rect id="path-17" x="0" y="0" width="227" height="140" rx="5"></rect>
        <filter x="-3.3%" y="-3.2%" width="106.6%" height="110.7%" filterUnits="objectBoundingBox" id="filter-19">
            <feOffset dx="0" dy="3" in="SourceAlpha" result="shadowOffsetOuter1"></feOffset>
            <feGaussianBlur stdDeviation="2" in="shadowOffsetOuter1" result="shadowBlurOuter1"></feGaussianBlur>
            <feColorMatrix values="0 0 0 0 0   0 0 0 0 0   0 0 0 0 0  0 0 0 0.1 0" type="matrix" in="shadowBlurOuter1"></feColorMatrix>
        </filter>
        <rect id="path-20" x="0" y="0" width="209" height="20" rx="2.5"></rect>
        <filter x="-6.2%" y="-55.0%" width="112.4%" height="230.0%" filterUnits="objectBoundingBox" id="filter-21">
            <feOffset dx="0" dy="2" in="SourceAlpha" result="shadowOffsetOuter1"></feOffset>
            <feGaussianBlur stdDeviation="4" in="shadowOffsetOuter1" result="shadowBlurOuter1"></feGaussianBlur>
            <feComposite in="shadowBlurOuter1" in2="SourceAlpha" operator="out" result="shadowBlurOuter1"></feComposite>
            <feColorMatrix values="0 0 0 0 0   0 0 0 0 0   0 0 0 0 0  0 0 0 0.2 0" type="matrix" in="shadowBlurOuter1"></feColorMatrix>
        </filter>
        <path d="M2.45566826,35.5000614 C2.82900681,35.2445703 4.52504005,35.6104999 7.54376799,36.5978501 C12.0718599,38.0788753 28.2375753,38.5754569 35.6339819,26.2738354 C43.0303886,13.9722138 48.4777515,5.46018563 52.4514879,1.89686607 C56.4252244,-1.66645349 23.4627185,-0.840654546 12.4738338,9.86876677 C5.14791064,17.008381 1.80852214,24.9260748 2.45566826,33.6218482 C0.818556088,34.6207744 -1.62003744e-12,35.2468455 -1.62003744e-12,35.5000614 C-1.62003744e-12,35.7532773 0.818556088,35.7532773 2.45566826,35.5000614 Z" id="path-22"></path>
        <path d="M83.3617918,92.4134381 C46.8154141,97.3305198 27.870181,86.0031363 26.5260926,58.4312877 C29.8169712,55.9332247 31.8004552,54.340659 32.4765444,53.6535906 C15.9291166,45.1597143 8.81544462,38.1356097 11.1355285,32.5812768 C12.2762124,30.8881646 13.8499978,30.3724298 15.8568848,31.0340727 C22.0595699,30.5908984 23.1933195,28.9373791 19.2581336,26.0735147 C13.3553548,21.777718 -5.40958788,8.23513114 2.86297032,0.248610678 C4.91290747,-1.3107284 5.88716935,4.97516766 12.5726515,4.97516766 C19.2581336,4.97516766 35.9731391,8.07351466 45.4453222,14.0735147 C54.9175054,20.0735147 76.7517197,56.8745489 83.3617918,84.8559743 C85.2089186,88.6499873 85.0167542,90.8053595 88.4773329,90.8053595 C90.7843854,90.8053595 91.15396,91.3413857 89.5860567,92.4134381 L83.3617918,92.4134381 Z" id="path-24"></path>
        <path d="M45.3288946,37.6392988 C39.4393848,37.7479929 34.8947736,37.3140843 31.695061,36.3375729 C28.4953484,35.3610615 24.2739815,32.7084939 19.0309603,28.3798703 L25.2912233,22.9729092 L15.8748631,23.9570576 C5.35997006,14.9865257 0.367101435,7.63502726 0.89625726,1.90256239 C5.64644057,1.20301771 23.7164841,-4.01616879 40.8400548,6.55774573 C52.2557687,13.6070221 53.7520486,23.9675398 45.3288946,37.6392988 Z" id="path-26"></path>
        <filter x="-50.9%" y="-30.5%" width="198.1%" height="159.8%" filterUnits="objectBoundingBox" id="filter-28">
            <feOffset dx="0" dy="2" in="SourceAlpha" result="shadowOffsetOuter1"></feOffset>
            <feGaussianBlur stdDeviation="5.5" in="shadowOffsetOuter1" result="shadowBlurOuter1"></feGaussianBlur>
            <feColorMatrix values="0 0 0 0 0   0 0 0 0 0   0 0 0 0 0  0 0 0 0.199683129 0" type="matrix" in="shadowBlurOuter1" result="shadowMatrixOuter1"></feColorMatrix>
            <feMerge>
                <feMergeNode in="shadowMatrixOuter1"></feMergeNode>
                <feMergeNode in="SourceGraphic"></feMergeNode>
            </feMerge>
        </filter>
        <linearGradient x1="50%" y1="-35.4318488%" x2="50%" y2="100%" id="linearGradient-29">
            <stop stop-color="#525878" offset="0%"></stop>
            <stop stop-color="#D8D8D8" offset="100%"></stop>
        </linearGradient>
        <linearGradient x1="0%" y1="44.9141535%" x2="100%" y2="44.9141535%" id="linearGradient-30">
            <stop stop-color="#666B88" offset="0%"></stop>
            <stop stop-color="#161E4B" offset="100%"></stop>
        </linearGradient>
        <radialGradient cx="50%" cy="50%" fx="50%" fy="50%" r="55.7117951%" gradientTransform="translate(0.500000,0.500000),scale(0.999914,1.000000),translate(-0.500000,-0.500000)" id="radialGradient-31">
            <stop stop-color="#01001F" stop-opacity="0.036" offset="0%"></stop>
            <stop stop-color="#000636" stop-opacity="0.219" offset="81.152%"></stop>
            <stop stop-color="#01003C" stop-opacity="0.688" offset="100%"></stop>
        </radialGradient>
        <ellipse id="path-32" cx="18.6369941" cy="18.3691701" rx="18.3707513" ry="18.3691701"></ellipse>
        <radialGradient cx="20.8305434%" cy="86.2839352%" fx="20.8305434%" fy="86.2839352%" r="74.767316%" gradientTransform="translate(0.208305,0.862839),scale(0.898274,1.000000),rotate(-59.185389),translate(-0.208305,-0.862839)" id="radialGradient-34">
            <stop stop-color="#AED6FA" stop-opacity="0.515" offset="0.037%"></stop>
            <stop stop-color="#B385FF" stop-opacity="0" offset="100%"></stop>
        </radialGradient>
        <linearGradient x1="0%" y1="50%" x2="100%" y2="50%" id="linearGradient-35">
            <stop stop-color="#73708F" offset="0%"></stop>
            <stop stop-color="#3F3D56" offset="100%"></stop>
        </linearGradient>
        <circle id="path-36" cx="25.5059022" cy="25.8985486" r="25.5"></circle>
        <filter x="-12.7%" y="-12.7%" width="125.5%" height="125.5%" filterUnits="objectBoundingBox" id="filter-37">
            <feOffset dx="0" dy="13" in="SourceAlpha" result="shadowOffsetInner1"></feOffset>
            <feComposite in="shadowOffsetInner1" in2="SourceAlpha" operator="arithmetic" k2="-1" k3="1" result="shadowInnerInner1"></feComposite>
            <feColorMatrix values="0 0 0 0 0.630774457   0 0 0 0 0.630774457   0 0 0 0 0.630774457  0 0 0 0.5 0" type="matrix" in="shadowInnerInner1"></feColorMatrix>
        </filter>
        <path d="M47,79 L47.0001853,78.9109027 C46.5083307,78.9697322 46.0077,79 45.5,79 C38.5964406,79 33,73.4035594 33,66.5 C33,59.5964406 38.5964406,54 45.5,54 C47.9505355,54 50.2363721,54.7051602 52.1656638,55.9236347 C53.1586203,49.7311986 58.5267948,45 65,45 C71.6551242,45 77.1422348,50.0008608 77.9085277,56.4497782 C79.56368,55.5257519 81.4704421,55 83.5,55 C88.5111724,55 92.7737276,58.2052111 94.3494067,62.6773741 C95.6588329,61.6214159 97.26491,61 99,61 C103.418278,61 107,65.0294373 107,70 C107,74.1932664 104.450907,77.7167387 101.000919,78.7161945 L101,79 L99,79 L99,79 L47,79 Z" id="path-38"></path>
        <filter x="-14.9%" y="-20.6%" width="129.7%" height="164.7%" filterUnits="objectBoundingBox" id="filter-39">
            <feOffset dx="0" dy="4" in="SourceAlpha" result="shadowOffsetOuter1"></feOffset>
            <feGaussianBlur stdDeviation="3" in="shadowOffsetOuter1" result="shadowBlurOuter1"></feGaussianBlur>
            <feColorMatrix values="0 0 0 0 0.17254902   0 0 0 0 0.654901961   0 0 0 0 0.97254902  0 0 0 0.4 0" type="matrix" in="shadowBlurOuter1"></feColorMatrix>
        </filter>
        <path d="M23.224359,19.2307692 L5.6338141,19.2051282 C5.6338141,19.2051282 0.0168269231,19.2307692 0.0168269231,13.6153846 C0.0168269231,9.65224359 0.015224359,8.57532051 0.015224359,5.56330128 C0.015224359,5.56330128 -0.400641026,0 5.73717949,0 L19.2435897,0 C25.2740385,0 24.8397436,5.63782051 24.8397436,5.63782051 L24.8397436,8.81410256 C24.8397436,8.81410256 25.2900641,12.0192308 20.8397436,12.0192308 L4.80769231,12.0192308 C4.80849359,12.0192308 4.78685897,13.5472756 4.80769231,13.6490385 C4.80769231,13.6490385 4.78285256,15.2115385 6.3974359,15.2115385 C7.41586538,15.2115385 23.2371795,15.224359 23.2371795,15.224359 C23.2371795,15.224359 24.0504808,15.2371795 24.0504808,16.0384615 C24.0504808,16.318109 24.0544872,18.1386218 24.0552885,18.4166667 C24.0560897,18.4911859 24.0512821,19.2307692 23.224359,19.2307692 Z M19.244391,8.02403846 C20.0192308,8.02403846 20.0192308,7.22435897 20.0192308,7.22435897 C20.0192308,6.62820513 20.0288462,6.24599359 20.0320655,5.62179487 C20.0360577,4.83253205 19.193109,4.01923077 18.4671474,4.01923077 C17.6610577,4.01923077 7.20112179,4.01602564 6.42307692,4.01923077 C5.58413462,4.02163462 4.81089744,4.82051282 4.81089744,5.6338141 C4.81089744,5.95032051 4.80769231,8.02564103 4.80769231,8.02564103 C4.80769231,8.02564103 18.7323718,8.02403846 19.244391,8.02403846 Z" id="path-40"></path>
        <path d="M24.0304487,0 C24.0304487,0 24.8397436,0 24.8397436,0.801282051 L24.8397436,22.4487179 C24.8397436,22.4487179 24.8357372,26.4310897 20.838141,26.4310897 C17.6097756,26.4310897 17.3966346,26.4142628 9.77083333,26.4214744 C2.14583333,26.4294872 0.798076923,19.9366987 0.79003498,16.838141 C0.782852564,13.7395833 2.11057692,7.20913462 9.65144231,7.21153846 C13.1626603,7.21314103 16.65625,7.21073718 20.0296474,7.21153846 C20.0296474,7.21153846 20.0328526,0.891826923 20.0328526,0.826121795 C20.0328526,0 20.8357372,0 20.8357372,0 C21.1786859,0.000801282051 23.6866987,0.000801282051 24.0304487,0 Z M20.0192427,21.6546474 C20.0192427,20.943109 20.0160256,11.2451923 20.0160256,11.2451923 C20.0160256,11.2451923 13.6498397,11.2363782 11.4214744,11.2363782 C9.19150641,11.2363782 5.61939103,11.9238782 5.62179366,16.8894231 C5.62339744,21.8541667 8.83733974,22.4302885 11.4591346,22.4375 C14.0793269,22.4455128 18.3445513,22.4358974 19.2179487,22.4358974 C20.0320513,22.4358974 20.0192427,21.6546474 20.0192427,21.6546474 Z" id="path-42"></path>
        <path d="M4.00641026,4.80769231 L0.801282051,4.80769231 C0.358974359,4.80769231 0,4.44871795 0,4.00641026 L0,0.801282051 C0,0.358974359 0.358974359,0 0.801282051,0 L4.00641026,0 C4.44871795,0 4.80769231,0.358974359 4.80769231,0.801282051 L4.80769231,4.00641026 C4.80769231,4.44871795 4.44871795,4.80769231 4.00641026,4.80769231 Z" id="path-44"></path>
        <path d="M4.00641026,19.2307692 L0.801282051,19.2307692 C0.358974359,19.2307692 0,18.8717949 0,18.4294872 L0,0.801282051 C0,0.358974359 0.358974359,0 0.801282051,0 L4.00641026,0 C4.44871795,0 4.80769231,0.358974359 4.80769231,0.801282051 L4.80769231,18.4294872 C4.80769231,18.8717949 4.44871795,19.2307692 4.00641026,19.2307692 Z" id="path-46"></path>
        <path d="M12.8205128,0.00560897436 C18.7067308,0.0136217949 20.8333333,3.20673077 20.8333333,7.64823718 L20.8333333,18.4302885 C20.8333333,18.8725962 20.4751603,19.2307692 20.0328526,19.2315705 L16.8293269,19.2331731 C16.3854167,19.2339744 16.0264423,18.8741987 16.0272436,18.4302885 L16.0504808,8.01282051 C16.0504808,4.07291667 12.9479167,4.01282051 12.8141026,4.01282051 C10.6690705,4.01282051 4.80689103,4.01923077 4.80689103,4.01923077 L4.83012821,18.4046474 C4.83012821,18.4046474 4.86217949,19.3709936 3.75801282,19.2139423 C2.97435897,19.2163462 1.74278846,19.2203526 0.959134615,19.2235577 C0.232371795,19.3165064 0,18.7804487 0,18.4166667 L0,0.00320512821 C0,0.00320512821 6.93429487,-0.00240384615 12.8205128,0.00560897436 Z" id="path-48"></path>
        <path d="M19.2163462,10.4783654 C19.2163462,13.0625 17.1995192,15.2083333 14.6049679,15.2083333 C13.1041667,15.2035256 13.6153846,15.1995192 8.96955128,15.2035256 C5.18189103,15.2075321 2.31650641,13.5344551 1.26522436,10.6209936 C-2.2724359,-0.266826923 10.6201923,0.0184294872 10.6201923,0.0184294872 C8.39022436,0.0184294872 4.82051282,0.520833333 4.82051282,5.67147436 C4.82051282,10.6362179 8.03605769,11.2123397 10.6578526,11.2195513 C13.2780449,11.2275641 17.5432692,11.2179487 18.4166667,11.2179487 C19.119391,11.2179487 19.2059295,10.6370192 19.2163462,10.4783654 Z" id="path-50"></path>
        <path d="M0.803685897,26.4310897 C0.803685897,26.4310897 -1.28345277e-09,26.4310897 -1.28345277e-09,25.6298077 L-1.28345277e-09,3.98317308 C-1.28345277e-09,3.98317308 -0.00160256436,0 3.99679487,0 C7.22435897,0 7.43189103,0.0168269231 15.0576923,0.00961538462 C22.6826923,0.0016025641 24.0304487,6.49439103 24.0384907,9.59294872 C24.0456731,12.6923077 22.7179487,19.2227564 15.1770833,19.2195513 C11.6666667,19.21875 8.17307692,19.2203526 4.79967949,19.2195513 C4.79967949,19.2195513 4.79647436,25.5392628 4.79647436,25.6049679 C4.79647436,26.4310897 3.99599359,26.4310897 3.99599359,26.4310897 C3.65304487,26.4302885 1.1474359,26.4302885 0.803685897,26.4310897 Z M4.80848368,4.77724359 C4.80848368,5.48798077 4.8125,15.1866987 4.8125,15.1866987 C4.8125,15.1866987 11.1786859,15.1947115 13.4070513,15.1947115 C15.6370192,15.1947115 19.2091346,14.5072115 19.206732,9.54166667 C19.2051282,4.57692308 15.9911859,4.00160256 13.369391,3.99358974 C10.7483974,3.98557692 6.48317308,3.99519231 5.60977564,3.99519231 C4.79647436,3.99519231 4.80848368,4.77724359 4.80848368,4.77724359 Z" id="path-52"></path>
        <path d="M19.2307692,1.6025641 C19.2307692,1.6025641 20.0320513,1.64022436 20.0320513,2.41666667 L20.0320513,4.80769231 C20.0320513,4.80769231 20.0825321,5.60897436 19.2179487,5.60897436 C18.3533654,5.60897436 5.29166667,5.60817308 5.29166667,5.60817308 C0.432692308,5.60817308 0.801282051,0.0272435897 0.801282051,0.0272435897 C0.801282051,0.0272435897 0.790865385,1.59054487 2.44150641,1.59054487 C4.41746795,1.59054487 19.2307692,1.6025641 19.2307692,1.6025641 Z" id="path-54"></path>
        <path d="M23.224359,19.2307692 L5.6338141,19.2051282 C5.6338141,19.2051282 0.0168269231,19.2307692 0.0168269231,13.6153846 C0.0168269231,9.65224359 0.015224359,8.57532051 0.015224359,5.56330128 C0.015224359,5.56330128 -0.400641026,0 5.73717949,0 L19.2435897,0 C25.2740385,0 24.8397436,5.63782051 24.8397436,5.63782051 L24.8397436,8.81410256 C24.8397436,8.81410256 25.2900641,12.0192308 20.8397436,12.0192308 L4.80769231,12.0192308 C4.80849359,12.0192308 4.78685897,13.5472756 4.80769231,13.6490385 C4.80769231,13.6490385 4.78285256,15.2115385 6.3974359,15.2115385 C7.41586538,15.2115385 23.2371795,15.224359 23.2371795,15.224359 C23.2371795,15.224359 24.0504808,15.2371795 24.0504808,16.0384615 C24.0504808,16.318109 24.0544872,18.1386218 24.0552885,18.4166667 C24.0560897,18.4911859 24.0512821,19.2307692 23.224359,19.2307692 Z M19.244391,8.02403846 C20.0192308,8.02403846 20.0192308,7.22435897 20.0192308,7.22435897 C20.0192308,6.62820513 20.0288462,6.24599359 20.0320655,5.62179487 C20.0360577,4.83253205 19.193109,4.01923077 18.4671474,4.01923077 C17.6610577,4.01923077 7.20112179,4.01602564 6.42307692,4.01923077 C5.58413462,4.02163462 4.81089744,4.82051282 4.81089744,5.6338141 C4.81089744,5.95032051 4.80769231,8.02564103 4.80769231,8.02564103 C4.80769231,8.02564103 18.7323718,8.02403846 19.244391,8.02403846 Z" id="path-56"></path>
        <path d="M19.2307692,1.6025641 C19.2307692,1.6025641 20.0320513,1.64022436 20.0320513,2.41666667 L20.0320513,4.80769231 C20.0320513,4.80769231 20.0817308,5.60897436 19.2179487,5.60897436 C18.3533654,5.60897436 5.29166667,5.60817308 5.29166667,5.60817308 C0.432692308,5.60817308 0.801282051,0.0272435897 0.801282051,0.0272435897 C0.801282051,0.0272435897 0.790865385,1.59054487 2.44150641,1.59054487 C4.41746795,1.59054487 19.2307692,1.6025641 19.2307692,1.6025641 Z" id="path-58"></path>
        <path d="M17.4326923,6.46875 C17.7708333,8.3036859 17.619391,11.474359 14.0064103,13.7828526 C14.0064103,13.7828526 12.5080128,14.400641 10.8677885,14.3990385 L10.8709936,14.3926282 C10.7059295,14.400641 3.37099359,14.4126603 0,14.4118971 L0,2.40384615 L0.0016025641,2.40384615 C0.00320512821,5.60897436 0.00480769231,10.3790064 0.00480769231,10.3790064 C0.00480769231,10.3790064 6.37099359,10.3870192 8.59935897,10.3870192 C10.8293269,10.3870192 14.4014423,9.69951923 14.3990385,4.73397436 C14.3982372,2.28926282 13.6161859,0.911858974 12.5120192,0.139423077 L12.5729167,0.128205128 C12.5729167,0.128205128 16.6137821,2.02804487 17.4326923,6.46875 Z" id="path-60"></path>
        <path d="M3.20512821,0 C3.6474359,0 4.00641026,0.358974359 4.00641026,0.801282051 L4.00641026,10.4783654 C4.00641026,3.43189103 0,0 0,0 L3.20512821,0 Z" id="path-62"></path>
        <path d="M0.801282051,4.00641026 C0.358974359,4.00641026 0,3.6474359 0,3.20512821 L0,0.100160256 C0,0.100160256 0.536057692,3.48637821 4.28205128,3.95032051 C4.19551282,3.98237179 4.10416667,4.00641026 4.00641026,4.00641026 L0.801282051,4.00641026 Z" id="path-64"></path>
        <path d="M0.322115385,0.0352564103 C0.322115385,0.0352564103 8.01282051,0.713942308 8.01282051,5.91346154 L8.01282051,14.4238782 C8.01282051,14.8661859 7.65464744,15.224359 7.21233974,15.2251603 L4.0088141,15.2267642 C3.56490385,15.2275641 3.20592949,14.8677885 3.20673077,14.4238782 L3.22996795,4.00641026 C3.22996795,0.776442308 1.1474359,0.155448718 0.322115385,0.0352564103 Z" id="path-66"></path>
    </defs>
    <g id="高保真" stroke="none" stroke-width="1" fill="none" fill-rule="evenodd">
        <g id="高保真1备份-20" transform="translate(-692.000000, -222.000000)">
            <g id="dcc_Home-deepin-image_300px" transform="translate(692.000000, 195.000000)">
                <rect id="矩形" fill="#FF6969" opacity="0" x="6.79007359" y="0" width="300" height="300"></rect>
                <g id="编组-68" stroke-width="1" transform="translate(0.000000, 29.000000)">
                    <g id="形状结合备份-2" opacity="0.161528088">
                        <use fill="black" fill-opacity="1" filter="url(#filter-2)" xlink:href="#path-1"></use>
                        <use fill="#0081FF" fill-rule="evenodd" xlink:href="#path-1"></use>
                    </g>
                    <g id="形状结合" opacity="0.503394717">
                        <use fill="black" fill-opacity="1" filter="url(#filter-4)" xlink:href="#path-3"></use>
                        <use fill="#0081FF" fill-rule="evenodd" xlink:href="#path-3"></use>
                    </g>
                    <g id="矩形备份-55" opacity="0.5">
                        <use fill="black" fill-opacity="1" filter="url(#filter-6)" xlink:href="#path-5"></use>
                        <use fill="#0081FF" fill-rule="evenodd" xlink:href="#path-5"></use>
                    </g>
                    <g id="编组-66" transform="translate(242.035636, 101.988513)">
                        <mask id="mask-8" fill="white">
                            <use xlink:href="#path-7"></use>
                        </mask>
                        <use id="路径-29" fill="#21AC6E" xlink:href="#path-7"></use>
                        <path d="M56.7166292,0.0103436571 C54.2713393,-0.203879827 52.5623209,2.90942152 51.5895739,9.35024769 C50.1304535,19.0114869 53.1080024,57.5114869 44.1674956,75.8817094 C35.2269888,94.2519318 33.2886052,98.7647002 21.1138675,102.926094 C12.9973757,105.700356 17.0693686,112.926292 33.3298464,124.603901 L61.4447106,74.0114869 L56.7166292,0.0103436571 Z" id="路径-30" fill="#51D093" mask="url(#mask-8)"></path>
                        <path d="M28.6806022,15.9303806 L30.7544379,15.4379836 C36.8904458,66.7020341 36.5077811,93.7277927 29.6064438,96.5152593 C22.7051065,99.302726 17.6203156,96.8014686 14.352071,89.0114869 L28.6806022,15.9303806 Z" id="路径-2" fill="#1B9265" mask="url(#mask-8)"></path>
                    </g>
                    <g id="编组-64" transform="translate(41.790074, 88.000000)">
                        <mask id="mask-10" fill="white">
                            <use xlink:href="#path-9"></use>
                        </mask>
                        <g id="矩形">
                            <use fill="black" fill-opacity="1" filter="url(#filter-11)" xlink:href="#path-9"></use>
                            <use fill="#F8F8F8" fill-rule="evenodd" xlink:href="#path-9"></use>
                        </g>
                        <g id="编组-63" mask="url(#mask-10)">
                            <rect id="矩形" fill="#FFFFFF" x="51" y="25" width="172.908284" height="110.842105" rx="8"></rect>
                            <rect id="矩形" fill="#FFFFFF" x="0" y="17.1052632" width="45.1065089" height="125.894737"></rect>
                            <g id="矩形">
                                <use fill="black" fill-opacity="1" filter="url(#filter-13)" xlink:href="#path-12"></use>
                                <use fill-opacity="0.8" fill="#FFFFFF" fill-rule="evenodd" xlink:href="#path-12"></use>
                                <use fill="black" fill-opacity="1" filter="url(#filter-14)" xlink:href="#path-12"></use>
                            </g>
                            <g id="形状结合">
                                <use fill="black" fill-opacity="1" filter="url(#filter-16)" xlink:href="#path-15"></use>
                                <use fill="#D8D8D8" fill-rule="evenodd" xlink:href="#path-15"></use>
                            </g>
                            <circle id="椭圆形" fill="#EBF3DD" cx="138" cy="58" r="18"></circle>
                            <rect id="矩形" fill="#EBF3DD" x="113" y="88" width="49" height="6"></rect>
                            <rect id="矩形备份-47" fill="#EBF3DD" x="96" y="97" width="84" height="6"></rect>
                        </g>
                        <g id="Group" mask="url(#mask-10)">
                            <g transform="translate(2.209926, 2.000000)">
                                <mask id="mask-18" fill="white">
                                    <use xlink:href="#path-17"></use>
                                </mask>
                                <g id="Mask" stroke="none" fill="none">
                                    <use fill="black" fill-opacity="1" filter="url(#filter-19)" xlink:href="#path-17"></use>
                                    <use fill="#FFFFFF" fill-rule="evenodd" xlink:href="#path-17"></use>
                                </g>
                                <g id="编组-2" stroke="none" stroke-width="1" fill="none" fill-rule="evenodd" mask="url(#mask-18)">
                                    <g transform="translate(11.000000, 106.000000)">
                                        <g id="Rectangle" fill="none">
                                            <use fill="black" fill-opacity="1" filter="url(#filter-21)" xlink:href="#path-20"></use>
                                            <use fill-opacity="0.257648601" fill="#D2D2D2" fill-rule="evenodd" xlink:href="#path-20"></use>
                                        </g>
                                        <ellipse id="Oval" fill="#2876E8" fill-rule="evenodd" cx="9.9" cy="10" rx="5.5" ry="5.55555556"></ellipse>
                                        <rect id="Rectangle" fill="#11B46F" fill-rule="evenodd" x="22" y="4.44444444" width="11" height="11.1111111" rx="1.25"></rect>
                                        <rect id="Rectangle" fill="#11B46F" fill-rule="evenodd" x="97" y="4.44444444" width="11" height="11.1111111" rx="1.25"></rect>
                                        <rect id="Rectangle" fill-opacity="0.352218094" fill="#21CBFF" fill-rule="evenodd" x="178.2" y="4.44444444" width="11" height="11.1111111" rx="1.25"></rect>
                                        <rect id="Rectangle" fill="#13DA86" fill-rule="evenodd" x="82" y="4.44444444" width="11" height="11.1111111" rx="1.25"></rect>
                                        <rect id="Rectangle" fill-opacity="0.352218094" fill="#5A00FF" fill-rule="evenodd" x="162.8" y="4.44444444" width="11" height="11.1111111" rx="1.25"></rect>
                                        <rect id="Rectangle" fill="#FF8458" fill-rule="evenodd" x="36" y="4.44444444" width="11" height="11.1111111" rx="1.25"></rect>
                                        <rect id="Rectangle备份" fill="#AA93FF" fill-rule="evenodd" x="51" y="4.44444444" width="11" height="11.1111111" rx="1.25"></rect>
                                        <rect id="Rectangle备份-2" fill="#32C5FF" fill-rule="evenodd" x="66" y="4.44444444" width="11" height="11.1111111" rx="1.25"></rect>
                                        <rect id="Rectangle" fill="#E04A4A" fill-rule="evenodd" x="112" y="4.44444444" width="11" height="11.1111111" rx="1.25"></rect>
                                        <rect id="Rectangle" fill-opacity="0.352218094" fill="#000000" fill-rule="evenodd" x="193.6" y="4.44444444" width="11" height="11.1111111" rx="1.25"></rect>
                                    </g>
                                </g>
                            </g>
                        </g>
                    </g>
                    <g id="编组-65" transform="translate(234.790074, 194.000000)">
                        <mask id="mask-23" fill="white">
                            <use xlink:href="#path-22"></use>
                        </mask>
                        <use id="路径-25" fill="#18A56A" xlink:href="#path-22"></use>
                        <path d="M35.857316,23.391383 C27.1096321,27.6918645 19.6415115,29.8421053 13.4529542,29.8421053 C7.26439697,29.8421053 4.99466738,32.1132798 6.64376544,36.655629 L20.9903043,41.7934446 L38.9511967,36.1283628 L35.857316,23.391383 Z" id="路径-28" fill="#1B9265" mask="url(#mask-23)"></path>
                        <path d="M4.17011834,36.655629 C15.4179509,15.3020242 25.6945782,5.41868941 35,7.00562467 C31.5250086,9.09626794 23.7160607,5.52939038 6.64376544,36.655629 C5.70866691,37.2679246 4.88411788,37.2679246 4.17011834,36.655629 Z" id="路径-26" fill="#217460" mask="url(#mask-23)"></path>
                        <path d="M53,1.25160546 C50.4489886,2.26207458 48.2290773,4.12519205 46.3402661,6.84095787 C43.5070493,10.9146066 31.8427904,32.1835189 24.2754068,33.8716338 C16.7080231,35.5597487 8.44629492,36.1634561 6.03348832,36.1634561 C4.4249506,36.1634561 6.38929266,38.6584025 11.9265145,43.6482954 C39.0180854,42.1500866 52.6365591,41.0109193 52.7819354,40.2307934 C52.9273118,39.4506674 54.004987,29.6786051 56.014961,10.9146066 L53,1.25160546 Z" id="路径-27" fill="#53D297" mask="url(#mask-23)"></path>
                    </g>
                    <g id="编组" transform="translate(0.000000, 140.000000)">
                        <mask id="mask-25" fill="white">
                            <use xlink:href="#path-24"></use>
                        </mask>
                        <use id="路径-22" fill="#90D39F" xlink:href="#path-24"></use>
                        <path d="M4.11379619,-3 C2.64469587,8 18.203455,20.6666667 50.7900736,35 C83.3766922,49.3333333 89.8766922,94.0009143 70.2900736,169.002743 C35.9818614,123.667581 9.61774894,88 -8.80226387,62 C-27.2222767,36 -22.9169233,14.3333333 4.11379619,-3 Z" id="路径-23" fill="#42C98D" mask="url(#mask-25)"></path>
                        <circle id="椭圆形" fill="#D8316C" cx="21.7900736" cy="54" r="3"></circle>
                        <circle id="椭圆形备份-22" fill="#D8316C" cx="11.7900736" cy="26" r="3"></circle>
                    </g>
                    <g id="编组-67" transform="translate(42.931847, 193.000000)">
                        <path d="M0.858226929,2.25160546 C-0.149712349,7.08924572 1.48716301,12.1070768 5.76885302,17.3050987 C10.050543,22.5031207 13.2149705,25.2006064 15.2621356,25.3975561 L22.6378422,24.391383 L16.7675384,27.9013566 C22.9199319,36.8489488 32.5055095,40.1003729 45.5242711,37.655629 C42.8709087,33.3749796 39.9339467,29.920298 36.7133853,27.2915844 L21.4114814,15.8751357 L0.858226929,2.25160546 Z" id="路径-31" fill="#1F946D"></path>
                        <mask id="mask-27" fill="white">
                            <use xlink:href="#path-26"></use>
                        </mask>
                        <use id="路径-20" fill="#5EDAA3" xlink:href="#path-26"></use>
                        <path d="M45.5242711,37.655629 C34.9243507,16.4219595 20.0483461,4.50427064 0.89625726,1.90256239 C-18.2558315,-0.699145871 -20.1018416,1.17280528 -4.64177307,7.51841585 L16.7473844,37.655629 L37.8360256,46.182167 L45.5242711,37.655629 Z" id="路径-21" fill="#20AC6C" mask="url(#mask-27)"></path>
                        <path d="M0.89625726,1.90256239 C6.06534885,13.1589162 11.483228,20.059298 17.1498947,22.6037079 C20.3457069,22.2922976 23.7074089,22.1900824 27.2350008,22.2970623 L20.2502562,28.5683064 C24.884981,32.7104662 33.3096526,35.7395738 45.5242711,37.655629 C57.7388896,39.5716842 58.4327422,40.9637938 47.6058289,41.8319577 L17.1498947,36.7111478 L11.7205111,27.9914364 L3.61252584,14.856753 L-1.96620721,3.17818692 L0.89625726,1.90256239 Z" id="路径-24" fill="#46D590" mask="url(#mask-27)"></path>
                    </g>
                    <g id="放大镜" filter="url(#filter-28)" transform="translate(216.252559, 207.982107) rotate(-39.000000) translate(-216.252559, -207.982107) translate(189.252559, 164.482107)">
                        <rect id="矩形" fill="url(#linearGradient-29)" x="20.7988181" y="48.5746392" width="8" height="11"></rect>
                        <rect id="矩形" fill="url(#linearGradient-30)" x="19.4809188" y="54.711488" width="12" height="32" rx="2"></rect>
                        <g id="编组-61" opacity="0.533249628" transform="translate(25.627772, 26.844727) rotate(60.000000) translate(-25.627772, -26.844727) translate(6.627772, 8.344727)">
                            <mask id="mask-33" fill="white">
                                <use xlink:href="#path-32"></use>
                            </mask>
                            <use id="椭圆形备份-17" stroke="#979797" fill="url(#radialGradient-31)" fill-rule="nonzero" xlink:href="#path-32"></use>
                            <path d="M8.44893998,1.61854224 C8.24792542,1.28365652 8.38846693,1.72256106 8.17105798,2.04458169 C3.35922801,9.17174442 5.20117075,18.614125 11.9957737,23.9166512 C18.7903767,29.2191774 28.488268,28.318035 34.2956928,22.0913049 C30.778648,21.0899642 27.4764437,19.6430802 24.4191315,17.8197971 C17.8757833,13.9175539 12.4541826,8.29118462 8.44893998,1.61854224 Z" id="路径" fill="url(#radialGradient-34)" fill-rule="nonzero" style="mix-blend-mode: lighten;" mask="url(#mask-33)" transform="translate(19.885168, 14.443122) rotate(168.000000) translate(-19.885168, -14.443122) "></path>
                            <ellipse id="椭圆形" fill="#FFFFFF" mask="url(#mask-33)" cx="22.4338952" cy="9.72843787" rx="1" ry="1"></ellipse>
                            <path d="M22.7586163,5.35592205 C21.9134159,4.6692332 21.9037289,4.10220363 23.4968867,3.48978968 C25.0900445,2.87737573 31.4722569,6.54542537 31.4898025,9.98361569 C24.2344867,3.20625435 23.6038167,6.0426109 22.7586163,5.35592205 Z" id="路径-3" mask="url(#mask-33)"></path>
                        </g>
                        <g id="编组-64" transform="translate(1.831490, 0.181718)">
                            <g id="椭圆形">
                                <use fill="black" fill-opacity="1" filter="url(#filter-37)" xlink:href="#path-36"></use>
                                <circle stroke="url(#linearGradient-35)" stroke-width="9" stroke-linejoin="square" cx="25.5059022" cy="25.8985486" r="21"></circle>
                            </g>
                            <circle id="椭圆形备份-22" stroke="#7A7A7A" cx="25.579815" cy="25.6017818" r="16.5"></circle>
                            <circle id="椭圆形" fill="#FFFFFF" cx="35.3140483" cy="19.9110368" r="1"></circle>
                            <circle id="椭圆形备份-23" fill="#FFFFFF" cx="38.6443705" cy="24.5380179" r="1.5"></circle>
                        </g>
                    </g>
                    <g id="形状结合">
                        <use fill="black" fill-opacity="1" filter="url(#filter-39)" xlink:href="#path-38"></use>
                        <use fill="#0084FF" fill-rule="evenodd" xlink:href="#path-38"></use>
                    </g>
                </g>
                <g id="编组-2" stroke-width="1" transform="translate(84.000000, 159.000000)">
                    <g id="编组" transform="translate(26.442308, 7.211538)">
                        <mask id="mask-41" fill="white">
                            <use xlink:href="#path-40"></use>
                        </mask>
                        <g id="Clip-23"></g>
                        <polygon id="Fill-22" fill="#3EA9FD" mask="url(#mask-41)" points="-3.99711538 -4.00641026 28.8588942 -4.00641026 28.8588942 23.2371795 -3.99711538 23.2371795"></polygon>
                    </g>
                    <g id="编组">
                        <mask id="mask-43" fill="white">
                            <use xlink:href="#path-42"></use>
                        </mask>
                        <g id="Clip-25"></g>
                        <polygon id="Fill-24" fill="#3EA9FD" mask="url(#mask-43)" points="-3.21637821 -4.00641026 28.8461538 -4.00641026 28.8461538 30.4375 -3.21637821 30.4375"></polygon>
                    </g>
                    <g id="编组" transform="translate(104.967949, 0.000000)">
                        <mask id="mask-45" fill="white">
                            <use xlink:href="#path-44"></use>
                        </mask>
                        <g id="Clip-27"></g>
                        <polygon id="Fill-26" fill="#3EA9FD" mask="url(#mask-45)" points="-4.00641026 -4.00641026 8.81410256 -4.00641026 8.81410256 8.81410256 -4.00641026 8.81410256"></polygon>
                    </g>
                    <g id="编组" transform="translate(104.967949, 7.211538)">
                        <mask id="mask-47" fill="white">
                            <use xlink:href="#path-46"></use>
                        </mask>
                        <g id="Clip-29"></g>
                        <polygon id="Fill-28" fill="#3EA9FD" mask="url(#mask-47)" points="-4.00641026 -4.00641026 8.81410256 -4.00641026 8.81410256 23.2371795 -4.00641026 23.2371795"></polygon>
                    </g>
                    <g id="编组" transform="translate(111.378205, 7.211538)">
                        <mask id="mask-49" fill="white">
                            <use xlink:href="#path-48"></use>
                        </mask>
                        <g id="Clip-31"></g>
                        <polygon id="Fill-30" fill="#3EA9FD" mask="url(#mask-49)" points="-4.00641026 -4.00511218 24.8397436 -4.00511218 24.8397436 23.240617 -4.00641026 23.240617"></polygon>
                    </g>
                    <g id="编组" transform="translate(0.801282, 11.217949)">
                        <mask id="mask-51" fill="white">
                            <use xlink:href="#path-50"></use>
                        </mask>
                        <g id="Clip-33"></g>
                        <polygon id="Fill-32" fill="#2659B8" mask="url(#mask-51)" points="-3.35564103 -3.9886859 23.2227564 -3.9886859 23.2227564 19.2147436 -3.35564103 19.2147436"></polygon>
                    </g>
                    <g id="编组" transform="translate(79.326923, 7.211538)">
                        <mask id="mask-53" fill="white">
                            <use xlink:href="#path-52"></use>
                        </mask>
                        <g id="Clip-35"></g>
                        <polygon id="Fill-34" fill="#3EA9FD" mask="url(#mask-53)" points="-4.00641026 -4.00641026 28.0448718 -4.00641026 28.0448718 30.4375 -4.00641026 30.4375"></polygon>
                    </g>
                    <g id="编组" transform="translate(30.448718, 20.833333)">
                        <mask id="mask-55" fill="white">
                            <use xlink:href="#path-54"></use>
                        </mask>
                        <g id="Clip-37"></g>
                        <polygon id="Fill-36" fill="#2659B8" mask="url(#mask-55)" points="-3.21153846 -3.97916667 24.0390224 -3.97916667 24.0390224 9.61538462 -3.21153846 9.61538462"></polygon>
                    </g>
                    <g id="编组" transform="translate(52.884615, 7.211538)">
                        <mask id="mask-57" fill="white">
                            <use xlink:href="#path-56"></use>
                        </mask>
                        <g id="Clip-39"></g>
                        <polygon id="Fill-38" fill="#3EA9FD" mask="url(#mask-57)" points="-3.99711538 -4.00641026 28.8588942 -4.00641026 28.8588942 23.2371795 -3.99711538 23.2371795"></polygon>
                    </g>
                    <g id="编组" transform="translate(56.891026, 20.833333)">
                        <mask id="mask-59" fill="white">
                            <use xlink:href="#path-58"></use>
                        </mask>
                        <g id="Clip-41"></g>
                        <polygon id="Fill-40" fill="#2659B8" mask="url(#mask-59)" points="-3.21153846 -3.97916667 24.0390224 -3.97916667 24.0390224 9.61538462 -3.21153846 9.61538462"></polygon>
                    </g>
                    <g id="编组" transform="translate(84.134615, 12.019231)">
                        <mask id="mask-61" fill="white">
                            <use xlink:href="#path-60"></use>
                        </mask>
                        <g id="Clip-43"></g>
                        <polygon id="Fill-42" fill="#2659B8" mask="url(#mask-61)" points="-4.00641026 -3.87820513 21.5598558 -3.87820513 21.5598558 18.4183093 -4.00641026 18.4183093"></polygon>
                    </g>
                    <g id="编组" transform="translate(105.769231, 7.211538)">
                        <mask id="mask-63" fill="white">
                            <use xlink:href="#path-62"></use>
                        </mask>
                        <g id="Clip-45"></g>
                        <polygon id="Fill-44" fill="#2659B8" mask="url(#mask-63)" points="-4.00641026 -4.00641026 8.01282051 -4.00641026 8.01282051 14.4847756 -4.00641026 14.4847756"></polygon>
                    </g>
                    <g id="编组" transform="translate(104.967949, 0.801282)">
                        <mask id="mask-65" fill="white">
                            <use xlink:href="#path-64"></use>
                        </mask>
                        <g id="Clip-47"></g>
                        <polygon id="Fill-46" fill="#2659B8" mask="url(#mask-65)" points="-4.00641026 -3.90625 8.28846154 -3.90625 8.28846154 8.01282051 -4.00641026 8.01282051"></polygon>
                    </g>
                    <g id="编组" transform="translate(124.198718, 11.217949)">
                        <mask id="mask-67" fill="white">
                            <use xlink:href="#path-66"></use>
                        </mask>
                        <g id="Clip-49"></g>
                        <polygon id="Fill-48" fill="#2659B8" mask="url(#mask-67)" points="-3.68429487 -3.97115385 12.0192308 -3.97115385 12.0192308 19.2331731 -3.68429487 19.2331731"></polygon>
                    </g>
                </g>
            </g>
        </g>
    </g>
</svg>