<?xml version="1.0" encoding="UTF-8"?>
<svg width="12px" height="12px" viewBox="0 0 12 12" version="1.1" xmlns="http://www.w3.org/2000/svg" xmlns:xlink="http://www.w3.org/1999/xlink">
    <!-- Generator: Sketch 58 (84663) - https://sketch.com -->
    <title>icon/warning</title>
    <desc>Created with Sketch.</desc>
    <g id="病毒查杀" stroke="none" stroke-width="1" fill="none" fill-rule="evenodd">
        <g id="系统安全_病毒查杀_全盘扫描3" transform="translate(-851.000000, -295.000000)">
            <g id="编组-7" transform="translate(278.000000, 248.000000)">
                <g id="编组-8" transform="translate(45.000000, 0.000000)">
                    <g id="编组" transform="translate(0.000000, -1.000000)">
                        <g id="编组-3" transform="translate(9.000000, 36.000000)">
                            <g id="编组-2">
                                <g id="编组-5" transform="translate(519.000000, 9.000000)">
                                    <g id="icon/warning" transform="translate(0.000000, 3.000000)">
                                        <g id="icon/fail">
                                            <circle id="Oval-359" fill="#FA8900" cx="6" cy="6" r="6"></circle>
                                            <path d="M5.66118164,2.25820313 L6.43535156,2.25820313 C6.62607422,2.25820313 6.76757812,2.32280273 6.75117187,2.60991211 L6.5737793,7.2046875 C6.56557617,7.33388672 6.46201172,7.43745117 6.33793945,7.43745117 L5.75859375,7.43745117 C5.63554687,7.43745117 5.52993164,7.33491211 5.52275391,7.2046875 L5.34638672,2.60888672 C5.32895508,2.32382812 5.46943359,2.25820313 5.66118164,2.25820313 L5.66118164,2.25820313 Z M6.0487793,9.80610352 C5.61196289,9.80610352 5.25820312,9.45234375 5.25820312,9.01552734 C5.25820312,8.57871094 5.61196289,8.22700195 6.0487793,8.22700195 C6.4855957,8.22700195 6.83730469,8.58076172 6.83730469,9.01552734 C6.83730469,9.45131836 6.48457031,9.80610352 6.0487793,9.80610352 Z" id="形状" fill="#FFFFFF" fill-rule="nonzero"></path>
                                        </g>
                                    </g>
                                </g>
                            </g>
                        </g>
                    </g>
                </g>
            </g>
        </g>
    </g>
</svg>