<?xml version="1.0" encoding="UTF-8"?>
<svg width="12px" height="12px" viewBox="0 0 12 12" version="1.1" xmlns="http://www.w3.org/2000/svg" xmlns:xlink="http://www.w3.org/1999/xlink">
    <!-- Generator: Sketch 58 (84663) - https://sketch.com -->
    <title>Icon_调节</title>
    <desc>Created with Sketch.</desc>
    <g id="高保真" stroke="none" stroke-width="1" fill="none" fill-rule="evenodd">
        <g id="网络防护_流量详情-20" transform="translate(-934.000000, -257.000000)">
            <g id="高保真1备份-19" transform="translate(65.000000, 45.000000)">
                <g id="编组-8" transform="translate(210.000000, 60.000000)">
                    <g id="编组-4">
                        <g id="编组-10" transform="translate(0.000000, 99.000000)">
                            <g id="编组-7备份-7" transform="translate(10.000000, 36.000000)">
                                <g id="编组-6" transform="translate(222.000000, 9.000000)">
                                    <g id="Icon_调节_disabled" transform="translate(419.000000, 0.000000)">
                                        <g id="编组-4">
                                            <rect id="矩形" fill="#FF6969" opacity="0" x="0" y="0" width="28" height="28"></rect>
                                            <path d="M19.9961091,12.5455031 C19.8438279,11.917192 19.5949781,11.3265967 19.2661307,10.7897179 C19.2281318,10.7277154 19.1501341,10.7077146 19.0829932,10.73543 C18.5764367,10.9425812 17.9755973,10.8457202 17.5641809,10.4345607 C17.1530502,10.0234013 17.0561959,9.4228056 17.263047,8.91621373 C17.2904747,8.84906816 17.2704753,8.77106501 17.2087629,8.73306348 C16.6716359,8.40447879 16.0807962,8.15589732 15.452529,8.00389119 C15.381674,7.98674764 15.3119618,8.02789216 15.2839626,8.09503772 C15.072826,8.60077242 14.5788406,8.95821542 13.9962863,8.95821542 C13.4148749,8.95821542 12.921461,8.60191533 12.7097529,8.0970378 C12.681468,8.02989224 12.6117558,7.98874772 12.5409008,8.00589127 C11.9123479,8.15932603 11.3212225,8.40876467 10.7843812,8.73820654 C10.7229545,8.77592235 10.7035265,8.8527826 10.7306685,8.91935671 C10.9375196,9.42566286 10.8403796,10.0262585 10.4292489,10.437418 C10.0189753,10.848006 9.41956441,10.9454385 8.91357936,10.7400016 C8.8470099,10.7128577 8.77015503,10.7325728 8.73244186,10.7940038 C8.40416584,11.3314541 8.15560176,11.9226208 8.00389195,12.5509319 C7.9867496,12.6215061 8.02789124,12.6912232 8.09474641,12.7195101 C8.59816011,12.9315187 8.95329247,13.4243957 8.95329247,14.005562 C8.95329247,14.5855854 8.59901723,15.077891 8.09703206,15.2907567 C8.03017689,15.3190436 7.98932095,15.3887607 8.0064633,15.459335 C8.15931593,16.0879318 8.40902284,16.6788128 8.73844168,17.2156916 C8.77586914,17.2768369 8.85272402,17.296552 8.91929348,17.2696938 C9.42470712,17.0651141 10.0229752,17.163118 10.432963,17.5728489 C10.8423795,17.9820082 10.9403766,18.5797466 10.7363827,19.0851956 C10.7095263,19.1517697 10.72924,19.2283443 10.7903811,19.2657743 C11.3277938,19.5949305 11.9189191,19.8437977 12.547472,19.9960895 C12.6180413,20.0132331 12.6877536,19.9723743 12.7160385,19.9055144 C12.9286036,19.4032085 13.4211605,19.0489084 14.0008576,19.0489084 C14.5808405,19.0489084 15.0731117,19.4032085 15.2856768,19.9055144 C15.3139617,19.9723743 15.3836739,20.0132331 15.4542433,19.9960895 C16.0827961,19.8437977 16.6736358,19.5949305 17.2110485,19.2660601 C17.2724753,19.22863 17.2919033,19.1517697 17.2650469,19.0851956 C17.0596244,18.5794609 17.1570501,17.9800082 17.5673237,17.5697059 C17.977883,17.1594036 18.5775796,17.0622568 19.0832789,17.2679794 C19.1498484,17.2951234 19.2267032,17.2754083 19.2641307,17.214263 C19.5935495,16.6770984 19.8429708,16.0859317 19.9955377,15.4573349 C20.01268,15.3864749 19.9715384,15.3167578 19.9043975,15.2887567 C19.399841,15.0770338 19.0435658,14.5832996 19.0435658,14.0018476 C19.0435658,13.4198241 19.4001267,12.9263756 19.9049689,12.7149385 C19.9721098,12.6860802 20.0132514,12.6163631 19.9961091,12.5455031 L19.9961091,12.5455031 L19.9961091,12.5455031 Z M14,15.8 C14.9941125,15.8 15.8,14.9941125 15.8,14 C15.8,13.0058875 14.9941125,12.2 14,12.2 C13.0058875,12.2 12.2,13.0058875 12.2,14 C12.2,14.9941125 13.0058875,15.8 14,15.8 Z" id="path13637" fill="#9B9B9B" opacity="0.4"></path>
                                        </g>
                                    </g>
                                </g>
                            </g>
                        </g>
                    </g>
                </g>
            </g>
        </g>
    </g>
</svg>