<?xml version="1.0" encoding="UTF-8"?>
<svg width="24px" height="24px" viewBox="0 0 24 24" version="1.1" xmlns="http://www.w3.org/2000/svg" xmlns:xlink="http://www.w3.org/1999/xlink">
    <!-- Generator: Sketch 58 (84663) - https://sketch.com -->
    <title>Security Center-24px</title>
    <desc>Created with Sketch.</desc>
    <defs>
        <filter x="-84.1%" y="-20.5%" width="268.2%" height="277.3%" filterUnits="objectBoundingBox" id="filter-1">
            <feOffset dx="0" dy="0" in="SourceAlpha" result="shadowOffsetOuter1"></feOffset>
            <feGaussianBlur stdDeviation="0.5" in="shadowOffsetOuter1" result="shadowBlurOuter1"></feGaussianBlur>
            <feComposite in="shadowBlurOuter1" in2="SourceAlpha" operator="out" result="shadowBlurOuter1"></feComposite>
            <feColorMatrix values="0 0 0 0 0   0 0 0 0 0   0 0 0 0 0  0 0 0 0.15 0" type="matrix" in="shadowBlurOuter1" result="shadowMatrixOuter1"></feColorMatrix>
            <feMerge>
                <feMergeNode in="shadowMatrixOuter1"></feMergeNode>
                <feMergeNode in="SourceGraphic"></feMergeNode>
            </feMerge>
        </filter>
        <linearGradient x1="50%" y1="0%" x2="50%" y2="98.1385523%" id="linearGradient-2">
            <stop stop-color="#FFFFFF" offset="0%"></stop>
            <stop stop-color="#EDEDED" offset="100%"></stop>
        </linearGradient>
        <linearGradient x1="50%" y1="0%" x2="50%" y2="98.5538974%" id="linearGradient-3">
            <stop stop-color="#44B0FB" offset="0%"></stop>
            <stop stop-color="#0074FF" offset="100%"></stop>
        </linearGradient>
        <linearGradient x1="50%" y1="0%" x2="50%" y2="100%" id="linearGradient-4">
            <stop stop-color="#FFFFFF" offset="0%"></stop>
            <stop stop-color="#60B8E5" offset="100%"></stop>
        </linearGradient>
        <linearGradient x1="17.2269454%" y1="23.7439246%" x2="73.8302246%" y2="30.2126494%" id="linearGradient-5">
            <stop stop-color="#5BE9FF" offset="0%"></stop>
            <stop stop-color="#5FE2FF" stop-opacity="0.936413763" offset="4.36176811%"></stop>
            <stop stop-color="#0065FA" stop-opacity="0" offset="100%"></stop>
        </linearGradient>
        <linearGradient x1="50%" y1="1.79026897%" x2="51.811367%" y2="100%" id="linearGradient-6">
            <stop stop-color="#FFFFFF" offset="0%"></stop>
            <stop stop-color="#9CD8F8" offset="100%"></stop>
        </linearGradient>
        <path d="M12.9073042,5.14367273 C12.8818587,4.95433886 12.7520888,4.79486038 12.5708605,4.7301321 L6.84854365,3.07684399 C6.60173701,2.98973459 6.36667606,3.00103965 6.17437448,3.07684399 L0.452036636,4.73013209 C0.27072432,4.79486037 0.141038416,4.95435967 0.11559291,5.14367272 C0.102796611,5.23890178 -0.190803693,7.50636944 0.409445363,10.09777 C0.766144629,11.6376118 1.36630963,12.9708812 2.19340394,14.0605815 C3.21717033,15.4093822 4.58572219,16.3798484 6.26209947,16.9468715 C6.40105166,17.0026681 6.55296822,17.028193 6.76069259,16.9468715 C8.43706987,16.3798692 9.80572679,15.4093822 10.8294932,14.0605815 C11.6565034,12.9708812 12.2567525,11.6376118 12.6134518,10.09777 C13.2137218,7.50636946 12.9200375,5.23890179 12.9073042,5.14367273 L12.9073042,5.14367273 Z" id="path-7"></path>
        <filter x="-285.5%" y="-164.5%" width="671.1%" height="629.2%" filterUnits="objectBoundingBox" id="filter-8">
            <feOffset dx="0" dy="14" in="SourceAlpha" result="shadowOffsetOuter1"></feOffset>
            <feGaussianBlur stdDeviation="10" in="shadowOffsetOuter1" result="shadowBlurOuter1"></feGaussianBlur>
            <feColorMatrix values="0 0 0 0 0   0 0 0 0 0.290980179   0 0 0 0 0.5330899  0 0 0 0.611778846 0" type="matrix" in="shadowBlurOuter1"></feColorMatrix>
        </filter>
        <path d="M5.09783786,7.16370213 C5.20325357,6.77638504 5.6249164,6.49449153 6.01144068,6.49449153 L7.51144068,6.49449153 C7.89796495,6.49449153 8.0736578,6.77638503 7.93310351,7.12856093 L7.40563935,8.49449153 L8.51144068,8.49449153 C9.28448922,8.49449153 9.49532064,8.98799615 9.00338066,9.55178316 L5.51144068,13.9944915 C5.26547069,14.276385 5.1249164,14.2412438 5.23033212,13.8539267 L6.01144068,10.4944915 L4.78159072,10.4944915 C4.39506645,10.4944915 4.18423503,10.212598 4.28965074,9.82528092 L5.09783786,7.16370213 Z" id="path-9"></path>
        <filter x="-319.7%" y="-104.1%" width="739.3%" height="516.4%" filterUnits="objectBoundingBox" id="filter-10">
            <feOffset dx="0" dy="8" in="SourceAlpha" result="shadowOffsetOuter1"></feOffset>
            <feGaussianBlur stdDeviation="4" in="shadowOffsetOuter1" result="shadowBlurOuter1"></feGaussianBlur>
            <feColorMatrix values="0 0 0 0 0   0 0 0 0 0.505882353   0 0 0 0 1  0 0 0 0.3 0" type="matrix" in="shadowBlurOuter1"></feColorMatrix>
        </filter>
    </defs>
    <g id="Security-Center-24px" stroke="none" stroke-width="1" fill="none" fill-rule="evenodd">
        <g id="路径-13备份-13" filter="url(#filter-1)" transform="translate(1.000000, 1.000000)">
            <rect id="蒙版" stroke-opacity="0.08" stroke="#000000" fill="url(#linearGradient-2)" x="0" y="0" width="22" height="22" rx="11"></rect>
            <rect id="蒙版" fill="url(#linearGradient-3)" x="0" y="0" width="22" height="22" rx="11"></rect>
            <rect id="蒙版备份" stroke="url(#linearGradient-4)" x="0.5" y="0.5" width="21" height="21" rx="10.5"></rect>
            <g id="编组" transform="translate(4.488559, 1.505508)">
                <path d="M6.51144068,0.49437565 C9.50519671,0.49437565 12.1575482,1.95610203 13.7937286,4.20478806 L6.51144068,9.49013836 Z" id="形状结合" fill="url(#linearGradient-5)"></path>
                <g id="路径">
                    <use fill="black" fill-opacity="1" filter="url(#filter-8)" xlink:href="#path-7"></use>
                    <use fill="url(#linearGradient-6)" fill-rule="evenodd" xlink:href="#path-7"></use>
                </g>
                <g id="路径" fill-rule="nonzero">
                    <use fill="black" fill-opacity="1" filter="url(#filter-10)" xlink:href="#path-9"></use>
                    <use fill="#0081FF" xlink:href="#path-9"></use>
                </g>
            </g>
        </g>
    </g>
</svg>