<?xml version="1.0" encoding="UTF-8"?>
<svg width="24px" height="24px" viewBox="0 0 24 24" version="1.1" xmlns="http://www.w3.org/2000/svg" xmlns:xlink="http://www.w3.org/1999/xlink">
    <!-- Generator: Sketch 63.1 (92452) - https://sketch.com -->
    <title>-mockplus-</title>
    <desc>Created with Sketch.</desc>
    <g id="Q4新需求" stroke="none" stroke-width="1" fill="none" fill-rule="evenodd">
        <g id="color" transform="translate(-1105.000000, -617.000000)" fill="#536076">
            <g id="编组-6" transform="translate(1105.000000, 617.000000)">
                <g id="编组-93">
                    <g id="-mockplus-">
                        <g id="icon/transmit" transform="translate(6.000000, 5.000000)">
                            <path d="M7.21915643,0 C7.47715976,-3.96694767e-16 7.72517912,0.0997185135 7.91137661,0.278313626 L7.91137661,0.278313626 L11.6922202,3.90478672 C11.8888397,4.09337838 12,4.35402848 12,4.62647309 L12,4.62647309 L12,13 C12,13.5522847 11.5522847,14 11,14 L11,14 L1,14 C0.44771525,14 0,13.5522847 0,13 L0,13 L0,1 C0,0.44771525 0.44771525,-1.01453063e-16 1,0 L1,0 Z M6.2,4.59108696 C6.08954305,4.59108696 6,4.68063001 6,4.79108696 L6,4.79108696 L6,6.9990111 L2.9,7 C2.62385763,7 2.4,7.22385763 2.4,7.5 L2.4,7.5 L2.4,7.83333333 C2.4,8.10947571 2.62385763,8.33333333 2.9,8.33333333 L2.9,8.33333333 L5.999,8.3330111 L6,10.5422464 C6,10.5926304 6.01901653,10.6411581 6.05324787,10.678128 C6.1282932,10.759177 6.25483264,10.7640439 6.33588161,10.6889985 L6.33588161,10.6889985 L9.20376924,8.033547 C9.21317295,8.02483986 9.22223842,8.01577439 9.23094556,8.00637068 C9.4185589,7.80374827 9.40639165,7.48739968 9.20376924,7.29978633 L9.20376924,7.29978633 L6.33588161,4.64433482 C6.29891177,4.61010349 6.25038406,4.59108696 6.2,4.59108696 Z" id="形状结合"></path>
                        </g>
                    </g>
                </g>
            </g>
        </g>
    </g>
</svg>
