<?xml version="1.0" encoding="UTF-8"?>
<svg width="24px" height="24px" viewBox="0 0 24 24" version="1.1" xmlns="http://www.w3.org/2000/svg" xmlns:xlink="http://www.w3.org/1999/xlink">
    <!-- Generator: Sketch 63.1 (92452) - https://sketch.com -->
    <title>-mockplus-</title>
    <desc>Created with Sketch.</desc>
    <g id="Q4新需求" stroke="none" stroke-width="1" fill="none" fill-rule="evenodd">
        <g id="color" transform="translate(-1380.000000, -617.000000)" fill="#FF5736">
            <g id="编组-6" transform="translate(1105.000000, 617.000000)">
                <g id="编组-91" transform="translate(275.000000, 0.000000)">
                    <g id="-mockplus-">
                        <g id="icon/reply备份" transform="translate(6.000000, 5.000000)">
                            <path d="M2.1798,12.8514167 C2.8608,13.6173333 4.4208,14 5.9802,14 C7.5408,14 9.0996,13.6173333 9.7812,12.8514167 C9.8298,12.61575 12,2.07841667 12,1.83691667 C12,0.394333333 7.5972,0 6,0 C3.0048,0 0,0.7245 0,1.834 C0,2.07083333 2.1336,12.6186667 2.1798,12.8514167 Z M6.0306,3.00241667 C3.504,3.00241667 1.4556,2.56725 1.4556,2.03 C1.4556,1.49275 3.504,1.05758333 6.0306,1.05758333 C8.5572,1.05758333 10.605,1.49275 10.605,2.03 C10.605,2.56725 8.5572,3.00241667 6.0306,3.00241667 Z" id="形状结合"></path>
                        </g>
                    </g>
                </g>
            </g>
        </g>
    </g>
</svg>
