<?xml version="1.0" encoding="UTF-8"?>
<svg width="24px" height="24px" viewBox="0 0 24 24" version="1.1" xmlns="http://www.w3.org/2000/svg" xmlns:xlink="http://www.w3.org/1999/xlink">
    <!-- Generator: Sketch 63.1 (92452) - https://sketch.com -->
    <title>-mockplus-</title>
    <desc>Created with Sketch.</desc>
    <g id="Q4新需求" stroke="none" stroke-width="1" fill="none" fill-rule="evenodd">
        <g id="color" transform="translate(-1283.000000, -617.000000)" fill="#536076">
            <g id="编组-6" transform="translate(1105.000000, 617.000000)">
                <g id="编组-92" transform="translate(178.000000, 0.000000)">
                    <g id="-mockplus-">
                        <g id="icon/replyall" transform="translate(7.000000, 5.000000)">
                            <path d="M8,13 L8,14 L2,14 L2,13 L8,13 Z M1,7 C1,9.209139 2.790861,11 5,11 C7.209139,11 9,9.209139 9,7 L10,7 C10,9.41895791 8.28224032,11.4367116 6,11.8999819 L6,13 L4,13 L4,11.8999819 C1.71775968,11.4367116 0,9.41895791 0,7 L1,7 Z M2,7 L8,7 C8,8.65685425 6.65685425,10 5,10 C3.40231912,10 2.09633912,8.75108004 2.00509269,7.17627279 L2,7 Z M5,0 C6.65685425,-3.04359188e-16 8,1.34314575 8,3 L8,6 L2,6 L2,3 C2,1.34314575 3.34314575,3.04359188e-16 5,0 Z" id="Combined-Shape"></path>
                        </g>
                    </g>
                </g>
            </g>
        </g>
    </g>
</svg>
