<?xml version="1.0" encoding="UTF-8"?>
<svg width="16px" height="14px" viewBox="0 0 16 14" version="1.1" xmlns="http://www.w3.org/2000/svg" xmlns:xlink="http://www.w3.org/1999/xlink">
    <!-- Generator: Sketch 58 (84663) - https://sketch.com -->
    <title>voice3</title>
    <desc>Created with Sketch.</desc>
    <g id="浅色新版本" stroke="none" stroke-width="1" fill="none" fill-rule="evenodd">
        <g id="喇叭切图" transform="translate(-62.000000, -37.000000)" fill="#414D68" fill-rule="nonzero">
            <path d="M74.5,39 C74.7761424,39 75,39.1955259 75,39.4367194 L75,48.5632806 C75,48.8044741 74.7761424,49 74.5,49 C74.2238576,49 74,48.8044741 74,48.5632806 L74,39.4367194 C74,39.1955259 74.2238576,39 74.5,39 Z M70,39.4174322 L70,48.5825678 C70,48.9537161 69.5212703,49.1395879 69.2412859,48.8771464 L67.4740767,47.2206645 C66.9798378,46.7573929 66.3278121,46.4995824 65.6503959,46.4995824 L63.7777778,46.4995824 C62.7959382,46.4995824 62,45.7036442 62,44.7218046 L62,43.2781954 C62,42.2963558 62.7959382,41.5004176 63.7777778,41.5004176 L65.6503959,41.5004176 C66.3278121,41.5004176 66.9798378,41.2426071 67.4740767,40.7793355 L69.2412859,39.1228536 C69.5212703,38.8604121 70,39.0462839 70,39.4174322 Z M72.5,41 C72.7761424,41 73,41.2018294 73,41.4507986 L73,47.5492014 C73,47.7981706 72.7761424,48 72.5,48 C72.2238576,48 72,47.7981706 72,47.5492014 L72,41.4507986 C72,41.2018294 72.2238576,41 72.5,41 Z" id="Combined-Shape"></path>
        </g>
    </g>
</svg>