<?xml version="1.0" encoding="UTF-8"?>
<svg width="16px" height="16px" viewBox="0 0 16 16" version="1.1" xmlns="http://www.w3.org/2000/svg" xmlns:xlink="http://www.w3.org/1999/xlink">
    <title>ICON/volume/else</title>
    <g id="ICON/volume/else" stroke="none" stroke-width="1" fill="none" fill-rule="evenodd">
        <path d="M12,1 C13.1045695,1 14,1.8954305 14,3 L14,13 C14,14.1045695 13.1045695,15 12,15 L4,15 C2.8954305,15 2,14.1045695 2,13 L2,3 C2,1.8954305 2.8954305,1 4,1 L12,1 Z M12,2 L4,2 C3.44771525,2 3,2.44771525 3,3 L3,13 C3,13.5522847 3.44771525,14 4,14 L12,14 C12.5522847,14 13,13.5522847 13,13 L13,3 C13,2.44771525 12.5522847,2 12,2 Z M4.75,11.5 C5.16421356,11.5 5.5,11.8357864 5.5,12.25 C5.5,12.6642136 5.16421356,13 4.75,13 C4.33578644,13 4,12.6642136 4,12.25 C4,11.8357864 4.33578644,11.5 4.75,11.5 Z M11.25,11.5 C11.6642136,11.5 12,11.8357864 12,12.25 C12,12.6642136 11.6642136,13 11.25,13 C10.8357864,13 10.5,12.6642136 10.5,12.25 C10.5,11.8357864 10.8357864,11.5 11.25,11.5 Z M8,5 C9.65685425,5 11,6.34314575 11,8 C11,9.65685425 9.65685425,11 8,11 C6.34314575,11 5,9.65685425 5,8 C5,6.34314575 6.34314575,5 8,5 Z M8,6 C6.8954305,6 6,6.8954305 6,8 C6,9.1045695 6.8954305,10 8,10 C9.1045695,10 10,9.1045695 10,8 C10,6.8954305 9.1045695,6 8,6 Z M8,7 C8.55228475,7 9,7.44771525 9,8 C9,8.55228475 8.55228475,9 8,9 C7.44771525,9 7,8.55228475 7,8 C7,7.44771525 7.44771525,7 8,7 Z M4.75,3 C5.16421356,3 5.5,3.33578644 5.5,3.75 C5.5,4.16421356 5.16421356,4.5 4.75,4.5 C4.33578644,4.5 4,4.16421356 4,3.75 C4,3.33578644 4.33578644,3 4.75,3 Z M11.25,3 C11.6642136,3 12,3.33578644 12,3.75 C12,4.16421356 11.6642136,4.5 11.25,4.5 C10.8357864,4.5 10.5,4.16421356 10.5,3.75 C10.5,3.33578644 10.8357864,3 11.25,3 Z" id="形状结合" fill="#000000" fill-rule="nonzero"></path>
    </g>
</svg>