<?xml version="1.0" encoding="UTF-8"?>
<svg width="24px" height="24px" viewBox="0 0 24 24" version="1.1" xmlns="http://www.w3.org/2000/svg" xmlns:xlink="http://www.w3.org/1999/xlink">
    <title>ICON/volume/hdmi-24</title>
    <g id="ICON/volume/hdmi-24" stroke="none" stroke-width="1" fill="none" fill-rule="evenodd">
        <g id="ICON-/-Device-/-PC" transform="translate(1, 4)" fill="#000000" fill-rule="nonzero">
            <path d="M20.5,0 C21.3284271,-1.52179594e-16 22,0.671572875 22,1.5 L22,14.5 C22,15.3284271 21.3284271,16 20.5,16 L1.5,16 C0.671572875,16 1.01453063e-16,15.3284271 0,14.5 L0,1.5 C-1.01453063e-16,0.671572875 0.671572875,1.52179594e-16 1.5,0 L20.5,0 Z M12.5,14 L9.5,14 C9.22385763,14 9,14.2238576 9,14.5 C9,14.7761424 9.22385763,15 9.5,15 L12.5,15 C12.7761424,15 13,14.7761424 13,14.5 C13,14.2238576 12.7761424,14 12.5,14 Z M20.5,1 L1.5,1 C1.22385763,1 1,1.22385763 1,1.5 L1,12.5 C1,12.7761424 1.22385763,13 1.5,13 L20.5,13 C20.7761424,13 21,12.7761424 21,12.5 L21,1.5 C21,1.22385763 20.7761424,1 20.5,1 Z" id="形状结合"></path>
        </g>
    </g>
</svg>