<?xml version="1.0" encoding="UTF-8"?>
<svg width="24px" height="24px" viewBox="0 0 24 24" version="1.1" xmlns="http://www.w3.org/2000/svg" xmlns:xlink="http://www.w3.org/1999/xlink">
    <title>ICON/volume/loudspeaker-24</title>
    <g id="ICON/volume/loudspeaker-24" stroke="none" stroke-width="1" fill="none" fill-rule="evenodd">
        <g id="编组" transform="translate(4, 1)" fill="#000000" fill-rule="nonzero">
            <g id="ICON-/-Device-/-Bluetooth_generic">
                <path d="M13,0 C14.6568542,0 16,1.34314575 16,3 L16,18 C16,19.6568542 14.6568542,21 13,21 L3,21 C1.34314575,21 0,19.6568542 0,18 L0,3 C0,1.34314575 1.34314575,0 3,0 L13,0 Z M13,1 L3,1 C1.8954305,1 1,1.8954305 1,3 L1,18 C1,19.1045695 1.8954305,20 3,20 L13,20 C14.1045695,20 15,19.1045695 15,18 L15,3 C15,1.8954305 14.1045695,1 13,1 Z M7,9 C9.76142375,9 12,11.2385763 12,14 C12,16.7614237 9.76142375,19 7,19 C4.23857625,19 2,16.7614237 2,14 C2,11.2385763 4.23857625,9 7,9 Z M7,10.1 C4.84608948,10.1 3.1,11.8460895 3.1,14 C3.1,16.1539105 4.84608948,17.9 7,17.9 C9.15391052,17.9 10.9,16.1539105 10.9,14 C10.9,11.8460895 9.15391052,10.1 7,10.1 Z M7,12 C8.1045695,12 9,12.8954305 9,14 C9,15.1045695 8.1045695,16 7,16 C5.8954305,16 5,15.1045695 5,14 C5,12.8954305 5.8954305,12 7,12 Z M11,2 C12.6568542,2 14,3.34314575 14,5 C14,6.65685425 12.6568542,8 11,8 C9.34314575,8 8,6.65685425 8,5 C8,3.34314575 9.34314575,2 11,2 Z M11,3 C9.8954305,3 9,3.8954305 9,5 C9,6.1045695 9.8954305,7 11,7 C12.1045695,7 13,6.1045695 13,5 C13,3.8954305 12.1045695,3 11,3 Z M11,4 C11.5522847,4 12,4.44771525 12,5 C12,5.55228475 11.5522847,6 11,6 C10.4477153,6 10,5.55228475 10,5 C10,4.44771525 10.4477153,4 11,4 Z" id="形状结合"></path>
            </g>
        </g>
    </g>
</svg>