<?xml version="1.0" encoding="UTF-8"?>
<svg width="24px" height="24px" viewBox="0 0 24 24" version="1.1" xmlns="http://www.w3.org/2000/svg" xmlns:xlink="http://www.w3.org/1999/xlink">
    <title>ICON/volume/headphone-24</title>
    <g id="ICON/volume/headphone-24" stroke="none" stroke-width="1" fill="none" fill-rule="evenodd">
        <g id="编组" transform="translate(0.95, 1.95)" fill="#000000" fill-rule="nonzero">
            <path d="M5.55,11.05 C6.93071187,11.05 8.05,12.1692881 8.05,13.55 L8.05,17.55 C8.05,18.9307119 6.93071187,20.05 5.55,20.05 C4.16928813,20.05 3.05,18.9307119 3.05,17.55 L3.05,13.55 C3.05,12.1692881 4.16928813,11.05 5.55,11.05 Z M16.55,11.05 C17.9307119,11.05 19.05,12.1692881 19.05,13.55 L19.05,17.55 C19.05,18.9307119 17.9307119,20.05 16.55,20.05 C15.1692881,20.05 14.05,18.9307119 14.05,17.55 L14.05,13.55 C14.05,12.1692881 15.1692881,11.05 16.55,11.05 Z M11,0 C17.0758354,0 22,4.94795288 22,11.05 L22,15.45 C22,15.8089851 21.7089851,16.1 21.35,16.1 C20.9910149,16.1 20.7,15.8089851 20.7,15.45 L20.7,11.05 C20.7,5.66452432 16.356459,1.3 11,1.3 C5.64354103,1.3 1.3,5.66452432 1.3,11.05 L1.3,15.45 C1.3,15.8089851 1.00898509,16.1 0.65,16.1 C0.291014913,16.1 0,15.8089851 0,15.45 L0,11.05 C0,4.94795288 4.92416465,0 11,0 Z" id="形状结合"></path>
        </g>
    </g>
</svg>