<svg xmlns="http://www.w3.org/2000/svg" width="16" height="16" viewBox="0 0 16 16">
  <g fill="none" fill-rule="evenodd">
    <path fill="#626E88" d="M8,3 C10.7614237,3 13,5.23857625 13,8 C13,10.7614237 10.7614237,13 8,13 C5.23857625,13 3,10.7614237 3,8 C3,5.23857625 5.23857625,3 8,3 Z M7.54602031,3.79047091 L4.54602031,10.2904709 C4.43030059,10.541197 4.53974485,10.83826 4.79047091,10.9539797 C5.04119697,11.0696994 5.33825997,10.9602551 5.45397969,10.7095291 L6.242,9 L9.757,9 L10.5460203,10.7095291 C10.66174,10.9602551 10.958803,11.0696994 11.2095291,10.9539797 C11.4602551,10.83826 11.5696994,10.541197 11.4539797,10.2904709 L8.45397969,3.79047091 C8.27522836,3.40317636 7.72477164,3.40317636 7.54602031,3.79047091 Z M8,5.19315176 L9.295,8 L6.703,8 L8,5.19315176 Z"/>
    <circle cx="8" cy="8" r="6.5" stroke="#626E88"/>
    <path fill="#626E88" d="M12.4393398,11.9018536 C12.7252312,11.9793006 13.0348436,12.0180241 13.3681769,12.0180241 C13.7015102,12.0180241 14.038071,11.9632005 14.3778593,11.8535534 L14.3595929,14.8596297 C14.3562515,15.4095329 13.9095247,15.8535534 13.3596114,15.8535534 L13.3535534,15.8535534 C12.8131279,15.8535534 12.3750265,15.415452 12.3750265,14.8750265 C12.3750265,14.8679467 12.3751034,14.8608671 12.375257,14.8537889 L12.4393398,11.9018536 L12.4393398,11.9018536 Z" transform="rotate(-45 13.366 13.854)"/>
  </g>
</svg>
