<?xml version="1.0" encoding="UTF-8"?>
<svg width="20px" height="20px" viewBox="0 0 20 20" version="1.1" xmlns="http://www.w3.org/2000/svg" xmlns:xlink="http://www.w3.org/1999/xlink">
    <title>编组 2</title>
    <g id="1070" stroke="none" stroke-width="1" fill="none" fill-rule="evenodd">
        <g id="打印机-打印驱动下载导航" transform="translate(-1301, -301)">
            <g id="编组-2" transform="translate(1301, 301)">
                <rect id="矩形备份-3" opacity="0.405908494" x="0" y="0" width="20" height="20"></rect>
                <path d="M3,6 L3,5 L17,5 L17,6 L15,6 L15,16 L5,16 L5,6 L3,6 Z M11.4497475,8.37867966 L10.0355339,9.79289322 L8.62132034,8.37867966 L7.91421356,9.08578644 L9.32772002,10.4992929 L7.91421356,11.9142136 L8.62132034,12.6213203 L10.0348268,11.2063997 L11.4497475,12.6213203 L12.1568542,11.9142136 L10.7426407,10.5 L12.1568542,9.08578644 L11.4497475,8.37867966 Z M7,3 L13,3 L13,4 L7,4 Z" id="形状结合" fill-opacity="0.7" fill="#000000"></path>
            </g>
        </g>
    </g>
</svg>