<svg xmlns="http://www.w3.org/2000/svg" width="24" height="24" viewBox="0 0 24 24">
  <path fill="#48546D" fill-rule="evenodd" d="M12.4961389,2.14732129 C12.6511702,2.2359106 12.7796538,2.36439422 12.8682431,2.5194255 L23.1450635,20.5038611 C23.4190734,20.9833785 23.2524767,21.5942332 22.7729593,21.8682431 C22.6218616,21.9545847 22.4508473,22 22.2768203,22 L1.72317968,22 C1.17089493,22 0.723179678,21.5522847 0.723179678,21 C0.723179678,20.8259731 0.768594996,20.6549588 0.854936536,20.5038611 L11.1317569,2.5194255 C11.4057668,2.03990805 12.0166215,1.87331133 12.4961389,2.14732129 Z M12,17 C11.4477153,17 11,17.4477153 11,18 C11,18.5522847 11.4477153,19 12,19 C12.5522847,19 13,18.5522847 13,18 C13,17.4477153 12.5522847,17 12,17 Z M12,8 C11.4871642,8 11.0644928,8.38604019 11.0067277,8.88337887 L11,9 L11,15 C11,15.5522847 11.4477153,16 12,16 C12.5128358,16 12.9355072,15.6139598 12.9932723,15.1166211 L13,15 L13,9 C13,8.44771525 12.5522847,8 12,8 Z"/>
</svg>
