<svg xmlns="http://www.w3.org/2000/svg" width="16" height="16" viewBox="0 0 16 16">
  <g fill="none" fill-rule="evenodd">
    <path fill="#626E88" d="M7.5,1 C9.43299662,1 11,2.56700338 11,4.5 C11,5.45301229 10.6191055,6.31706189 10.0012456,6.94821962 L10,4.5 C10,3.11928813 8.88071187,2 7.5,2 C6.11928813,2 5,3.11928813 5,4.5 L5,4.5 L4.99972609,6.94921181 C4.3812939,6.31796758 4,5.45351177 4,4.5 C4,2.56700338 5.56700338,1 7.5,1 Z"/>
    <path fill="#626E88" fill-rule="nonzero" d="M6,9.77472304 L6,4.5 C6,3.67157288 6.67157288,3 7.5,3 C8.32842712,3 9,3.67157288 9,4.5 L9,7.715 C9,7.87240115 9.12759885,8 9.285,8 L13,8 C13.5522847,8 14,8.44771525 14,9 L14,14 C14,14.5522847 13.5522847,15 13,15 L6.48886444,15 C6.19105478,15 5.90874129,14.8672645 5.71876235,14.6379207 L2.63821757,10.9190664 C2.14699056,10.3260539 2.2091536,9.45153947 2.7793237,8.93397415 C3.35769977,8.40895997 4.23996335,8.4081599 4.81929066,8.93212425 L5.83292197,9.84888865 C5.8738825,9.88593483 5.93711944,9.88276161 5.97416561,9.84180107 C5.99079325,9.82341653 6,9.79951154 6,9.77472304 Z"/>
  </g>
</svg>
