<svg xmlns="http://www.w3.org/2000/svg" width="14" height="14" viewBox="0 0 14 14">
  <path fill="#536076" fill-rule="evenodd" d="M12,0 C12.5522847,-1.01453063e-16 13,0.44771525 13,1 L13,13.190983 C13,13.4671254 12.7761424,13.690983 12.5,13.690983 C12.4223775,13.690983 12.3458209,13.6729105 12.2763932,13.6381966 L7.4472136,11.2236068 C7.1656861,11.0828431 6.8343139,11.0828431 6.5527864,11.2236068 L1.7236068,13.6381966 C1.47661755,13.7616912 1.17628103,13.6615791 1.0527864,13.4145898 C1.01807255,13.3451621 1,13.2686056 1,13.190983 L1,1 C1,0.44771525 1.44771525,1.01453063e-16 2,0 L12,0 Z M8.5,7 L3.5,7 C3.22385763,7 3,7.22385763 3,7.5 C3,7.77614237 3.22385763,8 3.5,8 L8.5,8 C8.77614237,8 9,7.77614237 9,7.5 C9,7.22385763 8.77614237,7 8.5,7 Z M10.5,4 L3.5,4 C3.22385763,4 3,4.22385763 3,4.5 C3,4.77614237 3.22385763,5 3.5,5 L10.5,5 C10.7761424,5 11,4.77614237 11,4.5 C11,4.22385763 10.7761424,4 10.5,4 Z"/>
</svg>
