<svg xmlns="http://www.w3.org/2000/svg" width="14" height="14" viewBox="0 0 14 14">
  <path fill="#536076" fill-rule="evenodd" d="M7,0 C10.8659932,0 14,3.13400675 14,7 C14,10.8659932 10.8659932,14 7,14 C3.13400675,14 0,10.8659932 0,7 C0,3.13400675 3.13400675,0 7,0 Z M7,1.5 C6.72385763,1.5 6.5,1.72385763 6.5,2 L6.5,7 C6.5,7.17563143 6.59214942,7.33838484 6.74275212,7.42874646 L9.24275212,8.92874646 C9.47954226,9.07082054 9.78667238,8.99403801 9.92874646,8.75724788 C10.0708205,8.52045774 9.99403801,8.21332762 9.75724788,8.07125354 L7.5,6.71690481 L7.5,2 C7.5,1.72385763 7.27614237,1.5 7,1.5 Z"/>
</svg>
