<svg xmlns="http://www.w3.org/2000/svg" width="16" height="16" viewBox="0 0 16 16">
  <g fill="none" fill-rule="evenodd">
    <path fill="#626E88" d="M14,13.5 C14,14.3284271 11.5375661,15 8.5,15 C5.46243388,15 3,14.3284271 3,13.5 C3,12.927409 4.17637275,12.4297517 5.90594059,12.1769855 C5.93983949,12.2179893 5.9733102,12.258431 6.00681864,12.2987219 C5.38372813,12.4790067 5,12.7266998 5,13 C5,13.5522847 6.56700338,14 8.5,14 C10.4329966,14 12,13.5522847 12,13 C12,12.7093468 11.5659957,12.4476557 10.8730456,12.2649432 L10.9533024,12.1571232 C12.7594908,12.4030334 14,12.9120072 14,13.5 Z"/>
    <path fill="#626E88" d="M8.5,0 C11.5375661,0 14,2.40839928 14,5.37931034 C14,7.29676353 12.281719,9.89492701 8.84515701,13.1738008 C8.65197466,13.3581189 8.34805582,13.3581189 8.15487339,13.173801 L8.15487339,13.173801 L7.83771434,12.8684152 C4.61257145,9.73321429 3,7.236846 3,5.37931034 C3,2.40839928 5.46243388,0 8.5,0 Z M8.5,3 C7.11928813,3 6,4.11928813 6,5.5 C6,6.88071187 7.11928813,8 8.5,8 C9.88071187,8 11,6.88071187 11,5.5 C11,4.11928813 9.88071187,3 8.5,3 Z"/>
  </g>
</svg>
