<?xml version="1.0" encoding="UTF-8"?>
<svg width="18px" height="18px" viewBox="0 0 18 18" version="1.1" xmlns="http://www.w3.org/2000/svg" xmlns:xlink="http://www.w3.org/1999/xlink">
    <title>icon/功能图标/链接</title>
    <g id="icon/功能图标/链接" stroke="none" stroke-width="1" fill="none" fill-rule="evenodd" fill-opacity="0.7">
        <path d="M5.02103062,8.4933964 C5.26973234,8.74209813 5.29736587,9.12815402 5.10393119,9.4073789 L5.02103062,9.5066036 L3.15204187,11.3755923 C2.19317454,12.3344597 2.19317454,13.8890908 3.15204187,14.8479581 C4.0604425,15.7563588 5.50354525,15.8041693 6.46823032,14.9913898 L6.62440765,14.8479581 L8.46627889,13.0060869 C8.74606833,12.7262975 9.19969665,12.7262975 9.47948609,13.0060869 C9.72818782,13.2547886 9.75582134,13.6408445 9.56238667,13.9200694 L9.47948609,14.0192941 L7.63761486,15.8611653 C6.11916864,17.3796116 3.65728089,17.3796116 2.13883467,15.8611653 C0.676627194,14.3989579 0.622471361,12.0618993 1.97636717,10.534888 L2.13883467,10.3623851 L4.00782341,8.4933964 C4.28761285,8.21360695 4.74124117,8.21360695 5.02103062,8.4933964 Z M10.8689887,6.79019725 C11.1487782,7.06998669 11.1487782,7.52361501 10.8689887,7.80340445 L8.14421846,10.5281747 C7.86442902,10.8079642 7.4108007,10.8079642 7.13101126,10.5281747 C6.85122181,10.2483853 6.85122181,9.79475698 7.13101126,9.51496753 L9.85578154,6.79019725 C10.135571,6.5104078 10.5891993,6.5104078 10.8689887,6.79019725 Z M15.8611653,2.13883467 C17.3233728,3.60104214 17.3775286,5.93810074 16.0236328,7.465112 L15.8611653,7.63761486 L13.9921766,9.5066036 C13.7123871,9.78639305 13.2587588,9.78639305 12.9789694,9.5066036 C12.7302677,9.25790187 12.7026341,8.87184598 12.8960688,8.5926211 L12.9789694,8.4933964 L14.8479581,6.62440765 C15.8068255,5.66554032 15.8068255,4.1109092 14.8479581,3.15204187 C13.9395575,2.24364124 12.4964547,2.19583068 11.5317697,3.00861019 L11.3755923,3.15204187 L9.5066036,5.02103062 C9.22681416,5.30082006 8.77318584,5.30082006 8.4933964,5.02103062 C8.24469467,4.77232889 8.21706114,4.38627299 8.41049582,4.10704811 L8.4933964,4.00782341 L10.3623851,2.13883467 C11.8808314,0.620388445 14.3427191,0.620388445 15.8611653,2.13883467 Z" id="形状" fill="#000000"></path>
    </g>
</svg>