<?xml version="1.0" encoding="UTF-8"?>
<svg width="18px" height="18px" viewBox="0 0 18 18" version="1.1" xmlns="http://www.w3.org/2000/svg" xmlns:xlink="http://www.w3.org/1999/xlink">
    <title>icon/功能图标/断开链接</title>
    <g id="icon/功能图标/断开链接" stroke="none" stroke-width="1" fill="none" fill-rule="evenodd" fill-opacity="0.7">
        <path d="M7.56723099,3.0877307 C7.96302038,3.0877307 8.28387107,3.39916745 8.28387107,3.78334416 L8.28387107,16.3043865 C8.28387107,16.6885632 7.96302038,17 7.56723099,17 C7.1714416,17 6.85059091,16.6885632 6.85059091,16.3043865 L6.85050188,16.0197711 C5.36073115,16.8661752 3.41519469,16.6692663 2.13748416,15.4290446 C0.618625934,13.9547505 0.618625934,11.5644475 2.15080385,10.0775557 L6.63759392,5.9427836 C6.70137906,5.88400282 6.77338966,5.83884881 6.84981057,5.80722544 L6.85059091,3.78334416 C6.85059091,3.39916745 7.1714416,3.0877307 7.56723099,3.0877307 Z M6.84921634,7.66536822 L3.15096628,11.0738994 C2.19183877,12.0048856 2.19183877,13.5143124 3.15096628,14.4452986 C4.05367452,15.3215208 5.48426134,15.3730633 6.44907295,14.599926 L6.62427423,14.4452986 C6.69107337,14.3804593 6.76777873,14.3310962 6.84966142,14.297209 L6.84921634,7.66536822 Z M15.8635381,2.10572057 C17.3261424,3.52541117 17.3803129,5.79451469 16.00679,7.29505551 L15.8419696,7.464692 L12.2259834,10.6933827 C11.9346928,10.9534742 11.4813359,10.9351107 11.2133826,10.6523667 C10.9752018,10.4010388 10.9636852,10.0254156 11.1686492,9.76237599 L11.2556383,9.66947617 L14.850056,6.46086574 C15.8091835,5.52987956 15.8091835,4.02045274 14.850056,3.08946656 C13.8909285,2.15848039 12.3358756,2.15848039 11.3767481,3.08946656 C11.0968827,3.36112052 10.6431313,3.36112052 10.363266,3.08946656 C10.0834006,2.81781261 10.0834006,2.37737452 10.363266,2.10572057 C11.8821242,0.631426478 14.3446799,0.631426478 15.8635381,2.10572057 Z" id="形状" fill="#000000"></path>
    </g>
</svg>