<?xml version="1.0" encoding="UTF-8"?>
<svg width="24px" height="24px" viewBox="0 0 24 24" version="1.1" xmlns="http://www.w3.org/2000/svg" xmlns:xlink="http://www.w3.org/1999/xlink">
    <title>icon/设置/右侧</title>
    <g id="icon/设置/右侧" stroke="none" stroke-width="1" fill="none" fill-rule="evenodd">
        <rect id="矩形" x="0" y="0" width="24" height="24" rx="1"></rect>
        <path d="M18.75,6 C19.9926407,6 21,6.8954305 21,8 L21,17 C21,18.1045695 19.9926407,19 18.75,19 L5.25,19 C4.00735931,19 3,18.1045695 3,17 L3,8 C3,6.8954305 4.00735931,6 5.25,6 L18.75,6 Z M18.8571429,7 L5.14285714,7 C4.55675904,7 4.0737061,7.38604019 4.00768884,7.88337887 L4,8 L4,17 C4,17.5128358 4.44118879,17.9355072 5.00957586,17.9932723 L5.14285714,18 L18.8571429,18 C19.443241,18 19.9262939,17.6139598 19.9923112,17.1166211 L20,17 L20,8 C20,7.48716416 19.5588112,7.06449284 18.9904241,7.00672773 L18.8571429,7 Z M10,9 L10,16 L6,12.5 L10,9 Z" id="形状结合" fill-opacity="0.7" fill="#000000" transform="translate(12, 12.5) scale(-1, 1) translate(-12, -12.5)"></path>
    </g>
</svg>