<?xml version="1.0" encoding="UTF-8"?>
<svg width="18px" height="18px" viewBox="0 0 18 18" version="1.1" xmlns="http://www.w3.org/2000/svg" xmlns:xlink="http://www.w3.org/1999/xlink">
    <title>icon/功能图标/历史</title>
    <g id="icon/功能图标/历史" stroke="none" stroke-width="1" fill="none" fill-rule="evenodd" fill-opacity="0.7">
        <path d="M13.75,1 C14.3368025,1 14.8125,1.47358324 14.8125,2.05777778 L14.8129145,5.86568155 C16.7048295,6.82871058 18,8.78822032 18,11.0488889 C18,14.2619588 15.383664,16.8666667 12.15625,16.8666667 C10.9055177,16.8666667 9.74655871,16.4754851 8.79608054,15.809311 L2.0625,15.8088889 C1.47569745,15.8088889 1,15.3353056 1,14.7511111 L1,2.05777778 C1,1.47358324 1.47569745,1 2.0625,1 L13.75,1 Z M12.1386933,6.48385914 C9.55759887,6.48385914 7.46520843,8.56966461 7.46520843,11.142636 C7.46520843,13.7156075 9.55759887,15.8014129 12.1386933,15.8014129 C14.7197877,15.8014129 16.8121781,13.7156075 16.8121781,11.142636 C16.8121781,8.56966461 14.7197877,6.48385914 12.1386933,6.48385914 Z M8.14519477,6.71308715 L2.35677774,6.71291468 L2.35677774,14.7228222 L7.2587003,14.7245673 C6.66029648,13.8115838 6.3125,12.220372 6.3125,11.0488889 C6.3125,9.4799502 6.93632834,7.95120375 7.95051689,6.90480627 L8.14519477,6.71308715 Z M11.8399754,9 C12.1656569,9 12.4296738,9.26401695 12.4296738,9.58969836 L12.4292771,11.39 L13.619002,11.3904554 C13.9446834,11.3904554 14.2087004,11.6544723 14.2087004,11.9801537 C14.2087004,12.3058351 13.9446834,12.5698521 13.619002,12.5698521 L11.8399754,12.5698521 C11.514294,12.5698521 11.2502771,12.3058351 11.2502771,11.9801537 L11.2502771,9.58969836 C11.2502771,9.26401695 11.514294,9 11.8399754,9 Z M13.6764438,2.37932208 L2.36,2.37932208 L2.36,5.42953359 L13.6764438,5.42953359 L13.6764438,2.37932208 Z" id="形状" fill="#000000"></path>
    </g>
</svg>