<?xml version="1.0" encoding="UTF-8"?>
<svg width="16px" height="16px" viewBox="0 0 16 16" version="1.1" xmlns="http://www.w3.org/2000/svg" xmlns:xlink="http://www.w3.org/1999/xlink">
    <title>ICON / Action / Reset</title>
    <g id="ICON-/-Action-/-Reset" stroke="none" stroke-width="1" fill="none" fill-rule="evenodd">
        <g id="编组">
            <path d="M15,6.50010708 L15,3.0003571 L13.8568261,4.14177556 C12.5603812,2.18054243 10.3642834,1.00032085 8.01076576,1 C4.13909653,1 1,4.13377613 1,8 C1,11.8662237 4.13909653,15 8.01076576,15 C10.8648729,15.0005676 13.4344737,13.2736542 14.50828,10.6333118 C14.589051,10.4347756 14.5576057,10.208296 14.4257894,10.0391856 C14.2939731,9.87007525 14.0818117,9.78402598 13.8692245,9.81345176 C13.6566372,9.84287754 13.475921,9.98330789 13.39515,10.1818441 C12.504993,12.3695509 10.3757549,13.8003733 8.01076576,13.8000856 C4.80256805,13.8000856 2.20175972,11.2032711 2.20175972,8 C2.20175972,4.79672877 4.80256805,2.19991428 8.01076576,2.19991428 C10.0833005,2.19991428 11.9530384,3.29483606 12.9870525,5.00971355 L11.4948675,6.50010708 L15,6.50010708 Z" id="路径" fill-opacity="0.7" fill="#000000" transform="translate(8, 8) scale(-1, 1) translate(-8, -8)"></path>
            <rect id="矩形" x="0" y="0" width="16" height="16"></rect>
        </g>
    </g>
</svg>