<?xml version="1.0" encoding="UTF-8"?>
<svg width="17px" height="17px" viewBox="0 0 17 17" version="1.1" xmlns="http://www.w3.org/2000/svg" xmlns:xlink="http://www.w3.org/1999/xlink">
    <title>search_icon</title>
    <g id="控件" stroke="none" stroke-width="1" fill="none" fill-rule="evenodd" fill-opacity="0.7">
        <g id="entry/search_light" transform="translate(-150, -9)" fill="#000000">
            <g id="Group" transform="translate(150, 7)">
                <g id="编组" transform="translate(0, 2.4)">
                    <path d="M6.6,0 C10.2450793,0 13.2,2.95492065 13.2,6.6 C13.2,8.20636125 12.6261237,9.67868651 11.6722057,10.8231412 L16.4242641,15.5757359 C16.6585786,15.8100505 16.6585786,16.1899495 16.4242641,16.4242641 C16.1899495,16.6585786 15.8100505,16.6585786 15.5757359,16.4242641 L10.8231412,11.6722057 C9.67868651,12.6261237 8.20636125,13.2 6.6,13.2 C2.95492065,13.2 0,10.2450793 0,6.6 C0,2.95492065 2.95492065,0 6.6,0 Z M6.6,1.2 C3.61766235,1.2 1.2,3.61766235 1.2,6.6 C1.2,9.58233765 3.61766235,12 6.6,12 C9.58233765,12 12,9.58233765 12,6.6 C12,3.61766235 9.58233765,1.2 6.6,1.2 Z" id="search_icon"></path>
                </g>
            </g>
        </g>
    </g>
</svg>