<svg xmlns="http://www.w3.org/2000/svg" width="48" height="48" viewBox="0 0 48 48">
  <defs>
    <filter id="deepin-virtualkeyboard-b" width="131%" height="134.2%" x="-15.5%" y="-17.1%" filterUnits="objectBoundingBox">
      <feOffset dy="1" in="SourceAlpha" result="shadowOffsetOuter1"/>
      <feGaussianBlur in="shadowOffsetOuter1" result="shadowBlurOuter1" stdDeviation="1"/>
      <feColorMatrix in="shadowBlurOuter1" result="shadowMatrixOuter1" values="0 0 0 0 0   0 0 0 0 0   0 0 0 0 0  0 0 0 0.2 0"/>
      <feMerge>
        <feMergeNode in="shadowMatrixOuter1"/>
        <feMergeNode in="SourceGraphic"/>
      </feMerge>
    </filter>
    <linearGradient id="deepin-virtualkeyboard-a" x1="50%" x2="50%" y1="5.443%" y2="97.382%">
      <stop offset="0%" stop-color="#F9F9F9"/>
      <stop offset="100%" stop-color="#E5E5E5"/>
    </linearGradient>
  </defs>
  <g fill="none" fill-rule="evenodd">
    <g fill="url(#deepin-virtualkeyboard-a)" fill-rule="nonzero" filter="url(#deepin-virtualkeyboard-b)" transform="translate(3 5)">
      <path d="M42,8 L42,30 C42,34.418278 38.418278,38 34,38 L8,38 C3.581722,38 5.41083001e-16,34.418278 0,30 L0,8 C-5.41083001e-16,3.581722 3.581722,8.11624501e-16 8,0 L34,0 C38.418278,-8.11624501e-16 42,3.581722 42,8 Z"/>
    </g>
    <path fill="#383838" fill-rule="nonzero" d="M33,16 L34,16 C35.1045695,16 36,16.8954305 36,18 L36,19 C36,20.1045695 35.1045695,21 34,21 L33,21 C31.8954305,21 31,20.1045695 31,19 L31,18 C31,16.8954305 31.8954305,16 33,16 Z M27,16 L28,16 C29.1045695,16 30,16.8954305 30,18 L30,19 C30,20.1045695 29.1045695,21 28,21 L27,21 C25.8954305,21 25,20.1045695 25,19 L25,18 C25,16.8954305 25.8954305,16 27,16 Z M21,16 L22,16 C23.1045695,16 24,16.8954305 24,18 L24,19 C24,20.1045695 23.1045695,21 22,21 L21,21 C19.8954305,21 19,20.1045695 19,19 L19,18 C19,16.8954305 19.8954305,16 21,16 Z M27,24 L27,25 C27,26.1045695 26.1045695,27 25,27 L24,27 C22.8954305,27 22,26.1045695 22,25 L22,24 C22,22.8954305 22.8954305,22 24,22 L25,22 C26.1045695,22 27,22.8954305 27,24 Z M15,16 L16,16 C17.1045695,16 18,16.8954305 18,18 L18,19 C18,20.1045695 17.1045695,21 16,21 L15,21 C13.8954305,21 13,20.1045695 13,19 L13,18 C13,16.8954305 13.8954305,16 15,16 Z M15,22 L19,22 C20.1045695,22 21,22.8954305 21,24 L21,25 C21,26.1045695 20.1045695,27 19,27 L15,27 C13.8954305,27 13,26.1045695 13,25 L13,24 C13,22.8954305 13.8954305,22 15,22 Z M28,33 L21,33 C19.8954305,33 19,32.1045695 19,31 L19,30 C19,28.8954305 19.8954305,28 21,28 L28,28 C29.1045695,28 30,28.8954305 30,30 L30,31 C30,32.1045695 29.1045695,33 28,33 Z M16,33 L15,33 C13.8954305,33 13,32.1045695 13,31 L13,30 C13,28.8954305 13.8954305,28 15,28 L16,28 C17.1045695,28 18,28.8954305 18,30 L18,31 C18,32.1045695 17.1045695,33 16,33 Z M34,27 L30,27 C28.8954305,27 28,26.1045695 28,25 L28,24 C28,22.8954305 28.8954305,22 30,22 L34,22 C35.1045695,22 36,22.8954305 36,24 L36,25 C36,26.1045695 35.1045695,27 34,27 Z M34,33 L33,33 C31.8954305,33 31,32.1045695 31,31 L31,30 C31,28.8954305 31.8954305,28 33,28 L34,28 C35.1045695,28 36,28.8954305 36,30 L36,31 C36,32.1045695 35.1045695,33 34,33 Z"/>
  </g>
</svg>
