<svg xmlns="http://www.w3.org/2000/svg" width="48" height="48" viewBox="0 0 48 48">
  <defs>
    <filter id="drive-removable-dock-a" width="131%" height="131%" x="-15.5%" y="-15.5%" filterUnits="objectBoundingBox">
      <feOffset dy="1" in="SourceAlpha" result="shadowOffsetOuter1"/>
      <feGaussianBlur in="shadowOffsetOuter1" result="shadowBlurOuter1" stdDeviation="1"/>
      <feColorMatrix in="shadowBlurOuter1" result="shadowMatrixOuter1" values="0 0 0 0 0   0 0 0 0 0   0 0 0 0 0  0 0 0 0.2 0"/>
      <feMerge>
        <feMergeNode in="shadowMatrixOuter1"/>
        <feMergeNode in="SourceGraphic"/>
      </feMerge>
    </filter>
    <linearGradient id="drive-removable-dock-b" x1="50%" x2="50%" y1="0%" y2="100%">
      <stop offset="0%" stop-color="#FFFA90"/>
      <stop offset="100%" stop-color="#FFF357"/>
    </linearGradient>
    <linearGradient id="drive-removable-dock-c" x1="50%" x2="50%" y1="0%" y2="100%">
      <stop offset="0%" stop-color="#FFFA90"/>
      <stop offset="100%" stop-color="#FFF357"/>
    </linearGradient>
  </defs>
  <g fill="none" filter="url(#drive-removable-dock-a)" transform="translate(3 3)">
    <path fill="#FF6932" d="M21,42 C32.5979797,42 42,32.5979797 42,21 C42,9.4020203 32.5979797,1.8189894e-12 21,1.8189894e-12 C9.4020203,1.8189894e-12 0,9.4020203 0,21 C0,32.5979797 9.4020203,42 21,42 Z"/>
    <g opacity=".3">
      <path fill="url(#drive-removable-dock-b)" d="M21,0 C23.1076321,0 25.1427457,0.310488922 27.0620957,0.888221823 L3.82845906,33.0917923 C1.41663927,29.6730412 0,25.5019575 0,21 C0,9.4020203 9.4020203,0 21,0 Z"/>
      <path fill="url(#drive-removable-dock-c)" d="M21,5.68434189e-14 C32.5979797,5.68434189e-14 42,9.4020203 42,21 C42,25.5675798 40.5417607,29.7945697 38.0654409,33.2408107 L15.0601004,0.851847655 C16.9435544,0.297466922 18.9370386,5.68434189e-14 21,5.68434189e-14 Z"/>
    </g>
    <path fill="#FFF" d="M21.0228079,10.3405158 L29.171108,21.5575477 C30.0978659,22.833332 29.5754089,23.8675595 27.9927882,23.8675595 L14.0618093,23.8675595 C12.4842833,23.8675595 11.9594966,22.828576 12.8819557,21.5575477 L21.0228079,10.3405158 Z M11.4480873,27.6666667 C11.4480873,27.1406812 11.8817117,26.7142857 12.3926617,26.7142857 L29.551132,26.7142857 C30.072806,26.7142857 30.4957064,27.1370141 30.4957064,27.6666667 C30.4957064,28.1926521 30.062082,28.6190476 29.551132,28.6190476 L12.3926617,28.6190476 C11.8709877,28.6190476 11.4480873,28.1963192 11.4480873,27.6666667 Z"/>
  </g>
</svg>
