<svg xmlns="http://www.w3.org/2000/svg" xmlns:xlink="http://www.w3.org/1999/xlink" width="48" height="48" viewBox="0 0 48 48">
  <defs>
    <filter id="drive-mount-failed-a" width="131%" height="131%" x="-15.5%" y="-15.5%" filterUnits="objectBoundingBox">
      <feOffset dy="1" in="SourceAlpha" result="shadowOffsetOuter1"/>
      <feGaussianBlur in="shadowOffsetOuter1" result="shadowBlurOuter1" stdDeviation="1"/>
      <feColorMatrix in="shadowBlurOuter1" result="shadowMatrixOuter1" values="0 0 0 0 0   0 0 0 0 0   0 0 0 0 0  0 0 0 0.2 0"/>
      <feMerge>
        <feMergeNode in="shadowMatrixOuter1"/>
        <feMergeNode in="SourceGraphic"/>
      </feMerge>
    </filter>
    <path id="drive-mount-failed-b" d="M41.0813985,27.1245154 C37.6991656,38.2146697 25.9652738,44.4635753 14.8748671,41.0814194 C3.78446033,37.6992635 -2.46353788,25.9656389 0.918695021,14.8754846 C4.30092792,3.78533034 16.03377,-2.46357534 27.1241767,0.918580553 C38.2145835,4.30073647 44.4636314,16.0343611 41.0813985,27.1245154"/>
    <filter id="drive-mount-failed-c" width="123.8%" height="123.8%" x="-11.9%" y="-11.9%" filterUnits="objectBoundingBox">
      <feGaussianBlur in="SourceAlpha" result="shadowBlurInner1" stdDeviation="5"/>
      <feOffset in="shadowBlurInner1" result="shadowOffsetInner1"/>
      <feComposite in="shadowOffsetInner1" in2="SourceAlpha" k2="-1" k3="1" operator="arithmetic" result="shadowInnerInner1"/>
      <feColorMatrix in="shadowInnerInner1" values="0 0 0 0 1   0 0 0 0 0.487725086   0 0 0 0 0.487725086  0 0 0 1 0"/>
    </filter>
  </defs>
  <g fill="none" filter="url(#drive-mount-failed-a)" transform="translate(3 3)">
    <use fill="#E04141" xlink:href="#drive-mount-failed-b"/>
    <use fill="#000" filter="url(#drive-mount-failed-c)" xlink:href="#drive-mount-failed-b"/>
    <path fill="#FFF" d="M29,22 C32.3137085,22 35,24.6862915 35,28 C35,31.3137085 32.3137085,34 29,34 C25.6862915,34 23,31.3137085 23,28 C23,24.6862915 25.6862915,22 29,22 Z M30.5,9 C30.7454599,9 30.9496084,9.17687516 30.9919443,9.41012437 L31,9.5 L31.0008679,20.751997 C30.6753591,20.6623381 30.3410051,20.5940197 29.9994049,20.5486409 L30,10 L12,10 L11.999,28 L21.4827882,27.9989991 L21.4827881,28 C21.4827881,28.3388385 21.5052065,28.6724409 21.5486409,28.9994049 L11.999,28.999 L12,32 L22.6340713,31.9997812 C22.8574569,32.3545678 23.1096812,32.6893694 23.3874544,33.0008962 L11.5,33 C11.2545401,33 11.0503916,32.8231248 11.0080557,32.5898756 L11,32.5 L11,9.5 C11,9.25454011 11.1768752,9.05039163 11.4101244,9.00805567 L11.5,9 L30.5,9 Z M29.023,31 L28.977,31 C28.437,31 28,31.4483112 28,32 C28,32.5132329 28.376801,32.9355639 28.862984,32.9932783 L28.977,33 L29.023,33 C29.563,33 30,32.5527124 30,32 C30,31.4483112 29.563,31 29.023,31 Z M13.5,30 C13.7761424,30 14,30.2238576 14,30.5 C14,30.7761424 13.7761424,31 13.5,31 C13.2238576,31 13,30.7761424 13,30.5 C13,30.2238576 13.2238576,30 13.5,30 Z M29,23 C28.4874286,23 28.0645306,23.3862857 28.0067318,23.8834315 L28,24 L28,29 C28,29.552 28.448,30 29,30 C29.5125714,30 29.9354694,29.6137143 29.9932682,29.1165685 L30,29 L30,24 C30,23.448 29.552,23 29,23 Z M23.3865682,23.0000979 C23.1091447,23.3113428 22.8572193,23.6458095 22.6340713,24.0002188 L16.5,24 C16.2238576,24 16,23.7761424 16,23.5 C16,23.2238576 16.2238576,23 16.5,23 L23.3865682,23.0000979 Z M21.5885963,15.3026314 L25.8827174,21.1575877 C25.3801052,21.3869385 24.9071748,21.6700398 24.4712751,21.999543 L16.4955775,22 C15.9457352,22 15.7652764,21.6382594 16.0885963,21.1973686 L20.4114037,15.3026314 C20.7364764,14.8593503 21.2652764,14.8617406 21.5885963,15.3026314 Z"/>
  </g>
</svg>
