<svg xmlns="http://www.w3.org/2000/svg" xmlns:xlink="http://www.w3.org/1999/xlink" width="48" height="48" viewBox="0 0 48 48">
  <defs>
    <filter id="notification-network-wireless-disconnected-a" width="131%" height="131%" x="-15.5%" y="-15.5%" filterUnits="objectBoundingBox">
      <feOffset dy="1" in="SourceAlpha" result="shadowOffsetOuter1"/>
      <feGaussianBlur in="shadowOffsetOuter1" result="shadowBlurOuter1" stdDeviation="1"/>
      <feColorMatrix in="shadowBlurOuter1" result="shadowMatrixOuter1" values="0 0 0 0 0   0 0 0 0 0   0 0 0 0 0  0 0 0 0.2 0"/>
      <feMerge>
        <feMergeNode in="shadowMatrixOuter1"/>
        <feMergeNode in="SourceGraphic"/>
      </feMerge>
    </filter>
    <circle id="notification-network-wireless-disconnected-b" cx="21" cy="21" r="21"/>
    <filter id="notification-network-wireless-disconnected-c" width="123.8%" height="123.8%" x="-11.9%" y="-11.9%" filterUnits="objectBoundingBox">
      <feGaussianBlur in="SourceAlpha" result="shadowBlurInner1" stdDeviation="5"/>
      <feOffset in="shadowBlurInner1" result="shadowOffsetInner1"/>
      <feComposite in="shadowOffsetInner1" in2="SourceAlpha" k2="-1" k3="1" operator="arithmetic" result="shadowInnerInner1"/>
      <feColorMatrix in="shadowInnerInner1" values="0 0 0 0 1   0 0 0 0 0.487725086   0 0 0 0 0.487725086  0 0 0 1 0"/>
    </filter>
  </defs>
  <g fill="none" filter="url(#notification-network-wireless-disconnected-a)" transform="translate(3 3)">
    <use fill="#E04141" xlink:href="#notification-network-wireless-disconnected-b"/>
    <use fill="#000" filter="url(#notification-network-wireless-disconnected-c)" xlink:href="#notification-network-wireless-disconnected-b"/>
    <path fill="#FFF" d="M35.7282568,17.5119794 C31.7948255,13.3131897 26.5695661,11 21.0136068,11 C15.4576475,11 10.2323881,13.3121883 6.29895675,17.5119794 C5.98024591,17.8524489 5.87134471,18.3621517 6.19704921,18.7276557 L20.3052495,32.9682922 C20.4930791,33.1565518 20.7468488,33.2626982 21.0136068,33.2626982 C21.2793657,33.2626982 21.5341345,33.1575532 21.720965,32.9682922 C21.720965,32.9682922 35.6743058,18.9419512 35.6832976,18.9339402 C36.0879305,18.5534154 36.1069133,17.9165373 35.7282568,17.5119794 Z M21.0146059,30.8423607 L8.46499161,18.2089404 C11.9238535,14.8633272 16.3358507,13.0127754 21.0136068,13.0127754 C25.6973574,13.0127754 30.1143501,14.8683341 33.5752102,18.220957 L21.0146059,30.8423607 Z"/>
  </g>
</svg>
