<svg xmlns="http://www.w3.org/2000/svg" xmlns:xlink="http://www.w3.org/1999/xlink" width="48" height="48" viewBox="0 0 48 48">
  <defs>
    <filter id="notification-network-proxy-enabled-a" width="131%" height="131%" x="-15.5%" y="-15.5%" filterUnits="objectBoundingBox">
      <feOffset dy="1" in="SourceAlpha" result="shadowOffsetOuter1"/>
      <feGaussianBlur in="shadowOffsetOuter1" result="shadowBlurOuter1" stdDeviation="1"/>
      <feColorMatrix in="shadowBlurOuter1" result="shadowMatrixOuter1" values="0 0 0 0 0   0 0 0 0 0   0 0 0 0 0  0 0 0 0.2 0"/>
      <feMerge>
        <feMergeNode in="shadowMatrixOuter1"/>
        <feMergeNode in="SourceGraphic"/>
      </feMerge>
    </filter>
    <circle id="notification-network-proxy-enabled-b" cx="21" cy="21" r="21"/>
    <filter id="notification-network-proxy-enabled-c" width="123.8%" height="123.8%" x="-11.9%" y="-11.9%" filterUnits="objectBoundingBox">
      <feGaussianBlur in="SourceAlpha" result="shadowBlurInner1" stdDeviation="5"/>
      <feOffset in="shadowBlurInner1" result="shadowOffsetInner1"/>
      <feComposite in="shadowOffsetInner1" in2="SourceAlpha" k2="-1" k3="1" operator="arithmetic" result="shadowInnerInner1"/>
      <feColorMatrix in="shadowInnerInner1" values="0 0 0 0 1   0 0 0 0 1   0 0 0 0 1  0 0 0 0.5 0"/>
    </filter>
  </defs>
  <g fill="none" filter="url(#notification-network-proxy-enabled-a)" transform="translate(3 3)">
    <use fill="#35C5CC" xlink:href="#notification-network-proxy-enabled-b"/>
    <use fill="#000" filter="url(#notification-network-proxy-enabled-c)" xlink:href="#notification-network-proxy-enabled-b"/>
    <path fill="#FFF" d="M27.02,13.031 L25.02,10 L17.02,10 L15.02,13.016 L15.02,31.143 C15.02,31.616 15.404,32 15.877,32 L26.163,32 C26.636,32 27.02,31.616 27.02,31.143 L27.02,13.031 Z M25.02,19 L17.02,19 L17.02,17 L25.02,17 L25.02,19 Z M25.02,22 L20.02,22 L20.02,20 L25.02,20 L25.02,22 Z M25.02,16 L17.02,16 L17.02,14 L25.02,14 L25.02,16 Z M19.02,22 L17.02,22 L17.02,20 L19.02,20 L19.02,22 Z"/>
    <path fill="#FFF" d="M15.995 22L9.328 22C8.908 20.851 7.815 20.026 6.52 20.026 4.863 20.026 3.52 21.369 3.52 23.026 3.52 24.683 4.863 26.026 6.52 26.026 7.834 26.026 8.938 25.176 9.344 24L15.995 24 15.995 22zM35.52 20.026C34.225 20.026 33.132 20.851 32.712 22L26.181 22 26.181 24 32.696 24C33.102 25.176 34.206 26.026 35.52 26.026 37.177 26.026 38.52 24.683 38.52 23.026 38.52 21.369 37.177 20.026 35.52 20.026z"/>
  </g>
</svg>
