<svg xmlns="http://www.w3.org/2000/svg" xmlns:xlink="http://www.w3.org/1999/xlink" width="48" height="48" viewBox="0 0 48 48">
  <defs>
    <filter id="notification-battery_low-a" width="131%" height="131%" x="-15.5%" y="-15.5%" filterUnits="objectBoundingBox">
      <feOffset dy="1" in="SourceAlpha" result="shadowOffsetOuter1"/>
      <feGaussianBlur in="shadowOffsetOuter1" result="shadowBlurOuter1" stdDeviation="1"/>
      <feColorMatrix in="shadowBlurOuter1" result="shadowMatrixOuter1" values="0 0 0 0 0   0 0 0 0 0   0 0 0 0 0  0 0 0 0.2 0"/>
      <feMerge>
        <feMergeNode in="shadowMatrixOuter1"/>
        <feMergeNode in="SourceGraphic"/>
      </feMerge>
    </filter>
    <circle id="notification-battery_low-b" cx="21" cy="21" r="21"/>
    <filter id="notification-battery_low-c" width="123.8%" height="123.8%" x="-11.9%" y="-11.9%" filterUnits="objectBoundingBox">
      <feGaussianBlur in="SourceAlpha" result="shadowBlurInner1" stdDeviation="5"/>
      <feOffset in="shadowBlurInner1" result="shadowOffsetInner1"/>
      <feComposite in="shadowOffsetInner1" in2="SourceAlpha" k2="-1" k3="1" operator="arithmetic" result="shadowInnerInner1"/>
      <feColorMatrix in="shadowInnerInner1" values="0 0 0 0 1   0 0 0 0 1   0 0 0 0 1  0 0 0 0.499803663 0"/>
    </filter>
  </defs>
  <g fill="none" filter="url(#notification-battery_low-a)" transform="translate(3 3)">
    <use fill="#EA5514" xlink:href="#notification-battery_low-b"/>
    <use fill="#000" filter="url(#notification-battery_low-c)" xlink:href="#notification-battery_low-b"/>
    <path fill="#FFF" d="M21.166,7.786 L14.133,22.615 C14.039,22.814 14.183,23.043 14.403,23.044 L21.594,23.072 C21.777,23.073 21.917,23.236 21.89,23.416 L20.305,34 C20.254,34.341 20.725,34.485 20.873,34.173 L27.824,19.471 C27.918,19.272 27.773,19.043 27.553,19.043 L20.378,19.043 C20.194,19.043 20.054,18.879 20.081,18.697 L21.733,7.962 C21.786,7.619 21.314,7.474 21.166,7.786 Z"/>
  </g>
</svg>
