<svg xmlns="http://www.w3.org/2000/svg" xmlns:xlink="http://www.w3.org/1999/xlink" width="48" height="48" viewBox="0 0 48 48">
  <defs>
    <filter id="notification-network-proxy-disabled-a" width="131%" height="131%" x="-15.5%" y="-15.5%" filterUnits="objectBoundingBox">
      <feOffset dy="1" in="SourceAlpha" result="shadowOffsetOuter1"/>
      <feGaussianBlur in="shadowOffsetOuter1" result="shadowBlurOuter1" stdDeviation="1"/>
      <feColorMatrix in="shadowBlurOuter1" result="shadowMatrixOuter1" values="0 0 0 0 0   0 0 0 0 0   0 0 0 0 0  0 0 0 0.2 0"/>
      <feMerge>
        <feMergeNode in="shadowMatrixOuter1"/>
        <feMergeNode in="SourceGraphic"/>
      </feMerge>
    </filter>
    <circle id="notification-network-proxy-disabled-b" cx="21" cy="21" r="21"/>
    <filter id="notification-network-proxy-disabled-c" width="123.8%" height="123.8%" x="-11.9%" y="-11.9%" filterUnits="objectBoundingBox">
      <feGaussianBlur in="SourceAlpha" result="shadowBlurInner1" stdDeviation="5"/>
      <feOffset in="shadowBlurInner1" result="shadowOffsetInner1"/>
      <feComposite in="shadowOffsetInner1" in2="SourceAlpha" k2="-1" k3="1" operator="arithmetic" result="shadowInnerInner1"/>
      <feColorMatrix in="shadowInnerInner1" values="0 0 0 0 1   0 0 0 0 0.487725086   0 0 0 0 0.487725086  0 0 0 1 0"/>
    </filter>
  </defs>
  <g fill="none" filter="url(#notification-network-proxy-disabled-a)" transform="translate(3 3)">
    <use fill="#E04141" xlink:href="#notification-network-proxy-disabled-b"/>
    <use fill="#000" filter="url(#notification-network-proxy-disabled-c)" xlink:href="#notification-network-proxy-disabled-b"/>
    <path fill="#FFF" d="M26.985,13.031 L24.985,10 L16.985,10 L14.985,13.016 L14.985,31.143 C14.985,31.616 15.369,32 15.842,32 L26.128,32 C26.601,32 26.985,31.616 26.985,31.143 L26.985,13.031 Z M24.985,19 L16.985,19 L16.985,17 L24.985,17 L24.985,19 Z M24.985,22 L19.985,22 L19.985,20 L24.985,20 L24.985,22 Z M24.985,16 L16.985,16 L16.985,14 L24.985,14 L24.985,16 Z M18.985,22 L16.985,22 L16.985,20 L18.985,20 L18.985,22 Z"/>
    <path fill="#FFF" d="M12.96 2L6.293 2C5.873.851 4.78.026 3.485.026 1.828.026.485 1.369.485 3.026.485 4.683 1.828 6.026 3.485 6.026 4.799 6.026 5.903 5.176 6.309 4L12.96 4 12.96 2zM32.485.026C31.19.026 30.097.851 29.677 2L23.146 2 23.146 4 29.661 4C30.067 5.176 31.171 6.026 32.485 6.026 34.142 6.026 35.485 4.683 35.485 3.026 35.485 1.369 34.142.026 32.485.026z" transform="translate(3 20)"/>
  </g>
</svg>
