<svg xmlns="http://www.w3.org/2000/svg" xmlns:xlink="http://www.w3.org/1999/xlink" width="48" height="48" viewBox="0 0 48 48">
  <defs>
    <filter id="notification-network-vpn-connected-a" width="131%" height="131%" x="-15.5%" y="-15.5%" filterUnits="objectBoundingBox">
      <feOffset dy="1" in="SourceAlpha" result="shadowOffsetOuter1"/>
      <feGaussianBlur in="shadowOffsetOuter1" result="shadowBlurOuter1" stdDeviation="1"/>
      <feColorMatrix in="shadowBlurOuter1" result="shadowMatrixOuter1" values="0 0 0 0 0   0 0 0 0 0   0 0 0 0 0  0 0 0 0.2 0"/>
      <feMerge>
        <feMergeNode in="shadowMatrixOuter1"/>
        <feMergeNode in="SourceGraphic"/>
      </feMerge>
    </filter>
    <circle id="notification-network-vpn-connected-b" cx="21" cy="21" r="21"/>
    <filter id="notification-network-vpn-connected-c" width="123.8%" height="123.8%" x="-11.9%" y="-11.9%" filterUnits="objectBoundingBox">
      <feGaussianBlur in="SourceAlpha" result="shadowBlurInner1" stdDeviation="5"/>
      <feOffset in="shadowBlurInner1" result="shadowOffsetInner1"/>
      <feComposite in="shadowOffsetInner1" in2="SourceAlpha" k2="-1" k3="1" operator="arithmetic" result="shadowInnerInner1"/>
      <feColorMatrix in="shadowInnerInner1" values="0 0 0 0 1   0 0 0 0 1   0 0 0 0 1  0 0 0 0.5 0"/>
    </filter>
  </defs>
  <g fill="none" filter="url(#notification-network-vpn-connected-a)" transform="translate(3 3)">
    <use fill="#DE74B5" xlink:href="#notification-network-vpn-connected-b"/>
    <use fill="#000" filter="url(#notification-network-vpn-connected-c)" xlink:href="#notification-network-vpn-connected-b"/>
    <path fill="#FFF" d="M28.984,17.982 L26.984,17.982 L26.984,14.942 C26.984,11.6 24.38,8.982 21.056,8.982 L20.929,8.982 C17.651,8.982 14.984,11.656 14.984,14.942 L14.984,17.982 L12.984,17.982 C12.431,17.982 11.984,18.429 11.984,18.982 L11.984,29.982 C11.984,30.535 12.431,30.982 12.984,30.982 L28.984,30.982 C29.537,30.982 29.984,30.535 29.984,29.982 L29.984,18.982 C29.984,18.429 29.537,17.982 28.984,17.982 Z M16.984,14.942 C16.984,12.463 18.99,10.982 20.929,10.982 L21.056,10.982 C22.987,10.982 24.984,12.463 24.984,14.942 L24.984,17.982 L16.984,17.982 L16.984,14.942 Z"/>
  </g>
</svg>
