<svg xmlns="http://www.w3.org/2000/svg" xmlns:xlink="http://www.w3.org/1999/xlink" width="48" height="48" viewBox="0 0 48 48">
  <defs>
    <filter id="notification-network-mobile-4g-connected-a" width="131%" height="131%" x="-15.5%" y="-15.5%" filterUnits="objectBoundingBox">
      <feOffset dy="1" in="SourceAlpha" result="shadowOffsetOuter1"/>
      <feGaussianBlur in="shadowOffsetOuter1" result="shadowBlurOuter1" stdDeviation="1"/>
      <feColorMatrix in="shadowBlurOuter1" result="shadowMatrixOuter1" values="0 0 0 0 0   0 0 0 0 0   0 0 0 0 0  0 0 0 0.2 0"/>
      <feMerge>
        <feMergeNode in="shadowMatrixOuter1"/>
        <feMergeNode in="SourceGraphic"/>
      </feMerge>
    </filter>
    <circle id="notification-network-mobile-4g-connected-b" cx="21" cy="21" r="21"/>
    <filter id="notification-network-mobile-4g-connected-c" width="123.8%" height="123.8%" x="-11.9%" y="-11.9%" filterUnits="objectBoundingBox">
      <feGaussianBlur in="SourceAlpha" result="shadowBlurInner1" stdDeviation="5"/>
      <feOffset in="shadowBlurInner1" result="shadowOffsetInner1"/>
      <feComposite in="shadowOffsetInner1" in2="SourceAlpha" k2="-1" k3="1" operator="arithmetic" result="shadowInnerInner1"/>
      <feColorMatrix in="shadowInnerInner1" values="0 0 0 0 1   0 0 0 0 1   0 0 0 0 1  0 0 0 0.5 0"/>
    </filter>
  </defs>
  <g fill="none" filter="url(#notification-network-mobile-4g-connected-a)" transform="translate(3 3)">
    <use fill="#24A3FF" xlink:href="#notification-network-mobile-4g-connected-b"/>
    <use fill="#000" filter="url(#notification-network-mobile-4g-connected-c)" xlink:href="#notification-network-mobile-4g-connected-b"/>
    <path fill="#FFF" d="M25.997 9.034L20.997 9.034C20.444 9.034 19.997 9.481 19.997 10.034 19.997 10.587 20.444 11.034 20.997 11.034L24.997 11.034 24.997 14.044C24.997 16.244 23.207 18.034 20.987 18.034 18.787 18.034 16.997 16.244 16.997 14.044L16.997 6.024C16.997 3.824 18.787 2.034 21.007 2.034 23.207 2.034 24.997 3.824 24.997 6.024 24.997 6.577 25.444 7.024 25.997 7.024 26.55 7.024 26.997 6.577 26.997 6.024 26.997 2.721 24.309.034 20.987.034 17.684.034 14.997 2.722 14.997 6.024L14.997 14.044C14.997 17.347 17.685 20.034 21.007 20.034 22.54 20.034 23.937 19.45 24.997 18.499L24.997 19.034C24.997 19.587 25.444 20.034 25.997 20.034 26.55 20.034 26.997 19.587 26.997 19.034L26.997 10.034C26.997 9.481 26.55 9.034 25.997 9.034zM11.997 13.034L9.997 13.034 9.997 1.034C9.997.393 9.7.034 8.997.034 8.642.034 8.345.229 8.167.508 8.16.519 8.148.524 8.141.536L.145 13.51C-.044 13.819-.053 14.205.124 14.522.301 14.839.635 15.035.997 15.035L7.997 15.035 7.997 19.035C7.997 19.588 8.444 20.035 8.997 20.035 9.55 20.035 9.997 19.588 9.997 19.035L9.997 15.035 11.997 15.035C12.55 15.035 12.997 14.588 12.997 14.035 12.997 13.482 12.55 13.034 11.997 13.034zM2.788 13.034L7.997 4.583 7.997 13.034 2.788 13.034z" transform="translate(7 11)"/>
    <path fill="#FFF" d="M25.997 9.034L20.997 9.034C20.444 9.034 19.997 9.481 19.997 10.034 19.997 10.587 20.444 11.034 20.997 11.034L24.997 11.034 24.997 14.044C24.997 16.244 23.207 18.034 20.987 18.034 18.787 18.034 16.997 16.244 16.997 14.044L16.997 6.024C16.997 3.824 18.787 2.034 21.007 2.034 23.207 2.034 24.997 3.824 24.997 6.024 24.997 6.577 25.444 7.024 25.997 7.024 26.55 7.024 26.997 6.577 26.997 6.024 26.997 2.721 24.309.034 20.987.034 17.684.034 14.997 2.722 14.997 6.024L14.997 14.044C14.997 17.347 17.685 20.034 21.007 20.034 22.54 20.034 23.937 19.45 24.997 18.499L24.997 19.034C24.997 19.587 25.444 20.034 25.997 20.034 26.55 20.034 26.997 19.587 26.997 19.034L26.997 10.034C26.997 9.481 26.55 9.034 25.997 9.034zM11.997 13.034L9.997 13.034 9.997 1.034C9.997.393 9.7.034 8.997.034 8.642.034 8.345.229 8.167.508 8.16.519 8.148.524 8.141.536L.145 13.51C-.044 13.819-.053 14.205.124 14.522.301 14.839.635 15.035.997 15.035L7.997 15.035 7.997 19.035C7.997 19.588 8.444 20.035 8.997 20.035 9.55 20.035 9.997 19.588 9.997 19.035L9.997 15.035 11.997 15.035C12.55 15.035 12.997 14.588 12.997 14.035 12.997 13.482 12.55 13.034 11.997 13.034zM2.788 13.034L7.997 4.583 7.997 13.034 2.788 13.034z" transform="translate(7 11)"/>
  </g>
</svg>
