<svg xmlns="http://www.w3.org/2000/svg" xmlns:xlink="http://www.w3.org/1999/xlink" width="48" height="48" viewBox="0 0 48 48">
  <defs>
    <filter id="notification-bluetooth-error-a" width="131%" height="131%" x="-15.5%" y="-15.5%" filterUnits="objectBoundingBox">
      <feOffset dy="1" in="SourceAlpha" result="shadowOffsetOuter1"/>
      <feGaussianBlur in="shadowOffsetOuter1" result="shadowBlurOuter1" stdDeviation="1"/>
      <feColorMatrix in="shadowBlurOuter1" result="shadowMatrixOuter1" values="0 0 0 0 0   0 0 0 0 0   0 0 0 0 0  0 0 0 0.2 0"/>
      <feMerge>
        <feMergeNode in="shadowMatrixOuter1"/>
        <feMergeNode in="SourceGraphic"/>
      </feMerge>
    </filter>
    <circle id="notification-bluetooth-error-b" cx="21" cy="21" r="21"/>
    <filter id="notification-bluetooth-error-c" width="123.8%" height="123.8%" x="-11.9%" y="-11.9%" filterUnits="objectBoundingBox">
      <feGaussianBlur in="SourceAlpha" result="shadowBlurInner1" stdDeviation="5"/>
      <feOffset in="shadowBlurInner1" result="shadowOffsetInner1"/>
      <feComposite in="shadowOffsetInner1" in2="SourceAlpha" k2="-1" k3="1" operator="arithmetic" result="shadowInnerInner1"/>
      <feColorMatrix in="shadowInnerInner1" values="0 0 0 0 1   0 0 0 0 1   0 0 0 0 1  0 0 0 0.499803663 0"/>
    </filter>
  </defs>
  <g fill="none" filter="url(#notification-bluetooth-error-a)" transform="translate(3 3)">
    <use fill="#EA5514" xlink:href="#notification-bluetooth-error-b"/>
    <use fill="#000" filter="url(#notification-bluetooth-error-c)" xlink:href="#notification-bluetooth-error-b"/>
    <path fill="#FFF" d="M24.038,22.057 L31.545,26.162 C31.846,26.326 32.03,26.642 32.03,26.985 C32.03,27.328 31.841,27.643 31.54,27.807 L31.54,27.807 L20.5,33.842 C20.359,33.919 20.193,33.957 20.039,33.957 C19.874,33.957 19.686,33.913 19.539,33.826 C19.255,33.657 19.037,33.35 19.037,33.019 L19.037,33.019 L19.037,30.893 C19.354,30.964 19.681,31.008 20.019,31.008 C20.371,31.008 20.709,30.958 21.037,30.882 L21.037,30.882 L21.037,31.438 L29.179,26.985 L23.872,24.082 C23.969,23.737 24.038,23.38 24.038,23.005 L24.038,23.005 L24.038,22.057 Z M20.021,25.008 C20.8494271,25.008 21.521,25.6795729 21.521,26.508 C21.521,27.3364271 20.8494271,28.008 20.021,28.008 C19.1925729,28.008 18.521,27.3364271 18.521,26.508 C18.521,25.6795729 19.1925729,25.008 20.021,25.008 Z M16.038,22.239 L16.038,23.005 C16.038,23.44 16.125,23.85 16.254,24.243 L16.254,24.243 L10.37,27.677 C10.222,27.763 10.103,27.804 9.943,27.804 C9.62,27.804 9.305,27.637 9.131,27.337 C8.871,26.89 9.021,26.316 9.469,26.056 L9.469,26.056 L16.038,22.239 Z M20.038,14.005 C20.591,14.005 21.038,14.452 21.038,15.005 L21.038,22.005 C21.038,22.558 20.591,23.005 20.038,23.005 C19.485,23.005 19.038,22.558 19.038,22.005 L19.038,15.005 C19.038,14.452 19.485,14.005 20.038,14.005 Z M19.54,8.133 C19.825,7.965 20.221,7.957 20.512,8.117 L20.512,8.117 L31.545,14.151 C31.846,14.315 32.032,14.631 32.032,14.974 C32.032,15.317 31.846,15.632 31.545,15.796 L31.545,15.796 L24.038,19.902 L24.038,17.786 L29.18,14.974 L21.038,10.521 L21.038,11.148 C20.716,11.064 20.385,11.006 20.038,11.006 C19.691,11.006 19.36,11.064 19.038,11.148 L19.038,11.148 L19.038,8.94 C19.038,8.609 19.256,8.302 19.54,8.133 Z M9.118,14.445 C9.386,14.001 9.941,13.857 10.383,14.126 L10.383,14.126 L16.038,17.55 L16.038,19.699 L9.448,15.731 C9.004,15.465 8.85,14.888 9.118,14.445 Z"/>
  </g>
</svg>
