<svg xmlns="http://www.w3.org/2000/svg" xmlns:xlink="http://www.w3.org/1999/xlink" width="48" height="48" viewBox="0 0 48 48">
  <defs>
    <filter id="notification-change-language-finished-a" width="131%" height="131%" x="-15.5%" y="-15.5%" filterUnits="objectBoundingBox">
      <feOffset dy="1" in="SourceAlpha" result="shadowOffsetOuter1"/>
      <feGaussianBlur in="shadowOffsetOuter1" result="shadowBlurOuter1" stdDeviation="1"/>
      <feColorMatrix in="shadowBlurOuter1" result="shadowMatrixOuter1" values="0 0 0 0 0   0 0 0 0 0   0 0 0 0 0  0 0 0 0.2 0"/>
      <feMerge>
        <feMergeNode in="shadowMatrixOuter1"/>
        <feMergeNode in="SourceGraphic"/>
      </feMerge>
    </filter>
    <circle id="notification-change-language-finished-b" cx="21" cy="21" r="21"/>
    <filter id="notification-change-language-finished-c" width="123.8%" height="123.8%" x="-11.9%" y="-11.9%" filterUnits="objectBoundingBox">
      <feGaussianBlur in="SourceAlpha" result="shadowBlurInner1" stdDeviation="5"/>
      <feOffset in="shadowBlurInner1" result="shadowOffsetInner1"/>
      <feComposite in="shadowOffsetInner1" in2="SourceAlpha" k2="-1" k3="1" operator="arithmetic" result="shadowInnerInner1"/>
      <feColorMatrix in="shadowInnerInner1" values="0 0 0 0 0.213903743   0 0 0 0 1   0 0 0 0 0  0 0 0 1 0"/>
    </filter>
  </defs>
  <g fill="none" filter="url(#notification-change-language-finished-a)" transform="translate(3 3)">
    <use fill="#28BA00" xlink:href="#notification-change-language-finished-b"/>
    <use fill="#000" filter="url(#notification-change-language-finished-c)" xlink:href="#notification-change-language-finished-b"/>
    <path fill="#FFF" d="M21.106 31.762C15.169 31.762 10.356 26.949 10.356 21.012 10.356 21.008 10.357 21.004 10.357 21L13.092 21 9.602 17 6.107 21 8.607 21C8.607 21.004 8.606 21.008 8.606 21.012 8.606 27.916 14.202 33.512 21.106 33.512 24.595 33.512 27.748 32.079 30.015 29.773L28.863 28.442C26.907 30.484 24.158 31.762 21.106 31.762zM36.109 21L33.606 21C33.6 14.102 28.006 8.512 21.107 8.512 17.614 8.512 14.459 9.948 12.191 12.258L13.343 13.589C15.3 11.543 18.051 10.262 21.106 10.262 27.039 10.262 31.849 15.069 31.855 21L29.131 21 32.567 24.998 36.109 21z"/>
    <polygon fill="#FFF" points="6.102 21.009 6.102 21.006 6.1 21.009"/>
    <path fill="#FFF" d="M19.517,26.516 C19.529,26.516 19.54,26.516 19.552,26.515 C19.826,26.505 20.085,26.383 20.267,26.178 L27.753,17.699 C28.118,17.285 28.079,16.653 27.665,16.287 C27.252,15.922 26.621,15.962 26.253,16.375 L19.465,24.063 L16.686,21.332 C16.29,20.944 15.658,20.949 15.272,21.344 C14.884,21.739 14.89,22.371 15.284,22.758 L18.816,26.229 C19.004,26.413 19.256,26.516 19.517,26.516 Z"/>
  </g>
</svg>
