<svg xmlns="http://www.w3.org/2000/svg" xmlns:xlink="http://www.w3.org/1999/xlink" width="48" height="48" viewBox="0 0 48 48">
  <defs>
    <filter id="notification-network-wireless-local-a" width="131%" height="131%" x="-15.5%" y="-15.5%" filterUnits="objectBoundingBox">
      <feOffset dy="1" in="SourceAlpha" result="shadowOffsetOuter1"/>
      <feGaussianBlur in="shadowOffsetOuter1" result="shadowBlurOuter1" stdDeviation="1"/>
      <feColorMatrix in="shadowBlurOuter1" result="shadowMatrixOuter1" values="0 0 0 0 0   0 0 0 0 0   0 0 0 0 0  0 0 0 0.2 0"/>
      <feMerge>
        <feMergeNode in="shadowMatrixOuter1"/>
        <feMergeNode in="SourceGraphic"/>
      </feMerge>
    </filter>
    <circle id="notification-network-wireless-local-b" cx="21" cy="21" r="21"/>
    <filter id="notification-network-wireless-local-c" width="123.8%" height="123.8%" x="-11.9%" y="-11.9%" filterUnits="objectBoundingBox">
      <feGaussianBlur in="SourceAlpha" result="shadowBlurInner1" stdDeviation="5"/>
      <feOffset in="shadowBlurInner1" result="shadowOffsetInner1"/>
      <feComposite in="shadowOffsetInner1" in2="SourceAlpha" k2="-1" k3="1" operator="arithmetic" result="shadowInnerInner1"/>
      <feColorMatrix in="shadowInnerInner1" values="0 0 0 0 1   0 0 0 0 1   0 0 0 0 1  0 0 0 0.499803663 0"/>
    </filter>
  </defs>
  <g fill="none" fill-rule="evenodd" filter="url(#notification-network-wireless-local-a)" transform="translate(3 3)">
    <g fill-rule="nonzero">
      <use fill="#EA5514" xlink:href="#notification-network-wireless-local-b"/>
      <use fill="#000" filter="url(#notification-network-wireless-local-c)" xlink:href="#notification-network-wireless-local-b"/>
    </g>
    <path stroke="#FFF" stroke-linecap="round" stroke-width="2" d="M7.02083333 18.0843254C8.76984127 16.2212302 10.8511905 14.7132937 13.1617063 13.6696429 15.4722222 12.6259921 18.0099206 12.0496032 20.6736111 12.0496032 23.3363095 12.0496032 25.875 12.6269841 28.1845238 13.6696429 30.4940476 14.7123016 32.5763889 16.2212302 34.3253968 18.0843254M26.0376984 19.0863095C26.8630952 19.4583333 27.6468254 19.9146825 28.3809524 20.4434524 29.1150794 20.9722222 29.7986111 21.5744048 30.4236111 22.2390873M10.921627 22.2390873C11.546627 21.5734127 12.2301587 20.9722222 12.9642857 20.4434524 13.6984127 19.9146825 14.4831349 19.4593254 15.3075397 19.0863095M26.5267857 26.3918651C26.1517857 25.9930556 25.7420635 25.6319444 25.3015873 25.3154762M14.8194444 26.3918651C15.1934524 25.9930556 15.6041667 25.6319444 16.0446429 25.3154762"/>
    <circle cx="20.5" cy="30.5" r="1.5" fill="#FFF" fill-rule="nonzero"/>
    <path fill="#FFF" fill-rule="nonzero" d="M20.6093856,28 L20.3906144,28 C19.6259284,28 19,27.3742503 19,26.6097827 L19,16.3902173 C19,15.6257497 19.6259284,15 20.3906144,15 L20.6093856,15 C21.3740716,15 22,15.6257497 22,16.3902173 L22,26.6097827 C22,27.3742503 21.3740716,28 20.6093856,28 Z"/>
  </g>
</svg>
