<svg xmlns="http://www.w3.org/2000/svg" xmlns:xlink="http://www.w3.org/1999/xlink" width="48" height="48" viewBox="0 0 48 48">
  <defs>
    <filter id="package-updated-failed-a" width="131%" height="131%" x="-15.5%" y="-15.5%" filterUnits="objectBoundingBox">
      <feOffset dy="1" in="SourceAlpha" result="shadowOffsetOuter1"/>
      <feGaussianBlur in="shadowOffsetOuter1" result="shadowBlurOuter1" stdDeviation="1"/>
      <feColorMatrix in="shadowBlurOuter1" result="shadowMatrixOuter1" values="0 0 0 0 0   0 0 0 0 0   0 0 0 0 0  0 0 0 0.2 0"/>
      <feMerge>
        <feMergeNode in="shadowMatrixOuter1"/>
        <feMergeNode in="SourceGraphic"/>
      </feMerge>
    </filter>
    <path id="package-updated-failed-b" d="M41.0813985,27.1245154 C37.6991656,38.2146697 25.9652738,44.4635753 14.8748671,41.0814194 C3.78446033,37.6992635 -2.46353788,25.9656389 0.918695021,14.8754846 C4.30092792,3.78533034 16.03377,-2.46357534 27.1241767,0.918580553 C38.2145835,4.30073647 44.4636314,16.0343611 41.0813985,27.1245154"/>
    <filter id="package-updated-failed-c" width="123.8%" height="123.8%" x="-11.9%" y="-11.9%" filterUnits="objectBoundingBox">
      <feGaussianBlur in="SourceAlpha" result="shadowBlurInner1" stdDeviation="5"/>
      <feOffset in="shadowBlurInner1" result="shadowOffsetInner1"/>
      <feComposite in="shadowOffsetInner1" in2="SourceAlpha" k2="-1" k3="1" operator="arithmetic" result="shadowInnerInner1"/>
      <feColorMatrix in="shadowInnerInner1" values="0 0 0 0 1   0 0 0 0 0.487725086   0 0 0 0 0.487725086  0 0 0 1 0"/>
    </filter>
  </defs>
  <g fill="none" fill-rule="evenodd" filter="url(#package-updated-failed-a)" transform="translate(3 3)">
    <g fill-rule="nonzero">
      <use fill="#E04141" xlink:href="#package-updated-failed-b"/>
      <use fill="#000" filter="url(#package-updated-failed-c)" xlink:href="#package-updated-failed-b"/>
    </g>
    <path fill="#FFF" fill-rule="nonzero" d="M20.5898456,10.6880522 C20.7990135,10.4786912 21.1365345,10.4643514 21.3457024,10.6746684 L21.3457024,10.6746684 L30.3674948,20.1103076 C30.704065,20.4496827 30.5239514,21.0105714 30.047619,21.0105714 L30.047619,21.0105714 L25,21.0105714 L25,30.0373219 C25,30.5238095 24.5238095,31 24.0785194,31 L24.0785194,31 L18,31 C17.5238095,31 17.047619,30.5238095 17.047619,30.0373219 L17.047619,30.0373219 L17.047619,21.0105714 L11.952381,21.0105714 C11.4760486,21.0105714 11.2980365,20.4420349 11.6346067,20.1036157 L11.6346067,20.1036157 Z M21.023,25 L20.977,25 C20.437,25 20,25.4483112 20,26 C20,26.5527124 20.437,27 20.977,27 L20.977,27 L21.023,27 C21.563,27 22,26.5527124 22,26 C22,25.4483112 21.563,25 21.023,25 L21.023,25 Z M21,16 C20.448,16 20,16.448 20,17 L20,17 L20,23 C20,23.552 20.448,24 21,24 C21.552,24 22,23.552 22,23 L22,23 L22,17 C22,16.448 21.552,16 21,16 Z"/>
  </g>
</svg>
