<svg xmlns="http://www.w3.org/2000/svg" xmlns:xlink="http://www.w3.org/1999/xlink" width="48" height="48" viewBox="0 0 48 48">
  <defs>
    <filter id="package_update_failed-a" width="131%" height="131%" x="-15.5%" y="-15.5%" filterUnits="objectBoundingBox">
      <feOffset dy="1" in="SourceAlpha" result="shadowOffsetOuter1"/>
      <feGaussianBlur in="shadowOffsetOuter1" result="shadowBlurOuter1" stdDeviation="1"/>
      <feColorMatrix in="shadowBlurOuter1" result="shadowMatrixOuter1" values="0 0 0 0 0   0 0 0 0 0   0 0 0 0 0  0 0 0 0.2 0"/>
      <feMerge>
        <feMergeNode in="shadowMatrixOuter1"/>
        <feMergeNode in="SourceGraphic"/>
      </feMerge>
    </filter>
    <circle id="package_update_failed-b" cx="21" cy="21" r="21"/>
    <filter id="package_update_failed-c" width="123.8%" height="123.8%" x="-11.9%" y="-11.9%" filterUnits="objectBoundingBox">
      <feGaussianBlur in="SourceAlpha" result="shadowBlurInner1" stdDeviation="5"/>
      <feOffset in="shadowBlurInner1" result="shadowOffsetInner1"/>
      <feComposite in="shadowOffsetInner1" in2="SourceAlpha" k2="-1" k3="1" operator="arithmetic" result="shadowInnerInner1"/>
      <feColorMatrix in="shadowInnerInner1" values="0 0 0 0 1   0 0 0 0 0.487725086   0 0 0 0 0.487725086  0 0 0 1 0"/>
    </filter>
  </defs>
  <g fill="none" fill-rule="evenodd" filter="url(#package_update_failed-a)" transform="translate(3 3)">
    <g fill-rule="nonzero">
      <use fill="#E04141" xlink:href="#package_update_failed-b"/>
      <use fill="#000" filter="url(#package_update_failed-c)" xlink:href="#package_update_failed-b"/>
    </g>
    <path fill="#FFF" fill-rule="nonzero" d="M20.595,10.257 C20.814,10.037 21.169,10.022 21.389,10.242 L21.389,10.242 L30.878,20.102 C31.232,20.457 30.977,21.003 30.476,21.003 L30.476,21.003 L24.998,21.006 L24.998,30 C24.998,30.552 24.616,31.006 24.064,31.006 L24.064,31.006 L18.064,31.006 C17.511,31.006 16.998,30.552 16.998,30 L16.998,30 L16.998,21.005 L11.57,21.002 C11.068,21.002 10.822,20.448 11.176,20.094 L11.176,20.094 Z M21.019,25.868 L20.973,25.868 C20.433,25.868 19.996,26.305 19.996,26.845 C19.996,27.385 20.433,27.822 20.973,27.822 L20.973,27.822 L21.019,27.822 C21.559,27.822 21.996,27.385 21.996,26.845 C21.996,26.305 21.559,25.868 21.019,25.868 L21.019,25.868 Z M20.998,16.874 C20.446,16.874 19.998,17.322 19.998,17.874 L19.998,17.874 L19.998,23.874 C19.998,24.426 20.446,24.874 20.998,24.874 C21.55,24.874 21.998,24.426 21.998,23.874 L21.998,23.874 L21.998,17.874 C21.998,17.322 21.55,16.874 20.998,16.874 Z"/>
  </g>
</svg>
