<svg xmlns="http://www.w3.org/2000/svg" xmlns:xlink="http://www.w3.org/1999/xlink" width="48" height="48" viewBox="0 0 48 48">
  <defs>
    <filter id="package_install_succeed-a" width="131%" height="131%" x="-15.5%" y="-15.5%" filterUnits="objectBoundingBox">
      <feOffset dy="1" in="SourceAlpha" result="shadowOffsetOuter1"/>
      <feGaussianBlur in="shadowOffsetOuter1" result="shadowBlurOuter1" stdDeviation="1"/>
      <feColorMatrix in="shadowBlurOuter1" result="shadowMatrixOuter1" values="0 0 0 0 0   0 0 0 0 0   0 0 0 0 0  0 0 0 0.2 0"/>
      <feMerge>
        <feMergeNode in="shadowMatrixOuter1"/>
        <feMergeNode in="SourceGraphic"/>
      </feMerge>
    </filter>
    <circle id="package_install_succeed-b" cx="21" cy="21" r="21"/>
    <filter id="package_install_succeed-c" width="123.8%" height="123.8%" x="-11.9%" y="-11.9%" filterUnits="objectBoundingBox">
      <feGaussianBlur in="SourceAlpha" result="shadowBlurInner1" stdDeviation="5"/>
      <feOffset in="shadowBlurInner1" result="shadowOffsetInner1"/>
      <feComposite in="shadowOffsetInner1" in2="SourceAlpha" k2="-1" k3="1" operator="arithmetic" result="shadowInnerInner1"/>
      <feColorMatrix in="shadowInnerInner1" values="0 0 0 0 0.213903743   0 0 0 0 1   0 0 0 0 0  0 0 0 1 0"/>
    </filter>
  </defs>
  <g fill="none" filter="url(#package_install_succeed-a)" transform="translate(3 3)">
    <use fill="#28BA00" xlink:href="#package_install_succeed-b"/>
    <use fill="#000" filter="url(#package_install_succeed-c)" xlink:href="#package_install_succeed-b"/>
    <path fill="#FFF" d="M35.0089524,25.2792857 C35.3813333,25.6507143 35.3813333,26.2535714 35.0089524,26.6259524 L29.2708571,32.3640476 C29.0851429,32.5497619 28.8413333,32.6430952 28.5975238,32.6430952 C28.3594286,32.6430952 28.120381,32.5535714 27.9365714,32.3764286 L25.1022857,29.6392857 C24.7241905,29.2735714 24.7137143,28.6697619 25.0784762,28.292619 C25.4441905,27.9145238 26.0489524,27.9030952 26.4251429,28.2678571 L28.5860952,30.3554762 L33.6622857,25.2792857 C34.0346667,24.9069048 34.6375238,24.9069048 35.0089524,25.2792857 Z M29,21.0105714 L29,28 L28.9495238,28.0495238 L28.1380952,27.2657143 C27.6038095,26.747619 26.8980952,26.4619048 26.152381,26.4619048 C25.3819048,26.4619048 24.6333333,26.7780952 24.0952381,27.3333333 C23,28.467619 23.032381,30.2790476 24.1657143,31.3742857 L24.1657143,31.3742857 L24.8466667,32.0314286 L11.952381,32.0314286 C11.4266667,32.0314286 11,31.6047619 11,31.0790476 L11,31.0790476 L11,21.0105714 L29,21.0105714 Z M24,23 L16,23 L16,24 L24,24 L24,23 Z M20.0353333,8 C24.4338205,8 28,11.5661795 28,15.9646667 C28,15.9767223 27.9999645,15.9887687 27.9998941,16.000806 L28.6133333,16 L31.4704762,20 L8.61333333,20 L11.4704762,16 L12.0713333,16 L12.0706667,15.9646667 C12.0706667,11.6491698 15.5035429,8.13486911 19.7872696,8.0037903 Z M20.0353333,8.99558333 C16.1864082,8.99558333 13.06625,12.1157415 13.06625,15.9646667 C13.06625,15.9767585 13.0662921,15.9888398 13.0663755,16.0009107 L18.0463333,16 L18.0443658,15.9419674 C18.0443658,14.8918532 18.8562496,14.0322369 19.8868761,13.9562597 L20.0355325,13.9508007 C21.135652,13.9508007 22.0266991,14.8418478 22.0266991,15.9419674 C22.0266991,15.9617682 22.0264105,15.9815013 22.0258371,16.0011626 L27.0033333,16 L27.0044167,15.9646667 C27.0044167,12.1959274 24.0129109,9.12590623 20.2749206,8.99962442 Z M20.0355325,14.946384 C19.4859705,14.946384 19.0399491,15.3924054 19.0399491,15.9419674 C19.0399491,15.9617623 19.0405278,15.981423 19.0416691,16.0009333 L21.0273333,16 L21.0311158,15.9419674 C21.0311158,15.4316598 20.6465362,15.0106296 20.1515861,14.9530861 Z M22.3845118,10.4357942 C23.0435879,10.7663278 23.671801,11.2073713 24.2323144,11.7678847 C24.7928279,12.3283981 25.2338713,12.9566112 25.5644049,13.6156874 L25.5644049,13.6156874 L22.7797584,14.7267584 C22.6234518,14.4131496 22.4193572,14.113479 22.1535364,13.8466627 C21.8867201,13.5808419 21.5870495,13.3767474 21.2734408,13.2204408 L21.2734408,13.2204408 Z"/>
  </g>
</svg>
