<svg xmlns="http://www.w3.org/2000/svg" xmlns:xlink="http://www.w3.org/1999/xlink" width="48" height="48" viewBox="0 0 48 48">
  <defs>
    <filter id="package_download_failed-a" width="131%" height="131%" x="-15.5%" y="-15.5%" filterUnits="objectBoundingBox">
      <feOffset dy="1" in="SourceAlpha" result="shadowOffsetOuter1"/>
      <feGaussianBlur in="shadowOffsetOuter1" result="shadowBlurOuter1" stdDeviation="1"/>
      <feColorMatrix in="shadowBlurOuter1" result="shadowMatrixOuter1" values="0 0 0 0 0   0 0 0 0 0   0 0 0 0 0  0 0 0 0.2 0"/>
      <feMerge>
        <feMergeNode in="shadowMatrixOuter1"/>
        <feMergeNode in="SourceGraphic"/>
      </feMerge>
    </filter>
    <circle id="package_download_failed-b" cx="21" cy="21" r="21"/>
    <filter id="package_download_failed-c" width="123.8%" height="123.8%" x="-11.9%" y="-11.9%" filterUnits="objectBoundingBox">
      <feGaussianBlur in="SourceAlpha" result="shadowBlurInner1" stdDeviation="5"/>
      <feOffset in="shadowBlurInner1" result="shadowOffsetInner1"/>
      <feComposite in="shadowOffsetInner1" in2="SourceAlpha" k2="-1" k3="1" operator="arithmetic" result="shadowInnerInner1"/>
      <feColorMatrix in="shadowInnerInner1" values="0 0 0 0 1   0 0 0 0 0.487725086   0 0 0 0 0.487725086  0 0 0 1 0"/>
    </filter>
  </defs>
  <g fill="none" fill-rule="evenodd" filter="url(#package_download_failed-a)" transform="translate(3 3)">
    <g fill-rule="nonzero">
      <use fill="#E04141" xlink:href="#package_download_failed-b"/>
      <use fill="#000" filter="url(#package_download_failed-c)" xlink:href="#package_download_failed-b"/>
    </g>
    <path fill="#FFF" fill-rule="nonzero" d="M23.985,11.085 C24.537,11.085 25.032,11.539 25.032,12.091 L25.032,12.091 L25.032,21.085 L30.47,21.088 C30.971,21.088 31.222,21.642 30.868,21.996 L30.868,21.996 L21.453,31.833 C21.233,32.053 20.877,32.068 20.657,31.848 L20.657,31.848 L11.165,21.989 C10.811,21.634 11.062,21.088 11.563,21.088 L11.563,21.088 L17.032,21.085 L17.032,12.091 C17.032,11.539 17.433,11.085 17.985,11.085 L17.985,11.085 Z M21.045,25.011 L20.999,25.011 C20.459,25.011 20.022,25.448 20.022,25.988 C20.022,26.528 20.459,26.965 20.999,26.965 L20.999,26.965 L21.045,26.965 C21.584,26.965 22.022,26.528 22.022,25.988 C22.022,25.448 21.585,25.011 21.045,25.011 L21.045,25.011 Z M21.023,16.017 C20.471,16.017 20.023,16.465 20.023,17.017 L20.023,17.017 L20.023,23.017 C20.023,23.569 20.471,24.017 21.023,24.017 C21.575,24.017 22.023,23.569 22.023,23.017 L22.023,23.017 L22.023,17.017 C22.023,16.465 21.575,16.017 21.023,16.017 Z"/>
  </g>
</svg>
