<svg xmlns="http://www.w3.org/2000/svg" xmlns:xlink="http://www.w3.org/1999/xlink" width="48" height="48" viewBox="0 0 48 48">
  <defs>
    <filter id="package-updated-succeed-a" width="131%" height="131%" x="-15.5%" y="-15.5%" filterUnits="objectBoundingBox">
      <feOffset dy="1" in="SourceAlpha" result="shadowOffsetOuter1"/>
      <feGaussianBlur in="shadowOffsetOuter1" result="shadowBlurOuter1" stdDeviation="1"/>
      <feColorMatrix in="shadowBlurOuter1" result="shadowMatrixOuter1" values="0 0 0 0 0   0 0 0 0 0   0 0 0 0 0  0 0 0 0.2 0"/>
      <feMerge>
        <feMergeNode in="shadowMatrixOuter1"/>
        <feMergeNode in="SourceGraphic"/>
      </feMerge>
    </filter>
    <path id="package-updated-succeed-b" d="M41.0813985,27.1245154 C37.6991656,38.2146697 25.9652738,44.4635753 14.8748671,41.0814194 C3.78446033,37.6992635 -2.46353788,25.9656389 0.918695021,14.8754846 C4.30092792,3.78533034 16.03377,-2.46357534 27.1241767,0.918580553 C38.2145835,4.30073647 44.4636314,16.0343611 41.0813985,27.1245154"/>
    <filter id="package-updated-succeed-c" width="123.8%" height="123.8%" x="-11.9%" y="-11.9%" filterUnits="objectBoundingBox">
      <feGaussianBlur in="SourceAlpha" result="shadowBlurInner1" stdDeviation="5"/>
      <feOffset in="shadowBlurInner1" result="shadowOffsetInner1"/>
      <feComposite in="shadowOffsetInner1" in2="SourceAlpha" k2="-1" k3="1" operator="arithmetic" result="shadowInnerInner1"/>
      <feColorMatrix in="shadowInnerInner1" values="0 0 0 0 0.213903743   0 0 0 0 1   0 0 0 0 0  0 0 0 1 0"/>
    </filter>
  </defs>
  <g fill="none" filter="url(#package-updated-succeed-a)" transform="translate(3 3)">
    <use fill="#28BA00" xlink:href="#package-updated-succeed-b"/>
    <use fill="#000" filter="url(#package-updated-succeed-c)" xlink:href="#package-updated-succeed-b"/>
    <g fill="#FFF" transform="translate(10.524 10.524)">
      <path d="M10.7475238,0.146095238 C10.538,-0.0624761905 10.1999048,-0.0481904762 9.99038095,0.160380952 L1.02085714,9.63809524 C0.682761905,9.9752381 0.918,10.5028571 1.39514286,10.5028571 L6.56466667,10.5057143 L6.56466667,19.5180952 C6.56466667,20.0447619 7.05419048,20.4761905 7.57990476,20.4761905 L12.2878517,20.4761905 L11.601185,19.8133333 C10.4678517,18.7190476 10.4354707,16.907619 11.5307088,15.7733333 C12.068804,15.2180952 12.8173755,14.9019048 13.5878517,14.9019048 C13.9145183,14.9019048 14.2316612,14.9638095 14.5307088,15.0714286 L14.5307088,10.5 L19.4018095,10.5028571 C19.8789524,10.5028571 20.1218095,9.98190476 19.7846667,9.6447619 L10.7475238,0.146095238 Z"/>
      <path d="M16.0737143,21.2977381 C15.835619,21.2977381 15.5965714,21.2082143 15.4127619,21.0310714 L12.5784762,18.2939286 C12.200381,17.9282143 12.1899048,17.3244048 12.5546667,16.9472619 C12.920381,16.5691667 13.5251429,16.5577381 13.9013333,16.9225 L16.0622857,19.010119 L21.1384762,13.9339286 C21.5108571,13.5615476 22.1137143,13.5615476 22.4851429,13.9339286 C22.8575238,14.3053571 22.8575238,14.9082143 22.4851429,15.2805952 L16.7470476,21.0186905 C16.5613333,21.2044048 16.3175238,21.2977381 16.0737143,21.2977381"/>
    </g>
  </g>
</svg>
