<svg xmlns="http://www.w3.org/2000/svg" xmlns:xlink="http://www.w3.org/1999/xlink" width="48" height="48" viewBox="0 0 48 48">
  <defs>
    <filter id="package_install_failed-a" width="131%" height="131%" x="-15.5%" y="-15.5%" filterUnits="objectBoundingBox">
      <feOffset dy="1" in="SourceAlpha" result="shadowOffsetOuter1"/>
      <feGaussianBlur in="shadowOffsetOuter1" result="shadowBlurOuter1" stdDeviation="1"/>
      <feColorMatrix in="shadowBlurOuter1" result="shadowMatrixOuter1" values="0 0 0 0 0   0 0 0 0 0   0 0 0 0 0  0 0 0 0.2 0"/>
      <feMerge>
        <feMergeNode in="shadowMatrixOuter1"/>
        <feMergeNode in="SourceGraphic"/>
      </feMerge>
    </filter>
    <circle id="package_install_failed-b" cx="21" cy="21" r="21"/>
    <filter id="package_install_failed-c" width="123.8%" height="123.8%" x="-11.9%" y="-11.9%" filterUnits="objectBoundingBox">
      <feGaussianBlur in="SourceAlpha" result="shadowBlurInner1" stdDeviation="5"/>
      <feOffset in="shadowBlurInner1" result="shadowOffsetInner1"/>
      <feComposite in="shadowOffsetInner1" in2="SourceAlpha" k2="-1" k3="1" operator="arithmetic" result="shadowInnerInner1"/>
      <feColorMatrix in="shadowInnerInner1" values="0 0 0 0 1   0 0 0 0 0.609047203   0 0 0 0 0  0 0 0 1 0"/>
    </filter>
  </defs>
  <g fill="none" filter="url(#package_install_failed-a)" transform="translate(3 3)">
    <use fill="#FF5858" xlink:href="#package_install_failed-b"/>
    <use fill="#000" filter="url(#package_install_failed-c)" xlink:href="#package_install_failed-b"/>
    <path fill="#FFF" d="M29.998,21.047 L29.998,31.047 C29.998,31.5595714 29.6117143,31.9824694 29.1145685,32.0402682 L28.998,32.047 L12.998,32.047 C12.4854286,32.047 12.0625306,31.6607143 12.0047318,31.1635685 L11.998,31.047 L11.998,21.047 L20.024,21.047 L20.024,26.059 C20.024,26.5715714 20.4102857,26.9944694 20.9074315,27.0522682 L21.024,27.059 C21.576,27.059 22.024,26.611 22.024,26.059 L22.024,26.059 L22.024,21.047 L29.998,21.047 Z M21.046,28.052 L21,28.052 C20.46,28.052 20.023,28.489 20.023,29.029 C20.023,29.569 20.46,30.006 21,30.006 L21,30.006 L21.046,30.006 C21.585,30.006 22.023,29.569 22.023,29.029 C22.023,28.489 21.586,28.052 21.046,28.052 L21.046,28.052 Z M20.99,8.065 C25.4023089,8.065 28.9807702,11.6377775 28.9899822,16.0479307 L29.998,16.047 L32.998,20.047 L22.023928,20.046885 C22.0174303,19.5004599 21.571956,19.059 21.024,19.059 C20.472,19.059 20.024,19.507 20.024,20.059 L20.025,20.047 L8.998,20.047 L11.998,16.047 L12.989,16.047 L12.9938071,15.8158358 C13.1254674,11.5131054 16.6553585,8.065 20.99,8.065 Z M20.991,9.065 C17.130705,9.065 14.0002512,12.1897572 13.9910205,16.0478897 L18.9910089,16.0480252 C18.991003,16.0460175 18.991,16.0440091 18.991,16.042 C18.991,14.937 19.886,14.042 20.991,14.042 C22.096,14.042 22.991,14.938 22.991,16.042 L22.99,16.047 L27.99,16.047 L27.986941,15.8243498 C27.860099,12.0697769 24.7764583,9.065 20.991,9.065 Z M20.991,15.042 C20.439,15.042 19.991,15.49 19.991,16.042 L19.99,16.047 L21.990982,16.0480617 L21.991,16.042 C21.991,15.49 21.543,15.042 20.991,15.042 Z M23.351,10.512 C24.013,10.844 24.644,11.287 25.207,11.85 C25.6895714,12.3325714 26.0839796,12.865102 26.3958921,13.4242915 L26.545,13.706 L23.748,14.822 C23.591,14.507 23.386,14.205 23.119,13.938 C22.9046,13.7244 22.66908,13.55048 22.422168,13.409072 L22.235,13.309 L23.351,10.512 Z"/>
  </g>
</svg>
