<svg xmlns="http://www.w3.org/2000/svg" xmlns:xlink="http://www.w3.org/1999/xlink" width="48" height="48" viewBox="0 0 48 48">
  <defs>
    <filter id="package-install-failed-a" width="131%" height="131%" x="-15.5%" y="-15.5%" filterUnits="objectBoundingBox">
      <feOffset dy="1" in="SourceAlpha" result="shadowOffsetOuter1"/>
      <feGaussianBlur in="shadowOffsetOuter1" result="shadowBlurOuter1" stdDeviation="1"/>
      <feColorMatrix in="shadowBlurOuter1" result="shadowMatrixOuter1" values="0 0 0 0 0   0 0 0 0 0   0 0 0 0 0  0 0 0 0.2 0"/>
      <feMerge>
        <feMergeNode in="shadowMatrixOuter1"/>
        <feMergeNode in="SourceGraphic"/>
      </feMerge>
    </filter>
    <path id="package-install-failed-b" d="M14.8748671,41.0814194 C3.78446033,37.6992635 -2.46353788,25.9656389 0.918695021,14.8754846 C4.30092792,3.78533034 16.03377,-2.46357534 27.1241767,0.918580553 C38.2145835,4.30073647 44.4636314,16.0343611 41.0813985,27.1245154 C37.6991656,38.2146697 25.9652738,44.4635753 14.8748671,41.0814194 Z"/>
    <filter id="package-install-failed-c" width="123.8%" height="123.8%" x="-11.9%" y="-11.9%" filterUnits="objectBoundingBox">
      <feGaussianBlur in="SourceAlpha" result="shadowBlurInner1" stdDeviation="5"/>
      <feOffset in="shadowBlurInner1" result="shadowOffsetInner1"/>
      <feComposite in="shadowOffsetInner1" in2="SourceAlpha" k2="-1" k3="1" operator="arithmetic" result="shadowInnerInner1"/>
      <feColorMatrix in="shadowInnerInner1" values="0 0 0 0 1   0 0 0 0 0.487725086   0 0 0 0 0.487725086  0 0 0 1 0"/>
    </filter>
  </defs>
  <g fill="none" fill-rule="evenodd">
    <g fill-rule="nonzero" filter="url(#package-install-failed-a)" transform="translate(3 3)">
      <use fill="#E04141" xlink:href="#package-install-failed-b"/>
      <use fill="#000" filter="url(#package-install-failed-c)" xlink:href="#package-install-failed-b"/>
    </g>
    <path fill="#FFF" fill-rule="nonzero" d="M32.998,24.047 L32.998,34.047 C32.998,34.5595714 32.6117143,34.9824694 32.1145685,35.0402682 L31.998,35.047 L15.998,35.047 C15.4854286,35.047 15.0625306,34.6607143 15.0047318,34.1635685 L14.998,34.047 L14.998,24.047 L23.024,24.047 L23.024,29.059 C23.024,29.5715714 23.4102857,29.9944694 23.9074315,30.0522682 L24.024,30.059 C24.576,30.059 25.024,29.611 25.024,29.059 L25.024,29.059 L25.024,24.047 L32.998,24.047 Z M24.046,31.052 L24,31.052 C23.46,31.052 23.023,31.489 23.023,32.029 C23.023,32.569 23.46,33.006 24,33.006 L24,33.006 L24.046,33.006 C24.585,33.006 25.023,32.569 25.023,32.029 C25.023,31.489 24.586,31.052 24.046,31.052 L24.046,31.052 Z M23.99,11.065 C28.4023089,11.065 31.9807702,14.6377775 31.9899822,19.0479307 L32.998,19.047 L35.998,23.047 L25.023928,23.046885 C25.0174303,22.5004599 24.571956,22.059 24.024,22.059 C23.472,22.059 23.024,22.507 23.024,23.059 L23.025,23.047 L11.998,23.047 L14.998,19.047 L15.989,19.047 L15.9938071,18.8158358 C16.1254674,14.5131054 19.6553585,11.065 23.99,11.065 Z M23.991,12.065 C20.130705,12.065 17.0002512,15.1897572 16.9910205,19.0478897 L21.9910089,19.0480252 C21.991003,19.0460175 21.991,19.0440091 21.991,19.042 C21.991,17.937 22.886,17.042 23.991,17.042 C25.096,17.042 25.991,17.938 25.991,19.042 L25.99,19.047 L30.99,19.047 L30.986941,18.8243498 C30.860099,15.0697769 27.7764583,12.065 23.991,12.065 Z M23.991,18.042 C23.439,18.042 22.991,18.49 22.991,19.042 L22.99,19.047 L24.990982,19.0480617 L24.991,19.042 C24.991,18.49 24.543,18.042 23.991,18.042 Z M26.351,13.512 C27.013,13.844 27.644,14.287 28.207,14.85 C28.6895714,15.3325714 29.0839796,15.865102 29.3958921,16.4242915 L29.545,16.706 L26.748,17.822 C26.591,17.507 26.386,17.205 26.119,16.938 C25.9046,16.7244 25.66908,16.55048 25.422168,16.409072 L25.235,16.309 L26.351,13.512 Z"/>
  </g>
</svg>
