<svg xmlns="http://www.w3.org/2000/svg" xmlns:xlink="http://www.w3.org/1999/xlink" width="48" height="48" viewBox="0 0 48 48">
  <defs>
    <filter id="stock-cell-phone-failed-a" width="131%" height="131%" x="-15.5%" y="-15.5%" filterUnits="objectBoundingBox">
      <feOffset dy="1" in="SourceAlpha" result="shadowOffsetOuter1"/>
      <feGaussianBlur in="shadowOffsetOuter1" result="shadowBlurOuter1" stdDeviation="1"/>
      <feColorMatrix in="shadowBlurOuter1" result="shadowMatrixOuter1" values="0 0 0 0 0   0 0 0 0 0   0 0 0 0 0  0 0 0 0.2 0"/>
      <feMerge>
        <feMergeNode in="shadowMatrixOuter1"/>
        <feMergeNode in="SourceGraphic"/>
      </feMerge>
    </filter>
    <path id="stock-cell-phone-failed-b" d="M41.0813985,27.1245154 C37.6991656,38.2146697 25.9652738,44.4635753 14.8748671,41.0814194 C3.78446033,37.6992635 -2.46353788,25.9656389 0.918695021,14.8754846 C4.30092792,3.78533034 16.03377,-2.46357534 27.1241767,0.918580553 C38.2145835,4.30073647 44.4636314,16.0343611 41.0813985,27.1245154"/>
    <filter id="stock-cell-phone-failed-c" width="123.8%" height="123.8%" x="-11.9%" y="-11.9%" filterUnits="objectBoundingBox">
      <feGaussianBlur in="SourceAlpha" result="shadowBlurInner1" stdDeviation="5"/>
      <feOffset in="shadowBlurInner1" result="shadowOffsetInner1"/>
      <feComposite in="shadowOffsetInner1" in2="SourceAlpha" k2="-1" k3="1" operator="arithmetic" result="shadowInnerInner1"/>
      <feColorMatrix in="shadowInnerInner1" values="0 0 0 0 1   0 0 0 0 0.487725086   0 0 0 0 0.487725086  0 0 0 1 0"/>
    </filter>
  </defs>
  <g fill="none" fill-rule="evenodd" filter="url(#stock-cell-phone-failed-a)" transform="translate(3 3)">
    <g fill-rule="nonzero">
      <use fill="#E04141" xlink:href="#stock-cell-phone-failed-b"/>
      <use fill="#000" filter="url(#stock-cell-phone-failed-c)" xlink:href="#stock-cell-phone-failed-b"/>
    </g>
    <g transform="translate(13.507 8.524)">
      <path stroke="#FFF" stroke-linecap="round" stroke-linejoin="round" d="M0.959508543,0 C0.42958661,0 0,0.433583699 0,0.948054314 L0,23.0334473 C0,23.5570432 0.427543052,23.9815016 0.959508543,23.9815016 L14.0570427,23.9815016 C14.5869647,23.9815016 15.0165513,23.5479178 15.0165513,23.0334473 L15.0165513,0.948054314 C15.0165513,0.424458375 14.5890082,0 14.0570427,0 L0.959508543,0 Z"/>
      <polygon fill="#FFF" fill-rule="nonzero" points="1.493 3.476 1.493 20.476 13.493 20.476 13.493 3.476"/>
      <line x1="7.017" x2="8.017" y1="21.984" y2="21.984" stroke="#FFF" stroke-linecap="round" stroke-linejoin="round"/>
      <line x1="5.993" x2="8.993" y1="1.998" y2="1.998" stroke="#FFF" stroke-linecap="round" stroke-linejoin="round"/>
    </g>
  </g>
</svg>
