<?xml version="1.0" encoding="UTF-8"?>
<svg width="24px" height="24px" viewBox="0 0 24 24" version="1.1" xmlns="http://www.w3.org/2000/svg" xmlns:xlink="http://www.w3.org/1999/xlink">
    <title>ICON/volume/bluetooth-24</title>
    <g id="ICON/volume/bluetooth-24" stroke="none" stroke-width="1" fill="none" fill-rule="evenodd">
        <path d="M12.1,1 C17.1257912,1 21.2,5.07420878 21.2,10.1 L21.2,14.1 C21.2,19.1257912 17.1257912,23.2 12.1,23.2 C7.07420878,23.2 3,19.1257912 3,14.1 L3,10.1 C3,5.07420878 7.07420878,1 12.1,1 Z M12.1,2.2 C7.73695048,2.2 4.2,5.73695048 4.2,10.1 L4.2,14.1 C4.2,18.4630495 7.73695048,22 12.1,22 C16.4630495,22 20,18.4630495 20,14.1 L20,10.1 C20,5.73695048 16.4630495,2.2 12.1,2.2 Z M11.8812443,4.20495946 L17.6836673,8.15243937 C17.9810837,8.35477648 17.9739394,8.79554994 17.6701218,8.98814197 L12.569,12.220362 L12.5863778,12.2313527 C13.6428054,12.8502666 14.7276184,13.4858102 17.309757,14.9985704 L17.6551699,15.2009324 C17.9720393,15.3865721 17.9873508,15.8390546 17.6837554,16.0456901 L15.7327279,17.3736136 L11.8813324,19.9949805 C11.5493971,20.2209049 11.1,19.9831637 11.1,19.581638 L11.1,13.152362 L7.36769882,15.5189164 C7.16038337,15.6503351 6.89326099,15.6102469 6.73262296,15.4359112 L6.67769994,15.3643152 C6.52985396,15.1310853 6.5990713,14.8221623 6.83230118,14.6743163 L10.648,12.254362 L10.5983009,12.2256035 C10.3136428,12.0588349 10.0001433,11.8751695 9.64271093,11.6657658 L9.42285883,11.5369643 C7.72059067,10.5396811 7.36839725,10.3333466 7.08137986,10.1651959 L7.00713939,10.1217017 C6.95750494,10.0926231 6.90646241,10.0627196 6.84725309,10.0280315 C6.6089891,9.88844319 6.52899662,9.58213342 6.66858489,9.34386943 C6.80817316,9.10560545 7.11448293,9.02561297 7.35274691,9.16520124 C7.39715391,9.19121732 7.43696708,9.21454209 7.47503776,9.236846 L7.58687369,9.3023657 C7.87389108,9.47051642 8.2260845,9.67685086 9.92835266,10.674134 C10.3039618,10.8941867 10.6326199,11.0867328 10.9294182,11.2606138 L11.1,11.360362 L11.1,4.618362 C11.1,4.21688476 11.5493008,3.97913312 11.8812443,4.20495946 Z M12.1,13.105362 L12.1,18.635362 L15.1700631,16.5469285 L16.467,15.663362 L16.1636617,15.4861007 C14.3379597,14.4165031 13.3511003,13.8383461 12.4989772,13.3391251 L12.2189606,13.1750758 L12.1,13.105362 Z M12.1,5.563362 L12.1,11.334362 L16.492,8.550362 L12.1,5.563362 Z" id="形状结合" fill="#000000" fill-rule="nonzero"></path>
    </g>
</svg>