<?xml version="1.0" encoding="UTF-8"?>
<svg width="24px" height="24px" viewBox="0 0 24 24" version="1.1" xmlns="http://www.w3.org/2000/svg" xmlns:xlink="http://www.w3.org/1999/xlink">
    <title>ICON/volume/else-24</title>
    <g id="ICON/volume/else-24" stroke="none" stroke-width="1" fill="none" fill-rule="evenodd">
        <path d="M18,2 C19.6568542,2 21,3.34314575 21,5 L21,19 C21,20.6568542 19.6568542,22 18,22 L7,22 C5.34314575,22 4,20.6568542 4,19 L4,5 C4,3.34314575 5.34314575,2 7,2 L18,2 Z M18,3 L7,3 C5.8954305,3 5,3.8954305 5,5 L5,19 C5,20.1045695 5.8954305,21 7,21 L18,21 C19.1045695,21 20,20.1045695 20,19 L20,5 C20,3.8954305 19.1045695,3 18,3 Z M17.75,17.5 C18.4403559,17.5 19,18.0596441 19,18.75 C19,19.4403559 18.4403559,20 17.75,20 C17.0596441,20 16.5,19.4403559 16.5,18.75 C16.5,18.0596441 17.0596441,17.5 17.75,17.5 Z M7.25,17.5 C7.94035594,17.5 8.5,18.0596441 8.5,18.75 C8.5,19.4403559 7.94035594,20 7.25,20 C6.55964406,20 6,19.4403559 6,18.75 C6,18.0596441 6.55964406,17.5 7.25,17.5 Z M12.5,6.5 C15.5375661,6.5 18,8.96243388 18,12 C18,15.0375661 15.5375661,17.5 12.5,17.5 C9.46243388,17.5 7,15.0375661 7,12 C7,8.96243388 9.46243388,6.5 12.5,6.5 Z M12.5,7.6 C10.0699471,7.6 8.1,9.5699471 8.1,12 C8.1,14.4300529 10.0699471,16.4 12.5,16.4 C14.9300529,16.4 16.9,14.4300529 16.9,12 C16.9,9.5699471 14.9300529,7.6 12.5,7.6 Z M12.5,9.5 C13.8807119,9.5 15,10.6192881 15,12 C15,13.3807119 13.8807119,14.5 12.5,14.5 C11.1192881,14.5 10,13.3807119 10,12 C10,10.6192881 11.1192881,9.5 12.5,9.5 Z M17.75,4 C18.4403559,4 19,4.55964406 19,5.25 C19,5.94035594 18.4403559,6.5 17.75,6.5 C17.0596441,6.5 16.5,5.94035594 16.5,5.25 C16.5,4.55964406 17.0596441,4 17.75,4 Z M7.25,4 C7.94035594,4 8.5,4.55964406 8.5,5.25 C8.5,5.94035594 7.94035594,6.5 7.25,6.5 C6.55964406,6.5 6,5.94035594 6,5.25 C6,4.55964406 6.55964406,4 7.25,4 Z" id="形状结合" fill="#000000" fill-rule="nonzero"></path>
    </g>
</svg>