<?xml version="1.0" encoding="UTF-8"?>
<svg width="16px" height="16px" viewBox="0 0 16 16" version="1.1" xmlns="http://www.w3.org/2000/svg" xmlns:xlink="http://www.w3.org/1999/xlink">
    <title>ICON/volume/loudspeaker</title>
    <g id="ICON/volume/loudspeaker" stroke="none" stroke-width="1" fill="none" fill-rule="evenodd">
        <path d="M12,1 C13.1045695,1 14,1.8954305 14,3 L14,13 C14,14.1045695 13.1045695,15 12,15 L4,15 C2.8954305,15 2,14.1045695 2,13 L2,3 C2,1.8954305 2.8954305,1 4,1 L12,1 Z M12,2 L4,2 C3.44771525,2 3,2.44771525 3,3 L3,13 C3,13.5522847 3.44771525,14 4,14 L12,14 C12.5522847,14 13,13.5522847 13,13 L13,3 C13,2.44771525 12.5522847,2 12,2 Z M7,7 C8.65685425,7 10,8.34314575 10,10 C10,11.6568542 8.65685425,13 7,13 C5.34314575,13 4,11.6568542 4,10 C4,8.34314575 5.34314575,7 7,7 Z M7,8 C5.8954305,8 5,8.8954305 5,10 C5,11.1045695 5.8954305,12 7,12 C8.1045695,12 9,11.1045695 9,10 C9,8.8954305 8.1045695,8 7,8 Z M7,9 C7.55228475,9 8,9.44771525 8,10 C8,10.5522847 7.55228475,11 7,11 C6.44771525,11 6,10.5522847 6,10 C6,9.44771525 6.44771525,9 7,9 Z M10,3 C11.1045695,3 12,3.8954305 12,5 C12,6.1045695 11.1045695,7 10,7 C8.8954305,7 8,6.1045695 8,5 C8,3.8954305 8.8954305,3 10,3 Z M10,4.1 C9.50294373,4.1 9.1,4.50294373 9.1,5 C9.1,5.49705627 9.50294373,5.9 10,5.9 C10.4970563,5.9 10.9,5.49705627 10.9,5 C10.9,4.50294373 10.4970563,4.1 10,4.1 Z" id="形状结合" fill="#000000" fill-rule="nonzero"></path>
    </g>
</svg>