<?xml version="1.0" encoding="UTF-8"?>
<svg width="60px" height="60px" viewBox="0 0 60 60" version="1.1" xmlns="http://www.w3.org/2000/svg" xmlns:xlink="http://www.w3.org/1999/xlink">
    <title>头像/用户大</title>
    <defs>
        <circle id="path-1" cx="30" cy="30" r="30"></circle>
        <linearGradient x1="50%" y1="0%" x2="50%" y2="61.6089802%" id="linearGradient-3">
            <stop stop-color="#FFEEDA" offset="0%"></stop>
            <stop stop-color="#E9B271" offset="100%"></stop>
        </linearGradient>
        <linearGradient x1="50%" y1="9.41877451%" x2="50%" y2="87.3561558%" id="linearGradient-4">
            <stop stop-color="#FFEBD5" offset="0%"></stop>
            <stop stop-color="#E28F35" offset="100%"></stop>
        </linearGradient>
        <path d="M30,4 C37.1797017,4 43,9.82029825 43,17 C43,24.1797017 37.1797017,30 30,30 C22.8202983,30 17,24.1797017 17,17 C17,9.82029825 22.8202983,4 30,4 Z M38,14.5 C37.1715729,14.5 36.5,15.1715729 36.5,16 C36.5,19.5898509 33.5898509,22.5 30,22.5 C26.4101491,22.5 23.5,19.5898509 23.5,16 C23.5,15.1715729 22.8284271,14.5 22,14.5 C21.1715729,14.5 20.5,15.1715729 20.5,16 C20.5,21.2467051 24.7532949,25.5 30,25.5 C35.2467051,25.5 39.5,21.2467051 39.5,16 C39.5,15.1715729 38.8284271,14.5 38,14.5 Z" id="path-5"></path>
        <filter x="-18.5%" y="-18.5%" width="136.9%" height="136.9%" filterUnits="objectBoundingBox" id="filter-6">
            <feGaussianBlur stdDeviation="2.5" in="SourceAlpha" result="shadowBlurInner1"></feGaussianBlur>
            <feOffset dx="0" dy="3" in="shadowBlurInner1" result="shadowOffsetInner1"></feOffset>
            <feComposite in="shadowOffsetInner1" in2="SourceAlpha" operator="arithmetic" k2="-1" k3="1" result="shadowInnerInner1"></feComposite>
            <feColorMatrix values="0 0 0 0 1   0 0 0 0 0.899667323   0 0 0 0 0.762683403  0 0 0 0.770982436 0" type="matrix" in="shadowInnerInner1"></feColorMatrix>
        </filter>
    </defs>
    <g id="头像/用户大" stroke="none" stroke-width="1" fill="none" fill-rule="evenodd">
        <g id="编组-7">
            <mask id="mask-2" fill="white">
                <use xlink:href="#path-1"></use>
            </mask>
            <g id="椭圆形"></g>
            <circle id="椭圆形" stroke-opacity="0.2" stroke="#000000" fill="#DD8282" mask="url(#mask-2)" cx="30" cy="62" r="30.5"></circle>
            <circle id="椭圆形" stroke-opacity="0.1" stroke="#000000" stroke-width="0.8" fill="url(#linearGradient-3)" mask="url(#mask-2)" cx="30" cy="52" r="20.4"></circle>
        </g>
        <g id="形状结合">
            <use fill="url(#linearGradient-4)" fill-rule="evenodd" xlink:href="#path-5"></use>
            <use fill="black" fill-opacity="1" filter="url(#filter-6)" xlink:href="#path-5"></use>
            <path stroke-opacity="0.2" stroke="#000000" stroke-width="0.8" d="M30,3.6 C33.7003078,3.6 37.0503078,5.09984609 39.4752309,7.52476913 C41.9001539,9.94969218 43.4,13.2996922 43.4,17 C43.4,20.7003078 41.9001539,24.0503078 39.4752309,26.4752309 C37.0503078,28.9001539 33.7003078,30.4 30,30.4 C26.2996922,30.4 22.9496922,28.9001539 20.5247691,26.4752309 C18.0998461,24.0503078 16.6,20.7003078 16.6,17 C16.6,13.2996922 18.0998461,9.94969218 20.5247691,7.52476913 C22.9496922,5.09984609 26.2996922,3.6 30,3.6 Z M38,14.9 C37.6962434,14.9 37.4212434,15.0231217 37.2221825,15.2221825 C37.0231217,15.4212434 36.9,15.6962434 36.9,16 C36.9,17.9053824 36.1276912,19.6303824 34.8790368,20.8790368 C33.6303824,22.1276912 31.9053824,22.9 30,22.9 C28.0946176,22.9 26.3696176,22.1276912 25.1209632,20.8790368 C23.8723088,19.6303824 23.1,17.9053824 23.1,16 C23.1,15.6962434 22.9768783,15.4212434 22.7778175,15.2221825 C22.5787566,15.0231217 22.3037566,14.9 22,14.9 C21.6962434,14.9 21.4212434,15.0231217 21.2221825,15.2221825 C21.0231217,15.4212434 20.9,15.6962434 20.9,16 C20.9,18.5128956 21.9185522,20.7878956 23.5653283,22.4346717 C25.2121044,24.0814478 27.4871044,25.1 30,25.1 C32.5128956,25.1 34.7878956,24.0814478 36.4346717,22.4346717 C38.0814478,20.7878956 39.1,18.5128956 39.1,16 C39.1,15.6962434 38.9768783,15.4212434 38.7778175,15.2221825 C38.5787566,15.0231217 38.3037566,14.9 38,14.9 Z"></path>
        </g>
    </g>
</svg>