<?xml version="1.0" encoding="UTF-8"?>
<svg width="32px" height="32px" viewBox="0 0 32 32" version="1.1" xmlns="http://www.w3.org/2000/svg" xmlns:xlink="http://www.w3.org/1999/xlink">
    <title>icon/列表/断开链接</title>
    <g id="icon/列表/断开链接" stroke="none" stroke-width="1" fill="none" fill-rule="evenodd">
        <g id="编组" fill="#000000">
            <circle id="椭圆形" fill-opacity="0.05" cx="16" cy="16" r="16"></circle>
            <g id="取消链接" transform="translate(8, 8)" fill-opacity="0.7">
                <path d="M6.56723099,2.0877307 C6.96302038,2.0877307 7.28387107,2.39916745 7.28387107,2.78334416 L7.28387107,15.3043865 C7.28387107,15.6885632 6.96302038,16 6.56723099,16 C6.1714416,16 5.85059091,15.6885632 5.85059091,15.3043865 L5.85050188,15.0197711 C4.36073115,15.8661752 2.41519469,15.6692663 1.13748416,14.4290446 C-0.381374066,12.9547505 -0.381374066,10.5644475 1.15080385,9.07755574 L5.63759392,4.9427836 C5.70137906,4.88400282 5.77338966,4.83884881 5.84981057,4.80722544 L5.85059091,2.78334416 C5.85059091,2.39916745 6.1714416,2.0877307 6.56723099,2.0877307 Z M5.84921634,6.66536822 L2.15096628,10.0738994 C1.19183877,11.0048856 1.19183877,12.5143124 2.15096628,13.4452986 C3.05367452,14.3215208 4.48426134,14.3730633 5.44907295,13.599926 L5.62427423,13.4452986 C5.69107337,13.3804593 5.76777873,13.3310962 5.84966142,13.297209 L5.84921634,6.66536822 Z M14.8635381,1.10572057 C16.3261424,2.52541117 16.3803129,4.79451469 15.00679,6.29505551 L14.8419696,6.464692 L11.2259834,9.69338269 C10.9346928,9.95347418 10.4813359,9.93511072 10.2133826,9.65236674 C9.97520176,9.40103876 9.96368521,9.02541557 10.1686492,8.76237599 L10.2556383,8.66947617 L13.850056,5.46086574 C14.8091835,4.52987956 14.8091835,3.02045274 13.850056,2.08946656 C12.8909285,1.15848039 11.3358756,1.15848039 10.3767481,2.08946656 C10.0968827,2.36112052 9.64313131,2.36112052 9.36326595,2.08946656 C9.08340059,1.81781261 9.08340059,1.37737452 9.36326595,1.10572057 C10.8821242,-0.368573522 13.3446799,-0.368573522 14.8635381,1.10572057 Z" id="形状"></path>
            </g>
        </g>
    </g>
</svg>