<?xml version="1.0" encoding="UTF-8"?>
<svg width="34px" height="34px" viewBox="0 0 34 34" version="1.1" xmlns="http://www.w3.org/2000/svg" xmlns:xlink="http://www.w3.org/1999/xlink">
    <title>circlebutton_voice</title>
    <defs>
        <linearGradient x1="50%" y1="41.4361479%" x2="50%" y2="100%" id="linearGradient-1">
            <stop stop-color="#FFFFFF" offset="0%"></stop>
            <stop stop-color="#FFFFFF" offset="34.0878783%"></stop>
            <stop stop-color="#F3F3F3" offset="62.7017222%"></stop>
            <stop stop-color="#FFFFFF" offset="100%"></stop>
        </linearGradient>
    </defs>
    <g id="浅色" stroke="none" stroke-width="1" fill="none" fill-rule="evenodd">
        <g id="按钮状态备份" transform="translate(-78.000000, -137.000000)" fill="url(#linearGradient-1)">
            <g id="circlebutton_voice_normal" transform="translate(78.000000, 137.000000)">
                <path d="M25,19.531248 L25,18.031248 L24,18.031248 L24,19.531248 C24,20.427088 23.828128,21.26562 23.484376,22.046876 C23.140624,22.828128 22.671876,23.515624 22.078124,24.109376 C21.484372,24.703128 20.791672,25.166664 20,25.5 C19.208328,25.833336 18.364588,26 17.468752,26 L17.468752,26 C16.572912,26 15.73438,25.833336 14.953124,25.5 C14.171872,25.166664 13.484378,24.703128 12.8906248,24.109376 C12.296872,23.515624 11.8333348,22.828128 11.5,22.046876 C11.1666652,21.26562 11,20.427088 11,19.531248 L11,18.031248 L10,18.031248 L10,19.531248 C10,20.468756 10.166665,21.359372 10.5,22.203124 C10.8333348,23.04688 11.2864556,23.791664 11.8593752,24.4375 C12.4322944,25.083336 13.1093712,25.624996 13.8906248,26.0625 C14.67188,26.500004 15.510412,26.781248 16.406248,26.906248 L16.406248,29.90625 C14.989576,30.0312508 13.8072964,30.2968728 12.8593752,30.7031248 C11.9114536,31.1093772 11.4375,31.531248 11.4375,31.96875 C11.4375,31.9895834 12.0781184,32 13.3593752,32 L17.578124,32 L21.796876,32 C23.078132,32 23.718752,31.9895834 23.718752,31.96875 C23.718752,31.5104144 23.20834,31.0729188 22.1875,30.65625 C21.16666,30.2395812 19.906256,29.9895836 18.406248,29.90625 L18.406248,26.906248 C19.32292,26.802084 20.182288,26.53646 20.984376,26.109376 C21.786464,25.682288 22.484372,25.140628 23.078124,24.484376 C23.671876,23.82812 24.140624,23.078128 24.484376,22.234376 C24.828128,21.39062 25,20.489588 25,19.531248 Z M17.468752,24.9375 C18.989592,24.9375 20.29166,24.406256 21.375,23.343752 C22.45834,22.281244 23,20.989592 23,19.468752 L23,18.031248 L12,18.031248 L12,19.468752 C12,20.989592 12.5312448,22.281244 13.59375,23.343752 C14.656256,24.406256 15.947908,24.9375 17.468752,24.9375 Z M17.468752,3 C18.989592,3 20.29166,3.536452 21.375,4.609376 C22.45834,5.682296 23,6.968744 23,8.468752 L23,8.468752 L23,13 L19,13 L19,14 L23,14 L23,15 L19,15 L19,16 L23,16 L23,17.0625 L12,17.0625 L12,16 L16,16 L16,15 L12,15 L12,14 L16,14 L16,13 L12,13 L12,8.468752 C12,6.968744 12.5312448,5.682296 13.59375,4.609376 C14.656256,3.536452 15.947908,3 17.468752,3 Z M22,11 L21,11 L21,12 L22,12 L22,11 Z M20,11 L19,11 L19,12 L20,12 L20,11 Z M18,11 L17,11 L17,12 L18,12 L18,11 Z M16,11 L15,11 L15,12 L16,12 L16,11 Z M14,11 L13,11 L13,12 L14,12 L14,11 Z M22,9 L21,9 L21,10 L22,10 L22,9 Z M20,9 L19,9 L19,10 L20,10 L20,9 Z M18,9 L17,9 L17,10 L18,10 L18,9 Z M16,9 L15,9 L15,10 L16,10 L16,9 Z M14,9 L13,9 L13,10 L14,10 L14,9 Z M15,7 L14,7 L14,8 L15,8 L15,7 Z M17,7 L16,7 L16,8 L17,8 L17,7 Z M19,7 L18,7 L18,8 L19,8 L19,7 Z M21,7 L20,7 L20,8 L21,8 L21,7 Z M16,5 L15,5 L15,6 L16,6 L16,5 Z M18,5 L17,5 L17,6 L18,6 L18,5 Z M20,5 L19,5 L19,6 L20,6 L20,5 Z" id="Page-1"></path>
            </g>
        </g>
    </g>
</svg>