<?xml version="1.0" encoding="UTF-8"?>
<svg width="28px" height="28px" viewBox="0 0 28 28" version="1.1" xmlns="http://www.w3.org/2000/svg" xmlns:xlink="http://www.w3.org/1999/xlink">
    <title>record_normal</title>
    <defs>
        <linearGradient x1="50%" y1="41.4361479%" x2="50%" y2="100%" id="linearGradient-1">
            <stop stop-color="#FFFFFF" offset="0%"></stop>
            <stop stop-color="#FFFFFF" offset="34.0878783%"></stop>
            <stop stop-color="#F3F3F3" offset="62.7017222%"></stop>
            <stop stop-color="#FFFFFF" offset="100%"></stop>
        </linearGradient>
    </defs>
    <g id="浅色" stroke="none" stroke-width="1" fill="none" fill-rule="evenodd">
        <g id="按钮状态备份" transform="translate(-583.000000, -144.000000)" fill="url(#linearGradient-1)">
            <g id="record_normal" transform="translate(583.000000, 144.000000)">
                <path d="M20.3829787,15.7287217 L20.3829787,14.452126 L19.5319149,14.452126 L19.5319149,15.7287217 C19.5319149,16.4911387 19.3856409,17.204783 19.093086,17.8696817 C18.8005311,18.534577 18.4015966,19.11968 17.8962757,19.6250009 C17.3909549,20.1303217 16.801423,20.5248204 16.1276596,20.8085106 C15.4538962,21.0922009 14.7358196,21.2340426 13.973406,21.2340426 L13.973406,21.2340426 C13.2109889,21.2340426 12.4973447,21.0922009 11.832446,20.8085106 C11.1675506,20.5248204 10.5824494,20.1303217 10.0771275,19.6250009 C9.57180596,19.11968 9.17730621,18.534577 8.89361702,17.8696817 C8.60992783,17.204783 8.46808511,16.4911387 8.46808511,15.7287217 L8.46808511,14.452126 L7.61702128,14.452126 L7.61702128,15.7287217 C7.61702128,16.5266009 7.75886383,17.2845719 8.04255319,18.0026587 C8.32624238,18.7207489 8.71187711,19.3546077 9.19946826,19.9042553 C9.68705906,20.453903 10.2632946,20.9148902 10.9281913,21.287234 C11.5930894,21.6595779 12.3067336,21.8989345 13.0691472,22.0053174 L13.0691472,24.5585106 C11.8634689,24.6648943 10.8572735,24.8909556 10.0505321,25.236702 C9.2437903,25.5824487 8.84042553,25.9414877 8.84042553,26.3138298 C8.84042553,26.3315604 9.38563268,26.3404255 10.476064,26.3404255 L14.0664885,26.3404255 L17.6569157,26.3404255 C18.7473464,26.3404255 19.2925549,26.3315604 19.2925549,26.3138298 C19.2925549,25.9237569 18.8581617,25.5514203 17.9893617,25.1968085 C17.1205617,24.8421968 16.0478774,24.6294329 14.7712749,24.5585106 L14.7712749,22.0053174 C15.5514213,21.9166672 16.2827983,21.6906043 16.9654264,21.3271285 C17.6480545,20.9636494 18.2420187,20.5026621 18.7473396,19.9441498 C19.2526604,19.385634 19.6515949,18.747343 19.9441498,18.0292562 C20.2367047,17.311166 20.3829787,16.5443302 20.3829787,15.7287217 Z M13.973406,20.3297872 C15.2677379,20.3297872 16.3758809,19.8776647 17.2978723,18.973406 C18.2198638,18.0691438 18.6808511,16.9698655 18.6808511,15.6755336 L18.6808511,14.452126 L9.31914894,14.452126 L9.31914894,15.6755336 C9.31914894,16.9698655 9.77127217,18.0691438 10.6755319,18.973406 C11.5797923,19.8776647 12.6790706,20.3297872 13.973406,20.3297872 Z M13.973406,1.65957447 C15.2677379,1.65957447 16.3758809,2.11612936 17.2978723,3.02925617 C18.2198638,3.94237957 18.6808511,5.03722894 18.6808511,6.31383149 L18.6808511,6.31383149 L18.6808511,10.1702128 L15.2765957,10.1702128 L15.2765957,11.0212766 L18.6808511,11.0212766 L18.6808511,11.8723404 L15.2765957,11.8723404 L15.2765957,12.7234043 L18.6808511,12.7234043 L18.6808511,13.6276596 L9.31914894,13.6276596 L9.31914894,12.7234043 L12.7234043,12.7234043 L12.7234043,11.8723404 L9.31914894,11.8723404 L9.31914894,11.0212766 L12.7234043,11.0212766 L12.7234043,10.1702128 L9.31914894,10.1702128 L9.31914894,6.31383149 C9.31914894,5.03722894 9.77127217,3.94237957 10.6755319,3.02925617 C11.5797923,2.11612936 12.6790706,1.65957447 13.973406,1.65957447 Z M17.8297872,8.46808511 L16.9787234,8.46808511 L16.9787234,9.31914894 L17.8297872,9.31914894 L17.8297872,8.46808511 Z M16.1276596,8.46808511 L15.2765957,8.46808511 L15.2765957,9.31914894 L16.1276596,9.31914894 L16.1276596,8.46808511 Z M14.4255319,8.46808511 L13.5744681,8.46808511 L13.5744681,9.31914894 L14.4255319,9.31914894 L14.4255319,8.46808511 Z M12.7234043,8.46808511 L11.8723404,8.46808511 L11.8723404,9.31914894 L12.7234043,9.31914894 L12.7234043,8.46808511 Z M11.0212766,8.46808511 L10.1702128,8.46808511 L10.1702128,9.31914894 L11.0212766,9.31914894 L11.0212766,8.46808511 Z M17.8297872,6.76595745 L16.9787234,6.76595745 L16.9787234,7.61702128 L17.8297872,7.61702128 L17.8297872,6.76595745 Z M16.1276596,6.76595745 L15.2765957,6.76595745 L15.2765957,7.61702128 L16.1276596,7.61702128 L16.1276596,6.76595745 Z M14.4255319,6.76595745 L13.5744681,6.76595745 L13.5744681,7.61702128 L14.4255319,7.61702128 L14.4255319,6.76595745 Z M12.7234043,6.76595745 L11.8723404,6.76595745 L11.8723404,7.61702128 L12.7234043,7.61702128 L12.7234043,6.76595745 Z M11.0212766,6.76595745 L10.1702128,6.76595745 L10.1702128,7.61702128 L11.0212766,7.61702128 L11.0212766,6.76595745 Z M11.8723404,5.06382979 L11.0212766,5.06382979 L11.0212766,5.91489362 L11.8723404,5.91489362 L11.8723404,5.06382979 Z M13.5744681,5.06382979 L12.7234043,5.06382979 L12.7234043,5.91489362 L13.5744681,5.91489362 L13.5744681,5.06382979 Z M15.2765957,5.06382979 L14.4255319,5.06382979 L14.4255319,5.91489362 L15.2765957,5.91489362 L15.2765957,5.06382979 Z M16.9787234,5.06382979 L16.1276596,5.06382979 L16.1276596,5.91489362 L16.9787234,5.91489362 L16.9787234,5.06382979 Z M12.7234043,3.36170213 L11.8723404,3.36170213 L11.8723404,4.21276596 L12.7234043,4.21276596 L12.7234043,3.36170213 Z M14.4255319,3.36170213 L13.5744681,3.36170213 L13.5744681,4.21276596 L14.4255319,4.21276596 L14.4255319,3.36170213 Z M16.1276596,3.36170213 L15.2765957,3.36170213 L15.2765957,4.21276596 L16.1276596,4.21276596 L16.1276596,3.36170213 Z" id="Page-1"></path>
            </g>
        </g>
    </g>
</svg>