<?xml version="1.0" encoding="utf-8"?>
<!-- Generator: Adobe Illustrator 24.0.0, SVG Export Plug-In . SVG Version: 6.00 Build 0)  -->
<svg version="1.1" id="图层_1" xmlns="http://www.w3.org/2000/svg" xmlns:xlink="http://www.w3.org/1999/xlink" x="0px" y="0px"
	 viewBox="0 0 50 50" enable-background="new 0 0 50 50" xml:space="preserve">
<g id="键盘">
	<g id="默认">
		<path fill="#FFFFFF" d="M47,5v29H3V5H47 M50,2H0v35h50V2z"/>
		<rect x="8" y="10" fill="#FFFFFF" width="3" height="3"/>
		<rect x="15" y="10" fill="#FFFFFF" width="3" height="3"/>
		<rect x="23" y="10" fill="#FFFFFF" width="3" height="3"/>
		<rect x="31" y="10" fill="#FFFFFF" width="3" height="3"/>
		<rect x="39" y="10" fill="#FFFFFF" width="3" height="3"/>
		<rect x="8" y="18" fill="#FFFFFF" width="3" height="3"/>
		<rect x="15" y="18" fill="#FFFFFF" width="3" height="3"/>
		<rect x="23" y="18" fill="#FFFFFF" width="3" height="3"/>
		<rect x="31" y="18" fill="#FFFFFF" width="3" height="3"/>
		<rect x="39" y="18" fill="#FFFFFF" width="3" height="3"/>
		<rect x="13" y="26" fill="#FFFFFF" width="24" height="3"/>
	</g>
</g>
<polygon fill="#FFFFFF" points="29,41 25,45 21,41 18,41 25,48 32,41 "/>
</svg>
