<svg id="图层_1" data-name="图层 1" xmlns="http://www.w3.org/2000/svg" viewBox="0 0 16 16"><defs><style>.cls-1{fill:#262626;}</style></defs><g id="n"><g id="_16-2" data-name=" 16-2"><path class="cls-1" d="M12,15a.5.5,0,0,1-.26-.08L8,12.59,4.27,14.92a.52.52,0,0,1-.56,0,.5.5,0,0,1-.2-.51l.94-4.52-3.29-3A.5.5,0,0,1,1.5,6H5.66L7.54,1.31a.51.51,0,0,1,.92,0L10.34,6H14.5a.5.5,0,0,1,.34.87l-3.29,3,.94,4.52a.5.5,0,0,1-.2.51A.52.52,0,0,1,12,15ZM8,11.5a.56.56,0,0,1,.27.08l3,1.88L10.51,9.8a.49.49,0,0,1,.15-.47L13.21,7H10a.49.49,0,0,1-.46-.31L8,2.85,6.46,6.69A.49.49,0,0,1,6,7H2.79L5.34,9.33a.49.49,0,0,1,.15.47l-.76,3.66,3-1.88A.56.56,0,0,1,8,11.5Z"/></g></g></svg>