<?xml version="1.0" encoding="utf-8"?>
<!-- Generator: Adobe Illustrator 25.0.0, SVG Export Plug-In . SVG Version: 6.00 Build 0)  -->
<svg version="1.1" id="图层_1" xmlns="http://www.w3.org/2000/svg" xmlns:xlink="http://www.w3.org/1999/xlink" x="0px" y="0px"
	 viewBox="0 0 16 16" style="enable-background:new 0 0 16 16;" xml:space="preserve">
<style type="text/css">
	.st0{fill:#E6A23B;}
</style>
<path id="路径" class="st0" d="M7.9,1C8,1,8.1,1.1,8.2,1.2l0,0L10,5.5l4.7,0.6c0.1,0,0.2,0.1,0.3,0.2c0,0.1,0,0.2-0.1,0.3l0,0
	l-3.6,3.2l1.1,4.8c0,0.2-0.1,0.3-0.2,0.4c-0.1,0-0.2,0-0.2,0l0,0l-4-2.6L3.9,15c-0.1,0-0.3,0-0.4-0.1c0-0.1-0.1-0.2,0-0.2l0,0
	l1.1-4.8L1,6.6C0.9,6.5,0.9,6.3,1,6.2c0.1-0.1,0.1-0.1,0.2-0.1l0,0l4.7-0.6l1.8-4.3C7.7,1.1,7.8,1,7.9,1z"/>
</svg>
