<?xml version="1.0" encoding="UTF-8"?>
<svg width="32px" height="32px" viewBox="0 0 32 32" version="1.1" xmlns="http://www.w3.org/2000/svg" xmlns:xlink="http://www.w3.org/1999/xlink">
    <title>icon/列表/链接</title>
    <g id="icon/列表/链接" stroke="none" stroke-width="1" fill="none" fill-rule="evenodd">
        <g id="编组" fill="#000000">
            <circle id="椭圆形" fill-opacity="0.05" cx="16" cy="16" r="16"></circle>
            <g id="ICON" transform="translate(8, 8)" fill-opacity="0.7">
                <path d="M4.02103062,7.4933964 C4.26973234,7.74209813 4.29736587,8.12815402 4.10393119,8.4073789 L4.02103062,8.5066036 L2.15204187,10.3755923 C1.19317454,11.3344597 1.19317454,12.8890908 2.15204187,13.8479581 C3.0604425,14.7563588 4.50354525,14.8041693 5.46823032,13.9913898 L5.62440765,13.8479581 L7.46627889,12.0060869 C7.74606833,11.7262975 8.19969665,11.7262975 8.47948609,12.0060869 C8.72818782,12.2547886 8.75582134,12.6408445 8.56238667,12.9200694 L8.47948609,13.0192941 L6.63761486,14.8611653 C5.11916864,16.3796116 2.65728089,16.3796116 1.13883467,14.8611653 C-0.323372806,13.3989579 -0.377528639,11.0618993 0.976367169,9.534888 L1.13883467,9.36238514 L3.00782341,7.4933964 C3.28761285,7.21360695 3.74124117,7.21360695 4.02103062,7.4933964 Z M9.86898874,5.79019725 C10.1487782,6.06998669 10.1487782,6.52361501 9.86898874,6.80340445 L7.14421846,9.52817474 C6.86442902,9.80796418 6.4108007,9.80796418 6.13101126,9.52817474 C5.85122181,9.24838529 5.85122181,8.79475698 6.13101126,8.51496753 L8.85578154,5.79019725 C9.13557098,5.5104078 9.5891993,5.5104078 9.86898874,5.79019725 Z M14.8611653,1.13883467 C16.3233728,2.60104214 16.3775286,4.93810074 15.0236328,6.465112 L14.8611653,6.63761486 L12.9921766,8.5066036 C12.7123871,8.78639305 12.2587588,8.78639305 11.9789694,8.5066036 C11.7302677,8.25790187 11.7026341,7.87184598 11.8960688,7.5926211 L11.9789694,7.4933964 L13.8479581,5.62440765 C14.8068255,4.66554032 14.8068255,3.1109092 13.8479581,2.15204187 C12.9395575,1.24364124 11.4964547,1.19583068 10.5317697,2.00861019 L10.3755923,2.15204187 L8.5066036,4.02103062 C8.22681416,4.30082006 7.77318584,4.30082006 7.4933964,4.02103062 C7.24469467,3.77232889 7.21706114,3.38627299 7.41049582,3.10704811 L7.4933964,3.00782341 L9.36238514,1.13883467 C10.8808314,-0.379611555 13.3427191,-0.379611555 14.8611653,1.13883467 Z" id="形状"></path>
            </g>
        </g>
    </g>
</svg>