<?xml version="1.0" encoding="UTF-8"?>
<svg width="32px" height="32px" viewBox="0 0 32 32" version="1.1" xmlns="http://www.w3.org/2000/svg" xmlns:xlink="http://www.w3.org/1999/xlink">
    <title>icon/列表/历史记录</title>
    <g id="icon/列表/历史记录" stroke="none" stroke-width="1" fill="none" fill-rule="evenodd">
        <g id="编组" fill="#000000">
            <circle id="椭圆形" fill-opacity="0.05" cx="16" cy="16" r="16"></circle>
            <path d="M21.75,8 C22.3368025,8 22.8125,8.47358324 22.8125,9.05777778 L22.8129145,12.8656815 C24.7048295,13.8287106 26,15.7882203 26,18.0488889 C26,21.2619588 23.383664,23.8666667 20.15625,23.8666667 C18.9055177,23.8666667 17.7465587,23.4754851 16.7960805,22.809311 L10.0625,22.8088889 C9.47569745,22.8088889 9,22.3353056 9,21.7511111 L9,9.05777778 C9,8.47358324 9.47569745,8 10.0625,8 L21.75,8 Z M20.1386933,13.4838591 C17.5575989,13.4838591 15.4652084,15.5696646 15.4652084,18.142636 C15.4652084,20.7156075 17.5575989,22.8014129 20.1386933,22.8014129 C22.7197877,22.8014129 24.8121781,20.7156075 24.8121781,18.142636 C24.8121781,15.5696646 22.7197877,13.4838591 20.1386933,13.4838591 Z M16.1451948,13.7130871 L10.3567777,13.7129147 L10.3567777,21.7228222 L15.2587003,21.7245673 C14.6602965,20.8115838 14.3125,19.220372 14.3125,18.0488889 C14.3125,16.4799502 14.9363283,14.9512038 15.9505169,13.9048063 L16.1451948,13.7130871 Z M19.8399754,16 C20.1656569,16 20.4296738,16.2640169 20.4296738,16.5896984 L20.4292771,18.39 L21.619002,18.3904554 C21.9446834,18.3904554 22.2087004,18.6544723 22.2087004,18.9801537 C22.2087004,19.3058351 21.9446834,19.5698521 21.619002,19.5698521 L19.8399754,19.5698521 C19.514294,19.5698521 19.2502771,19.3058351 19.2502771,18.9801537 L19.2502771,16.5896984 C19.2502771,16.2640169 19.514294,16 19.8399754,16 Z M21.6764438,9.37932208 L10.36,9.37932208 L10.36,12.4295336 L21.6764438,12.4295336 L21.6764438,9.37932208 Z" id="形状" fill-opacity="0.7"></path>
        </g>
    </g>
</svg>