<?xml version="1.0" encoding="UTF-8"?>
<svg width="20px" height="20px" viewBox="0 0 20 20" version="1.1" xmlns="http://www.w3.org/2000/svg" xmlns:xlink="http://www.w3.org/1999/xlink">
    <title>menu_normal</title>
    <g id="控件" stroke="none" stroke-width="1" fill="none" fill-rule="evenodd">
        <g id="DTK/Toolbar/TitleButton/Menu" fill="#000000">
            <rect id="bg" fill-opacity="0.288836051" opacity="0" x="0" y="0" width="20" height="20"></rect>
            <path d="M10,1 C14.9705627,1 19,5.02943725 19,10 C19,14.9705627 14.9705627,19 10,19 C5.02943725,19 1,14.9705627 1,10 C1,5.02943725 5.02943725,1 10,1 Z M10,2 C5.581722,2 2,5.581722 2,10 C2,14.418278 5.581722,18 10,18 C14.418278,18 18,14.418278 18,10 C18,5.581722 14.418278,2 10,2 Z M6,8.5 C6.82842712,8.5 7.5,9.17157288 7.5,10 C7.5,10.8284271 6.82842712,11.5 6,11.5 C5.17157288,11.5 4.5,10.8284271 4.5,10 C4.5,9.17157288 5.17157288,8.5 6,8.5 Z M10,8.5 C10.8284271,8.5 11.5,9.17157288 11.5,10 C11.5,10.8284271 10.8284271,11.5 10,11.5 C9.17157288,11.5 8.5,10.8284271 8.5,10 C8.5,9.17157288 9.17157288,8.5 10,8.5 Z M14,8.5 C14.8284271,8.5 15.5,9.17157288 15.5,10 C15.5,10.8284271 14.8284271,11.5 14,11.5 C13.1715729,11.5 12.5,10.8284271 12.5,10 C12.5,9.17157288 13.1715729,8.5 14,8.5 Z" id="形状结合" fill-opacity="0.7" fill-rule="nonzero"></path>
        </g>
    </g>
</svg>