<?xml version="1.0" encoding="UTF-8"?>
<svg width="96px" height="96px" viewBox="0 0 96 96" version="1.1" xmlns="http://www.w3.org/2000/svg" xmlns:xlink="http://www.w3.org/1999/xlink">
    <title>app/PC-collaboration/96px</title>
    <defs>
        <filter x="-8.5%" y="-6.1%" width="117.1%" height="117.1%" filterUnits="objectBoundingBox" id="filter-1">
            <feOffset dx="0" dy="2" in="SourceAlpha" result="shadowOffsetOuter1"></feOffset>
            <feGaussianBlur stdDeviation="2" in="shadowOffsetOuter1" result="shadowBlurOuter1"></feGaussianBlur>
            <feColorMatrix values="0 0 0 0 0   0 0 0 0 0   0 0 0 0 0  0 0 0 0.2 0" type="matrix" in="shadowBlurOuter1" result="shadowMatrixOuter1"></feColorMatrix>
            <feMerge>
                <feMergeNode in="shadowMatrixOuter1"></feMergeNode>
                <feMergeNode in="SourceGraphic"></feMergeNode>
            </feMerge>
        </filter>
        <linearGradient x1="50%" y1="2.44175981%" x2="50%" y2="108.46406%" id="linearGradient-2">
            <stop stop-color="#F7F7F7" offset="0%"></stop>
            <stop stop-color="#F7F7F7" offset="100%"></stop>
        </linearGradient>
        <linearGradient x1="50%" y1="4.15215062%" x2="50%" y2="100%" id="linearGradient-3">
            <stop stop-color="#8796A1" stop-opacity="0.195814439" offset="0%"></stop>
            <stop stop-color="#2F4355" stop-opacity="0.269287109" offset="100%"></stop>
        </linearGradient>
        <linearGradient x1="110.798211%" y1="17.9381684%" x2="0%" y2="17.9381684%" id="linearGradient-4">
            <stop stop-color="#C970FB" offset="0%"></stop>
            <stop stop-color="#3D48FF" offset="100%"></stop>
        </linearGradient>
        <polygon id="path-5" points="26 43 56 43 56 49 39 49.000167 39 57"></polygon>
        <filter x="-3.3%" y="-7.1%" width="106.7%" height="114.3%" filterUnits="objectBoundingBox" id="filter-6">
            <feOffset dx="0" dy="-2" in="SourceAlpha" result="shadowOffsetInner1"></feOffset>
            <feComposite in="shadowOffsetInner1" in2="SourceAlpha" operator="arithmetic" k2="-1" k3="1" result="shadowInnerInner1"></feComposite>
            <feColorMatrix values="0 0 0 0 0   0 0 0 0 0   0 0 0 0 0  0 0 0 0.105475579 0" type="matrix" in="shadowInnerInner1"></feColorMatrix>
        </filter>
        <linearGradient x1="-14.3920397%" y1="0%" x2="119.034024%" y2="0%" id="linearGradient-7">
            <stop stop-color="#17EFFC" offset="0%"></stop>
            <stop stop-color="#7155F7" offset="100%"></stop>
        </linearGradient>
        <polygon id="path-8" points="26 25 56 25 56 30.999833 39 31 39 39"></polygon>
        <filter x="-3.3%" y="-7.1%" width="106.7%" height="114.3%" filterUnits="objectBoundingBox" id="filter-9">
            <feOffset dx="0" dy="2" in="SourceAlpha" result="shadowOffsetInner1"></feOffset>
            <feComposite in="shadowOffsetInner1" in2="SourceAlpha" operator="arithmetic" k2="-1" k3="1" result="shadowInnerInner1"></feComposite>
            <feColorMatrix values="0 0 0 0 0   0 0 0 0 0   0 0 0 0 0  0 0 0 0.10612093 0" type="matrix" in="shadowInnerInner1"></feColorMatrix>
        </filter>
        <linearGradient x1="43.0658849%" y1="4.48152103%" x2="43.0658849%" y2="97.9131011%" id="linearGradient-10">
            <stop stop-color="#C3C4D0" offset="0%"></stop>
            <stop stop-color="#5B5E70" offset="100%"></stop>
        </linearGradient>
    </defs>
    <g id="app/PC-collaboration/96px" stroke="none" stroke-width="1" fill="none" fill-rule="evenodd">
        <g id="编组" filter="url(#filter-1)" transform="translate(7, 7)">
            <rect id="矩形" fill="url(#linearGradient-2)" x="0" y="0" width="82" height="82" rx="15"></rect>
            <path d="M67,0 C75.2842712,0 82,6.71572875 82,15 L82,67 C82,75.2842712 75.2842712,82 67,82 L15,82 C6.71572875,82 0,75.2842712 0,67 L0,15 C0,6.71572875 6.71572875,0 15,0 L67,0 Z M67,6 L15,6 C10.1181973,6 6.14420858,9.88681368 6.00383711,14.7346377 L6,15 L6,67 C6,71.8818027 9.88681368,75.8557914 14.7346377,75.9961629 L15,76 L67,76 C71.8818027,76 75.8557914,72.1131863 75.9961629,67.2653623 L76,67 L76,15 C76,10.1181973 72.1131863,6.14420858 67.2653623,6.00383711 L67,6 Z" id="矩形备份" fill="url(#linearGradient-3)" fill-rule="nonzero"></path>
            <g id="路径" opacity="0.852246966" fill-rule="nonzero">
                <use fill="url(#linearGradient-4)" xlink:href="#path-5"></use>
                <use fill="black" fill-opacity="1" filter="url(#filter-6)" xlink:href="#path-5"></use>
            </g>
            <g id="路径" fill-rule="nonzero" transform="translate(41, 32) rotate(-180) translate(-41, -32)">
                <use fill="url(#linearGradient-7)" xlink:href="#path-8"></use>
                <use fill="black" fill-opacity="1" filter="url(#filter-9)" xlink:href="#path-8"></use>
            </g>
            <path d="M67,16 C68.6568542,16 70,17.3431458 70,19 L70,63 C70,64.6568542 68.6568542,66 67,66 C65.3431458,66 64,64.6568542 64,63 L64,19 C64,17.3431458 65.3431458,16 67,16 Z" id="矩形" fill="url(#linearGradient-10)" fill-rule="nonzero"></path>
            <path d="M15,16 C16.6568542,16 18,17.3431458 18,19 L18,63 C18,64.6568542 16.6568542,66 15,66 C13.3431458,66 12,64.6568542 12,63 L12,19 C12,17.3431458 13.3431458,16 15,16 Z" id="矩形" fill="url(#linearGradient-10)" fill-rule="nonzero"></path>
        </g>
    </g>
</svg>