<?xml version="1.0" encoding="UTF-8"?>
<svg width="96px" height="96px" viewBox="0 0 96 96" version="1.1" xmlns="http://www.w3.org/2000/svg" xmlns:xlink="http://www.w3.org/1999/xlink">
    <!-- Generator: Sketch 58 (84663) - https://sketch.com -->
    <title>ICON/全盘查杀</title>
    <desc>Created with Sketch.</desc>
    <defs>
        <filter x="-17.4%" y="-24.3%" width="138.4%" height="152.7%" filterUnits="objectBoundingBox" id="filter-1">
            <feOffset dx="0" dy="2" in="SourceAlpha" result="shadowOffsetOuter1"></feOffset>
            <feGaussianBlur stdDeviation="2" in="shadowOffsetOuter1" result="shadowBlurOuter1"></feGaussianBlur>
            <feColorMatrix values="0 0 0 0 0   0 0 0 0 0   0 0 0 0 0  0 0 0 0.2 0" type="matrix" in="shadowBlurOuter1" result="shadowMatrixOuter1"></feColorMatrix>
            <feMerge>
                <feMergeNode in="shadowMatrixOuter1"></feMergeNode>
                <feMergeNode in="SourceGraphic"></feMergeNode>
            </feMerge>
        </filter>
        <linearGradient x1="50%" y1="0%" x2="50%" y2="100%" id="linearGradient-2">
            <stop stop-color="#CACBCF" offset="0%"></stop>
            <stop stop-color="#646D72" offset="100%"></stop>
        </linearGradient>
        <rect id="path-3" x="0" y="0" width="56" height="74" rx="8"></rect>
        <filter x="-0.9%" y="-0.7%" width="101.8%" height="102.7%" filterUnits="objectBoundingBox" id="filter-4">
            <feOffset dx="0" dy="1" in="SourceAlpha" result="shadowOffsetOuter1"></feOffset>
            <feColorMatrix values="0 0 0 0 0   0 0 0 0 0   0 0 0 0 0  0 0 0 0.5 0" type="matrix" in="shadowOffsetOuter1"></feColorMatrix>
        </filter>
        <filter x="-0.9%" y="-0.7%" width="101.8%" height="102.7%" filterUnits="objectBoundingBox" id="filter-5">
            <feOffset dx="0" dy="1" in="SourceAlpha" result="shadowOffsetInner1"></feOffset>
            <feComposite in="shadowOffsetInner1" in2="SourceAlpha" operator="arithmetic" k2="-1" k3="1" result="shadowInnerInner1"></feComposite>
            <feColorMatrix values="0 0 0 0 0.879577356   0 0 0 0 0.884753371   0 0 0 0 0.905457428  0 0 0 1 0" type="matrix" in="shadowInnerInner1"></feColorMatrix>
        </filter>
        <linearGradient x1="50%" y1="0%" x2="50%" y2="53.953788%" id="linearGradient-6">
            <stop stop-color="#3E3E3E" offset="0%"></stop>
            <stop stop-color="#3E3E3F" offset="91.3613108%"></stop>
            <stop stop-color="#FFFFFF" stop-opacity="0" offset="100%"></stop>
        </linearGradient>
        <linearGradient x1="50%" y1="0%" x2="50%" y2="51.3667675%" id="linearGradient-7">
            <stop stop-color="#D5D5D5" offset="0%"></stop>
            <stop stop-color="#D6D6D7" offset="89.7281569%"></stop>
            <stop stop-color="#FFFFFF" stop-opacity="0" offset="100%"></stop>
        </linearGradient>
        <linearGradient x1="50%" y1="0%" x2="50%" y2="100%" id="linearGradient-8">
            <stop stop-color="#020300" offset="0%"></stop>
            <stop stop-color="#000200" offset="100%"></stop>
        </linearGradient>
        <linearGradient x1="50%" y1="100%" x2="50%" y2="0%" id="linearGradient-9">
            <stop stop-color="#E2E096" offset="0%"></stop>
            <stop stop-color="#F9F8D2" offset="100%"></stop>
        </linearGradient>
        <linearGradient x1="56.48%" y1="0%" x2="50.0087226%" y2="99.8653927%" id="linearGradient-10">
            <stop stop-color="#DFE8FF" offset="0%"></stop>
            <stop stop-color="#F3F3F3" offset="100%"></stop>
        </linearGradient>
        <path d="M22.8216372,39.2981333 C24.0642779,39.2981333 25.0716372,40.3054926 25.0716372,41.5481333 L25.0716372,59.7981333 C25.0716372,62.2834147 23.0569185,64.2981333 20.5716372,64.2981333 C18.4937658,64.2981333 16.8093183,62.6136858 16.8093183,60.5358144 C16.8093183,60.3123193 16.8292328,60.0892686 16.8688257,59.8693084 L20.1730429,41.5125458 C20.4037647,40.2307581 21.51925,39.2981333 22.8216372,39.2981333 Z" id="path-11"></path>
        <filter x="2.6%" y="-2.0%" width="102.9%" height="104.0%" filterUnits="objectBoundingBox" id="filter-12">
            <feOffset dx="1" dy="0" in="SourceAlpha" result="shadowOffsetInner1"></feOffset>
            <feComposite in="shadowOffsetInner1" in2="SourceAlpha" operator="arithmetic" k2="-1" k3="1" result="shadowInnerInner1"></feComposite>
            <feColorMatrix values="0 0 0 0 0.424818841   0 0 0 0 0.417298705   0 0 0 0 0.417298705  0 0 0 0.227873689 0" type="matrix" in="shadowInnerInner1"></feColorMatrix>
        </filter>
        <linearGradient x1="50%" y1="98.6431716%" x2="50%" y2="-0.014622381%" id="linearGradient-13">
            <stop stop-color="#474747" offset="0%"></stop>
            <stop stop-color="#6F6F6F" offset="100%"></stop>
        </linearGradient>
        <filter x="-17.1%" y="-18.6%" width="132.9%" height="135.7%" filterUnits="objectBoundingBox" id="filter-14">
            <feOffset dx="0" dy="2" in="SourceAlpha" result="shadowOffsetOuter1"></feOffset>
            <feGaussianBlur stdDeviation="2" in="shadowOffsetOuter1" result="shadowBlurOuter1"></feGaussianBlur>
            <feColorMatrix values="0 0 0 0 0   0 0 0 0 0   0 0 0 0 0  0 0 0 0.2 0" type="matrix" in="shadowBlurOuter1" result="shadowMatrixOuter1"></feColorMatrix>
            <feMerge>
                <feMergeNode in="shadowMatrixOuter1"></feMergeNode>
                <feMergeNode in="SourceGraphic"></feMergeNode>
            </feMerge>
        </filter>
        <circle id="path-15" cx="42.5" cy="33.5" r="18.5"></circle>
        <filter x="-6.8%" y="-6.8%" width="113.5%" height="113.5%" filterUnits="objectBoundingBox" id="filter-16">
            <feGaussianBlur stdDeviation="1.5" in="SourceAlpha" result="shadowBlurInner1"></feGaussianBlur>
            <feOffset dx="2" dy="2" in="shadowBlurInner1" result="shadowOffsetInner1"></feOffset>
            <feComposite in="shadowOffsetInner1" in2="SourceAlpha" operator="arithmetic" k2="-1" k3="1" result="shadowInnerInner1"></feComposite>
            <feColorMatrix values="0 0 0 0 0   0 0 0 0 0   0 0 0 0 0  0 0 0 0.5 0" type="matrix" in="shadowInnerInner1"></feColorMatrix>
        </filter>
        <linearGradient x1="100%" y1="50%" x2="0%" y2="50%" id="linearGradient-17">
            <stop stop-color="#A8B0B5" offset="0%"></stop>
            <stop stop-color="#E5F3FF" offset="100%"></stop>
        </linearGradient>
        <linearGradient x1="100%" y1="50%" x2="0.501478041%" y2="50%" id="linearGradient-18">
            <stop stop-color="#1E1D62" offset="0%"></stop>
            <stop stop-color="#577392" offset="100%"></stop>
        </linearGradient>
        <path d="M8.73944892,6.28384784 L8.73944892,12.2838478 L8.73944892,22.2838478 C8.73944892,23.9407021 7.39630317,25.2838478 5.73944892,25.2838478 L3.73944892,25.2838478 C2.08259467,25.2838478 0.739448916,23.9407021 0.739448916,22.2838478 L0.739448916,9.28384784 L0.739448916,6.28384784 L8.73944892,6.28384784 Z" id="path-19"></path>
        <radialGradient cx="30.6396837%" cy="21.2911503%" fx="30.6396837%" fy="21.2911503%" r="60.7544858%" gradientTransform="translate(0.306397,0.212912),rotate(55.384679),scale(1.000000,0.934466),translate(-0.306397,-0.212912)" id="radialGradient-21">
            <stop stop-color="#61E3FF" stop-opacity="0" offset="0%"></stop>
            <stop stop-color="#0081FF" stop-opacity="0.370438156" offset="100%"></stop>
        </radialGradient>
        <filter x="-11.5%" y="-11.5%" width="123.1%" height="123.1%" filterUnits="objectBoundingBox" id="filter-22">
            <feGaussianBlur stdDeviation="1" in="SourceGraphic"></feGaussianBlur>
        </filter>
        <radialGradient cx="45.8848835%" cy="-15.8523628%" fx="45.8848835%" fy="-15.8523628%" r="126.281718%" gradientTransform="translate(0.458849,-0.158524),scale(1.000000,0.999817),rotate(85.012736),scale(1.000000,0.934466),translate(-0.458849,0.158524)" id="radialGradient-23">
            <stop stop-color="#FFFFFF" stop-opacity="0" offset="0%"></stop>
            <stop stop-color="#FFFFFF" stop-opacity="0.979731206" offset="100%"></stop>
        </radialGradient>
        <linearGradient x1="13.9410527%" y1="19.1705822%" x2="87.6564285%" y2="81.6366783%" id="linearGradient-24">
            <stop stop-color="#D9DCEA" offset="0%"></stop>
            <stop stop-color="#CFDEEF" offset="57.458826%"></stop>
            <stop stop-color="#8A9FC0" offset="100%"></stop>
        </linearGradient>
    </defs>
    <g id="ICON/全盘查杀" stroke="none" stroke-width="1" fill="none" fill-rule="evenodd">
        <g id="编组-11" filter="url(#filter-1)" transform="translate(5.000000, 11.000000)">
            <g id="编组-9">
                <g id="矩形备份">
                    <use fill="black" fill-opacity="1" filter="url(#filter-4)" xlink:href="#path-3"></use>
                    <use fill="url(#linearGradient-2)" fill-rule="evenodd" xlink:href="#path-3"></use>
                    <use fill="black" fill-opacity="1" filter="url(#filter-5)" xlink:href="#path-3"></use>
                </g>
                <g id="Group-5" transform="translate(5.000000, 4.500000)" fill-rule="nonzero">
                    <g id="record" transform="translate(0.000000, 0.500000)">
                        <path d="M23.0780052,1.83317481 C10.422796,1.83317481 0.162020836,11.909569 0.162020836,24.3398836 C0.162020836,36.7701982 10.422796,46.8477178 23.0780052,46.8477178 C35.7332143,46.8477178 45.9939895,36.7701982 45.9939895,24.3398836 C45.9939895,11.909569 35.7332143,1.83317481 23.0780052,1.83317481 Z M37.1207771,38.1329795 C35.2969512,39.9242321 33.1732124,41.3309015 30.8077099,42.31557 C28.361715,43.3310446 25.7611805,43.8453229 23.0780052,43.8453229 C20.3948299,43.8453229 17.7942953,43.3310446 15.3483004,42.31557 C12.9827979,41.3309015 10.8590591,39.9242321 9.03523319,38.1329795 C7.20911569,36.3418675 5.77686667,34.2536669 4.77658396,31.9315372 C3.74264339,29.5292274 3.21672155,26.9752786 3.21672155,24.3398836 C3.21672155,21.705614 3.74264339,19.1516652 4.77658396,16.7482301 C5.77686667,14.4261004 7.20911569,12.3402912 9.03523319,10.5479131 C10.8590591,8.75553512 12.9827979,7.34774047 15.3483004,6.3663073 C17.7942953,5.34970739 20.3946866,4.83430376 23.0780052,4.83430376 C25.7611805,4.83430376 28.361715,5.34970739 30.8077099,6.3663073 C33.1733556,7.34774047 35.2969512,8.75539445 37.1207771,10.5479131 C38.9468946,12.3402912 40.3791437,14.4261004 41.3794264,16.7482301 C42.413367,19.1516652 42.9392888,21.705614 42.9392888,24.3398836 C42.9392888,26.9751379 42.413367,29.5292274 41.3794264,31.9315372 C40.3791437,34.2535262 38.9468946,36.3415861 37.1207771,38.1329795 Z" id="Shape" fill="url(#linearGradient-6)" transform="translate(23.078005, 24.340446) scale(-1, 1) rotate(-180.000000) translate(-23.078005, -24.340446) "></path>
                        <path d="M23.0780052,0.101846229 C10.422796,0.101846229 0.162020836,10.1784924 0.162020836,22.6091177 C0.162020836,35.0397431 10.422796,45.1175146 23.0780052,45.1175146 C35.7332143,45.1175146 45.9939895,35.0397431 45.9939895,22.6091177 C45.9939895,10.1784924 35.7332143,0.101846229 23.0780052,0.101846229 Z M37.1207771,36.4025584 C35.2969512,38.1938559 33.1732124,39.6005604 30.8077099,40.5852535 C28.361715,41.6007534 25.7611805,42.1150446 23.0780052,42.1150446 C20.3948299,42.1150446 17.7942953,41.6007534 15.3483004,40.5852535 C12.9827979,39.6005604 10.8590591,38.1938559 9.03523319,36.4025584 C7.20911569,34.6114016 5.77686667,32.5231488 4.77658396,30.2009611 C3.74264339,27.7985912 3.21672155,25.2445786 3.21672155,22.6091177 C3.21672155,19.9747823 3.74264339,17.4207696 4.77658396,15.0172744 C5.77686667,12.6950866 7.20911569,10.6092253 9.03523319,8.81680243 C10.8590591,7.02437959 12.9827979,5.61654976 15.3483004,4.63509205 C17.7942953,3.61846673 20.3946866,3.10305021 23.0780052,3.10305021 C25.7611805,3.10305021 28.361715,3.61846673 30.8077099,4.63509205 C33.1733556,5.61654976 35.2969512,7.02423892 37.1207771,8.81680243 C38.9468946,10.6092253 40.3791437,12.6950866 41.3794264,15.0172744 C42.413367,17.4207696 42.9392888,19.9747823 42.9392888,22.6091177 C42.9392888,25.2444379 42.413367,27.7985912 41.3794264,30.2009611 C40.3791437,32.5230082 38.9468946,34.6111203 37.1207771,36.4025584 Z" id="Shape" fill="url(#linearGradient-7)"></path>
                        <path d="M43.9007025,24.0662091 C43.9007025,35.3818212 34.4304075,44.6835571 22.7474862,44.6835571 C11.0645648,44.6835571 1.59426986,35.3818212 1.59426986,24.0662091 C1.59426986,12.4337534 11.0645648,3.13167124 22.7474862,3.13167124 C34.4304075,3.13167124 43.9007025,12.4337534 43.9007025,24.0662091" id="Fill-2" fill="#49494C"></path>
                    </g>
                    <polygon id="Path-4" fill="#4F4F50" transform="translate(22.941359, 23.531836) rotate(95.000000) translate(-22.941359, -23.531836) " points="3.95524515 34.3003705 41.9274725 12.4649341 34.2843597 4.31840241 11.8364973 42.7452701"></polygon>
                    <g id="Group-4" transform="translate(16.000000, 16.500000)">
                        <g id="Path-4-Copy">
                            <g id="Group">
                                <g id="Mask" fill="url(#linearGradient-8)">
                                    <path d="M6.97443001,13.94886 C3.12245232,13.94886 0,10.8259809 0,6.97425564 C0,3.12287911 3.12245232,0 6.97443001,0 C10.8264077,0 13.94886,3.12287911 13.94886,6.97425564 C13.94886,10.8259809 10.8264077,13.94886 6.97443001,13.94886 Z" id="path-5"></path>
                                </g>
                                <g id="Combined-Shape" opacity="0.5" transform="translate(0.833333, 1.538470)" fill="#4F4F50">
                                    <path d="M2.66705669,11.4848886 C1.56332336,10.8495927 0.649860932,9.92088835 0.0331399749,8.80529514 L12.5432395,2.66470524 C12.0964162,1.63391435 11.4079168,0.732173463 10.5492064,0.0309912257 L2.66705669,11.4848886 Z" id="path-7"></path>
                                </g>
                            </g>
                        </g>
                        <path d="M6.97443001,10.461645 C5.04844117,10.461645 3.48721501,8.90020545 3.48721501,6.97434283 C3.48721501,5.04865457 5.04844117,3.48721501 6.97443001,3.48721501 C8.90041886,3.48721501 10.461645,5.04865457 10.461645,6.97434283 C10.461645,8.90020545 8.90041886,10.461645 6.97443001,10.461645 Z" id="Fill-27" fill="#85858A"></path>
                        <path d="M7.84623377,6.97421201 C7.84623377,7.45600403 7.45610159,7.84623377 6.97443001,7.84623377 C6.49319434,7.84623377 6.10262626,7.45600403 6.10262626,6.97421201 C6.10262626,6.492856 6.49319434,6.10262626 6.97443001,6.10262626 C7.45610159,6.10262626 7.84623377,6.492856 7.84623377,6.97421201" id="Fill-4" fill="url(#linearGradient-9)"></path>
                    </g>
                    <path d="M23,1.5 C10.2983937,1.5 0,11.5731388 0,23.9994375 C0,36.4257362 10.2983937,46.5 23,46.5 C35.7016062,46.5 46,36.4257362 46,23.9994375 C46,11.5731388 35.7016062,1.5 23,1.5 Z M37.0942562,37.7880772 C35.2637437,39.5787512 33.1322187,40.984966 30.7580437,41.9693164 C28.3030812,42.9844629 25.6930125,43.498575 23,43.498575 C20.3069875,43.498575 17.6969187,42.9844629 15.2419562,41.9693164 C12.8677812,40.984966 10.7362562,39.5787512 8.90574375,37.7880772 C7.07293125,35.9975438 5.63543125,33.9100179 4.63148125,31.5886384 C3.59375,29.1871047 3.0659,26.633981 3.0659,23.9994375 C3.0659,21.366019 3.59375,18.8128953 4.63148125,16.4102366 C5.63543125,14.0888572 7.07293125,12.0037218 8.90574375,10.2119228 C10.7362562,8.42012387 12.8677812,7.01278406 15.2419562,6.03166796 C17.6969187,5.01539649 20.3068437,4.50015937 23,4.50015937 C25.6930125,4.50015937 28.3030812,5.01539649 30.7580437,6.03166796 C33.1323625,7.01278406 35.2637437,8.41998325 37.0942562,10.2119228 C38.9270687,12.0037218 40.3645687,14.0888572 41.3685187,16.4102366 C42.40625,18.8128953 42.9341,21.366019 42.9341,23.9994375 C42.9341,26.6338404 42.40625,29.1871047 41.3685187,31.5886384 C40.3645687,33.9098773 38.9270687,35.9972626 37.0942562,37.7880772 Z" id="Shape" fill="#595959"></path>
                </g>
                <path d="M3,52 L3,64.5 C3,67.8137085 5.6862915,70.5 9,70.5 L9.57281987,70.5 L9.57281987,70.5 L19,70.5 L19,65 L13.5972346,65 L9.57281987,61.25 L9.57281987,52 L3,52 Z" id="路径-15" fill="#96A0A7"></path>
                <circle id="椭圆形" fill="#444444" cx="6" cy="56" r="1"></circle>
                <g id="矩形" transform="translate(20.571637, 51.798133) rotate(40.000000) translate(-20.571637, -51.798133) ">
                    <use fill="url(#linearGradient-10)" fill-rule="evenodd" xlink:href="#path-11"></use>
                    <use fill="black" fill-opacity="1" filter="url(#filter-12)" xlink:href="#path-11"></use>
                </g>
                <circle id="椭圆形" fill="url(#linearGradient-13)" cx="16" cy="58" r="2"></circle>
            </g>
            <g id="编组-5" filter="url(#filter-14)" transform="translate(7.000000, 4.000000)">
                <circle id="椭圆形" stroke="#999797" fill="#E1DFDF" cx="1" cy="62" r="1.5"></circle>
                <circle id="椭圆形备份-3" stroke="#999797" fill="#E1DFDF" cx="1" cy="1" r="1.5"></circle>
                <circle id="椭圆形备份-2" stroke="#999797" fill="#E1DFDF" cx="42" cy="62" r="1.5"></circle>
                <circle id="椭圆形备份-6" stroke="#999797" fill="#E1DFDF" cx="41" cy="1" r="1.5"></circle>
                <g id="椭圆形" opacity="0.423223586">
                    <use fill-opacity="0.293979458" fill="#0081FF" fill-rule="evenodd" xlink:href="#path-15"></use>
                    <use fill="black" fill-opacity="1" filter="url(#filter-16)" xlink:href="#path-15"></use>
                </g>
                <g id="编组-4" transform="translate(62.959297, 56.591420) rotate(-42.000000) translate(-62.959297, -56.591420) translate(58.459297, 43.591420)">
                    <rect id="矩形" fill="url(#linearGradient-17)" x="2" y="0.48655204" width="6" height="9"></rect>
                    <mask id="mask-20" fill="white">
                        <use xlink:href="#path-19"></use>
                    </mask>
                    <use id="形状结合" fill="url(#linearGradient-18)" xlink:href="#path-19"></use>
                </g>
                <circle id="椭圆形" fill="url(#radialGradient-21)" opacity="0.711216518" filter="url(#filter-22)" cx="44.0712024" cy="35.0252967" r="13"></circle>
                <path d="M32.2524096,25.0094905 C36.8266754,20.1366166 44.528398,19.6354059 49.4546883,23.890005 C49.6419185,24.0517067 49.8224449,24.2179508 49.9962557,24.388426 C45.0618183,20.6428303 37.7676085,21.2849792 33.3673893,25.9724447 C28.9672026,30.6598755 29.0638134,37.6850794 33.4625343,42.0001044 C33.2682382,41.8527457 33.0770181,41.6979282 32.8898063,41.5362424 C27.963516,37.2816433 27.6781437,29.8823644 32.2524096,25.0094905 Z" id="形状结合" fill="url(#radialGradient-23)"></path>
                <circle id="椭圆形" fill="#FFFFFF" cx="46.5" cy="27.5" r="1"></circle>
                <circle id="椭圆形备份-5" fill="#FFFFFF" cx="50" cy="30" r="1"></circle>
                <path d="M42.5,14 C53.2695526,14 62,22.7304474 62,33.5 C62,44.2695526 53.2695526,53 42.5,53 C31.7304474,53 23,44.2695526 23,33.5 C23,22.7304474 31.7304474,14 42.5,14 Z M42.5,19.5 C34.4918711,19.5 28,25.7680135 28,33.5 C28,41.2319865 34.4918711,47.5 42.5,47.5 C50.5081289,47.5 57,41.2319865 57,33.5 C57,25.7680135 50.5081289,19.5 42.5,19.5 Z" id="形状结合" fill="url(#linearGradient-24)"></path>
            </g>
        </g>
    </g>
</svg>