<?xml version="1.0" encoding="UTF-8"?>
<svg width="32px" height="32px" viewBox="0 0 32 32" version="1.1" xmlns="http://www.w3.org/2000/svg" xmlns:xlink="http://www.w3.org/1999/xlink">
    <!-- Generator: Sketch 58 (84663) - https://sketch.com -->
    <title>dcc_Tools_32px_dark</title>
    <desc>Created with Sketch.</desc>
    <g id="dcc_Tools_32px_dark" stroke="none" stroke-width="1" fill="none" fill-rule="evenodd">
        <rect id="矩形备份-34" fill-opacity="0" fill="#FFFFFF" x="0" y="0" width="32" height="32"></rect>
        <g id="应用安全备份-2" transform="translate(9.000000, 9.000000)" fill="#C5CFE0">
            <path d="M10.5,7 L14,8.83310488 L13.7779587,10.7454657 C13.5648738,12.5806888 12.3982486,14.1598212 10.7215553,14.9072705 L10.5,15 L10.2784447,14.9072705 C8.67465112,14.192319 7.5375361,12.7164325 7.25520611,10.983343 L7.22204127,10.7454657 L7,8.83310488 L10.5,7 Z M11.6052246,9.67071077 L11.5522475,9.74375832 L10.484,11.533 L9.4307303,9.74608773 L9.3781496,9.67275429 C9.2232291,9.49331854 8.95754174,9.44461918 8.74608773,9.56926974 C8.53463373,9.69392029 8.44858941,9.94996287 8.53056833,10.1723971 L8.56926974,10.2539123 L10.0508658,12.7672538 L10.1045771,12.8422369 C10.2989342,13.067276 10.6521278,13.0704777 10.8508535,12.8509935 L10.9109446,12.7695832 L12.4109446,10.2562417 L12.450087,10.1749373 C12.5332696,9.95295043 12.4486134,9.69644553 12.2378377,9.57065142 C12.027062,9.44485731 11.7611147,9.49211681 11.6052246,9.67071077 Z M5,5 L5,5.5 C5,6.27969612 5.59488808,6.92044868 6.35553999,6.99313342 L6.5,7 C7.27969612,7 7.92044868,6.40511192 7.99313342,5.64446001 L8,5.5 L8,5 L13,5 L13,7.195 L10.4725635,5.87114747 L5.9,8.26600134 L6.201278,10.8607993 L6.23734918,11.1214274 C6.28629395,11.4221121 6.35628434,11.7159651 6.44595107,12.0012636 L1,12 C0.44771525,12 6.76353751e-17,11.5522847 0,11 L0,5 L5,5 Z M7,5 L7,6 L6,6 L6,5 L7,5 Z M8,-1.77635684e-15 C8.55228475,-1.77635684e-15 9,0.44771525 9,1 L9,2 L12,2 C12.5522847,2 13,2.44771525 13,3 L13,4 L0,4 L0,3 C-6.76353751e-17,2.44771525 0.44771525,2 1,2 L4,2 L4,1 C4,0.44771525 4.44771525,-1.77635684e-15 5,-1.77635684e-15 L8,-1.77635684e-15 Z M8,1 L5,1 L5,2 L8,2 L8,1 Z" id="形状结合"></path>
        </g>
    </g>
</svg>