<?xml version="1.0" encoding="UTF-8"?>
<svg width="32px" height="32px" viewBox="0 0 32 32" version="1.1" xmlns="http://www.w3.org/2000/svg" xmlns:xlink="http://www.w3.org/1999/xlink">
    <!-- Generator: Sketch 58 (84663) - https://sketch.com -->
    <title>dcc_Network Protection_32px</title>
    <desc>Created with Sketch.</desc>
    <g id="dcc_Network-Protection_32px" stroke="none" stroke-width="1" fill="none" fill-rule="evenodd">
        <g id="编组-50">
            <rect id="矩形备份-32" fill="#FF6969" opacity="0" x="0" y="0" width="32" height="32"></rect>
            <g id="网络防护备份" transform="translate(9.000000, 9.000000)" fill="#536076">
                <path d="M10.5,6 L14,7.83310488 L13.7779587,9.7454657 C13.5648738,11.5806888 12.3982486,13.1598212 10.7215553,13.9072705 L10.5,14 L10.2784447,13.9072705 C8.67465112,13.192319 7.5375361,11.7164325 7.25520611,9.983343 L7.22204127,9.7454657 L7,7.83310488 L10.5,6 Z M3.18502345,8.22852506 C4.26508053,8.50937229 5.27816921,8.9563521 6.19547673,9.5404959 L6.2185215,9.8121067 C6.31665136,10.9751273 6.75190376,12.0514857 7.43508433,12.9331046 C7.13005702,12.9772087 6.81769011,13 6.5,13 C4.73809159,13 3.13991467,12.2989821 1.96917084,11.160648 C2.0863445,10.223975 2.32592199,9.3265373 2.67084002,8.48336143 C2.86868048,8.45116846 3.04566089,8.35961613 3.18502345,8.22852506 Z M11.6052246,8.67071077 L11.5522475,8.74375832 L10.484,10.533 L9.4307303,8.74608773 L9.3781496,8.67275429 C9.2232291,8.49331854 8.95754174,8.44461918 8.74608773,8.56926974 C8.53463373,8.69392029 8.44858941,8.94996287 8.53056833,9.1723971 L8.56926974,9.2539123 L10.0508658,11.7672538 L10.1045771,11.8422369 C10.2989342,12.067276 10.6521278,12.0704777 10.8508535,11.8509935 L10.9109446,11.7695832 L12.4109446,9.2562417 L12.450087,9.1749373 C12.5332696,8.95295043 12.4486134,8.69644553 12.2378377,8.57065142 C12.027062,8.44485731 11.7611147,8.49211681 11.6052246,8.67071077 Z M0.5,7.88461538 C0.87246932,7.88461538 1.24045817,7.90379859 1.60303245,7.9412309 C1.65673571,8.05146523 1.73032346,8.1497601 1.81888379,8.23218086 C1.5559075,8.88727743 1.35213517,9.5733115 1.21357513,10.2826817 C0.70785626,9.577297 0.34002096,8.76682485 0.14902637,7.89030348 C0.2655848,7.88652216 0.38256972,7.88461538 0.5,7.88461538 Z M6.70423253,3.60497189 C6.88717793,3.84547884 7.17554379,4 7.5,4 L7.5764322,3.99487597 C7.9561802,4.62055787 8.27195259,5.28585404 8.51671286,5.98033243 L6,7.22222222 L6.10538689,8.4562363 C5.29105436,8.00078535 4.41567053,7.64151186 3.49458159,7.39377005 L3.5,7.5 C3.5,7.3365107 3.46076673,7.18218482 3.39120159,7.04592374 C4.22060096,5.66332517 5.35624105,4.48508216 6.70423253,3.60497189 Z M4.07770681,0.4663495 C5.0269121,1.0509216 5.86849583,1.77880844 6.57907619,2.61353272 L6.56320143,2.64935664 C4.97804531,3.60609724 3.64206264,4.93591115 2.67703228,6.51689969 C2.62022368,6.50541611 2.56074434,6.5 2.5,6.5 C2.10876441,6.5 1.77000421,6.72467383 1.60570386,7.05203703 C1.24201429,7.01776586 0.87308187,7 0.5,7 C0.33906272,7 0.17889759,7.00330591 0.01956879,7.00985353 C0.00666177,6.84195741 0,6.67175668 0,6.5 C0,3.76632969 1.68754243,1.42680603 4.07770681,0.4663495 Z M11.159313,1.9684691 C12.2408093,3.08011982 12.9272921,4.57604987 12.9945555,6.23151209 L10.5,5 L9.3151845,5.58567565 C9.0566677,4.87351054 8.72900119,4.19034864 8.33872481,3.54588582 C8.44056018,3.38858462 8.5,3.20123377 8.5,3 C8.5,2.89005442 8.48225683,2.78425299 8.44947769,2.68530291 C9.3017759,2.33255733 10.2110677,2.08797113 11.159313,1.9684691 Z M6.5,0 C7.91096747,0 9.2169325,0.44956908 10.2824653,1.21327758 C9.3937717,1.38720435 8.54150537,1.6632334 7.73866495,2.02887992 C7.66276475,2.01000265 7.5825505,2 7.5,2 C7.41233575,2 7.32730616,2.0112803 7.24628356,2.03246859 C6.64104956,1.3226189 5.94739913,0.6835192 5.1784324,0.13447305 C5.60526459,0.04629407 6.04722602,0 6.5,0 Z" id="形状"></path>
            </g>
        </g>
    </g>
</svg>