<?xml version="1.0" encoding="UTF-8"?>
<svg width="96px" height="96px" viewBox="0 0 96 96" version="1.1" xmlns="http://www.w3.org/2000/svg" xmlns:xlink="http://www.w3.org/1999/xlink">
    <!-- Generator: Sketch 58 (84663) - https://sketch.com -->
    <title>ICON/自定义扫描</title>
    <desc>Created with Sketch.</desc>
    <defs>
        <linearGradient x1="50%" y1="1.09016263%" x2="50%" y2="100%" id="linearGradient-1">
            <stop stop-color="#FFFFFF" offset="0%"></stop>
            <stop stop-color="#ECF4FD" offset="100%"></stop>
        </linearGradient>
        <rect id="path-2" x="0" y="0" width="46" height="38" rx="2.5"></rect>
        <filter x="-30.4%" y="-26.3%" width="160.9%" height="173.7%" filterUnits="objectBoundingBox" id="filter-3">
            <feOffset dx="0" dy="4" in="SourceAlpha" result="shadowOffsetOuter1"></feOffset>
            <feGaussianBlur stdDeviation="4" in="shadowOffsetOuter1" result="shadowBlurOuter1"></feGaussianBlur>
            <feColorMatrix values="0 0 0 0 0.00392156863   0 0 0 0 0.415686275   0 0 0 0 0.756862745  0 0 0 0.2 0" type="matrix" in="shadowBlurOuter1"></feColorMatrix>
        </filter>
        <linearGradient x1="50%" y1="1.09016263%" x2="50%" y2="100%" id="linearGradient-4">
            <stop stop-color="#FFFFFF" offset="0%"></stop>
            <stop stop-color="#ECF4FD" offset="100%"></stop>
        </linearGradient>
        <rect id="path-5" x="0" y="0" width="31" height="26" rx="4"></rect>
        <filter x="-45.2%" y="-38.5%" width="190.3%" height="207.7%" filterUnits="objectBoundingBox" id="filter-6">
            <feOffset dx="0" dy="4" in="SourceAlpha" result="shadowOffsetOuter1"></feOffset>
            <feGaussianBlur stdDeviation="4" in="shadowOffsetOuter1" result="shadowBlurOuter1"></feGaussianBlur>
            <feColorMatrix values="0 0 0 0 0.00392156863   0 0 0 0 0.415686275   0 0 0 0 0.756862745  0 0 0 0.2 0" type="matrix" in="shadowBlurOuter1"></feColorMatrix>
        </filter>
        <linearGradient x1="50%" y1="0%" x2="50%" y2="100%" id="linearGradient-7">
            <stop stop-color="#00B7FF" offset="0%"></stop>
            <stop stop-color="#0081FF" offset="100%"></stop>
        </linearGradient>
        <path d="M9,15.5512596 L13.6438763,19.6683064 C13.8505417,19.8514017 14.1665044,19.8324312 14.3497779,19.6259238 L22,11 L22,11" id="path-8"></path>
        <filter x="-64.7%" y="-71.2%" width="229.4%" height="280.1%" filterUnits="objectBoundingBox" id="filter-9">
            <feMorphology radius="1" operator="dilate" in="SourceAlpha" result="shadowSpreadOuter1"></feMorphology>
            <feOffset dx="0" dy="2" in="shadowSpreadOuter1" result="shadowOffsetOuter1"></feOffset>
            <feMorphology radius="1" operator="erode" in="SourceAlpha" result="shadowInner"></feMorphology>
            <feOffset dx="0" dy="2" in="shadowInner" result="shadowInner"></feOffset>
            <feComposite in="shadowOffsetOuter1" in2="shadowInner" operator="out" result="shadowOffsetOuter1"></feComposite>
            <feGaussianBlur stdDeviation="2" in="shadowOffsetOuter1" result="shadowBlurOuter1"></feGaussianBlur>
            <feColorMatrix values="0 0 0 0 0   0 0 0 0 0.505882353   0 0 0 0 1  0 0 0 0.5 0" type="matrix" in="shadowBlurOuter1"></feColorMatrix>
        </filter>
        <linearGradient x1="50%" y1="1.09016263%" x2="50%" y2="99.2116034%" id="linearGradient-10">
            <stop stop-color="#FFFFFF" offset="0%"></stop>
            <stop stop-color="#D3E7FB" offset="100%"></stop>
        </linearGradient>
        <linearGradient x1="50%" y1="0%" x2="50%" y2="100%" id="linearGradient-11">
            <stop stop-color="#FFFFFF" offset="0%"></stop>
            <stop stop-color="#FFFFFF" offset="100%"></stop>
        </linearGradient>
        <rect id="path-12" x="0" y="0" width="46" height="42" rx="3"></rect>
        <filter x="-30.4%" y="-23.8%" width="160.9%" height="166.7%" filterUnits="objectBoundingBox" id="filter-13">
            <feOffset dx="0" dy="4" in="SourceAlpha" result="shadowOffsetOuter1"></feOffset>
            <feGaussianBlur stdDeviation="4" in="shadowOffsetOuter1" result="shadowBlurOuter1"></feGaussianBlur>
            <feComposite in="shadowBlurOuter1" in2="SourceAlpha" operator="out" result="shadowBlurOuter1"></feComposite>
            <feColorMatrix values="0 0 0 0 0.0053250477   0 0 0 0 0.41702088   0 0 0 0 0.755293252  0 0 0 0.4 0" type="matrix" in="shadowBlurOuter1"></feColorMatrix>
        </filter>
        <linearGradient x1="44.8637489%" y1="100%" x2="57.6083224%" y2="0%" id="linearGradient-14">
            <stop stop-color="#11B4DD" offset="0%"></stop>
            <stop stop-color="#40EA98" offset="100%"></stop>
        </linearGradient>
        <linearGradient x1="50%" y1="0%" x2="50%" y2="98.1564892%" id="linearGradient-15">
            <stop stop-color="#27EC95" offset="0%"></stop>
            <stop stop-color="#1188EE" offset="100%"></stop>
        </linearGradient>
        <path d="M21.2503651,16 L29.0135109,16.0035367 L25.4580294,24.2892132 L25.4612551,24.2909972 C25.4050487,24.4142236 25.3770483,24.549929 25.3795563,24.6869557 C25.3958902,25.1571545 25.7578752,25.5190601 26.1926149,25.5242557 L26.1975121,25.5242557 C26.2106203,25.5242557 26.2211772,25.5321116 26.2335229,25.5312353 C26.2408541,25.5312353 26.2473935,25.526071 26.2546954,25.526071 L31,25.5783397 L21.2209524,38 L22.9117305,30.1547573 L22.9027571,30.1521595 C22.9181819,30.0780132 22.939501,30.0037729 22.9370671,29.924431 C22.9193549,29.4399914 22.5370479,29.0624051 22.0831299,29.0810904 C22.0749189,29.0810904 22.0683208,29.086286 22.0601979,29.086286 L16,29.086286 L21.2503651,16 Z" id="path-16"></path>
        <filter x="-46.7%" y="-22.7%" width="193.3%" height="163.6%" filterUnits="objectBoundingBox" id="filter-17">
            <feOffset dx="0" dy="2" in="SourceAlpha" result="shadowOffsetOuter1"></feOffset>
            <feGaussianBlur stdDeviation="2" in="shadowOffsetOuter1" result="shadowBlurOuter1"></feGaussianBlur>
            <feComposite in="shadowBlurOuter1" in2="SourceAlpha" operator="out" result="shadowBlurOuter1"></feComposite>
            <feColorMatrix values="0 0 0 0 0   0 0 0 0 0.505882353   0 0 0 0 1  0 0 0 0.5 0" type="matrix" in="shadowBlurOuter1"></feColorMatrix>
        </filter>
        <linearGradient x1="50%" y1="0%" x2="50%" y2="100%" id="linearGradient-18">
            <stop stop-color="#44BAFE" offset="0%"></stop>
            <stop stop-color="#419EFF" offset="100%"></stop>
        </linearGradient>
        <filter x="-22.6%" y="-21.4%" width="145.3%" height="142.9%" filterUnits="objectBoundingBox" id="filter-19">
            <feOffset dx="0" dy="2" in="SourceAlpha" result="shadowOffsetOuter1"></feOffset>
            <feGaussianBlur stdDeviation="2" in="shadowOffsetOuter1" result="shadowBlurOuter1"></feGaussianBlur>
            <feColorMatrix values="0 0 0 0 0   0 0 0 0 0   0 0 0 0 0  0 0 0 0.2 0" type="matrix" in="shadowBlurOuter1" result="shadowMatrixOuter1"></feColorMatrix>
            <feMerge>
                <feMergeNode in="shadowMatrixOuter1"></feMergeNode>
                <feMergeNode in="SourceGraphic"></feMergeNode>
            </feMerge>
        </filter>
        <circle id="path-20" cx="19.5" cy="19.5" r="18.5"></circle>
        <filter x="-6.8%" y="-6.8%" width="113.5%" height="113.5%" filterUnits="objectBoundingBox" id="filter-21">
            <feGaussianBlur stdDeviation="1.5" in="SourceAlpha" result="shadowBlurInner1"></feGaussianBlur>
            <feOffset dx="2" dy="2" in="shadowBlurInner1" result="shadowOffsetInner1"></feOffset>
            <feComposite in="shadowOffsetInner1" in2="SourceAlpha" operator="arithmetic" k2="-1" k3="1" result="shadowInnerInner1"></feComposite>
            <feColorMatrix values="0 0 0 0 0   0 0 0 0 0   0 0 0 0 0  0 0 0 0.5 0" type="matrix" in="shadowInnerInner1"></feColorMatrix>
        </filter>
        <linearGradient x1="100%" y1="50%" x2="0%" y2="50%" id="linearGradient-22">
            <stop stop-color="#A8B0B5" offset="0%"></stop>
            <stop stop-color="#E5F3FF" offset="100%"></stop>
        </linearGradient>
        <linearGradient x1="100%" y1="50%" x2="0.501478041%" y2="50%" id="linearGradient-23">
            <stop stop-color="#3055A8" offset="0%"></stop>
            <stop stop-color="#789EC8" offset="100%"></stop>
        </linearGradient>
        <path d="M8.73944892,6.28384784 L8.73944892,12.2838478 L8.73944892,22.2838478 C8.73944892,23.9407021 7.39630317,25.2838478 5.73944892,25.2838478 L3.73944892,25.2838478 C2.08259467,25.2838478 0.739448916,23.9407021 0.739448916,22.2838478 L0.739448916,9.28384784 L0.739448916,6.28384784 L8.73944892,6.28384784 Z" id="path-24"></path>
        <radialGradient cx="30.6396837%" cy="21.2911503%" fx="30.6396837%" fy="21.2911503%" r="60.7544858%" gradientTransform="translate(0.306397,0.212912),rotate(55.384679),scale(1.000000,0.934466),translate(-0.306397,-0.212912)" id="radialGradient-26">
            <stop stop-color="#61E3FF" stop-opacity="0" offset="0%"></stop>
            <stop stop-color="#0081FF" stop-opacity="0.370438156" offset="100%"></stop>
        </radialGradient>
        <filter x="-11.5%" y="-11.5%" width="123.1%" height="123.1%" filterUnits="objectBoundingBox" id="filter-27">
            <feGaussianBlur stdDeviation="1" in="SourceGraphic"></feGaussianBlur>
        </filter>
        <radialGradient cx="45.8848835%" cy="-15.8523628%" fx="45.8848835%" fy="-15.8523628%" r="126.281718%" gradientTransform="translate(0.458849,-0.158524),scale(1.000000,0.999817),rotate(85.012736),scale(1.000000,0.934466),translate(-0.458849,0.158524)" id="radialGradient-28">
            <stop stop-color="#FFFFFF" stop-opacity="0" offset="0%"></stop>
            <stop stop-color="#FFFFFF" stop-opacity="0.979731206" offset="100%"></stop>
        </radialGradient>
        <linearGradient x1="13.9410527%" y1="19.1705822%" x2="87.6564285%" y2="81.6366783%" id="linearGradient-29">
            <stop stop-color="#D9E2EA" offset="0%"></stop>
            <stop stop-color="#DCECFF" offset="57.458826%"></stop>
            <stop stop-color="#B5C9E1" offset="100%"></stop>
        </linearGradient>
    </defs>
    <g id="ICON/自定义扫描" stroke="none" stroke-width="1" fill="none" fill-rule="evenodd">
        <g id="编组-10" transform="translate(5.000000, 10.000000)">
            <g id="编组">
                <g id="编组-13" transform="translate(20.000000, 0.000000)">
                    <g id="矩形">
                        <use fill="black" fill-opacity="1" filter="url(#filter-3)" xlink:href="#path-2"></use>
                        <use fill="url(#linearGradient-1)" fill-rule="evenodd" xlink:href="#path-2"></use>
                    </g>
                    <path d="M4,0 L42,0 C44.209139,-4.05812251e-16 46,1.790861 46,4 L46,10 L46,10 L0,10 L0,4 C-2.705415e-16,1.790861 1.790861,4.05812251e-16 4,0 Z" id="矩形备份-5" fill-opacity="0.5" fill="#B1D7FE"></path>
                    <path d="M7,28 L7,32 L3,32 L3,28 L7,28 Z M43,28 L43,32 L11,32 L11,28 L43,28 Z M7,21 L7,25 L3,25 L3,21 L7,21 Z M43,21 L43,25 L11,25 L11,21 L43,21 Z M7,14 L7,18 L3,18 L3,14 L7,14 Z M43,14 L43,18 L11,18 L11,14 L43,14 Z" id="形状结合" fill="#00B3FF" opacity="0.206589472"></path>
                </g>
                <g id="编组-13备份" transform="translate(48.000000, 19.000000)">
                    <g id="矩形">
                        <use fill="black" fill-opacity="1" filter="url(#filter-6)" xlink:href="#path-5"></use>
                        <use fill="url(#linearGradient-4)" fill-rule="evenodd" xlink:href="#path-5"></use>
                    </g>
                    <path d="M4,0 L27,0 C29.209139,-4.05812251e-16 31,1.790861 31,4 L31,7 L31,7 L0,7 L0,4 C-2.705415e-16,1.790861 1.790861,4.05812251e-16 4,0 Z" id="矩形备份-5" fill-opacity="0.5" fill="#B1D7FE"></path>
                    <g id="Path-3" stroke-linecap="round" stroke-linejoin="round">
                        <use fill="black" fill-opacity="1" filter="url(#filter-9)" xlink:href="#path-8"></use>
                        <use stroke="url(#linearGradient-7)" stroke-width="2" xlink:href="#path-8"></use>
                    </g>
                </g>
                <g id="编组-17" transform="translate(0.000000, 19.000000)">
                    <g id="矩形备份-2">
                        <use fill="black" fill-opacity="1" filter="url(#filter-13)" xlink:href="#path-12"></use>
                        <rect stroke="url(#linearGradient-11)" stroke-width="1" stroke-linejoin="square" fill="url(#linearGradient-10)" fill-rule="evenodd" x="0.5" y="0.5" width="45" height="41" rx="3"></rect>
                    </g>
                    <g id="路径" fill-rule="nonzero">
                        <use fill="black" fill-opacity="1" filter="url(#filter-17)" xlink:href="#path-16"></use>
                        <path stroke="url(#linearGradient-15)" stroke-width="1" d="M21.5884394,16.5001541 L16.7393473,28.586286 L22.0267434,28.586286 C22.0373781,28.5848605 22.0492528,28.5832825 22.0625651,28.5815135 C22.7594634,28.5528261 23.3405557,29.0865334 23.4267852,29.7833342 L23.4987672,29.8041729 L22.1651045,35.992393 L29.9788554,26.0671158 L26.2917469,26.0264794 C26.284671,26.0275671 26.2770807,26.0287305 26.2689263,26.0299803 C26.1913541,26.0273026 26.1576518,26.0261392 26.1326311,26.0224602 C25.447515,25.9859375 24.9045173,25.4141309 24.8796401,24.6961057 C24.8787069,24.645119 24.8805145,24.5942322 24.8850192,24.5436786 L24.820142,24.5077976 L28.255013,16.5031912 L21.5884394,16.5001541 Z M21.9186327,28.6066909 C21.9144383,28.6081902 21.910485,28.6099142 21.9055581,28.6120656 C21.9055549,28.6120752 21.9055914,28.6120624 21.9056645,28.6120366 C21.9105334,28.6099891 21.9146974,28.6082381 21.9186327,28.6066909 Z M26.4056027,26.0030999 C26.4100054,26.0014397 26.4139015,25.9995454 26.418831,25.9971453 C26.4188064,25.9971451 26.4187847,25.9971532 26.4187413,25.9971694 C26.4137777,25.9994615 26.4095859,26.0013972 26.4056027,26.0030999 Z M26.418831,25.9971453 C26.4188584,25.997132 26.4188858,25.9971187 26.4189132,25.9971053 C26.4188706,25.9971212 26.4188493,25.9971291 26.4188278,25.9971371 Z M26.0867863,25.0527218 C26.0802112,25.0547369 26.0757939,25.0569588 26.0696156,25.0600779 C26.0696429,25.0600833 26.0696774,25.0600704 26.0697465,25.0600447 C26.0762196,25.0571215 26.0814455,25.0547614 26.0867863,25.0527218 Z M22.0833783,29.5810808 C22.0832955,29.581084 22.0832127,29.5810872 22.0831299,29.5810904 C22.0958039,29.5796007 22.1072604,29.5782542 22.1176362,29.577028 Z M22.2200003,29.5622684 C22.2263969,29.5604187 22.2309964,29.5583393 22.2373975,29.5554304 C22.2373705,29.5554195 22.237308,29.5554415 22.237183,29.5554854 C22.230614,29.5581787 22.2252564,29.5603753 22.2200003,29.5622684 Z M22.2373975,29.5554304 C22.2374639,29.5554003 22.2375305,29.55537 22.2375972,29.5553397 C22.2375151,29.5553686 22.237474,29.5553831 22.2374222,29.5554013 Z" stroke-linejoin="square" fill="url(#linearGradient-14)" fill-rule="evenodd"></path>
                    </g>
                    <path d="M3.5,1 L42.5,1 C43.8807119,1 45,2.11928813 45,3.5 L45,13 L45,13 L1,13 L1,3.5 C1,2.11928813 2.11928813,1 3.5,1 Z" id="矩形备份-3" fill="url(#linearGradient-18)"></path>
                </g>
            </g>
            <g id="编组-5" filter="url(#filter-19)" transform="translate(34.000000, 19.000000)">
                <g id="椭圆形" opacity="0.423223586">
                    <use fill-opacity="0.293979458" fill="#0081FF" fill-rule="evenodd" xlink:href="#path-20"></use>
                    <use fill="black" fill-opacity="1" filter="url(#filter-21)" xlink:href="#path-20"></use>
                </g>
                <g id="编组-4" transform="translate(39.959297, 42.591420) rotate(-42.000000) translate(-39.959297, -42.591420) translate(35.459297, 29.591420)">
                    <rect id="矩形" fill="url(#linearGradient-22)" x="2" y="0.48655204" width="6" height="9"></rect>
                    <mask id="mask-25" fill="white">
                        <use xlink:href="#path-24"></use>
                    </mask>
                    <use id="形状结合" fill="url(#linearGradient-23)" xlink:href="#path-24"></use>
                </g>
                <circle id="椭圆形" fill="url(#radialGradient-26)" opacity="0.711216518" filter="url(#filter-27)" cx="21.0712024" cy="21.0252967" r="13"></circle>
                <path d="M9.25240959,11.0094905 C13.8266754,6.1366166 21.528398,5.63540588 26.4546883,9.89000503 C26.6419185,10.0517067 26.8224449,10.2179508 26.9962557,10.388426 C22.0618183,6.64283027 14.7676085,7.2849792 10.3673893,11.9724447 C5.96720265,16.6598755 6.06381339,23.6850794 10.4625343,28.0001044 C10.2682382,27.8527457 10.0770181,27.6979282 9.88980629,27.5362424 C4.96351595,23.2816433 4.67814373,15.8823644 9.25240959,11.0094905 Z" id="形状结合" fill="url(#radialGradient-28)"></path>
                <circle id="椭圆形" fill="#FFFFFF" cx="23.5" cy="13.5" r="1"></circle>
                <circle id="椭圆形备份-5" fill="#FFFFFF" cx="27" cy="16" r="1"></circle>
                <path d="M19.5,0 C30.2695526,0 39,8.73044738 39,19.5 C39,30.2695526 30.2695526,39 19.5,39 C8.73044738,39 0,30.2695526 0,19.5 C0,8.73044738 8.73044738,0 19.5,0 Z M19.5,5.5 C11.4918711,5.5 5,11.7680135 5,19.5 C5,27.2319865 11.4918711,33.5 19.5,33.5 C27.5081289,33.5 34,27.2319865 34,19.5 C34,11.7680135 27.5081289,5.5 19.5,5.5 Z" id="形状结合" fill="url(#linearGradient-29)"></path>
            </g>
        </g>
    </g>
</svg>