<?xml version="1.0" encoding="UTF-8"?>
<svg width="32px" height="32px" viewBox="0 0 32 32" version="1.1" xmlns="http://www.w3.org/2000/svg" xmlns:xlink="http://www.w3.org/1999/xlink">
    <!-- Generator: Sketch 58 (84663) - https://sketch.com -->
    <title>dcc_Home_32px_dark</title>
    <desc>Created with Sketch.</desc>
    <g id="dcc_Home_32px_dark" stroke="none" stroke-width="1" fill="none" fill-rule="evenodd">
        <rect id="矩形" stroke="#979797" fill="#D8D8D8" opacity="0" x="0" y="0" width="32" height="32"></rect>
        <g id="首页icon" transform="translate(9.000000, 10.000000)" fill="#C5CFE0">
            <path d="M12,0 C13.1045695,0 14,0.8954305 14,2 L14,9 C14,10.1045695 13.1045695,11 12,11 L9,11 L9,12 L11.5,12 C11.7761424,12 12,12.2238576 12,12.5 C12,12.7761424 11.7761424,13 11.5,13 L2.5,13 C2.22385763,13 2,12.7761424 2,12.5 C2,12.2238576 2.22385763,12 2.5,12 L5,12 L5,11 L2,11 C0.8954305,11 0,10.1045695 0,9 L0,2 C0,0.8954305 0.8954305,0 2,0 L12,0 Z M4.41753918,1.72348476 C4.1855205,1.36268034 3.60006336,1.45017346 3.50970966,1.90194193 L3.50970966,1.90194193 L2.665,6.123 L1.3,5.1 L1.22326609,5.05251916 C1.01126515,4.9464384 0.747275933,5.00363209 0.6,5.2 C0.434314575,5.4209139 0.4790861,5.73431458 0.7,5.9 L0.7,5.9 L2.7,7.4 L2.76999484,7.44422647 C3.05742105,7.59463084 3.42369512,7.43103416 3.49029034,7.09805807 L3.49029034,7.09805807 L4.169,3.705 L6.03846154,8.19230769 L6.08300189,8.27680294 C6.28598856,8.58798522 6.77050738,8.57701922 6.9472136,8.2236068 L6.9472136,8.2236068 L8.637,4.844 L9.64644661,5.85355339 L9.70649276,5.90479082 C9.79130283,5.96628581 9.8939134,6 10,6 L10,6 L11.1344277,6.0011143 C11.3074905,6.29940038 11.630319,6.5 12,6.5 C12.5522847,6.5 13,6.05228475 13,5.5 C13,4.94771525 12.5522847,4.5 12,4.5 C11.6299123,4.5 11.3067803,4.70104123 11.1338571,4.9998705 L10.207,5 L8.85355339,3.64644661 L8.78395067,3.5882007 C8.54036599,3.41910642 8.19153599,3.49889403 8.0527864,3.7763932 L8.0527864,3.7763932 L6.541,6.798 L4.46153846,1.80769231 L4.41753918,1.72348476 Z" id="形状"></path>
        </g>
    </g>
</svg>