<?xml version="1.0" encoding="UTF-8"?>
<svg width="19px" height="15px" viewBox="0 0 19 15" version="1.1" xmlns="http://www.w3.org/2000/svg" xmlns:xlink="http://www.w3.org/1999/xlink">
    <title>照片</title>
    <g id="v5.9" stroke="none" stroke-width="1" fill="none" fill-rule="evenodd" fill-opacity="0.25">
        <g id="相册-已导入备份" transform="translate(-1464.000000, -754.000000)" fill="#000000" fill-rule="nonzero">
            <g id="编组-3" transform="translate(1301.000000, 592.000000)">
                <g id="照片" transform="translate(163.000000, 162.000000)">
                    <path d="M16,0 C17.6568542,-3.04359188e-16 19,1.34314575 19,3 L19,12 C19,13.6568542 17.6568542,15 16,15 L3,15 C1.34314575,15 2.02906125e-16,13.6568542 0,12 L0,3 C-2.02906125e-16,1.34314575 1.34314575,3.04359188e-16 3,0 L16,0 Z M7.37124378,5.30890483 C6.65472637,5.30890483 3.83402985,9.24632396 2.2478607,11.6065169 L2.2478607,11.6065169 L16.761592,11.6065169 C16.7370149,11.5876956 14.30199,7.74250088 13.5703483,7.74250088 C12.9515378,7.74250088 11.8462434,9.13509154 11.5563063,9.514889 L11.4933689,9.59835326 L11.4933689,9.59835326 L11.4850746,9.60957534 C11.0593234,9.16162804 10.4269731,8.3839313 9.77701811,7.61195624 L9.45144851,7.22799862 C8.58401725,6.21366637 7.7412869,5.30890483 7.37124378,5.30890483 Z M14.2490547,1.57663804 C13.279204,1.57663804 12.4965174,2.37654394 12.4965174,3.36466298 C12.4965174,4.35278203 13.2810945,5.15268792 14.2490547,5.15268792 C15.2189055,5.15268792 16.001592,4.35278203 16.001592,3.36466298 C16.001592,2.37654394 15.2189055,1.57663804 14.2490547,1.57663804 Z" id="形状"></path>
                </g>
            </g>
        </g>
    </g>
</svg>