<svg xmlns="http://www.w3.org/2000/svg" xmlns:xlink="http://www.w3.org/1999/xlink" width="14" height="14" viewBox="0 0 14 14">
  <defs>
    <circle id="check-b" cx="6" cy="6" r="6"/>
    <filter id="check-a" width="283.3%" height="283.3%" x="-91.7%" y="-58.3%" filterUnits="objectBoundingBox">
      <feOffset dy="4" in="SourceAlpha" result="shadowOffsetOuter1"/>
      <feGaussianBlur in="shadowOffsetOuter1" result="shadowBlurOuter1" stdDeviation="3"/>
      <feColorMatrix in="shadowBlurOuter1" values="0 0 0 0 0.17254902   0 0 0 0 0.97254902   0 0 0 0 0.928099719  0 0 0 0.4 0"/>
    </filter>
  </defs>
  <g fill="none" fill-rule="evenodd" transform="translate(1 1)">
    <use fill="#000" filter="url(#check-a)" xlink:href="#check-b"/>
    <use fill="#00A48A" xlink:href="#check-b"/>
    <path fill="#FFF" d="M7.56660418,3.29289322 L10.3950313,6.12132034 C10.7855556,6.51184464 10.7855556,7.14500961 10.3950313,7.53553391 C10.004507,7.9260582 9.37134203,7.9260582 8.98081774,7.53553391 L6.859,5.414 L2.9704101,9.30330086 C2.57988581,9.69382515 1.94672083,9.69382515 1.55619654,9.30330086 C1.16567225,8.91277657 1.16567225,8.27961159 1.55619654,7.8890873 L6.15239062,3.29289322 C6.3326326,3.11265124 6.56456135,3.01559786 6.80046601,3.0017331 L6.91852878,3.0017331 C7.15443344,3.01559786 7.3863622,3.11265124 7.56660418,3.29289322 Z" transform="rotate(180 6.094 6.35)"/>
  </g>
</svg>
