<svg id="安装程序" xmlns="http://www.w3.org/2000/svg" xmlns:xlink="http://www.w3.org/1999/xlink" viewBox="0 0 512 512"><defs><style>.cls-1{fill:url(#未命名的渐变_26);}.cls-2,.cls-3{fill:#f9f9f9;}.cls-2{fill-rule:evenodd;}</style><linearGradient id="未命名的渐变_26" x1="369.02" y1="451.75" x2="142.98" y2="60.25" gradientUnits="userSpaceOnUse"><stop offset="0" stop-color="#dd4814"/><stop offset="1" stop-color="#dd7514"/></linearGradient></defs><g id="_512" data-name="512"><circle class="cls-1" cx="256" cy="256" r="226"/><polygon class="cls-2" points="244.51 235.25 256.37 219.32 251.93 202.28 259.7 179.68 241.55 198.2 238.96 197.46 243.77 185.98 226.73 203.02 210.43 213.02 193.39 244.88 202.65 268.6 205.98 286.75 209.69 296.01 196.35 311.94 214.88 311.94 217.47 295.27 224.88 283.79 237.1 286.01 250.81 280.45 261.19 275.27 271.19 281.93 259.33 296.01 247.11 307.13 266 307.5 266 300.09 280.82 288.6 286.01 294.9 270.82 316.76 290.08 316.76 289.34 306.02 303.42 293.05 296.38 278.6 295.27 261.19 309.72 253.04 317.5 254.52 328.62 250.81 331.58 228.58 314.91 233.77 304.53 248.96 286.75 258.22 262.3 248.22 244.51 235.25"/><circle class="cls-3" cx="339.5" cy="116.5" r="32.5"/><circle class="cls-3" cx="92.5" cy="256.5" r="32.5"/><circle class="cls-3" cx="340.5" cy="396.5" r="32.5"/><path class="cls-3" d="M219.43,170.84A94,94,0,0,1,350.35,246h50.24A143.61,143.61,0,0,0,359,155.37a43.48,43.48,0,0,1-63-37,144.52,144.52,0,0,0-103.23,9.7Z"/><path class="cls-3" d="M350.74,264a94,94,0,0,1-133.29,78.26L190.9,385A144.46,144.46,0,0,0,297,395.36a43.48,43.48,0,0,1,63-37.74A143.5,143.5,0,0,0,400.83,264Z"/><path class="cls-3" d="M117.34,292.2a144.16,144.16,0,0,0,58.13,83.5l26.47-42.56a93.91,93.91,0,0,1,1.76-153.52l-26.45-42.53A144.2,144.2,0,0,0,117.55,221a43.48,43.48,0,0,1-.21,71.25Z"/></g></svg>