<?xml version="1.0" encoding="UTF-8"?>
<svg width="96px" height="96px" viewBox="0 0 96 96" version="1.1" xmlns="http://www.w3.org/2000/svg" xmlns:xlink="http://www.w3.org/1999/xlink">
    <title>笔记本</title>
    <defs>
        <filter x="-12.5%" y="-13.5%" width="125.0%" height="126.0%" filterUnits="objectBoundingBox" id="filter-1">
            <feOffset dx="0" dy="2" in="SourceAlpha" result="shadowOffsetOuter1"></feOffset>
            <feGaussianBlur stdDeviation="2" in="shadowOffsetOuter1" result="shadowBlurOuter1"></feGaussianBlur>
            <feColorMatrix values="0 0 0 0 0   0 0 0 0 0   0 0 0 0 0  0 0 0 0.2 0" type="matrix" in="shadowBlurOuter1" result="shadowMatrixOuter1"></feColorMatrix>
            <feMerge>
                <feMergeNode in="shadowMatrixOuter1"></feMergeNode>
                <feMergeNode in="SourceGraphic"></feMergeNode>
            </feMerge>
        </filter>
        <linearGradient x1="39.598747%" y1="20.7612457%" x2="75.3018846%" y2="79.2387543%" id="linearGradient-2">
            <stop stop-color="#D7E4FF" offset="0%"></stop>
            <stop stop-color="#F4F9FF" offset="100%"></stop>
        </linearGradient>
        <path d="M20.5664062,10.40625 L74.4335937,10.40625 C80.0966698,10.40625 84.6875,14.9970802 84.6875,20.6601562 L84.6875,65.09375 C84.6875,66.3018729 83.7081229,67.28125 82.5,67.28125 L12.5,67.28125 C11.2918771,67.28125 10.3125,66.3018729 10.3125,65.09375 L10.3125,20.6601562 C10.3125,14.9970802 14.9033302,10.40625 20.5664062,10.40625 Z" id="path-3"></path>
        <filter x="-0.7%" y="-0.9%" width="101.3%" height="101.8%" filterUnits="objectBoundingBox" id="filter-4">
            <feOffset dx="0" dy="1" in="SourceAlpha" result="shadowOffsetInner1"></feOffset>
            <feComposite in="shadowOffsetInner1" in2="SourceAlpha" operator="arithmetic" k2="-1" k3="1" result="shadowInnerInner1"></feComposite>
            <feColorMatrix values="0 0 0 0 1   0 0 0 0 1   0 0 0 0 1  0 0 0 1 0" type="matrix" in="shadowInnerInner1"></feColorMatrix>
        </filter>
        <linearGradient x1="46.8261315%" y1="0.564822635%" x2="46.8261315%" y2="99.6640703%" id="linearGradient-5">
            <stop stop-color="#4F5D73" offset="0%"></stop>
            <stop stop-color="#313A46" offset="100%"></stop>
        </linearGradient>
        <path d="M7.3828125,0.41015625 L62.6171875,0.41015625 C66.6946023,0.41015625 70,3.715554 70,7.79296875 L70,49.6289062 C70,50.8370291 69.0206229,51.8164062 67.8125,51.8164062 L2.1875,51.8164062 C0.97937711,51.8164062 -1.98937171e-12,50.8370291 -1.98951966e-12,49.6289062 L-1.98951966e-12,7.79296875 C-1.990019e-12,3.715554 3.30539775,0.41015625 7.3828125,0.41015625 Z" id="path-6"></path>
        <linearGradient x1="0%" y1="50%" x2="100%" y2="50%" id="linearGradient-8">
            <stop stop-color="#A09AD3" offset="0%"></stop>
            <stop stop-color="#988DD9" offset="49.6179452%"></stop>
            <stop stop-color="#1654D2" offset="100%"></stop>
        </linearGradient>
        <linearGradient x1="50%" y1="0%" x2="50%" y2="87.8851997%" id="linearGradient-9">
            <stop stop-color="#BEC9DF" stop-opacity="0.7" offset="0%"></stop>
            <stop stop-color="#D7E4FF" offset="39.8496821%"></stop>
            <stop stop-color="#F4F9FF" offset="100%"></stop>
        </linearGradient>
        <path d="M12.5864078,67.28125 L82.4166198,67.28125 C83.7845983,67.28125 85.0090407,68.1299456 85.4891488,69.4109068 L90.2115981,82.010723 C90.6091027,83.0712923 90.0715825,84.2532948 89.0110132,84.6507994 C88.780854,84.7370637 88.5370616,84.78125 88.2912674,84.78125 L6.7092783,84.78125 C5.57666309,84.78125 4.65849705,83.863084 4.65849705,82.7304688 C4.65849705,82.4845556 4.7027261,82.2406471 4.78907198,82.0103914 L9.51407767,69.4103762 C9.99433421,68.1296921 11.2186366,67.28125 12.5864078,67.28125 Z" id="path-10"></path>
        <filter x="-0.1%" y="-5.7%" width="100.2%" height="111.4%" filterUnits="objectBoundingBox" id="filter-11">
            <feOffset dx="0" dy="-2" in="SourceAlpha" result="shadowOffsetInner1"></feOffset>
            <feComposite in="shadowOffsetInner1" in2="SourceAlpha" operator="arithmetic" k2="-1" k3="1" result="shadowInnerInner1"></feComposite>
            <feColorMatrix values="0 0 0 0 0   0 0 0 0 0   0 0 0 0 0  0 0 0 0.17 0" type="matrix" in="shadowInnerInner1"></feColorMatrix>
        </filter>
        <path d="M14.3877187,68.375 L14.9407373,68.375 C15.8726576,68.375 16.6500183,69.087258 16.7313209,70.015625 C16.8040271,70.8458334 16.1899502,71.5777903 15.3597418,71.6504965 C15.3159645,71.6543303 15.2720405,71.65625 15.2280956,71.65625 L14.1451036,71.65625 C13.3012369,71.65625 12.6171478,70.9721609 12.6171478,70.1282942 C12.6171478,70.0906994 12.6185353,70.0531174 12.6213075,70.015625 C12.689704,69.0905956 13.4601641,68.375 14.3877187,68.375 Z" id="path-12"></path>
        <filter x="-8.8%" y="-15.2%" width="117.0%" height="130.5%" filterUnits="objectBoundingBox" id="filter-13">
            <feOffset dx="0" dy="-1" in="SourceAlpha" result="shadowOffsetInner1"></feOffset>
            <feComposite in="shadowOffsetInner1" in2="SourceAlpha" operator="arithmetic" k2="-1" k3="1" result="shadowInnerInner1"></feComposite>
            <feColorMatrix values="0 0 0 0 0   0 0 0 0 0   0 0 0 0 0  0 0 0 0.17 0" type="matrix" in="shadowInnerInner1"></feColorMatrix>
        </filter>
        <path d="M19.8564687,68.375 L20.4094873,68.375 C21.3414076,68.375 22.1187683,69.087258 22.2000709,70.015625 C22.2727771,70.8458334 21.6587002,71.5777903 20.8284918,71.6504965 C20.7847145,71.6543303 20.7407905,71.65625 20.6968456,71.65625 L19.6138536,71.65625 C18.7699869,71.65625 18.0858978,70.9721609 18.0858978,70.1282942 C18.0858978,70.0906994 18.0872853,70.0531174 18.0900575,70.015625 C18.158454,69.0905956 18.9289141,68.375 19.8564687,68.375 Z" id="path-14"></path>
        <filter x="-8.8%" y="-15.2%" width="117.0%" height="130.5%" filterUnits="objectBoundingBox" id="filter-15">
            <feOffset dx="0" dy="-1" in="SourceAlpha" result="shadowOffsetInner1"></feOffset>
            <feComposite in="shadowOffsetInner1" in2="SourceAlpha" operator="arithmetic" k2="-1" k3="1" result="shadowInnerInner1"></feComposite>
            <feColorMatrix values="0 0 0 0 0   0 0 0 0 0   0 0 0 0 0  0 0 0 0.17 0" type="matrix" in="shadowInnerInner1"></feColorMatrix>
        </filter>
        <path d="M25.3252187,68.375 L25.8782373,68.375 C26.8101576,68.375 27.5875183,69.087258 27.6688209,70.015625 C27.7415271,70.8458334 27.1274502,71.5777903 26.2972418,71.6504965 C26.2534645,71.6543303 26.2095405,71.65625 26.1655956,71.65625 L25.0826036,71.65625 C24.2387369,71.65625 23.5546478,70.9721609 23.5546478,70.1282942 C23.5546478,70.0906994 23.5560353,70.0531174 23.5588075,70.015625 C23.627204,69.0905956 24.3976641,68.375 25.3252187,68.375 Z" id="path-16"></path>
        <filter x="-8.8%" y="-15.2%" width="117.0%" height="130.5%" filterUnits="objectBoundingBox" id="filter-17">
            <feOffset dx="0" dy="-1" in="SourceAlpha" result="shadowOffsetInner1"></feOffset>
            <feComposite in="shadowOffsetInner1" in2="SourceAlpha" operator="arithmetic" k2="-1" k3="1" result="shadowInnerInner1"></feComposite>
            <feColorMatrix values="0 0 0 0 0   0 0 0 0 0   0 0 0 0 0  0 0 0 0.17 0" type="matrix" in="shadowInnerInner1"></feColorMatrix>
        </filter>
        <path d="M30.7939687,68.375 L31.3469873,68.375 C32.2789076,68.375 33.0562683,69.087258 33.1375709,70.015625 C33.2102771,70.8458334 32.5962002,71.5777903 31.7659918,71.6504965 C31.7222145,71.6543303 31.6782905,71.65625 31.6343456,71.65625 L30.5513536,71.65625 C29.7074869,71.65625 29.0233978,70.9721609 29.0233978,70.1282942 C29.0233978,70.0906994 29.0247853,70.0531174 29.0275575,70.015625 C29.095954,69.0905956 29.8664141,68.375 30.7939687,68.375 Z" id="path-18"></path>
        <filter x="-8.8%" y="-15.2%" width="117.0%" height="130.5%" filterUnits="objectBoundingBox" id="filter-19">
            <feOffset dx="0" dy="-1" in="SourceAlpha" result="shadowOffsetInner1"></feOffset>
            <feComposite in="shadowOffsetInner1" in2="SourceAlpha" operator="arithmetic" k2="-1" k3="1" result="shadowInnerInner1"></feComposite>
            <feColorMatrix values="0 0 0 0 0   0 0 0 0 0   0 0 0 0 0  0 0 0 0.17 0" type="matrix" in="shadowInnerInner1"></feColorMatrix>
        </filter>
        <path d="M36.2627187,68.375 L36.8157373,68.375 C37.7476576,68.375 38.5250183,69.087258 38.6063209,70.015625 C38.6790271,70.8458334 38.0649502,71.5777903 37.2347418,71.6504965 C37.1909645,71.6543303 37.1470405,71.65625 37.1030956,71.65625 L36.0201036,71.65625 C35.1762369,71.65625 34.4921478,70.9721609 34.4921478,70.1282942 C34.4921478,70.0906994 34.4935353,70.0531174 34.4963075,70.015625 C34.564704,69.0905956 35.3351641,68.375 36.2627187,68.375 Z" id="path-20"></path>
        <filter x="-8.8%" y="-15.2%" width="117.0%" height="130.5%" filterUnits="objectBoundingBox" id="filter-21">
            <feOffset dx="0" dy="-1" in="SourceAlpha" result="shadowOffsetInner1"></feOffset>
            <feComposite in="shadowOffsetInner1" in2="SourceAlpha" operator="arithmetic" k2="-1" k3="1" result="shadowInnerInner1"></feComposite>
            <feColorMatrix values="0 0 0 0 0   0 0 0 0 0   0 0 0 0 0  0 0 0 0.17 0" type="matrix" in="shadowInnerInner1"></feColorMatrix>
        </filter>
        <path d="M41.7314687,68.375 L42.2844873,68.375 C43.2164076,68.375 43.9937683,69.087258 44.0750709,70.015625 C44.1477771,70.8458334 43.5337002,71.5777903 42.7034918,71.6504965 C42.6597145,71.6543303 42.6157905,71.65625 42.5718456,71.65625 L41.4888536,71.65625 C40.6449869,71.65625 39.9608978,70.9721609 39.9608978,70.1282942 C39.9608978,70.0906994 39.9622853,70.0531174 39.9650575,70.015625 C40.033454,69.0905956 40.8039141,68.375 41.7314687,68.375 Z" id="path-22"></path>
        <filter x="-8.8%" y="-15.2%" width="117.0%" height="130.5%" filterUnits="objectBoundingBox" id="filter-23">
            <feOffset dx="0" dy="-1" in="SourceAlpha" result="shadowOffsetInner1"></feOffset>
            <feComposite in="shadowOffsetInner1" in2="SourceAlpha" operator="arithmetic" k2="-1" k3="1" result="shadowInnerInner1"></feComposite>
            <feColorMatrix values="0 0 0 0 0   0 0 0 0 0   0 0 0 0 0  0 0 0 0.17 0" type="matrix" in="shadowInnerInner1"></feColorMatrix>
        </filter>
        <path d="M47.2002187,68.375 L47.7532373,68.375 C48.6851576,68.375 49.4625183,69.087258 49.5438209,70.015625 C49.6165271,70.8458334 49.0024502,71.5777903 48.1722418,71.6504965 C48.1284645,71.6543303 48.0845405,71.65625 48.0405956,71.65625 L46.9576036,71.65625 C46.1137369,71.65625 45.4296478,70.9721609 45.4296478,70.1282942 C45.4296478,70.0906994 45.4310353,70.0531174 45.4338075,70.015625 C45.502204,69.0905956 46.2726641,68.375 47.2002187,68.375 Z" id="path-24"></path>
        <filter x="-8.8%" y="-15.2%" width="117.0%" height="130.5%" filterUnits="objectBoundingBox" id="filter-25">
            <feOffset dx="0" dy="-1" in="SourceAlpha" result="shadowOffsetInner1"></feOffset>
            <feComposite in="shadowOffsetInner1" in2="SourceAlpha" operator="arithmetic" k2="-1" k3="1" result="shadowInnerInner1"></feComposite>
            <feColorMatrix values="0 0 0 0 0   0 0 0 0 0   0 0 0 0 0  0 0 0 0.17 0" type="matrix" in="shadowInnerInner1"></feColorMatrix>
        </filter>
        <path d="M52.6689687,68.375 L53.2219873,68.375 C54.1539076,68.375 54.9312683,69.087258 55.0125709,70.015625 C55.0852771,70.8458334 54.4712002,71.5777903 53.6409918,71.6504965 C53.5972145,71.6543303 53.5532905,71.65625 53.5093456,71.65625 L52.4263536,71.65625 C51.5824869,71.65625 50.8983978,70.9721609 50.8983978,70.1282942 C50.8983978,70.0906994 50.8997853,70.0531174 50.9025575,70.015625 C50.970954,69.0905956 51.7414141,68.375 52.6689687,68.375 Z" id="path-26"></path>
        <filter x="-8.8%" y="-15.2%" width="117.0%" height="130.5%" filterUnits="objectBoundingBox" id="filter-27">
            <feOffset dx="0" dy="-1" in="SourceAlpha" result="shadowOffsetInner1"></feOffset>
            <feComposite in="shadowOffsetInner1" in2="SourceAlpha" operator="arithmetic" k2="-1" k3="1" result="shadowInnerInner1"></feComposite>
            <feColorMatrix values="0 0 0 0 0   0 0 0 0 0   0 0 0 0 0  0 0 0 0.17 0" type="matrix" in="shadowInnerInner1"></feColorMatrix>
        </filter>
        <path d="M58.1377187,68.375 L58.6907373,68.375 C59.6226576,68.375 60.4000183,69.087258 60.4813209,70.015625 C60.5540271,70.8458334 59.9399502,71.5777903 59.1097418,71.6504965 C59.0659645,71.6543303 59.0220405,71.65625 58.9780956,71.65625 L57.8951036,71.65625 C57.0512369,71.65625 56.3671478,70.9721609 56.3671478,70.1282942 C56.3671478,70.0906994 56.3685353,70.0531174 56.3713075,70.015625 C56.439704,69.0905956 57.2101641,68.375 58.1377187,68.375 Z" id="path-28"></path>
        <filter x="-8.8%" y="-15.2%" width="117.0%" height="130.5%" filterUnits="objectBoundingBox" id="filter-29">
            <feOffset dx="0" dy="-1" in="SourceAlpha" result="shadowOffsetInner1"></feOffset>
            <feComposite in="shadowOffsetInner1" in2="SourceAlpha" operator="arithmetic" k2="-1" k3="1" result="shadowInnerInner1"></feComposite>
            <feColorMatrix values="0 0 0 0 0   0 0 0 0 0   0 0 0 0 0  0 0 0 0.17 0" type="matrix" in="shadowInnerInner1"></feColorMatrix>
        </filter>
        <path d="M63.6064687,68.375 L64.1594873,68.375 C65.0914076,68.375 65.8687683,69.087258 65.9500709,70.015625 C66.0227771,70.8458334 65.4087002,71.5777903 64.5784918,71.6504965 C64.5347145,71.6543303 64.4907905,71.65625 64.4468456,71.65625 L63.3638536,71.65625 C62.5199869,71.65625 61.8358978,70.9721609 61.8358978,70.1282942 C61.8358978,70.0906994 61.8372853,70.0531174 61.8400575,70.015625 C61.908454,69.0905956 62.6789141,68.375 63.6064687,68.375 Z" id="path-30"></path>
        <filter x="-8.8%" y="-15.2%" width="117.0%" height="130.5%" filterUnits="objectBoundingBox" id="filter-31">
            <feOffset dx="0" dy="-1" in="SourceAlpha" result="shadowOffsetInner1"></feOffset>
            <feComposite in="shadowOffsetInner1" in2="SourceAlpha" operator="arithmetic" k2="-1" k3="1" result="shadowInnerInner1"></feComposite>
            <feColorMatrix values="0 0 0 0 0   0 0 0 0 0   0 0 0 0 0  0 0 0 0.17 0" type="matrix" in="shadowInnerInner1"></feColorMatrix>
        </filter>
        <path d="M69.0752187,68.375 L69.6282373,68.375 C70.5601576,68.375 71.3375183,69.087258 71.4188209,70.015625 C71.4915271,70.8458334 70.8774502,71.5777903 70.0472418,71.6504965 C70.0034645,71.6543303 69.9595405,71.65625 69.9155956,71.65625 L68.8326036,71.65625 C67.9887369,71.65625 67.3046478,70.9721609 67.3046478,70.1282942 C67.3046478,70.0906994 67.3060353,70.0531174 67.3088075,70.015625 C67.377204,69.0905956 68.1476641,68.375 69.0752187,68.375 Z" id="path-32"></path>
        <filter x="-8.8%" y="-15.2%" width="117.0%" height="130.5%" filterUnits="objectBoundingBox" id="filter-33">
            <feOffset dx="0" dy="-1" in="SourceAlpha" result="shadowOffsetInner1"></feOffset>
            <feComposite in="shadowOffsetInner1" in2="SourceAlpha" operator="arithmetic" k2="-1" k3="1" result="shadowInnerInner1"></feComposite>
            <feColorMatrix values="0 0 0 0 0   0 0 0 0 0   0 0 0 0 0  0 0 0 0.17 0" type="matrix" in="shadowInnerInner1"></feColorMatrix>
        </filter>
        <path d="M74.5439687,68.375 L75.0969873,68.375 C76.0289076,68.375 76.8062683,69.087258 76.8875709,70.015625 C76.9602771,70.8458334 76.3462002,71.5777903 75.5159918,71.6504965 C75.4722145,71.6543303 75.4282905,71.65625 75.3843456,71.65625 L74.3013536,71.65625 C73.4574869,71.65625 72.7733978,70.9721609 72.7733978,70.1282942 C72.7733978,70.0906994 72.7747853,70.0531174 72.7775575,70.015625 C72.845954,69.0905956 73.6164141,68.375 74.5439687,68.375 Z" id="path-34"></path>
        <filter x="-8.8%" y="-15.2%" width="117.0%" height="130.5%" filterUnits="objectBoundingBox" id="filter-35">
            <feOffset dx="0" dy="-1" in="SourceAlpha" result="shadowOffsetInner1"></feOffset>
            <feComposite in="shadowOffsetInner1" in2="SourceAlpha" operator="arithmetic" k2="-1" k3="1" result="shadowInnerInner1"></feComposite>
            <feColorMatrix values="0 0 0 0 0   0 0 0 0 0   0 0 0 0 0  0 0 0 0.17 0" type="matrix" in="shadowInnerInner1"></feColorMatrix>
        </filter>
        <path d="M80.0127187,68.375 L80.5657373,68.375 C81.4976576,68.375 82.2750183,69.087258 82.3563209,70.015625 C82.4290271,70.8458334 81.8149502,71.5777903 80.9847418,71.6504965 C80.9409645,71.6543303 80.8970405,71.65625 80.8530956,71.65625 L79.7701036,71.65625 C78.9262369,71.65625 78.2421478,70.9721609 78.2421478,70.1282942 C78.2421478,70.0906994 78.2435353,70.0531174 78.2463075,70.015625 C78.314704,69.0905956 79.0851641,68.375 80.0127187,68.375 Z" id="path-36"></path>
        <filter x="-8.8%" y="-15.2%" width="117.0%" height="130.5%" filterUnits="objectBoundingBox" id="filter-37">
            <feOffset dx="0" dy="-1" in="SourceAlpha" result="shadowOffsetInner1"></feOffset>
            <feComposite in="shadowOffsetInner1" in2="SourceAlpha" operator="arithmetic" k2="-1" k3="1" result="shadowInnerInner1"></feComposite>
            <feColorMatrix values="0 0 0 0 0   0 0 0 0 0   0 0 0 0 0  0 0 0 0.17 0" type="matrix" in="shadowInnerInner1"></feColorMatrix>
        </filter>
        <path d="M11.1696363,72.75 L12.6778761,72.75 C13.6170751,72.75 14.4056977,73.4570034 14.5079011,74.390625 C14.5968251,75.2029404 14.0104005,75.9335393 13.1980851,76.0224633 C13.1446143,76.0283167 13.0908642,76.03125 13.0370739,76.03125 L10.8663675,76.03125 C10.0366375,76.03125 9.36400839,75.3586209 9.36400839,74.5288909 C9.36400839,74.4827288 9.36613599,74.4365912 9.3703844,74.390625 C9.45629711,73.4610831 10.2361326,72.75 11.1696363,72.75 Z" id="path-38"></path>
        <filter x="-6.5%" y="-15.2%" width="112.5%" height="130.5%" filterUnits="objectBoundingBox" id="filter-39">
            <feOffset dx="0" dy="-1" in="SourceAlpha" result="shadowOffsetInner1"></feOffset>
            <feComposite in="shadowOffsetInner1" in2="SourceAlpha" operator="arithmetic" k2="-1" k3="1" result="shadowInnerInner1"></feComposite>
            <feColorMatrix values="0 0 0 0 0   0 0 0 0 0   0 0 0 0 0  0 0 0 0.17 0" type="matrix" in="shadowInnerInner1"></feColorMatrix>
        </filter>
        <path d="M75.7008863,72.75 L77.2091261,72.75 C78.1483251,72.75 78.9369477,73.4570034 79.0391511,74.390625 C79.1280751,75.2029404 78.5416505,75.9335393 77.7293351,76.0224633 C77.6758643,76.0283167 77.6221142,76.03125 77.5683239,76.03125 L75.3976175,76.03125 C74.5678875,76.03125 73.8952584,75.3586209 73.8952584,74.5288909 C73.8952584,74.4827288 73.897386,74.4365912 73.9016344,74.390625 C73.9875471,73.4610831 74.7673826,72.75 75.7008863,72.75 Z" id="path-40"></path>
        <filter x="-6.5%" y="-15.2%" width="112.5%" height="130.5%" filterUnits="objectBoundingBox" id="filter-41">
            <feOffset dx="0" dy="-1" in="SourceAlpha" result="shadowOffsetInner1"></feOffset>
            <feComposite in="shadowOffsetInner1" in2="SourceAlpha" operator="arithmetic" k2="-1" k3="1" result="shadowInnerInner1"></feComposite>
            <feColorMatrix values="0 0 0 0 0   0 0 0 0 0   0 0 0 0 0  0 0 0 0.17 0" type="matrix" in="shadowInnerInner1"></feColorMatrix>
        </filter>
        <path d="M69.1383863,72.75 L70.6466261,72.75 C71.5858251,72.75 72.3744477,73.4570034 72.4766511,74.390625 C72.5655751,75.2029404 71.9791505,75.9335393 71.1668351,76.0224633 C71.1133643,76.0283167 71.0596142,76.03125 71.0058239,76.03125 L68.8351175,76.03125 C68.0053875,76.03125 67.3327584,75.3586209 67.3327584,74.5288909 C67.3327584,74.4827288 67.334886,74.4365912 67.3391344,74.390625 C67.4250471,73.4610831 68.2048826,72.75 69.1383863,72.75 Z" id="path-42"></path>
        <filter x="-6.5%" y="-15.2%" width="112.5%" height="130.5%" filterUnits="objectBoundingBox" id="filter-43">
            <feOffset dx="0" dy="-1" in="SourceAlpha" result="shadowOffsetInner1"></feOffset>
            <feComposite in="shadowOffsetInner1" in2="SourceAlpha" operator="arithmetic" k2="-1" k3="1" result="shadowInnerInner1"></feComposite>
            <feColorMatrix values="0 0 0 0 0   0 0 0 0 0   0 0 0 0 0  0 0 0 0.17 0" type="matrix" in="shadowInnerInner1"></feColorMatrix>
        </filter>
        <path d="M62.5758863,72.75 L64.0841261,72.75 C65.0233251,72.75 65.8119477,73.4570034 65.9141511,74.390625 C66.0030751,75.2029404 65.4166505,75.9335393 64.6043351,76.0224633 C64.5508643,76.0283167 64.4971142,76.03125 64.4433239,76.03125 L62.2726175,76.03125 C61.4428875,76.03125 60.7702584,75.3586209 60.7702584,74.5288909 C60.7702584,74.4827288 60.772386,74.4365912 60.7766344,74.390625 C60.8625471,73.4610831 61.6423826,72.75 62.5758863,72.75 Z" id="path-44"></path>
        <filter x="-6.5%" y="-15.2%" width="112.5%" height="130.5%" filterUnits="objectBoundingBox" id="filter-45">
            <feOffset dx="0" dy="-1" in="SourceAlpha" result="shadowOffsetInner1"></feOffset>
            <feComposite in="shadowOffsetInner1" in2="SourceAlpha" operator="arithmetic" k2="-1" k3="1" result="shadowInnerInner1"></feComposite>
            <feColorMatrix values="0 0 0 0 0   0 0 0 0 0   0 0 0 0 0  0 0 0 0.17 0" type="matrix" in="shadowInnerInner1"></feColorMatrix>
        </filter>
        <path d="M17.7321363,72.75 L19.2403761,72.75 C20.1795751,72.75 20.9681977,73.4570034 21.0704011,74.390625 C21.1593251,75.2029404 20.5729005,75.9335393 19.7605851,76.0224633 C19.7071143,76.0283167 19.6533642,76.03125 19.5995739,76.03125 L17.4288675,76.03125 C16.5991375,76.03125 15.9265084,75.3586209 15.9265084,74.5288909 C15.9265084,74.4827288 15.928636,74.4365912 15.9328844,74.390625 C16.0187971,73.4610831 16.7986326,72.75 17.7321363,72.75 Z" id="path-46"></path>
        <filter x="-6.5%" y="-15.2%" width="112.5%" height="130.5%" filterUnits="objectBoundingBox" id="filter-47">
            <feOffset dx="0" dy="-1" in="SourceAlpha" result="shadowOffsetInner1"></feOffset>
            <feComposite in="shadowOffsetInner1" in2="SourceAlpha" operator="arithmetic" k2="-1" k3="1" result="shadowInnerInner1"></feComposite>
            <feColorMatrix values="0 0 0 0 0   0 0 0 0 0   0 0 0 0 0  0 0 0 0.17 0" type="matrix" in="shadowInnerInner1"></feColorMatrix>
        </filter>
        <path d="M24.2946363,72.75 L25.8028761,72.75 C26.7420751,72.75 27.5306977,73.4570034 27.6329011,74.390625 C27.7218251,75.2029404 27.1354005,75.9335393 26.3230851,76.0224633 C26.2696143,76.0283167 26.2158642,76.03125 26.1620739,76.03125 L23.9913675,76.03125 C23.1616375,76.03125 22.4890084,75.3586209 22.4890084,74.5288909 C22.4890084,74.4827288 22.491136,74.4365912 22.4953844,74.390625 C22.5812971,73.4610831 23.3611326,72.75 24.2946363,72.75 Z" id="path-48"></path>
        <filter x="-6.5%" y="-15.2%" width="112.5%" height="130.5%" filterUnits="objectBoundingBox" id="filter-49">
            <feOffset dx="0" dy="-1" in="SourceAlpha" result="shadowOffsetInner1"></feOffset>
            <feComposite in="shadowOffsetInner1" in2="SourceAlpha" operator="arithmetic" k2="-1" k3="1" result="shadowInnerInner1"></feComposite>
            <feColorMatrix values="0 0 0 0 0   0 0 0 0 0   0 0 0 0 0  0 0 0 0.17 0" type="matrix" in="shadowInnerInner1"></feColorMatrix>
        </filter>
        <path d="M30.8571363,72.75 L32.3653761,72.75 C33.3045751,72.75 34.0931977,73.4570034 34.1954011,74.390625 C34.2843251,75.2029404 33.6979005,75.9335393 32.8855851,76.0224633 C32.8321143,76.0283167 32.7783642,76.03125 32.7245739,76.03125 L30.5538675,76.03125 C29.7241375,76.03125 29.0515084,75.3586209 29.0515084,74.5288909 C29.0515084,74.4827288 29.053636,74.4365912 29.0578844,74.390625 C29.1437971,73.4610831 29.9236326,72.75 30.8571363,72.75 Z" id="path-50"></path>
        <filter x="-6.5%" y="-15.2%" width="112.5%" height="130.5%" filterUnits="objectBoundingBox" id="filter-51">
            <feOffset dx="0" dy="-1" in="SourceAlpha" result="shadowOffsetInner1"></feOffset>
            <feComposite in="shadowOffsetInner1" in2="SourceAlpha" operator="arithmetic" k2="-1" k3="1" result="shadowInnerInner1"></feComposite>
            <feColorMatrix values="0 0 0 0 0   0 0 0 0 0   0 0 0 0 0  0 0 0 0.17 0" type="matrix" in="shadowInnerInner1"></feColorMatrix>
        </filter>
        <path d="M82.2633863,72.75 L83.7716261,72.75 C84.7108251,72.75 85.4994477,73.4570034 85.6016511,74.390625 C85.6905751,75.2029404 85.1041505,75.9335393 84.2918351,76.0224633 C84.2383643,76.0283167 84.1846142,76.03125 84.1308239,76.03125 L81.9601175,76.03125 C81.1303875,76.03125 80.4577584,75.3586209 80.4577584,74.5288909 C80.4577584,74.4827288 80.459886,74.4365912 80.4641344,74.390625 C80.5500471,73.4610831 81.3298826,72.75 82.2633863,72.75 Z" id="path-52"></path>
        <filter x="-6.5%" y="-15.2%" width="112.5%" height="130.5%" filterUnits="objectBoundingBox" id="filter-53">
            <feOffset dx="0" dy="-1" in="SourceAlpha" result="shadowOffsetInner1"></feOffset>
            <feComposite in="shadowOffsetInner1" in2="SourceAlpha" operator="arithmetic" k2="-1" k3="1" result="shadowInnerInner1"></feComposite>
            <feColorMatrix values="0 0 0 0 0   0 0 0 0 0   0 0 0 0 0  0 0 0 0.17 0" type="matrix" in="shadowInnerInner1"></feColorMatrix>
        </filter>
        <path d="M37.6255187,72.75 L57.0475227,72.75 C58.1871451,72.75 59.2328301,73.3817947 59.7629252,74.390625 C60.0505876,74.9380788 59.839985,75.6150743 59.2925312,75.9027367 C59.1318898,75.9871466 58.9531405,76.03125 58.7716723,76.03125 L36.1698284,76.03125 C35.5251631,76.03125 35.0025587,75.5086456 35.0025587,74.8639803 C35.0025587,74.7009226 35.0367214,74.5396736 35.1028451,74.390625 C35.5453961,73.3930774 36.5342109,72.75 37.6255187,72.75 Z" id="path-54"></path>
        <filter x="0.5%" y="-15.2%" width="98.6%" height="130.5%" filterUnits="objectBoundingBox" id="filter-55">
            <feOffset dx="0" dy="-1" in="SourceAlpha" result="shadowOffsetInner1"></feOffset>
            <feComposite in="shadowOffsetInner1" in2="SourceAlpha" operator="arithmetic" k2="-1" k3="1" result="shadowInnerInner1"></feComposite>
            <feColorMatrix values="0 0 0 0 0   0 0 0 0 0   0 0 0 0 0  0 0 0 0.17 0" type="matrix" in="shadowInnerInner1"></feColorMatrix>
        </filter>
        <path d="M42.578125,82.59375 L52.421875,82.59375 C53.3279672,82.59375 54.0625,83.3282828 54.0625,84.234375 L54.0625,84.234375 L54.0625,84.234375 L40.9375,84.234375 C40.9375,83.3282828 41.6720328,82.59375 42.578125,82.59375 Z" id="path-56"></path>
        <filter x="-57.1%" y="-457.1%" width="214.3%" height="1014.3%" filterUnits="objectBoundingBox" id="filter-57">
            <feGaussianBlur stdDeviation="4" in="SourceAlpha" result="shadowBlurInner1"></feGaussianBlur>
            <feOffset dx="0" dy="7" in="shadowBlurInner1" result="shadowOffsetInner1"></feOffset>
            <feComposite in="shadowOffsetInner1" in2="SourceAlpha" operator="arithmetic" k2="-1" k3="1" result="shadowInnerInner1"></feComposite>
            <feColorMatrix values="0 0 0 0 0   0 0 0 0 0   0 0 0 0 0  0 0 0 0.2 0" type="matrix" in="shadowInnerInner1"></feColorMatrix>
        </filter>
    </defs>
    <g id="sp2" stroke="none" stroke-width="1" fill="none" fill-rule="evenodd">
        <g id="笔记本">
            <g id="矩形" filter="url(#filter-1)" transform="translate(0.000000, 1.000000)">
                <g id="蒙版">
                    <use fill="url(#linearGradient-2)" fill-rule="evenodd" xlink:href="#path-3"></use>
                    <use fill="black" fill-opacity="1" filter="url(#filter-4)" xlink:href="#path-3"></use>
                </g>
                <g id="kevin-lanceplaine-243768-unsplash" transform="translate(12.500000, 13.277344)">
                    <mask id="mask-7" fill="white">
                        <use xlink:href="#path-6"></use>
                    </mask>
                    <use id="蒙版" fill="url(#linearGradient-5)" xlink:href="#path-6"></use>
                    <g id="编组" mask="url(#mask-7)">
                        <g transform="translate(-9.638672, -11.621094)">
                            <path d="M62.4202442,3.34960938 C54.3749086,21.9709875 51.128545,32.3085908 52.6811537,34.3624193 C55.0100666,37.443162 54.1631892,45.2477102 50.9873988,49.56075 C47.8116084,53.8737898 37.8607985,56.7491497 36.8022017,60.2406581 C35.7436049,63.7321665 9.06696559,66.1967607 6.52633328,69.0721205 C3.98570096,71.9474804 8.43180751,70.9205661 8.43180751,71.9474804 C8.43180751,72.6320899 34.3321425,72.6320899 86.1328125,71.9474804 L86.1328125,3.34960938 L62.4202442,3.34960938 Z" id="路径-3" fill="#1C4186"></path>
                            <path d="M63.8295415,10.2575826 C67.4158981,10.2575826 66.583351,15.1874232 61.3319003,25.0471044 C53.4547243,39.8366262 51.1492093,45.3826969 48.8436944,49.2649464 C46.5381795,53.1471958 35.971236,68.8610628 31.5523324,70.1551459 C27.1334287,71.4492291 14.8373491,70.524884 12.3397079,70.524884 C10.6746138,70.524884 11.0588662,53.4553109 13.4924653,19.3161647 L30.0153224,1.93847656 L63.8295415,10.2575826 Z" id="路径-2" fill="#E080A9"></path>
                            <path d="M29.9187911,2.11914062 C27.5169294,6.76757813 26.8216536,13.2617188 27.8329638,21.6015625 C29.3499291,34.1113281 19.3000338,47.2363281 21.3858611,56.6699219 C23.4716885,66.1035156 12.6769433,75.3320312 12.6769433,75.3320312 C12.6769433,75.3320312 9.06960636,73.2128906 1.85493245,68.9746094 L0.387541146,11.7578125 L6.59544912,0.478515625 L29.9187911,2.11914062 Z" id="路径" fill="#101852"></path>
                            <path d="M58.1885314,24.3040526 C54.0055318,27.4475833 51.9140321,30.9459093 51.9140321,34.7990307 C51.9140321,42.4536713 48.0523555,51.0418046 41.6805891,53.0954886 C35.3088228,55.1491726 28.7439726,54.589077 27.1993019,60.5634306 C25.6546313,66.5377842 21.0206194,61.6836219 18.5105296,64.110703 C16.0004398,66.5377842 16.5929363,71.7653435 13.6966788,72.6988363 C11.7658405,73.3211648 25.0198485,73.0722334 53.4587027,71.9520421 C55.2608185,60.376732 59.5086627,52.2242287 66.2022355,47.4945321 C76.2425946,40.3999872 57.1272955,38.3463032 65.0437325,32.1852511 C70.3213572,28.077883 70.6837575,20.5477081 66.1309336,9.59472656 L64.7562763,14.6299526 C63.7013157,18.4941713 61.3907315,21.8975943 58.1885314,24.3040526 Z" id="路径-4" fill="#7A6C9F"></path>
                        </g>
                    </g>
                    <g id="编组-2" mask="url(#mask-7)">
                        <g transform="translate(1.093750, 40.878906)">
                            <rect id="bg" fill="url(#linearGradient-8)" x="0" y="0" width="67.8125" height="9.84375" rx="2.05078125"></rect>
                            <rect id="矩形备份-2" fill="#75FFAC" x="19.6875" y="2.1875" width="5.46875" height="5.46875" rx="1.421875"></rect>
                            <rect id="矩形备份" fill="#FF7D52" x="8.75" y="2.1875" width="5.46875" height="5.46875" rx="1.421875"></rect>
                            <rect id="矩形备份-3" fill="#FFB656" x="27.34375" y="2.1875" width="5.46875" height="5.46875" rx="1.421875"></rect>
                            <rect id="矩形备份-7" fill="#FF796E" x="42.65625" y="2.1875" width="5.46875" height="5.46875" rx="1.421875"></rect>
                            <rect id="矩形备份-4" fill-opacity="0.3" fill="#000000" x="60.15625" y="2.1875" width="5.46875" height="5.46875" rx="1.421875"></rect>
                            <rect id="矩形备份-6" fill-opacity="0.3" fill="#000000" x="53.59375" y="2.1875" width="5.46875" height="5.46875" rx="1.421875"></rect>
                            <circle id="椭圆形" fill="#326CFF" cx="4.921875" cy="4.921875" r="2.734375"></circle>
                            <circle id="椭圆形备份" fill="#482AC5" cx="37.734375" cy="4.921875" r="2.734375"></circle>
                        </g>
                    </g>
                </g>
                <g>
                    <use fill="url(#linearGradient-9)" fill-rule="evenodd" xlink:href="#path-10"></use>
                    <use fill="black" fill-opacity="1" filter="url(#filter-11)" xlink:href="#path-10"></use>
                </g>
                <g>
                    <use fill="#BEC9DF" fill-rule="evenodd" xlink:href="#path-12"></use>
                    <use fill="black" fill-opacity="1" filter="url(#filter-13)" xlink:href="#path-12"></use>
                </g>
                <g>
                    <use fill="#BEC9DF" fill-rule="evenodd" xlink:href="#path-14"></use>
                    <use fill="black" fill-opacity="1" filter="url(#filter-15)" xlink:href="#path-14"></use>
                </g>
                <g>
                    <use fill="#BEC9DF" fill-rule="evenodd" xlink:href="#path-16"></use>
                    <use fill="black" fill-opacity="1" filter="url(#filter-17)" xlink:href="#path-16"></use>
                </g>
                <g>
                    <use fill="#BEC9DF" fill-rule="evenodd" xlink:href="#path-18"></use>
                    <use fill="black" fill-opacity="1" filter="url(#filter-19)" xlink:href="#path-18"></use>
                </g>
                <g>
                    <use fill="#BEC9DF" fill-rule="evenodd" xlink:href="#path-20"></use>
                    <use fill="black" fill-opacity="1" filter="url(#filter-21)" xlink:href="#path-20"></use>
                </g>
                <g>
                    <use fill="#BEC9DF" fill-rule="evenodd" xlink:href="#path-22"></use>
                    <use fill="black" fill-opacity="1" filter="url(#filter-23)" xlink:href="#path-22"></use>
                </g>
                <g>
                    <use fill="#BEC9DF" fill-rule="evenodd" xlink:href="#path-24"></use>
                    <use fill="black" fill-opacity="1" filter="url(#filter-25)" xlink:href="#path-24"></use>
                </g>
                <g>
                    <use fill="#BEC9DF" fill-rule="evenodd" xlink:href="#path-26"></use>
                    <use fill="black" fill-opacity="1" filter="url(#filter-27)" xlink:href="#path-26"></use>
                </g>
                <g>
                    <use fill="#BEC9DF" fill-rule="evenodd" xlink:href="#path-28"></use>
                    <use fill="black" fill-opacity="1" filter="url(#filter-29)" xlink:href="#path-28"></use>
                </g>
                <g>
                    <use fill="#BEC9DF" fill-rule="evenodd" xlink:href="#path-30"></use>
                    <use fill="black" fill-opacity="1" filter="url(#filter-31)" xlink:href="#path-30"></use>
                </g>
                <g>
                    <use fill="#BEC9DF" fill-rule="evenodd" xlink:href="#path-32"></use>
                    <use fill="black" fill-opacity="1" filter="url(#filter-33)" xlink:href="#path-32"></use>
                </g>
                <g>
                    <use fill="#BEC9DF" fill-rule="evenodd" xlink:href="#path-34"></use>
                    <use fill="black" fill-opacity="1" filter="url(#filter-35)" xlink:href="#path-34"></use>
                </g>
                <g>
                    <use fill="#BEC9DF" fill-rule="evenodd" xlink:href="#path-36"></use>
                    <use fill="black" fill-opacity="1" filter="url(#filter-37)" xlink:href="#path-36"></use>
                </g>
                <g>
                    <use fill="#BEC9DF" fill-rule="evenodd" xlink:href="#path-38"></use>
                    <use fill="black" fill-opacity="1" filter="url(#filter-39)" xlink:href="#path-38"></use>
                </g>
                <g>
                    <use fill="#BEC9DF" fill-rule="evenodd" xlink:href="#path-40"></use>
                    <use fill="black" fill-opacity="1" filter="url(#filter-41)" xlink:href="#path-40"></use>
                </g>
                <g>
                    <use fill="#BEC9DF" fill-rule="evenodd" xlink:href="#path-42"></use>
                    <use fill="black" fill-opacity="1" filter="url(#filter-43)" xlink:href="#path-42"></use>
                </g>
                <g>
                    <use fill="#BEC9DF" fill-rule="evenodd" xlink:href="#path-44"></use>
                    <use fill="black" fill-opacity="1" filter="url(#filter-45)" xlink:href="#path-44"></use>
                </g>
                <g>
                    <use fill="#BEC9DF" fill-rule="evenodd" xlink:href="#path-46"></use>
                    <use fill="black" fill-opacity="1" filter="url(#filter-47)" xlink:href="#path-46"></use>
                </g>
                <g>
                    <use fill="#BEC9DF" fill-rule="evenodd" xlink:href="#path-48"></use>
                    <use fill="black" fill-opacity="1" filter="url(#filter-49)" xlink:href="#path-48"></use>
                </g>
                <g>
                    <use fill="#BEC9DF" fill-rule="evenodd" xlink:href="#path-50"></use>
                    <use fill="black" fill-opacity="1" filter="url(#filter-51)" xlink:href="#path-50"></use>
                </g>
                <g>
                    <use fill="#BEC9DF" fill-rule="evenodd" xlink:href="#path-52"></use>
                    <use fill="black" fill-opacity="1" filter="url(#filter-53)" xlink:href="#path-52"></use>
                </g>
                <g>
                    <use fill="#BEC9DF" fill-rule="evenodd" xlink:href="#path-54"></use>
                    <use fill="black" fill-opacity="1" filter="url(#filter-55)" xlink:href="#path-54"></use>
                </g>
                <g transform="translate(47.500000, 83.414062) rotate(-180.000000) translate(-47.500000, -83.414062) ">
                    <use fill="#C3CAD4" fill-rule="evenodd" xlink:href="#path-56"></use>
                    <use fill="black" fill-opacity="1" filter="url(#filter-57)" xlink:href="#path-56"></use>
                </g>
            </g>
        </g>
    </g>
</svg>