<?xml version="1.0" encoding="UTF-8"?>
<svg width="96px" height="96px" viewBox="0 0 96 96" version="1.1" xmlns="http://www.w3.org/2000/svg" xmlns:xlink="http://www.w3.org/1999/xlink">
    <title>台式</title>
    <defs>
        <filter x="-12.5%" y="-12.5%" width="125.0%" height="125.0%" filterUnits="objectBoundingBox" id="filter-1">
            <feOffset dx="0" dy="2" in="SourceAlpha" result="shadowOffsetOuter1"></feOffset>
            <feGaussianBlur stdDeviation="2" in="shadowOffsetOuter1" result="shadowBlurOuter1"></feGaussianBlur>
            <feColorMatrix values="0 0 0 0 0   0 0 0 0 0   0 0 0 0 0  0 0 0 0.2 0" type="matrix" in="shadowBlurOuter1" result="shadowMatrixOuter1"></feColorMatrix>
            <feMerge>
                <feMergeNode in="shadowMatrixOuter1"></feMergeNode>
                <feMergeNode in="SourceGraphic"></feMergeNode>
            </feMerge>
        </filter>
        <linearGradient x1="50%" y1="100%" x2="50%" y2="0%" id="linearGradient-2">
            <stop stop-color="#CFDAFC" offset="0%"></stop>
            <stop stop-color="#CDCFD2" offset="100%"></stop>
        </linearGradient>
        <polygon id="path-3" points="41 75 55 75 55 84 41 84"></polygon>
        <filter x="-14.3%" y="-22.2%" width="128.6%" height="144.4%" filterUnits="objectBoundingBox" id="filter-4">
            <feGaussianBlur stdDeviation="1" in="SourceAlpha" result="shadowBlurInner1"></feGaussianBlur>
            <feOffset dx="0" dy="2" in="shadowBlurInner1" result="shadowOffsetInner1"></feOffset>
            <feComposite in="shadowOffsetInner1" in2="SourceAlpha" operator="arithmetic" k2="-1" k3="1" result="shadowInnerInner1"></feComposite>
            <feColorMatrix values="0 0 0 0 0.305544245   0 0 0 0 0.316030326   0 0 0 0 0.533769248  0 0 0 0.178130463 0" type="matrix" in="shadowInnerInner1"></feColorMatrix>
        </filter>
        <linearGradient x1="50%" y1="0%" x2="50%" y2="80.1038369%" id="linearGradient-5">
            <stop stop-color="#FFFFFF" offset="0%"></stop>
            <stop stop-color="#EBF4FF" offset="100%"></stop>
        </linearGradient>
        <path d="M34.5,82 L61.5,82 C62.3284271,82 63,82.6715729 63,83.5 C63,84.3284271 62.3284271,85 61.5,85 L34.5,85 C33.6715729,85 33,84.3284271 33,83.5 C33,82.6715729 33.6715729,82 34.5,82 Z" id="path-6"></path>
        <filter x="-1.7%" y="-16.7%" width="103.3%" height="133.3%" filterUnits="objectBoundingBox" id="filter-7">
            <feOffset dx="0" dy="-1" in="SourceAlpha" result="shadowOffsetInner1"></feOffset>
            <feComposite in="shadowOffsetInner1" in2="SourceAlpha" operator="arithmetic" k2="-1" k3="1" result="shadowInnerInner1"></feComposite>
            <feColorMatrix values="0 0 0 0 0   0 0 0 0 0   0 0 0 0 0  0 0 0 0.168651661 0" type="matrix" in="shadowInnerInner1"></feColorMatrix>
        </filter>
        <linearGradient x1="39.598747%" y1="23.553719%" x2="75.3018846%" y2="76.446281%" id="linearGradient-8">
            <stop stop-color="#D7E4FF" offset="0%"></stop>
            <stop stop-color="#F4F9FF" offset="100%"></stop>
        </linearGradient>
        <rect id="path-9" x="4" y="11" width="88" height="64" rx="9.375"></rect>
        <filter x="-0.6%" y="-0.8%" width="101.1%" height="101.6%" filterUnits="objectBoundingBox" id="filter-10">
            <feOffset dx="0" dy="-1" in="SourceAlpha" result="shadowOffsetInner1"></feOffset>
            <feComposite in="shadowOffsetInner1" in2="SourceAlpha" operator="arithmetic" k2="-1" k3="1" result="shadowInnerInner1"></feComposite>
            <feColorMatrix values="0 0 0 0 0   0 0 0 0 0   0 0 0 0 0  0 0 0 0.12 0" type="matrix" in="shadowInnerInner1" result="shadowMatrixInner1"></feColorMatrix>
            <feOffset dx="0" dy="1" in="SourceAlpha" result="shadowOffsetInner2"></feOffset>
            <feComposite in="shadowOffsetInner2" in2="SourceAlpha" operator="arithmetic" k2="-1" k3="1" result="shadowInnerInner2"></feComposite>
            <feColorMatrix values="0 0 0 0 1   0 0 0 0 1   0 0 0 0 1  0 0 0 1 0" type="matrix" in="shadowInnerInner2" result="shadowMatrixInner2"></feColorMatrix>
            <feMerge>
                <feMergeNode in="shadowMatrixInner1"></feMergeNode>
                <feMergeNode in="shadowMatrixInner2"></feMergeNode>
            </feMerge>
        </filter>
        <linearGradient x1="46.8261315%" y1="0.564822635%" x2="46.8261315%" y2="99.6640703%" id="linearGradient-11">
            <stop stop-color="#4F5D73" offset="0%"></stop>
            <stop stop-color="#313A46" offset="100%"></stop>
        </linearGradient>
        <rect id="path-12" x="0" y="0.375" width="82" height="58" rx="6.75"></rect>
        <linearGradient x1="0%" y1="50%" x2="100%" y2="50%" id="linearGradient-14">
            <stop stop-color="#A09AD3" offset="0%"></stop>
            <stop stop-color="#988DD9" offset="49.6179452%"></stop>
            <stop stop-color="#1654D2" offset="100%"></stop>
        </linearGradient>
    </defs>
    <g id="sp2" stroke="none" stroke-width="1" fill="none" fill-rule="evenodd">
        <g id="台式">
            <g id="矩形" filter="url(#filter-1)">
                <g>
                    <use fill="url(#linearGradient-2)" fill-rule="evenodd" xlink:href="#path-3"></use>
                    <use fill="black" fill-opacity="1" filter="url(#filter-4)" xlink:href="#path-3"></use>
                </g>
                <g>
                    <use fill="url(#linearGradient-5)" fill-rule="evenodd" xlink:href="#path-6"></use>
                    <use fill="black" fill-opacity="1" filter="url(#filter-7)" xlink:href="#path-6"></use>
                </g>
                <g id="蒙版">
                    <use fill="url(#linearGradient-8)" fill-rule="evenodd" xlink:href="#path-9"></use>
                    <use fill="black" fill-opacity="1" filter="url(#filter-10)" xlink:href="#path-9"></use>
                </g>
                <g id="kevin-lanceplaine-243768-unsplash" transform="translate(7.000000, 13.625000)">
                    <mask id="mask-13" fill="white">
                        <use xlink:href="#path-12"></use>
                    </mask>
                    <use id="蒙版" fill="url(#linearGradient-11)" xlink:href="#path-12"></use>
                    <g id="编组" mask="url(#mask-13)">
                        <g transform="translate(-1.812500, -11.625000)">
                            <path d="M63.0699376,8.0625 C55.7142021,25.08776 52.7460983,34.5392831 54.1656262,36.4170691 C56.2949181,39.2337481 55.5206301,46.3693351 52.6170503,50.3126857 C49.7134705,54.2560364 40.6155872,56.8849368 39.6477273,60.0771731 C38.6798673,63.2694094 14.2897971,65.5227526 11.9669333,68.151653 C9.64406945,70.7805535 13.7090812,69.8416605 13.7090812,70.7805535 C13.7090812,71.4064822 37.3893874,71.4064822 84.75,70.7805535 L84.75,8.0625 L63.0699376,8.0625 Z" id="路径-3" fill="#1C4186"></path>
                            <path d="M64.1745364,8.44360965 C67.7895838,8.44360965 66.9503763,13.4472302 61.656914,23.4544712 C53.7167206,38.4653328 51.3927615,44.0944059 49.0688025,48.0347571 C46.7448434,51.9751083 36.0933644,67.9241487 31.6391095,69.2375991 C27.1848547,70.5510495 14.7904064,69.6128706 12.2727841,69.6128706 C10.5943692,69.6128706 10.9816957,52.2878346 13.4347636,17.6377624 L30.0898035,0 L64.1745364,8.44360965 Z" id="路径-2" fill="#E080A9"></path>
                            <path d="M30.1875,6.9375 C27.7322635,11.1875 27.0215372,17.125 28.0553209,24.75 C29.6059966,36.1875 19.3327703,48.1875 21.4649493,56.8125 C23.5971284,65.4375 12.5625,73.875 12.5625,73.875 C12.5625,73.875 8.875,71.9375 1.5,68.0625 L0,15.75 L6.34586149,5.4375 L30.1875,6.9375 Z" id="路径" fill="#101852"></path>
                            <path d="M58.507826,22.6320991 C54.1377903,25.8412816 51.9527725,29.4222485 51.9527725,33.375 C51.9527725,41.0625 48.0862539,49.6875 41.7064982,51.75 C35.3267426,53.8125 28.753661,53.25 27.2070535,59.25 C25.6604461,65.25 21.0206238,60.375 18.5073867,62.8125 C15.9941496,65.25 16.5873889,70.5 13.6875,71.4375 C11.7542407,72.0625 25.0248673,71.8125 53.4993799,70.6875 C55.3037553,59.0625 59.5569257,50.875 66.2588913,46.125 C76.3118396,39 57.1725726,36.9375 65.0989357,30.75 C70.3831778,26.625 70.7460325,19.0625 66.1875,8.0625 L64.6622486,13.6662928 C63.6828808,17.2644957 61.5135218,20.4248343 58.507826,22.6320991 Z" id="路径-4" fill="#7A6C9F"></path>
                        </g>
                    </g>
                    <g id="编组-2" mask="url(#mask-13)">
                        <g transform="translate(3.000000, 46.375000)">
                            <rect id="bg" fill="url(#linearGradient-14)" x="0" y="0" width="76" height="9" rx="1.875"></rect>
                            <rect id="矩形备份-2" fill="#75FFAC" x="25" y="2" width="5" height="5" rx="1.3"></rect>
                            <rect id="矩形备份" fill="#FF7D52" x="11" y="2" width="5" height="5" rx="1.3"></rect>
                            <rect id="矩形备份-3" fill="#FFB656" x="32" y="2" width="5" height="5" rx="1.3"></rect>
                            <rect id="矩形备份-7" fill="#FF796E" x="46" y="2" width="5" height="5" rx="1.3"></rect>
                            <rect id="矩形备份-4" fill-opacity="0.3" fill="#000000" x="68" y="2" width="5" height="5" rx="1.3"></rect>
                            <rect id="矩形备份-6" fill-opacity="0.3" fill="#000000" x="61" y="2" width="5" height="5" rx="1.3"></rect>
                            <circle id="椭圆形" fill="#326CFF" cx="6.5" cy="4.5" r="2.5"></circle>
                            <circle id="椭圆形备份" fill="#482AC5" cx="41.5" cy="4.5" r="2.5"></circle>
                        </g>
                    </g>
                </g>
            </g>
        </g>
    </g>
</svg>