<?xml version="1.0" encoding="UTF-8"?>
<svg width="128px" height="131px" viewBox="0 0 128 131" version="1.1" xmlns="http://www.w3.org/2000/svg" xmlns:xlink="http://www.w3.org/1999/xlink">
    <title>erro-128</title>
    <defs>
        <linearGradient x1="39.2764678%" y1="100%" x2="65.8847547%" y2="0%" id="linearGradient-1">
            <stop stop-color="#22C2EA" offset="0%"></stop>
            <stop stop-color="#51ECA1" offset="100%"></stop>
        </linearGradient>
        <linearGradient x1="50%" y1="0%" x2="50%" y2="98.1564892%" id="linearGradient-2">
            <stop stop-color="#27EC95" offset="0%"></stop>
            <stop stop-color="#1188EE" offset="100%"></stop>
        </linearGradient>
        <path d="M47.4406877,2.59642286 C40.8928528,2.59642286 34.7311852,3.85043745 28.9554949,6.35849071 C23.1798165,8.86654397 18.14547,12.2994038 13.8523131,16.6571545 C9.55915388,21.0149051 6.17718553,26.1249971 3.70630373,31.9875749 C1.23542192,37.8501648 0,44.1045393 0,50.7508913 C0,57.3972433 1.23542192,63.6516179 3.70630373,69.5142077 C6.17718553,75.3767855 9.55915388,80.4868775 13.8523131,84.8446282 C18.14547,89.2023812 23.1798165,92.6352339 28.9554949,95.1432919 C34.7311852,97.65135 40.8928528,98.9053598 47.4406877,98.9053598 C53.9885226,98.9053598 60.1501903,97.65135 65.9258805,95.1432919 C71.7015589,92.6352339 76.7359054,89.2023812 81.0290623,84.8446282 C85.3222192,80.4868775 88.7041946,75.3767855 91.1750717,69.5142077 C93.6459488,63.6516179 94.8813754,57.3972433 94.8813754,50.7508913 C94.8813754,44.1045393 93.6459488,37.8501648 91.1750717,31.9875749 C88.7041946,26.1249971 85.3222192,21.0149051 81.0290623,16.6571545 C76.7359054,12.2994038 71.7015589,8.86654397 65.9258805,6.35849071 C60.1501903,3.85043745 53.9885226,2.59642286 47.4406877,2.59642286 L47.4406877,2.59642286 Z" id="path-3"></path>
        <filter x="-21.8%" y="-16.3%" width="143.6%" height="142.9%" filterUnits="objectBoundingBox" id="filter-4">
            <feMorphology radius="1.67157654" operator="dilate" in="SourceAlpha" result="shadowSpreadOuter1"></feMorphology>
            <feOffset dx="0" dy="5" in="shadowSpreadOuter1" result="shadowOffsetOuter1"></feOffset>
            <feGaussianBlur stdDeviation="5.5" in="shadowOffsetOuter1" result="shadowBlurOuter1"></feGaussianBlur>
            <feComposite in="shadowBlurOuter1" in2="SourceAlpha" operator="out" result="shadowBlurOuter1"></feComposite>
            <feColorMatrix values="0 0 0 0 0   0 0 0 0 0.878431373   0 0 0 0 1  0 0 0 0.6 0" type="matrix" in="shadowBlurOuter1"></feColorMatrix>
        </filter>
        <linearGradient x1="50%" y1="100%" x2="50%" y2="3.061617e-15%" id="linearGradient-5">
            <stop stop-color="#FFFFFF" stop-opacity="0.175526495" offset="0%"></stop>
            <stop stop-color="#FFFFFF" offset="100%"></stop>
        </linearGradient>
        <linearGradient x1="50%" y1="100%" x2="50%" y2="3.061617e-15%" id="linearGradient-6">
            <stop stop-color="#FFFFFF" stop-opacity="0.175526495" offset="0%"></stop>
            <stop stop-color="#FFFFFF" offset="100%"></stop>
        </linearGradient>
        <linearGradient x1="50%" y1="39.4759501%" x2="50%" y2="100%" id="linearGradient-7">
            <stop stop-color="#FFFFFF" stop-opacity="0.16126019" offset="0%"></stop>
            <stop stop-color="#FFFFFF" offset="100%"></stop>
        </linearGradient>
        <linearGradient x1="50%" y1="39.4759501%" x2="50%" y2="100%" id="linearGradient-8">
            <stop stop-color="#FFFFFF" stop-opacity="0.16126019" offset="0%"></stop>
            <stop stop-color="#FFFFFF" offset="100%"></stop>
        </linearGradient>
        <linearGradient x1="50%" y1="100%" x2="50%" y2="39.4759501%" id="linearGradient-9">
            <stop stop-color="#FFFFFF" stop-opacity="0.16126019" offset="0%"></stop>
            <stop stop-color="#FFFFFF" offset="100%"></stop>
        </linearGradient>
        <linearGradient x1="50%" y1="100%" x2="50%" y2="39.4759501%" id="linearGradient-10">
            <stop stop-color="#FFFFFF" stop-opacity="0.16126019" offset="0%"></stop>
            <stop stop-color="#FFFFFF" offset="100%"></stop>
        </linearGradient>
        <linearGradient x1="50%" y1="100%" x2="50%" y2="3.061617e-15%" id="linearGradient-11">
            <stop stop-color="#FFFFFF" stop-opacity="0.175526495" offset="0%"></stop>
            <stop stop-color="#FFFFFF" offset="100%"></stop>
        </linearGradient>
        <linearGradient x1="50%" y1="0%" x2="50%" y2="100%" id="linearGradient-12">
            <stop stop-color="#FFFFFF" stop-opacity="0.175526495" offset="0%"></stop>
            <stop stop-color="#FFFFFF" offset="100%"></stop>
        </linearGradient>
        <radialGradient cx="50%" cy="50%" fx="50%" fy="50%" r="50.2642848%" gradientTransform="translate(0.500000,0.500000),scale(1.000000,0.994742),rotate(90.000000),translate(-0.500000,-0.500000)" id="radialGradient-13">
            <stop stop-color="#FFFFFF" offset="0%"></stop>
            <stop stop-color="#FFFFFF" offset="44.5752051%"></stop>
            <stop stop-color="#FFFFFF" stop-opacity="0" offset="100%"></stop>
        </radialGradient>
        <radialGradient cx="50%" cy="50%" fx="50%" fy="50%" r="50.2642848%" gradientTransform="translate(0.500000,0.500000),scale(1.000000,0.994742),rotate(90.000000),translate(-0.500000,-0.500000)" id="radialGradient-14">
            <stop stop-color="#FFFFFF" offset="0%"></stop>
            <stop stop-color="#FFFFFF" offset="44.5752051%"></stop>
            <stop stop-color="#FFFFFF" stop-opacity="0" offset="100%"></stop>
        </radialGradient>
        <linearGradient x1="26.5628882%" y1="12.6108943%" x2="50%" y2="100%" id="linearGradient-15">
            <stop stop-color="#FFFFFF" offset="0%"></stop>
            <stop stop-color="#FFFFFF" stop-opacity="0.163071784" offset="100%"></stop>
        </linearGradient>
        <linearGradient x1="50%" y1="0%" x2="50%" y2="100%" id="linearGradient-16">
            <stop stop-color="#FF674A" offset="0%"></stop>
            <stop stop-color="#EC5783" offset="100%"></stop>
        </linearGradient>
        <circle id="path-17" cx="20" cy="20" r="20"></circle>
        <filter x="-20.0%" y="-10.0%" width="140.0%" height="140.0%" filterUnits="objectBoundingBox" id="filter-18">
            <feOffset dx="0" dy="4" in="SourceAlpha" result="shadowOffsetOuter1"></feOffset>
            <feGaussianBlur stdDeviation="2" in="shadowOffsetOuter1" result="shadowBlurOuter1"></feGaussianBlur>
            <feColorMatrix values="0 0 0 0 1   0 0 0 0 0.443137255   0 0 0 0 0.443137255  0 0 0 0.3 0" type="matrix" in="shadowBlurOuter1"></feColorMatrix>
        </filter>
        <linearGradient x1="49.5049364%" y1="8.96776765%" x2="51.5827412%" y2="183.984261%" id="linearGradient-19">
            <stop stop-color="#FFFFFF" offset="0%"></stop>
            <stop stop-color="#FFCDCD" offset="100%"></stop>
        </linearGradient>
        <path d="M20.0000451,8.69565217 C21.4420138,8.69565217 22.6109603,9.86459875 22.6109603,11.3065674 C22.6109603,11.3607118 22.6092761,11.414843 22.6059101,11.4688826 L21.7708522,24.8751922 C21.7125975,25.8104343 20.9370998,26.5391304 20.0000451,26.5391304 C19.0629904,26.5391304 18.2874927,25.8104343 18.2292379,24.8751922 L17.3941801,11.4688826 C17.3045359,10.0297032 18.3985504,8.79034667 19.8377299,8.70070246 C19.8917695,8.69733642 19.9459007,8.69565217 20.0000451,8.69565217 Z M20.0000451,28.4173913 C21.0230992,28.4173913 21.8524485,29.2467406 21.8524485,30.2697947 L21.8524485,30.3215096 C21.8524485,31.3445638 21.0230992,32.173913 20.0000451,32.173913 C18.9769909,32.173913 18.1476417,31.3445638 18.1476417,30.3215096 L18.1476417,30.2697947 C18.1476417,29.2467406 18.9769909,28.4173913 20.0000451,28.4173913 Z" id="path-20"></path>
        <filter x="-95.8%" y="-17.0%" width="291.5%" height="142.6%" filterUnits="objectBoundingBox" id="filter-21">
            <feOffset dx="0" dy="1" in="SourceAlpha" result="shadowOffsetOuter1"></feOffset>
            <feGaussianBlur stdDeviation="1.5" in="shadowOffsetOuter1" result="shadowBlurOuter1"></feGaussianBlur>
            <feColorMatrix values="0 0 0 0 0.043708791   0 0 0 0 0.319738208   0 0 0 0 0.566519475  0 0 0 0.2 0" type="matrix" in="shadowBlurOuter1"></feColorMatrix>
        </filter>
    </defs>
    <g id="驱动管理一期1052" stroke="none" stroke-width="1" fill="none" fill-rule="evenodd">
        <g id="1_2检测失败_无网络" transform="translate(-896.000000, -455.000000)">
            <g id="erro-128" transform="translate(896.000000, 455.000000)">
                <rect id="矩形" fill="#D8D8D8" opacity="0" x="0" y="0" width="128" height="128"></rect>
                <g id="编组-2" transform="translate(13.333333, 13.515053)">
                    <g id="Group">
                        <g id="Page-1" fill-rule="nonzero">
                            <use fill="black" fill-opacity="1" filter="url(#filter-4)" xlink:href="#path-3"></use>
                            <use stroke="url(#linearGradient-2)" stroke-width="3.34315308" fill="url(#linearGradient-1)" xlink:href="#path-3"></use>
                        </g>
                        <g id="Group-6" transform="translate(0.000000, 10.986323)" stroke-width="3.34315308">
                            <ellipse id="Oval-7" stroke="url(#linearGradient-5)" transform="translate(53.336536, 18.989021) rotate(15.000000) translate(-53.336536, -18.989021) " cx="53.3365356" cy="18.9890213" rx="41.5129406" ry="8.53552257"></ellipse>
                            <ellipse id="Oval-7" stroke="url(#linearGradient-6)" transform="translate(60.387474, 56.889883) rotate(-37.000000) translate(-60.387474, -56.889883) " cx="60.3874742" cy="56.8898831" rx="41.6160599" ry="8.51570939"></ellipse>
                            <ellipse id="Oval-7" stroke="url(#linearGradient-7)" opacity="0.800000012" transform="translate(49.398610, 55.308317) rotate(-8.000000) translate(-49.398610, -55.308317) " cx="49.3986104" cy="55.3083166" rx="44.0436285" ry="8.53861751"></ellipse>
                            <ellipse id="Oval-7" stroke="url(#linearGradient-8)" opacity="0.800000012" cx="47.4406877" cy="36.5234022" rx="47.4406877" ry="3.24116615"></ellipse>
                        </g>
                        <g id="Group-6" transform="translate(55.226404, 49.305566) rotate(-90.000000) translate(-55.226404, -49.305566) translate(5.920838, 5.920431)" opacity="0.800000012" stroke-width="3.34315308">
                            <ellipse id="Oval-7" stroke="url(#linearGradient-9)" transform="translate(50.607224, 28.980177) rotate(28.000000) translate(-50.607224, -28.980177) " cx="50.6072236" cy="28.9801775" rx="45.6263865" ry="8.56210101"></ellipse>
                            <ellipse id="Oval-7" stroke="url(#linearGradient-10)" transform="translate(51.297459, 44.081183) rotate(-27.000000) translate(-51.297459, -44.081183) " cx="51.2974592" cy="44.0811828" rx="45.6175545" ry="8.56355818"></ellipse>
                            <ellipse id="Oval-7" stroke="url(#linearGradient-11)" transform="translate(63.284980, 56.809522) rotate(-38.000000) translate(-63.284980, -56.809522) " cx="63.28498" cy="56.8095223" rx="38.8212472" ry="7.6902508"></ellipse>
                            <ellipse id="Oval-7" stroke="url(#linearGradient-12)" cx="47.4406877" cy="32.7801404" rx="47.4406877" ry="4.16721362"></ellipse>
                        </g>
                        <ellipse id="Oval-9" fill="url(#radialGradient-13)" cx="47.4406877" cy="17.8762061" rx="3.22412441" ry="3.24116615"></ellipse>
                        <ellipse id="Oval-9" fill="url(#radialGradient-13)" cx="71.3913262" cy="51.2139151" rx="3.22412441" ry="3.24116615"></ellipse>
                        <ellipse id="Oval-9" fill="url(#radialGradient-13)" cx="49.2830445" cy="51.2139151" rx="3.22412441" ry="3.24116615"></ellipse>
                        <ellipse id="Oval-9" fill="url(#radialGradient-14)" cx="48.8224553" cy="75.754173" rx="2.76353521" ry="2.77814241"></ellipse>
                        <ellipse id="Oval-9" fill="url(#radialGradient-14)" cx="48.8224553" cy="65.5676508" rx="2.76353521" ry="2.77814241"></ellipse>
                        <ellipse id="Oval-9" fill="url(#radialGradient-14)" cx="53.4283473" cy="62.7895084" rx="2.76353521" ry="2.77814241"></ellipse>
                        <ellipse id="Oval-9" fill="url(#radialGradient-14)" cx="19.3447464" cy="75.754173" rx="2.76353521" ry="2.77814241"></ellipse>
                        <ellipse id="Oval-9" fill="url(#radialGradient-14)" cx="35.0047793" cy="17.4131824" rx="2.76353521" ry="2.77814241"></ellipse>
                        <ellipse id="Oval-9" fill="url(#radialGradient-14)" cx="29.4777089" cy="50.7508913" rx="2.76353521" ry="2.77814241"></ellipse>
                        <ellipse id="Oval-9" fill="url(#radialGradient-14)" cx="39.6106713" cy="33.1559894" rx="2.76353521" ry="2.77814241"></ellipse>
                        <ellipse id="Oval-9" fill="url(#radialGradient-14)" cx="38.6894929" cy="75.754173" rx="2.76353521" ry="2.77814241"></ellipse>
                        <ellipse id="Oval-9" fill="url(#radialGradient-14)" opacity="0.800000012" cx="87.5119482" cy="65.5676508" rx="2.76353521" ry="2.77814241"></ellipse>
                        <ellipse id="Oval-9" fill="url(#radialGradient-14)" cx="61.7189529" cy="72.9760306" rx="2.76353521" ry="2.77814241"></ellipse>
                        <ellipse id="Oval-11" fill="url(#linearGradient-15)" opacity="0.400000006" cx="41.4530281" cy="45.6576302" rx="31.3200657" ry="31.9486377"></ellipse>
                    </g>
                    <g id="编组" transform="translate(61.333333, 59.818280)">
                        <g id="Oval-1">
                            <use fill="black" fill-opacity="1" filter="url(#filter-18)" xlink:href="#path-17"></use>
                            <use fill="url(#linearGradient-16)" fill-rule="evenodd" xlink:href="#path-17"></use>
                        </g>
                        <g id="形状结合">
                            <use fill="black" fill-opacity="1" filter="url(#filter-21)" xlink:href="#path-20"></use>
                            <use fill="url(#linearGradient-19)" fill-rule="evenodd" xlink:href="#path-20"></use>
                        </g>
                    </g>
                </g>
            </g>
        </g>
    </g>
</svg>