<?xml version="1.0" encoding="UTF-8"?>
<svg width="96px" height="96px" viewBox="0 0 96 96" version="1.1" xmlns="http://www.w3.org/2000/svg" xmlns:xlink="http://www.w3.org/1999/xlink">
    <title>status/erro</title>
    <defs>
        <linearGradient x1="39.2764678%" y1="100%" x2="65.8847547%" y2="0%" id="linearGradient-1">
            <stop stop-color="#22C2EA" offset="0%"></stop>
            <stop stop-color="#51ECA1" offset="100%"></stop>
        </linearGradient>
        <linearGradient x1="50%" y1="0%" x2="50%" y2="98.1564892%" id="linearGradient-2">
            <stop stop-color="#27EC95" offset="0%"></stop>
            <stop stop-color="#1188EE" offset="100%"></stop>
        </linearGradient>
        <path d="M35.5805158,2.08360681 C30.6696396,2.08360681 26.0483889,3.02411775 21.7166212,4.90515769 C17.3848624,6.78619764 13.6091025,9.36084251 10.3892349,12.6291555 C7.16936541,15.8974685 4.63288915,19.7300375 2.7797278,24.1269708 C0.926566444,28.5239132 0,33.2146942 0,38.1994581 C0,43.1842221 0.926566444,47.8750031 2.7797278,52.2719455 C4.63288915,56.6688788 7.16936541,60.5014478 10.3892349,63.7697608 C13.6091025,67.0380756 17.3848624,69.612715 21.7166212,71.4937586 C26.0483889,73.3748022 30.6696396,74.3153095 35.5805158,74.3153095 C40.4913919,74.3153095 45.1126427,73.3748022 49.4444104,71.4937586 C53.7761692,69.612715 57.551929,67.0380756 60.7717967,63.7697608 C63.9916644,60.5014478 66.528146,56.6688788 68.3813038,52.2719455 C70.2344616,47.8750031 71.1610316,43.1842221 71.1610316,38.1994581 C71.1610316,33.2146942 70.2344616,28.5239132 68.3813038,24.1269708 C66.528146,19.7300375 63.9916644,15.8974685 60.7717967,12.6291555 C57.551929,9.36084251 53.7761692,6.78619764 49.4444104,4.90515769 C45.1126427,3.02411775 40.4913919,2.08360681 35.5805158,2.08360681 L35.5805158,2.08360681 Z" id="path-3"></path>
        <filter x="-21.4%" y="-15.6%" width="142.9%" height="142.2%" filterUnits="objectBoundingBox" id="filter-4">
            <feMorphology radius="1.2536824" operator="dilate" in="SourceAlpha" result="shadowSpreadOuter1"></feMorphology>
            <feOffset dx="0" dy="4" in="shadowSpreadOuter1" result="shadowOffsetOuter1"></feOffset>
            <feGaussianBlur stdDeviation="4" in="shadowOffsetOuter1" result="shadowBlurOuter1"></feGaussianBlur>
            <feComposite in="shadowBlurOuter1" in2="SourceAlpha" operator="out" result="shadowBlurOuter1"></feComposite>
            <feColorMatrix values="0 0 0 0 0   0 0 0 0 0.878431373   0 0 0 0 1  0 0 0 0.6 0" type="matrix" in="shadowBlurOuter1"></feColorMatrix>
        </filter>
        <linearGradient x1="50%" y1="100%" x2="50%" y2="3.061617e-15%" id="linearGradient-5">
            <stop stop-color="#FFFFFF" stop-opacity="0.175526495" offset="0%"></stop>
            <stop stop-color="#FFFFFF" offset="100%"></stop>
        </linearGradient>
        <linearGradient x1="50%" y1="100%" x2="50%" y2="3.061617e-15%" id="linearGradient-6">
            <stop stop-color="#FFFFFF" stop-opacity="0.175526495" offset="0%"></stop>
            <stop stop-color="#FFFFFF" offset="100%"></stop>
        </linearGradient>
        <linearGradient x1="50%" y1="39.4759501%" x2="50%" y2="100%" id="linearGradient-7">
            <stop stop-color="#FFFFFF" stop-opacity="0.16126019" offset="0%"></stop>
            <stop stop-color="#FFFFFF" offset="100%"></stop>
        </linearGradient>
        <linearGradient x1="50%" y1="39.4759501%" x2="50%" y2="100%" id="linearGradient-8">
            <stop stop-color="#FFFFFF" stop-opacity="0.16126019" offset="0%"></stop>
            <stop stop-color="#FFFFFF" offset="100%"></stop>
        </linearGradient>
        <linearGradient x1="50%" y1="100%" x2="50%" y2="39.4759501%" id="linearGradient-9">
            <stop stop-color="#FFFFFF" stop-opacity="0.16126019" offset="0%"></stop>
            <stop stop-color="#FFFFFF" offset="100%"></stop>
        </linearGradient>
        <linearGradient x1="50%" y1="100%" x2="50%" y2="39.4759501%" id="linearGradient-10">
            <stop stop-color="#FFFFFF" stop-opacity="0.16126019" offset="0%"></stop>
            <stop stop-color="#FFFFFF" offset="100%"></stop>
        </linearGradient>
        <linearGradient x1="50%" y1="100%" x2="50%" y2="3.061617e-15%" id="linearGradient-11">
            <stop stop-color="#FFFFFF" stop-opacity="0.175526495" offset="0%"></stop>
            <stop stop-color="#FFFFFF" offset="100%"></stop>
        </linearGradient>
        <linearGradient x1="50%" y1="0%" x2="50%" y2="100%" id="linearGradient-12">
            <stop stop-color="#FFFFFF" stop-opacity="0.175526495" offset="0%"></stop>
            <stop stop-color="#FFFFFF" offset="100%"></stop>
        </linearGradient>
        <radialGradient cx="50%" cy="50%" fx="50%" fy="50%" r="50.2642848%" gradientTransform="translate(0.500000,0.500000),scale(1.000000,0.994742),rotate(90.000000),translate(-0.500000,-0.500000)" id="radialGradient-13">
            <stop stop-color="#FFFFFF" offset="0%"></stop>
            <stop stop-color="#FFFFFF" offset="44.5752051%"></stop>
            <stop stop-color="#FFFFFF" stop-opacity="0" offset="100%"></stop>
        </radialGradient>
        <radialGradient cx="50%" cy="50%" fx="50%" fy="50%" r="50.2642848%" gradientTransform="translate(0.500000,0.500000),scale(1.000000,0.994742),rotate(90.000000),translate(-0.500000,-0.500000)" id="radialGradient-14">
            <stop stop-color="#FFFFFF" offset="0%"></stop>
            <stop stop-color="#FFFFFF" offset="44.5752051%"></stop>
            <stop stop-color="#FFFFFF" stop-opacity="0" offset="100%"></stop>
        </radialGradient>
        <linearGradient x1="26.5628882%" y1="12.6108943%" x2="50%" y2="100%" id="linearGradient-15">
            <stop stop-color="#FFFFFF" offset="0%"></stop>
            <stop stop-color="#FFFFFF" stop-opacity="0.163071784" offset="100%"></stop>
        </linearGradient>
        <linearGradient x1="50%" y1="0%" x2="50%" y2="100%" id="linearGradient-16">
            <stop stop-color="#FF674A" offset="0%"></stop>
            <stop stop-color="#EC5783" offset="100%"></stop>
        </linearGradient>
        <circle id="path-17" cx="15" cy="15" r="15"></circle>
        <filter x="-20.0%" y="-10.0%" width="140.0%" height="140.0%" filterUnits="objectBoundingBox" id="filter-18">
            <feOffset dx="0" dy="3" in="SourceAlpha" result="shadowOffsetOuter1"></feOffset>
            <feGaussianBlur stdDeviation="1.5" in="shadowOffsetOuter1" result="shadowBlurOuter1"></feGaussianBlur>
            <feColorMatrix values="0 0 0 0 1   0 0 0 0 0.443137255   0 0 0 0 0.443137255  0 0 0 0.3 0" type="matrix" in="shadowBlurOuter1"></feColorMatrix>
        </filter>
        <linearGradient x1="49.5049364%" y1="8.96776765%" x2="51.5827412%" y2="183.984261%" id="linearGradient-19">
            <stop stop-color="#FFFFFF" offset="0%"></stop>
            <stop stop-color="#FFCDCD" offset="100%"></stop>
        </linearGradient>
        <path d="M15.0000338,6.52173913 C16.0815103,6.52173913 16.9582203,7.39844906 16.9582203,8.47992557 C16.9582203,8.52053384 16.9569571,8.56113227 16.9544325,8.60166198 L16.3281392,18.6563941 C16.2844481,19.3578257 15.7028248,19.9043478 15.0000338,19.9043478 C14.2972428,19.9043478 13.7156195,19.3578257 13.6719284,18.6563941 L13.0456351,8.60166198 C12.9784019,7.52227737 13.7989128,6.59276001 14.8782974,6.52552684 C14.9188271,6.52300231 14.9594256,6.52173913 15.0000338,6.52173913 Z M15.0000338,21.3130435 C15.7673244,21.3130435 16.3893364,21.9350554 16.3893364,22.702346 L16.3893364,22.7411322 C16.3893364,23.5084228 15.7673244,24.1304348 15.0000338,24.1304348 C14.2327432,24.1304348 13.6107313,23.5084228 13.6107313,22.7411322 L13.6107313,22.702346 C13.6107313,21.9350554 14.2327432,21.3130435 15.0000338,21.3130435 Z" id="path-20"></path>
        <filter x="-89.4%" y="-14.2%" width="278.7%" height="139.8%" filterUnits="objectBoundingBox" id="filter-21">
            <feOffset dx="0" dy="1" in="SourceAlpha" result="shadowOffsetOuter1"></feOffset>
            <feGaussianBlur stdDeviation="1" in="shadowOffsetOuter1" result="shadowBlurOuter1"></feGaussianBlur>
            <feColorMatrix values="0 0 0 0 0.043708791   0 0 0 0 0.319738208   0 0 0 0 0.566519475  0 0 0 0.2 0" type="matrix" in="shadowBlurOuter1"></feColorMatrix>
        </filter>
    </defs>
    <g id="status/erro" stroke="none" stroke-width="1" fill="none" fill-rule="evenodd">
        <g id="编组-2" transform="translate(10.000000, 10.000000)">
            <g id="Group">
                <g id="Page-1" fill-rule="nonzero">
                    <use fill="black" fill-opacity="1" filter="url(#filter-4)" xlink:href="#path-3"></use>
                    <use stroke="url(#linearGradient-2)" stroke-width="2.50736481" fill="url(#linearGradient-1)" xlink:href="#path-3"></use>
                </g>
                <g id="Group-6" transform="translate(0.000000, 8.334427)" stroke-width="2.50736481">
                    <ellipse id="Oval-7" stroke="url(#linearGradient-5)" transform="translate(40.002402, 14.283371) rotate(15.000000) translate(-40.002402, -14.283371) " cx="40.0024017" cy="14.2833707" rx="31.1347055" ry="6.40164192"></ellipse>
                    <ellipse id="Oval-7" stroke="url(#linearGradient-6)" transform="translate(45.290606, 42.709017) rotate(-37.000000) translate(-45.290606, -42.709017) " cx="45.2906056" cy="42.709017" rx="31.2120449" ry="6.38678204"></ellipse>
                    <ellipse id="Oval-7" stroke="url(#linearGradient-7)" opacity="0.800000012" transform="translate(37.048958, 41.522842) rotate(-8.000000) translate(-37.048958, -41.522842) " cx="37.0489578" cy="41.5228421" rx="33.0327214" ry="6.40396314"></ellipse>
                    <ellipse id="Oval-7" stroke="url(#linearGradient-8)" opacity="0.800000012" cx="35.5805158" cy="27.4341563" rx="35.5805158" ry="2.43087461"></ellipse>
                </g>
                <g id="Group-6" transform="translate(41.417328, 37.144971) rotate(-90.000000) translate(-41.417328, -37.144971) translate(4.467661, 4.537687)" opacity="0.800000012" stroke-width="2.50736481">
                    <ellipse id="Oval-7" stroke="url(#linearGradient-9)" transform="translate(37.955418, 21.806042) rotate(28.000000) translate(-37.955418, -21.806042) " cx="37.9554177" cy="21.8060417" rx="34.2197899" ry="6.42157576"></ellipse>
                    <ellipse id="Oval-7" stroke="url(#linearGradient-10)" transform="translate(38.473094, 33.131796) rotate(-27.000000) translate(-38.473094, -33.131796) " cx="38.4730944" cy="33.1317957" rx="34.2131658" ry="6.42266863"></ellipse>
                    <ellipse id="Oval-7" stroke="url(#linearGradient-11)" transform="translate(47.463735, 42.678050) rotate(-38.000000) translate(-47.463735, -42.678050) " cx="47.463735" cy="42.6780503" rx="29.1159354" ry="5.7676881"></ellipse>
                    <ellipse id="Oval-7" stroke="url(#linearGradient-12)" cx="35.5805158" cy="24.6560139" rx="35.5805158" ry="3.12541021"></ellipse>
                </g>
                <ellipse id="Oval-9" fill="url(#radialGradient-13)" cx="35.5805158" cy="13.5434443" rx="2.41809331" ry="2.43087461"></ellipse>
                <ellipse id="Oval-9" fill="url(#radialGradient-13)" cx="53.5434946" cy="38.546726" rx="2.41809331" ry="2.43087461"></ellipse>
                <ellipse id="Oval-9" fill="url(#radialGradient-13)" cx="36.9622834" cy="38.546726" rx="2.41809331" ry="2.43087461"></ellipse>
                <ellipse id="Oval-9" fill="url(#radialGradient-14)" cx="36.6168415" cy="56.9519194" rx="2.0726514" ry="2.08360681"></ellipse>
                <ellipse id="Oval-9" fill="url(#radialGradient-14)" cx="36.6168415" cy="49.3120278" rx="2.0726514" ry="2.08360681"></ellipse>
                <ellipse id="Oval-9" fill="url(#radialGradient-14)" cx="40.0712605" cy="47.228421" rx="2.0726514" ry="2.08360681"></ellipse>
                <ellipse id="Oval-9" fill="url(#radialGradient-14)" cx="14.5085598" cy="56.9519194" rx="2.0726514" ry="2.08360681"></ellipse>
                <ellipse id="Oval-9" fill="url(#radialGradient-14)" cx="26.2535845" cy="13.1961765" rx="2.0726514" ry="2.08360681"></ellipse>
                <ellipse id="Oval-9" fill="url(#radialGradient-14)" cx="22.1082817" cy="38.1994581" rx="2.0726514" ry="2.08360681"></ellipse>
                <ellipse id="Oval-9" fill="url(#radialGradient-14)" cx="29.7080035" cy="25.0032817" rx="2.0726514" ry="2.08360681"></ellipse>
                <ellipse id="Oval-9" fill="url(#radialGradient-14)" cx="29.0171197" cy="56.9519194" rx="2.0726514" ry="2.08360681"></ellipse>
                <ellipse id="Oval-9" fill="url(#radialGradient-14)" opacity="0.800000012" cx="65.6339612" cy="49.3120278" rx="2.0726514" ry="2.08360681"></ellipse>
                <ellipse id="Oval-9" fill="url(#radialGradient-14)" cx="46.2892147" cy="54.8683126" rx="2.0726514" ry="2.08360681"></ellipse>
                <ellipse id="Oval-11" fill="url(#linearGradient-15)" opacity="0.400000006" cx="31.0897711" cy="34.3795123" rx="23.4900493" ry="23.9614783"></ellipse>
            </g>
            <g id="编组" transform="translate(46.000000, 45.000000)">
                <g id="Oval-1">
                    <use fill="black" fill-opacity="1" filter="url(#filter-18)" xlink:href="#path-17"></use>
                    <use fill="url(#linearGradient-16)" fill-rule="evenodd" xlink:href="#path-17"></use>
                </g>
                <g id="形状结合">
                    <use fill="black" fill-opacity="1" filter="url(#filter-21)" xlink:href="#path-20"></use>
                    <use fill="url(#linearGradient-19)" fill-rule="evenodd" xlink:href="#path-20"></use>
                </g>
            </g>
        </g>
    </g>
</svg>