<?xml version="1.0" encoding="UTF-8"?>
<svg width="32px" height="32px" viewBox="0 0 32 32" version="1.1" xmlns="http://www.w3.org/2000/svg" xmlns:xlink="http://www.w3.org/1999/xlink">
    <title>device/GPU</title>
    <defs>
        <filter x="-14.3%" y="-15.4%" width="128.6%" height="130.8%" filterUnits="objectBoundingBox" id="filter-1">
            <feOffset dx="0" dy="1" in="SourceAlpha" result="shadowOffsetOuter1"></feOffset>
            <feGaussianBlur stdDeviation="0.5" in="shadowOffsetOuter1" result="shadowBlurOuter1"></feGaussianBlur>
            <feColorMatrix values="0 0 0 0 0   0 0 0 0 0   0 0 0 0 0  0 0 0 0.15 0" type="matrix" in="shadowBlurOuter1" result="shadowMatrixOuter1"></feColorMatrix>
            <feMerge>
                <feMergeNode in="shadowMatrixOuter1"></feMergeNode>
                <feMergeNode in="SourceGraphic"></feMergeNode>
            </feMerge>
        </filter>
        <linearGradient x1="26.2556455%" y1="6.8877551%" x2="66.0703728%" y2="91.4864022%" id="linearGradient-2">
            <stop stop-color="#8ABC11" offset="0%"></stop>
            <stop stop-color="#317007" offset="100%"></stop>
        </linearGradient>
        <linearGradient x1="26.2556455%" y1="13.2653061%" x2="66.0703728%" y2="85.3493604%" id="linearGradient-3">
            <stop stop-color="#50A609" offset="0%"></stop>
            <stop stop-color="#367C07" offset="100%"></stop>
        </linearGradient>
        <path d="M3.5,6 L24.5,6 C24.7761424,6 25,6.22385763 25,6.5 L25,7.5 C25,7.77614237 24.7761424,8 24.5,8 L3.5,8 C3.22385763,8 3,7.77614237 3,7.5 L3,6.5 C3,6.22385763 3.22385763,6 3.5,6 Z M3.5,9 L24.5,9 C24.7761424,9 25,9.22385763 25,9.5 L25,10.5 C25,10.7761424 24.7761424,11 24.5,11 L3.5,11 C3.22385763,11 3,10.7761424 3,10.5 L3,9.5 C3,9.22385763 3.22385763,9 3.5,9 Z M3.5,12 L24.5,12 C24.7761424,12 25,12.2238576 25,12.5 L25,13.5 C25,13.7761424 24.7761424,14 24.5,14 L3.5,14 C3.22385763,14 3,13.7761424 3,13.5 L3,12.5 C3,12.2238576 3.22385763,12 3.5,12 Z M3.5,15 L24.5,15 C24.7761424,15 25,15.2238576 25,15.5 L25,16.5 C25,16.7761424 24.7761424,17 24.5,17 L3.5,17 C3.22385763,17 3,16.7761424 3,16.5 L3,15.5 C3,15.2238576 3.22385763,15 3.5,15 Z M3.5,18 L24.5,18 C24.7761424,18 25,18.2238576 25,18.5 L25,19.5 C25,19.7761424 24.7761424,20 24.5,20 L3.5,20 C3.22385763,20 3,19.7761424 3,19.5 L3,18.5 C3,18.2238576 3.22385763,18 3.5,18 Z" id="path-4"></path>
        <filter x="-9.1%" y="-7.1%" width="118.2%" height="128.6%" filterUnits="objectBoundingBox" id="filter-5">
            <feOffset dx="0" dy="1" in="SourceAlpha" result="shadowOffsetOuter1"></feOffset>
            <feGaussianBlur stdDeviation="0.5" in="shadowOffsetOuter1" result="shadowBlurOuter1"></feGaussianBlur>
            <feComposite in="shadowBlurOuter1" in2="SourceAlpha" operator="out" result="shadowBlurOuter1"></feComposite>
            <feColorMatrix values="0 0 0 0 0   0 0 0 0 0   0 0 0 0 0  0 0 0 0.230741914 0" type="matrix" in="shadowBlurOuter1"></feColorMatrix>
        </filter>
        <linearGradient x1="0%" y1="49.0031409%" x2="100%" y2="50.9954821%" id="linearGradient-6">
            <stop stop-color="#E2D46C" offset="0%"></stop>
            <stop stop-color="#D7BC26" offset="18.1492935%"></stop>
            <stop stop-color="#CFB009" offset="38.885663%"></stop>
            <stop stop-color="#E7BF00" offset="56.4734084%"></stop>
            <stop stop-color="#D5B630" offset="70.4022382%"></stop>
            <stop stop-color="#C9A10A" offset="83.4427313%"></stop>
            <stop stop-color="#C2A422" offset="100%"></stop>
        </linearGradient>
        <path d="M7.375,23 L7.625,23 C7.83210678,23 8,23.1678932 8,23.375 L8,24.625 C8,24.8321068 7.83210678,25 7.625,25 L7.375,25 C7.16789322,25 7,24.8321068 7,24.625 L7,23.375 C7,23.1678932 7.16789322,23 7.375,23 Z M9.375,23 L9.625,23 C9.83210678,23 10,23.1678932 10,23.375 L10,24.625 C10,24.8321068 9.83210678,25 9.625,25 L9.375,25 C9.16789322,25 9,24.8321068 9,24.625 L9,23.375 C9,23.1678932 9.16789322,23 9.375,23 Z M11.375,23 L11.625,23 C11.8321068,23 12,23.1678932 12,23.375 L12,24.625 C12,24.8321068 11.8321068,25 11.625,25 L11.375,25 C11.1678932,25 11,24.8321068 11,24.625 L11,23.375 C11,23.1678932 11.1678932,23 11.375,23 Z M13.375,23 L13.625,23 C13.8321068,23 14,23.1678932 14,23.375 L14,24.625 C14,24.8321068 13.8321068,25 13.625,25 L13.375,25 C13.1678932,25 13,24.8321068 13,24.625 L13,23.375 C13,23.1678932 13.1678932,23 13.375,23 Z M15.375,23 L15.625,23 C15.8321068,23 16,23.1678932 16,23.375 L16,24.625 C16,24.8321068 15.8321068,25 15.625,25 L15.375,25 C15.1678932,25 15,24.8321068 15,24.625 L15,23.375 C15,23.1678932 15.1678932,23 15.375,23 Z M17.375,23 L17.625,23 C17.8321068,23 18,23.1678932 18,23.375 L18,24.625 C18,24.8321068 17.8321068,25 17.625,25 L17.375,25 C17.1678932,25 17,24.8321068 17,24.625 L17,23.375 C17,23.1678932 17.1678932,23 17.375,23 Z M19.375,23 L19.625,23 C19.8321068,23 20,23.1678932 20,23.375 L20,24.625 C20,24.8321068 19.8321068,25 19.625,25 L19.375,25 C19.1678932,25 19,24.8321068 19,24.625 L19,23.375 C19,23.1678932 19.1678932,23 19.375,23 Z" id="path-7"></path>
        <filter x="-3.8%" y="-25.0%" width="107.7%" height="150.0%" filterUnits="objectBoundingBox" id="filter-8">
            <feOffset dx="0" dy="1" in="SourceAlpha" result="shadowOffsetInner1"></feOffset>
            <feComposite in="shadowOffsetInner1" in2="SourceAlpha" operator="arithmetic" k2="-1" k3="1" result="shadowInnerInner1"></feComposite>
            <feColorMatrix values="0 0 0 0 0.926828578   0 0 0 0 0.558558022   0 0 0 0 0  0 0 0 0.55 0" type="matrix" in="shadowInnerInner1"></feColorMatrix>
        </filter>
        <linearGradient x1="25.7071738%" y1="5.31005227%" x2="75.490452%" y2="95.833067%" id="linearGradient-9">
            <stop stop-color="#F0F0F0" offset="0.0686233108%"></stop>
            <stop stop-color="#CFCFCF" offset="100%"></stop>
        </linearGradient>
        <rect id="path-10" x="4" y="4" width="20" height="18" rx="2.5"></rect>
        <filter x="-10.0%" y="-5.6%" width="120.0%" height="122.2%" filterUnits="objectBoundingBox" id="filter-11">
            <feOffset dx="0" dy="1" in="SourceAlpha" result="shadowOffsetOuter1"></feOffset>
            <feGaussianBlur stdDeviation="0.5" in="shadowOffsetOuter1" result="shadowBlurOuter1"></feGaussianBlur>
            <feColorMatrix values="0 0 0 0 0   0 0 0 0 0   0 0 0 0 0  0 0 0 0.515133304 0" type="matrix" in="shadowBlurOuter1"></feColorMatrix>
        </filter>
        <filter x="-10.0%" y="-5.6%" width="120.0%" height="122.2%" filterUnits="objectBoundingBox" id="filter-12">
            <feGaussianBlur stdDeviation="0.5" in="SourceAlpha" result="shadowBlurInner1"></feGaussianBlur>
            <feOffset dx="0" dy="-1" in="shadowBlurInner1" result="shadowOffsetInner1"></feOffset>
            <feComposite in="shadowOffsetInner1" in2="SourceAlpha" operator="arithmetic" k2="-1" k3="1" result="shadowInnerInner1"></feComposite>
            <feColorMatrix values="0 0 0 0 0   0 0 0 0 0.0510136902   0 0 0 0 0.262143342  0 0 0 0.250573645 0" type="matrix" in="shadowInnerInner1" result="shadowMatrixInner1"></feColorMatrix>
            <feGaussianBlur stdDeviation="0.5" in="SourceAlpha" result="shadowBlurInner2"></feGaussianBlur>
            <feOffset dx="0" dy="1" in="shadowBlurInner2" result="shadowOffsetInner2"></feOffset>
            <feComposite in="shadowOffsetInner2" in2="SourceAlpha" operator="arithmetic" k2="-1" k3="1" result="shadowInnerInner2"></feComposite>
            <feColorMatrix values="0 0 0 0 0.838719512   0 0 0 0 1   0 0 0 0 0.9690462  0 0 0 0.568209135 0" type="matrix" in="shadowInnerInner2" result="shadowMatrixInner2"></feColorMatrix>
            <feMerge>
                <feMergeNode in="shadowMatrixInner1"></feMergeNode>
                <feMergeNode in="shadowMatrixInner2"></feMergeNode>
            </feMerge>
        </filter>
        <linearGradient x1="50%" y1="100%" x2="50%" y2="0%" id="linearGradient-13">
            <stop stop-color="#3A3A3A" offset="0%"></stop>
            <stop stop-color="#595959" offset="100%"></stop>
        </linearGradient>
        <path d="M9.32407904,15.6551724 C9.99838926,15.6551724 10.5679523,15.4127155 10.8952874,15.1157058 L10.8952874,13.0911907 L9.17350491,13.0911907 L9.17350491,13.8246229 L10.0311228,13.8246229 L10.0311228,14.7095905 C9.89364205,14.8186961 9.65796084,14.8793103 9.42227957,14.8793103 C8.47300785,14.8793103 7.98855193,14.2913524 7.98855193,13.3154634 C7.98855193,12.3516972 8.55156827,11.7698006 9.35681255,11.7698006 C9.79544157,11.7698006 10.070403,11.9334591 10.3060842,12.1456088 L10.8232737,11.5758352 C10.509032,11.2788254 10.0245761,11 9.32407904,11 C8.03437884,11 7,11.8667834 7,13.3457704 C7,14.8429418 8.00164533,15.6551724 9.32407904,15.6551724 Z M11.9362129,15.5703125 L11.9362129,11.0848599 L13.5270614,11.0848599 C14.6007205,11.0848599 15.4256048,11.430361 15.4256048,12.4911099 C15.4256048,13.5154903 14.5941737,13.9761584 13.5532482,13.9761584 L12.9051247,13.9761584 L12.9051247,15.5703125 L11.9362129,15.5703125 Z M12.9051247,13.266972 L13.4877812,13.266972 C14.1555447,13.266972 14.4763332,13.0063308 14.4763332,12.4911099 C14.4763332,11.9698276 14.1228112,11.7940463 13.4550477,11.7940463 L12.9051247,11.7940463 L12.9051247,13.266972 Z M18.1621261,15.6551724 C19.347079,15.6551724 20.0344828,15.0429687 20.0344828,13.5518588 L20.0344828,11.0848599 L19.1048511,11.0848599 L19.1048511,13.6306573 C19.1048511,14.5641164 18.7382358,14.8793103 18.1621261,14.8793103 C17.5925631,14.8793103 17.2455878,14.5641164 17.2455878,13.6306573 L17.2455878,11.0848599 L16.276676,11.0848599 L16.276676,13.5518588 C16.276676,15.0429687 16.9837198,15.6551724 18.1621261,15.6551724 Z" id="path-14"></path>
        <filter x="-7.7%" y="-21.5%" width="115.3%" height="143.0%" filterUnits="objectBoundingBox" id="filter-15">
            <feGaussianBlur stdDeviation="0.5" in="SourceAlpha" result="shadowBlurInner1"></feGaussianBlur>
            <feOffset dx="0" dy="1" in="shadowBlurInner1" result="shadowOffsetInner1"></feOffset>
            <feComposite in="shadowOffsetInner1" in2="SourceAlpha" operator="arithmetic" k2="-1" k3="1" result="shadowInnerInner1"></feComposite>
            <feColorMatrix values="0 0 0 0 0   0 0 0 0 0   0 0 0 0 0  0 0 0 0.756146198 0" type="matrix" in="shadowInnerInner1"></feColorMatrix>
        </filter>
    </defs>
    <g id="device/GPU" stroke="none" stroke-width="1" fill="none" fill-rule="evenodd">
        <g id="编组" filter="url(#filter-1)" transform="translate(2.000000, 3.000000)">
            <path d="M24.25,0 C26.3210678,-2.66401593e-15 28,1.67893219 28,3.75 L28,6.5 L28,6.5 C26.8954305,6.5 26,7.3954305 26,8.5 C26,9.6045695 26.8954305,10.5 28,10.5 L28,22.25 C28,24.3210678 26.3210678,26 24.25,26 L3.75,26 C1.67893219,26 6.97721867e-16,24.3210678 0,22.25 L0,10.5 L0,10.5 C1.1045695,10.5 2,9.6045695 2,8.5 C2,7.3954305 1.1045695,6.5 0,6.5 L0,3.75 C1.90456553e-16,1.67893219 1.67893219,8.24538195e-16 3.75,0 L24.25,0 Z M3,21 C2.44771525,21 2,21.4477153 2,22 C2,22.5522847 2.44771525,23 3,23 C3.55228475,23 4,22.5522847 4,22 C4,21.4477153 3.55228475,21 3,21 Z M25,21 C24.4477153,21 24,21.4477153 24,22 C24,22.5522847 24.4477153,23 25,23 C25.5522847,23 26,22.5522847 26,22 C26,21.4477153 25.5522847,21 25,21 Z M3,3 C2.44771525,3 2,3.44771525 2,4 C2,4.55228475 2.44771525,5 3,5 C3.55228475,5 4,4.55228475 4,4 C4,3.44771525 3.55228475,3 3,3 Z M25,3 C24.4477153,3 24,3.44771525 24,4 C24,4.55228475 24.4477153,5 25,5 C25.5522847,5 26,4.55228475 26,4 C26,3.44771525 25.5522847,3 25,3 Z" id="形状结合备份-2" fill="url(#linearGradient-2)"></path>
            <path d="M24.25,1 C26.3210678,1 28,2.67893219 28,4.75 L28,6.5 L28,6.5 C26.8954305,6.5 26,7.3954305 26,8.5 C26,9.6045695 26.8954305,10.5 28,10.5 L28,21.25 C28,23.3210678 26.3210678,25 24.25,25 L3.75,25 C1.67893219,25 2.53632657e-16,23.3210678 0,21.25 L0,10.5 L0,10.5 C1.1045695,10.5 2,9.6045695 2,8.5 C2,7.3954305 1.1045695,6.5 0,6.5 L0,4.75 C-2.53632657e-16,2.67893219 1.67893219,1 3.75,1 L24.25,1 Z M3,21 C2.44771525,21 2,21.4477153 2,22 C2,22.5522847 2.44771525,23 3,23 C3.55228475,23 4,22.5522847 4,22 C4,21.4477153 3.55228475,21 3,21 Z M25,21 C24.4477153,21 24,21.4477153 24,22 C24,22.5522847 24.4477153,23 25,23 C25.5522847,23 26,22.5522847 26,22 C26,21.4477153 25.5522847,21 25,21 Z M3,3 C2.44771525,3 2,3.44771525 2,4 C2,4.55228475 2.44771525,5 3,5 C3.55228475,5 4,4.55228475 4,4 C4,3.44771525 3.55228475,3 3,3 Z M25,3 C24.4477153,3 24,3.44771525 24,4 C24,4.55228475 24.4477153,5 25,5 C25.5522847,5 26,4.55228475 26,4 C26,3.44771525 25.5522847,3 25,3 Z" id="形状结合备份-3" fill="url(#linearGradient-3)"></path>
            <g id="形状结合">
                <use fill="black" fill-opacity="1" filter="url(#filter-5)" xlink:href="#path-4"></use>
                <use fill-opacity="0.4" fill="#000000" fill-rule="evenodd" xlink:href="#path-4"></use>
            </g>
            <g id="形状结合">
                <use fill="url(#linearGradient-6)" fill-rule="evenodd" xlink:href="#path-7"></use>
                <use fill="black" fill-opacity="1" filter="url(#filter-8)" xlink:href="#path-7"></use>
            </g>
            <g id="矩形">
                <use fill="black" fill-opacity="1" filter="url(#filter-11)" xlink:href="#path-10"></use>
                <use fill="url(#linearGradient-9)" fill-rule="evenodd" xlink:href="#path-10"></use>
                <use fill="black" fill-opacity="1" filter="url(#filter-12)" xlink:href="#path-10"></use>
            </g>
            <g id="GPU-" opacity="0.3" fill-rule="nonzero">
                <use fill="url(#linearGradient-13)" xlink:href="#path-14"></use>
                <use fill="black" fill-opacity="1" filter="url(#filter-15)" xlink:href="#path-14"></use>
            </g>
        </g>
    </g>
</svg>