<?xml version="1.0" encoding="UTF-8"?>
<svg width="36px" height="36px" viewBox="0 0 36 36" version="1.1" xmlns="http://www.w3.org/2000/svg" xmlns:xlink="http://www.w3.org/1999/xlink">
    <title>reinstall_dark</title>
    <g id="驱动管理一期1052dark" stroke="none" stroke-width="1" fill="none" fill-rule="evenodd">
        <g id="reinstall_dark">
            <rect id="矩形" x="0" y="0" width="36" height="36"></rect>
            <g id="DTK-/-Button-/-ToolButton-/-IconButton-Label-Light">
                <rect id="DTK-/-Button-/ToolButton-/-Light-Normal" fill-opacity="0" fill="#000000" x="0" y="0" width="36" height="36" rx="8"></rect>
                <g id="ICON" transform="translate(11.000000, 11.250000)" fill="#C5CFE0">
                    <path d="M7,0 C10.7279221,0 13.75,3.02207794 13.75,6.75 L12.25,6.75 C12.25,3.85050506 9.89949494,1.5 7,1.5 C5.33616267,1.5 3.80498452,2.27899825 2.82098053,3.57159166 L5,5.75 L0,5.75 L0,0.75 L1.75278097,2.50339247 C3.01965566,0.938435729 4.93108259,0 7,0 Z M6.75,13.75 C3.02207794,13.75 7.10542736e-15,10.7279221 7.10542736e-15,7 L1.5,7 C1.5,9.89949494 3.85050506,12.25 6.75,12.25 C8.41383733,12.25 9.94501548,11.4710017 10.9290195,10.1784083 L8.75,8 L13.75,8 L13.75,13 L11.997219,11.2466075 C10.7303443,12.8115643 8.81891741,13.75 6.75,13.75 Z" id="形状结合"></path>
                </g>
            </g>
        </g>
    </g>
</svg>