<?xml version="1.0" encoding="UTF-8"?>
<svg width="96px" height="96px" viewBox="0 0 96 96" version="1.1" xmlns="http://www.w3.org/2000/svg" xmlns:xlink="http://www.w3.org/1999/xlink">
    <title>status/restore_96</title>
    <defs>
        <linearGradient x1="50%" y1="0%" x2="50%" y2="98.0289299%" id="linearGradient-1">
            <stop stop-color="#FFC935" offset="0%"></stop>
            <stop stop-color="#E08800" offset="100%"></stop>
        </linearGradient>
        <linearGradient x1="50%" y1="0%" x2="50%" y2="100%" id="linearGradient-2">
            <stop stop-color="#FFFFFF" offset="0%"></stop>
            <stop stop-color="#E4E4E4" offset="100%"></stop>
        </linearGradient>
        <circle id="path-3" cx="48" cy="48" r="41"></circle>
        <filter x="-8.5%" y="-6.1%" width="117.1%" height="117.1%" filterUnits="objectBoundingBox" id="filter-4">
            <feOffset dx="0" dy="2" in="SourceAlpha" result="shadowOffsetOuter1"></feOffset>
            <feGaussianBlur stdDeviation="2" in="shadowOffsetOuter1" result="shadowBlurOuter1"></feGaussianBlur>
            <feComposite in="shadowBlurOuter1" in2="SourceAlpha" operator="out" result="shadowBlurOuter1"></feComposite>
            <feColorMatrix values="0 0 0 0 0   0 0 0 0 0   0 0 0 0 0  0 0 0 0.203835227 0" type="matrix" in="shadowBlurOuter1"></feColorMatrix>
        </filter>
        <filter x="-4.7%" y="-7.2%" width="109.1%" height="125.3%" filterUnits="objectBoundingBox" id="filter-5">
            <feOffset dx="0" dy="0" in="SourceAlpha" result="shadowOffsetOuter1"></feOffset>
            <feGaussianBlur stdDeviation="0.5" in="shadowOffsetOuter1" result="shadowBlurOuter1"></feGaussianBlur>
            <feColorMatrix values="0 0 0 0 0.646767437   0 0 0 0 0.217414775   0 0 0 0 0  0 0 0 0.372978584 0" type="matrix" in="shadowBlurOuter1" result="shadowMatrixOuter1"></feColorMatrix>
            <feMerge>
                <feMergeNode in="shadowMatrixOuter1"></feMergeNode>
                <feMergeNode in="SourceGraphic"></feMergeNode>
            </feMerge>
        </filter>
        <linearGradient x1="50%" y1="32.521211%" x2="52.829397%" y2="75.6634808%" id="linearGradient-6">
            <stop stop-color="#FFFFFF" offset="0%"></stop>
            <stop stop-color="#FFE5D0" offset="100%"></stop>
        </linearGradient>
        <path d="M3.61005414,1.26567791 L7.11190983,9.51638757 C8.62120845,9.51714718 9.88416959,10.562181 10.2176515,11.9669261 L25.1927163,11.9669567 C25.745001,11.9669567 26.1927163,12.414672 26.1927163,12.9669567 C26.1927163,13.5192415 25.745001,13.9669567 25.1927163,13.9669567 L10.044718,13.9673433 C9.55595355,15.1013535 8.42808847,15.8952022 7.11481008,15.8952022 C5.35358579,15.8952022 3.92583139,14.4674479 3.92583139,12.7062236 C3.92583139,12.0539975 4.12163492,11.4475037 4.45766681,10.9423175 L0.848539579,2.4378713 C0.524847313,1.67530011 0.880628977,0.794709593 1.64320017,0.471017327 C2.40577136,0.147325062 3.28636187,0.503106726 3.61005414,1.26567791 Z" id="path-7"></path>
        <filter x="-4.9%" y="-4.8%" width="109.8%" height="119.3%" filterUnits="objectBoundingBox" id="filter-8">
            <feOffset dx="0" dy="1" in="SourceAlpha" result="shadowOffsetOuter1"></feOffset>
            <feGaussianBlur stdDeviation="0.25" in="shadowOffsetOuter1" result="shadowBlurOuter1"></feGaussianBlur>
            <feColorMatrix values="0 0 0 0 0.647058824   0 0 0 0 0.215686275   0 0 0 0 0  0 0 0 0.2 0" type="matrix" in="shadowBlurOuter1"></feColorMatrix>
        </filter>
        <linearGradient x1="50%" y1="3.09244792%" x2="52.6700107%" y2="100%" id="linearGradient-9">
            <stop stop-color="#F0F0F0" offset="0%"></stop>
            <stop stop-color="#F8D9C0" offset="100%"></stop>
        </linearGradient>
        <path d="M48,20 C63.463973,20 76,32.536027 76,48 C76,63.3093333 63.7134399,75.7489867 48.4630312,75.9962488 L48,76 C47.799069,76 47.5986323,75.9978835 47.398711,75.9936717 C46.6319272,75.9773865 45.8707886,75.930148 45.116521,75.8527675 C43.2805196,75.6644114 41.4852299,75.2974605 39.7517768,74.7642097 C39.4578857,74.6738019 39.1657721,74.578614 38.8755388,74.4787059 C38.2894084,74.2769399 37.7109471,74.0559228 37.1410027,73.816148 L37.2940159,73.8803494 C37.1621819,73.8257525 37.0308554,73.7701777 36.9000457,73.7136339 L37.1410027,73.816148 C37.0094946,73.7608227 36.87844,73.7044988 36.7478493,73.6471823 L36.9000457,73.7136339 C36.766922,73.6560899 36.6343334,73.5975424 36.5022894,73.5380008 L36.7478493,73.6471823 C36.6059429,73.5848994 36.4645843,73.5214444 36.3237868,73.4568251 C36.1463028,73.3753685 35.9697104,73.2920618 35.7940364,73.2069206 C32.8244516,71.7659982 30.1475442,69.8158344 27.8771934,67.4698224 C27.5578741,67.1398615 27.2465971,66.80207 26.9436786,66.456764 L26.8868724,66.3918084 L26.8954859,66.4016489 C26.3172479,65.7389995 26.3856769,64.7330616 27.0483263,64.1548236 C27.7109757,63.5765857 28.7169137,63.6450147 29.2951517,64.3076641 C33.9805209,69.6770058 40.7343388,72.8151659 48,72.8151659 C61.7050377,72.8151659 72.8151659,61.7050377 72.8151659,48 C72.8151659,34.2949623 61.7050377,23.1848341 48,23.1848341 C34.2949623,23.1848341 23.1848341,34.2949623 23.1848341,48 C23.1848341,48.0885262 23.185297,48.1769925 23.1862221,48.2653966 L28.8909953,48.2654028 L22.8883658,60.3997938 C21.0392329,56.6621435 20,52.4524347 20,48 C20,47.8453603 20.0012536,47.6910133 20.0037512,47.5369688 L20.0146693,47.0849582 C20.0169576,47.0136885 20.0195122,46.9424861 20.0223321,46.8713519 C20.0439185,46.3268278 20.0810565,45.7862898 20.1333137,45.250182 L20.1774147,44.830422 C20.2394607,44.2797175 20.3174807,43.7338492 20.4110005,43.1932916 C20.4446862,42.9985794 20.4804027,42.804455 20.5181102,42.6110426 C20.5597222,42.3975768 20.6038937,42.1843665 20.6504744,41.9720586 C20.6790141,41.8419729 20.708521,41.7119583 20.7389291,41.5822908 C20.7938317,41.3481731 20.8516722,41.115187 20.9124097,40.8833735 C20.9650254,40.6825672 21.0197278,40.4829454 21.0765708,40.2842274 C21.1603158,39.9914703 21.2486446,39.700868 21.3415285,39.4123093 L21.2783028,39.6112909 C21.3230036,39.4687564 21.3688133,39.3267126 21.4157219,39.1851696 C21.5070078,38.9097216 21.6024551,38.6361701 21.7019892,38.3645898 C21.7979075,38.1028754 21.8976212,37.8429915 22.0010635,37.5850047 L21.9678526,37.6682211 C22.0187794,37.5400145 22.070626,37.4122732 22.1233841,37.2850053 L22.0010635,37.5850047 C22.0592402,37.4399112 22.1185963,37.2954177 22.1791199,37.1515362 L22.1233841,37.2850053 C22.1714977,37.1689414 22.2203694,37.0532712 22.269993,36.9380009 C22.3536503,36.7436741 22.4394447,36.5504839 22.5273466,36.3584598 C22.6469941,36.0970888 22.7705071,35.8379569 22.8978477,35.5810588 L22.8230018,35.7332144 C22.8780759,35.6203887 22.9338859,35.5079881 22.9904259,35.3960188 L22.8978477,35.5810588 C22.9651001,35.4453834 23.03342,35.3103311 23.1027965,35.1759127 C23.2354571,34.9188802 23.3719812,34.664166 23.5122918,34.411847 L23.4132826,34.5914426 C23.4694149,34.488733 23.5261721,34.3864138 23.583549,34.28449 C23.7369919,34.0119156 23.8948671,33.7421696 24.0570768,33.4753497 L23.9118273,33.717005 C23.9944481,33.5779655 24.0782385,33.4397023 24.1631849,33.3022291 L24.0570768,33.4753497 C24.1314366,33.3530348 24.2067073,33.2313347 24.2828795,33.110259 L24.1631849,33.3022291 C24.2293506,33.1951496 24.2962177,33.0885494 24.3637797,32.9824348 L24.2828795,33.110259 C24.3620142,32.9844743 24.4421218,32.8593634 24.5231919,32.734937 L24.3637797,32.9824348 C24.4494681,32.8478506 24.5362744,32.7140475 24.6241854,32.5810387 L24.5231919,32.734937 C24.5899561,32.6324671 24.6573731,32.5304613 24.7254369,32.4289256 L24.6241854,32.5810387 C24.7024182,32.4626732 24.7815259,32.3449366 24.8614993,32.2278383 L24.7254369,32.4289256 C24.805827,32.3090019 24.8871195,32.1897338 24.9693045,32.0711312 C25.1281115,31.8419542 25.2902512,31.6152618 25.4556536,31.3911243 L25.3806411,31.4932553 C25.4549227,31.39164 25.5298724,31.290544 25.6054838,31.1899738 L25.4556536,31.3911243 C25.5525575,31.2598094 25.6505813,31.1293714 25.7497109,30.9998244 L25.6054838,31.1899738 C25.6926371,31.0740519 25.7806694,30.9588286 25.869571,30.8443138 L25.7497109,30.9998244 C25.8322165,30.8920022 25.9154882,30.7847973 25.9995177,30.6782178 L25.869571,30.8443138 C25.9538409,30.7357651 26.0388918,30.6278529 26.1247153,30.5205858 L25.9995177,30.6782178 C26.0860075,30.5685177 26.1733003,30.4594802 26.261387,30.351114 L26.1247153,30.5205858 C26.2201766,30.4012728 26.3165937,30.2827579 26.413955,30.1650526 L26.261387,30.351114 C26.3521658,30.2394361 26.4437878,30.1284712 26.5362435,30.018229 L26.413955,30.1650526 C26.4971953,30.0644189 26.5811259,29.9643769 26.6657393,29.8649341 C26.8692756,29.625726 27.0767636,29.3899842 27.2881025,29.1578097 L27.1182273,29.3461289 C27.207604,29.2461468 27.2976882,29.1468104 27.388472,29.0481277 L27.2881025,29.1578097 C27.3668642,29.0712829 27.4461608,28.9852516 27.5259871,28.8997209 L27.388472,29.0481277 C27.5055143,28.9209018 27.6237194,28.7947624 27.7430704,28.6697263 L27.5259871,28.8997209 C27.6227711,28.7960206 27.7203336,28.6930563 27.8186654,28.5908374 L27.7430704,28.6697263 C27.8188691,28.5903172 27.8951299,28.5113531 27.9718487,28.4328383 C28.1775807,28.22229 28.3866054,28.014973 28.5988396,27.8109705 L28.4488738,27.9561924 C28.5409128,27.8664019 28.6335679,27.7772399 28.7268321,27.6887136 L28.5988396,27.8109705 C28.6883302,27.7249509 28.7783915,27.6395206 28.8690172,27.5546859 L28.7268321,27.6887136 C28.8590251,27.5632361 28.9924419,27.4390355 29.1270628,27.3161316 L28.8690172,27.5546859 C28.9841816,27.4468804 29.1002575,27.3400366 29.217232,27.2341674 L29.1270628,27.3161316 C29.2040032,27.2458879 29.2813368,27.1760678 29.3590601,27.1066749 L29.217232,27.2341674 C29.3130014,27.1474901 29.4093732,27.061466 29.5063403,26.9761022 L29.3590601,27.1066749 C29.4845165,26.9946649 29.6109881,26.8837681 29.7384592,26.7739999 L29.5063403,26.9761022 C29.610741,26.8841943 29.7158318,26.7930518 29.821604,26.7026834 L29.7384592,26.7739999 C29.8423667,26.684523 29.9469384,26.5957961 30.0521659,26.5078275 L29.821604,26.7026834 C29.9428958,26.5990555 30.0650836,26.4964456 30.1881541,26.394867 L30.0521659,26.5078275 C30.1422776,26.4324954 30.2328702,26.3577195 30.3239385,26.283505 L30.1881541,26.394867 C30.2941877,26.30735 30.4008766,26.2205986 30.5082122,26.134621 L30.3239385,26.283505 C30.4602003,26.1724609 30.597527,26.0626737 30.735901,25.954161 L30.5082122,26.134621 C30.611019,26.0522712 30.7144191,25.9706314 30.8184051,25.889709 L30.735901,25.954161 C30.8363578,25.8753829 30.9373665,25.7972765 31.0389205,25.7198487 L30.8184051,25.889709 C30.9391025,25.7957818 31.0605893,25.7028211 31.1828537,25.6108386 L31.0389205,25.7198487 C31.1595584,25.6278706 31.2809656,25.53685 31.4031309,25.4467983 L31.1828537,25.6108386 C31.2976106,25.5245044 31.4130525,25.4390319 31.52917,25.3544308 C31.7676875,25.1806512 32.0090554,25.0105483 32.2531902,24.8442053 L32.1052889,24.9456725 C32.1998435,24.8803583 32.2948196,24.8156107 32.3902123,24.7514348 L32.2531902,24.8442053 C32.3698076,24.7647472 32.4870564,24.6861471 32.6049274,24.6084139 L32.3902123,24.7514348 C32.5070245,24.6728487 32.6244614,24.5951198 32.7425138,24.5182569 L32.6049274,24.6084139 C32.720135,24.5324372 32.8359371,24.4572888 32.9523252,24.3829772 C33.1958299,24.2275039 33.4418996,24.0756932 33.6904567,23.9276228 L33.5152314,24.0328768 C33.6372232,23.9589915 33.7598244,23.8860114 33.8830256,23.8139457 L33.6904567,23.9276228 C33.8108328,23.8559124 33.9317922,23.7850793 34.0533262,23.7151322 L33.8830256,23.8139457 C33.9896249,23.7515911 34.0966734,23.6899212 34.2041651,23.6289418 C34.4733682,23.4762246 34.7453509,23.3278389 35.0200185,23.1838797 L34.8344532,23.2820294 C34.9459329,23.2225279 35.0578624,23.1637585 35.1702353,23.1057276 L35.0200185,23.1838797 C35.1450932,23.1183253 35.2707245,23.0536888 35.3969037,22.9899791 L35.1702353,23.1057276 C35.3062575,23.0354838 35.4429293,22.9663222 35.5802393,22.898254 L35.3969037,22.9899791 C35.5049295,22.9354352 35.6133569,22.8815707 35.7221801,22.8283911 C35.9924425,22.6963195 36.2651467,22.5684723 36.5402066,22.4449355 L36.368434,22.5227832 C36.4933105,22.4656785 36.6186798,22.409465 36.7445337,22.3541508 C37.0832884,22.2052642 37.4255542,22.0628926 37.7711726,21.9271947 C38.0252406,21.8274434 38.2809688,21.7313528 38.5384438,21.6389272 L38.3959671,21.6905109 C38.5142796,21.6473106 38.6329652,21.6048857 38.7520178,21.5632422 L38.5384438,21.6389272 C38.6864872,21.5857841 38.8351081,21.5338527 38.9842945,21.483145 C39.5568881,21.2885231 40.137812,21.1119266 40.7263902,20.9540315 L40.4503333,21.0296142 C40.5862911,20.991636 40.7226663,20.9546581 40.8594506,20.9186891 L40.7263902,20.9540315 C40.8769006,20.9136548 41.0279116,20.874501 41.1794117,20.8365814 L40.8594506,20.9186891 C41.0009483,20.8814807 41.1428836,20.8453518 41.2852474,20.8103119 L41.1794117,20.8365814 C41.3069358,20.8046629 41.4348065,20.7736189 41.563017,20.7434562 L41.2852474,20.8103119 C41.4335632,20.773807 41.582344,20.7384839 41.7315792,20.7043533 L41.563017,20.7434562 C41.6957091,20.7122391 41.8287652,20.6819659 41.9621779,20.6526441 L41.7315792,20.7043533 C41.8761287,20.6712943 42.0211045,20.639354 42.166497,20.608542 L41.9621779,20.6526441 C42.0767111,20.6274717 42.191507,20.6030005 42.3065611,20.5792352 C42.5499158,20.5289684 42.794425,20.4818596 43.040044,20.4379537 C43.2757052,20.3958349 43.5115663,20.3567898 43.7484028,20.3207118 C43.9887918,20.2840901 44.2304789,20.2504883 44.4731323,20.2199917 L44.3767275,20.2322777 C44.5224169,20.2134539 44.6684574,20.19575 44.81484,20.1791747 L44.4731323,20.2199917 C44.6497883,20.1977896 44.8269565,20.1772334 45.0046211,20.1583388 C45.4344036,20.1126315 45.8670905,20.076648 46.3024577,20.0506125 C46.7116558,20.026142 47.1232215,20.0104595 47.5369688,20.0037512 L48,20 Z" id="path-10"></path>
        <filter x="-2.7%" y="-2.7%" width="105.4%" height="105.4%" filterUnits="objectBoundingBox" id="filter-11">
            <feOffset dx="0" dy="0" in="SourceAlpha" result="shadowOffsetOuter1"></feOffset>
            <feGaussianBlur stdDeviation="0.5" in="shadowOffsetOuter1" result="shadowBlurOuter1"></feGaussianBlur>
            <feColorMatrix values="0 0 0 0 0.647058824   0 0 0 0 0.215686275   0 0 0 0 0  0 0 0 0.5 0" type="matrix" in="shadowBlurOuter1"></feColorMatrix>
        </filter>
        <filter x="-2.7%" y="-2.7%" width="105.4%" height="105.4%" filterUnits="objectBoundingBox" id="filter-12">
            <feOffset dx="0" dy="1" in="SourceAlpha" result="shadowOffsetInner1"></feOffset>
            <feComposite in="shadowOffsetInner1" in2="SourceAlpha" operator="arithmetic" k2="-1" k3="1" result="shadowInnerInner1"></feComposite>
            <feColorMatrix values="0 0 0 0 1   0 0 0 0 1   0 0 0 0 1  0 0 0 0.760352928 0" type="matrix" in="shadowInnerInner1"></feColorMatrix>
        </filter>
    </defs>
    <g id="status/restore_96" stroke="none" stroke-width="1" fill="none" fill-rule="evenodd">
        <g id="Oval">
            <use fill="black" fill-opacity="1" filter="url(#filter-4)" xlink:href="#path-3"></use>
            <circle stroke="url(#linearGradient-2)" stroke-width="3" stroke-linejoin="square" fill="url(#linearGradient-1)" fill-rule="evenodd" cx="48" cy="48" r="39.5"></circle>
            <circle stroke-opacity="0.05" stroke="#000000" stroke-width="1" cx="48" cy="48" r="41.5"></circle>
        </g>
        <g id="Group-5备份-2" filter="url(#filter-5)" transform="translate(54.0433, 43.5397) rotate(-5) translate(-54.0433, -43.5397)translate(40.5433, 35.5397)" fill-rule="nonzero">
            <g id="形状结合">
                <use fill="black" fill-opacity="1" filter="url(#filter-8)" xlink:href="#path-7"></use>
                <use fill="url(#linearGradient-6)" xlink:href="#path-7"></use>
            </g>
        </g>
        <g id="形状结合" fill-rule="nonzero">
            <use fill="black" fill-opacity="1" filter="url(#filter-11)" xlink:href="#path-10"></use>
            <use fill="url(#linearGradient-9)" xlink:href="#path-10"></use>
            <use fill="black" fill-opacity="1" filter="url(#filter-12)" xlink:href="#path-10"></use>
        </g>
    </g>
</svg>