<?xml version="1.0" encoding="UTF-8"?>
<svg width="128px" height="128px" viewBox="0 0 128 128" version="1.1" xmlns="http://www.w3.org/2000/svg" xmlns:xlink="http://www.w3.org/1999/xlink">
    <title>status/restore_128</title>
    <defs>
        <linearGradient x1="50%" y1="0%" x2="50%" y2="98.0289299%" id="linearGradient-1">
            <stop stop-color="#FFC935" offset="0%"></stop>
            <stop stop-color="#E08800" offset="100%"></stop>
        </linearGradient>
        <linearGradient x1="50%" y1="0%" x2="50%" y2="100%" id="linearGradient-2">
            <stop stop-color="#FFFFFF" offset="0%"></stop>
            <stop stop-color="#E4E4E4" offset="100%"></stop>
        </linearGradient>
        <circle id="path-3" cx="64" cy="64" r="54.6666667"></circle>
        <filter x="-8.2%" y="-5.5%" width="116.5%" height="116.5%" filterUnits="objectBoundingBox" id="filter-4">
            <feOffset dx="0" dy="3" in="SourceAlpha" result="shadowOffsetOuter1"></feOffset>
            <feGaussianBlur stdDeviation="2.5" in="shadowOffsetOuter1" result="shadowBlurOuter1"></feGaussianBlur>
            <feComposite in="shadowBlurOuter1" in2="SourceAlpha" operator="out" result="shadowBlurOuter1"></feComposite>
            <feColorMatrix values="0 0 0 0 0   0 0 0 0 0   0 0 0 0 0  0 0 0 0.203835227 0" type="matrix" in="shadowBlurOuter1"></feColorMatrix>
        </filter>
        <filter x="-4.4%" y="-4.7%" width="111.3%" height="116.9%" filterUnits="objectBoundingBox" id="filter-5">
            <feOffset dx="0" dy="0" in="SourceAlpha" result="shadowOffsetOuter1"></feOffset>
            <feGaussianBlur stdDeviation="0.5" in="shadowOffsetOuter1" result="shadowBlurOuter1"></feGaussianBlur>
            <feColorMatrix values="0 0 0 0 0.646767437   0 0 0 0 0.217414775   0 0 0 0 0  0 0 0 0.372978584 0" type="matrix" in="shadowBlurOuter1" result="shadowMatrixOuter1"></feColorMatrix>
            <feMerge>
                <feMergeNode in="shadowMatrixOuter1"></feMergeNode>
                <feMergeNode in="SourceGraphic"></feMergeNode>
            </feMerge>
        </filter>
        <linearGradient x1="50%" y1="32.521211%" x2="52.829397%" y2="75.6634808%" id="linearGradient-6">
            <stop stop-color="#FFFFFF" offset="0%"></stop>
            <stop stop-color="#FFE5D0" offset="100%"></stop>
        </linearGradient>
        <path d="M4.81340552,1.68757055 L9.48287977,12.6895168 C11.4949767,12.6896429 13.1789109,14.0829353 13.6235421,15.9559322 L33.5902884,15.9559423 C34.3266681,15.9559423 34.9236217,16.552896 34.9236217,17.2892756 C34.9236217,18.0256553 34.3266681,18.622609 33.5902884,18.622609 L13.3927634,18.6235744 C12.7409731,20.135348 11.2372776,21.193603 9.48641345,21.193603 C7.13811438,21.193603 5.23444186,19.2899305 5.23444186,16.9416314 C5.23444186,16.0718111 5.49562464,15.2629933 5.94384255,14.5893256 L1.1313861,3.25049507 C0.699796418,2.23373348 1.17417197,1.05961279 2.19093355,0.628023103 C3.20769514,0.196433416 4.38181583,0.670808968 4.81340552,1.68757055 Z" id="path-7"></path>
        <filter x="-5.9%" y="-4.8%" width="111.8%" height="119.3%" filterUnits="objectBoundingBox" id="filter-8">
            <feOffset dx="0" dy="1" in="SourceAlpha" result="shadowOffsetOuter1"></feOffset>
            <feGaussianBlur stdDeviation="0.5" in="shadowOffsetOuter1" result="shadowBlurOuter1"></feGaussianBlur>
            <feColorMatrix values="0 0 0 0 0.647058824   0 0 0 0 0.215686275   0 0 0 0 0  0 0 0 0.2 0" type="matrix" in="shadowBlurOuter1"></feColorMatrix>
        </filter>
        <linearGradient x1="50%" y1="3.09244792%" x2="52.6700107%" y2="100%" id="linearGradient-9">
            <stop stop-color="#F0F0F0" offset="0%"></stop>
            <stop stop-color="#F8D9C0" offset="100%"></stop>
        </linearGradient>
        <path d="M64,26.6666667 C84.6186307,26.6666667 101.333333,43.3813693 101.333333,64 C101.333333,84.4124444 84.9512532,100.998649 64.6173749,101.328332 L64,101.333333 C63.7105332,101.333333 63.4218359,101.330039 63.1339435,101.323486 L63.4242297,101.328958 C63.2358586,101.326094 63.0477269,101.321826 62.8598469,101.316161 L63.1339435,101.323486 C62.9558401,101.319431 62.7780448,101.31413 62.600566,101.30759 L62.8598469,101.316161 C62.6451986,101.30969 62.4308788,101.301395 62.2169057,101.291288 L62.600566,101.30759 C62.4200658,101.300938 62.239893,101.293005 62.0600563,101.283799 L62.2169057,101.291288 C62.0347645,101.282685 61.8528746,101.272768 61.671247,101.261545 L62.0600563,101.283799 C61.8469133,101.272888 61.6342425,101.26019 61.4220585,101.245719 L61.671247,101.261545 C61.4688521,101.249038 61.2667831,101.234909 61.0650554,101.219166 L61.4220585,101.245719 C61.2339843,101.232892 61.0462927,101.218672 60.8589937,101.20307 L61.0650554,101.219166 C60.8977724,101.206111 60.7307242,101.191947 60.5639196,101.176678 C59.3647202,101.066906 58.1781102,100.90005 57.0073767,100.678022 C55.0666947,100.309975 53.1696389,99.7903255 51.3311821,99.1277877 C50.9687586,98.9971786 50.6086124,98.8610165 50.2508582,98.7193683 L50.4532175,98.7995855 C50.2882749,98.73533 50.1239017,98.6699357 49.9601076,98.6034121 L50.2508582,98.7193683 C50.0599266,98.6437714 49.8696762,98.5666118 49.6801246,98.4878997 C49.3768999,98.3619845 49.0754633,98.2320964 48.7758862,98.098277 C48.1096119,97.8004088 47.453808,97.4835953 46.8090146,97.1485205 C42.8483439,95.0903094 39.3031108,92.3430873 36.3321349,89.0656736 L36.4649551,89.2115125 C36.3369832,89.0717753 36.209971,88.9309735 36.0839319,88.7891148 L36.3321349,89.0656736 C36.2106175,88.9316224 36.0900607,88.7966842 35.9704756,88.6608699 L35.84015,88.5120693 L35.8606478,88.5355319 C35.0896639,87.6519994 35.1809026,86.3107488 36.0644351,85.5397648 C36.9479677,84.7687809 38.2892183,84.8600196 39.0602022,85.7435521 C45.3073612,92.9026744 54.3124518,97.0868878 64,97.0868878 C82.2733836,97.0868878 97.0868878,82.2733836 97.0868878,64 C97.0868878,45.7266164 82.2733836,30.9131122 64,30.9131122 C45.7266164,30.9131122 30.9131122,45.7266164 30.9131122,64 C30.9131122,64.1181709 30.9137308,64.2362619 30.9149671,64.3542698 L38.521327,64.3538705 L30.5169374,80.531272 C28.0519794,75.5481834 26.6666667,69.9358703 26.6666667,64 C26.6666667,63.1752548 26.6934102,62.3567558 26.7460773,61.5453231 L26.7879785,60.9683839 C26.8143506,60.6402166 26.8449664,60.3132469 26.8797712,59.9875298 C26.9093941,59.7102869 26.9420895,59.4336604 26.9777922,59.1579773 C27.0972113,58.2359055 27.250233,57.3245795 27.4356121,56.4250729 C27.5060794,56.0831737 27.5810925,55.7435298 27.6606958,55.4056574 C27.7533833,55.0122498 27.852294,54.621244 27.9573184,54.2327496 C28.0646535,53.8357079 28.1783741,53.4412894 28.2983634,53.0496109 C28.3815805,52.7779671 28.4678128,52.5076413 28.5570212,52.2386725 C28.7362414,51.6982983 28.9275804,51.1631246 29.1306277,50.6337509 L29.0621173,50.8137647 C29.1191583,50.6627076 29.1771508,50.5121174 29.2360876,50.3620016 C29.3848152,49.9831829 29.5395557,49.6073849 29.7001918,49.234725 L29.5642985,49.5540845 C29.6405576,49.3725175 29.7182108,49.1916805 29.7972447,49.0115869 L29.7001918,49.234725 C29.7752208,49.0606652 29.8515359,48.88729 29.9291252,48.7146113 L29.7972447,49.0115869 C29.8753071,48.8337071 29.9547164,48.6565526 30.0354598,48.4801363 L29.9291252,48.7146113 C29.999819,48.5572789 30.0715706,48.4005247 30.144371,48.2443578 L30.0354598,48.4801363 C30.1193132,48.2969247 30.2046055,48.1145093 30.2913221,47.9329043 C30.4135705,47.6768877 30.5386495,47.4224819 30.6665188,47.1697276 C30.8000225,46.9058374 30.9365297,46.6438181 31.0760307,46.3836439 C31.2520699,46.0553297 31.4327642,45.7301487 31.6181277,45.4079949 L31.5063293,45.6036611 C31.5868102,45.4618123 31.6681931,45.3205423 31.7504702,45.179859 L31.6181277,45.4079949 C31.7215894,45.2281827 31.8265058,45.0493137 31.9328608,44.8714037 L31.7504702,45.179859 C31.848627,45.0120236 31.9480565,44.8450231 32.0487455,44.6788709 L31.9328608,44.8714037 C32.0218776,44.7224968 32.1119023,44.5742619 32.2029253,44.4267082 L32.0487455,44.6788709 C32.1764502,44.4681387 32.3061808,44.2587709 32.4379104,44.0507946 L32.2029253,44.4267082 C32.2960569,44.2757362 32.3902338,44.1254775 32.4854456,43.9759421 L32.4379104,44.0507946 C32.5286821,43.9074832 32.6204029,43.7648325 32.7130641,43.6228513 L32.4854456,43.9759421 C32.5886956,43.8137824 32.6931628,43.6524733 32.7988343,43.4920278 L32.7130641,43.6228513 C32.8066472,43.4794576 32.9011894,43.3367468 32.9966816,43.194728 L32.7988343,43.4920278 C32.9121475,43.3199796 33.0268454,43.1489243 33.1429123,42.9788778 L32.9966816,43.194728 C33.1060503,43.0320717 33.2166653,42.8703231 33.3285127,42.7094961 L33.1429123,42.9788778 C33.2415596,42.8343522 33.3411958,42.6905554 33.4418111,42.547497 L33.3285127,42.7094961 C33.4330757,42.5591434 33.5387159,42.4095962 33.6454221,42.2608654 L33.4418111,42.547497 C33.5666004,42.3700672 33.6928958,42.1937733 33.8206788,42.0186338 L33.6454221,42.2608654 C33.7408314,42.1278806 33.837093,41.9955485 33.9341989,41.8638773 L33.8206788,42.0186338 C33.9362057,41.8602925 34.0529485,41.7028949 34.1708935,41.5464547 L33.9341989,41.8638773 C34.0657426,41.6855098 34.1988356,41.5083549 34.333458,41.3324325 L34.1708935,41.5464547 C34.2777187,41.4047635 34.3855301,41.2638577 34.4943174,41.1237475 L34.333458,41.3324325 C34.4322705,41.2033058 34.5319069,41.0748432 34.6323595,40.9470523 C34.8783489,40.6341167 35.1292323,40.3252098 35.3848944,40.0204469 L35.2067914,40.2343613 C35.328349,40.0872559 35.4510122,39.9410977 35.5747683,39.7958994 L35.3848944,40.0204469 C35.5172678,39.8626507 35.6509224,39.7059654 35.785842,39.550407 L35.5747683,39.7958994 C35.7011519,39.6476184 35.8286753,39.5003385 35.957325,39.3540733 L35.785842,39.550407 C35.8909549,39.4292149 35.9968356,39.3087069 36.1034767,39.1888904 L35.957325,39.3540733 C36.0899574,39.20328 36.2237869,39.0535652 36.3587986,38.9049437 L36.1034767,39.1888904 C36.2281342,39.0488314 36.3538307,38.9097175 36.4805539,38.7715607 L36.3587986,38.9049437 C36.4795573,38.772012 36.6012617,38.639955 36.7239013,38.5087834 L36.4805539,38.7715607 C36.6154272,38.6245184 36.7514637,38.4785603 36.8886486,38.333701 L36.7239013,38.5087834 C36.8571413,38.3662738 36.991485,38.2248093 37.1269189,38.0844034 L36.8886486,38.333701 C37.0232932,38.191524 37.1590443,38.0504056 37.2958879,37.9103593 L37.1269189,38.0844034 C37.2457003,37.9612613 37.3653202,37.8389335 37.4857695,37.7174293 L37.2958879,37.9103593 C37.4353153,37.7676687 37.575877,37.6260912 37.7175584,37.4856414 L37.4857695,37.7174293 C37.6277625,37.5741925 37.7709082,37.4321001 37.9151913,37.2911673 L37.7175584,37.4856414 C37.8416533,37.3626253 37.9666071,37.2404742 38.09241,37.1191981 L37.9151913,37.2911673 C38.0483299,37.1611201 38.1824371,37.0320602 38.3175011,36.9039994 L38.09241,37.1191981 C38.2363908,36.9803982 38.3814838,36.8427443 38.5276745,36.7062511 L38.3175011,36.9039994 C38.4585266,36.7702861 38.6005953,36.6376621 38.7436935,36.5061407 L38.5276745,36.7062511 C38.6600719,36.5826362 38.7933696,36.4599733 38.9275566,36.3382732 L38.7436935,36.5061407 C38.8804568,36.3804418 39.0181605,36.2557502 39.156793,36.1320775 L38.9275566,36.3382732 C39.0794772,36.2004898 39.2325378,36.0639406 39.3867225,35.9286414 L39.156793,36.1320775 C39.2882892,36.014771 39.4206209,35.8983813 39.5537782,35.7829184 L39.3867225,35.9286414 C39.5355465,35.7980463 39.6854178,35.6686158 39.8363223,35.5403642 L39.5537782,35.7829184 C39.6941388,35.6612095 39.8354165,35.5405303 39.9775998,35.4208928 L39.8363223,35.5403642 C39.968622,35.4279244 40.1017158,35.3163908 40.2355941,35.2057728 L39.9775998,35.4208928 C40.1502657,35.2756062 40.3242669,35.1318557 40.4995824,34.9896623 L40.2355941,35.2057728 C40.38268,35.0842419 40.5307127,34.9638163 40.6796797,34.8445087 L40.4995824,34.9896623 C40.6414254,34.8746174 40.7841287,34.7605919 40.9276812,34.6475969 L40.6796797,34.8445087 C40.8173853,34.7342202 40.9558892,34.6248871 41.0951813,34.5165195 L40.9276812,34.6475969 C41.0962212,34.5149333 41.2659318,34.3836901 41.4367948,34.2538854 L41.0951813,34.5165195 C41.2549131,34.39225 41.4156813,34.26925 41.5774709,34.1475347 L41.4367948,34.2538854 C41.5809776,34.1443496 41.725981,34.0358382 41.8717942,33.9283619 L41.5774709,34.1475347 C41.7323815,34.0309945 41.8882284,33.915632 42.0449984,33.8014606 L41.8717942,33.9283619 C41.9886839,33.8422046 42.1060941,33.7567125 42.224019,33.6718912 C42.5549992,33.4338231 42.8900349,33.2010392 43.2290027,32.9736631 L42.9616587,33.1546724 C43.1288381,33.0404259 43.2969938,32.9275031 43.4661107,32.8159191 L43.2290027,32.9736631 C43.3683268,32.8802058 43.5083153,32.7876622 43.6489594,32.6960407 L43.4661107,32.8159191 C43.6298327,32.7078947 43.7944556,32.601125 43.9599657,32.4956238 L43.6489594,32.6960407 C43.8139927,32.5885311 43.9799288,32.4822912 44.146754,32.3773349 L43.9599657,32.4956238 C44.1122416,32.3985584 44.2652686,32.3025667 44.4190359,32.2076594 L44.146754,32.3773349 C44.3239867,32.2658308 44.5022227,32.1557755 44.6814456,32.0471854 L44.4190359,32.2076594 C44.5766158,32.1103989 44.7349733,32.0142772 44.8940967,31.9193058 L44.6814456,32.0471854 C44.8456379,31.9477022 45.0106585,31.8494489 45.1764945,31.7524382 L44.8940967,31.9193058 C45.066819,31.816218 45.2404439,31.7144855 45.4149566,31.614123 L45.1764945,31.7524382 C45.3107652,31.6738926 45.4455705,31.5961615 45.5809036,31.5192518 C45.9459516,31.3117953 46.3148396,31.1103153 46.6874346,30.9149448 L46.4035885,31.0653446 C46.571932,30.9752132 46.741047,30.8863349 46.910921,30.798722 L46.6874346,30.9149448 C46.8492237,30.8301106 47.0117118,30.7464282 47.1748879,30.6639087 L46.910921,30.798722 C47.081154,30.7109239 47.2521493,30.6243966 47.4238942,30.5391526 C47.7645826,30.3700551 48.1082211,30.2060076 48.4547116,30.0471079 L48.2985621,30.1191556 C48.4398048,30.053589 48.5815263,29.9888795 48.7237198,29.925034 L48.4547116,30.0471079 C48.6459433,29.9594095 48.8380437,29.8732792 49.0309965,29.7887334 L48.7237198,29.925034 C48.8739433,29.8575829 49.0246937,29.7910961 49.1759631,29.7255814 L49.0309965,29.7887334 C49.2026366,29.7135262 49.3749512,29.6395727 49.5479286,29.5668846 L49.1759631,29.7255814 C49.3858907,29.6346618 49.5968178,29.5456145 49.8087235,29.4584604 L49.5479286,29.5668846 C49.7193428,29.4948534 49.891408,29.4240649 50.0641127,29.3545302 L49.8087235,29.4584604 C49.9755837,29.3898329 50.1430507,29.3223793 50.311114,29.2561099 L50.0641127,29.3545302 C50.2474488,29.2807152 50.4315056,29.2083133 50.6162697,29.1373378 L50.311114,29.2561099 C50.4983,29.1823002 50.6862258,29.1099595 50.8748773,29.039102 L50.6162697,29.1373378 C50.797768,29.0676169 50.9799488,28.9992725 51.1627994,28.9323175 L50.8748773,29.039102 C51.0287078,28.9813232 51.1830209,28.9245307 51.3378087,28.868732 L51.1627994,28.9323175 C51.3551311,28.8618908 51.5482037,28.7930011 51.7420025,28.7256635 L51.3378087,28.868732 C51.5148432,28.8049137 51.6924988,28.7423956 51.8707639,28.6811891 L51.7420025,28.7256635 C51.9073661,28.6682061 52.0732584,28.6118786 52.23967,28.5566904 L51.8707639,28.6811891 C52.1162799,28.5968923 52.3629521,28.5150835 52.6107505,28.4357928 L52.23967,28.5566904 C52.4231335,28.4958472 52.6072282,28.4363886 52.7919419,28.3783271 L52.6107505,28.4357928 C52.7616009,28.3875235 52.9128686,28.3401874 53.0645468,28.2937913 L52.7919419,28.3783271 C52.991537,28.3155879 53.1918547,28.2544799 53.3928795,28.1950188 C53.748837,28.0897302 54.1070113,27.9896051 54.4673159,27.8947304 L54.3936603,27.9142063 C54.5614941,27.8696434 54.7297921,27.8262203 54.8985455,27.7839457 L54.4673159,27.8947304 C54.6639983,27.8429404 54.8613155,27.7927149 55.0592533,27.744068 L54.8985455,27.7839457 C55.0445406,27.7473724 55.1908766,27.7116587 55.3375478,27.6768104 L55.0592533,27.744068 C55.2561417,27.695679 55.4536442,27.6488519 55.6517469,27.6036007 L55.3375478,27.6768104 C55.5778318,27.6197201 55.8190154,27.5649524 56.0610736,27.5125321 L55.6517469,27.6036007 C55.8325956,27.5622907 56.0139444,27.522294 56.1957829,27.4836211 L56.0610736,27.5125321 C56.2031367,27.4817668 56.3455011,27.4518102 56.4881616,27.4226672 C57.1098525,27.2956668 57.7371684,27.1841182 58.3696904,27.0884402 L57.9493251,27.1544841 C58.152045,27.1214469 58.3553133,27.0900424 58.5591159,27.0602844 C58.9557025,27.0023774 59.3543128,26.9507054 59.7548439,26.9053711 L59.5865812,26.9248019 C59.7173541,26.9094003 59.8483338,26.8946746 59.9795168,26.8806283 L59.7548439,26.9053711 C59.9529383,26.8829497 60.1515026,26.8620786 60.3505243,26.8427702 L59.9795168,26.8806283 C60.230536,26.8537508 60.4822995,26.8293612 60.7347822,26.8074848 L60.3505243,26.8427702 C60.5485912,26.8235544 60.7471111,26.8058863 60.9460718,26.7897782 L60.7347822,26.8074848 C60.9025781,26.792946 61.0706917,26.7795172 61.2391155,26.7672057 C61.9483016,26.7153656 62.6629885,26.6833361 63.3826251,26.6716683 L64,26.6666667 Z" id="path-10"></path>
        <filter x="-2.0%" y="-2.0%" width="104.0%" height="104.0%" filterUnits="objectBoundingBox" id="filter-11">
            <feOffset dx="0" dy="0" in="SourceAlpha" result="shadowOffsetOuter1"></feOffset>
            <feGaussianBlur stdDeviation="0.5" in="shadowOffsetOuter1" result="shadowBlurOuter1"></feGaussianBlur>
            <feColorMatrix values="0 0 0 0 0.647058824   0 0 0 0 0.215686275   0 0 0 0 0  0 0 0 0.5 0" type="matrix" in="shadowBlurOuter1"></feColorMatrix>
        </filter>
        <filter x="-2.0%" y="-2.0%" width="104.0%" height="104.0%" filterUnits="objectBoundingBox" id="filter-12">
            <feOffset dx="0" dy="1" in="SourceAlpha" result="shadowOffsetInner1"></feOffset>
            <feComposite in="shadowOffsetInner1" in2="SourceAlpha" operator="arithmetic" k2="-1" k3="1" result="shadowInnerInner1"></feComposite>
            <feColorMatrix values="0 0 0 0 1   0 0 0 0 1   0 0 0 0 1  0 0 0 0.760352928 0" type="matrix" in="shadowInnerInner1"></feColorMatrix>
        </filter>
    </defs>
    <g id="status/restore_128" stroke="none" stroke-width="1" fill="none" fill-rule="evenodd">
        <g id="Oval">
            <use fill="black" fill-opacity="1" filter="url(#filter-4)" xlink:href="#path-3"></use>
            <circle stroke="url(#linearGradient-2)" stroke-width="4" stroke-linejoin="square" fill="url(#linearGradient-1)" fill-rule="evenodd" cx="64" cy="64" r="52.6666667"></circle>
            <circle stroke-opacity="0.05" stroke="#000000" stroke-width="1.33333333" cx="64" cy="64" r="55.3333333"></circle>
        </g>
        <g id="Group-5备份-2" filter="url(#filter-5)" transform="translate(71.5887, 58.4285) rotate(-5) translate(-71.5887, -58.4285)translate(54.0887, 47.4285)" fill-rule="nonzero">
            <g id="形状结合">
                <use fill="black" fill-opacity="1" filter="url(#filter-8)" xlink:href="#path-7"></use>
                <use fill="url(#linearGradient-6)" xlink:href="#path-7"></use>
            </g>
        </g>
        <g id="形状结合" fill-rule="nonzero">
            <use fill="black" fill-opacity="1" filter="url(#filter-11)" xlink:href="#path-10"></use>
            <use fill="url(#linearGradient-9)" xlink:href="#path-10"></use>
            <use fill="black" fill-opacity="1" filter="url(#filter-12)" xlink:href="#path-10"></use>
        </g>
    </g>
</svg>