<?xml version="1.0" encoding="UTF-8"?>
<svg width="32px" height="32px" viewBox="0 0 32 32" version="1.1" xmlns="http://www.w3.org/2000/svg" xmlns:xlink="http://www.w3.org/1999/xlink">
    <title>device/数位板</title>
    <defs>
        <linearGradient x1="51.9130162%" y1="75.5102041%" x2="50%" y2="24.4897959%" id="linearGradient-1">
            <stop stop-color="#242424" offset="0%"></stop>
            <stop stop-color="#555555" offset="100%"></stop>
        </linearGradient>
        <rect id="path-2" x="2" y="6" width="28" height="20" rx="3.125"></rect>
        <filter x="-7.1%" y="-5.0%" width="114.3%" height="120.0%" filterUnits="objectBoundingBox" id="filter-3">
            <feOffset dx="0" dy="1" in="SourceAlpha" result="shadowOffsetOuter1"></feOffset>
            <feGaussianBlur stdDeviation="0.5" in="shadowOffsetOuter1" result="shadowBlurOuter1"></feGaussianBlur>
            <feColorMatrix values="0 0 0 0 0   0 0 0 0 0   0 0 0 0 0  0 0 0 0.16053868 0" type="matrix" in="shadowBlurOuter1"></feColorMatrix>
        </filter>
        <linearGradient x1="38.9513531%" y1="76.446281%" x2="44.5456765%" y2="23.553719%" id="linearGradient-4">
            <stop stop-color="#FFA8BC" offset="0%"></stop>
            <stop stop-color="#833DC1" offset="100%"></stop>
        </linearGradient>
        <path d="M6,9.00087166 C6,8.4481055 6.43945833,8 7.00246166,8 L26.997538,8 C27.5511823,8 27.9999997,8.44463086 27.9999997,9.00087166 L28,22.9991283 C28,23.5518945 27.5605417,24 26.9975383,24 L7.00246167,24 C6.44881738,24 6,23.5553691 6,22.9991283 L6,9.00087166 Z" id="path-5"></path>
    </defs>
    <g id="device/数位板" stroke="none" stroke-width="1" fill="none" fill-rule="evenodd">
        <g id="蒙版">
            <use fill="black" fill-opacity="1" filter="url(#filter-3)" xlink:href="#path-2"></use>
            <use fill="url(#linearGradient-1)" fill-rule="evenodd" xlink:href="#path-2"></use>
        </g>
        <mask id="mask-6" fill="white">
            <use xlink:href="#path-5"></use>
        </mask>
        <use id="蒙版" fill="url(#linearGradient-4)" fill-rule="nonzero" xlink:href="#path-5"></use>
        <rect id="矩形" fill="#FFFFFF" opacity="0.497410974" x="3" y="9" width="2" height="1" rx="0.5"></rect>
        <rect id="矩形备份-3" fill="#FFFFFF" opacity="0.497410974" x="3" y="20" width="2" height="1" rx="0.5"></rect>
        <rect id="矩形备份" fill="#FFFFFF" opacity="0.497410974" x="3" y="11" width="2" height="1" rx="0.5"></rect>
        <rect id="矩形备份-4" fill="#FFFFFF" opacity="0.497410974" x="3" y="22" width="2" height="1" rx="0.5"></rect>
        <rect id="矩形备份-2" fill="#FFFFFF" opacity="0.497410974" x="3" y="15" width="2" height="2" rx="1"></rect>
    </g>
</svg>