<?xml version="1.0" encoding="UTF-8"?>
<svg width="96px" height="96px" viewBox="0 0 96 96" version="1.1" xmlns="http://www.w3.org/2000/svg" xmlns:xlink="http://www.w3.org/1999/xlink">
    <title>status/update</title>
    <defs>
        <filter x="-12.5%" y="-12.5%" width="125.0%" height="125.0%" filterUnits="objectBoundingBox" id="filter-1">
            <feOffset dx="0" dy="2" in="SourceAlpha" result="shadowOffsetOuter1"></feOffset>
            <feGaussianBlur stdDeviation="2" in="shadowOffsetOuter1" result="shadowBlurOuter1"></feGaussianBlur>
            <feColorMatrix values="0 0 0 0 0   0 0 0 0 0   0 0 0 0 0  0 0 0 0.2 0" type="matrix" in="shadowBlurOuter1" result="shadowMatrixOuter1"></feColorMatrix>
            <feMerge>
                <feMergeNode in="shadowMatrixOuter1"></feMergeNode>
                <feMergeNode in="SourceGraphic"></feMergeNode>
            </feMerge>
        </filter>
        <linearGradient x1="50%" y1="100%" x2="50%" y2="0%" id="linearGradient-2">
            <stop stop-color="#CFDAFC" offset="0%"></stop>
            <stop stop-color="#CDCFD2" offset="100%"></stop>
        </linearGradient>
        <polygon id="path-3" points="41 75 55 75 55 84 41 84"></polygon>
        <filter x="-14.3%" y="-22.2%" width="128.6%" height="144.4%" filterUnits="objectBoundingBox" id="filter-4">
            <feGaussianBlur stdDeviation="1" in="SourceAlpha" result="shadowBlurInner1"></feGaussianBlur>
            <feOffset dx="0" dy="2" in="shadowBlurInner1" result="shadowOffsetInner1"></feOffset>
            <feComposite in="shadowOffsetInner1" in2="SourceAlpha" operator="arithmetic" k2="-1" k3="1" result="shadowInnerInner1"></feComposite>
            <feColorMatrix values="0 0 0 0 0.305544245   0 0 0 0 0.316030326   0 0 0 0 0.533769248  0 0 0 0.178130463 0" type="matrix" in="shadowInnerInner1"></feColorMatrix>
        </filter>
        <linearGradient x1="50%" y1="0%" x2="50%" y2="80.1038369%" id="linearGradient-5">
            <stop stop-color="#FFFFFF" offset="0%"></stop>
            <stop stop-color="#EBF4FF" offset="100%"></stop>
        </linearGradient>
        <path d="M34.5,82 L61.5,82 C62.3284271,82 63,82.6715729 63,83.5 C63,84.3284271 62.3284271,85 61.5,85 L34.5,85 C33.6715729,85 33,84.3284271 33,83.5 C33,82.6715729 33.6715729,82 34.5,82 Z" id="path-6"></path>
        <filter x="-1.7%" y="-16.7%" width="103.3%" height="133.3%" filterUnits="objectBoundingBox" id="filter-7">
            <feOffset dx="0" dy="-1" in="SourceAlpha" result="shadowOffsetInner1"></feOffset>
            <feComposite in="shadowOffsetInner1" in2="SourceAlpha" operator="arithmetic" k2="-1" k3="1" result="shadowInnerInner1"></feComposite>
            <feColorMatrix values="0 0 0 0 0   0 0 0 0 0   0 0 0 0 0  0 0 0 0.168651661 0" type="matrix" in="shadowInnerInner1"></feColorMatrix>
        </filter>
        <linearGradient x1="39.598747%" y1="23.553719%" x2="75.3018846%" y2="76.446281%" id="linearGradient-8">
            <stop stop-color="#D7E4FF" offset="0%"></stop>
            <stop stop-color="#F4F9FF" offset="100%"></stop>
        </linearGradient>
        <rect id="path-9" x="4" y="11" width="88" height="64" rx="9.375"></rect>
        <filter x="-0.9%" y="-1.2%" width="101.7%" height="102.3%" filterUnits="objectBoundingBox" id="filter-10">
            <feOffset dx="0" dy="-1" in="SourceAlpha" result="shadowOffsetInner1"></feOffset>
            <feComposite in="shadowOffsetInner1" in2="SourceAlpha" operator="arithmetic" k2="-1" k3="1" result="shadowInnerInner1"></feComposite>
            <feColorMatrix values="0 0 0 0 0   0 0 0 0 0   0 0 0 0 0  0 0 0 0.12 0" type="matrix" in="shadowInnerInner1" result="shadowMatrixInner1"></feColorMatrix>
            <feOffset dx="0" dy="1" in="SourceAlpha" result="shadowOffsetInner2"></feOffset>
            <feComposite in="shadowOffsetInner2" in2="SourceAlpha" operator="arithmetic" k2="-1" k3="1" result="shadowInnerInner2"></feComposite>
            <feColorMatrix values="0 0 0 0 1   0 0 0 0 1   0 0 0 0 1  0 0 0 1 0" type="matrix" in="shadowInnerInner2" result="shadowMatrixInner2"></feColorMatrix>
            <feMerge>
                <feMergeNode in="shadowMatrixInner1"></feMergeNode>
                <feMergeNode in="shadowMatrixInner2"></feMergeNode>
            </feMerge>
        </filter>
        <linearGradient x1="46.8261315%" y1="0.564822635%" x2="46.8261315%" y2="99.6640703%" id="linearGradient-11">
            <stop stop-color="#4F5D73" offset="0%"></stop>
            <stop stop-color="#313A46" offset="100%"></stop>
        </linearGradient>
        <linearGradient x1="46.8261315%" y1="0.564822635%" x2="46.8261315%" y2="99.6640703%" id="linearGradient-12">
            <stop stop-color="#FFFFFF" offset="0%"></stop>
            <stop stop-color="#E6E6E6" offset="100%"></stop>
        </linearGradient>
        <linearGradient x1="50%" y1="0%" x2="50%" y2="100%" id="linearGradient-13">
            <stop stop-color="#FFFFFF" offset="0%"></stop>
            <stop stop-color="#D2D2D2" offset="100%"></stop>
        </linearGradient>
        <path d="M61.8271417,33.9593907 C61.8271417,33.3072092 62.3054025,32.6985476 63.0010291,32.4376526 C62.9140828,31.8724454 62.7401715,31.3072196 62.5662602,30.7854856 C61.827123,30.8724506 61.1314777,30.6115743 60.783655,30.0463485 C60.4358137,29.4811413 60.5662519,28.7420042 61.0445127,28.1333052 C60.69669,27.6985362 60.3053942,27.3072217 59.8706065,26.9159259 C59.2184157,27.3941867 58.4792972,27.5246249 57.9140901,27.1767835 C57.3488643,26.8289609 57.0879879,26.1333156 57.1749529,25.3941784 C56.6532189,25.2202671 56.0879931,25.0463558 55.522786,24.9593907 C55.2618909,25.655036 54.6532106,26.1332969 54.0010291,26.1332969 C53.3488663,26.1332969 52.740186,25.655036 52.479291,24.9593907 C51.9140839,25.0463371 51.348858,25.2202484 50.827124,25.3941597 C50.8563989,25.6429738 50.8462569,25.8868595 50.7983573,26.1142077 C50.7039643,26.5622293 50.462942,26.946029 50.0879869,27.1767649 C49.5227797,27.5246062 48.7836426,27.394168 48.1749436,26.9159072 C47.7401746,27.2637299 47.3488601,27.6550257 46.9575643,28.0898133 C47.0568182,28.228768 47.1402108,28.3745201 47.2061907,28.5234487 C47.4292398,29.0269109 47.4532941,29.5666758 47.2184219,30.0028566 C46.8705993,30.5680825 46.174954,30.8289401 45.4358168,30.7419938 C45.2619055,31.2637278 45.0879755,31.8289536 45.0010291,32.3941608 C45.6966558,32.6985476 46.1749353,33.3072279 46.1749353,33.9593907 C46.1749353,34.0619379 46.1631128,34.1634007 46.1404818,34.2626057 C46.0191723,34.7943748 45.5873015,35.2612718 45.0010291,35.4811476 C45.0879755,36.0463547 45.2618868,36.6115805 45.4357981,37.1333145 C46.1749353,37.0463495 46.9140724,37.2637527 47.2184033,37.8724517 C47.5662446,38.4376588 47.4358064,39.176796 46.9575456,39.785495 C47.3053683,40.220264 47.6966641,40.6115785 48.1314517,41.0028743 C48.7401507,40.5246135 49.4792879,40.4376671 50.044495,40.7420166 C50.6097209,41.0898393 50.8705785,41.7854846 50.7836322,42.5246218 C51.3053662,42.6985331 51.870592,42.8724444 52.4357992,42.9593907 C52.7401487,42.2637454 53.3053745,41.7854846 53.9575466,41.7854846 C54.6097188,41.7854846 55.2183991,42.2637454 55.4792755,42.9593907 C56.0445013,42.8724444 56.5662353,42.6985331 57.1314611,42.5246218 C57.0444961,41.7854846 57.3053724,41.0898393 57.8705796,40.7420166 C58.4358054,40.3941753 59.1749239,40.5246135 59.7836229,41.0028743 C60.2184105,40.6550516 60.6097063,40.3143184 61.0010291,39.8795307 C60.52276,39.2708318 60.435795,38.481132 60.7401445,37.9159249 C61.0879672,37.350699 61.7836312,37.0898414 62.5227496,37.1767877 C62.6966797,36.6550537 62.870591,36.0898279 62.9575373,35.5246207 C62.3054025,35.1767981 61.8271417,34.6115722 61.8271417,33.9593907 Z M47.8938863,34.1847586 C47.8938863,31.1390268 49.8465689,28.6812863 52.7153149,28.1736765 C52.7153149,30.5665445 52.7153149,32.3544674 52.7153149,33.5509014 C52.7153149,33.5702482 52.7153149,33.5992685 52.7153149,33.6379622 L48.2313943,36.2897479 C48.2223089,36.2624186 48.2134068,36.2350598 48.2046883,36.2076704 C48.2020843,36.19949 48.1994967,36.1913069 48.1969255,36.183121 C48.1939446,36.1736308 48.1819164,36.1347256 48.1788865,36.1247625 C47.9888738,35.4999566 47.8938863,34.8585345 47.8938863,34.1847586 Z M54.0412077,40.3879622 C52.1944198,40.3879622 50.515526,39.5150958 49.3403149,38.1185596 L54.0412077,35.3254622 L58.7421006,38.1185846 C57.5669134,39.5150958 55.8879956,40.3879622 54.0412077,40.3879622 Z M55.2867434,33.71576 C55.2867434,33.6796763 55.2867434,33.6537437 55.2867434,33.6379622 C55.2867434,33.5976706 55.2867434,33.5639275 55.2867434,33.5367328 C55.2867434,32.3614362 55.2867434,30.5396205 55.2867434,28.1736765 C58.1554548,28.6824086 60.4296006,31.1457606 60.4296006,34.1982262 C60.4296006,34.8645289 60.3371036,35.4843455 60.1521278,36.0998432 C60.1422952,36.1325607 60.1322013,36.165266 60.1218461,36.1979655 C60.1121565,36.228563 60.1022381,36.2591554 60.0920909,36.2897479 L55.2867434,33.71576 Z" id="path-14"></path>
        <filter x="-52.8%" y="-30.6%" width="205.6%" height="205.6%" filterUnits="objectBoundingBox" id="filter-15">
            <feOffset dx="0" dy="4" in="SourceAlpha" result="shadowOffsetOuter1"></feOffset>
            <feGaussianBlur stdDeviation="2.5" in="shadowOffsetOuter1" result="shadowBlurOuter1"></feGaussianBlur>
            <feColorMatrix values="0 0 0 0 0   0 0 0 0 0   0 0 0 0 0  0 0 0 0.220580201 0" type="matrix" in="shadowBlurOuter1"></feColorMatrix>
        </filter>
        <filter x="-25.0%" y="-23.1%" width="150.0%" height="146.2%" filterUnits="objectBoundingBox" id="filter-16">
            <feOffset dx="0" dy="2" in="SourceAlpha" result="shadowOffsetOuter1"></feOffset>
            <feGaussianBlur stdDeviation="2" in="shadowOffsetOuter1" result="shadowBlurOuter1"></feGaussianBlur>
            <feColorMatrix values="0 0 0 0 0   0 0 0 0 0   0 0 0 0 0  0 0 0 0.2 0" type="matrix" in="shadowBlurOuter1" result="shadowMatrixOuter1"></feColorMatrix>
            <feMerge>
                <feMergeNode in="shadowMatrixOuter1"></feMergeNode>
                <feMergeNode in="SourceGraphic"></feMergeNode>
            </feMerge>
        </filter>
        <ellipse id="path-17" cx="17.5" cy="17.5" rx="17.5" ry="17"></ellipse>
        <filter x="-7.1%" y="-7.4%" width="114.3%" height="114.7%" filterUnits="objectBoundingBox" id="filter-18">
            <feGaussianBlur stdDeviation="1.5" in="SourceAlpha" result="shadowBlurInner1"></feGaussianBlur>
            <feOffset dx="2" dy="2" in="shadowBlurInner1" result="shadowOffsetInner1"></feOffset>
            <feComposite in="shadowOffsetInner1" in2="SourceAlpha" operator="arithmetic" k2="-1" k3="1" result="shadowInnerInner1"></feComposite>
            <feColorMatrix values="0 0 0 0 0   0 0 0 0 0   0 0 0 0 0  0 0 0 0.5 0" type="matrix" in="shadowInnerInner1"></feColorMatrix>
        </filter>
        <linearGradient x1="100%" y1="50%" x2="0%" y2="50%" id="linearGradient-19">
            <stop stop-color="#A8B0B5" offset="0%"></stop>
            <stop stop-color="#E5F3FF" offset="100%"></stop>
        </linearGradient>
        <linearGradient x1="100%" y1="50%" x2="0.501478041%" y2="50%" id="linearGradient-20">
            <stop stop-color="#1E1D62" offset="0%"></stop>
            <stop stop-color="#577392" offset="100%"></stop>
        </linearGradient>
        <path d="M8.59142048,22.459297 C8.59142048,24.1161512 7.24827473,25.459297 5.59142048,25.459297 L3.59142048,25.459297 C1.93456623,25.459297 0.591420478,24.1161512 0.591420478,22.459297 L0.591420478,6.45929698 L8.59142048,6.45929698 L8.59142048,22.459297 Z" id="path-21"></path>
        <radialGradient cx="30.6396837%" cy="21.2911503%" fx="30.6396837%" fy="21.2911503%" r="80.243569%" gradientTransform="translate(0.306397,0.212912),rotate(50.321213),scale(1.000000,0.934466),translate(-0.306397,-0.212912)" id="radialGradient-23">
            <stop stop-color="#FFFFFF" stop-opacity="0" offset="0%"></stop>
            <stop stop-color="#FFFFFF" stop-opacity="0.370438156" offset="100%"></stop>
        </radialGradient>
        <filter x="-11.5%" y="-11.5%" width="123.1%" height="123.1%" filterUnits="objectBoundingBox" id="filter-24">
            <feGaussianBlur stdDeviation="1" in="SourceGraphic"></feGaussianBlur>
        </filter>
        <radialGradient cx="45.8848835%" cy="-15.8523628%" fx="45.8848835%" fy="-15.8523628%" r="126.281718%" gradientTransform="translate(0.458849,-0.158524),scale(1.000000,0.999817),rotate(85.012736),scale(1.000000,0.934466),translate(-0.458849,0.158524)" id="radialGradient-25">
            <stop stop-color="#FFFFFF" stop-opacity="0" offset="0%"></stop>
            <stop stop-color="#FFFFFF" stop-opacity="0.979731206" offset="100%"></stop>
        </radialGradient>
        <linearGradient x1="13.9410527%" y1="20.9070964%" x2="87.6564285%" y2="79.8546939%" id="linearGradient-26">
            <stop stop-color="#D9DFEA" offset="0%"></stop>
            <stop stop-color="#CFDEEF" offset="57.458826%"></stop>
            <stop stop-color="#8A9FC0" offset="100%"></stop>
        </linearGradient>
    </defs>
    <g id="status/update" stroke="none" stroke-width="1" fill="none" fill-rule="evenodd">
        <g id="矩形" filter="url(#filter-1)">
            <g>
                <use fill="url(#linearGradient-2)" fill-rule="evenodd" xlink:href="#path-3"></use>
                <use fill="black" fill-opacity="1" filter="url(#filter-4)" xlink:href="#path-3"></use>
            </g>
            <g>
                <use fill="url(#linearGradient-5)" fill-rule="evenodd" xlink:href="#path-6"></use>
                <use fill="black" fill-opacity="1" filter="url(#filter-7)" xlink:href="#path-6"></use>
            </g>
            <g id="蒙版">
                <use fill="url(#linearGradient-8)" fill-rule="evenodd" xlink:href="#path-9"></use>
                <use fill="black" fill-opacity="1" filter="url(#filter-10)" xlink:href="#path-9"></use>
                <use stroke="#E0E0E0" stroke-width="0.5" xlink:href="#path-9"></use>
            </g>
            <g id="Combined-Shape" transform="translate(6.998971, 13.999000)">
                <rect id="蒙版" stroke-opacity="0.203398164" stroke="#000000" stroke-width="0.5" fill="url(#linearGradient-11)" opacity="0.802666243" x="0.00102914993" y="0.000999997465" width="82" height="58" rx="6.75"></rect>
                <path d="M26.774,0 L26.6685771,0.977225527 C26.6122458,1.49481977 26.8886319,1.99162754 27.3581232,2.21669405 L28.8528952,2.93326352 C29.3260765,3.16009894 29.8911244,3.06100275 30.2588778,2.68668704 L32.1364506,0.775610332 C32.5764978,0.32771077 33.2836422,0.284191656 33.77529,0.674752789 L34.7722907,1.46676225 C35.2581029,1.85268754 35.3794711,2.54049125 35.0550854,3.06938222 L33.6439889,5.37008834 C33.3717195,5.8140069 33.409253,6.38142185 33.7376231,6.78560915 L34.8593544,8.16633618 C35.1870587,8.56970387 35.7333006,8.72293099 36.2229857,8.54885039 L38.7439863,7.65264744 C39.3299916,7.44432553 39.9791903,7.70728347 40.2550343,8.26469741 L40.8188546,9.40404183 C41.0958525,9.96378763 40.9083198,10.6422879 40.38318,10.9803284 L38.1662805,12.4073809 C37.7251257,12.691359 37.5132758,13.2243595 37.6391135,13.7336983 L38.1036441,15.613925 C38.2263964,16.1107753 38.6445835,16.4792917 39.1529274,16.5385781 L41.8658827,16.8549813 C42.4632846,16.9246544 42.9221704,17.4169936 42.9497034,18.0178142 L42.9997425,19.1097592 C43.0010902,19.1391685 43.0013793,19.1686168 43.0006091,19.1980469 L42.9854244,19.7782993 C42.9760475,20.1366167 42.7046905,20.4335465 42.3486635,20.4750688 L39.3051068,20.8300289 C38.7761322,20.8917215 38.347312,21.2875272 38.2435289,21.8098769 L37.8392592,23.8446028 C37.7410534,24.3388815 37.9549826,24.8429587 38.3787208,25.1157255 L40.7005077,26.6102956 C41.2114177,26.9391762 41.4047666,27.5923972 41.1551781,28.1463801 L40.670409,29.2223665 C40.4079455,29.8049266 39.7424094,30.0886422 39.1403652,29.8746185 L36.7232736,29.0153546 C36.217784,28.8356556 35.654158,29.0051078 35.3315689,29.4337659 L34.0314123,31.1614202 C33.7283045,31.5641913 33.7023033,32.1113449 33.9658515,32.541044 L35.4268321,34.9230831 C35.7450454,35.4419103 35.6349367,36.115578 35.168095,36.5060907 L34.3165422,37.2184137 C33.8258016,37.6289177 33.1020316,37.593556 32.6536453,37.1371685 L30.8239697,35.2748437 C30.4495275,34.8937199 29.8715385,34.7986336 29.3947355,35.0397171 L27.4277253,36.0342869 C26.9715676,36.2649316 26.706127,36.7541537 26.7614307,37.2623055 L27.0616547,40.0208836 C27.1286252,40.6362353 26.7268733,41.2051481 26.1245675,41.3478737 L25.0912668,41.5927302 C24.4774443,41.7381849 23.8533223,41.3946152 23.6478997,40.7981785 L22.7848047,38.2922144 C22.6060543,37.7732193 22.1044121,37.4360315 21.5563425,37.4664815 L20.5691098,37.5213306 C20.5237577,37.5238503 20.4783006,37.5238503 20.4329485,37.5213306 L19.4457158,37.4664815 C18.8976462,37.4360315 18.396004,37.7732193 18.2172536,38.2922144 L17.3541586,40.7981785 C17.148736,41.3946152 16.524614,41.7381849 15.9107915,41.5927302 L14.8774908,41.3478737 C14.275185,41.2051481 13.8734331,40.6362353 13.9404036,40.0208836 L14.2406276,37.2623055 C14.2959313,36.7541537 14.0304907,36.2649316 13.574333,36.0342869 L11.6073228,35.0397171 C11.1305198,34.7986336 10.5525308,34.8937199 10.1780886,35.2748437 L8.34841304,37.1371685 C7.90002668,37.593556 7.17625668,37.6289177 6.68551609,37.2184137 L5.83396335,36.5060907 C5.36712159,36.115578 5.25701292,35.4419103 5.5752262,34.9230831 L7.03620685,32.541044 C7.29975502,32.1113449 7.27375384,31.5641913 6.97064601,31.1614202 L5.67048942,29.4337659 C5.34790025,29.0051078 4.78427433,28.8356556 4.27878471,29.0153546 L1.86169314,29.8746185 C1.2596489,30.0886422 0.594112824,29.8049266 0.331649308,29.2223665 L0.001,28.488 L-5.81479309e-14,26.8847461 C0.0825603568,26.7794488 0.183591557,26.6862276 0.301550564,26.6102956 L2.62333745,25.1157255 C3.04707567,24.8429587 3.26100487,24.3388815 3.16279907,23.8446028 L2.75852941,21.8098769 C2.65474633,21.2875272 2.22592612,20.8917215 1.69695153,20.8300289 L0.001,20.632 L0.001,16.753 L1.84913092,16.5385781 C2.35747477,16.4792917 2.77566189,16.1107753 2.89841421,15.613925 L3.3629448,13.7336983 C3.48878254,13.2243595 3.27693259,12.691359 2.83577777,12.4073809 L0.618878277,10.9803284 C0.0937385051,10.6422879 -0.0937941892,9.96378763 0.183203738,9.40404183 L0.747024032,8.26469741 C1.02286801,7.70728347 1.67206675,7.44432553 2.25807202,7.65264744 L4.77907256,8.54885039 C5.2687577,8.72293099 5.81499961,8.56970387 6.14270388,8.16633618 L7.26443515,6.78560915 C7.5928053,6.38142185 7.6303388,5.8140069 7.35806938,5.37008834 L5.94697287,3.06938222 C5.62258715,2.54049125 5.74395544,1.85268754 6.22976756,1.46676225 L7.2267683,0.674752789 C7.71841613,0.284191656 8.42556046,0.32771077 8.8656077,0.775610332 L10.7431805,2.68668704 C11.1109339,3.06100275 11.6759818,3.16009894 12.1491631,2.93326352 L13.6439351,2.21669405 C14.1134264,1.99162754 14.3898125,1.49481977 14.3334812,0.977225527 L14.227,0 L18.531,0 L18.5650293,0.0837074917 C18.7731404,0.531406014 19.2334867,0.814985436 19.7347572,0.791445366 C20.0427785,0.776257375 20.2982025,0.76866338 20.5010291,0.76866338 C20.7038558,0.76866338 20.9592798,0.776257375 21.2673011,0.791445366 C21.7989849,0.816413671 22.284628,0.495864507 22.4720761,0.000438001578 L26.774,0 Z M20.5010291,6.51530805 C13.5422312,6.51530805 7.90101084,12.1615081 7.90101084,19.1264488 C7.90101084,26.0913895 13.5422312,31.7375895 20.5010291,31.7375895 C27.4598271,31.7375895 33.1010475,26.0913895 33.1010475,19.1264488 C33.1010475,12.1615081 27.4598271,6.51530805 20.5010291,6.51530805 Z M20.5010291,12.8208784 C23.9804281,12.8208784 26.8010383,15.6439784 26.8010383,19.1264488 C26.8010383,22.6089191 23.9804281,25.4320191 20.5010291,25.4320191 C17.0216302,25.4320191 14.20102,22.6089191 14.20102,19.1264488 C14.20102,15.6439784 17.0216302,12.8208784 20.5010291,12.8208784 Z M20.5010291,15.5232657 C18.5128012,15.5232657 16.9010239,17.1364657 16.9010239,19.1264488 C16.9010239,21.1164318 18.5128012,22.7296318 20.5010291,22.7296318 C22.4892571,22.7296318 24.1010344,21.1164318 24.1010344,19.1264488 C24.1010344,17.1364657 22.4892571,15.5232657 20.5010291,15.5232657 Z" id="形状结合" fill-opacity="0.1" fill="url(#linearGradient-12)"></path>
                <path d="M26.774,0 L26.6685771,0.977225527 C26.6122458,1.49481977 26.8886319,1.99162754 27.3581232,2.21669405 L28.8528952,2.93326352 C29.0106223,3.00887532 29.1785568,3.04827251 29.345989,3.05333329 L29.4713017,3.05072016 C29.7626972,3.02973762 30.044355,2.90503787 30.2588778,2.68668704 L32.1364506,0.775610332 C32.3564742,0.551660551 32.6432721,0.428805882 32.9365201,0.4107588 L33.0624168,0.409451951 C33.3142966,0.419715129 33.5645838,0.507369446 33.77529,0.674752789 L34.7722907,1.46676225 C35.2581029,1.85268754 35.3794711,2.54049125 35.0550854,3.06938222 L33.6439889,5.37008834 C33.3717195,5.8140069 33.409253,6.38142185 33.7376231,6.78560915 L34.8593544,8.16633618 C35.1051326,8.46886195 35.4738382,8.63068364 35.8494158,8.61924638 L35.9747037,8.6089723 C36.0581863,8.59778538 36.1413716,8.57786383 36.2229857,8.54885039 L38.7439863,7.65264744 C38.8277013,7.62288717 38.912706,7.60274485 38.9977276,7.59170497 L39.1251137,7.58190753 L39.2515706,7.5853771 C39.6704843,7.61862443 40.0580029,7.8665446 40.2550343,8.26469741 L40.8188546,9.40404183 C41.0958525,9.96378763 40.9083198,10.6422879 40.38318,10.9803284 L38.1662805,12.4073809 C37.7251257,12.691359 37.5132758,13.2243595 37.6391135,13.7336983 L38.1036441,15.613925 C38.2263964,16.1107753 38.6445835,16.4792917 39.1529274,16.5385781 L41.8658827,16.8549813 C42.4632846,16.9246544 42.9221704,17.4169936 42.9497034,18.0178142 L43.00097,19.1538952 L42.9854244,19.7782993 C42.9760475,20.1366167 42.7046905,20.4335465 42.3486635,20.4750688 L39.3051068,20.8300289 C38.7761322,20.8917215 38.347312,21.2875272 38.2435289,21.8098769 L37.8392592,23.8446028 C37.7410534,24.3388815 37.9549826,24.8429587 38.3787208,25.1157255 L40.7005077,26.6102956 C41.2114177,26.9391762 41.4047666,27.5923972 41.1551781,28.1463801 L40.670409,29.2223665 C40.4779357,29.6495772 40.068699,29.916076 39.626698,29.9434247 L39.5054782,29.9448951 C39.3837225,29.9403184 39.260774,29.9174232 39.1403652,29.8746185 L36.7232736,29.0153546 C36.217784,28.8356556 35.654158,29.0051078 35.3315689,29.4337659 L34.0314123,31.1614202 C33.7283045,31.5641913 33.7023033,32.1113449 33.9658515,32.541044 L35.4268321,34.9230831 C35.7450454,35.4419103 35.6349367,36.115578 35.168095,36.5060907 L34.3165422,37.2184137 C33.8258016,37.6289177 33.1020316,37.593556 32.6536453,37.1371685 L30.8239697,35.2748437 C30.6055451,35.0525215 30.317858,34.9275315 30.0213965,34.9098247 L29.8939808,34.9088334 C29.7238471,34.916347 29.5536698,34.9593559 29.3947355,35.0397171 L27.4277253,36.0342869 C26.9715676,36.2649316 26.706127,36.7541537 26.7614307,37.2623055 L27.0616547,40.0208836 C27.1286252,40.6362353 26.7268733,41.2051481 26.1245675,41.3478737 L25.0912668,41.5927302 L24.9684921,41.6153708 L24.8462054,41.6253906 C24.3184553,41.6420709 23.8259326,41.3150903 23.6478997,40.7981785 L22.7848047,38.2922144 C22.6335544,37.8530647 22.2511212,37.5440848 21.8049944,37.4778554 L21.6818701,37.4658961 C21.6403862,37.4639722 21.5985017,37.4641392 21.5563425,37.4664815 L20.5691098,37.5213306 C20.5237577,37.5238503 20.4783006,37.5238503 20.4329485,37.5213306 L19.4457158,37.4664815 C18.8976462,37.4360315 18.396004,37.7732193 18.2172536,38.2922144 L17.3541586,40.7981785 C17.1898205,41.2753278 16.7575148,41.5906423 16.2768889,41.6232094 L16.1558529,41.6253906 C16.0746606,41.6228244 15.9926345,41.6121242 15.9107915,41.5927302 L14.8774908,41.3478737 C14.275185,41.2051481 13.8734331,40.6362353 13.9404036,40.0208836 L14.2406276,37.2623055 C14.2959313,36.7541537 14.0304907,36.2649316 13.574333,36.0342869 L11.6073228,35.0397171 C11.1305198,34.7986336 10.5525308,34.8937199 10.1780886,35.2748437 L8.34841304,37.1371685 C7.90002668,37.593556 7.17625668,37.6289177 6.68551609,37.2184137 L5.83396335,36.5060907 C5.36712159,36.115578 5.25701292,35.4419103 5.5752262,34.9230831 L7.03620685,32.541044 C7.29975502,32.1113449 7.27375384,31.5641913 6.97064601,31.1614202 L5.67048942,29.4337659 C5.45542998,29.1479938 5.13324308,28.9774244 4.79257261,28.9487081 L4.6641279,28.9446408 C4.53516304,28.9473271 4.40515712,28.9704299 4.27878471,29.0153546 L1.86169314,29.8746185 C1.78142057,29.903155 1.70001926,29.9228428 1.61859514,29.9341533 L1.49658009,29.9448951 C1.00955737,29.9632022 0.541620121,29.6884146 0.331649308,29.2223665 L0.001,28.488 L-5.75942072e-13,26.8847461 C0.0825603568,26.7794488 0.183591557,26.6862276 0.301550564,26.6102956 L2.62333745,25.1157255 C3.04707567,24.8429587 3.26100487,24.3388815 3.16279907,23.8446028 L2.75852941,21.8098769 C2.65474633,21.2875272 2.22592612,20.8917215 1.69695153,20.8300289 L0.001,20.632 L0.001,19.624 L1.81279311,19.8367612 C2.71631255,19.9421357 3.45882538,20.5846253 3.70007939,21.4501735 L3.73935732,21.615001 L4.14362699,23.649727 C4.31071298,24.4906859 3.97992817,25.3472739 3.30428666,25.8589467 L3.1646056,25.9565755 L0.842818714,27.4511456 C0.767127173,27.4998694 0.729073083,27.5870342 0.740544162,27.6724777 L0.758619186,27.7356101 L1.24338831,28.8115965 C1.28389257,28.9014991 1.3762331,28.9529695 1.47040865,28.9446923 L1.52673417,28.9323858 L3.94382574,28.0731219 C4.80723147,27.7661856 5.76409622,28.0205392 6.361765,28.7000936 L6.46950806,28.8324596 L7.76966464,30.5601139 C8.28307611,31.2423375 8.35840888,32.1528157 7.97730364,32.9052057 L7.88864524,33.0638716 L6.4276646,35.4459108 C6.38052116,35.5227753 6.38414259,35.6179915 6.4317411,35.6900304 L6.47557963,35.7390649 L7.32713237,36.4513879 C7.39983581,36.5122042 7.50015798,36.5201764 7.57989304,36.4776597 L7.63508104,36.4363423 L9.46475665,34.5740174 C10.1018274,33.9255786 11.0635654,33.7333838 11.8942857,34.0723989 L12.0585478,34.1473069 L14.0255581,35.1418767 C14.8016583,35.5342925 15.2735555,36.3391519 15.2468122,37.1980958 L15.2347574,37.3704996 L14.9345334,40.1290776 C14.9241983,40.2240407 14.9741422,40.3130317 15.0556258,40.3553533 L15.1080708,40.3748203 L16.1413715,40.6196768 C16.2360986,40.6421239 16.3321504,40.601681 16.3835512,40.523657 L16.4086658,40.4725353 L17.2717608,37.9665712 C17.5770769,37.0800974 18.4014688,36.4858941 19.3266402,36.4651266 L19.5011888,36.4680213 L20.5010291,36.5232204 L21.5008695,36.4680213 C22.4370045,36.416011 23.2985033,36.9550094 23.6670699,37.8038511 L23.7302975,37.9665712 L24.5933925,40.4725353 C24.625094,40.5645795 24.7106414,40.6241042 24.8040594,40.625838 L24.8606868,40.6196768 L25.8939875,40.3748203 C25.9869374,40.3527944 26.0540955,40.2759596 26.0667224,40.1850132 L26.0675249,40.1290776 L25.7673009,37.3704996 C25.673208,36.5059371 26.0907182,35.6715685 26.8253938,35.2257529 L26.9765002,35.1418767 L28.9435105,34.1473069 C29.7547364,33.7371307 30.7273592,33.8631621 31.4056936,34.4504351 L31.5373017,34.5740174 L33.3669773,36.4363423 C33.4334059,36.5039563 33.5324731,36.5216701 33.6159731,36.4871287 L33.6749259,36.4513879 L34.5264787,35.7390649 C34.5956415,35.6812103 34.6225242,35.589796 34.6003389,35.5063512 L34.5743937,35.4459108 L33.1134131,33.0638716 C32.6670087,32.3360368 32.6783538,31.4225179 33.1290889,30.7096576 L33.2323937,30.5601139 L34.5325502,28.8324596 C35.0835513,28.1002867 36.0220394,27.784809 36.8953593,28.0221157 L37.0582326,28.0731219 L39.4753241,28.9323858 C39.5682336,28.9654146 39.6693084,28.9344328 39.7285471,28.8607557 L39.75867,28.8115965 L40.2434391,27.7356101 C40.2804158,27.6535373 40.2648953,27.5597027 40.2087655,27.4942686 L40.1592396,27.4511456 L37.8374527,25.9565755 C37.1165104,25.4924938 36.7302238,24.6594607 36.8316071,23.8180203 L36.8584313,23.649727 L37.262701,21.615001 C37.4399685,20.7227974 38.1397607,20.0340237 39.0218252,19.8627366 L39.1892652,19.8367612 L41.9910291,19.509 L42.0007909,19.1555368 L41.9507518,18.0635918 C41.9466727,17.9745799 41.8914696,17.8984254 41.8129081,17.8649179 L41.7500411,17.848249 L39.0370858,17.5318458 C38.1721966,17.4309766 37.4511118,16.8368705 37.1807959,16.0200317 L37.132834,15.8537743 L36.6683034,13.9735476 C36.4542048,13.1069656 36.7787348,12.202642 37.4798222,11.6683373 L37.6250124,11.5665308 L39.8419119,10.1394784 C39.9197116,10.0893975 39.9574979,9.99896526 39.9432366,9.91172257 L39.9225936,9.84756892 L39.3587733,8.70822451 C39.3179069,8.62564338 39.2327903,8.57796128 39.1448155,8.581944 L39.0789452,8.59488016 L36.5579447,9.49108311 C35.7248012,9.78726143 34.8014468,9.56136773 34.1992464,8.92879458 L34.0832103,8.79689175 L32.961479,7.41616472 C32.4027946,6.72848603 32.308009,5.78045114 32.7054837,5.00081544 L32.7915505,4.84726066 L34.202647,2.54655454 C34.2507049,2.46819911 34.2459319,2.37100927 34.1960375,2.29867555 L34.1502768,2.24976845 L33.1532761,1.45775899 C33.0804383,1.39989718 32.9820597,1.39348272 32.9038981,1.43569958 L32.8497826,1.4764366 L30.9722098,3.38751331 C30.3465192,4.02436888 29.4061341,4.22223569 28.5834543,3.90528094 L28.4206158,3.83500324 L26.9258438,3.11843377 C26.1270578,2.73550872 25.6362841,1.91914289 25.6622932,1.04460378 L25.6744473,0.869031501 L25.769,0 L26.774,0 Z M20.5010291,12.8208784 C23.9804281,12.8208784 26.8010383,15.6439784 26.8010383,19.1264488 C26.8010383,22.5315309 24.1043957,25.3062224 20.7319894,25.4278605 L20.5010291,25.4320191 C17.0216302,25.4320191 14.20102,22.6089191 14.20102,19.1264488 C14.20102,15.7213667 16.8976626,12.9466751 20.2700689,12.825037 L20.5010291,12.8208784 Z M20.5010291,13.8208784 C17.5741125,13.8208784 15.20102,16.1960658 15.20102,19.1264488 C15.20102,22.0568318 17.5741125,24.4320191 20.5010291,24.4320191 C23.4279458,24.4320191 25.8010383,22.0568318 25.8010383,19.1264488 C25.8010383,16.1960658 23.4279458,13.8208784 20.5010291,13.8208784 Z M15.232,0 L15.327611,0.869031501 C15.4234523,1.7496592 14.9885928,2.59713144 14.231803,3.03618074 L14.0762145,3.11843377 L12.5814425,3.83500324 C11.7763784,4.2209379 10.8247825,4.08699548 10.1590544,3.50900877 L10.0298485,3.38751331 L8.1522757,1.4764366 C8.0870825,1.41008008 7.99023286,1.39165087 7.90748451,1.42396501 L7.8487822,1.45775899 L6.85178147,2.24976845 C6.77980818,2.30694346 6.75102891,2.3998972 6.77315318,2.48493918 L6.79941126,2.54655454 L8.21050778,4.84726066 C8.67374321,5.60253756 8.64282762,6.55479734 8.14612243,7.2752846 L8.04057926,7.41616472 L6.91884799,8.79689175 C6.36129646,9.48317597 5.45516658,9.77047357 4.61182322,9.543392 L4.44411359,9.49108311 L1.92311305,8.59488016 C1.8362961,8.56401717 1.74198944,8.58901044 1.68158496,8.65309419 L1.643285,8.70822451 L1.0794647,9.84756892 C1.03842733,9.93049552 1.0524463,10.0274969 1.10948719,10.0950322 L1.16014643,10.1394784 L3.37704592,11.5665308 C4.12762063,12.0496873 4.51244272,12.9300469 4.36944096,13.7998488 L4.33375494,13.9735476 L3.86922434,15.8537743 C3.66037525,16.6991085 2.980293,17.3397438 2.135942,17.5051757 L1.96497251,17.5318458 L0.001,17.761 L0.001,16.753 L1.84913092,16.5385781 C2.35747477,16.4792917 2.77566189,16.1107753 2.89841421,15.613925 L3.3629448,13.7336983 C3.48878254,13.2243595 3.27693259,12.691359 2.83577777,12.4073809 L0.618878277,10.9803284 C0.0937385051,10.6422879 -0.0937941892,9.96378763 0.183203738,9.40404183 L0.747024032,8.26469741 C0.944055443,7.8665446 1.33157398,7.61862443 1.75048772,7.5853771 L1.8769446,7.58190753 L2.00433065,7.59170497 C2.08935228,7.60274485 2.17435698,7.62288717 2.25807202,7.65264744 L4.77907256,8.54885039 C4.90149384,8.59237054 5.02744993,8.61543396 5.15264246,8.61924638 L5.27742127,8.61668646 C5.60863701,8.59298618 5.92423437,8.43524797 6.14270388,8.16633618 L7.26443515,6.78560915 C7.5928053,6.38142185 7.6303388,5.8140069 7.35806938,5.37008834 L5.94697287,3.06938222 C5.62258715,2.54049125 5.74395544,1.85268754 6.22976756,1.46676225 L7.2267683,0.674752789 C7.40235681,0.53526667 7.60543212,0.45114793 7.81401019,0.421043625 L7.93964149,0.409451951 L8.06553822,0.4107588 C8.35878619,0.428805882 8.64558408,0.551660551 8.8656077,0.775610332 L10.7431805,2.68668704 C10.9883494,2.93623085 11.3212048,3.06345487 11.6560693,3.05333329 L11.7815703,3.04307028 C11.9068308,3.0263105 12.0308678,2.98997237 12.1491631,2.93326352 L13.6439351,2.21669405 C14.1134264,1.99162754 14.3898125,1.49481977 14.3334812,0.977225527 L14.227,0 L15.232,0 Z M23.53,0 L23.4283528,0.296459423 C23.1046706,1.22866022 22.2061041,1.83663438 21.2180527,1.79023193 L20.8922519,1.7764013 L20.5010291,1.76866338 L20.1093011,1.77642562 L19.7816663,1.79034453 C18.8539372,1.83391144 18.003403,1.29792271 17.636011,0.455556883 L17.572886,0.294089629 L17.471,0 L18.531,0 L18.5698024,0.0938541385 C18.7624576,0.49858474 19.1622487,0.766784403 19.6104145,0.791014816 L19.7347572,0.791445366 L20.1573412,0.774358876 L20.5010291,0.76866338 L20.8447171,0.774358876 L21.2673011,0.791445366 L21.3916438,0.791014816 L21.5135477,0.778284149 C21.9442084,0.71136353 22.3140223,0.418064233 22.4720377,0.000539611068 L23.53,0 Z" id="形状结合" fill="#FFFFFF" opacity="0.0552357992"></path>
                <g id="path-13备份" fill-rule="nonzero">
                    <use fill="black" fill-opacity="1" filter="url(#filter-15)" xlink:href="#path-14"></use>
                    <use fill="url(#linearGradient-13)" xlink:href="#path-14"></use>
                </g>
            </g>
        </g>
        <g id="放大镜" transform="translate(43.000000, 29.000000)" filter="url(#filter-16)">
            <g id="椭圆形" opacity="0.423223586">
                <use fill-opacity="0.293979458" fill="#0081FF" fill-rule="evenodd" xlink:href="#path-17"></use>
                <use fill="black" fill-opacity="1" filter="url(#filter-18)" xlink:href="#path-17"></use>
            </g>
            <g id="编组-4" transform="translate(35.951905, 38.361986) rotate(-42.000000) translate(-35.951905, -38.361986) translate(31.451905, 25.361986)">
                <rect id="矩形" fill="url(#linearGradient-19)" x="1.85197156" y="0.662001176" width="6" height="9"></rect>
                <mask id="mask-22" fill="white">
                    <use xlink:href="#path-21"></use>
                </mask>
                <use id="形状结合" fill="url(#linearGradient-20)" xlink:href="#path-21"></use>
            </g>
            <circle id="椭圆形" fill="url(#radialGradient-23)" opacity="0.711216518" filter="url(#filter-24)" cx="19.0712024" cy="19.0252967" r="13"></circle>
            <path d="M7.25240959,9.0094905 C11.8266754,4.1366166 19.528398,3.63540588 24.4546883,7.89000503 C24.6419185,8.05170669 24.8224449,8.21795079 24.9962557,8.38842597 C20.0618183,4.64283027 12.7676085,5.2849792 8.3673893,9.97244466 C3.96720265,14.6598755 4.06381339,21.6850794 8.46253427,26.0001044 C8.26823818,25.8527457 8.0770181,25.6979282 7.88980629,25.5362424 C2.96351595,21.2816433 2.67814373,13.8823644 7.25240959,9.0094905 Z" id="形状结合" fill="url(#radialGradient-25)" opacity="0.531636083"></path>
            <path d="M17.5,0.5 C27.1649831,0.5 35,8.11115925 35,17.5 C35,26.8888407 27.1649831,34.5 17.5,34.5 C7.83501688,34.5 0,26.8888407 0,17.5 C0,8.11115925 7.83501688,0.5 17.5,0.5 Z M17.5,3.5 C9.49187113,3.5 3,9.7680135 3,17.5 C3,25.2319865 9.49187113,31.5 17.5,31.5 C25.5081289,31.5 32,25.2319865 32,17.5 C32,9.7680135 25.5081289,3.5 17.5,3.5 Z" id="形状结合" fill="url(#linearGradient-26)"></path>
        </g>
    </g>
</svg>