<?xml version="1.0" encoding="UTF-8"?>
<svg width="32px" height="32px" viewBox="0 0 32 32" version="1.1" xmlns="http://www.w3.org/2000/svg" xmlns:xlink="http://www.w3.org/1999/xlink">
    <title>device/Wi-Fi</title>
    <defs>
        <filter x="-14.3%" y="-16.7%" width="128.6%" height="133.3%" filterUnits="objectBoundingBox" id="filter-1">
            <feOffset dx="0" dy="1" in="SourceAlpha" result="shadowOffsetOuter1"></feOffset>
            <feGaussianBlur stdDeviation="0.5" in="shadowOffsetOuter1" result="shadowBlurOuter1"></feGaussianBlur>
            <feColorMatrix values="0 0 0 0 0   0 0 0 0 0   0 0 0 0 0  0 0 0 0.15 0" type="matrix" in="shadowBlurOuter1" result="shadowMatrixOuter1"></feColorMatrix>
            <feMerge>
                <feMergeNode in="shadowMatrixOuter1"></feMergeNode>
                <feMergeNode in="SourceGraphic"></feMergeNode>
            </feMerge>
        </filter>
        <linearGradient x1="50%" y1="100%" x2="50%" y2="0%" id="linearGradient-2">
            <stop stop-color="#B4B4BA" offset="0%"></stop>
            <stop stop-color="#DDDDE5" offset="100%"></stop>
        </linearGradient>
        <polygon id="path-3" points="11 20 17 20 17 23 11 23"></polygon>
        <filter x="-16.7%" y="-33.3%" width="133.3%" height="166.7%" filterUnits="objectBoundingBox" id="filter-4">
            <feGaussianBlur stdDeviation="0.5" in="SourceAlpha" result="shadowBlurInner1"></feGaussianBlur>
            <feOffset dx="0" dy="1" in="shadowBlurInner1" result="shadowOffsetInner1"></feOffset>
            <feComposite in="shadowOffsetInner1" in2="SourceAlpha" operator="arithmetic" k2="-1" k3="1" result="shadowInnerInner1"></feComposite>
            <feColorMatrix values="0 0 0 0 0.305544245   0 0 0 0 0.316030326   0 0 0 0 0.533769248  0 0 0 0.178130463 0" type="matrix" in="shadowInnerInner1"></feColorMatrix>
        </filter>
        <linearGradient x1="50%" y1="28.527832%" x2="50%" y2="77.8686523%" id="linearGradient-5">
            <stop stop-color="#E4E4E4" offset="0%"></stop>
            <stop stop-color="#B4B4BA" offset="100%"></stop>
        </linearGradient>
        <linearGradient x1="51.9130162%" y1="75.5102041%" x2="50%" y2="24.4897959%" id="linearGradient-6">
            <stop stop-color="#E4E4E4" offset="0%"></stop>
            <stop stop-color="#B4B4BA" offset="100%"></stop>
        </linearGradient>
        <linearGradient x1="38.9513531%" y1="73.964497%" x2="66.3663468%" y2="26.035503%" id="linearGradient-7">
            <stop stop-color="#22C2EA" offset="0%"></stop>
            <stop stop-color="#51ECA1" offset="100%"></stop>
        </linearGradient>
        <linearGradient x1="50%" y1="0%" x2="50%" y2="98.1564892%" id="linearGradient-8">
            <stop stop-color="#27EC95" offset="0%"></stop>
            <stop stop-color="#1188EE" offset="100%"></stop>
        </linearGradient>
        <path d="M1.46668429e-26,2.24331781 C1.584703e-26,1.0043676 1.00329962,1.87718623e-36 2.25053558,5.44941036e-36 L23.7494641,6.70247604e-35 C24.9924005,7.05846703e-35 25.9999997,1.00632798 25.9999997,2.24331781 L26,15.7566822 C26,16.9956324 24.9967004,18 23.7494644,18 L2.25053562,18 C1.00759912,18 6.16094931e-28,16.993672 1.7944146e-27,15.7566822 L1.46668429e-26,2.24331781 Z" id="path-9"></path>
        <linearGradient x1="50%" y1="0%" x2="50%" y2="100%" id="linearGradient-11">
            <stop stop-color="#FFFFFF" offset="0%"></stop>
            <stop stop-color="#FFFFFF" stop-opacity="0.58088396" offset="100%"></stop>
        </linearGradient>
    </defs>
    <g id="device/Wi-Fi" stroke="none" stroke-width="1" fill="none" fill-rule="evenodd">
        <g id="矩形" filter="url(#filter-1)" transform="translate(2.000000, 4.000000)">
            <g>
                <use fill="url(#linearGradient-2)" fill-rule="evenodd" xlink:href="#path-3"></use>
                <use fill="black" fill-opacity="1" filter="url(#filter-4)" xlink:href="#path-3"></use>
            </g>
            <path d="M9.5,23 L18.5,23 C18.7761424,23 19,23.2238576 19,23.5 C19,23.7761424 18.7761424,24 18.5,24 L9.5,24 C9.22385763,24 9,23.7761424 9,23.5 C9,23.2238576 9.22385763,23 9.5,23 Z" fill="url(#linearGradient-5)"></path>
            <rect id="蒙版" fill="url(#linearGradient-6)" x="0" y="0" width="28" height="20" rx="3.125"></rect>
            <g id="5" transform="translate(1.000000, 1.000000)">
                <mask id="mask-10" fill="white">
                    <use xlink:href="#path-9"></use>
                </mask>
                <use id="蒙版" stroke="url(#linearGradient-8)" stroke-width="0.5" fill="url(#linearGradient-7)" fill-rule="nonzero" xlink:href="#path-9"></use>
                <path d="M13.7212726,12.2771385 C14.1267806,12.6698318 14.1267806,13.3071538 13.7212726,13.7030659 C13.3124406,14.098978 12.6576448,14.098978 12.2488129,13.7030659 C11.8433048,13.3103726 11.8433048,12.6730506 12.2488129,12.2803573 C12.6576448,11.8844452 13.3157645,11.8844452 13.7212726,12.2771385 Z M15.9017094,10.4713929 C16.194207,10.7514284 16.1908832,11.2149352 15.9017094,11.4949706 C15.6158594,11.775006 15.1438747,11.775006 14.8480532,11.4949706 C13.8243115,10.5100185 12.1723647,10.5100185 11.148623,11.4949706 C10.8561253,11.7782249 10.3841406,11.7782249 10.0916429,11.4949706 C9.79914528,11.2117164 9.79914528,10.7546471 10.0916429,10.4713929 C11.6970561,8.9167136 14.2962963,8.9167136 15.9017094,10.4713929 Z M17.84283,8.59483382 C18.1320038,8.87486925 18.1320038,9.33837613 17.84283,9.61841153 C17.5536562,9.89844693 17.0783476,9.89844693 16.7858499,9.61841153 C14.6918329,7.60022533 11.3081671,7.60022533 9.21415004,9.61841153 C8.92497625,9.89844693 8.44966764,9.89844693 8.15717,9.61841153 C7.86799622,9.3383761 7.86467236,8.87808804 8.15717,8.59483382 C10.8328585,6.00692041 15.1671415,6.00692041 17.84283,8.59483382 Z M6.21937323,6.71827472 C9.96201329,3.09390843 16.0346629,3.09390843 19.7806268,6.71827472 C20.0731244,7.00152893 20.0731244,7.46181702 19.7806268,7.74185242 C19.491453,8.02510664 19.0161443,8.02188782 18.7236467,7.74185242 C15.5560304,4.68399453 10.4439696,4.68399453 7.27635326,7.74185242 C6.98385566,8.02188782 6.50854701,8.02510664 6.21937323,7.74185242 C5.92687559,7.45859821 5.92687559,6.99831012 6.21937323,6.71827472 Z" id="形状结合" fill="url(#linearGradient-11)" fill-rule="nonzero" mask="url(#mask-10)"></path>
            </g>
        </g>
    </g>
</svg>