<?xml version="1.0" encoding="UTF-8"?>
<svg width="16px" height="16px" viewBox="0 0 16 16" version="1.1" xmlns="http://www.w3.org/2000/svg" xmlns:xlink="http://www.w3.org/1999/xlink">
    <title>network-none-symbolic</title>
    <g id="network-none-symbolic" stroke="none" stroke-width="1" fill="none" fill-rule="evenodd">
        <g id="network-wired-symbolic-connecting3" transform="translate(1.3658, 1.3289)" fill="#FFFFFF">
            <path d="M4.67016825,7.47726377 L5.8015391,8.60863462 C6.11395853,8.92105405 6.11395853,9.42758603 5.8015391,9.74000547 L4.60407091,10.9374737 C4.46452044,11.0770241 4.27831221,11.1600673 4.08124143,11.1706395 L2.77667572,11.2406255 L2.77667572,11.2406255 L0.877340258,13.139961 C0.676636537,13.3406647 0.351231512,13.3406647 0.150527791,13.139961 C-0.0501759302,12.9392572 -0.0501759302,12.6138522 0.150527791,12.4131485 L2.04986326,10.513813 L2.04986326,10.513813 L2.11032106,9.20115121 C2.11949715,9.00191956 2.20276107,8.81330009 2.34378847,8.6722727 L3.5387974,7.47726377 C3.85121683,7.16484433 4.35774881,7.16484433 4.67016825,7.47726377 Z M7.46560122,4.67016825 L8.59697207,5.8015391 C8.9093915,6.11395853 9.41592348,6.11395853 9.72834292,5.8015391 L10.9258111,4.60407091 C11.0653616,4.46452044 11.1484047,4.27831221 11.158977,4.08124143 L11.2289629,2.77667572 L11.2289629,2.77667572 L13.1282984,0.877340258 C13.3290021,0.676636537 13.3290021,0.351231512 13.1282984,0.150527791 C12.9275947,-0.0501759302 12.6021897,-0.0501759302 12.4014859,0.150527791 L10.5021505,2.04986326 L10.5021505,2.04986326 L9.18948866,2.11032106 C8.99025701,2.11949715 8.80163754,2.20276107 8.66061015,2.34378847 L7.46560122,3.5387974 C7.15318178,3.85121683 7.15318178,4.35774881 7.46560122,4.67016825 Z" id="形状结合"></path>
        </g>
    </g>
</svg>