<?xml version="1.0" encoding="UTF-8"?>
<svg width="16px" height="16px" viewBox="0 0 16 16" version="1.1" xmlns="http://www.w3.org/2000/svg" xmlns:xlink="http://www.w3.org/1999/xlink">
    <title>network-disabled-symbolic</title>
    <g id="network-disabled-symbolic" stroke="none" stroke-width="1" fill="none" fill-rule="evenodd">
        <g>
            <polygon id="路径" opacity="0" points="0 16 16 16 16 0 0 0"></polygon>
            <path d="M5.3568,8.515 C5.1658,8.542 4.9848,8.635 4.8538,8.775 L3.6638,9.963 C3.5028,10.118 3.4068,10.336 3.4028,10.558 L3.4028,11.745 L3.4028,11.764 L1.1738,13.964 C0.9408,14.197 0.9408,14.585 1.1738,14.818 C1.4088,15.05 1.7968,15.05 2.0308,14.818 L4.2578,12.6 L5.4498,12.6 C5.6708,12.594 5.8898,12.499 6.0448,12.339 L7.2348,11.151 C7.5418,10.836 7.5418,10.277 7.2348,9.963 L6.0448,8.775 C5.8688,8.593 5.6088,8.494 5.3568,8.515 M10.6429,7.4687 C10.8329,7.4427 11.0129,7.3487 11.1459,7.2087 L12.3349,6.0217 C12.4969,5.8657 12.5919,5.6487 12.5959,5.4267 L12.5959,4.2387 L12.5959,4.2207 L14.8239,2.0197 C15.0579,1.7877 15.0579,1.3987 14.8239,1.1657 C14.5909,0.9337 14.2019,0.9337 13.9679,1.1657 L11.7399,3.3837 L10.5499,3.3837 C10.3279,3.3897 10.1089,3.4857 9.9539,3.6457 L8.7629,4.8327 C8.4569,5.1477 8.4569,5.7067 8.7629,6.0217 L9.9539,7.2087 C10.1299,7.3917 10.3899,7.4897 10.6429,7.4687" id="形状" fill="#FFFFFF"></path>
            <path d="M9.5053,10.4832 L12.5003,13.4782 M12.5007,10.4832 L9.5057,13.4782" id="形状" stroke="#FFFFFF" stroke-width="1.003" stroke-linecap="round"></path>
        </g>
    </g>
</svg>