<?xml version="1.0" encoding="UTF-8"?>
<svg width="16px" height="16px" viewBox="0 0 16 16" version="1.1" xmlns="http://www.w3.org/2000/svg" xmlns:xlink="http://www.w3.org/1999/xlink">
    <title>ICON / TrayICON / wifi 2</title>
    <g id="任务栏/快捷面板" stroke="none" stroke-width="1" fill="none" fill-rule="evenodd">
        <g id="快捷面板调整" transform="translate(-2004, -1286)" fill="#FFFFFF" fill-rule="nonzero">
            <g id="Dock_EMode备份-2" transform="translate(62, 1274)">
                <g id="taskbar/efficient_mode/tray_light" transform="translate(1644, 12)">
                    <g id="ICON-/-TrayICON-/-wifi" transform="translate(299, 1.1464)">
                        <path d="M13.1464466,4.4408921e-16 L13.8535534,0.707106781 L13.207,1.354 L14.8535534,3 L14.1464466,3.70710678 L12.5,2.061 L10.617,3.943 L12.8383524,5.98542614 L12.1616476,6.72168064 L9.909,4.651 L7.16022694,7.40111516 C7.68657759,8.07839473 8,8.9293722 8,9.85355339 C8,12.0626924 6.209139,13.8535534 4,13.8535534 C1.790861,13.8535534 0,12.0626924 0,9.85355339 C0,7.64441439 1.790861,5.85355339 4,5.85355339 C4.92454548,5.85355339 5.77582951,6.16722293 6.45323904,6.69394897 L13.1464466,4.4408921e-16 Z M4,7.05355339 C2.4536027,7.05355339 1.2,8.30715609 1.2,9.85355339 C1.2,11.3999507 2.4536027,12.6535534 4,12.6535534 C5.5463973,12.6535534 6.8,11.3999507 6.8,9.85355339 C6.8,8.30715609 5.5463973,7.05355339 4,7.05355339 Z" id="形状结合"></path>
                    </g>
                </g>
            </g>
        </g>
    </g>
</svg>