<?xml version="1.0" encoding="iso-8859-1"?>
<!-- Generator: Adobe Illustrator 18.0.0, SVG Export Plug-In . SVG Version: 6.00 Build 0)  -->
<!DOCTYPE svg PUBLIC "-//W3C//DTD SVG 1.1//EN" "http://www.w3.org/Graphics/SVG/1.1/DTD/svg11.dtd">
<svg version="1.1" id="Capa_1" xmlns="http://www.w3.org/2000/svg" xmlns:xlink="http://www.w3.org/1999/xlink" x="0px" y="0px"
	 viewBox="0 0 512 512" style="enable-background:new 0 0 512 512;" xml:space="preserve">
<g>
	<path d="M448,224c0-17.672-14.328-32-32-32s-32,14.328-32,32c0,70.578-57.422,128-128,128s-128-57.422-128-128
		c0-17.672-14.328-32-32-32s-32,14.328-32,32c0,94.945,69.336,173.801,160,189.109V448h-16c-17.672,0-32,14.328-32,32v32h160v-32
		c0-17.672-14.328-32-32-32h-16v-34.891C378.664,397.801,448,318.945,448,224z" style="fill-opacity:1;fill:#ffffff"/>
	<path d="M352,96c0-53.02-42.98-96-96-96s-96,42.98-96,96v48h192V96z" style="fill-opacity:1;fill:#ffffff"/>
	<path d="M256,320c53.02,0,96-42.98,96-96v-48H160v48C160,277.02,202.98,320,256,320z" style="fill-opacity:1;fill:#ffffff"/>
</g>
<g>
</g>
<g>
</g>
<g>
</g>
<g>
</g>
<g>
</g>
<g>
</g>
<g>
</g>
<g>
</g>
<g>
</g>
<g>
</g>
<g>
</g>
<g>
</g>
<g>
</g>
<g>
</g>
<g>
</g>
</svg>
