<?xml version="1.0" encoding="UTF-8" standalone="no"?>
<svg
   height="48"
   viewBox="0 0 48 48"
   width="48"
   version="1.1"
   id="svg6"
   sodipodi:docname="remote.svg"
   inkscape:version="1.1 (c4e8f9ed74, 2021-05-24)"
   xmlns:inkscape="http://www.inkscape.org/namespaces/inkscape"
   xmlns:sodipodi="http://sodipodi.sourceforge.net/DTD/sodipodi-0.dtd"
   xmlns="http://www.w3.org/2000/svg"
   xmlns:svg="http://www.w3.org/2000/svg">
  <defs
     id="defs10" />
  <sodipodi:namedview
     id="namedview8"
     pagecolor="#ffffff"
     bordercolor="#666666"
     borderopacity="1.0"
     inkscape:pageshadow="2"
     inkscape:pageopacity="0.0"
     inkscape:pagecheckerboard="true"
     showgrid="false"
     inkscape:zoom="13.75"
     inkscape:cx="13.854545"
     inkscape:cy="24"
     inkscape:window-width="1920"
     inkscape:window-height="994"
     inkscape:window-x="0"
     inkscape:window-y="0"
     inkscape:window-maximized="1"
     inkscape:current-layer="svg6" />
  <path
     d="M0 0h48v48H0z"
     fill="none"
     id="path2" />
  <path
     d="M30 18H18c-1.11 0-2 .9-2 2v24c0 1.1.89 2 2 2h12c1.11 0 2-.9 2-2V20c0-1.1-.89-2-2-2zm-6 12c-2.21 0-4-1.79-4-4s1.79-4 4-4 4 1.79 4 4-1.79 4-4 4zm-9.9-17.9l2.83 2.83C18.74 13.12 21.24 12 24 12s5.26 1.12 7.07 2.93l2.83-2.83C31.37 9.57 27.87 8 24 8s-7.37 1.57-9.9 4.1zM24 0C17.93 0 12.43 2.46 8.44 6.44l2.83 2.83C14.53 6.01 19.03 4 24 4s9.47 2.01 12.73 5.27l2.83-2.83C35.57 2.46 30.07 0 24 0z"
     id="path4"
     style="fill-opacity:1;fill:#ffffff" />
</svg>
