<?xml version="1.0" encoding="UTF-8" standalone="no"?>
<svg
   enable-background="new 0 0 48 48"
   height="48px"
   id="Layer_1"
   version="1.1"
   viewBox="0 0 48 48"
   width="48px"
   xml:space="preserve"
   sodipodi:docname="tv.svg"
   inkscape:version="1.1 (c4e8f9ed74, 2021-05-24)"
   xmlns:inkscape="http://www.inkscape.org/namespaces/inkscape"
   xmlns:sodipodi="http://sodipodi.sourceforge.net/DTD/sodipodi-0.dtd"
   xmlns="http://www.w3.org/2000/svg"
   xmlns:svg="http://www.w3.org/2000/svg"><defs
     id="defs7" /><sodipodi:namedview
     id="namedview5"
     pagecolor="#ffffff"
     bordercolor="#666666"
     borderopacity="1.0"
     inkscape:pageshadow="2"
     inkscape:pageopacity="0.0"
     inkscape:pagecheckerboard="true"
     showgrid="false"
     inkscape:zoom="13.75"
     inkscape:cx="10.981818"
     inkscape:cy="24"
     inkscape:window-width="1920"
     inkscape:window-height="994"
     inkscape:window-x="0"
     inkscape:window-y="0"
     inkscape:window-maximized="1"
     inkscape:current-layer="Layer_1" /><path
     clip-rule="evenodd"
     d="M46,37H2c-0.553,0-1-0.447-1-1V8c0-0.552,0.447-1,1-1h44c0.553,0,1,0.448,1,1v28  C47,36.553,46.553,37,46,37z M45,9H3v26h42V9z M21,16c0.214,0,0.4,0.082,0.563,0.196l7.771,4.872C29.72,21.205,30,21.566,30,22  c0,0.325-0.165,0.601-0.405,0.783l-7.974,4.981C21.449,27.904,21.238,28,21,28c-0.553,0-1-0.447-1-1V17C20,16.448,20.447,16,21,16z   M15,39h18c0.553,0,1,0.447,1,1s-0.447,1-1,1H15c-0.553,0-1-0.447-1-1S14.447,39,15,39z"
     fill-rule="evenodd"
     id="path2"
     style="fill:#ffffff;fill-opacity:1" /></svg>
