<?xml version="1.0" encoding="UTF-8"?>
<svg width="16px" height="16px" viewBox="0 0 16 16" version="1.1" xmlns="http://www.w3.org/2000/svg" xmlns:xlink="http://www.w3.org/1999/xlink">
    <!-- Generator: Sketch 58 (84663) - https://sketch.com -->
    <title>app</title>
    <desc>Created with Sketch.</desc>
    <g id="组件" stroke="none" stroke-width="1" fill="none" fill-rule="evenodd">
        <g id="应用备份-2px" fill="#C5CFE0">
            <g id="编组" transform="translate(0.000000, 0.000000)">
                <path d="M3,1 L11,1 C12.0543618,1 12.9181651,1.81587779 12.9945143,2.85073766 L13,3 L13,6.788 L11.75,6.0669873 C11.6210829,5.99255697 11.4672363,5.98015191 11.3300094,6.02977213 L11.25,6.0669873 L7.78589838,8.0669873 C7.63119785,8.1563037 7.53589838,8.32136721 7.53589838,8.5 L7.53589838,8.5 L7.53589838,12.5 C7.53589838,12.6786328 7.63119785,12.8436963 7.78589838,12.9330127 L7.78589838,12.9330127 L11.25,14.9330127 C11.2767043,14.9484304 11.3044782,14.9611867 11.3329525,14.9712817 C11.2732152,14.98245 11.2116365,14.9899125 11.1492623,14.9945143 L11,15 L3,15 C1.9456382,15 1.08183488,14.1841222 1.00548574,13.1492623 L1,13 L1,3 C1,1.9456382 1.81587779,1.08183488 2.85073766,1.00548574 L3,1 L11,1 Z M4.5,8 L3.5,8 L3.41012437,8.00805567 C3.17687516,8.05039163 3,8.25454011 3,8.5 C3,8.74545989 3.17687516,8.94960837 3.41012437,8.99194433 L3.5,9 L4.5,9 L4.58987563,8.99194433 C4.82312484,8.94960837 5,8.74545989 5,8.5 C5,8.22385763 4.77614237,8 4.5,8 Z M5.5,6 L3.5,6 L3.41012437,6.00805567 C3.17687516,6.05039163 3,6.25454011 3,6.5 C3,6.74545989 3.17687516,6.94960837 3.41012437,6.99194433 L3.5,7 L5.5,7 L5.58987563,6.99194433 C5.82312484,6.94960837 6,6.74545989 6,6.5 C6,6.22385763 5.77614237,6 5.5,6 Z M8.5,4 L3.5,4 L3.41012437,4.00805567 C3.17687516,4.05039163 3,4.25454011 3,4.5 C3,4.74545989 3.17687516,4.94960837 3.41012437,4.99194433 L3.5,5 L8.5,5 L8.58987563,4.99194433 C8.82312484,4.94960837 9,4.74545989 9,4.5 C9,4.22385763 8.77614237,4 8.5,4 Z" id="形状结合"></path>
                <g id="编组-4" transform="translate(8.000000, 7.000000)">
                    <path d="M3.88088958,0.307411518 L4,0.366025404 L5.96410162,1.5 C6.23912479,1.65878471 6.42027961,1.93726855 6.45714088,2.24811259 L6.46410162,2.3660254 L6.46410162,4.6339746 C6.46410162,4.95154401 6.31350494,5.2476706 6.06273674,5.43501542 L5.96410162,5.5 L4,6.6339746 C3.72927406,6.79027829 3.40357871,6.80981625 3.11911042,6.69258848 L3,6.6339746 L1.03589838,5.5 C0.760875206,5.34121529 0.579720394,5.06273145 0.542859118,4.75188741 L0.535898385,4.6339746 L0.535898385,2.3660254 C0.535898385,2.04845599 0.686495065,1.7523294 0.937263259,1.56498458 L1.03589838,1.5 L3,0.366025404 C3.27072594,0.209721708 3.59642129,0.190183746 3.88088958,0.307411518 Z M5.2763932,2.0527864 L3.5,2.94098301 L1.7236068,2.0527864 C1.47661755,1.92929178 1.17628103,2.02940395 1.0527864,2.2763932 C0.92929178,2.52338245 1.02940395,2.82371897 1.2763932,2.9472136 L2.99989838,3.80835027 L3,6 C3,6.27614237 3.22385763,6.5 3.5,6.5 C3.77614237,6.5 4,6.27614237 4,6 L3.99989838,3.80835027 L5.7236068,2.9472136 C5.97059605,2.82371897 6.07070822,2.52338245 5.9472136,2.2763932 C5.82371897,2.02940395 5.52338245,1.92929178 5.2763932,2.0527864 Z" id="形状结合"></path>
                </g>
            </g>
        </g>
    </g>
</svg>