<?xml version="1.0" encoding="UTF-8"?>
<svg width="16px" height="16px" viewBox="0 0 16 16" version="1.1" xmlns="http://www.w3.org/2000/svg" xmlns:xlink="http://www.w3.org/1999/xlink">
    <title>k-dark</title>
    <g id="页面-1" stroke="none" stroke-width="1" fill="none" fill-rule="evenodd">
        <path d="M9.52374144,0.999835795 C9.50813207,1.01773256 9.5,1.03661695 9.5,1.05651623 L9.5,4.94456453 C9.5,5.25132307 9.72385763,5.5 10,5.5 L14,5.5 L14,13 C14,14.1045695 13.1045695,15 12,15 L4,15 C2.8954305,15 2,14.1045695 2,13 L2,3 C2,1.8954305 2.8954305,1 4,1 L9.52374144,0.999835795 Z M6.5,5 C6.22385763,5 6,5.22385763 6,5.5 L6,5.5 L6,11.5 C6,11.7761424 6.22385763,12 6.5,12 C6.77614237,12 7,11.7761424 7,11.5 L7,11.5 L7,10.153 L9.93113656,11.9838626 C10.1653186,12.1301957 10.4737871,12.0589802 10.6201202,11.8247982 C10.7664534,11.5906161 10.6952378,11.2821476 10.4610558,11.1358145 L10.4610558,11.1358145 L7.749,9.441 L10.1985197,7.59614146 C10.4190568,7.42995483 10.4631165,7.1164533 10.2969299,6.8959162 C10.1307433,6.67537909 9.81724174,6.63131932 9.59670463,6.79750595 L9.59670463,6.79750595 L7,8.753 L7,5.5 C7,5.22385763 6.77614237,5 6.5,5 Z" id="形状结合" fill="#C5CFE0" fill-rule="nonzero"></path>
        <path d="M11.3535534,1.35355339 L13.6464466,3.64644661 C13.8417088,3.84170876 13.8417088,4.15829124 13.6464466,4.35355339 C13.5526784,4.44732158 13.4255015,4.5 13.2928932,4.5 L11,4.5 C10.7238576,4.5 10.5,4.27614237 10.5,4 L10.5,1.70710678 C10.5,1.43096441 10.7238576,1.20710678 11,1.20710678 C11.1326082,1.20710678 11.2597852,1.2597852 11.3535534,1.35355339 Z" id="路径" fill="#C5CFE0" fill-rule="nonzero"></path>
    </g>
</svg>