<?xml version="1.0" encoding="UTF-8"?>
<svg width="16px" height="16px" viewBox="0 0 16 16" version="1.1" xmlns="http://www.w3.org/2000/svg" xmlns:xlink="http://www.w3.org/1999/xlink">
    <!-- Generator: Sketch 58 (84663) - https://sketch.com -->
    <title>x</title>
    <desc>Created with Sketch.</desc>
    <g id="组件" stroke="none" stroke-width="1" fill="none" fill-rule="evenodd">
        <g id="x2px" fill="#C5CFE0">
            <g id="日志-2">
                <g id="日志" transform="translate(2.000000, 0.000000)">
                    <path d="M7.52374144,0.999835795 C7.50813207,1.01773256 7.5,1.03661695 7.5,1.05651623 L7.5,4.94456453 C7.5,5.25132307 7.72385763,5.5 8,5.5 L12,5.5 L12,13 C12,14.1045695 11.1045695,15 10,15 L2,15 C0.8954305,15 1.3527075e-16,14.1045695 0,13 L0,3 C-1.3527075e-16,1.8954305 0.8954305,1 2,1 L7.52374144,0.999835795 Z M4.0343055,6.33859116 C3.83943736,6.20359511 3.57001296,6.22288026 3.39644661,6.39644661 L3.39644661,6.39644661 L3.33859116,6.4656945 C3.20359511,6.66056264 3.22288026,6.92998704 3.39644661,7.10355339 L3.39644661,7.10355339 L5.293,9 L3.39644661,10.8964466 C3.20118446,11.0917088 3.20118446,11.4082912 3.39644661,11.6035534 C3.59170876,11.7988155 3.90829124,11.7988155 4.10355339,11.6035534 L4.10355339,11.6035534 L6,9.707 L7.89644661,11.6035534 L7.9656945,11.6614088 C8.16056264,11.7964049 8.42998704,11.7771197 8.60355339,11.6035534 L8.60355339,11.6035534 L8.66140884,11.5343055 C8.79640489,11.3394374 8.77711974,11.070013 8.60355339,10.8964466 L8.60355339,10.8964466 L6.707,9 L8.60355339,7.10355339 C8.79881554,6.90829124 8.79881554,6.59170876 8.60355339,6.39644661 C8.40829124,6.20118446 8.09170876,6.20118446 7.89644661,6.39644661 L7.89644661,6.39644661 L6,8.293 L4.10355339,6.39644661 Z" id="形状结合"></path>
                    <path d="M9.35355339,1.35355339 L11.6464466,3.64644661 C11.8417088,3.84170876 11.8417088,4.15829124 11.6464466,4.35355339 C11.5526784,4.44732158 11.4255015,4.5 11.2928932,4.5 L9,4.5 C8.72385763,4.5 8.5,4.27614237 8.5,4 L8.5,1.70710678 C8.5,1.43096441 8.72385763,1.20710678 9,1.20710678 C9.13260824,1.20710678 9.2597852,1.2597852 9.35355339,1.35355339 Z" id="路径"></path>
                </g>
            </g>
        </g>
    </g>
</svg>