<?xml version="1.0" encoding="UTF-8"?>
<svg width="16px" height="16px" viewBox="0 0 16 16" version="1.1" xmlns="http://www.w3.org/2000/svg" xmlns:xlink="http://www.w3.org/1999/xlink">
    <title>dark-erase</title>
    <defs>
        <filter color-interpolation-filters="auto" id="filter-1">
            <feColorMatrix in="SourceGraphic" type="matrix" values="0 0 0 0 0.774103 0 0 0 0 0.813135 0 0 0 0 0.879671 0 0 0 1.000000 0"></feColorMatrix>
        </filter>
    </defs>
    <g id="dark-erase" stroke="none" stroke-width="1" fill="none" fill-rule="evenodd">
        <rect id="矩形" fill="#C5CFE0" x="7" y="15" width="9" height="1" rx="0.5"></rect>
        <g filter="url(#filter-1)" id="编组">
            <g transform="translate(8.499953, 7.499998) rotate(-150.000000) translate(-8.499953, -7.499998) translate(3.999953, 0.999998)">
                <rect id="矩形" x="-1.13686838e-13" y="1" width="7" height="10" rx="1"></rect>
                <path d="M7,0 C8.1045695,-2.02906125e-16 9,0.8954305 9,2 L9,11 C9,12.1045695 8.1045695,13 7,13 L2,13 C0.8954305,13 -1.13551567e-13,12.1045695 -1.13686838e-13,11 L-1.13686838e-13,2 C-1.13705112e-13,1.8507813 0.0163415146,1.70537936 0.0473325482,1.56548618 L2.758,0 L7,0 Z M7,1 L3.02596189,1 L0.999961894,2.169 L1,11 C1,11.5128358 1.38604019,11.9355072 1.88337887,11.9932723 L2,12 L7,12 C7.51283584,12 7.93550716,11.6139598 7.99327227,11.1166211 L8,11 L8,2 C8,1.44771525 7.55228475,1 7,1 Z" id="形状结合" fill="#C5CFE0"></path>
                <path d="M0,4 L9,4 L9,11 C9,12.1045695 8.1045695,13 7,13 L2,13 C0.8954305,13 1.3527075e-16,12.1045695 0,11 L0,4 L0,4 Z" id="矩形" fill="#C5CFE0"></path>
            </g>
        </g>
    </g>
</svg>