<?xml version="1.0" encoding="UTF-8"?>
<svg width="10px" height="10px" viewBox="0 0 10 10" version="1.1" xmlns="http://www.w3.org/2000/svg" xmlns:xlink="http://www.w3.org/1999/xlink">
    <!-- Generator: Sketch 58 (84663) - https://sketch.com -->
    <title>icon_hidden</title>
    <desc>Created with Sketch.</desc>
    <defs>
        <linearGradient x1="50%" y1="0%" x2="50%" y2="100%" id="linearGradient-1">
            <stop stop-color="#FF674A" offset="0%"></stop>
            <stop stop-color="#EC5783" offset="100%"></stop>
        </linearGradient>
        <circle id="path-2" cx="5" cy="5" r="5"></circle>
        <filter x="-125.0%" y="-65.0%" width="350.0%" height="350.0%" filterUnits="objectBoundingBox" id="filter-3">
            <feMorphology radius="0.5" operator="dilate" in="SourceAlpha" result="shadowSpreadOuter1"></feMorphology>
            <feOffset dx="0" dy="6" in="shadowSpreadOuter1" result="shadowOffsetOuter1"></feOffset>
            <feGaussianBlur stdDeviation="3" in="shadowOffsetOuter1" result="shadowBlurOuter1"></feGaussianBlur>
            <feComposite in="shadowBlurOuter1" in2="SourceAlpha" operator="out" result="shadowBlurOuter1"></feComposite>
            <feColorMatrix values="0 0 0 0 1   0 0 0 0 0.443137255   0 0 0 0 0.443137255  0 0 0 0.3 0" type="matrix" in="shadowBlurOuter1"></feColorMatrix>
        </filter>
    </defs>
    <g id="icon_hidden" stroke="none" stroke-width="1" fill="none" fill-rule="evenodd">
        <g id="编组备份-2">
            <g id="椭圆形">
                <use fill="black" fill-opacity="1" filter="url(#filter-3)" xlink:href="#path-2"></use>
                <circle stroke-opacity="0.1" stroke="#000000" stroke-width="0.5" fill="url(#linearGradient-1)" fill-rule="evenodd" cx="5" cy="5" r="5.25"></circle>
            </g>
        </g>
        <path d="M5,3 C6.1045695,3 7.1045695,3.66666667 8,5 C7.1045695,6.33333333 6.1045695,7 5,7 C3.8954305,7 2.8954305,6.33333333 2,5 C2.8954305,3.66666667 3.8954305,3 5,3 Z M5,4 C4.41157559,4 3.83160675,4.31117063 3.24803084,5 L3.24803084,5 L3.39385665,5.16437793 C3.92832694,5.73853023 4.46061096,6 5,6 L5,6 C4.44771525,6 4,5.55228475 4,5 C4,4.44771525 4.44771525,4 5,4 L5,4 Z M5.00407901,4.00000814 C5.55448753,4.00220613 6,4.44907556 6,5 C6,5.55228475 5.55228475,6 5,6 C5.59171224,5.99823296 6.17004738,5.6868769 6.75196916,5 C6.16839325,4.31117063 5.58842441,4 5,4 Z" id="形状结合" fill="#FFFFFF" fill-rule="nonzero"></path>
        <rect id="矩形" fill="#FFFFFF" transform="translate(5.000000, 5.000000) rotate(-45.000000) translate(-5.000000, -5.000000) " x="4.50000012" y="1.50000012" width="1" height="7"></rect>
    </g>
</svg>