<?xml version="1.0" encoding="UTF-8"?>
<svg width="16px" height="16px" viewBox="0 0 16 16" version="1.1" xmlns="http://www.w3.org/2000/svg" xmlns:xlink="http://www.w3.org/1999/xlink">
    <title>icon/tips-dark</title>
    <g id="icon/tips-dark" stroke="none" stroke-width="1" fill="none" fill-rule="evenodd">
        <path d="M10,15 L10,16 L7,16 L7,15 L10,15 Z M11,13 L11,14 L6,14 L6,13 L11,13 Z M8.50506535,0 C11.0465077,0 13.2567568,1.78008576 13.8508145,4.30534814 C14.4448721,6.83061052 13.2637226,9.27749548 11,10.4580466 L11,12 L6,12 L6,10.4580466 C3.73627744,9.27749548 2.56525861,6.83061052 3.15931623,4.30534814 C3.75337385,1.78008576 5.96362296,0 8.50506535,0 Z M8.50102691,1 C6.4210417,1 4.61214012,2.4678999 4.12606195,4.55022665 C3.63998379,6.6325534 4.59056943,8.42091201 6.44336843,9.39416275 L7,9.68037328 L7,11 L10,11 L10,9.68037328 L10.5329647,9.39416275 C12.3857637,8.42091201 13.36207,6.6325534 12.8759919,4.55022665 C12.3899137,2.4678999 10.5810121,1 8.50102691,1 Z M8,2 L8,3.2 C7.00588745,3.2 6.2,4.00588745 6.2,5 L5,5 C5,3.34314575 6.34314575,2 8,2 Z" id="形状结合" fill="#C5CFE0"></path>
    </g>
</svg>