<?xml version="1.0" encoding="UTF-8"?>
<svg width="14px" height="14px" viewBox="0 0 14 14" version="1.1" xmlns="http://www.w3.org/2000/svg" xmlns:xlink="http://www.w3.org/1999/xlink">
    <!-- Generator: Sketch 58 (84663) - https://sketch.com -->
    <title>partition_dark</title>
    <desc>Created with Sketch.</desc>
    <g id="组件" stroke="none" stroke-width="1" fill="none" fill-rule="evenodd">
        <g id="button/partition_dark" transform="translate(-11.000000, -11.000000)" fill="#C5CFE0">
            <g id="partition_dark" transform="translate(11.000000, 11.000000)">
                <path d="M7,0 L7,7 L14,7 C14,10.8659932 10.8659932,14 7,14 C3.13400675,14 0,10.8659932 0,7 C0,3.21454828 3.00478338,0.130901317 6.75935025,0.0040590183 L7,0 Z M7.77777778,-4.4408921e-15 C11.1378509,-4.4408921e-15 13.8758661,2.66334686 13.9958963,5.99411369 L14,6.22222222 L7.77777778,6.22222222 L7.77777778,-4.4408921e-15 Z M8.77777778,1.09564325 L8.77777778,5.22222222 L12.9043568,5.22222222 C12.5005824,3.1401032 10.8598968,1.49941758 8.77777778,1.09564325 Z" id="形状结合"></path>
            </g>
        </g>
    </g>
</svg>