<?xml version="1.0" encoding="UTF-8"?>
<svg width="40px" height="40px" viewBox="0 0 40 40" version="1.1" xmlns="http://www.w3.org/2000/svg" xmlns:xlink="http://www.w3.org/1999/xlink">
    <title>disk/40px/hardisk lock</title>
    <defs>
        <filter x="-26.0%" y="-21.7%" width="152.0%" height="143.3%" filterUnits="objectBoundingBox" id="filter-1">
            <feOffset dx="0" dy="1" in="SourceAlpha" result="shadowOffsetOuter1"></feOffset>
            <feGaussianBlur stdDeviation="1" in="shadowOffsetOuter1" result="shadowBlurOuter1"></feGaussianBlur>
            <feColorMatrix values="0 0 0 0 0   0 0 0 0 0   0 0 0 0 0  0 0 0 0.2 0" type="matrix" in="shadowBlurOuter1" result="shadowMatrixOuter1"></feColorMatrix>
            <feMerge>
                <feMergeNode in="shadowMatrixOuter1"></feMergeNode>
                <feMergeNode in="SourceGraphic"></feMergeNode>
            </feMerge>
        </filter>
        <linearGradient x1="0%" y1="50%" x2="100%" y2="50%" id="linearGradient-2">
            <stop stop-color="#3188EA" offset="0%"></stop>
            <stop stop-color="#26B1FF" offset="7.67656894%"></stop>
            <stop stop-color="#236CD7" offset="90.8839193%"></stop>
            <stop stop-color="#1745BE" offset="100%"></stop>
        </linearGradient>
        <radialGradient cx="50%" cy="0%" fx="50%" fy="0%" r="99.292652%" gradientTransform="translate(0.500000,0.000000),scale(0.240000,1.000000),rotate(90.000000),scale(1.000000,1.954695),translate(-0.500000,-0.000000)" id="radialGradient-3">
            <stop stop-color="#9299FF" stop-opacity="0.774912587" offset="0%"></stop>
            <stop stop-color="#CECCE5" offset="100%"></stop>
        </radialGradient>
        <linearGradient x1="50%" y1="0%" x2="50%" y2="100%" id="linearGradient-4">
            <stop stop-color="#3D82FF" offset="0%"></stop>
            <stop stop-color="#366DBF" offset="100%"></stop>
        </linearGradient>
        <radialGradient cx="30.9902133%" cy="23.38834%" fx="30.9902133%" fy="23.38834%" r="90.0973794%" gradientTransform="translate(0.309902,0.233883),rotate(58.246560),scale(1.000000,0.746594),translate(-0.309902,-0.233883)" id="radialGradient-5">
            <stop stop-color="#181818" offset="0%"></stop>
            <stop stop-color="#535353" offset="100%"></stop>
        </radialGradient>
        <filter x="-59.1%" y="-46.4%" width="218.2%" height="192.9%" filterUnits="objectBoundingBox" id="filter-6">
            <feOffset dx="0" dy="0" in="SourceAlpha" result="shadowOffsetOuter1"></feOffset>
            <feGaussianBlur stdDeviation="1.5" in="shadowOffsetOuter1" result="shadowBlurOuter1"></feGaussianBlur>
            <feColorMatrix values="0 0 0 0 0   0 0 0 0 0   0 0 0 0 0  0 0 0 0.3 0" type="matrix" in="shadowBlurOuter1" result="shadowMatrixOuter1"></feColorMatrix>
            <feMerge>
                <feMergeNode in="shadowMatrixOuter1"></feMergeNode>
                <feMergeNode in="SourceGraphic"></feMergeNode>
            </feMerge>
        </filter>
        <linearGradient x1="50%" y1="1.91%" x2="50%" y2="108.271704%" id="linearGradient-7">
            <stop stop-color="#FFFFFF" offset="0%"></stop>
            <stop stop-color="#B7D2FF" offset="100%"></stop>
        </linearGradient>
        <path d="M8.41666667,6 C8.09450056,6 7.83333333,5.73137085 7.83333333,5.4 L7.83333333,3.6 C7.83333333,2.2745166 6.78866442,1.2 5.5,1.2 C4.21133558,1.2 3.16666667,2.2745166 3.16666667,3.6 L3.16666667,5.4 C3.16666667,5.73137085 2.90549944,6 2.58333333,6 C2.26116723,6 2,5.73137085 2,5.4 L2,3.6 C2,1.6117749 3.56700338,0 5.5,0 C7.43299662,0 9,1.6117749 9,3.6 L9,5.4 C9,5.73137085 8.73883277,6 8.41666667,6 Z" id="path-8"></path>
        <filter x="-10.7%" y="-12.5%" width="121.4%" height="125.0%" filterUnits="objectBoundingBox" id="filter-9">
            <feGaussianBlur stdDeviation="0.5" in="SourceAlpha" result="shadowBlurInner1"></feGaussianBlur>
            <feOffset dx="0" dy="-0.5" in="shadowBlurInner1" result="shadowOffsetInner1"></feOffset>
            <feComposite in="shadowOffsetInner1" in2="SourceAlpha" operator="arithmetic" k2="-1" k3="1" result="shadowInnerInner1"></feComposite>
            <feColorMatrix values="0 0 0 0 0.602348933   0 0 0 0 0.717416371   0 0 0 0 0.869784148  0 0 0 0.6 0" type="matrix" in="shadowInnerInner1"></feColorMatrix>
        </filter>
        <linearGradient x1="50%" y1="11.7878885%" x2="50%" y2="112.590088%" id="linearGradient-10">
            <stop stop-color="#FFFFFF" offset="0%"></stop>
            <stop stop-color="#CFD8E7" offset="100%"></stop>
        </linearGradient>
        <rect id="path-11" x="0" y="5" width="11" height="9" rx="1.79999995"></rect>
        <filter x="-6.8%" y="-8.3%" width="113.6%" height="116.7%" filterUnits="objectBoundingBox" id="filter-12">
            <feGaussianBlur stdDeviation="0.5" in="SourceAlpha" result="shadowBlurInner1"></feGaussianBlur>
            <feOffset dx="0" dy="-0.5" in="shadowBlurInner1" result="shadowOffsetInner1"></feOffset>
            <feComposite in="shadowOffsetInner1" in2="SourceAlpha" operator="arithmetic" k2="-1" k3="1" result="shadowInnerInner1"></feComposite>
            <feColorMatrix values="0 0 0 0 0.48627451   0 0 0 0 0.658823529   0 0 0 0 0.784313725  0 0 0 1 0" type="matrix" in="shadowInnerInner1"></feColorMatrix>
        </filter>
        <linearGradient x1="50%" y1="0%" x2="50%" y2="100%" id="linearGradient-13">
            <stop stop-color="#2372DA" offset="0%"></stop>
            <stop stop-color="#102F57" offset="100%"></stop>
        </linearGradient>
        <path d="M5.5,7.6 C6.15090703,7.6 6.67857143,8.1372583 6.67857143,8.8 C6.67857143,9.24410526 6.44162998,9.63186369 6.08943834,9.83937145 L6.08928571,10.96 C6.08928571,11.3134622 5.82545351,11.6 5.5,11.6 C5.17454649,11.6 4.91071429,11.3134622 4.91071429,10.96 L4.91056166,9.83937145 C4.55837002,9.63186369 4.32142857,9.24410526 4.32142857,8.8 C4.32142857,8.1372583 4.84909297,7.6 5.5,7.6 Z" id="path-14"></path>
        <filter x="-84.8%" y="-50.0%" width="269.7%" height="200.0%" filterUnits="objectBoundingBox" id="filter-15">
            <feGaussianBlur stdDeviation="1.5" in="SourceAlpha" result="shadowBlurInner1"></feGaussianBlur>
            <feOffset dx="0" dy="1" in="shadowBlurInner1" result="shadowOffsetInner1"></feOffset>
            <feComposite in="shadowOffsetInner1" in2="SourceAlpha" operator="arithmetic" k2="-1" k3="1" result="shadowInnerInner1"></feComposite>
            <feColorMatrix values="0 0 0 0 0   0 0 0 0 0   0 0 0 0 0  0 0 0 0.315680657 0" type="matrix" in="shadowInnerInner1"></feColorMatrix>
        </filter>
    </defs>
    <g id="disk/40px/hardisk-lock" stroke="none" stroke-width="1" fill="none" fill-rule="evenodd">
        <g id="编组-19" filter="url(#filter-1)" transform="translate(7.000000, 5.000000)">
            <rect id="矩形" fill="url(#linearGradient-2)" x="0" y="0" width="25" height="30" rx="3.45238095"></rect>
            <rect id="矩形" stroke="url(#linearGradient-4)" fill="url(#radialGradient-3)" x="0.5" y="24.5" width="24" height="5" rx="2.5"></rect>
            <path d="M3.02540371,27.5312021 C3.30154609,27.5312021 3.52540371,27.3073445 3.52540371,27.0312021 C3.52540371,26.7550597 3.30154609,26.5312021 3.02540371,26.5312021 C2.74926134,26.5312021 2.52540371,26.7550597 2.52540371,27.0312021 C2.52540371,27.3073445 2.74926134,27.5312021 3.02540371,27.5312021 Z" id="椭圆形" stroke="#E6E6E6" stroke-width="0.5" fill="#54D800"></path>
            <path d="M5.02540371,27.5312021 C5.30154609,27.5312021 5.52540371,27.3073445 5.52540371,27.0312021 C5.52540371,26.7550597 5.30154609,26.5312021 5.02540371,26.5312021 C4.74926134,26.5312021 4.52540371,26.7550597 4.52540371,27.0312021 C4.52540371,27.3073445 4.74926134,27.5312021 5.02540371,27.5312021 Z" id="椭圆形备份-2" stroke="#F7F7F7" stroke-width="0.5" fill="#FF6F6F"></path>
            <path d="M7.02540371,27.5312021 C7.30154609,27.5312021 7.52540371,27.3073445 7.52540371,27.0312021 C7.52540371,26.7550597 7.30154609,26.5312021 7.02540371,26.5312021 C6.74926134,26.5312021 6.52540371,26.7550597 6.52540371,27.0312021 C6.52540371,27.3073445 6.74926134,27.5312021 7.02540371,27.5312021 Z" id="椭圆形备份-4" stroke="#FFFFFF" stroke-width="0.5" fill="#F7C000"></path>
            <circle id="椭圆形" stroke="#E5E5E5" stroke-width="0.5" fill="url(#radialGradient-5)" cx="21" cy="27" r="1"></circle>
        </g>
        <g id="9004738_lock_security_padlock_secure_icon" filter="url(#filter-6)" transform="translate(14.000000, 10.000000)" fill-rule="nonzero">
            <g id="路径">
                <use fill="url(#linearGradient-7)" xlink:href="#path-8"></use>
                <use fill="black" fill-opacity="1" filter="url(#filter-9)" xlink:href="#path-8"></use>
            </g>
            <g id="矩形">
                <use fill="url(#linearGradient-10)" xlink:href="#path-11"></use>
                <use fill="black" fill-opacity="1" filter="url(#filter-12)" xlink:href="#path-11"></use>
            </g>
            <g id="形状结合">
                <use fill="url(#linearGradient-13)" xlink:href="#path-14"></use>
                <use fill="black" fill-opacity="1" filter="url(#filter-15)" xlink:href="#path-14"></use>
            </g>
        </g>
    </g>
</svg>