<?xml version="1.0" encoding="UTF-8"?>
<svg width="88px" height="88px" viewBox="0 0 88 88" version="1.1" xmlns="http://www.w3.org/2000/svg" xmlns:xlink="http://www.w3.org/1999/xlink">
    <title>disk/88px/virtual-hardisk</title>
    <defs>
        <filter x="-25.8%" y="-21.3%" width="151.6%" height="142.7%" filterUnits="objectBoundingBox" id="filter-1">
            <feOffset dx="0" dy="3" in="SourceAlpha" result="shadowOffsetOuter1"></feOffset>
            <feGaussianBlur stdDeviation="2.5" in="shadowOffsetOuter1" result="shadowBlurOuter1"></feGaussianBlur>
            <feColorMatrix values="0 0 0 0 0   0 0 0 0 0   0 0 0 0 0  0 0 0 0.2 0" type="matrix" in="shadowBlurOuter1" result="shadowMatrixOuter1"></feColorMatrix>
            <feMerge>
                <feMergeNode in="shadowMatrixOuter1"></feMergeNode>
                <feMergeNode in="SourceGraphic"></feMergeNode>
            </feMerge>
        </filter>
        <linearGradient x1="0%" y1="50%" x2="100%" y2="50%" id="linearGradient-2">
            <stop stop-color="#535557" offset="0%"></stop>
            <stop stop-color="#86898F" offset="8.47836918%"></stop>
            <stop stop-color="#68676C" offset="89.7686833%"></stop>
            <stop stop-color="#454649" offset="100%"></stop>
        </linearGradient>
        <radialGradient cx="48.2392027%" cy="19.1031265%" fx="48.2392027%" fy="19.1031265%" r="78.6539217%" gradientTransform="translate(0.482392,0.191031),scale(0.225806,1.000000),rotate(90.000000),scale(1.000000,3.580713),translate(-0.482392,-0.191031)" id="radialGradient-3">
            <stop stop-color="#FFFFFF" offset="0%"></stop>
            <stop stop-color="#979797" offset="100%"></stop>
        </radialGradient>
        <linearGradient x1="50%" y1="100%" x2="50%" y2="3.061617e-15%" id="linearGradient-4">
            <stop stop-color="#5C676F" offset="0%"></stop>
            <stop stop-color="#899298" offset="100%"></stop>
        </linearGradient>
        <radialGradient cx="30.9902133%" cy="23.38834%" fx="30.9902133%" fy="23.38834%" r="90.0973794%" gradientTransform="translate(0.309902,0.233883),rotate(58.246560),scale(1.000000,0.746594),translate(-0.309902,-0.233883)" id="radialGradient-5">
            <stop stop-color="#181818" offset="0%"></stop>
            <stop stop-color="#535353" offset="100%"></stop>
        </radialGradient>
        <circle id="path-6" cx="19" cy="19" r="19"></circle>
        <filter x="-7.9%" y="-5.3%" width="115.8%" height="115.8%" filterUnits="objectBoundingBox" id="filter-8">
            <feMorphology radius="1" operator="dilate" in="SourceAlpha" result="shadowSpreadOuter1"></feMorphology>
            <feOffset dx="0" dy="1" in="shadowSpreadOuter1" result="shadowOffsetOuter1"></feOffset>
            <feGaussianBlur stdDeviation="0.5" in="shadowOffsetOuter1" result="shadowBlurOuter1"></feGaussianBlur>
            <feComposite in="shadowBlurOuter1" in2="SourceAlpha" operator="out" result="shadowBlurOuter1"></feComposite>
            <feColorMatrix values="0 0 0 0 0   0 0 0 0 0   0 0 0 0 0  0 0 0 0.2 0" type="matrix" in="shadowBlurOuter1"></feColorMatrix>
        </filter>
        <path d="M19,1 C31.3676332,1 41.4553219,10.7616031 41.9786693,23.0004124 L26.9381123,23.0000487 C26.4460359,19.0537136 23.0796344,16 19,16 L19,1 Z" id="path-9"></path>
        <filter x="-23.9%" y="-15.9%" width="147.7%" height="150.0%" filterUnits="objectBoundingBox" id="filter-10">
            <feOffset dx="0" dy="2" in="SourceAlpha" result="shadowOffsetOuter1"></feOffset>
            <feGaussianBlur stdDeviation="1.5" in="shadowOffsetOuter1" result="shadowBlurOuter1"></feGaussianBlur>
            <feComposite in="shadowBlurOuter1" in2="SourceAlpha" operator="out" result="shadowBlurOuter1"></feComposite>
            <feColorMatrix values="0 0 0 0 0   0 0 0 0 0   0 0 0 0 0  0 0 0 0.1 0" type="matrix" in="shadowBlurOuter1"></feColorMatrix>
        </filter>
        <path d="M11,24 C11,28.418278 14.581722,32 19,32 L19,40 C10.163444,40 3,32.836556 3,24 C3,23.6643873 3.01033314,23.3311881 3.03069864,23.0007031 L11.0618955,22.999986 C11.0210439,23.3275847 11,23.6613348 11,24 Z" id="path-11"></path>
        <filter x="-34.4%" y="-20.6%" width="168.8%" height="164.7%" filterUnits="objectBoundingBox" id="filter-12">
            <feOffset dx="0" dy="2" in="SourceAlpha" result="shadowOffsetOuter1"></feOffset>
            <feGaussianBlur stdDeviation="1.5" in="shadowOffsetOuter1" result="shadowBlurOuter1"></feGaussianBlur>
            <feComposite in="shadowBlurOuter1" in2="SourceAlpha" operator="out" result="shadowBlurOuter1"></feComposite>
            <feColorMatrix values="0 0 0 0 0   0 0 0 0 0   0 0 0 0 0  0 0 0 0.1 0" type="matrix" in="shadowBlurOuter1"></feColorMatrix>
        </filter>
    </defs>
    <g id="disk/88px/virtual-hardisk" stroke="none" stroke-width="1" fill="none" fill-rule="evenodd">
        <g id="编组-3" transform="translate(13.000000, 5.000000)">
            <g id="编组-19" filter="url(#filter-1)">
                <rect id="矩形" fill="url(#linearGradient-2)" x="0" y="0" width="62" height="75" rx="8.63095238"></rect>
                <rect id="矩形" stroke="url(#linearGradient-4)" stroke-width="1.875" fill="url(#radialGradient-3)" x="0.9375" y="61.9375" width="60.125" height="12.125" rx="6.0625"></rect>
                <circle id="椭圆形" stroke="#E6E6E6" stroke-width="1.25" fill="#54D800" cx="7" cy="68" r="1.375"></circle>
                <circle id="椭圆形备份-2" stroke="#F7F7F7" stroke-width="1.25" fill="#FF6F6F" cx="12" cy="68" r="1.375"></circle>
                <circle id="椭圆形备份-4" stroke="#FFFFFF" stroke-width="1.25" fill="#F7C000" cx="17" cy="68" r="1.375"></circle>
                <circle id="椭圆形" stroke="#E5E5E5" stroke-width="1.25" fill="url(#radialGradient-5)" cx="54" cy="68" r="2.375"></circle>
            </g>
            <g id="编组-2" transform="translate(11.000000, 8.000000)">
                <g id="编组" transform="translate(0.000000, 5.000000)">
                    <mask id="mask-7" fill="white">
                        <use xlink:href="#path-6"></use>
                    </mask>
                    <g id="椭圆形">
                        <use fill="black" fill-opacity="1" filter="url(#filter-8)" xlink:href="#path-6"></use>
                        <use stroke="#FFFFFF" stroke-width="2" fill-opacity="0.699490207" fill="#FFF2EB" fill-rule="evenodd" xlink:href="#path-6"></use>
                    </g>
                    <path d="M19.1791445,17.4186742 L34.3967641,28.3292351 C32.6788075,31.1584447 30.2030169,33.476503 27.2510895,35.001713 L19.1791445,17.4186742 Z M12.2444176,2.31067415 L19.1791445,17.4186742 L5.22414455,7.41378293 C7.09898261,5.18693384 9.50388187,3.42108934 12.2444176,2.31067415 Z" id="形状结合" fill-opacity="0.379343313" fill="#FFFFFF" fill-rule="nonzero" mask="url(#mask-7)"></path>
                </g>
                <g id="形状结合">
                    <use fill="black" fill-opacity="1" filter="url(#filter-10)" xlink:href="#path-9"></use>
                    <path stroke="#FFFFFF" stroke-width="1" d="M19.5,1.5054458 C25.3384564,1.63274136 30.6289266,3.98396084 34.5579578,7.74572381 C38.4986159,11.5186187 41.0699199,16.7103622 41.4508361,22.5003997 L41.4508361,22.5003997 L27.3679961,22.5000591 C27.0243702,20.5706344 26.030042,18.8663254 24.6196673,17.6226176 C23.2382912,16.4044817 21.4580794,15.6280506 19.5,15.5144626 L19.5,15.5144626 Z" stroke-linejoin="square" fill-opacity="0.7" fill="#FFFFFE" fill-rule="evenodd"></path>
                </g>
                <g id="形状结合" transform="translate(11.000000, 31.499993) rotate(-360.000000) translate(-11.000000, -31.499993) ">
                    <use fill="black" fill-opacity="1" filter="url(#filter-12)" xlink:href="#path-11"></use>
                    <path stroke="#FFFFFF" stroke-width="1" d="M10.5144744,23.5000349 C10.5048702,23.665464 10.5,23.8321635 10.5,24 C10.5,26.3472102 11.4513949,28.4722102 12.9895924,30.0104076 C14.4177944,31.4386096 16.3518759,32.3609321 18.5,32.4855382 L18.5,32.4855382 L18.5,39.4920882 C14.4185064,39.3627426 10.7351571,37.6554674 8.03984489,34.9601551 C5.23489659,32.1552068 3.5,28.2802068 3.5,24 L3.5,24 Z" stroke-linejoin="square" fill-opacity="0.5" fill="#FFC592" fill-rule="evenodd"></path>
                </g>
                <circle id="椭圆形备份-6" fill-opacity="0.888767483" fill="#FFFFFF" cx="19" cy="24" r="7"></circle>
                <circle id="椭圆形备份-5" fill="#623D00" cx="19" cy="24" r="5"></circle>
            </g>
        </g>
    </g>
</svg>