<?xml version="1.0" encoding="UTF-8"?>
<svg width="20px" height="20px" viewBox="0 0 20 20" version="1.1" xmlns="http://www.w3.org/2000/svg" xmlns:xlink="http://www.w3.org/1999/xlink">
    <!-- Generator: Sketch 58 (84663) - https://sketch.com -->
    <title>电池</title>
    <desc>Created with Sketch.</desc>
    <g id="电池" stroke="none" stroke-width="1" fill="none" fill-rule="evenodd">
        <path d="M13,3 C13.5522847,3 14,3.44771525 14,4 L14,5 L15,5 C15.5522847,5 16,5.44771525 16,6 L16,16 C16,16.5522847 15.5522847,17 15,17 L6,17 C5.44771525,17 5,16.5522847 5,16 L5,6 C5,5.44771525 5.44771525,5 6,5 L7,5 L7,4 C7,3.44771525 7.44771525,3 8,3 L13,3 Z M11.8418264,6.93952928 L9.59216656,6.93952928 C9.48844639,6.93952928 9.39550831,7.0145439 9.35858393,7.12801804 L9.35858393,7.12801804 L8.02542129,11.2248194 C7.96308814,11.4163326 8.08392111,11.6216019 8.25908725,11.6216019 L8.25908725,11.6216019 L9.60074986,11.6216019 L8.93391855,14.5705925 C8.86633542,14.8694233 9.18925111,15.0707902 9.36341725,14.8383988 L9.36341725,14.8383988 L12.9462398,10.0588622 C13.0879893,9.8697881 12.973323,9.57320122 12.758407,9.57320122 L12.758407,9.57320122 L11.2970781,9.57320122 L12.0733257,7.34255572 C12.1403255,7.15006694 12.0193259,6.93952928 11.8418264,6.93952928 L11.8418264,6.93952928 Z" id="形状结合" fill="#556278"></path>
    </g>
</svg>