<?xml version="1.0" encoding="UTF-8"?>
<svg width="20px" height="20px" viewBox="0 0 20 20" version="1.1" xmlns="http://www.w3.org/2000/svg" xmlns:xlink="http://www.w3.org/1999/xlink">
    <title>摄像头</title>
    <g id="摄像头" stroke="none" stroke-width="1" fill="none" fill-rule="evenodd">
        <g id="编组-2" transform="translate(5.000000, 4.000000)" fill="#536076">
            <g id="编组">
                <path d="M5,0.5 C6.24264069,0.5 7.36764069,1.00367966 8.18198052,1.81801948 C8.99632034,2.63235931 9.5,3.75735931 9.5,5 C9.5,6.24264069 8.99632034,7.36764069 8.18198052,8.18198052 C7.36764069,8.99632034 6.24264069,9.5 5,9.5 C4.90799027,9.5 4.81662549,9.49723859 4.72598404,9.49179413 C5.46466935,9.43646469 6.12837151,9.11426918 6.62132034,8.62132034 C7.16421356,8.07842712 7.5,7.32842712 7.5,6.5 C7.5,5.67157288 7.16421356,4.92157288 6.62132034,4.37867966 C6.12366823,3.88102754 5.45198888,3.55740265 4.70539842,3.50692108 L4.5,3.5 L4.29460158,3.50692108 C3.54801112,3.55740265 2.87633177,3.88102754 2.37867966,4.37867966 C1.83578644,4.92157288 1.5,5.67157288 1.5,6.5 C1.5,7.32842712 1.83578644,8.07842712 2.37867966,8.62132034 C2.42697759,8.66961828 2.47691469,8.71627704 2.52840034,8.76120604 C2.27190765,8.59214976 2.03403384,8.39799487 1.81801948,8.18198052 C1.00367966,7.36764069 0.5,6.24264069 0.5,5 C0.5,3.75735931 1.00367966,2.63235931 1.81801948,1.81801948 C2.51764757,1.1183914 3.44657809,0.64806577 4.48240983,0.529443826 C4.24440919,0.580689682 4.0320464,0.700186647 3.86611652,0.866116524 C3.63991102,1.09232203 3.5,1.40482203 3.5,1.75 C3.5,2.09517797 3.63991102,2.40767797 3.86611652,2.63388348 C4.09232203,2.86008898 4.40482203,3 4.75,3 C5.09517797,3 5.40767797,2.86008898 5.63388348,2.63388348 C5.86008898,2.40767797 6,2.09517797 6,1.75 C6,1.40482203 5.86008898,1.09232203 5.63388348,0.866116524 C5.42472085,0.656953896 5.14177716,0.521572331 4.82744026,0.502359679 Z" id="形状结合" stroke="#536076"></path>
                <path d="M9.5,12 C9.77614237,12 10,12.2238576 10,12.5 C10,12.7454599 9.82312484,12.9496084 9.58987563,12.9919443 L9.5,13 L0.5,13 C0.223857625,13 0,12.7761424 0,12.5 C0,12.2545401 0.176875161,12.0503916 0.410124368,12.0080557 L0.5,12 L9.5,12 Z" id="路径-29" fill-rule="nonzero"></path>
            </g>
            <circle id="椭圆形" cx="4.5" cy="6.5" r="1.5"></circle>
            <path d="M6.87457981,10.4903789 L8.06640625,12 L2,12 L3.14836482,10.4981569 C3.72983998,10.693907 4.35253032,10.8 5,10.8 C5.6559939,10.8 6.28655169,10.6910951 6.87457981,10.4903789 Z" id="形状结合"></path>
        </g>
    </g>
</svg>