<?xml version="1.0" encoding="UTF-8"?>
<svg width="20px" height="20px" viewBox="0 0 20 20" version="1.1" xmlns="http://www.w3.org/2000/svg" xmlns:xlink="http://www.w3.org/1999/xlink">
    <!-- Generator: Sketch 58 (84663) - https://sketch.com -->
    <title>光驱设备</title>
    <desc>Created with Sketch.</desc>
    <g id="光驱设备" stroke="none" stroke-width="1" fill="none" fill-rule="evenodd">
        <path d="M10,3 C13.8659932,3 17,6.13400675 17,10 C17,13.8659932 13.8659932,17 10,17 C6.13400675,17 3,13.8659932 3,10 C3,6.13400675 6.13400675,3 10,3 Z M10,7 C8.34314575,7 7,8.34314575 7,10 C7,11.6568542 8.34314575,13 10,13 C11.6568542,13 13,11.6568542 13,10 C13,8.34314575 11.6568542,7 10,7 Z M10,8 C11.1045695,8 12,8.8954305 12,10 C12,11.1045695 11.1045695,12 10,12 C8.8954305,12 8,11.1045695 8,10 C8,8.8954305 8.8954305,8 10,8 Z M10,9 C9.44771525,9 9,9.44771525 9,10 C9,10.5522847 9.44771525,11 10,11 C10.5522847,11 11,10.5522847 11,10 C11,9.44771525 10.5522847,9 10,9 Z M10,5 C7.23857625,5 5,7.23857625 5,10 C5,10.2761424 5.22385763,10.5 5.5,10.5 C5.77614237,10.5 6,10.2761424 6,10 C6,7.790861 7.790861,6 10,6 C10.2761424,6 10.5,5.77614237 10.5,5.5 C10.5,5.22385763 10.2761424,5 10,5 Z" id="形状结合" fill="#536076"></path>
    </g>
</svg>