<?xml version="1.0" encoding="UTF-8"?>
<svg width="20px" height="20px" viewBox="0 0 20 20" version="1.1" xmlns="http://www.w3.org/2000/svg" xmlns:xlink="http://www.w3.org/1999/xlink">
    <title>麦克风</title>
    <g id="麦克风" stroke="none" stroke-width="1" fill="none" fill-rule="evenodd">
        <g id="编组" transform="translate(7.000000, 3.000000)">
            <path d="M6,5 L6,6.5 C6,7.88071187 4.88071187,9 3.5,9 C2.11928813,9 1,7.88071187 1,6.5 L1,5 L6,5 Z M1,2.5 C1,1.11928813 2.11928813,2.53632657e-16 3.5,0 C4.88071187,-2.53632657e-16 6,1.11928813 6,2.5 L6,4 L1,4 L1,2.5 Z" id="形状结合" fill="#536076"></path>
            <path d="M0,6 C0,8.209139 1.56700338,10 3.5,10 L3.5,10 C5.43299662,10 7,8.209139 7,6" id="路径" stroke="#536076" stroke-linecap="round" stroke-linejoin="round"></path>
            <line x1="3.5" y1="10.5" x2="3.5" y2="12" id="路径-29" stroke="#536076" stroke-linecap="round" stroke-linejoin="round"></line>
        </g>
        <path d="M8.30901699,15 L12.690983,15 C12.880369,15 13.0535006,15.1070012 13.1381966,15.2763932 L13.5,16 C13.6706654,16.3413307 13.5323138,16.7563856 13.190983,16.927051 C13.0950363,16.9750244 12.9892377,17 12.881966,17 L8.11803399,17 C7.73641461,17 7.42705098,16.6906364 7.42705098,16.309017 C7.42705098,16.2017453 7.45202663,16.0959467 7.5,16 L7.8618034,15.2763932 C7.94649941,15.1070012 8.11963097,15 8.30901699,15 Z" id="矩形" fill="#536076"></path>
    </g>
</svg>