<?xml version="1.0" encoding="UTF-8"?>
<svg width="20px" height="20px" viewBox="0 0 20 20" version="1.1" xmlns="http://www.w3.org/2000/svg" xmlns:xlink="http://www.w3.org/1999/xlink">
    <!-- Generator: Sketch 58 (84663) - https://sketch.com -->
    <title>网络适配器</title>
    <desc>Created with Sketch.</desc>
    <g id="网络适配器" stroke="none" stroke-width="1" fill="none" fill-rule="evenodd">
        <g id="编组-8" transform="translate(3.000000, 3.000000)" fill="#536076" fill-rule="nonzero">
            <path d="M7,-2.39808173e-14 C10.8659932,-2.39808173e-14 14,3.13400675 14,7 C14,9.50307961 12.6862066,11.6993063 10.7105745,12.9367255 L10.1808932,12.0883708 C11.8740691,11.0276798 13,9.14532753 13,7 C13,3.6862915 10.3137085,1 7,1 C3.6862915,1 1,3.6862915 1,7 C1,9.14574827 2.12637259,11.0284181 3.82010302,12.0889948 L3.29041885,12.9373476 C1.31423378,11.7000425 0,9.5034991 0,7 C0,3.13400675 3.13400675,-2.39808173e-14 7,-2.39808173e-14 Z M7,2 C9.76142375,2 12,4.23857625 12,7 C12,8.78799653 11.0614895,10.3567922 9.65021495,11.2406406 L9.11992579,10.3926667 C10.2490825,9.68561618 11,8.43050118 11,7 C11,4.790861 9.209139,3 7,3 C4.790861,3 3,4.790861 3,7 C3,8.43050118 3.75091752,9.68561618 4.88007421,10.3926667 L4.34978505,11.2406406 C2.93851047,10.3567922 2,8.78799653 2,7 C2,4.23857625 4.23857625,2 7,2 Z" id="Combined-Shape"></path>
            <path d="M7,10 C5.34314575,10 4,8.65685425 4,7 C4,5.34314575 5.34314575,4 7,4 C8.65685425,4 10,5.34314575 10,7 C10,8.65685425 8.65685425,10 7,10 Z" id="Oval"></path>
        </g>
    </g>
</svg>