<?xml version="1.0" encoding="UTF-8"?>
<svg width="20px" height="20px" viewBox="0 0 20 20" version="1.1" xmlns="http://www.w3.org/2000/svg" xmlns:xlink="http://www.w3.org/1999/xlink">
    <!-- Generator: Sketch 58 (84663) - https://sketch.com -->
    <title>其他PCI设备</title>
    <desc>Created with Sketch.</desc>
    <g id="其他PCI设备" stroke="none" stroke-width="1" fill="none" fill-rule="evenodd">
        <g id="编组" transform="translate(3.000000, 4.000000)" fill="#536076">
            <path d="M6,3 L11,3 C11.5522847,3 12,3.44771525 12,4 L12,9 C12,9.55228475 11.5522847,10 11,10 L6,10 C5.44771525,10 5,9.55228475 5,9 L5,4 C5,3.44771525 5.44771525,3 6,3 Z" id="形状结合"></path>
            <path d="M3,3 C3.55228475,3 4,3.44771525 4,4 L4,5 L4,5 L2,5 L2,4 C2,3.44771525 2.44771525,3 3,3 Z" id="形状结合备份"></path>
            <rect id="矩形" x="0" y="0" width="1" height="13" rx="0.5"></rect>
            <rect id="矩形备份" x="13" y="3" width="1" height="8" rx="0.5"></rect>
            <rect id="矩形备份-2" transform="translate(2.049312, 9.555587) rotate(-90.000000) translate(-2.049312, -9.555587) " x="1.5493124" y="7.5555867" width="1" height="4" rx="0.5"></rect>
            <rect id="矩形备份-3" transform="translate(2.049312, 6.472451) rotate(-90.000000) translate(-2.049312, -6.472451) " x="1.5493124" y="4.47245146" width="1" height="4" rx="0.5"></rect>
        </g>
    </g>
</svg>