<?xml version="1.0" encoding="UTF-8"?>
<svg width="20px" height="20px" viewBox="0 0 20 20" version="1.1" xmlns="http://www.w3.org/2000/svg" xmlns:xlink="http://www.w3.org/1999/xlink">
    <!-- Generator: Sketch 58 (84663) - https://sketch.com -->
    <title>概况</title>
    <desc>Created with Sketch.</desc>
    <g id="概况" stroke="none" stroke-width="1" fill="none" fill-rule="evenodd">
        <path d="M13,13 L13,14 L11,14 L11,15 L13,15 L13,15.5 C13,15.6755804 13.0301673,15.8441149 13.0856015,16.000703 L5.5,16 C5.22385763,16 5,15.7761424 5,15.5 C5,15.2238576 5.22385763,15 5.5,15 L9,15 L9,14 L4,14 C3.44771525,14 3,13.5522847 3,13 L13,13 Z M15,4 C16.1045695,4 17,4.8954305 17,6 L14.5,6 C13.6715729,6 13,6.67157288 13,7.5 L13,7.5 L13,12 L3,12 L3,6 C3,4.8954305 3.8954305,4 5,4 L15,4 Z" id="形状结合" fill="#536076"></path>
        <g id="电脑" transform="translate(14.000000, 1.000000)">
            <rect id="矩形" fill="#000000" fill-rule="nonzero" opacity="0" x="3" y="0" width="15" height="15"></rect>
            <g id="编组" transform="translate(0.000000, 6.000000)" fill="#536076">
                <path d="M3,0 C3.55228475,-1.01453063e-16 4,0.44771525 4,1 L4,8 C4,8.55228475 3.55228475,9 3,9 L1,9 C0.44771525,9 6.76353751e-17,8.55228475 0,8 L0,1 C-6.76353751e-17,0.44771525 0.44771525,1.01453063e-16 1,0 L3,0 Z M3,5 L2,5 L2,6 L3,6 L3,5 Z M3,3 L1,3 L1,4 L3,4 L3,3 Z M3,1 L1,1 L1,2 L3,2 L3,1 Z" id="形状结合"></path>
            </g>
        </g>
    </g>
</svg>