<?xml version="1.0" encoding="UTF-8"?>
<svg width="20px" height="20px" viewBox="0 0 20 20" version="1.1" xmlns="http://www.w3.org/2000/svg" xmlns:xlink="http://www.w3.org/1999/xlink">
    <title>扫描仪</title>
    <g id="扫描仪" stroke="none" stroke-width="1" fill="none" fill-rule="evenodd">
        <g id="编组-2" transform="translate(3.000000, 3.000000)" fill="#536076">
            <g id="编组">
                <path d="M0.461538462,4.30769231 L10.1538462,4.30769231 C10.4512302,4.30769231 10.6923077,4.54876975 10.6923077,4.84615385 C10.6923077,5.14353794 10.4512302,5.38461538 10.1538462,5.38461538 L0.461538462,5.38461538 C0.164154365,5.38461538 -0.0769230769,5.14353794 -0.0769230769,4.84615385 C-0.0769230769,4.54876975 0.164154365,4.30769231 0.461538462,4.30769231 Z" id="矩形" transform="translate(5.307692, 4.846154) rotate(-48.000000) translate(-5.307692, -4.846154) "></path>
                <path d="M11.8461538,8 C13.0356902,8 14,8.96430977 14,10.1538462 L14,10.1538462 L14,10.5 C14,11.8807119 12.8807119,13 11.5,13 L11.5,13 L2.5,13 C1.11928813,13 -1.69088438e-16,11.8807119 0,10.5 L0,10.5 L0,10.1538462 C1.45676193e-16,8.96430977 0.96430977,8 2.15384615,8 L2.15384615,8 Z M7,11 L6,11 L6,12 L7,12 L7,11 Z M9,11 L8,11 L8,12 L9,12 L9,11 Z M12,11 L10,11 L10,12 L12,12 L12,11 Z" id="形状结合"></path>
            </g>
            <rect id="矩形" x="5" y="6" width="8" height="1" rx="0.5"></rect>
            <rect id="矩形" transform="translate(2.692308, 12.923077) rotate(31.000000) translate(-2.692308, -12.923077) " x="2.15384615" y="11.8461538" width="1.07692308" height="2.15384615" rx="0.538461538"></rect>
            <rect id="矩形" transform="translate(11.307692, 12.923077) rotate(-45.000000) translate(-11.307692, -12.923077) " x="10.7692308" y="11.8461538" width="1.07692308" height="2.15384615" rx="0.538461538"></rect>
        </g>
    </g>
</svg>