<?xml version="1.0" encoding="UTF-8"?>
<svg width="20px" height="20px" viewBox="0 0 20 20" version="1.1" xmlns="http://www.w3.org/2000/svg" xmlns:xlink="http://www.w3.org/1999/xlink">
    <!-- Generator: Sketch 58 (84663) - https://sketch.com -->
    <title>usb设备</title>
    <desc>Created with Sketch.</desc>
    <g id="usb设备" stroke="none" stroke-width="1" fill="none" fill-rule="evenodd">
        <path d="M13,10 C14.1045695,10 15,10.8954305 15,12 L15,17 L3,17 L3,12 C3,10.8954305 3.8954305,10 5,10 L13,10 Z M12,4 C12.5522847,4 13,4.44771525 13,5 L13,9 L5,9 L5,5 C5,4.44771525 5.44771525,4 6,4 L12,4 Z M8,6 L7,6 L7,7 L8,7 L8,6 Z M11,6 L10,6 L10,7 L11,7 L11,6 Z" id="形状结合" fill="#536076"></path>
    </g>
</svg>