<?xml version="1.0" encoding="UTF-8"?>
<svg width="17px" height="17px" viewBox="0 0 17 17" version="1.1" xmlns="http://www.w3.org/2000/svg" xmlns:xlink="http://www.w3.org/1999/xlink">
    <title>编组 23</title>
    <g id="v5.9" stroke="none" stroke-width="1" fill="none" fill-rule="evenodd">
        <g id="编组-23" transform="translate(0.570682, 0.249485)">
            <rect id="矩形备份-5" fill-opacity="0" fill="#D8D8D8" x="0" y="0" width="16" height="16"></rect>
            <g id="视频" transform="translate(1.000000, 2.000000)" fill="#536076" fill-rule="nonzero">
                <path d="M8.52973584,6.3429125 L6.19607289,8.05747498 C6.00226021,8.19890216 5.7293403,8.16015499 5.58299195,7.97223119 C5.52563921,7.89861156 5.49597401,7.8075557 5.49597401,7.71456248 L5.49597401,4.28543752 C5.49597401,4.04907975 5.69176437,3.85728124 5.93304139,3.85728124 C6.02797005,3.85728124 6.11894335,3.88827898 6.19607289,3.94252502 L8.52973584,5.6570875 C8.72354852,5.79851469 8.76310213,6.06780756 8.61675378,6.25766871 C8.59302161,6.28866645 8.56335641,6.31772683 8.52973584,6.3429125 Z M1.75024721,0 L12.2497528,0 C13.2168385,0 14,0.767194059 14,1.71456248 L14,10.2854375 C14,11.2328059 13.2168385,12 12.2497528,12 L1.75024721,12 C0.783161463,12 0,11.2328059 0,10.2854375 L0,1.71456248 C0,0.767194059 0.785139144,0 1.75024721,0 Z M10.4995056,0.858249919 L3.50049442,0.858249919 L3.50049442,11.1436874 L10.4995056,11.1436874 L10.4995056,0.858249919 Z M0.876112445,3.42912496 L2.62635966,3.42912496 L2.62635966,0.858249919 L1.75222489,0.858249919 C1.26967086,0.858249919 0.878090126,1.24184695 0.878090126,1.71456248 L0.878090126,3.42912496 L0.876112445,3.42912496 Z M13.1238876,3.42912496 L13.1238876,1.71456248 C13.1238876,1.24184695 12.7323068,0.858249919 12.2497528,0.858249919 L11.375618,0.858249919 L11.375618,3.42912496 L13.1238876,3.42912496 L13.1238876,3.42912496 Z M0.876112445,8.57087504 L0.876112445,10.2854375 C0.876112445,10.7581531 1.26769318,11.1417501 1.75024721,11.1417501 L2.62438197,11.1417501 L2.62438197,8.57087504 L0.876112445,8.57087504 L0.876112445,8.57087504 Z M0.876112445,7.71456248 L2.62635966,7.71456248 L2.62635966,4.28543752 L0.876112445,4.28543752 L0.876112445,7.71456248 Z M13.1238876,8.57087504 L11.3736403,8.57087504 L11.3736403,11.1417501 L12.2477751,11.1417501 C12.7303291,11.1417501 13.1219099,10.7581531 13.1219099,10.2854375 L13.1219099,8.57087504 L13.1238876,8.57087504 Z M13.1238876,7.71456248 L13.1238876,4.28543752 L11.3736403,4.28543752 L11.3736403,7.71456248 L13.1238876,7.71456248 Z" id="形状"></path>
            </g>
        </g>
    </g>
</svg>