<?xml version="1.0" encoding="UTF-8"?>
<svg width="256px" height="256px" viewBox="0 0 256 256" version="1.1" xmlns="http://www.w3.org/2000/svg" xmlns:xlink="http://www.w3.org/1999/xlink">
    <title>安装器-深色@1x</title>
    <defs>
        <rect id="path-1" x="0" y="0" width="256" height="256"></rect>
        <path d="M0,42.4195617 L0,15.3846066 L0,15.3846066 L120.692569,0.457910075 C123.150784,0.153889394 125.637821,0.16605723 128.092944,0.494116433 L244.85733,16.0964429 L244.85733,16.0964429 L244.85733,42.4020168 C244.85733,46.5187133 242.334506,50.2147643 238.500774,51.7146596 L132.600877,93.1465445 C125.785252,95.8130646 118.213451,95.8039948 111.404233,93.1211544 L6.33425641,51.7234492 C2.51226473,50.2175796 2.27943578e-15,46.5275129 0,42.4195617 Z" id="path-3"></path>
        <linearGradient x1="91.0146988%" y1="40.270446%" x2="-1.49880108e-13%" y2="58.1685147%" id="linearGradient-5">
            <stop stop-color="#325DB4" offset="0%"></stop>
            <stop stop-color="#4672D2" offset="100%"></stop>
        </linearGradient>
        <linearGradient x1="86.4125419%" y1="51.7919347%" x2="13.5317339%" y2="50%" id="linearGradient-6">
            <stop stop-color="#8DB1FF" offset="0%"></stop>
            <stop stop-color="#547DD3" offset="100%"></stop>
        </linearGradient>
        <linearGradient x1="50.1392758%" y1="100%" x2="50.1392758%" y2="19.5514254%" id="linearGradient-7">
            <stop stop-color="#BAD6FF" offset="0%"></stop>
            <stop stop-color="#60B0FF" stop-opacity="0" offset="100%"></stop>
        </linearGradient>
        <linearGradient x1="50.1392758%" y1="100%" x2="50.1392758%" y2="19.5514254%" id="linearGradient-8">
            <stop stop-color="#FFFFFF" offset="0%"></stop>
            <stop stop-color="#FFFFFF" stop-opacity="0" offset="100%"></stop>
        </linearGradient>
        <path d="M24.4803421,21.32717 L112.906447,21.32717 C115.840551,21.32717 118.219111,23.7057307 118.219111,26.639834 C118.219111,28.1980092 117.535065,29.6776301 116.348044,30.6870316 L107.722132,38.0222096 C106.185132,39.3292213 104.233331,40.0468932 102.215747,40.0468932 L13.7896413,40.0468932 C10.855538,40.0468932 8.47697734,37.6683325 8.47697734,34.7342292 C8.47697734,33.176054 9.16102345,31.6964331 10.3480443,30.6870316 L18.9739568,23.3518537 C20.5109569,22.044842 22.4627572,21.32717 24.4803421,21.32717 Z" id="path-9"></path>
        <linearGradient x1="50%" y1="0%" x2="50%" y2="100%" id="linearGradient-11">
            <stop stop-color="#83A9FB" offset="0%"></stop>
            <stop stop-color="#3F6BC8" offset="100%"></stop>
        </linearGradient>
        <linearGradient x1="83.3013718%" y1="50%" x2="83.3013718%" y2="100%" id="linearGradient-12">
            <stop stop-color="#3B67C2" offset="0%"></stop>
            <stop stop-color="#1041A5" offset="100%"></stop>
        </linearGradient>
        <path d="M52.5885638,0.207483991 L76.2168907,9.57744789 C80.2948796,11.1946004 83.6007428,16.3919234 83.6007428,21.1859935 L83.5993907,75.0041351 L109.092629,85.1136416 C110.809708,85.7945603 112.435728,87.3172031 113.55381,89.275292 L113.77053,89.6725954 C115.762653,93.4997775 115.283219,97.6702978 112.699686,98.9877133 L96.9056906,107.042327 C98.3770294,105.203364 98.3976007,101.858624 96.7670472,98.7420788 L96.5497128,98.3456857 C95.428463,96.392083 93.7978365,94.8729286 92.0758928,94.1935701 L66.5104283,84.1072255 L66.5117842,30.4123871 C66.5117842,25.6293007 63.196555,20.4438854 59.1070126,18.8304379 L35.4117433,9.48194162 C34.1709771,8.99242207 33.0014876,8.88794871 31.9742384,9.11352049 C43.056895,2.12112142 49.9280068,-0.84757688 52.5885638,0.207483991 Z M17.5748203,48.1029417 L28.005,52.44 L28.0056157,68.915919 L3.92381732,59.4149254 C2.57975838,58.8846537 1.340247,58.9191624 0.346225394,59.4092129 L5.24025268e-14,59.7779438 C8.33146119,50.8940234 14.1897346,47.0023561 17.5748203,48.1029417 Z" id="path-13"></path>
        <linearGradient x1="20.5117552%" y1="33.9651479%" x2="85.4075979%" y2="60.4164276%" id="linearGradient-15">
            <stop stop-color="#2DA336" offset="0%"></stop>
            <stop stop-color="#78DD80" offset="100%"></stop>
        </linearGradient>
        <linearGradient x1="47.5034579%" y1="14.586741%" x2="52.997688%" y2="73.0048674%" id="linearGradient-16">
            <stop stop-color="#2DA336" offset="0%"></stop>
            <stop stop-color="#78DD80" offset="100%"></stop>
        </linearGradient>
        <ellipse id="path-17" cx="246.518092" cy="122.267394" rx="7.5" ry="5"></ellipse>
        <filter x="-20.0%" y="-30.0%" width="140.0%" height="160.0%" filterUnits="objectBoundingBox" id="filter-18">
            <feOffset dx="0" dy="6" in="SourceAlpha" result="shadowOffsetInner1"></feOffset>
            <feComposite in="shadowOffsetInner1" in2="SourceAlpha" operator="arithmetic" k2="-1" k3="1" result="shadowInnerInner1"></feComposite>
            <feColorMatrix values="0 0 0 0 0.345045732   0 0 0 0 0.551330541   0 0 0 0 1  0 0 0 1 0" type="matrix" in="shadowInnerInner1"></feColorMatrix>
        </filter>
    </defs>
    <g id="页面-1" stroke="none" stroke-width="1" fill="none" fill-rule="evenodd">
        <g id="彩色占位图-深色" transform="translate(-386.000000, -2383.000000)">
            <g id="安装器-深色" transform="translate(386.000000, 2383.000000)">
                <mask id="mask-2" fill="white">
                    <use xlink:href="#path-1"></use>
                </mask>
                <g id="蒙版"></g>
                <g id="编组-15" mask="url(#mask-2)">
                    <g transform="translate(-15.000000, 24.630000)">
                        <g id="矩形" stroke-width="1" fill="none" fill-rule="evenodd" transform="translate(20.297237, 108.512444)">
                            <mask id="mask-4" fill="white">
                                <use xlink:href="#path-3"></use>
                            </mask>
                            <path stroke="#979797" d="M120.753939,0.954129491 C123.169771,0.655350546 125.613928,0.667308591 128.026722,0.989711602 L244.35733,16.5340757 L244.35733,42.4020168 C244.35733,44.3574477 243.758159,46.2129752 242.703733,47.7577576 C241.649307,49.30254 240.139625,50.5365772 238.318602,51.2490275 L132.418705,92.6809124 C125.720591,95.3014579 118.279338,95.2925445 111.587521,92.65596 L6.51754359,51.2582548 C4.70209754,50.5429668 3.19771165,49.3089319 2.14718726,47.7658998 C1.09666287,46.2228678 0.5,44.3708385 0.5,42.4195617 L0.5,15.8265783 Z"></path>
                            <rect fill="#83A9FB" mask="url(#mask-4)" x="-10.297237" y="18.8575562" width="133" height="78"></rect>
                            <rect id="矩形备份-4" fill="url(#linearGradient-5)" mask="url(#mask-4)" x="122.702763" y="18.8575562" width="133" height="78"></rect>
                        </g>
                        <path d="M26.9700475,115.721438 L133.923721,80.4769606 C139.818664,78.5343981 146.181336,78.5343981 152.076279,80.4769606 L259.029953,115.721438 C264.275339,117.449952 267.126328,123.103416 265.397814,128.348803 C264.449729,131.225885 262.248579,133.518122 259.412283,134.582026 L153.185037,174.428209 C146.618399,176.891377 139.381601,176.891377 132.814963,174.428209 L26.5877171,134.582026 C21.4166894,132.642356 18.7971557,126.877997 20.736825,121.70697 C21.8007288,118.870674 24.0929657,116.669524 26.9700475,115.721438 Z" id="矩形" fill="url(#linearGradient-6)" fill-rule="evenodd"></path>
                        <rect id="矩形" fill="url(#linearGradient-7)" fill-rule="nonzero" opacity="0.533040365" x="48" y="0" width="3.59" height="61.31" rx="1.795"></rect>
                        <rect id="矩形" fill="url(#linearGradient-8)" fill-rule="nonzero" x="88.96" y="117.37" width="3.59" height="55.32" rx="1.795"></rect>
                        <rect id="矩形" fill="url(#linearGradient-7)" fill-rule="nonzero" opacity="0.58968099" x="234.39" y="39.73" width="3.59" height="61.31" rx="1.795"></rect>
                        <g id="矩形备份-12" stroke-width="1" fill="none" fill-rule="evenodd" transform="translate(78.458325, 95.961521)">
                            <mask id="mask-10" fill="white">
                                <use xlink:href="#path-9" transform="translate(63.348044, 30.687032) rotate(20.000000) translate(-63.348044, -30.687032) "></use>
                            </mask>
                            <use id="蒙版" fill="#D8D8D8" transform="translate(63.348044, 30.687032) rotate(20.000000) translate(-63.348044, -30.687032) " xlink:href="#path-9"></use>
                            <path d="M24.4803421,21.32717 L112.906447,21.32717 C115.840551,21.32717 118.219111,23.7057307 118.219111,26.639834 C118.219111,28.1980092 117.535065,29.6776301 116.348044,30.6870316 L107.722132,38.0222096 C106.185132,39.3292213 104.233331,40.0468932 102.215747,40.0468932 L13.7896413,40.0468932 C10.855538,40.0468932 8.47697734,37.6683325 8.47697734,34.7342292 C8.47697734,33.176054 9.16102345,31.6964331 10.3480443,30.6870316 L18.9739568,23.3518537 C20.5109569,22.044842 22.4627572,21.32717 24.4803421,21.32717 Z" fill="url(#linearGradient-11)" mask="url(#mask-10)" transform="translate(63.348044, 30.687032) rotate(20.000000) translate(-63.348044, -30.687032) "></path>
                            <polygon id="路径-2" fill="url(#linearGradient-12)" mask="url(#mask-10)" points="27.0886708 7.52914228 27.0886708 27.7438839 -4.60903126 20.0390015"></polygon>
                        </g>
                        <g id="矩形" stroke-width="1" fill="none" fill-rule="evenodd" transform="translate(86.000000, 2.370000)">
                            <mask id="mask-14" fill="white">
                                <use xlink:href="#path-13"></use>
                            </mask>
                            <use id="蒙版" fill-opacity="0.6" fill="#FFFFFF" xlink:href="#path-13"></use>
                            <rect fill-opacity="0.35" fill="#00C310" mask="url(#mask-14)" x="-2" y="38.0000001" width="42" height="40"></rect>
                            <polygon fill-opacity="0.65" fill="url(#linearGradient-15)" mask="url(#mask-14)" points="85 74.6861882 118 88.0775279 114.721153 99.1965485 94.9137305 110 65.5198499 86.0000001"></polygon>
                            <polygon fill-opacity="0.65" fill="url(#linearGradient-16)" mask="url(#mask-14)" points="63.7593479 25.7890945 83.9895375 13.0000001 85 74.6861882 65.5198499 86.0000001"></polygon>
                            <polygon fill-opacity="0.35" fill="#00C310" mask="url(#mask-14)" points="29 -4.99999987 89 -4.99999987 82.5849704 13.9883462 63.7593479 25.7890945 29 20.817258"></polygon>
                        </g>
                        <path d="M145.107013,21.2004378 C149.196555,22.8138853 152.511784,27.9993005 152.511784,32.782387 L152.510428,86.4772254 L178.075893,96.5635699 C179.797837,97.2429285 181.428463,98.7620828 182.549713,100.715686 L182.767047,101.112079 C184.764813,104.930492 184.284021,109.091457 181.693168,110.405855 L142.138725,130.472701 C137.342896,132.905731 130.656814,130.267871 125.860985,124.050642 L86.3065417,72.7729619 C84.8520015,70.8873217 84,68.5244684 84,66.3762364 C84,62.5497673 86.6521834,60.4941672 89.9238173,61.7849252 L114.005616,71.2859189 L114.006972,17.5910805 C114.006972,12.8079941 117.322201,10.238494 121.411743,11.8519415 L145.107013,21.2004378 Z" id="形状结合备份-5" fill-opacity="0.7" fill="#BEFFAC" fill-rule="evenodd"></path>
                        <g id="椭圆形" fill="none" transform="translate(246.518092, 122.267394) rotate(13.000000) translate(-246.518092, -122.267394) ">
                            <use fill="#85ABFF" fill-rule="evenodd" xlink:href="#path-17"></use>
                            <use fill="black" fill-opacity="1" filter="url(#filter-18)" xlink:href="#path-17"></use>
                        </g>
                    </g>
                </g>
            </g>
        </g>
    </g>
</svg>