<?xml version="1.0" encoding="utf-8"?>
<!-- Generator: Adobe Illustrator 24.0.0, SVG Export Plug-In . SVG Version: 6.00 Build 0)  -->
<svg version="1.1" id="图层_1" xmlns="http://www.w3.org/2000/svg" xmlns:xlink="http://www.w3.org/1999/xlink" x="0px" y="0px"
	 viewBox="0 0 128 128" style="enable-background:new 0 0 128 128;" xml:space="preserve">
<style type="text/css">
	.st0{opacity:0.2;fill:#5B2D0E;enable-background:new    ;}
	.st1{fill:url(#SVGID_1_);}
	.st2{opacity:0.6;fill:url(#SVGID_2_);enable-background:new    ;}
	.st3{opacity:0.4;}
	.st4{opacity:0.5;fill:#595959;enable-background:new    ;}
	.st5{opacity:0.7;fill:#FFFFFF;enable-background:new    ;}
	.st6{opacity:0.9;fill:#1F1F28;enable-background:new    ;}
	.st7{fill:url(#SVGID_3_);}
	.st8{fill:url(#SVGID_4_);}
	.st9{fill:url(#SVGID_5_);}
</style>
<g>
	<path class="st0" d="M111.2,5H16.8C10.3,5,5,10.3,5,16.8v94.4c0,6.5,5.3,11.8,11.8,11.8h94.4c6.5,0,11.8-5.3,11.8-11.8V16.8
		C123,10.3,117.7,5,111.2,5z"/>
	<g>
		
			<linearGradient id="SVGID_1_" gradientUnits="userSpaceOnUse" x1="63.9509" y1="8.1" x2="63.9509" y2="120" gradientTransform="matrix(1 0 0 -1 0 128)">
			<stop  offset="0" style="stop-color:#F5F5F5"/>
			<stop  offset="1" style="stop-color:#DCDCDC"/>
		</linearGradient>
		<path class="st1" d="M110.7,8H17.3C12.2,8,8,12.2,8,17.3v93.3c0,5.1,4.2,9.3,9.3,9.3h93.3c5.1,0,9.3-4.2,9.3-9.3V17.3
			C120,12.2,115.8,8,110.7,8z"/>
		
			<linearGradient id="SVGID_2_" gradientUnits="userSpaceOnUse" x1="64.1" y1="120" x2="64.1" y2="8.9" gradientTransform="matrix(1 0 0 -1 0 128)">
			<stop  offset="0" style="stop-color:#FFFFFF"/>
			<stop  offset="1" style="stop-color:#FFFFFF;stop-opacity:0"/>
		</linearGradient>
		<path class="st2" d="M110.7,8H17.3C12.2,8,8,12.2,8,17.3v93.3c0,3.7,2.2,7,5.4,8.4c-0.5-1.2-0.7-2.4-0.7-3.8V22
			c0-5.1,3.8-9.3,8.6-9.3h85.6c4.7,0,8.6,4.2,8.6,9.3v93.3c0,1.3-0.3,2.6-0.7,3.8c3.2-1.5,5.4-4.7,5.4-8.4V17.3
			C120,12.2,115.8,8,110.7,8z"/>
		<g class="st3">
			<rect x="26" y="31" class="st4" width="80" height="5"/>
			<rect x="26" y="54" class="st4" width="80" height="5"/>
			<rect x="26" y="78" class="st4" width="80" height="5"/>
		</g>
		<g>
			<path class="st5" d="M42.7,112.7c-0.2-0.5-0.3-0.9-0.3-1.2c0-0.3,0.2-0.7,0.5-1.3c0.3-0.6,0.8-1,1.4-1.2c0.6-0.2,0.8,0,0.7,0.8
				s0,1.4,0.3,2c0.3,0.5,0.8,0.8,1.5,0.7c0.7-0.1,1.3-0.4,1.8-1.1s1-1.6,1.6-2.7s1.1-2.4,1.5-3.9s0.7-2.9,0.8-4.2
				c0.1-1.3,0.2-2.5,0.1-3.6c-0.1-1.1-0.3-2-0.6-2.9s-1-1.5-2-1.9s-1.6-0.9-1.9-1.4c-0.3-0.5-0.3-1.1,0.1-1.9c1.1-0.6,2-0.6,2.7-0.2
				s1.5,0.9,2.1,1.3c0.7,0.5,1.3,1,1.9,1.6c0.6,0.6,1.2,1,1.7,1.5c0.6,0.4,1,0.9,1.5,1.4c0.4,0.5,1,1,1.6,1.6
				c0.6,0.5,1.2,1.1,1.8,1.7s0.9,0.5,1-0.4s0.3-2.1,0.8-3.6c0.4-1.5,0.8-2.8,1.1-3.8c0.3-1.1,0.8-2.2,1.3-3.3
				c0.5-1.1,1.1-2.2,1.7-3.2s1.3-2,2.2-3c0.9-1,1.7-1.7,2.6-2.2c0.9-0.4,1.7-0.7,2.6-0.9c0.9-0.1,1.7-0.2,2.3-0.1
				c0.7,0.1,1.3,0.3,1.8,0.6c0.6,0.3,1.2,1.1,1.9,2.4c0,0.7-0.1,1-0.5,1.2c-0.4,0.1-0.7-0.1-1.2-0.8c-0.4-0.7-1-1.1-1.7-1.3
				c-0.7-0.2-1.3-0.3-1.9-0.3s-1.3,0.2-2.1,0.5c-0.8,0.3-1.5,0.7-2.1,1.3c-0.6,0.6-1.2,1.4-1.8,2.4c-0.6,1-1.2,2.1-1.9,3.5
				c-0.7,1.4-1.3,2.8-1.8,4.5c-0.5,1.6-0.8,3.1-1,4.4s-0.3,2.5-0.4,3.6s0,2.2,0.3,3.3c0.3,1.1,0.4,2.2,0.5,3.2c0.1,1.1,0,2-0.3,2.7
				c-0.9,0.3-1.5,0.3-1.7-0.1s-0.4-0.9-0.3-1.5c0-0.6-0.1-1.4-0.3-2.2c-0.2-0.8-0.5-1.7-0.9-2.5s-0.9-1.6-1.6-2.3
				c-0.7-0.7-1.3-1.3-1.9-1.7c-0.5-0.4-1.1-0.8-1.5-1c-0.5-0.2-0.8-0.1-0.9,0.5c-0.1,0.6-0.3,1.4-0.5,2.5s-0.5,2.4-1,3.7
				c-0.4,1.4-1.1,3-2,4.9s-1.8,3.4-2.8,4.4s-1.9,1.6-2.8,1.8c-0.9,0.2-1.6,0.1-2.1-0.3C44,114.5,43.4,113.8,42.7,112.7 M71.7,100.3
				c0.4,0.2,0.9,0.3,1.2,0.1c0.4-0.2,0.7-0.5,0.9-0.9c0.2-0.4,0.5-0.8,0.8-1.2c0.3-0.4,0.7-0.9,0.9-1.4c0.3-0.5,0.3-1,0.1-1.4
				c-0.2-0.4-0.6-0.7-1-0.8c-0.5-0.1-0.8-0.3-0.9-0.7c-0.1-0.4-0.1-0.8,0.1-1c0.2-0.3,0.7-0.6,1.3-1c0.8-0.2,1.4-0.1,1.8,0.4
				c0.5,0.5,0.7,1,0.8,1.6c0.1,0.6,0.5,0.9,1.4,1c0.8,0.1,1.5-0.1,1.9-0.5s0.8-0.4,1.1,0c0.2,0.5,0.2,0.9,0.1,1
				c-0.1,0.2-0.5,0.5-1,0.8c-0.5,0.4-1.3,0.5-2.2,0.5c-1,0-1.6,0.2-1.8,0.6c-0.2,0.4-0.5,1-1,1.7c-0.4,0.7-0.9,1.4-1.4,2
				s-1.2,1.1-2,1.5c-0.9,0.1-1.6,0-2.2-0.3s-1-0.9-1.4-1.5c-0.2-0.5-0.1-1.1,0.2-2c0.3-0.8,0.6-1.5,1-2.2c0.3-0.6,0.7-1.2,1.2-1.6
				s0.9-0.6,1.2-0.5c0.3,0.1,0.6,0.3,0.9,0.5c0.2,0.3,0.3,0.5,0.3,0.8s-0.2,0.5-0.4,0.7c-0.2,0.2-0.5,0.5-0.9,0.8s-0.8,0.8-1.1,1.5
				S71.2,100.1,71.7,100.3 M81.6,94.7c-0.1-0.5-0.1-1.1-0.1-1.7s0.3-1.6,0.8-3s0.8-2.6,0.9-3.5c-0.7,0.5-1.1,0.8-1.4,0.9
				c-0.2,0.1-0.5,0.1-0.7-0.2c-0.2-0.3-0.2-0.5-0.1-0.8c0.1-0.2,0.4-0.5,0.9-0.9s1-0.7,1.6-1.2c0.5-1.5,1-2.8,1.3-3.7
				c0.4-0.9,0.7-2,1.1-3c0.4-1.1,0.8-2,1.3-2.9c0.4-0.8,0.9-1.4,1.4-1.6c0.5,0.2,0.5,1,0.1,2.2c-0.5,1.2-0.8,2.2-1,2.9
				c-0.2,0.8-0.5,1.5-0.7,2.2s-0.5,1.5-0.7,2.5c0.7-0.5,1.8-1.2,3.2-2.2c1.4-1,2.9-1.9,4.4-2.9s3.1-1.9,4.6-2.9
				c1.6-1,3.1-1.9,4.7-2.7c1.5-0.8,3.2-1.7,4.9-2.5c1.7-0.8,3.1-1.5,4.2-1.9s2.1-0.6,3-0.3c-0.5,0.5-1.1,0.9-1.7,1.1
				s-1.2,0.5-1.8,0.7c-0.6,0.3-1.4,0.7-2.2,1.1c-0.8,0.5-1.9,1-3.1,1.7s-2.5,1.4-3.8,2.1c-1.4,0.7-2.7,1.5-4.1,2.4s-2.6,1.7-3.8,2.5
				c-1.2,0.8-2.5,1.6-3.8,2.4s-2.3,1.4-2.8,1.8c-0.6,0.3-1,0.6-1.4,0.9c-0.4,0.2-0.6,0.5-0.8,0.7c-0.2,0.2-0.3,0.6-0.5,0.9
				c-0.2,0.4-0.3,0.9-0.5,1.5s-0.4,1.4-0.6,2.4s-0.4,1.8-0.6,2.5s-0.3,1.3-0.2,1.8c0,0.5,0.2,0.9,0.5,1.1s0.7,0.3,1.1,0.2
				c0.4-0.1,1.1-0.7,2-1.6c0.9-1,1.5-1.7,1.8-2.3c0.3-0.5,0.6-0.9,0.8-1.1c0.2-0.2,0.4-0.3,0.6-0.1c0.2,0.1,0.2,0.5-0.1,1.2
				c-0.3,0.7-0.6,1.3-0.9,1.7c-0.3,0.4-0.6,0.9-1.1,1.4c-0.4,0.5-0.9,0.9-1.5,1.4c-0.4,0.3-0.8,0.5-1.1,0.7
				c-0.2,0.1-0.5,0.2-0.7,0.3c-0.6,0.2-1.2,0.4-1.6,0.3c-0.4,0-0.8-0.2-1.1-0.5c-0.3-0.2-0.5-0.5-0.6-0.7c0,0,0,0,0-0.1
				C81.7,95.6,81.6,95.2,81.6,94.7 M91.4,88.1c0.8-0.8,1.3-1.4,1.4-1.9c0.2-0.4,0.2-0.8,0-1s-0.4-0.1-0.8,0.4s-0.6,0.9-0.6,1.3
				S91.4,87.7,91.4,88.1 M90.2,90.7c-0.4-0.8-0.6-1.5-0.7-2c0-0.5,0.1-1.2,0.3-1.9c0.2-0.7,0.5-1.4,0.7-1.9c0.3-0.6,0.6-1.1,1.1-1.4
				l0.5-0.3c0.5-0.2,1-0.3,1.5-0.3c0.5,0.1,0.9,0.4,1.1,1.1c0.3,0.7,0.2,1.4-0.1,2.1c-0.3,0.8-0.8,1.4-1.4,2s-0.9,1-0.9,1.2
				s0.2,0.3,0.6,0.4c0.4,0,1.1-0.2,2.1-0.6c1-0.5,1.8-1,2.4-1.5s1-0.9,1.3-1.3s0.5-0.7,0.7-0.9c0.2-0.2,0.4-0.2,0.7,0.1
				c-0.1,0.8-0.3,1.5-0.7,2c-0.3,0.5-0.8,1.1-1.4,1.7s-1.4,1.2-2.5,1.8l-0.6,0.3c-1.2,0.5-2.1,0.7-2.6,0.7s-0.9-0.1-1.3-0.2
				C90.9,91.5,90.5,91.2,90.2,90.7 M100.9,85.4c0.4,0.4,0.8,0.4,1.2,0.1c0.4-0.3,0.7-0.7,1-1.1c0.2-0.4,0.4-1,0.6-1.7
				c0.1-0.7,0.1-1.1,0-1.2c-0.6,1.2-1.1,2-1.5,2.5C101.8,84.4,101.4,84.9,100.9,85.4 M98,85.6c-0.2-0.5-0.4-0.9-0.4-1.2
				s0-0.6,0.2-0.8c0.2-0.2,0.4-0.4,0.7-0.5c0.3-0.1,0.8,0.3,1.5,1.2c0.6-0.5,1.1-0.9,1.4-1.4c0.4-0.5,0.7-1,1-1.4
				c0.3-0.5,0.7-1,1.1-1.5c0.4-0.6,0.8-1.1,1.2-1.7c0.3-0.6,0.6-1.1,0.7-1.5s0.1-0.8,0.1-1.2c0-0.4,0.1-0.7,0.3-0.9
				c0.4-0.2,0.7-0.2,0.9-0.2c0.2,0,0.5,0.3,0.8,0.8c0.1,0.2,0.2,0.5,0.2,0.7c0,0.3-0.1,0.6-0.2,1.1c-0.2,0.5-0.4,0.9-0.6,1.2
				c-0.3,0.4-0.5,0.8-0.8,1.3s-0.5,1.1-0.7,1.7c-0.2,0.7-0.3,1.3-0.3,1.8s0,1,0,1.4s-0.2,0.9-0.5,1.3s-0.9,0.9-1.7,1.4
				c-0.6,0.3-1.1,0.4-1.5,0.5c-0.4,0-0.9-0.2-1.7-0.6C98.9,86.7,98.4,86.2,98,85.6"/>
			<path class="st6" d="M42.1,110.7c-0.2-0.5-0.3-0.9-0.3-1.2c0-0.3,0.2-0.7,0.5-1.3c0.3-0.6,0.8-1,1.4-1.2c0.6-0.2,0.8,0,0.7,0.8
				s0,1.4,0.3,2c0.3,0.5,0.8,0.8,1.5,0.7c0.7-0.1,1.3-0.4,1.8-1.1s1-1.6,1.6-2.7s1.1-2.4,1.5-3.9s0.7-2.9,0.8-4.2
				c0.1-1.3,0.2-2.5,0.1-3.6c-0.1-1.1-0.3-2-0.6-2.9s-1-1.5-2-1.9s-1.6-0.9-1.9-1.4c-0.3-0.5-0.3-1.1,0.1-1.9c1.1-0.6,2-0.6,2.7-0.2
				s1.5,0.9,2.1,1.3c0.7,0.5,1.3,1,1.9,1.6c0.6,0.6,1.2,1,1.7,1.5c0.6,0.4,1,0.9,1.5,1.4c0.4,0.5,1,1,1.6,1.6
				c0.6,0.5,1.2,1.1,1.8,1.7s0.9,0.5,1-0.4s0.3-2.1,0.8-3.6c0.4-1.5,0.8-2.8,1.1-3.8c0.3-1.1,0.8-2.2,1.3-3.3
				c0.5-1.1,1.1-2.2,1.7-3.2s1.3-2,2.2-3c0.9-1,1.7-1.7,2.6-2.2c0.9-0.4,1.7-0.7,2.6-0.9c0.9-0.1,1.7-0.2,2.3-0.1
				c0.7,0.1,1.3,0.3,1.8,0.6c0.6,0.3,1.2,1.1,1.9,2.4c0,0.7-0.1,1-0.5,1.2c-0.4,0.1-0.7-0.1-1.2-0.8c-0.4-0.7-1-1.1-1.7-1.3
				c-0.7-0.2-1.3-0.3-1.9-0.3s-1.3,0.2-2.1,0.5c-0.8,0.3-1.5,0.7-2.1,1.3c-0.6,0.6-1.2,1.4-1.8,2.4c-0.6,1-1.2,2.1-1.9,3.5
				c-0.7,1.4-1.3,2.8-1.8,4.5c-0.5,1.6-0.8,3.1-1,4.4c-0.2,1.3-0.3,2.5-0.4,3.6c-0.1,1.1,0,2.2,0.3,3.3c0.3,1.1,0.4,2.2,0.5,3.2
				c0.1,1.1,0,2-0.3,2.7c-0.9,0.3-1.5,0.3-1.7-0.1s-0.4-0.9-0.3-1.5c0-0.6-0.1-1.4-0.3-2.2c-0.2-0.8-0.5-1.7-0.9-2.5
				s-0.9-1.6-1.6-2.3c-0.7-0.7-1.3-1.3-1.9-1.7c-0.5-0.4-1.1-0.8-1.5-1c-0.5-0.2-0.8-0.1-0.9,0.5c-0.1,0.6-0.3,1.4-0.5,2.5
				s-0.5,2.4-1,3.7c-0.4,1.4-1.1,3-2,4.9s-1.8,3.4-2.8,4.4s-1.9,1.6-2.8,1.8c-0.9,0.2-1.6,0.1-2.1-0.3
				C43.4,112.5,42.8,111.7,42.1,110.7 M71.1,98.3c0.4,0.2,0.9,0.3,1.2,0.1c0.4-0.2,0.7-0.5,0.9-0.9c0.2-0.4,0.5-0.8,0.8-1.2
				c0.3-0.4,0.7-0.9,0.9-1.4c0.3-0.5,0.3-1,0.1-1.4c-0.2-0.4-0.6-0.7-1-0.8c-0.5-0.1-0.8-0.3-0.9-0.7c-0.1-0.4-0.1-0.8,0.1-1
				c0.2-0.3,0.7-0.6,1.3-1c0.8-0.2,1.4-0.1,1.8,0.4c0.5,0.5,0.7,1,0.8,1.6c0.1,0.6,0.5,0.9,1.4,1c0.8,0.1,1.5-0.1,1.9-0.5
				s0.8-0.4,1.1,0c0.2,0.5,0.2,0.9,0.1,1c-0.1,0.2-0.5,0.5-1,0.8c-0.5,0.4-1.3,0.5-2.2,0.5c-1,0-1.6,0.2-1.8,0.6
				c-0.2,0.4-0.5,1-1,1.7c-0.4,0.7-0.9,1.4-1.4,2s-1.2,1.1-2,1.5c-0.9,0.1-1.6,0-2.2-0.3s-1-0.9-1.4-1.5c-0.2-0.5-0.1-1.1,0.2-2
				c0.3-0.8,0.6-1.5,1-2.2c0.3-0.6,0.7-1.2,1.2-1.6s0.9-0.6,1.2-0.5c0.3,0.1,0.6,0.3,0.9,0.5c0.2,0.3,0.3,0.5,0.3,0.8
				s-0.2,0.5-0.4,0.7c-0.2,0.2-0.5,0.5-0.9,0.8s-0.8,0.8-1.1,1.5C70.6,97.6,70.6,98,71.1,98.3 M81,92.7c-0.1-0.5-0.1-1.1-0.1-1.7
				s0.3-1.6,0.8-3s0.8-2.6,0.9-3.5c-0.7,0.5-1.1,0.8-1.4,0.9c-0.2,0.1-0.5,0.1-0.7-0.2c-0.2-0.3-0.2-0.5-0.1-0.8
				c0.1-0.2,0.4-0.5,0.9-0.9s1-0.7,1.6-1.2c0.5-1.5,1-2.8,1.3-3.7c0.4-0.9,0.7-2,1.1-3c0.4-1.1,0.8-2,1.3-2.9
				c0.4-0.8,0.9-1.4,1.4-1.6c0.5,0.2,0.5,1,0.1,2.2c-0.5,1.2-0.8,2.2-1,2.9c-0.2,0.8-0.5,1.5-0.7,2.2s-0.5,1.5-0.7,2.5
				c0.7-0.5,1.8-1.2,3.2-2.2c1.4-1,2.9-1.9,4.4-2.9s3.1-1.9,4.6-2.9c1.6-1,3.1-1.9,4.7-2.7c1.5-0.8,3.2-1.7,4.9-2.5
				c1.7-0.8,3.1-1.5,4.2-1.9s2.1-0.6,3-0.3c-0.5,0.5-1.1,0.9-1.7,1.1s-1.2,0.5-1.8,0.7c-0.6,0.3-1.4,0.7-2.2,1.1
				c-0.8,0.5-1.9,1-3.1,1.7s-2.5,1.4-3.8,2.1c-1.4,0.7-2.7,1.5-4.1,2.4s-2.6,1.7-3.8,2.5c-1.2,0.8-2.5,1.6-3.8,2.4s-2.3,1.4-2.8,1.8
				c-0.6,0.3-1,0.6-1.4,0.9c-0.4,0.2-0.6,0.5-0.8,0.7c-0.2,0.2-0.3,0.6-0.5,0.9c-0.2,0.4-0.3,0.9-0.5,1.5s-0.4,1.4-0.6,2.4
				s-0.4,1.8-0.6,2.5S82.9,91.5,83,92c0,0.5,0.2,0.9,0.5,1.1s0.7,0.3,1.1,0.2c0.4-0.1,1.1-0.7,2-1.6c0.9-1,1.5-1.7,1.8-2.3
				c0.3-0.5,0.6-0.9,0.8-1.1c0.2-0.2,0.4-0.3,0.6-0.1c0.2,0.1,0.2,0.5-0.1,1.2c-0.3,0.7-0.6,1.3-0.9,1.7c-0.3,0.4-0.6,0.9-1.1,1.4
				c-0.4,0.5-0.9,0.9-1.5,1.4c-0.4,0.3-0.8,0.5-1.1,0.7c-0.2,0.1-0.5,0.2-0.7,0.3c-0.6,0.2-1.2,0.4-1.6,0.3c-0.4,0-0.8-0.2-1.1-0.5
				c-0.3-0.2-0.5-0.5-0.6-0.7c0,0,0,0,0-0.1C81.2,93.6,81.1,93.2,81,92.7 M90.8,86c0.8-0.8,1.3-1.4,1.4-1.9c0.2-0.4,0.2-0.8,0-1
				s-0.4-0.1-0.8,0.4s-0.6,0.9-0.6,1.3C90.9,85.2,90.8,85.6,90.8,86 M89.6,88.7c-0.4-0.8-0.6-1.5-0.7-2c0-0.5,0.1-1.2,0.3-1.9
				c0.2-0.7,0.5-1.4,0.7-1.9c0.3-0.6,0.6-1.1,1.1-1.4l0.5-0.3c0.5-0.2,1-0.3,1.5-0.3c0.5,0.1,0.9,0.4,1.1,1.1
				c0.3,0.7,0.2,1.4-0.1,2.1c-0.3,0.8-0.8,1.4-1.4,2s-0.9,1-0.9,1.2s0.2,0.3,0.6,0.4c0.4,0,1.1-0.2,2.1-0.6c1-0.5,1.8-1,2.4-1.5
				s1-0.9,1.3-1.3s0.5-0.7,0.7-0.9c0.2-0.2,0.4-0.2,0.7,0.1c-0.1,0.8-0.3,1.5-0.7,2c-0.3,0.5-0.8,1.1-1.4,1.7S96,88.4,94.9,89
				l-0.6,0.3c-1.2,0.5-2.1,0.7-2.6,0.7s-0.9-0.1-1.3-0.2C90.3,89.5,89.9,89.2,89.6,88.7 M100.3,83.3c0.4,0.4,0.8,0.4,1.2,0.1
				c0.4-0.3,0.7-0.7,1-1.1c0.2-0.4,0.4-1,0.6-1.7c0.1-0.7,0.1-1.1,0-1.2c-0.6,1.2-1.1,2-1.5,2.5C101.2,82.4,100.8,82.9,100.3,83.3
				 M97.4,83.5C97.2,83,97,82.6,97,82.3c-0.1-0.3,0-0.6,0.2-0.8c0.2-0.2,0.4-0.4,0.7-0.5c0.3-0.1,0.8,0.3,1.5,1.2
				c0.6-0.5,1.1-0.9,1.4-1.4c0.4-0.5,0.7-1,1-1.4c0.3-0.5,0.7-1,1.1-1.5c0.4-0.6,0.8-1.1,1.2-1.7c0.3-0.6,0.6-1.1,0.7-1.5
				s0.1-0.8,0.1-1.2c0-0.4,0.1-0.7,0.3-0.9c0.4-0.2,0.7-0.2,0.9-0.2c0.2,0,0.5,0.3,0.8,0.8c0.1,0.2,0.2,0.5,0.2,0.7
				c0,0.3-0.1,0.6-0.2,1.1c-0.2,0.5-0.4,0.9-0.6,1.2c-0.3,0.4-0.5,0.8-0.8,1.3s-0.5,1.1-0.7,1.7c-0.2,0.7-0.3,1.3-0.3,1.8s0,1,0,1.4
				s-0.2,0.9-0.5,1.3s-0.9,0.9-1.7,1.4c-0.6,0.3-1.1,0.4-1.5,0.5s-0.9-0.2-1.7-0.6C98.4,84.7,97.8,84.1,97.4,83.5"/>
		</g>
		
			<linearGradient id="SVGID_3_" gradientUnits="userSpaceOnUse" x1="27" y1="87" x2="27" y2="101" gradientTransform="matrix(1 0 0 -1 0 128)">
			<stop  offset="0" style="stop-color:#108EE9"/>
			<stop  offset="1" style="stop-color:#69BFFF"/>
		</linearGradient>
		<circle class="st7" cx="27" cy="34" r="7"/>
		
			<linearGradient id="SVGID_4_" gradientUnits="userSpaceOnUse" x1="27" y1="40" x2="27" y2="54" gradientTransform="matrix(1 0 0 -1 0 128)">
			<stop  offset="0" style="stop-color:#FFA437"/>
			<stop  offset="1" style="stop-color:#FFB65F"/>
		</linearGradient>
		<circle class="st8" cx="27" cy="81" r="7"/>
		
			<linearGradient id="SVGID_5_" gradientUnits="userSpaceOnUse" x1="27" y1="64" x2="27" y2="78" gradientTransform="matrix(1 0 0 -1 0 128)">
			<stop  offset="0" style="stop-color:#F04134"/>
			<stop  offset="1" style="stop-color:#FF9377"/>
		</linearGradient>
		<circle class="st9" cx="27" cy="57" r="7"/>
	</g>
</g>
</svg>
