<?xml version="1.0" encoding="UTF-8"?>
<svg width="56px" height="56px" viewBox="0 0 56 56" version="1.1" xmlns="http://www.w3.org/2000/svg" xmlns:xlink="http://www.w3.org/1999/xlink">
    <title>ICON/Data Usage</title>
    <defs>
        <linearGradient x1="50.0005263%" y1="0.348205128%" x2="50.0005263%" y2="103.831213%" id="linearGradient-1">
            <stop stop-color="#838383" offset="0%"></stop>
            <stop stop-color="#1E1E1E" offset="100%"></stop>
        </linearGradient>
        <linearGradient x1="50%" y1="0%" x2="50%" y2="98.4596946%" id="linearGradient-2">
            <stop stop-color="#FFE044" offset="0%"></stop>
            <stop stop-color="#FF9E00" offset="100%"></stop>
        </linearGradient>
        <linearGradient x1="66.3663468%" y1="96.6444396%" x2="66.3663468%" y2="0%" id="linearGradient-3">
            <stop stop-color="#009AFA" offset="0%"></stop>
            <stop stop-color="#40EA98" offset="100%"></stop>
        </linearGradient>
        <linearGradient x1="50%" y1="0%" x2="50%" y2="100%" id="linearGradient-4">
            <stop stop-color="#58D9FF" offset="0%"></stop>
            <stop stop-color="#196FFF" offset="100%"></stop>
        </linearGradient>
        <linearGradient x1="50%" y1="0%" x2="50%" y2="100%" id="linearGradient-5">
            <stop stop-color="#58D9FF" offset="0%"></stop>
            <stop stop-color="#196FFF" offset="100%"></stop>
        </linearGradient>
        <path d="M19.0452278,1.04754906 C19.069273,1.13434546 19.0814821,1.22399243 19.081524,1.31405786 L19.083186,4.88564477 C19.083443,5.43792946 18.6359362,5.88585301 18.0836515,5.88611001 C17.8615862,5.88621335 17.6458037,5.81239817 17.4703291,5.67630391 L16.37,4.823 L12.1253455,9.87656771 L7.45119084,7.38508753 L1.54148808,14.5088202 C1.28883822,14.8133719 0.845232077,14.8741123 0.520015259,14.6486844 C0.504836573,14.6381631 0.490119295,14.6269913 0.475904551,14.6152002 C0.203200284,14.3889918 0.165507906,13.9845432 0.391716268,13.711839 L0.391716268,13.711839 L7.11785888,5.60317414 L11.7908908,8.09405582 L15.26,3.962 L14.0768064,3.04436174 C13.6403944,2.70589013 13.560998,2.07772287 13.8994697,1.64131089 C14.0315228,1.47104681 14.2150388,1.34798953 14.4226893,1.29046426 L17.81455,0.350819515 C18.3467888,0.203373765 18.8977821,0.515310207 19.0452278,1.04754906 Z" id="path-6"></path>
        <filter x="-35.4%" y="-31.2%" width="172.1%" height="189.8%" filterUnits="objectBoundingBox" id="filter-7">
            <feOffset dx="0" dy="2" in="SourceAlpha" result="shadowOffsetOuter1"></feOffset>
            <feGaussianBlur stdDeviation="2" in="shadowOffsetOuter1" result="shadowBlurOuter1"></feGaussianBlur>
            <feColorMatrix values="0 0 0 0 0.371797505   0 0 0 0 0.805180893   0 0 0 0 0.960150235  0 0 0 0.332468313 0" type="matrix" in="shadowBlurOuter1"></feColorMatrix>
        </filter>
    </defs>
    <g id="ICON/Data-Usage" stroke="none" stroke-width="1" fill="none" fill-rule="evenodd">
        <rect id="矩形" fill="#FF6969" opacity="0" x="0" y="0" width="56" height="56"></rect>
        <g id="编组-2" transform="translate(5.166667, 7.791667)">
            <path d="M5,0 L41,0 C43.7614237,-5.07265313e-16 46,2.23857625 46,5 L46,34 C46,36.7614237 43.7614237,39 41,39 L5,39 C2.23857625,39 3.38176876e-16,36.7614237 0,34 L0,5 C-3.38176876e-16,2.23857625 2.23857625,5.07265313e-16 5,0 Z" id="矩形" fill="url(#linearGradient-1)"></path>
            <g id="编组" transform="translate(2.833333, 3.066667)" fill="#FFFFFF">
                <path d="M2,0 L38,0 C39.1045695,-2.02906125e-16 40,0.8954305 40,2 L40,31 C40,32.1045695 39.1045695,33 38,33 L2,33 C0.8954305,33 1.3527075e-16,32.1045695 0,31 L0,2 C-1.3527075e-16,0.8954305 0.8954305,2.02906125e-16 2,0 Z" id="矩形"></path>
            </g>
            <g id="编组-3" transform="translate(11.000000, 5.000000)">
                <rect id="矩形" fill="url(#linearGradient-2)" x="0.146417083" y="16.6429356" width="5.82363951" height="11.3570644" rx="2"></rect>
                <rect id="矩形备份" fill="url(#linearGradient-3)" fill-rule="nonzero" x="8.91126976" y="19.0807382" width="5.82363951" height="8.91926184" rx="2"></rect>
                <path d="M19.6761224,11.36103 L21.4997619,11.36103 C22.6043314,11.36103 23.4997619,12.2564605 23.4997619,13.36103 L23.4997619,26 C23.4997619,27.1045695 22.6043314,28 21.4997619,28 L19.6761224,28 C18.5715529,28 17.6761224,27.1045695 17.6761224,26 L17.6761224,13.36103 C17.6761224,12.2564605 18.5715529,11.36103 19.6761224,11.36103 Z" id="矩形备份-9" fill="url(#linearGradient-4)"></path>
                <g id="形状结合">
                    <use fill="black" fill-opacity="1" filter="url(#filter-7)" xlink:href="#path-6"></use>
                    <use fill="url(#linearGradient-5)" fill-rule="evenodd" xlink:href="#path-6"></use>
                </g>
            </g>
        </g>
    </g>
</svg>