<?xml version="1.0" encoding="UTF-8"?>
<svg width="307px" height="300px" viewBox="0 0 307 300" version="1.1" xmlns="http://www.w3.org/2000/svg" xmlns:xlink="http://www.w3.org/1999/xlink">
    <!-- Generator: Sketch 58 (84663) - https://sketch.com -->
    <title>dcc_firewall_300px</title>
    <desc>Created with Sketch.</desc>
    <defs>
        <linearGradient x1="50%" y1="1.96837286%" x2="50%" y2="116.067584%" id="linearGradient-1">
            <stop stop-color="#0281FE" offset="0%"></stop>
            <stop stop-color="#A7C2FF" offset="100%"></stop>
        </linearGradient>
        <path d="M158.068445,33.1742895 L90.9537422,13.4912125 C88.0590486,12.4541391 85.3021152,12.5887306 83.0466891,13.4912125 L15.9317401,33.1742893 C13.8052025,33.9449062 12.2841698,35.8438112 11.9857299,38.0976611 C11.8356474,39.2314024 8.39213005,66.2265403 15.4322046,97.0782328 C19.6157837,115.410685 26.6548723,131.283807 36.3555216,144.257138 C48.3628568,160.315168 64.4140393,171.868968 84.0755794,178.619611 C85.7052925,179.283893 87.4870595,179.587778 89.9233732,178.619611 C109.584913,171.869215 125.637328,160.315168 137.644663,144.257138 C147.344327,131.283807 154.384401,115.410685 158.56798,97.0782328 C165.608301,66.2265404 162.163798,39.2314025 162.014455,38.0976613 C161.716015,35.8435634 160.193997,33.9449064 158.068445,33.1742895 Z" id="path-2"></path>
        <filter x="-7.2%" y="-4.2%" width="114.5%" height="113.2%" filterUnits="objectBoundingBox" id="filter-3">
            <feOffset dx="0" dy="4" in="SourceAlpha" result="shadowOffsetOuter1"></feOffset>
            <feGaussianBlur stdDeviation="3" in="shadowOffsetOuter1" result="shadowBlurOuter1"></feGaussianBlur>
            <feColorMatrix values="0 0 0 0 0   0 0 0 0 0.256413843   0 0 0 0 0.425271739  0 0 0 0.475579108 0" type="matrix" in="shadowBlurOuter1"></feColorMatrix>
        </filter>
        <filter x="-4.3%" y="-1.5%" width="108.6%" height="107.8%" filterUnits="objectBoundingBox" id="filter-4">
            <feOffset dx="0" dy="1" in="SourceAlpha" result="shadowOffsetInner1"></feOffset>
            <feComposite in="shadowOffsetInner1" in2="SourceAlpha" operator="arithmetic" k2="-1" k3="1" result="shadowInnerInner1"></feComposite>
            <feColorMatrix values="0 0 0 0 1   0 0 0 0 1   0 0 0 0 1  0 0 0 0.628414554 0" type="matrix" in="shadowInnerInner1"></feColorMatrix>
        </filter>
        <path d="M86.9998481,27.1908613 L86.9998481,168.138861 L86.7993099,168.066581 C56.3727881,156.90226 36.7196755,132.843531 28.3645281,96.5029518 C23.2125301,74.0943306 24.0749133,53.3716725 24.7135523,45.2596132 L86.9998481,27.1908613 Z" id="path-5"></path>
        <filter x="-11.2%" y="-3.5%" width="122.3%" height="109.9%" filterUnits="objectBoundingBox" id="filter-7">
            <feOffset dx="0" dy="2" in="SourceAlpha" result="shadowOffsetOuter1"></feOffset>
            <feGaussianBlur stdDeviation="2" in="shadowOffsetOuter1" result="shadowBlurOuter1"></feGaussianBlur>
            <feColorMatrix values="0 0 0 0 0.193296066   0 0 0 0 0.439206546   0 0 0 0 0.70519135  0 0 0 0.485331075 0" type="matrix" in="shadowBlurOuter1"></feColorMatrix>
        </filter>
        <filter x="-9.6%" y="-2.8%" width="119.1%" height="108.5%" filterUnits="objectBoundingBox" id="filter-8">
            <feGaussianBlur stdDeviation="1.5" in="SourceAlpha" result="shadowBlurInner1"></feGaussianBlur>
            <feOffset dx="0" dy="1" in="shadowBlurInner1" result="shadowOffsetInner1"></feOffset>
            <feComposite in="shadowOffsetInner1" in2="SourceAlpha" operator="arithmetic" k2="-1" k3="1" result="shadowInnerInner1"></feComposite>
            <feColorMatrix values="0 0 0 0 0   0 0 0 0 0.325161151   0 0 0 0 0.662335824  0 0 0 0.5 0" type="matrix" in="shadowInnerInner1"></feColorMatrix>
        </filter>
        <path d="M87.7200367,27.1907514 L150.384536,45.4101351 C151.02303,53.4410961 151.881585,73.8701893 146.824812,96.150894 C138.480041,132.920649 118.598517,157.128134 87.7197929,168.138728 L87,167.876751 L87,27.3997514 L87.7200367,27.1907514 Z" id="path-9"></path>
        <filter x="-11.0%" y="-3.5%" width="121.9%" height="109.9%" filterUnits="objectBoundingBox" id="filter-11">
            <feOffset dx="0" dy="2" in="SourceAlpha" result="shadowOffsetOuter1"></feOffset>
            <feGaussianBlur stdDeviation="2" in="shadowOffsetOuter1" result="shadowBlurOuter1"></feGaussianBlur>
            <feColorMatrix values="0 0 0 0 0.193296066   0 0 0 0 0.439206546   0 0 0 0 0.70519135  0 0 0 0.485331075 0" type="matrix" in="shadowBlurOuter1"></feColorMatrix>
        </filter>
        <filter x="-9.4%" y="-2.8%" width="118.8%" height="108.5%" filterUnits="objectBoundingBox" id="filter-12">
            <feGaussianBlur stdDeviation="1.5" in="SourceAlpha" result="shadowBlurInner1"></feGaussianBlur>
            <feOffset dx="0" dy="1" in="shadowBlurInner1" result="shadowOffsetInner1"></feOffset>
            <feComposite in="shadowOffsetInner1" in2="SourceAlpha" operator="arithmetic" k2="-1" k3="1" result="shadowInnerInner1"></feComposite>
            <feColorMatrix values="0 0 0 0 0   0 0 0 0 0.325161151   0 0 0 0 0.662335824  0 0 0 0.5 0" type="matrix" in="shadowInnerInner1"></feColorMatrix>
        </filter>
        <path d="M91.7388022,79.552945 C82.4438123,80.9848556 73.6738118,82.8127063 65.5692502,84.9825885 C31.3924648,94.1329413 9.04913471,109.365618 9.07159716,126.638005 C9.10817797,154.732408 68.3033444,177.584424 141.287719,177.679708 L141.287719,177.679708 C214.272093,177.774397 273.407978,155.076385 273.371431,126.981981 C273.349189,109.905018 251.469511,94.764971 217.921471,85.4952907 C212.392972,83.9677078 206.547598,82.5995459 200.430945,81.4084081" id="path-13"></path>
        <filter x="-4.5%" y="-8.3%" width="109.1%" height="124.6%" filterUnits="objectBoundingBox" id="filter-14">
            <feMorphology radius="1" operator="dilate" in="SourceAlpha" result="shadowSpreadOuter1"></feMorphology>
            <feOffset dx="0" dy="4" in="shadowSpreadOuter1" result="shadowOffsetOuter1"></feOffset>
            <feMorphology radius="1" operator="erode" in="SourceAlpha" result="shadowInner"></feMorphology>
            <feOffset dx="0" dy="4" in="shadowInner" result="shadowInner"></feOffset>
            <feComposite in="shadowOffsetOuter1" in2="shadowInner" operator="out" result="shadowOffsetOuter1"></feComposite>
            <feGaussianBlur stdDeviation="3" in="shadowOffsetOuter1" result="shadowBlurOuter1"></feGaussianBlur>
            <feColorMatrix values="0 0 0 0 0.17254902   0 0 0 0 0.654901961   0 0 0 0 0.97254902  0 0 0 0.4 0" type="matrix" in="shadowBlurOuter1"></feColorMatrix>
        </filter>
        <path d="M94.1762255,79.5692575 C84.9271851,80.9983075 76.1990974,82.8195493 68.1305481,84.9797897 C33.9537627,94.1301425 11.6104326,109.362819 11.6328951,126.635206 C11.6694759,154.729609 70.8646423,177.581625 143.849017,177.676909 L143.849017,177.676909 C216.833391,177.771598 275.969276,155.073586 275.932729,126.979183 C275.910487,109.902219 254.030809,94.7621722 220.482769,85.4924919 C214.103792,83.7299129 207.302947,82.1795767 200.150279,80.8685244" id="path-15"></path>
        <filter x="-4.5%" y="-8.3%" width="109.1%" height="124.6%" filterUnits="objectBoundingBox" id="filter-16">
            <feMorphology radius="1" operator="dilate" in="SourceAlpha" result="shadowSpreadOuter1"></feMorphology>
            <feOffset dx="0" dy="4" in="shadowSpreadOuter1" result="shadowOffsetOuter1"></feOffset>
            <feMorphology radius="1" operator="erode" in="SourceAlpha" result="shadowInner"></feMorphology>
            <feOffset dx="0" dy="4" in="shadowInner" result="shadowInner"></feOffset>
            <feComposite in="shadowOffsetOuter1" in2="shadowInner" operator="out" result="shadowOffsetOuter1"></feComposite>
            <feGaussianBlur stdDeviation="3" in="shadowOffsetOuter1" result="shadowBlurOuter1"></feGaussianBlur>
            <feColorMatrix values="0 0 0 0 0.17254902   0 0 0 0 0.654901961   0 0 0 0 0.97254902  0 0 0 0.4 0" type="matrix" in="shadowBlurOuter1"></feColorMatrix>
        </filter>
        <circle id="path-17" cx="42.5" cy="42.5" r="42.5"></circle>
        <filter x="-13.5%" y="-8.8%" width="127.1%" height="127.1%" filterUnits="objectBoundingBox" id="filter-18">
            <feMorphology radius="0.5" operator="dilate" in="SourceAlpha" result="shadowSpreadOuter1"></feMorphology>
            <feOffset dx="0" dy="4" in="shadowSpreadOuter1" result="shadowOffsetOuter1"></feOffset>
            <feMorphology radius="1" operator="erode" in="SourceAlpha" result="shadowInner"></feMorphology>
            <feOffset dx="0" dy="4" in="shadowInner" result="shadowInner"></feOffset>
            <feComposite in="shadowOffsetOuter1" in2="shadowInner" operator="out" result="shadowOffsetOuter1"></feComposite>
            <feGaussianBlur stdDeviation="3" in="shadowOffsetOuter1" result="shadowBlurOuter1"></feGaussianBlur>
            <feColorMatrix values="0 0 0 0 0   0 0 0 0 0.225334928   0 0 0 0 0.373726223  0 0 0 0.425152972 0" type="matrix" in="shadowBlurOuter1"></feColorMatrix>
        </filter>
        <filter x="-8.2%" y="-3.5%" width="116.5%" height="116.5%" filterUnits="objectBoundingBox" id="filter-19">
            <feOffset dx="0" dy="1" in="SourceAlpha" result="shadowOffsetInner1"></feOffset>
            <feComposite in="shadowOffsetInner1" in2="SourceAlpha" operator="arithmetic" k2="-1" k3="1" result="shadowInnerInner1"></feComposite>
            <feColorMatrix values="0 0 0 0 1   0 0 0 0 1   0 0 0 0 1  0 0 0 0.70036604 0" type="matrix" in="shadowInnerInner1"></feColorMatrix>
        </filter>
        <linearGradient x1="50%" y1="0%" x2="50%" y2="100%" id="linearGradient-20">
            <stop stop-color="#FFFBFE" offset="0%"></stop>
            <stop stop-color="#C6EAF1" offset="100%"></stop>
        </linearGradient>
        <circle id="path-21" cx="42.5" cy="42.5" r="32.2413793"></circle>
        <filter x="-24.8%" y="-17.1%" width="149.6%" height="149.6%" filterUnits="objectBoundingBox" id="filter-22">
            <feOffset dx="0" dy="5" in="SourceAlpha" result="shadowOffsetOuter1"></feOffset>
            <feGaussianBlur stdDeviation="4.5" in="shadowOffsetOuter1" result="shadowBlurOuter1"></feGaussianBlur>
            <feColorMatrix values="0 0 0 0 0.0652971561   0 0 0 0 0.450758935   0 0 0 0 0.743178216  0 0 0 0.467903191 0" type="matrix" in="shadowBlurOuter1"></feColorMatrix>
        </filter>
        <filter x="-14.7%" y="-7.0%" width="129.5%" height="129.5%" filterUnits="objectBoundingBox" id="filter-23">
            <feOffset dx="0" dy="1" in="SourceAlpha" result="shadowOffsetInner1"></feOffset>
            <feComposite in="shadowOffsetInner1" in2="SourceAlpha" operator="arithmetic" k2="-1" k3="1" result="shadowInnerInner1"></feComposite>
            <feColorMatrix values="0 0 0 0 1   0 0 0 0 1   0 0 0 0 1  0 0 0 1 0" type="matrix" in="shadowInnerInner1"></feColorMatrix>
        </filter>
        <path d="M38.0424828,56.2987013 C37.2815261,56.2987013 36.5222491,55.9863636 35.9427125,55.3650649 L24.0512935,42.6098701 C22.8919931,41.3318546 22.8919931,39.3767168 24.0512935,38.0987013 C24.5896289,37.5037882 25.352635,37.1646465 26.1527436,37.1646465 C26.9528522,37.1646465 27.7158582,37.5037882 28.2541937,38.0987013 L38.040803,48.6 L56.7455567,28.5344156 C57.9046299,27.2850649 59.7860241,27.2850649 60.9484569,28.5344156 C62.1080901,29.8110068 62.1080901,31.7656166 60.9484569,33.0422078 L40.1456127,55.3633766 C39.5643963,55.9846753 38.8017598,56.297013 38.0424828,56.297013 L38.0424828,56.2987013 Z" id="path-24"></path>
        <filter x="-28.5%" y="-24.4%" width="156.9%" height="176.7%" filterUnits="objectBoundingBox" id="filter-25">
            <feOffset dx="0" dy="4" in="SourceAlpha" result="shadowOffsetOuter1"></feOffset>
            <feGaussianBlur stdDeviation="3" in="shadowOffsetOuter1" result="shadowBlurOuter1"></feGaussianBlur>
            <feColorMatrix values="0 0 0 0 0.253944305   0 0 0 0 0.86865942   0 0 0 0 0  0 0 0 0.4 0" type="matrix" in="shadowBlurOuter1"></feColorMatrix>
        </filter>
        <linearGradient x1="84.1423327%" y1="13.5196036%" x2="17.5087115%" y2="81.5865535%" id="linearGradient-26">
            <stop stop-color="#B2EDFF" offset="0%"></stop>
            <stop stop-color="#54C6FF" offset="100%"></stop>
        </linearGradient>
        <linearGradient x1="84.5183632%" y1="19.4018719%" x2="26.058777%" y2="100%" id="linearGradient-27">
            <stop stop-color="#A5E053" offset="0%"></stop>
            <stop stop-color="#62D86F" offset="100%"></stop>
        </linearGradient>
        <linearGradient x1="84.5183632%" y1="22.0047373%" x2="26.058777%" y2="95.7466919%" id="linearGradient-28">
            <stop stop-color="#FF9F49" offset="0%"></stop>
            <stop stop-color="#FD7A37" offset="100%"></stop>
        </linearGradient>
    </defs>
    <g id="dcc_firewall_300px" stroke="none" stroke-width="1" fill="none" fill-rule="evenodd">
        <g id="编组" transform="translate(16.000000, 20.500000)">
            <g id="编组-7" transform="translate(57.000000, 45.500000)">
                <path d="M168.36822,23.9598519 L91.5267484,1.38992365 C88.2125339,0.200746221 85.056045,0.355077767 82.4737455,1.38992365 L5.63199229,23.9598517 C3.19726079,24.8434925 1.4557886,27.0209035 1.11409655,29.6053181 C0.942262935,30.9053414 -3.00031487,61.8597662 5.06006029,97.2363736 C9.84995522,118.257586 17.9092017,136.458765 29.0157421,151.334851 C42.7632708,169.748059 61.1407116,182.996416 83.6517504,190.737154 C85.5176538,191.498864 87.5576479,191.847318 90.3470505,190.737154 C112.858089,182.9967 131.236941,169.748059 144.984469,151.334851 C156.089881,136.458765 164.150256,118.257586 168.940151,97.2363736 C177.000809,61.8597663 173.057102,30.9053416 172.886115,29.6053183 C172.544423,27.0206194 170.801823,24.8434927 168.36822,23.9598519 Z" id="路径" fill="#0081FF" opacity="0.0544782366" transform="translate(87.000000, 96.000000) rotate(-360.000000) translate(-87.000000, -96.000000) "></path>
                <g id="路径备份" transform="translate(87.000000, 96.000000) rotate(-360.000000) translate(-87.000000, -96.000000) ">
                    <use fill="black" fill-opacity="1" filter="url(#filter-3)" xlink:href="#path-2"></use>
                    <use fill="url(#linearGradient-1)" fill-rule="evenodd" xlink:href="#path-2"></use>
                    <use fill="black" fill-opacity="1" filter="url(#filter-4)" xlink:href="#path-2"></use>
                </g>
                <mask id="mask-6" fill="white">
                    <use xlink:href="#path-5"></use>
                </mask>
                <g id="形状结合" fill-rule="nonzero">
                    <use fill="black" fill-opacity="1" filter="url(#filter-7)" xlink:href="#path-5"></use>
                    <use fill="#A9CEFF" xlink:href="#path-5"></use>
                    <use fill="black" fill-opacity="1" filter="url(#filter-8)" xlink:href="#path-5"></use>
                </g>
                <mask id="mask-10" fill="white">
                    <use xlink:href="#path-9"></use>
                </mask>
                <g id="形状结合备份-2" fill-rule="nonzero">
                    <use fill="black" fill-opacity="1" filter="url(#filter-11)" xlink:href="#path-9"></use>
                    <use fill="#EEF6FF" xlink:href="#path-9"></use>
                    <use fill="black" fill-opacity="1" filter="url(#filter-12)" xlink:href="#path-9"></use>
                </g>
            </g>
            <path d="M67.487797,97.5 C33.3378258,104.252271 11,115.459816 11,128.143856 C11,148.775085 70.098413,165.5 143,165.5 L143,165.5 C215.901587,165.5 275,148.775085 275,128.143856 C275,115.603326 253.164785,104.506069 219.666793,97.7308968" id="路径" stroke="#0082FF" stroke-width="2" stroke-linecap="round"></path>
            <g id="路径" opacity="0.230957031" stroke-linecap="round" transform="translate(141.221514, 128.616326) rotate(-315.000000) translate(-141.221514, -128.616326) ">
                <use fill="black" fill-opacity="1" filter="url(#filter-14)" xlink:href="#path-13"></use>
                <use stroke="#0082FF" stroke-width="2" xlink:href="#path-13"></use>
            </g>
            <g id="路径" opacity="0.230957031" stroke-linecap="round" stroke-linejoin="round" transform="translate(143.782812, 128.623083) scale(-1, 1) rotate(-315.000000) translate(-143.782812, -128.623083) ">
                <use fill="black" fill-opacity="1" filter="url(#filter-16)" xlink:href="#path-15"></use>
                <use stroke="#0082FF" stroke-width="2" xlink:href="#path-15"></use>
            </g>
            <g id="编组-65" transform="translate(102.000000, 98.500000)">
                <g id="椭圆形">
                    <use fill="black" fill-opacity="1" filter="url(#filter-18)" xlink:href="#path-17"></use>
                    <use fill="black" fill-opacity="1" filter="url(#filter-19)" xlink:href="#path-17"></use>
                    <use stroke="#BADBFF" stroke-width="1" xlink:href="#path-17"></use>
                </g>
                <g id="椭圆形备份-3">
                    <use fill="black" fill-opacity="1" filter="url(#filter-22)" xlink:href="#path-21"></use>
                    <use fill="url(#linearGradient-20)" fill-rule="evenodd" xlink:href="#path-21"></use>
                    <use fill="black" fill-opacity="1" filter="url(#filter-23)" xlink:href="#path-21"></use>
                </g>
                <g id="路径">
                    <use fill="black" fill-opacity="1" filter="url(#filter-25)" xlink:href="#path-24"></use>
                    <use fill="#23C400" fill-rule="evenodd" xlink:href="#path-24"></use>
                </g>
            </g>
            <circle id="椭圆形" fill="url(#linearGradient-26)" cx="15" cy="127.5" r="15"></circle>
            <circle id="椭圆形备份-4" fill="url(#linearGradient-27)" cx="193" cy="30.5" r="7"></circle>
            <ellipse id="椭圆形备份-5" fill="url(#linearGradient-28)" cx="214.5" cy="225.5" rx="11.5" ry="11"></ellipse>
        </g>
    </g>
</svg>