<?xml version="1.0" encoding="UTF-8"?>
<svg width="16px" height="16px" viewBox="0 0 16 16" version="1.1" xmlns="http://www.w3.org/2000/svg" xmlns:xlink="http://www.w3.org/1999/xlink">
    <title>ignore </title>
    <g id="ignore-" stroke="none" stroke-width="1" fill="none" fill-rule="evenodd" fill-opacity="0.7">
        <path d="M12.6502172,2.03618442 C12.6984631,1.98793853 12.7778354,1.98793853 12.8260813,2.03618442 L12.8260813,2.03618442 L13.4859607,2.69606381 C13.5342066,2.74430971 13.5342066,2.82368199 13.4859607,2.87037157 L13.4859607,2.87037157 L2.3925167,13.9638156 C2.3442708,14.0120615 2.26489852,14.0120615 2.21665262,13.9638156 L2.21665262,13.9638156 L1.55677323,13.3039362 C1.50852733,13.2556903 1.50852733,13.176318 1.55677323,13.1280721 L1.55677323,13.1280721 L3.12398677,11.5639712 C2.33493288,10.8262759 1.65637767,9.86135789 1.08987744,8.66766098 C0.970040853,8.41398094 0.970040853,8.11828027 1.08987744,7.86615654 L1.08987744,7.86615654 C2.56526814,4.75507425 4.79391739,3.19097335 7.78516309,3.19097335 C8.90882563,3.19097335 9.92354581,3.41197069 10.8324363,3.85240905 L10.8324363,3.85240905 Z M12.4447831,4.96828999 C13.233837,5.70442903 13.9123922,6.66934699 14.4788924,7.8630439 L14.4788924,7.8630439 L14.4804487,7.86460022 C14.6002853,8.11983659 14.6002853,8.41242462 14.4804487,8.66454834 C13.005058,11.7740743 10.7764088,13.3381752 7.78516309,13.3381752 C6.66150055,13.3381752 5.64678036,13.1171779 4.73633357,12.6782958 L4.73633357,12.6782958 L5.58764023,11.8269892 C6.25530121,12.0884508 6.98677129,12.2176253 7.78516309,12.2176253 C10.2970624,12.2176253 12.1350755,10.9445561 13.4314895,8.26301796 C12.9241294,7.21717139 12.3358407,6.38454056 11.6557292,5.7589002 L11.6557292,5.7589002 Z M10.2379223,7.17515077 C10.38266,7.5082031 10.4620323,7.87705077 10.4620323,8.26301796 C10.4620323,9.77576033 9.23565268,11.0021399 7.72291032,11.0021399 C7.33694313,11.0021399 6.96809545,10.9227677 6.63504312,10.77803 L6.63504312,10.77803 L7.43032229,9.98275079 C7.52525777,9.99987031 7.62330588,10.0076519 7.72291032,10.0076519 C8.68627197,10.0076519 9.46598794,9.22793593 9.46754426,8.26301796 C9.46754426,8.16341353 9.45820634,8.06536541 9.44264315,7.97042993 L9.44264315,7.97042993 Z M7.78516309,4.31152325 C5.27482005,4.31152325 3.43680695,5.58459244 2.13883665,8.2661306 C2.64619674,9.31197717 3.23448544,10.144608 3.91459698,10.7702484 L3.91459698,10.7702484 L5.2468063,9.43803904 C5.07872382,9.08164192 4.98378834,8.68478049 4.98378834,8.26457428 C4.98378834,6.75183192 6.21016795,5.52545231 7.72291032,5.52545231 C8.14311653,5.52545231 8.53997795,5.62038778 8.89637507,5.78847027 L8.89637507,5.78847027 L9.98268595,4.70215939 C9.31502497,4.44069775 8.58355489,4.31152325 7.78516309,4.31152325 Z M7.72291032,6.52149666 C6.75954867,6.52149666 5.9798327,7.30121263 5.9798327,8.26457428 C5.9798327,8.39997406 5.99539589,8.5322612 6.02496596,8.65987939 L6.02496596,8.65987939 L8.11821542,6.56662992 C7.99215356,6.53705985 7.8583101,6.52149666 7.72291032,6.52149666 Z" id="形状结合" fill="#000000" fill-rule="nonzero"></path>
    </g>
</svg>