<?xml version="1.0" encoding="UTF-8"?>
<svg width="190px" height="146px" viewBox="0 0 190 146" version="1.1" xmlns="http://www.w3.org/2000/svg" xmlns:xlink="http://www.w3.org/1999/xlink">
    <title>Illustration/100</title>
    <defs>
        <filter x="-19.6%" y="-17.4%" width="139.3%" height="134.7%" filterUnits="objectBoundingBox" id="filter-1">
            <feOffset dx="0" dy="2" in="SourceAlpha" result="shadowOffsetOuter1"></feOffset>
            <feGaussianBlur stdDeviation="3.5" in="shadowOffsetOuter1" result="shadowBlurOuter1"></feGaussianBlur>
            <feColorMatrix values="0 0 0 0 0.196078431   0 0 0 0 0.682352941   0 0 0 0 1  0 0 0 0.509286947 0" type="matrix" in="shadowBlurOuter1" result="shadowMatrixOuter1"></feColorMatrix>
            <feMerge>
                <feMergeNode in="shadowMatrixOuter1"></feMergeNode>
                <feMergeNode in="SourceGraphic"></feMergeNode>
            </feMerge>
        </filter>
        <linearGradient x1="50%" y1="-1.42108547e-12%" x2="50%" y2="100%" id="linearGradient-2">
            <stop stop-color="#70C1FF" offset="0%"></stop>
            <stop stop-color="#477CFF" offset="100%"></stop>
        </linearGradient>
        <linearGradient x1="43.3986458%" y1="0%" x2="43.3986458%" y2="100%" id="linearGradient-3">
            <stop stop-color="#00FF7B" offset="0%"></stop>
            <stop stop-color="#00CE6C" offset="100%"></stop>
        </linearGradient>
        <path d="M22.3487307,29 L69.6512693,29 C70.3961527,29 71,29.6038473 71,30.3487307 C71,31.0936141 70.3961527,31.6974615 69.6512693,31.6974615 L22.3487307,31.6974615 C21.6038473,31.6974615 21,31.0936141 21,30.3487307 C21,29.6038473 21.6038473,29 22.3487307,29 Z M22.3487307,40.7770496 L69.6512693,40.7770496 C70.3961527,40.7770496 71,41.3808969 71,42.1257803 C71,42.8706637 70.3961527,43.474511 69.6512693,43.474511 L22.3487307,43.474511 C21.6038473,43.474511 21,42.8706637 21,42.1257803 C21,41.3808969 21.6038473,40.7770496 22.3487307,40.7770496 Z M22.3487307,51.7770496 L69.6512693,51.7770496 C70.3961527,51.7770496 71,52.3808969 71,53.1257803 C71,53.8706637 70.3961527,54.474511 69.6512693,54.474511 L22.3487307,54.474511 C21.6038473,54.474511 21,53.8706637 21,53.1257803 C21,52.3808969 21.6038473,51.7770496 22.3487307,51.7770496 Z M22.3487307,62.7770496 L45.6512693,62.7770496 C46.3961527,62.7770496 47,63.3808969 47,64.1257803 C47,64.8706637 46.3961527,65.474511 45.6512693,65.474511 L22.3487307,65.474511 C21.6038473,65.474511 21,64.8706637 21,64.1257803 C21,63.3808969 21.6038473,62.7770496 22.3487307,62.7770496 Z" id="path-4"></path>
        <filter x="-6.0%" y="-8.2%" width="112.0%" height="116.4%" filterUnits="objectBoundingBox" id="filter-5">
            <feGaussianBlur stdDeviation="2" in="SourceAlpha" result="shadowBlurInner1"></feGaussianBlur>
            <feOffset dx="0" dy="2" in="shadowBlurInner1" result="shadowOffsetInner1"></feOffset>
            <feComposite in="shadowOffsetInner1" in2="SourceAlpha" operator="arithmetic" k2="-1" k3="1" result="shadowInnerInner1"></feComposite>
            <feColorMatrix values="0 0 0 0 1   0 0 0 0 1   0 0 0 0 1  0 0 0 0.329863008 0" type="matrix" in="shadowInnerInner1"></feColorMatrix>
        </filter>
        <linearGradient x1="39.8384646%" y1="0%" x2="39.8384646%" y2="100%" id="linearGradient-6">
            <stop stop-color="#5DC2FF" offset="0%"></stop>
            <stop stop-color="#4774FF" offset="100%"></stop>
        </linearGradient>
        <linearGradient x1="50%" y1="0%" x2="50%" y2="100%" id="linearGradient-7">
            <stop stop-color="#F9FCFF" offset="0%"></stop>
            <stop stop-color="#E6F3FF" offset="100%"></stop>
        </linearGradient>
        <path d="M65.5774919,11.4137901 C65.4478846,10.3982721 64.7868983,9.54288749 63.8638074,9.19570853 L34.7170425,0.328072302 C33.4599266,-0.139150843 32.2626378,-0.0785146125 31.2831448,0.328072302 L2.13627294,9.19570848 C1.21275409,9.54288743 0.552195673,10.3983837 0.422588347,11.41379 C0.357410076,11.9245641 -1.13805046,24.0864361 1.91933322,37.9857664 C3.73618991,46.2449178 6.79314545,53.3960901 11.0059711,59.2408462 C16.220551,66.4753227 23.1913044,71.6805505 31.7299743,74.7218562 C32.4377307,75.0211289 33.2115216,75.1580352 34.2695709,74.7218562 C42.8082408,71.6806621 49.7795292,66.4753227 54.9941092,59.2408462 C59.2065065,53.3960901 62.2638904,46.2449178 64.0807473,37.9857664 C67.1382376,24.0864362 65.6423493,11.9245641 65.5774919,11.4137901 L65.5774919,11.4137901 Z" id="path-8"></path>
        <filter x="-8.3%" y="-6.0%" width="122.7%" height="120.0%" filterUnits="objectBoundingBox" id="filter-9">
            <feOffset dx="2" dy="3" in="SourceAlpha" result="shadowOffsetOuter1"></feOffset>
            <feGaussianBlur stdDeviation="2" in="shadowOffsetOuter1" result="shadowBlurOuter1"></feGaussianBlur>
            <feComposite in="shadowBlurOuter1" in2="SourceAlpha" operator="out" result="shadowBlurOuter1"></feComposite>
            <feColorMatrix values="0 0 0 0 0.149291992   0 0 0 0 0.594193771   0 0 0 0 1  0 0 0 0.123839052 0" type="matrix" in="shadowBlurOuter1"></feColorMatrix>
        </filter>
        <filter x="-6.1%" y="-4.0%" width="118.2%" height="116.0%" filterUnits="objectBoundingBox" id="filter-10">
            <feGaussianBlur stdDeviation="1.5" in="SourceAlpha" result="shadowBlurInner1"></feGaussianBlur>
            <feOffset dx="0" dy="-1" in="shadowBlurInner1" result="shadowOffsetInner1"></feOffset>
            <feComposite in="shadowOffsetInner1" in2="SourceAlpha" operator="arithmetic" k2="-1" k3="1" result="shadowInnerInner1"></feComposite>
            <feColorMatrix values="0 0 0 0 0.248002811   0 0 0 0 0.595254326   0 0 0 0 1  0 0 0 0.390497808 0" type="matrix" in="shadowInnerInner1"></feColorMatrix>
        </filter>
        <linearGradient x1="43.3986458%" y1="0%" x2="43.3986458%" y2="100%" id="linearGradient-11">
            <stop stop-color="#00FF7B" offset="0%"></stop>
            <stop stop-color="#00CE6C" offset="100%"></stop>
        </linearGradient>
        <path d="M26.0047758,24.0478011 C26.5102244,22.283834 28.5320188,21 30.3853305,21 L37.5775501,21 C39.4308617,21 40.2732761,22.283834 39.5993445,23.8877567 L37.0702525,30.1086455 L42.3723631,30.1086455 C46.0789864,30.1086455 47.0898836,32.3562249 44.7311234,34.9238929 L27.987924,55.1574206 C26.8085438,56.4412546 26.1346123,56.2812102 26.640061,54.5172431 L30.3853305,39.2172909 L24.4884298,39.2172909 C22.6351182,39.2172909 21.624221,37.9334569 22.1296696,36.1694899 L26.0047758,24.0478011 Z" id="path-12"></path>
        <filter x="-12.5%" y="-8.6%" width="125.0%" height="117.1%" filterUnits="objectBoundingBox" id="filter-13">
            <feGaussianBlur stdDeviation="2" in="SourceAlpha" result="shadowBlurInner1"></feGaussianBlur>
            <feOffset dx="0" dy="2" in="shadowBlurInner1" result="shadowOffsetInner1"></feOffset>
            <feComposite in="shadowOffsetInner1" in2="SourceAlpha" operator="arithmetic" k2="-1" k3="1" result="shadowInnerInner1"></feComposite>
            <feColorMatrix values="0 0 0 0 1   0 0 0 0 1   0 0 0 0 1  0 0 0 0.329863008 0" type="matrix" in="shadowInnerInner1"></feColorMatrix>
        </filter>
    </defs>
    <g id="Illustration/100" stroke="none" stroke-width="1" fill="none" fill-rule="evenodd">
        <g id="编组-5" filter="url(#filter-1)" transform="translate(75.265380, 70.625987) rotate(-345.000000) translate(-75.265380, -70.625987) translate(30.682465, 20.222950)">
            <path d="M9.54452602,2.80607407 L85.1658313,2.80607407 C87.3749703,2.80607407 89.1658313,4.59693507 89.1658313,6.80607407 L89.1658313,96.8060741 C89.1658313,99.0152131 87.3749703,100.806074 85.1658313,100.806074 L9.54452602,100.806074 C7.33538702,100.806074 5.54452602,99.0152131 5.54452602,96.8060741 L5.54452602,6.80607407 C5.54452602,4.59693507 7.33538702,2.80607407 9.54452602,2.80607407 Z" id="矩形" fill="url(#linearGradient-2)" transform="translate(47.355179, 51.806074) rotate(-360.000000) translate(-47.355179, -51.806074) "></path>
            <path d="M12.3551787,9.61586922 L82.3551787,9.61586922 C82.9074634,9.61586922 83.3551787,10.0635845 83.3551787,10.6158692 L83.3551787,92.9962789 C83.3551787,93.5485637 82.9074634,93.9962789 82.3551787,93.9962789 L12.3551787,93.9962789 C11.8028939,93.9962789 11.3551787,93.5485637 11.3551787,92.9962789 L11.3551787,10.6158692 C11.3551787,10.0635845 11.8028939,9.61586922 12.3551787,9.61586922 Z" id="矩形" fill="#8EC4FF" transform="translate(47.355179, 51.806074) rotate(-360.000000) translate(-47.355179, -51.806074) "></path>
            <path d="M12.3791044,9.61586922 L82.3246611,9.61586922 C82.876945,9.61681072 83.3238976,10.0652874 83.3229575,10.6175713 C83.3229392,10.6283484 83.3227466,10.6391244 83.3224584,10.6498979 C82.7309218,29.3381928 82.319742,42.0273791 82.0889188,48.717457 C81.4644561,66.8166098 79.6352813,73.1326996 78.0526401,78.9260989 C76.9684354,82.8949272 74.8606536,86.9183205 71.7292948,90.9962789 L1.73806946,90.9962789 C1.18578725,90.9979547 0.736711865,90.5516037 0.735031495,89.9993215 C0.734511783,89.8285096 0.777754593,89.6604117 0.861073592,89.5112971 C6.29808832,79.734342 9.45704328,66.1363953 10.3379385,48.717457 C11.2246577,31.183354 11.5732963,18.4912007 11.3838543,10.6409972 C11.369932,10.0888879 11.8062552,9.6300634 12.3583656,9.61618501 C12.3652773,9.61601127 12.3721906,9.61590921 12.3791044,9.61586922 Z" id="矩形" fill="#F4FCFF" transform="translate(41.677589, 50.306074) rotate(-360.000000) translate(-41.677589, -50.306074) "></path>
            <g id="形状结合" opacity="0.5">
                <use fill="url(#linearGradient-3)" fill-rule="evenodd" xlink:href="#path-4"></use>
                <use fill="black" fill-opacity="1" filter="url(#filter-5)" xlink:href="#path-4"></use>
            </g>
            <rect id="矩形" fill="url(#linearGradient-6)" transform="translate(47.355179, 6.069288) rotate(-360.000000) translate(-47.355179, -6.069288) " x="35.2166021" y="0" width="24.2771532" height="12.1385766" rx="3"></rect>
        </g>
        <g id="编组-6" transform="translate(106.000000, 61.000000)">
            <g id="path-7">
                <use fill="black" fill-opacity="1" filter="url(#filter-9)" xlink:href="#path-8"></use>
                <use fill="url(#linearGradient-7)" fill-rule="evenodd" xlink:href="#path-8"></use>
                <use fill="black" fill-opacity="1" filter="url(#filter-10)" xlink:href="#path-8"></use>
                <path stroke-opacity="0.112984184" stroke="#008EFF" stroke-width="4.884615" d="M32.1337886,2.62211122 C32.6375984,2.37983119 33.2699224,2.38151001 33.9254532,2.64007786 L33.9254532,2.64007786 L63.030762,11.4951014 C63.0522661,11.5087682 63.070188,11.5274588 63.0855636,11.54736 C63.1238251,11.5968833 63.1465479,11.6580498 63.1546388,11.7214406 C63.2174695,12.2162539 64.6570476,23.9977472 61.6954717,37.4610509 C59.9566623,45.3654105 57.0454402,52.2174719 53.0128407,57.8127563 C48.0909293,64.6411974 41.5087749,69.550896 33.4501251,72.4211228 C33.4245483,72.4302324 33.3989701,72.4393167 33.3747496,72.4483837 C33.3630391,72.4536491 33.3510354,72.4588194 33.3387293,72.4638926 C33.0662667,72.5762148 32.86539,72.5502881 32.6811562,72.4723854 C32.6645814,72.4653768 32.6482146,72.4579786 32.6306087,72.4499538 C32.6035531,72.440375 32.5764991,72.4307678 32.5494467,72.4211323 C24.490795,69.5507995 17.909151,64.6411974 12.9872477,57.8127674 C8.95418123,52.2174041 6.04340846,45.3653671 4.30461621,37.4610846 C1.3433152,23.9985607 2.78211269,12.2177244 2.84524043,11.7230194 C2.85353714,11.658019 2.87622304,11.5967589 2.91453087,11.5471758 L2.91453087,11.5471758 Z" stroke-linejoin="square"></path>
            </g>
            <g id="path-9" opacity="0.600000024">
                <use fill="url(#linearGradient-11)" fill-rule="evenodd" xlink:href="#path-12"></use>
                <use fill="black" fill-opacity="1" filter="url(#filter-13)" xlink:href="#path-12"></use>
            </g>
        </g>
    </g>
</svg>