<?xml version="1.0" encoding="UTF-8"?>
<svg width="300px" height="300px" viewBox="0 0 300 300" version="1.1" xmlns="http://www.w3.org/2000/svg" xmlns:xlink="http://www.w3.org/1999/xlink">
    <title>rubbish image_300px</title>
    <defs>
        <path d="M195.5,0 C227.299211,0 253.962625,21.9889605 261.114477,51.5911168 C276.976859,65.4293566 287,85.7941632 287,108.5 C287,150.197499 253.197499,184 211.5,184 C198.395595,184 186.07096,180.661407 175.330264,174.788391 C164.42658,197.398619 141.285239,213 114.5,213 C82.6085739,213 55.8827748,190.883322 48.8237959,161.15116 C20.2914863,150.374057 0,122.806694 0,90.5 C0,48.8025014 33.8025014,15 75.5,15 C98.5908135,15 119.26054,25.3659068 133.109578,41.6981196 C143.240074,17.2207378 167.358978,0 195.5,0 Z" id="path-1"></path>
        <filter x="-3.8%" y="-3.3%" width="107.7%" height="110.3%" filterUnits="objectBoundingBox" id="filter-2">
            <feOffset dx="0" dy="4" in="SourceAlpha" result="shadowOffsetOuter1"></feOffset>
            <feGaussianBlur stdDeviation="3" in="shadowOffsetOuter1" result="shadowBlurOuter1"></feGaussianBlur>
            <feComposite in="shadowBlurOuter1" in2="SourceAlpha" operator="out" result="shadowBlurOuter1"></feComposite>
            <feColorMatrix values="0 0 0 0 0.000473251693   0 0 0 0 0.340589409   0 0 0 0 0.709607111  0 0 0 0.390816215 0" type="matrix" in="shadowBlurOuter1"></feColorMatrix>
        </filter>
        <path d="M4.7416641,98.2620481 C30.9175471,106.185969 48.0211483,96.8336165 56.0524677,70.2049891 C58.6895249,61.2176296 56.4714645,54.0105215 49.3982865,48.5836648 L56.0524677,36.7537429 C58.95757,27.7592797 57.4903742,23.2620481 51.6508802,23.2620481 C42.8916392,23.2620481 41.3670798,20.139206 43.1770185,16.2620481 C44.9869572,12.3848902 49.5340002,2.03640385 43.1770185,0.1896829 C36.8200368,-1.65703805 30.3615869,10.4718219 28.205388,15.2620481 C26.0491891,20.0522743 26.9116686,23.8425005 21.2611591,20.0522743 C15.6106496,16.2620481 8.6905195,13.2620481 2.59228165,21.7620481 C-1.47321025,27.4287148 -0.75674943,52.9287148 4.7416641,98.2620481 Z" id="path-3"></path>
        <path d="M17.0864005,2.27995816 C17.9370844,0.133269262 20.1346843,-0.497512467 23.6792005,0.387612971 C37.6707114,3.88152917 33.6125379,23.0823177 35.3706125,20.8936968 C35.6343237,20.5654036 35.8163434,20.1521257 35.9782574,19.6990783 L36.0420966,19.5158455 L36.0420966,19.5158455 L36.1046672,19.3290138 C36.1254099,19.2662081 36.1460871,19.2029098 36.1668448,19.139226 L36.2295056,18.9471254 L36.2295056,18.9471254 L36.2935252,18.753355 C36.3585162,18.5589641 36.4268595,18.363033 36.5024965,18.1684556 L36.5807107,17.9744366 C37.4845113,15.8153234 39.461622,13.9452855 48.0002467,16.3936968 C59.5087872,19.6937177 59.8387647,109.590816 35.315142,117.419217 C43.3190324,69.7636272 37.2292391,31.4257366 17.0437802,2.39839273 Z" id="path-5"></path>
        <filter x="-31.6%" y="-16.3%" width="148.5%" height="128.8%" filterUnits="objectBoundingBox" id="filter-7">
            <feOffset dx="0" dy="5" in="SourceAlpha" result="shadowOffsetOuter1"></feOffset>
            <feGaussianBlur stdDeviation="3.5" in="shadowOffsetOuter1" result="shadowBlurOuter1"></feGaussianBlur>
            <feColorMatrix values="0 0 0 0 0.0271940747   0 0 0 0 0.362035779   0 0 0 0 0.0413714305  0 0 0 0.116968969 0" type="matrix" in="shadowBlurOuter1" result="shadowMatrixOuter1"></feColorMatrix>
            <feMerge>
                <feMergeNode in="shadowMatrixOuter1"></feMergeNode>
                <feMergeNode in="SourceGraphic"></feMergeNode>
            </feMerge>
        </filter>
        <path d="M131.554487,53.3693654 L119.034576,171.530018 C119.027553,171.531513 119.020531,171.533008 119.01351,171.534503 C118.227232,178.007513 94.7020758,183.2 65.6,183.2 C36.5009295,183.2 13.1875496,178.008586 12.4030726,171.53699 L12.382673,171.530018 L1.81179981,53.3693654 L131.554487,53.3693654 Z" id="path-8"></path>
        <filter x="-5.0%" y="-5.0%" width="110.0%" height="110.0%" filterUnits="objectBoundingBox" id="filter-9">
            <feMorphology radius="3" operator="erode" in="SourceAlpha" result="shadowSpreadInner1"></feMorphology>
            <feGaussianBlur stdDeviation="3" in="shadowSpreadInner1" result="shadowBlurInner1"></feGaussianBlur>
            <feOffset dx="0" dy="-4" in="shadowBlurInner1" result="shadowOffsetInner1"></feOffset>
            <feComposite in="shadowOffsetInner1" in2="SourceAlpha" operator="arithmetic" k2="-1" k3="1" result="shadowInnerInner1"></feComposite>
            <feColorMatrix values="0 0 0 0 1   0 0 0 0 1   0 0 0 0 1  0 0 0 0.6 0" type="matrix" in="shadowInnerInner1" result="shadowMatrixInner1"></feColorMatrix>
            <feGaussianBlur stdDeviation="0.5" in="SourceAlpha" result="shadowBlurInner2"></feGaussianBlur>
            <feOffset dx="0" dy="1" in="shadowBlurInner2" result="shadowOffsetInner2"></feOffset>
            <feComposite in="shadowOffsetInner2" in2="SourceAlpha" operator="arithmetic" k2="-1" k3="1" result="shadowInnerInner2"></feComposite>
            <feColorMatrix values="0 0 0 0 1   0 0 0 0 1   0 0 0 0 1  0 0 0 0.6 0" type="matrix" in="shadowInnerInner2" result="shadowMatrixInner2"></feColorMatrix>
            <feMerge>
                <feMergeNode in="shadowMatrixInner1"></feMergeNode>
                <feMergeNode in="shadowMatrixInner2"></feMergeNode>
            </feMerge>
        </filter>
        <path d="M64.3912733,103.410336 C58.3666841,91.0964212 52.0293058,101.012221 52.0293058,101.012221 L47.2241406,109.450531 L57.1155279,115.176367 L64.3912733,103.410336 Z M85.7833248,99.6380207 L80.4523113,102.628928 L78.498513,99.2113898 C78.498513,99.2113898 76.9889658,95.6546355 69.5409598,96.0273761 C69.5409598,96.0273761 60.311416,96.2833547 59.350383,96.1082115 C59.350383,96.1082115 61.9660248,96.6201685 63.2670459,98.6275791 L69.1601731,108.956537 L64.8536571,111.363634 L79.3054181,111.673503 L85.7833248,99.6380207 Z M50.3610975,129.421348 C42.8858924,140.913436 54.7356111,141.133488 54.7356111,141.133488 L64.4955363,140.814638 L64.3006098,129.466256 L50.3610975,129.421348 Z M36,113.281227 L41.3491462,116.236208 L39.4089474,119.662727 C39.4089474,119.662727 37.1332937,122.797342 41.3264803,128.895918 C41.3264803,128.895918 46.3537711,136.584256 46.689226,137.486917 C46.689226,137.486917 45.7689915,135.007967 46.8252212,132.86134 L52.6730166,122.505436 L56.9931321,124.890078 L49.7445858,112.50431 L36,113.281227 Z M81.091489,127.701351 C94.8678069,128.563595 89.2784025,118.216673 89.2784025,118.216673 L84.232979,109.922071 L74.3325254,115.634434 L81.091489,127.701351 Z M66.4810668,136.489948 L73.8701416,124.180524 L73.8701416,129.089025 L85.8422561,129.089025 C88.2493718,128.954299 89.9855778,126.946888 89.9855778,126.946888 C89.3554665,127.674406 85.0308178,135.775902 85.0308178,135.775902 C81.7034675,142.377454 77.8321363,141.937351 77.8321363,141.937351 L73.8701416,141.937351 L73.8701416,148 L66.4810668,136.489948 Z" id="path-10"></path>
        <filter x="-16.5%" y="-11.5%" width="133.1%" height="134.6%" filterUnits="objectBoundingBox" id="filter-11">
            <feOffset dx="0" dy="3" in="SourceAlpha" result="shadowOffsetOuter1"></feOffset>
            <feGaussianBlur stdDeviation="2.5" in="shadowOffsetOuter1" result="shadowBlurOuter1"></feGaussianBlur>
            <feColorMatrix values="0 0 0 0 0.253944305   0 0 0 0 0.86865942   0 0 0 0 0  0 0 0 0.4 0" type="matrix" in="shadowBlurOuter1"></feColorMatrix>
        </filter>
        <linearGradient x1="50%" y1="50%" x2="50%" y2="98.7577362%" id="linearGradient-12">
            <stop stop-color="#46ACD5" offset="0%"></stop>
            <stop stop-color="#1284DF" offset="100%"></stop>
        </linearGradient>
        <linearGradient x1="50%" y1="22.7354395%" x2="50%" y2="99.773639%" id="linearGradient-13">
            <stop stop-color="#4FE1FF" offset="0%"></stop>
            <stop stop-color="#0B71D0" offset="100%"></stop>
        </linearGradient>
        <linearGradient x1="51.7606421%" y1="0%" x2="51.7606421%" y2="100%" id="linearGradient-14">
            <stop stop-color="#6B6C77" offset="0%"></stop>
            <stop stop-color="#2B2F42" offset="83.5058272%"></stop>
            <stop stop-color="#5F627C" offset="100%"></stop>
        </linearGradient>
        <linearGradient x1="50%" y1="0%" x2="50%" y2="100%" id="linearGradient-15">
            <stop stop-color="#FFFFFF" stop-opacity="0.15" offset="0%"></stop>
            <stop stop-color="#000000" stop-opacity="0.328238225" offset="100%"></stop>
        </linearGradient>
        <linearGradient x1="50%" y1="0%" x2="50%" y2="100%" id="linearGradient-16">
            <stop stop-color="#393741" offset="0%"></stop>
            <stop stop-color="#1F1C25" offset="100%"></stop>
        </linearGradient>
        <path d="M26.6453344,0.0133872116 C41.2915346,0.0133872116 53.1646258,11.7761017 53.1646258,26.2861454 C53.1646258,30.5680073 52.1306945,34.6106266 50.2966792,38.1823298 C41.6757078,40.2915813 25.2398782,41.8442457 5.60422712,42.2778245 C2.16811537,37.848802 0.126042929,32.3037325 0.126042929,26.2861454 C0.126042929,11.7761017 11.9991341,0.0133872116 26.6453344,0.0133872116 Z" id="path-17"></path>
        <filter x="-6.6%" y="-10.6%" width="113.2%" height="116.6%" filterUnits="objectBoundingBox" id="filter-19">
            <feOffset dx="0" dy="-1" in="SourceAlpha" result="shadowOffsetOuter1"></feOffset>
            <feGaussianBlur stdDeviation="1" in="shadowOffsetOuter1" result="shadowBlurOuter1"></feGaussianBlur>
            <feComposite in="shadowBlurOuter1" in2="SourceAlpha" operator="out" result="shadowBlurOuter1"></feComposite>
            <feColorMatrix values="0 0 0 0 0   0 0 0 0 0   0 0 0 0 0  0 0 0 0.3 0" type="matrix" in="shadowBlurOuter1"></feColorMatrix>
        </filter>
        <linearGradient x1="50%" y1="0%" x2="50%" y2="100%" id="linearGradient-20">
            <stop stop-color="#393741" offset="0%"></stop>
            <stop stop-color="#1F1C25" offset="100%"></stop>
        </linearGradient>
        <linearGradient x1="50%" y1="0%" x2="50%" y2="100%" id="linearGradient-21">
            <stop stop-color="#E5E5E5" stop-opacity="0.15" offset="0%"></stop>
            <stop stop-color="#565656" stop-opacity="0.328238225" offset="100%"></stop>
        </linearGradient>
        <ellipse id="path-22" cx="10.1718668" cy="9.92667151" rx="10.1718668" ry="9.92667151"></ellipse>
        <filter x="-19.7%" y="-15.5%" width="139.3%" height="145.8%" filterUnits="objectBoundingBox" id="filter-24">
            <feOffset dx="0" dy="2" in="SourceAlpha" result="shadowOffsetOuter1"></feOffset>
            <feGaussianBlur stdDeviation="1" in="shadowOffsetOuter1" result="shadowBlurOuter1"></feGaussianBlur>
            <feComposite in="shadowBlurOuter1" in2="SourceAlpha" operator="out" result="shadowBlurOuter1"></feComposite>
            <feColorMatrix values="0 0 0 0 0   0 0 0 0 0   0 0 0 0 0  0 0 0 0.3 0" type="matrix" in="shadowBlurOuter1"></feColorMatrix>
        </filter>
        <path d="M30.8,24.8 C34.1137085,24.8 36.8,27.4862915 36.8,30.8 C36.8,34.1137085 34.1137085,36.8 30.8,36.8 C27.4862915,36.8 24.8,34.1137085 24.8,30.8 C24.8,27.4862915 27.4862915,24.8 30.8,24.8 Z M30.8,28.8 C29.6954305,28.8 28.8,29.6954305 28.8,30.8 C28.8,31.9045695 29.6954305,32.8 30.8,32.8 C31.9045695,32.8 32.8,31.9045695 32.8,30.8 C32.8,29.6954305 31.9045695,28.8 30.8,28.8 Z" id="path-25"></path>
        <filter x="-33.3%" y="-16.7%" width="166.7%" height="166.7%" filterUnits="objectBoundingBox" id="filter-26">
            <feOffset dx="0" dy="2" in="SourceAlpha" result="shadowOffsetOuter1"></feOffset>
            <feGaussianBlur stdDeviation="1" in="shadowOffsetOuter1" result="shadowBlurOuter1"></feGaussianBlur>
            <feColorMatrix values="0 0 0 0 0   0 0 0 0 0   0 0 0 0 0  0 0 0 0.3 0" type="matrix" in="shadowBlurOuter1"></feColorMatrix>
        </filter>
        <path d="M88.9114376,5.77534252 L93.1402415,40.0655826 C84.9818689,40.5369855 75.8950448,40.8 66.3167781,40.8 C34.5399098,40.8 8.17209326,37.905137 3.17075335,34.1100892 L3.17075335,34.1100892 L3.06648198,34.1091037 L0.901153551,16.5474348 C0.522656148,13.4778879 2.70418279,10.6826958 5.77372969,10.3041984 C5.7756336,10.3039636 5.77753764,10.3037298 5.7794418,10.303497 L82.6739133,0.902065017 C85.7416169,0.526995048 88.5332153,2.70802596 88.9114376,5.77534252 Z" id="path-27"></path>
        <filter x="-45.0%" y="-76.4%" width="189.9%" height="307.8%" filterUnits="objectBoundingBox" id="filter-28">
            <feOffset dx="0" dy="11" in="SourceAlpha" result="shadowOffsetOuter1"></feOffset>
            <feGaussianBlur stdDeviation="12" in="shadowOffsetOuter1" result="shadowBlurOuter1"></feGaussianBlur>
            <feColorMatrix values="0 0 0 0 0   0 0 0 0 0   0 0 0 0 0  0 0 0 0.189521416 0" type="matrix" in="shadowBlurOuter1"></feColorMatrix>
        </filter>
        <path d="M6.27649223,5.53639686 L83.0764923,5.52929384 C86.1692868,5.52848989 88.6767241,8.0354634 88.6770101,11.128258 C88.6770102,11.1284306 88.6770102,11.1286033 88.6764923,11.1287759 L88.6764923,13.4115911 L88.6764923,13.4115911 L0.676492254,13.4197299 L0.676492254,11.1369148 C0.677010207,8.04432246 3.18389995,5.53720084 6.27649223,5.53639686 Z" id="path-29"></path>
        <filter x="-15.3%" y="-133.1%" width="130.7%" height="442.2%" filterUnits="objectBoundingBox" id="filter-30">
            <feOffset dx="0" dy="3" in="SourceAlpha" result="shadowOffsetOuter1"></feOffset>
            <feGaussianBlur stdDeviation="4" in="shadowOffsetOuter1" result="shadowBlurOuter1"></feGaussianBlur>
            <feComposite in="shadowBlurOuter1" in2="SourceAlpha" operator="out" result="shadowBlurOuter1"></feComposite>
            <feColorMatrix values="0 0 0 0 0   0 0 0 0 0   0 0 0 0 0  0 0 0 0.03 0" type="matrix" in="shadowBlurOuter1"></feColorMatrix>
        </filter>
        <filter x="-9.7%" y="-69.7%" width="119.3%" height="315.4%" filterUnits="objectBoundingBox" id="filter-31">
            <feOffset dx="0" dy="1" in="SourceAlpha" result="shadowOffsetInner1"></feOffset>
            <feComposite in="shadowOffsetInner1" in2="SourceAlpha" operator="arithmetic" k2="-1" k3="1" result="shadowInnerInner1"></feComposite>
            <feColorMatrix values="0 0 0 0 1   0 0 0 0 1   0 0 0 0 1  0 0 0 0.6 0" type="matrix" in="shadowInnerInner1"></feColorMatrix>
        </filter>
        <filter x="-14.0%" y="-42.1%" width="128.1%" height="184.2%" filterUnits="objectBoundingBox" id="filter-32">
            <feOffset dx="0" dy="0" in="SourceAlpha" result="shadowOffsetOuter1"></feOffset>
            <feGaussianBlur stdDeviation="2" in="shadowOffsetOuter1" result="shadowBlurOuter1"></feGaussianBlur>
            <feColorMatrix values="0 0 0 0 0   0 0 0 0 0   0 0 0 0 0  0 0 0 0.286904502 0" type="matrix" in="shadowBlurOuter1" result="shadowMatrixOuter1"></feColorMatrix>
            <feMerge>
                <feMergeNode in="shadowMatrixOuter1"></feMergeNode>
                <feMergeNode in="SourceGraphic"></feMergeNode>
            </feMerge>
        </filter>
        <linearGradient x1="50%" y1="45.7294059%" x2="61.0300062%" y2="54.2705941%" id="linearGradient-33">
            <stop stop-color="#F7FFFE" offset="0%"></stop>
            <stop stop-color="#DEF0ED" offset="100%"></stop>
        </linearGradient>
        <linearGradient x1="84.5183632%" y1="19.4018719%" x2="26.058777%" y2="100%" id="linearGradient-34">
            <stop stop-color="#FF9F49" offset="0%"></stop>
            <stop stop-color="#FD7A37" offset="100%"></stop>
        </linearGradient>
        <circle id="path-35" cx="26.022638" cy="74" r="8"></circle>
        <filter x="-68.8%" y="-43.8%" width="237.5%" height="237.5%" filterUnits="objectBoundingBox" id="filter-36">
            <feOffset dx="0" dy="4" in="SourceAlpha" result="shadowOffsetOuter1"></feOffset>
            <feGaussianBlur stdDeviation="3" in="shadowOffsetOuter1" result="shadowBlurOuter1"></feGaussianBlur>
            <feColorMatrix values="0 0 0 0 0.97254902   0 0 0 0 0.38692839   0 0 0 0 0.17254902  0 0 0 0.4 0" type="matrix" in="shadowBlurOuter1"></feColorMatrix>
        </filter>
        <linearGradient x1="84.5183632%" y1="19.4018719%" x2="26.5386369%" y2="99.338418%" id="linearGradient-37">
            <stop stop-color="#49EFFF" offset="0%"></stop>
            <stop stop-color="#37BEFD" offset="100%"></stop>
        </linearGradient>
        <circle id="path-38" cx="265.522638" cy="107.5" r="5.5"></circle>
        <filter x="-100.0%" y="-63.6%" width="300.0%" height="300.0%" filterUnits="objectBoundingBox" id="filter-39">
            <feOffset dx="0" dy="4" in="SourceAlpha" result="shadowOffsetOuter1"></feOffset>
            <feGaussianBlur stdDeviation="3" in="shadowOffsetOuter1" result="shadowBlurOuter1"></feGaussianBlur>
            <feColorMatrix values="0 0 0 0 0.17254902   0 0 0 0 0.496980838   0 0 0 0 0.97254902  0 0 0 0.4 0" type="matrix" in="shadowBlurOuter1"></feColorMatrix>
        </filter>
        <linearGradient x1="84.5183632%" y1="19.4018719%" x2="26.058777%" y2="100%" id="linearGradient-40">
            <stop stop-color="#FF85B0" offset="0%"></stop>
            <stop stop-color="#D8316C" offset="100%"></stop>
        </linearGradient>
        <circle id="path-41" cx="56.022638" cy="162" r="8"></circle>
        <filter x="-68.8%" y="-43.8%" width="237.5%" height="237.5%" filterUnits="objectBoundingBox" id="filter-42">
            <feOffset dx="0" dy="4" in="SourceAlpha" result="shadowOffsetOuter1"></feOffset>
            <feGaussianBlur stdDeviation="3" in="shadowOffsetOuter1" result="shadowBlurOuter1"></feGaussianBlur>
            <feColorMatrix values="0 0 0 0 0.97254902   0 0 0 0 0.38692839   0 0 0 0 0.17254902  0 0 0 0.4 0" type="matrix" in="shadowBlurOuter1"></feColorMatrix>
        </filter>
    </defs>
    <g id="rubbish-image_300px" stroke="none" stroke-width="1" fill="none" fill-rule="evenodd">
        <g id="编组-6" transform="translate(-0.209926, 0.000000)">
            <rect id="矩形" fill="#C6C6C6" opacity="0" x="0" y="0" width="300" height="300"></rect>
            <g id="编组-7" transform="translate(4.209926, 33.000000)">
                <g id="形状结合" opacity="0.291550409">
                    <use fill="black" fill-opacity="1" filter="url(#filter-2)" xlink:href="#path-1"></use>
                    <use fill-opacity="0.294334572" fill="#38B1FF" fill-rule="evenodd" xlink:href="#path-1"></use>
                </g>
                <g id="编组-65" transform="translate(223.022638, 158.500000) rotate(19.000000) translate(-223.022638, -158.500000) translate(194.022638, 108.000000)">
                    <mask id="mask-4" fill="white">
                        <use xlink:href="#path-3"></use>
                    </mask>
                    <use id="路径-26" fill="#1FA66A" xlink:href="#path-3"></use>
                    <path d="M43.1770185,0 C44.7828777,2.5750235 45.2660254,4.90835683 44.6264616,7 C43.6671158,10.1374648 37.7290095,22.0514119 42,23 C46.2709905,23.9485881 52.5837308,23.9485881 53.7900736,26.707682 C54.9964163,29.4667759 54.9964163,36.264655 53.7900736,37.264655 C52.5837308,38.264655 45.715991,48.9878324 47.7548527,50.4939162 C49.7937143,52 57.9928327,62 54.9964163,67 C52,72 50.0624601,98.4715803 15.908284,98.4715803 C-6.86116668,98.4715803 6.16821076,103.106591 54.9964163,112.376614 L99.0606462,68.8 L94.2772333,31.1983567 L73.2470619,7 L61.7900736,-2.29664094 L49.3559135,-2.29664094 L43.1770185,0 Z" id="路径-37" fill="#4EC88D" mask="url(#mask-4)"></path>
                    <path d="M43.1770185,0.1896829 C28.2500986,22.9603102 20.0244258,55.1871788 18.5,96.8702885 C22.09479,85.6276596 26.2415597,61 28.7500768,48 C30.4224216,39.3333333 35.2314021,23.396561 43.1770185,0.1896829 Z" id="路径-27" fill="#217460" mask="url(#mask-4)"></path>
                </g>
                <g id="编组-66" transform="translate(65.022638, 141.948725) rotate(-23.000000) translate(-65.022638, -141.948725) translate(37.022638, 82.448725)">
                    <path d="M48.0002467,16.3936968 C42.2848493,15.3936968 38.0749713,16.8936968 35.3706125,20.8936968 C31.3140744,26.8936968 37.6707114,3.88152917 23.6792005,0.387612971 C14.3515265,-1.9416645 14.3515265,6.2270301 23.6792005,24.8936968 C11.7708094,22.2363407 5.81661386,24.203706 5.81661386,30.7957928 C5.81661386,40.683923 26.592053,53.8574481 20.9663565,58.8936968 C15.3406599,63.9299454 -1.8189894e-12,47.5036002 -1.8189894e-12,55.7167728 C-1.8189894e-12,63.9299454 17.7080345,74.9507558 26.5393235,82.8936968 C35.3706125,90.8366378 8.89310984,82.8936968 5.81661386,82.8936968 C2.74011788,82.8936968 -6.7021065,103.893697 26.5393235,116.893697 C48.7002768,125.560363 55.8539179,92.0603634 48.0002467,16.3936968 Z" id="路径-31" fill="#00A48A"></path>
                    <mask id="mask-6" fill="white">
                        <use xlink:href="#path-5"></use>
                    </mask>
                    <use id="形状结合" fill="#56C996" xlink:href="#path-5"></use>
                </g>
                <g id="编组" filter="url(#filter-7)" transform="translate(75.812712, 36.000000)">
                    <g id="形状结合">
                        <use fill="#EEF2FF" fill-rule="evenodd" xlink:href="#path-8"></use>
                        <use fill="black" fill-opacity="1" filter="url(#filter-9)" xlink:href="#path-8"></use>
                    </g>
                    <g id="Fill-1">
                        <use fill="black" fill-opacity="1" filter="url(#filter-11)" xlink:href="#path-10"></use>
                        <use fill="#23C400" fill-rule="evenodd" xlink:href="#path-10"></use>
                    </g>
                    <path d="M12.2011407,169.50654 C17.0649583,175.030413 39.0889948,179.2 65.8883731,179.2 C91.7120448,179.2 113.262642,175.328497 119.186221,170.104355 L119.034576,171.530018 C119.027553,171.531513 119.020531,171.533008 119.01351,171.534503 C118.227232,178.007513 94.7020758,183.2 65.6,183.2 C36.5009295,183.2 13.1875496,178.008586 12.4030726,171.53699 L12.382673,171.530018 Z" id="形状结合" fill="url(#linearGradient-12)"></path>
                    <path d="M135.2,39.2 L131.554487,53.3693654 C130.952246,58.8140916 101.821495,63.2 66.4,63.2 C30.9785046,63.2 2.40249957,58.8140916 1.82084041,53.3693693 L1.81179981,53.3693654 L0,39.2 L135.2,39.2 Z" id="形状结合" fill="url(#linearGradient-13)"></path>
                    <ellipse id="椭圆形" fill="#72EFFF" cx="67.6" cy="39.2" rx="67.6" ry="8.8"></ellipse>
                    <ellipse id="椭圆形备份-6" fill="#01305E" cx="69.6" cy="38.8" rx="62.4" ry="7.6"></ellipse>
                    <g id="编组-3" transform="translate(71.200000, 0.000000)">
                        <path d="M30.4,0.723767442 C38.5948653,0.723767442 46.0139235,4.04539291 51.3842653,9.41573472 C56.7546071,14.7860765 60.0762326,22.2051347 60.0762326,30.4 C60.0762326,33.7875949 59.5088061,37.0426606 58.4630898,40.0755727 C52.0395074,43.0743564 30.8481583,45.3067559 4.92863475,45.6349086 C2.25802751,41.1813981 0.723767442,35.9698498 0.723767442,30.4 C0.723767442,22.2051347 4.04539291,14.7860765 9.41573472,9.41573472 C14.7860765,4.04539291 22.2051347,0.723767442 30.4,0.723767442 Z" id="形状结合" stroke="url(#linearGradient-15)" stroke-width="1.44753488" fill="url(#linearGradient-14)"></path>
                        <g id="编组-2" transform="translate(4.000000, 4.000000)">
                            <mask id="mask-18" fill="white">
                                <use xlink:href="#path-17"></use>
                            </mask>
                            <g id="形状结合">
                                <use fill="black" fill-opacity="1" filter="url(#filter-19)" xlink:href="#path-17"></use>
                                <path stroke="#000000" stroke-width="1.44753488" d="M26.6453344,0.737154654 C33.7693505,0.737154654 40.2192351,3.59738223 44.8879198,8.22266513 C49.5541465,12.8455129 52.4408583,19.2317538 52.4408583,26.2861454 C52.4408583,30.3318443 51.4916374,34.1579219 49.8006045,37.5574438 C41.1806901,39.6063328 25.1155549,41.1085116 5.95542662,41.5455668 C2.74805041,37.2882454 0.849810371,32.0068203 0.849810371,26.2861454 C0.849810371,19.2317538 3.73652219,12.8455129 8.4027489,8.22266513 C13.0714337,3.59738223 19.5213182,0.737154654 26.6453344,0.737154654 Z" stroke-linejoin="square" fill="url(#linearGradient-16)" fill-rule="evenodd"></path>
                            </g>
                            <polygon id="Path-4" fill-opacity="0.304632867" fill="#4F4F50" fill-rule="nonzero" mask="url(#mask-18)" transform="translate(26.812687, 28.601292) rotate(-105.000000) translate(-26.812687, -28.601292) " points="-2.16846529 44.8759465 55.7938402 11.8788092 44.177251 -0.343942194 9.8098881 57.5465267"></polygon>
                            <polygon id="Path-4备份" fill-opacity="0.304632867" fill="#4F4F50" fill-rule="nonzero" opacity="0.413829985" mask="url(#mask-18)" transform="translate(26.813254, 28.601351) rotate(-345.000000) translate(-26.813254, -28.601351) " points="-2.28266517 44.8119016 55.9091731 11.9447412 44.2464968 -0.229714947 9.74321093 57.4324174"></polygon>
                        </g>
                        <g id="编组" transform="translate(20.000000, 20.800000)">
                            <mask id="mask-23" fill="white">
                                <use xlink:href="#path-22"></use>
                            </mask>
                            <g id="椭圆形备份-3">
                                <use fill="black" fill-opacity="1" filter="url(#filter-24)" xlink:href="#path-22"></use>
                                <ellipse stroke="#000000" stroke-width="6.15202326" stroke-linejoin="square" fill="url(#linearGradient-20)" fill-rule="evenodd" cx="10.1718668" cy="9.92667151" rx="7.09585512" ry="6.85065988"></ellipse>
                                <ellipse stroke="url(#linearGradient-21)" stroke-width="1.08565116" cx="10.1718668" cy="9.92667151" rx="10.7146923" ry="10.4694971"></ellipse>
                            </g>
                            <path d="M7.57517591,13.9680373 L4.40022249,18.5272865 C2.71616822,17.5693564 1.32242551,16.1690106 0.381445003,14.4868647 L6.17500379,11.6762504 C6.35528953,12.5970097 6.86370169,13.4021369 7.57517591,13.9680373 Z M16.426649,1.2565407 C17.7368521,2.31381752 18.7873507,3.67350646 19.4691048,5.22778332 L19.4691048,5.22778332 L13.0070632,8.36224777 C12.7281723,8.04849937 12.3990555,7.77942564 12.0321275,7.56729543 Z" id="形状结合" fill-opacity="0.401305726" fill="#4F4F50" fill-rule="nonzero" mask="url(#mask-23)" transform="translate(9.925275, 9.891914) rotate(93.000000) translate(-9.925275, -9.891914) "></path>
                        </g>
                        <g id="形状结合">
                            <use fill="black" fill-opacity="1" filter="url(#filter-26)" xlink:href="#path-25"></use>
                            <use fill="#EEEEEE" fill-rule="evenodd" xlink:href="#path-25"></use>
                        </g>
                    </g>
                    <g id="编组-4" transform="translate(4.000000, 6.400000)">
                        <g id="形状结合">
                            <use fill="black" fill-opacity="1" filter="url(#filter-28)" xlink:href="#path-27"></use>
                            <use fill="#F8F8F8" fill-rule="evenodd" xlink:href="#path-27"></use>
                        </g>
                        <polygon id="矩形" fill-opacity="0.27734375" fill="#D8D8D8" transform="translate(45.196797, 13.712292) rotate(-7.000000) translate(-45.196797, -13.712292) " points="1.1968571 13.3879104 89.1967972 13.3797715 89.1967374 14.0366728 1.19679723 14.0448117"></polygon>
                        <g id="矩形" transform="translate(44.676492, 9.474253) rotate(-7.000000) translate(-44.676492, -9.474253) ">
                            <use fill="black" fill-opacity="1" filter="url(#filter-30)" xlink:href="#path-29"></use>
                            <use fill-opacity="0.8" fill="#FFFFFF" fill-rule="evenodd" xlink:href="#path-29"></use>
                            <use fill="black" fill-opacity="1" filter="url(#filter-31)" xlink:href="#path-29"></use>
                        </g>
                        <g id="编组-2" transform="translate(76.809006, 6.145976) rotate(-7.000000) translate(-76.809006, -6.145976) translate(66.809006, 2.645976)" fill="#D8D8D8">
                            <path d="M3.61973398,3.73607798 L3.61973398,4.37607798 L0.419733983,4.37607798 L0.419733983,3.73607798 L3.61973398,3.73607798 Z M3.61973398,2.45607798 L3.61973398,3.09607798 L0.419733983,3.09607798 L0.419733983,2.45607798 L3.61973398,2.45607798 Z M3.61973398,1.17607798 L3.61973398,1.81607798 L0.419733983,1.81607798 L0.419733983,1.17607798 L3.61973398,1.17607798 Z" id="形状结合"></path>
                            <rect id="矩形" x="6.81779555" y="2.80777106" width="4" height="1"></rect>
                            <path d="M16.8263559,1.16783763 L16.8256872,2.91883763 L18.6441073,2.91959407 L18.6441073,3.50351288 L16.8256872,3.50283763 L16.8263559,5.25526932 L16.2204387,5.25526932 L16.2196872,3.50283763 L14.4026872,3.50351288 L14.4026872,2.91959407 L16.2196872,2.91883763 L16.2204387,1.16783763 L16.8263559,1.16783763 Z" id="形状结合" transform="translate(16.523397, 3.211553) rotate(-315.000000) translate(-16.523397, -3.211553) "></path>
                        </g>
                        <path d="M88.1100854,12.533806 L91.5099299,40.1467286 C83.7793451,40.5670669 75.2542981,40.8 66.2967359,40.8 C37.7655247,40.8 13.6222692,38.4368464 5.56292903,35.181729 L4.04431023,22.8328267 C3.88113688,21.5174247 4.81637065,20.3197146 6.13193049,20.157824 C6.13235822,20.1577714 6.13278596,20.1577189 6.13337089,20.1589494 L85.4347673,10.4436196 C86.7500703,10.2837828 87.9469731,11.2189051 88.1100854,12.533806 Z" id="形状结合" fill="#FFFFFF"></path>
                    </g>
                    <g id="编组-5" filter="url(#filter-32)" transform="translate(16.841525, 28.800000)" fill-rule="nonzero">
                        <path d="M34.067549,0.879374693 C35.0157412,0.534260958 36.0639833,0.607182533 36.9560857,1.08072374 C37.8750137,1.53217725 38.8080695,1.99138856 39.7352605,2.44798125 L40.4292417,2.78977265 L40.4292417,2.78977265 L41.1191494,3.12960928 C45.9298717,5.49935415 50.3034232,7.65392361 51.3468191,8.09181935 L51.3465777,8.09190804 C52.4944235,8.4907809 53.3770446,9.42702154 53.711376,10.6024752 L53.711376,10.6024752 L56.5188148,18.3864275 C55.2748278,18.3954331 54.0210302,18.4 52.7584747,18.4 C30.7259617,18.4 11.360445,17.0092526 0.257083075,14.9092193 C0.695694813,13.849038 1.63898528,12.791557 3.52705045,12.0980025 L3.52705045,12.0980025 Z" id="形状结合" fill="#1A89F9"></path>
                        <path d="M27.9326752,7.30091898 L31.7756112,17.9596343 C25.6867409,17.6949015 20.0345306,17.3182184 14.9860701,16.8499358 L13.4598999,12.6172919 L27.9326752,7.30091898 Z" id="形状结合" fill="#0775EB"></path>
                        <path d="M23.9245494,16.0685994 C24.6747688,15.8099825 25.492114,16.2046945 25.7632651,16.956546 C25.8470296,17.1888213 25.8691513,17.4288033 25.8379213,17.6580704 C24.0215813,17.5523465 22.2554316,17.4361134 20.5430058,17.3101408 Z M16.8419142,14.1887036 C17.1722345,13.7879791 17.6906026,13.5975637 18.1988633,13.6902472 C18.7097451,13.7834251 19.1329879,14.1437612 19.3100715,14.6362962 L19.3100715,14.6362962 L20.2660844,17.2896497 C19.1894918,17.2095192 18.13439,17.1255263 17.1020779,17.0378293 L16.5966563,15.6330316 C16.4182257,15.1418159 16.5116013,14.5919256 16.8419142,14.1887036 Z" id="形状结合" fill="#EBFCFF"></path>
                        <path d="M35.3954424,4.55957516 L50.0907418,11.9328098 L52.4220897,18.3998919 C46.7111167,18.3962204 41.1816981,18.299109 35.9316403,18.1204699 L31.5512463,5.97168718 L35.3954424,4.55957516 Z M9.84218469,13.9458643 L10.7335234,16.4180525 C8.71873224,16.1943562 6.82471963,15.9547992 5.06479494,15.7010027 L9.84218469,13.9458643 Z" id="形状结合" fill="url(#linearGradient-33)"></path>
                    </g>
                </g>
                <g id="椭圆形" opacity="0.961518787">
                    <use fill="black" fill-opacity="1" filter="url(#filter-36)" xlink:href="#path-35"></use>
                    <use fill="url(#linearGradient-34)" fill-rule="evenodd" xlink:href="#path-35"></use>
                </g>
                <g id="椭圆形备份-3">
                    <use fill="black" fill-opacity="1" filter="url(#filter-39)" xlink:href="#path-38"></use>
                    <use fill="url(#linearGradient-37)" fill-rule="evenodd" xlink:href="#path-38"></use>
                </g>
                <rect id="Rectangle" fill="#AA93FF" x="231.022638" y="106" width="11" height="11.1111111" rx="5.5"></rect>
                <g id="椭圆形备份-2">
                    <use fill="black" fill-opacity="1" filter="url(#filter-42)" xlink:href="#path-41"></use>
                    <use fill="url(#linearGradient-40)" fill-rule="evenodd" xlink:href="#path-41"></use>
                </g>
            </g>
        </g>
    </g>
</svg>