<?xml version="1.0" encoding="UTF-8"?>
<svg width="16px" height="16px" viewBox="0 0 16 16" version="1.1" xmlns="http://www.w3.org/2000/svg" xmlns:xlink="http://www.w3.org/1999/xlink">
    <title>ICon/disk</title>
    <g id="ICon/disk" stroke="none" stroke-width="1" fill="none" fill-rule="evenodd">
        <rect id="矩形" fill="#FF6969" opacity="0" x="0" y="0" width="16" height="16"></rect>
        <path d="M11.5555556,2 C12.6601251,2 13.5555556,2.8954305 13.5555556,4 L13.5555556,13 C13.5555556,14.1045695 12.6601251,15 11.5555556,15 L4,15 C2.8954305,15 2,14.1045695 2,13 L2,4 C2,2.8954305 2.8954305,2 4,2 L11.5555556,2 Z M7.77777778,3.44444444 C5.78341618,3.44444444 4.16666667,5.06119396 4.16666667,7.05555556 C4.16666667,9.04991715 5.78341618,10.6666667 7.77777778,10.6666667 C8.20530128,10.6666667 8.61547244,10.5923725 8.99608485,10.4559905 L10.7954022,13.3458104 C10.8183228,13.3883762 10.8443613,13.4299054 10.8735649,13.4701007 C11.2252418,13.9541424 11.9027256,14.0614453 12.3867674,13.7097684 C12.8708091,13.3580915 12.978112,12.6806077 12.6264351,12.196566 L12.5819755,12.1394194 L12.5344959,12.0860398 L10.3946099,9.54400172 C11.0107398,8.89628669 11.3888889,8.02008185 11.3888889,7.05555556 C11.3888889,5.06119396 9.77213937,3.44444444 7.77777778,3.44444444 Z M4.16666667,12.1111111 C3.76779435,12.1111111 3.44444444,12.434461 3.44444444,12.8333333 C3.44444444,13.2322057 3.76779435,13.5555556 4.16666667,13.5555556 C4.56553899,13.5555556 4.88888889,13.2322057 4.88888889,12.8333333 C4.88888889,12.434461 4.56553899,12.1111111 4.16666667,12.1111111 Z M7.77777778,6.33333333 C8.1766501,6.33333333 8.5,6.65668324 8.5,7.05555556 C8.5,7.45442787 8.1766501,7.77777778 7.77777778,7.77777778 C7.37890546,7.77777778 7.05555556,7.45442787 7.05555556,7.05555556 C7.05555556,6.65668324 7.37890546,6.33333333 7.77777778,6.33333333 Z" id="形状结合" fill-opacity="0.7" fill="#000000" fill-rule="nonzero"></path>
    </g>
</svg>