<?xml version="1.0" encoding="UTF-8"?>
<svg width="16px" height="16px" viewBox="0 0 16 16" version="1.1" xmlns="http://www.w3.org/2000/svg" xmlns:xlink="http://www.w3.org/1999/xlink">
    <title>ICon/virus reservoir</title>
    <g id="ICon/virus-reservoir" stroke="none" stroke-width="1" fill="none" fill-rule="evenodd">
        <rect id="矩形" fill="#FF6969" opacity="0" x="0" y="0" width="16" height="16"></rect>
        <path d="M10.2105263,8.15789474 C12.0999215,8.15789474 13.6315789,9.68955217 13.6315789,11.5789474 C13.6315789,13.4683426 12.0999215,15 10.2105263,15 C8.32113112,15 6.78947368,13.4683426 6.78947368,11.5789474 C6.78947368,9.68955217 8.32113112,8.15789474 10.2105263,8.15789474 Z M10.2631579,2 C11.3677274,2 12.2631579,2.8954305 12.2631579,4 L12.2637406,8.02323247 C11.6597794,7.67372744 10.9585142,7.47368421 10.2105263,7.47368421 C7.94325208,7.47368421 6.10526316,9.31167313 6.10526316,11.5789474 C6.10526316,12.6304792 6.50061127,13.5896726 7.15077562,14.3159956 L4,14.3157895 C2.8954305,14.3157895 2,13.420359 2,12.3157895 L2,4 C2,2.8954305 2.8954305,2 4,2 L10.2631579,2 Z M9.92708929,9.63401075 L9.88004374,9.69742554 L8.85372795,11.4750566 C8.75925819,11.6386831 8.81532074,11.8479114 8.97894716,11.9423811 C9.01676305,11.9642141 9.05701464,11.9780069 9.09772241,11.9842897 L9.15887876,11.9881479 L10.6778374,11.9883158 L9.94846479,13.254004 C9.85399503,13.4176304 9.91005758,13.6268587 10.073684,13.7213285 C10.2139352,13.8023026 10.3876899,13.7726815 10.4939629,13.6595241 L10.5410085,13.5961093 L11.5673243,11.8184782 C11.661794,11.6548518 11.6057315,11.4456235 11.4421051,11.3511537 C11.4038736,11.3290808 11.3631526,11.3152258 11.3219876,11.3090407 L11.2601628,11.3054469 L11.2368421,11.3046623 L9.74183741,11.3043158 L10.4725874,10.0395308 C10.5670572,9.87590438 10.5109946,9.66667609 10.3473682,9.57220633 C10.207117,9.49123225 10.0333624,9.52085334 9.92708929,9.63401075 Z M7.13157895,7.47368421 L4.39473684,7.47368421 C4.20579732,7.47368421 4.05263158,7.62684995 4.05263158,7.81578947 C4.05263158,7.98111155 4.1698991,8.11904434 4.3257907,8.15094437 L4.39473684,8.15789474 L7.13157895,8.15789474 C7.32051847,8.15789474 7.47368421,8.00472899 7.47368421,7.81578947 C7.47368421,7.62684995 7.32051847,7.47368421 7.13157895,7.47368421 Z M9.86842105,5.42105263 L4.39473684,5.42105263 C4.20579732,5.42105263 4.05263158,5.57421838 4.05263158,5.76315789 C4.05263158,5.92847997 4.1698991,6.06641276 4.3257907,6.09831279 L4.39473684,6.10526316 L9.86842105,6.10526316 C10.0573606,6.10526316 10.2105263,5.95209741 10.2105263,5.76315789 C10.2105263,5.57421838 10.0573606,5.42105263 9.86842105,5.42105263 Z" id="形状结合" fill-opacity="0.7" fill="#000000" fill-rule="nonzero"></path>
    </g>
</svg>