<?xml version="1.0" encoding="UTF-8"?>
<svg width="306px" height="300px" viewBox="0 0 306 300" version="1.1" xmlns="http://www.w3.org/2000/svg" xmlns:xlink="http://www.w3.org/1999/xlink">
    <title>dcc_Home image _300px_dark</title>
    <defs>
        <linearGradient x1="50%" y1="0%" x2="50%" y2="54.9138673%" id="linearGradient-1">
            <stop stop-color="#8AD7FF" offset="0%"></stop>
            <stop stop-color="#004CFF" offset="100%"></stop>
        </linearGradient>
        <path d="M14.352071,118.292728 C28.1191383,108.041409 38.5865939,95.2775477 45.7544379,80.0011433 C56.5062038,57.0865367 49.6551599,8.52745908 55.7544379,0 C51.78571,-0.0963752595 29.2514793,6.00114329 20.5029586,35.0011433 C14.6706114,54.3344766 7.83629191,77.5706152 0,104.709559 L14.352071,118.292728 Z" id="path-2"></path>
        <rect id="path-4" x="0" y="0" width="231" height="143" rx="8"></rect>
        <filter x="-22.5%" y="-26.6%" width="145.0%" height="172.7%" filterUnits="objectBoundingBox" id="filter-6">
            <feOffset dx="0" dy="14" in="SourceAlpha" result="shadowOffsetOuter1"></feOffset>
            <feGaussianBlur stdDeviation="15" in="shadowOffsetOuter1" result="shadowBlurOuter1"></feGaussianBlur>
            <feColorMatrix values="0 0 0 0 0   0 0 0 0 0   0 0 0 0 0  0 0 0 0.189521416 0" type="matrix" in="shadowBlurOuter1"></feColorMatrix>
        </filter>
        <rect id="path-7" x="0" y="0" width="231" height="17.1052632"></rect>
        <filter x="-7.4%" y="-76.0%" width="114.7%" height="298.8%" filterUnits="objectBoundingBox" id="filter-8">
            <feOffset dx="0" dy="4" in="SourceAlpha" result="shadowOffsetOuter1"></feOffset>
            <feGaussianBlur stdDeviation="5" in="shadowOffsetOuter1" result="shadowBlurOuter1"></feGaussianBlur>
            <feComposite in="shadowBlurOuter1" in2="SourceAlpha" operator="out" result="shadowBlurOuter1"></feComposite>
            <feColorMatrix values="0 0 0 0 0   0 0 0 0 0   0 0 0 0 0  0 0 0 0.03 0" type="matrix" in="shadowBlurOuter1"></feColorMatrix>
        </filter>
        <filter x="-4.5%" y="-38.0%" width="109.1%" height="222.8%" filterUnits="objectBoundingBox" id="filter-9">
            <feOffset dx="0" dy="1" in="SourceAlpha" result="shadowOffsetInner1"></feOffset>
            <feComposite in="shadowOffsetInner1" in2="SourceAlpha" operator="arithmetic" k2="-1" k3="1" result="shadowInnerInner1"></feComposite>
            <feColorMatrix values="0 0 0 0 1   0 0 0 0 1   0 0 0 0 1  0 0 0 0.6 0" type="matrix" in="shadowInnerInner1"></feColorMatrix>
        </filter>
        <path d="M188,10 L188,11 L182,11 L182,10 L188,10 Z M188,8 L188,9 L182,9 L182,8 L188,8 Z M186,6 L186,7 L182,7 L182,6 L186,6 Z" id="path-10"></path>
        <filter x="-183.3%" y="-140.0%" width="466.7%" height="540.0%" filterUnits="objectBoundingBox" id="filter-11">
            <feOffset dx="0" dy="4" in="SourceAlpha" result="shadowOffsetOuter1"></feOffset>
            <feGaussianBlur stdDeviation="3" in="shadowOffsetOuter1" result="shadowBlurOuter1"></feGaussianBlur>
            <feColorMatrix values="0 0 0 0 0.625934103   0 0 0 0 0.625910249   0 0 0 0 0.625910249  0 0 0 0.4 0" type="matrix" in="shadowBlurOuter1"></feColorMatrix>
        </filter>
        <rect id="path-12" x="0" y="0" width="227" height="140" rx="5"></rect>
        <filter x="-3.3%" y="-3.2%" width="106.6%" height="110.7%" filterUnits="objectBoundingBox" id="filter-14">
            <feOffset dx="0" dy="3" in="SourceAlpha" result="shadowOffsetOuter1"></feOffset>
            <feGaussianBlur stdDeviation="2" in="shadowOffsetOuter1" result="shadowBlurOuter1"></feGaussianBlur>
            <feColorMatrix values="0 0 0 0 0   0 0 0 0 0   0 0 0 0 0  0 0 0 0.1 0" type="matrix" in="shadowBlurOuter1"></feColorMatrix>
        </filter>
        <rect id="path-15" x="0" y="0" width="209" height="20" rx="2.5"></rect>
        <filter x="-3.3%" y="-25.0%" width="106.7%" height="170.0%" filterUnits="objectBoundingBox" id="filter-16">
            <feOffset dx="0" dy="2" in="SourceAlpha" result="shadowOffsetOuter1"></feOffset>
            <feGaussianBlur stdDeviation="2" in="shadowOffsetOuter1" result="shadowBlurOuter1"></feGaussianBlur>
            <feComposite in="shadowBlurOuter1" in2="SourceAlpha" operator="out" result="shadowBlurOuter1"></feComposite>
            <feColorMatrix values="0 0 0 0 0   0 0 0 0 0   0 0 0 0 0  0 0 0 0.120456936 0" type="matrix" in="shadowBlurOuter1"></feColorMatrix>
        </filter>
        <path d="M2.45566826,35.5000614 C2.82900681,35.2445703 4.52504005,35.6104999 7.54376799,36.5978501 C12.0718599,38.0788753 28.2375753,38.5754569 35.6339819,26.2738354 C43.0303886,13.9722138 48.4777515,5.46018563 52.4514879,1.89686607 C56.4252244,-1.66645349 23.4627185,-0.840654546 12.4738338,9.86876677 C5.14791064,17.008381 1.80852214,24.9260748 2.45566826,33.6218482 C0.818556088,34.6207744 -1.62003744e-12,35.2468455 -1.62003744e-12,35.5000614 C-1.62003744e-12,35.7532773 0.818556088,35.7532773 2.45566826,35.5000614 Z" id="path-17"></path>
        <path d="M82.5717182,92.4134381 C46.0253405,97.3305198 27.0801074,86.0031363 25.736019,58.4312877 C29.0268976,55.9332247 31.0103816,54.340659 31.6864708,53.6535906 C15.139043,45.1597143 8.02537102,38.1356097 10.3454549,32.5812768 C11.4861388,30.8881646 13.0599242,30.3724298 15.0668112,31.0340727 C21.2694963,30.5908984 22.4032459,28.9373791 18.46806,26.0735147 C12.5652812,21.777718 -6.19966147,8.23513114 2.07289673,0.248610678 C4.12283388,-1.3107284 5.09709576,4.97516766 11.7825779,4.97516766 C18.46806,4.97516766 35.1830655,8.07351466 44.6552486,14.0735147 C54.1274318,20.0735147 75.9616461,56.8745489 82.5717182,84.8559743 C84.418845,88.6499873 84.2266806,90.8053595 87.6872593,90.8053595 C89.9943118,90.8053595 90.3638864,91.3413857 88.7959832,92.4134381 L82.5717182,92.4134381 Z" id="path-19"></path>
        <path d="M44.758762,37.6392988 C38.8692522,37.7479929 34.324641,37.3140843 31.1249284,36.3375729 C27.9252158,35.3610615 23.7038489,32.7084939 18.4608277,28.3798703 L24.7210907,22.9729092 L15.3047306,23.9570576 C4.7898375,14.9865257 -0.203031131,7.63502726 0.326124695,1.90256239 C5.076308,1.20301771 23.1463515,-4.01616879 40.2699223,6.55774573 C51.6856361,13.6070221 53.181916,23.9675398 44.758762,37.6392988 Z" id="path-21"></path>
        <filter x="-49.0%" y="-29.6%" width="197.3%" height="159.2%" filterUnits="objectBoundingBox" id="filter-23">
            <feOffset dx="0" dy="2" in="SourceAlpha" result="shadowOffsetOuter1"></feOffset>
            <feGaussianBlur stdDeviation="5.5" in="shadowOffsetOuter1" result="shadowBlurOuter1"></feGaussianBlur>
            <feColorMatrix values="0 0 0 0 0   0 0 0 0 0   0 0 0 0 0  0 0 0 0.199683129 0" type="matrix" in="shadowBlurOuter1" result="shadowMatrixOuter1"></feColorMatrix>
            <feMerge>
                <feMergeNode in="shadowMatrixOuter1"></feMergeNode>
                <feMergeNode in="SourceGraphic"></feMergeNode>
            </feMerge>
        </filter>
        <linearGradient x1="50%" y1="-35.4318488%" x2="50%" y2="100%" id="linearGradient-24">
            <stop stop-color="#525878" offset="0%"></stop>
            <stop stop-color="#D8D8D8" offset="100%"></stop>
        </linearGradient>
        <linearGradient x1="0%" y1="44.9141535%" x2="100%" y2="44.9141535%" id="linearGradient-25">
            <stop stop-color="#666B88" offset="0%"></stop>
            <stop stop-color="#161E4B" offset="100%"></stop>
        </linearGradient>
        <radialGradient cx="50%" cy="50%" fx="50%" fy="50%" r="55.7117951%" gradientTransform="translate(0.500000,0.500000),scale(0.999914,1.000000),translate(-0.500000,-0.500000)" id="radialGradient-26">
            <stop stop-color="#01001F" stop-opacity="0.036" offset="0%"></stop>
            <stop stop-color="#000636" stop-opacity="0.219" offset="81.152%"></stop>
            <stop stop-color="#01003C" stop-opacity="0.688" offset="100%"></stop>
        </radialGradient>
        <ellipse id="path-27" cx="18.6369941" cy="18.3691701" rx="18.3707513" ry="18.3691701"></ellipse>
        <radialGradient cx="20.8305434%" cy="86.2839352%" fx="20.8305434%" fy="86.2839352%" r="74.767316%" gradientTransform="translate(0.208305,0.862839),scale(0.898274,1.000000),rotate(-59.185389),translate(-0.208305,-0.862839)" id="radialGradient-29">
            <stop stop-color="#AED6FA" stop-opacity="0.515" offset="0.037%"></stop>
            <stop stop-color="#B385FF" stop-opacity="0" offset="100%"></stop>
        </radialGradient>
        <linearGradient x1="0%" y1="50%" x2="100%" y2="50%" id="linearGradient-30">
            <stop stop-color="#73708F" offset="0%"></stop>
            <stop stop-color="#3F3D56" offset="100%"></stop>
        </linearGradient>
        <circle id="path-31" cx="25.5" cy="25.5" r="25.5"></circle>
        <filter x="-12.7%" y="-12.7%" width="125.5%" height="125.5%" filterUnits="objectBoundingBox" id="filter-32">
            <feOffset dx="0" dy="13" in="SourceAlpha" result="shadowOffsetInner1"></feOffset>
            <feComposite in="shadowOffsetInner1" in2="SourceAlpha" operator="arithmetic" k2="-1" k3="1" result="shadowInnerInner1"></feComposite>
            <feColorMatrix values="0 0 0 0 0.630774457   0 0 0 0 0.630774457   0 0 0 0 0.630774457  0 0 0 0.5 0" type="matrix" in="shadowInnerInner1"></feColorMatrix>
        </filter>
        <linearGradient x1="50%" y1="-73.3408192%" x2="50%" y2="100%" id="linearGradient-33">
            <stop stop-color="#99D9EB" offset="0%"></stop>
            <stop stop-color="#2450FF" offset="100%"></stop>
        </linearGradient>
        <path d="M46.2099264,79 L46.210921,78.910806 C45.7188059,78.9696991 45.2179047,79 44.7099264,79 C37.806367,79 32.2099264,73.4035594 32.2099264,66.5 C32.2099264,59.5964406 37.806367,54 44.7099264,54 C47.1604619,54 49.4462985,54.7051602 51.3755902,55.9236347 C52.3685467,49.7311986 57.7367212,45 64.2099264,45 C70.8650506,45 76.3521612,50.0008608 77.1184541,56.4497782 C78.7736064,55.5257519 80.6803685,55 82.7099264,55 C87.7210988,55 91.983654,58.2052111 93.5593331,62.6773741 C94.8687593,61.6214159 96.4748364,61 98.2099264,61 C102.628204,61 106.209926,65.0294373 106.209926,70 C106.209926,74.1932664 103.660833,77.7167387 100.210845,78.7161945 L100.209926,79 L46.2099264,79 Z" id="path-34"></path>
        <filter x="-14.9%" y="-20.6%" width="129.7%" height="164.7%" filterUnits="objectBoundingBox" id="filter-35">
            <feOffset dx="0" dy="4" in="SourceAlpha" result="shadowOffsetOuter1"></feOffset>
            <feGaussianBlur stdDeviation="3" in="shadowOffsetOuter1" result="shadowBlurOuter1"></feGaussianBlur>
            <feColorMatrix values="0 0 0 0 0.407867283   0 0 0 0 0.66486304   0 0 0 0 1  0 0 0 0.4 0" type="matrix" in="shadowBlurOuter1"></feColorMatrix>
        </filter>
    </defs>
    <g id="高保真（远古版本）" stroke="none" stroke-width="1" fill="none" fill-rule="evenodd">
        <g id="dcc_Home-image-_300px_dark">
            <rect id="矩形" fill="#FF6969" opacity="0" x="6" y="0" width="300" height="300"></rect>
            <g id="编组-68" transform="translate(0.000000, 29.000000)">
                <path d="M256,35 L256.000839,34.8258699 C255.519064,34.9397414 255.016569,35 254.5,35 C250.910149,35 248,32.0898509 248,28.5 C248,24.9101491 250.910149,22 254.5,22 C255.815596,22 257.039905,22.3908479 258.063145,23.0627617 C258.520592,19.6395784 261.452043,17 265,17 C268.319233,17 271.098886,19.3102199 271.818737,22.4104386 C272.494161,22.1449901 273.230149,22 274,22 C276.922301,22 279.356649,24.0891725 279.890957,26.8554299 C280.623246,25.7235857 281.744022,25 283,25 C285.209139,25 287,27.2385763 287,30 C287,32.3295145 285.725539,34.2869461 284.000633,34.8422746 L284,35 L256,35 Z" id="形状结合备份-2" fill="#0081FF" opacity="0.987432571"></path>
                <path d="M156.5,0 C201.383637,0 240.287661,25.6017632 259.405382,62.9985982 L277,63 C279.209139,63 281,64.790861 281,67 C281,69.209139 279.209139,71 277,71 L263.115528,70.9990866 L263.115,71 L259,71 C257.402319,71 256.096339,72.24892 256.005093,73.8237272 L256,74 C256,75.6568542 257.343146,77 259,77 L259,77 L293,77 C295.209139,77 297,78.790861 297,81 C297,83.209139 295.209139,85 293,85 L267.930002,84.9990191 L267.93,85 L259,85 C257.402319,85 256.096339,86.24892 256.005093,87.8237272 L256,88 C256,89.6568542 257.343146,91 259,91 L259,91 L269.396304,90.9999808 C269.894853,93.3081713 270.324412,95.6420369 270.682717,97.9993119 L277,98 C279.209139,98 281,99.790861 281,102 C281,104.209139 279.209139,106 277,106 L271.614921,106.000141 C271.803359,108.314802 271.923551,110.648769 271.97348,113.000024 L296,113 C298.209139,113 300,114.790861 300,117 C300,119.209139 298.209139,121 296,121 L271.87132,121.000725 C269.000214,182.23537 218.444902,231 156.5,231 C95.9101071,231 46.2169724,184.345432 41.3851609,125.000862 L26,125 C23.790861,125 22,123.209139 22,121 C22,118.790861 23.790861,117 26,117 L41.012,117 L41,115.5 C41,112.980559 41.0806682,110.479958 41.2395626,108.000641 L32,108 C29.790861,108 28,106.209139 28,104 C28,101.790861 29.790861,100 32,100 L60,100 C61.6568542,100 63,98.6568542 63,97 C63,95.3431458 61.6568542,94 60,94 L60,94 L42.9974622,93.9998628 C43.5704578,90.9562569 44.2628486,87.9547978 45.0695837,85.0005364 L60,85 C61.6568542,85 63,83.6568542 63,82 C63,80.3431458 61.6568542,79 60,79 L60,79 L26,79 C23.790861,79 22,77.209139 22,75 C22,72.790861 23.790861,71 26,71 L49.8844724,70.9990866 C67.3092271,29.3013867 108.482761,0 156.5,0 Z M18,98 C20.209139,98 22,99.790861 22,102 C22,104.209139 20.209139,106 18,106 L15,106 C12.790861,106 11,104.209139 11,102 C11,99.790861 12.790861,98 15,98 L18,98 Z" id="形状结合" fill="url(#linearGradient-1)"></path>
                <rect id="矩形备份-55" fill="#0081FF" opacity="0.898917062" x="61" y="13" width="17" height="8" rx="4"></rect>
                <g id="编组-66" transform="translate(241.245562, 101.998857)">
                    <mask id="mask-3" fill="white">
                        <use xlink:href="#path-2"></use>
                    </mask>
                    <use id="路径-29" fill="#00BB6C" xlink:href="#path-2"></use>
                    <path d="M56.7166292,2.4315619e-14 C54.2713393,-0.214223484 52.5623209,2.89907786 51.5895739,9.33990403 C50.1304535,19.0011433 53.1080024,57.5011433 44.1674956,75.8713657 C35.2269888,94.2415881 33.2886052,98.7543565 21.1138675,102.91575 C12.9973757,105.690012 17.0693686,112.915948 33.3298464,124.593557 L61.4447106,74.0011433 L56.7166292,2.4315619e-14 Z" id="路径-30" fill="#51D093" mask="url(#mask-3)"></path>
                    <path d="M28.6806022,15.920037 L30.7544379,15.4276399 C36.8904458,66.6916904 36.5077811,93.717449 29.6064438,96.5049157 C22.7051065,99.2923824 17.6203156,96.7911249 14.352071,89.0011433 L28.6806022,15.920037 Z" id="路径-2" fill="#008F53" mask="url(#mask-3)"></path>
                </g>
                <g id="编组-64" transform="translate(41.000000, 88.000000)">
                    <mask id="mask-5" fill="white">
                        <use xlink:href="#path-4"></use>
                    </mask>
                    <g id="矩形">
                        <use fill="black" fill-opacity="1" filter="url(#filter-6)" xlink:href="#path-4"></use>
                        <use fill="#F8F8F8" fill-rule="evenodd" xlink:href="#path-4"></use>
                    </g>
                    <g id="编组-63" mask="url(#mask-5)">
                        <rect id="矩形" fill="#FFFFFF" x="51" y="25" width="172.908284" height="110.842105" rx="8"></rect>
                        <rect id="矩形" fill="#FFFFFF" x="0" y="17.1052632" width="45.1065089" height="125.894737"></rect>
                        <g id="矩形">
                            <use fill="black" fill-opacity="1" filter="url(#filter-8)" xlink:href="#path-7"></use>
                            <use fill-opacity="0.8" fill="#FFFFFF" fill-rule="evenodd" xlink:href="#path-7"></use>
                            <use fill="black" fill-opacity="1" filter="url(#filter-9)" xlink:href="#path-7"></use>
                        </g>
                        <g id="形状结合">
                            <use fill="black" fill-opacity="1" filter="url(#filter-11)" xlink:href="#path-10"></use>
                            <use fill="#D8D8D8" fill-rule="evenodd" xlink:href="#path-10"></use>
                        </g>
                        <circle id="椭圆形" fill="#EBF3DD" cx="138" cy="58" r="18"></circle>
                        <rect id="矩形" fill="#EBF3DD" x="113" y="88" width="49" height="6"></rect>
                        <rect id="矩形备份-47" fill="#EBF3DD" x="96" y="97" width="84" height="6"></rect>
                    </g>
                    <g id="Group" mask="url(#mask-5)">
                        <g transform="translate(2.209926, 2.000000)">
                            <mask id="mask-13" fill="white">
                                <use xlink:href="#path-12"></use>
                            </mask>
                            <g id="Mask" stroke="none" fill="none">
                                <use fill="black" fill-opacity="1" filter="url(#filter-14)" xlink:href="#path-12"></use>
                                <use fill="#FFFFFF" fill-rule="evenodd" xlink:href="#path-12"></use>
                            </g>
                            <g id="distribution_logo" stroke="none" stroke-width="1" fill="none" fill-rule="evenodd" mask="url(#mask-13)">
                                <g transform="translate(56.000000, 44.000000)" fill="#003296" fill-rule="nonzero" id="形状结合">
                                    <path d="M33.4027921,0 C34.0076754,0 34.4980302,0.490354798 34.4980302,1.0952381 L34.4980302,10.4064034 C34.4979307,10.9837921 34.9447164,11.4568272 35.5114252,11.4986374 L35.5932683,11.5015373 L44.9054185,11.5006514 C45.4828071,11.500497 45.9558847,11.9472377 45.9977489,12.5139425 L46.0006566,12.5957853 L46.0006566,21.9047619 C46.0006566,22.5096452 45.5103018,23 44.9054185,23 L1.0952381,23 C0.490354798,23 0,22.5096452 0,21.9047619 L0,1.0952381 C0,0.490354798 0.490354798,0 1.0952381,0 L33.4027921,0 Z M113.904762,0 C114.482151,0 114.955186,0.446790218 114.996996,1.01349919 L115,1.0952381 L115,21.9047619 C115,22.4821505 114.55321,22.9551857 113.986501,22.9969959 L113.904762,23 L70.095019,23 C69.5176309,23 69.0445954,22.5532098 69.0027852,21.9865008 L68.999781,21.9047619 L68.999781,12.5957853 L69.0026888,12.5139425 C69.0424596,11.9755729 69.4714009,11.5454709 70.009234,11.5039391 L70.095019,11.5006514 L79.4082639,11.5015373 L79.4901067,11.4986374 C80.0284803,11.4589177 80.458623,11.0300175 80.5002059,10.4921882 L80.503502,10.4064034 L80.503502,1.0952381 C80.503502,0.51784949 80.9502924,0.044814339 81.5170009,0.00300409571 L81.5987401,0 L113.904762,0 Z M68.9891659,1.09578527 C69.954638,1.09578527 70.4934957,1.68074716 70.5621688,2.28136182 L70.568301,2.356479 L69.7300353,2.356479 C69.7169034,2.23391155 69.5702615,1.83775605 68.9924489,1.83775605 C68.5076554,1.83775605 68.1388625,2.21859062 68.1388625,2.86973017 C68.1388625,3.44098202 68.5098443,3.82181658 69.0022984,3.82181658 C69.498743,3.82181658 69.6859547,3.55426451 69.7482305,3.19707223 L69.7584885,3.12909164 L70.5967542,3.12909164 C70.5409425,3.94547838 69.9959602,4.54737206 68.9771281,4.54737206 C68.1519944,4.54737206 67.2688606,3.95095014 67.2688606,2.8555036 C67.2688606,1.7589627 67.9593902,1.09578527 68.9891659,1.09578527 Z M52.3958805,1.0952381 C53.4606751,1.0952381 54.1862235,1.86675639 54.1862235,2.81993715 C54.1862235,3.77311791 53.3851655,4.54573057 52.3958805,4.54573057 C51.4076899,4.54573057 50.6055374,3.77311791 50.6055374,2.81993715 C50.6055374,1.86675639 51.2818406,1.0952381 52.3958805,1.0952381 Z M49.8992492,1.09578527 L49.8992492,4.54518339 L48.8815114,4.54518339 L48.8815114,1.09578527 L49.8992492,1.09578527 Z M66.6490254,1.09534753 L66.6490254,1.82746915 L64.517248,1.82746915 L64.517248,2.42389109 L66.4739308,2.42389109 L66.4739308,3.11552167 L64.517248,3.11552167 L64.517248,3.81371837 L66.6938935,3.81371837 L66.6938935,4.54474562 L63.502793,4.54474562 L63.502793,1.09534753 L66.6490254,1.09534753 Z M62.6555535,1.09534753 L62.6555535,1.82746915 L61.4484943,1.82746915 L61.4484943,4.54474562 L60.4340399,4.54474562 L60.4340399,1.83184655 L59.2226036,1.83184655 L59.2226036,1.09534753 L62.6555535,1.09534753 Z M41.2253868,1.09534753 L41.2253868,2.94042532 C41.2253868,3.49635624 41.507727,3.71194362 41.9739166,3.71194362 C42.5298422,3.71194362 42.7158803,3.45477086 42.7158803,2.91306652 L42.7158803,1.09534753 L43.6931275,1.09534753 L43.6931275,3.09363463 C43.6931275,3.70975491 43.4753535,4.54474562 41.9662562,4.54474562 C40.8664427,4.54474562 40.2448566,4.08730642 40.2448566,3.16257882 L40.2448566,1.09534753 L41.2253868,1.09534753 Z M45.5118142,1.09534753 L47.0821946,3.21620208 L47.0821946,1.09534753 L48.0178568,1.09534753 L48.0178568,4.54474562 L47.0559304,4.54474562 L45.4932103,2.42936285 L45.4932103,4.54474562 L44.5542651,4.54474562 L44.5542651,1.09534753 L45.5118142,1.09534753 Z M55.8541101,1.09534753 L57.4540378,3.21620208 L57.4540378,1.09534753 L58.4093981,1.09534753 L58.4093981,4.54474562 L57.4277734,4.54474562 L55.8344117,2.42936285 L55.8344117,4.54474562 L54.8768626,4.54474562 L54.8768626,1.09534753 L55.8541101,1.09534753 Z M72.2315915,1.09534753 L72.2315915,2.36698478 L73.7406888,2.36698478 L73.7406888,1.09534753 L74.7551432,1.09534753 L74.7551432,4.54474562 L73.7363111,4.54474562 L73.7363111,3.11442732 L72.2315915,3.11442732 L72.2315915,4.54474562 L71.2182306,4.54474562 L71.2182306,1.09534753 L72.2315915,1.09534753 Z M52.3958805,1.9444554 C51.93954,1.9444554 51.5685581,2.30668597 51.5685581,2.81993715 C51.5685581,3.33428268 51.93954,3.70089066 52.3958805,3.70089066 C52.8533154,3.70089066 53.2232029,3.33428268 53.2232029,2.81993715 C53.2232029,2.30668597 52.8533154,1.9444554 52.3958805,1.9444554 Z"></path>
                                </g>
                            </g>
                            <g id="编组-2" stroke="none" stroke-width="1" fill="none" fill-rule="evenodd" mask="url(#mask-13)">
                                <g transform="translate(11.000000, 106.000000)">
                                    <g id="Rectangle" fill="none">
                                        <use fill="black" fill-opacity="1" filter="url(#filter-16)" xlink:href="#path-15"></use>
                                        <use fill-opacity="0.257648601" fill="#D2D2D2" fill-rule="evenodd" xlink:href="#path-15"></use>
                                    </g>
                                    <ellipse id="Oval" fill="#2876E8" fill-rule="evenodd" cx="9.9" cy="10" rx="5.5" ry="5.55555556"></ellipse>
                                    <rect id="Rectangle" fill="#11B46F" fill-rule="evenodd" x="22" y="4.44444444" width="11" height="11.1111111" rx="1.25"></rect>
                                    <rect id="Rectangle" fill="#11B46F" fill-rule="evenodd" x="97" y="4.44444444" width="11" height="11.1111111" rx="1.25"></rect>
                                    <rect id="Rectangle" fill-opacity="0.545101139" fill="#21CBFF" fill-rule="evenodd" x="178.2" y="4.44444444" width="11" height="11.1111111" rx="1.25"></rect>
                                    <rect id="Rectangle" fill="#0FD280" fill-rule="evenodd" x="82" y="4.44444444" width="11" height="11.1111111" rx="1.25"></rect>
                                    <rect id="Rectangle" fill-opacity="0.424062022" fill="#5A00FF" fill-rule="evenodd" x="162.8" y="4.44444444" width="11" height="11.1111111" rx="1.25"></rect>
                                    <rect id="Rectangle" fill="#FF7A4B" fill-rule="evenodd" x="36" y="4.44444444" width="11" height="11.1111111" rx="1.25"></rect>
                                    <rect id="Rectangle备份" fill="#9B7FFE" fill-rule="evenodd" x="51" y="4.44444444" width="11" height="11.1111111" rx="1.25"></rect>
                                    <rect id="Rectangle备份-2" fill="#21C0FF" fill-rule="evenodd" x="66" y="4.44444444" width="11" height="11.1111111" rx="1.25"></rect>
                                    <rect id="Rectangle" fill="#E04A4A" fill-rule="evenodd" x="112" y="4.44444444" width="11" height="11.1111111" rx="1.25"></rect>
                                    <rect id="Rectangle" fill-opacity="0.475058389" fill="#000000" fill-rule="evenodd" x="193.6" y="4.44444444" width="11" height="11.1111111" rx="1.25"></rect>
                                </g>
                            </g>
                        </g>
                    </g>
                </g>
                <g id="编组-65" transform="translate(234.000000, 194.000000)">
                    <mask id="mask-18" fill="white">
                        <use xlink:href="#path-17"></use>
                    </mask>
                    <use id="路径-25" fill="#00BB6C" xlink:href="#path-17"></use>
                    <path d="M35.857316,23.391383 C27.1096321,27.6918645 19.6415115,29.8421053 13.4529542,29.8421053 C7.26439697,29.8421053 4.99466738,32.1132798 6.64376544,36.655629 L20.9903043,41.7934446 L38.9511967,36.1283628 L35.857316,23.391383 Z" id="路径-28" fill="#009F5C" mask="url(#mask-18)"></path>
                    <path d="M4.17011834,36.655629 C15.4179509,15.3020242 25.6945782,5.41868941 35,7.00562467 C31.5250086,9.09626794 23.7160607,5.52939038 6.64376544,36.655629 C5.70866691,37.2679246 4.88411788,37.2679246 4.17011834,36.655629 Z" id="路径-26" fill="#00834C" mask="url(#mask-18)"></path>
                    <path d="M53,1.25160546 C50.4489886,2.26207458 48.2290773,4.12519205 46.3402661,6.84095787 C43.5070493,10.9146066 31.8427904,32.1835189 24.2754068,33.8716338 C16.7080231,35.5597487 8.44629492,36.1634561 6.03348832,36.1634561 C4.4249506,36.1634561 6.38929266,38.6584025 11.9265145,43.6482954 C39.0180854,42.1500866 52.6365591,41.0109193 52.7819354,40.2307934 C52.9273118,39.4506674 54.004987,29.6786051 56.014961,10.9146066 L53,1.25160546 Z" id="路径-27" fill="#53D297" mask="url(#mask-18)"></path>
                </g>
                <g id="编组" transform="translate(0.000000, 140.000000)">
                    <mask id="mask-20" fill="white">
                        <use xlink:href="#path-19"></use>
                    </mask>
                    <use id="路径-22" fill="#5EDAA3" xlink:href="#path-19"></use>
                    <path d="M3.3237226,-3 C1.85462228,8 17.4133814,20.6666667 50,35 C82.5866186,49.3333333 89.0866186,94.0009143 69.5,169.002743 C35.1917878,123.667581 8.82767534,88 -9.59233746,62 C-28.0123503,36 -23.7069969,14.3333333 3.3237226,-3 Z" id="路径-23" fill="#00BB6C" mask="url(#mask-20)"></path>
                    <circle id="椭圆形" fill="#DF4949" cx="21" cy="54" r="3"></circle>
                    <circle id="椭圆形备份-22" fill="#DF4949" cx="11" cy="26" r="3"></circle>
                </g>
                <g id="编组-67" transform="translate(42.711906, 193.000000)">
                    <path d="M0.288094364,2.25160546 C-0.719844915,7.08924572 0.917030448,12.1070768 5.19872045,17.3050987 C9.48041046,22.5031207 12.644838,25.2006064 14.692003,25.3975561 L22.0677096,24.391383 L16.1974058,27.9013566 C22.3497993,36.8489488 31.9353769,40.1003729 44.9541386,37.655629 C42.3007761,33.3749796 39.3638141,29.920298 36.1432527,27.2915844 L20.8413488,15.8751357 L0.288094364,2.25160546 Z" id="路径-31" fill="#00834C"></path>
                    <mask id="mask-22" fill="white">
                        <use xlink:href="#path-21"></use>
                    </mask>
                    <use id="路径-20" fill="#5EDAA3" xlink:href="#path-21"></use>
                    <path d="M44.9541386,37.655629 C34.3542181,16.4219595 19.4782135,4.50427064 0.326124695,1.90256239 C-18.8259641,-0.699145871 -20.6719742,1.17280528 -5.21190564,7.51841585 L16.1772518,37.655629 L37.2658931,46.182167 L44.9541386,37.655629 Z" id="路径-21" fill="#00AE65" mask="url(#mask-22)"></path>
                    <path d="M0.326124695,1.90256239 C5.49521629,13.1589162 10.9130954,20.059298 16.5797621,22.6037079 C19.7755743,22.2922976 23.1372763,22.1900824 26.6648682,22.2970623 L19.6801237,28.5683064 C24.3148484,32.7104662 32.7395201,35.7395738 44.9541386,37.655629 C57.1687571,39.5716842 57.8626097,40.9637938 47.0356964,41.8319577 L16.5797621,36.7111478 L11.1503785,27.9914364 L3.04239327,14.856753 L-2.53633977,3.17818692 L0.326124695,1.90256239 Z" id="路径-24" fill="#46D590" mask="url(#mask-22)"></path>
                </g>
                <g id="放大镜" filter="url(#filter-23)" transform="translate(215.143837, 208.427852) rotate(-39.000000) translate(-215.143837, -208.427852) translate(188.778292, 165.362241)">
                    <rect id="矩形" fill="url(#linearGradient-24)" x="20.6925163" y="47.9943729" width="8" height="11"></rect>
                    <rect id="矩形" fill="url(#linearGradient-25)" x="19.374617" y="54.1312217" width="12" height="32" rx="2"></rect>
                    <g id="编组-61" opacity="0.533249628" transform="translate(25.521470, 26.264460) rotate(60.000000) translate(-25.521470, -26.264460) translate(6.521470, 7.764460)">
                        <mask id="mask-28" fill="white">
                            <use xlink:href="#path-27"></use>
                        </mask>
                        <use id="椭圆形备份-17" stroke="#979797" fill="url(#radialGradient-26)" fill-rule="nonzero" xlink:href="#path-27"></use>
                        <path d="M8.44893998,1.61854224 C8.24792542,1.28365652 8.38846693,1.72256106 8.17105798,2.04458169 C3.35922801,9.17174442 5.20117075,18.614125 11.9957737,23.9166512 C18.7903767,29.2191774 28.488268,28.318035 34.2956928,22.0913049 C30.778648,21.0899642 27.4764437,19.6430802 24.4191315,17.8197971 C17.8757833,13.9175539 12.4541826,8.29118462 8.44893998,1.61854224 Z" id="路径" fill="url(#radialGradient-29)" fill-rule="nonzero" style="mix-blend-mode: lighten;" mask="url(#mask-28)" transform="translate(19.885168, 14.443122) rotate(168.000000) translate(-19.885168, -14.443122) "></path>
                        <ellipse id="椭圆形" fill="#FFFFFF" mask="url(#mask-28)" cx="22.4338952" cy="9.72843787" rx="1" ry="1"></ellipse>
                        <path d="M22.7586163,5.35592205 C21.9134159,4.6692332 21.9037289,4.10220363 23.4968867,3.48978968 C25.0900445,2.87737573 31.4722569,6.54542537 31.4898025,9.98361569 C24.2344867,3.20625435 23.6038167,6.0426109 22.7586163,5.35592205 Z" id="路径-3" mask="url(#mask-28)"></path>
                    </g>
                    <g id="编组-64" transform="translate(1.731090, 0.000000)">
                        <g id="椭圆形">
                            <use fill="black" fill-opacity="1" filter="url(#filter-32)" xlink:href="#path-31"></use>
                            <circle stroke="url(#linearGradient-30)" stroke-width="9" stroke-linejoin="square" cx="25.5" cy="25.5" r="21"></circle>
                        </g>
                        <circle id="椭圆形备份-22" stroke="#7A7A7A" cx="25.5739128" cy="25.2032332" r="16.5"></circle>
                        <circle id="椭圆形" fill="#FFFFFF" cx="35.3081461" cy="19.5124882" r="1"></circle>
                        <circle id="椭圆形备份-23" fill="#FFFFFF" cx="38.6384683" cy="24.1394693" r="1.5"></circle>
                    </g>
                </g>
                <g id="形状结合">
                    <use fill="black" fill-opacity="1" filter="url(#filter-35)" xlink:href="#path-34"></use>
                    <use fill="url(#linearGradient-33)" fill-rule="evenodd" xlink:href="#path-34"></use>
                </g>
            </g>
        </g>
    </g>
</svg>