<?xml version="1.0" encoding="UTF-8"?>
<svg width="15px" height="15px" viewBox="0 0 15 15" version="1.1" xmlns="http://www.w3.org/2000/svg" xmlns:xlink="http://www.w3.org/1999/xlink">
    <title>痕迹信息</title>
    <g id="一期V6.0" stroke="none" stroke-width="1" fill="none" fill-rule="evenodd" fill-opacity="0.7">
        <g id="切图" transform="translate(-85.000000, -144.000000)" fill="#FFFFFF" fill-rule="nonzero">
            <g id="编组" transform="translate(84.000000, 63.000000)">
                <g id="痕迹信息" transform="translate(1.600000, 81.600000)">
                    <path d="M9.6,4.8 C12.2509668,4.8 14.4,6.9490332 14.4,9.6 C14.4,12.2509668 12.2509668,14.4 9.6,14.4 C6.9490332,14.4 4.8,12.2509668 4.8,9.6 C4.8,6.9490332 6.9490332,4.8 9.6,4.8 Z M9.6,5.6 C7.390861,5.6 5.6,7.390861 5.6,9.6 C5.6,11.809139 7.390861,13.6 9.6,13.6 C11.809139,13.6 13.6,11.809139 13.6,9.6 C13.6,7.390861 11.809139,5.6 9.6,5.6 Z M10.4,0 C10.8418278,0 11.2,0.3581722 11.2,0.8 L11.2002865,3.40170172 C10.9398271,3.33465117 10.6729503,3.28358469 10.4007641,3.24961033 L10.4,0.8 L0.8,0.8 L0.8,12 L3.66552707,12.0007742 C3.77764653,12.2776516 3.90858028,12.5448979 4.05674283,12.8009278 L0.8,12.8 C0.3581722,12.8 8.8817842e-16,12.4418278 8.8817842e-16,12 L8.8817842e-16,0.8 C8.8817842e-16,0.3581722 0.3581722,0 0.8,0 L10.4,0 Z M9.59994322,7.2 C9.82085712,7.2 9.99994322,7.3790861 9.99994322,7.6 L9.99994322,9.6072 L11.6,9.60744486 C11.8209139,9.60744486 12,9.78653096 12,10.0074449 C12,10.2283588 11.8209139,10.4074449 11.6,10.4074449 L9.64386268,10.4074449 L9.5964943,10.4046695 C9.37902932,10.4 9.19994322,10.2209139 9.19994322,10 L9.19994322,7.6 C9.19994322,7.3790861 9.37902932,7.2 9.59994322,7.2 Z M4.6034555,5.60030906 C4.40174977,5.85196033 4.21866174,6.11917754 4.05628009,6.39987202 L2.8,6.4 C2.5790861,6.4 2.4,6.2209139 2.4,6 C2.4,5.7790861 2.5790861,5.6 2.8,5.6 L4.6034555,5.60030906 Z M8.4,2.4 C8.6209139,2.4 8.8,2.5790861 8.8,2.8 C8.8,3.0209139 8.6209139,3.2 8.4,3.2 L2.8,3.2 C2.5790861,3.2 2.4,3.0209139 2.4,2.8 C2.4,2.5790861 2.5790861,2.4 2.8,2.4 L8.4,2.4 Z" id="形状"></path>
                </g>
            </g>
        </g>
    </g>
</svg>