<?xml version="1.0" encoding="UTF-8"?>
<svg width="16px" height="16px" viewBox="0 0 16 16" version="1.1" xmlns="http://www.w3.org/2000/svg" xmlns:xlink="http://www.w3.org/1999/xlink">
    <title>检查更新</title>
    <g id="检查更新" stroke="none" stroke-width="1" fill="none" fill-rule="evenodd">
        <rect id="矩形" x="0" y="0" width="16" height="16"></rect>
        <path d="M8,1.5 C9.79492544,1.5 11.4199254,2.22753728 12.5961941,3.40380592 C13.7724627,4.58007456 14.5,6.20507456 14.5,8 C14.5,8.37725511 14.467861,8.74700375 14.4061715,9.10665731 L7.53715588,3.59662648 L2.58060384,11.229715 L7.1232199,6.90772859 L8.54884339,14.4771557 C8.36790085,14.4922837 8.18485154,14.5 8,14.5 C6.20507456,14.5 4.58007456,13.7724627 3.40380592,12.5961941 C2.22753728,11.4199254 1.5,9.79492544 1.5,8 C1.5,6.20507456 2.22753728,4.58007456 3.40380592,3.40380592 C4.58007456,2.22753728 6.20507456,1.5 8,1.5 Z M8.95157155,6.64581003 L14.3681477,9.30897637 C14.1085165,10.5787836 13.4786273,11.7137609 12.5961941,12.5961941 C11.6493298,13.5430583 10.4116961,14.1991531 9.02871999,14.4190512 L8.95157155,6.64581003 Z" id="形状结合" stroke="#4C4C4C" fill="#4C4C4C"></path>
    </g>
</svg>