<?xml version="1.0" encoding="UTF-8"?>
<svg width="14px" height="16px" viewBox="0 0 14 16" version="1.1" xmlns="http://www.w3.org/2000/svg" xmlns:xlink="http://www.w3.org/1999/xlink">
    <title>cookies</title>
    <g id="一期V6.0" stroke="none" stroke-width="1" fill="none" fill-rule="evenodd" fill-opacity="0.7">
        <g id="切图" transform="translate(-85.000000, -185.000000)" fill="#FFFFFF" fill-rule="nonzero">
            <g id="编组" transform="translate(84.000000, 63.000000)">
                <g id="cookies" transform="translate(1.543146, 122.799675)">
                    <path d="M12.524,9.96835705 C13.0413767,10.2842759 13.0413767,11.0259105 12.5307039,11.3378192 L6.87384963,14.7929124 C6.61784045,14.9492777 6.29586805,14.9492777 6.03985887,14.7929124 L0.383004616,11.3378192 C-0.0976286277,11.0442581 -0.125901171,10.3700401 0.298186985,10.0316958 L0.3896,9.96835705 L1.156,10.436357 L0.8,10.6550932 L6.45685425,14.1101864 L12.1137085,10.6550932 L11.7568,10.437157 L12.524,9.96835705 Z M12.524,6.76835705 C13.0413767,7.08427588 13.0413767,7.82591052 12.5307039,8.13781924 L6.87384963,11.5929124 C6.61784045,11.7492777 6.29586805,11.7492777 6.03985887,11.5929124 L0.383004616,8.13781924 C-0.0976286277,7.84425809 -0.125901171,7.17004007 0.298186985,6.83169576 L0.3896,6.76835705 L1.156,7.23635705 L0.8,7.4550932 L6.45685425,10.9101864 L12.1137085,7.4550932 L11.7568,7.23715705 L12.524,6.76835705 Z M6.03985887,0.117273957 C6.29586805,-0.0390913189 6.61784045,-0.0390913189 6.87384963,0.117273957 L12.5307039,3.57236716 C13.0413767,3.88427588 13.0413767,4.62591052 12.5307039,4.93781924 L6.87384963,8.39291244 C6.61784045,8.54927772 6.29586805,8.54927772 6.03985887,8.39291244 L0.383004616,4.93781924 C-0.127668205,4.62591052 -0.127668205,3.88427588 0.383004616,3.57236716 L6.03985887,0.117273957 Z M6.45685425,0.8 L0.8,4.2550932 L6.45685425,7.7101864 L12.1137085,4.2550932 L6.45685425,0.8 Z" id="形状"></path>
                </g>
            </g>
        </g>
    </g>
</svg>