<?xml version="1.0" encoding="UTF-8"?>
<svg width="12px" height="12px" viewBox="0 0 12 12" version="1.1" xmlns="http://www.w3.org/2000/svg" xmlns:xlink="http://www.w3.org/1999/xlink">
    <title>icon/list/warning/高</title>
    <g id="icon/list/warning/高" stroke="none" stroke-width="1" fill="none" fill-rule="evenodd">
        <g id="warning">
            <path d="M5.99442857,0 C9.31119394,0 12,2.68695042 12,6 C12,9.31304957 9.31119394,12 5.99442857,12 C2.68323579,12 0,9.313053 0,6 C0,2.68694704 2.68323579,0 5.99442857,0 Z" id="Shape" fill="#FF4E19"></path>
            <path d="M5.4,2.43430213 L6.6,2.43430213 L6.6,7.04457744 L5.4,7.04457744 L5.4,2.43430213 Z M5.4,8.24457744 L6.6,8.24457744 L6.6,9.44457744 L5.4,9.44457744 L5.4,8.24457744 Z" id="Combined-Shape" fill="#FFFFFF" fill-rule="nonzero"></path>
            <path d="M5.4,3 L6.6,3 L6.6,6.6 L5.4,6.6 L5.4,3 Z M5.4,7.8 L6.6,7.8 L6.6,9 L5.4,9 L5.4,7.8 Z" id="Combined-Shape" fill="#FFFFFF" fill-rule="nonzero"></path>
        </g>
    </g>
</svg>