<?xml version="1.0" encoding="UTF-8"?>
<svg width="36px" height="36px" viewBox="0 0 36 36" version="1.1" xmlns="http://www.w3.org/2000/svg" xmlns:xlink="http://www.w3.org/1999/xlink">
    <title>登录安全/中备份</title>
    <defs>
        <linearGradient x1="50%" y1="-2.48949813e-15%" x2="50%" y2="100%" id="linearGradient-1">
            <stop stop-color="#FF5600" offset="0%"></stop>
            <stop stop-color="#FF6748" offset="100%"></stop>
        </linearGradient>
        <linearGradient x1="100%" y1="50%" x2="0%" y2="50%" id="linearGradient-2">
            <stop stop-color="#FFC300" offset="0%"></stop>
            <stop stop-color="#FFFAE6" offset="100%"></stop>
        </linearGradient>
        <linearGradient x1="50%" y1="0%" x2="50%" y2="100%" id="linearGradient-3">
            <stop stop-color="#FFFFFF" offset="0%"></stop>
            <stop stop-color="#FFFCEB" offset="100%"></stop>
        </linearGradient>
        <linearGradient x1="50%" y1="0%" x2="50%" y2="106.47409%" id="linearGradient-4">
            <stop stop-color="#FFFCED" offset="0%"></stop>
            <stop stop-color="#FFFEED" offset="100%"></stop>
        </linearGradient>
    </defs>
    <g id="登录安全/中备份" stroke="none" stroke-width="1" fill="none" fill-rule="evenodd">
        <g id="编组-15" transform="translate(1.000000, 0.000000)">
            <path d="M0.000331311189,7.32221384 L0.311667555,7.31757431 L0.609721797,7.30539696 L0.952540169,7.28155134 C1.42894712,7.24030184 1.96156333,7.15787796 2.29774176,6.99404377 C2.62680204,6.83367856 2.99190786,6.59736271 3.39447975,6.30748189 L3.74874986,6.04641678 L4.12156948,5.76224844 L5.35331331,4.80245099 L5.80231887,4.45719664 L6.27086789,4.1045025 L6.75915915,3.74750127 L7.26739144,3.38932562 C9.77235861,1.66035224 12.9830587,0 17.000497,0 L17.4125578,0.0058575142 C21.7291603,0.128553427 25.0922512,2.15703158 27.6324633,4.03266163 L28.1138771,4.39322537 L28.5749507,4.74665497 L29.8382361,5.73096973 L30.2200542,6.02269359 L30.5825847,6.29069873 C30.9943676,6.58824555 31.3672012,6.83059461 31.7025895,6.99404377 C32.038768,7.15787796 32.5713842,7.24030184 33.0477911,7.28155134 L33.3906095,7.30539696 L33.6886638,7.31757431 L34,7.32221384 C34,26.9144271 27.0973835,32.8082787 17.2976778,35.4662323 L16.9998343,35.5451082 C7.04309891,32.9713877 0.000331311189,27.2411742 0.000331311189,7.32221384 Z" id="路径" fill="url(#linearGradient-1)"></path>
            <path d="M0.00066262238,0 L0.412723423,0.0058575142 C4.72932597,0.128553427 8.09241682,2.15703158 10.632629,4.03266163 L11.1140427,4.39322537 L11.5751164,4.74665497 L12.8384017,5.73096973 L13.2202199,6.02269359 L13.5827503,6.29069873 C13.9945332,6.58824555 14.3673668,6.83059461 14.7027552,6.99404377 C15.0389336,7.15787796 15.5715498,7.24030184 16.0479568,7.28155134 L16.3907752,7.30539696 L16.6888294,7.31757431 L17.0001657,7.32221384 C17.0001657,26.9144271 10.0975491,32.8082787 0.297843424,35.4662323 L-7.10542736e-15,35.5451082 L0.00066262238,0 L0.00066262238,0 Z" id="形状结合" fill="url(#linearGradient-2)" opacity="0.3" transform="translate(8.500083, 17.772554) scale(-1, 1) translate(-8.500083, -17.772554) "></path>
            <path d="M2.42887907,8.81511959 L2.69573871,8.81114285 L2.95121378,8.80070512 L3.2450581,8.78026602 C3.65340691,8.7449093 4.10993509,8.67426027 4.39808803,8.53383096 C4.6801397,8.39637506 4.99308755,8.19381862 5.33814916,7.94534935 L5.64180926,7.72157925 L5.96136894,7.47800639 L7.01714936,6.65532286 L7.40201127,6.35939056 L7.80362471,6.0570813 L8.22216008,5.75108024 L8.65778775,5.44407254 C10.8049025,3.96209536 13.5569311,2.5389363 17.0004496,2.5389363 L17.3536446,2.54395702 C21.0535896,2.64912495 23.9362389,4.38782051 26.1135636,5.99550341 L26.526204,6.30455804 L26.92141,6.6074977 L28.004226,7.45119607 L28.3314987,7.70124509 L28.6422391,7.93096378 C28.9951959,8.18600392 29.3147675,8.39373168 29.6022433,8.53383096 C29.8903962,8.67426027 30.3469244,8.7449093 30.7552732,8.78026602 L31.0491175,8.80070512 L31.3045926,8.81114285 L31.5714522,8.81511959 C31.5714522,25.1674921 25.6549238,30.660318 17.255176,32.938564 L16.9998817,33.0061719 C8.46553702,30.8001257 2.42887907,24.9361349 2.42887907,8.81511959 Z" id="路径" stroke="url(#linearGradient-3)" stroke-linejoin="round"></path>
            <path d="M18.3288006,9.80120305 L18.3277102,15.743008 L18.3277102,15.743008 L21.9013917,15.7435242 L17.1405419,23.86965 C16.9171966,24.2508701 16.4270997,24.3788529 16.0458796,24.1555077 C15.8008446,24.0119491 15.6502841,23.7492455 15.6502819,23.4652539 L15.6502363,17.5202635 L15.6502363,17.5202635 L12.0782547,17.5218174 L16.8385407,9.39665393 C17.0618859,9.01543388 17.5519829,8.88745105 17.9332029,9.11079627 C18.1782851,9.25438244 18.3288528,9.51715684 18.3288006,9.80120305 Z" id="路径" fill="url(#linearGradient-4)"></path>
        </g>
    </g>
</svg>