<?xml version="1.0" encoding="UTF-8"?>
<svg width="16px" height="16px" viewBox="0 0 16 16" version="1.1" xmlns="http://www.w3.org/2000/svg" xmlns:xlink="http://www.w3.org/1999/xlink">
    <title>更新</title>
    <g id="更新" stroke="none" stroke-width="1" fill="none" fill-rule="evenodd">
        <rect id="矩形" x="0" y="0" width="16" height="16"></rect>
        <path d="M8,1.5 C9.79492544,1.5 11.4199254,2.22753728 12.5961941,3.40380592 C13.7724627,4.58007456 14.5,6.20507456 14.5,8 C14.5,9.79492544 13.7724627,11.4199254 12.5961941,12.5961941 L12.5,12.688 L12.5,8.35 L8.48639233,8.35 L9.81820204,9.84790979 L9.66532681,9.98789519 C9.19309483,10.3895498 8.60133756,10.624 7.9692,10.624 C7.32891572,10.624 6.73453613,10.3836386 6.26408848,9.98004217 C5.66186488,9.46339531 5.26200832,8.68053458 5.21672462,7.78227908 L5.21672462,7.78227908 L3.43279147,8.21725319 L3.46929786,8.47669354 C3.66862131,9.67566093 4.2694184,10.7065952 5.10491092,11.4236218 C5.89509942,12.101768 6.89483848,12.5 7.9692,12.5 C9.07579958,12.5 10.1178128,12.0817593 11.0350542,11.2169422 L11.0350542,11.2169422 L12.415,12.77 L12.3960422,12.7880361 C11.2388454,13.8510547 9.69520736,14.5 8,14.5 C6.20507456,14.5 4.58007456,13.7724627 3.40380592,12.5961941 C2.22753728,11.4199254 1.5,9.79492544 1.5,8 C1.5,6.20507456 2.22753728,4.58007456 3.40380592,3.40380592 L3.499,3.311 L3.5,7.65 L7.51360767,7.65 L6.18179796,6.15209021 L6.33467319,6.01210481 C6.80690517,5.61045015 7.39866244,5.376 8.0308,5.376 C8.64886136,5.376 9.22405622,5.60080033 9.69021299,6.00071563 C10.2721936,6.49999601 10.6831609,7.26741705 10.8198843,8.20879462 L10.8198843,8.20879462 L12.5672085,7.78274681 L12.5307021,7.52330646 C12.3313787,6.32433907 11.7305816,5.29340478 10.8950891,4.57637824 C10.1049006,3.89823199 9.10516152,3.5 8.0308,3.5 C6.92420042,3.5 5.88218718,3.91824068 4.96494576,4.78305775 L4.96494576,4.78305775 L3.584,3.229 L3.60395781,3.21196388 C4.76115458,2.14894529 6.30479264,1.5 8,1.5 Z" id="形状结合" stroke="#4C4C4C" fill="#4C4C4C"></path>
    </g>
</svg>