<?xml version="1.0" encoding="UTF-8"?>
<svg width="307px" height="300px" viewBox="0 0 307 300" version="1.1" xmlns="http://www.w3.org/2000/svg" xmlns:xlink="http://www.w3.org/1999/xlink">
    <!-- Generator: Sketch 58 (84663) - https://sketch.com -->
    <title>dcc_Home image_300px</title>
    <desc>Created with Sketch.</desc>
    <defs>
        <path d="M256.790074,35 L256.791224,34.8257965 C256.309357,34.9397151 255.806755,35 255.290074,35 C251.700223,35 248.790074,32.0898509 248.790074,28.5 C248.790074,24.9101491 251.700223,22 255.290074,22 C256.60567,22 257.829979,22.3908479 258.853218,23.0627617 C259.310665,19.6395784 262.242116,17 265.790074,17 C269.109307,17 271.88896,19.3102199 272.60881,22.4104386 C273.284235,22.1449901 274.020222,22 274.790074,22 C277.712374,22 280.146722,24.0891725 280.681031,26.8554299 C281.413319,25.7235857 282.534095,25 283.790074,25 C285.999213,25 287.790074,27.2385763 287.790074,30 C287.790074,32.3295145 286.515612,34.2869461 284.790706,34.8422746 L284.790074,35 L283.790074,35 L283.790074,35 L256.790074,35 Z" id="path-1"></path>
        <filter x="-28.2%" y="-38.9%" width="156.4%" height="222.2%" filterUnits="objectBoundingBox" id="filter-2">
            <feOffset dx="0" dy="4" in="SourceAlpha" result="shadowOffsetOuter1"></feOffset>
            <feGaussianBlur stdDeviation="3" in="shadowOffsetOuter1" result="shadowBlurOuter1"></feGaussianBlur>
            <feColorMatrix values="0 0 0 0 0.17254902   0 0 0 0 0.654901961   0 0 0 0 0.97254902  0 0 0 0.4 0" type="matrix" in="shadowBlurOuter1"></feColorMatrix>
        </filter>
        <path d="M157.290074,0 C202.17371,0 241.077735,25.6017632 260.195456,62.9985982 L277.790074,63 C279.999213,63 281.790074,64.790861 281.790074,67 C281.790074,69.209139 279.999213,71 277.790074,71 L263.905601,70.9990866 L263.905074,71 L259.790074,71 C258.192393,71 256.886413,72.24892 256.795166,73.8237272 L256.790074,74 C256.790074,75.5976809 258.038994,76.9036609 259.613801,76.9949073 L259.790074,77 L293.790074,77 C295.999213,77 297.790074,78.790861 297.790074,81 C297.790074,83.209139 295.999213,85 293.790074,85 L259.790074,85 C258.133219,85 256.790074,86.3431458 256.790074,88 C256.790074,89.5976809 258.038994,90.9036609 259.613801,90.9949073 L259.790074,91 L270.186376,90.999975 C270.684979,93.3084125 271.114577,95.6425307 271.472905,98.000063 L277.790074,98 C279.999213,98 281.790074,99.790861 281.790074,102 C281.790074,104.209139 279.999213,106 277.790074,106 L272.404966,105.99979 C272.593434,108.314726 272.713639,110.648972 272.763564,113.000512 L296.790074,113 C298.999213,113 300.790074,114.790861 300.790074,117 C300.790074,119.209139 298.999213,121 296.790074,121 L272.661393,121.000725 C269.790287,182.23537 219.234975,231 157.290074,231 C96.7001807,231 47.007046,184.345432 42.1752345,125.000862 L26.7900736,125 C24.5809346,125 22.7900736,123.209139 22.7900736,121 C22.7900736,118.790861 24.5809346,117 26.7900736,117 L41.7996224,117.000626 C41.7932629,116.501175 41.7900736,116.00096 41.7900736,115.5 C41.7900736,112.980559 41.8707418,110.479958 42.0296362,108.000641 L32.7900736,108 C30.5809346,108 28.7900736,106.209139 28.7900736,104 C28.7900736,101.790861 30.5809346,100 32.7900736,100 L60.7900736,100 C62.4469278,100 63.7900736,98.6568542 63.7900736,97 C63.7900736,95.3431458 62.4469278,94 60.7900736,94 L60.7900736,94 L43.7875492,93.9997919 C44.3605392,90.9562259 45.0529214,87.9548056 45.8596449,85.0005818 L60.7900736,85 C62.4469278,85 63.7900736,83.6568542 63.7900736,82 C63.7900736,80.4023191 62.5411536,79.0963391 60.9663464,79.0050927 L60.7900736,79 L26.7900736,79 C24.5809346,79 22.7900736,77.209139 22.7900736,75 C22.7900736,72.790861 24.5809346,71 26.7900736,71 L50.6742072,70.9998975 C68.0987669,29.3017666 109.272523,0 157.290074,0 Z M18.7900736,98 C20.9992126,98 22.7900736,99.790861 22.7900736,102 C22.7900736,104.209139 20.9992126,106 18.7900736,106 L15.7900736,106 C13.5809346,106 11.7900736,104.209139 11.7900736,102 C11.7900736,99.790861 13.5809346,98 15.7900736,98 L18.7900736,98 Z" id="path-3"></path>
        <filter x="-3.8%" y="-3.0%" width="107.6%" height="109.5%" filterUnits="objectBoundingBox" id="filter-4">
            <feOffset dx="0" dy="4" in="SourceAlpha" result="shadowOffsetOuter1"></feOffset>
            <feGaussianBlur stdDeviation="3" in="shadowOffsetOuter1" result="shadowBlurOuter1"></feGaussianBlur>
            <feColorMatrix values="0 0 0 0 0.17254902   0 0 0 0 0.654901961   0 0 0 0 0.97254902  0 0 0 0.4 0" type="matrix" in="shadowBlurOuter1"></feColorMatrix>
        </filter>
        <rect id="path-5" x="61.7900736" y="13" width="17" height="8" rx="4"></rect>
        <filter x="-64.7%" y="-87.5%" width="229.4%" height="375.0%" filterUnits="objectBoundingBox" id="filter-6">
            <feOffset dx="0" dy="4" in="SourceAlpha" result="shadowOffsetOuter1"></feOffset>
            <feGaussianBlur stdDeviation="3" in="shadowOffsetOuter1" result="shadowBlurOuter1"></feGaussianBlur>
            <feColorMatrix values="0 0 0 0 0.17254902   0 0 0 0 0.654901961   0 0 0 0 0.97254902  0 0 0 0.4 0" type="matrix" in="shadowBlurOuter1"></feColorMatrix>
        </filter>
        <path d="M14.352071,118.303071 C28.1191383,108.051753 38.5865939,95.2878913 45.7544379,80.0114869 C56.5062038,57.0968804 49.6551599,8.53780274 55.7544379,0.0103436571 C51.78571,-0.0860316024 29.2514793,6.01148695 20.5029586,35.0114869 C14.6706114,54.3448203 7.83629191,77.5809588 3.55271368e-15,104.719903 L14.352071,118.303071 Z" id="path-7"></path>
        <rect id="path-9" x="0" y="0" width="231" height="143" rx="8"></rect>
        <filter x="-22.5%" y="-26.6%" width="145.0%" height="172.7%" filterUnits="objectBoundingBox" id="filter-11">
            <feOffset dx="0" dy="14" in="SourceAlpha" result="shadowOffsetOuter1"></feOffset>
            <feGaussianBlur stdDeviation="15" in="shadowOffsetOuter1" result="shadowBlurOuter1"></feGaussianBlur>
            <feColorMatrix values="0 0 0 0 0   0 0 0 0 0   0 0 0 0 0  0 0 0 0.189521416 0" type="matrix" in="shadowBlurOuter1"></feColorMatrix>
        </filter>
        <rect id="path-12" x="0" y="0" width="231" height="17.1052632"></rect>
        <filter x="-7.4%" y="-76.0%" width="114.7%" height="298.8%" filterUnits="objectBoundingBox" id="filter-13">
            <feOffset dx="0" dy="4" in="SourceAlpha" result="shadowOffsetOuter1"></feOffset>
            <feGaussianBlur stdDeviation="5" in="shadowOffsetOuter1" result="shadowBlurOuter1"></feGaussianBlur>
            <feComposite in="shadowBlurOuter1" in2="SourceAlpha" operator="out" result="shadowBlurOuter1"></feComposite>
            <feColorMatrix values="0 0 0 0 0   0 0 0 0 0   0 0 0 0 0  0 0 0 0.03 0" type="matrix" in="shadowBlurOuter1"></feColorMatrix>
        </filter>
        <filter x="-4.5%" y="-38.0%" width="109.1%" height="222.8%" filterUnits="objectBoundingBox" id="filter-14">
            <feOffset dx="0" dy="1" in="SourceAlpha" result="shadowOffsetInner1"></feOffset>
            <feComposite in="shadowOffsetInner1" in2="SourceAlpha" operator="arithmetic" k2="-1" k3="1" result="shadowInnerInner1"></feComposite>
            <feColorMatrix values="0 0 0 0 1   0 0 0 0 1   0 0 0 0 1  0 0 0 0.6 0" type="matrix" in="shadowInnerInner1"></feColorMatrix>
        </filter>
        <path d="M188,10 L188,11 L182,11 L182,10 L188,10 Z M188,8 L188,9 L182,9 L182,8 L188,8 Z M186,6 L186,7 L182,7 L182,6 L186,6 Z" id="path-15"></path>
        <filter x="-183.3%" y="-140.0%" width="466.7%" height="540.0%" filterUnits="objectBoundingBox" id="filter-16">
            <feOffset dx="0" dy="4" in="SourceAlpha" result="shadowOffsetOuter1"></feOffset>
            <feGaussianBlur stdDeviation="3" in="shadowOffsetOuter1" result="shadowBlurOuter1"></feGaussianBlur>
            <feColorMatrix values="0 0 0 0 0.625934103   0 0 0 0 0.625910249   0 0 0 0 0.625910249  0 0 0 0.4 0" type="matrix" in="shadowBlurOuter1"></feColorMatrix>
        </filter>
        <rect id="path-17" x="0" y="0" width="227" height="140" rx="5"></rect>
        <filter x="-3.3%" y="-3.2%" width="106.6%" height="110.7%" filterUnits="objectBoundingBox" id="filter-19">
            <feOffset dx="0" dy="3" in="SourceAlpha" result="shadowOffsetOuter1"></feOffset>
            <feGaussianBlur stdDeviation="2" in="shadowOffsetOuter1" result="shadowBlurOuter1"></feGaussianBlur>
            <feColorMatrix values="0 0 0 0 0   0 0 0 0 0   0 0 0 0 0  0 0 0 0.1 0" type="matrix" in="shadowBlurOuter1"></feColorMatrix>
        </filter>
        <linearGradient x1="-29.7410192%" y1="46.0363873%" x2="1782.53968%" y2="135.867446%" id="linearGradient-20">
            <stop stop-color="#0071FF" offset="0%"></stop>
            <stop stop-color="#00DDFF" stop-opacity="0.75" offset="21%"></stop>
            <stop stop-color="#006CFF" stop-opacity="0.92" offset="46%"></stop>
            <stop stop-color="#00FCA7" offset="72%"></stop>
            <stop stop-color="#00A2FF" offset="100%"></stop>
        </linearGradient>
        <linearGradient x1="1.9182998%" y1="42.8897548%" x2="388.266659%" y2="114.10759%" id="linearGradient-21">
            <stop stop-color="#0071FF" offset="0%"></stop>
            <stop stop-color="#00DDFF" stop-opacity="0.75" offset="21%"></stop>
            <stop stop-color="#006CFF" stop-opacity="0.92" offset="46%"></stop>
            <stop stop-color="#00FCA7" offset="72%"></stop>
            <stop stop-color="#00A2FF" offset="100%"></stop>
        </linearGradient>
        <linearGradient x1="-215.806582%" y1="38.127806%" x2="600.650142%" y2="78.2925585%" id="linearGradient-22">
            <stop stop-color="#0071FF" offset="0%"></stop>
            <stop stop-color="#00DDFF" stop-opacity="0.75" offset="21%"></stop>
            <stop stop-color="#006CFF" stop-opacity="0.92" offset="46%"></stop>
            <stop stop-color="#00FCA7" offset="72%"></stop>
            <stop stop-color="#00A2FF" offset="100%"></stop>
        </linearGradient>
        <linearGradient x1="-218.479579%" y1="43.5082873%" x2="594.015366%" y2="63.1599141%" id="linearGradient-23">
            <stop stop-color="#0071FF" offset="0%"></stop>
            <stop stop-color="#00DDFF" stop-opacity="0.75" offset="21%"></stop>
            <stop stop-color="#006CFF" stop-opacity="0.92" offset="46%"></stop>
            <stop stop-color="#00FCA7" offset="72%"></stop>
            <stop stop-color="#00A2FF" offset="100%"></stop>
        </linearGradient>
        <linearGradient x1="-223.928169%" y1="29.6835897%" x2="578.859348%" y2="89.2256738%" id="linearGradient-24">
            <stop stop-color="#0071FF" offset="0%"></stop>
            <stop stop-color="#00DDFF" stop-opacity="0.75" offset="21%"></stop>
            <stop stop-color="#006CFF" stop-opacity="0.92" offset="46%"></stop>
            <stop stop-color="#00FCA7" offset="72%"></stop>
            <stop stop-color="#00A2FF" offset="100%"></stop>
        </linearGradient>
        <linearGradient x1="-3.69128763%" y1="31.8258004%" x2="223.0943%" y2="103.322166%" id="linearGradient-25">
            <stop stop-color="#0071FF" offset="0%"></stop>
            <stop stop-color="#00DDFF" stop-opacity="0.75" offset="21%"></stop>
            <stop stop-color="#006CFF" stop-opacity="0.92" offset="46%"></stop>
            <stop stop-color="#00FCA7" offset="72%"></stop>
            <stop stop-color="#00A2FF" offset="100%"></stop>
        </linearGradient>
        <linearGradient x1="-11.0019488%" y1="33.332482%" x2="331.129629%" y2="104.158863%" id="linearGradient-26">
            <stop stop-color="#0071FF" offset="0%"></stop>
            <stop stop-color="#00DDFF" stop-opacity="0.75" offset="21%"></stop>
            <stop stop-color="#006CFF" stop-opacity="0.92" offset="46%"></stop>
            <stop stop-color="#00EAB9" offset="72%"></stop>
            <stop stop-color="#00A2FF" offset="100%"></stop>
        </linearGradient>
        <linearGradient x1="-129.051442%" y1="12.671183%" x2="212.964615%" y2="84.0067552%" id="linearGradient-27">
            <stop stop-color="#0071FF" offset="0%"></stop>
            <stop stop-color="#00DDFF" stop-opacity="0.75" offset="21%"></stop>
            <stop stop-color="#006CFF" stop-opacity="0.92" offset="46%"></stop>
            <stop stop-color="#00EAB9" offset="72%"></stop>
            <stop stop-color="#00A2FF" offset="100%"></stop>
        </linearGradient>
        <linearGradient x1="34.3216395%" y1="47.018878%" x2="551.792951%" y2="145.962255%" id="linearGradient-28">
            <stop stop-color="#0071FF" offset="0%"></stop>
            <stop stop-color="#00DDFF" stop-opacity="0.75" offset="21%"></stop>
            <stop stop-color="#006CFF" stop-opacity="0.92" offset="46%"></stop>
            <stop stop-color="#00FCA7" offset="72%"></stop>
            <stop stop-color="#00A2FF" offset="100%"></stop>
        </linearGradient>
        <linearGradient x1="-253.140547%" y1="-20.9163939%" x2="104.508706%" y2="62.7789348%" id="linearGradient-29">
            <stop stop-color="#0071FF" offset="0%"></stop>
            <stop stop-color="#00DDFF" stop-opacity="0.75" offset="21%"></stop>
            <stop stop-color="#006CFF" stop-opacity="0.92" offset="46%"></stop>
            <stop stop-color="#00EAB9" offset="72%"></stop>
            <stop stop-color="#00A2FF" offset="100%"></stop>
        </linearGradient>
        <rect id="path-30" x="0" y="0" width="209" height="20" rx="2.5"></rect>
        <filter x="-6.2%" y="-55.0%" width="112.4%" height="230.0%" filterUnits="objectBoundingBox" id="filter-31">
            <feOffset dx="0" dy="2" in="SourceAlpha" result="shadowOffsetOuter1"></feOffset>
            <feGaussianBlur stdDeviation="4" in="shadowOffsetOuter1" result="shadowBlurOuter1"></feGaussianBlur>
            <feComposite in="shadowBlurOuter1" in2="SourceAlpha" operator="out" result="shadowBlurOuter1"></feComposite>
            <feColorMatrix values="0 0 0 0 0   0 0 0 0 0   0 0 0 0 0  0 0 0 0.2 0" type="matrix" in="shadowBlurOuter1"></feColorMatrix>
        </filter>
        <path d="M2.45566826,35.5000614 C2.82900681,35.2445703 4.52504005,35.6104999 7.54376799,36.5978501 C12.0718599,38.0788753 28.2375753,38.5754569 35.6339819,26.2738354 C43.0303886,13.9722138 48.4777515,5.46018563 52.4514879,1.89686607 C56.4252244,-1.66645349 23.4627185,-0.840654546 12.4738338,9.86876677 C5.14791064,17.008381 1.80852214,24.9260748 2.45566826,33.6218482 C0.818556088,34.6207744 -1.62003744e-12,35.2468455 -1.62003744e-12,35.5000614 C-1.62003744e-12,35.7532773 0.818556088,35.7532773 2.45566826,35.5000614 Z" id="path-32"></path>
        <path d="M83.3617918,92.4134381 C46.8154141,97.3305198 27.870181,86.0031363 26.5260926,58.4312877 C29.8169712,55.9332247 31.8004552,54.340659 32.4765444,53.6535906 C15.9291166,45.1597143 8.81544462,38.1356097 11.1355285,32.5812768 C12.2762124,30.8881646 13.8499978,30.3724298 15.8568848,31.0340727 C22.0595699,30.5908984 23.1933195,28.9373791 19.2581336,26.0735147 C13.3553548,21.777718 -5.40958788,8.23513114 2.86297032,0.248610678 C4.91290747,-1.3107284 5.88716935,4.97516766 12.5726515,4.97516766 C19.2581336,4.97516766 35.9731391,8.07351466 45.4453222,14.0735147 C54.9175054,20.0735147 76.7517197,56.8745489 83.3617918,84.8559743 C85.2089186,88.6499873 85.0167542,90.8053595 88.4773329,90.8053595 C90.7843854,90.8053595 91.15396,91.3413857 89.5860567,92.4134381 L83.3617918,92.4134381 Z" id="path-34"></path>
        <path d="M45.3288946,37.6392988 C39.4393848,37.7479929 34.8947736,37.3140843 31.695061,36.3375729 C28.4953484,35.3610615 24.2739815,32.7084939 19.0309603,28.3798703 L25.2912233,22.9729092 L15.8748631,23.9570576 C5.35997006,14.9865257 0.367101435,7.63502726 0.89625726,1.90256239 C5.64644057,1.20301771 23.7164841,-4.01616879 40.8400548,6.55774573 C52.2557687,13.6070221 53.7520486,23.9675398 45.3288946,37.6392988 Z" id="path-36"></path>
        <filter x="-50.9%" y="-30.5%" width="198.1%" height="159.8%" filterUnits="objectBoundingBox" id="filter-38">
            <feOffset dx="0" dy="2" in="SourceAlpha" result="shadowOffsetOuter1"></feOffset>
            <feGaussianBlur stdDeviation="5.5" in="shadowOffsetOuter1" result="shadowBlurOuter1"></feGaussianBlur>
            <feColorMatrix values="0 0 0 0 0   0 0 0 0 0   0 0 0 0 0  0 0 0 0.199683129 0" type="matrix" in="shadowBlurOuter1" result="shadowMatrixOuter1"></feColorMatrix>
            <feMerge>
                <feMergeNode in="shadowMatrixOuter1"></feMergeNode>
                <feMergeNode in="SourceGraphic"></feMergeNode>
            </feMerge>
        </filter>
        <linearGradient x1="50%" y1="-35.4318488%" x2="50%" y2="100%" id="linearGradient-39">
            <stop stop-color="#525878" offset="0%"></stop>
            <stop stop-color="#D8D8D8" offset="100%"></stop>
        </linearGradient>
        <linearGradient x1="0%" y1="44.9141535%" x2="100%" y2="44.9141535%" id="linearGradient-40">
            <stop stop-color="#666B88" offset="0%"></stop>
            <stop stop-color="#161E4B" offset="100%"></stop>
        </linearGradient>
        <radialGradient cx="50%" cy="50%" fx="50%" fy="50%" r="55.7117951%" gradientTransform="translate(0.500000,0.500000),scale(0.999914,1.000000),translate(-0.500000,-0.500000)" id="radialGradient-41">
            <stop stop-color="#01001F" stop-opacity="0.036" offset="0%"></stop>
            <stop stop-color="#000636" stop-opacity="0.219" offset="81.152%"></stop>
            <stop stop-color="#01003C" stop-opacity="0.688" offset="100%"></stop>
        </radialGradient>
        <ellipse id="path-42" cx="18.6369941" cy="18.3691701" rx="18.3707513" ry="18.3691701"></ellipse>
        <radialGradient cx="20.8305434%" cy="86.2839352%" fx="20.8305434%" fy="86.2839352%" r="74.767316%" gradientTransform="translate(0.208305,0.862839),scale(0.898274,1.000000),rotate(-59.185389),translate(-0.208305,-0.862839)" id="radialGradient-44">
            <stop stop-color="#AED6FA" stop-opacity="0.515" offset="0.037%"></stop>
            <stop stop-color="#B385FF" stop-opacity="0" offset="100%"></stop>
        </radialGradient>
        <linearGradient x1="0%" y1="50%" x2="100%" y2="50%" id="linearGradient-45">
            <stop stop-color="#73708F" offset="0%"></stop>
            <stop stop-color="#3F3D56" offset="100%"></stop>
        </linearGradient>
        <circle id="path-46" cx="25.5059022" cy="25.8985486" r="25.5"></circle>
        <filter x="-12.7%" y="-12.7%" width="125.5%" height="125.5%" filterUnits="objectBoundingBox" id="filter-47">
            <feOffset dx="0" dy="13" in="SourceAlpha" result="shadowOffsetInner1"></feOffset>
            <feComposite in="shadowOffsetInner1" in2="SourceAlpha" operator="arithmetic" k2="-1" k3="1" result="shadowInnerInner1"></feComposite>
            <feColorMatrix values="0 0 0 0 0.630774457   0 0 0 0 0.630774457   0 0 0 0 0.630774457  0 0 0 0.5 0" type="matrix" in="shadowInnerInner1"></feColorMatrix>
        </filter>
        <path d="M47,79 L47.0001853,78.9109027 C46.5083307,78.9697322 46.0077,79 45.5,79 C38.5964406,79 33,73.4035594 33,66.5 C33,59.5964406 38.5964406,54 45.5,54 C47.9505355,54 50.2363721,54.7051602 52.1656638,55.9236347 C53.1586203,49.7311986 58.5267948,45 65,45 C71.6551242,45 77.1422348,50.0008608 77.9085277,56.4497782 C79.56368,55.5257519 81.4704421,55 83.5,55 C88.5111724,55 92.7737276,58.2052111 94.3494067,62.6773741 C95.6588329,61.6214159 97.26491,61 99,61 C103.418278,61 107,65.0294373 107,70 C107,74.1932664 104.450907,77.7167387 101.000919,78.7161945 L101,79 L99,79 L99,79 L47,79 Z" id="path-48"></path>
        <filter x="-14.9%" y="-20.6%" width="129.7%" height="164.7%" filterUnits="objectBoundingBox" id="filter-49">
            <feOffset dx="0" dy="4" in="SourceAlpha" result="shadowOffsetOuter1"></feOffset>
            <feGaussianBlur stdDeviation="3" in="shadowOffsetOuter1" result="shadowBlurOuter1"></feGaussianBlur>
            <feColorMatrix values="0 0 0 0 0.17254902   0 0 0 0 0.654901961   0 0 0 0 0.97254902  0 0 0 0.4 0" type="matrix" in="shadowBlurOuter1"></feColorMatrix>
        </filter>
    </defs>
    <g id="dcc_Home-image_300px" stroke="none" stroke-width="1" fill="none" fill-rule="evenodd">
        <rect id="矩形" fill="#FF6969" opacity="0" x="6.79007359" y="0" width="300" height="300"></rect>
        <g id="编组-68" transform="translate(0.000000, 29.000000)">
            <g id="形状结合备份-2" opacity="0.161528088">
                <use fill="black" fill-opacity="1" filter="url(#filter-2)" xlink:href="#path-1"></use>
                <use fill="#0081FF" fill-rule="evenodd" xlink:href="#path-1"></use>
            </g>
            <g id="形状结合" opacity="0.503394717">
                <use fill="black" fill-opacity="1" filter="url(#filter-4)" xlink:href="#path-3"></use>
                <use fill="#0081FF" fill-rule="evenodd" xlink:href="#path-3"></use>
            </g>
            <g id="矩形备份-55" opacity="0.5">
                <use fill="black" fill-opacity="1" filter="url(#filter-6)" xlink:href="#path-5"></use>
                <use fill="#0081FF" fill-rule="evenodd" xlink:href="#path-5"></use>
            </g>
            <g id="编组-66" transform="translate(242.035636, 101.988513)">
                <mask id="mask-8" fill="white">
                    <use xlink:href="#path-7"></use>
                </mask>
                <use id="路径-29" fill="#21AC6E" xlink:href="#path-7"></use>
                <path d="M56.7166292,0.0103436571 C54.2713393,-0.203879827 52.5623209,2.90942152 51.5895739,9.35024769 C50.1304535,19.0114869 53.1080024,57.5114869 44.1674956,75.8817094 C35.2269888,94.2519318 33.2886052,98.7647002 21.1138675,102.926094 C12.9973757,105.700356 17.0693686,112.926292 33.3298464,124.603901 L61.4447106,74.0114869 L56.7166292,0.0103436571 Z" id="路径-30" fill="#51D093" mask="url(#mask-8)"></path>
                <path d="M28.6806022,15.9303806 L30.7544379,15.4379836 C36.8904458,66.7020341 36.5077811,93.7277927 29.6064438,96.5152593 C22.7051065,99.302726 17.6203156,96.8014686 14.352071,89.0114869 L28.6806022,15.9303806 Z" id="路径-2" fill="#1B9265" mask="url(#mask-8)"></path>
            </g>
            <g id="编组-64" transform="translate(41.790074, 88.000000)">
                <mask id="mask-10" fill="white">
                    <use xlink:href="#path-9"></use>
                </mask>
                <g id="矩形">
                    <use fill="black" fill-opacity="1" filter="url(#filter-11)" xlink:href="#path-9"></use>
                    <use fill="#F8F8F8" fill-rule="evenodd" xlink:href="#path-9"></use>
                </g>
                <g id="编组-63" mask="url(#mask-10)">
                    <rect id="矩形" fill="#FFFFFF" x="51" y="25" width="172.908284" height="110.842105" rx="8"></rect>
                    <rect id="矩形" fill="#FFFFFF" x="0" y="17.1052632" width="45.1065089" height="125.894737"></rect>
                    <g id="矩形">
                        <use fill="black" fill-opacity="1" filter="url(#filter-13)" xlink:href="#path-12"></use>
                        <use fill-opacity="0.8" fill="#FFFFFF" fill-rule="evenodd" xlink:href="#path-12"></use>
                        <use fill="black" fill-opacity="1" filter="url(#filter-14)" xlink:href="#path-12"></use>
                    </g>
                    <g id="形状结合">
                        <use fill="black" fill-opacity="1" filter="url(#filter-16)" xlink:href="#path-15"></use>
                        <use fill="#D8D8D8" fill-rule="evenodd" xlink:href="#path-15"></use>
                    </g>
                    <circle id="椭圆形" fill="#EBF3DD" cx="138" cy="58" r="18"></circle>
                    <rect id="矩形" fill="#EBF3DD" x="113" y="88" width="49" height="6"></rect>
                    <rect id="矩形备份-47" fill="#EBF3DD" x="96" y="97" width="84" height="6"></rect>
                </g>
                <g id="Group" mask="url(#mask-10)">
                    <g transform="translate(2.209926, 2.000000)">
                        <mask id="mask-18" fill="white">
                            <use xlink:href="#path-17"></use>
                        </mask>
                        <g id="Mask" stroke="none" fill="none">
                            <use fill="black" fill-opacity="1" filter="url(#filter-19)" xlink:href="#path-17"></use>
                            <use fill="#FFFFFF" fill-rule="evenodd" xlink:href="#path-17"></use>
                        </g>
                        <g id="编组" stroke="none" stroke-width="1" fill="none" fill-rule="evenodd" mask="url(#mask-18)">
                            <g transform="translate(37.000000, 43.000000)" fill-rule="nonzero">
                                <path d="M10.625,24 C10.8090949,24 10.9622063,24.1326564 10.9939582,24.3075933 L11,24.375 L11,26.625 C11,26.8090949 10.8673436,26.9622063 10.6924067,26.9939582 L10.625,27 L2.375,27 C2.19090508,27 2.03779372,26.8673436 2.00604175,26.6924067 L2,26.625 L2,24.375 C2,24.1909051 2.13265637,24.0377937 2.30759328,24.0060418 L2.375,24 L10.625,24 Z" id="路径" fill="url(#linearGradient-20)"></path>
                                <path d="M20.5490661,0.487091156 L21.51275,3.06175 L21.51275,3.06175 L27.6279907,3.06245667 C27.8350806,3.06252393 28.0029474,3.23041014 28.0029907,3.4375 L28.0029907,5.54321289 C28.0029907,5.75031967 27.8350975,5.91821289 27.6279907,5.91821289 L18.827,5.91821289 L18.827,5.91821289 L15.8495,12.00075 L24.12125,12 L22.4997658,8.53390158 C22.4120069,8.34630736 22.4929394,8.12308954 22.6805336,8.03533062 C22.730275,8.012061 22.78452,8 22.8394352,8 L25.1600088,8 C25.4481803,8 25.7108677,8.16510919 25.8358273,8.42477805 L27.9651489,12.8495561 C28.3243791,13.5960446 28.0104443,14.4924068 27.2639557,14.8516371 C27.0610274,14.9492916 26.8387147,15 26.6135118,15 L25.0100161,15 L25.0100161,15 L25.0107661,23.625 C25.0107661,23.8090949 25.1434225,23.9622063 25.3183594,23.9939582 L25.3857661,24 L27.5681152,24 C27.7522102,24 27.9053215,24.1326564 27.9370735,24.3075933 L27.9431152,24.375 L27.9431152,26.625 C27.9431152,26.8090949 27.8104589,26.9622063 27.635522,26.9939582 L27.5681152,27 L24.12125,27 C23.0134345,27 22.082243,26.1495001 22.0147855,25.0455666 L22.0108742,24.9170989 L22.0101242,15 L19.0403877,15 L19.0411377,21.4504485 C19.0411377,24.4630047 16.0621554,26.9026436 13.0355387,26.9971575 L12.85325,27 L12.4560547,27 C12.2719598,27 12.1188484,26.8673436 12.0870964,26.6924067 L12.0810547,26.625 L12.0810547,24.375 C12.0810547,24.1909051 12.2137111,24.0377937 12.388648,24.0060418 L12.4560547,24 L12.85325,24 C14.2735883,24 15.954767,22.9256024 16.0296949,21.5895598 L16.0335869,21.4504485 L16.0328369,15 L13.4087097,15 C12.5802826,15 11.9087097,14.3284271 11.9087097,13.5 C11.9087097,13.2705759 11.9613362,13.044209 12.0625408,12.8383133 L15.464,5.91821289 L15.464,5.91821289 L12.3862915,5.91821289 C12.1791847,5.91821289 12.0112915,5.75031967 12.0112915,5.54321289 L12.0112915,3.4375 C12.0112915,3.23039322 12.1791847,3.0625 12.3862915,3.0625 L18.146,3.0625 L18.146,3.0625 L17.1895067,0.506426184 C17.1169221,0.312455352 17.215325,0.0963694177 17.4092958,0.0237847408 C17.4513284,0.00805599493 17.495843,1.12175339e-16 17.540722,0 L19.8466568,0 C20.1594597,-8.3461708e-16 20.4394146,0.19413689 20.5490661,0.487091156 Z" id="路径" fill="url(#linearGradient-21)"></path>
                                <path d="M52.5500701,0.484665667 L53.51275,3.02982003 L53.51275,3.02982003 L60.625,3.02982003 C60.8090949,3.02982003 60.9622063,3.15615943 60.9939582,3.32276601 L61,3.38696289 L61,5.52982003 C61,5.70514853 60.8673436,5.85096887 60.6924067,5.88120884 L60.625,5.88696289 L43.375,5.88696289 C43.1909051,5.88696289 43.0377937,5.76062349 43.0060418,5.59401691 L43,5.52982003 L43,3.38696289 C43,3.2116344 43.1326564,3.06581405 43.3075933,3.03557408 L43.375,3.02982003 L50.146,3.02982003 L49.1920202,0.507667166 C49.1187501,0.313954187 49.2163884,0.0975216772 49.4101014,0.0242516244 C49.4524948,0.00821672966 49.497444,-7.13318973e-16 49.5427686,-8.8817842e-16 L51.8485733,-8.8817842e-16 C52.1604281,-1.38955443e-15 52.4397424,0.192978819 52.5500701,0.484665667 Z" id="路径" fill="url(#linearGradient-22)"></path>
                                <path d="M43.375,11 L60.625,11 C60.8321068,11 61,10.8321068 61,10.625 L61,8.375 C61,8.16789322 60.8321068,8 60.625,8 L43.375,8 C43.1678932,8 43,8.16789322 43,8.375 L43,10.625 C43,10.8321068 43.1678932,11 43.375,11 Z" id="Stroke-15" fill="url(#linearGradient-23)"></path>
                                <path d="M43.375,15 L60.7,15 C60.8656854,15 61,14.8656854 61,14.7 L61,12.3 C61,12.1343146 60.8656854,12 60.7,12 L43.375,12 C43.1678932,12 43,12.1678932 43,12.375 L43,14.625 C43,14.8321068 43.1678932,15 43.375,15 Z" id="Stroke-17" fill="url(#linearGradient-23)"></path>
                                <path d="M44.125,27 L58,27 C59.6568542,27 61,25.6568542 61,24 L61,18.125 C61,17.5036797 60.4963203,17 59.875,17 L44.125,17 C43.5036797,17 43,17.5036797 43,18.125 L43,25.875 C43,26.4963203 43.5036797,27 44.125,27 Z M46,24 L46,20 L58,20 L58,22.875 C58,23.4963203 57.4963203,24 56.875,24 L46,24 L46,24 Z" id="Stroke-27" fill="url(#linearGradient-24)"></path>
                                <path d="M42.2635862,0 C42.470693,-1.31480138e-15 42.6385862,0.167893219 42.6385862,0.375 C42.6385862,0.454253439 42.6134769,0.531469271 42.5668623,0.595564387 L38.999,5.5 L39,26.625 C39,26.8062184 38.8714568,26.957414 38.7005756,26.9923813 L38.625,27 L36.375,27 C36.1678932,27 36,26.8321068 36,26.625 L36,26.625 L35.999,9.625 L35.2246336,10.6911288 C35.0835004,10.885187 34.858034,11 34.6180816,11 L31.7364138,11 C31.529307,11 31.3614138,10.8321068 31.3614138,10.625 C31.3614138,10.5457466 31.3865231,10.4685307 31.4331377,10.4044356 L35.999,4.125 L36,4 L36.09,4 L38.7753664,0.308871227 C38.9164996,0.11481303 39.141966,4.40785481e-17 39.3819184,0 L42.2635862,0 Z" id="形状结合" fill="url(#linearGradient-25)"></path>
                                <path d="M67,3.52941176 L67,13.25 L67,13.25 C67,20.2914271 72.8205057,26 80,26 C87.1794943,26 93,20.2914271 93,13.25 L93,3.52941176 C93,2.68474097 92.315259,2 91.4705882,2 C90.6259174,2 89.9411765,2.68474097 89.9411765,3.52941176 L89.9411765,13.25 L89.9411765,13.25 C89.9411765,18.6345729 85.4901527,23 80,23 C74.5098473,23 70.0588235,18.6345729 70.0588235,13.25 L70.0588235,3.52941176 C70.0588235,2.68474097 69.3740826,2 68.5294118,2 C67.684741,2 67,2.68474097 67,3.52941176 Z" id="路径" fill="url(#linearGradient-26)"></path>
                                <path d="M114,26 L108,26 C102.58999,26 98,21.4988248 98,16 L98,12 C98,6.50117523 102.58999,2 108,2 L114,2 C119.410671,2 124,6.50107288 124,12 L124,16 C124,21.4989271 119.410671,26 114,26 Z M114,23 C117.7611,23 121,19.8420729 121,16 L121,12 C121,8.15792712 117.7611,5 114,5 L108,5 C104.23948,5 101,8.15811083 101,12 L101,16 C101,19.8418892 104.23948,23 108,23 L114,23 Z" id="Stroke-21" fill="url(#linearGradient-27)"></path>
                                <path d="M9.8832314,0.564663789 L5.43714286,8.14814815 L5.43714286,8.14814815 L7.1885,8.14814815 L9.61615053,8.14814815 C9.82325731,8.14814815 9.99115053,8.31604137 9.99115053,8.52314815 C9.99115053,8.57973765 9.9783431,8.63559333 9.95368797,8.68652953 L5.91171429,17.037037 L5.91171429,17.037037 L10.625,17.037037 C10.8321068,17.037037 11,17.2049303 11,17.412037 L11,19.625 C11,19.8321068 10.8321068,20 10.625,20 L3.92857143,20 L3.92857143,20 L3.19138483,20 C2.57006448,20 2.06638483,19.4963203 2.06638483,18.875 C2.06638483,18.709973 2.10269149,18.5469669 2.17273042,18.3975398 L5.588,11.1111111 L5.588,11.1111111 L2.35624322,11.1111111 C1.6106588,11.1111111 1.00624322,10.5066955 1.00624322,9.76111111 C1.00624322,9.52110574 1.07022655,9.28543925 1.19160238,9.07838736 L6.29612787,0.370709026 C6.43073895,0.141079467 6.67697416,4.92985021e-16 6.94315056,0 L9.55973079,0 C9.76683757,-1.49067201e-16 9.93473079,0.167893219 9.93473079,0.375 C9.93473079,0.441675356 9.9169538,0.507145072 9.8832314,0.564663789 Z" id="路径" fill="url(#linearGradient-28)"></path>
                                <path d="M134.75,14.5 C131.022073,14.5 128,11.4779271 128,7.75 C128,4.02207288 131.022073,1 134.75,1 L134.75,1 L149,1 C149.828427,1 150.5,1.67157288 150.5,2.5 C150.5,3.32842712 149.828427,4 149,4 L149,4 L134.75,4 C132.678927,4 131,5.67892712 131,7.75 C131,9.82107288 132.678927,11.5 134.75,11.5 L134.75,11.5 L137.75,11.5 L145.25,11.5 C148.977927,11.5 152,14.5220729 152,18.25 C152,21.9779271 148.977927,25 145.25,25 L145.25,25 L131,25 C130.171573,25 129.5,24.3284271 129.5,23.5 C129.5,22.6715729 130.171573,22 131,22 L131,22 L145.25,22 C147.321073,22 149,20.3210729 149,18.25 C149,16.1789271 147.321073,14.5 145.25,14.5 L145.25,14.5 L137.75,14.5 Z" id="形状结合备份" fill="url(#linearGradient-29)" opacity="0.97"></path>
                            </g>
                        </g>
                        <g id="编组-2" stroke="none" stroke-width="1" fill="none" fill-rule="evenodd" mask="url(#mask-18)">
                            <g transform="translate(11.000000, 106.000000)">
                                <g id="Rectangle" fill="none">
                                    <use fill="black" fill-opacity="1" filter="url(#filter-31)" xlink:href="#path-30"></use>
                                    <use fill-opacity="0.257648601" fill="#D2D2D2" fill-rule="evenodd" xlink:href="#path-30"></use>
                                </g>
                                <ellipse id="Oval" fill="#2876E8" fill-rule="evenodd" cx="9.9" cy="10" rx="5.5" ry="5.55555556"></ellipse>
                                <rect id="Rectangle" fill="#11B46F" fill-rule="evenodd" x="22" y="4.44444444" width="11" height="11.1111111" rx="1.25"></rect>
                                <rect id="Rectangle" fill="#11B46F" fill-rule="evenodd" x="97" y="4.44444444" width="11" height="11.1111111" rx="1.25"></rect>
                                <rect id="Rectangle" fill-opacity="0.352218094" fill="#21CBFF" fill-rule="evenodd" x="178.2" y="4.44444444" width="11" height="11.1111111" rx="1.25"></rect>
                                <rect id="Rectangle" fill="#13DA86" fill-rule="evenodd" x="82" y="4.44444444" width="11" height="11.1111111" rx="1.25"></rect>
                                <rect id="Rectangle" fill-opacity="0.352218094" fill="#5A00FF" fill-rule="evenodd" x="162.8" y="4.44444444" width="11" height="11.1111111" rx="1.25"></rect>
                                <rect id="Rectangle" fill="#FF8458" fill-rule="evenodd" x="36" y="4.44444444" width="11" height="11.1111111" rx="1.25"></rect>
                                <rect id="Rectangle备份" fill="#AA93FF" fill-rule="evenodd" x="51" y="4.44444444" width="11" height="11.1111111" rx="1.25"></rect>
                                <rect id="Rectangle备份-2" fill="#32C5FF" fill-rule="evenodd" x="66" y="4.44444444" width="11" height="11.1111111" rx="1.25"></rect>
                                <rect id="Rectangle" fill="#E04A4A" fill-rule="evenodd" x="112" y="4.44444444" width="11" height="11.1111111" rx="1.25"></rect>
                                <rect id="Rectangle" fill-opacity="0.352218094" fill="#000000" fill-rule="evenodd" x="193.6" y="4.44444444" width="11" height="11.1111111" rx="1.25"></rect>
                            </g>
                        </g>
                    </g>
                </g>
            </g>
            <g id="编组-65" transform="translate(234.790074, 194.000000)">
                <mask id="mask-33" fill="white">
                    <use xlink:href="#path-32"></use>
                </mask>
                <use id="路径-25" fill="#18A56A" xlink:href="#path-32"></use>
                <path d="M35.857316,23.391383 C27.1096321,27.6918645 19.6415115,29.8421053 13.4529542,29.8421053 C7.26439697,29.8421053 4.99466738,32.1132798 6.64376544,36.655629 L20.9903043,41.7934446 L38.9511967,36.1283628 L35.857316,23.391383 Z" id="路径-28" fill="#1B9265" mask="url(#mask-33)"></path>
                <path d="M4.17011834,36.655629 C15.4179509,15.3020242 25.6945782,5.41868941 35,7.00562467 C31.5250086,9.09626794 23.7160607,5.52939038 6.64376544,36.655629 C5.70866691,37.2679246 4.88411788,37.2679246 4.17011834,36.655629 Z" id="路径-26" fill="#217460" mask="url(#mask-33)"></path>
                <path d="M53,1.25160546 C50.4489886,2.26207458 48.2290773,4.12519205 46.3402661,6.84095787 C43.5070493,10.9146066 31.8427904,32.1835189 24.2754068,33.8716338 C16.7080231,35.5597487 8.44629492,36.1634561 6.03348832,36.1634561 C4.4249506,36.1634561 6.38929266,38.6584025 11.9265145,43.6482954 C39.0180854,42.1500866 52.6365591,41.0109193 52.7819354,40.2307934 C52.9273118,39.4506674 54.004987,29.6786051 56.014961,10.9146066 L53,1.25160546 Z" id="路径-27" fill="#53D297" mask="url(#mask-33)"></path>
            </g>
            <g id="编组" transform="translate(0.000000, 140.000000)">
                <mask id="mask-35" fill="white">
                    <use xlink:href="#path-34"></use>
                </mask>
                <use id="路径-22" fill="#90D39F" xlink:href="#path-34"></use>
                <path d="M4.11379619,-3 C2.64469587,8 18.203455,20.6666667 50.7900736,35 C83.3766922,49.3333333 89.8766922,94.0009143 70.2900736,169.002743 C35.9818614,123.667581 9.61774894,88 -8.80226387,62 C-27.2222767,36 -22.9169233,14.3333333 4.11379619,-3 Z" id="路径-23" fill="#42C98D" mask="url(#mask-35)"></path>
                <circle id="椭圆形" fill="#D8316C" cx="21.7900736" cy="54" r="3"></circle>
                <circle id="椭圆形备份-22" fill="#D8316C" cx="11.7900736" cy="26" r="3"></circle>
            </g>
            <g id="编组-67" transform="translate(42.931847, 193.000000)">
                <path d="M0.858226929,2.25160546 C-0.149712349,7.08924572 1.48716301,12.1070768 5.76885302,17.3050987 C10.050543,22.5031207 13.2149705,25.2006064 15.2621356,25.3975561 L22.6378422,24.391383 L16.7675384,27.9013566 C22.9199319,36.8489488 32.5055095,40.1003729 45.5242711,37.655629 C42.8709087,33.3749796 39.9339467,29.920298 36.7133853,27.2915844 L21.4114814,15.8751357 L0.858226929,2.25160546 Z" id="路径-31" fill="#1F946D"></path>
                <mask id="mask-37" fill="white">
                    <use xlink:href="#path-36"></use>
                </mask>
                <use id="路径-20" fill="#5EDAA3" xlink:href="#path-36"></use>
                <path d="M45.5242711,37.655629 C34.9243507,16.4219595 20.0483461,4.50427064 0.89625726,1.90256239 C-18.2558315,-0.699145871 -20.1018416,1.17280528 -4.64177307,7.51841585 L16.7473844,37.655629 L37.8360256,46.182167 L45.5242711,37.655629 Z" id="路径-21" fill="#20AC6C" mask="url(#mask-37)"></path>
                <path d="M0.89625726,1.90256239 C6.06534885,13.1589162 11.483228,20.059298 17.1498947,22.6037079 C20.3457069,22.2922976 23.7074089,22.1900824 27.2350008,22.2970623 L20.2502562,28.5683064 C24.884981,32.7104662 33.3096526,35.7395738 45.5242711,37.655629 C57.7388896,39.5716842 58.4327422,40.9637938 47.6058289,41.8319577 L17.1498947,36.7111478 L11.7205111,27.9914364 L3.61252584,14.856753 L-1.96620721,3.17818692 L0.89625726,1.90256239 Z" id="路径-24" fill="#46D590" mask="url(#mask-37)"></path>
            </g>
            <g id="放大镜" filter="url(#filter-38)" transform="translate(216.252559, 207.982107) rotate(-39.000000) translate(-216.252559, -207.982107) translate(189.252559, 164.482107)">
                <rect id="矩形" fill="url(#linearGradient-39)" x="20.7988181" y="48.5746392" width="8" height="11"></rect>
                <rect id="矩形" fill="url(#linearGradient-40)" x="19.4809188" y="54.711488" width="12" height="32" rx="2"></rect>
                <g id="编组-61" opacity="0.533249628" transform="translate(25.627772, 26.844727) rotate(60.000000) translate(-25.627772, -26.844727) translate(6.627772, 8.344727)">
                    <mask id="mask-43" fill="white">
                        <use xlink:href="#path-42"></use>
                    </mask>
                    <use id="椭圆形备份-17" stroke="#979797" fill="url(#radialGradient-41)" fill-rule="nonzero" xlink:href="#path-42"></use>
                    <path d="M8.44893998,1.61854224 C8.24792542,1.28365652 8.38846693,1.72256106 8.17105798,2.04458169 C3.35922801,9.17174442 5.20117075,18.614125 11.9957737,23.9166512 C18.7903767,29.2191774 28.488268,28.318035 34.2956928,22.0913049 C30.778648,21.0899642 27.4764437,19.6430802 24.4191315,17.8197971 C17.8757833,13.9175539 12.4541826,8.29118462 8.44893998,1.61854224 Z" id="路径" fill="url(#radialGradient-44)" fill-rule="nonzero" style="mix-blend-mode: lighten;" mask="url(#mask-43)" transform="translate(19.885168, 14.443122) rotate(168.000000) translate(-19.885168, -14.443122) "></path>
                    <ellipse id="椭圆形" fill="#FFFFFF" mask="url(#mask-43)" cx="22.4338952" cy="9.72843787" rx="1" ry="1"></ellipse>
                    <path d="M22.7586163,5.35592205 C21.9134159,4.6692332 21.9037289,4.10220363 23.4968867,3.48978968 C25.0900445,2.87737573 31.4722569,6.54542537 31.4898025,9.98361569 C24.2344867,3.20625435 23.6038167,6.0426109 22.7586163,5.35592205 Z" id="路径-3" mask="url(#mask-43)"></path>
                </g>
                <g id="编组-64" transform="translate(1.831490, 0.181718)">
                    <g id="椭圆形">
                        <use fill="black" fill-opacity="1" filter="url(#filter-47)" xlink:href="#path-46"></use>
                        <circle stroke="url(#linearGradient-45)" stroke-width="9" stroke-linejoin="square" cx="25.5059022" cy="25.8985486" r="21"></circle>
                    </g>
                    <circle id="椭圆形备份-22" stroke="#7A7A7A" cx="25.579815" cy="25.6017818" r="16.5"></circle>
                    <circle id="椭圆形" fill="#FFFFFF" cx="35.3140483" cy="19.9110368" r="1"></circle>
                    <circle id="椭圆形备份-23" fill="#FFFFFF" cx="38.6443705" cy="24.5380179" r="1.5"></circle>
                </g>
            </g>
            <g id="形状结合">
                <use fill="black" fill-opacity="1" filter="url(#filter-49)" xlink:href="#path-48"></use>
                <use fill="#0084FF" fill-rule="evenodd" xlink:href="#path-48"></use>
            </g>
        </g>
    </g>
</svg>