<?xml version="1.0" encoding="UTF-8"?>
<svg width="22px" height="22px" viewBox="0 0 22 22" version="1.1" xmlns="http://www.w3.org/2000/svg" xmlns:xlink="http://www.w3.org/1999/xlink">
    <title>icon/cancel</title>
    <g id="icon/cancel" stroke="none" stroke-width="1" fill="none" fill-rule="evenodd">
        <g id="编组-48" fill="#000000">
            <circle id="形状结合" fill-opacity="0.05" cx="11" cy="11" r="11"></circle>
            <path d="M14.9949747,7.50502525 C15.2410051,7.75105556 15.2656081,8.13466313 15.0687838,8.40820889 L14.9949747,8.49497475 L11.989,11.5 L14.9949747,14.5050253 L15.0687838,14.5917911 C15.2656081,14.8653369 15.2410051,15.2489444 14.9949747,15.4949747 C14.7216077,15.7683418 14.2783923,15.7683418 14.0050253,15.4949747 L14.0050253,15.4949747 L11,12.489 L7.99497475,15.4949747 C7.72160774,15.7683418 7.27839226,15.7683418 7.00502525,15.4949747 C6.75899495,15.2489444 6.73439192,14.8653369 6.93121616,14.5917911 L7.00502525,14.5050253 L10.011,11.5 L7.00502525,8.49497475 L6.93121616,8.40820889 C6.73439192,8.13466313 6.75899495,7.75105556 7.00502525,7.50502525 C7.27839226,7.23165825 7.72160774,7.23165825 7.99497475,7.50502525 L7.99497475,7.50502525 L11,10.511 L14.0050253,7.50502525 C14.2783923,7.23165825 14.7216077,7.23165825 14.9949747,7.50502525 Z" id="形状结合" fill-opacity="0.7" fill-rule="nonzero"></path>
        </g>
    </g>
</svg>