<?xml version="1.0" encoding="UTF-8"?>
<svg width="190px" height="146px" viewBox="0 0 190 146" version="1.1" xmlns="http://www.w3.org/2000/svg" xmlns:xlink="http://www.w3.org/1999/xlink">
    <title>Illustration/Health_repair_in_progress </title>
    <defs>
        <linearGradient x1="22.9756376%" y1="4.26765812%" x2="94.7788354%" y2="100%" id="linearGradient-1">
            <stop stop-color="#CCB7FF" offset="0%"></stop>
            <stop stop-color="#7062FF" offset="100%"></stop>
        </linearGradient>
        <path d="M36.4125492,25.0478688 C37.1362549,23.0274698 37.5025294,20.9155462 37.5025294,18.7512069 C37.5025294,8.41203794 29.0913704,1.00186526e-12 18.7513225,1.00186526e-12 C16.1772244,1.00186526e-12 13.6728574,0.518872638 11.3097597,1.54170969 L10.1918284,2.02566983 C10.1900426,2.02745565 10.1987931,2.02825926 10.1953108,2.03004513 C10.0889643,2.07629813 9.98949377,2.1434453 9.90234536,2.23059371 C9.53258915,2.60115368 9.53258915,3.2036911 9.90413117,3.57523454 C9.9093994,3.58050276 9.89886295,3.5830922 9.90234536,3.58827111 L20.4010465,14.0869722 L14.0860728,20.4010669 L3.79837214,10.1125361 C3.78265683,10.114322 3.76694152,10.1151256 3.74604735,10.0942314 C3.3100367,9.65822076 2.6037394,9.65822076 2.16772876,10.0942314 C2.04914953,10.2137033 1.96191175,10.3523732 1.90789056,10.500597 C1.90262234,10.5145265 1.89565761,10.5075617 1.88869289,10.5084546 L1.54161691,11.3106519 C0.519766253,13.6710737 5.41433565e-12,16.1754357 5.41433565e-12,18.7513358 C5.41433565e-12,29.0895769 8.41115897,37.5025426 18.7512069,37.5025426 C20.9137589,37.5025426 23.0256826,37.1362686 25.0486501,36.4125624 L41.2365525,52.5987557 C42.7538856,54.115996 44.7716916,54.9531077 46.9185248,54.9531077 C49.0653615,54.9531077 51.0849547,54.1160009 52.6021852,52.5987557 C55.7325658,49.466588 55.7325658,44.3689565 52.6003994,41.2349576 L36.4125492,25.0478688 Z" id="path-2"></path>
        <filter x="-6.4%" y="-6.4%" width="112.7%" height="112.7%" filterUnits="objectBoundingBox" id="filter-3">
            <feGaussianBlur stdDeviation="2" in="SourceAlpha" result="shadowBlurInner1"></feGaussianBlur>
            <feOffset dx="1" dy="1" in="shadowBlurInner1" result="shadowOffsetInner1"></feOffset>
            <feComposite in="shadowOffsetInner1" in2="SourceAlpha" operator="arithmetic" k2="-1" k3="1" result="shadowInnerInner1"></feComposite>
            <feColorMatrix values="0 0 0 0 0.980289576   0 0 0 0 1   0 0 0 0 0.920105278  0 0 0 0.88263665 0" type="matrix" in="shadowInnerInner1" result="shadowMatrixInner1"></feColorMatrix>
            <feGaussianBlur stdDeviation="2.5" in="SourceAlpha" result="shadowBlurInner2"></feGaussianBlur>
            <feOffset dx="0" dy="-2" in="shadowBlurInner2" result="shadowOffsetInner2"></feOffset>
            <feComposite in="shadowOffsetInner2" in2="SourceAlpha" operator="arithmetic" k2="-1" k3="1" result="shadowInnerInner2"></feComposite>
            <feColorMatrix values="0 0 0 0 0   0 0 0 0 0.27220826   0 0 0 0 1  0 0 0 0.348048924 0" type="matrix" in="shadowInnerInner2" result="shadowMatrixInner2"></feColorMatrix>
            <feMerge>
                <feMergeNode in="shadowMatrixInner1"></feMergeNode>
                <feMergeNode in="shadowMatrixInner2"></feMergeNode>
            </feMerge>
        </filter>
        <linearGradient x1="26.0645846%" y1="11.71875%" x2="75.9842416%" y2="88.28125%" id="linearGradient-4">
            <stop stop-color="#FFF854" offset="0%"></stop>
            <stop stop-color="#FFC154" offset="100%"></stop>
        </linearGradient>
        <path d="M23.3139382,14.3816237 L19.9148473,8.56812372 L19.9148473,8.56812373 C19.7010305,8.20139893 19.3043954,7.97514307 18.8748535,7.97487373 L12.0748939,7.97487373 L12.0748939,7.97487373 C11.6453521,7.97514352 11.2487169,8.20139893 11.0349001,8.56812373 L7.63580923,14.3816237 L7.63580924,14.3816237 C7.42122857,14.74892 7.42122857,15.2008274 7.63580923,15.5681237 L11.0349001,21.3816237 C11.25001,21.7491237 11.646452,21.9748737 12.0748939,21.9748737 L18.8748535,21.9748737 L18.8748535,21.9748737 C19.3043954,21.9746039 19.7010306,21.7483485 19.9148473,21.3816237 L23.3139382,15.5681237 L23.3139382,15.5681238 C23.5285189,15.2008275 23.5285189,14.7489201 23.3139383,14.3816238 L23.3139382,14.3816237 Z" id="path-5"></path>
        <filter x="-37.5%" y="-57.1%" width="212.5%" height="228.6%" filterUnits="objectBoundingBox" id="filter-6">
            <feOffset dx="3" dy="1" in="SourceAlpha" result="shadowOffsetOuter1"></feOffset>
            <feGaussianBlur stdDeviation="2.5" in="shadowOffsetOuter1" result="shadowBlurOuter1"></feGaussianBlur>
            <feColorMatrix values="0 0 0 0 1   0 0 0 0 0.308446924   0 0 0 0 0  0 0 0 0.462118936 0" type="matrix" in="shadowBlurOuter1"></feColorMatrix>
        </filter>
        <filter x="-18.8%" y="-35.7%" width="175.0%" height="185.7%" filterUnits="objectBoundingBox" id="filter-7">
            <feGaussianBlur stdDeviation="0.5" in="SourceAlpha" result="shadowBlurInner1"></feGaussianBlur>
            <feOffset dx="1" dy="1" in="shadowBlurInner1" result="shadowOffsetInner1"></feOffset>
            <feComposite in="shadowOffsetInner1" in2="SourceAlpha" operator="arithmetic" k2="-1" k3="1" result="shadowInnerInner1"></feComposite>
            <feColorMatrix values="0 0 0 0 1   0 0 0 0 0.980767162   0 0 0 0 0.924420613  0 0 0 0.833525117 0" type="matrix" in="shadowInnerInner1" result="shadowMatrixInner1"></feColorMatrix>
            <feGaussianBlur stdDeviation="0.5" in="SourceAlpha" result="shadowBlurInner2"></feGaussianBlur>
            <feOffset dx="-1" dy="0" in="shadowBlurInner2" result="shadowOffsetInner2"></feOffset>
            <feComposite in="shadowOffsetInner2" in2="SourceAlpha" operator="arithmetic" k2="-1" k3="1" result="shadowInnerInner2"></feComposite>
            <feColorMatrix values="0 0 0 0 1   0 0 0 0 0.476824197   0 0 0 0 0.186103039  0 0 0 0.5 0" type="matrix" in="shadowInnerInner2" result="shadowMatrixInner2"></feColorMatrix>
            <feMerge>
                <feMergeNode in="shadowMatrixInner1"></feMergeNode>
                <feMergeNode in="shadowMatrixInner2"></feMergeNode>
            </feMerge>
        </filter>
        <linearGradient x1="22.9723323%" y1="4.26765812%" x2="94.7843122%" y2="100%" id="linearGradient-8">
            <stop stop-color="#71A0FF" offset="0%"></stop>
            <stop stop-color="#3252FF" offset="100%"></stop>
        </linearGradient>
        <path d="M10.9259519,1.03615617e-06 L10.9259519,1.03615617e-06 C11.2731613,0.00203564613 11.5685721,0.25355773 11.6259488,0.596001161 L11.9439474,2.45600155 C12.6499442,2.63600159 13.3279412,2.91600165 13.9559306,3.28800172 L15.4899238,2.19000149 L15.4899238,2.19000148 C15.772235,1.99370847 16.1525595,2.01773778 16.4079197,2.2480015 L17.0679168,2.90600163 L17.7299138,3.56600177 C17.9779127,3.81200182 18.0099126,4.2040019 17.8099135,4.48800196 L16.7139184,6.02000228 C17.0879167,6.64800242 17.3679154,7.32600256 17.5499146,8.03400661 L19.4099064,8.34800668 L19.4099064,8.34800668 C19.7547291,8.40539575 20.0056361,8.70648527 20,9.05600683 L19.9939038,9.99400702 L19.9939038,10.9240072 L19.9939038,10.924007 C19.9921924,11.2710364 19.7418658,11.5668802 19.3999064,11.6260071 L17.5399147,11.9440072 L17.5399147,11.9440074 C17.3599074,12.6505895 17.0804519,13.3280213 16.7099184,13.956 L17.8099135,15.4920003 C18.0099126,15.7760004 17.9759127,16.1680004 17.7299138,16.4140005 L17.0699167,17.0740006 L16.4099197,17.7340008 L16.4099197,17.7340008 C16.1644716,17.9828914 15.7746491,18.0167879 15.4899238,17.8140008 L13.9559306,16.7180006 C13.3419333,17.0780006 12.6839363,17.3520007 11.9959393,17.5320007 L11.6819407,19.4040011 L11.6819408,19.4040009 C11.626094,19.7473096 11.3297646,19.9996143 10.9819439,20.000001 L9.12195217,20.000001 L9.12195221,20.000001 C8.77443813,19.9987868 8.47857031,19.746876 8.42195533,19.4040009 L8.11195671,17.5600005 L8.11195617,17.5600004 C7.4065101,17.3812982 6.72935491,17.1053187 6.09997294,16.7400002 L4.54797985,17.8400004 L4.54797981,17.8400005 C4.26281116,18.0399302 3.87542421,18.0070861 3.62798391,17.7620005 L2.30798978,16.4400002 L2.30798975,16.4400002 C2.05929359,16.1928478 2.02547148,15.8022188 2.22799011,15.516 L3.30998529,13.9919996 L3.30998535,13.9919997 C2.93607491,13.3683024 2.65194727,12.6950131 2.46598911,11.9919993 L0.595997438,11.6759993 L0.595997372,11.6759993 C0.252813353,11.6184932 0.00106447419,11.3219679 1.24344979e-14,10.9739991 L1.24344979e-14,9.11399872 L1.24344979e-14,9.11400349 C0.00187893304,8.7663374 0.253239107,8.47026507 0.59599344,8.41199944 L2.44398521,8.11799937 C2.62398441,7.42799923 2.88998323,6.74399909 3.26398156,6.10600677 L2.16398646,4.55600644 L2.16398642,4.55600639 C1.9626299,4.26980321 1.99550045,3.88040469 2.24198608,3.6320062 L2.90198314,2.97200606 L3.55598022,2.32000592 L3.55598026,2.32000589 C3.80118229,2.07011717 4.19220594,2.03696481 4.47597616,2.24200587 L5.99997328,3.3260061 L5.99997343,3.32600601 C6.63545888,2.933711 7.32756713,2.64162305 8.05195648,2.46000583 L8.36395509,0.596005437 L8.36395507,0.596005574 C8.41992318,0.251948862 8.71737537,-0.000590253489 9.0659539,1.03615617e-06 L10.9259519,1.03615617e-06 Z M12.8268962,7.16867784 L12.8268962,7.1686778 C11.2628084,5.60810263 8.7296043,5.61078786 7.16882514,7.17467713 C5.60805184,8.73856638 5.61073741,11.2714489 7.17482522,12.8320299 C7.17482522,12.8320299 7.17482522,12.8320299 7.17482522,12.8320299 L7.17482517,12.8320299 C8.73891296,14.3920544 11.2716678,14.38892 12.8318806,12.8250308 C14.3921031,11.2611416 14.3889683,8.72870819 12.8248806,7.16869349 C12.8248806,7.16869349 12.8248806,7.16869349 12.8248806,7.16869349 L12.8268962,7.16867784 Z" id="path-9"></path>
        <filter x="-7.5%" y="-7.5%" width="115.0%" height="115.0%" filterUnits="objectBoundingBox" id="filter-10">
            <feGaussianBlur stdDeviation="0.5" in="SourceAlpha" result="shadowBlurInner1"></feGaussianBlur>
            <feOffset dx="0" dy="1" in="shadowBlurInner1" result="shadowOffsetInner1"></feOffset>
            <feComposite in="shadowOffsetInner1" in2="SourceAlpha" operator="arithmetic" k2="-1" k3="1" result="shadowInnerInner1"></feComposite>
            <feColorMatrix values="0 0 0 0 1   0 0 0 0 1   0 0 0 0 1  0 0 0 0.195344938 0" type="matrix" in="shadowInnerInner1" result="shadowMatrixInner1"></feColorMatrix>
            <feGaussianBlur stdDeviation="0.5" in="SourceAlpha" result="shadowBlurInner2"></feGaussianBlur>
            <feOffset dx="0" dy="-2" in="shadowBlurInner2" result="shadowOffsetInner2"></feOffset>
            <feComposite in="shadowOffsetInner2" in2="SourceAlpha" operator="arithmetic" k2="-1" k3="1" result="shadowInnerInner2"></feComposite>
            <feColorMatrix values="0 0 0 0 0   0 0 0 0 0.119382345   0 0 0 0 0.438569884  0 0 0 0.348048924 0" type="matrix" in="shadowInnerInner2" result="shadowMatrixInner2"></feColorMatrix>
            <feMerge>
                <feMergeNode in="shadowMatrixInner1"></feMergeNode>
                <feMergeNode in="shadowMatrixInner2"></feMergeNode>
            </feMerge>
        </filter>
        <linearGradient x1="28.8101059%" y1="6.54742532%" x2="72.818297%" y2="100%" id="linearGradient-11">
            <stop stop-color="#FFDA54" offset="0%"></stop>
            <stop stop-color="#FFA954" offset="100%"></stop>
        </linearGradient>
        <path d="M15.2962615,1.45061941e-06 L15.2962615,1.45061941e-06 C15.7823524,0.00284990429 16.1959256,0.354980785 16.2762526,0.834401539 L16.7214485,3.43840181 C17.7098395,3.69040184 18.6590309,4.08240188 19.5382119,4.60320194 L21.6857924,3.06600177 L21.6857924,3.06600176 C22.0810263,2.79119157 22.6134781,2.82483259 22.9709807,3.14720177 L23.8949723,4.06840187 L24.8217638,4.99240196 C25.1689607,5.336802 25.2137603,5.88560206 24.9337628,6.2832021 L23.3993768,8.42800232 C23.922972,9.30720242 24.3149685,10.2564025 24.5697661,11.2476081 L27.1737424,11.6872081 L27.1737424,11.6872081 C27.656492,11.7675528 28.0077602,12.1890781 27.9998697,12.6784082 L27.991335,13.9916084 L27.991335,15.2936085 L27.991335,15.2936082 C27.9889391,15.7794493 27.6384835,16.1936306 27.1597426,16.2764083 L24.5557663,16.7216084 L24.5557662,16.7216086 C24.3037573,17.7108235 23.9125213,18.6592279 23.3937768,19.5383979 L24.9337628,21.6887982 C25.2137602,22.0863982 25.1661607,22.6351983 24.8217638,22.9795983 L23.8977722,23.9035984 L22.9737806,24.8275985 L22.9737806,24.8275985 C22.6301549,25.1760454 22.0844059,25.2235005 21.6857924,24.9395985 L19.5382119,23.4051983 C18.6786198,23.9091984 17.7574281,24.2927984 16.7942369,24.5447985 L16.3546409,27.1655987 L16.354641,27.1655985 C16.2764558,27.6462305 15.8615966,27.9994571 15.3746499,28.0000015 L12.7706736,28.0000015 L12.7706737,28.0000015 C12.2841562,27.9982987 11.8699432,27.6456235 11.7906826,27.1655985 L11.3566865,24.5839982 L11.3566858,24.583998 C10.3690659,24.333815 9.42105302,23.9474436 8.53992238,23.4359979 L6.36714216,24.975998 L6.3671421,24.9759981 C5.96790785,25.2558997 5.42556864,25.2099179 5.07915383,24.8667981 L3.23117066,23.0159979 L3.23117062,23.0159978 C2.88299761,22.6699845 2.83564687,22.123104 3.11917164,21.7223977 L4.63395784,19.5887975 L4.63395793,19.5887976 C4.11048574,18.7156214 3.7127089,17.7730166 3.45236869,16.7887973 L0.83439253,16.3463973 L0.834392438,16.3463973 C0.353937047,16.2658888 0.00149025692,15.8507535 0,15.3635972 L0,12.7595969 L0,12.7596036 C0.00263049401,12.2728711 0.3545331,11.8583699 0.834386933,11.776798 L3.42156337,11.3651979 C3.67356108,10.3991978 4.04595769,9.44159774 4.56955292,8.54840859 L3.02956694,6.37840836 L3.02956689,6.37840829 C2.74766907,5.97772387 2.79368763,5.432566 3.1387659,5.08480815 L4.06275748,4.16080805 L4.97834914,3.24800796 L4.97834919,3.24800791 C5.32163044,2.89816373 5.869061,2.85175045 6.26633746,3.1388079 L8.3999235,4.65640806 L8.39992371,4.65640793 C9.2895992,4.10719498 10.2585462,3.69827189 11.2726866,3.4440078 L11.7094826,0.834407525 L11.7094826,0.834407718 C11.7878376,0.35272837 12.2042687,-0.000826354798 12.6922764,1.45061941e-06 L15.2962615,1.45061941e-06 Z M17.9562372,10.0352134 L17.9562372,10.0352134 C15.7665587,7.85015497 12.2201449,7.85391473 10.0350984,10.0436134 C7.85006008,12.2333121 7.85381982,15.7797586 10.0434983,17.9648252 C10.0434983,17.9648252 10.0434983,17.9648252 10.0434983,17.9648252 L10.0434983,17.9648251 C12.2331768,20.1491125 15.7789617,20.1447238 17.9632152,17.9550253 C20.1474824,15.7653266 20.1430938,12.219509 17.9534154,10.0352354 C17.9534154,10.0352354 17.9534154,10.0352354 17.9534154,10.0352354 L17.9562372,10.0352134 Z" id="path-12"></path>
        <filter x="-21.4%" y="-28.6%" width="164.3%" height="164.3%" filterUnits="objectBoundingBox" id="filter-13">
            <feOffset dx="3" dy="1" in="SourceAlpha" result="shadowOffsetOuter1"></feOffset>
            <feGaussianBlur stdDeviation="2.5" in="shadowOffsetOuter1" result="shadowBlurOuter1"></feGaussianBlur>
            <feColorMatrix values="0 0 0 0 1   0 0 0 0 0.308446924   0 0 0 0 0  0 0 0 0.0505797913 0" type="matrix" in="shadowBlurOuter1"></feColorMatrix>
        </filter>
        <filter x="-10.7%" y="-17.9%" width="142.9%" height="142.9%" filterUnits="objectBoundingBox" id="filter-14">
            <feGaussianBlur stdDeviation="0.5" in="SourceAlpha" result="shadowBlurInner1"></feGaussianBlur>
            <feOffset dx="1" dy="1" in="shadowBlurInner1" result="shadowOffsetInner1"></feOffset>
            <feComposite in="shadowOffsetInner1" in2="SourceAlpha" operator="arithmetic" k2="-1" k3="1" result="shadowInnerInner1"></feComposite>
            <feColorMatrix values="0 0 0 0 1   0 0 0 0 0.980767162   0 0 0 0 0.924420613  0 0 0 0.833525117 0" type="matrix" in="shadowInnerInner1" result="shadowMatrixInner1"></feColorMatrix>
            <feGaussianBlur stdDeviation="0.5" in="SourceAlpha" result="shadowBlurInner2"></feGaussianBlur>
            <feOffset dx="-1" dy="0" in="shadowBlurInner2" result="shadowOffsetInner2"></feOffset>
            <feComposite in="shadowOffsetInner2" in2="SourceAlpha" operator="arithmetic" k2="-1" k3="1" result="shadowInnerInner2"></feComposite>
            <feColorMatrix values="0 0 0 0 1   0 0 0 0 0.476824197   0 0 0 0 0.186103039  0 0 0 0.5 0" type="matrix" in="shadowInnerInner2" result="shadowMatrixInner2"></feColorMatrix>
            <feMerge>
                <feMergeNode in="shadowMatrixInner1"></feMergeNode>
                <feMergeNode in="shadowMatrixInner2"></feMergeNode>
            </feMerge>
        </filter>
        <linearGradient x1="0%" y1="50%" x2="100%" y2="50%" id="linearGradient-15">
            <stop stop-color="#FF8955" offset="0%"></stop>
            <stop stop-color="#FF1925" offset="100%"></stop>
        </linearGradient>
        <linearGradient x1="50%" y1="1.79026897%" x2="50%" y2="88.721488%" id="linearGradient-16">
            <stop stop-color="#FFF854" offset="0%"></stop>
            <stop stop-color="#FFBB6A" offset="100%"></stop>
        </linearGradient>
        <path d="M31.8188663,51 L31.8188663,37.0838084 L23.7562372,37.0838084 C23.2039525,37.0838084 22.7562372,36.6360932 22.7562372,36.0838084 C22.7562372,35.9042118 22.8046043,35.7279296 22.8962576,35.5734801 L35.1049521,15 L35.1049521,15 L35.1049521,29.7724723 L43.201951,29.7724723 C43.7542358,29.7724723 44.201951,30.2201875 44.201951,30.7724723 C44.201951,30.9588992 44.1498377,31.1416143 44.0514938,31.2999919 L31.8188663,51 L31.8188663,51 Z" id="path-17"></path>
        <filter x="-31.5%" y="-11.1%" width="162.8%" height="144.4%" filterUnits="objectBoundingBox" id="filter-18">
            <feOffset dx="0" dy="4" in="SourceAlpha" result="shadowOffsetOuter1"></feOffset>
            <feGaussianBlur stdDeviation="2" in="shadowOffsetOuter1" result="shadowBlurOuter1"></feGaussianBlur>
            <feColorMatrix values="0 0 0 0 1   0 0 0 0 0.308446924   0 0 0 0 0  0 0 0 0.377232265 0" type="matrix" in="shadowBlurOuter1"></feColorMatrix>
        </filter>
        <filter x="-22.8%" y="-5.6%" width="145.4%" height="133.3%" filterUnits="objectBoundingBox" id="filter-19">
            <feGaussianBlur stdDeviation="1.5" in="SourceAlpha" result="shadowBlurInner1"></feGaussianBlur>
            <feOffset dx="1" dy="1" in="shadowBlurInner1" result="shadowOffsetInner1"></feOffset>
            <feComposite in="shadowOffsetInner1" in2="SourceAlpha" operator="arithmetic" k2="-1" k3="1" result="shadowInnerInner1"></feComposite>
            <feColorMatrix values="0 0 0 0 1   0 0 0 0 0.980767162   0 0 0 0 0.924420613  0 0 0 0.5 0" type="matrix" in="shadowInnerInner1"></feColorMatrix>
        </filter>
        <linearGradient x1="50%" y1="100%" x2="50%" y2="-3.52209751e-13%" id="linearGradient-20">
            <stop stop-color="#FF1925" offset="0%"></stop>
            <stop stop-color="#FF8955" offset="100%"></stop>
        </linearGradient>
    </defs>
    <g id="Illustration/Health_repair_in_progress-" stroke="none" stroke-width="1" fill="none" fill-rule="evenodd">
        <g id="编组-2" transform="translate(107.525126, 57.025126)">
            <g id="形状" fill-rule="nonzero" transform="translate(27.474874, 27.476554) rotate(-360.000000) translate(-27.474874, -27.476554) ">
                <use fill="url(#linearGradient-1)" xlink:href="#path-2"></use>
                <use fill="black" fill-opacity="1" filter="url(#filter-3)" xlink:href="#path-2"></use>
            </g>
            <g id="形状" transform="translate(15.474874, 14.974874) rotate(-330.000000) translate(-15.474874, -14.974874) ">
                <use fill="black" fill-opacity="1" filter="url(#filter-6)" xlink:href="#path-5"></use>
                <use fill="url(#linearGradient-4)" fill-rule="evenodd" xlink:href="#path-5"></use>
                <use fill="black" fill-opacity="1" filter="url(#filter-7)" xlink:href="#path-5"></use>
            </g>
        </g>
        <g id="螺丝" transform="translate(103.000000, 107.999999)" fill-rule="nonzero">
            <g id="形状">
                <use fill="url(#linearGradient-8)" xlink:href="#path-9"></use>
                <use fill="black" fill-opacity="1" filter="url(#filter-10)" xlink:href="#path-9"></use>
            </g>
        </g>
        <g id="形状" transform="translate(80.000000, 91.000000)">
            <use fill="black" fill-opacity="1" filter="url(#filter-13)" xlink:href="#path-12"></use>
            <use fill="url(#linearGradient-11)" fill-rule="evenodd" xlink:href="#path-12"></use>
            <use fill="black" fill-opacity="1" filter="url(#filter-14)" xlink:href="#path-12"></use>
        </g>
        <g id="编组" transform="translate(28.000000, 16.000000)">
            <path d="M33,0 C48.463973,-2.84068575e-15 61,12.536027 61,28 L61,66 L61,66 L5,66 L5,28 C5,12.536027 17.536027,2.84068575e-15 33,0 Z" id="矩形" fill="url(#linearGradient-15)"></path>
            <g id="路径">
                <use fill="black" fill-opacity="1" filter="url(#filter-18)" xlink:href="#path-17"></use>
                <use fill="url(#linearGradient-16)" fill-rule="evenodd" xlink:href="#path-17"></use>
                <use fill="black" fill-opacity="1" filter="url(#filter-19)" xlink:href="#path-17"></use>
            </g>
            <rect id="矩形" fill="url(#linearGradient-20)" x="0" y="62" width="66" height="7" rx="3.5"></rect>
        </g>
    </g>
</svg>