<?xml version="1.0" encoding="UTF-8"?>
<svg width="16px" height="16px" viewBox="0 0 16 16" version="1.1" xmlns="http://www.w3.org/2000/svg" xmlns:xlink="http://www.w3.org/1999/xlink">
    <title>应用垃圾</title>
    <g id="一期V6.0" stroke="none" stroke-width="1" fill="none" fill-rule="evenodd" fill-opacity="0.7">
        <g id="切图" transform="translate(-84.000000, -101.000000)" fill="#FFFFFF" fill-rule="nonzero">
            <g id="编组" transform="translate(84.000000, 63.000000)">
                <g id="应用垃圾" transform="translate(0.137258, 38.137258)">
                    <path d="M7.25685425,2.73137085 C7.88169312,3.35620972 7.88169312,4.36927368 7.25685425,4.99411255 L4.99411255,7.25685425 C4.36927368,7.88169312 3.35620972,7.88169312 2.73137085,7.25685425 L0.46862915,4.99411255 C-0.156209717,4.36927368 -0.156209717,3.35620972 0.46862915,2.73137085 L2.73137085,0.46862915 C3.35620972,-0.156209717 4.36927368,-0.156209717 4.99411255,0.46862915 L7.25685425,2.73137085 Z M6.69116882,3.29705627 L4.42842712,1.03431458 C4.11600769,0.721895142 3.60947571,0.721895142 3.29705627,1.03431458 L1.03431458,3.29705627 C0.721895142,3.60947571 0.721895142,4.11600769 1.03431458,4.42842712 L3.29705627,6.69116882 C3.60947571,7.00358826 4.11600769,7.00358826 4.42842712,6.69116882 L6.69116882,4.42842712 C7.00358826,4.11600769 7.00358826,3.60947571 6.69116882,3.29705627 Z M13.4627417,0.6627417 C14.3463973,0.6627417 15.0627417,1.3790861 15.0627417,2.2627417 L15.0627417,5.4627417 C15.0627417,6.3463973 14.3463973,7.0627417 13.4627417,7.0627417 L10.2627417,7.0627417 C9.3790861,7.0627417 8.6627417,6.3463973 8.6627417,5.4627417 L8.6627417,2.2627417 C8.6627417,1.3790861 9.3790861,0.6627417 10.2627417,0.6627417 L13.4627417,0.6627417 Z M13.4627417,1.4627417 L10.2627417,1.4627417 C9.8209139,1.4627417 9.4627417,1.8209139 9.4627417,2.2627417 L9.4627417,5.4627417 C9.4627417,5.9045695 9.8209139,6.2627417 10.2627417,6.2627417 L13.4627417,6.2627417 C13.9045695,6.2627417 14.2627417,5.9045695 14.2627417,5.4627417 L14.2627417,2.2627417 C14.2627417,1.8209139 13.9045695,1.4627417 13.4627417,1.4627417 Z M5.4627417,8.6627417 C6.3463973,8.6627417 7.0627417,9.3790861 7.0627417,10.2627417 L7.0627417,13.4627417 C7.0627417,14.3463973 6.3463973,15.0627417 5.4627417,15.0627417 L2.2627417,15.0627417 C1.3790861,15.0627417 0.6627417,14.3463973 0.6627417,13.4627417 L0.6627417,10.2627417 C0.6627417,9.3790861 1.3790861,8.6627417 2.2627417,8.6627417 L5.4627417,8.6627417 Z M5.4627417,9.4627417 L2.2627417,9.4627417 C1.8209139,9.4627417 1.4627417,9.8209139 1.4627417,10.2627417 L1.4627417,13.4627417 C1.4627417,13.9045695 1.8209139,14.2627417 2.2627417,14.2627417 L5.4627417,14.2627417 C5.9045695,14.2627417 6.2627417,13.9045695 6.2627417,13.4627417 L6.2627417,10.2627417 C6.2627417,9.8209139 5.9045695,9.4627417 5.4627417,9.4627417 Z M13.4627417,8.6627417 C14.3463973,8.6627417 15.0627417,9.3790861 15.0627417,10.2627417 L15.0627417,13.4627417 C15.0627417,14.3463973 14.3463973,15.0627417 13.4627417,15.0627417 L10.2627417,15.0627417 C9.3790861,15.0627417 8.6627417,14.3463973 8.6627417,13.4627417 L8.6627417,10.2627417 C8.6627417,9.3790861 9.3790861,8.6627417 10.2627417,8.6627417 L13.4627417,8.6627417 Z M13.4627417,9.4627417 L10.2627417,9.4627417 C9.8209139,9.4627417 9.4627417,9.8209139 9.4627417,10.2627417 L9.4627417,13.4627417 C9.4627417,13.9045695 9.8209139,14.2627417 10.2627417,14.2627417 L13.4627417,14.2627417 C13.9045695,14.2627417 14.2627417,13.9045695 14.2627417,13.4627417 L14.2627417,10.2627417 C14.2627417,9.8209139 13.9045695,9.4627417 13.4627417,9.4627417 Z" id="形状"></path>
                </g>
            </g>
        </g>
    </g>
</svg>