<?xml version="1.0" encoding="UTF-8"?>
<svg width="20px" height="20px" viewBox="0 0 20 20" version="1.1" xmlns="http://www.w3.org/2000/svg" xmlns:xlink="http://www.w3.org/1999/xlink">
    <title>icon/ok</title>
    <defs>
        <linearGradient x1="50%" y1="0%" x2="50%" y2="100%" id="linearGradient-1">
            <stop stop-color="#55C600" offset="0%"></stop>
            <stop stop-color="#00C3B6" offset="100%"></stop>
        </linearGradient>
        <circle id="path-2" cx="8" cy="8" r="8"></circle>
        <filter x="-25.0%" y="-12.5%" width="150.0%" height="150.0%" filterUnits="objectBoundingBox" id="filter-3">
            <feOffset dx="0" dy="2" in="SourceAlpha" result="shadowOffsetOuter1"></feOffset>
            <feGaussianBlur stdDeviation="1" in="shadowOffsetOuter1" result="shadowBlurOuter1"></feGaussianBlur>
            <feColorMatrix values="0 0 0 0 0   0 0 0 0 0.835294118   0 0 0 0 0.270588235  0 0 0 0.3 0" type="matrix" in="shadowBlurOuter1"></feColorMatrix>
        </filter>
    </defs>
    <g id="病毒查杀" stroke="none" stroke-width="1" fill="none" fill-rule="evenodd">
        <g id="病毒查杀_病毒库更新弹窗备份" transform="translate(-947.000000, -620.000000)">
            <g id="编组" transform="translate(68.000000, 47.000000)">
                <g id="编组-8" transform="translate(255.000000, 572.000000)">
                    <g id="编组-7" transform="translate(481.000000, 0.000000)">
                        <g id="ok" transform="translate(145.000000, 1.000000)">
                            <g id="Oval-127">
                                <use fill="black" fill-opacity="1" filter="url(#filter-3)" xlink:href="#path-2"></use>
                                <use fill="url(#linearGradient-1)" fill-rule="evenodd" xlink:href="#path-2"></use>
                            </g>
                            <path d="M10.001875,11.9154375 C10.2597812,11.9154375 10.4688594,12.1245 10.4688594,12.3824063 C10.4688594,12.636625 10.2657187,12.8434063 10.0129062,12.8492656 L10.0018906,12.8493906 L6.0961875,12.8493906 C5.83828125,12.8493906 5.62920312,12.6403281 5.62920312,12.3824063 C5.62920312,12.1281875 5.83234375,11.9214219 6.08515625,11.9155625 L6.0961875,11.9154375 L10.001875,11.9154375 Z M10.001875,10.4758281 C10.2597812,10.4758281 10.4688594,10.6849062 10.4688594,10.9428125 C10.4688594,11.1970312 10.2657187,11.4038125 10.0129062,11.4096562 L10.0018906,11.4097812 L6.0961875,11.4097812 C5.83828125,11.4097812 5.62920312,11.2007187 5.62920312,10.9428125 C5.62920312,10.6885937 5.83234375,10.4818125 6.08515625,10.4759531 L6.0961875,10.4758281 L10.001875,10.4758281 L10.001875,10.4758281 Z M7.72053125,3.23845312 C7.90026562,3.072625 8.17748437,3.07354687 8.35610937,3.2405625 L12.2207656,6.85409375 C12.5302031,7.14342187 12.3254531,7.66217187 11.9018281,7.66217187 L10.2907812,7.66217187 L10.2907812,9.50728125 C10.2907812,9.7615 10.0876562,9.96826562 9.83484375,9.974125 L9.8238125,9.97425 L6.2270625,9.97425 C5.96915625,9.97425 5.76007812,9.7651875 5.76007812,9.50728125 L5.76004687,7.66215625 L4.12048437,7.66215625 C3.69959375,7.66215625 3.49545312,7.15064062 3.79460937,6.8606875 L3.80382812,6.85196875 L7.72053125,3.23845312 Z M8.03503125,4.21895313 L5.31526562,6.72820313 L6.2270625,6.72820313 C6.48128125,6.72820313 6.6880625,6.93134375 6.69390625,7.18417188 L6.69403125,7.1951875 L6.694,9.04028125 L9.3568125,9.04028125 L9.35684375,7.1951875 C9.35684375,6.94096875 9.55996875,6.7341875 9.81278125,6.72834375 L9.8238125,6.72820313 L10.7186406,6.72820313 L8.035,4.21895313 L8.03503125,4.21895313 Z" id="形状" fill="#FFFFFF" fill-rule="nonzero"></path>
                        </g>
                    </g>
                </g>
            </g>
        </g>
    </g>
</svg>