<?xml version="1.0" encoding="UTF-8"?>
<svg width="190px" height="146px" viewBox="0 0 190 146" version="1.1" xmlns="http://www.w3.org/2000/svg" xmlns:xlink="http://www.w3.org/1999/xlink">
    <title>Illustration/abnormal </title>
    <defs>
        <filter x="-24.1%" y="-21.3%" width="148.2%" height="142.7%" filterUnits="objectBoundingBox" id="filter-1">
            <feOffset dx="0" dy="4" in="SourceAlpha" result="shadowOffsetOuter1"></feOffset>
            <feGaussianBlur stdDeviation="3.5" in="shadowOffsetOuter1" result="shadowBlurOuter1"></feGaussianBlur>
            <feColorMatrix values="0 0 0 0 0.196078431   0 0 0 0 0.682352941   0 0 0 0 1  0 0 0 0.509286947 0" type="matrix" in="shadowBlurOuter1" result="shadowMatrixOuter1"></feColorMatrix>
            <feMerge>
                <feMergeNode in="shadowMatrixOuter1"></feMergeNode>
                <feMergeNode in="SourceGraphic"></feMergeNode>
            </feMerge>
        </filter>
        <linearGradient x1="50%" y1="-1.42108547e-12%" x2="50%" y2="100%" id="linearGradient-2">
            <stop stop-color="#70C1FF" offset="0%"></stop>
            <stop stop-color="#477CFF" offset="100%"></stop>
        </linearGradient>
        <linearGradient x1="39.8384646%" y1="0%" x2="39.8384646%" y2="100%" id="linearGradient-3">
            <stop stop-color="#5DC2FF" offset="0%"></stop>
            <stop stop-color="#4774FF" offset="100%"></stop>
        </linearGradient>
        <linearGradient x1="50%" y1="-1.42108547e-12%" x2="50%" y2="100%" id="linearGradient-4">
            <stop stop-color="#EAFAFF" offset="0%"></stop>
            <stop stop-color="#D2EFFF" offset="100%"></stop>
        </linearGradient>
        <path d="M23.8463607,4.10896443 C23.7992308,3.74337794 23.5588721,3.4354395 23.2232027,3.31045507 L12.6243791,0.118106029 C12.167246,-0.0500943036 11.7318683,-0.0282652605 11.375689,0.118106029 L0.776826522,3.31045505 C0.441001487,3.43543948 0.200798426,3.74341812 0.15366849,4.10896441 C0.1299673,4.29284307 -0.413836533,8.67111699 0.697939351,13.6748759 C1.35861451,16.6481704 2.47023471,19.2225924 4.00217132,21.3267046 C5.89838219,23.9311162 8.43320159,25.8049982 11.5381725,26.8998682 C11.7955385,27.0076064 12.0769169,27.0568927 12.4616621,26.8998682 C15.566633,25.8050384 18.101647,23.9311162 19.9978579,21.3267046 C21.5296387,19.2225924 22.6414147,16.6481704 23.3020899,13.6748759 C24.4139046,8.67111703 23.8699452,4.29284309 23.8463607,4.10896443 L23.8463607,4.10896443 Z" id="path-5"></path>
        <filter x="-12.5%" y="-11.1%" width="125.0%" height="122.2%" filterUnits="objectBoundingBox" id="filter-6">
            <feGaussianBlur stdDeviation="2" in="SourceAlpha" result="shadowBlurInner1"></feGaussianBlur>
            <feOffset dx="-2" dy="-2" in="shadowBlurInner1" result="shadowOffsetInner1"></feOffset>
            <feComposite in="shadowOffsetInner1" in2="SourceAlpha" operator="arithmetic" k2="-1" k3="1" result="shadowInnerInner1"></feComposite>
            <feColorMatrix values="0 0 0 0 0.203804425   0 0 0 0 0.821139823   0 0 0 0 1  0 0 0 0.202291849 0" type="matrix" in="shadowInnerInner1" result="shadowMatrixInner1"></feColorMatrix>
            <feGaussianBlur stdDeviation="1.5" in="SourceAlpha" result="shadowBlurInner2"></feGaussianBlur>
            <feOffset dx="0" dy="1" in="shadowBlurInner2" result="shadowOffsetInner2"></feOffset>
            <feComposite in="shadowOffsetInner2" in2="SourceAlpha" operator="arithmetic" k2="-1" k3="1" result="shadowInnerInner2"></feComposite>
            <feColorMatrix values="0 0 0 0 1   0 0 0 0 1   0 0 0 0 1  0 0 0 0.5 0" type="matrix" in="shadowInnerInner2" result="shadowMatrixInner2"></feColorMatrix>
            <feMerge>
                <feMergeNode in="shadowMatrixInner1"></feMergeNode>
                <feMergeNode in="shadowMatrixInner2"></feMergeNode>
            </feMerge>
        </filter>
        <linearGradient x1="50%" y1="-1.42108547e-12%" x2="50%" y2="100%" id="linearGradient-7">
            <stop stop-color="#EAFAFF" offset="0%"></stop>
            <stop stop-color="#D2EFFF" offset="100%"></stop>
        </linearGradient>
        <path d="M35.3279418,6.08735472 C35.2581196,5.5457451 34.9020328,5.08953999 34.4047447,4.90437788 L18.7027838,0.174971894 C18.0255497,-0.0742137832 17.3805456,-0.04187446 16.8528726,0.174971894 L1.15085411,4.90437785 C0.653335537,5.08953996 0.29747915,5.54580463 0.227657022,6.08735469 C0.192544149,6.35976751 -0.613091159,12.8460992 1.03398422,20.2590754 C2.01276224,24.6639562 3.65960698,28.4779147 5.9291427,31.595118 C8.73834399,35.4535055 12.493632,38.2296269 17.0935888,39.8516567 C17.4748718,40.0112688 17.8917288,40.0842854 18.4617217,39.8516567 C23.0616785,38.2296864 26.8172548,35.4535055 29.6264562,31.595118 C31.8957611,28.4779147 33.5428366,24.6639562 34.5216147,20.2590754 C36.1687475,12.8460993 35.3628818,6.35976754 35.3279418,6.08735472 L35.3279418,6.08735472 Z" id="path-8"></path>
        <filter x="-8.4%" y="-7.5%" width="116.9%" height="115.0%" filterUnits="objectBoundingBox" id="filter-9">
            <feGaussianBlur stdDeviation="2" in="SourceAlpha" result="shadowBlurInner1"></feGaussianBlur>
            <feOffset dx="-2" dy="-2" in="shadowBlurInner1" result="shadowOffsetInner1"></feOffset>
            <feComposite in="shadowOffsetInner1" in2="SourceAlpha" operator="arithmetic" k2="-1" k3="1" result="shadowInnerInner1"></feComposite>
            <feColorMatrix values="0 0 0 0 0.203804425   0 0 0 0 0.821139823   0 0 0 0 1  0 0 0 0.202291849 0" type="matrix" in="shadowInnerInner1" result="shadowMatrixInner1"></feColorMatrix>
            <feGaussianBlur stdDeviation="1.5" in="SourceAlpha" result="shadowBlurInner2"></feGaussianBlur>
            <feOffset dx="0" dy="1" in="shadowBlurInner2" result="shadowOffsetInner2"></feOffset>
            <feComposite in="shadowOffsetInner2" in2="SourceAlpha" operator="arithmetic" k2="-1" k3="1" result="shadowInnerInner2"></feComposite>
            <feColorMatrix values="0 0 0 0 1   0 0 0 0 1   0 0 0 0 1  0 0 0 0.5 0" type="matrix" in="shadowInnerInner2" result="shadowMatrixInner2"></feColorMatrix>
            <feMerge>
                <feMergeNode in="shadowMatrixInner1"></feMergeNode>
                <feMergeNode in="shadowMatrixInner2"></feMergeNode>
            </feMerge>
        </filter>
        <linearGradient x1="0%" y1="50%" x2="100%" y2="50%" id="linearGradient-10">
            <stop stop-color="#FF8955" offset="0%"></stop>
            <stop stop-color="#FF1925" offset="100%"></stop>
        </linearGradient>
        <linearGradient x1="50%" y1="1.79026897%" x2="50%" y2="88.721488%" id="linearGradient-11">
            <stop stop-color="#FFF854" offset="0%"></stop>
            <stop stop-color="#FFBB6A" offset="100%"></stop>
        </linearGradient>
        <path d="M24.2574229,38 L24.2574229,27.5628563 L18.7432716,27.5628563 C18.1909868,27.5628563 17.7432716,27.1151411 17.7432716,26.5628563 C17.7432716,26.385426 17.7904796,26.2111904 17.8800513,26.0580289 L26.686269,11 L26.686269,11 L26.686269,22.0793542 L32.2156725,22.0793542 C32.7679573,22.0793542 33.2156725,22.5270695 33.2156725,23.0793542 C33.2156725,23.2635654 33.1647898,23.444197 33.0686373,23.6013227 L24.2574229,38 L24.2574229,38 Z" id="path-12"></path>
        <filter x="-42.7%" y="-14.8%" width="185.1%" height="159.3%" filterUnits="objectBoundingBox" id="filter-13">
            <feOffset dx="0" dy="4" in="SourceAlpha" result="shadowOffsetOuter1"></feOffset>
            <feGaussianBlur stdDeviation="2" in="shadowOffsetOuter1" result="shadowBlurOuter1"></feGaussianBlur>
            <feColorMatrix values="0 0 0 0 1   0 0 0 0 0.308446924   0 0 0 0 0  0 0 0 0.377232265 0" type="matrix" in="shadowBlurOuter1"></feColorMatrix>
        </filter>
        <filter x="-30.9%" y="-7.4%" width="161.6%" height="144.4%" filterUnits="objectBoundingBox" id="filter-14">
            <feGaussianBlur stdDeviation="1.5" in="SourceAlpha" result="shadowBlurInner1"></feGaussianBlur>
            <feOffset dx="1" dy="1" in="shadowBlurInner1" result="shadowOffsetInner1"></feOffset>
            <feComposite in="shadowOffsetInner1" in2="SourceAlpha" operator="arithmetic" k2="-1" k3="1" result="shadowInnerInner1"></feComposite>
            <feColorMatrix values="0 0 0 0 1   0 0 0 0 0.980767162   0 0 0 0 0.924420613  0 0 0 0.5 0" type="matrix" in="shadowInnerInner1"></feColorMatrix>
        </filter>
        <linearGradient x1="50%" y1="100%" x2="50%" y2="-3.52209751e-13%" id="linearGradient-15">
            <stop stop-color="#FF1925" offset="0%"></stop>
            <stop stop-color="#FF8955" offset="100%"></stop>
        </linearGradient>
    </defs>
    <g id="Illustration/abnormal-" stroke="none" stroke-width="1" fill="none" fill-rule="evenodd">
        <g id="编组-5" filter="url(#filter-1)" transform="translate(88.265380, 75.625987) rotate(-345.000000) translate(-88.265380, -75.625987) translate(43.682465, 25.222950)">
            <path d="M9.54452602,2.80607407 L85.1658313,2.80607407 C87.3749703,2.80607407 89.1658313,4.59693507 89.1658313,6.80607407 L89.1658313,96.8060741 C89.1658313,99.0152131 87.3749703,100.806074 85.1658313,100.806074 L9.54452602,100.806074 C7.33538702,100.806074 5.54452602,99.0152131 5.54452602,96.8060741 L5.54452602,6.80607407 C5.54452602,4.59693507 7.33538702,2.80607407 9.54452602,2.80607407 Z" id="矩形" fill="url(#linearGradient-2)" transform="translate(47.355179, 51.806074) rotate(-360.000000) translate(-47.355179, -51.806074) "></path>
            <path d="M12.3551787,9.61586922 L82.3551787,9.61586922 C82.9074634,9.61586922 83.3551787,10.0635845 83.3551787,10.6158692 L83.3551787,92.9962789 C83.3551787,93.5485637 82.9074634,93.9962789 82.3551787,93.9962789 L12.3551787,93.9962789 C11.8028939,93.9962789 11.3551787,93.5485637 11.3551787,92.9962789 L11.3551787,10.6158692 C11.3551787,10.0635845 11.8028939,9.61586922 12.3551787,9.61586922 Z" id="矩形" fill="#8EC4FF" transform="translate(47.355179, 51.806074) rotate(-360.000000) translate(-47.355179, -51.806074) "></path>
            <path d="M12.3791044,9.61586922 L82.3246611,9.61586922 C82.876945,9.61681072 83.3238976,10.0652874 83.3229575,10.6175713 C83.3229392,10.6283484 83.3227466,10.6391244 83.3224584,10.6498979 C82.7309218,29.3381928 82.319742,42.0273791 82.0889188,48.717457 C81.4644561,66.8166098 79.6352813,73.1326996 78.0526401,78.9260989 C76.9684354,82.8949272 74.8606536,86.9183205 71.7292948,90.9962789 L1.73806946,90.9962789 C1.18578725,90.9979547 0.736711865,90.5516037 0.735031495,89.9993215 C0.734511783,89.8285096 0.777754593,89.6604117 0.861073592,89.5112971 C6.29808832,79.734342 9.45704328,66.1363953 10.3379385,48.717457 C11.2246577,31.183354 11.5732963,18.4912007 11.3838543,10.6409972 C11.369932,10.0888879 11.8062552,9.6300634 12.3583656,9.61618501 C12.3652773,9.61601127 12.3721906,9.61590921 12.3791044,9.61586922 Z" id="矩形" fill="#F4FCFF" transform="translate(41.677589, 50.306074) rotate(-360.000000) translate(-41.677589, -50.306074) "></path>
            <path d="M23.0780255,27.9996795 L70.3805641,27.9996795 C71.1254475,27.9996795 71.7292948,28.6035268 71.7292948,29.3484102 C71.7292948,30.0932936 71.1254475,30.697141 70.3805641,30.697141 L23.0780255,30.697141 C22.3331421,30.697141 21.7292948,30.0932936 21.7292948,29.3484102 C21.7292948,28.6035268 22.3331421,27.9996795 23.0780255,27.9996795 Z M23.0780255,38.4869868 L70.3805641,38.4869868 C71.1254475,38.4869868 71.7292948,39.0908341 71.7292948,39.8357175 C71.7292948,40.5806009 71.1254475,41.1844483 70.3805641,41.1844483 L23.0780255,41.1844483 C22.3331421,41.1844483 21.7292948,40.5806009 21.7292948,39.8357175 C21.7292948,39.0908341 22.3331421,38.4869868 23.0780255,38.4869868 Z M23.0780255,48.9742941 L70.3805641,48.9742941 C71.1254475,48.9742941 71.7292948,49.5781414 71.7292948,50.3230248 C71.7292948,51.0679082 71.1254475,51.6717556 70.3805641,51.6717556 L23.0780255,51.6717556 C22.3331421,51.6717556 21.7292948,51.0679082 21.7292948,50.3230248 C21.7292948,49.5781414 22.3331421,48.9742941 23.0780255,48.9742941 Z M23.0780255,59.4616014 L46.3805641,59.4616014 C47.1254475,59.4616014 47.7292948,60.0654487 47.7292948,60.8103321 C47.7292948,61.5552156 47.1254475,62.1590629 46.3805641,62.1590629 L23.0780255,62.1590629 C22.3331421,62.1590629 21.7292948,61.5552156 21.7292948,60.8103321 C21.7292948,60.0654487 22.3331421,59.4616014 23.0780255,59.4616014 Z" id="形状结合" fill="#FF784E" opacity="0.797076997"></path>
            <rect id="矩形" fill="url(#linearGradient-3)" transform="translate(47.355179, 6.069288) rotate(-360.000000) translate(-47.355179, -6.069288) " x="35.2166021" y="4.54747351e-13" width="24.2771532" height="12.1385766" rx="3"></rect>
        </g>
        <g id="编组-6" transform="translate(150.000000, 21.000000)">
            <g id="path-7">
                <use fill="url(#linearGradient-4)" fill-rule="evenodd" xlink:href="#path-5"></use>
                <use fill="black" fill-opacity="1" filter="url(#filter-6)" xlink:href="#path-5"></use>
            </g>
            <path d="M12,8 C12.988637,8 13.7900856,8.80144862 13.7900856,9.79008559 C13.7900856,9.85613107 13.7864305,9.92212594 13.7791369,9.98776747 L13.1104315,16.0061163 C13.0475627,16.5719358 12.5693015,17 12,17 C11.4306985,17 10.9524373,16.5719358 10.8895685,16.0061163 L10.2208631,9.98776747 C10.1116864,9.00517727 10.8197279,8.12012533 11.8023181,8.01094864 C11.8679596,8.00365514 11.9339545,8 12,8 Z" id="矩形" fill="#FF563F"></path>
            <rect id="矩形" fill="#FF563F" x="11" y="18" width="2" height="2" rx="1"></rect>
        </g>
        <g id="编组-6" transform="translate(9.000000, 42.000000)">
            <g id="path-7">
                <use fill="url(#linearGradient-7)" fill-rule="evenodd" xlink:href="#path-8"></use>
                <use fill="black" fill-opacity="1" filter="url(#filter-9)" xlink:href="#path-8"></use>
            </g>
            <path d="M17.7777778,11.8518519 C19.2424251,11.8518519 20.4297564,13.0391831 20.4297564,14.5038305 C20.4297564,14.6016757 20.4243414,14.6994458 20.4135362,14.7966925 L19.4228615,23.7127648 C19.3297225,24.551016 18.6211874,25.1851852 17.7777778,25.1851852 C16.9343681,25.1851852 16.2258331,24.551016 16.132694,23.7127648 L15.1420193,14.7966925 C14.9802761,13.3410034 16.0292265,12.0298153 17.4849157,11.8680721 C17.5821624,11.8572669 17.6799326,11.8518519 17.7777778,11.8518519 Z" id="矩形" fill="#FF563F"></path>
            <rect id="矩形" fill="#FF563F" x="16.2962963" y="26.6666667" width="2.96296296" height="2.96296296" rx="1.48148148"></rect>
        </g>
        <g id="编组" transform="translate(115.000000, 86.000000)">
            <path d="M25,0 C36.5979797,-2.13051432e-15 46,9.40202025 46,21 L46,50 L46,50 L4,50 L4,21 C4,9.40202025 13.4020203,2.13051432e-15 25,0 Z" id="矩形" fill="url(#linearGradient-10)"></path>
            <g id="路径">
                <use fill="black" fill-opacity="1" filter="url(#filter-13)" xlink:href="#path-12"></use>
                <use fill="url(#linearGradient-11)" fill-rule="evenodd" xlink:href="#path-12"></use>
                <use fill="black" fill-opacity="1" filter="url(#filter-14)" xlink:href="#path-12"></use>
            </g>
            <rect id="矩形" fill="url(#linearGradient-15)" x="0" y="47" width="50" height="5" rx="2.5"></rect>
        </g>
    </g>
</svg>