<?xml version="1.0" encoding="UTF-8"?>
<svg width="200px" height="146px" viewBox="0 0 200 146" version="1.1" xmlns="http://www.w3.org/2000/svg" xmlns:xlink="http://www.w3.org/1999/xlink">
    <title>Illustration/Successfully_repaired_the_Trojan_horse-no_abnormal</title>
    <defs>
        <linearGradient x1="37.2085054%" y1="96.8465278%" x2="37.2085054%" y2="62.9564824%" id="linearGradient-1">
            <stop stop-color="#B8EAFF" offset="0%"></stop>
            <stop stop-color="#25B7FF" offset="100%"></stop>
        </linearGradient>
        <rect id="path-2" x="0" y="0" width="125" height="97.9622642" rx="11"></rect>
        <linearGradient x1="50%" y1="0%" x2="50%" y2="100%" id="linearGradient-4">
            <stop stop-color="#C7F4FF" offset="0%"></stop>
            <stop stop-color="#BDE6FF" offset="100%"></stop>
        </linearGradient>
        <linearGradient x1="50%" y1="2.10490193%" x2="50%" y2="100%" id="linearGradient-5">
            <stop stop-color="#00FFA6" offset="0%"></stop>
            <stop stop-color="#00EB6B" offset="100%"></stop>
        </linearGradient>
        <circle id="path-6" cx="6" cy="6" r="6"></circle>
        <filter x="-25.0%" y="-25.0%" width="150.0%" height="150.0%" filterUnits="objectBoundingBox" id="filter-7">
            <feGaussianBlur stdDeviation="2" in="SourceAlpha" result="shadowBlurInner1"></feGaussianBlur>
            <feOffset dx="0" dy="2" in="shadowBlurInner1" result="shadowOffsetInner1"></feOffset>
            <feComposite in="shadowOffsetInner1" in2="SourceAlpha" operator="arithmetic" k2="-1" k3="1" result="shadowInnerInner1"></feComposite>
            <feColorMatrix values="0 0 0 0 0.999901831   0 0 0 0 1   0 0 0 0 0.999879897  0 0 0 0.329863008 0" type="matrix" in="shadowInnerInner1"></feColorMatrix>
        </filter>
        <linearGradient x1="50%" y1="0%" x2="50%" y2="100%" id="linearGradient-8">
            <stop stop-color="#00FFA6" offset="2.10490193%"></stop>
            <stop stop-color="#00EB6B" offset="100%"></stop>
        </linearGradient>
        <circle id="path-9" cx="6" cy="6" r="6"></circle>
        <filter x="-25.0%" y="-25.0%" width="150.0%" height="150.0%" filterUnits="objectBoundingBox" id="filter-10">
            <feGaussianBlur stdDeviation="2" in="SourceAlpha" result="shadowBlurInner1"></feGaussianBlur>
            <feOffset dx="0" dy="2" in="shadowBlurInner1" result="shadowOffsetInner1"></feOffset>
            <feComposite in="shadowOffsetInner1" in2="SourceAlpha" operator="arithmetic" k2="-1" k3="1" result="shadowInnerInner1"></feComposite>
            <feColorMatrix values="0 0 0 0 0.999901831   0 0 0 0 1   0 0 0 0 0.999879897  0 0 0 0.329863008 0" type="matrix" in="shadowInnerInner1"></feColorMatrix>
        </filter>
        <circle id="path-11" cx="6" cy="6" r="6"></circle>
        <filter x="-25.0%" y="-25.0%" width="150.0%" height="150.0%" filterUnits="objectBoundingBox" id="filter-12">
            <feGaussianBlur stdDeviation="2" in="SourceAlpha" result="shadowBlurInner1"></feGaussianBlur>
            <feOffset dx="0" dy="2" in="shadowBlurInner1" result="shadowOffsetInner1"></feOffset>
            <feComposite in="shadowOffsetInner1" in2="SourceAlpha" operator="arithmetic" k2="-1" k3="1" result="shadowInnerInner1"></feComposite>
            <feColorMatrix values="0 0 0 0 0.999901831   0 0 0 0 1   0 0 0 0 0.999879897  0 0 0 0.329863008 0" type="matrix" in="shadowInnerInner1"></feColorMatrix>
        </filter>
        <filter x="-19.0%" y="-16.5%" width="138.0%" height="133.0%" filterUnits="objectBoundingBox" id="filter-13">
            <feOffset dx="0" dy="2" in="SourceAlpha" result="shadowOffsetOuter1"></feOffset>
            <feGaussianBlur stdDeviation="2" in="shadowOffsetOuter1" result="shadowBlurOuter1"></feGaussianBlur>
            <feColorMatrix values="0 0 0 0 0   0 0 0 0 0.694221199   0 0 0 0 1  0 0 0 0.231091906 0" type="matrix" in="shadowBlurOuter1" result="shadowMatrixOuter1"></feColorMatrix>
            <feMerge>
                <feMergeNode in="shadowMatrixOuter1"></feMergeNode>
                <feMergeNode in="SourceGraphic"></feMergeNode>
            </feMerge>
        </filter>
        <linearGradient x1="50%" y1="-1.42108547e-12%" x2="50%" y2="100%" id="linearGradient-14">
            <stop stop-color="#50C4FF" offset="0%"></stop>
            <stop stop-color="#317DFF" offset="100%"></stop>
        </linearGradient>
        <linearGradient x1="39.8384646%" y1="0%" x2="39.8384646%" y2="100%" id="linearGradient-15">
            <stop stop-color="#1EC5FF" offset="0%"></stop>
            <stop stop-color="#3675FF" offset="100%"></stop>
        </linearGradient>
    </defs>
    <g id="Illustration/Successfully_repaired_the_Trojan_horse-no_abnormal" stroke="none" stroke-width="1" fill="none" fill-rule="evenodd">
        <g id="编组-2" transform="translate(15.000000, 16.000000)">
            <path d="M77.3686293,66.2822976 C80.2280469,85.5361882 82.7139903,97.8545056 84.8264596,103.23725 C86.9946935,108.762087 92.2013498,112.940865 100.446429,115.773585 L26.7857143,115.773585 C33.5938331,114.91833 38.8347996,110.739551 42.5086137,103.23725 C44.356594,99.4634862 47.0100294,87.1451688 50.4689199,66.2822976 L77.3686293,66.2822976 Z" id="三角形" fill="url(#linearGradient-1)"></path>
            <rect id="矩形" fill="#7BCEFF" x="26.7857143" y="113.54717" width="73.6607143" height="4.45283019" rx="2.22641509"></rect>
            <mask id="mask-3" fill="white">
                <use xlink:href="#path-2"></use>
            </mask>
            <use id="蒙版" fill="#7BCEFF" xlink:href="#path-2"></use>
            <path d="M7.98063595,-1.12151503 L116.980636,-1.38535093 C121.398901,-1.3960454 124.989282,2.17699653 124.999977,6.59526159 C124.999992,6.60171626 125,6.60817094 125,6.61462563 L125,86.792674 L125,86.792674 L0,87.0952381 L0,6.87846153 C1.2361997e-15,2.46774378 3.56993112,-1.11083887 7.98063595,-1.12151503 Z" id="矩形" fill="url(#linearGradient-4)" mask="url(#mask-3)"></path>
            <g id="编组" mask="url(#mask-3)">
                <g transform="translate(25.280899, 23.515656)">
                    <rect id="矩形" fill="#7BCFFF" x="0" y="4.57958242" width="60" height="2.80952381" rx="1.4047619"></rect>
                    <rect id="矩形" fill="#7BCFFF" x="0" y="21.4843443" width="60" height="2.80952381" rx="1.4047619"></rect>
                    <rect id="矩形" fill="#7BCFFF" x="0" y="38.4843443" width="60" height="2.80952381" rx="1.4047619"></rect>
                    <g id="编组-3" stroke-width="1" fill="none" transform="translate(65.757397, 0.000000)">
                        <g id="椭圆形" transform="translate(6.000000, 6.000000) rotate(-360.000000) translate(-6.000000, -6.000000) ">
                            <use fill="url(#linearGradient-5)" fill-rule="evenodd" xlink:href="#path-6"></use>
                            <use fill="black" fill-opacity="1" filter="url(#filter-7)" xlink:href="#path-6"></use>
                        </g>
                        <polyline id="路径" stroke="#FFFFFF" stroke-linecap="round" stroke-linejoin="round" transform="translate(6.136085, 5.707931) rotate(-315.000000) translate(-6.136085, -5.707931) " points="4.5 8.41586153 7.77217066 8.41586153 7.77217066 3"></polyline>
                    </g>
                    <g id="编组-3备份" stroke-width="1" fill="none" transform="translate(65.757397, 17.000000)">
                        <g id="椭圆形" transform="translate(6.000000, 6.000000) rotate(-360.000000) translate(-6.000000, -6.000000) ">
                            <use fill="url(#linearGradient-8)" fill-rule="evenodd" xlink:href="#path-9"></use>
                            <use fill="black" fill-opacity="1" filter="url(#filter-10)" xlink:href="#path-9"></use>
                        </g>
                        <polyline id="路径" stroke="#FFFFFF" stroke-linecap="round" stroke-linejoin="round" transform="translate(6.136085, 5.707931) rotate(-315.000000) translate(-6.136085, -5.707931) " points="4.5 8.41586153 7.77217066 8.41586153 7.77217066 3"></polyline>
                    </g>
                    <g id="编组-3备份-2" stroke-width="1" fill="none" transform="translate(65.757397, 34.000000)">
                        <g id="椭圆形" transform="translate(6.000000, 6.000000) rotate(-360.000000) translate(-6.000000, -6.000000) ">
                            <use fill="url(#linearGradient-8)" fill-rule="evenodd" xlink:href="#path-11"></use>
                            <use fill="black" fill-opacity="1" filter="url(#filter-12)" xlink:href="#path-11"></use>
                        </g>
                        <polyline id="路径" stroke="#FFFFFF" stroke-linecap="round" stroke-linejoin="round" transform="translate(6.136085, 5.707931) rotate(-315.000000) translate(-6.136085, -5.707931) " points="4.5 8.41586153 7.77217066 8.41586153 7.77217066 3"></polyline>
                    </g>
                </g>
            </g>
        </g>
        <ellipse id="椭圆形" fill-opacity="0.366018015" fill="#B7E5FF" cx="106" cy="135.142857" rx="91" ry="1.14285714"></ellipse>
        <g id="编组-5" filter="url(#filter-13)" transform="translate(156.689173, 91.112383) rotate(-345.000000) translate(-156.689173, -91.112383) translate(125.081231, 54.743185)">
            <path d="M6.21588432,3.73839684 L61.2158843,3.73839684 C62.3204538,3.73839684 63.2158843,4.63382734 63.2158843,5.73839684 L63.2158843,70.7383968 C63.2158843,71.8429663 62.3204538,72.7383968 61.2158843,72.7383968 L6.21588432,72.7383968 C5.11131482,72.7383968 4.21588432,71.8429663 4.21588432,70.7383968 L4.21588432,5.73839684 C4.21588432,4.63382734 5.11131482,3.73839684 6.21588432,3.73839684 Z" id="矩形" fill="url(#linearGradient-14)" transform="translate(33.715884, 38.238397) rotate(-360.000000) translate(-33.715884, -38.238397) "></path>
            <path d="M9.21588432,8.73839684 L58.2158843,8.73839684 C58.7681691,8.73839684 59.2158843,9.18611209 59.2158843,9.73839684 L59.2158843,66.7383968 C59.2158843,67.2906816 58.7681691,67.7383968 58.2158843,67.7383968 L9.21588432,67.7383968 C8.66359957,67.7383968 8.21588432,67.2906816 8.21588432,66.7383968 L8.21588432,9.73839684 C8.21588432,9.18611209 8.66359957,8.73839684 9.21588432,8.73839684 Z" id="矩形" fill="#7EC6FF" transform="translate(33.715884, 38.238397) rotate(-360.000000) translate(-33.715884, -38.238397) "></path>
            <path d="M8.87554717,9.21170072 L58.1664858,9.00449138 C58.7187587,9.00087545 59.1694059,9.44563942 59.1730346,9.99791225 C59.1731754,10.0193385 59.1726275,10.0407638 59.1712621,10.0621474 C57.4490291,38.7749205 56.3205652,54.7632069 55.7858705,58.0270068 C55.1693763,61.7901149 53.2109212,64.8530449 49.9105054,67.215797 L2.42789751,67.215797 C1.87561276,67.2158139 1.42788377,66.7681124 1.42786682,66.2158277 C1.42786015,65.9986335 1.49856631,65.7873418 1.62962589,65.6141458 C4.60374078,61.6727325 6.3493057,52.9702412 6.86632064,39.5066719 C7.43091455,24.8041001 7.76899568,15.0303103 7.88056402,10.1853026 C7.89490046,9.64533095 8.33539138,9.2142699 8.87554717,9.21170072 Z" id="矩形" fill="#F2FCFF" transform="translate(29.617447, 38.107898) rotate(-360.000000) translate(-29.617447, -38.107898) "></path>
            <polyline id="路径" stroke="#7CCAFF" stroke-width="3" stroke-linecap="round" stroke-linejoin="round" transform="translate(31.090724, 35.805287) rotate(-315.000000) translate(-31.090724, -35.805287) " points="26.0907236 44.0809276 36.0907236 44.0809276 36.0907236 27.5296468"></polyline>
            <rect id="矩形" fill="url(#linearGradient-15)" transform="translate(33.324565, 4.000000) rotate(-360.000000) translate(-33.324565, -4.000000) " x="24.8245652" y="4.54747351e-13" width="17" height="8" rx="4"></rect>
        </g>
    </g>
</svg>