<?xml version="1.0" encoding="UTF-8"?>
<svg width="16px" height="16px" viewBox="0 0 16 16" version="1.1" xmlns="http://www.w3.org/2000/svg" xmlns:xlink="http://www.w3.org/1999/xlink">
    <title>ICon/garbage</title>
    <g id="ICon/garbage" stroke="none" stroke-width="1" fill="none" fill-rule="evenodd">
        <rect id="矩形" fill="#FF6969" opacity="0" x="0" y="0" width="16" height="16"></rect>
        <path d="M3,3.85714286 L3,3.42857143 C3,2.87628668 3.44771525,2.42857143 4,2.42857143 L6.571,2.428 L6.57142857,2 C6.57142857,1.44771525 7.01914382,1 7.57142857,1 L8.42857143,1 C8.98085618,1 9.42857143,1.44771525 9.42857143,2 L9.428,2.428 L12,2.42857143 C12.5522847,2.42857143 13,2.87628668 13,3.42857143 L13,3.85714286 L3,3.85714286 Z M12.2857143,4.57142857 L11.6352299,14.0703419 C11.5993095,14.5948819 11.163335,15.002022 10.6375664,15.002022 L5.36243356,15.002022 C4.83666502,15.002022 4.40069053,14.5948819 4.36477009,14.0703419 L3.71428571,4.57142857 L12.2857143,4.57142857 Z M6.21428571,6.71428571 C6.01704116,6.71428571 5.85714286,6.87418402 5.85714286,7.07142857 L5.85714286,7.07142857 L5.85714286,12.7857143 C5.85714286,12.9829588 6.01704116,13.1428571 6.21428571,13.1428571 C6.41153027,13.1428571 6.57142857,12.9829588 6.57142857,12.7857143 L6.57142857,12.7857143 L6.57142857,7.07142857 C6.57142857,6.87418402 6.41153027,6.71428571 6.21428571,6.71428571 Z M8,6.71428571 C7.80275545,6.71428571 7.64285714,6.87418402 7.64285714,7.07142857 L7.64285714,7.07142857 L7.64285714,12.7857143 C7.64285714,12.9829588 7.80275545,13.1428571 8,13.1428571 C8.19724455,13.1428571 8.35714286,12.9829588 8.35714286,12.7857143 L8.35714286,12.7857143 L8.35714286,7.07142857 C8.35714286,6.87418402 8.19724455,6.71428571 8,6.71428571 Z M9.78571429,6.71428571 C9.58846973,6.71428571 9.42857143,6.87418402 9.42857143,7.07142857 L9.42857143,7.07142857 L9.42857143,12.7857143 C9.42857143,12.9829588 9.58846973,13.1428571 9.78571429,13.1428571 C9.98295884,13.1428571 10.1428571,12.9829588 10.1428571,12.7857143 L10.1428571,12.7857143 L10.1428571,7.07142857 C10.1428571,6.87418402 9.98295884,6.71428571 9.78571429,6.71428571 Z" id="形状结合" fill-opacity="0.7" fill="#000000" fill-rule="nonzero"></path>
    </g>
</svg>