<?xml version="1.0" encoding="UTF-8"?>
<svg width="16px" height="14px" viewBox="0 0 16 14" version="1.1" xmlns="http://www.w3.org/2000/svg" xmlns:xlink="http://www.w3.org/1999/xlink">
    <title>系统垃圾</title>
    <g id="一期V6.0" stroke="none" stroke-width="1" fill="none" fill-rule="evenodd" fill-opacity="0.7">
        <g id="切图" transform="translate(-84.000000, -64.000000)" fill="#FFFFFF" fill-rule="nonzero">
            <g id="编组" transform="translate(84.000000, 63.000000)">
                <g id="系统垃圾" transform="translate(0.000000, 1.600000)">
                    <path d="M6.4,11.2 L1.6,11.2 C0.7163444,11.2 0,10.4836556 0,9.6 L0,1.6 C0,0.7163444 0.7163444,4.4408921e-16 1.6,4.4408921e-16 L14.4,4.4408921e-16 C15.2836556,4.4408921e-16 16,0.7163444 16,1.6 L16,9.6 C16,10.4836556 15.2836556,11.2 14.4,11.2 L9.6,11.2 L9.6,12 L13.2,12 C13.4209139,12 13.6,12.1790861 13.6,12.4 C13.6,12.6209139 13.4209139,12.8 13.2,12.8 L2.8,12.8 C2.5790861,12.8 2.4,12.6209139 2.4,12.4 C2.4,12.1790861 2.5790861,12 2.8,12 L6.4,12 L6.4,11.2 Z M14.4,0.8 L1.6,0.8 C1.1581722,0.8 0.8,1.1581722 0.8,1.6 L0.8,9.6 C0.8,10.0418278 1.1581722,10.4 1.6,10.4 L14.4,10.4 C14.8418278,10.4 15.2,10.0418278 15.2,9.6 L15.2,1.6 C15.2,1.1581722 14.8418278,0.8 14.4,0.8 Z" id="形状"></path>
                </g>
            </g>
        </g>
    </g>
</svg>