<?xml version="1.0" encoding="UTF-8"?>
<svg width="24px" height="24px" viewBox="0 0 24 24" version="1.1" xmlns="http://www.w3.org/2000/svg" xmlns:xlink="http://www.w3.org/1999/xlink">
    <title>app/deepin-PC-manager/24px</title>
    <defs>
        <filter x="-6.8%" y="-6.8%" width="113.6%" height="113.6%" filterUnits="objectBoundingBox" id="filter-1">
            <feOffset dx="0" dy="0" in="SourceAlpha" result="shadowOffsetOuter1"></feOffset>
            <feGaussianBlur stdDeviation="0.5" in="shadowOffsetOuter1" result="shadowBlurOuter1"></feGaussianBlur>
            <feColorMatrix values="0 0 0 0 0   0 0 0 0 0   0 0 0 0 0  0 0 0 0.15 0" type="matrix" in="shadowBlurOuter1" result="shadowMatrixOuter1"></feColorMatrix>
            <feMerge>
                <feMergeNode in="shadowMatrixOuter1"></feMergeNode>
                <feMergeNode in="SourceGraphic"></feMergeNode>
            </feMerge>
        </filter>
        <linearGradient x1="50%" y1="13.3560528%" x2="50%" y2="121.793751%" id="linearGradient-2">
            <stop stop-color="#FFFFFF" offset="0%"></stop>
            <stop stop-color="#DEEFFF" offset="100%"></stop>
        </linearGradient>
        <radialGradient cx="50%" cy="-8.94325658%" fx="50%" fy="-8.94325658%" r="120.473102%" gradientTransform="translate(0.5, -0.0894), scale(1, 0.8235), rotate(90), translate(-0.5, 0.0894)" id="radialGradient-3">
            <stop stop-color="#90FF8A" offset="0%"></stop>
            <stop stop-color="#00B9E4" offset="100%"></stop>
        </radialGradient>
        <linearGradient x1="107.709851%" y1="37.8998729%" x2="-4.27544068%" y2="74.336054%" id="linearGradient-4">
            <stop stop-color="#FFEF55" offset="0%"></stop>
            <stop stop-color="#40F0C3" offset="100%"></stop>
        </linearGradient>
        <linearGradient x1="50%" y1="0%" x2="50%" y2="100%" id="linearGradient-5">
            <stop stop-color="#FFFFFF" offset="0%"></stop>
            <stop stop-color="#FFFFFF" stop-opacity="0.7" offset="100%"></stop>
        </linearGradient>
        <path d="M8.578125,0.515991132 C9.6826945,0.515991132 10.578125,1.41142163 10.578125,2.51599113 C10.578125,2.99780085 10.4077535,3.43981817 10.1239687,3.78508492 C10.9391124,4.18493264 11.5134073,5.00038866 11.5730019,5.9553441 L11.578125,6.12002746 C11.578125,6.33871216 11.400846,6.51599113 11.1821613,6.51599113 L5.97408867,6.51599113 C5.78273956,6.51599113 5.62309171,6.38026192 5.58616957,6.19982795 L5.578125,6.12002746 C5.578125,5.094739 6.17066938,4.2078467 7.03199038,3.78311831 C6.74849648,3.43981817 6.578125,2.99780085 6.578125,2.51599113 C6.578125,1.41142163 7.4735555,0.515991132 8.578125,0.515991132 Z" id="path-6"></path>
        <filter x="-33.3%" y="-16.7%" width="166.7%" height="166.7%" filterUnits="objectBoundingBox" id="filter-7">
            <feOffset dx="0" dy="1" in="SourceAlpha" result="shadowOffsetOuter1"></feOffset>
            <feGaussianBlur stdDeviation="0.5" in="shadowOffsetOuter1" result="shadowBlurOuter1"></feGaussianBlur>
            <feColorMatrix values="0 0 0 0 0   0 0 0 0 0   0 0 0 0 0  0 0 0 0.1 0" type="matrix" in="shadowBlurOuter1"></feColorMatrix>
        </filter>
    </defs>
    <g id="app/deepin-PC-manager/24px" stroke="none" stroke-width="1" fill="none" fill-rule="evenodd">
        <g id="编组-2" filter="url(#filter-1)" transform="translate(1, 1)">
            <rect id="矩形" fill="url(#linearGradient-2)" x="0" y="0" width="22" height="22" rx="3.75"></rect>
            <path d="M11.896966,2.70460197 C12.7901607,3.35681185 13.6578387,3.83991329 14.5,4.15390628 C15.4045474,4.49115942 16.338532,4.6912388 17.3019538,4.75414441 L17.3019395,4.75435077 C17.6951273,4.78164561 18.000106,5.10861791 18,5.50275193 L17.9999989,10.9034497 C17.9989816,12.7792452 17.2950925,14.5865666 16.0271642,15.9689441 C15.8769274,16.1282369 15.7212592,16.2942448 15.5579345,16.464927 C14.6526852,17.4109561 13.6387908,18.1084128 12.5162512,18.557297 L12.5167494,18.5585437 C11.6256027,18.9146711 10.6318347,18.9155947 9.74002744,18.5611245 C8.34834878,18.0071524 7.24907814,17.3082941 6.44206549,16.464927 C6.24967854,16.2638733 6.06496353,16.0636196 5.88792046,15.8641658 L5.88928892,15.8629519 C4.67232383,14.4910164 4.00020036,12.7207382 4.00000004,10.8868322 L4.00000808,5.51936943 C3.99815354,5.11990729 4.30972407,4.7890928 4.70858089,4.76703207 C5.61073741,4.71578107 6.54120922,4.51138362 7.5,4.15390628 C8.40064929,3.81810651 9.27631002,3.33533207 10.1269822,2.70558296 L10.1268985,2.70546928 C10.6536378,2.31783212 11.3708128,2.31614835 11.8993664,2.70130791 Z" id="矩形" fill="url(#radialGradient-3)"></path>
            <g id="编组" transform="translate(2.4219, 6.484)">
                <path d="M15.5783541,1.20181642e-14 C16.4368991,0.333669949 17.0547265,0.877374201 17.3348899,1.64695866 C18.2426722,4.1405573 14.9101018,7.09576104 10.2101126,8.80606553 C5.51012339,10.51637 1.05726739,10.3942472 0.149485096,7.9006486 C-0.300816609,6.66370917 0.292269467,5.31318648 1.57807924,4.05737273 L1.57812569,5.29313448 C1.57814882,5.34697964 1.57875164,5.40078666 1.57993181,5.45454662 C1.20241464,6.05126503 1.07301362,6.6188192 1.25001709,7.10574846 C1.84542834,8.74370025 5.68246347,8.84908872 9.82027493,7.34114019 C13.9580864,5.83319167 16.8297692,3.28293558 16.2343579,1.6449838 C16.123005,1.33865653 15.8982733,1.08593206 15.5793994,0.887338757 L15.57812,0.0212802664 Z" id="形状结合" fill="url(#linearGradient-4)" fill-rule="nonzero"></path>
                <g id="形状结合">
                    <use fill="black" fill-opacity="1" filter="url(#filter-7)" xlink:href="#path-6"></use>
                    <use fill="url(#linearGradient-5)" fill-rule="evenodd" xlink:href="#path-6"></use>
                </g>
            </g>
        </g>
    </g>
</svg>