<?xml version="1.0" encoding="UTF-8"?>
<svg width="18px" height="18px" viewBox="0 0 18 18" version="1.1" xmlns="http://www.w3.org/2000/svg" xmlns:xlink="http://www.w3.org/1999/xlink">
    <title>-mockplus-</title>
    <defs>
        <linearGradient x1="50%" y1="0%" x2="50%" y2="100%" id="linearGradient-1">
            <stop stop-color="#B5B5B5" offset="0%"></stop>
            <stop stop-color="#9E9E9E" offset="97.4387429%"></stop>
        </linearGradient>
    </defs>
    <g id="页面-1" stroke="none" stroke-width="1" fill="none" fill-rule="evenodd">
        <g id="防火墙-单选右键编辑备份" transform="translate(-405.000000, -440.000000)">
            <g id="编组-4" transform="translate(65.000000, 45.000000)">
                <g id="自定义防火墙" transform="translate(210.000000, 60.000000)">
                    <g id="编组-8" transform="translate(10.000000, 44.000000)">
                        <g id="-mockplus-" transform="translate(120.000000, 291.000000)">
                            <g id="编组-8" transform="translate(1.000000, 1.000000)">
                                <path d="M7.99257143,0 C12.4149253,0 16,3.58260056 16,8 C16,12.4173994 12.4149253,16 7.99257143,16 C3.57764771,16 0,12.417404 0,8 C0,3.58259606 3.57764771,0 7.99257143,0 Z" id="Shape" fill="url(#linearGradient-1)"></path>
                                <path d="M11.2727273,4 L12,4.72727273 L8.727,8 L12,11.2727273 L11.2727273,12 L7.999,8.727 L4.72727273,12 L4,11.2727273 L7.272,8 L4,4.72727273 L4.72727273,4 L8,7.273 L11.2727273,4 Z" id="形状结合" fill="#FFFFFF" fill-rule="nonzero"></path>
                            </g>
                        </g>
                    </g>
                </g>
            </g>
        </g>
    </g>
</svg>