<?xml version="1.0" encoding="UTF-8"?>
<svg width="128px" height="128px" viewBox="0 0 128 128" version="1.1" xmlns="http://www.w3.org/2000/svg" xmlns:xlink="http://www.w3.org/1999/xlink">
    <title>-mockplus-</title>
    <defs>
        <filter x="-13.8%" y="-16.5%" width="127.6%" height="133.0%" filterUnits="objectBoundingBox" id="filter-1">
            <feOffset dx="0" dy="2" in="SourceAlpha" result="shadowOffsetOuter1"></feOffset>
            <feGaussianBlur stdDeviation="3" in="shadowOffsetOuter1" result="shadowBlurOuter1"></feGaussianBlur>
            <feColorMatrix values="0 0 0 0 0   0 0 0 0 0   0 0 0 0 0  0 0 0 0.2 0" type="matrix" in="shadowBlurOuter1" result="shadowMatrixOuter1"></feColorMatrix>
            <feMerge>
                <feMergeNode in="shadowMatrixOuter1"></feMergeNode>
                <feMergeNode in="SourceGraphic"></feMergeNode>
            </feMerge>
        </filter>
        <linearGradient x1="50%" y1="100%" x2="50%" y2="0%" id="linearGradient-2">
            <stop stop-color="#DCEDFB" offset="0%"></stop>
            <stop stop-color="#CDCFD2" offset="100%"></stop>
        </linearGradient>
        <polygon id="path-3" points="47.5 84.5 67.5 84.5 67.5 96 47.5 96"></polygon>
        <filter x="-10.0%" y="-17.4%" width="120.0%" height="134.8%" filterUnits="objectBoundingBox" id="filter-4">
            <feGaussianBlur stdDeviation="1" in="SourceAlpha" result="shadowBlurInner1"></feGaussianBlur>
            <feOffset dx="0" dy="2" in="shadowBlurInner1" result="shadowOffsetInner1"></feOffset>
            <feComposite in="shadowOffsetInner1" in2="SourceAlpha" operator="arithmetic" k2="-1" k3="1" result="shadowInnerInner1"></feComposite>
            <feColorMatrix values="0 0 0 0 0.305544245   0 0 0 0 0.316030326   0 0 0 0 0.533769248  0 0 0 0.178130463 0" type="matrix" in="shadowInnerInner1"></feColorMatrix>
        </filter>
        <linearGradient x1="50%" y1="0%" x2="50%" y2="80.1038369%" id="linearGradient-5">
            <stop stop-color="#FFFFFF" offset="0%"></stop>
            <stop stop-color="#EBF4FF" offset="100%"></stop>
        </linearGradient>
        <path d="M38.5,94 L76.5,94 C77.3284271,94 78,94.6715729 78,95.5 C78,96.3284271 77.3284271,97 76.5,97 L38.5,97 C37.6715729,97 37,96.3284271 37,95.5 C37,94.6715729 37.6715729,94 38.5,94 Z" id="path-6"></path>
        <filter x="-1.2%" y="-16.7%" width="102.4%" height="133.3%" filterUnits="objectBoundingBox" id="filter-7">
            <feOffset dx="0" dy="-1" in="SourceAlpha" result="shadowOffsetInner1"></feOffset>
            <feComposite in="shadowOffsetInner1" in2="SourceAlpha" operator="arithmetic" k2="-1" k3="1" result="shadowInnerInner1"></feComposite>
            <feColorMatrix values="0 0 0 0 0   0 0 0 0 0   0 0 0 0 0  0 0 0 0.168651661 0" type="matrix" in="shadowInnerInner1"></feColorMatrix>
        </filter>
        <linearGradient x1="39.598747%" y1="23.1532402%" x2="75.3018846%" y2="76.8467598%" id="linearGradient-8">
            <stop stop-color="#DDFFFD" offset="0%"></stop>
            <stop stop-color="#D0E0FB" offset="100%"></stop>
        </linearGradient>
        <rect id="path-9" x="0" y="0" width="116" height="85" rx="12.5"></rect>
        <filter x="-0.4%" y="-0.6%" width="100.9%" height="101.2%" filterUnits="objectBoundingBox" id="filter-10">
            <feOffset dx="0" dy="-1" in="SourceAlpha" result="shadowOffsetInner1"></feOffset>
            <feComposite in="shadowOffsetInner1" in2="SourceAlpha" operator="arithmetic" k2="-1" k3="1" result="shadowInnerInner1"></feComposite>
            <feColorMatrix values="0 0 0 0 0   0 0 0 0 0   0 0 0 0 0  0 0 0 0.12 0" type="matrix" in="shadowInnerInner1" result="shadowMatrixInner1"></feColorMatrix>
            <feOffset dx="0" dy="1" in="SourceAlpha" result="shadowOffsetInner2"></feOffset>
            <feComposite in="shadowOffsetInner2" in2="SourceAlpha" operator="arithmetic" k2="-1" k3="1" result="shadowInnerInner2"></feComposite>
            <feColorMatrix values="0 0 0 0 1   0 0 0 0 1   0 0 0 0 1  0 0 0 1 0" type="matrix" in="shadowInnerInner2" result="shadowMatrixInner2"></feColorMatrix>
            <feMerge>
                <feMergeNode in="shadowMatrixInner1"></feMergeNode>
                <feMergeNode in="shadowMatrixInner2"></feMergeNode>
            </feMerge>
        </filter>
        <linearGradient x1="2.14705601%" y1="26.5054694%" x2="96.6003393%" y2="73.8496474%" id="linearGradient-11">
            <stop stop-color="#00C1EA" offset="0%"></stop>
            <stop stop-color="#4568FF" offset="100%"></stop>
        </linearGradient>
        <rect id="path-12" x="0" y="0" width="108" height="77" rx="9"></rect>
        <filter x="-3.2%" y="-4.5%" width="106.5%" height="109.1%" filterUnits="objectBoundingBox" id="filter-14">
            <feGaussianBlur stdDeviation="3.5" in="SourceAlpha" result="shadowBlurInner1"></feGaussianBlur>
            <feOffset dx="0" dy="0" in="shadowBlurInner1" result="shadowOffsetInner1"></feOffset>
            <feComposite in="shadowOffsetInner1" in2="SourceAlpha" operator="arithmetic" k2="-1" k3="1" result="shadowInnerInner1"></feComposite>
            <feColorMatrix values="0 0 0 0 0   0 0 0 0 0   0 0 0 0 0  0 0 0 0.320203234 0" type="matrix" in="shadowInnerInner1"></feColorMatrix>
        </filter>
        <linearGradient x1="50%" y1="0%" x2="50%" y2="100%" id="linearGradient-15">
            <stop stop-color="#FFFFFF" offset="0%"></stop>
            <stop stop-color="#59E5FE" offset="100%"></stop>
        </linearGradient>
        <linearGradient x1="-2.72792194%" y1="26.6612607%" x2="112.276795%" y2="70.1559924%" id="linearGradient-16">
            <stop stop-color="#51D8FF" offset="0%"></stop>
            <stop stop-color="#6C8AFF" offset="100%"></stop>
        </linearGradient>
        <linearGradient x1="47.7087373%" y1="100%" x2="52.1403092%" y2="0%" id="linearGradient-17">
            <stop stop-color="#5BC0E8" offset="0%"></stop>
            <stop stop-color="#77D1F3" offset="24.0990119%"></stop>
            <stop stop-color="#7FD0F9" offset="100%"></stop>
            <stop stop-color="#7FD0F9" offset="100%"></stop>
        </linearGradient>
        <linearGradient x1="26.1785895%" y1="100%" x2="72.2520022%" y2="0%" id="linearGradient-18">
            <stop stop-color="#5BC0E8" offset="0%"></stop>
            <stop stop-color="#77D1F3" offset="24.0990119%"></stop>
            <stop stop-color="#7FD0F9" offset="100%"></stop>
            <stop stop-color="#7FD0F9" offset="100%"></stop>
        </linearGradient>
        <linearGradient x1="26.2104698%" y1="100%" x2="76.1344831%" y2="-15.6732961%" id="linearGradient-19">
            <stop stop-color="#54C0EB" offset="0%"></stop>
            <stop stop-color="#77D1F3" offset="29.5552833%"></stop>
            <stop stop-color="#7BD1F6" offset="62.9427836%"></stop>
            <stop stop-color="#7FD0F9" offset="100%"></stop>
        </linearGradient>
        <linearGradient x1="50%" y1="0%" x2="50%" y2="100%" id="linearGradient-20">
            <stop stop-color="#F1F8FF" offset="0%"></stop>
            <stop stop-color="#E2F1FF" offset="49.7941301%"></stop>
            <stop stop-color="#DEEFFF" offset="100%"></stop>
        </linearGradient>
        <rect id="path-21" x="16.5" y="57" width="19" height="12" rx="3"></rect>
        <filter x="-26.3%" y="-33.3%" width="152.6%" height="183.3%" filterUnits="objectBoundingBox" id="filter-22">
            <feOffset dx="0" dy="1" in="SourceAlpha" result="shadowOffsetOuter1"></feOffset>
            <feGaussianBlur stdDeviation="1.5" in="shadowOffsetOuter1" result="shadowBlurOuter1"></feGaussianBlur>
            <feColorMatrix values="0 0 0 0 0.161940614   0 0 0 0 0.324699094   0 0 0 0 0.786401721  0 0 0 0.379479895 0" type="matrix" in="shadowBlurOuter1"></feColorMatrix>
        </filter>
        <filter x="-18.4%" y="-20.8%" width="136.8%" height="158.3%" filterUnits="objectBoundingBox" id="filter-23">
            <feOffset dx="0" dy="1" in="SourceAlpha" result="shadowOffsetInner1"></feOffset>
            <feComposite in="shadowOffsetInner1" in2="SourceAlpha" operator="arithmetic" k2="-1" k3="1" result="shadowInnerInner1"></feComposite>
            <feColorMatrix values="0 0 0 0 1   0 0 0 0 1   0 0 0 0 1  0 0 0 0.5 0" type="matrix" in="shadowInnerInner1"></feColorMatrix>
        </filter>
        <rect id="path-24" x="82" y="57" width="19" height="12" rx="3"></rect>
        <filter x="-26.3%" y="-33.3%" width="152.6%" height="183.3%" filterUnits="objectBoundingBox" id="filter-25">
            <feOffset dx="0" dy="1" in="SourceAlpha" result="shadowOffsetOuter1"></feOffset>
            <feGaussianBlur stdDeviation="1.5" in="shadowOffsetOuter1" result="shadowBlurOuter1"></feGaussianBlur>
            <feColorMatrix values="0 0 0 0 0.161940614   0 0 0 0 0.324699094   0 0 0 0 0.786401721  0 0 0 0.379479895 0" type="matrix" in="shadowBlurOuter1"></feColorMatrix>
        </filter>
        <filter x="-18.4%" y="-20.8%" width="136.8%" height="158.3%" filterUnits="objectBoundingBox" id="filter-26">
            <feOffset dx="0" dy="1" in="SourceAlpha" result="shadowOffsetInner1"></feOffset>
            <feComposite in="shadowOffsetInner1" in2="SourceAlpha" operator="arithmetic" k2="-1" k3="1" result="shadowInnerInner1"></feComposite>
            <feColorMatrix values="0 0 0 0 1   0 0 0 0 1   0 0 0 0 1  0 0 0 0.5 0" type="matrix" in="shadowInnerInner1"></feColorMatrix>
        </filter>
        <rect id="path-27" x="49" y="57" width="19" height="12" rx="3"></rect>
        <filter x="-26.3%" y="-33.3%" width="152.6%" height="183.3%" filterUnits="objectBoundingBox" id="filter-28">
            <feOffset dx="0" dy="1" in="SourceAlpha" result="shadowOffsetOuter1"></feOffset>
            <feGaussianBlur stdDeviation="1.5" in="shadowOffsetOuter1" result="shadowBlurOuter1"></feGaussianBlur>
            <feColorMatrix values="0 0 0 0 0.161940614   0 0 0 0 0.324699094   0 0 0 0 0.786401721  0 0 0 0.379479895 0" type="matrix" in="shadowBlurOuter1"></feColorMatrix>
        </filter>
        <filter x="-18.4%" y="-20.8%" width="136.8%" height="158.3%" filterUnits="objectBoundingBox" id="filter-29">
            <feOffset dx="0" dy="1" in="SourceAlpha" result="shadowOffsetInner1"></feOffset>
            <feComposite in="shadowOffsetInner1" in2="SourceAlpha" operator="arithmetic" k2="-1" k3="1" result="shadowInnerInner1"></feComposite>
            <feColorMatrix values="0 0 0 0 1   0 0 0 0 1   0 0 0 0 1  0 0 0 0.5 0" type="matrix" in="shadowInnerInner1"></feColorMatrix>
        </filter>
        <linearGradient x1="50%" y1="0%" x2="50%" y2="100%" id="linearGradient-30">
            <stop stop-color="#F1F8FF" offset="0%"></stop>
            <stop stop-color="#E2F1FF" offset="49.7941301%"></stop>
            <stop stop-color="#DEEFFF" offset="100%"></stop>
        </linearGradient>
        <circle id="path-31" cx="13.75" cy="13.75" r="13"></circle>
        <filter x="0.0%" y="0.0%" width="100.0%" height="100.0%" filterUnits="objectBoundingBox" id="filter-33">
            <feOffset dx="0" dy="0" in="SourceAlpha" result="shadowOffsetInner1"></feOffset>
            <feComposite in="shadowOffsetInner1" in2="SourceAlpha" operator="arithmetic" k2="-1" k3="1" result="shadowInnerInner1"></feComposite>
            <feColorMatrix values="0 0 0 0 1   0 0 0 0 1   0 0 0 0 1  0 0 0 0.5 0" type="matrix" in="shadowInnerInner1"></feColorMatrix>
        </filter>
        <radialGradient cx="36.7322747%" cy="5.66851799%" fx="36.7322747%" fy="5.66851799%" r="101.693564%" id="radialGradient-34">
            <stop stop-color="#FFFFFF" offset="0%"></stop>
            <stop stop-color="#CEE7FA" offset="100%"></stop>
        </radialGradient>
    </defs>
    <g id="V4.4" stroke="none" stroke-width="1" fill="none" fill-rule="evenodd">
        <g id="防火墙-域管" transform="translate(-576.000000, -235.000000)">
            <g id="-mockplus-" transform="translate(576.000000, 235.000000)">
                <g id="矩形" transform="translate(6.000000, 15.000000)" filter="url(#filter-1)">
                    <g>
                        <use fill="url(#linearGradient-2)" fill-rule="evenodd" xlink:href="#path-3"></use>
                        <use fill="black" fill-opacity="1" filter="url(#filter-4)" xlink:href="#path-3"></use>
                    </g>
                    <g>
                        <use fill="url(#linearGradient-5)" fill-rule="evenodd" xlink:href="#path-6"></use>
                        <use fill="black" fill-opacity="1" filter="url(#filter-7)" xlink:href="#path-6"></use>
                    </g>
                    <g id="蒙版">
                        <use fill="url(#linearGradient-8)" fill-rule="evenodd" xlink:href="#path-9"></use>
                        <use fill="black" fill-opacity="1" filter="url(#filter-10)" xlink:href="#path-9"></use>
                    </g>
                    <g id="kevin-lanceplaine-243768-unsplash" transform="translate(4.000000, 4.000000)">
                        <mask id="mask-13" fill="white">
                            <use xlink:href="#path-12"></use>
                        </mask>
                        <g id="蒙版">
                            <use fill="url(#linearGradient-11)" fill-rule="evenodd" xlink:href="#path-12"></use>
                            <use fill="black" fill-opacity="1" filter="url(#filter-14)" xlink:href="#path-12"></use>
                        </g>
                        <path d="M10,-2.5 L10,8.999 L24,8.999 L24,-2.5 L25,-2.5 L25,8.999 L39,8.999 L39,-2.5 L40,-2.5 L40,8.999 L54,8.999 L54,-2.5 L55,-2.5 L55,8.999 L69,8.999 L69,-2.5 L70,-2.5 L70,8.999 L84,8.999 L84,-2.5 L85,-2.5 L85,8.999 L98.999,8.999 L99,-2.5 L100,-2.5 L99.999,8.999 L111.5,9 L111.5,10 L99.999,9.999 L99.999,24 L111.5,24 L111.5,25 L99.999,25 L99.999,39 L111.5,39 L111.5,40 L99.999,40 L99.999,54 L111.5,54 L111.5,55 L99.999,55 L99.999,69 L111.5,69 L111.5,70 L99.999,70 L100,81.5 L99,81.5 L98.999,70 L85,70 L85,81.5 L84,81.5 L84,70 L70,70 L70,81.5 L69,81.5 L69,70 L55,70 L55,81.5 L54,81.5 L54,70 L40,70 L40,81.5 L39,81.5 L39,70 L25,70 L25,81.5 L24,81.5 L24,70 L9.999,70 L10,81.5 L9,81.5 L8.999,70 L-2.5,70 L-2.5,69 L8.999,69 L9,55 L-2.5,55 L-2.5,54 L9,54 L9,40 L-2.5,40 L-2.5,39 L9,39 L9,25 L-2.5,25 L-2.5,24 L9,24 L9,9.999 L-2.5,10 L-2.5,9 L9,8.999 L9,-2.5 L10,-2.5 Z M98.999,69 L98.999,55 L85,55 L85,69 L98.999,69 Z M84,55 L70,55 L70,69 L84,69 L84,55 Z M39,55 L25,55 L25,69 L39,69 L39,55 Z M24,55 L10,55 L9.999,69 L24,69 L24,55 Z M54,55 L40,55 L40,69 L54,69 L54,55 Z M69,55 L55,55 L55,69 L69,69 L69,55 Z M98.999,54 L98.999,40 L85,40 L85,54 L98.999,54 Z M69,40 L55,40 L55,54 L69,54 L69,40 Z M54,40 L40,40 L40,54 L54,54 L54,40 Z M24,40 L10,40 L10,54 L24,54 L24,40 Z M39,40 L25,40 L25,54 L39,54 L39,40 Z M84,40 L70,40 L70,54 L84,54 L84,40 Z M98.999,39 L98.999,25 L85,25 L85,39 L98.999,39 Z M69,25 L55,25 L55,39 L69,39 L69,25 Z M54,25 L40,25 L40,39 L54,39 L54,25 Z M24,25 L10,25 L10,39 L24,39 L24,25 Z M39,25 L25,25 L25,39 L39,39 L39,25 Z M84,25 L70,25 L70,39 L84,39 L84,25 Z M98.999,24 L98.999,9.999 L85,9.999 L85,24 L98.999,24 Z M69,9.999 L55,9.999 L55,24 L69,24 L69,9.999 Z M54,9.999 L40,9.999 L40,24 L54,24 L54,9.999 Z M24,9.999 L10,9.999 L10,24 L24,24 L24,9.999 Z M39,9.999 L25,9.999 L25,24 L39,24 L39,9.999 Z M84,9.999 L70,9.999 L70,24 L84,24 L84,9.999 Z" id="形状结合" fill="url(#linearGradient-15)" fill-rule="nonzero" opacity="0.0958426339" mask="url(#mask-13)"></path>
                        <path d="M9.5,10.5001558 C10.0522847,10.5001558 10.5,10.0524057 10.5,9.5000779 C10.5,8.94775013 10.0522847,8.5 9.5,8.5 C8.94771525,8.5 8.5,8.94775013 8.5,9.5000779 C8.5,10.0524057 8.94771525,10.5001558 9.5,10.5001558 Z M9.5,25.5001558 C10.0522847,25.5001558 10.5,25.0524057 10.5,24.5000779 C10.5,23.9477501 10.0522847,23.5 9.5,23.5 C8.94771525,23.5 8.5,23.9477501 8.5,24.5000779 C8.5,25.0524057 8.94771525,25.5001558 9.5,25.5001558 Z M9.5,40.5001558 C10.0522847,40.5001558 10.5,40.0524057 10.5,39.5000779 C10.5,38.9477501 10.0522847,38.5 9.5,38.5 C8.94771525,38.5 8.5,38.9477501 8.5,39.5000779 C8.5,40.0524057 8.94771525,40.5001558 9.5,40.5001558 Z M9.5,55.5001558 C10.0522847,55.5001558 10.5,55.0524057 10.5,54.5000779 C10.5,53.9477501 10.0522847,53.5 9.5,53.5 C8.94771525,53.5 8.5,53.9477501 8.5,54.5000779 C8.5,55.0524057 8.94771525,55.5001558 9.5,55.5001558 Z M9.5,70.5001558 C10.0522847,70.5001558 10.5,70.0524057 10.5,69.5000779 C10.5,68.9477501 10.0522847,68.5 9.5,68.5 C8.94771525,68.5 8.5,68.9477501 8.5,69.5000779 C8.5,70.0524057 8.94771525,70.5001558 9.5,70.5001558 Z M39.5,10.5001558 C40.0522847,10.5001558 40.5,10.0524057 40.5,9.5000779 C40.5,8.94775013 40.0522847,8.5 39.5,8.5 C38.9477153,8.5 38.5,8.94775013 38.5,9.5000779 C38.5,10.0524057 38.9477153,10.5001558 39.5,10.5001558 Z M39.5,25.5001558 C40.0522847,25.5001558 40.5,25.0524057 40.5,24.5000779 C40.5,23.9477501 40.0522847,23.5 39.5,23.5 C38.9477153,23.5 38.5,23.9477501 38.5,24.5000779 C38.5,25.0524057 38.9477153,25.5001558 39.5,25.5001558 Z M39.5,40.5001558 C40.0522847,40.5001558 40.5,40.0524057 40.5,39.5000779 C40.5,38.9477501 40.0522847,38.5 39.5,38.5 C38.9477153,38.5 38.5,38.9477501 38.5,39.5000779 C38.5,40.0524057 38.9477153,40.5001558 39.5,40.5001558 Z M39.5,55.5001558 C40.0522847,55.5001558 40.5,55.0524057 40.5,54.5000779 C40.5,53.9477501 40.0522847,53.5 39.5,53.5 C38.9477153,53.5 38.5,53.9477501 38.5,54.5000779 C38.5,55.0524057 38.9477153,55.5001558 39.5,55.5001558 Z M39.5,70.5001558 C40.0522847,70.5001558 40.5,70.0524057 40.5,69.5000779 C40.5,68.9477501 40.0522847,68.5 39.5,68.5 C38.9477153,68.5 38.5,68.9477501 38.5,69.5000779 C38.5,70.0524057 38.9477153,70.5001558 39.5,70.5001558 Z M24.5,10.5001558 C25.0522847,10.5001558 25.5,10.0524057 25.5,9.5000779 C25.5,8.94775013 25.0522847,8.5 24.5,8.5 C23.9477153,8.5 23.5,8.94775013 23.5,9.5000779 C23.5,10.0524057 23.9477153,10.5001558 24.5,10.5001558 Z M24.5,25.5001558 C25.0522847,25.5001558 25.5,25.0524057 25.5,24.5000779 C25.5,23.9477501 25.0522847,23.5 24.5,23.5 C23.9477153,23.5 23.5,23.9477501 23.5,24.5000779 C23.5,25.0524057 23.9477153,25.5001558 24.5,25.5001558 Z M24.5,40.5001558 C25.0522847,40.5001558 25.5,40.0524057 25.5,39.5000779 C25.5,38.9477501 25.0522847,38.5 24.5,38.5 C23.9477153,38.5 23.5,38.9477501 23.5,39.5000779 C23.5,40.0524057 23.9477153,40.5001558 24.5,40.5001558 Z M24.5,55.5001558 C25.0522847,55.5001558 25.5,55.0524057 25.5,54.5000779 C25.5,53.9477501 25.0522847,53.5 24.5,53.5 C23.9477153,53.5 23.5,53.9477501 23.5,54.5000779 C23.5,55.0524057 23.9477153,55.5001558 24.5,55.5001558 Z M24.5,70.5001558 C25.0522847,70.5001558 25.5,70.0524057 25.5,69.5000779 C25.5,68.9477501 25.0522847,68.5 24.5,68.5 C23.9477153,68.5 23.5,68.9477501 23.5,69.5000779 C23.5,70.0524057 23.9477153,70.5001558 24.5,70.5001558 Z M54.5,10.5001558 C55.0522847,10.5001558 55.5,10.0524057 55.5,9.5000779 C55.5,8.94775013 55.0522847,8.5 54.5,8.5 C53.9477153,8.5 53.5,8.94775013 53.5,9.5000779 C53.5,10.0524057 53.9477153,10.5001558 54.5,10.5001558 Z M54.5,25.5001558 C55.0522847,25.5001558 55.5,25.0524057 55.5,24.5000779 C55.5,23.9477501 55.0522847,23.5 54.5,23.5 C53.9477153,23.5 53.5,23.9477501 53.5,24.5000779 C53.5,25.0524057 53.9477153,25.5001558 54.5,25.5001558 Z M54.5,40.5001558 C55.0522847,40.5001558 55.5,40.0524057 55.5,39.5000779 C55.5,38.9477501 55.0522847,38.5 54.5,38.5 C53.9477153,38.5 53.5,38.9477501 53.5,39.5000779 C53.5,40.0524057 53.9477153,40.5001558 54.5,40.5001558 Z M54.5,55.5001558 C55.0522847,55.5001558 55.5,55.0524057 55.5,54.5000779 C55.5,53.9477501 55.0522847,53.5 54.5,53.5 C53.9477153,53.5 53.5,53.9477501 53.5,54.5000779 C53.5,55.0524057 53.9477153,55.5001558 54.5,55.5001558 Z M54.5,70.5001558 C55.0522847,70.5001558 55.5,70.0524057 55.5,69.5000779 C55.5,68.9477501 55.0522847,68.5 54.5,68.5 C53.9477153,68.5 53.5,68.9477501 53.5,69.5000779 C53.5,70.0524057 53.9477153,70.5001558 54.5,70.5001558 Z M69.5,10.5001558 C70.0522847,10.5001558 70.5,10.0524057 70.5,9.5000779 C70.5,8.94775013 70.0522847,8.5 69.5,8.5 C68.9477153,8.5 68.5,8.94775013 68.5,9.5000779 C68.5,10.0524057 68.9477153,10.5001558 69.5,10.5001558 Z M84.5,10.5001558 C85.0522847,10.5001558 85.5,10.0524057 85.5,9.5000779 C85.5,8.94775013 85.0522847,8.5 84.5,8.5 C83.9477153,8.5 83.5,8.94775013 83.5,9.5000779 C83.5,10.0524057 83.9477153,10.5001558 84.5,10.5001558 Z M99.5,10.5001558 C100.052285,10.5001558 100.5,10.0524057 100.5,9.5000779 C100.5,8.94775013 100.052285,8.5 99.5,8.5 C98.9477153,8.5 98.5,8.94775013 98.5,9.5000779 C98.5,10.0524057 98.9477153,10.5001558 99.5,10.5001558 Z M69.5,25.5001558 C70.0522847,25.5001558 70.5,25.0524057 70.5,24.5000779 C70.5,23.9477501 70.0522847,23.5 69.5,23.5 C68.9477153,23.5 68.5,23.9477501 68.5,24.5000779 C68.5,25.0524057 68.9477153,25.5001558 69.5,25.5001558 Z M84.5,25.5001558 C85.0522847,25.5001558 85.5,25.0524057 85.5,24.5000779 C85.5,23.9477501 85.0522847,23.5 84.5,23.5 C83.9477153,23.5 83.5,23.9477501 83.5,24.5000779 C83.5,25.0524057 83.9477153,25.5001558 84.5,25.5001558 Z M99.5,25.5001558 C100.052285,25.5001558 100.5,25.0524057 100.5,24.5000779 C100.5,23.9477501 100.052285,23.5 99.5,23.5 C98.9477153,23.5 98.5,23.9477501 98.5,24.5000779 C98.5,25.0524057 98.9477153,25.5001558 99.5,25.5001558 Z M69.5,40.5001558 C70.0522847,40.5001558 70.5,40.0524057 70.5,39.5000779 C70.5,38.9477501 70.0522847,38.5 69.5,38.5 C68.9477153,38.5 68.5,38.9477501 68.5,39.5000779 C68.5,40.0524057 68.9477153,40.5001558 69.5,40.5001558 Z M84.5,40.5001558 C85.0522847,40.5001558 85.5,40.0524057 85.5,39.5000779 C85.5,38.9477501 85.0522847,38.5 84.5,38.5 C83.9477153,38.5 83.5,38.9477501 83.5,39.5000779 C83.5,40.0524057 83.9477153,40.5001558 84.5,40.5001558 Z M99.5,40.5001558 C100.052285,40.5001558 100.5,40.0524057 100.5,39.5000779 C100.5,38.9477501 100.052285,38.5 99.5,38.5 C98.9477153,38.5 98.5,38.9477501 98.5,39.5000779 C98.5,40.0524057 98.9477153,40.5001558 99.5,40.5001558 Z M69.5,55.5001558 C70.0522847,55.5001558 70.5,55.0524057 70.5,54.5000779 C70.5,53.9477501 70.0522847,53.5 69.5,53.5 C68.9477153,53.5 68.5,53.9477501 68.5,54.5000779 C68.5,55.0524057 68.9477153,55.5001558 69.5,55.5001558 Z M84.5,55.5001558 C85.0522847,55.5001558 85.5,55.0524057 85.5,54.5000779 C85.5,53.9477501 85.0522847,53.5 84.5,53.5 C83.9477153,53.5 83.5,53.9477501 83.5,54.5000779 C83.5,55.0524057 83.9477153,55.5001558 84.5,55.5001558 Z M99.5,55.5001558 C100.052285,55.5001558 100.5,55.0524057 100.5,54.5000779 C100.5,53.9477501 100.052285,53.5 99.5,53.5 C98.9477153,53.5 98.5,53.9477501 98.5,54.5000779 C98.5,55.0524057 98.9477153,55.5001558 99.5,55.5001558 Z M69.5,70.5001558 C70.0522847,70.5001558 70.5,70.0524057 70.5,69.5000779 C70.5,68.9477501 70.0522847,68.5 69.5,68.5 C68.9477153,68.5 68.5,68.9477501 68.5,69.5000779 C68.5,70.0524057 68.9477153,70.5001558 69.5,70.5001558 Z M84.5,70.5001558 C85.0522847,70.5001558 85.5,70.0524057 85.5,69.5000779 C85.5,68.9477501 85.0522847,68.5 84.5,68.5 C83.9477153,68.5 83.5,68.9477501 83.5,69.5000779 C83.5,70.0524057 83.9477153,70.5001558 84.5,70.5001558 Z M99.5,70.5001558 C100.052285,70.5001558 100.5,70.0524057 100.5,69.5000779 C100.5,68.9477501 100.052285,68.5 99.5,68.5 C98.9477153,68.5 98.5,68.9477501 98.5,69.5000779 C98.5,70.0524057 98.9477153,70.5001558 99.5,70.5001558 Z" id="形状结合" fill="url(#linearGradient-16)" opacity="0.766764323" mask="url(#mask-13)"></path>
                    </g>
                    <polygon id="路径-6备份-7" fill="url(#linearGradient-17)" fill-rule="nonzero" points="61 34 61 63 55 63 55 34"></polygon>
                    <path d="M54.25,28.25 L54.25,33.25 L50.75,33.25 C48.0612453,33.25 45.8681819,35.3723067 45.7546195,38.0331104 L45.75,38.25 L45.7499752,55.7555511 C45.7378795,61.1847775 41.4013751,65.593819 36.0076339,65.7300292 L35.7277211,65.7332474 L29.2444303,65.7188033 L29.2555697,60.7188157 L35.7388606,60.7332598 C38.4276086,60.73925 40.6253948,58.6218345 40.7448849,55.9612904 L40.75,55.7332722 L40.75,38.25 C40.75,32.8207601 45.0766708,28.4020683 50.4700952,28.2538418 L50.75,28.25 L54.25,28.25 Z" id="路径-6备份-10" fill="url(#linearGradient-18)" fill-rule="nonzero" transform="translate(41.747215, 46.991624) scale(1, -1) rotate(-90.000000) translate(-41.747215, -46.991624) "></path>
                    <path d="M86.75,28.25 L86.75,33.25 L83.25,33.25 C80.5612453,33.25 78.3681819,35.3723067 78.2546195,38.0331104 L78.25,38.25 L78.25,55.75 C78.25,61.1792399 73.9233292,65.5979317 68.5299048,65.7461582 L68.25,65.75 L61.75,65.75 L61.75,60.75 L68.25,60.75 C70.9387547,60.75 73.1318181,58.6276933 73.2453805,55.9668896 L73.25,55.75 L73.25,38.25 C73.25,32.8207601 77.5766708,28.4020683 82.9700952,28.2538418 L83.25,28.25 L86.75,28.25 Z" id="路径-6备份-11" fill="url(#linearGradient-19)" fill-rule="nonzero" transform="translate(74.250000, 47.000000) scale(-1, -1) rotate(-90.000000) translate(-74.250000, -47.000000) "></path>
                    <g id="矩形备份-5" opacity="0.963053385" transform="translate(26.000000, 63.000000) rotate(-360.000000) translate(-26.000000, -63.000000) ">
                        <use fill="black" fill-opacity="1" filter="url(#filter-22)" xlink:href="#path-21"></use>
                        <use fill="url(#linearGradient-20)" fill-rule="evenodd" xlink:href="#path-21"></use>
                        <use fill="black" fill-opacity="1" filter="url(#filter-23)" xlink:href="#path-21"></use>
                    </g>
                    <g id="矩形备份-8" opacity="0.963402158">
                        <use fill="black" fill-opacity="1" filter="url(#filter-25)" xlink:href="#path-24"></use>
                        <use fill="url(#linearGradient-20)" fill-rule="evenodd" xlink:href="#path-24"></use>
                        <use fill="black" fill-opacity="1" filter="url(#filter-26)" xlink:href="#path-24"></use>
                    </g>
                    <path d="M91.5384615,60 C91.8358456,60 92.0769231,60.2410774 92.0769231,60.5384615 L92.076,63 L94.4615385,63 C94.7589226,63 95,63.2410774 95,63.5384615 C95,63.8358456 94.7589226,64.0769231 94.4615385,64.0769231 L92.076,64.076 L92.0769231,66.4615385 C92.0769231,66.7589226 91.8358456,67 91.5384615,67 C91.2410774,67 91,66.7589226 91,66.4615385 L90.999,64.076 L88.5384615,64.0769231 C88.2410774,64.0769231 88,63.8358456 88,63.5384615 C88,63.2410774 88.2410774,63 88.5384615,63 L90.999,63 L91,60.5384615 C91,60.2410774 91.2410774,60 91.5384615,60 Z" id="形状结合" fill="#6D8CAB"></path>
                    <g id="矩形备份-9" opacity="0.963053385" transform="translate(58.500000, 63.000000) scale(-1, 1) translate(-58.500000, -63.000000) ">
                        <use fill="black" fill-opacity="1" filter="url(#filter-28)" xlink:href="#path-27"></use>
                        <use fill="url(#linearGradient-20)" fill-rule="evenodd" xlink:href="#path-27"></use>
                        <use fill="black" fill-opacity="1" filter="url(#filter-29)" xlink:href="#path-27"></use>
                    </g>
                    <g id="椭圆形-+-椭圆形备份-16-蒙版" transform="translate(44.250000, 13.250000)">
                        <mask id="mask-32" fill="white">
                            <use xlink:href="#path-31"></use>
                        </mask>
                        <g id="蒙版">
                            <use fill-opacity="0.4" fill="url(#linearGradient-30)" fill-rule="evenodd" xlink:href="#path-31"></use>
                            <use fill="black" fill-opacity="1" filter="url(#filter-33)" xlink:href="#path-31"></use>
                        </g>
                        <circle id="椭圆形" fill="url(#radialGradient-34)" opacity="0.92359561" mask="url(#mask-32)" cx="13.75" cy="10.75" r="4"></circle>
                        <circle id="椭圆形备份-16" fill="url(#radialGradient-34)" mask="url(#mask-32)" cx="13.75" cy="29.75" r="13"></circle>
                    </g>
                </g>
            </g>
        </g>
    </g>
</svg>