<?xml version="1.0" encoding="UTF-8"?>
<svg width="16px" height="16px" viewBox="0 0 16 16" version="1.1" xmlns="http://www.w3.org/2000/svg" xmlns:xlink="http://www.w3.org/1999/xlink">
    <title>移除</title>
    <g id="移除" stroke="none" stroke-width="1" fill="none" fill-rule="evenodd">
        <path d="M13,5.00145664 C13.2454599,5.00145664 13.4496084,5.1783318 13.4919443,5.41158101 L13.5,5.50145664 L13.5,13.5014566 C13.5,14.82694 12.4684641,15.9114953 11.1643757,15.996139 L11,16.0014566 L5,16.0014566 C3.6745166,16.0014566 2.58996133,14.9699207 2.50531768,13.6658323 L2.5,13.5014566 L2.5,5.50145664 C2.5,5.22531426 2.72385763,5.00145664 3,5.00145664 C3.24545989,5.00145664 3.44960837,5.1783318 3.49194433,5.41158101 L3.5,5.50145664 L3.5,13.5014566 C3.5,14.2811528 4.09488808,14.9219053 4.85553999,14.9945901 L5,15.0014566 L11,15.0014566 C11.7796961,15.0014566 12.4204487,14.4065686 12.4931334,13.6459166 L12.5,13.5014566 L12.5,5.50145664 C12.5,5.22531426 12.7238576,5.00145664 13,5.00145664 Z M6.5,6 C6.77614237,6 7,6.22385763 7,6.5 L7,12.5 C7,12.7761424 6.77614237,13 6.5,13 C6.22385763,13 6,12.7761424 6,12.5 L6,6.5 C6,6.22385763 6.22385763,6 6.5,6 Z M9.5,6 C9.77614237,6 10,6.22385763 10,6.5 L10,12.5 C10,12.7761424 9.77614237,13 9.5,13 C9.22385763,13 9,12.7761424 9,12.5 L9,6.5 C9,6.22385763 9.22385763,6 9.5,6 Z M1.5,3 L14.5,3 C14.7761424,3 15,3.22385763 15,3.5 C15,3.77614237 14.7761424,4 14.5,4 L1.5,4 C1.22385763,4 1,3.77614237 1,3.5 C1,3.22385763 1.22385763,3 1.5,3 Z M9.5,1 C9.77614237,1 10,1.22385763 10,1.5 C10,1.77614237 9.77614237,2 9.5,2 L6.5,2 C6.22385763,2 6,1.77614237 6,1.5 C6,1.22385763 6.22385763,1 6.5,1 L9.5,1 Z" id="形状结合" fill="#626E88" fill-rule="nonzero"></path>
    </g>
</svg>