<?xml version="1.0" encoding="UTF-8"?>
<svg width="96px" height="96px" viewBox="0 0 96 96" version="1.1" xmlns="http://www.w3.org/2000/svg" xmlns:xlink="http://www.w3.org/1999/xlink">
    <title>ICON/可信保护</title>
    <defs>
        <filter x="-21.9%" y="-19.6%" width="139.8%" height="143.5%" filterUnits="objectBoundingBox" id="filter-1">
            <feOffset dx="1" dy="3" in="SourceAlpha" result="shadowOffsetOuter1"></feOffset>
            <feGaussianBlur stdDeviation="2" in="shadowOffsetOuter1" result="shadowBlurOuter1"></feGaussianBlur>
            <feColorMatrix values="0 0 0 0 0   0 0 0 0 0.429098353   0 0 0 0 0.663082842  0 0 0 0.177420236 0" type="matrix" in="shadowBlurOuter1" result="shadowMatrixOuter1"></feColorMatrix>
            <feMerge>
                <feMergeNode in="shadowMatrixOuter1"></feMergeNode>
                <feMergeNode in="SourceGraphic"></feMergeNode>
            </feMerge>
        </filter>
        <linearGradient x1="50%" y1="0%" x2="50%" y2="99.1548978%" id="linearGradient-2">
            <stop stop-color="#69EEFF" offset="0.154679305%"></stop>
            <stop stop-color="#ADB4FF" offset="100%"></stop>
        </linearGradient>
        <linearGradient x1="50%" y1="-40.8887737%" x2="50%" y2="100%" id="linearGradient-3">
            <stop stop-color="#58D9FF" offset="0%"></stop>
            <stop stop-color="#3A82F9" offset="100%"></stop>
        </linearGradient>
        <linearGradient x1="50%" y1="-2.81825888%" x2="50%" y2="100%" id="linearGradient-4">
            <stop stop-color="#FFFFFF" offset="0%"></stop>
            <stop stop-color="#E5EFFF" offset="100%"></stop>
        </linearGradient>
        <linearGradient x1="50%" y1="0.153372107%" x2="50%" y2="99.1548978%" id="linearGradient-5">
            <stop stop-color="#69EEFF" offset="0%"></stop>
            <stop stop-color="#008FEC" offset="100%"></stop>
        </linearGradient>
        <linearGradient x1="50%" y1="0%" x2="50%" y2="100%" id="linearGradient-6">
            <stop stop-color="#00D9F6" offset="0%"></stop>
            <stop stop-color="#4250FF" offset="100%"></stop>
        </linearGradient>
        <path d="M21.5482718,45.4108065 C21.8438617,45.4108065 22.0822408,45.6491855 22.0822408,45.9447755 L22.0822408,52.7020262 C22.0822408,54.4056416 20.9316647,55.9535161 19.2630115,56.2967819 C17.19706,56.7195074 15.3504172,55.3400874 15.0071514,53.4425904 C14.946762,53.1120381 15.201033,52.8037346 15.537942,52.8037346 L16.6408423,52.8037346 C16.8760429,52.8037346 17.0826381,52.9562972 17.1462058,53.1819627 C17.3114819,53.7826778 17.8645213,54.227652 18.5160906,54.227652 C19.3011522,54.227652 19.9368296,53.5887962 19.9368296,52.8037346 L19.9368296,45.9447755 C19.9368296,45.6491855 20.1752086,45.4108065 20.4707986,45.4108065 L21.5482718,45.4108065 Z M21.0015892,31 C21.5826182,31 22.0536353,31.4710171 22.0536353,32.0520461 C22.0536353,32.0676761 22.0532944,32.0832265 22.0526198,32.0986903 C28.1763544,32.631187 33,37.7869854 33,44.0504569 L33,44.0504569 L33,44.8355185 C31.8939213,43.9678188 30.5049662,43.4465634 28.992054,43.4465634 C27.3583631,43.4465634 25.870878,44.0536353 24.7298371,45.0484704 C23.6746126,44.3079062 22.3905443,43.8692888 21.0015892,43.8692888 C19.6126341,43.8692888 18.3285658,44.3079062 17.2733413,45.0484704 C16.1323004,44.0536353 14.6448153,43.4465634 13.0111244,43.4465634 C11.4950338,43.4465634 10.1060787,43.9678188 9,44.8355185 L9,44.8355185 L9,44.0504569 C9,37.790172 13.8262184,32.6318024 19.9509509,32.0976624 L19.9495431,32.0520461 C19.9495431,31.4710171 20.4205602,31 21.0015892,31 Z" id="path-7"></path>
        <filter x="-22.9%" y="-13.8%" width="145.8%" height="143.4%" filterUnits="objectBoundingBox" id="filter-8">
            <feOffset dx="0" dy="2" in="SourceAlpha" result="shadowOffsetOuter1"></feOffset>
            <feGaussianBlur stdDeviation="1.5" in="shadowOffsetOuter1" result="shadowBlurOuter1"></feGaussianBlur>
            <feColorMatrix values="0 0 0 0 0   0 0 0 0 0.613568073   0 0 0 0 1  0 0 0 0.308991546 0" type="matrix" in="shadowBlurOuter1"></feColorMatrix>
        </filter>
    </defs>
    <g id="高保真（远古版本）" stroke="none" stroke-width="1" fill="none" fill-rule="evenodd">
        <g id="ICON/可信保护">
            <rect id="矩形" fill="#FF6969" opacity="0" x="0" y="0" width="96" height="96"></rect>
            <g id="编组-2" filter="url(#filter-1)" transform="translate(12.000000, 12.000000)">
                <g id="编组" transform="translate(5.375000, 0.000000)">
                    <path d="M63.8,0 L6.2,0 C2.77583455,0 0,2.77583455 0,6.2 L0,50.8 C0,54.2241654 2.77583455,57 6.2,57 L63.8,57 C67.2241654,57 70,54.2241654 70,50.8 L70,6.2 C70,2.77583455 67.2241654,0 63.8,0 Z M63.8,3 C65.5673112,3 67,4.4326888 67,6.2 L67,50.8 C67,52.5673112 65.5673112,54 63.8,54 L6.2,54 C4.4326888,54 3,52.5673112 3,50.8 L3,6.2 C3,4.4326888 4.4326888,3 6.2,3 L63.8,3 Z" id="矩形" fill="url(#linearGradient-2)" fill-rule="nonzero"></path>
                    <rect id="矩形" fill="url(#linearGradient-3)" x="3" y="3" width="64" height="51" rx="3.2"></rect>
                    <path d="M52.677933,12.4729709 C52.9349091,12.7299471 52.9349091,13.1465878 52.677933,13.403564 L43.9923975,22.0890995 L43.9923975,22.0890995 C43.889607,22.19189 43.7612702,22.2535642 43.6278241,22.2741223 L43.5271009,22.2818316 C43.3586967,22.2818316 43.1902925,22.2175876 43.0618044,22.0890995 L38.7190367,17.7463318 C38.4620605,17.4893556 38.4620605,17.0727149 38.7190367,16.8157387 C38.9760129,16.5587625 39.3926536,16.5587625 39.6496298,16.8157387 L43.5273045,20.6932388 L51.7473399,12.4729709 C52.0043161,12.2159948 52.4209568,12.2159948 52.677933,12.4729709 Z" id="形状结合" stroke="#FFFFFF" fill="#FFFFFF" fill-rule="nonzero"></path>
                    <rect id="矩形" fill="#FFFFFF" fill-rule="nonzero" x="17" y="16" width="17" height="3" rx="1.5"></rect>
                    <rect id="矩形备份" fill="#FFFFFF" fill-rule="nonzero" x="17" y="28" width="36" height="3" rx="1.5"></rect>
                    <rect id="矩形备份-3" fill="#FFFFFF" fill-rule="nonzero" x="17" y="40" width="36" height="3" rx="1.5"></rect>
                </g>
                <path d="M20.9227903,19.5019264 C29.0480691,20.360384 34.7797685,21.5049398 41.1887492,23.4535323 C41.8313271,23.6412428 42.3750879,24.029199 42.7595752,24.5386953 C43.148768,25.0544267 43.3746381,25.6947064 43.3739589,26.375198 C43.373959,28.3760798 43.3975477,30.2495419 43.4196332,32.00617 C43.4279732,32.6695119 43.4361036,33.3162763 43.4426242,33.9414671 C43.5885424,44.2506723 43.5921647,50.7016561 40.9157659,55.986599 C38.5368738,60.6840711 34.0639121,64.5215301 25.4958067,69.1857494 C23.7835263,70.132695 22.4367354,70.5 21.0710437,70.5 C19.6758323,70.5 18.3605926,70.1340324 16.6216851,69.1593595 C8.91260307,64.8656134 4.5049501,61.0956806 1.94906988,56.8208701 C-0.915288592,52.0301175 -1.47802824,46.5678504 -1.49929434,38.8293384 L-1.49929434,38.8293384 L-1.49956396,37.8701005 C-1.49669107,36.4142746 -1.48001698,34.8771185 -1.46233089,33.249702 C-1.43877481,30.8521631 -1.41767319,28.7074601 -1.41767319,26.375198 C-1.41256144,25.6972412 -1.19311956,25.0706636 -0.816844393,24.5611082 C-0.439178914,24.0496701 0.0963678943,23.656112 0.73535957,23.4562049 C3.63290944,22.5570206 6.7463829,21.7068204 10.0483261,20.9560909 C13.345248,20.1909193 17.0122125,19.7003099 20.9227903,19.5019264 Z" id="路径" stroke="url(#linearGradient-5)" stroke-width="3" fill="url(#linearGradient-4)"></path>
                <g id="形状结合">
                    <use fill="black" fill-opacity="1" filter="url(#filter-8)" xlink:href="#path-7"></use>
                    <use fill="url(#linearGradient-6)" fill-rule="evenodd" xlink:href="#path-7"></use>
                </g>
                <path d="M21.5482718,44.9108065 C22.0818886,44.9108065 22.5201226,45.313466 22.5761821,45.8319935 L22.5822408,45.9447755 L22.5822408,52.7020262 C22.5822408,54.6662872 21.2441456,56.3997043 19.3632425,56.7866326 C17.0745079,57.2549429 14.9180689,55.7589134 14.5152923,53.5324493 C14.4061005,52.9347683 14.8299505,52.3778141 15.4182077,52.3105296 L15.537942,52.3037346 L16.6408423,52.3037346 C17.0577522,52.3037346 17.4291997,52.5524055 17.587398,52.9317271 L17.6282922,53.0493251 C17.7371524,53.4449901 18.1017801,53.727652 18.5160906,53.727652 C18.9877755,53.727652 19.3773766,53.3706424 19.4306274,52.91141 L19.4368296,52.8037346 L19.4368296,45.9447755 C19.4368296,45.4111587 19.839489,44.9729247 20.3580166,44.9168652 L20.4707986,44.9108065 L21.5482718,44.9108065 Z M21.5482718,45.9108065 L20.4707986,45.9108065 C20.4578335,45.9108065 20.4470578,45.9172605 20.4413146,45.9273254 L20.4368296,45.9447755 L20.4368296,52.8037346 C20.4368296,53.8652004 19.5770358,54.727652 18.5160906,54.727652 C17.6482303,54.727652 16.891496,54.1410266 16.6649356,53.3175317 L16.6572343,53.3077405 L16.6408423,53.3037346 L15.537942,53.3037346 C15.5145023,53.3037346 15.4944737,53.3278987 15.4991653,53.3535828 C15.8031028,55.0336819 17.4290458,56.1616799 19.162264,55.8070371 C20.5080203,55.5301958 21.4969237,54.3102385 21.576996,52.8885473 L21.5822408,52.7020262 L21.5822408,45.9447755 C21.5822408,45.9318105 21.5757868,45.9210348 21.5657219,45.9152916 L21.5482718,45.9108065 Z M21.0015892,30.5 C21.668278,30.5 22.2367874,30.9203563 22.4565354,31.5104869 L22.499,31.643 L22.7017049,31.6681301 C28.512276,32.4600209 33.0305144,37.2483984 33.4657311,43.124896 L33.4848521,43.4351744 L33.4962117,43.7420611 L33.5,44.0504569 L33.5,45.8632544 L32.6913889,45.2289129 C31.6379035,44.4024718 30.3498295,43.9465634 28.992054,43.9465634 C27.6246658,43.9465634 26.3304902,44.4087504 25.2797829,45.2413037 L25.05842,45.4253434 L24.763203,45.6827332 L24.4426097,45.4577386 C23.4387743,44.7532396 22.2492058,44.3692888 21.0015892,44.3692888 C19.8499431,44.3692888 18.7477581,44.6964421 17.7954619,45.300881 L17.5605686,45.4577386 L17.2399754,45.6827332 L16.9447584,45.4253434 C15.8571969,44.4771352 14.4761832,43.9465634 13.0111244,43.9465634 C11.8378402,43.9465634 10.7179136,44.2852045 9.76091776,44.9055801 L9.52512659,45.0665105 L8.5,45.836098 L8.5,44.0504569 C8.5,37.8768605 13.023384,32.6770335 19.0004343,31.7121205 L19.300484,31.6674191 L19.503,31.641 C19.6605047,31.0736263 20.1287396,30.6369814 20.7121755,30.5269364 L20.8603214,30.5063427 L21.0015892,30.5 Z M21.0015892,31.5 C20.7271912,31.5 20.4995523,31.7001992 20.456595,31.9512574 L20.4493052,32.0366223 L20.4652943,32.5547042 L19.9943912,32.5957718 C14.1877057,33.1021748 9.65334175,37.9234084 9.50380925,43.753175 L9.502,43.893 L9.72395,43.7681836 C10.5328485,43.3358994 11.4202726,43.0657428 12.3457893,42.9779686 L12.6945647,42.953642 L13.0111244,42.9465634 C14.4190913,42.9465634 15.761912,43.3670042 16.8999289,44.1326126 L17.140604,44.3019273 L17.305,44.428 L17.5006797,44.3102327 C18.3703913,43.8058249 19.3388016,43.49326 20.3516043,43.3993098 L20.6907749,43.3761267 L21.0015892,43.3692888 C22.1451362,43.3692888 23.2480995,43.6461943 24.2359846,44.1632816 L24.5024987,44.3102327 L24.697,44.428 L24.8625744,44.3019273 C25.8853866,43.5500497 27.0912063,43.0876982 28.3701886,42.9740771 L28.6913949,42.9529713 L28.992054,42.9465634 C30.0376957,42.9465634 31.048676,43.1785614 31.9681728,43.6131691 L32.2712055,43.7655021 L32.498,43.892 L32.4964044,43.7606819 C32.3561331,38.1140694 28.1107561,33.4286426 22.5945317,32.662819 L22.3030459,32.6261477 L22.0093051,32.5968106 L21.5322216,32.5553252 L21.5536353,32.0520461 C21.5536353,31.7471595 21.3064758,31.5 21.0015892,31.5 Z" id="形状结合" fill-opacity="0.432704259" fill="#FFFFFF" fill-rule="nonzero"></path>
            </g>
        </g>
    </g>
</svg>