<?xml version="1.0" encoding="UTF-8"?>
<svg width="16px" height="16px" viewBox="0 0 16 16" version="1.1" xmlns="http://www.w3.org/2000/svg" xmlns:xlink="http://www.w3.org/1999/xlink">
    <title>Icon/Whitelist</title>
    <g id="V4.4" stroke="none" stroke-width="1" fill="none" fill-rule="evenodd">
        <g id="病毒查杀_病毒库更新弹窗" transform="translate(-660.000000, -620.000000)">
            <g id="编组" transform="translate(68.000000, 47.000000)">
                <g id="编组-8" transform="translate(245.000000, 563.000000)">
                    <g id="编组-5备份" transform="translate(347.000000, 9.000000)">
                        <g id="编组-2" transform="translate(0.000000, 1.000000)">
                            <rect id="矩形" fill="#FF6969" opacity="0" x="0" y="0" width="16" height="16"></rect>
                            <path d="M14,1 C14.5522847,1 15,1.44771525 15,2 L15.0005166,8.25812038 C14.6921841,8.05166752 14.3569136,7.88231341 14.0010919,7.75644465 L14,2 L2,2 L2,14 L8.46836703,14.0012214 C8.64944861,14.3653237 8.87840173,14.7014234 9.14698941,15.0012835 L2,15 C1.44771525,15 1,14.5522847 1,14 L1,2 C1,1.44771525 1.44771525,1 2,1 L14,1 Z M15.1819805,10.3535534 C15.3772427,10.5488155 15.3772427,10.865398 15.1819805,11.0606602 L12.3535534,13.8890873 C12.1582912,14.0843494 11.8417088,14.0843494 11.6464466,13.8890873 L11.612,13.848 L10.2350273,12.470922 C10.0397652,12.2756598 10.0397652,11.9590774 10.2350273,11.7638152 C10.4302895,11.5685531 10.7468719,11.5685531 10.9421341,11.7638152 L12.003,12.824 L14.4748737,10.3535534 C14.6701359,10.1582912 14.9867184,10.1582912 15.1819805,10.3535534 Z M8.46786527,9.99978782 C8.31163784,10.3141138 8.19108319,10.6492978 8.11149861,11.0000423 L3.5,11 C3.22385763,11 3,10.7761424 3,10.5 C3,10.2238576 3.22385763,10 3.5,10 L8.46786527,9.99978782 Z M12.5,7 C12.7761424,7 13,7.22385763 13,7.5 L12.9976938,7.52721005 C12.8342707,7.50922961 12.6682132,7.5 12.5,7.5 C11.7566221,7.5 11.0553445,7.68025305 10.4374904,7.99943599 L3.5,8 C3.22385763,8 3,7.77614237 3,7.5 C3,7.22385763 3.22385763,7 3.5,7 L12.5,7 Z M12.5,4 C12.7761424,4 13,4.22385763 13,4.5 C13,4.77614237 12.7761424,5 12.5,5 L3.5,5 C3.22385763,5 3,4.77614237 3,4.5 C3,4.22385763 3.22385763,4 3.5,4 L12.5,4 Z" id="形状结合" fill="#626E88" fill-rule="nonzero"></path>
                        </g>
                    </g>
                </g>
            </g>
        </g>
    </g>
</svg>