<?xml version="1.0" encoding="UTF-8"?>
<svg width="56px" height="56px" viewBox="0 0 56 56" version="1.1" xmlns="http://www.w3.org/2000/svg" xmlns:xlink="http://www.w3.org/1999/xlink">
    <title>ICON/Security_tools/Document_shredder</title>
    <defs>
        <linearGradient x1="50%" y1="0%" x2="50%" y2="100%" id="linearGradient-1">
            <stop stop-color="#EBF5FF" offset="0%"></stop>
            <stop stop-color="#AEDAFF" offset="100%"></stop>
        </linearGradient>
        <linearGradient x1="50%" y1="26.7289309%" x2="50%" y2="100%" id="linearGradient-2">
            <stop stop-color="#E0F0FF" offset="0%"></stop>
            <stop stop-color="#97D0FF" offset="100%"></stop>
        </linearGradient>
        <rect id="path-3" x="0" y="19.8333333" width="38.5" height="9.33333333" rx="3"></rect>
        <filter x="-5.2%" y="-21.4%" width="110.4%" height="142.9%" filterUnits="objectBoundingBox" id="filter-4">
            <feGaussianBlur stdDeviation="1.5" in="SourceAlpha" result="shadowBlurInner1"></feGaussianBlur>
            <feOffset dx="0" dy="-1" in="shadowBlurInner1" result="shadowOffsetInner1"></feOffset>
            <feComposite in="shadowOffsetInner1" in2="SourceAlpha" operator="arithmetic" k2="-1" k3="1" result="shadowInnerInner1"></feComposite>
            <feColorMatrix values="0 0 0 0 0   0 0 0 0 0   0 0 0 0 0  0 0 0 0.495167125 0" type="matrix" in="shadowInnerInner1" result="shadowMatrixInner1"></feColorMatrix>
            <feGaussianBlur stdDeviation="1.5" in="SourceAlpha" result="shadowBlurInner2"></feGaussianBlur>
            <feOffset dx="0" dy="1" in="shadowBlurInner2" result="shadowOffsetInner2"></feOffset>
            <feComposite in="shadowOffsetInner2" in2="SourceAlpha" operator="arithmetic" k2="-1" k3="1" result="shadowInnerInner2"></feComposite>
            <feColorMatrix values="0 0 0 0 1   0 0 0 0 1   0 0 0 0 1  0 0 0 0.263111034 0" type="matrix" in="shadowInnerInner2" result="shadowMatrixInner2"></feColorMatrix>
            <feMerge>
                <feMergeNode in="shadowMatrixInner1"></feMergeNode>
                <feMergeNode in="shadowMatrixInner2"></feMergeNode>
            </feMerge>
        </filter>
        <linearGradient x1="50%" y1="0%" x2="50%" y2="98.4596946%" id="linearGradient-5">
            <stop stop-color="#FFE044" offset="0%"></stop>
            <stop stop-color="#FF9E00" offset="100%"></stop>
        </linearGradient>
        <circle id="path-6" cx="32.9583333" cy="24.5" r="1.16666667"></circle>
        <filter x="-385.7%" y="-257.1%" width="871.4%" height="871.4%" filterUnits="objectBoundingBox" id="filter-7">
            <feOffset dx="0" dy="3" in="SourceAlpha" result="shadowOffsetOuter1"></feOffset>
            <feGaussianBlur stdDeviation="2.5" in="shadowOffsetOuter1" result="shadowBlurOuter1"></feGaussianBlur>
            <feColorMatrix values="0 0 0 0 1   0 0 0 0 0.743085017   0 0 0 0 0.310386099  0 0 0 0.3 0" type="matrix" in="shadowBlurOuter1"></feColorMatrix>
        </filter>
        <linearGradient x1="50%" y1="0%" x2="50%" y2="100%" id="linearGradient-8">
            <stop stop-color="#FF9898" offset="0%"></stop>
            <stop stop-color="#FF5C00" offset="100%"></stop>
        </linearGradient>
        <linearGradient x1="50%" y1="0.584742406%" x2="50%" y2="100%" id="linearGradient-9">
            <stop stop-color="#0086FF" stop-opacity="0.496090335" offset="0%"></stop>
            <stop stop-color="#7FC5FF" stop-opacity="0.521168529" offset="100%"></stop>
        </linearGradient>
    </defs>
    <g id="ICON/Security_tools/Document_shredder" stroke="none" stroke-width="1" fill="none" fill-rule="evenodd">
        <rect id="矩形" fill-opacity="0" fill="#FFFFFF" x="0" y="0" width="56" height="56"></rect>
        <g id="编组" transform="translate(8.750000, 7.000000)">
            <path d="M8.08333333,0 L27.4177368,0 L27.4177368,0 L34.4166667,7.00323521 L34.4166667,21 L4.08333333,21 L4.08333333,4 C4.08333333,1.790861 5.87419433,4.05812251e-16 8.08333333,0 Z" id="矩形" fill="url(#linearGradient-1)"></path>
            <path d="M7,23.9166667 C7.64433221,23.9166667 8.16666667,24.4390011 8.16666667,25.0833333 L8.16666667,33.8333333 C8.16666667,34.4776655 7.64433221,35 7,35 C6.35566779,35 5.83333333,34.4776655 5.83333333,33.8333333 L5.83333333,25.0833333 C5.83333333,24.4390011 6.35566779,23.9166667 7,23.9166667 Z M25.6666667,26.8333333 C26.3109989,26.8333333 26.8333333,27.3556678 26.8333333,28 L26.8333333,36.75 C26.8333333,37.3943322 26.3109989,37.9166667 25.6666667,37.9166667 C25.0223345,37.9166667 24.5,37.3943322 24.5,36.75 L24.5,28 C24.5,27.3556678 25.0223345,26.8333333 25.6666667,26.8333333 Z M12.8333333,27.4166667 C13.4776655,27.4166667 14,27.9390011 14,28.5833333 L14,36.1666667 C14,36.8109989 13.4776655,37.3333333 12.8333333,37.3333333 C12.1890011,37.3333333 11.6666667,36.8109989 11.6666667,36.1666667 L11.6666667,28.5833333 C11.6666667,27.9390011 12.1890011,27.4166667 12.8333333,27.4166667 Z M19.25,31.5 C19.8943322,31.5 20.4166667,32.0223345 20.4166667,32.6666667 L20.4166667,40.8333333 C20.4166667,41.4776655 19.8943322,42 19.25,42 C18.6056678,42 18.0833333,41.4776655 18.0833333,40.8333333 L18.0833333,32.6666667 C18.0833333,32.0223345 18.6056678,31.5 19.25,31.5 Z M32.0833333,30.3333333 C32.7276655,30.3333333 33.25,30.8556678 33.25,31.5 L33.25,37.9166667 C33.25,38.5609989 32.7276655,39.0833333 32.0833333,39.0833333 C31.4390011,39.0833333 30.9166667,38.5609989 30.9166667,37.9166667 L30.9166667,31.5 C30.9166667,30.8556678 31.4390011,30.3333333 32.0833333,30.3333333 Z" id="形状结合" fill="url(#linearGradient-2)"></path>
            <g id="形状结合">
                <use fill="#46454C" fill-rule="evenodd" xlink:href="#path-3"></use>
                <use fill="black" fill-opacity="1" filter="url(#filter-4)" xlink:href="#path-3"></use>
            </g>
            <g id="椭圆形">
                <use fill="black" fill-opacity="1" filter="url(#filter-7)" xlink:href="#path-6"></use>
                <use fill="url(#linearGradient-5)" fill-rule="evenodd" xlink:href="#path-6"></use>
            </g>
            <circle id="椭圆形" fill="url(#linearGradient-8)" cx="27.7083333" cy="24.5" r="1.16666667"></circle>
            <path d="M34.4618011,7.05012873 L30.9186108,7.05012873 C28.9575266,7.05012873 27.3677537,5.46035584 27.3677537,3.4992716 L27.3677537,0.0501287322" id="路径" fill="url(#linearGradient-9)"></path>
        </g>
    </g>
</svg>