<?xml version="1.0" encoding="UTF-8"?>
<svg width="56px" height="56px" viewBox="0 0 56 56" version="1.1" xmlns="http://www.w3.org/2000/svg" xmlns:xlink="http://www.w3.org/1999/xlink">
    <title>ICON/Security_tools/firewall</title>
    <defs>
        <radialGradient cx="37.9383115%" cy="33.6449721%" fx="37.9383115%" fy="33.6449721%" r="69.755632%" id="radialGradient-1">
            <stop stop-color="#5DEFFF" offset="0%"></stop>
            <stop stop-color="#0069F5" offset="79.1034327%"></stop>
            <stop stop-color="#004FD7" offset="100%"></stop>
        </radialGradient>
        <linearGradient x1="37.79319%" y1="1.9763186%" x2="55.3905577%" y2="100%" id="linearGradient-2">
            <stop stop-color="#BDEAFF" offset="0%"></stop>
            <stop stop-color="#A9EBFF" stop-opacity="0.422515229" offset="100%"></stop>
        </linearGradient>
        <path d="M16,0 L16.3148707,0.00303641876 C24.9001084,0.168749469 31.8291646,7.09655352 31.9968892,15.6812985 L31.999,15.988 L32.0001676,15.8798193 C32.0224614,15.9521436 32.0378816,16.0249669 32.0462598,16.0982458 L32.051791,16.2033986 L32.051791,16.2073986 L32.0537006,16.2285713 L32.051,16.216 L32.0510037,16.2892092 C32.0455817,16.396432 32.0250102,16.5027347 31.9898223,16.6079784 C31.6734341,25.0552016 24.8085921,31.8282692 16.3239713,31.9967854 L16.0010019,32 L16.0019863,31.9755629 L15.9989895,31.975882 L15.9989983,32 L15.69,31.996 L15.5433149,32 L15.542,31.996 L15.5428572,32 C15.3852304,32 15.2286387,31.991382 15.0732,31.974375 C6.83018425,31.503177 0.257486715,24.7916877 0.00738451046,16.4908063 L-5.01129159e-05,16.4571382 C0.00476935549,16.3989281 0.00343215803,16.3399212 0.00241523474,16.2808362 C0.00037941471,16.2634508 1.6827897e-07,16.2460231 1.6827897e-07,16.2285713 L0.00117247328,16.1957043 C0.000391676058,16.1305624 1.6827897e-07,16.0653269 1.6827897e-07,16 C1.6827897e-07,7.47465204 6.66776116,0.506643181 15.0728414,0.0264151756 C15.227968,0.00865496604 15.3848928,-2.13452997e-14 15.5428572,-2.13162821e-14 C15.5425523,0.0064135484 15.5428851,0.00640420974 15.5432179,0.00639488123 C15.5924357,-1.24435212e-14 15.641456,0.00083690993 15.6903723,0.00250379659 L15.999,0 L15.9999885,0.0242241821 L16.0009874,0.0243305484 L16,0 Z M8.50681915,20.0703171 L8.51625397,20.1399277 C9.38097631,26.2200963 12.0857567,30.6883957 15.1314017,31.0605792 C15.1351759,31.0613403 15.1385277,31.0615294 15.1418798,31.0617174 L15.162,31.063 L15.3425269,31.071672 C15.4089756,31.0744937 15.4755136,31.0769126 15.5421603,31.0788992 L15.5424939,20.5703262 C13.0059313,20.5519166 10.6165749,20.3732684 8.50681915,20.0703171 Z M22.5631146,20.1874687 L22.4647779,20.2001987 C20.5580309,20.4299961 18.4550082,20.5615887 16.2428507,20.5713239 L16.458,20.569 L16.4575161,30.9614427 C19.2865974,30.1905432 21.7395168,25.9070336 22.5631146,20.1874687 Z M30.986641,17.7375573 C29.6207786,18.7383473 26.9350415,19.565272 23.5031517,20.062607 C22.840547,24.993738 20.9970949,28.9968364 18.5955938,30.8631159 C25.0874569,29.7375076 30.1564866,24.4621647 30.9711029,17.8687749 L30.9847397,17.7542504 Z M1.01663147,17.7713757 L1.01515757,17.7539584 C1.73527686,23.973303 6.23795303,29.0398299 12.1630813,30.5934343 C9.89996065,28.6078028 8.18134506,24.6905579 7.56336545,19.9224806 C4.59506493,19.4242674 2.27334058,18.6690264 1.01663147,17.7713757 Z M15.9782615,12.7999999 C13.2498714,12.7999999 10.635329,12.9892032 8.34520591,13.3350056 C8.2689943,14.1993859 8.22857155,15.0896486 8.22857155,15.9999999 C8.22857155,17.0743131 8.28486653,18.1206499 8.3911654,19.1285855 C10.6694911,19.4708805 13.2676937,19.65762 15.9782615,19.65762 L15.542,19.655 L15.542,12.802 L15.9782615,12.7999999 Z M16.4580957,12.8019539 L16.4590948,19.6556579 C18.6531962,19.6377341 20.7647999,19.4974298 22.6826761,19.2519673 C22.7966078,18.2061702 22.8576005,17.1182406 22.8576005,15.9999999 C22.8576005,15.0458784 22.8131972,14.1138235 22.7287977,13.2111381 C20.798862,12.9624437 18.6704057,12.8199888 16.4580957,12.8019539 Z M23.6597936,13.3423562 L23.6877796,13.7037611 C23.7432041,14.4536337 23.7718862,15.2203039 23.7718862,16 C23.7718862,17.0683955 23.7180315,18.1123328 23.6153124,19.1221082 C24.8703791,18.9323497 26.027456,18.695771 27.0524722,18.4175523 L27.0524722,18.4175523 L27.3918164,18.3223839 L27.6694336,18.2397259 C29.576704,17.6561667 30.7250999,16.9728264 30.9996952,16.4567242 L30.9996952,16.4567242 L31.078,16.456 L31.0857143,16.0004772 C30.8060958,15.4757446 29.5373147,14.7782689 27.5725801,14.1885429 L27.3918164,14.1352361 L27.0524722,14.0400676 C26.0394286,13.7650987 24.8973913,13.5308026 23.6597936,13.3423562 Z M7.41510473,13.4881134 L7.1422634,13.536592 C6.34342366,13.6844706 5.59383464,13.8528406 4.90405073,14.0400676 L4.53309676,14.1444225 C2.4790334,14.7432091 1.20091035,15.4625971 0.914285878,16.0004772 L0.917,16.271 L0.927873935,16.3315672 C0.969285325,16.4844989 1.09595694,16.6548557 1.30516301,16.8355216 L1.30092779,16.8509751 C1.8934156,17.3533003 3.11925425,17.9331076 4.90405073,18.4175523 C5.68315099,18.6290224 6.53854674,18.8164358 7.45502992,18.9774377 C7.3631285,18.0127482 7.31428584,17.017465 7.31428584,16 C7.31428584,15.1454001 7.34874352,14.3064491 7.41510473,13.4881134 Z M18.5955464,1.13672899 L18.7462462,1.25735931 C21.148279,3.23286472 22.9674856,7.36309257 23.5629881,12.4018912 C26.9967014,12.9045766 29.6809659,13.7359498 31.034138,14.7406516 C30.4654321,7.86462888 25.2861437,2.2969466 18.5955464,1.13672899 Z M12.1632091,1.40749601 L12.0381458,1.43990164 C6.02505498,3.07220169 1.50420827,8.33000135 0.967725369,14.7211809 C2.2044599,13.8142286 4.52691586,13.0494631 7.5071034,12.5436534 C8.07072352,7.56494314 9.82677125,3.45660306 12.1632091,1.40749601 Z M15.5421603,0.92110063 C15.4848048,0.922810281 15.4275297,0.924840078 15.3703368,0.927188295 L15.1434297,0.937972265 C12.0040181,1.3103856 9.2244745,6.03592886 8.44532053,12.3961668 C10.5699671,12.0878524 12.9811922,11.9058822 15.5425105,11.8872936 L15.5421603,0.92110063 Z M16.4575161,1.03855716 L16.457,11.888 L16.6563194,11.8895433 C18.7782897,11.913553 20.7948531,12.0497212 22.6269345,12.2767762 C21.8713407,6.3261921 19.3627744,1.83021421 16.4575161,1.03855716 Z" id="path-3"></path>
        <filter x="-34.4%" y="-21.9%" width="168.9%" height="168.8%" filterUnits="objectBoundingBox" id="filter-4">
            <feOffset dx="0" dy="4" in="SourceAlpha" result="shadowOffsetOuter1"></feOffset>
            <feGaussianBlur stdDeviation="3" in="shadowOffsetOuter1" result="shadowBlurOuter1"></feGaussianBlur>
            <feColorMatrix values="0 0 0 0 0.17254902   0 0 0 0 0.654901961   0 0 0 0 0.97254902  0 0 0 0.4 0" type="matrix" in="shadowBlurOuter1"></feColorMatrix>
        </filter>
        <linearGradient x1="66.3663468%" y1="96.6444396%" x2="66.3663468%" y2="0%" id="linearGradient-5">
            <stop stop-color="#FFA53C" offset="0%"></stop>
            <stop stop-color="#FFDA1A" offset="100%"></stop>
        </linearGradient>
        <path d="M18.9741122,5.77245067 C18.9632165,4.7457241 18.9429814,3.62355969 18.9429814,2.39364288 C18.9432936,2.08536415 18.7357816,1.81468003 18.4355493,1.7317352 C15.5761848,0.875873188 13.0187891,0.374054797 9.60840931,0 L9.49945149,0 C7.77324832,0.08620193 6.15444641,0.298628109 4.69908124,0.631121264 C3.22036798,0.962075097 1.82882094,1.33612992 0.533779423,1.7317352 C0.240325992,1.82210885 0.0395909277,2.08969869 0.0372430794,2.39364288 C0.0372430794,3.50503205 0.0263472973,4.52098338 0.0170080374,5.46150799 C-0.0717147409,13.4982986 -0.104402087,16.5015123 7.84951879,20.8624064 C8.50793535,21.2256859 9.00291515,21.375 9.53213884,21.375 C10.0504667,21.375 10.5578989,21.2256859 11.2054197,20.8731816 C19.1250967,16.6292759 19.0939658,14.1078694 18.9741122,5.77245067 Z" id="path-6"></path>
        <filter x="-118.4%" y="-91.2%" width="336.8%" height="310.5%" filterUnits="objectBoundingBox" id="filter-8">
            <feOffset dx="0" dy="3" in="SourceAlpha" result="shadowOffsetOuter1"></feOffset>
            <feGaussianBlur stdDeviation="7" in="shadowOffsetOuter1" result="shadowBlurOuter1"></feGaussianBlur>
            <feColorMatrix values="0 0 0 0 0.9703922   0 0 0 0 0.663072399   0 0 0 0 0  0 0 0 0.252074342 0" type="matrix" in="shadowBlurOuter1"></feColorMatrix>
        </filter>
    </defs>
    <g id="ICON/Security_tools/firewall" stroke="none" stroke-width="1" fill="none" fill-rule="evenodd">
        <rect id="矩形" fill="#FF6969" opacity="0" x="0" y="0" width="56" height="56"></rect>
        <g id="编组-2" transform="translate(10.000000, 10.000000)">
            <circle id="椭圆形" fill="url(#radialGradient-1)" opacity="0.900000036" cx="18" cy="18" r="18"></circle>
            <g id="编组" transform="translate(2.000000, 2.000000)" fill-rule="nonzero">
                <g id="形状结合">
                    <use fill="black" fill-opacity="1" filter="url(#filter-4)" xlink:href="#path-3"></use>
                    <use fill="url(#linearGradient-2)" xlink:href="#path-3"></use>
                </g>
            </g>
            <g id="矩形备份-30" transform="translate(20.000000, 17.625000)">
                <mask id="mask-7" fill="white">
                    <use xlink:href="#path-6"></use>
                </mask>
                <g id="蒙版">
                    <use fill="black" fill-opacity="1" filter="url(#filter-8)" xlink:href="#path-6"></use>
                    <use fill="url(#linearGradient-5)" fill-rule="evenodd" xlink:href="#path-6"></use>
                </g>
                <path d="M13.0868814,6.89571789 C13.3903387,6.43427221 14.0104151,6.30619731 14.4718608,6.60965461 C14.900346,6.89143638 15.0413841,7.44622134 14.8163813,7.89349791 L14.757924,7.99463396 L10.8154304,13.9897006 C10.4480088,14.5484121 9.65866857,14.5884184 9.23201712,14.1045117 L9.15175516,14.0007433 L5.09424885,8.00567672 C4.7846928,7.54829996 4.90452517,6.92657808 5.36190194,6.61702204 C5.78660893,6.32957714 6.35302166,6.41237021 6.67961879,6.79186579 L6.75055662,6.88467513 L9.968,11.637 L13.0868814,6.89571789 Z" id="路径-2" fill="#FFFFFF" fill-rule="nonzero" mask="url(#mask-7)"></path>
            </g>
        </g>
    </g>
</svg>