<?xml version="1.0" encoding="UTF-8"?>
<svg width="56px" height="56px" viewBox="0 0 56 56" version="1.1" xmlns="http://www.w3.org/2000/svg" xmlns:xlink="http://www.w3.org/1999/xlink">
    <title>ICON/Security_tools/Data_Usage</title>
    <defs>
        <linearGradient x1="50%" y1="-2.81825888%" x2="50%" y2="100%" id="linearGradient-1">
            <stop stop-color="#58C7FF" offset="0%"></stop>
            <stop stop-color="#2D7CFF" offset="100%"></stop>
        </linearGradient>
        <rect id="path-2" x="0" y="0" width="37.3333333" height="29.75" rx="3.2"></rect>
        <filter x="-37.5%" y="-33.6%" width="175.0%" height="194.1%" filterUnits="objectBoundingBox" id="filter-3">
            <feOffset dx="0" dy="4" in="SourceAlpha" result="shadowOffsetOuter1"></feOffset>
            <feGaussianBlur stdDeviation="4" in="shadowOffsetOuter1" result="shadowBlurOuter1"></feGaussianBlur>
            <feColorMatrix values="0 0 0 0 0.40210596   0 0 0 0 0.639504118   0 0 0 0 0.717129472  0 0 0 0.373367843 0" type="matrix" in="shadowBlurOuter1"></feColorMatrix>
        </filter>
        <linearGradient x1="50%" y1="0%" x2="50%" y2="98.4596946%" id="linearGradient-4">
            <stop stop-color="#FFE044" offset="0%"></stop>
            <stop stop-color="#FF9E00" offset="100%"></stop>
        </linearGradient>
        <path d="M6.19944649,2.55522353 C8.0047601,2.13625926 10.0197856,1.86464644 12.1830231,1.75 C16.1584064,2.1988457 19.2232404,2.78038935 22.4953563,3.71525953 L22.5555696,9.13889727 L22.561774,10.5838489 C22.5608924,15.1176031 22.3349929,16.913361 21.6023231,18.6566715 L21.5577525,18.7612287 C20.5616443,21.0658543 18.4359898,22.9967589 13.8556445,25.5470939 L13.2941357,25.856171 C12.7472042,26.1585795 12.4517017,26.2482132 12.1999935,26.2482132 C11.9627455,26.2482132 11.7101778,26.175859 11.2414989,25.9230231 L11.1197107,25.8559915 C6.31382724,23.179237 3.97515167,21.0391391 2.86353906,18.5096864 L2.7970038,18.3543276 C1.90815449,16.2237485 1.71312207,14.1622366 1.75535064,8.10307375 L1.79120085,3.89078687 L1.79205921,3.70288376 C3.23089977,3.27990131 4.70168926,2.89576052 6.19944649,2.55522353 Z" id="path-5"></path>
        <filter x="-43.2%" y="-24.5%" width="186.5%" height="173.5%" filterUnits="objectBoundingBox" id="filter-6">
            <feOffset dx="0" dy="3" in="SourceAlpha" result="shadowOffsetOuter1"></feOffset>
            <feGaussianBlur stdDeviation="2.5" in="shadowOffsetOuter1" result="shadowBlurOuter1"></feGaussianBlur>
            <feColorMatrix values="0 0 0 0 1   0 0 0 0 0.743085017   0 0 0 0 0.310386099  0 0 0 0.3 0" type="matrix" in="shadowBlurOuter1"></feColorMatrix>
        </filter>
    </defs>
    <g id="ICON/Security_tools/Data_Usage" stroke="none" stroke-width="1" fill="none" fill-rule="evenodd">
        <rect id="矩形" fill="#FF6969" opacity="0" x="0" y="0" width="56" height="56"></rect>
        <g id="编组" transform="translate(5.000000, 7.000000)">
            <g id="矩形">
                <use fill="black" fill-opacity="1" filter="url(#filter-3)" xlink:href="#path-2"></use>
                <use fill="url(#linearGradient-1)" fill-rule="evenodd" xlink:href="#path-2"></use>
            </g>
            <path d="M20.4111922,14.1605739 L17.3884193,14.1605739 C14.5591694,14.1605739 12.2565317,16.4273685 12.2565317,19.2154876 L12.2565317,19.5127484 C12.2565317,21 14.5214453,21 17.3884193,21 L20.4111922,21 C23.1649938,21 25.5426799,21 25.5432723,19.5127632 L25.5432723,19.2147471 C25.5432723,16.4279313 23.2404272,14.1598185 20.4111922,14.1598185 L20.4111922,14.1605739 Z M18.7487093,5.83333333 C16.5019246,5.83333333 14.6745931,7.63387142 14.6745931,9.84746419 C14.6745931,12.061057 16.5011545,13.861995 18.7487093,13.861995 C20.9962642,13.861995 22.8228255,12.0610718 22.8228255,9.84746419 C22.8228255,7.63385661 20.9953311,5.83333333 18.7487241,5.83333333 L18.7487093,5.83333333 Z" id="形状" fill="#FFFFFF" fill-rule="nonzero"></path>
            <g id="编组-2" transform="translate(21.583333, 15.166667)">
                <g id="路径">
                    <use fill="black" fill-opacity="1" filter="url(#filter-6)" xlink:href="#path-5"></use>
                    <use fill="url(#linearGradient-4)" fill-rule="evenodd" xlink:href="#path-5"></use>
                </g>
                <path d="M12.25,8.16666667 C13.5386644,8.16666667 14.5833333,9.21133558 14.5833333,10.5 L14.5823333,11.6666667 L14.9166667,11.6666667 C16.0212362,11.6666667 16.9166667,12.5620972 16.9166667,13.6666667 L16.9166667,16.0833333 C16.9166667,17.1879028 16.0212362,18.0833333 14.9166667,18.0833333 L9.58333333,18.0833333 C8.47876383,18.0833333 7.58333333,17.1879028 7.58333333,16.0833333 L7.58333333,13.6666667 C7.58333333,12.5620972 8.47876383,11.6666667 9.58333333,11.6666667 L9.91633333,11.6666667 L9.91666667,10.5 C9.91666667,9.21133558 10.9613356,8.16666667 12.25,8.16666667 Z M12.25,13.4166667 C11.6056678,13.4166667 11.0833333,13.9390011 11.0833333,14.5833333 C11.0833333,15.2276655 11.6056678,15.75 12.25,15.75 C12.8943322,15.75 13.4166667,15.2276655 13.4166667,14.5833333 C13.4166667,13.9390011 12.8943322,13.4166667 12.25,13.4166667 Z M12.25,9.33333333 C11.6056678,9.33333333 11.0833333,9.85566779 11.0833333,10.5 L11.0833333,11.6666667 L13.4163333,11.6666667 L13.4166667,10.5 C13.4166667,9.85566779 12.8943322,9.33333333 12.25,9.33333333 Z" id="形状结合" fill="#FFFFFF" fill-rule="nonzero"></path>
            </g>
        </g>
    </g>
</svg>