<?xml version="1.0" encoding="UTF-8"?>
<svg width="56px" height="56px" viewBox="0 0 56 56" version="1.1" xmlns="http://www.w3.org/2000/svg" xmlns:xlink="http://www.w3.org/1999/xlink">
    <title>ICON/Security_tools/Startup_Programs</title>
    <defs>
        <linearGradient x1="50%" y1="1.09016263%" x2="50%" y2="99.2116034%" id="linearGradient-1">
            <stop stop-color="#FFFFFF" offset="0%"></stop>
            <stop stop-color="#F7FBFF" offset="100%"></stop>
        </linearGradient>
        <path d="M2.05147059,0.166666667 L39.4681373,0.166666667 C40.5727068,0.166666667 41.4681373,1.06209717 41.4681373,2.16666667 L41.4681373,33.1666667 C41.4681373,34.8235209 40.1249915,36.1666667 38.4681373,36.1666667 L3.05147059,36.1666667 C1.39461634,36.1666667 0.0514705882,34.8235209 0.0514705882,33.1666667 L0.0514705882,2.16666667 C0.0514705882,1.06209717 0.946901089,0.166666667 2.05147059,0.166666667 Z" id="path-2"></path>
        <filter x="-33.8%" y="-27.8%" width="167.6%" height="177.8%" filterUnits="objectBoundingBox" id="filter-3">
            <feOffset dx="0" dy="4" in="SourceAlpha" result="shadowOffsetOuter1"></feOffset>
            <feGaussianBlur stdDeviation="4" in="shadowOffsetOuter1" result="shadowBlurOuter1"></feGaussianBlur>
            <feColorMatrix values="0 0 0 0 0.40210596   0 0 0 0 0.639504118   0 0 0 0 0.717129472  0 0 0 0.373367843 0" type="matrix" in="shadowBlurOuter1"></feColorMatrix>
        </filter>
        <linearGradient x1="50.0005263%" y1="0.348205128%" x2="50.0005263%" y2="103.831213%" id="linearGradient-4">
            <stop stop-color="#838383" offset="0%"></stop>
            <stop stop-color="#1E1E1E" offset="100%"></stop>
        </linearGradient>
        <linearGradient x1="50%" y1="0%" x2="50%" y2="100%" id="linearGradient-5">
            <stop stop-color="#FFFFFF" offset="0%"></stop>
            <stop stop-color="#F5FBFF" offset="100%"></stop>
        </linearGradient>
        <circle id="path-6" cx="36.75" cy="4.08333333" r="1.16666667"></circle>
        <filter x="-685.7%" y="-471.4%" width="1471.4%" height="1471.4%" filterUnits="objectBoundingBox" id="filter-7">
            <feOffset dx="0" dy="5" in="SourceAlpha" result="shadowOffsetOuter1"></feOffset>
            <feGaussianBlur stdDeviation="4.5" in="shadowOffsetOuter1" result="shadowBlurOuter1"></feGaussianBlur>
            <feColorMatrix values="0 0 0 0 0   0 0 0 0 0.60903013   0 0 0 0 1  0 0 0 0.467903191 0" type="matrix" in="shadowBlurOuter1"></feColorMatrix>
        </filter>
        <filter x="-407.1%" y="-192.9%" width="914.3%" height="914.3%" filterUnits="objectBoundingBox" id="filter-8">
            <feOffset dx="0" dy="1" in="SourceAlpha" result="shadowOffsetInner1"></feOffset>
            <feComposite in="shadowOffsetInner1" in2="SourceAlpha" operator="arithmetic" k2="-1" k3="1" result="shadowInnerInner1"></feComposite>
            <feColorMatrix values="0 0 0 0 1   0 0 0 0 1   0 0 0 0 1  0 0 0 1 0" type="matrix" in="shadowInnerInner1"></feColorMatrix>
        </filter>
        <circle id="path-9" cx="32.0833333" cy="4.08333333" r="1.16666667"></circle>
        <filter x="-685.7%" y="-471.4%" width="1471.4%" height="1471.4%" filterUnits="objectBoundingBox" id="filter-10">
            <feOffset dx="0" dy="5" in="SourceAlpha" result="shadowOffsetOuter1"></feOffset>
            <feGaussianBlur stdDeviation="4.5" in="shadowOffsetOuter1" result="shadowBlurOuter1"></feGaussianBlur>
            <feColorMatrix values="0 0 0 0 0   0 0 0 0 0.60903013   0 0 0 0 1  0 0 0 0.467903191 0" type="matrix" in="shadowBlurOuter1"></feColorMatrix>
        </filter>
        <filter x="-407.1%" y="-192.9%" width="914.3%" height="914.3%" filterUnits="objectBoundingBox" id="filter-11">
            <feOffset dx="0" dy="1" in="SourceAlpha" result="shadowOffsetInner1"></feOffset>
            <feComposite in="shadowOffsetInner1" in2="SourceAlpha" operator="arithmetic" k2="-1" k3="1" result="shadowInnerInner1"></feComposite>
            <feColorMatrix values="0 0 0 0 1   0 0 0 0 1   0 0 0 0 1  0 0 0 1 0" type="matrix" in="shadowInnerInner1"></feColorMatrix>
        </filter>
        <linearGradient x1="50%" y1="0%" x2="50%" y2="98.4596946%" id="linearGradient-12">
            <stop stop-color="#FFE044" offset="0%"></stop>
            <stop stop-color="#FF9E00" offset="100%"></stop>
        </linearGradient>
        <circle id="path-13" cx="7.58333333" cy="7.58333333" r="7.58333333"></circle>
        <filter x="-59.3%" y="-39.6%" width="218.7%" height="218.7%" filterUnits="objectBoundingBox" id="filter-14">
            <feOffset dx="0" dy="3" in="SourceAlpha" result="shadowOffsetOuter1"></feOffset>
            <feGaussianBlur stdDeviation="2.5" in="shadowOffsetOuter1" result="shadowBlurOuter1"></feGaussianBlur>
            <feColorMatrix values="0 0 0 0 1   0 0 0 0 0.743085017   0 0 0 0 0.310386099  0 0 0 0.3 0" type="matrix" in="shadowBlurOuter1"></feColorMatrix>
        </filter>
    </defs>
    <g id="ICON/Security_tools/Startup_Programs" stroke="none" stroke-width="1" fill="none" fill-rule="evenodd">
        <g id="编组-9">
            <rect id="矩形" fill="#FF6969" opacity="0" x="0" y="0" width="56" height="56"></rect>
            <g id="编组-3备份" transform="translate(7.531863, 10.500000)">
                <g id="矩形">
                    <use fill="black" fill-opacity="1" filter="url(#filter-3)" xlink:href="#path-2"></use>
                    <use fill="url(#linearGradient-1)" fill-rule="evenodd" xlink:href="#path-2"></use>
                </g>
                <path d="M2,0 L39.4166667,0 C40.5212362,3.72131305e-15 41.4166667,0.8954305 41.4166667,2 L41.4166667,8.16666667 L41.4166667,8.16666667 L0,8.16666667 L0,2 C-1.3527075e-16,0.8954305 0.8954305,2.02906125e-16 2,0 Z" id="矩形" fill="url(#linearGradient-4)"></path>
                <g id="椭圆形备份">
                    <use fill="black" fill-opacity="1" filter="url(#filter-7)" xlink:href="#path-6"></use>
                    <use fill="url(#linearGradient-5)" fill-rule="evenodd" xlink:href="#path-6"></use>
                    <use fill="black" fill-opacity="1" filter="url(#filter-8)" xlink:href="#path-6"></use>
                </g>
                <g id="椭圆形备份">
                    <use fill="black" fill-opacity="1" filter="url(#filter-10)" xlink:href="#path-9"></use>
                    <use fill="url(#linearGradient-5)" fill-rule="evenodd" xlink:href="#path-9"></use>
                    <use fill="black" fill-opacity="1" filter="url(#filter-11)" xlink:href="#path-9"></use>
                </g>
            </g>
            <g id="椭圆形备份" transform="translate(20.416667, 23.333333)">
                <use fill="black" fill-opacity="1" filter="url(#filter-14)" xlink:href="#path-13"></use>
                <use fill="url(#linearGradient-12)" fill-rule="evenodd" xlink:href="#path-13"></use>
            </g>
            <path d="M25.2886686,27.2699468 C25.5524632,27.084596 25.9102572,27.1270355 26.1235012,27.3584691 L26.1700368,27.4152142 L26.2099731,27.4774996 C26.3651634,27.7538603 26.2891448,28.1078637 26.0234223,28.2938802 C25.5913227,28.5993822 25.2334412,29.0028605 24.9887688,29.4606227 C24.7311366,29.9416524 24.6009376,30.4608842 24.6009376,31.0074355 C24.6009376,31.8996071 24.9534631,32.7368299 25.5955417,33.3686023 C26.2375263,34.0008352 27.09043,34.3486044 27.9998354,34.3486044 C28.9088282,34.3486044 29.7622989,34.0007335 30.4049302,33.3685766 C31.0464237,32.7369858 31.3986377,31.8997544 31.3986377,31.0074463 C31.3986377,30.4607132 31.2683571,29.9403635 31.0108236,29.4604959 C30.7662411,29.0032902 30.4078531,28.5993864 29.977344,28.2951124 C29.6896917,28.0939215 29.6230813,27.6989114 29.8299574,27.4147095 C30.0344649,27.1352428 30.4280992,27.0708136 30.7105118,27.2711033 C31.3025103,27.6883531 31.7936437,28.2419234 32.1308645,28.8725682 C32.4817427,29.5268251 32.6667687,30.2644393 32.6666667,31.0083578 C32.6666667,31.6293804 32.5428361,32.2319071 32.2985846,32.7996084 C32.0636845,33.3469151 31.726573,33.8389014 31.297747,34.2608637 C30.8702265,34.6820784 30.3713687,35.0131197 29.8145985,35.2455161 C29.2396294,35.4841169 28.6290217,35.6049029 27.9998248,35.6049029 C27.369792,35.6049029 26.7580275,35.4833685 26.185088,35.2438101 C25.6299186,35.0134123 25.1306214,34.6820219 24.7025475,34.2602424 C24.2737577,33.8389296 23.9368552,33.3471496 23.7011776,32.7988957 C23.457173,32.2314744 23.3333333,31.6283957 23.3333333,31.0074789 C23.3333333,30.2647067 23.5184163,29.5268059 23.8687081,28.8718532 C24.2071879,28.2404519 24.6976014,27.6871666 25.2886686,27.2699468 Z M28,25.6882363 C28.2991542,25.6882363 28.5457125,25.9134264 28.5794088,26.2035406 L28.5833333,26.2715696 L28.5833333,30.3549029 C28.5833333,30.677069 28.3221661,30.9382363 28,30.9382363 C27.7008458,30.9382363 27.4542875,30.7130462 27.4205912,30.4229319 L27.4166667,30.3549029 L27.4166667,26.2715696 C27.4166667,25.9494035 27.6778339,25.6882363 28,25.6882363 Z" id="形状结合" fill="#FFFFFF"></path>
        </g>
    </g>
</svg>