<?xml version="1.0" encoding="UTF-8"?>
<svg width="56px" height="56px" viewBox="0 0 56 56" version="1.1" xmlns="http://www.w3.org/2000/svg" xmlns:xlink="http://www.w3.org/1999/xlink">
    <title>ICON/Security_tools/Super_protection</title>
    <defs>
        <linearGradient x1="66.3663468%" y1="96.6444396%" x2="66.3663468%" y2="0%" id="linearGradient-1">
            <stop stop-color="#FFA53C" offset="0%"></stop>
            <stop stop-color="#FFDA1A" offset="100%"></stop>
        </linearGradient>
        <linearGradient x1="50%" y1="0.153372107%" x2="50%" y2="103.767911%" id="linearGradient-2">
            <stop stop-color="#FFBF00" offset="0%"></stop>
            <stop stop-color="#FF8F00" offset="100%"></stop>
        </linearGradient>
        <path d="M31.9563996,9.88405588 C31.9380488,8.12601179 31.9039687,6.20455132 31.9039687,4.09858851 C31.9044945,3.57072879 31.5550006,3.1072416 31.0493462,2.96521676 C26.2335744,1.49974076 21.9263816,0.640486811 16.1825841,0 L15.9990762,0 C13.0917866,0.147601901 10.3653834,0.511335148 7.9142421,1.08065676 C5.42377764,1.64734262 3.08011948,2.28782947 0.898996922,2.96521676 C0.404759565,3.11996182 0.0666794571,3.57815074 0.0627251863,4.09858851 C0.0627251863,6.00159874 0.0443743955,7.74119259 0.0286451156,9.35163474 C-0.120782722,23.1128763 -0.175835094,28.2552211 13.2202422,35.7222959 C14.3291543,36.3443324 15.1628045,36.6 16.0541286,36.6 C16.9271019,36.6 17.7817244,36.3443324 18.8722857,35.7407461 C32.2106891,28.4739882 32.1582583,24.1566326 31.9563996,9.88405588 Z" id="path-3"></path>
        <filter x="-76.6%" y="-58.7%" width="253.1%" height="233.9%" filterUnits="objectBoundingBox" id="filter-5">
            <feMorphology radius="2" operator="dilate" in="SourceAlpha" result="shadowSpreadOuter1"></feMorphology>
            <feOffset dx="0" dy="3" in="shadowSpreadOuter1" result="shadowOffsetOuter1"></feOffset>
            <feGaussianBlur stdDeviation="7" in="shadowOffsetOuter1" result="shadowBlurOuter1"></feGaussianBlur>
            <feComposite in="shadowBlurOuter1" in2="SourceAlpha" operator="out" result="shadowBlurOuter1"></feComposite>
            <feColorMatrix values="0 0 0 0 0.9703922   0 0 0 0 0.663072399   0 0 0 0 0  0 0 0 0.252074342 0" type="matrix" in="shadowBlurOuter1"></feColorMatrix>
        </filter>
        <path d="M10.9830058,0 C13.5424538,0 15.6247827,2.06637033 15.6247827,4.60617676 C15.6247827,6.02398976 14.9752539,7.34369099 13.8427067,8.22693358 L13.6417702,8.38366289 L13.8786613,8.47764454 C15.3182216,9.04848255 16.5467481,10.0208453 17.4316178,11.2895869 C18.3377588,12.5888742 18.816665,14.1121772 18.816665,15.6945711 L18.816665,17.2784922 C18.816665,17.6348223 18.5242274,17.9247694 18.1647464,17.9247694 L3.80113608,17.9247694 C3.44169812,17.9247694 3.14921745,17.6348653 3.14921745,17.2785352 L3.14921745,15.6946141 C3.14921745,14.1124999 3.62820971,12.5893259 4.5343723,11.2899096 C5.41930662,10.0209744 6.64787612,9.04846104 8.08726422,8.47764454 L8.32417679,8.38366289 L8.12324031,8.22693358 C6.99069317,7.34373402 6.34116434,6.02403279 6.34116434,4.60617676 C6.34116434,2.06634882 8.42347166,0 10.9830058,0 Z M15.829207,1.58467401 C17.9179301,1.62031777 19.6061582,3.31773104 19.6061582,5.39913758 C19.6061582,6.3433424 19.2510908,7.25196799 18.6062985,7.95763709 L18.4775726,8.09853428 L18.6474202,8.18584752 C20.7154749,9.24887923 21.912918,11.657731 22,13.6773749 L22,14.9026428 C22,15.2588223 21.7076055,15.5486188 21.348146,15.5486188 L20.0632333,15.5486188 C20.0632333,10.6309459 16.2706784,8.46999795 15.5025032,8.18584752 C16.154399,7.8098847 18.3633231,4.6351184 15.8688862,1.64851872 C15.8557961,1.62711525 15.8425338,1.60588387 15.829207,1.58467401 Z M6.17079303,1.58467401 C6.15746616,1.60588387 6.14420388,1.62711525 6.13111383,1.64851872 C3.6366769,4.6351184 5.84560095,7.8098847 6.49749677,8.18584752 C5.72932155,8.46999795 1.9367667,10.6309459 1.9367667,15.5486188 L1.9367667,15.5486188 L0.651854037,15.5486188 C0.292394546,15.5486188 0,15.2588223 0,14.9026428 L0,14.9026428 L0,13.6773749 C0.0870819978,11.657731 1.28452513,9.24887923 3.35257981,8.18584752 L3.35257981,8.18584752 L3.52242743,8.09853428 L3.39370149,7.95763709 C2.74890919,7.25196799 2.39384175,6.3433424 2.39384175,5.39913758 C2.39384175,3.31773104 4.08206986,1.62031777 6.17079303,1.58467401 Z" id="path-6"></path>
        <filter x="-63.6%" y="-72.5%" width="227.3%" height="256.2%" filterUnits="objectBoundingBox" id="filter-7">
            <feOffset dx="0" dy="1" in="SourceAlpha" result="shadowOffsetOuter1"></feOffset>
            <feGaussianBlur stdDeviation="4.5" in="shadowOffsetOuter1" result="shadowBlurOuter1"></feGaussianBlur>
            <feColorMatrix values="0 0 0 0 1   0 0 0 0 0.57172954   0 0 0 0 0  0 0 0 0.500399503 0" type="matrix" in="shadowBlurOuter1"></feColorMatrix>
        </filter>
    </defs>
    <g id="ICON/Security_tools/Super_protection" stroke="none" stroke-width="1" fill="none" fill-rule="evenodd">
        <rect id="矩形" fill="#FF6969" opacity="0" x="0" y="0" width="56" height="56"></rect>
        <g id="矩形备份-30" transform="translate(12.000000, 10.000000)">
            <mask id="mask-4" fill="white">
                <use xlink:href="#path-3"></use>
            </mask>
            <g id="蒙版">
                <use fill="black" fill-opacity="1" filter="url(#filter-5)" xlink:href="#path-3"></use>
                <path stroke="url(#linearGradient-2)" stroke-width="2" d="M15.9483719,-0.99871371 C22.1063095,-0.345891933 26.465877,0.525155651 31.3404922,2.00840623 C31.8004938,2.14252014 32.1897675,2.42024868 32.464919,2.7851454 C32.7430318,3.1539693 32.9044541,3.61185961 32.9039687,4.0985885 C32.9039687,5.62490645 32.9219454,7.0540259 32.9387796,8.39402159 C32.9451325,8.89971481 32.9513259,9.3927703 32.9562996,9.86991418 C32.9765408,11.3010843 32.9952611,12.6324295 32.9992327,13.8793969 L32.9992327,13.8793969 L32.9997302,14.616462 C32.9879248,20.3895329 32.5461628,24.2999047 30.4477143,27.6769904 C28.5253135,30.7707584 25.1923391,33.4363573 19.3565296,36.6156792 C18.0785772,37.3229797 17.0737928,37.6 16.0541286,37.6 C15.0124894,37.6 14.0313625,37.3238732 12.7333636,36.5957655 C6.89024197,33.3387653 3.54505775,30.4826213 1.607442,27.2393507 C-0.563202333,23.606026 -0.983351197,19.4619411 -0.999462361,13.5948293 L-0.999462361,13.5948293 L-0.999668059,12.8637368 C-0.997479991,11.7540744 -0.984778448,10.5824204 -0.971306697,9.34181777 C-0.953354347,7.51319906 -0.937274814,5.87742007 -0.93724595,4.09099076 C-0.933621945,3.6140206 -0.776701393,3.16566164 -0.507658919,2.80103717 C-0.23753387,2.43494552 0.145529276,2.15325684 0.602403141,2.01021302 C2.80675783,1.32561058 5.17537962,0.678302614 7.68799676,0.106586412 C10.1923762,-0.475100723 12.9778626,-0.847902168 15.9483719,-0.99871371 Z" fill="url(#linearGradient-1)" fill-rule="evenodd"></path>
            </g>
            <g id="客户会员管理" mask="url(#mask-4)" fill-rule="nonzero">
                <g transform="translate(5.000000, 8.000000)" id="形状结合">
                    <use fill="black" fill-opacity="1" filter="url(#filter-7)" xlink:href="#path-6"></use>
                    <use fill="#FFFFFF" xlink:href="#path-6"></use>
                </g>
            </g>
        </g>
    </g>
</svg>