<?xml version="1.0" encoding="UTF-8"?>
<svg width="56px" height="56px" viewBox="0 0 56 56" version="1.1" xmlns="http://www.w3.org/2000/svg" xmlns:xlink="http://www.w3.org/1999/xlink">
    <title>ICON/Security_tools/The_kernel_module_is_uninstalled</title>
    <defs>
        <linearGradient x1="50%" y1="0%" x2="50%" y2="100%" id="linearGradient-1">
            <stop stop-color="#3AE1FF" offset="0%"></stop>
            <stop stop-color="#006FFF" offset="100%"></stop>
        </linearGradient>
        <linearGradient x1="50%" y1="0.591059331%" x2="50%" y2="100%" id="linearGradient-2">
            <stop stop-color="#EBF4FF" offset="0%"></stop>
            <stop stop-color="#FFFFFF" offset="100%"></stop>
        </linearGradient>
        <linearGradient x1="50%" y1="0%" x2="50%" y2="100%" id="linearGradient-3">
            <stop stop-color="#00D9F6" offset="0%"></stop>
            <stop stop-color="#6125FF" offset="100%"></stop>
        </linearGradient>
        <polygon id="path-4" points="16.095346 5.41445607 18.4446717 14.1822592 12.0261944 20.6007365 9.67686866 11.8329334"></polygon>
        <filter x="-62.7%" y="-23.0%" width="225.5%" height="172.4%" filterUnits="objectBoundingBox" id="filter-5">
            <feOffset dx="0" dy="2" in="SourceAlpha" result="shadowOffsetOuter1"></feOffset>
            <feGaussianBlur stdDeviation="1.5" in="shadowOffsetOuter1" result="shadowBlurOuter1"></feGaussianBlur>
            <feColorMatrix values="0 0 0 0 0.277117473   0 0 0 0 0.775066792   0 0 0 0 1  0 0 0 0.308991546 0" type="matrix" in="shadowBlurOuter1"></feColorMatrix>
        </filter>
        <linearGradient x1="43.8633849%" y1="21.3410352%" x2="54.5424485%" y2="85.8487954%" id="linearGradient-6">
            <stop stop-color="#8ED3FF" offset="0%"></stop>
            <stop stop-color="#1389F9" offset="100%"></stop>
        </linearGradient>
        <polygon id="path-7" points="16.095346 5.41445607 18.4446717 14.1822592 12.0261944 20.6007365 9.67686866 11.8329334"></polygon>
        <filter x="-62.7%" y="-23.0%" width="225.5%" height="172.4%" filterUnits="objectBoundingBox" id="filter-8">
            <feOffset dx="0" dy="2" in="SourceAlpha" result="shadowOffsetOuter1"></feOffset>
            <feGaussianBlur stdDeviation="1.5" in="shadowOffsetOuter1" result="shadowBlurOuter1"></feGaussianBlur>
            <feColorMatrix values="0 0 0 0 0.277117473   0 0 0 0 0.775066792   0 0 0 0 1  0 0 0 0.308991546 0" type="matrix" in="shadowBlurOuter1"></feColorMatrix>
        </filter>
        <polygon id="path-9" points="16.095346 5.41445607 18.4446717 14.1822592 12.0261944 20.6007365 9.67686866 11.8329334"></polygon>
        <filter x="-62.7%" y="-23.0%" width="225.5%" height="172.4%" filterUnits="objectBoundingBox" id="filter-10">
            <feOffset dx="0" dy="2" in="SourceAlpha" result="shadowOffsetOuter1"></feOffset>
            <feGaussianBlur stdDeviation="1.5" in="shadowOffsetOuter1" result="shadowBlurOuter1"></feGaussianBlur>
            <feColorMatrix values="0 0 0 0 0.277117473   0 0 0 0 0.775066792   0 0 0 0 1  0 0 0 0.308991546 0" type="matrix" in="shadowBlurOuter1"></feColorMatrix>
        </filter>
    </defs>
    <g id="ICON/Security_tools/The_kernel_module_is_uninstalled" stroke="none" stroke-width="1" fill="none" fill-rule="evenodd">
        <rect id="矩形" fill="#FF6969" opacity="0" x="0" y="0" width="56" height="56"></rect>
        <g id="编组-2" transform="translate(10.000000, 10.000000)">
            <g id="编组" transform="translate(8.077098, 0.000000)">
                <path d="M10.1302716,1.0838739 L18.4912688,5.91109788 L18.4912688,15.5655458 L10.1302716,20.3927698 L1.76927442,15.5655458 L1.76927442,5.91109788 L10.1302716,1.0838739 Z" id="多边形" stroke="url(#linearGradient-1)" fill="#D8D8D8" stroke-linejoin="round"></path>
                <polygon id="多边形" fill="url(#linearGradient-2)" transform="translate(10.130272, 6.199773) rotate(-345.000000) translate(-10.130272, -6.199773) " points="8.95560873 1.81587147 17.7234118 4.16519723 11.3049345 10.5836746 2.5371314 8.2343488"></polygon>
                <g id="多边形备份-3" transform="translate(14.060770, 13.007596) rotate(-345.000000) translate(-14.060770, -13.007596) ">
                    <use fill="black" fill-opacity="1" filter="url(#filter-5)" xlink:href="#path-4"></use>
                    <use fill="url(#linearGradient-3)" fill-rule="evenodd" xlink:href="#path-4"></use>
                </g>
                <polygon id="多边形备份-4" fill="url(#linearGradient-6)" transform="translate(6.199773, 13.007596) scale(-1, 1) rotate(-345.000000) translate(-6.199773, -13.007596) " points="8.2343488 5.41445607 10.5836746 14.1822592 4.16519723 20.6007365 1.81587147 11.8329334"></polygon>
            </g>
            <g id="编组备份" transform="translate(0.000000, 14.523356)">
                <path d="M10.1302716,1.0838739 L18.4912688,5.91109788 L18.4912688,15.5655458 L10.1302716,20.3927698 L1.76927442,15.5655458 L1.76927442,5.91109788 L10.1302716,1.0838739 Z" id="多边形" stroke="url(#linearGradient-1)" fill="#D8D8D8" stroke-linejoin="round"></path>
                <polygon id="多边形" fill="url(#linearGradient-2)" transform="translate(10.130272, 6.199773) rotate(-345.000000) translate(-10.130272, -6.199773) " points="8.95560873 1.81587147 17.7234118 4.16519723 11.3049345 10.5836746 2.5371314 8.2343488"></polygon>
                <g id="多边形备份-3" transform="translate(14.060770, 13.007596) rotate(-345.000000) translate(-14.060770, -13.007596) ">
                    <use fill="black" fill-opacity="1" filter="url(#filter-8)" xlink:href="#path-7"></use>
                    <use fill="url(#linearGradient-3)" fill-rule="evenodd" xlink:href="#path-7"></use>
                </g>
                <polygon id="多边形备份-4" fill="url(#linearGradient-6)" transform="translate(6.199773, 13.007596) scale(-1, 1) rotate(-345.000000) translate(-6.199773, -13.007596) " points="8.2343488 5.41445607 10.5836746 14.1822592 4.16519723 20.6007365 1.81587147 11.8329334"></polygon>
            </g>
            <g id="编组备份-2" transform="translate(16.154195, 14.523356)">
                <path d="M10.1302716,1.0838739 L18.4912688,5.91109788 L18.4912688,15.5655458 L10.1302716,20.3927698 L1.76927442,15.5655458 L1.76927442,5.91109788 L10.1302716,1.0838739 Z" id="多边形" stroke="url(#linearGradient-1)" fill="#D8D8D8" stroke-linejoin="round"></path>
                <polygon id="多边形" fill="url(#linearGradient-2)" transform="translate(10.130272, 6.199773) rotate(-345.000000) translate(-10.130272, -6.199773) " points="8.95560873 1.81587147 17.7234118 4.16519723 11.3049345 10.5836746 2.5371314 8.2343488"></polygon>
                <g id="多边形备份-3" transform="translate(14.060770, 13.007596) rotate(-345.000000) translate(-14.060770, -13.007596) ">
                    <use fill="black" fill-opacity="1" filter="url(#filter-10)" xlink:href="#path-9"></use>
                    <use fill="url(#linearGradient-3)" fill-rule="evenodd" xlink:href="#path-9"></use>
                </g>
                <polygon id="多边形备份-4" fill="url(#linearGradient-6)" transform="translate(6.199773, 13.007596) scale(-1, 1) rotate(-345.000000) translate(-6.199773, -13.007596) " points="8.2343488 5.41445607 10.5836746 14.1822592 4.16519723 20.6007365 1.81587147 11.8329334"></polygon>
            </g>
        </g>
    </g>
</svg>