<?xml version="1.0" encoding="UTF-8"?>
<svg width="56px" height="56px" viewBox="0 0 56 56" version="1.1" xmlns="http://www.w3.org/2000/svg" xmlns:xlink="http://www.w3.org/1999/xlink">
    <title>ICON/Security_tools/usb_controls</title>
    <defs>
        <linearGradient x1="50%" y1="0.3930274%" x2="50%" y2="188.952791%" id="linearGradient-1">
            <stop stop-color="#C9C9C9" offset="0%"></stop>
            <stop stop-color="#FFFFFF" offset="100%"></stop>
        </linearGradient>
        <path d="M5.89674803,1.1586992 L15.5391874,1.1586992 C17.1960416,1.1586992 18.5391874,2.50184495 18.5391874,4.1586992 L18.5391874,16.8011385 L18.5391874,16.8011385 L2.89674803,16.8011385 L2.89674803,4.1586992 C2.89674803,2.50184495 4.23989378,1.1586992 5.89674803,1.1586992 Z" id="path-2"></path>
        <filter x="-12.8%" y="-12.8%" width="125.6%" height="125.6%" filterUnits="objectBoundingBox" id="filter-3">
            <feGaussianBlur stdDeviation="1.5" in="SourceAlpha" result="shadowBlurInner1"></feGaussianBlur>
            <feOffset dx="-1" dy="0" in="shadowBlurInner1" result="shadowOffsetInner1"></feOffset>
            <feComposite in="shadowOffsetInner1" in2="SourceAlpha" operator="arithmetic" k2="-1" k3="1" result="shadowInnerInner1"></feComposite>
            <feColorMatrix values="0 0 0 0 0.63084876   0 0 0 0 0.63084876   0 0 0 0 0.63084876  0 0 0 1 0" type="matrix" in="shadowInnerInner1" result="shadowMatrixInner1"></feColorMatrix>
            <feGaussianBlur stdDeviation="1" in="SourceAlpha" result="shadowBlurInner2"></feGaussianBlur>
            <feOffset dx="1" dy="0" in="shadowBlurInner2" result="shadowOffsetInner2"></feOffset>
            <feComposite in="shadowOffsetInner2" in2="SourceAlpha" operator="arithmetic" k2="-1" k3="1" result="shadowInnerInner2"></feComposite>
            <feColorMatrix values="0 0 0 0 1   0 0 0 0 1   0 0 0 0 1  0 0 0 0.806855742 0" type="matrix" in="shadowInnerInner2" result="shadowMatrixInner2"></feColorMatrix>
            <feMerge>
                <feMergeNode in="shadowMatrixInner1"></feMergeNode>
                <feMergeNode in="shadowMatrixInner2"></feMergeNode>
            </feMerge>
        </filter>
        <linearGradient x1="50.0005263%" y1="0.348205128%" x2="50.0005263%" y2="103.831213%" id="linearGradient-4">
            <stop stop-color="#56555E" offset="0%"></stop>
            <stop stop-color="#29282D" offset="100%"></stop>
        </linearGradient>
    </defs>
    <g id="ICON/Security_tools/usb_controls" stroke="none" stroke-width="1" fill="none" fill-rule="evenodd">
        <g id="编组-16">
            <rect id="矩形" fill="#FF6969" opacity="0" x="0" y="0" width="56" height="56"></rect>
            <g id="USB" transform="translate(28.000000, 27.923048) rotate(-330.000000) translate(-28.000000, -27.923048) translate(17.282032, 6.487113)">
                <g id="矩形">
                    <use fill="url(#linearGradient-1)" fill-rule="evenodd" xlink:href="#path-2"></use>
                    <use fill="black" fill-opacity="1" filter="url(#filter-3)" xlink:href="#path-2"></use>
                </g>
                <rect id="矩形备份" fill="#46454C" x="6.78173403" y="3.72974965" width="2.31739842" height="2.31739842" rx="1.15869921"></rect>
                <rect id="矩形备份" fill="#46454C" x="12.321578" y="3.78657003" width="2.31739842" height="2.31739842" rx="1.15869921"></rect>
                <path d="M3,9.84894329 L18.4359354,9.84894329 C20.0927896,9.84894329 21.4359354,11.192089 21.4359354,12.8489433 L21.4359354,38.0685359 L21.4359354,38.0685359 C21.4359354,40.7213445 19.3608662,42.8718708 16.8011386,42.8718708 L4.63479684,42.8718708 C2.07506923,42.8718708 0,40.7213445 0,38.0685359 L0,12.8489433 C-2.02906125e-16,11.192089 1.34314575,9.84894329 3,9.84894329 Z" id="矩形" fill="url(#linearGradient-4)"></path>
            </g>
            <path d="M26.546099,22.2141303 C26.6164738,22.2563552 26.6753727,22.3152541 26.7175976,22.3856289 L27.5725512,23.8105516 C27.7146253,24.0473417 27.6378428,24.3544719 27.4010526,24.4965459 C27.3233449,24.5431706 27.2344267,24.5677995 27.1438048,24.5677995 L26.5780299,24.5668012 L26.5764425,31.7752589 C26.6483911,31.7299894 26.7275379,31.6830072 26.814143,31.6338378 L26.9496768,31.5583842 L27.1999091,31.4249195 L27.4675,31.2873635 L27.8697039,31.0877203 L29.3247966,30.3923771 C29.7206279,30.1925562 29.9496447,29.9437981 30.0309997,29.6674274 L30.0546236,29.5625357 L30.0540299,28.6228012 L29.8959244,28.6232467 C29.3436396,28.6232467 28.8959244,28.1755315 28.8959244,27.6232467 L28.8959244,26.7264987 C28.8959244,26.1742139 29.3436396,25.7264987 29.8959244,25.7264987 L30.7926724,25.7264987 C31.3449571,25.7264987 31.7926724,26.1742139 31.7926724,26.7264987 L31.7926724,27.6232467 C31.7926724,28.1755315 31.3449571,28.6232467 30.7926724,28.6232467 L30.6320299,28.6228012 L30.6308442,29.6049971 C30.5552584,30.1150797 30.2521434,30.5241686 29.7443385,30.8231736 L29.5858792,30.9095636 L28.1234154,31.6085623 L27.7296257,31.8040221 C27.3479485,31.9976652 27.0497434,32.1634305 26.8396805,32.3018439 C26.7571742,32.3562085 26.6903248,32.4051141 26.6407603,32.4469493 L26.5970179,32.4863679 L26.5878478,32.4948767 L26.582356,32.4972795 L26.5796,32.492037 L26.5785259,32.4524588 L26.5785754,35.5959838 C27.5612134,35.7365639 28.3165748,36.5816527 28.3165748,37.6031656 C28.3165748,38.7230464 27.408732,39.6308892 26.2888511,39.6308892 C25.1689703,39.6308892 24.2611275,38.7230464 24.2611275,37.6031656 C24.2611275,36.5816527 25.0164889,35.7365639 25.9991269,35.5959838 L25.9991763,34.5067827 C25.9991763,34.3361513 25.3716752,33.9996338 24.1526341,33.5444601 L23.931376,33.4629132 L23.1920587,33.1937447 C22.3588436,32.8670639 21.9130827,32.4296037 21.9324348,31.9010949 L21.9437291,31.7864566 L21.9430189,30.3321785 C21.2822653,30.1977064 20.7850299,29.6133817 20.7850299,28.9129215 C20.7850299,28.1130066 21.433489,27.4645475 22.2334039,27.4645475 C23.0333188,27.4645475 23.6817779,28.1130066 23.6817779,28.9129215 C23.6817779,29.6133409 23.1846005,30.1976383 22.5239044,30.3321549 L22.5197209,31.8304344 C22.4770655,32.1081425 22.7242556,32.3799759 23.3497762,32.6331552 L23.5140894,32.696054 L24.3037029,32.9822624 C25.0838567,33.2696178 25.6351018,33.4983773 25.999361,33.7202619 L25.9990299,24.5668012 L25.4338975,24.5677995 C25.1577551,24.5677995 24.9338975,24.3439419 24.9338975,24.0677995 C24.9338975,23.9771775 24.9585264,23.8882593 25.005151,23.8105516 L25.8601047,22.3856289 C26.0021788,22.1488388 26.3093089,22.0720562 26.546099,22.2141303 Z" id="形状结合" fill="#FFFFFF" fill-rule="nonzero" transform="translate(26.288851, 30.886845) rotate(-330.000000) translate(-26.288851, -30.886845) "></path>
        </g>
    </g>
</svg>