<?xml version="1.0" encoding="UTF-8"?>
<svg width="98px" height="57px" viewBox="0 0 98 57" version="1.1" xmlns="http://www.w3.org/2000/svg" xmlns:xlink="http://www.w3.org/1999/xlink">
    <title>red_water_back</title>
    <g id="v1.0" stroke="none" stroke-width="1" fill="none" fill-rule="evenodd">
        <g id="red_water_back" transform="translate(0.000000, -41.000000)" fill="#E12302">
            <path d="M328,156 L328,55.1688789 C325.269872,55.0716143 322.092672,54.5814974 318.063461,53.4722672 C313.696509,52.2699114 307.241136,51.1727531 302.649256,51.1227411 C292.007291,51.0071963 287.744795,51.6014761 277.930121,53.0276784 C271.157898,54.0120512 262.51313,53.4953762 256.375303,51.33762 C250.58601,49.3023068 244.587109,49.0919118 238.164466,49.1667572 C229.09108,49.2726446 221.303198,52.8021073 212.219716,52.3406179 C205.695053,52.0091595 201.565913,49.5651281 193.546835,49.8645099 C186.871757,50.1138798 180.569934,54.1896798 173.881972,54.3297132 C164.538394,54.525622 160.498041,51.7384053 153.282229,49.4233702 C146.688974,47.307693 135.725982,47.4504857 130.454442,49.6554945 C115.142255,56.0597811 107.05946,50.3170317 95.5362359,46.3671238 C92.8269987,45.4386264 89.6724313,44.2097125 86.6634057,43.9099858 C80.1537156,43.2615552 74.8125385,44.9788615 68.6137787,46.4623189 C60.747555,48.3451819 51.6431809,47.7350363 44.4869089,44.8457263 C41.4124243,43.6047405 38.6255416,41.9515875 35.1882469,41.2610779 C24.652131,39.1447109 14.7970674,50.5977883 3.8051757,50.3518676 C-5.52551942,50.1431971 -12.3057503,43.4740197 -21.6065014,42.9307866 C-34.4775543,42.1788831 -35.6154269,56.343297 -55,54.8463882 L-55,156 L328,156 Z"></path>
        </g>
    </g>
</svg>