<?xml version="1.0" encoding="UTF-8"?>
<svg width="98px" height="48px" viewBox="0 0 98 48" version="1.1" xmlns="http://www.w3.org/2000/svg" xmlns:xlink="http://www.w3.org/1999/xlink">
    <title>orange_water_front</title>
    <g id="v1.0" stroke="none" stroke-width="1" fill="none" fill-rule="evenodd">
        <g id="orange_water_front" transform="translate(0.000000, -50.000000)" fill="#FFE36E">
            <path d="M289,164 L289,63.1688789 C286.269872,63.0716143 283.092672,62.5814974 279.063461,61.4722672 C274.696509,60.2699114 268.241136,59.1727531 263.649256,59.1227411 C253.007291,59.0071963 248.744795,59.6014761 238.930121,61.0276784 C232.157898,62.0120512 223.51313,61.4953762 217.375303,59.33762 C211.58601,57.3023068 205.587109,57.0919118 199.164466,57.1667572 C190.09108,57.2726446 182.303198,60.8021073 173.219716,60.3406179 C166.695053,60.0091595 162.565913,57.5651281 154.546835,57.8645099 C147.871757,58.1138798 141.569934,62.1896798 134.881972,62.3297132 C125.538394,62.525622 121.498041,59.7384053 114.282229,57.4233702 C107.688974,55.307693 96.725982,55.4504857 91.4544421,57.6554945 C76.1422554,64.0597811 68.0594598,58.3170317 56.5362359,54.3671238 C53.8269987,53.4386264 50.6724313,52.2097125 47.6634057,51.9099858 C41.1537156,51.2615552 35.8125385,52.9788615 29.6137787,54.4623189 C21.747555,56.3451819 12.6431809,55.7350363 5.48690892,52.8457263 C2.41242434,51.6047405 -0.374458402,49.9515875 -3.81175306,49.2610779 C-14.347869,47.1447109 -24.2029326,58.5977883 -35.1948243,58.3518676 C-44.5255194,58.1431971 -51.3057503,51.4740197 -60.6065014,50.9307866 C-73.4775543,50.1788831 -74.6154269,64.343297 -94,62.8463882 L-94,164 L289,164 Z"></path>
        </g>
    </g>
</svg>