<svg xmlns="http://www.w3.org/2000/svg" width="24" height="24" viewBox="0 0 24 24">
  <g fill="#FFF" fill-rule="evenodd" transform="translate(1 2)">
    <path fill-rule="nonzero" d="M11,-4.21084608e-14 C15.6639795,-4.21084608e-14 19.6500061,2.9026613 21.2501344,7.00003845 L19.0644348,6.9999083 C17.5917147,4.03652103 14.5336848,2 11,2 C6.02943725,2 2,6.02943725 2,11 C2,15.9705627 6.02943725,20 11,20 C14.5332868,20 17.5910258,17.9639377 19.0639371,15.001093 L21.2497436,15.0009621 C19.6493572,19.0978112 15.6635998,22 11,22 C4.92486775,22 0,17.0751322 0,11 C0,4.92486775 4.92486775,-4.21084608e-14 11,-4.21084608e-14 Z"/>
    <polygon points="22 1 22 8 15 8"/>
  </g>
</svg>
