<svg xmlns="http://www.w3.org/2000/svg" width="24" height="24" viewBox="0 0 24 24">
  <g fill="none" fill-rule="evenodd" transform="translate(1 1)">
    <path fill="#FFF" fill-rule="nonzero" d="M7.00003845,1.74986561 L6.9999083,3.93556522 C4.03652103,5.40828532 2,8.46631518 2,12 C2,16.9705627 6.02943725,21 11,21 C15.9705627,21 20,16.9705627 20,12 C20,8.4667132 17.9639377,5.40897423 15.001093,3.93606293 L15.0009621,1.75025641 C19.0978112,3.35064284 22,7.33640017 22,12 C22,18.0751322 17.0751322,23 11,23 C4.92486775,23 0,18.0751322 0,12 C0,7.33602052 2.9026613,3.34999391 7.00003845,1.74986561 Z"/>
    <line x1="11" x2="11" y2="11" stroke="#FFF" stroke-linecap="round" stroke-linejoin="round" stroke-width="2"/>
  </g>
</svg>
