<svg xmlns="http://www.w3.org/2000/svg" width="24" height="24" viewBox="0 0 24 24">
  <path fill="#48546D" fill-rule="evenodd" d="M21,0 C22.6568542,-3.04359188e-16 24,1.34314575 24,3 L24,17 C24,18.6568542 22.6568542,20 21,20 L3,20 C1.34314575,20 2.02906125e-16,18.6568542 0,17 L0,3 C-2.02906125e-16,1.34314575 1.34314575,3.04359188e-16 3,0 L21,0 Z M6,11.5 C4.8954305,11.5 4,12.3954305 4,13.5 C4,14.6045695 4.8954305,15.5 6,15.5 C7.1045695,15.5 8,14.6045695 8,13.5 C8,12.3954305 7.1045695,11.5 6,11.5 Z M20.5,13 L11.5,13 C11.2238576,13 11,13.2238576 11,13.5 C11,13.7454599 11.1768752,13.9496084 11.4101244,13.9919443 L11.5,14 L20.5,14 C20.7761424,14 21,13.7761424 21,13.5 C21,13.2238576 20.7761424,13 20.5,13 Z M9.65044118,3.64249667 L5.92135726,7.28871206 L4.36167777,5.65476213 C4.17100816,5.45501301 3.85451124,5.44765262 3.65476213,5.63832223 C3.45501301,5.82899184 3.44765262,6.14548876 3.63832223,6.34523787 L5.54741314,8.34523787 C5.73970483,8.54668632 6.05952637,8.55220172 6.25864973,8.35750333 L10.3495588,4.35750333 C10.5470025,4.16444733 10.5505593,3.84788482 10.3575033,3.65044118 C10.1644473,3.45299754 9.84788482,3.44944066 9.65044118,3.64249667 Z M20.5,6 L11.5,6 C11.2238576,6 11,6.22385763 11,6.5 C11,6.74545989 11.1768752,6.94960837 11.4101244,6.99194433 L11.5,7 L20.5,7 C20.7761424,7 21,6.77614237 21,6.5 C21,6.22385763 20.7761424,6 20.5,6 Z" transform="translate(0 2)"/>
</svg>
