<svg xmlns="http://www.w3.org/2000/svg" width="14" height="14" viewBox="0 0 14 14">
  <g fill="none" fill-rule="evenodd" transform="translate(1 1)">
    <path stroke="#536076" stroke-linecap="round" stroke-linejoin="round" d="M10.7315283,2.31003155 C9.63343701,0.903984468 7.92228695,0 6,0 C2.6862915,0 0,2.6862915 0,6 C0,9.3137085 2.6862915,12 6,12 L6,12 C9.3137085,12 12,9.3137085 12,6"/>
    <path fill="#536076" fill-rule="nonzero" d="M11.2568995,1.34203311 L12.4478825,3.72399912 C12.5713771,3.97098837 12.471265,4.27132489 12.2242757,4.39481952 C12.154848,4.42953337 12.0782915,4.44760592 12.0006689,4.44760592 L9.61870294,4.44760592 C9.34256057,4.44760592 9.11870294,4.22374829 9.11870294,3.94760592 C9.11870294,3.86998337 9.13677549,3.79342684 9.17148935,3.72399912 L10.3624723,1.34203311 C10.4859669,1.09504386 10.7863034,0.994931695 11.0332927,1.11842631 C11.1300564,1.16680816 11.2085176,1.24526941 11.2568995,1.34203311 Z" transform="rotate(142 10.81 2.757)"/>
  </g>
</svg>
