<svg xmlns="http://www.w3.org/2000/svg" width="24" height="24" viewBox="0 0 24 24">
  <path fill="#48546D" fill-rule="evenodd" d="M24,13.616 L24,10.384 C22.349,9.79700004 21.307,9.63200004 20.781,8.36499996 L20.781,8.364 C20.254,7.09299996 20.881,6.23000004 21.628,4.657 L19.343,2.372 C17.782,3.114 16.91,3.747 15.636,3.219 L15.635,3.219 C14.366,2.693 14.2,1.643 13.616,0 L10.384,0 C9.80199996,1.635 9.63500004,2.692 8.36499996,3.219 L8.364,3.219 C7.09299996,3.747 6.23199996,3.121 4.657,2.372 L2.372,4.657 C3.117,6.225 3.747,7.09100004 3.219,8.364 C2.692,9.63500004 1.635,9.80199996 0,10.384 L0,13.616 C1.632,14.196 2.692,14.365 3.219,15.635 C3.749,16.917 3.105,17.801 2.372,19.342 L4.657,21.628 C6.219,20.885 7.09100004,20.253 8.364,20.781 L8.36499996,20.781 C9.63500004,21.307 9.801,22.36 10.384,24 L13.616,24 C14.198,22.364 14.365,21.31 15.643,20.778 L15.644,20.778 C16.906,20.254 17.764,20.879 19.342,21.629 L21.627,19.343 C20.884,17.78 20.252,16.91 20.779,15.637 C21.306,14.366 22.367,14.197 24,13.616 L24,13.616 Z M12,16.8 C9.34848,16.8 7.2,14.65056 7.2,12 C7.2,9.34944 9.34848,7.2 12,7.2 C14.65152,7.2 16.8,9.34944 16.8,12 C16.8,14.65056 14.65152,16.8 12,16.8 Z M14.4,12 C14.4,13.3232 13.3232,14.4 12,14.4 C10.6768,14.4 9.6,13.3232 9.6,12 C9.6,10.6768 10.6768,9.6 12,9.6 C13.3232,9.6 14.4,10.6768 14.4,12 Z"/>
</svg>
