<svg xmlns="http://www.w3.org/2000/svg" width="24" height="24" viewBox="0 0 24 24">
  <g fill="none" fill-rule="evenodd">
    <path stroke="#536076" d="M6.5,4 L6.5,20.5 C6.5,21.6045695 7.3954305,22.5 8.5,22.5 L15.5,22.5 C16.6045695,22.5 17.5,21.6045695 17.5,20.5 L17.5,4 L17.5,4 L6.5,4 Z"/>
    <path fill="#536076" d="M15.5,1 C15.7761424,1 16,1.22385763 16,1.5 L16,3 L19,3 C19.5522847,3 20,3.44771525 20,4 L20,5 C20,5.55228475 19.5522847,6 19,6 L5,6 C4.44771525,6 4,5.55228475 4,5 L4,4 C4,3.44771525 4.44771525,3 5,3 L8,3 L8,1.5 C8,1.22385763 8.22385763,1 8.5,1 L15.5,1 Z"/>
    <path fill="#536076" fill-rule="nonzero" d="M11.9889827,16.0300709 C12.4031963,16.0300709 12.7389827,16.3658574 12.7389827,16.7800709 C12.7389827,17.1942845 12.4031963,17.5300709 11.9889827,17.5300709 C11.5747691,17.5300709 11.2389827,17.1942845 11.2389827,16.7800709 C11.2389827,16.3658574 11.5747691,16.0300709 11.9889827,16.0300709 Z M11.9889827,9 C13.7727546,9 14.7733754,10.4473124 14.4473362,11.8766443 C14.3186175,12.4409375 14.0703823,12.8033103 13.5674592,13.2867493 L13.288367,13.5460409 C13.0929346,13.7253225 12.9875852,13.8304019 12.897119,13.9413071 C12.6714934,14.2179083 12.5681595,14.4956932 12.5713279,14.7944784 C12.5748417,15.1258307 12.3090762,15.3972932 11.977724,15.4008415 C11.6463718,15.4043209 11.3749092,15.1385553 11.3713954,14.8072031 C11.3651583,14.2190466 11.5690374,13.6709737 11.9672436,13.1828009 C12.0767709,13.0485281 12.1866944,12.933881 12.3468506,12.7827891 L12.5794101,12.5681646 C13.0349385,12.1506725 13.2041898,11.9306666 13.2773878,11.6097721 C13.4403855,10.8952024 12.959747,10.2 11.9889827,10.2 C11.088983,10.2 10.6,10.8423613 10.6,11.4232614 C10.6,11.7546322 10.3313708,12.0232614 10,12.0232614 C9.66862915,12.0232614 9.4,11.7546322 9.4,11.4232614 C9.4,10.239934 10.3438717,9 11.9889827,9 Z"/>
  </g>
</svg>
