<svg xmlns="http://www.w3.org/2000/svg" width="24" height="24" viewBox="0 0 24 24">
  <g fill="none" fill-rule="evenodd">
    <path stroke="#536076" d="M6.5,4 L6.5,20.5 C6.5,21.6045695 7.3954305,22.5 8.5,22.5 L15.5,22.5 C16.6045695,22.5 17.5,21.6045695 17.5,20.5 L17.5,4 L17.5,4 L6.5,4 Z"/>
    <path fill="#536076" d="M15.5,1 C15.7761424,1 16,1.22385763 16,1.5 L16,3 L19,3 C19.5522847,3 20,3.44771525 20,4 L20,5 C20,5.55228475 19.5522847,6 19,6 L5,6 C4.44771525,6 4,5.55228475 4,5 L4,4 C4,3.44771525 4.44771525,3 5,3 L8,3 L8,1.5 C8,1.22385763 8.22385763,1 8.5,1 L15.5,1 Z"/>
    <rect width="8" height="2" x="8" y="19" fill="#536076" rx=".5"/>
    <rect width="8" height="2" x="8" y="16" fill="#536076" rx=".5"/>
    <rect width="8" height="2" x="8" y="13" fill="#536076" rx=".5"/>
    <rect width="8" height="2" x="8" y="10" fill="#536076" rx=".5"/>
    <rect width="8" height="2" x="8" y="7" fill="#536076" rx=".5"/>
  </g>
</svg>
