<?xml version="1.0" encoding="UTF-8"?>
<svg width="24px" height="24px" viewBox="0 0 24 24" version="1.1" xmlns="http://www.w3.org/2000/svg" xmlns:xlink="http://www.w3.org/1999/xlink">
    <title>icon_tips</title>
    <g id="1070" stroke="none" stroke-width="1" fill="none" fill-rule="evenodd">
        <g id="新增查看提示" transform="translate(-1387, -824)">
            <g id="未配置打印机、" transform="translate(489, 212)">
                <g id="打印机列表" transform="translate(0, 60)">
                    <g id="编组-2" transform="translate(742, 460)">
                        <g id="编组" transform="translate(156, 92)">
                            <rect id="矩形" x="0" y="0" width="24" height="24"></rect>
                            <g id="icon/new" transform="translate(4, 4)" fill="#000000" fill-opacity="0.7" fill-rule="nonzero">
                                <path d="M8,0 C12.4112,0 16,3.58880005 16,8 C16,12.4112 12.4112,16 8,16 C3.58880005,16 0,12.4112 0,8 C0,3.58880005 3.58880005,0 8,0 Z M8,1.6 C4.47120018,1.6 1.6,4.47120018 1.6,8 C1.6,11.5287994 4.47120018,14.4 8,14.4 C11.5287994,14.4 14.4,11.5287994 14.4,8 C14.4,4.47120018 11.5287994,1.6 8,1.6 Z M7.99555085,10.625 C8.23823688,10.625 8.45236637,10.7066014 8.62494035,10.8711682 C8.78799778,11.0376109 8.875,11.2507512 8.875,11.4954585 C8.875,11.7464194 8.78345064,11.9694937 8.61144671,12.1333636 C8.44241264,12.2944041 8.23656147,12.375 7.99555085,12.375 C7.75836618,12.375 7.55191708,12.2883965 7.37965499,12.1242806 C7.20899249,11.9616886 7.125,11.7488261 7.125,11.4954585 C7.125,11.2420908 7.20899249,11.0292283 7.37965499,10.8666364 C7.54868906,10.7055959 7.75454023,10.625 7.99555085,10.625 Z M8.1155,3.63725 C8.85816467,3.63725 9.46309555,3.83793797 9.91854788,4.24787385 C10.3880137,4.65865646 10.62325,5.22322351 10.62325,5.9245 C10.62325,6.48640527 10.4770969,6.96578749 10.1785956,7.36233604 C10.068566,7.48459115 9.73786541,7.78941082 9.25304034,8.2135484 C9.09415621,8.34595185 8.97371793,8.49820401 8.88865595,8.66832797 C8.79781495,8.85000998 8.75425,9.03733924 8.75425,9.253 L8.75425,9.61875 L7.10925,9.61875 L7.10925,9.253 C7.10925,8.80696066 7.1836261,8.43221956 7.34090588,8.12910283 C7.49288399,7.81345601 7.90996764,7.36161538 8.60041262,6.74813939 L8.72319684,6.60497923 C8.8801871,6.41310225 8.95725,6.20974182 8.95725,5.998 C8.95725,5.71257126 8.8763167,5.49106959 8.72732039,5.33367961 C8.57529603,5.18165524 8.35000249,5.10375 8.042,5.10375 C7.64238112,5.10375 7.38867295,5.21335193 7.23091353,5.44552304 C7.08657411,5.64080579 7.01125,5.93981969 7.01125,6.3445 L7.01125,6.56325 L5.37675,6.56325 L5.37675,6.3445 C5.37675,5.50402896 5.6226612,4.8406406 6.12515073,4.36101146 C6.62078739,3.87690123 7.28553426,3.63725 8.1155,3.63725 Z" id="形状结合"></path>
                            </g>
                        </g>
                    </g>
                </g>
            </g>
        </g>
    </g>
</svg>