<?xml version="1.0" encoding="UTF-8"?>
<svg width="16px" height="16px" viewBox="0 0 16 16" version="1.1" xmlns="http://www.w3.org/2000/svg" xmlns:xlink="http://www.w3.org/1999/xlink">
    <!-- Generator: Sketch 58 (84663) - https://sketch.com -->
    <title>core</title>
    <desc>Created with Sketch.</desc>
    <g id="组件" stroke="none" stroke-width="1" fill="none" fill-rule="evenodd">
        <g id="内核备份-2px" fill="#C5CFE0">
            <g id="编组-2">
                <path d="M11,1 C12.0543618,1 12.9181651,1.81587779 12.9945143,2.85073766 L13,3 L13,7.2 C13,6.92385763 12.7761424,6.7 12.5,6.7 C12.2238576,6.7 12,6.92385763 12,7.2 L12,8 L10.5,8 L10.5,7.2 C10.5,6.92385763 10.2761424,6.7 10,6.7 C9.72385763,6.7 9.5,6.92385763 9.5,7.2 L9.5,8 L8.5,8 C8.25454011,8 8.05039163,8.17687516 8.00805567,8.41012437 L8,8.5 L8,9.5 L8,9.5 L7.2,9.5 C6.92385763,9.5 6.7,9.72385763 6.7,10 C6.7,10.2761424 6.92385763,10.5 7.2,10.5 L8,10.5 L8,12 L7.2,12 C6.92385763,12 6.7,12.2238576 6.7,12.5 C6.7,12.7761424 6.92385763,13 7.2,13 L8,13 L8,14.5 C8,14.7454599 8.17687516,14.9496084 8.41012437,14.9919443 L8.5,15 L3,15 C1.9456382,15 1.08183488,14.1841222 1.00548574,13.1492623 L1,13 L1,3 C1,1.9456382 1.81587779,1.08183488 2.85073766,1.00548574 L3,1 L11,1 Z M4.5,8 L3.5,8 L3.41012437,8.00805567 C3.17687516,8.05039163 3,8.25454011 3,8.5 C3,8.74545989 3.17687516,8.94960837 3.41012437,8.99194433 L3.5,9 L4.5,9 L4.58987563,8.99194433 C4.82312484,8.94960837 5,8.74545989 5,8.5 C5,8.22385763 4.77614237,8 4.5,8 Z M5.5,6 L3.5,6 L3.41012437,6.00805567 C3.17687516,6.05039163 3,6.25454011 3,6.5 C3,6.74545989 3.17687516,6.94960837 3.41012437,6.99194433 L3.5,7 L5.5,7 L5.58987563,6.99194433 C5.82312484,6.94960837 6,6.74545989 6,6.5 C6,6.22385763 5.77614237,6 5.5,6 Z M8.5,4 L3.5,4 L3.41012437,4.00805567 C3.17687516,4.05039163 3,4.25454011 3,4.5 C3,4.74545989 3.17687516,4.94960837 3.41012437,4.99194433 L3.5,5 L8.5,5 L8.58987563,4.99194433 C8.82312484,4.94960837 9,4.74545989 9,4.5 C9,4.22385763 8.77614237,4 8.5,4 Z" id="形状结合"></path>
                <g id="编组-3" transform="translate(9.000000, 9.000000)">
                    <path d="M4,0 C4.55228475,-1.01453063e-16 5,0.44771525 5,1 L5,1 L5,4 C5,4.55228475 4.55228475,5 4,5 L4,5 L1,5 C0.44771525,5 6.76353751e-17,4.55228475 0,4 L0,4 L0,1 C-6.76353751e-17,0.44771525 0.44771525,1.01453063e-16 1,0 L1,0 Z M3.5,1 L1.5,1 C1.22385763,1 1,1.22385763 1,1.5 L1,1.5 L1,3.5 C1,3.77614237 1.22385763,4 1.5,4 L1.5,4 L3.5,4 C3.77614237,4 4,3.77614237 4,3.5 L4,3.5 L4,1.5 C4,1.22385763 3.77614237,1 3.5,1 L3.5,1 Z" id="形状结合"></path>
                </g>
            </g>
        </g>
    </g>
</svg>