<?xml version="1.0" encoding="UTF-8"?>
<svg width="16px" height="16px" viewBox="0 0 16 16" version="1.1" xmlns="http://www.w3.org/2000/svg" xmlns:xlink="http://www.w3.org/1999/xlink">
    <!-- Generator: Sketch 63.1 (92452) - https://sketch.com -->
    <title>开关dark </title>
    <desc>Created with Sketch.</desc>
    <g id="开关dark-" stroke="none" stroke-width="1" fill="none" fill-rule="evenodd">
        <g id="日志" fill="#C5CFE0" fill-rule="nonzero">
            <path d="M9.52374144,0.999835795 C9.50813207,1.01773256 9.5,1.03661695 9.5,1.05651623 L9.5,4.94456453 C9.5,5.25132307 9.72385763,5.5 10,5.5 L14,5.5 L14.0005166,7.75812038 C13.2853652,7.2792703 12.4252961,7 11.5,7 C9.01471863,7 7,9.01471863 7,11.5 C7,12.9140475 7.65221574,14.1757619 8.67222963,15.0007255 L4,15 C2.8954305,15 2,14.1045695 2,13 L2,3 C2,1.8954305 2.8954305,1 4,1 L9.52374144,0.999835795 Z" id="形状结合"></path>
            <path d="M11.3535534,1.35355339 L13.6464466,3.64644661 C13.8417088,3.84170876 13.8417088,4.15829124 13.6464466,4.35355339 C13.5526784,4.44732158 13.4255015,4.5 13.2928932,4.5 L11,4.5 C10.7238576,4.5 10.5,4.27614237 10.5,4 L10.5,1.70710678 C10.5,1.43096441 10.7238576,1.20710678 11,1.20710678 C11.1326082,1.20710678 11.2597852,1.2597852 11.3535534,1.35355339 Z" id="路径"></path>
        </g>
        <path d="M10.5001626,8.10945363 L10.5001748,9.17250815 C9.61712907,9.55824654 9,10.4393355 9,11.4645627 C9,12.8452746 10.1192881,13.9645627 11.5,13.9645627 C12.8807119,13.9645627 14,12.8452746 14,11.4645627 C14,10.4397244 13.3833391,9.55891506 12.50083,9.17294736 L12.5008388,8.10975178 C13.9461522,8.54029468 15,9.87935902 15,11.4645627 C15,13.3975593 13.4329966,14.9645627 11.5,14.9645627 C9.56700338,14.9645627 8,13.3975593 8,11.4645627 C8,9.87899292 9.05433459,8.53967619 10.5001626,8.10945363 Z" id="形状结合" fill="#C5CFE0" fill-rule="nonzero"></path>
        <rect id="矩形" fill="#C5CFE0" fill-rule="nonzero" x="11" y="7" width="1" height="5" rx="0.5"></rect>
    </g>
</svg>