<?xml version="1.0" encoding="utf-8"?>
<!-- Generator: Adobe Illustrator 24.2.1, SVG Export Plug-In . SVG Version: 6.00 Build 0)  -->
<svg version="1.1" id="图层_1" xmlns="http://www.w3.org/2000/svg" xmlns:xlink="http://www.w3.org/1999/xlink" x="0px" y="0px"
	 width="248px" height="220px" viewBox="0 0 248 220" style="enable-background:new 0 0 248 220;" xml:space="preserve">
<style type="text/css">
	.st0{opacity:0.749;}
	.st1{fill:none;}
	.st2{fill:#FFFFFF;}
	.st3{opacity:0.75;}
	.st4{opacity:0.749;enable-background:new    ;}
</style>
<g id="点击状态">
	<g id="矩形_55_1_" class="st0">
		<g>
			<path class="st1" d="M26,0h196c14.4,0,26,11.6,26,26v130c0,14.4-11.6,26-26,26H26c-14.4,0-26-11.6-26-26V26C0,11.6,11.6,0,26,0z"
				/>
		</g>
		<g>
			<path class="st2" d="M222,182H26c-14.3,0-26-11.7-26-26V26C0,11.7,11.7,0,26,0h196c14.3,0,26,11.7,26,26v130
				C248,170.3,236.3,182,222,182z M26,5C14.4,5,5,14.4,5,26v130c0,11.6,9.4,21,21,21h196c11.6,0,21-9.4,21-21V26
				c0-11.6-9.4-21-21-21H26z"/>
		</g>
	</g>
	<g id="矩形_57_1_" transform="translate(15 15)" class="st0">
		<g>
			<path class="st1" d="M16,0h186c8.8,0,16,7.2,16,16v120c0,8.8-7.2,16-16,16H16c-8.8,0-16-7.2-16-16V16C0,7.2,7.2,0,16,0z"/>
		</g>
		<g>
			<path class="st2" d="M202,152H16c-8.8,0-16-7.2-16-16V16C0,7.2,7.2,0,16,0h186c8.8,0,16,7.2,16,16v120
				C218,144.8,210.8,152,202,152z M16,1C7.7,1,1,7.7,1,16v120c0,8.3,6.7,15,15,15h186c8.3,0,15-6.7,15-15V16c0-8.3-6.7-15-15-15H16z
				"/>
		</g>
	</g>
	<g id="组_72_1_" transform="translate(-842.5 -272.5)" class="st0">
		<g id="直线_5_1_">
			<rect x="947" y="454.5" class="st2" width="5" height="33"/>
		</g>
		<g id="直线_6_1_">
			<rect x="981" y="454.5" class="st2" width="5" height="33"/>
		</g>
	</g>
	<g id="椭圆_1954_1_" class="st3">
		<path class="st2" d="M124,137.5c-25.6,0-46.5-20.9-46.5-46.5S98.4,44.5,124,44.5s46.5,20.9,46.5,46.5S149.6,137.5,124,137.5z
			 M124,47.5C100,47.5,80.5,67,80.5,91s19.5,43.5,43.5,43.5S167.5,115,167.5,91S148,47.5,124,47.5z"/>
	</g>
	<g id="路径_39_1_" class="st4">
		<path class="st2" d="M190.2,220H57.8c-1.4,0-2.5-1.1-2.5-2.5s1.1-2.5,2.5-2.5h132.5c1.4,0,2.5,1.1,2.5,2.5S191.6,220,190.2,220z"
			/>
	</g>
	<g id="形状_513" class="st3">
		<path class="st2" d="M118,116.1c-0.4,0-0.8-0.2-1.1-0.4L98.8,97.5c-0.6-0.6-0.6-1.5,0-2.1s1.5-0.6,2.1,0l16.9,16.9L147,71.5
			c0.5-0.7,1.4-0.8,2.1-0.3c0.7,0.5,0.8,1.4,0.3,2.1l-30.2,42.3c-0.3,0.4-0.7,0.6-1.1,0.6C118,116.1,118,116.1,118,116.1z"/>
	</g>
</g>
</svg>
