<svg id="图层_1" data-name="图层 1" xmlns="http://www.w3.org/2000/svg" viewBox="0 0 48 48"><rect x="17" y="19" width="2" height="2" fill="#fff"/><rect x="20" y="19" width="2" height="2" fill="#fff"/><rect x="23" y="19" width="2" height="2" fill="#fff"/><rect x="23" y="23" width="2" height="2" fill="#fff"/><rect x="26" y="19" width="2" height="2" fill="#fff"/><rect x="17" y="23" width="2" height="2" fill="#fff"/><rect x="20" y="23" width="2" height="2" fill="#fff"/><polygon points="29 19 29 23 26 23 26 25 29 25 31 25 31 23 31 19 29 19" fill="#fff"/><rect x="17" y="27" width="2" height="2" fill="#fff"/><rect x="20" y="27" width="2" height="2" fill="#fff"/><rect x="23" y="27" width="8" height="2" fill="#fff"/><path d="M32.88,17a.12.12,0,0,1,.12.12V30.88a.12.12,0,0,1-.12.12H15.12a.12.12,0,0,1-.12-.12V17.12a.12.12,0,0,1,.12-.12H32.88m0-2H15.12A2.12,2.12,0,0,0,13,17.12V30.88A2.12,2.12,0,0,0,15.12,33H32.88A2.12,2.12,0,0,0,35,30.88V17.12A2.12,2.12,0,0,0,32.88,15Z" fill="#fff"/></svg>