<?xml version="1.0" encoding="utf-8"?>
<!-- Generator: Adobe Illustrator 24.2.1, SVG Export Plug-In . SVG Version: 6.00 Build 0)  -->
<svg version="1.1" id="选中" xmlns="http://www.w3.org/2000/svg" xmlns:xlink="http://www.w3.org/1999/xlink" x="0px" y="0px"
	 width="254px" height="64px" viewBox="0 0 254 64" style="enable-background:new 0 0 254 64;" xml:space="preserve">
<style type="text/css">
	.st0{fill:#5DB83D;}
	.st1{fill:none;stroke:#FFFFFF;stroke-width:3;stroke-linecap:round;stroke-linejoin:round;}
	.st2{fill:#FFFFFF;}
</style>
<path id="椭圆_1954" class="st0" d="M32,0c17.7,0,32,14.3,32,32S49.7,64,32,64S0,49.7,0,32S14.3,0,32,0z"/>
<path id="形状_513" class="st1" d="M14.5,33.7l12.9,12.9l21.5-30.1"/>
<g>
	<path class="st2" d="M111.5,32.5c-1.3,3.6-3.2,6.5-5.5,8.9c4.9,2.1,9.5,4.3,12.7,6.3l-3.2,3.3c-3-2-7.7-4.4-12.9-6.7
		c-4.5,3.3-10.1,5.4-17,6.7c-0.4-1-1.6-2.7-2.4-3.6c6-1,11.1-2.5,15.1-5c-3.6-1.4-7.3-2.8-10.6-3.9l0,0c1.3-1.7,2.8-3.8,4.2-6.1
		h-9.2v-3.7h11.4c1.2-2.2,2.3-4.5,3.1-6.6l4.3,0.9c-0.8,1.8-1.7,3.8-2.7,5.7h20.3v3.7H111.5z M87.8,26.1h-3.9v-8.8h15
		c-0.5-1.2-1.2-2.6-1.8-3.8l4-1c0.8,1.5,1.8,3.4,2.4,4.8h14.8v8.8h-4.2v-5.2H87.8V26.1z M96.8,32.5c-1,1.6-1.9,3.1-2.8,4.5
		c2.6,0.8,5.3,1.8,8,2.9c2.1-2,3.8-4.4,5-7.4H96.8z"/>
	<path class="st2" d="M161.9,40c-2.1,1.4-4.8,2.9-7.1,4c2.6,1.7,5.9,2.9,9.7,3.7c-0.8,0.8-1.8,2.2-2.2,3.2
		c-8.4-1.9-14.1-6.3-17.4-13.1c-1.7,1.6-3.8,3-6.2,4.2v4.7l9.7-2c-0.2,0.9-0.3,2.4-0.3,3.2c-11.8,2.6-13.4,3-14.3,3.5
		c-0.2-0.9-0.8-2.4-1.3-3.1c0.9-0.3,2.3-1,2.3-2.7v-1.9c-2.3,1-4.7,1.6-7,2.2c-0.5-0.8-1.5-2.1-2.2-2.9c5.1-0.9,10.5-2.9,14.3-5.3
		h-13.6v-3.2h16.9c-0.3-0.8-0.8-1.7-1.1-2.4l3.8-1.1c0.6,1,1.3,2.3,1.7,3.4h16.1v3.2h-15.3c1,1.7,2.2,3.2,3.7,4.5
		c2.4-1.3,5.1-2.9,6.8-4.2L161.9,40z M135.2,26.6c-2.9,1.3-5.8,2.6-8.2,3.7l-1.3-3.2c2.4-0.9,6-2.4,9.5-4V12.6h3.6v19.7h-3.6V26.6z
		 M131.9,21.4c-1-1.3-3.3-3.2-5.1-4.5l2.3-2.2c1.8,1.2,4.2,2.9,5.2,4.2L131.9,21.4z M150,21.3h-9.5v-3.4h9.5v-5.3h3.9v5.3h9.5v3.4
		h-9.5v5.9h8.7v3.4h-20.9v-3.4h8.3V21.3z"/>
	<path class="st2" d="M205.7,26.9c-1.8,5.4-4.2,10.2-7.3,14.2c1.4,3.6,3.1,5.8,4.8,5.8c1.1,0,1.6-2.1,1.8-7.6
		c0.9,0.9,2.3,1.8,3.4,2.2c-0.6,7.4-2.1,9.4-5.5,9.4c-3.1,0-5.5-2.4-7.4-6.3c-2.4,2.5-5,4.7-7.9,6.4c-0.6-0.8-2-2.5-2.9-3.2
		c3.5-1.9,6.6-4.4,9.2-7.4c-1.5-4.7-2.5-10.8-3-17.3h-13.4v5.1H188v1.5c-0.2,9.1-0.4,12.7-1.3,13.9c-0.8,0.9-1.6,1.2-2.7,1.3
		c-1.1,0.2-2.9,0.2-5,0.1c-0.1-1.1-0.5-2.6-1-3.7c1.7,0.2,3.4,0.2,4,0.2c0.6,0,1-0.1,1.3-0.5c0.5-0.6,0.7-3,0.8-9.3h-6.7
		c0,6-0.8,14.4-4.5,19.8c-0.7-0.8-2.4-2.2-3.3-2.7c3.4-5,3.7-12.3,3.7-17.7V19.3h17.3c-0.1-2.2-0.2-4.5-0.2-6.7h4.1
		c0,2.3,0,4.5,0.1,6.7h8.1c-1.6-1.4-4.4-3.2-6.6-4.4l2.4-2.4c2.5,1.3,5.6,3.2,7.3,4.7l-2,2.1h4.3v3.8h-13.2c0.4,5,1.1,9.5,2.1,13.3
		c2-3.1,3.6-6.6,4.8-10.5L205.7,26.9z"/>
	<path class="st2" d="M231,39.2c-5.6,1.6-11.6,3.3-16.1,4.6l-1-4.1c1.8-0.3,4-0.9,6.4-1.5V21h-5.8v-3.7h15.4V21h-5.7v16.1l6.3-1.7
		L231,39.2z M251.6,23.7c-0.6,17.1-1.1,23.1-2.7,25.1c-1,1.3-1.9,1.7-3.4,1.8c-1.4,0.2-3.7,0.2-6,0c-0.1-1.1-0.5-2.8-1.3-3.8
		c2.4,0.2,4.6,0.2,5.6,0.2c0.8,0,1.2-0.1,1.7-0.7c1.1-1.3,1.7-6.8,2.2-20.8h-7.2c-0.7,11.1-3.1,20.3-12.5,25.7
		c-0.5-1-1.8-2.4-2.8-3.2c8.6-4.6,10.8-12.6,11.3-22.5h-6.3v-3.7h6.5c0.1-2.8,0.1-5.6,0.1-8.6h3.9c0,2.9,0,5.8-0.1,8.6h10.9V23.7z"
		/>
</g>
</svg>
