<?xml version="1.0" encoding="UTF-8"?>
<svg width="48px" height="42px" viewBox="0 0 48 42" version="1.1" xmlns="http://www.w3.org/2000/svg" xmlns:xlink="http://www.w3.org/1999/xlink">
    <title>d4</title>
    <g id="浅色新版本" stroke="none" stroke-width="1" fill="none" fill-rule="evenodd">
        <g id="喇叭切图" transform="translate(-250.000000, -356.000000)" fill="#C0C6D4" fill-rule="nonzero">
            <path d="M293.5,356 C294.328427,356 295,356.62121 295,357.387512 L295,396.612488 C295,397.37879 294.328427,398 293.5,398 C292.671573,398 292,397.37879 292,396.612488 L292,357.387512 C292,356.62121 292.671573,356 293.5,356 Z M287.5,365 C288.328427,365 289,365.52792 289,366.179142 L289,390.820858 C289,391.47208 288.328427,392 287.5,392 C286.671573,392 286,391.47208 286,390.820858 L286,366.179142 C286,365.52792 286.671573,365 287.5,365 Z M274,363.252297 L274,390.747703 C274,391.861148 272.563811,392.418764 271.723858,391.631439 L266.42223,386.661994 C264.939513,385.272179 262.983436,384.498747 260.951188,384.498747 L255.333333,384.498747 C252.387815,384.498747 250,382.110933 250,379.165414 L250,374.834586 C250,371.889067 252.387815,369.501253 255.333333,369.501253 L260.951188,369.501253 C262.983436,369.501253 264.939513,368.727821 266.42223,367.338006 L271.723858,362.368561 C272.563811,361.581236 274,362.138852 274,363.252297 Z M281.5,368 C282.328427,368 283,368.605488 283,369.352396 L283,387.647604 C283,388.394512 282.328427,389 281.5,389 C280.671573,389 280,388.394512 280,387.647604 L280,369.352396 C280,368.605488 280.671573,368 281.5,368 Z" id="Combined-Shape"></path>
        </g>
    </g>
</svg>