<?xml version="1.0" encoding="UTF-8"?><svg version="1.1" width="20px" height="20px" viewBox="0 0 20.0 20.0" xmlns="http://www.w3.org/2000/svg" xmlns:xlink="http://www.w3.org/1999/xlink"><defs><clipPath id="i0"><path d="M1,0 C1.55228475,-1.01453063e-16 2,0.44771525 2,1 L2,9 C2,9.55228475 1.55228475,10 1,10 C0.44771525,10 6.76353751e-17,9.55228475 0,9 L0,1 C-6.76353751e-17,0.44771525 0.44771525,1.01453063e-16 1,0 Z"></path></clipPath><clipPath id="i1"><path d="M1,0 C1.55228475,-1.01453063e-16 2,0.44771525 2,1 L2,8 C2,8.55228475 1.55228475,9 1,9 C0.44771525,9 6.76353751e-17,8.55228475 0,8 L0,1 C-6.76353751e-17,0.44771525 0.44771525,1.01453063e-16 1,0 Z"></path></clipPath><clipPath id="i2"><path d="M1,0 C1.55228475,-1.01453063e-16 2,0.44771525 2,1 L2,5 C2,5.55228475 1.55228475,6 1,6 C0.44771525,6 6.76353751e-17,5.55228475 0,5 L0,1 C-6.76353751e-17,0.44771525 0.44771525,1.01453063e-16 1,0 Z"></path></clipPath><clipPath id="i3"><path d="M1,0 C1.55228475,-1.01453063e-16 2,0.44771525 2,1 L2,7 C2,7.55228475 1.55228475,8 1,8 C0.44771525,8 6.76353751e-17,7.55228475 0,7 L0,1 C-6.76353751e-17,0.44771525 0.44771525,1.01453063e-16 1,0 Z"></path></clipPath></defs><g transform="translate(12.0 9.0)"><g clip-path="url(#i0)"><polygon points="0,0 2,0 2,10 0,10 0,0" stroke="none" fill="#0080FF"></polygon></g></g><g transform="translate(7.0 10.0)"><g clip-path="url(#i1)"><polygon points="0,0 2,0 2,9 0,9 0,0" stroke="none" fill="#0080FF"></polygon></g></g><g transform="translate(2.0 13.0)"><g clip-path="url(#i2)"><polygon points="0,0 2,0 2,6 0,6 0,0" stroke="none" fill="#0080FF"></polygon></g></g><g transform="translate(17.000000000000004 11.0)"><g clip-path="url(#i3)"><polygon points="0,0 2,0 2,8 0,8 0,0" stroke="none" fill="#0080FF"></polygon></g></g></svg>