<?xml version="1.0" encoding="UTF-8"?>
<svg width="28px" height="28px" viewBox="0 0 28 28" version="1.1" xmlns="http://www.w3.org/2000/svg" xmlns:xlink="http://www.w3.org/1999/xlink">
    <!-- Generator: Sketch 58 (84663) - https://sketch.com -->
    <title>ICon/garbage_dark</title>
    <desc>Created with Sketch.</desc>
    <g id="ICon/garbage_dark" stroke="none" stroke-width="1" fill="none" fill-rule="evenodd">
        <g id="编组-27">
            <rect id="矩形" fill="#FF6969" opacity="0" x="0" y="0" width="28" height="28"></rect>
            <path d="M20,9 L19.0622321,23.066519 C19.0272122,23.5918168 18.5909108,24 18.0644469,24 L9.93555309,24 C9.40908922,24 8.97278779,23.5918168 8.93776793,23.066519 L8,9 L20,9 Z M11.5,12 C11.2545401,12 11.0503916,12.1768752 11.0080557,12.4101244 L11,12.5 L11,20.5 C11,20.7761424 11.2238576,21 11.5,21 C11.7454599,21 11.9496084,20.8231248 11.9919443,20.5898756 L12,20.5 L12,12.5 C12,12.2238576 11.7761424,12 11.5,12 Z M14,12 C13.7545401,12 13.5503916,12.1768752 13.5080557,12.4101244 L13.5,12.5 L13.5,20.5 C13.5,20.7761424 13.7238576,21 14,21 C14.2454599,21 14.4496084,20.8231248 14.4919443,20.5898756 L14.5,20.5 L14.5,12.5 C14.5,12.2238576 14.2761424,12 14,12 Z M16.5,12 C16.2545401,12 16.0503916,12.1768752 16.0080557,12.4101244 L16,12.5 L16,20.5 C16,20.7761424 16.2238576,21 16.5,21 C16.7454599,21 16.9496084,20.8231248 16.9919443,20.5898756 L17,20.5 L17,12.5 C17,12.2238576 16.7761424,12 16.5,12 Z M15,4 C15.5522847,4 16,4.44771525 16,5 L16,6 L20,6 C20.5522847,6 21,6.44771525 21,7 L21,8 L7,8 L7,7 C7,6.44771525 7.44771525,6 8,6 L12,6 L12,5 C12,4.44771525 12.4477153,4 13,4 L15,4 Z" id="形状结合" fill="#C5CFE0"></path>
        </g>
    </g>
</svg>