<?xml version="1.0" encoding="UTF-8"?>
<svg width="228px" height="301px" viewBox="0 0 228 301" version="1.1" xmlns="http://www.w3.org/2000/svg" xmlns:xlink="http://www.w3.org/1999/xlink">
    <title>Popup/Switch_Menu/Light</title>
    <defs>
        <rect id="path-1" x="0" y="0" width="202" height="275" rx="18"></rect>
        <filter x="-10.9%" y="-5.8%" width="121.8%" height="116.0%" filterUnits="objectBoundingBox" id="filter-3">
            <feMorphology radius="1" operator="dilate" in="SourceAlpha" result="shadowSpreadOuter1"></feMorphology>
            <feOffset dx="0" dy="6" in="shadowSpreadOuter1" result="shadowOffsetOuter1"></feOffset>
            <feGaussianBlur stdDeviation="6" in="shadowOffsetOuter1" result="shadowBlurOuter1"></feGaussianBlur>
            <feComposite in="shadowBlurOuter1" in2="SourceAlpha" operator="out" result="shadowBlurOuter1"></feComposite>
            <feColorMatrix values="0 0 0 0 0   0 0 0 0 0   0 0 0 0 0  0 0 0 0.2 0" type="matrix" in="shadowBlurOuter1"></feColorMatrix>
        </filter>
        <rect id="path-4" x="0" y="0" width="182" height="36" rx="8"></rect>
        <filter x="-6.0%" y="-19.4%" width="112.1%" height="161.1%" filterUnits="objectBoundingBox" id="filter-5">
            <feOffset dx="0" dy="4" in="SourceAlpha" result="shadowOffsetOuter1"></feOffset>
            <feGaussianBlur stdDeviation="3" in="shadowOffsetOuter1" result="shadowBlurOuter1"></feGaussianBlur>
            <feColorMatrix values="0 0 0 0 0   0 0 0 0 0.505882353   0 0 0 0 1  0 0 0 0.4 0" type="matrix" in="shadowBlurOuter1"></feColorMatrix>
        </filter>
        <filter x="-4.4%" y="-11.1%" width="108.8%" height="144.4%" filterUnits="objectBoundingBox" id="filter-6">
            <feMorphology radius="1" operator="erode" in="SourceAlpha" result="shadowSpreadInner1"></feMorphology>
            <feGaussianBlur stdDeviation="1" in="shadowSpreadInner1" result="shadowBlurInner1"></feGaussianBlur>
            <feOffset dx="0" dy="-1" in="shadowBlurInner1" result="shadowOffsetInner1"></feOffset>
            <feComposite in="shadowOffsetInner1" in2="SourceAlpha" operator="arithmetic" k2="-1" k3="1" result="shadowInnerInner1"></feComposite>
            <feColorMatrix values="0 0 0 0 0.0356979208   0 0 0 0 0.355505317   0 0 0 0 0.977270154  0 0 0 1 0" type="matrix" in="shadowInnerInner1"></feColorMatrix>
        </filter>
        <rect id="path-7" x="20" y="0" width="30" height="24" rx="8"></rect>
        <filter x="-36.7%" y="-29.2%" width="173.3%" height="191.7%" filterUnits="objectBoundingBox" id="filter-8">
            <feOffset dx="0" dy="4" in="SourceAlpha" result="shadowOffsetOuter1"></feOffset>
            <feGaussianBlur stdDeviation="3" in="shadowOffsetOuter1" result="shadowBlurOuter1"></feGaussianBlur>
            <feColorMatrix values="0 0 0 0 0   0 0 0 0 0.505882353   0 0 0 0 1  0 0 0 0.4 0" type="matrix" in="shadowBlurOuter1"></feColorMatrix>
        </filter>
        <filter x="-26.7%" y="-16.7%" width="153.3%" height="166.7%" filterUnits="objectBoundingBox" id="filter-9">
            <feMorphology radius="1" operator="erode" in="SourceAlpha" result="shadowSpreadInner1"></feMorphology>
            <feGaussianBlur stdDeviation="1" in="shadowSpreadInner1" result="shadowBlurInner1"></feGaussianBlur>
            <feOffset dx="0" dy="-1" in="shadowBlurInner1" result="shadowOffsetInner1"></feOffset>
            <feComposite in="shadowOffsetInner1" in2="SourceAlpha" operator="arithmetic" k2="-1" k3="1" result="shadowInnerInner1"></feComposite>
            <feColorMatrix values="0 0 0 0 0.0356979208   0 0 0 0 0.355505317   0 0 0 0 0.977270154  0 0 0 1 0" type="matrix" in="shadowInnerInner1"></feColorMatrix>
        </filter>
    </defs>
    <g id="概览" stroke="none" stroke-width="1" fill="none" fill-rule="evenodd">
        <g id="V23控件-浅色" transform="translate(-187.000000, -7615.000000)">
            <g id="编组-57" transform="translate(200.000000, 7503.000000)">
                <g id="分组-2" transform="translate(0.000000, 119.000000)">
                    <mask id="mask-2" fill="white">
                        <use xlink:href="#path-1" transform="translate(101.000000, 137.500000) scale(-1, 1) translate(-101.000000, -137.500000) "></use>
                    </mask>
                    <g id="蒙版" transform="translate(101.000000, 137.500000) scale(-1, 1) translate(-101.000000, -137.500000) ">
                        <use fill="black" fill-opacity="1" filter="url(#filter-3)" xlink:href="#path-1"></use>
                        <use fill-opacity="0.8" fill="#EEEEEE" fill-rule="evenodd" xlink:href="#path-1"></use>
                        <rect stroke-opacity="0.06" stroke="#000000" stroke-width="1" x="-0.5" y="-0.5" width="203" height="276" rx="18"></rect>
                        <rect stroke-opacity="0.1" stroke="#FFFFFF" stroke-width="1" stroke-linejoin="square" x="0.5" y="0.5" width="201" height="274" rx="18"></rect>
                    </g>
                    <g id="编组" mask="url(#mask-2)">
                        <g transform="translate(10.000000, 90.000000)">
                            <rect id="矩形" fill-opacity="0.05" fill="#000000" x="0" y="0" width="182" height="36" rx="8"></rect>
                            <text id="1个小时" font-family="SourceHanSansSC-Medium, Source Han Sans SC" font-size="14" font-weight="400" fill="#000000">
                                <tspan x="34" y="24">1个小时</tspan>
                            </text>
                            <g transform="translate(10.000000, 10.000000)" fill="#000000" fill-rule="nonzero" id="形状结合">
                                <g>
                                    <path d="M8,3 C11.3137085,3 14,5.6862915 14,9 C14,12.3137085 11.3137085,15 8,15 C4.6862915,15 2,12.3137085 2,9 C2,5.6862915 4.6862915,3 8,3 Z M8,4.5 C5.51471863,4.5 3.5,6.51471863 3.5,9 C3.5,11.4852814 5.51471863,13.5 8,13.5 C10.4852814,13.5 12.5,11.4852814 12.5,9 C12.5,6.51471863 10.4852814,4.5 8,4.5 Z M8,5.5 C9.8685634,5.5 11.3951264,6.9642776 11.4948211,8.8079648 L11.5,9 L8,9 L8,5.5 Z M13.3535534,1.73223305 L14.767767,3.14644661 L13.3856562,4.52817211 C12.9576325,4.01325032 12.457163,3.5606921 11.8998887,3.18613848 L13.3535534,1.73223305 Z M10,1 L10.0000463,2.28989247 C9.36632331,2.10128247 8.69498955,2 8,2 C7.30454783,2 6.63278295,2.10141736 5.9986882,2.29026923 L6,1 L10,1 Z"></path>
                                </g>
                            </g>
                        </g>
                    </g>
                    <text id="今晚7：00前保持开启" opacity="0.600000024" mask="url(#mask-2)" font-family="SourceHanSansSC-Normal, Source Han Sans SC" font-size="11" font-weight="normal" fill="#000000">
                        <tspan x="48.4415" y="81">今晚7：00前保持开启</tspan>
                    </text>
                    <g id="编组" mask="url(#mask-2)">
                        <g transform="translate(10.000000, 136.000000)" id="Popup/MenuItem/Active">
                            <g id="矩形">
                                <use fill="black" fill-opacity="1" filter="url(#filter-5)" xlink:href="#path-4"></use>
                                <use fill="#0081FF" fill-rule="evenodd" xlink:href="#path-4"></use>
                                <use fill="black" fill-opacity="1" filter="url(#filter-6)" xlink:href="#path-4"></use>
                            </g>
                            <g id="编组" transform="translate(158.000000, 11.000000)" fill="#FFFFFF" fill-rule="nonzero">
                                <g id="menuitem_select" transform="translate(0.999997, 1.999956)">
                                    <path d="M11.9161746,0.383335474 C12.2567731,-0.0514186317 12.8853206,-0.127746861 13.3200747,0.212851602 C13.7213861,0.527250183 13.8172933,1.08700174 13.5617837,1.5132029 L13.4905585,1.61675162 L5.65628029,11.6167516 C5.30422001,12.0661361 4.65596945,12.124889 4.22971115,11.7691292 L4.14195676,11.6865417 L0.272871003,7.58844671 C-0.106271436,7.18686302 -0.0880792126,6.55395945 0.313504472,6.17481701 C0.684197104,5.82483938 1.25199071,5.81341909 1.63535592,6.12958944 L1.72713417,6.21545048 L4.79800259,9.46804354 L11.9161746,0.383335474 Z" id="Path-1112"></path>
                                </g>
                            </g>
                            <text id="选项" font-family="SourceHanSansSC-Medium, Source Han Sans SC" font-size="14" font-weight="400" fill="#FFFFFF">
                                <tspan x="34" y="24">直至今晚</tspan>
                            </text>
                            <g id="编组" transform="translate(10.000000, 10.000000)" fill="#FFFFFF" fill-rule="nonzero">
                                <g id="ICON">
                                    <path d="M1.5,14 L14.5,14 C14.7761424,14 15,14.2238576 15,14.5 C15,14.7761424 14.7761424,15 14.5,15 L1.5,15 C1.22385763,15 1,14.7761424 1,14.5 C1,14.2238576 1.22385763,14 1.5,14 Z M12.8999437,11.999812 L14.5,12 C14.7761424,12 15,12.2238576 15,12.5 C15,12.7761424 14.7761424,13 14.5,13 L12.9999999,13.0010046 C13,13.0006698 13,13.0003349 13,13 C13,12.6574677 12.9655564,12.3229802 12.8999437,11.999812 Z M3.10005628,11.999812 C3.03444361,12.3229802 3,12.6574677 3,13 L3,13 L1.5,13 C1.22385763,13 1,12.7761424 1,12.5 C1,12.2238576 1.22385763,12 1.5,12 L3.10005628,11.999812 Z M8,9 C10.1421954,9 11.8910789,10.6839685 11.9951047,12.8003597 L12,13 L4,13 C4,10.790861 5.790861,9 8,9 Z M2.62083488,8.8169873 L4.21223227,9.73600594 C3.99390326,9.98914217 3.80051896,10.2643997 3.63589713,10.5579608 L2.12083488,9.6830127 C1.88168856,9.54494151 1.79975099,9.23914631 1.93782217,9 C2.07589336,8.76085369 2.38168856,8.67891611 2.62083488,8.8169873 Z M14.0621778,9 C14.200249,9.23914631 14.1183114,9.54494151 13.8791651,9.6830127 L12.3641029,10.5579608 C12.199481,10.2643997 12.0060967,9.98914217 11.7877677,9.73600594 L13.3791651,8.8169873 C13.6183114,8.67891611 13.9241066,8.76085369 14.0621778,9 Z M5.1830127,6.62083488 L6.17743753,8.342568 C5.86363148,8.46546123 5.5652739,8.61915368 5.28608345,8.7999267 L4.3169873,7.12083488 C4.17891611,6.88168856 4.26085369,6.57589336 4.5,6.43782217 C4.73914631,6.29975099 5.04494151,6.38168856 5.1830127,6.62083488 Z M11.5,6.43782217 C11.7391463,6.57589336 11.8210839,6.88168856 11.6830127,7.12083488 L10.7139166,8.7999267 C10.4347261,8.61915368 10.1363685,8.46546123 9.82256247,8.342568 L10.8169873,6.62083488 C10.9550585,6.38168856 11.2608537,6.29975099 11.5,6.43782217 Z M8,5.5 C8.27614237,5.5 8.5,5.72385763 8.5,6 L8.5,8 L8.49769538,8.02445934 C8.33398863,8.00828181 8.16796147,8 8,8 C7.83203853,8 7.66601137,8.00828181 7.50230462,8.02445934 L7.50036985,8.01273433 L7.50036985,8.01273433 L7.5,6 C7.5,5.72385763 7.72385763,5.5 8,5.5 Z M8,4 L11,1 L5,1 L8,4 Z" id="形状结合"></path>
                                </g>
                            </g>
                        </g>
                    </g>
                    <g id="编组" mask="url(#mask-2)">
                        <g transform="translate(10.000000, 182.000000)" id="Popup/MenuItem/Normal">
                            <rect id="矩形" fill-opacity="0.05" fill="#000000" x="0" y="0" width="182" height="36" rx="8"></rect>
                            <text id="1个小时" font-family="SourceHanSansSC-Medium, Source Han Sans SC" font-size="14" font-weight="400" fill="#000000">
                                <tspan x="34" y="24">直至明早</tspan>
                            </text>
                            <g id="编组" transform="translate(10.000000, 10.000000)" fill="#000000" fill-rule="nonzero">
                                <g id="形状结合">
                                    <path d="M1.5,14 L14.5,14 C14.7761424,14 15,14.2238576 15,14.5 C15,14.7761424 14.7761424,15 14.5,15 L1.5,15 C1.22385763,15 1,14.7761424 1,14.5 C1,14.2238576 1.22385763,14 1.5,14 Z M12.8999437,11.999812 L14.5,12 C14.7761424,12 15,12.2238576 15,12.5 C15,12.7761424 14.7761424,13 14.5,13 L12.9999999,13.0010046 C13,13.0006698 13,13.0003349 13,13 C13,12.6574677 12.9655564,12.3229802 12.8999437,11.999812 Z M3.10005628,11.999812 C3.03444361,12.3229802 3,12.6574677 3,13 L3,13 L1.5,13 C1.22385763,13 1,12.7761424 1,12.5 C1,12.2238576 1.22385763,12 1.5,12 L3.10005628,11.999812 Z M8,9 C10.1421954,9 11.8910789,10.6839685 11.9951047,12.8003597 L12,13 L4,13 C4,10.790861 5.790861,9 8,9 Z M2.62083488,8.8169873 L4.21223227,9.73600594 C3.99390326,9.98914217 3.80051896,10.2643997 3.63589713,10.5579608 L2.12083488,9.6830127 C1.88168856,9.54494151 1.79975099,9.23914631 1.93782217,9 C2.07589336,8.76085369 2.38168856,8.67891611 2.62083488,8.8169873 Z M14.0621778,9 C14.200249,9.23914631 14.1183114,9.54494151 13.8791651,9.6830127 L12.3641029,10.5579608 C12.199481,10.2643997 12.0060967,9.98914217 11.7877677,9.73600594 L13.3791651,8.8169873 C13.6183114,8.67891611 13.9241066,8.76085369 14.0621778,9 Z M5.1830127,6.62083488 L6.17743753,8.342568 C5.86363148,8.46546123 5.5652739,8.61915368 5.28608345,8.7999267 L4.3169873,7.12083488 C4.17891611,6.88168856 4.26085369,6.57589336 4.5,6.43782217 C4.73914631,6.29975099 5.04494151,6.38168856 5.1830127,6.62083488 Z M11.5,6.43782217 C11.7391463,6.57589336 11.8210839,6.88168856 11.6830127,7.12083488 L10.7139166,8.7999267 C10.4347261,8.61915368 10.1363685,8.46546123 9.82256247,8.342568 L10.8169873,6.62083488 C10.9550585,6.38168856 11.2608537,6.29975099 11.5,6.43782217 Z M8,5.5 C8.27614237,5.5 8.5,5.72385763 8.5,6 L8.5,8 L8.49769538,8.02445934 C8.33398863,8.00828181 8.16796147,8 8,8 C7.83203853,8 7.66601137,8.00828181 7.50230462,8.02445934 L7.50036985,8.01273433 L7.50036985,8.01273433 L7.5,6 C7.5,5.72385763 7.72385763,5.5 8,5.5 Z M8,1 L11,4 L5,4 L8,1 Z"></path>
                                </g>
                            </g>
                        </g>
                    </g>
                    <g id="编组" mask="url(#mask-2)">
                        <g transform="translate(10.000000, 228.000000)" id="Popup/MenuItem/Normal">
                            <rect id="矩形" fill-opacity="0.05" fill="#000000" x="0" y="0" width="182" height="36" rx="8"></rect>
                            <text id="1个小时" font-family="SourceHanSansSC-Medium, Source Han Sans SC" font-size="14" font-weight="400" fill="#000000">
                                <tspan x="34" y="24">保持开启</tspan>
                            </text>
                            <g id="编组" transform="translate(10.000000, 10.000000)" fill="#000000" fill-opacity="0.7" fill-rule="nonzero">
                                <g id="ICON">
                                    <path d="M13.9851753,9.75825178 C14.2152627,9.59287643 14.5352281,9.8301541 14.4345648,10.0961927 C13.4998346,12.6091789 11.0731312,14.4031419 8.22220403,14.4031419 C4.56956597,14.4031419 1.6,11.4407662 1.6,7.78093787 C1.6,4.98753259 3.332846,2.59318521 5.78112013,1.62250384 C6.05794408,1.51465035 6.31679244,1.81664011 6.14782198,2.05751289 C5.41082316,3.12166729 5.02614573,4.45186028 5.18433084,5.87552629 C5.45396456,8.31301507 7.35937614,10.3406606 9.78248445,10.7361234 C11.3535502,10.9949717 12.8347381,10.5887236 13.9851753,9.75825178 Z" id="路径"></path>
                                </g>
                            </g>
                        </g>
                    </g>
                    <text id="勿扰模式" mask="url(#mask-2)" font-family="SourceHanSansSC-Medium, Source Han Sans SC" font-size="14" font-weight="400" fill="#000000">
                        <tspan x="73" y="28">勿扰模式</tspan>
                    </text>
                    <g id="编组" mask="url(#mask-2)">
                        <g transform="translate(76.000000, 38.000000)" id="swith_on">
                            <rect id="矩形" fill-opacity="0.2" fill="#323232" x="0" y="0" width="50" height="24" rx="8"></rect>
                            <g id="矩形">
                                <use fill="black" fill-opacity="1" filter="url(#filter-8)" xlink:href="#path-7"></use>
                                <use fill="#0081FF" fill-rule="evenodd" xlink:href="#path-7"></use>
                                <use fill="black" fill-opacity="1" filter="url(#filter-9)" xlink:href="#path-7"></use>
                            </g>
                        </g>
                    </g>
                </g>
            </g>
        </g>
    </g>
</svg>