<?xml version="1.0" encoding="UTF-8"?>
<svg width="286px" height="274px" viewBox="0 0 286 274" version="1.1" xmlns="http://www.w3.org/2000/svg" xmlns:xlink="http://www.w3.org/1999/xlink">
    <title>声音</title>
    <defs>
        <rect id="path-1" x="0" y="0" width="260" height="248" rx="18"></rect>
        <filter x="-8.5%" y="-6.5%" width="116.9%" height="117.7%" filterUnits="objectBoundingBox" id="filter-3">
            <feMorphology radius="1" operator="dilate" in="SourceAlpha" result="shadowSpreadOuter1"></feMorphology>
            <feOffset dx="0" dy="6" in="shadowSpreadOuter1" result="shadowOffsetOuter1"></feOffset>
            <feGaussianBlur stdDeviation="6" in="shadowOffsetOuter1" result="shadowBlurOuter1"></feGaussianBlur>
            <feComposite in="shadowBlurOuter1" in2="SourceAlpha" operator="out" result="shadowBlurOuter1"></feComposite>
            <feColorMatrix values="0 0 0 0 0   0 0 0 0 0   0 0 0 0 0  0 0 0 0.2 0" type="matrix" in="shadowBlurOuter1"></feColorMatrix>
        </filter>
        <path d="M5.10886099e-15,13 L84.8429752,13" id="path-4"></path>
        <filter x="-10.6%" y="-300.0%" width="121.2%" height="900.0%" filterUnits="objectBoundingBox" id="filter-5">
            <feMorphology radius="2" operator="dilate" in="SourceAlpha" result="shadowSpreadOuter1"></feMorphology>
            <feOffset dx="0" dy="2" in="shadowSpreadOuter1" result="shadowOffsetOuter1"></feOffset>
            <feMorphology radius="2" operator="erode" in="SourceAlpha" result="shadowInner"></feMorphology>
            <feOffset dx="0" dy="2" in="shadowInner" result="shadowInner"></feOffset>
            <feComposite in="shadowOffsetOuter1" in2="shadowInner" operator="out" result="shadowOffsetOuter1"></feComposite>
            <feGaussianBlur stdDeviation="2" in="shadowOffsetOuter1" result="shadowBlurOuter1"></feGaussianBlur>
            <feColorMatrix values="0 0 0 0 0   0 0 0 0 0.505882353   0 0 0 0 1  0 0 0 0.5 0" type="matrix" in="shadowBlurOuter1"></feColorMatrix>
        </filter>
        <rect id="path-6" x="0" y="0" width="20" height="24" rx="8"></rect>
        <filter x="-55.0%" y="-29.2%" width="210.0%" height="191.7%" filterUnits="objectBoundingBox" id="filter-7">
            <feOffset dx="0" dy="4" in="SourceAlpha" result="shadowOffsetOuter1"></feOffset>
            <feGaussianBlur stdDeviation="3" in="shadowOffsetOuter1" result="shadowBlurOuter1"></feGaussianBlur>
            <feColorMatrix values="0 0 0 0 0   0 0 0 0 0.505882353   0 0 0 0 1  0 0 0 0.4 0" type="matrix" in="shadowBlurOuter1"></feColorMatrix>
        </filter>
        <filter x="-40.0%" y="-16.7%" width="180.0%" height="166.7%" filterUnits="objectBoundingBox" id="filter-8">
            <feMorphology radius="1" operator="erode" in="SourceAlpha" result="shadowSpreadInner1"></feMorphology>
            <feGaussianBlur stdDeviation="1" in="shadowSpreadInner1" result="shadowBlurInner1"></feGaussianBlur>
            <feOffset dx="0" dy="-1" in="shadowBlurInner1" result="shadowOffsetInner1"></feOffset>
            <feComposite in="shadowOffsetInner1" in2="SourceAlpha" operator="arithmetic" k2="-1" k3="1" result="shadowInnerInner1"></feComposite>
            <feColorMatrix values="0 0 0 0 0.0356979208   0 0 0 0 0.355505317   0 0 0 0 0.977270154  0 0 0 1 0" type="matrix" in="shadowInnerInner1"></feColorMatrix>
        </filter>
        <rect id="path-9" x="0" y="0" width="240" height="36" rx="8"></rect>
        <filter x="-4.6%" y="-19.4%" width="109.2%" height="161.1%" filterUnits="objectBoundingBox" id="filter-10">
            <feOffset dx="0" dy="4" in="SourceAlpha" result="shadowOffsetOuter1"></feOffset>
            <feGaussianBlur stdDeviation="3" in="shadowOffsetOuter1" result="shadowBlurOuter1"></feGaussianBlur>
            <feColorMatrix values="0 0 0 0 0   0 0 0 0 0.505882353   0 0 0 0 1  0 0 0 0.4 0" type="matrix" in="shadowBlurOuter1"></feColorMatrix>
        </filter>
        <filter x="-3.3%" y="-11.1%" width="106.7%" height="144.4%" filterUnits="objectBoundingBox" id="filter-11">
            <feMorphology radius="1" operator="erode" in="SourceAlpha" result="shadowSpreadInner1"></feMorphology>
            <feGaussianBlur stdDeviation="1" in="shadowSpreadInner1" result="shadowBlurInner1"></feGaussianBlur>
            <feOffset dx="0" dy="-1" in="shadowBlurInner1" result="shadowOffsetInner1"></feOffset>
            <feComposite in="shadowOffsetInner1" in2="SourceAlpha" operator="arithmetic" k2="-1" k3="1" result="shadowInnerInner1"></feComposite>
            <feColorMatrix values="0 0 0 0 0.0356979208   0 0 0 0 0.355505317   0 0 0 0 0.977270154  0 0 0 1 0" type="matrix" in="shadowInnerInner1"></feColorMatrix>
        </filter>
    </defs>
    <g id="概览" stroke="none" stroke-width="1" fill="none" fill-rule="evenodd">
        <g id="V23控件-浅色" transform="translate(-640.000000, -7615.000000)">
            <g id="编组-57" transform="translate(200.000000, 7503.000000)">
                <g id="编组-49" transform="translate(0.000000, 119.000000)">
                    <g id="分组-2" transform="translate(453.000000, 0.000000)">
                        <mask id="mask-2" fill="white">
                            <use xlink:href="#path-1" transform="translate(130.000000, 124.000000) scale(-1, 1) translate(-130.000000, -124.000000) "></use>
                        </mask>
                        <g id="蒙版" transform="translate(130.000000, 124.000000) scale(-1, 1) translate(-130.000000, -124.000000) ">
                            <use fill="black" fill-opacity="1" filter="url(#filter-3)" xlink:href="#path-1"></use>
                            <use fill-opacity="0.8" fill="#EEEEEE" fill-rule="evenodd" xlink:href="#path-1"></use>
                            <rect stroke-opacity="0.06" stroke="#000000" stroke-width="1" x="-0.5" y="-0.5" width="261" height="249" rx="18"></rect>
                            <rect stroke-opacity="0.1" stroke="#FFFFFF" stroke-width="1" stroke-linejoin="square" x="0.5" y="0.5" width="259" height="247" rx="18"></rect>
                        </g>
                        <g id="volume调节" mask="url(#mask-2)">
                            <g transform="translate(10.000000, 42.000000)">
                                <rect id="矩形" fill-opacity="0.05" fill="#000000" x="0" y="0" width="238" height="36" rx="8"></rect>
                                <g id="编组" stroke-width="1" fill="none" transform="translate(10.000000, 6.000000)">
                                    <g id="DTK-/-Slider-/-Round-Hor-withIcon-Light">
                                        <g id="DTK-/-Slider-/-Round-Ordinary-Light" transform="translate(22.000000, 0.000000)">
                                            <line x1="-0.00819672131" y1="13" x2="173.991803" y2="13" id="Bg-dash" stroke-opacity="0.2" stroke="#000000" stroke-width="4" stroke-dasharray="2,1"></line>
                                            <g id="Fg-dash" stroke-dasharray="2,1">
                                                <use fill="black" fill-opacity="1" filter="url(#filter-5)" xlink:href="#path-4"></use>
                                                <use stroke="#0081FF" stroke-width="4" xlink:href="#path-4"></use>
                                            </g>
                                            <g id="矩形" transform="translate(77.000000, 0.000000)">
                                                <use fill="black" fill-opacity="1" filter="url(#filter-7)" xlink:href="#path-6"></use>
                                                <use fill="#0081FF" fill-rule="evenodd" xlink:href="#path-6"></use>
                                                <use fill="black" fill-opacity="1" filter="url(#filter-8)" xlink:href="#path-6"></use>
                                            </g>
                                        </g>
                                        <g id="编组" transform="translate(0.000000, 4.000000)" fill="#000000" fill-rule="nonzero">
                                            <g id="Combined-Shape">
                                                <path d="M6.10189019,4.37827523 L8.19501485,2.76708803 C8.41383678,2.59864938 8.7277735,2.6394931 8.89621214,2.85831502 C8.96350904,2.94574174 9,3.05297201 9,3.16330017 L9,13.0672495 C9,13.3433919 8.77614237,13.5672495 8.5,13.5672495 C8.38147879,13.5672495 8.26681134,13.5251473 8.17645014,13.4484522 L6.13268691,11.7137863 C5.59051967,11.253616 4.90251499,11.0010024 4.19138773,11.0010024 L2.5,11.0010024 C1.67157288,11.0010024 1,10.3294295 1,9.50100238 L1,6.50100238 C1,5.67257525 1.67157288,5.00100238 2.5,5.00100238 L4.27197932,5.00100238 C4.93394827,5.00100238 5.57732991,4.78205663 6.10189019,4.37827523 Z"></path>
                                            </g>
                                        </g>
                                        <g id="编组" transform="translate(202.000000, 4.000000)" fill="#000000" fill-rule="nonzero">
                                            <g id="Combined-Shape">
                                                <path d="M6.10189019,4.37827523 L8.19501485,2.76708803 C8.41383678,2.59864938 8.7277735,2.6394931 8.89621214,2.85831502 C8.96350904,2.94574174 9,3.05297201 9,3.16330017 L9,13.0672495 C9,13.3433919 8.77614237,13.5672495 8.5,13.5672495 C8.38147879,13.5672495 8.26681134,13.5251473 8.17645014,13.4484522 L6.13268691,11.7137863 C5.59051967,11.253616 4.90251499,11.0010024 4.19138773,11.0010024 L2.5,11.0010024 C1.67157288,11.0010024 1,10.3294295 1,9.50100238 L1,6.50100238 C1,5.67257525 1.67157288,5.00100238 2.5,5.00100238 L4.27197932,5.00100238 C4.93394827,5.00100238 5.57732991,4.78205663 6.10189019,4.37827523 Z M14,1.95500238 C14,1.67886 14.2238576,1.45500238 14.5,1.45500238 C14.7761424,1.45500238 15,1.67886 15,1.95500238 L15,14.0900024 C15,14.3661448 14.7761424,14.5900024 14.5,14.5900024 C14.2238576,14.5900024 14,14.3661448 14,14.0900024 L14,1.95500238 Z M12,3.79800238 C12,3.52186 12.2238576,3.29800238 12.5,3.29800238 C12.7761424,3.29800238 13,3.52186 13,3.79800238 L13,12.2470024 C13,12.5231448 12.7761424,12.7470024 12.5,12.7470024 C12.2238576,12.7470024 12,12.5231448 12,12.2470024 L12,3.79800238 Z M10.014,5.61900238 C10.014,5.34286 10.2378576,5.11900238 10.514,5.11900238 C10.7901424,5.11900238 11.014,5.34286 11.014,5.61900238 L11.014,10.3830024 C11.014,10.6591448 10.7901424,10.8830024 10.514,10.8830024 C10.2378576,10.8830024 10.014,10.6591448 10.014,10.3830024 L10.014,5.61900238 Z"></path>
                                            </g>
                                        </g>
                                    </g>
                                </g>
                            </g>
                        </g>
                        <g id="编组" mask="url(#mask-2)">
                            <g transform="translate(10.000000, 156.000000)" id="DTK-/-Popup-/-MenuItem-/-Light-Active">
                                <g id="矩形">
                                    <use fill="black" fill-opacity="1" filter="url(#filter-10)" xlink:href="#path-9"></use>
                                    <use fill="#0081FF" fill-rule="evenodd" xlink:href="#path-9"></use>
                                    <use fill="black" fill-opacity="1" filter="url(#filter-11)" xlink:href="#path-9"></use>
                                </g>
                                <g id="编组" transform="translate(216.000000, 11.000000)" fill="#FFFFFF" fill-rule="nonzero">
                                    <g id="menuitem_select" transform="translate(0.999997, 1.999956)">
                                        <path d="M11.9161746,0.383335474 C12.2567731,-0.0514186317 12.8853206,-0.127746861 13.3200747,0.212851602 C13.7213861,0.527250183 13.8172933,1.08700174 13.5617837,1.5132029 L13.4905585,1.61675162 L5.65628029,11.6167516 C5.30422001,12.0661361 4.65596945,12.124889 4.22971115,11.7691292 L4.14195676,11.6865417 L0.272871003,7.58844671 C-0.106271436,7.18686302 -0.0880792126,6.55395945 0.313504472,6.17481701 C0.684197104,5.82483938 1.25199071,5.81341909 1.63535592,6.12958944 L1.72713417,6.21545048 L4.79800259,9.46804354 L11.9161746,0.383335474 Z" id="Path-1112"></path>
                                    </g>
                                </g>
                                <text id="选项" font-family="SourceHanSansSC-Medium, Source Han Sans SC" font-size="14" font-weight="400" fill="#FFFFFF">
                                    <tspan x="34" y="24">WH-1000MX3</tspan>
                                </text>
                                <g id="编组" transform="translate(10.000000, 10.000000)" fill="#FFFFFF" fill-rule="nonzero">
                                    <g id="ICON">
                                        <path d="M8,1.5 C11.7854517,1.5 14.8690987,4.50478338 14.995941,8.25935025 L15,8.5 L15,11 C15,11.2761424 14.7761424,11.5 14.5,11.5 C14.2545401,11.5 14.0503916,11.3231248 14.0080557,11.0898756 L14,11 L14,8.5 C14,5.1862915 11.3137085,2.5 8,2.5 C4.76160306,2.5 2.12242824,5.06557489 2.00413847,8.27506174 L2,8.5 L2,11 C2,11.2761424 1.77614237,11.5 1.5,11.5 C1.25454011,11.5 1.05039163,11.3231248 1.00805567,11.0898756 L1,11 L1,8.5 C1,4.63400675 4.13400675,1.5 8,1.5 Z M4.5,8.5 C5.32842712,8.5 6,9.17157288 6,10 L6,13 C6,13.8284271 5.32842712,14.5 4.5,14.5 C3.67157288,14.5 3,13.8284271 3,13 L3,10 C3,9.17157288 3.67157288,8.5 4.5,8.5 Z M11.5,8.5 C12.3284271,8.5 13,9.17157288 13,10 L13,13 C13,13.8284271 12.3284271,14.5 11.5,14.5 C10.6715729,14.5 10,13.8284271 10,13 L10,10 C10,9.17157288 10.6715729,8.5 11.5,8.5 Z" id="形状结合"></path>
                                    </g>
                                </g>
                            </g>
                        </g>
                        <text id="输出" opacity="0.600000024" mask="url(#mask-2)" font-family="SourceHanSansSC-Normal, Source Han Sans SC" font-size="11" font-weight="normal" fill="#000000">
                            <tspan x="20" y="101">输出</tspan>
                        </text>
                        <g id="编组" mask="url(#mask-2)">
                            <g transform="translate(10.000000, 202.000000)" id="DTK-/-Popup-/-MenuItem-/-Light">
                                <rect id="矩形" fill-opacity="0.05" fill="#000000" x="0" y="0" width="240" height="36" rx="8"></rect>
                                <text id="1个小时" font-family="SourceHanSansSC-Medium, Source Han Sans SC" font-size="14" font-weight="400" fill="#000000" fill-opacity="0.9">
                                    <tspan x="34" y="24">声音设置</tspan>
                                </text>
                                <g id="编组" transform="translate(10.000000, 10.000000)" fill="#000000" fill-rule="nonzero">
                                    <g id="ICON">
                                        <path d="M2,9 C2.55228475,9 3,8.55228475 3,8 C3,7.44771525 2.55228475,7 2,7 C1.44771525,7 1,7.44771525 1,8 C1,8.55228475 1.44771525,9 2,9 Z M5,9 C5.55228475,9 6,8.55228475 6,8 C6,7.44771525 5.55228475,7 5,7 C4.44771525,7 4,7.44771525 4,8 C4,8.55228475 4.44771525,9 5,9 Z M12.14396,4.24520119 L15.1793337,7.28057489 C15.569858,7.67109919 15.569858,8.30426416 15.1793337,8.69478846 L12.1437804,11.7303418 C11.8953415,11.9787807 11.5079785,12.0036246 11.2317549,11.8048735 L11.1441396,11.7303418 C11.1440862,11.7302884 11.1440329,11.7302351 11.1439795,11.7301817 C10.8679095,11.4539347 10.8679785,11.0062163 11.1441337,10.7300544 L13.8864405,7.98768168 L11.1433688,5.24515178 C10.8948406,4.99667271 10.869952,4.60921124 11.0687276,4.33289592 L11.1434795,4.24504099 L11.1434795,4.24504099 C11.4198247,3.96887272 11.8677033,3.96894443 12.14396,4.24520119 Z M11,7 C11.5522847,7 12,7.44771525 12,8 C12,8.55228475 11.5522847,9 11,9 L8,9 C7.44771525,9 7,8.55228475 7,8 C7,7.44771525 7.44771525,7 8,7 L11,7 Z" id="形状结合"></path>
                                    </g>
                                </g>
                            </g>
                        </g>
                        <g id="编组" mask="url(#mask-2)">
                            <g transform="translate(10.000000, 110.000000)" id="DTK-/-Popup-/-MenuItem-/-Light">
                                <rect id="矩形" fill-opacity="0.05" fill="#000000" x="0" y="0" width="240" height="36" rx="8"></rect>
                                <text id="1个小时" font-family="SourceHanSansSC-Medium, Source Han Sans SC" font-size="14" font-weight="400" fill="#000000" fill-opacity="0.9">
                                    <tspan x="34" y="24">扬声器</tspan>
                                </text>
                                <g id="编组" transform="translate(10.000000, 10.000000)" fill="#000000" fill-rule="nonzero">
                                    <g id="ICON">
                                        <path d="M13,2 C14.1045695,2 15,2.8954305 15,4 L15,12 L15.5,12 C15.7761424,12 16,12.2238576 16,12.5 C16,12.7761424 15.7761424,13 15.5,13 L0.5,13 C0.223857625,13 3.38176876e-17,12.7761424 0,12.5 C-3.38176876e-17,12.2238576 0.223857625,12 0.5,12 L1,12 L1,4 C1,2.8954305 1.8954305,2 3,2 L13,2 Z M13,3 L3,3 C2.44771525,3 2,3.44771525 2,4 L2,4 L2,10 C2,10.5522847 2.44771525,11 3,11 L3,11 L13,11 C13.5522847,11 14,10.5522847 14,10 L14,10 L14,4 C14,3.44771525 13.5522847,3 13,3 L13,3 Z" id="形状结合"></path>
                                    </g>
                                </g>
                            </g>
                        </g>
                        <text id="声音" mask="url(#mask-2)" font-family="SourceHanSansSC-Medium, Source Han Sans SC" font-size="14" font-weight="400" fill="#000000">
                            <tspan x="116" y="28">声音</tspan>
                        </text>
                    </g>
                </g>
            </g>
        </g>
    </g>
</svg>