<?xml version="1.0" encoding="UTF-8"?>
<svg width="286px" height="462px" viewBox="0 0 286 462" version="1.1" xmlns="http://www.w3.org/2000/svg" xmlns:xlink="http://www.w3.org/1999/xlink">
    <title>勿扰模式</title>
    <defs>
        <rect id="path-1" x="0" y="0" width="260" height="436" rx="18"></rect>
        <filter x="-8.5%" y="-3.7%" width="116.9%" height="110.1%" filterUnits="objectBoundingBox" id="filter-3">
            <feMorphology radius="1" operator="dilate" in="SourceAlpha" result="shadowSpreadOuter1"></feMorphology>
            <feOffset dx="0" dy="6" in="shadowSpreadOuter1" result="shadowOffsetOuter1"></feOffset>
            <feGaussianBlur stdDeviation="6" in="shadowOffsetOuter1" result="shadowBlurOuter1"></feGaussianBlur>
            <feComposite in="shadowBlurOuter1" in2="SourceAlpha" operator="out" result="shadowBlurOuter1"></feComposite>
            <feColorMatrix values="0 0 0 0 0   0 0 0 0 0   0 0 0 0 0  0 0 0 0.2 0" type="matrix" in="shadowBlurOuter1"></feColorMatrix>
        </filter>
        <rect id="path-4" x="0" y="0" width="240" height="36" rx="8"></rect>
        <filter x="-4.6%" y="-19.4%" width="109.2%" height="161.1%" filterUnits="objectBoundingBox" id="filter-5">
            <feOffset dx="0" dy="4" in="SourceAlpha" result="shadowOffsetOuter1"></feOffset>
            <feGaussianBlur stdDeviation="3" in="shadowOffsetOuter1" result="shadowBlurOuter1"></feGaussianBlur>
            <feColorMatrix values="0 0 0 0 0   0 0 0 0 0.505882353   0 0 0 0 1  0 0 0 0.4 0" type="matrix" in="shadowBlurOuter1"></feColorMatrix>
        </filter>
        <filter x="-3.3%" y="-11.1%" width="106.7%" height="144.4%" filterUnits="objectBoundingBox" id="filter-6">
            <feMorphology radius="1" operator="erode" in="SourceAlpha" result="shadowSpreadInner1"></feMorphology>
            <feGaussianBlur stdDeviation="1" in="shadowSpreadInner1" result="shadowBlurInner1"></feGaussianBlur>
            <feOffset dx="0" dy="-1" in="shadowBlurInner1" result="shadowOffsetInner1"></feOffset>
            <feComposite in="shadowOffsetInner1" in2="SourceAlpha" operator="arithmetic" k2="-1" k3="1" result="shadowInnerInner1"></feComposite>
            <feColorMatrix values="0 0 0 0 0.0356979208   0 0 0 0 0.355505317   0 0 0 0 0.977270154  0 0 0 1 0" type="matrix" in="shadowInnerInner1"></feColorMatrix>
        </filter>
        <rect id="path-7" x="20" y="0" width="30" height="24" rx="8"></rect>
        <filter x="-36.7%" y="-29.2%" width="173.3%" height="191.7%" filterUnits="objectBoundingBox" id="filter-8">
            <feOffset dx="0" dy="4" in="SourceAlpha" result="shadowOffsetOuter1"></feOffset>
            <feGaussianBlur stdDeviation="3" in="shadowOffsetOuter1" result="shadowBlurOuter1"></feGaussianBlur>
            <feColorMatrix values="0 0 0 0 0   0 0 0 0 0.505882353   0 0 0 0 1  0 0 0 0.4 0" type="matrix" in="shadowBlurOuter1"></feColorMatrix>
        </filter>
        <filter x="-26.7%" y="-16.7%" width="153.3%" height="166.7%" filterUnits="objectBoundingBox" id="filter-9">
            <feMorphology radius="1" operator="erode" in="SourceAlpha" result="shadowSpreadInner1"></feMorphology>
            <feGaussianBlur stdDeviation="1" in="shadowSpreadInner1" result="shadowBlurInner1"></feGaussianBlur>
            <feOffset dx="0" dy="-1" in="shadowBlurInner1" result="shadowOffsetInner1"></feOffset>
            <feComposite in="shadowOffsetInner1" in2="SourceAlpha" operator="arithmetic" k2="-1" k3="1" result="shadowInnerInner1"></feComposite>
            <feColorMatrix values="0 0 0 0 0.0356979208   0 0 0 0 0.355505317   0 0 0 0 0.977270154  0 0 0 1 0" type="matrix" in="shadowInnerInner1"></feColorMatrix>
        </filter>
    </defs>
    <g id="概览" stroke="none" stroke-width="1" fill="none" fill-rule="evenodd">
        <g id="V23控件-浅色" transform="translate(-925.000000, -7615.000000)">
            <g id="编组-57" transform="translate(200.000000, 7503.000000)">
                <g id="编组-49" transform="translate(0.000000, 119.000000)">
                    <g id="分组-2" transform="translate(738.000000, 0.000000)">
                        <mask id="mask-2" fill="white">
                            <use xlink:href="#path-1" transform="translate(130.000000, 218.000000) scale(-1, 1) translate(-130.000000, -218.000000) "></use>
                        </mask>
                        <g id="蒙版" transform="translate(130.000000, 218.000000) scale(-1, 1) translate(-130.000000, -218.000000) ">
                            <use fill="black" fill-opacity="1" filter="url(#filter-3)" xlink:href="#path-1"></use>
                            <use fill-opacity="0.8" fill="#EEEEEE" fill-rule="evenodd" xlink:href="#path-1"></use>
                            <rect stroke-opacity="0.06" stroke="#000000" stroke-width="1" x="-0.5" y="-0.5" width="261" height="437" rx="18"></rect>
                            <rect stroke-opacity="0.1" stroke="#FFFFFF" stroke-width="1" stroke-linejoin="square" x="0.5" y="0.5" width="259" height="435" rx="18"></rect>
                        </g>
                        <g id="编组" mask="url(#mask-2)">
                            <g transform="translate(10.000000, 90.000000)" id="DTK-/-Popup-/-MenuItem-/-Light">
                                <rect id="矩形" fill-opacity="0.05" fill="#000000" x="0" y="0" width="240" height="36" rx="8"></rect>
                                <text id="1个小时" font-family="SourceHanSansSC-Medium, Source Han Sans SC" font-size="14" font-weight="400" fill="#000000" fill-opacity="0.9">
                                    <tspan x="34" y="24">Uniontech</tspan>
                                </text>
                                <g id="编组" transform="translate(10.000000, 10.000000)" fill="#000000" fill-opacity="0.7" fill-rule="nonzero">
                                    <g id="ICON">
                                        <path d="M8,10.1428571 C9.1045695,10.1428571 10,11.0382876 10,12.1428571 C10,13.2474266 9.1045695,14.1428571 8,14.1428571 C6.8954305,14.1428571 6,13.2474266 6,12.1428571 C6,11.0382876 6.8954305,10.1428571 8,10.1428571 Z M8,7.62285714 C9.99295401,7.62285714 11.6846525,8.91268545 12.2858639,10.7031105 L11.4311018,11.5582132 C11.1530654,9.91462494 9.72271572,8.66285714 8,8.66285714 C6.27763628,8.66285714 4.84751913,9.91411344 4.56906881,11.5572058 L3.7144742,10.7021042 C4.31598148,8.91220214 6.00741941,7.62285714 8,7.62285714 Z M8,5.22285714 C10.6427755,5.22285714 12.9395372,6.70431819 14.1051253,8.8820804 L13.3306816,9.65795713 C12.3942367,7.65249766 10.3594023,6.26285714 8,6.26285714 C5.64099235,6.26285714 3.60644405,7.65203278 2.66978841,9.65695076 L1.89487467,8.8820804 C3.06046276,6.70431819 5.35722449,5.22285714 8,5.22285714 Z M8,2.82285714 C11.3016116,2.82285714 14.2022504,4.53962606 15.8579296,7.12917719 L15.1028707,7.88511784 C13.6552195,5.47529443 11.0159122,3.86285714 8,3.86285714 C4.98408781,3.86285714 2.34478053,5.47529443 0.89712933,7.88511784 L0.141429671,7.13017951 C1.79700118,4.54006906 4.69796242,2.82285714 8,2.82285714 Z" id="形状结合"></path>
                                    </g>
                                </g>
                            </g>
                        </g>
                        <text id="我的网络" opacity="0.600000024" mask="url(#mask-2)" font-family="SourceHanSansSC-Normal, Source Han Sans SC" font-size="11" font-weight="normal" fill="#000000">
                            <tspan x="20" y="81">我的网络</tspan>
                        </text>
                        <g id="其他网络-展开" mask="url(#mask-2)">
                            <g transform="translate(10.000000, 182.000000)">
                                <rect id="矩形" fill-opacity="0.05" fill="#000000" fill-rule="evenodd" x="0" y="0" width="240" height="24" rx="8"></rect>
                                <text id="其他网络" fill="none" opacity="0.600000024" font-family="SourceHanSansSC-Normal, Source Han Sans SC" font-size="11" font-weight="normal">
                                    <tspan x="10" y="17" fill="#000000">其他网络</tspan>
                                </text>
                                <g id="编组" stroke-width="1" fill="none" fill-rule="evenodd" transform="translate(220.000000, 4.000000)">
                                    <g id="ICON-/-Arrow-/-Round-/-Up-/-Light">
                                        <circle id="background" fill-opacity="0.2" fill="#FFFFFF" cx="8" cy="8" r="8"></circle>
                                        <g id="编组" transform="translate(2.000000, 2.000000)" fill="#000000" fill-opacity="0.7" fill-rule="nonzero">
                                            <g id="ICON/Arrow" transform="translate(6.000000, 6.000000) scale(-1, 1) rotate(90.000000) translate(-6.000000, -6.000000) ">
                                                <path d="M7.62598722,1.22688911 C7.94031165,0.924370296 8.44993225,0.924370296 8.76425668,1.22688911 C9.04365617,1.49579473 9.07470056,1.91321282 8.85738984,2.2151212 L8.76425668,2.32240666 L4.94195122,6 L8.76425668,9.67759334 C9.04365617,9.94649895 9.07470056,10.363917 8.85738984,10.6658254 L8.76425668,10.7731109 C8.48485718,11.0420165 8.05114961,11.0718949 7.73745943,10.8627461 L7.62598722,10.7731109 L3.23574332,6.54775877 C2.95634383,6.27885316 2.92529944,5.86143507 3.14261016,5.55952669 L3.23574332,5.45224123 L7.62598722,1.22688911 Z" id="arrow"></path>
                                            </g>
                                        </g>
                                    </g>
                                </g>
                            </g>
                        </g>
                        <g id="编组" mask="url(#mask-2)">
                            <g transform="translate(10.000000, 136.000000)" id="DTK-/-Popup-/-MenuItem-/-Light-Active">
                                <g id="矩形">
                                    <use fill="black" fill-opacity="1" filter="url(#filter-5)" xlink:href="#path-4"></use>
                                    <use fill="#0081FF" fill-rule="evenodd" xlink:href="#path-4"></use>
                                    <use fill="black" fill-opacity="1" filter="url(#filter-6)" xlink:href="#path-4"></use>
                                </g>
                                <g id="编组" transform="translate(216.000000, 11.000000)" fill="#FFFFFF" fill-rule="nonzero">
                                    <g id="menuitem_select" transform="translate(0.999997, 1.999956)">
                                        <path d="M11.9161746,0.383335474 C12.2567731,-0.0514186317 12.8853206,-0.127746861 13.3200747,0.212851602 C13.7213861,0.527250183 13.8172933,1.08700174 13.5617837,1.5132029 L13.4905585,1.61675162 L5.65628029,11.6167516 C5.30422001,12.0661361 4.65596945,12.124889 4.22971115,11.7691292 L4.14195676,11.6865417 L0.272871003,7.58844671 C-0.106271436,7.18686302 -0.0880792126,6.55395945 0.313504472,6.17481701 C0.684197104,5.82483938 1.25199071,5.81341909 1.63535592,6.12958944 L1.72713417,6.21545048 L4.79800259,9.46804354 L11.9161746,0.383335474 Z" id="Path-1112"></path>
                                    </g>
                                </g>
                                <text id="选项" font-family="SourceHanSansSC-Medium, Source Han Sans SC" font-size="14" font-weight="400" fill="#FFFFFF">
                                    <tspan x="34" y="24">TP-link_1723</tspan>
                                </text>
                                <g id="编组" transform="translate(10.000000, 10.000000)" fill="#FFFFFF" fill-rule="nonzero">
                                    <g id="ICON">
                                        <path d="M8,10.1428571 C9.1045695,10.1428571 10,11.0382876 10,12.1428571 C10,13.2474266 9.1045695,14.1428571 8,14.1428571 C6.8954305,14.1428571 6,13.2474266 6,12.1428571 C6,11.0382876 6.8954305,10.1428571 8,10.1428571 Z M8,7.62285714 C9.99295401,7.62285714 11.6846525,8.91268545 12.2858639,10.7031105 L11.4311018,11.5582132 C11.1530654,9.91462494 9.72271572,8.66285714 8,8.66285714 C6.27763628,8.66285714 4.84751913,9.91411344 4.56906881,11.5572058 L3.7144742,10.7021042 C4.31598148,8.91220214 6.00741941,7.62285714 8,7.62285714 Z M8,5.22285714 C10.6427755,5.22285714 12.9395372,6.70431819 14.1051253,8.8820804 L13.3306816,9.65795713 C12.3942367,7.65249766 10.3594023,6.26285714 8,6.26285714 C5.64099235,6.26285714 3.60644405,7.65203278 2.66978841,9.65695076 L1.89487467,8.8820804 C3.06046276,6.70431819 5.35722449,5.22285714 8,5.22285714 Z M8,2.82285714 C11.3016116,2.82285714 14.2022504,4.53962606 15.8579296,7.12917719 L15.1028707,7.88511784 C13.6552195,5.47529443 11.0159122,3.86285714 8,3.86285714 C4.98408781,3.86285714 2.34478053,5.47529443 0.89712933,7.88511784 L0.141429671,7.13017951 C1.79700118,4.54006906 4.69796242,2.82285714 8,2.82285714 Z" id="形状结合"></path>
                                    </g>
                                </g>
                            </g>
                        </g>
                        <g id="编组" mask="url(#mask-2)">
                            <g transform="translate(10.000000, 210.000000)">
                                <g transform="translate(0.000000, 186.000000)" id="DTK-/-Popup-/-MenuGroupItem-/-Light" fill="#000000">
                                    <g id="编组" fill-opacity="0.05">
                                        <g id="MenuGroupItem-BG/Top">
                                            <path d="M0,0 L240,0 L240,22 C240,26.418278 236.418278,30 232,30 L8,30 C3.581722,30 5.41083001e-16,26.418278 0,22 L0,0 L0,0 Z"></path>
                                        </g>
                                    </g>
                                    <text id="1个小时" font-family="SourceHanSansSC-Medium, Source Han Sans SC" font-size="14" font-weight="400" fill-opacity="0.9">
                                        <tspan x="34" y="21">网络设置</tspan>
                                    </text>
                                    <g id="编组" transform="translate(10.000000, 7.000000)" fill-rule="nonzero">
                                        <g id="ICON">
                                            <path d="M2,9 C2.55228475,9 3,8.55228475 3,8 C3,7.44771525 2.55228475,7 2,7 C1.44771525,7 1,7.44771525 1,8 C1,8.55228475 1.44771525,9 2,9 Z M5,9 C5.55228475,9 6,8.55228475 6,8 C6,7.44771525 5.55228475,7 5,7 C4.44771525,7 4,7.44771525 4,8 C4,8.55228475 4.44771525,9 5,9 Z M12.14396,4.24520119 L15.1793337,7.28057489 C15.569858,7.67109919 15.569858,8.30426416 15.1793337,8.69478846 L12.1437804,11.7303418 C11.8953415,11.9787807 11.5079785,12.0036246 11.2317549,11.8048735 L11.1441396,11.7303418 C11.1440862,11.7302884 11.1440329,11.7302351 11.1439795,11.7301817 C10.8679095,11.4539347 10.8679785,11.0062163 11.1441337,10.7300544 L13.8864405,7.98768168 L11.1433688,5.24515178 C10.8948406,4.99667271 10.869952,4.60921124 11.0687276,4.33289592 L11.1434795,4.24504099 L11.1434795,4.24504099 C11.4198247,3.96887272 11.8677033,3.96894443 12.14396,4.24520119 Z M11,7 C11.5522847,7 12,7.44771525 12,8 C12,8.55228475 11.5522847,9 11,9 L8,9 C7.44771525,9 7,8.55228475 7,8 C7,7.44771525 7.44771525,7 8,7 L11,7 Z" id="形状结合"></path>
                                        </g>
                                    </g>
                                </g>
                                <g id="DTK-/-Popup-/-MenuGroupItem-/-Light" fill="#000000">
                                    <g id="编组" fill-opacity="0.05">
                                        <g id="MenuGroupItem-BG/Top">
                                            <path d="M8,0 L232,0 C236.418278,-8.11624501e-16 240,3.581722 240,8 L240,30 L240,30 L0,30 L0,8 C-5.41083001e-16,3.581722 3.581722,8.11624501e-16 8,0 Z"></path>
                                        </g>
                                    </g>
                                    <text id="1个小时" font-family="SourceHanSansSC-Medium, Source Han Sans SC" font-size="14" font-weight="400" fill-opacity="0.9">
                                        <tspan x="34" y="21">舒乐的热点</tspan>
                                    </text>
                                    <g id="编组" transform="translate(10.000000, 7.000000)" fill-rule="nonzero">
                                        <g id="形状结合">
                                            <path d="M8.01674297,11 C8.8451701,11 9.51674297,11.6715729 9.51674297,12.5 C9.51674297,13.3284271 8.8451701,14 8.01674297,14 C7.18831585,14 6.51674297,13.3284271 6.51674297,12.5 C6.51674297,11.6715729 7.18831585,11 8.01674297,11 Z M13.5,8 C14.3284271,8 15,8.67157288 15,9.5 L15.0001925,10 C15.5523709,10 16,10.4433532 16,11.0093689 L16,12.9906311 C16,13.5480902 15.5562834,14 15.0001925,14 L11.9998075,14 C11.4476291,14 11,13.5566468 11,12.9906311 L11,11.0093689 C11,10.4519098 11.4437166,10 11.9998075,10 L12,9.5 C12,8.67157288 12.6715729,8 13.5,8 Z M8.01674297,8 C9.18106117,8 10.2524287,8.39796892 11.1022387,9.06529977 L11.0662063,9.23084342 C10.8867443,9.3260377 10.7236443,9.44779881 10.581862,9.59093694 C10.4017468,9.77277464 10.2559724,9.98942236 10.1553818,10.2301687 C9.56587924,9.77272668 8.82316047,9.5 8.01674297,9.5 C6.92655169,9.5 5.95277737,9.9984403 5.31087747,10.7798635 L4.2465155,9.71577846 C5.16313434,8.66439867 6.51234934,8 8.01674297,8 Z M13.5,9 C13.2545401,9 13.0503916,9.17687516 13.0080557,9.41012437 L13,9.5 L13,9.999 L14,9.999 L14,9.5 C14,9.22385763 13.7761424,9 13.5,9 Z M8.01674297,5 C10.0490827,5 11.9044191,5.75784159 13.3155755,7.00634814 C12.7379107,7.04781207 12.2125828,7.28441735 11.8009088,7.714654 C10.7367268,6.95062017 9.4293589,6.5 8.01674297,6.5 C6.09821343,6.5 4.37381832,7.33118828 3.1840193,8.65310315 L2.1222033,7.59119845 C3.58452266,5.9984018 5.6840382,5 8.01674297,5 Z M8.01674297,2 C11.1775813,2 14.0270395,3.33317654 16.0334859,5.46789784 L14.9730534,6.5300324 C13.2385414,4.66597575 10.7638063,3.5 8.01674297,3.5 C5.27016863,3.5 2.79582558,4.6655607 1.06135886,6.52903707 L1.8189894e-12,5.46789784 C2.00644639,3.33317654 4.85590465,2 8.01674297,2 Z"></path>
                                        </g>
                                    </g>
                                </g>
                                <g transform="translate(0.000000, 155.000000)" id="DTK-/-Popup-/-MenuGroupItem-/-Light" fill="#000000">
                                    <g id="编组" fill-opacity="0.05">
                                        <g id="MenuGroupItem-BG/Top">
                                            <rect x="0" y="0" width="240" height="30"></rect>
                                        </g>
                                    </g>
                                    <text id="1个小时" font-family="SourceHanSansSC-Medium, Source Han Sans SC" font-size="14" font-weight="400" fill-opacity="0.9">
                                        <tspan x="34" y="21">Guest</tspan>
                                    </text>
                                    <g id="编组" transform="translate(10.000000, 7.000000)" fill-rule="nonzero">
                                        <g>
                                            <path d="M8.01674297,11 C8.8451701,11 9.51674297,11.6715729 9.51674297,12.5 C9.51674297,13.3284271 8.8451701,14 8.01674297,14 C7.18831585,14 6.51674297,13.3284271 6.51674297,12.5 C6.51674297,11.6715729 7.18831585,11 8.01674297,11 Z M8.01674297,8 C9.5211366,8 10.8703516,8.66439867 11.7869704,9.71577846 L10.7226085,10.7798635 C10.0807086,9.9984403 9.10693425,9.5 8.01674297,9.5 C6.92655169,9.5 5.95277737,9.9984403 5.31087747,10.7798635 L4.2465155,9.71577846 C5.16313434,8.66439867 6.51234934,8 8.01674297,8 Z M8.01674297,5 C10.3494477,5 12.4489633,5.9984018 13.9112826,7.59119845 L12.8494666,8.65310315 C11.6596676,7.33118828 9.93527251,6.5 8.01674297,6.5 C6.09821343,6.5 4.37381832,7.33118828 3.1840193,8.65310315 L2.1222033,7.59119845 C3.58452266,5.9984018 5.6840382,5 8.01674297,5 Z" id="形状结合"></path>
                                            <g id="5" opacity="0.300000012" transform="translate(0.000000, 2.000000)">
                                                <path d="M8.01674297,0 C11.1775813,0 14.0270395,1.33317654 16.0334859,3.46789784 L14.9730534,4.5300324 C13.2385414,2.66597575 10.7638063,1.5 8.01674297,1.5 C5.27016863,1.5 2.79582558,2.6655607 1.06135886,4.52903707 L0,3.46789784 C2.00644639,1.33317654 4.85590465,0 8.01674297,0 Z" id="4"></path>
                                            </g>
                                        </g>
                                    </g>
                                </g>
                                <g transform="translate(0.000000, 124.000000)" id="DTK-/-Popup-/-MenuGroupItem-/-Light" fill="#000000">
                                    <g id="编组" fill-opacity="0.05">
                                        <g id="MenuGroupItem-BG/Top">
                                            <rect x="0" y="0" width="240" height="30"></rect>
                                        </g>
                                    </g>
                                    <text id="1个小时" font-family="SourceHanSansSC-Medium, Source Han Sans SC" font-size="14" font-weight="400" fill-opacity="0.9">
                                        <tspan x="34" y="21">Miwifi</tspan>
                                    </text>
                                    <g id="编组" transform="translate(10.000000, 7.000000)" fill-rule="nonzero">
                                        <g>
                                            <path d="M8.01674297,11 C8.8451701,11 9.51674297,11.6715729 9.51674297,12.5 C9.51674297,13.3284271 8.8451701,14 8.01674297,14 C7.18831585,14 6.51674297,13.3284271 6.51674297,12.5 C6.51674297,11.6715729 7.18831585,11 8.01674297,11 Z M8.01674297,8 C9.5211366,8 10.8703516,8.66439867 11.7869704,9.71577846 L10.7226085,10.7798635 C10.0807086,9.9984403 9.10693425,9.5 8.01674297,9.5 C6.92655169,9.5 5.95277737,9.9984403 5.31087747,10.7798635 L4.2465155,9.71577846 C5.16313434,8.66439867 6.51234934,8 8.01674297,8 Z M8.01674297,5 C10.3494477,5 12.4489633,5.9984018 13.9112826,7.59119845 L12.8494666,8.65310315 C11.6596676,7.33118828 9.93527251,6.5 8.01674297,6.5 C6.09821343,6.5 4.37381832,7.33118828 3.1840193,8.65310315 L2.1222033,7.59119845 C3.58452266,5.9984018 5.6840382,5 8.01674297,5 Z" id="形状结合"></path>
                                            <g id="5" opacity="0.300000012" transform="translate(0.000000, 2.000000)">
                                                <path d="M8.01674297,0 C11.1775813,0 14.0270395,1.33317654 16.0334859,3.46789784 L14.9730534,4.5300324 C13.2385414,2.66597575 10.7638063,1.5 8.01674297,1.5 C5.27016863,1.5 2.79582558,2.6655607 1.06135886,4.52903707 L0,3.46789784 C2.00644639,1.33317654 4.85590465,0 8.01674297,0 Z" id="4"></path>
                                            </g>
                                        </g>
                                    </g>
                                </g>
                                <g transform="translate(0.000000, 93.000000)" id="DTK-/-Popup-/-MenuGroupItem-/-Light" fill="#000000">
                                    <g id="编组" fill-opacity="0.05">
                                        <g id="MenuGroupItem-BG/Top">
                                            <rect x="0" y="0" width="240" height="30"></rect>
                                        </g>
                                    </g>
                                    <text id="1个小时" font-family="SourceHanSansSC-Medium, Source Han Sans SC" font-size="14" font-weight="400" fill-opacity="0.9">
                                        <tspan x="34" y="21">Uniontech-M</tspan>
                                    </text>
                                    <g id="编组" transform="translate(10.000000, 7.000000)" fill-rule="nonzero">
                                        <g>
                                            <path d="M8.01674297,11 C8.8451701,11 9.51674297,11.6715729 9.51674297,12.5 C9.51674297,13.3284271 8.8451701,14 8.01674297,14 C7.18831585,14 6.51674297,13.3284271 6.51674297,12.5 C6.51674297,11.6715729 7.18831585,11 8.01674297,11 Z M13.5,8 C14.3284271,8 15,8.67157288 15,9.5 L15.0001925,10 C15.5523709,10 16,10.4433532 16,11.0093689 L16,12.9906311 C16,13.5480902 15.5562834,14 15.0001925,14 L11.9998075,14 C11.4476291,14 11,13.5566468 11,12.9906311 L11,11.0093689 C11,10.4519098 11.4437166,10 11.9998075,10 L12,9.5 C12,8.67157288 12.6715729,8 13.5,8 Z M8.01674297,8 C9.18106117,8 10.2524287,8.39796892 11.1022387,9.06529977 L11.0662063,9.23084342 C10.8867443,9.3260377 10.7236443,9.44779881 10.581862,9.59093694 C10.4017468,9.77277464 10.2559724,9.98942236 10.1553818,10.2301687 C9.56587924,9.77272668 8.82316047,9.5 8.01674297,9.5 C6.92655169,9.5 5.95277737,9.9984403 5.31087747,10.7798635 L4.2465155,9.71577846 C5.16313434,8.66439867 6.51234934,8 8.01674297,8 Z M13.5,9 C13.2545401,9 13.0503916,9.17687516 13.0080557,9.41012437 L13,9.5 L13,9.999 L14,9.999 L14,9.5 C14,9.22385763 13.7761424,9 13.5,9 Z M8.01674297,5 C10.0490827,5 11.9044191,5.75784159 13.3155755,7.00634814 C12.7379107,7.04781207 12.2125828,7.28441735 11.8009088,7.714654 C10.7367268,6.95062017 9.4293589,6.5 8.01674297,6.5 C6.09821343,6.5 4.37381832,7.33118828 3.1840193,8.65310315 L2.1222033,7.59119845 C3.58452266,5.9984018 5.6840382,5 8.01674297,5 Z" id="形状结合"></path>
                                            <g id="5" opacity="0.300000012" transform="translate(0.000000, 2.000000)">
                                                <path d="M8.01674297,0 C11.1775813,0 14.0270395,1.33317654 16.0334859,3.46789784 L14.9730534,4.5300324 C13.2385414,2.66597575 10.7638063,1.5 8.01674297,1.5 C5.27016863,1.5 2.79582558,2.6655607 1.06135886,4.52903707 L0,3.46789784 C2.00644639,1.33317654 4.85590465,0 8.01674297,0 Z" id="4"></path>
                                            </g>
                                        </g>
                                    </g>
                                </g>
                                <g transform="translate(0.000000, 62.000000)" id="DTK-/-Popup-/-MenuGroupItem-/-Light" fill="#000000">
                                    <g id="编组" fill-opacity="0.05">
                                        <g id="MenuGroupItem-BG/Top">
                                            <rect x="0" y="0" width="240" height="30"></rect>
                                        </g>
                                    </g>
                                    <text id="1个小时" font-family="SourceHanSansSC-Medium, Source Han Sans SC" font-size="14" font-weight="400" fill-opacity="0.9">
                                        <tspan x="34" y="21">有本事你来蹭啊</tspan>
                                    </text>
                                    <g id="编组" transform="translate(10.000000, 7.000000)" fill-rule="nonzero">
                                        <g id="形状结合">
                                            <path d="M8.01674297,11 C8.8451701,11 9.51674297,11.6715729 9.51674297,12.5 C9.51674297,13.3284271 8.8451701,14 8.01674297,14 C7.18831585,14 6.51674297,13.3284271 6.51674297,12.5 C6.51674297,11.6715729 7.18831585,11 8.01674297,11 Z M13.5,8 C14.3284271,8 15,8.67157288 15,9.5 L15.0001925,10 C15.5523709,10 16,10.4433532 16,11.0093689 L16,12.9906311 C16,13.5480902 15.5562834,14 15.0001925,14 L11.9998075,14 C11.4476291,14 11,13.5566468 11,12.9906311 L11,11.0093689 C11,10.4519098 11.4437166,10 11.9998075,10 L12,9.5 C12,8.67157288 12.6715729,8 13.5,8 Z M8.01674297,8 C9.18106117,8 10.2524287,8.39796892 11.1022387,9.06529977 L11.0662063,9.23084342 C10.8867443,9.3260377 10.7236443,9.44779881 10.581862,9.59093694 C10.4017468,9.77277464 10.2559724,9.98942236 10.1553818,10.2301687 C9.56587924,9.77272668 8.82316047,9.5 8.01674297,9.5 C6.92655169,9.5 5.95277737,9.9984403 5.31087747,10.7798635 L4.2465155,9.71577846 C5.16313434,8.66439867 6.51234934,8 8.01674297,8 Z M13.5,9 C13.2545401,9 13.0503916,9.17687516 13.0080557,9.41012437 L13,9.5 L13,9.999 L14,9.999 L14,9.5 C14,9.22385763 13.7761424,9 13.5,9 Z M8.01674297,5 C10.0490827,5 11.9044191,5.75784159 13.3155755,7.00634814 C12.7379107,7.04781207 12.2125828,7.28441735 11.8009088,7.714654 C10.7367268,6.95062017 9.4293589,6.5 8.01674297,6.5 C6.09821343,6.5 4.37381832,7.33118828 3.1840193,8.65310315 L2.1222033,7.59119845 C3.58452266,5.9984018 5.6840382,5 8.01674297,5 Z M8.01674297,2 C11.1775813,2 14.0270395,3.33317654 16.0334859,5.46789784 L14.9730534,6.5300324 C13.2385414,4.66597575 10.7638063,3.5 8.01674297,3.5 C5.27016863,3.5 2.79582558,4.6655607 1.06135886,6.52903707 L1.8189894e-12,5.46789784 C2.00644639,3.33317654 4.85590465,2 8.01674297,2 Z"></path>
                                        </g>
                                    </g>
                                </g>
                                <g transform="translate(0.000000, 31.000000)" id="DTK-/-Popup-/-MenuGroupItem-/-Light" fill="#000000">
                                    <g id="编组" fill-opacity="0.05">
                                        <g id="MenuGroupItem-BG/Top">
                                            <rect x="0" y="0" width="240" height="30"></rect>
                                        </g>
                                    </g>
                                    <text id="1个小时" font-family="SourceHanSansSC-Medium, Source Han Sans SC" font-size="14" font-weight="400" fill-opacity="0.9">
                                        <tspan x="34" y="21">花花小仙女WIFI</tspan>
                                    </text>
                                    <g id="编组" transform="translate(10.000000, 7.000000)" fill-rule="nonzero">
                                        <g id="形状结合">
                                            <path d="M8.01674297,11 C8.8451701,11 9.51674297,11.6715729 9.51674297,12.5 C9.51674297,13.3284271 8.8451701,14 8.01674297,14 C7.18831585,14 6.51674297,13.3284271 6.51674297,12.5 C6.51674297,11.6715729 7.18831585,11 8.01674297,11 Z M13.5,8 C14.3284271,8 15,8.67157288 15,9.5 L15.0001925,10 C15.5523709,10 16,10.4433532 16,11.0093689 L16,12.9906311 C16,13.5480902 15.5562834,14 15.0001925,14 L11.9998075,14 C11.4476291,14 11,13.5566468 11,12.9906311 L11,11.0093689 C11,10.4519098 11.4437166,10 11.9998075,10 L12,9.5 C12,8.67157288 12.6715729,8 13.5,8 Z M8.01674297,8 C9.18106117,8 10.2524287,8.39796892 11.1022387,9.06529977 L11.0662063,9.23084342 C10.8867443,9.3260377 10.7236443,9.44779881 10.581862,9.59093694 C10.4017468,9.77277464 10.2559724,9.98942236 10.1553818,10.2301687 C9.56587924,9.77272668 8.82316047,9.5 8.01674297,9.5 C6.92655169,9.5 5.95277737,9.9984403 5.31087747,10.7798635 L4.2465155,9.71577846 C5.16313434,8.66439867 6.51234934,8 8.01674297,8 Z M13.5,9 C13.2545401,9 13.0503916,9.17687516 13.0080557,9.41012437 L13,9.5 L13,9.999 L14,9.999 L14,9.5 C14,9.22385763 13.7761424,9 13.5,9 Z M8.01674297,5 C10.0490827,5 11.9044191,5.75784159 13.3155755,7.00634814 C12.7379107,7.04781207 12.2125828,7.28441735 11.8009088,7.714654 C10.7367268,6.95062017 9.4293589,6.5 8.01674297,6.5 C6.09821343,6.5 4.37381832,7.33118828 3.1840193,8.65310315 L2.1222033,7.59119845 C3.58452266,5.9984018 5.6840382,5 8.01674297,5 Z M8.01674297,2 C11.1775813,2 14.0270395,3.33317654 16.0334859,5.46789784 L14.9730534,6.5300324 C13.2385414,4.66597575 10.7638063,3.5 8.01674297,3.5 C5.27016863,3.5 2.79582558,4.6655607 1.06135886,6.52903707 L1.8189894e-12,5.46789784 C2.00644639,3.33317654 4.85590465,2 8.01674297,2 Z"></path>
                                        </g>
                                    </g>
                                </g>
                            </g>
                        </g>
                        <text id="无线网络" mask="url(#mask-2)" font-family="SourceHanSansSC-Medium, Source Han Sans SC" font-size="14" font-weight="400" fill="#000000">
                            <tspan x="101.636364" y="28">无线网络</tspan>
                        </text>
                        <g id="编组" mask="url(#mask-2)">
                            <g transform="translate(105.000000, 38.000000)" id="swith_on">
                                <rect id="矩形" fill-opacity="0.2" fill="#323232" x="0" y="0" width="50" height="24" rx="8"></rect>
                                <g id="矩形">
                                    <use fill="black" fill-opacity="1" filter="url(#filter-8)" xlink:href="#path-7"></use>
                                    <use fill="#0081FF" fill-rule="evenodd" xlink:href="#path-7"></use>
                                    <use fill="black" fill-opacity="1" filter="url(#filter-9)" xlink:href="#path-7"></use>
                                </g>
                            </g>
                        </g>
                    </g>
                </g>
            </g>
        </g>
    </g>
</svg>