<?xml version="1.0" encoding="utf-8"?>
<!-- Generator: Adobe Illustrator 23.0.3, SVG Export Plug-In . SVG Version: 6.00 Build 0)  -->
<svg version="1.1" xmlns="http://www.w3.org/2000/svg" xmlns:xlink="http://www.w3.org/1999/xlink" x="0px" y="0px"
	 viewBox="0 0 16 16" style="enable-background:new 0 0 16 16;" xml:space="preserve">
<style type="text/css">
	.st0{opacity:0.57;}
	.st1{fill:#FFFFFF;}
	.st2{opacity:0.57;fill:#FFFFFF;}
	.st3{opacity:0;fill:#3D6BE5;}
	.st4{opacity:0.85;}
	.st5{fill:#3D6BE5;}
	.st6{fill:#3257CA;}
	.st7{opacity:0.35;}
	.st8{fill:#F04134;}
	.st9{fill:#D73435;}
	.st10{opacity:0.2;fill:#FFFFFF;}
	.st11{opacity:0.85;fill:#FFFFFF;}
	.st12{opacity:0.2;}
	.st13{fill:none;}
	.st14{fill:none;stroke:#000000;stroke-width:0.8043;stroke-miterlimit:10;}
	.st15{fill:none;stroke:#000000;stroke-miterlimit:10;}
	.st16{opacity:0.75;fill:#1F2022;enable-background:new    ;}
	.st17{fill:#1F2022;}
</style>
<g id="文字">
</g>
<g id="普通状态-白">
</g>
<g id="layer1">
</g>
<g id="layer1_10_">
</g>
<g id="layer1_9_">
</g>
<g id="layer1_8_">
</g>
<g id="layer1_7_">
</g>
<g id="layer1_6_">
</g>
<g id="layer1_5_">
</g>
<g id="layer1_4_">
</g>
<g id="layer1_2_">
</g>
<g id="layer1_1_">
</g>
<g id="普通状态-黑">
</g>
<g id="悬停状态">
</g>
<g id="点击状态">
	<path class="st1" d="M13,5.1V4c0-2.2-1.8-4-4-4H7C4.8,0,3,1.8,3,4v1.1C1.9,5.3,1,6.3,1,7.5v6C1,14.9,2.1,16,3.5,16h3
		C6.8,16,7,15.8,7,15.5S6.8,15,6.5,15h-3C2.7,15,2,14.3,2,13.5v-6C2,6.7,2.7,6,3.5,6h9C13.3,6,14,6.7,14,7.5C14,7.8,14.2,8,14.5,8
		S15,7.8,15,7.5C15,6.3,14.1,5.3,13,5.1z M4,5V4c0-1.7,1.3-3,3-3h2c1.7,0,3,1.3,3,3v1H4z"/>
	<g>
		<path class="st1" d="M9.5,16c-0.1,0-0.3-0.1-0.4-0.1l-3-3c-0.2-0.2-0.2-0.5,0-0.7s0.5-0.2,0.7,0l2.6,2.6l4.6-5.6
			c0.2-0.2,0.5-0.2,0.7-0.1c0.2,0.2,0.2,0.5,0.1,0.7l-5,6C9.8,15.9,9.7,16,9.5,16C9.5,16,9.5,16,9.5,16z"/>
	</g>
</g>
</svg>
