<?xml version="1.0" encoding="utf-8"?>
<!-- Generator: Adobe Illustrator 23.0.3, SVG Export Plug-In . SVG Version: 6.00 Build 0)  -->
<svg version="1.1" xmlns="http://www.w3.org/2000/svg" xmlns:xlink="http://www.w3.org/1999/xlink" x="0px" y="0px"
	 viewBox="0 0 16 16" style="enable-background:new 0 0 16 16;" xml:space="preserve">
<style type="text/css">
	.st0{opacity:0.57;}
	.st1{fill:#FFFFFF;}
	.st2{opacity:0.57;fill:#FFFFFF;}
	.st3{opacity:0;fill:#3D6BE5;}
	.st4{opacity:0.85;}
	.st5{fill:#3D6BE5;}
	.st6{fill:#3257CA;}
	.st7{opacity:0.35;}
	.st8{fill:#F04134;}
	.st9{fill:#D73435;}
	.st10{opacity:0.2;fill:#FFFFFF;}
	.st11{opacity:0.85;fill:#FFFFFF;}
	.st12{opacity:0.2;}
	.st13{fill:none;}
	.st14{fill:none;stroke:#000000;stroke-width:0.8043;stroke-miterlimit:10;}
	.st15{fill:none;stroke:#000000;stroke-miterlimit:10;}
	.st16{opacity:0.75;fill:#1F2022;enable-background:new    ;}
	.st17{fill:#1F2022;}
</style>
<g id="文字">
</g>
<g id="普通状态-白">
</g>
<g id="layer1">
</g>
<g id="layer1_10_">
</g>
<g id="layer1_9_">
</g>
<g id="layer1_8_">
</g>
<g id="layer1_7_">
</g>
<g id="layer1_6_">
</g>
<g id="layer1_5_">
</g>
<g id="layer1_4_">
</g>
<g id="layer1_2_">
</g>
<g id="layer1_1_">
</g>
<g id="普通状态-黑">
</g>
<g id="悬停状态">
</g>
<g id="点击状态">
	<g>
		<path class="st1" d="M8,13L8,13c-0.6,0-1-0.4-1-1V9c0-0.5,0.4-1,1-1h0c0.5,0,1,0.4,1,1v3C9,12.6,8.6,13,8,13z"/>
	</g>
	<path class="st1" d="M13,5V4c0-2.2-1.8-4-4-4H7C4.8,0,3,1.8,3,4v1C1.9,5,1,5.9,1,7v7c0,1.1,0.9,2,2,2h10c1.1,0,2-0.9,2-2V7
		C15,5.9,14.1,5,13,5z M4,4c0-1.7,1.3-3,3-3h2c1.7,0,3,1.3,3,3v1H4V4z M14,14c0,0.6-0.4,1-1,1H3c-0.6,0-1-0.4-1-1V7c0-0.6,0.4-1,1-1
		h10c0.6,0,1,0.4,1,1V14z"/>
</g>
</svg>
