<?xml version="1.0" encoding="UTF-8"?>
<svg width="10px" height="10px" viewBox="0 0 10 10" version="1.1" xmlns="http://www.w3.org/2000/svg" xmlns:xlink="http://www.w3.org/1999/xlink">
    <title>路径</title>
    <g id="日历云同步新" stroke="none" stroke-width="1" fill="none" fill-rule="evenodd">
        <g id="日历-同步-提示" transform="translate(-692.000000, -424.000000)" fill="#626E88" fill-rule="nonzero">
            <g id="编组-6" transform="translate(527.000000, 195.000000)">
                <g id="编组-8" transform="translate(10.000000, 60.000000)">
                    <g id="编组-38" transform="translate(0.000000, 156.000000)">
                        <g id="刷新" transform="translate(150.000000, 8.000000)">
                            <path d="M13.3882813,5.47916667 C13.3882813,5.22027995 13.6600152,5 13.9189019,5 C14.1777886,5 14.4583333,5.22027995 14.4583333,5.47916667 L14.4583333,7.54166667 C14.4583333,7.80055339 14.2515842,8.11532118 13.9926975,8.11532118 L11.9301975,8.11532118 C11.6713108,8.11532118 11.4235135,7.83363715 11.4235135,7.57475043 C11.4235135,7.31586372 11.6681966,7.07291667 11.9270833,7.07291667 L12.8171115,7.07291667 C12.0653646,6.34911024 11.0657552,6.13555773 10,6.13555773 C7.75634766,6.13555773 6.08943142,7.75634766 6.08943142,10 C6.08943142,12.2436523 7.75634766,13.8870443 10,13.8870443 C12.2436523,13.8870443 13.8787652,12.2436523 13.8787652,10 C13.8787652,9.74111328 14.1352105,9.44980469 14.4583333,9.44980469 C14.781467,9.44980469 15,9.74111328 15,10 C15,12.7614258 12.7614258,15 10,15 C7.23857422,15 5,12.7614258 5,10 C5,7.23857422 7.23857422,5 10,5 C11.328125,5 12.4596788,5.36128472 13.3882813,6.27353516 C13.3921658,6.27734375 13.3921658,6.01255425 13.3882813,5.47916667 Z" id="路径"></path>
                        </g>
                    </g>
                </g>
            </g>
        </g>
    </g>
</svg>