<?xml version="1.0" encoding="UTF-8"?>
<svg width="24px" height="24px" viewBox="0 0 24 24" version="1.1" xmlns="http://www.w3.org/2000/svg" xmlns:xlink="http://www.w3.org/1999/xlink">
    <title>icon/unionID/日程类型</title>
    <defs>
        <path d="M0,7 L16,7 L16,14 C16,15.1045695 15.1045695,16 14,16 L2,16 C0.8954305,16 1.3527075e-16,15.1045695 0,14 L0,7 L0,7 Z M11.5,0 C11.7761424,-5.07265313e-17 12,0.223857625 12,0.5 L12,1 L14,1 C15.0543618,1 15.9181651,1.81587779 15.9945143,2.85073766 L16,3 L16,6 L0,6 L0,3 C1.3527075e-16,1.8954305 0.8954305,1 2,1 L2,1 L4,1 L4,0.5 C4,0.223857625 4.22385763,5.07265313e-17 4.5,0 C4.77614237,-5.07265313e-17 5,0.223857625 5,0.5 L5,1 L11,1 L11,0.5 C11,0.223857625 11.2238576,5.07265313e-17 11.5,0 Z" id="path-1"></path>
        <filter x="-6.2%" y="-6.2%" width="125.0%" height="125.0%" filterUnits="objectBoundingBox" id="filter-2">
            <feOffset dx="2" dy="2" in="SourceAlpha" result="shadowOffsetOuter1"></feOffset>
            <feComposite in="shadowOffsetOuter1" in2="SourceAlpha" operator="out" result="shadowOffsetOuter1"></feComposite>
            <feColorMatrix values="0 0 0 0 0   0 0 0 0 0.41176792   0 0 0 0 1  0 0 0 0.2 0" type="matrix" in="shadowOffsetOuter1"></feColorMatrix>
        </filter>
        <path d="M10.6229786,9.22755318 C10.8043559,9.01932999 11.1201894,8.99756709 11.3284126,9.17894437 C11.5134999,9.34016861 11.5512605,9.60762994 11.4299797,9.81131716 L11.3770214,9.88437841 L8.37702143,13.3284126 C8.20789701,13.5225694 7.92403507,13.553264 7.7191838,13.4138293 L7.64644661,13.3535534 L5.64644661,11.3535534 C5.45118446,11.1582912 5.45118446,10.8417088 5.64644661,10.6464466 C5.82001296,10.4728803 6.08943736,10.4535951 6.2843055,10.5885912 L6.35355339,10.6464466 L7.974,12.267 L10.6229786,9.22755318 Z" id="path-3"></path>
        <filter x="-8.3%" y="-11.3%" width="133.3%" height="145.0%" filterUnits="objectBoundingBox" id="filter-4">
            <feOffset dx="1" dy="1" in="SourceAlpha" result="shadowOffsetOuter1"></feOffset>
            <feColorMatrix values="0 0 0 0 0   0 0 0 0 0.486177885   0 0 0 0 1  0 0 0 0.3 0" type="matrix" in="shadowOffsetOuter1"></feColorMatrix>
        </filter>
    </defs>
    <g id="icon/unionID/日程类型" stroke="none" stroke-width="1" fill="none" fill-rule="evenodd">
        <g id="编组-16" transform="translate(4.000000, 3.000000)">
            <g id="形状结合">
                <use fill="black" fill-opacity="1" filter="url(#filter-2)" xlink:href="#path-1"></use>
                <path stroke="#4F89CA" stroke-width="1.09090909" d="M15.4545455,7.54545455 L15.4545455,14 C15.4545455,14.4016616 15.2917399,14.765298 15.028519,15.028519 C14.765298,15.2917399 14.4016616,15.4545455 14,15.4545455 L14,15.4545455 L2,15.4545455 C1.59833836,15.4545455 1.234702,15.2917399 0.971481046,15.028519 C0.708260091,14.765298 0.545454545,14.4016616 0.545454545,14 L0.545454545,14 L0.545454545,7.54545455 L15.4545455,7.54545455 Z M14,1.54545455 C14.3819398,1.54545455 14.7295186,1.69263691 14.9890357,1.93344645 C15.2462112,2.17208316 15.4171691,2.50255362 15.4490974,2.87286024 L15.4490974,2.87286024 L15.4535945,5.45454545 L0.545454545,5.45454545 L0.545454545,3 C0.545454545,2.61806017 0.692636909,2.2704814 0.93344645,2.0109643 C1.17212679,1.75374181 1.50267447,1.58276841 1.87306336,1.55088507 L1.87306336,1.55088507 L4.454,1.544 L4.45454545,1.54545455 L11.4545455,1.54545455 Z" stroke-linejoin="square" fill="#E1DFB6" fill-rule="evenodd"></path>
            </g>
            <g id="路径-3">
                <use fill="black" fill-opacity="1" filter="url(#filter-4)" xlink:href="#path-3"></use>
                <use fill="#4663FF" fill-rule="evenodd" xlink:href="#path-3"></use>
            </g>
        </g>
    </g>
</svg>