<?xml version="1.0" encoding="UTF-8"?>
<svg width="24px" height="24px" viewBox="0 0 24 24" version="1.1" xmlns="http://www.w3.org/2000/svg" xmlns:xlink="http://www.w3.org/1999/xlink">
    <title>icon/unionID/设置</title>
    <defs>
        <path d="M10.1858242,20.0000007 L10.1858238,20.0000007 C9.23550719,19.7270448 8.33936521,19.287199 7.53780025,18.7003036 L7.57377775,16.9489972 L7.57377772,16.9489988 C7.58920101,16.1899065 7.07028953,15.5276736 6.33971012,15.3740851 L4.65185235,15.0189429 L4.65185251,15.0189433 C4.26910275,14.0925518 4.04849618,13.1051696 4,12.1014188 L5.367147,11.0383539 L5.36714705,11.0383539 C5.96016715,10.5773618 6.14546795,9.75129635 5.80777505,9.07404501 L5.02826061,7.51094544 L5.02826084,7.510945 C5.50241095,6.6293602 6.12308355,5.8380705 6.86273418,5.17219847 L8.53202397,5.59742511 L8.53202392,5.5974251 C9.25579619,5.78173397 10.0057315,5.41417702 10.3154312,4.72334868 L11.03034,3.12875046 L11.03034,3.12875046 C11.5158055,3.04287681 12.0076475,2.99980057 12.5003922,3.00000069 C13.0013703,3.00000069 13.4922898,3.04409899 13.9700571,3.12875046 L14.6849659,4.72334867 L14.6849659,4.72334859 C14.9946622,5.41417693 15.7445975,5.78173219 16.4683731,5.59742501 L18.1372639,5.17219837 L18.1372641,5.17219848 C18.8769114,5.83806882 19.497584,6.62935682 19.9717374,7.51094501 L19.1926103,9.07404458 L19.1926102,9.07404462 C18.8548342,9.7512046 19.0399676,10.5772514 19.6328526,11.0383535 L21,12.1014184 L21,12.10141 C20.9515052,13.1051591 20.7308989,14.0925346 20.3481508,15.0189345 L18.660692,15.3736842 L18.6606919,15.3736842 C17.9301124,15.5272712 17.4111997,16.1895039 17.4266226,16.9485962 L17.4622133,18.7002918 L17.4622132,18.7002918 C16.660625,19.2870484 15.7644813,19.7267589 14.8141897,19.9995949 L13.4895961,18.878258 L13.4895961,18.878258 C12.9161131,18.3927461 12.0839251,18.3927461 11.5104355,18.878258 L10.1858419,20.0000007 L10.1858242,20.0000007 Z M12.4999898,15.2055664 L12.4999896,15.2055664 C14.4228811,15.2055664 15.9816939,13.6190636 15.9816939,11.662011 C15.9816939,9.70496014 14.4228828,8.11845568 12.4999896,8.11845568 L12.4999895,8.11845568 C10.577098,8.11845568 9.01828517,9.70495845 9.01828517,11.662011 C9.01828517,13.6190619 10.5770963,15.2055664 12.4999895,15.2055664 L12.4999898,15.2055664 Z" id="path-1"></path>
        <filter x="-5.9%" y="-5.9%" width="123.5%" height="123.5%" filterUnits="objectBoundingBox" id="filter-2">
            <feOffset dx="2" dy="2" in="SourceAlpha" result="shadowOffsetOuter1"></feOffset>
            <feComposite in="shadowOffsetOuter1" in2="SourceAlpha" operator="out" result="shadowOffsetOuter1"></feComposite>
            <feColorMatrix values="0 0 0 0 0   0 0 0 0 0.41176792   0 0 0 0 1  0 0 0 0.2 0" type="matrix" in="shadowOffsetOuter1"></feColorMatrix>
        </filter>
    </defs>
    <g id="icon/unionID/设置" stroke="none" stroke-width="1" fill="none" fill-rule="evenodd">
        <g id="形状">
            <use fill="black" fill-opacity="1" filter="url(#filter-2)" xlink:href="#path-1"></use>
            <path stroke="#4F89CA" stroke-width="1.09090909" d="M12.5003922,3.54545524 C12.7474502,3.54545524 12.9918935,3.55691448 13.2332972,3.57935528 L13.5930699,3.62119293 L14.1872375,4.94647877 C14.3961926,5.41258748 14.7541804,5.76899743 15.1813356,5.97835305 C15.5575841,6.16275844 15.9876425,6.23330252 16.4185014,6.16422154 L16.6030498,6.12599181 L17.9831669,5.77434365 C18.4283728,6.20495906 18.8231243,6.68601191 19.159888,7.20780513 L19.3549275,7.52569232 L18.7045093,8.83057365 C18.4780025,9.28466549 18.426632,9.78867791 18.5314828,10.2565097 C18.6235539,10.6673198 18.8359543,11.0499439 19.1548711,11.3470324 L19.2980309,11.468952 L20.4369088,12.3545124 C20.3853411,12.9794972 20.2625091,13.5958242 20.071156,14.1911053 L19.9481436,14.5456493 L18.5484759,14.8398975 C18.0542434,14.9437981 17.6311347,15.219163 17.3345605,15.5976492 C17.0771553,15.9261482 16.9152387,16.3323664 16.8857186,16.7702215 L16.8812806,16.9596764 L16.9109853,18.4216791 C16.4025762,18.766914 15.8570015,19.0509425 15.2852434,19.2683214 L14.9391344,19.3907072 L13.842037,18.4619575 C13.4531717,18.1327433 12.9764733,17.9686695 12.5000183,17.9686695 C12.0831215,17.9686695 11.6660365,18.0942878 11.3077265,18.3462744 L11.1579354,18.4620076 L10.0608523,19.3910686 C9.47907558,19.2004933 8.92129503,18.94218 8.39848987,18.6215747 L8.08909166,18.4217801 L8.11911971,16.9600791 C8.12947505,16.4504178 7.96001799,15.9734796 7.66584118,15.598052 C7.40633928,15.2668764 7.04995937,15.0146529 6.63388425,14.8871787 L6.45201994,14.8403182 L5.05187966,14.5457149 C4.83321675,13.9593369 4.68253043,13.3494282 4.60256336,12.7283836 L4.56309137,12.3545196 L5.70191254,11.4689961 C6.10089834,11.1588392 6.36338974,10.7261861 6.46870696,10.2566845 C6.56053231,9.84732929 6.53274442,9.41024745 6.3726485,9.00310668 L6.29589846,8.83061904 L5.645105,7.52563287 C5.95836821,6.98794749 6.33112441,6.48905988 6.75584069,6.03866784 L7.0168454,5.77432967 L8.39741951,6.1260103 C8.88877914,6.25113521 9.38905927,6.18910349 9.81905818,5.97835414 C10.1928186,5.79516818 10.5136237,5.49939367 10.7279662,5.11606459 L10.8131531,4.94649321 L11.4073054,3.6212417 C11.7693569,3.57064418 12.134498,3.54530668 12.5003922,3.54545524 Z M12.4999895,7.57300113 C11.3868374,7.57300113 10.3786151,8.03145552 9.64897737,8.77405495 C8.92278563,9.51314719 8.47283062,10.5339755 8.47283062,11.662011 C8.47283062,12.7644077 8.90187726,13.7644134 9.62588396,14.5012817 C10.3316998,15.2196361 11.3201334,15.6899082 12.4999896,15.7510209 C13.6131417,15.7510209 14.621364,15.2925665 15.3510017,14.5499671 C16.0771934,13.8108749 16.5271484,12.7900466 16.5271484,11.662011 C16.5271484,10.5596144 16.0981018,9.55960868 15.3740951,8.82274033 C14.6682793,8.10438599 13.6798457,7.63411387 12.4999895,7.57300113 Z" stroke-linejoin="square" fill="#E1DFB6" fill-rule="evenodd"></path>
        </g>
    </g>
</svg>