<?xml version="1.0" encoding="UTF-8"?>
<svg width="20px" height="20px" viewBox="0 0 20 20" version="1.1" xmlns="http://www.w3.org/2000/svg" xmlns:xlink="http://www.w3.org/1999/xlink">
    <title>-mockplus-</title>
    <g id="日历云同步新" stroke="none" stroke-width="1" fill="none" fill-rule="evenodd">
        <g id="日历-同步-提示" transform="translate(-911.000000, -866.000000)">
            <g id="-mockplus-" transform="translate(901.000000, 856.000000)">
                <g id="-mockplus-" transform="translate(10.000000, 10.000000)">
                    <g id="ok" transform="translate(0.922639, 0.922639)">
                        <circle id="bg" cx="9.07736079" cy="9.07736079" r="8.75"></circle>
                        <circle id="9" fill="#0081FF" opacity="0.00999999978" transform="translate(3.664702, 12.202361) rotate(240.000000) translate(-3.664702, -12.202361) " cx="3.66470202" cy="12.2023608" r="2.5"></circle>
                        <circle id="8" fill="#0081FF" opacity="0.0199999996" transform="translate(3.204282, 11.214987) rotate(250.000000) translate(-3.204282, -11.214987) " cx="3.20428191" cy="11.2149867" r="2.5"></circle>
                        <circle id="7" fill="#0081FF" opacity="0.0299999993" transform="translate(2.922312, 10.162662) rotate(260.000000) translate(-2.922312, -10.162662) " cx="2.92231233" cy="10.1626619" r="2.5"></circle>
                        <circle id="6" fill="#0081FF" opacity="0.0399999991" transform="translate(2.827361, 9.077361) rotate(270.000000) translate(-2.827361, -9.077361) " cx="2.82736079" cy="9.07736079" r="2.5"></circle>
                        <circle id="5" fill="#0081FF" opacity="0.049999997" transform="translate(2.922312, 7.992060) rotate(280.000000) translate(-2.922312, -7.992060) " cx="2.92231233" cy="7.99205968" r="2.5"></circle>
                        <circle id="4" fill="#0081FF" opacity="0.099999994" transform="translate(3.204282, 6.939735) rotate(290.000000) translate(-3.204282, -6.939735) " cx="3.20428191" cy="6.93973489" r="2.5"></circle>
                        <circle id="3" fill="#0081FF" opacity="0.149999991" transform="translate(3.664702, 5.952361) rotate(300.000000) translate(-3.664702, -5.952361) " cx="3.66470202" cy="5.95236079" r="2.5"></circle>
                        <circle id="2" fill="#0081FF" opacity="0.299999982" transform="translate(4.289583, 5.059938) rotate(310.000000) translate(-4.289583, -5.059938) " cx="4.28958302" cy="5.05993823" r="2.5"></circle>
                        <circle id="1" fill="#0081FF" transform="translate(5.059938, 4.289583) rotate(320.000000) translate(-5.059938, -4.289583) " cx="5.05993823" cy="4.28958302" r="2.5"></circle>
                        <circle id="9" fill="#0081FF" opacity="0.00999999978" cx="9.07736079" cy="2.82736079" r="2.5"></circle>
                        <circle id="8" fill="#0081FF" opacity="0.0199999996" transform="translate(10.162662, 2.922312) rotate(10.000000) translate(-10.162662, -2.922312) " cx="10.1626619" cy="2.92231233" r="2.5"></circle>
                        <circle id="7" fill="#0081FF" opacity="0.0299999993" transform="translate(11.214987, 3.204282) rotate(20.000000) translate(-11.214987, -3.204282) " cx="11.2149867" cy="3.20428191" r="2.5"></circle>
                        <circle id="6" fill="#0081FF" opacity="0.0399999991" transform="translate(12.202361, 3.664702) rotate(30.000000) translate(-12.202361, -3.664702) " cx="12.2023608" cy="3.66470202" r="2.5"></circle>
                        <circle id="5" fill="#0081FF" opacity="0.049999997" transform="translate(13.094783, 4.289583) rotate(40.000000) translate(-13.094783, -4.289583) " cx="13.0947834" cy="4.28958302" r="2.5"></circle>
                        <circle id="4" fill="#0081FF" opacity="0.099999994" transform="translate(13.865139, 5.059938) rotate(50.000000) translate(-13.865139, -5.059938) " cx="13.8651386" cy="5.05993823" r="2.5"></circle>
                        <circle id="3" fill="#0081FF" opacity="0.149999991" transform="translate(14.490020, 5.952361) rotate(60.000000) translate(-14.490020, -5.952361) " cx="14.4900196" cy="5.95236079" r="2.5"></circle>
                        <circle id="2" fill="#0081FF" opacity="0.299999982" transform="translate(14.950440, 6.939735) rotate(70.000000) translate(-14.950440, -6.939735) " cx="14.9504397" cy="6.93973489" r="2.5"></circle>
                        <circle id="1" fill="#0081FF" transform="translate(15.232409, 7.992060) rotate(80.000000) translate(-15.232409, -7.992060) " cx="15.2324092" cy="7.99205968" r="2.5"></circle>
                        <circle id="9" fill="#0081FF" opacity="0.00999999978" transform="translate(14.490020, 12.202361) rotate(120.000000) translate(-14.490020, -12.202361) " cx="14.4900196" cy="12.2023608" r="2.5"></circle>
                        <circle id="8" fill="#0081FF" opacity="0.0199999996" transform="translate(13.865139, 13.094783) rotate(130.000000) translate(-13.865139, -13.094783) " cx="13.8651386" cy="13.0947834" r="2.5"></circle>
                        <circle id="7" fill="#0081FF" opacity="0.0299999993" transform="translate(13.094783, 13.865139) rotate(140.000000) translate(-13.094783, -13.865139) " cx="13.0947834" cy="13.8651386" r="2.5"></circle>
                        <circle id="6" fill="#0081FF" opacity="0.0399999991" transform="translate(12.202361, 14.490020) rotate(150.000000) translate(-12.202361, -14.490020) " cx="12.2023608" cy="14.4900196" r="2.5"></circle>
                        <circle id="5" fill="#0081FF" opacity="0.049999997" transform="translate(11.214987, 14.950440) rotate(160.000000) translate(-11.214987, -14.950440) " cx="11.2149867" cy="14.9504397" r="2.5"></circle>
                        <circle id="4" fill="#0081FF" opacity="0.099999994" transform="translate(10.162662, 15.232409) rotate(170.000000) translate(-10.162662, -15.232409) " cx="10.1626619" cy="15.2324092" r="2.5"></circle>
                        <circle id="3" fill="#0081FF" opacity="0.149999991" transform="translate(9.077361, 15.327361) rotate(180.000000) translate(-9.077361, -15.327361) " cx="9.07736079" cy="15.3273608" r="2.5"></circle>
                        <circle id="2" fill="#0081FF" opacity="0.299999982" transform="translate(7.992060, 15.232409) rotate(190.000000) translate(-7.992060, -15.232409) " cx="7.99205968" cy="15.2324092" r="2.5"></circle>
                        <circle id="1" fill="#0081FF" transform="translate(6.939735, 14.950440) rotate(200.000000) translate(-6.939735, -14.950440) " cx="6.93973489" cy="14.9504397" r="2.5"></circle>
                    </g>
                </g>
            </g>
        </g>
    </g>
</svg>