<?xml version="1.0" encoding="UTF-8"?>
<svg width="18px" height="18px" viewBox="0 0 18 18" version="1.1" xmlns="http://www.w3.org/2000/svg" xmlns:xlink="http://www.w3.org/1999/xlink">
    <title>形状结合</title>
    <g id="日历云同步新" stroke="none" stroke-width="1" fill="none" fill-rule="evenodd">
        <g id="日历-同步-账户无法连接" transform="translate(-689.000000, -420.000000)" fill="#C5CED6">
            <g id="编组-6" transform="translate(527.000000, 195.000000)">
                <g id="编组-8" transform="translate(10.000000, 60.000000)">
                    <g id="编组-38" transform="translate(0.000000, 156.000000)">
                        <g id="编组-8" transform="translate(152.000000, 9.000000)">
                            <path d="M9,0 C10.218756,0 11.3828064,0.2374968 12.4921872,0.7125 C13.601568,1.1875032 14.559372,1.8265584 15.3656256,2.6296872 C16.1718792,3.432816 16.8124968,4.3890576 17.2875,5.4984384 C17.7625032,6.6078192 18,7.7749944 18,9 C18,10.218756 17.7625032,11.3843688 17.2875,12.4968744 C16.8124968,13.60938 16.1718792,14.567184 15.3656256,15.3703128 C14.559372,16.1734416 13.601568,16.8124975 12.4921872,17.2875 C11.3828064,17.7625024 10.218756,18 9,18 C7.7749944,18 6.6078192,17.7625024 5.4984384,17.2875 C4.3890576,16.8124975 3.432816,16.1734416 2.6296872,15.3703128 C1.8265584,14.567184 1.18750248,13.60938 0.7125,12.4968744 C0.237497616,11.3843688 0,10.218756 0,9 C0,7.7749944 0.237497616,6.6078192 0.7125,5.4984384 C1.18750248,4.3890576 1.8265584,3.432816 2.6296872,2.6296872 C3.432816,1.8265584 4.3890576,1.1875032 5.4984384,0.7125 C6.6078192,0.2374968 7.7749944,0 9,0 Z M9.07291787,11.3333333 C8.67291707,11.3333333 8.34166907,11.4645821 8.07916907,11.7270845 C7.80416747,12.0020837 7.66666667,12.3333317 7.66666667,12.7208333 C7.66666667,13.1083349 7.80416747,13.4395829 8.07916907,13.7145821 C8.35416827,13.9895837 8.68541627,14.1270845 9.07291787,14.1270845 C9.46041947,14.1270845 9.79166747,13.9895837 10.0666667,13.7145821 C10.3416683,13.4395829 10.4791691,13.1083349 10.4791691,12.7208333 C10.4791691,12.3333317 10.3416683,12.0020837 10.0666667,11.7270845 C9.80416667,11.4645821 9.47291867,11.3333333 9.07291787,11.3333333 Z M9,3.33333333 L8.88266744,3.34004806 C8.38272018,3.39770153 8,3.81955598 8,4.33140069 L8,4.33140069 L8,9.00193264 C8,9.55222934 8.44771525,10 9,10 L9,10 L9.11733256,9.99328527 C9.61727982,9.9356318 10,9.51377735 10,9.00193264 L10,9.00193264 L10,4.33140069 C10,3.78110399 9.55228475,3.33333333 9,3.33333333 L9,3.33333333 Z" id="形状结合"></path>
                        </g>
                    </g>
                </g>
            </g>
        </g>
    </g>
</svg>