<?xml version="1.0" encoding="UTF-8"?>
<svg width="50px" height="50px" viewBox="0 0 50 50" version="1.1" xmlns="http://www.w3.org/2000/svg" xmlns:xlink="http://www.w3.org/1999/xlink">
    <title>头像/ai小</title>
    <defs>
        <linearGradient x1="50%" y1="0%" x2="50%" y2="61.6089802%" id="linearGradient-1">
            <stop stop-color="#FFEEDA" offset="0%"></stop>
            <stop stop-color="#E9B271" offset="100%"></stop>
        </linearGradient>
        <linearGradient x1="50%" y1="0%" x2="50%" y2="61.6089802%" id="linearGradient-2">
            <stop stop-color="#FFEEDA" offset="0%"></stop>
            <stop stop-color="#E9B271" offset="100%"></stop>
        </linearGradient>
        <linearGradient x1="50%" y1="0%" x2="50%" y2="61.6089802%" id="linearGradient-3">
            <stop stop-color="#FFEEDA" offset="0%"></stop>
            <stop stop-color="#E9B271" offset="100%"></stop>
        </linearGradient>
    </defs>
    <g id="头像/ai小" stroke="none" stroke-width="1" fill="none" fill-rule="evenodd" stroke-opacity="0.1">
        <g id="编组-2备份" transform="translate(3.000000, 5.000000)" stroke="#000000" stroke-width="0.8">
            <path d="M22,-0.4 C23.2150264,-0.4 24.3150264,0.0924867752 25.1112698,0.888730163 C25.9075132,1.68497355 26.4,2.78497355 26.4,4 C26.4,5.01402396 26.0569092,5.9478884 25.4806389,6.6919938 C25.006655,7.30402239 24.3747528,7.78749091 23.6461315,8.08161243 L23.3997595,8.1725567 L23.3997744,9.65351885 C27.5470133,9.97202627 31.2528722,11.6924226 33.9419156,14.2868007 C36.7086743,16.956158 38.4,20.5496735 38.4,24.5 C38.4,28.6186454 36.5614478,32.3496052 33.5823163,35.0494431 C30.618143,37.7357251 26.5239087,39.4 22,39.4 C17.4760913,39.4 13.381857,37.7357251 10.4176837,35.0494431 C7.43855222,32.3496052 5.6,28.6186454 5.6,24.5 C5.6,20.5498423 7.29118119,16.9564653 10.0577296,14.287143 C12.6538663,11.7822435 16.1978565,10.0920092 20.1718204,9.69154563 L20.599224,9.65359581 L20.5992362,8.17221978 C19.7668543,7.89285985 19.0454774,7.37152032 18.51901,6.69154038 C17.9429515,5.94750902 17.6,5.01381802 17.6,4 C17.6,2.78497355 18.0924868,1.68497355 18.8887302,0.888730163 C19.6849736,0.0924867752 20.7849736,-0.4 22,-0.4 Z M30,20.4 L14,20.4 L13.7476109,20.4068065 C12.5778231,20.4700611 11.5242493,20.9703683 10.7473088,21.7473088 C9.91487254,22.5797451 9.4,23.7297451 9.4,25 C9.4,26.2430904 9.89351223,27.3710127 10.7210943,28.1985948 C11.5420204,29.0195209 12.690069,29.543923 14.0083544,29.6 L14.0083544,29.6 L30,29.6 L30.2523891,29.5931935 C31.4221769,29.5299389 32.4757507,29.0296317 33.2526912,28.2526912 C34.0851275,27.4202549 34.6,26.2702549 34.6,25 C34.6,23.7297451 34.0851275,22.5797451 33.2526912,21.7473088 C32.4202549,20.9148725 31.2702549,20.4 30,20.4 L30,20.4 Z M16.5,21.6 C17.3077725,21.6 18.0440025,21.9853423 18.5750555,22.6226059 C19.082079,23.2310341 19.4,24.0704779 19.4,25 C19.4,25.9295221 19.082079,26.7689659 18.5750555,27.3773941 C18.0440025,28.0146577 17.3077725,28.4 16.5,28.4 C15.6922275,28.4 14.9559975,28.0146577 14.4249445,27.3773941 C13.917921,26.7689659 13.6,25.9295221 13.6,25 C13.6,24.0704779 13.917921,23.2310341 14.4249445,22.6226059 C14.9559975,21.9853423 15.6922275,21.6 16.5,21.6 Z M27.5,21.6 C28.3077725,21.6 29.0440025,21.9853423 29.5750555,22.6226059 C30.082079,23.2310341 30.4,24.0704779 30.4,25 C30.4,25.9295221 30.082079,26.7689659 29.5750555,27.3773941 C29.0440025,28.0146577 28.3077725,28.4 27.5,28.4 C26.6922275,28.4 25.9559975,28.0146577 25.4249445,27.3773941 C24.917921,26.7689659 24.6,25.9295221 24.6,25 C24.6,24.0704779 24.917921,23.2310341 25.4249445,22.6226059 C25.9559975,21.9853423 26.6922275,21.6 27.5,21.6 Z" id="形状结合" fill="url(#linearGradient-1)"></path>
            <path d="M40.198105,19.7019594 L40.3795795,19.7052831 C41.5017441,19.750512 42.5092267,20.2483119 43.2354076,21.0261152 C43.9566138,21.7985902 44.4,22.8473979 44.4,24 C44.4,25.0597157 44.0253157,26.0318959 43.4013249,26.7914177 C42.7661615,27.5645391 41.8724658,28.1170187 40.8525936,28.3173791 C40.6654137,28.3541518 40.4776809,28.3783373 40.2905555,28.3902504 C40.3230694,28.2146736 40.3529528,28.0390721 40.3802242,27.8634899 C40.5251996,26.9300898 40.6,25.9737819 40.6,25 C40.6,23.3430569 40.3834163,21.7367033 39.9769006,20.2077384 C39.93348,20.0444273 39.8877402,19.8814261 39.8399465,19.7189763 C40.0172577,19.7027306 40.1973921,19.69794 40.3795795,19.7052831 Z" id="形状结合" fill="url(#linearGradient-2)"></path>
            <path d="M4.00683371,19.600173 L4.19450256,19.6047936 C4.14278399,19.7757416 4.09364157,19.9471152 4.04706152,20.118864 C3.6249555,21.6752421 3.4,23.3113488 3.4,25 C3.4,25.9738886 3.47481686,26.9303005 3.61905081,27.8637958 C3.6461739,28.039339 3.67588188,28.2149139 3.70800595,28.39034 C3.52101952,28.3782819 3.33353102,28.3541044 3.14660312,28.3173665 C2.1270869,28.1169954 1.23353767,27.5644708 0.598459394,26.791269 C-0.0253616059,26.0317728 -0.4,25.0596485 -0.4,24 C-0.4,22.8525305 0.0392669825,21.8076698 0.75875997,21.0243384 C1.48434389,20.2343756 2.49501517,19.7106049 3.62755774,19.6155632 C3.81827337,19.5995586 4.00760764,19.5961174 4.19450256,19.6047936 Z" id="形状结合" fill="url(#linearGradient-3)"></path>
        </g>
    </g>
</svg>