<?xml version="1.0" encoding="UTF-8"?>
<svg width="60px" height="60px" viewBox="0 0 60 60" version="1.1" xmlns="http://www.w3.org/2000/svg" xmlns:xlink="http://www.w3.org/1999/xlink">
    <title>头像/ai大</title>
    <defs>
        <linearGradient x1="50%" y1="0%" x2="50%" y2="61.6089802%" id="linearGradient-1">
            <stop stop-color="#FFEEDA" offset="0%"></stop>
            <stop stop-color="#E9B271" offset="100%"></stop>
        </linearGradient>
        <linearGradient x1="50%" y1="0%" x2="50%" y2="61.6089802%" id="linearGradient-2">
            <stop stop-color="#FFEEDA" offset="0%"></stop>
            <stop stop-color="#E9B271" offset="100%"></stop>
        </linearGradient>
    </defs>
    <g id="头像/ai大" stroke="none" stroke-width="1" fill="none" fill-rule="evenodd" stroke-opacity="0.1">
        <g id="编组-2" transform="translate(4.174093, 6.000000)" stroke="#000000" stroke-width="0.8">
            <path d="M25.825907,-0.4 C27.3170758,-0.4 28.6670758,0.204415588 29.6442836,1.18162338 C30.6214914,2.15883118 31.225907,3.50883118 31.225907,5 C31.225907,6.28007721 30.7804419,7.45608586 30.0362162,8.38159853 C29.4009644,9.17159229 28.5478733,9.77886816 27.5682436,10.1126287 L27.2980032,10.1968047 L27.2983782,11.6493726 C32.2576991,11.9831954 36.6950159,13.9890386 39.9124692,17.0352653 C43.208877,20.1562447 45.225907,24.3680789 45.225907,29 C45.225907,33.8094766 43.0512423,38.1662273 39.5276537,41.3189118 C36.021071,44.4563806 31.1775734,46.4 25.825907,46.4 C20.4742405,46.4 15.630743,44.4563806 12.1241602,41.3189118 C8.60057166,38.1662273 6.42590696,33.8094766 6.42590696,29 C6.42590696,24.3443948 8.46362016,20.1131607 11.790027,16.987461 C14.9329117,14.0342101 19.2271779,12.068978 24.0299784,11.673571 L24.4963315,11.6402259 L24.4967046,10.2350885 C23.3702576,9.94990572 22.3847289,9.31089925 21.665686,8.44296502 C20.8913919,7.50833879 20.425907,6.30854066 20.425907,5 C20.425907,3.50883118 21.0303225,2.15883118 22.0075303,1.18162338 C22.9847381,0.204415588 24.3347381,-0.4 25.825907,-0.4 Z M35.325907,24.4 L16.325907,24.4 L16.0634616,24.4066361 C14.7595812,24.4727299 13.5848984,25.0285193 12.7196624,25.8937554 C11.7967439,26.8166739 11.225907,28.0916739 11.225907,29.5 C11.225907,30.8806151 11.7748948,32.1330984 12.6929275,33.0511311 C13.6037015,33.9619051 14.8762296,34.5425556 16.3336601,34.6 L16.3336601,34.6 L35.325907,34.6 L35.5883523,34.5933639 C36.8922328,34.5272701 38.0669155,33.9714807 38.9321515,33.1062446 C39.85507,32.1833261 40.425907,30.9083261 40.425907,29.5 C40.425907,28.0916739 39.85507,26.8166739 38.9321515,25.8937554 C38.0092331,24.9708369 36.7342331,24.4 35.325907,24.4 L35.325907,24.4 Z M19.625907,25.6 C20.5176468,25.6 21.3315164,26.0419519 21.9181535,26.7752482 C22.4760133,27.472573 22.825907,28.4347205 22.825907,29.5 C22.825907,30.5652795 22.4760133,31.527427 21.9181535,32.2247518 C21.3315164,32.9580481 20.5176468,33.4 19.625907,33.4 C18.7341671,33.4 17.9202975,32.9580481 17.3336604,32.2247518 C16.7758006,31.527427 16.425907,30.5652795 16.425907,29.5 C16.425907,28.4347205 16.7758006,27.472573 17.3336604,26.7752482 C17.9202975,26.0419519 18.7341671,25.6 19.625907,25.6 Z M32.025907,25.6 C32.9176468,25.6 33.7315164,26.0419519 34.3181535,26.7752482 C34.8760133,27.472573 35.225907,28.4347205 35.225907,29.5 C35.225907,30.5652795 34.8760133,31.527427 34.3181535,32.2247518 C33.7315164,32.9580481 32.9176468,33.4 32.025907,33.4 C31.1341671,33.4 30.3202975,32.9580481 29.7336604,32.2247518 C29.1758006,31.527427 28.825907,30.5652795 28.825907,29.5 C28.825907,28.4347205 29.1758006,27.472573 29.7336604,26.7752482 C30.3202975,26.0419519 31.1341671,25.6 32.025907,25.6 Z" id="形状结合" fill="url(#linearGradient-1)"></path>
            <path d="M46.3078314,22.610652 C47.9690245,22.5078157 49.4811264,23.156346 50.5364264,24.2490218 C51.4746266,25.2204505 52.0518139,26.5428178 52.0518139,28 C52.0518139,29.3648636 51.5454164,30.6114342 50.7103438,31.5621676 C49.8648625,32.5247514 48.6823121,33.1838058 47.3472703,33.3555869 C47.1653154,33.3789992 46.9838095,33.392938 46.8033728,33.3976956 C46.8386073,33.2276111 46.8717078,33.0574455 46.9026878,32.8872317 C47.132153,31.6264796 47.2518139,30.3272157 47.2518139,29 C47.2518139,27.1747068 47.0254784,25.4022808 46.6005013,23.7141672 L46.6005013,23.7141672 Z" id="路径" fill="url(#linearGradient-2)"></path>
            <path d="M5.06857498,22.6004173 L5.34400899,22.6106536 L5.05257458,23.7092848 C4.62633548,25.4022808 4.4,27.1747068 4.4,29 C4.4,30.3272157 4.51966095,31.6264796 4.74912612,32.8872317 C4.78012016,33.0575225 4.81323658,33.227765 4.84824899,33.3977286 C4.66784184,33.3929255 4.48641704,33.3789888 4.30454366,33.3555869 C2.9695018,33.1838058 1.78695143,32.5247514 0.941470124,31.5621676 C0.106397504,30.6114342 -0.4,29.3648636 -0.4,28 C-0.4,26.5428178 0.17718732,25.2204505 1.11538753,24.2490218 C2.17069312,23.1563402 3.68280548,22.5078088 5.34400899,22.6106536 Z" id="路径" fill="url(#linearGradient-2)"></path>
        </g>
    </g>
</svg>