<?xml version="1.0" encoding="UTF-8"?>
<svg width="131px" height="90px" viewBox="0 0 131 90" version="1.1" xmlns="http://www.w3.org/2000/svg" xmlns:xlink="http://www.w3.org/1999/xlink">
    <title>头像1</title>
    <defs>
        <linearGradient x1="50%" y1="0%" x2="50%" y2="100%" id="linearGradient-1">
            <stop stop-color="#FFE1B5" offset="0%"></stop>
            <stop stop-color="#D7A26C" offset="100%"></stop>
        </linearGradient>
        <linearGradient x1="100%" y1="50%" x2="0%" y2="50%" id="linearGradient-2">
            <stop stop-color="#976A2E" offset="0%"></stop>
            <stop stop-color="#FFDA89" offset="100%"></stop>
        </linearGradient>
        <circle id="path-3" cx="85" cy="41" r="41"></circle>
        <filter x="-8.5%" y="-6.1%" width="117.1%" height="117.1%" filterUnits="objectBoundingBox" id="filter-4">
            <feOffset dx="0" dy="2" in="SourceAlpha" result="shadowOffsetOuter1"></feOffset>
            <feGaussianBlur stdDeviation="2" in="shadowOffsetOuter1" result="shadowBlurOuter1"></feGaussianBlur>
            <feComposite in="shadowBlurOuter1" in2="SourceAlpha" operator="out" result="shadowBlurOuter1"></feComposite>
            <feColorMatrix values="0 0 0 0 0   0 0 0 0 0   0 0 0 0 0  0 0 0 0.2 0" type="matrix" in="shadowBlurOuter1"></feColorMatrix>
        </filter>
        <linearGradient x1="50%" y1="0%" x2="50%" y2="100%" id="linearGradient-5">
            <stop stop-color="#043439" offset="0%"></stop>
            <stop stop-color="#21212B" offset="100%"></stop>
        </linearGradient>
        <linearGradient x1="50%" y1="0%" x2="50%" y2="100%" id="linearGradient-6">
            <stop stop-color="#000000" stop-opacity="0.1" offset="0%"></stop>
            <stop stop-color="#000000" stop-opacity="0.2" offset="100%"></stop>
        </linearGradient>
        <circle id="path-7" cx="85" cy="41" r="33"></circle>
        <filter x="-10.6%" y="-7.6%" width="121.2%" height="121.2%" filterUnits="objectBoundingBox" id="filter-8">
            <feOffset dx="0" dy="2" in="SourceAlpha" result="shadowOffsetOuter1"></feOffset>
            <feGaussianBlur stdDeviation="2" in="shadowOffsetOuter1" result="shadowBlurOuter1"></feGaussianBlur>
            <feComposite in="shadowBlurOuter1" in2="SourceAlpha" operator="out" result="shadowBlurOuter1"></feComposite>
            <feColorMatrix values="0 0 0 0 0   0 0 0 0 0   0 0 0 0 0  0 0 0 0.2 0" type="matrix" in="shadowBlurOuter1"></feColorMatrix>
        </filter>
    </defs>
    <g id="页面-1" stroke="none" stroke-width="1" fill="none" fill-rule="evenodd">
        <g id="11落子提示" transform="translate(-1175.000000, -337.000000)">
            <g id="编组" transform="translate(435.000000, 175.000000)">
                <g id="头像1" transform="translate(740.000000, 164.000000)">
                    <path d="M19.2509541,13 L84,13 C84.5522847,13 85,13.4477153 85,14 L85,68 C85,68.5522847 84.5522847,69 84,69 L19.2509541,69 C17.8533654,69 16.557122,68.2705539 15.831804,67.0759125 L1.26037547,43.0759125 C0.485908883,41.8003205 0.485908883,40.1996795 1.26037547,38.9240875 L15.831804,14.9240875 C16.557122,13.7294461 17.8533654,13 19.2509541,13 Z" id="矩形" fill="url(#linearGradient-1)" opacity="0.50098"></path>
                    <path d="M22.2825209,19 L82,19 C82.5522847,19 83,19.4477153 83,20 L83,62 C83,62.5522847 82.5522847,63 82,63 L22.2825209,63 C20.8678957,63 19.558476,62.2528055 18.8388147,61.0349172 L8.2024511,43.0349172 C7.46072592,41.77969 7.46072592,40.22031 8.2024511,38.9650828 L18.8388147,20.9650828 C19.558476,19.7471945 20.8678957,19 22.2825209,19 Z" id="矩形" fill="url(#linearGradient-2)"></path>
                    <g id="椭圆形">
                        <use fill="black" fill-opacity="1" filter="url(#filter-4)" xlink:href="#path-3"></use>
                        <circle stroke-opacity="0.453961566" stroke="#FFFFFF" stroke-width="2" stroke-linejoin="square" fill="#FED49D" fill-rule="evenodd" cx="85" cy="41" r="40"></circle>
                    </g>
                    <circle id="椭圆形" fill="#685742" cx="85" cy="41" r="36"></circle>
                    <g id="椭圆形">
                        <use fill="black" fill-opacity="1" filter="url(#filter-8)" xlink:href="#path-7"></use>
                        <circle stroke="url(#linearGradient-6)" stroke-width="2" stroke-linejoin="square" fill="url(#linearGradient-5)" fill-rule="evenodd" cx="85" cy="41" r="32"></circle>
                    </g>
                </g>
            </g>
        </g>
    </g>
</svg>