<?xml version="1.0" encoding="UTF-8"?>
<svg width="48px" height="48px" viewBox="0 0 48 48" version="1.1" xmlns="http://www.w3.org/2000/svg" xmlns:xlink="http://www.w3.org/1999/xlink">
    <title>头像/用户小</title>
    <defs>
        <circle id="path-1" cx="24" cy="24" r="24"></circle>
        <linearGradient x1="50%" y1="0%" x2="50%" y2="61.6089802%" id="linearGradient-3">
            <stop stop-color="#FFEEDA" offset="0%"></stop>
            <stop stop-color="#FFBD70" offset="100%"></stop>
        </linearGradient>
        <linearGradient x1="50%" y1="9.41877451%" x2="50%" y2="87.3561558%" id="linearGradient-4">
            <stop stop-color="#FFEBD5" offset="0%"></stop>
            <stop stop-color="#FFA03A" offset="100%"></stop>
        </linearGradient>
        <path d="M24.5,2 C30.2989899,2 35,6.70101013 35,12.5 C35,18.2989899 30.2989899,23 24.5,23 C18.7010101,23 14,18.2989899 14,12.5 C14,6.70101013 18.7010101,2 24.5,2 Z M31,10.8 C30.3372583,10.8 29.8,11.3372583 29.8,12 C29.8,14.6285631 27.4476101,16.8 24.5,16.8 C21.5523899,16.8 19.2,14.6285631 19.2,12 C19.2,11.3372583 18.6627417,10.8 18,10.8 C17.3372583,10.8 16.8,11.3372583 16.8,12 C16.8,15.9988539 20.2679083,19.2 24.5,19.2 C28.7320917,19.2 32.2,15.9988539 32.2,12 C32.2,11.3372583 31.6627417,10.8 31,10.8 Z" id="path-5"></path>
        <filter x="-22.9%" y="-22.9%" width="145.7%" height="145.7%" filterUnits="objectBoundingBox" id="filter-6">
            <feGaussianBlur stdDeviation="2.5" in="SourceAlpha" result="shadowBlurInner1"></feGaussianBlur>
            <feOffset dx="0" dy="3" in="shadowBlurInner1" result="shadowOffsetInner1"></feOffset>
            <feComposite in="shadowOffsetInner1" in2="SourceAlpha" operator="arithmetic" k2="-1" k3="1" result="shadowInnerInner1"></feComposite>
            <feColorMatrix values="0 0 0 0 1   0 0 0 0 0.899667323   0 0 0 0 0.762683403  0 0 0 0.770982436 0" type="matrix" in="shadowInnerInner1"></feColorMatrix>
        </filter>
    </defs>
    <g id="头像/用户小" stroke="none" stroke-width="1" fill="none" fill-rule="evenodd">
        <g id="编组-7">
            <mask id="mask-2" fill="white">
                <use xlink:href="#path-1"></use>
            </mask>
            <g id="椭圆形"></g>
            <circle id="椭圆形" stroke-opacity="0.2" stroke="#000000" stroke-width="0.8" fill="#DD8282" mask="url(#mask-2)" cx="24" cy="49.6" r="24.4"></circle>
            <circle id="椭圆形" stroke-opacity="0.1" stroke="#000000" stroke-width="0.8" fill="url(#linearGradient-3)" mask="url(#mask-2)" cx="24" cy="41.6" r="16.4"></circle>
        </g>
        <g id="形状结合">
            <use fill="url(#linearGradient-4)" fill-rule="evenodd" xlink:href="#path-5"></use>
            <use fill="black" fill-opacity="1" filter="url(#filter-6)" xlink:href="#path-5"></use>
            <path stroke-opacity="0.2" stroke="#000000" stroke-width="0.8" d="M24.5,1.6 C27.5099519,1.6 30.2349519,2.82002406 32.2074639,4.79253609 C34.1799759,6.76504811 35.4,9.49004811 35.4,12.5 C35.4,15.5099519 34.1799759,18.2349519 32.2074639,20.2074639 C30.2349519,22.1799759 27.5099519,23.4 24.5,23.4 C21.4900481,23.4 18.7650481,22.1799759 16.7925361,20.2074639 C14.8200241,18.2349519 13.6,15.5099519 13.6,12.5 C13.6,9.49004811 14.8200241,6.76504811 16.7925361,4.79253609 C18.7650481,2.82002406 21.4900481,1.6 24.5,1.6 Z M31,11.2 C30.7790861,11.2 30.5790861,11.2895431 30.4343146,11.4343146 C30.2895431,11.5790861 30.2,11.7790861 30.2,12 C30.2,13.4333173 29.5599448,14.7438867 28.512754,15.692286 C27.4885334,16.6198819 26.0741367,17.2 24.5,17.2 C22.9258633,17.2 21.5114666,16.6198819 20.487246,15.692286 C19.4400552,14.7438867 18.8,13.4333173 18.8,12 C18.8,11.7790861 18.7104569,11.5790861 18.5656854,11.4343146 C18.4209139,11.2895431 18.2209139,11.2 18,11.2 C17.7790861,11.2 17.5790861,11.2895431 17.4343146,11.4343146 C17.2895431,11.5790861 17.2,11.7790861 17.2,12 C17.2,13.8804263 18.0154233,15.5724434 19.3252325,16.7972001 C20.6520465,18.0378572 22.4853475,18.8 24.5,18.8 C26.5146525,18.8 28.3479535,18.0378572 29.6747675,16.7972001 C30.9845767,15.5724434 31.8,13.8804263 31.8,12 C31.8,11.7790861 31.7104569,11.5790861 31.5656854,11.4343146 C31.4209139,11.2895431 31.2209139,11.2 31,11.2 Z"></path>
        </g>
    </g>
</svg>