<svg width="24" height="24" viewBox="0 0 24 24" fill="none" xmlns="http://www.w3.org/2000/svg">
<path d="M17.6568 19.0712C18.0473 19.4617 18.6805 19.4617 19.071 19.0712C19.4615 18.6806 19.4615 18.0475 19.071 17.6569L6.34309 4.92903C5.95257 4.5385 5.3194 4.5385 4.92888 4.92903C4.53836 5.31955 4.53836 5.95272 4.92888 6.34324L17.6568 19.0712Z" fill="#3790FA"/>
<path d="M17.6569 4.92888C18.0474 4.53836 18.6805 4.53836 19.0711 4.92888C19.4616 5.3194 19.4616 5.95257 19.0711 6.34309L6.34315 19.071C5.95262 19.4615 5.31946 19.4615 4.92893 19.071C4.53841 18.6805 4.53841 18.0473 4.92893 17.6568L17.6569 4.92888Z" fill="#3790FA"/>
</svg>
