<svg width="24" height="24" viewBox="0 0 24 24" fill="none" xmlns="http://www.w3.org/2000/svg">
<path d="M17.6575 19.071C18.0481 19.4616 18.6812 19.4616 19.0717 19.071C19.4623 18.6805 19.4623 18.0473 19.0717 17.6568L6.34383 4.9289C5.9533 4.53838 5.32014 4.53838 4.92961 4.9289C4.53909 5.31943 4.53909 5.95259 4.92961 6.34312L17.6575 19.071Z" fill="#262626"/>
<path d="M17.6576 4.92876C18.0481 4.53823 18.6813 4.53823 19.0718 4.92876C19.4623 5.31928 19.4623 5.95245 19.0718 6.34297L6.34388 19.0709C5.95335 19.4614 5.32019 19.4614 4.92967 19.0709C4.53914 18.6804 4.53914 18.0472 4.92967 17.6567L17.6576 4.92876Z" fill="#262626"/>
</svg>
