<svg width="24" height="24" viewBox="0 0 24 24" fill="none" xmlns="http://www.w3.org/2000/svg">
<path d="M2 8V15.6C2 17.8402 2 18.9603 2.43597 19.816C2.81947 20.5686 3.43139 21.1805 4.18404 21.564C5.03968 22 6.15979 22 8.4 22H15.6C17.8402 22 18.9603 22 19.816 21.564C20.5686 21.1805 21.1805 20.5686 21.564 19.816C22 18.9603 22 17.8402 22 15.6V8" stroke="#363B40" stroke-width="2" stroke-linecap="round"/>
<path d="M9 15L12 18L15 15" stroke="#363B40" stroke-width="2" stroke-linecap="round" stroke-linejoin="round"/>
<path d="M12 16L12 8" stroke="#363B40" stroke-width="2" stroke-linecap="round"/>
<path d="M2 8H22V8C22 6.13623 22 5.20435 21.6955 4.46927C21.2895 3.48915 20.5108 2.71046 19.5307 2.30448C18.7956 2 17.8638 2 16 2H8C6.13623 2 5.20435 2 4.46927 2.30448C3.48915 2.71046 2.71046 3.48915 2.30448 4.46927C2 5.20435 2 6.13623 2 8V8Z" stroke="#262626" stroke-width="2" stroke-linecap="round" stroke-linejoin="round"/>
</svg>
