<svg width="56" height="56" viewBox="0 0 56 56" fill="none" xmlns="http://www.w3.org/2000/svg">
<circle cx="28" cy="28" r="28" fill="white" fill-opacity="0.75"/>
<circle cx="28" cy="28" r="27.5" stroke="#262626" stroke-opacity="0.1"/>
<g opacity="0.65">
<path fill-rule="evenodd" clip-rule="evenodd" d="M12.436 21.184C12 22.0397 12 23.1598 12 25.4V35.6C12 37.8402 12 38.9603 12.436 39.816C12.8195 40.5686 13.4314 41.1805 14.184 41.564C15.0397 42 16.1598 42 18.4 42H37.6C39.8402 42 40.9603 42 41.816 41.564C42.5686 41.1805 43.1805 40.5686 43.564 39.816C44 38.9603 44 37.8402 44 35.6V25.4C44 23.1598 44 22.0397 43.564 21.184C43.1805 20.4314 42.5686 19.8195 41.816 19.436C40.9603 19 39.8402 19 37.6 19H18.4C16.1598 19 15.0397 19 14.184 19.436C13.4314 19.8195 12.8195 20.4314 12.436 21.184ZM16.109 23.546C16 23.7599 16 24.0399 16 24.6V25.4C16 25.9601 16 26.2401 16.109 26.454C16.2049 26.6422 16.3578 26.7951 16.546 26.891C16.7599 27 17.0399 27 17.6 27H18.4C18.9601 27 19.2401 27 19.454 26.891C19.6422 26.7951 19.7951 26.6422 19.891 26.454C20 26.2401 20 25.9601 20 25.4V24.6C20 24.0399 20 23.7599 19.891 23.546C19.7951 23.3578 19.6422 23.2049 19.454 23.109C19.2401 23 18.9601 23 18.4 23H17.6C17.0399 23 16.7599 23 16.546 23.109C16.3578 23.2049 16.2049 23.3578 16.109 23.546ZM22.775 35.546C22.666 35.7599 22.666 36.0399 22.666 36.6V37.4C22.666 37.9601 22.666 38.2401 22.775 38.454C22.8709 38.6422 23.0239 38.7951 23.212 38.891C23.4259 39 23.706 39 24.266 39H31.7327C32.2927 39 32.5728 39 32.7867 38.891C32.9748 38.7951 33.1278 38.6422 33.2237 38.454C33.3327 38.2401 33.3327 37.9601 33.3327 37.4V36.6C33.3327 36.0399 33.3327 35.7599 33.2237 35.546C33.1278 35.3578 32.9748 35.2049 32.7867 35.109C32.5728 35 32.2927 35 31.7327 35H24.266C23.706 35 23.4259 35 23.212 35.109C23.0239 35.2049 22.8709 35.3578 22.775 35.546ZM16 30.6C16 30.0399 16 29.7599 16.109 29.546C16.2049 29.3578 16.3578 29.2049 16.546 29.109C16.7599 29 17.0399 29 17.6 29H18.4C18.9601 29 19.2401 29 19.454 29.109C19.6422 29.2049 19.7951 29.3578 19.891 29.546C20 29.7599 20 30.0399 20 30.6V31.4C20 31.9601 20 32.2401 19.891 32.454C19.7951 32.6422 19.6422 32.7951 19.454 32.891C19.2401 33 18.9601 33 18.4 33H17.6C17.0399 33 16.7599 33 16.546 32.891C16.3578 32.7951 16.2049 32.6422 16.109 32.454C16 32.2401 16 31.9601 16 31.4V30.6ZM22.775 23.546C22.666 23.7599 22.666 24.0399 22.666 24.6V25.4C22.666 25.9601 22.666 26.2401 22.775 26.454C22.8709 26.6422 23.0239 26.7951 23.212 26.891C23.4259 27 23.706 27 24.266 27H25.066C25.6261 27 25.9061 27 26.12 26.891C26.3082 26.7951 26.4611 26.6422 26.557 26.454C26.666 26.2401 26.666 25.9601 26.666 25.4V24.6C26.666 24.0399 26.666 23.7599 26.557 23.546C26.4611 23.3578 26.3082 23.2049 26.12 23.109C25.9061 23 25.6261 23 25.066 23H24.266C23.706 23 23.4259 23 23.212 23.109C23.0239 23.2049 22.8709 23.3578 22.775 23.546ZM22.666 30.6C22.666 30.0399 22.666 29.7599 22.775 29.546C22.8709 29.3578 23.0239 29.2049 23.212 29.109C23.4259 29 23.706 29 24.266 29H25.066C25.6261 29 25.9061 29 26.12 29.109C26.3082 29.2049 26.4611 29.3578 26.557 29.546C26.666 29.7599 26.666 30.0399 26.666 30.6V31.4C26.666 31.9601 26.666 32.2401 26.557 32.454C26.4611 32.6422 26.3082 32.7951 26.12 32.891C25.9061 33 25.6261 33 25.066 33H24.266C23.706 33 23.4259 33 23.212 32.891C23.0239 32.7951 22.8709 32.6422 22.775 32.454C22.666 32.2401 22.666 31.9601 22.666 31.4V30.6ZM29.443 23.546C29.334 23.7599 29.334 24.0399 29.334 24.6V25.4C29.334 25.9601 29.334 26.2401 29.443 26.454C29.5389 26.6422 29.6918 26.7951 29.88 26.891C30.0939 27 30.3739 27 30.934 27H31.734C32.294 27 32.5741 27 32.788 26.891C32.9761 26.7951 33.1291 26.6422 33.225 26.454C33.334 26.2401 33.334 25.9601 33.334 25.4V24.6C33.334 24.0399 33.334 23.7599 33.225 23.546C33.1291 23.3578 32.9761 23.2049 32.788 23.109C32.5741 23 32.294 23 31.734 23H30.934C30.3739 23 30.0939 23 29.88 23.109C29.6918 23.2049 29.5389 23.3578 29.443 23.546ZM29.334 30.6C29.334 30.0399 29.334 29.7599 29.443 29.546C29.5389 29.3578 29.6918 29.2049 29.88 29.109C30.0939 29 30.3739 29 30.934 29H31.734C32.294 29 32.5741 29 32.788 29.109C32.9761 29.2049 33.1291 29.3578 33.225 29.546C33.334 29.7599 33.334 30.0399 33.334 30.6V31.4C33.334 31.9601 33.334 32.2401 33.225 32.454C33.1291 32.6422 32.9761 32.7951 32.788 32.891C32.5741 33 32.294 33 31.734 33H30.934C30.3739 33 30.0939 33 29.88 32.891C29.6918 32.7951 29.5389 32.6422 29.443 32.454C29.334 32.2401 29.334 31.9601 29.334 31.4V30.6ZM36.109 23.546C36 23.7599 36 24.0399 36 24.6V25.4C36 25.9601 36 26.2401 36.109 26.454C36.2049 26.6422 36.3578 26.7951 36.546 26.891C36.7599 27 37.0399 27 37.6 27H38.4C38.9601 27 39.2401 27 39.454 26.891C39.6422 26.7951 39.7951 26.6422 39.891 26.454C40 26.2401 40 25.9601 40 25.4V24.6C40 24.0399 40 23.7599 39.891 23.546C39.7951 23.3578 39.6422 23.2049 39.454 23.109C39.2401 23 38.9601 23 38.4 23H37.6C37.0399 23 36.7599 23 36.546 23.109C36.3578 23.2049 36.2049 23.3578 36.109 23.546ZM36 30.6C36 30.0399 36 29.7599 36.109 29.546C36.2049 29.3578 36.3578 29.2049 36.546 29.109C36.7599 29 37.0399 29 37.6 29H38.4C38.9601 29 39.2401 29 39.454 29.109C39.6422 29.2049 39.7951 29.3578 39.891 29.546C40 29.7599 40 30.0399 40 30.6V31.4C40 31.9601 40 32.2401 39.891 32.454C39.7951 32.6422 39.6422 32.7951 39.454 32.891C39.2401 33 38.9601 33 38.4 33H37.6C37.0399 33 36.7599 33 36.546 32.891C36.3578 32.7951 36.2049 32.6422 36.109 32.454C36 32.2401 36 31.9601 36 31.4V30.6Z" fill="#262626"/>
<path d="M24.3668 14.3598L27.2318 10.9219C27.6316 10.4421 28.3684 10.4421 28.7682 10.9219L31.6332 14.3598C32.176 15.0111 31.7128 16 30.865 16H25.135C24.2872 16 23.824 15.0111 24.3668 14.3598Z" fill="#262626"/>
</g>
</svg>
