<svg width="24" height="24" viewBox="0 0 24 24" fill="none" xmlns="http://www.w3.org/2000/svg">
<path d="M2 16V8.4C2 6.15979 2 5.03969 2.43597 4.18404C2.81947 3.43139 3.43139 2.81947 4.18404 2.43597C5.03968 2 6.15979 2 8.4 2H15.6C17.8402 2 18.9603 2 19.816 2.43597C20.5686 2.81947 21.1805 3.43139 21.564 4.18404C22 5.03969 22 6.15979 22 8.4V16" stroke="#363B40" stroke-width="2" stroke-linecap="round"/>
<path d="M9 9L12 6L15 9" stroke="#363B40" stroke-width="2" stroke-linecap="round" stroke-linejoin="round"/>
<path d="M12 16L12 6" stroke="#363B40" stroke-width="2" stroke-linecap="round"/>
<path d="M2 16H22V16C22 17.8638 22 18.7956 21.6955 19.5307C21.2895 20.5108 20.5108 21.2895 19.5307 21.6955C18.7956 22 17.8638 22 16 22H8C6.13623 22 5.20435 22 4.46927 21.6955C3.48915 21.2895 2.71046 20.5108 2.30448 19.5307C2 18.7956 2 17.8638 2 16V16Z" stroke="#262626" stroke-width="2" stroke-linecap="round" stroke-linejoin="round"/>
</svg>
