<svg id="设置" xmlns="http://www.w3.org/2000/svg" viewBox="0 0 16 16"><defs><style>.cls-1{fill:#1f2022;opacity:0.75;}</style></defs><title>document-properties-symbolic</title><path class="cls-1" d="M8,5.5A2.42,2.42,0,0,1,10.5,8,2.48,2.48,0,0,1,8,10.5,2.42,2.42,0,0,1,5.5,8,2.36,2.36,0,0,1,8,5.5m0-.8A3.3,3.3,0,1,0,11.3,8,3.33,3.33,0,0,0,8,4.7Z"/><path class="cls-1" d="M14.6,6.7a6,6,0,0,0-1-2.5l1-1L12.9,1.5l-1.1,1a7.71,7.71,0,0,0-2.5-1V0H6.7V1.4A6.19,6.19,0,0,0,4.2,2.5l-1-1L1.5,3.2l1,1a4.59,4.59,0,0,0-1,2.5H0V9.2H1.4a6,6,0,0,0,1,2.5l-1,1,1.7,1.7,1.1-1a7.71,7.71,0,0,0,2.5,1V16H9.2V14.6a6,6,0,0,0,2.5-1l1,1,1.7-1.7-1-1.1a7.71,7.71,0,0,0,1-2.5H16V6.7ZM8,13A5.08,5.08,0,0,1,3,8,5.08,5.08,0,0,1,8,3a5.08,5.08,0,0,1,5,5A5.08,5.08,0,0,1,8,13Z"/></svg>