<?xml version="1.0" encoding="UTF-8"?>
<svg width="50px" height="50px" viewBox="0 0 50 50" version="1.1" xmlns="http://www.w3.org/2000/svg" xmlns:xlink="http://www.w3.org/1999/xlink">
    <!-- Generator: Sketch 58 (84663) - https://sketch.com -->
    <title>display exit normal</title>
    <desc>Created with Sketch.</desc>
    <g id="light" stroke="none" stroke-width="1" fill="none" fill-rule="evenodd">
        <g id="按钮规范new" transform="translate(-1174.000000, -41.000000)" fill="#FFFFFF">
            <g id="编组-2" transform="translate(1174.000000, 41.000000)">
                <g id="button" fill-opacity="0.2">
                    <g id="矩形">
                        <rect x="0" y="0" width="50" height="50" rx="8"></rect>
                    </g>
                </g>
                <g id="放大-(1)" transform="translate(17.000000, 17.000000)" fill-rule="nonzero">
                    <path d="M10.0878984,2.33201086 L12.5107269,2.33201086 C13.1539263,2.33201086 13.673818,2.85320526 13.673818,3.49801629 L13.673818,5.92691585 C13.673818,6.57172687 14.1937096,7.09292128 14.836909,7.09292128 C15.4801083,7.09292128 16,6.57172687 16,5.92691585 L16,3.49801629 C16,1.5669242 14.4369923,0 12.5107269,0 L10.0878984,0 C9.44469902,0 8.92480733,0.521194404 8.92480733,1.16600543 C8.92480733,1.81081645 9.44803166,2.33201086 10.0878984,2.33201086 L10.0878984,2.33201086 Z M3.48927307,16 L5.91210165,16 C6.55530098,16 7.07519267,15.4788056 7.07519267,14.8339946 C7.07519267,14.1891835 6.55530098,13.6679891 5.91210165,13.6679891 L3.48927307,13.6679891 C2.84607373,13.6679891 2.32618205,13.1467947 2.32618205,12.5019837 L2.32618205,10.0730842 C2.32618205,9.42827313 1.80629036,8.90707872 1.16309102,8.90707872 C0.519891689,8.90707872 0,9.42827313 0,10.0730842 L0,12.5019837 C0,14.4364168 1.56300771,16 3.48927307,16 L3.48927307,16 Z" id="形状"></path>
                </g>
            </g>
        </g>
    </g>
</svg>