<?xml version="1.0" encoding="UTF-8"?>
<svg width="24px" height="24px" viewBox="0 0 24 24" version="1.1" xmlns="http://www.w3.org/2000/svg" xmlns:xlink="http://www.w3.org/1999/xlink">
    <title>airplanemode-on</title>
    <g id="airplanemode-on" stroke="none" stroke-width="1" fill="none" fill-rule="evenodd">
        <path d="M9.57933891,2.55288356 L13.846,10.8 L19.5261886,10.7573175 C20.1591396,10.7525613 20.7773773,10.9481267 21.2924453,11.3160324 L21.9082319,11.7558799 C22.0430557,11.8521826 22.0742832,12.0395477 21.9779805,12.1743715 C21.9587386,12.2013101 21.9351706,12.2248782 21.9082319,12.2441201 L21.2924453,12.6839676 C20.7773773,13.0518733 20.1591396,13.2474387 19.5261886,13.2426825 L13.846,13.2 L9.57933891,21.4471164 C9.4042267,21.7855944 9.05195348,21.9951183 8.67093874,21.9874116 L7.59523474,21.9656536 C7.31914883,21.9600693 7.09986396,21.7317305 7.10544828,21.4556446 C7.10603399,21.4266869 7.10913476,21.3978348 7.11471558,21.369414 L8.75816327,13 L5.264,13 L2.70991406,16.1300073 C2.57024684,16.3011681 2.31827094,16.3266987 2.14711014,16.1870315 C2.05401464,16.1110655 2,15.997274 2,15.8771174 L2,8.15764463 C2,7.93673073 2.1790861,7.75764463 2.40000001,7.75764463 C2.52282813,7.75764463 2.63884646,7.81407641 2.7146747,7.91070366 L5.139,11 L8.758,10.999 L7.11471808,2.63058773 C7.06150893,2.35962021 7.23803698,2.0968231 7.5090045,2.04361396 C7.53742595,2.03803292 7.56627859,2.03493204 7.59523689,2.03434631 L8.67093874,2.0125884 C9.05195348,2.00488172 9.4042267,2.21440559 9.57933891,2.55288356 Z" id="路径" fill="#FFFFFF" fill-rule="nonzero"></path>
    </g>
</svg>