<?xml version="1.0" encoding="UTF-8"?>
<svg width="15px" height="16px" viewBox="0 0 15 16" version="1.1" xmlns="http://www.w3.org/2000/svg" xmlns:xlink="http://www.w3.org/1999/xlink">
    <title>avatar-default-symbolic-w</title>
    <g id="浅色模式3.1" stroke="none" stroke-width="1" fill="none" fill-rule="evenodd">
        <g id="字体-右键" transform="translate(-1502.000000, -901.000000)">
            <g id="avatar-default-symbolic-w" transform="translate(1502.000000, 901.000000)">
                <g id="编组" transform="translate(0.000000, 0.500000)">
                    <g transform="translate(0.000000, 8.500000)" fill="#FFFFFF" fill-rule="nonzero" id="形状">
                        <path d="M10.5,1 C11.9,1 13,2.1 13,3.5 L13,4.7 C13,5.4 12.4,6 11.7,6 L2.3,6 C1.6,6 1,5.4 1,4.7 L1,3.5 C1,2.1 2.1,1 3.5,1 L10.5,1 M10.5,0 L3.5,0 C1.6,0 0,1.6 0,3.5 L0,4.7 C0,6 1,7 2.3,7 L11.7,7 C13,7 14,6 14,4.7 L14,3.5 C14,1.6 12.4,0 10.5,0 L10.5,0 Z"></path>
                    </g>
                    <circle id="椭圆形" stroke="#FFFFFF" cx="7" cy="3.5" r="3.5"></circle>
                </g>
            </g>
        </g>
    </g>
</svg>