<?xml version="1.0" encoding="UTF-8"?>
<svg width="128px" height="128px" viewBox="0 0 128 128" version="1.1" xmlns="http://www.w3.org/2000/svg" xmlns:xlink="http://www.w3.org/1999/xlink">
    <title>编组 12</title>
    <defs>
        <rect id="path-1" x="0" y="0" width="100" height="100" rx="32"></rect>
        <rect id="path-3" x="0" y="0" width="100" height="100" rx="32"></rect>
        <linearGradient x1="2.77555756e-13%" y1="50%" x2="100%" y2="50%" id="linearGradient-5">
            <stop stop-color="#484E55" offset="0%"></stop>
            <stop stop-color="#575E67" offset="100%"></stop>
        </linearGradient>
    </defs>
    <g id="浅色模式3.1" stroke="none" stroke-width="1" fill="none" fill-rule="evenodd">
        <g id="字体-空白页" transform="translate(-1450.000000, -361.000000)">
            <g id="编组-9" transform="translate(1004.000000, 179.000000)">
                <g id="编组-12" transform="translate(446.000000, 182.000000)">
                    <rect id="矩形" x="0" y="0" width="128" height="128"></rect>
                    <g id="编组" transform="translate(12.000000, 14.000000)">
                        <mask id="mask-2" fill="white">
                            <use xlink:href="#path-1"></use>
                        </mask>
                        <g id="蒙版"></g>
                        <mask id="mask-4" fill="white">
                            <use xlink:href="#path-3"></use>
                        </mask>
                        <use id="蒙版" fill="#393D42" xlink:href="#path-3"></use>
                        <path d="M21.0003174,2 L21.0003174,98.1186867 C8.74586136,93.633122 -1.82964754e-13,81.8675854 -1.82964754e-13,68.0593433 L-1.82964754e-13,32.0593433 C-1.82964754e-13,18.2511013 8.74586136,6.48556463 21.0003174,2 Z" id="路径" fill="url(#linearGradient-5)" mask="url(#mask-4)"></path>
                    </g>
                    <path d="M97.81893,72 C98.8751767,72 99.9238631,72.0771597 100.965021,72.2314815 C102.006178,72.3858032 102.949241,72.7021581 103.794239,73.1805556 C104.639236,73.658953 105.318242,74.3302426 105.831276,75.1944444 C106.34431,76.0586463 106.600823,77.1851782 106.600823,78.5740741 L106.600823,90.8888889 C106.600823,91.8148194 106.653635,92.493825 106.759259,92.9259259 C106.864884,93.3580269 107.219476,93.5740741 107.823045,93.5740741 C108.155009,93.5740741 108.547323,93.4969144 109,93.3425926 L109,96.3981481 C108.336073,96.7993847 107.415644,97 106.238683,97 C105.242793,97 104.45062,96.714509 103.86214,96.1435185 C103.27366,95.572528 102.979424,94.6388954 102.979424,93.3425926 C101.923177,94.6388954 100.693423,95.572528 99.2901235,96.1435185 C97.8868243,96.714509 96.3703785,97 94.7407407,97 C93.684494,97 92.6810747,96.8765444 91.7304527,96.6296296 C90.7798306,96.3827148 89.9574795,95.9969162 89.2633745,95.4722222 C88.5692695,94.9475282 88.0185206,94.2608067 87.6111111,93.412037 C87.2037017,92.5632674 87,91.5370431 87,90.3333333 C87,88.9753019 87.2263352,87.8642019 87.6790123,87 C88.1316895,86.1357981 88.7277055,85.4336447 89.4670782,84.8935185 C90.2064509,84.3533924 91.0514356,83.9444458 92.0020576,83.6666667 C92.7150241,83.4583323 93.440714,83.2760417 94.1791395,83.1197919 L94.9218107,82.9722222 C95.7668081,82.7993819 96.5779959,82.6611111 97.3553896,82.5574075 L97.9320988,82.4861111 C98.8827208,82.3780859 99.720161,82.2237664 100.444444,82.0231481 C101.168728,81.8225299 101.74211,81.5293229 102.164609,81.1435185 C102.587108,80.7577141 102.798354,80.1944481 102.798354,79.4537037 C102.798354,78.5895019 102.639919,77.8950644 102.323045,77.3703704 C102.006171,76.8456764 101.598768,76.4444458 101.100823,76.1666667 C100.602878,75.8888875 100.044585,75.7037042 99.4259259,75.6111111 C98.8072671,75.5185181 98.1961621,75.4722222 97.5925926,75.4722222 C95.9629548,75.4722222 94.6049437,75.7885771 93.5185185,76.4212963 C92.4320933,77.0540155 91.8436219,78.2499912 91.7530864,80.0092593 L87.9053498,80.0092593 C87.9657067,78.5277704 88.267487,77.2777829 88.8106996,76.2592593 C89.3539122,75.2407356 90.0781848,74.4151266 90.9835391,73.7824074 C91.8888934,73.1496882 92.9224908,72.6944458 94.0843621,72.4166667 C95.2462335,72.1388875 96.491077,72 97.81893,72 Z M72.3564955,63 L85,96 L80.2416918,96 L76.7069486,86.0630252 L63.021148,86.0630252 L59.3957704,96 L55,96 L67.5981873,63 L72.3564955,63 Z M103,84 C102.503873,84.3529429 101.852717,84.6102933 101.046512,84.7720588 C100.240306,84.9338243 99.3953533,85.066176 98.5116279,85.1691176 C97.6279026,85.2720593 96.7364386,85.3897052 95.8372093,85.5220588 C94.93798,85.6544124 94.1317865,85.8676456 93.4186047,86.1617647 C92.7054228,86.4558838 92.1240333,86.8749973 91.6744186,87.4191176 C91.224804,87.963238 91,88.7058776 91,89.6470588 C91,90.264709 91.1317816,90.7867626 91.3953488,91.2132353 C91.658916,91.639708 92,91.9852928 92.4186047,92.25 C92.8372114,92.5147072 93.3255786,92.7058818 93.8837209,92.8235294 C94.4418633,92.9411771 95.0310047,93 95.6511628,93 C96.9534949,93 98.0697628,92.830884 99,92.4926471 C99.9302372,92.1544101 100.68992,91.7279437 101.27907,91.2132353 C101.86822,90.6985268 102.302324,90.1397089 102.581395,89.5367647 C102.820599,89.0199554 102.957286,88.5301633 102.991457,88.0673776 L103,87.8382353 L103,84 Z M69.5909091,67 L69.5,67 L64,82 L75,82 L69.5909091,67 Z" id="形状结合" fill="#67707B" fill-rule="nonzero"></path>
                </g>
            </g>
        </g>
    </g>
</svg>