<?xml version="1.0" encoding="UTF-8"?>
<svg width="16px" height="16px" viewBox="0 0 16 16" version="1.1" xmlns="http://www.w3.org/2000/svg" xmlns:xlink="http://www.w3.org/1999/xlink">
    <!-- Generator: Sketch 59 (86127) - https://sketch.com -->
    <title>删除</title>
    <desc>Created with Sketch.</desc>
    <g id="传书" stroke="none" stroke-width="1" fill="none" fill-rule="evenodd">
        <g id="聊天窗口3.0" transform="translate(-1196.000000, -249.000000)">
            <g id="编组-4" transform="translate(820.000000, 162.000000)">
                <g id="删除" transform="translate(376.000000, 87.000000)">
                    <circle id="椭圆形" fill="#F44E50" fill-rule="nonzero" cx="8" cy="8" r="8"></circle>
                    <path d="M11.01045,11.01045 C11.2057104,10.8151896 11.2057107,10.4986101 11.0104507,10.3033493 L8.88909,8.18198 L8.88909,8.18198 L11.0104446,6.06065964 C11.2057077,5.86539976 11.2057102,5.54881839 11.0104504,5.35355536 C11.0104502,5.35355524 11.0104501,5.35355512 11.01045,5.353555 C10.8151896,5.15829179 10.4986077,5.15828907 10.3033439,5.35354893 L8.18198,7.47487 L8.18198,7.47487 L6.060665,5.353555 C5.86540197,5.15829197 5.54881803,5.15829197 5.353555,5.353555 C5.15829197,5.54881803 5.15829197,5.86540197 5.353555,6.060665 L7.47487,8.18198 L7.47487,8.18198 L5.35354893,10.3033439 C5.15828907,10.4986077 5.15829179,10.8151896 5.353555,11.01045 C5.54881784,11.2057101 5.86539921,11.2057078 6.06065929,11.010445 C6.0606594,11.0104449 6.06065952,11.0104448 6.06065964,11.0104446 L8.18198,8.88909 L8.18198,8.88909 L10.3033493,11.0104507 C10.4986101,11.2057107 10.8151896,11.2057104 11.01045,11.01045 Z" id="路径" fill="#FFFFFF"></path>
                </g>
            </g>
        </g>
    </g>
</svg>