<?xml version="1.0" encoding="UTF-8"?>
<svg width="16px" height="10px" viewBox="0 0 16 10" version="1.1" xmlns="http://www.w3.org/2000/svg" xmlns:xlink="http://www.w3.org/1999/xlink">
    <title>font-select-symbolic-w</title>
    <g id="浅色模式3.1" stroke="none" stroke-width="1" fill="none" fill-rule="evenodd">
        <g id="字体-右键" transform="translate(-1525.000000, -904.000000)" fill="#FFFFFF" fill-rule="nonzero">
            <g id="图层_2_1_" transform="translate(1525.950000, 904.000000)">
                <path d="M11.95,9 L8.05,0 L7.05,0 L3.15,9 L2.05,9 L2.05,10 L5.05,10 L5.05,9 L4.25,9 L5.05,7 L10.05,7 L10.95,9 L10.05,9 L10.05,10 L13.05,10 L13.05,9 L11.95,9 Z M5.55,6 L7.05,2.5 L7.55,1.4 L8.05,2.5 L9.55,6 L5.55,6 Z" id="形状"></path>
                <path d="M0.55,8 C0.45,8 0.25,8 0.15,7.9 C-0.05,7.7 -0.05,7.4 0.15,7.2 L1.75,5.6 L0.15,3.9 C0.05,3.7 0.05,3.3 0.15,3.1 C0.25,2.9 0.65,2.9 0.85,3.1 L2.85,5.1 C3.05,5.3 3.05,5.7 2.95,5.9 L0.95,7.9 C0.85,8 0.65,8 0.55,8 Z" id="路径"></path>
                <path d="M14.55,8 C14.45,8 14.25,8 14.15,7.9 L12.15,5.9 C11.95,5.7 11.95,5.4 12.15,5.2 L14.15,3.2 C14.35,3 14.65,3 14.85,3.2 C15.05,3.4 15.05,3.7 14.85,3.9 L13.25,5.5 L14.85,7.1 C15.05,7.3 15.05,7.6 14.85,7.8 C14.85,8 14.65,8 14.55,8 Z" id="路径"></path>
            </g>
        </g>
    </g>
</svg>