<?xml version="1.0" encoding="UTF-8"?>
<svg width="17px" height="15px" viewBox="0 0 17 15" version="1.1" xmlns="http://www.w3.org/2000/svg" xmlns:xlink="http://www.w3.org/1999/xlink">
    <title>lingmo-play-love-symbolic-w</title>
    <g id="浅色模式3.1" stroke="none" stroke-width="1" fill="none" fill-rule="evenodd">
        <g id="字体-右键" transform="translate(-1525.000000, -877.000000)" fill="#FFFFFF" fill-rule="nonzero">
            <g id="lingmo-play-love-symbolic-w" transform="translate(1525.000000, 877.000000)">
                <path d="M8.025,14.0149097 C7.625,14.0149097 7.225,13.9149097 6.925,13.6149097 L1.425,8.11490973 C-0.475,6.21490973 -0.475,3.31490973 1.425,1.41490973 C3.325,-0.385090269 6.125,-0.485090269 8.025,1.21490973 L8.025,1.21490973 L8.025,1.21490973 C10.025,-0.485090269 12.725,-0.385090269 14.625,1.41490973 C15.525,2.31490973 16.025,3.51490973 16.025,4.81490973 C16.025,6.11490973 15.425,7.31490973 14.525,8.11490973 L9.025,13.6149097 C8.825,13.8149097 8.425,14.0149097 8.025,14.0149097 Z M4.825,1.01490973 C3.825,1.01490973 2.925,1.31490973 2.125,2.11490973 C0.625,3.61490973 0.625,5.91490973 2.125,7.41490973 L7.625,12.9149097 C7.825,13.1149097 8.125,13.1149097 8.325,12.9149097 L13.825,7.41490973 C14.625,6.71490973 15.025,5.81490973 15.025,4.81490973 C15.025,3.81490973 14.625,2.91490973 13.925,2.21490973 C12.525,0.714909731 10.325,0.614909731 8.725,2.01490973 L8.125,2.61490973 L7.425,2.01490973 C6.625,1.31490973 5.725,1.01490973 4.825,1.01490973 Z" id="形状"></path>
            </g>
        </g>
    </g>
</svg>