<svg id="图层_1" data-name="图层 1" xmlns="http://www.w3.org/2000/svg" xmlns:xlink="http://www.w3.org/1999/xlink" viewBox="0 0 512 512"><defs><style>.cls-1{opacity:0.6;}.cls-2{opacity:0.06;}.cls-3{opacity:0.04;}.cls-4{opacity:0.02;}.cls-5{fill:url(#未命名的渐变_52);}.cls-6{fill:url(#未命名的渐变_49);}.cls-7,.cls-8{fill-rule:evenodd;}.cls-7{fill:url(#未命名的渐变_51);}.cls-8{fill:url(#未命名的渐变_50);}</style><linearGradient id="未命名的渐变_52" x1="1502.52" y1="-960.59" x2="1502.52" y2="-965.9" gradientTransform="matrix(82, 0, 0, -82, -122951, -78730)" gradientUnits="userSpaceOnUse"><stop offset="0" stop-color="#d0e1eb"/><stop offset="1" stop-color="#898b8d"/></linearGradient><linearGradient id="未命名的渐变_49" x1="1486.94" y1="-1017.4" x2="1486.94" y2="-1022.72" gradientTransform="matrix(40, 0, 0, -25, -59163, -25163)" gradientUnits="userSpaceOnUse"><stop offset="0" stop-color="#656565"/><stop offset="1" stop-color="#222"/></linearGradient><linearGradient id="未命名的渐变_51" x1="80.54" y1="45.29" x2="80.54" y2="466.71" gradientUnits="userSpaceOnUse"><stop offset="0" stop-color="#cad8e0"/><stop offset="1" stop-color="#7e8284"/></linearGradient><linearGradient id="未命名的渐变_50" x1="38" y1="256" x2="123.07" y2="256" gradientUnits="userSpaceOnUse"><stop offset="0" stop-opacity="0"/><stop offset="1" stop-opacity="0.1"/></linearGradient></defs><title>Lingmo-font_1</title><g class="cls-1"><g class="cls-2"><path d="M346,43A128,128,0,0,1,474,171V346A128,128,0,0,1,346,474H166A128,128,0,0,1,38,346V171A128,128,0,0,1,166,43H346m0-2H166A130,130,0,0,0,36,171V346A130,130,0,0,0,166,476H346A130,130,0,0,0,476,346V171A130,130,0,0,0,346,41Z"/></g><g class="cls-3"><path d="M346,43A128,128,0,0,1,474,171V346A128,128,0,0,1,346,474H166A128,128,0,0,1,38,346V171A128,128,0,0,1,166,43H346m0-4H166A132,132,0,0,0,34,171V346A132,132,0,0,0,166,478H346A132,132,0,0,0,478,346V171A132,132,0,0,0,346,39Z"/></g><g class="cls-3"><path d="M346,43A128,128,0,0,1,474,171V346A128,128,0,0,1,346,474H166A128,128,0,0,1,38,346V171A128,128,0,0,1,166,43H346m0-6H166A134,134,0,0,0,32,171V346A134,134,0,0,0,166,480H346A134,134,0,0,0,480,346V171A134,134,0,0,0,346,37Z"/></g><g class="cls-3"><path d="M346,43A128,128,0,0,1,474,171V346A128,128,0,0,1,346,474H166A128,128,0,0,1,38,346V171A128,128,0,0,1,166,43H346m0-8H166A136,136,0,0,0,30,171V346A136,136,0,0,0,166,482H346A136,136,0,0,0,482,346V171A136,136,0,0,0,346,35Z"/></g><g class="cls-3"><path d="M346,43A128,128,0,0,1,474,171V346A128,128,0,0,1,346,474H166A128,128,0,0,1,38,346V171A128,128,0,0,1,166,43H346m0-10H166A138,138,0,0,0,28,171V346A138,138,0,0,0,166,484H346A138,138,0,0,0,484,346V171A138,138,0,0,0,346,33Z"/></g><g class="cls-3"><path d="M346,43A128,128,0,0,1,474,171V346A128,128,0,0,1,346,474H166A128,128,0,0,1,38,346V171A128,128,0,0,1,166,43H346m0-12H166A140,140,0,0,0,26,171V346A140,140,0,0,0,166,486H346A140,140,0,0,0,486,346V171A140,140,0,0,0,346,31Z"/></g><g class="cls-4"><path d="M346,43A128,128,0,0,1,474,171V346A128,128,0,0,1,346,474H166A128,128,0,0,1,38,346V171A128,128,0,0,1,166,43H346m0-14H166A142,142,0,0,0,24,171V346A142,142,0,0,0,166,488H346A142,142,0,0,0,488,346V171A142,142,0,0,0,346,29Z"/></g><g class="cls-4"><path d="M346,43A128,128,0,0,1,474,171V346A128,128,0,0,1,346,474H166A128,128,0,0,1,38,346V171A128,128,0,0,1,166,43H346m0-16H166A144,144,0,0,0,22,171V346A144,144,0,0,0,166,490H346A144,144,0,0,0,490,346V171A144,144,0,0,0,346,27Z"/></g><g class="cls-4"><path d="M346,43A128,128,0,0,1,474,171V346A128,128,0,0,1,346,474H166A128,128,0,0,1,38,346V171A128,128,0,0,1,166,43H346m0-20H166A148,148,0,0,0,18,171V346A148,148,0,0,0,166,494H346A148,148,0,0,0,494,346V171A148,148,0,0,0,346,23Z"/></g></g><g id="蒙版"><rect id="path-2" class="cls-5" x="38" y="38" width="436" height="436" rx="127.61"/></g><path id="形状结合" class="cls-6" d="M278.9,272l51.54,132.93H311l-12.51-37.23H240.05l-14,37.23H208.15L259.5,272Zm96,31.9a90.08,90.08,0,0,1,12.93.94,33.65,33.65,0,0,1,11.62,3.83,22.45,22.45,0,0,1,8.37,8.14Q411,322,411,330.42v49.76a37.65,37.65,0,0,0,.65,8.23c.44,1.75,1.89,2.62,4.37,2.62a15.65,15.65,0,0,0,4.84-.93v12.35q-4.09,2.43-11.35,2.43-6.14,0-9.76-3.46t-3.63-11.32a37.83,37.83,0,0,1-15.16,11.32,52,52,0,0,1-31.06,2,28.73,28.73,0,0,1-10.13-4.68,22.38,22.38,0,0,1-6.79-8.32,28.21,28.21,0,0,1-2.51-12.44q0-8.24,2.79-13.47a24.42,24.42,0,0,1,7.35-8.51A33.2,33.2,0,0,1,351,351q4.39-1.26,8.95-2.21l3.05-.6q5.2-1.05,10-1.67l2.36-.29a69.19,69.19,0,0,0,10.33-1.87,17.11,17.11,0,0,0,7.06-3.56c1.74-1.56,2.61-3.83,2.61-6.83a15.94,15.94,0,0,0-2-8.41,13.4,13.4,0,0,0-5-4.87,20.26,20.26,0,0,0-6.88-2.24,50.84,50.84,0,0,0-7.53-.57q-10.05,0-16.74,3.84T350,336.22H334.16a34.51,34.51,0,0,1,3.72-15.15,28.21,28.21,0,0,1,8.93-10,37.18,37.18,0,0,1,12.74-5.52A66.4,66.4,0,0,1,374.89,303.85ZM394.24,357a21.37,21.37,0,0,1-7.79,2.74q-4.81.86-10.11,1.41t-10.66,1.25a44.68,44.68,0,0,0-9.65,2.27,17.59,17.59,0,0,0-6.95,4.45,11.18,11.18,0,0,0-2.69,7.9,9.48,9.48,0,0,0,1.58,5.55,12.16,12.16,0,0,0,4.08,3.68,19,19,0,0,0,5.84,2,38,38,0,0,0,7.05.63,43.64,43.64,0,0,0,13.35-1.8,29.46,29.46,0,0,0,9.09-4.54,18.29,18.29,0,0,0,5.19-5.94,14,14,0,0,0,1.63-5.07l0-.95ZM269.69,287.9h-.4l-23.92,63.81h47.85Z"/><path class="cls-7" d="M123.07,466.71V45.29A127.64,127.64,0,0,0,38,165.61V346.39A127.64,127.64,0,0,0,123.07,466.71Z"/><path class="cls-8" d="M123.07,466.71V45.29A127.64,127.64,0,0,0,38,165.61V346.39A127.64,127.64,0,0,0,123.07,466.71Z"/></svg>