<?xml version="1.0" encoding="UTF-8"?>
<svg width="244px" height="244px" viewBox="0 0 244 244" version="1.1" xmlns="http://www.w3.org/2000/svg" xmlns:xlink="http://www.w3.org/1999/xlink">
    <!-- Generator: Sketch 58 (84663) - https://sketch.com -->
    <title>maganifier</title>
    <desc>Created with Sketch.</desc>
    <defs>
        <linearGradient x1="50%" y1="0%" x2="50%" y2="100%" id="linearGradient-1">
            <stop stop-color="#F7F7F7" offset="0%"></stop>
            <stop stop-color="#F6F6F6" offset="100%"></stop>
        </linearGradient>
        <path d="M122,223 C177.78076,223 223,177.78076 223,122 C223,66.2192403 177.78076,21 122,21 C66.2192403,21 21,66.2192403 21,122 C21,177.78076 66.2192403,223 122,223 Z M122,231 C61.8009623,231 13,182.199038 13,122 C13,61.8009623 61.8009623,13 122,13 C182.199038,13 231,61.8009623 231,122 C231,182.199038 182.199038,231 122,231 Z" id="path-2"></path>
        <filter x="-6.7%" y="-4.4%" width="113.3%" height="113.3%" filterUnits="objectBoundingBox" id="filter-3">
            <feOffset dx="0" dy="5" in="SourceAlpha" result="shadowOffsetOuter1"></feOffset>
            <feGaussianBlur stdDeviation="4" in="shadowOffsetOuter1" result="shadowBlurOuter1"></feGaussianBlur>
            <feComposite in="shadowBlurOuter1" in2="SourceAlpha" operator="out" result="shadowBlurOuter1"></feComposite>
            <feColorMatrix values="0 0 0 0 0   0 0 0 0 0   0 0 0 0 0  0 0 0 0.1 0" type="matrix" in="shadowBlurOuter1"></feColorMatrix>
        </filter>
        <linearGradient x1="50%" y1="0%" x2="50%" y2="44.5863861%" id="linearGradient-4">
            <stop stop-color="#FFFFFF" stop-opacity="0.4" offset="0%"></stop>
            <stop stop-color="#FFFFFF" stop-opacity="0" offset="100%"></stop>
        </linearGradient>
        <filter x="-5.0%" y="-5.0%" width="110.1%" height="110.1%" filterUnits="objectBoundingBox" id="filter-5">
            <feGaussianBlur stdDeviation="3" in="SourceGraphic"></feGaussianBlur>
        </filter>
    </defs>
    <g id="light" stroke="none" stroke-width="1" fill="none" fill-rule="evenodd">
        <g id="6-放大镜" transform="translate(-342.000000, -414.000000)">
            <g id="放大镜" transform="translate(342.000000, 414.000000)">
                <g id="Oval" fill-rule="nonzero">
                    <use fill="black" fill-opacity="1" filter="url(#filter-3)" xlink:href="#path-2"></use>
                    <path stroke-opacity="0.5" stroke="#FFFFFF" stroke-width="1" d="M122,223.5 C65.9430979,223.5 20.5,178.056902 20.5,122 C20.5,65.9430979 65.9430979,20.5 122,20.5 C178.056902,20.5 223.5,65.9430979 223.5,122 C223.5,178.056902 178.056902,223.5 122,223.5 Z M122,230.5 C181.922895,230.5 230.5,181.922895 230.5,122 C230.5,62.0771046 181.922895,13.5 122,13.5 C62.0771046,13.5 13.5,62.0771046 13.5,122 C13.5,181.922895 62.0771046,230.5 122,230.5 Z" stroke-linejoin="square" fill="url(#linearGradient-1)" fill-rule="evenodd"></path>
                    <path stroke-opacity="0.05" stroke="#000000" stroke-width="1" d="M122,222.5 C177.504617,222.5 222.5,177.504617 222.5,122 C222.5,66.4953826 177.504617,21.5 122,21.5 C66.4953826,21.5 21.5,66.4953826 21.5,122 C21.5,177.504617 66.4953826,222.5 122,222.5 Z M122,231.5 C61.5248199,231.5 12.5,182.47518 12.5,122 C12.5,61.5248199 61.5248199,12.5 122,12.5 C182.47518,12.5 231.5,61.5248199 231.5,122 C231.5,182.47518 182.47518,231.5 122,231.5 Z"></path>
                </g>
                <path d="M122.5,212 C171.929485,212 212,171.929485 212,122.5 C212,73.0705149 171.929485,33 122.5,33 C73.0705149,33 33,73.0705149 33,122.5 C33,171.929485 73.0705149,212 122.5,212 Z" id="Path" fill="url(#linearGradient-4)" filter="url(#filter-5)"></path>
            </g>
        </g>
    </g>
</svg>