<svg xmlns="http://www.w3.org/2000/svg" width="14" height="14" viewBox="0 0 14 14">
  <path fill="#536076" fill-rule="evenodd" d="M2,4 L2,9.5 C2,10.2796961 2.59488808,10.9204487 3.35553999,10.9931334 L3.5,11 L8.5,11 C9.27969612,11 9.92044868,10.4051119 9.99313342,9.64446001 L10,9.5 L10,4 L11,4 L11,9.5 C11,10.8254834 9.96846406,11.9100387 8.66437569,11.9946823 L8.5,12 L3.5,12 C2.1745166,12 1.08996133,10.9684641 1.00531768,9.66437569 L1,9.5 L1,4 L2,4 Z M4.5,4 C4.77614237,4 5,4.22385763 5,4.5 L5,9.5 C5,9.77614237 4.77614237,10 4.5,10 C4.22385763,10 4,9.77614237 4,9.5 L4,4.5 C4,4.22385763 4.22385763,4 4.5,4 Z M7.5,4 C7.77614237,4 8,4.22385763 8,4.5 L8,9.5 C8,9.77614237 7.77614237,10 7.5,10 C7.22385763,10 7,9.77614237 7,9.5 L7,4.5 C7,4.22385763 7.22385763,4 7.5,4 Z M11.5,2 C11.7761424,2 12,2.22385763 12,2.5 C12,2.77614237 11.7761424,3 11.5,3 L0.5,3 C0.223857625,3 3.38176876e-17,2.77614237 0,2.5 C-3.38176876e-17,2.22385763 0.223857625,2 0.5,2 L11.5,2 Z M7.5,0 C7.77614237,-5.07265313e-17 8,0.223857625 8,0.5 C8,0.776142375 7.77614237,1 7.5,1 L4.5,1 C4.22385763,1 4,0.776142375 4,0.5 C4,0.223857625 4.22385763,5.07265313e-17 4.5,0 L7.5,0 Z" transform="translate(1 1)"/>
</svg>
