<?xml version="1.0" encoding="UTF-8"?>
<svg width="96px" height="96px" viewBox="0 0 96 96" version="1.1" xmlns="http://www.w3.org/2000/svg" xmlns:xlink="http://www.w3.org/1999/xlink">
    <title>蓝牙关闭-dark</title>
    <defs>
        <filter x="-23.1%" y="-16.5%" width="147.8%" height="144.0%" filterUnits="objectBoundingBox" id="filter-1">
            <feOffset dx="0" dy="3" in="SourceAlpha" result="shadowOffsetOuter1"></feOffset>
            <feGaussianBlur stdDeviation="4" in="shadowOffsetOuter1" result="shadowBlurOuter1"></feGaussianBlur>
            <feColorMatrix values="0 0 0 0 0   0 0 0 0 0   0 0 0 0 0  0 0 0 0.552334872 0" type="matrix" in="shadowBlurOuter1" result="shadowMatrixOuter1"></feColorMatrix>
            <feMerge>
                <feMergeNode in="shadowMatrixOuter1"></feMergeNode>
                <feMergeNode in="SourceGraphic"></feMergeNode>
            </feMerge>
        </filter>
        <path d="M21.5002721,2.50453895 C21.5002721,0.444425659 23.8521815,-0.731529023 25.5002721,0.504538954 L45.5002721,15.504539 C46.8825354,16.5412364 46.8215279,18.6341005 45.381223,19.5885194 L27.7742721,31.254539 L45.381223,42.9205585 C46.7718622,43.8420664 46.8766879,45.8248597 45.6381191,46.8936168 L45.5002721,47.004539 L25.5002721,62.004539 C23.8521815,63.2406069 21.5002721,62.0646523 21.5002721,60.004539 L21.5002721,35.411539 L3.88122302,47.0885194 C2.77822867,47.8194193 1.30754993,47.5607997 0.515647819,46.5249861 L0.416291642,46.3854899 C-0.346386486,45.2345392 -0.0316294331,43.6832366 1.1193212,42.9205585 L18.7252721,31.253539 L1.1193212,19.5885194 C0.0163268431,18.8576195 -0.318705007,17.4024448 0.326551067,16.269456 L0.416291642,16.123588 C1.17896977,14.9726374 2.73027239,14.6578804 3.88122302,15.4205585 L21.5002721,27.096539 L21.5002721,2.50453895 Z M26.5002721,36.405539 L26.5002721,55.004539 L39.6662721,45.130539 L26.5002721,36.405539 Z M26.5002721,7.50453895 L26.5002721,26.102539 L39.6652721,17.378539 L26.5002721,7.50453895 Z" id="path-2"></path>
        <filter x="-4.3%" y="-3.2%" width="108.6%" height="106.4%" filterUnits="objectBoundingBox" id="filter-3">
            <feGaussianBlur stdDeviation="1" in="SourceAlpha" result="shadowBlurInner1"></feGaussianBlur>
            <feOffset dx="0" dy="-2" in="shadowBlurInner1" result="shadowOffsetInner1"></feOffset>
            <feComposite in="shadowOffsetInner1" in2="SourceAlpha" operator="arithmetic" k2="-1" k3="1" result="shadowInnerInner1"></feComposite>
            <feColorMatrix values="0 0 0 0 0   0 0 0 0 0   0 0 0 0 0  0 0 0 0.59798234 0" type="matrix" in="shadowInnerInner1"></feColorMatrix>
        </filter>
        <ellipse id="path-4" cx="14.1140885" cy="14" rx="14.1140885" ry="14"></ellipse>
        <filter x="-12.4%" y="-12.5%" width="124.8%" height="125.0%" filterUnits="objectBoundingBox" id="filter-5">
            <feGaussianBlur stdDeviation="1.5" in="SourceAlpha" result="shadowBlurInner1"></feGaussianBlur>
            <feOffset dx="0" dy="1" in="shadowBlurInner1" result="shadowOffsetInner1"></feOffset>
            <feComposite in="shadowOffsetInner1" in2="SourceAlpha" operator="arithmetic" k2="-1" k3="1" result="shadowInnerInner1"></feComposite>
            <feColorMatrix values="0 0 0 0 0   0 0 0 0 0   0 0 0 0 0  0 0 0 0.215775923 0" type="matrix" in="shadowInnerInner1" result="shadowMatrixInner1"></feColorMatrix>
            <feGaussianBlur stdDeviation="1.5" in="SourceAlpha" result="shadowBlurInner2"></feGaussianBlur>
            <feOffset dx="0" dy="-2" in="shadowBlurInner2" result="shadowOffsetInner2"></feOffset>
            <feComposite in="shadowOffsetInner2" in2="SourceAlpha" operator="arithmetic" k2="-1" k3="1" result="shadowInnerInner2"></feComposite>
            <feColorMatrix values="0 0 0 0 0   0 0 0 0 0   0 0 0 0 0  0 0 0 0.297079873 0" type="matrix" in="shadowInnerInner2" result="shadowMatrixInner2"></feColorMatrix>
            <feMerge>
                <feMergeNode in="shadowMatrixInner1"></feMergeNode>
                <feMergeNode in="shadowMatrixInner2"></feMergeNode>
            </feMerge>
        </filter>
        <path d="M14.2262299,3.59124774 C20.047809,3.59124774 24.7671314,8.27242238 24.7671314,14.0469439 C24.7671314,19.8214655 20.047809,24.5026401 14.2262299,24.5026401 C8.40465071,24.5026401 3.68532835,19.8214655 3.68532835,14.0469439 C3.68532835,8.27242238 8.40465071,3.59124774 14.2262299,3.59124774 Z M6.68532835,14.0469439 C6.68532835,18.1591363 10.056079,21.5026401 14.2262299,21.5026401 C15.5460175,21.5026401 16.7857353,21.1677469 17.8638719,20.5795816 L7.63161413,10.4285399 C7.02861387,11.5006005 6.68532835,12.7346296 6.68532835,14.0469439 Z M14.2262299,6.59124774 C12.4817007,6.59124774 10.8770715,7.17638092 9.60059446,8.15814117 L20.1677781,18.6384178 C21.1701259,17.3720193 21.7671314,15.7775542 21.7671314,14.0469439 C21.7671314,9.93475155 18.3963808,6.59124774 14.2262299,6.59124774 Z" id="path-6"></path>
        <filter x="-7.1%" y="-7.2%" width="114.2%" height="114.3%" filterUnits="objectBoundingBox" id="filter-7">
            <feGaussianBlur stdDeviation="1" in="SourceAlpha" result="shadowBlurInner1"></feGaussianBlur>
            <feOffset dx="0" dy="-1" in="shadowBlurInner1" result="shadowOffsetInner1"></feOffset>
            <feComposite in="shadowOffsetInner1" in2="SourceAlpha" operator="arithmetic" k2="-1" k3="1" result="shadowInnerInner1"></feComposite>
            <feColorMatrix values="0 0 0 0 0   0 0 0 0 0   0 0 0 0 0  0 0 0 0.59798234 0" type="matrix" in="shadowInnerInner1"></feColorMatrix>
        </filter>
    </defs>
    <g id="页面-1" stroke="none" stroke-width="1" fill="none" fill-rule="evenodd">
        <g id="蓝牙列表（有我的网络）" transform="translate(-305, -170)">
            <g id="网络" transform="translate(188, 58)">
                <g id="ICON-/-TrayICON-/-wifi" transform="translate(117, 112)">
                    <rect id="矩形" x="0" y="0" width="96" height="96"></rect>
                    <g id="编组-3" filter="url(#filter-1)" opacity="0.3" transform="translate(18.9997, 14.4955)" fill-rule="nonzero">
                        <g id="路径-2">
                            <use fill="#D8D8D8" xlink:href="#path-2"></use>
                            <use fill="black" fill-opacity="1" filter="url(#filter-3)" xlink:href="#path-2"></use>
                        </g>
                        <g id="编组-2" transform="translate(30.3322, 35.5805)">
                            <g id="椭圆形">
                                <use fill-opacity="0.903200803" fill="#3D3D3D" xlink:href="#path-4"></use>
                                <use fill="black" fill-opacity="1" filter="url(#filter-5)" xlink:href="#path-4"></use>
                                <ellipse stroke-opacity="0.048828125" stroke="#000000" stroke-width="1" cx="14.1140885" cy="14" rx="14.6140885" ry="14.5"></ellipse>
                            </g>
                            <g id="形状结合">
                                <use fill="#EBEBEB" xlink:href="#path-6"></use>
                                <use fill="black" fill-opacity="1" filter="url(#filter-7)" xlink:href="#path-6"></use>
                            </g>
                        </g>
                    </g>
                </g>
            </g>
        </g>
    </g>
</svg>