<?xml version="1.0" encoding="UTF-8"?>
<svg width="156px" height="156px" viewBox="0 0 156 156" version="1.1" xmlns="http://www.w3.org/2000/svg" xmlns:xlink="http://www.w3.org/1999/xlink">
    <title>notes</title>
    <defs>
        <filter x="-13.8%" y="-13.8%" width="127.6%" height="127.6%" filterUnits="objectBoundingBox" id="filter-1">
            <feOffset dx="0" dy="4" in="SourceAlpha" result="shadowOffsetOuter1"></feOffset>
            <feGaussianBlur stdDeviation="3.5" in="shadowOffsetOuter1" result="shadowBlurOuter1"></feGaussianBlur>
            <feColorMatrix values="0 0 0 0 0   0 0 0 0 0   0 0 0 0 0  0 0 0 0.1 0" type="matrix" in="shadowBlurOuter1" result="shadowMatrixOuter1"></feColorMatrix>
            <feMerge>
                <feMergeNode in="shadowMatrixOuter1"></feMergeNode>
                <feMergeNode in="SourceGraphic"></feMergeNode>
            </feMerge>
        </filter>
        <linearGradient x1="75.1257382%" y1="6.00304487%" x2="50%" y2="100%" id="linearGradient-2">
            <stop stop-color="#000000" stop-opacity="0.0351835664" offset="0%"></stop>
            <stop stop-color="#000000" stop-opacity="0.08" offset="100%"></stop>
        </linearGradient>
        <radialGradient cx="52.3239218%" cy="53.481434%" fx="52.3239218%" fy="53.481434%" r="63.9145597%" gradientTransform="translate(0.523239,0.534814),scale(0.866667,1.000000),rotate(122.266016),scale(1.000000,1.264710),translate(-0.523239,-0.534814)" id="radialGradient-3">
            <stop stop-color="#000000" offset="0%"></stop>
            <stop stop-color="#000000" stop-opacity="0.148218969" offset="100%"></stop>
        </radialGradient>
        <linearGradient x1="69.6592997%" y1="71.0965544%" x2="56.9476724%" y2="57.7013487%" id="linearGradient-4">
            <stop stop-color="#C6C6C6" offset="0%"></stop>
            <stop stop-color="#E7E7E7" offset="53.0517663%"></stop>
            <stop stop-color="#F4F4F4" offset="100%"></stop>
        </linearGradient>
        <path d="M125.368421,8.61904762 C125.368421,8.61904762 122.66397,19.6120268 120.313864,23.372687 C116.592984,29.3268711 112.370988,27.8939636 109.001284,32.8911641 C105.631579,37.8883645 106.898178,41.5228478 99.1328626,48.1207274 C94.9714057,51.656552 85.8947368,53.3558897 85.8947368,53.3558897 C110.066824,53.3558897 125.368421,25.8379041 125.368421,8.61904762 Z" id="path-5"></path>
        <filter x="-10.1%" y="-4.5%" width="120.3%" height="117.9%" filterUnits="objectBoundingBox" id="filter-6">
            <feOffset dx="0" dy="2" in="SourceAlpha" result="shadowOffsetOuter1"></feOffset>
            <feGaussianBlur stdDeviation="1" in="shadowOffsetOuter1" result="shadowBlurOuter1"></feGaussianBlur>
            <feColorMatrix values="0 0 0 0 0   0 0 0 0 0   0 0 0 0 0  0 0 0 0.05 0" type="matrix" in="shadowBlurOuter1"></feColorMatrix>
        </filter>
        <linearGradient x1="50%" y1="0%" x2="50%" y2="100%" id="linearGradient-7">
            <stop stop-color="#FD5E5E" offset="0%"></stop>
            <stop stop-color="#ED5656" offset="100%"></stop>
        </linearGradient>
        <circle id="path-8" cx="13.1578947" cy="13.1578947" r="13.1578947"></circle>
        <filter x="-47.5%" y="-32.3%" width="195.0%" height="195.0%" filterUnits="objectBoundingBox" id="filter-9">
            <feOffset dx="0" dy="4" in="SourceAlpha" result="shadowOffsetOuter1"></feOffset>
            <feGaussianBlur stdDeviation="3.5" in="shadowOffsetOuter1" result="shadowBlurOuter1"></feGaussianBlur>
            <feColorMatrix values="0 0 0 0 0.97254902   0 0 0 0 0.17254902   0 0 0 0 0.277440324  0 0 0 0.4 0" type="matrix" in="shadowBlurOuter1"></feColorMatrix>
        </filter>
    </defs>
    <g id="Q4新需求" stroke="none" stroke-width="1" fill="none" fill-rule="evenodd">
        <g id="3多个笔记拖拽" transform="translate(-1194.000000, -390.000000)">
            <g id="详情" transform="translate(1014.000000, 265.000000)">
                <g id="编组" transform="translate(94.000000, 125.000000)">
                    <g id="编组-3">
                        <g id="notes-icon" filter="url(#filter-1)" transform="translate(86.000000, 0.000000)">
                            <path d="M110.142857,10.5 L45.8571429,10.5 C40.7879578,10.5 36.1986721,12.5546932 32.8766827,15.8766827 C29.5546932,19.1986721 27.5,23.7879578 27.5,28.8571429 L27.5,127.56391 C27.5,132.633095 29.5546932,137.222381 32.8766827,140.54437 C36.1986721,143.866359 40.7879578,145.921053 45.8571429,145.921053 L110.142857,145.921053 C115.212042,145.921053 119.801328,143.866359 123.123317,140.54437 C126.445307,137.222381 128.5,132.633095 128.5,127.56391 L128.5,28.8571429 C128.5,23.7879578 126.445307,19.1986721 123.123317,15.8766827 C119.801328,12.5546932 115.212042,10.5 110.142857,10.5 Z" id="形状结合备份" stroke-opacity="0.1" stroke="#979797" fill="#FFFFFF" transform="translate(78.000000, 78.000000) rotate(-360.000000) translate(-78.000000, -78.000000) "></path>
                            <path d="M116.5,124 C117.328427,124 118,124.671573 118,125.5 C118,126.328427 117.328427,127 116.5,127 L40.5,127 C39.6715729,127 39,126.328427 39,125.5 C39,124.671573 39.6715729,124 40.5,124 L116.5,124 Z M116.5,114 C117.328427,114 118,114.671573 118,115.5 C118,116.328427 117.328427,117 116.5,117 L40.5,117 C39.6715729,117 39,116.328427 39,115.5 C39,114.671573 39.6715729,114 40.5,114 L116.5,114 Z M100.5,106 C101.328427,106 102,106.671573 102,107.5 C102,108.328427 101.328427,109 100.5,109 L74.5,109 C73.6715729,109 73,108.328427 73,107.5 C73,106.671573 73.6715729,106 74.5,106 L100.5,106 Z M65.3684211,98 C66.821802,98 68,99.178198 68,100.631579 L68,106.368421 C68,107.821802 66.821802,109 65.3684211,109 L41.6315789,109 C40.178198,109 39,107.821802 39,106.368421 L39,100.631579 C39,99.178198 40.178198,98 41.6315789,98 L65.3684211,98 Z M116.5,98 C117.328427,98 118,98.6715729 118,99.5 C118,100.328427 117.328427,101 116.5,101 L74.5,101 C73.6715729,101 73,100.328427 73,99.5 C73,98.6715729 73.6715729,98 74.5,98 L116.5,98 Z M50.5,90 C51.3284271,90 52,90.6715729 52,91.5 C52,92.3284271 51.3284271,93 50.5,93 L40.5,93 C39.6715729,93 39,92.3284271 39,91.5 C39,90.6715729 39.6715729,90 40.5,90 L50.5,90 Z M116.5,90 C117.328427,90 118,90.6715729 118,91.5 C118,92.3284271 117.328427,93 116.5,93 L58.5,93 C57.6715729,93 57,92.3284271 57,91.5 C57,90.6715729 57.6715729,90 58.5,90 L116.5,90 Z M74.5,82 C75.3284271,82 76,82.6715729 76,83.5 C76,84.3284271 75.3284271,85 74.5,85 L40.5,85 C39.6715729,85 39,84.3284271 39,83.5 C39,82.6715729 39.6715729,82 40.5,82 L74.5,82 Z M116.684211,74 C117.410901,74 118,74.589099 118,75.3157895 L118,83.6842105 C118,84.410901 117.410901,85 116.684211,85 L82.3157895,85 C81.589099,85 81,84.410901 81,83.6842105 L81,75.3157895 C81,74.589099 81.589099,74 82.3157895,74 L116.684211,74 Z M74.5,74 C75.3284271,74 76,74.6715729 76,75.5 C76,76.3284271 75.3284271,77 74.5,77 L40.5,77 C39.6715729,77 39,76.3284271 39,75.5 C39,74.6715729 39.6715729,74 40.5,74 L74.5,74 Z M116.5,66 C117.328427,66 118,66.6715729 118,67.5 C118,68.3284271 117.328427,69 116.5,69 L82.5,69 C81.6715729,69 81,68.3284271 81,67.5 C81,66.6715729 81.6715729,66 82.5,66 L116.5,66 Z M74.5,66 C75.3284271,66 76,66.6715729 76,67.5 C76,68.3284271 75.3284271,69 74.5,69 L40.5,69 C39.6715729,69 39,68.3284271 39,67.5 C39,66.6715729 39.6715729,66 40.5,66 L74.5,66 Z M114.428571,40 C116.401017,40 118,41.598983 118,43.5714286 L118,52.4285714 C118,54.401017 116.401017,56 114.428571,56 L42.5714286,56 C40.598983,56 39,54.401017 39,52.4285714 L39,43.5714286 C39,41.598983 40.598983,40 42.5714286,40 L114.428571,40 Z" id="形状结合" fill="url(#linearGradient-2)"></path>
                            <path d="M83,11 L110.142857,11 C120.005085,11 128,18.9949152 128,28.8571429 L128,46.2857143 L128,46.2857143 L128,50 C126.59375,38.702381 120.96875,29.4166667 111.125,22.1428571 C102.537274,15.7971573 93.162274,12.0828715 83,11 Z" id="路径" fill-opacity="0.19" fill="url(#radialGradient-3)"></path>
                            <g id="路径-11" transform="translate(105.631579, 30.987469) rotate(-90.000000) translate(-105.631579, -30.987469) ">
                                <use fill="black" fill-opacity="1" filter="url(#filter-6)" xlink:href="#path-5"></use>
                                <use fill="url(#linearGradient-4)" fill-rule="evenodd" xlink:href="#path-5"></use>
                            </g>
                            <g id="编组-4" transform="translate(35.894737, 34.934837)">
                                <g id="Oval">
                                    <use fill="black" fill-opacity="1" filter="url(#filter-9)" xlink:href="#path-8"></use>
                                    <use fill="url(#linearGradient-7)" fill-rule="evenodd" xlink:href="#path-8"></use>
                                </g>
                                <path d="M16.2324124,11.6988012 C17.441165,12.5046363 17.4371413,13.8138356 16.2324124,14.6169883 L12.7149561,16.9619591 C11.5062034,17.7677942 10.5263158,17.2340122 10.5263158,15.7919719 L10.5263158,10.5238176 C10.5263158,9.07181638 11.5102271,8.55067772 12.7149561,9.35383036 L16.2324124,11.6988012 Z" id="Triangle" fill="#FFFFFF"></path>
                            </g>
                        </g>
                    </g>
                </g>
            </g>
        </g>
    </g>
</svg>