<svg xmlns="http://www.w3.org/2000/svg" width="16" height="16" viewBox="0 0 16 16">
  <path d="M6.88187362,2 C7.56713061,2 8.19356908,2.38717815 8.5,3.00010329 C8.80643092,3.61302844 9.43286939,4.00020659 10.1181264,4.00020659 L13,4.00020659 C14.1045695,4.00020659 15,4.89563709 15,6.00020659 L15,11 C15,12.6568542 13.6568542,14 12,14 L4,14 C2.34314575,14 1,12.6568542 1,11 L1,5 C1,3.34314575 2.34314575,2 4,2 L6.88187362,2 Z M13.5001033,5.00020659 L2.4998967,5.00020659 C2.22381138,5.00020659 2,5.22401797 2,5.5001033 C2,5.77618862 2.22381138,6 2.4998967,6 L2.4998967,6 L13.5001033,6 C13.7761886,6 14,5.77618862 14,5.5001033 C14,5.22401797 13.7761886,5.00020659 13.5001033,5.00020659 L13.5001033,5.00020659 Z"/>
</svg>
