<svg xmlns="http://www.w3.org/2000/svg" width="16" height="16" viewBox="0 0 16 16">
  <path fill="#131415" d="M8.04970932,1 C11.9431494,1 15.0994186,4.15625424 15.0994186,8.04970932 L15.0994186,8.04970932 L15.0954955,8.28714156 C14.9702849,12.0706621 11.8637061,15.0994186 8.04970932,15.0994186 C4.15626926,15.0994186 1,11.9431644 1,8.04970932 L1,8.04970932 L1.00392311,7.81227708 C1.12913374,4.02875651 4.23571251,1 8.04970932,1 Z M11.9792041,3.8519229 C11.9003929,3.58726576 11.6219567,3.43660791 11.3572996,3.51541916 L11.3572996,3.51541916 L8.50021945,4.36621831 C8.20344637,4.45459324 8,4.72745205 8,5.03710409 L8,5.03710409 L8.0010775,9.26818814 C7.70666076,9.0976323 7.364732,9 7,9 C5.8954305,9 5,9.8954305 5,11 C5,12.1045695 5.8954305,13 7,13 C8.1045695,13 9,12.1045695 9,11 L9,11 L9,6.75 L11.5095317,5.96272232 C11.8013902,5.87116191 12,5.60070131 12,5.29481778 L12,5.29481778 L12,3.99462329 C12,3.9463015 11.9929952,3.8982349 11.9792041,3.8519229 Z"/>
</svg>
