<svg width="56.001999" height="56.001999" viewBox="0 0 56.002 56.002" fill="none" xmlns="http://www.w3.org/2000/svg" xmlns:xlink="http://www.w3.org/1999/xlink">
	<desc>
			Created with Pixso.
	</desc>
	<defs>
		<filter id="filter_3_22_dd" x="0.000000" y="0.000000" width="56.001999" height="56.001999" filterUnits="userSpaceOnUse" color-interpolation-filters="sRGB">
			<feFlood flood-opacity="0" result="BackgroundImageFix"/>
			<feBlend mode="normal" in="SourceGraphic" in2="BackgroundImageFix" result="shape"/>
			<feColorMatrix in="SourceAlpha" type="matrix" values="0 0 0 0 0 0 0 0 0 0 0 0 0 0 0 0 0 0 127 0" result="hardAlpha"/>
			<feOffset dx="2" dy="4"/>
			<feGaussianBlur stdDeviation="1.33333"/>
			<feComposite in2="hardAlpha" operator="arithmetic" k2="-1" k3="1"/>
			<feColorMatrix type="matrix" values="0 0 0 0 0 0 0 0 0 0 0 0 0 0 0 0 0 0 0.25 0"/>
			<feBlend mode="normal" in2="shape" result="effect_innerShadow_1"/>
		</filter>
		<filter id="filter_3_23_dd" x="3.900879" y="15.894531" width="51.112267" height="32.611816" filterUnits="userSpaceOnUse" color-interpolation-filters="sRGB">
			<feFlood flood-opacity="0" result="BackgroundImageFix"/>
			<feColorMatrix in="SourceAlpha" type="matrix" values="0 0 0 0 0 0 0 0 0 0 0 0 0 0 0 0 0 0 127 0" result="hardAlpha"/>
			<feOffset dx="1" dy="4"/>
			<feGaussianBlur stdDeviation="1.33333"/>
			<feComposite in2="hardAlpha" operator="out" k2="-1" k3="1"/>
			<feColorMatrix type="matrix" values="0 0 0 0 0 0 0 0 0 0 0 0 0 0 0 0 0 0 0.25 0"/>
			<feBlend mode="normal" in2="BackgroundImageFix" result="effect_dropShadow_1"/>
			<feBlend mode="normal" in="SourceGraphic" in2="effect_dropShadow_1" result="shape"/>
		</filter>
		<clipPath id="clip3_19">
			<rect id="画板 1" width="56.001999" height="56.001999" fill="white" fill-opacity="0"/>
		</clipPath>
		<linearGradient id="paint_linear_3_21_0" x1="52.500000" y1="53.499989" x2="-3.500002" y2="-7.999989" gradientUnits="userSpaceOnUse">
			<stop stop-color="#91E1FF"/>
			<stop offset="0.671756" stop-color="#FF69B7"/>
		</linearGradient>
		<linearGradient id="paint_linear_3_23_0" x1="12.000000" y1="17.000000" x2="45.499989" y2="40.000000" gradientUnits="userSpaceOnUse">
			<stop stop-color="#88C5FF"/>
			<stop offset="0.854962" stop-color="#FFFFFF"/>
		</linearGradient>
	</defs>
	<g clip-path="url(#clip3_19)">
		<rect id="画板 1" width="56.001999" height="56.001999" fill="#FFFFFF" fill-opacity="0"/>
		<g filter="url(#filter_3_22_dd)">
			<path id="矢量 2" d="M13.002 0C5.7988 0 0 5.79871 0 13.002L0 43C0 50.2032 5.79871 56.002 13.002 56.002L43 56.002C50.2032 56.002 56.002 50.2033 56.002 43L56.002 13.002C56.002 5.7988 50.2033 0 43 0L13.002 0Z" fill="url(#paint_linear_3_21_0)" fill-opacity="1.000000" fill-rule="nonzero"/>
		</g>
		<g filter="url(#filter_3_23_dd)">
			<path id="2.0" d="M20.8794 22.4521Q20.8794 23.6807 20.3813 24.8179Q19.8916 25.9551 19.0698 27.0674Q18.2563 28.1714 17.2354 29.2422Q16.2227 30.313 15.2017 31.334Q14.6206 31.9067 13.8569 32.6953Q13.0933 33.4756 12.4126 34.3223Q11.7319 35.1689 11.2671 35.9575Q10.8105 36.7378 10.8105 37.3105L21.6597 37.3105L21.6597 40L7.38232 40Q7.34912 39.7925 7.34912 39.5933Q7.34912 39.3857 7.34912 39.2197Q7.34912 37.6177 7.87207 36.248Q8.40332 34.8701 9.25 33.6499Q10.0967 32.4214 11.1509 31.334Q12.2051 30.2383 13.2261 29.2256Q14.0811 28.4038 14.8447 27.6069Q15.6084 26.8101 16.1978 26.0132Q16.7954 25.208 17.1523 24.3613Q17.5093 23.5063 17.5093 22.5601Q17.5093 21.5391 17.1855 20.8252Q16.8701 20.1113 16.3223 19.6382Q15.7744 19.1567 15.0439 18.9409Q14.3135 18.7168 13.5 18.7168Q12.5122 18.7168 11.6987 18.9907Q10.8853 19.2563 10.2378 19.6133Q9.59033 19.9702 9.14209 20.3687Q8.70215 20.7588 8.46973 20.958L6.90088 18.7168Q7.20801 18.3765 7.82227 17.8867Q8.43652 17.3887 9.2832 16.9487Q10.1299 16.5088 11.1841 16.2017Q12.2383 15.8945 13.4668 15.8945Q17.1689 15.8945 19.02 17.6128Q20.8794 19.3311 20.8794 22.4521ZM30.634 38.1655Q30.634 39.0786 30.0198 39.7593Q29.4138 40.4399 28.3596 40.4399Q27.3054 40.4399 26.6911 39.7593Q26.0769 39.0786 26.0769 38.1655Q26.0769 37.2441 26.6911 36.5635Q27.3054 35.8828 28.3596 35.8828Q29.4138 35.8828 30.0198 36.5635Q30.634 37.2441 30.634 38.1655ZM34.2417 28.2046Q34.2417 22.2861 36.3335 19.0903Q38.4253 15.8945 42.1274 15.8945Q45.8379 15.8945 47.9213 19.0903Q50.0131 22.2861 50.0131 28.2046Q50.0131 34.1147 47.9213 37.3105Q45.8379 40.5063 42.1274 40.5063Q38.4253 40.5063 36.3335 37.3105Q34.2417 34.1147 34.2417 28.2046ZM46.6845 28.2046Q46.6845 26.2622 46.4604 24.5273Q46.2446 22.7925 45.7133 21.5059Q45.1904 20.2109 44.3022 19.4473Q43.4223 18.6836 42.1274 18.6836Q40.8325 18.6836 39.9443 19.4473Q39.0644 20.2109 38.5332 21.5059Q38.0102 22.7925 37.7861 24.5273Q37.5703 26.2622 37.5703 28.2046Q37.5703 30.1387 37.7861 31.8735Q38.0102 33.6084 38.5332 34.9033Q39.0644 36.1899 39.9443 36.9619Q40.8325 37.7256 42.1274 37.7256Q43.4223 37.7256 44.3022 36.9619Q45.1904 36.1899 45.7133 34.9033Q46.2446 33.6084 46.4604 31.8735Q46.6845 30.1387 46.6845 28.2046Z" fill="url(#paint_linear_3_23_0)" fill-opacity="1.000000" fill-rule="evenodd"/>
		</g>
		<path id="2.0" d="M20.8794 22.4521Q20.8794 23.6807 20.3813 24.8179Q19.8916 25.9551 19.0698 27.0674Q18.2563 28.1714 17.2354 29.2422Q16.2227 30.313 15.2017 31.334Q14.6206 31.9067 13.8569 32.6953Q13.0933 33.4756 12.4126 34.3223Q11.7319 35.1689 11.2671 35.9575Q10.8105 36.7378 10.8105 37.3105L21.6597 37.3105L21.6597 40L7.38232 40Q7.34912 39.7925 7.34912 39.5933Q7.34912 39.3857 7.34912 39.2197Q7.34912 37.6177 7.87207 36.248Q8.40332 34.8701 9.25 33.6499Q10.0967 32.4214 11.1509 31.334Q12.2051 30.2383 13.2261 29.2256Q14.0811 28.4038 14.8447 27.6069Q15.6084 26.8101 16.1978 26.0132Q16.7954 25.208 17.1523 24.3613Q17.5093 23.5063 17.5093 22.5601Q17.5093 21.5391 17.1855 20.8252Q16.8701 20.1113 16.3223 19.6382Q15.7744 19.1567 15.0439 18.9409Q14.3135 18.7168 13.5 18.7168Q12.5122 18.7168 11.6987 18.9907Q10.8853 19.2563 10.2378 19.6133Q9.59033 19.9702 9.14209 20.3687Q8.70215 20.7588 8.46973 20.958L6.90088 18.7168Q7.20801 18.3765 7.82227 17.8867Q8.43652 17.3887 9.2832 16.9487Q10.1299 16.5088 11.1841 16.2017Q12.2383 15.8945 13.4668 15.8945Q17.1689 15.8945 19.02 17.6128Q20.8794 19.3311 20.8794 22.4521ZM30.634 38.1655Q30.634 39.0786 30.0198 39.7593Q29.4138 40.4399 28.3596 40.4399Q27.3054 40.4399 26.6911 39.7593Q26.0769 39.0786 26.0769 38.1655Q26.0769 37.2441 26.6911 36.5635Q27.3054 35.8828 28.3596 35.8828Q29.4138 35.8828 30.0198 36.5635Q30.634 37.2441 30.634 38.1655ZM34.2417 28.2046Q34.2417 22.2861 36.3335 19.0903Q38.4253 15.8945 42.1274 15.8945Q45.8379 15.8945 47.9213 19.0903Q50.0131 22.2861 50.0131 28.2046Q50.0131 34.1147 47.9213 37.3105Q45.8379 40.5063 42.1274 40.5063Q38.4253 40.5063 36.3335 37.3105Q34.2417 34.1147 34.2417 28.2046ZM46.6845 28.2046Q46.6845 26.2622 46.4604 24.5273Q46.2446 22.7925 45.7133 21.5059Q45.1904 20.2109 44.3022 19.4473Q43.4223 18.6836 42.1274 18.6836Q40.8325 18.6836 39.9443 19.4473Q39.0644 20.2109 38.5332 21.5059Q38.0102 22.7925 37.7861 24.5273Q37.5703 26.2622 37.5703 28.2046Q37.5703 30.1387 37.7861 31.8735Q38.0102 33.6084 38.5332 34.9033Q39.0644 36.1899 39.9443 36.9619Q40.8325 37.7256 42.1274 37.7256Q43.4223 37.7256 44.3022 36.9619Q45.1904 36.1899 45.7133 34.9033Q46.2446 33.6084 46.4604 31.8735Q46.6845 30.1387 46.6845 28.2046Z" stroke="#3A2626" stroke-opacity="0" stroke-width="1.000000"/>
	</g>
</svg>
