<?xml version="1.0" encoding="UTF-8"?>
<svg width="16px" height="16px" viewBox="0 0 16 16" version="1.1" xmlns="http://www.w3.org/2000/svg" xmlns:xlink="http://www.w3.org/1999/xlink">
    <title>编组</title>
    <g id="桌面版" stroke="none" stroke-width="1" fill="none" fill-rule="evenodd">
        <g id="键盘和语言6" transform="translate(-1773.000000, -522.000000)">
            <g id="控制中心备份" transform="translate(998.000000, 223.000000)">
                <g id="分组-4" transform="translate(451.000000, 60.000000)">
                    <g id="编组-3" transform="translate(10.000000, 159.000000)">
                        <g id="Group-15" transform="translate(0.000000, 33.000000)">
                            <g id="option_listview_bottom" transform="translate(0.000000, 37.000000)">
                                <g id="编组" transform="translate(314.000000, 10.000000)">
                                    <rect id="矩形" x="0" y="0" width="16" height="16"></rect>
                                    <path d="M14.9954606,6.30308693 C14.8177992,5.57005734 14.5274744,4.88102953 14.1438191,4.25467091 C14.0994871,4.18233466 14.0084898,4.15900038 13.9301587,4.19133502 C13.3391762,4.43301144 12.6381969,4.32000688 12.1582111,3.84032085 C11.6785586,3.36063482 11.5655619,2.65993987 11.8068881,2.06891602 C11.8388872,1.99057952 11.8155545,1.89957585 11.7435567,1.85524072 C11.1169085,1.47189192 10.4275956,1.18188021 9.69461721,1.00453972 C9.61195298,0.984538912 9.53062205,1.03254085 9.49795635,1.11087734 C9.25163029,1.70090116 8.67531399,2.11791799 7.9956674,2.11791799 C7.31735411,2.11791799 6.74170445,1.70223455 6.49471174,1.11321077 C6.46171272,1.03487428 6.38038179,0.986872339 6.29771756,1.00687315 C5.56440589,1.18588037 4.8747596,1.47689212 4.24844477,1.86124097 C4.17678022,1.90524274 4.15411423,1.99491303 4.18577996,2.07258283 C4.42710616,2.66327334 4.31377618,3.36396829 3.83412368,3.84365432 C3.35547115,4.32267365 2.65615848,4.43634491 2.06584259,4.19666857 C1.98817822,4.16500062 1.8985142,4.18800155 1.8545155,4.25967111 C1.47152681,4.88669642 1.18153538,5.57639093 1.00454061,6.30942051 C0.984541201,6.39175717 1.03253978,6.47309379 1.11053748,6.50609512 C1.69785346,6.75343844 2.11217455,7.32846165 2.11217455,8.00648902 C2.11217455,8.683183 1.69885343,9.25753951 1.11320407,9.50588287 C1.03520637,9.5388842 0.987541112,9.62022082 1.00754052,9.70255748 C1.18586859,10.4359204 1.47719331,11.1252816 1.86151529,11.7516402 C1.90518067,11.8229764 1.99484469,11.8459773 2.07250906,11.8146427 C2.6621583,11.5759664 3.36013768,11.6903044 3.83845689,12.1683237 C4.31610944,12.6456763 4.4304394,13.3430378 4.19244643,13.9327282 C4.16111402,14.010398 4.18411334,14.099735 4.25544457,14.1434034 C4.88242604,14.5274189 5.57207233,14.817764 6.305384,14.9954378 C6.3877149,15.0154386 6.46904583,14.96777 6.50204486,14.8897669 C6.75003753,14.3037432 7.32468722,13.8903932 8.00100057,13.8903932 C8.67764725,13.8903932 9.25196362,14.3037432 9.49995629,14.8897669 C9.53295531,14.96777 9.61428625,15.0154386 9.69661715,14.9954378 C10.4299288,14.817764 11.1192418,14.5274189 11.7462233,14.1437367 C11.8178878,14.1000683 11.8405538,14.010398 11.8092214,13.9327282 C11.5695618,13.3427044 11.6832251,12.6433428 12.1618776,12.1646569 C12.6408635,11.6859709 13.3405095,11.572633 13.9304921,11.8126427 C14.0081564,11.8443106 14.0978205,11.8213097 14.1414858,11.7499735 C14.5258078,11.1232815 14.8167992,10.433587 14.994794,9.70022405 C15.0147934,9.61755405 14.9667948,9.53621743 14.8884638,9.50354944 C14.2998145,9.25653947 13.8841601,8.68051622 13.8841601,8.00215551 C13.8841601,7.3231281 14.3001478,6.7474382 14.8891304,6.50076157 C14.9674614,6.46709355 15.01546,6.38575693 14.9954606,6.30308693 L14.9954606,6.30308693 L14.9954606,6.30308693 Z M8,10.1 C9.15979797,10.1 10.1,9.15979797 10.1,8 C10.1,6.84020203 9.15979797,5.9 8,5.9 C6.84020203,5.9 5.9,6.84020203 5.9,8 C5.9,9.15979797 6.84020203,10.1 8,10.1 Z" id="path13637" fill="#536076"></path>
                                </g>
                            </g>
                        </g>
                    </g>
                </g>
            </g>
        </g>
    </g>
</svg>