<?xml version="1.0" encoding="UTF-8"?>
<svg width="16px" height="16px" viewBox="0 0 16 16" version="1.1" xmlns="http://www.w3.org/2000/svg" xmlns:xlink="http://www.w3.org/1999/xlink">
    <title>ICON / Action / off</title>
    <g id="ICON-/-Action-/-off" stroke="none" stroke-width="1" fill="none" fill-rule="evenodd">
        <path d="M7.99999741,0.5 C8.55228475,0.5 8.99999741,0.94771525 8.99999741,1.5 L8.99999741,14.5 C8.99999741,15.0522847 8.55228475,15.5 7.99999741,15.5 C7.44771525,15.5 6.99999741,15.0522847 6.99999741,14.5 L6.99999741,1.5 C6.99999741,0.94771525 7.44771525,0.5 7.99999741,0.5 Z M15.5,8 C15.5,8.55228475 15.0522847,9 14.5,9 L1.5,9 C0.94771525,9 0.5,8.55228475 0.5,8 C0.5,7.44771525 0.94771525,7 1.5,7 L14.5,7 C15.0522847,7 15.5,7.44771525 15.5,8 Z" id="形状" fill="#FFFFFF" fill-rule="nonzero" transform="translate(8, 8) rotate(-225) translate(-8, -8)"></path>
    </g>
</svg>