<?xml version="1.0" encoding="UTF-8"?>
<svg width="492px" height="82px" viewBox="0 0 492 82" version="1.1" xmlns="http://www.w3.org/2000/svg" xmlns:xlink="http://www.w3.org/1999/xlink">
    <title>DTK / Notify / Built-In-Notification / Interactive-Light</title>
    <defs>
        <path d="M14,0 L436,0 C443.731986,-1.42034288e-15 450,6.2680135 450,14 L450,26 C450,33.7319865 443.731986,40 436,40 L14,40 C6.2680135,40 9.46895252e-16,33.7319865 0,26 L0,14 C-9.46895252e-16,6.2680135 6.2680135,1.42034288e-15 14,0 Z" id="path-1"></path>
        <filter x="-7.6%" y="-70.0%" width="115.1%" height="270.0%" filterUnits="objectBoundingBox" id="filter-2">
            <feMorphology radius="1" operator="dilate" in="SourceAlpha" result="shadowSpreadOuter1"></feMorphology>
            <feOffset dx="0" dy="6" in="shadowSpreadOuter1" result="shadowOffsetOuter1"></feOffset>
            <feGaussianBlur stdDeviation="10" in="shadowOffsetOuter1" result="shadowBlurOuter1"></feGaussianBlur>
            <feComposite in="shadowBlurOuter1" in2="SourceAlpha" operator="out" result="shadowBlurOuter1"></feComposite>
            <feColorMatrix values="0 0 0 0 0   0 0 0 0 0   0 0 0 0 0  0 0 0 0.2 0" type="matrix" in="shadowBlurOuter1"></feColorMatrix>
        </filter>
        <linearGradient x1="50%" y1="0%" x2="50%" y2="100%" id="linearGradient-3">
            <stop stop-color="#FF674A" offset="0%"></stop>
            <stop stop-color="#EC5783" offset="100%"></stop>
        </linearGradient>
        <path d="M9.99071429,0 C15.5186566,0 20,4.4782507 20,10 C20,15.5217493 15.5186566,20 9.99071429,20 C4.47205964,20 0,15.521755 0,10 C0,4.47824507 4.47205964,0 9.99071429,0 Z" id="path-4"></path>
        <filter x="-27.5%" y="-17.5%" width="155.0%" height="155.0%" filterUnits="objectBoundingBox" id="filter-5">
            <feOffset dx="0" dy="2" in="SourceAlpha" result="shadowOffsetOuter1"></feOffset>
            <feGaussianBlur stdDeviation="1.5" in="shadowOffsetOuter1" result="shadowBlurOuter1"></feGaussianBlur>
            <feColorMatrix values="0 0 0 0 1   0 0 0 0 0.443137255   0 0 0 0 0.443137255  0 0 0 0.3 0" type="matrix" in="shadowBlurOuter1"></feColorMatrix>
        </filter>
    </defs>
    <g id="概览" stroke="none" stroke-width="1" fill="none" fill-rule="evenodd">
        <g id="V23控件-浅色" transform="translate(-488.000000, -7130.000000)">
            <g id="编组-59" transform="translate(200.000000, 6149.000000)">
                <g id="编组" transform="translate(309.000000, 996.000000)">
                    <g id="Rectangle-8">
                        <use fill="black" fill-opacity="1" filter="url(#filter-2)" xlink:href="#path-1"></use>
                        <path stroke-opacity="0.05" stroke="#000000" stroke-width="1" d="M436,-0.5 C440.004064,-0.5 443.629064,1.12296778 446.253048,3.74695167 C448.877032,6.37093556 450.5,9.99593556 450.5,14 L450.5,14 L450.5,26 C450.5,30.0040644 448.877032,33.6290644 446.253048,36.2530483 C443.629064,38.8770322 440.004064,40.5 436,40.5 L436,40.5 L14,40.5 C9.99593556,40.5 6.37093556,38.8770322 3.74695167,36.2530483 C1.12296778,33.6290644 -0.5,30.0040644 -0.5,26 L-0.5,26 L-0.5,14 C-0.5,9.99593556 1.12296778,6.37093556 3.74695167,3.74695167 C6.37093556,1.12296778 9.99593556,-0.5 14,-0.5 L14,-0.5 Z" fill-opacity="0.6" fill="#F7F7F7" fill-rule="evenodd"></path>
                    </g>
                    <g transform="translate(12.000000, 10.000000)" id="warning">
                        <g id="Shape">
                            <use fill="black" fill-opacity="1" filter="url(#filter-5)" xlink:href="#path-4"></use>
                            <use fill="url(#linearGradient-3)" fill-rule="evenodd" xlink:href="#path-4"></use>
                        </g>
                        <rect id="矩形" fill="#FFFFFF" x="9" y="4" width="2" height="7" rx="1"></rect>
                        <circle id="椭圆形" fill="#FFFFFF" cx="10" cy="14.5" r="1.5"></circle>
                    </g>
                    <g transform="translate(338.000000, 6.000000)" fill="#000000" id="Button/Transparent/Light">
                        <rect id="矩形" fill-opacity="0.1" x="0" y="0" width="72" height="28" rx="8"></rect>
                        <text id="复制" font-family="SourceHanSansSC-Medium, Source Han Sans SC" font-size="14" font-weight="400">
                            <tspan x="8" y="19.2222222">重新载入</tspan>
                        </text>
                    </g>
                    <text id="磁盘中的原文件已被修改，是否重新载入？" font-family="SourceHanSansSC-Medium, Source Han Sans SC" font-size="14" font-weight="400" fill="#000000" fill-opacity="0.7">
                        <tspan x="45" y="26">磁盘中的原文件已被修改，是否重新载入？</tspan>
                    </text>
                    <g transform="translate(418.000000, 9.000000)" fill="#000000" fill-opacity="0.7" fill-rule="nonzero" id="形状结合">
                        <g>
                            <path d="M11.0000013,1.27118983e-06 C17.0751335,1.27118983e-06 22.0000013,4.92486902 22.0000013,11.0000013 C22.0000013,17.0751335 17.0751335,22.0000013 11.0000013,22.0000013 C4.92486902,22.0000013 1.27118983e-06,17.0751335 1.27118983e-06,11.0000013 C1.27118983e-06,4.92486902 4.92486902,1.27118983e-06 11.0000013,1.27118983e-06 Z M14.9949747,7.00502525 C14.7216077,6.73165825 14.2783923,6.73165825 14.0050253,7.00502525 L14.0050253,7.00502525 L11,10.011 L7.99497475,7.00502525 L7.90820889,6.93121616 C7.63466313,6.73439192 7.25105556,6.75899495 7.00502525,7.00502525 C6.75899495,7.25105556 6.73439192,7.63466313 6.93121616,7.90820889 L6.93121616,7.90820889 L7.00502525,7.99497475 L10.011,11 L7.00502525,14.0050253 L6.93121616,14.0917911 C6.73439192,14.3653369 6.75899495,14.7489444 7.00502525,14.9949747 C7.27839226,15.2683418 7.72160774,15.2683418 7.99497475,14.9949747 L7.99497475,14.9949747 L11,11.989 L14.0050253,14.9949747 L14.0917911,15.0687838 C14.3653369,15.2656081 14.7489444,15.2410051 14.9949747,14.9949747 C15.2410051,14.7489444 15.2656081,14.3653369 15.0687838,14.0917911 L15.0687838,14.0917911 L14.9949747,14.0050253 L11.989,11 L14.9949747,7.99497475 L15.0687838,7.90820889 C15.2656081,7.63466313 15.2410051,7.25105556 14.9949747,7.00502525 Z"></path>
                        </g>
                    </g>
                </g>
            </g>
        </g>
    </g>
</svg>