<?xml version="1.0" encoding="UTF-8"?>
<svg width="228px" height="366px" viewBox="0 0 228 366" version="1.1" xmlns="http://www.w3.org/2000/svg" xmlns:xlink="http://www.w3.org/1999/xlink">
    <title>勿扰模式</title>
    <defs>
        <rect id="path-1" x="0" y="0" width="202" height="340" rx="18"></rect>
        <filter x="-10.9%" y="-4.7%" width="121.8%" height="112.9%" filterUnits="objectBoundingBox" id="filter-3">
            <feMorphology radius="1" operator="dilate" in="SourceAlpha" result="shadowSpreadOuter1"></feMorphology>
            <feOffset dx="0" dy="6" in="shadowSpreadOuter1" result="shadowOffsetOuter1"></feOffset>
            <feGaussianBlur stdDeviation="6" in="shadowOffsetOuter1" result="shadowBlurOuter1"></feGaussianBlur>
            <feComposite in="shadowBlurOuter1" in2="SourceAlpha" operator="out" result="shadowBlurOuter1"></feComposite>
            <feColorMatrix values="0 0 0 0 0   0 0 0 0 0   0 0 0 0 0  0 0 0 0.2 0" type="matrix" in="shadowBlurOuter1"></feColorMatrix>
        </filter>
        <rect id="path-4" x="0" y="0" width="182" height="36" rx="8"></rect>
        <filter x="-6.0%" y="-19.4%" width="112.1%" height="161.1%" filterUnits="objectBoundingBox" id="filter-5">
            <feOffset dx="0" dy="4" in="SourceAlpha" result="shadowOffsetOuter1"></feOffset>
            <feGaussianBlur stdDeviation="3" in="shadowOffsetOuter1" result="shadowBlurOuter1"></feGaussianBlur>
            <feColorMatrix values="0 0 0 0 0   0 0 0 0 0.505882353   0 0 0 0 1  0 0 0 0.4 0" type="matrix" in="shadowBlurOuter1"></feColorMatrix>
        </filter>
        <filter x="-4.4%" y="-11.1%" width="108.8%" height="144.4%" filterUnits="objectBoundingBox" id="filter-6">
            <feMorphology radius="1" operator="erode" in="SourceAlpha" result="shadowSpreadInner1"></feMorphology>
            <feGaussianBlur stdDeviation="1" in="shadowSpreadInner1" result="shadowBlurInner1"></feGaussianBlur>
            <feOffset dx="0" dy="-1" in="shadowBlurInner1" result="shadowOffsetInner1"></feOffset>
            <feComposite in="shadowOffsetInner1" in2="SourceAlpha" operator="arithmetic" k2="-1" k3="1" result="shadowInnerInner1"></feComposite>
            <feColorMatrix values="0 0 0 0 0.0356979208   0 0 0 0 0.355505317   0 0 0 0 0.977270154  0 0 0 1 0" type="matrix" in="shadowInnerInner1"></feColorMatrix>
        </filter>
        <rect id="path-7" x="20" y="0" width="30" height="24" rx="8"></rect>
        <filter x="-36.7%" y="-29.2%" width="173.3%" height="191.7%" filterUnits="objectBoundingBox" id="filter-8">
            <feOffset dx="0" dy="4" in="SourceAlpha" result="shadowOffsetOuter1"></feOffset>
            <feGaussianBlur stdDeviation="3" in="shadowOffsetOuter1" result="shadowBlurOuter1"></feGaussianBlur>
            <feColorMatrix values="0 0 0 0 0   0 0 0 0 0.505882353   0 0 0 0 1  0 0 0 0.4 0" type="matrix" in="shadowBlurOuter1"></feColorMatrix>
        </filter>
        <filter x="-26.7%" y="-16.7%" width="153.3%" height="166.7%" filterUnits="objectBoundingBox" id="filter-9">
            <feMorphology radius="1" operator="erode" in="SourceAlpha" result="shadowSpreadInner1"></feMorphology>
            <feGaussianBlur stdDeviation="1" in="shadowSpreadInner1" result="shadowBlurInner1"></feGaussianBlur>
            <feOffset dx="0" dy="-1" in="shadowBlurInner1" result="shadowOffsetInner1"></feOffset>
            <feComposite in="shadowOffsetInner1" in2="SourceAlpha" operator="arithmetic" k2="-1" k3="1" result="shadowInnerInner1"></feComposite>
            <feColorMatrix values="0 0 0 0 0.0356979208   0 0 0 0 0.355505317   0 0 0 0 0.977270154  0 0 0 1 0" type="matrix" in="shadowInnerInner1"></feColorMatrix>
        </filter>
    </defs>
    <g id="概览" stroke="none" stroke-width="1" fill="none" fill-rule="evenodd">
        <g id="V23控件-浅色" transform="translate(-414.000000, -7615.000000)">
            <g id="编组-57" transform="translate(200.000000, 7503.000000)">
                <g id="编组-49" transform="translate(0.000000, 119.000000)">
                    <g id="分组-2" transform="translate(227.000000, 0.000000)">
                        <mask id="mask-2" fill="white">
                            <use xlink:href="#path-1" transform="translate(101.000000, 170.000000) scale(-1, 1) translate(-101.000000, -170.000000) "></use>
                        </mask>
                        <g id="蒙版" transform="translate(101.000000, 170.000000) scale(-1, 1) translate(-101.000000, -170.000000) ">
                            <use fill="black" fill-opacity="1" filter="url(#filter-3)" xlink:href="#path-1"></use>
                            <use fill-opacity="0.8" fill="#EEEEEE" fill-rule="evenodd" xlink:href="#path-1"></use>
                            <rect stroke-opacity="0.06" stroke="#000000" stroke-width="1" x="-0.5" y="-0.5" width="203" height="341" rx="18"></rect>
                            <rect stroke-opacity="0.1" stroke="#FFFFFF" stroke-width="1" stroke-linejoin="square" x="0.5" y="0.5" width="201" height="339" rx="18"></rect>
                        </g>
                        <g id="编组" mask="url(#mask-2)">
                            <g transform="translate(10.000000, 90.000000)" id="Popup/MenuItem/Normal">
                                <rect id="矩形" fill-opacity="0.05" fill="#000000" x="0" y="0" width="182" height="36" rx="8"></rect>
                                <text id="1个小时" font-family="SourceHanSansSC-Medium, Source Han Sans SC" font-size="14" font-weight="400" fill="#000000">
                                    <tspan x="34" y="24">WH-1000MX3</tspan>
                                </text>
                                <g id="编组" transform="translate(10.000000, 10.000000)" fill="#000000" fill-opacity="0.7" fill-rule="nonzero">
                                    <g id="形状结合">
                                        <path d="M8,1.5 C11.7854517,1.5 14.8690987,4.50478338 14.995941,8.25935025 L15,8.5 L15,11 C15,11.2761424 14.7761424,11.5 14.5,11.5 C14.2545401,11.5 14.0503916,11.3231248 14.0080557,11.0898756 L14,11 L14,8.5 C14,5.1862915 11.3137085,2.5 8,2.5 C4.76160306,2.5 2.12242824,5.06557489 2.00413847,8.27506174 L2,8.5 L2,11 C2,11.2761424 1.77614237,11.5 1.5,11.5 C1.25454011,11.5 1.05039163,11.3231248 1.00805567,11.0898756 L1,11 L1,8.5 C1,4.63400675 4.13400675,1.5 8,1.5 Z M4.5,8.5 C5.32842712,8.5 6,9.17157288 6,10 L6,13 C6,13.8284271 5.32842712,14.5 4.5,14.5 C3.67157288,14.5 3,13.8284271 3,13 L3,10 C3,9.17157288 3.67157288,8.5 4.5,8.5 Z M11.5,8.5 C12.3284271,8.5 13,9.17157288 13,10 L13,13 C13,13.8284271 12.3284271,14.5 11.5,14.5 C10.6715729,14.5 10,13.8284271 10,13 L10,10 C10,9.17157288 10.6715729,8.5 11.5,8.5 Z"></path>
                                    </g>
                                </g>
                            </g>
                        </g>
                        <text id="我的设备" opacity="0.600000024" mask="url(#mask-2)" font-family="SourceHanSansSC-Normal, Source Han Sans SC" font-size="11" font-weight="normal" fill="#000000">
                            <tspan x="20" y="81">我的设备</tspan>
                        </text>
                        <text id="其他设备" opacity="0.600000024" mask="url(#mask-2)" font-family="SourceHanSansSC-Normal, Source Han Sans SC" font-size="11" font-weight="normal" fill="#000000">
                            <tspan x="20" y="239">其他设备</tspan>
                        </text>
                        <g id="编组" mask="url(#mask-2)">
                            <g transform="translate(10.000000, 136.000000)" id="Popup/MenuItem/Active">
                                <g id="矩形">
                                    <use fill="black" fill-opacity="1" filter="url(#filter-5)" xlink:href="#path-4"></use>
                                    <use fill="#0081FF" fill-rule="evenodd" xlink:href="#path-4"></use>
                                    <use fill="black" fill-opacity="1" filter="url(#filter-6)" xlink:href="#path-4"></use>
                                </g>
                                <g id="编组" transform="translate(158.000000, 11.000000)" fill="#FFFFFF" fill-rule="nonzero">
                                    <g id="menuitem_select" transform="translate(0.999997, 1.999956)">
                                        <path d="M11.9161746,0.383335474 C12.2567731,-0.0514186317 12.8853206,-0.127746861 13.3200747,0.212851602 C13.7213861,0.527250183 13.8172933,1.08700174 13.5617837,1.5132029 L13.4905585,1.61675162 L5.65628029,11.6167516 C5.30422001,12.0661361 4.65596945,12.124889 4.22971115,11.7691292 L4.14195676,11.6865417 L0.272871003,7.58844671 C-0.106271436,7.18686302 -0.0880792126,6.55395945 0.313504472,6.17481701 C0.684197104,5.82483938 1.25199071,5.81341909 1.63535592,6.12958944 L1.72713417,6.21545048 L4.79800259,9.46804354 L11.9161746,0.383335474 Z" id="Path-1112"></path>
                                    </g>
                                </g>
                                <text id="选项" font-family="SourceHanSansSC-Medium, Source Han Sans SC" font-size="14" font-weight="400" fill="#FFFFFF">
                                    <tspan x="34" y="24">我的音箱</tspan>
                                </text>
                                <g id="编组" transform="translate(10.000000, 10.000000)" fill="#FFFFFF" fill-rule="nonzero">
                                    <g id="ICON">
                                        <path d="M11,2 C12.1045695,2 13,2.8954305 13,4 L13,13 C13,14.1045695 12.1045695,15 11,15 L5,15 C3.8954305,15 3,14.1045695 3,13 L3,4 C3,2.8954305 3.8954305,2 5,2 L11,2 Z M7,8 C5.34314575,8 4,9.34314575 4,11 C4,12.6568542 5.34314575,14 7,14 C8.65685425,14 10,12.6568542 10,11 C10,9.34314575 8.65685425,8 7,8 Z M7,9.5 C7.82842712,9.5 8.5,10.1715729 8.5,11 C8.5,11.8284271 7.82842712,12.5 7,12.5 C6.17157288,12.5 5.5,11.8284271 5.5,11 C5.5,10.1715729 6.17157288,9.5 7,9.5 Z M9,3 C7.8954305,3 7,3.8954305 7,5 C7,6.1045695 7.8954305,7 9,7 C10.1045695,7 11,6.1045695 11,5 C11,3.8954305 10.1045695,3 9,3 Z M9,4 C9.55228475,4 10,4.44771525 10,5 C10,5.55228475 9.55228475,6 9,6 C8.44771525,6 8,5.55228475 8,5 C8,4.44771525 8.44771525,4 9,4 Z" id="形状结合"></path>
                                    </g>
                                </g>
                            </g>
                        </g>
                        <g id="编组" mask="url(#mask-2)">
                            <g transform="translate(10.000000, 294.000000)" id="Popup/MenuItem/Normal">
                                <rect id="矩形" fill-opacity="0.05" fill="#000000" x="0" y="0" width="182" height="36" rx="8"></rect>
                                <text id="1个小时" font-family="SourceHanSansSC-Medium, Source Han Sans SC" font-size="14" font-weight="400" fill="#000000">
                                    <tspan x="34" y="24">打印机</tspan>
                                </text>
                                <g id="编组" transform="translate(10.000000, 10.000000)" fill="#000000" fill-opacity="0.7" fill-rule="nonzero">
                                    <g id="形状结合">
                                        <path d="M10.5,10 C10.7761424,10 11,10.2238576 11,10.5 L11,13.5 C11,13.7761424 10.7761424,14 10.5,14 L5.5,14 C5.22385763,14 5,13.7761424 5,13.5 L5,10.5 C5,10.2238576 5.22385763,10 5.5,10 L10.5,10 Z M13,5 C14.1045695,5 15,5.8954305 15,7 L15,11 C15,12.1045695 14.1045695,13 13,13 L12,13 L12,10.5 C12,9.72030388 11.4051119,9.07955132 10.64446,9.00686658 L10.5,9 L5.5,9 C4.72030388,9 4.07955132,9.59488808 4.00686658,10.35554 L4,10.5 L4,13 L3,13 C1.8954305,13 1,12.1045695 1,11 L1,7 C1,5.8954305 1.8954305,5 3,5 L13,5 Z M8.5,12 L6.5,12 C6.22385763,12 6,12.2238576 6,12.5 C6,12.7454599 6.17687516,12.9496084 6.41012437,12.9919443 L6.5,13 L8.5,13 C8.77614237,13 9,12.7761424 9,12.5 C9,12.2238576 8.77614237,12 8.5,12 Z M5.5,2 L10.5,2 C10.7761424,2 11,2.22385763 11,2.5 L11,4 L11,4 L5,4 L5,2.5 C5,2.22385763 5.22385763,2 5.5,2 Z"></path>
                                    </g>
                                </g>
                            </g>
                        </g>
                        <g id="编组" mask="url(#mask-2)">
                            <g transform="translate(10.000000, 248.000000)" id="Popup/MenuItem/Normal">
                                <rect id="矩形" fill-opacity="0.05" fill="#000000" x="0" y="0" width="182" height="36" rx="8"></rect>
                                <text id="1个小时" font-family="SourceHanSansSC-Medium, Source Han Sans SC" font-size="14" font-weight="400" fill="#000000">
                                    <tspan x="34" y="24">SHULE's PC</tspan>
                                </text>
                                <g id="编组" transform="translate(10.000000, 10.000000)" fill="#000000" fill-opacity="0.7" fill-rule="nonzero">
                                    <g id="形状结合">
                                        <path d="M13,2 C14.1045695,2 15,2.8954305 15,4 L15,12 L15.5,12 C15.7761424,12 16,12.2238576 16,12.5 C16,12.7761424 15.7761424,13 15.5,13 L0.5,13 C0.223857625,13 3.38176876e-17,12.7761424 0,12.5 C-3.38176876e-17,12.2238576 0.223857625,12 0.5,12 L1,12 L1,4 C1,2.8954305 1.8954305,2 3,2 L13,2 Z M13,3 L3,3 C2.44771525,3 2,3.44771525 2,4 L2,4 L2,10 C2,10.5522847 2.44771525,11 3,11 L3,11 L13,11 C13.5522847,11 14,10.5522847 14,10 L14,10 L14,4 C14,3.44771525 13.5522847,3 13,3 L13,3 Z"></path>
                                    </g>
                                </g>
                            </g>
                        </g>
                        <g id="编组" mask="url(#mask-2)">
                            <g transform="translate(10.000000, 182.000000)" id="Popup/MenuItem/Normal">
                                <rect id="矩形" fill-opacity="0.05" fill="#000000" x="0" y="0" width="182" height="36" rx="8"></rect>
                                <text id="1个小时" font-family="SourceHanSansSC-Medium, Source Han Sans SC" font-size="14" font-weight="400" fill="#000000">
                                    <tspan x="34" y="24">蓝牙鼠标</tspan>
                                </text>
                                <g id="编组" transform="translate(10.000000, 10.000000)" fill="#000000" fill-opacity="0.7" fill-rule="nonzero">
                                    <g id="形状结合">
                                        <path d="M13,8.53172798 L13,9.53172798 C13,12.2931517 10.7614237,14.531728 8,14.531728 C5.23857625,14.531728 3,12.2931517 3,9.53172798 L3,8.53172798 L13,8.53172798 Z M8,1.53172798 C10.7614237,1.53172798 13,3.77030423 13,6.53172798 L13,7.53172798 L3,7.53172798 L3,6.53172798 C3,3.77030423 5.23857625,1.53172798 8,1.53172798 Z M8,3.53172798 C7.72385763,3.53172798 7.5,3.7555856 7.5,4.03172798 L7.5,4.03172798 L7.5,6.03172798 C7.5,6.30787035 7.72385763,6.53172798 8,6.53172798 C8.27614237,6.53172798 8.5,6.30787035 8.5,6.03172798 L8.5,6.03172798 L8.5,4.03172798 C8.5,3.7555856 8.27614237,3.53172798 8,3.53172798 Z" transform="translate(8.000000, 8.031728) rotate(45.000000) translate(-8.000000, -8.031728) "></path>
                                    </g>
                                </g>
                            </g>
                        </g>
                        <text id="蓝牙" mask="url(#mask-2)" font-family="SourceHanSansSC-Medium, Source Han Sans SC" font-size="14" font-weight="400" fill="#000000">
                            <tspan x="87" y="28">蓝牙</tspan>
                        </text>
                        <g id="编组" mask="url(#mask-2)">
                            <g transform="translate(76.000000, 38.000000)" id="swith_on">
                                <rect id="矩形" fill-opacity="0.2" fill="#323232" x="0" y="0" width="50" height="24" rx="8"></rect>
                                <g id="矩形">
                                    <use fill="black" fill-opacity="1" filter="url(#filter-8)" xlink:href="#path-7"></use>
                                    <use fill="#0081FF" fill-rule="evenodd" xlink:href="#path-7"></use>
                                    <use fill="black" fill-opacity="1" filter="url(#filter-9)" xlink:href="#path-7"></use>
                                </g>
                            </g>
                        </g>
                    </g>
                </g>
            </g>
        </g>
    </g>
</svg>