<?xml version="1.0" encoding="UTF-8"?>
<svg width="40px" height="40px" viewBox="0 0 40 40" version="1.1" xmlns="http://www.w3.org/2000/svg" xmlns:xlink="http://www.w3.org/1999/xlink">
    <title>曝光-press</title>
    <g id="曝光-press" stroke="none" stroke-width="1" fill="none" fill-rule="evenodd">
        <g id="编组" transform="translate(8.020603, 8.032813)" fill="#0081FF" fill-rule="nonzero">
            <path d="M11.9793964,19.4666363 C12.2248563,19.4666363 12.4290048,19.6435115 12.4713407,19.8767607 L12.4793964,19.9666363 L12.4793964,23.4520462 C12.4793964,23.7281885 12.2555388,23.9520462 11.9793964,23.9520462 C11.7339365,23.9520462 11.529788,23.775171 11.4874521,23.5419218 L11.4793964,23.4520462 L11.4793964,19.9666363 C11.4793964,19.6904939 11.703254,19.4666363 11.9793964,19.4666363 Z M17.9548377,17.2243415 L18.0240856,17.282197 L20.4886425,19.7467539 C20.6839046,19.942016 20.6839046,20.2585985 20.4886425,20.4538607 C20.3150761,20.627427 20.0456517,20.6467122 19.8507836,20.5117161 L19.7815357,20.4538607 L17.3169788,17.9893038 C17.1217166,17.7940416 17.1217166,17.4774591 17.3169788,17.282197 C17.4905451,17.1086306 17.7599695,17.0893455 17.9548377,17.2243415 Z M6.68695901,17.282197 C6.86052536,17.4557633 6.87981051,17.7251877 6.74481446,17.9200559 L6.68695901,17.9893038 L4.22240208,20.4538607 C4.02713994,20.6491228 3.71055745,20.6491228 3.5152953,20.4538607 C3.34172895,20.2802943 3.3224438,20.0108699 3.45743985,19.8160018 L3.5152953,19.7467539 L5.97985223,17.282197 C6.17511438,17.0869348 6.49169687,17.0869348 6.68695901,17.282197 Z M11.9793966,5.97139591 C15.2931097,5.97139591 17.9793966,8.65768134 17.9793966,11.9713959 C17.9793966,15.2851092 15.2931097,17.9713959 11.9793966,17.9713959 C8.66568204,17.9713959 5.97939661,15.2851092 5.97939661,11.9713959 C5.97939661,8.65768134 8.66568204,5.97139591 11.9793966,5.97139591 Z M3.98540983,11.4671871 C4.26155221,11.4671871 4.48540983,11.6910447 4.48540983,11.9671871 C4.48540983,12.212647 4.30853467,12.4167955 4.07528547,12.4591314 L3.98540983,12.4671871 L0.5,12.4671871 C0.223857625,12.4671871 -9.63673585e-14,12.2433295 -9.63673585e-14,11.9671871 C-9.63673585e-14,11.7217272 0.176875161,11.5175787 0.410124368,11.4752428 L0.5,11.4671871 L3.98540983,11.4671871 Z M23.5039378,11.4671871 C23.7800802,11.4671871 24.0039378,11.6910447 24.0039378,11.9671871 C24.0039378,12.212647 23.8270626,12.4167955 23.5938134,12.4591314 L23.5039378,12.4671871 L20.018528,12.4671871 C19.7423856,12.4671871 19.518528,12.2433295 19.518528,11.9671871 C19.518528,11.7217272 19.6954031,11.5175787 19.9286523,11.4752428 L20.018528,11.4671871 L23.5039378,11.4671871 Z M4.15315419,3.42265805 L4.22240208,3.4805135 L6.68695901,5.94507043 C6.88222116,6.14033257 6.88222116,6.45691506 6.68695901,6.65217721 C6.51339266,6.82574356 6.24396826,6.84502871 6.04910012,6.71003266 L5.97985223,6.65217721 L3.5152953,4.18762028 C3.32003316,3.99235813 3.32003316,3.67577564 3.5152953,3.4805135 C3.68886165,3.30694714 3.95828605,3.28766199 4.15315419,3.42265805 Z M20.4886425,3.4805135 C20.6622088,3.65407985 20.681494,3.92350425 20.5464979,4.11837239 L20.4886425,4.18762028 L18.0240856,6.65217721 C17.8288234,6.84743935 17.5122409,6.84743935 17.3169788,6.65217721 C17.1434124,6.47861085 17.1241273,6.20918645 17.2591233,6.01431831 L17.3169788,5.94507043 L19.7815357,3.4805135 C19.9767979,3.28525135 20.2933803,3.28525135 20.4886425,3.4805135 Z M11.9793964,1.50990331e-14 C12.2248563,1.50990331e-14 12.4290048,0.176875161 12.4713407,0.410124368 L12.4793964,0.5 L12.4793964,3.98540983 C12.4793964,4.26155221 12.2555388,4.48540983 11.9793964,4.48540983 C11.7339365,4.48540983 11.529788,4.30853467 11.4874521,4.07528547 L11.4793964,3.98540983 L11.4793964,0.5 C11.4793964,0.223857625 11.703254,1.50990331e-14 11.9793964,1.50990331e-14 Z" id="形状结合"></path>
        </g>
    </g>
</svg>