<?xml version="1.0" encoding="UTF-8"?>
<svg width="40px" height="40px" viewBox="0 0 40 40" version="1.1" xmlns="http://www.w3.org/2000/svg" xmlns:xlink="http://www.w3.org/1999/xlink">
    <title>关闭</title>
    <g id="关闭" stroke="none" stroke-width="1" fill="none" fill-rule="evenodd">
        <path d="M20,12 C20.2761424,12 20.5,12.2238576 20.5,12.5 L20.499,19.499 L27.5,19.5 C27.7761424,19.5 28,19.7238576 28,20 C28,20.2761424 27.7761424,20.5 27.5,20.5 L20.499,20.499 L20.5,27.5 C20.5,27.7761424 20.2761424,28 20,28 C19.7238576,28 19.5,27.7761424 19.5,27.5 L19.499,20.499 L12.5,20.5 C12.2238576,20.5 12,20.2761424 12,20 C12,19.7238576 12.2238576,19.5 12.5,19.5 L19.499,19.499 L19.5,12.5 C19.5,12.2238576 19.7238576,12 20,12 Z" id="形状结合" fill="#0081FF" transform="translate(20.000000, 20.000000) rotate(-135.000000) translate(-20.000000, -20.000000) "></path>
    </g>
</svg>