<?xml version="1.0" encoding="UTF-8"?>
<svg width="40px" height="40px" viewBox="0 0 40 40" version="1.1" xmlns="http://www.w3.org/2000/svg" xmlns:xlink="http://www.w3.org/1999/xlink">
    <title>滤镜-press</title>
    <g id="滤镜-press" stroke="none" stroke-width="1" fill="none" fill-rule="evenodd">
        <path d="M20.0125069,11 C17.2510831,11 15.0125069,13.2385763 15.0125069,16 C15.0125069,16.717936 15.1638202,17.4005309 15.4362956,18.0176333 C17.0317678,17.8683877 18.6374887,18.3651841 19.8706014,19.4052667 C19.9180775,19.4430021 19.9585854,19.4895954 19.990264,19.5444645 C20.1283352,19.7836108 20.0463976,20.089406 19.8072513,20.2274772 C19.6434822,20.3220294 19.4484573,20.313406 19.2974451,20.2217752 L19.2252376,20.1694988 C17.6604249,18.8499244 15.3757889,18.5800648 13.5008349,19.66257 C11.1093718,21.0432819 10.289996,24.1012339 11.6707079,26.492697 C13.0514197,28.8841601 16.1093718,29.7035359 18.5008349,28.322824 C18.7948763,28.1530591 19.0651512,27.957938 19.3104922,27.7418171 C18.2341109,26.3961455 17.7856182,24.6377032 18.0898426,22.93776 C18.0987844,22.8777769 18.1188815,22.8193994 18.1505602,22.7645303 C18.2886314,22.525384 18.5944266,22.4434464 18.8335729,22.5815176 C18.997342,22.6760697 19.0873864,22.8492779 19.0835379,23.0258737 L19.0743689,23.1145455 C18.7139904,25.1295002 19.6226031,27.2429828 21.4975571,28.325488 C23.8890202,29.7061999 26.9469723,28.8868241 28.3276841,26.495361 C29.708396,24.1038979 28.8890202,21.0459459 26.4975571,19.665234 C26.0980702,19.4345901 25.6799851,19.2653391 25.2542268,19.1545535 L25.1341878,19.1270922 C24.4278305,20.2815245 23.3421216,21.1786354 22.0504548,21.6450313 C21.994037,21.6672791 21.933432,21.6790633 21.8700746,21.6790633 C21.5939323,21.6790633 21.3700746,21.4552056 21.3700746,21.1790633 C21.3700746,20.989959 21.4750551,20.8253742 21.6299159,20.7404091 L21.7112923,20.7040138 C23.6364836,20.0086334 25.0125069,18.1650104 25.0125069,16 C25.0125069,13.2385763 22.7739306,11 20.0125069,11 Z" id="路径" fill="#0081FF" fill-rule="nonzero"></path>
    </g>
</svg>