<svg width="88" height="88" viewBox="0 0 88 88" fill="none" xmlns="http://www.w3.org/2000/svg">
<g clip-path="url(#clip0_314_5042)">
<path d="M88 88V0H0V88H88Z" fill="#8B9FBC"/>
<path d="M56.2692 106.489C84.3083 106.489 107.038 83.7585 107.038 55.7194C107.038 27.6804 84.3083 4.9502 56.2692 4.9502C28.2302 4.9502 5.5 27.6804 5.5 55.7194C5.5 83.7585 28.2302 106.489 56.2692 106.489Z" fill="#BBCDE3"/>
<mask id="mask0_314_5042" style="mask-type:luminance" maskUnits="userSpaceOnUse" x="5" y="4" width="103" height="103">
<path d="M56.2692 106.489C84.3083 106.489 107.038 83.7585 107.038 55.7194C107.038 27.6804 84.3083 4.9502 56.2692 4.9502C28.2302 4.9502 5.5 27.6804 5.5 55.7194C5.5 83.7585 28.2302 106.489 56.2692 106.489Z" fill="#C4E9FF"/>
</mask>
<g mask="url(#mask0_314_5042)">
<path d="M56.2692 4.9502C84.3083 4.9502 107.038 27.6804 107.038 55.7194C107.038 83.7585 84.3083 106.489 56.2692 106.489C28.2302 106.489 5.5 83.7585 5.5 55.7194C5.5 27.6804 28.2302 4.9502 56.2692 4.9502ZM56.2692 5.28866C28.4171 5.28866 5.83846 27.8673 5.83846 55.7194C5.83846 83.5716 28.4171 106.15 56.2692 106.15C84.1214 106.15 106.7 83.5716 106.7 55.7194C106.7 27.8673 84.1214 5.28866 56.2692 5.28866Z" fill="#C4E9FF"/>
</g>
<mask id="mask1_314_5042" style="mask-type:luminance" maskUnits="userSpaceOnUse" x="5" y="4" width="103" height="103">
<path d="M56.2692 106.489C84.3083 106.489 107.038 83.7585 107.038 55.7194C107.038 27.6804 84.3083 4.9502 56.2692 4.9502C28.2302 4.9502 5.5 27.6804 5.5 55.7194C5.5 83.7585 28.2302 106.489 56.2692 106.489Z" fill="#8B9FBC"/>
</mask>
<g mask="url(#mask1_314_5042)">
<path d="M57.442 105.315C83.212 105.315 104.103 84.4239 104.103 58.6539C104.103 32.8839 83.212 11.9932 57.442 11.9932C31.672 11.9932 10.7812 32.8839 10.7812 58.6539C10.7812 84.4239 31.672 105.315 57.442 105.315Z" fill="#8B9FBC"/>
</g>
<path d="M55.9756 98.8584C79.9628 98.8584 99.4082 79.413 99.4082 55.4258C99.4082 31.4386 79.9628 11.9932 55.9756 11.9932C31.9884 11.9932 12.543 31.4386 12.543 55.4258C12.543 79.413 31.9884 98.8584 55.9756 98.8584Z" fill="#BBCDE3"/>
<path d="M55.9756 11.9932C79.9628 11.9932 99.4082 31.4386 99.4082 55.4258C99.4082 79.413 79.9628 98.8584 55.9756 98.8584C31.9884 98.8584 12.543 79.413 12.543 55.4258C12.543 31.4386 31.9884 11.9932 55.9756 11.9932ZM55.9756 12.3316C32.1753 12.3316 12.8814 31.6255 12.8814 55.4258C12.8814 79.2261 32.1753 98.52 55.9756 98.52C79.7759 98.52 99.0698 79.2261 99.0698 55.4258C99.0698 31.6255 79.7759 12.3316 55.9756 12.3316Z" fill="url(#paint0_linear_314_5042)"/>
<path d="M57.1503 98.2714C79.1926 98.2714 97.0614 80.4026 97.0614 58.3603C97.0614 36.318 79.1926 18.4492 57.1503 18.4492C35.1081 18.4492 17.2393 36.318 17.2393 58.3603C17.2393 80.4026 35.1081 98.2714 57.1503 98.2714Z" fill="#8B9FBC"/>
<path d="M55.9764 91.8151C76.0738 91.8151 92.3659 75.523 92.3659 55.4256C92.3659 35.3283 76.0738 19.0361 55.9764 19.0361C35.8791 19.0361 19.5869 35.3283 19.5869 55.4256C19.5869 75.523 35.8791 91.8151 55.9764 91.8151Z" fill="#ADC4DE"/>
<path d="M55.9764 19.0361C76.0738 19.0361 92.3659 35.3283 92.3659 55.4256C92.3659 75.523 76.0738 91.8151 55.9764 91.8151C35.8791 91.8151 19.5869 75.523 19.5869 55.4256C19.5869 35.3283 35.8791 19.0361 55.9764 19.0361ZM55.9764 19.3746C36.066 19.3746 19.9254 35.5152 19.9254 55.4256C19.9254 75.3361 36.066 91.4767 55.9764 91.4767C75.8869 91.4767 92.0275 75.3361 92.0275 55.4256C92.0275 35.5152 75.8869 19.3746 55.9764 19.3746Z" fill="url(#paint1_linear_314_5042)"/>
<path d="M56.2688 90.0542C73.935 90.0542 88.2563 75.7329 88.2563 58.0667C88.2563 40.4004 73.935 26.0791 56.2688 26.0791C38.6026 26.0791 24.2812 40.4004 24.2812 58.0667C24.2812 75.7329 38.6026 90.0542 56.2688 90.0542Z" fill="#8B9FBC"/>
<path d="M55.9763 84.7718C72.1838 84.7718 85.3226 71.633 85.3226 55.4255C85.3226 39.2179 72.1838 26.0791 55.9763 26.0791C39.7687 26.0791 26.6299 39.2179 26.6299 55.4255C26.6299 71.633 39.7687 84.7718 55.9763 84.7718Z" fill="#ADC4DE"/>
<path d="M55.9763 26.0791C72.1838 26.0791 85.3226 39.2179 85.3226 55.4255C85.3226 71.633 72.1838 84.7718 55.9763 84.7718C39.7687 84.7718 26.6299 71.633 26.6299 55.4255C26.6299 39.2179 39.7687 26.0791 55.9763 26.0791ZM55.9763 26.4176C39.9556 26.4176 26.9683 39.4048 26.9683 55.4255C26.9683 71.4461 39.9556 84.4334 55.9763 84.4334C71.9969 84.4334 84.9842 71.4461 84.9842 55.4255C84.9842 39.4048 71.9969 26.4176 55.9763 26.4176Z" fill="url(#paint2_linear_314_5042)"/>
<path d="M57.4425 84.1857C71.5431 84.1857 82.9738 72.755 82.9738 58.6544C82.9738 44.5538 71.5431 33.123 57.4425 33.123C43.3419 33.123 31.9111 44.5538 31.9111 58.6544C31.9111 72.755 43.3419 84.1857 57.4425 84.1857Z" fill="#8B9FBC"/>
<path d="M55.6826 77.7295C67.8383 77.7295 77.6924 67.8754 77.6924 55.7197C77.6924 43.5641 67.8383 33.71 55.6826 33.71C43.527 33.71 33.6729 43.5641 33.6729 55.7197C33.6729 67.8754 43.527 77.7295 55.6826 77.7295Z" fill="#A0B7D6"/>
<path d="M55.6826 33.71C67.8383 33.71 77.6924 43.5641 77.6924 55.7197C77.6924 67.8754 67.8383 77.7295 55.6826 77.7295C43.527 77.7295 33.6729 67.8754 33.6729 55.7197C33.6729 43.5641 43.527 33.71 55.6826 33.71ZM55.6826 34.0484C43.7139 34.0484 34.0113 43.751 34.0113 55.7197C34.0113 67.6885 43.7139 77.3911 55.6826 77.3911C67.6514 77.3911 77.354 67.6885 77.354 55.7197C77.354 43.751 67.6514 34.0484 55.6826 34.0484Z" fill="url(#paint3_linear_314_5042)"/>
<path d="M56.5619 76.5555C66.6106 76.5555 74.7567 68.4095 74.7567 58.3608C74.7567 48.3121 66.6106 40.166 56.5619 40.166C46.5133 40.166 38.3672 48.3121 38.3672 58.3608C38.3672 68.4095 46.5133 76.5555 56.5619 76.5555Z" fill="#8196B4"/>
<path d="M55.6834 70.6853C63.9493 70.6853 70.6501 63.9845 70.6501 55.7186C70.6501 47.4528 63.9493 40.752 55.6834 40.752C47.4176 40.752 40.7168 47.4528 40.7168 55.7186C40.7168 63.9845 47.4176 70.6853 55.6834 70.6853Z" fill="#A0B7D6"/>
<path d="M55.6834 40.752C63.9493 40.752 70.6501 47.4528 70.6501 55.7186C70.6501 63.9845 63.9493 70.6853 55.6834 70.6853C47.4176 70.6853 40.7168 63.9845 40.7168 55.7186C40.7168 47.4528 47.4176 40.752 55.6834 40.752ZM55.6834 41.0904C47.6045 41.0904 41.0553 47.6397 41.0553 55.7186C41.0553 63.7975 47.6045 70.3468 55.6834 70.3468C63.7624 70.3468 70.3116 63.7975 70.3116 55.7186C70.3116 47.6397 63.7624 41.0904 55.6834 41.0904Z" fill="url(#paint4_linear_314_5042)"/>
<path d="M55.9749 70.0991C62.1337 70.0991 67.1265 65.1064 67.1265 58.9475C67.1265 52.7886 62.1337 47.7959 55.9749 47.7959C49.816 47.7959 44.8232 52.7886 44.8232 58.9475C44.8232 65.1064 49.816 70.0991 55.9749 70.0991Z" fill="#8196B4"/>
<path d="M55.6813 63.6429C60.0574 63.6429 63.6049 60.0955 63.6049 55.7194C63.6049 51.3434 60.0574 47.7959 55.6813 47.7959C51.3053 47.7959 47.7578 51.3434 47.7578 55.7194C47.7578 60.0955 51.3053 63.6429 55.6813 63.6429Z" fill="#A0B7D6"/>
<path d="M55.6813 47.7959C60.0574 47.7959 63.6049 51.3434 63.6049 55.7194C63.6049 60.0955 60.0574 63.6429 55.6813 63.6429C51.3053 63.6429 47.7578 60.0955 47.7578 55.7194C47.7578 51.3434 51.3053 47.7959 55.6813 47.7959ZM55.6813 48.1344C51.4922 48.1344 48.0963 51.5303 48.0963 55.7194C48.0963 59.9085 51.4922 63.3045 55.6813 63.3045C59.8705 63.3045 63.2664 59.9085 63.2664 55.7194C63.2664 51.5303 59.8705 48.1344 55.6813 48.1344Z" fill="url(#paint5_linear_314_5042)"/>
<path d="M55.6822 63.0558C57.7892 63.0558 59.4972 61.3478 59.4972 59.2408C59.4972 57.1338 57.7892 55.4258 55.6822 55.4258C53.5752 55.4258 51.8672 57.1338 51.8672 59.2408C51.8672 61.3478 53.5752 63.0558 55.6822 63.0558Z" fill="#8196B4"/>
</g>
<defs>
<linearGradient id="paint0_linear_314_5042" x1="4355.81" y1="11.9932" x2="4355.81" y2="8698.52" gradientUnits="userSpaceOnUse">
<stop stop-color="#D4E7FF"/>
<stop offset="1" stop-color="#A7D2ED"/>
</linearGradient>
<linearGradient id="paint1_linear_314_5042" x1="3658.54" y1="19.0361" x2="3658.54" y2="7296.94" gradientUnits="userSpaceOnUse">
<stop stop-color="#CAE4FF"/>
<stop offset="1" stop-color="#BFD4DA"/>
</linearGradient>
<linearGradient id="paint2_linear_314_5042" x1="2961.27" y1="26.0791" x2="2961.27" y2="5895.35" gradientUnits="userSpaceOnUse">
<stop stop-color="#CAE4FF"/>
<stop offset="1" stop-color="#BFD4DA"/>
</linearGradient>
<linearGradient id="paint3_linear_314_5042" x1="2234.65" y1="33.71" x2="2234.65" y2="4435.67" gradientUnits="userSpaceOnUse">
<stop stop-color="#CDE0FF"/>
<stop offset="1" stop-color="#BFD4DA"/>
</linearGradient>
<linearGradient id="paint4_linear_314_5042" x1="1537.38" y1="40.752" x2="1537.38" y2="3034.08" gradientUnits="userSpaceOnUse">
<stop stop-color="#CDE0FF"/>
<stop offset="1" stop-color="#BFD4DA"/>
</linearGradient>
<linearGradient id="paint5_linear_314_5042" x1="840.11" y1="47.7959" x2="840.11" y2="1632.5" gradientUnits="userSpaceOnUse">
<stop stop-color="#CDE0FF"/>
<stop offset="1" stop-color="#BFD4DA"/>
</linearGradient>
<clipPath id="clip0_314_5042">
<rect width="88" height="88" fill="white"/>
</clipPath>
</defs>
</svg>
