<?xml version="1.0" encoding="UTF-8"?>
<svg width="12px" height="12px" viewBox="0 0 12 12" version="1.1" xmlns="http://www.w3.org/2000/svg" xmlns:xlink="http://www.w3.org/1999/xlink">
    <title>icon/ 12/ 加粗</title>
    <g id="icon/-12/-加粗" stroke="none" stroke-width="1" fill="none" fill-rule="evenodd">
        <path d="M9.4666659,5.51399943 C9.96998004,4.91468338 10.2473849,4.157953 10.2506658,3.37533298 C10.2506658,1.51118805 8.73947777,0 6.87533284,0 L2,0 L2,12 L7.43799944,12 C8.99556154,12.0012961 10.3730528,10.9897273 10.8380089,9.50318191 C11.3029649,8.01663651 10.7473744,6.40044571 9.4666659,5.51399943 L9.4666659,5.51399943 Z M4,2 L7,2 C7.53589803,2 8.03108851,2.28589834 8.29903769,2.74999991 C8.56698686,3.21410148 8.56698686,3.7858982 8.29903769,4.24999978 C8.03108851,4.71410135 7.53589803,5 7,5 L4,5 L4,2 L4,2 Z M7.39300451,10 L4,10 L4,7 L7.39300451,7 C8.28052361,7 9,7.67157288 9,8.5 C9,9.32842712 8.28052361,10 7.39300451,10 Z" id="形状" fill="#333333" fill-rule="nonzero"></path>
    </g>
</svg>