<?xml version="1.0" encoding="UTF-8"?>
<svg width="12px" height="12px" viewBox="0 0 12 12" version="1.1" xmlns="http://www.w3.org/2000/svg" xmlns:xlink="http://www.w3.org/1999/xlink">
    <title>icon/ 12/ 删除线</title>
    <g id="控件" stroke="none" stroke-width="1" fill="none" fill-rule="evenodd">
        <g id="删除线" transform="translate(-18.000000, -5.000000)" fill="#333333">
            <g id="形状结合" transform="translate(18.000000, 5.000000)">
                <path d="M7,8 L7,12 L5,12 L5,8 L7,8 Z M11.5,6 C11.7761424,6 12,6.22385763 12,6.5 C12,6.77614237 11.7761424,7 11.5,7 L0.5,7 C0.223857625,7 3.38176876e-17,6.77614237 0,6.5 C-3.38176876e-17,6.22385763 0.223857625,6 0.5,6 L11.5,6 Z M11,0 L11,2 L7,2 L7,5 L5,5 L5,2 L1,2 L1,0 L11,0 Z"></path>
            </g>
        </g>
    </g>
</svg>