<?xml version="1.0" encoding="UTF-8"?>
<svg width="75px" height="75px" viewBox="0 0 75 75" version="1.1" xmlns="http://www.w3.org/2000/svg" xmlns:xlink="http://www.w3.org/1999/xlink">
    <title>Wayland_hover</title>
    <g id="Wayland_hover" stroke="none" stroke-width="1" fill="none" fill-rule="evenodd">
        <g id="wayland" transform="translate(17.000000, 17.000000)" fill="#000000" fill-rule="nonzero">
            <path d="M5.94344287,5.77279744 C5.9262238,5.98973527 5.91235497,6.22216544 5.90168969,6.46810669 L5.88191405,7.10006796 C5.87746851,7.31982079 5.875,7.54868454 5.875,7.78669478 L5.88089818,8.52820051 L5.88717687,8.82618838 C3.45341513,11.8959499 2,15.7782433 2,20 C2,29.9411255 10.0588745,38 20,38 C29.9411255,38 38,29.9411255 38,20 C38,16.7188516 37.1220798,13.6427524 35.5883259,10.9937889 L35.6265383,10.8592678 L35.7946497,10.2978471 L35.9486833,9.81622777 C36.0239153,9.59053187 36.0956672,9.36043079 36.1634014,9.12735353 L36.2933531,8.65765421 C36.3098885,8.5947439 36.3261139,8.53169029 36.3420192,8.46852032 C38.6464456,11.7270929 40,15.7054766 40,20 C40,31.045695 31.045695,40 20,40 C8.954305,40 0,31.045695 0,20 C0,14.4337529 2.27389679,9.39860292 5.94344287,5.77279744 Z M35,2.5 C35.9473684,2.81578947 35.8975069,4.9265928 35.6062108,6.81695582 L35.5287943,7.28378772 C35.515199,7.36043884 35.5012939,7.43641566 35.4871337,7.51157239 L35.399548,7.95150532 L35.3084633,8.36475798 L35.2165039,8.74433226 L35.1262939,9.08323006 L35.0404578,9.37445327 L34.966927,9.60163161 L34.789246,10.1918927 L34.5499579,11.0410999 L34.2637506,12.1025479 L33.8623873,13.6566684 L33.5243138,15.0248909 L33.270491,16.0932808 L33.0233236,17.1759687 L32.8653027,17.8959736 L32.7148297,18.6077377 L32.5737405,19.3054228 L32.4438712,19.9831906 C32.4232633,20.0941678 32.4031993,20.2040719 32.3837177,20.3127812 L32.2741205,20.9497267 L32.180333,21.5521594 C32.1661213,21.6493645 32.1526447,21.7448883 32.1399417,21.8386092 L32.0733113,22.3783263 C32.0354869,22.7224171 32.0112623,23.033769 32.0030854,23.304598 L32,23.5 C32,24.1866446 31.548698,25.1925764 31.1793415,26.2454179 L30.9990807,26.7381803 C30.9674574,26.8213511 30.9350698,26.9049958 30.9019568,26.9890429 L30.6948817,27.4975803 L30.4722499,28.0123327 L30.235917,28.5298591 C30.1954895,28.6161534 30.1545685,28.70242 30.1131925,28.7885871 L29.8597874,29.3038219 L29.7295705,29.5594685 L29.7295705,29.5594685 L29.4632682,30.0646692 L29.1906873,30.5588788 C29.144837,30.64014 29.0988024,30.7207998 29.0526222,30.8007866 L28.7741027,31.2720574 C28.6808866,31.4260732 28.5873971,31.5768233 28.4939437,31.7237342 L28.2140007,32.1523757 L27.9361295,32.5545406 C27.0614428,33.7825094 26.4913793,34.1637931 26,34 C25.4782609,33.826087 24.8288627,33.0603048 24.2316367,31.6434454 L24.0093874,31.0987152 C23.9726755,31.0058937 23.9361508,30.9121565 23.8998467,30.8176548 L23.6849371,30.242679 L23.476928,29.6566108 L23.2774256,29.0667072 L23.0880358,28.4802254 L22.9103646,27.9044222 L22.7460181,27.3465547 L22.5966022,26.81388 L22.463723,26.3136551 L22.3489865,25.853137 L22.2539986,25.4395828 L22.1803654,25.0802495 L22.1296929,24.7823941 C22.1168073,24.6941616 22.1080162,24.617385 22.1035871,24.5532736 L22.1002486,24.4667569 C22.1002486,24.319719 22.0796034,24.1137923 22.0424978,23.8650198 L21.975017,23.4617322 L21.8859841,23.0062084 C21.8695237,22.9266032 21.852296,22.8453228 21.8343665,22.762618 L21.7188901,22.2513004 L21.5897081,21.7178274 L21.3771023,20.9023972 L21.227387,20.3661771 C21.2021205,20.278136 21.1767407,20.1909265 21.1513129,20.1047992 L20.9986933,19.6030279 L20.8480608,19.1392629 L20.7025538,18.7255365 C20.5370061,18.2767241 20.3883309,17.9546398 20.2789559,17.8452648 C20.1448096,17.7111185 19.9540026,17.9495422 19.7336545,18.4084905 L19.610698,18.6797823 L19.4828601,18.9893312 L19.3511188,19.3316541 L19.2164522,19.7012677 L19.0798383,20.0926888 L18.8046807,20.9190205 L17.8192912,23.5527634 L17.7169951,23.8606815 C17.6644435,24.0158801 17.6127145,24.2103355 17.5610376,24.436935 L17.4834647,24.8000532 L17.3659872,25.4234667 L17.2042282,26.3736529 L16.9872945,27.6925719 L16.7963237,28.8006451 L16.6934408,29.3576579 L16.5282437,30.1818942 L16.4100209,30.7160837 C16.3694541,30.8913657 16.3276961,31.0635704 16.2846505,31.2318085 L16.1515546,31.7237342 C15.7401006,33.1584782 15.2058824,34 14.5,34 C13.1111111,34 11.7819865,32.7288799 10.6939768,30.7400786 L10.4399112,30.2561309 C10.0697145,29.5212023 9.75,28.75 9.5,28 L9.36960631,27.5972302 L9.23945919,27.1710364 L9.10980521,26.7206789 L8.98089093,26.2454179 L8.85296293,25.7445138 L8.72626777,25.2172269 L8.60105203,24.6628175 L8.47756226,24.0805457 L8.35604504,23.4696721 L8.23674694,22.8294567 L8.11991452,22.15916 L8.00579436,21.4580422 L7.89463302,20.7253637 L7.78667708,19.9603846 C7.76896523,19.8301553 7.75139722,19.6985494 7.73397818,19.5655513 L7.63129264,18.7507346 L7.53242891,17.9017681 L7.43763356,17.0179122 C7.42218706,16.8676543 7.40692036,16.7159119 7.39183858,16.5626695 L7.30360812,15.6250925 L7.22006246,14.6507767 L7.14144818,13.6389825 L7.06801184,12.5889702 L7,11.5 L6.94328922,10.4295841 L6.91493384,9.75850662 L6.88657845,8.81568998 C6.88437303,8.71518589 6.88248267,8.61609956 6.88090737,8.518431 L6.87523629,7.94943289 L6.88090737,7.15973535 L6.89413989,6.6758034 L6.91493384,6.22589792 L6.94328922,5.8100189 C6.94864524,5.74354127 6.95431632,5.67848141 6.96030246,5.61483932 L7,5.25 C7.00724638,5.19202899 7.01480781,5.13547574 7.02268431,5.08034026 L7.07372401,4.76654064 L7.13232514,4.48676749 C7.3194707,3.69848771 7.60869565,3.36956522 8,3.5 C10,4.5 11.1666667,5.83333333 11.5,7.5 L12.2376093,11.2813411 L12.7019548,13.5655009 L13.0625,15.25 L13.2852502,16.2429334 L13.5099991,17.2011206 L13.6598032,17.8119534 L13.8087874,18.3943604 L13.9562682,18.9431487 L14.1015625,19.453125 L14.2439869,19.9190962 C14.5255102,20.8035714 14.7857143,21.3928571 15,21.5 C15.1886792,21.5943396 15.4129583,21.3148807 15.6661204,20.7993209 L15.8214298,20.4627545 L15.9833487,20.0761333 L16.1515546,19.6460669 L16.3257253,19.1791647 L16.7851314,17.8941274 L17.174661,16.7994788 L17.4779516,15.9743312 L17.6848472,15.434644 L17.8951282,14.910997 C18.5660377,13.2851549 19.2830189,12 20,12 C20.6428571,12 21.4855557,13.1881378 22.3565139,14.8006104 L22.6476445,15.3527697 L22.9394563,15.9300747 L23.230537,16.5262391 L23.5194744,17.1349763 L23.9457726,18.0579047 L25.3633996,21.2201166 L25.689346,21.9285202 L25.8874889,22.3431635 L26.0686605,22.704372 L26.2314485,23.0058594 C26.4100949,23.3203125 26.548325,23.5 26.6360475,23.5 C26.690861,23.5 26.7667852,23.4206919 26.8601877,23.273035 L26.9592819,23.1030012 L27.0692212,22.8898371 L27.1891985,22.635978 L27.3862201,22.1842139 L27.601287,21.6545857 L27.8316752,21.0553128 L28.0746604,20.3946149 L28.4135278,19.4323411 L28.6753125,18.6602834 L29.0293584,17.5793638 L29.3831992,16.4574365 L29.6914656,15.4443896 L29.9900013,14.428 L30.2743098,13.4218352 L30.5398946,12.4394629 L30.7043286,11.8044661 L30.8571101,11.1900938 L31.0615198,10.316 L31.1793415,9.77077651 C31.1976559,9.68268548 31.2152904,9.59604005 31.2322174,9.51092399 L31.3250663,9.01924989 L31.3996014,8.56830041 C31.453713,8.21059445 31.4873599,7.8994975 31.4970724,7.64547838 L31.5,7.5 C31.5,4.5 33.5,2 35,2.5 Z M20,0 C24.2892535,0 28.2631427,1.35023453 31.519808,3.64884375 C31.1895006,4.21948561 30.9245661,4.86868746 30.7475315,5.55962188 C27.7484063,3.32357526 24.0287719,2 20,2 C16.7106085,2 13.6272978,2.88233683 10.9738325,4.42324601 C10.5158078,3.93362502 9.96213283,3.48889825 9.31697014,3.08936166 C12.4072918,1.13273813 16.0713633,0 20,0 Z" id="形状结合"></path>
        </g>
    </g>
</svg>