<?xml version="1.0" encoding="UTF-8"?>
<svg width="75px" height="75px" viewBox="0 0 75 75" version="1.1" xmlns="http://www.w3.org/2000/svg" xmlns:xlink="http://www.w3.org/1999/xlink">
    <title>x11_hover</title>
    <g id="x11_hover" stroke="none" stroke-width="1" fill="none" fill-rule="evenodd">
        <g id="x11" transform="translate(19.000000, 22.000000)" fill="#000000">
            <path d="M6.05262401,27.8105503 C6.6213595,28.1352303 7.21730548,28.4386399 7.83772919,28.7191138 L6,31 L3.5,31 L6.05262401,27.8105503 Z M32.3489264,27.575056 L35,31 L27,31 L26.3230962,30.0729471 C28.5530105,29.4845811 30.5904951,28.6343531 32.3489264,27.575056 Z M7.8014387,7.40089673 L9.36426011,9.48493011 C6.37572007,11.4398461 4.5,14.152933 4.5,17 C4.5,22.5 10.4925237,28.5 20.5,28.5 C30.5074763,28.5 36.5,23 36.5,17 C36.5,13.4491402 33.6980877,10.4236389 29.6488252,8.54532111 L30.4426874,7.52024071 C35.0332971,9.80201924 38,13.4230785 38,17.5 C38,24.4035594 29.4934102,30 19,30 C8.50658975,30 0,24.4035594 0,17.5 C0,13.3512545 3.07215382,9.67457469 7.8014387,7.40089673 Z M35,0 L30.154,6.259 L30.1538776,6.25996743 L28.0902177,8.92468358 L28.091,8.924 L23,15.5 L30.3996943,25.0576648 C28.6917416,26.0787324 26.607935,26.8269501 24.2306431,27.2102374 L17.5,18 L32,0 L35,0 Z M11,0 L20.5,13 L10.810222,25.0287021 C10.225735,24.6799628 9.68212008,24.3010135 9.18316219,23.8962868 L15.5,16 L10.8040304,9.73806836 L8.10858111,6.14366766 L8.107,6.143 L3.5,0 L11,0 Z M19,5 C21.4665361,5 23.8232981,5.30921002 25.9856129,5.87192418 L25.0524936,7.03134204 C23.4307795,6.68548227 21.7256943,6.5 20,6.5 C18.3843621,6.5 18.64813,8.17058284 19.1718694,9.48745586 L16.0054273,5.15437066 C16.9809063,5.05276585 17.9810868,5 19,5 Z" id="形状结合"></path>
        </g>
    </g>
</svg>