<svg width="1205.000000" height="474.000000" viewBox="0 0 1205 474" fill="none" xmlns="http://www.w3.org/2000/svg" xmlns:xlink="http://www.w3.org/1999/xlink">
	<desc>
			Created with Pixso.
	</desc>
	<defs>
		<radialGradient id="paint_radial_9_2_0" cx="0.000000" cy="0.000000" r="1.000000" gradientUnits="userSpaceOnUse" gradientTransform="translate(-75.8852 329.837) rotate(-161.773) scale(931.2 961.339)">
			<stop offset="0.054000" stop-color="#74DEFE"/>
			<stop offset="0.457000" stop-color="#AE3CE8"/>
			<stop offset="0.639000" stop-color="#AA40EB"/>
		</radialGradient>
		<radialGradient id="paint_radial_9_3_0" cx="0.000000" cy="0.000000" r="1.000000" gradientUnits="userSpaceOnUse" gradientTransform="translate(-33.1214 196.141) rotate(-137.692) scale(859.003 932.71)">
			<stop offset="0.054000" stop-color="#F13AFF"/>
			<stop offset="0.441170" stop-color="#D72F46" stop-opacity="0.000000"/>
			<stop offset="0.639000" stop-color="#FFC697" stop-opacity="0.000000"/>
		</radialGradient>
		<linearGradient id="paint_linear_9_4_0" x1="309.363647" y1="58.445877" x2="160.041748" y2="346.895203" gradientUnits="userSpaceOnUse">
			<stop stop-color="#722291" stop-opacity="0.498039"/>
			<stop offset="0.295000" stop-color="#722291" stop-opacity="0.000000"/>
		</linearGradient>
		<linearGradient id="paint_linear_9_5_0" x1="190.671082" y1="201.066788" x2="303.798950" y2="358.322876" gradientUnits="userSpaceOnUse">
			<stop stop-color="#B833E1"/>
			<stop offset="0.371000" stop-color="#9059FF"/>
			<stop offset="0.614000" stop-color="#5B6DF8"/>
			<stop offset="1.000000" stop-color="#0090ED"/>
		</linearGradient>
		<linearGradient id="paint_linear_9_6_0" x1="165.923035" y1="141.822739" x2="288.468994" y2="378.515320" gradientUnits="userSpaceOnUse">
			<stop stop-color="#4300C3"/>
			<stop offset="0.375328" stop-color="#27D2FF" stop-opacity="0.631373"/>
			<stop offset="0.614000" stop-color="#5B6DF8"/>
			<stop offset="0.646700" stop-color="#536FF7"/>
			<stop offset="1.000000" stop-color="#0090ED"/>
		</linearGradient>
		<linearGradient id="paint_linear_9_7_0" x1="118.618248" y1="251.978271" x2="373.942810" y2="320.519409" gradientUnits="userSpaceOnUse">
			<stop stop-color="#054096" stop-opacity="0.498039"/>
			<stop offset="0.054000" stop-color="#0F3D9C" stop-opacity="0.439216"/>
			<stop offset="0.261000" stop-color="#2F35B1" stop-opacity="0.247059"/>
			<stop offset="0.466000" stop-color="#462FBF" stop-opacity="0.109804"/>
			<stop offset="0.669000" stop-color="#542BC8" stop-opacity="0.027451"/>
			<stop offset="0.864000" stop-color="#592ACB" stop-opacity="0.000000"/>
		</linearGradient>
		<linearGradient id="paint_linear_9_8_0" x1="174.027710" y1="385.842529" x2="327.978546" y2="88.400650" gradientUnits="userSpaceOnUse">
			<stop stop-color="#0090ED"/>
			<stop offset="0.386000" stop-color="#5B6DF8"/>
			<stop offset="0.629000" stop-color="#9059FF"/>
			<stop offset="1.000000" stop-color="#B833E1"/>
		</linearGradient>
		<linearGradient id="paint_linear_9_9_0" x1="75.208603" y1="184.262421" x2="403.398376" y2="340.444702" gradientUnits="userSpaceOnUse">
			<stop offset="0.805000" stop-color="#722291" stop-opacity="0.000000"/>
			<stop offset="1.000000" stop-color="#592ACB" stop-opacity="0.498039"/>
		</linearGradient>
		<linearGradient id="paint_linear_9_10_0" x1="212.205643" y1="96.962944" x2="325.998322" y2="375.424774" gradientUnits="userSpaceOnUse">
			<stop stop-color="#B833E1"/>
			<stop offset="0.371000" stop-color="#9059FF"/>
			<stop offset="0.614000" stop-color="#5B6DF8"/>
			<stop offset="1.000000" stop-color="#0090ED"/>
		</linearGradient>
		<linearGradient id="paint_linear_9_11_0" x1="162.703369" y1="285.289062" x2="418.027954" y2="353.830200" gradientUnits="userSpaceOnUse">
			<stop offset="0.054000" stop-color="#7B00FF"/>
			<stop offset="0.363696" stop-color="#A81BFF" stop-opacity="0.498039"/>
			<stop offset="0.669000" stop-color="#542BC8" stop-opacity="0.027451"/>
			<stop offset="0.864000" stop-color="#592ACB" stop-opacity="0.000000"/>
		</linearGradient>
		<linearGradient id="paint_linear_9_12_0" x1="277.627136" y1="395.085815" x2="137.574570" y2="269.777954" gradientUnits="userSpaceOnUse">
			<stop stop-color="#740097"/>
			<stop offset="0.371000" stop-color="#9059FF"/>
			<stop offset="0.614000" stop-color="#5B6DF8"/>
			<stop offset="1.000000" stop-color="#226D9D"/>
		</linearGradient>
		<linearGradient id="paint_linear_9_13_0" x1="277.627136" y1="373.027100" x2="137.574585" y2="233.796188" gradientUnits="userSpaceOnUse">
			<stop stop-color="#B833E1"/>
			<stop offset="0.371000" stop-color="#9059FF"/>
			<stop offset="0.614000" stop-color="#5B6DF8"/>
			<stop offset="1.000000" stop-color="#0090ED"/>
		</linearGradient>
		<linearGradient id="paint_linear_9_14_0" x1="290.845917" y1="350.819885" x2="142.040070" y2="211.588943" gradientUnits="userSpaceOnUse">
			<stop stop-color="#DE73FF"/>
			<stop offset="0.371000" stop-color="#9059FF"/>
			<stop offset="0.614000" stop-color="#5B6DF8"/>
			<stop offset="1.000000" stop-color="#63C2FF"/>
		</linearGradient>
	</defs>
	<rect id="画板 4" width="1205.000000" height="474.000000" fill="#FFFFFF" fill-opacity="0"/>
	<path id="path" d="M279.143 83.7181C244.656 69.6165 209.548 67.0493 173.818 76.0166C118.989 92.0156 81.0554 125.967 60.0182 177.871C25.5316 269.68 50.2024 388.838 203.991 429.323C231.095 439.264 259.011 445.018 287.74 446.586C306.086 447.276 324.077 445.334 341.711 440.762C344.556 439.92 348.279 438.773 351.072 437.781C303.857 446.42 258.452 440.176 214.858 419.049C131.805 379.673 73.6656 288.361 101.498 202.062C113.1 172.536 133.279 150.569 162.037 136.159C190.794 121.748 221.073 118.432 252.874 126.208C294.127 139.091 315.879 166.548 318.131 208.581C315.349 243.742 297.246 267.702 263.821 280.463C286.6 285.334 308.02 282.282 328.08 271.304C361.593 248.523 374.787 217.206 367.661 177.352C358.661 117.042 293.291 89.6306 279.143 83.7181Z" fill="url(#paint_radial_9_2_0)" fill-opacity="1.000000" fill-rule="nonzero"/>
	<path id="path" d="M347.385 133.548C323.565 108.774 295.239 93.1238 262.408 86.5959C211.254 78.3956 167.952 91.2971 132.502 125.301C72.0645 186.499 51.3957 292.757 165.363 385.049C184.479 403.592 205.719 419.05 229.081 431.424C244.109 439.073 259.75 444.449 276.003 447.552C278.662 447.968 282.157 448.476 284.823 448.75C242.549 437.518 206.927 414.903 177.958 380.908C122.465 316.851 105.658 220.263 158.653 160.966C178.515 141.482 202.901 131.448 231.812 130.863C260.722 130.278 287.064 139.286 310.837 157.887C340.708 184.286 349.315 214.98 336.656 249.969C322.185 277.436 298.838 289.89 266.614 287.332C283.884 300.089 302.762 305.888 323.249 304.729C359.012 299.187 380.818 278.864 388.667 243.76C402.03 191.325 357.113 143.814 347.385 133.548Z" fill="url(#paint_radial_9_3_0)" fill-opacity="1.000000" fill-rule="nonzero"/>
	<path id="path" d="M412.358 280.936C424.044 267.014 429.187 250.549 427.787 231.541C415.173 77.7648 252.312 -5.83563 119.538 0.317139C175.974 0.561768 225.761 20.9768 268.9 61.5624C312.04 102.148 338.476 153.444 348.208 215.449L412.358 280.936Z" fill="url(#paint_linear_9_4_0)" fill-opacity="1.000000" fill-rule="nonzero"/>
	<path id="path" d="M366.069 259.474C360.657 251.812 351.855 244.746 339.665 238.275C325.193 230.759 308.315 224.425 289.03 219.274C273.055 214.815 256.316 211.135 238.814 208.234C207.662 203.174 176.279 200.888 144.666 201.375C114.727 201.537 88.1341 204.99 64.8883 211.734C79.5139 209.368 94.9043 207.92 111.06 207.389C178.999 205.092 237.619 215.628 286.918 238.999C296.144 243.41 304.059 248.167 310.662 253.267C337.261 273.741 337.122 292.619 310.244 309.901C289.704 320.849 261.634 325.563 226.035 324.044C279.452 329.507 321.222 323.839 351.343 307.039C374.228 293.186 379.136 277.331 366.069 259.474Z" fill="url(#paint_linear_9_5_0)" fill-opacity="1.000000" fill-rule="nonzero"/>
	<path id="path" d="M343.21 214.835C337.337 203.293 328.157 193.072 315.67 184.173C300.858 173.873 283.749 165.717 264.344 159.704C248.255 154.418 231.466 150.453 213.976 147.808C182.854 143.266 151.693 143.147 120.494 147.451C90.9272 151.051 64.8924 159.496 42.3895 172.786C56.6763 167.4 71.7818 163.385 87.7058 160.739C154.668 149.508 213.303 159.666 263.61 191.213C273.027 197.177 281.172 203.834 288.046 211.184C315.728 240.674 316.885 270.621 291.516 301.023C271.974 320.675 244.566 331.284 209.292 332.852C262.44 335.548 303.317 321.895 331.923 291.894C353.582 267.374 357.344 241.688 343.21 214.835Z" fill="url(#paint_linear_9_6_0)" fill-opacity="1.000000" fill-rule="nonzero"/>
	<g opacity="0.900000">
		<path id="path" d="M343.045 233.176L229.751 233.176C208.447 233.176 190.263 241.577 175.199 258.38C160.134 275.183 152.602 295.466 152.602 319.229L364.762 319.229C381.587 319.254 395.731 312.399 407.194 298.662L343.045 233.176Z" fill="url(#paint_linear_9_7_0)" fill-opacity="1.000000" fill-rule="nonzero"/>
	</g>
	<path id="path" d="M97.4959 334.813L136.418 33.6279C192.853 33.8726 242.64 54.2876 285.779 94.8732C328.919 135.459 355.355 186.754 365.087 248.76L251.794 248.76C230.49 248.76 212.306 257.162 197.241 273.964C182.177 290.767 174.645 311.05 174.645 334.813L386.805 334.813C403.782 334.88 418.027 327.954 429.538 314.035C441.05 300.116 446.093 283.722 444.666 264.852C432.053 111.076 269.191 27.4752 136.418 33.6279L97.4959 334.813Z" fill="url(#paint_linear_9_8_0)" fill-opacity="1.000000" fill-rule="nonzero"/>
	<path id="path" d="M217.794 336.476C192.311 330.949 169.939 323.849 150.676 315.174C128.397 304.934 111.013 293.843 98.5256 281.901C87.5013 271.94 79.4582 261.851 74.3964 251.633C65.7565 233.483 66.9908 216.182 78.0992 199.73C87.5589 184.045 107.664 171.271 138.414 161.409C125.704 168.271 116.013 175.856 109.342 184.165C81.0464 219.083 100.898 253.593 168.896 287.693C181.757 294.088 196.225 299.914 212.299 305.172C276.797 326.323 343.589 332.856 412.677 324.772C457.484 317.803 482.487 304.694 487.685 285.445C491.144 315.443 458.699 335.422 390.353 345.38C334.575 352.565 277.056 349.597 217.794 336.476Z" fill="url(#paint_linear_9_9_0)" fill-opacity="1.000000" fill-rule="nonzero"/>
	<path id="path" d="M376.829 182.86C371.376 169.281 362.852 157.256 351.256 146.787C337.502 134.67 321.615 125.074 303.596 118C288.657 111.781 273.067 107.116 256.827 104.005C227.927 98.6615 198.992 98.5212 170.021 103.584C142.567 107.819 118.391 117.755 97.4959 133.39C110.762 127.054 124.789 122.33 139.575 119.218C201.754 106.005 256.201 117.955 302.915 155.069C311.659 162.086 319.223 169.918 325.605 178.564C351.31 213.259 352.384 248.49 328.828 284.258C310.682 307.377 285.232 319.859 252.477 321.703C301.829 324.875 339.786 308.813 366.348 273.518C386.46 244.671 389.953 214.451 376.829 182.86Z" fill="url(#paint_linear_9_10_0)" fill-opacity="1.000000" fill-rule="nonzero"/>
	<g opacity="0.900000">
		<path id="path" d="M387.13 266.486L273.836 266.486C252.532 266.486 234.348 274.888 219.284 291.691C204.22 308.494 196.687 328.776 196.687 352.539L408.847 352.539C425.672 352.565 439.816 345.709 451.279 331.973L387.13 266.486Z" fill="url(#paint_linear_9_11_0)" fill-opacity="1.000000" fill-rule="nonzero"/>
	</g>
	<path id="path" d="M75.0137 356.432C81.7252 362.543 92.2165 367.954 106.488 372.665C123.416 378.118 142.969 382.436 165.147 385.619C183.533 388.417 202.721 390.517 222.709 391.917C258.278 394.321 293.89 394.385 329.546 392.106C363.337 390.2 393.091 385.729 418.808 378.694C402.481 381.545 385.217 383.671 367.018 385.071C290.49 391.017 223.479 385.639 165.985 368.938C155.223 365.78 145.914 362.256 138.058 358.365C106.422 342.753 105.1 326.899 134.092 310.803C156.426 300.399 187.749 294.783 228.062 293.953C167.322 292.526 120.606 299.753 87.9129 315.636C63.1602 328.617 58.8605 342.216 75.0137 356.432Z" fill="url(#paint_linear_9_12_0)" fill-opacity="1.000000" fill-rule="nonzero"/>
	<path id="path" d="M75.0137 330.079C81.7252 336.868 92.2165 342.88 106.488 348.115C123.416 354.174 142.969 358.972 165.147 362.509C183.533 365.618 202.721 367.95 222.709 369.506C258.278 372.178 293.89 372.248 329.546 369.717C363.337 367.599 393.091 362.631 418.808 354.814C402.481 357.982 385.217 360.344 367.018 361.9C290.49 368.506 223.479 362.531 165.985 343.974C155.223 340.466 145.914 336.55 138.058 332.227C106.422 314.879 105.1 297.264 134.092 279.38C156.426 267.82 187.749 261.579 228.062 260.657C167.322 259.071 120.606 267.102 87.9129 284.75C63.1602 299.173 58.8605 314.283 75.0137 330.079Z" fill="url(#paint_linear_9_13_0)" fill-opacity="1.000000" fill-rule="nonzero"/>
	<path id="path" d="M75.5691 307.871C82.7001 314.661 93.8471 320.673 109.01 325.908C126.997 331.967 147.772 336.764 171.335 340.301C190.871 343.411 211.258 345.743 232.495 347.299C270.287 349.971 308.126 350.041 346.01 347.509C381.912 345.392 413.526 340.424 440.851 332.606C423.503 335.774 405.16 338.136 385.824 339.692C304.513 346.299 233.314 340.324 172.226 321.767C160.791 318.258 150.9 314.343 142.554 310.019C108.94 292.672 107.535 275.056 138.34 257.173C162.069 245.613 195.351 239.372 238.183 238.45C173.647 236.864 124.011 244.895 89.2745 262.542C62.9748 276.966 58.4064 292.076 75.5691 307.871Z" fill="url(#paint_linear_9_14_0)" fill-opacity="1.000000" fill-rule="nonzero"/>
	<path id="Ocean" d="M685.72 244.521Q685.72 268.554 677.635 286.466Q669.549 304.379 654.724 313.812Q639.9 323.246 620.135 323.246Q600.818 323.246 585.882 313.756Q570.945 304.267 562.691 286.691Q554.436 269.115 554.212 245.98L554.212 234.188Q554.212 210.604 562.41 192.523Q570.608 174.442 585.601 164.84Q600.594 155.238 619.91 155.238Q639.563 155.238 654.556 164.728Q669.549 174.218 677.635 192.243Q685.72 210.268 685.72 234.188L685.72 244.521ZM664.27 233.964Q664.27 204.877 652.591 189.323Q640.911 173.769 619.91 173.769Q599.47 173.769 587.735 189.323Q575.999 204.877 575.662 232.504L575.662 244.521Q575.662 272.709 587.51 288.825Q599.358 304.94 620.135 304.94Q641.023 304.94 652.478 289.723Q663.933 274.506 664.27 246.093L664.27 233.964ZM763.548 306.288Q774.666 306.288 782.976 299.55Q791.287 292.812 792.185 282.704L811.839 282.704Q811.277 293.148 804.651 302.582Q798.025 312.016 786.963 317.631Q775.901 323.246 763.548 323.246Q738.728 323.246 724.073 306.681Q709.417 290.116 709.417 261.366L709.417 257.885Q709.417 240.141 715.93 226.327Q722.444 212.514 734.629 204.877Q746.814 197.24 763.435 197.24Q783.875 197.24 797.407 209.481Q810.94 221.723 811.839 241.264L792.185 241.264Q791.287 229.472 783.257 221.891Q775.227 214.311 763.435 214.311Q747.6 214.311 738.897 225.709Q730.193 237.108 730.193 258.671L730.193 262.602Q730.193 283.603 738.841 294.945Q747.488 306.288 763.548 306.288ZM885.623 323.246Q860.916 323.246 845.418 307.018Q829.92 290.79 829.92 263.612L829.92 259.794Q829.92 241.713 836.826 227.506Q843.733 213.3 856.143 205.27Q868.552 197.24 883.04 197.24Q906.736 197.24 919.876 212.851Q933.015 228.461 933.015 257.548L933.015 266.195L850.696 266.195Q851.145 284.164 861.197 295.226Q871.248 306.288 886.746 306.288Q897.752 306.288 905.388 301.796Q913.025 297.304 918.753 289.892L931.443 299.774Q916.17 323.246 885.623 323.246ZM883.04 214.311Q870.462 214.311 861.927 223.463Q853.391 232.616 851.37 249.125L912.239 249.125L912.239 247.553Q911.341 231.718 903.704 223.014Q896.067 214.311 883.04 214.311ZM1032.07 321Q1030.27 317.406 1029.15 308.197Q1014.66 323.246 994.558 323.246Q976.59 323.246 965.078 313.083Q953.567 302.919 953.567 287.309Q953.567 268.329 967.998 257.829Q982.429 247.328 1008.6 247.328L1028.81 247.328L1028.81 237.782Q1028.81 226.889 1022.3 220.431Q1015.78 213.974 1003.09 213.974Q991.975 213.974 984.451 219.589Q976.927 225.204 976.927 233.178L956.038 233.178Q956.038 224.081 962.495 215.602Q968.953 207.123 980.015 202.182Q991.077 197.24 1004.33 197.24Q1025.33 197.24 1037.23 207.741Q1049.14 218.241 1049.59 236.659L1049.59 292.587Q1049.59 309.32 1053.86 319.203L1053.86 321L1032.07 321ZM997.591 305.165Q1007.36 305.165 1016.12 300.111Q1024.88 295.058 1028.81 286.972L1028.81 262.04L1012.53 262.04Q974.344 262.04 974.344 284.389Q974.344 294.159 980.857 299.662Q987.371 305.165 997.591 305.165ZM1101.81 199.486L1102.48 214.76Q1116.41 197.24 1138.87 197.24Q1177.39 197.24 1177.73 240.702L1177.73 321L1156.95 321L1156.95 240.59Q1156.84 227.45 1150.94 221.161Q1145.05 214.872 1132.58 214.872Q1122.47 214.872 1114.84 220.263Q1107.2 225.653 1102.93 234.413L1102.93 321L1082.16 321L1082.16 199.486L1101.81 199.486Z" fill="#000000" fill-opacity="1.000000" fill-rule="evenodd"/>
</svg>
