<?xml version="1.0" encoding="UTF-8"?>
<svg width="28px" height="28px" viewBox="0 0 28 28" version="1.1" xmlns="http://www.w3.org/2000/svg" xmlns:xlink="http://www.w3.org/1999/xlink">
    <!-- Generator: Sketch 58 (84663) - https://sketch.com -->
    <title>ICon/developers</title>
    <desc>Created with Sketch.</desc>
    <g id="ICon/developers" stroke="none" stroke-width="1" fill="none" fill-rule="evenodd">
        <g id="ICon/disk">
            <rect id="矩形" fill="#FF6969" opacity="0" transform="translate(14.000000, 14.000000) rotate(-360.000000) translate(-14.000000, -14.000000) " x="0" y="0" width="28" height="28"></rect>
            <path d="M21,7 C22.1045695,7 23,7.8954305 23,9 L23,20 C23,21.1045695 22.1045695,22 21,22 L7,22 C5.8954305,22 5,21.1045695 5,20 L5,9 C5,7.8954305 5.8954305,7 7,7 L21,7 Z M14.7998045,11.1124755 C14.5307396,11.050357 14.2622624,11.2181202 14.2001439,11.487185 L14.2001439,11.487185 L12.6254865,18.3077755 C12.563368,18.5768403 12.7311312,18.8453175 13.000196,18.907436 C13.2692609,18.9695546 13.5377381,18.8017914 13.5998566,18.5327265 L13.5998566,18.5327265 L15.174514,11.7121361 C15.2366325,11.4430712 15.0688693,11.174594 14.7998045,11.1124755 Z M16.4251199,12.3092695 C16.2135825,12.4867704 16.1859905,12.8021482 16.3634914,13.0136855 L18.6132481,15.694841 L15.9320925,17.9445977 C15.7205552,18.1220986 15.6929632,18.4374764 15.8704641,18.6490137 C16.047965,18.860551 16.3633428,18.888143 16.5748801,18.7106421 L19.6390579,16.1394917 C19.8505952,15.9619908 19.8781872,15.646613 19.7006863,15.4350756 L17.1295359,12.3708979 C16.952035,12.1593605 16.6366572,12.1317686 16.4251199,12.3092695 Z M11.6693594,12.262082 L11.5927335,12.309737 L8.39819142,14.7169971 C8.20215844,14.8647185 8.14556434,15.1288369 8.25212622,15.3405964 L8.29978118,15.4172223 L10.7070413,18.6117644 C10.8732279,18.8323015 11.1867294,18.8763612 11.4072665,18.7101746 C11.6032995,18.5624532 11.6598936,18.2983348 11.5533317,18.0865752 L11.5056768,18.0099493 L9.3993242,15.2147251 L12.1945485,13.1083725 C12.4150856,12.9421858 12.4591454,12.6286843 12.2929587,12.4081472 C12.1452373,12.2121142 11.8811189,12.1555201 11.6693594,12.262082 Z M22,9 L6,9 L6,10 L22,10 L22,9 Z" id="形状结合" fill="#536076"></path>
        </g>
    </g>
</svg>