<svg width="229.153564" height="194.775574" viewBox="0 0 229.154 194.776" fill="none" xmlns="http://www.w3.org/2000/svg" xmlns:xlink="http://www.w3.org/1999/xlink">
	<desc>
			Created with Pixso.
	</desc>
	<defs/>
	<path id="矢量 14" d="M5.14 0L190.46 0L191.39 0.09L192.24 0.3L193.03 0.7L193.76 1.22L194.36 1.83L194.88 2.56L195.27 3.36L195.51 4.24L195.6 5.19L195.6 145.84L0 145.84L0 5.19L0.06 4.24L0.3 3.36L0.69 2.56L1.21 1.83L1.81 1.22L2.54 0.7L3.33 0.3L4.2 0.09L5.14 0Z" fill="#EEF3FE" fill-opacity="1.000000" fill-rule="nonzero"/>
	<path id="矢量 14" d="M5.14 0L190.46 0L191.39 0.09L192.24 0.3L193.03 0.7L193.76 1.22L194.36 1.83L194.88 2.56L195.27 3.36L195.51 4.24L195.6 5.19L195.6 17.12L0 17.12L0 5.19L0.06 4.24L0.3 3.36L0.69 2.56L1.21 1.83L1.81 1.22L2.54 0.7L3.33 0.3L4.2 0.09L5.14 0Z" fill="#2F7FFF" fill-opacity="1.000000" fill-rule="nonzero"/>
	<path id="矢量 14" d="M21.49 9.47L21.28 10.54L20.77 11.43L19.98 12.1L19.53 12.32L18.47 12.53L17.41 12.32L16.5 11.8L15.83 11L15.47 10.02L15.47 8.89L15.62 8.4L16.13 7.49L16.92 6.81L17.41 6.6L18.47 6.42L19.53 6.6L20.4 7.12L21.07 7.91L21.28 8.4L21.49 9.47Z" fill="#FFFFFF" fill-opacity="1.000000" fill-rule="nonzero"/>
	<path id="矢量 14" d="M31.79 9.47L31.58 10.54L31.06 11.43L30.27 12.1L29.82 12.32L28.76 12.53L27.7 12.32L26.79 11.8L26.13 11L25.91 10.54L25.73 9.47L25.91 8.4L26.43 7.49L27.22 6.81L27.7 6.6L28.76 6.42L29.82 6.6L30.7 7.12L31.36 7.91L31.58 8.4L31.79 9.47Z" fill="#FFFFFF" fill-opacity="1.000000" fill-rule="nonzero"/>
	<path id="矢量 14" d="M42.08 9.47L41.87 10.54L41.63 11L40.93 11.8L39.99 12.32L38.9 12.53L37.78 12.32L36.85 11.8L36.15 11L35.76 10.02L35.76 8.89L35.91 8.4L36.45 7.49L37.3 6.81L37.78 6.6L38.9 6.42L39.99 6.6L40.93 7.12L41.63 7.91L41.87 8.4L42.08 9.47Z" fill="#FFFFFF" fill-opacity="1.000000" fill-rule="nonzero"/>
	<path id="矢量 14" d="M39.92 32.44L143.17 32.44L144.11 32.53L144.96 32.75L145.75 33.14L146.47 33.66L147.08 34.27L147.59 35.01L147.99 35.8L148.23 36.69L148.32 37.64L148.32 126.31L148.23 127.25L147.99 128.11L147.59 128.9L147.08 129.64L146.47 130.28L145.75 130.77L144.96 131.17L144.11 131.41L143.17 131.5L39.92 131.5L38.98 131.41L38.1 131.17L37.31 130.77L36.59 130.28L35.98 129.64L35.47 128.9L35.07 128.11L34.83 127.25L34.77 126.31L34.77 37.64L34.83 36.69L35.07 35.8L35.47 35.01L35.98 34.27L36.59 33.66L37.31 33.14L38.1 32.75L38.98 32.53L39.92 32.44Z" fill="#FFFFFF" fill-opacity="1.000000" fill-rule="nonzero"/>
	<path id="矢量 14" d="M45.79 40.79L68.08 40.79L68.71 40.88L69.29 41.12L69.77 41.49L70.17 42.01L70.41 42.59L70.5 43.23L70.41 43.87L70.17 44.46L69.77 44.94L69.29 45.34L68.71 45.59L68.08 45.68L45.79 45.68L45.16 45.59L44.58 45.34L44.1 44.94L43.7 44.46L43.46 43.87L43.4 43.23L43.46 42.59L43.7 42.01L44.1 41.49L44.58 41.12L45.16 40.88L45.79 40.79Z" fill="#CED7EC" fill-opacity="1.000000" fill-rule="nonzero"/>
	<path id="矢量 14" d="M45.79 50.33L60.11 50.33L60.78 50.42L61.36 50.66L61.84 51.03L62.2 51.55L62.45 52.13L62.54 52.77L62.45 53.41L62.2 53.99L61.84 54.48L61.36 54.88L60.78 55.13L60.11 55.22L45.79 55.22L45.16 55.13L44.58 54.88L44.1 54.48L43.7 53.99L43.46 53.41L43.4 52.77L43.46 52.13L43.7 51.55L44.1 51.03L44.58 50.66L45.16 50.42L45.79 50.33Z" fill="#CED7EC" fill-opacity="1.000000" fill-rule="nonzero"/>
	<path id="矢量 14" d="M93.21 80.13C97.52 80.13 101 76.57 101 72.18C101 67.79 97.52 64.24 93.21 64.24C90.63 64.24 88.33 65.52 86.92 67.51C86.88 67.51 86.84 67.51 86.81 67.51C82.51 67.51 79.02 71.06 79.02 75.45C79.02 79.84 82.51 83.4 86.81 83.4C89.39 83.4 91.69 82.11 93.1 80.13C93.14 80.13 93.18 80.13 93.21 80.13ZM85.43 72.18C85.43 76.54 88.85 80.07 93.1 80.13C94.04 78.82 94.59 77.2 94.59 75.45C94.59 71.1 91.17 67.57 86.92 67.51C85.98 68.82 85.43 70.44 85.43 72.18ZM73.19 100.48L73.19 101.85L106.83 101.85C106.83 102.44 106.83 103.07 106.83 103.75L106.83 105.12L66.78 105.12L66.78 103.75C66.78 98.66 66.78 96.12 67.75 94.18C68.6 92.47 69.97 91.08 71.64 90.21C72.59 89.72 73.68 89.47 75.15 89.34C74.77 89.83 74.44 90.35 74.16 90.91C73.19 92.85 73.19 95.39 73.19 100.48ZM75.15 89.34C75.93 88.35 76.92 87.52 78.05 86.94C79.95 85.95 82.45 85.95 87.43 85.95L99 85.95C103.98 85.95 106.48 85.95 108.38 86.94C110.06 87.81 111.42 89.2 112.27 90.91C113.24 92.85 113.24 95.39 113.24 100.48L113.24 101.85L106.83 101.85C106.81 98 106.7 95.86 105.86 94.18C105.01 92.47 103.65 91.08 101.97 90.21C100.07 89.22 97.58 89.22 92.59 89.22L81.02 89.22C78.51 89.22 76.64 89.22 75.15 89.34Z" fill="#2F88FF" fill-opacity="1.000000" fill-rule="evenodd"/>
	<path id="矢量 14" d="M220.17 110.92L219.81 110.62L219.44 110.47L219.69 108.92L219.66 107.69L219.54 107.12L219.32 106.6L218.96 106.18L218.4 105.78L217.82 105.52L217.24 105.4L216.6 105.42L215.95 105.57L215.34 105.85L214.25 106.58L214.54 105.38L214.64 104.17L214.57 103.61L214.42 103.11L214.13 102.64L213.77 102.26L213.28 102.03L212.55 101.84L211.87 101.77L211.19 101.79L209.91 102.12L208.43 102.88L207.63 103.44L206.34 104.65L205.47 105.61L204.98 105.33L204.28 105.09L203.67 105.05L202.99 105.07L202.22 105.24L201.37 105.52L200.42 105.97L199.33 106.58L198.09 107.43L197.34 108.04L195.79 109.74L194.67 111.25L193.48 113.02L188.53 121.16L187.15 123.29L185.67 125.44L184.09 127.49L182.39 129.47L181.2 130.72L179.94 131.88L178.63 132.99L177.25 133.98L175.79 134.88L174.26 135.65L172.49 136.27L170.87 136.46L169.8 136.41L168.78 136.27L167.78 136.01L166.84 135.63L165.14 134.76L164 134L163.05 133.27L162.23 132.52L161.18 131.43L160.5 131.95L161.62 133.13L163.51 134.71L165.62 136.01L167.61 136.83L168.66 137.12L169.77 137.28L170.94 137.31L172.71 137.09L173.66 136.81L174.63 136.43L176.2 135.63L177.71 134.71L179.12 133.67L180.47 132.56L181.76 131.36L183 130.09L184.72 128.08L186.35 125.98L187.85 123.83L189.26 121.66L194.18 113.54L195.35 111.8L196.42 110.33L197.92 108.7L198.62 108.11L200.01 107.17L201.1 106.58L202.12 106.16L202.89 105.97L203.6 105.9L204.08 105.92L204.64 106.11L204.98 106.32L195.2 121.24L195.93 121.68L205.88 106.53L207.38 104.81L208.11 104.17L209.59 103.21L210.88 102.73L211.56 102.62L212.26 102.66L212.96 102.83L213.23 102.97L213.6 103.42L213.74 103.91L213.77 104.5L213.57 105.8L213.18 107.1L212.77 108.14L203.06 123.36L203.82 123.81L213.38 108.8L213.67 108.44L214.91 107.17L215.46 106.75L216.09 106.44L216.73 106.25L217.16 106.25L217.57 106.34L217.96 106.51L218.38 106.82L218.57 107.05L218.81 107.83L218.84 108.54L218.76 109.29L218.47 110.69L208.79 125.55L209.52 126L219.13 111.28L219.54 111.51L219.71 111.75L219.88 112.24L219.95 112.86L219.9 113.87L219.71 115.05L219.27 116.8L218.74 118.45L217.82 120.72L216.73 123.1L215.22 125.93L214.13 127.82L211.41 132.02L209.88 134.14L208.16 136.32L206.27 138.58L204.28 140.75L202.09 142.95L199.74 145.14L195.95 148.28L191.73 151.32L189.52 152.74L187.2 154.11L184.74 155.43L182.17 156.71L180.33 157.48L178.58 158.07L176.88 158.5L175.26 158.76L173.68 158.85L172.35 158.83L171.04 158.71L169.75 158.45L168.49 158.1L167.25 157.65L166.04 157.06L164.87 156.37L163.73 155.62L162.62 154.75L161.55 153.78L160.24 152.39L158.98 150.9L157.79 149.27L155.63 145.8L154.66 143.99L153.35 141.15L152.16 138.32L151.11 135.47L149.44 130.04L148.25 125.32L147.11 119.44L146.24 119.54L146.82 122.82L148.08 128.43L149.42 133.13L150.24 135.65L151.31 138.6L152.4 141.29L153.54 143.75L154.68 145.97L155.85 147.97L157.03 149.77L158.22 151.39L159.44 152.84L160.65 154.11L161.86 155.24L163.1 156.23L164.36 157.08L165.62 157.81L166.86 158.4L168.1 158.88L169.36 159.25L170.65 159.51L171.96 159.66L173.29 159.73L174.72 159.66L176.18 159.49L177.71 159.18L179.26 158.76L180.86 158.19L182.56 157.46L185.16 156.19L187.63 154.86L189.99 153.47L192.22 152.03L196.51 148.94L200.32 145.78L202.72 143.54L204.93 141.32L206.95 139.1L208.86 136.81L210.59 134.62L212.14 132.47L213.62 130.27L216.02 126.29L217.94 122.56L219.56 118.71L220.12 117.03L220.54 115.45L220.75 114.18L220.83 113.19L220.78 112.39L220.66 111.77L220.44 111.28L220.17 110.92Z" fill="#000000" fill-opacity="1.000000" fill-rule="evenodd"/>
	<path id="矢量 14" d="M126.68 94.05L130.71 94.12L128.69 83.57L127.84 83.71L129.64 93.25L126.7 93.2L126.68 94.05Z" fill="#000000" fill-opacity="1.000000" fill-rule="evenodd"/>
	<path id="矢量 14" d="M124.18 97.12L124.69 97.21L124.84 96.36L123.79 96.13L123.02 95.84L122.41 95.49L121.97 95.09L121.66 94.62L121.46 94.14L121.41 93.15L121.49 92.73L121.83 91.78L121.05 91.38L120.76 92.09L120.54 93.13L120.52 93.74L120.61 94.36L120.86 94.99L121.22 95.56L121.73 96.03L122.36 96.46L123.16 96.83L124.18 97.12Z" fill="#000000" fill-opacity="1.000000" fill-rule="evenodd"/>
	<path id="矢量 14" d="M114.67 96.83L115.03 96.98L115.4 96.98L115.74 96.83L115.98 96.62L116.15 96.31L116.1 93.88L116.37 90.63L116.49 90.01L116.71 89.54L116.95 89.14L117.29 88.83L117.82 88.53L118.48 88.29L119.28 88.15L120.56 88.08L127.33 88.5L129.23 88.53L131.75 88.36L133.01 88.15L134.25 87.82L135.46 87.37L136.65 86.8L137.48 86.28L138.28 85.67L139.08 84.96L139.86 84.11L140.53 83.19L141.04 82.32L141.46 81.45L141.7 80.62L141.87 79.75L141.94 78.87L141.92 78.05L141.77 77.22L141.48 76.14L141.04 75.12L140.49 74.11L139.83 73.16L139.1 72.29L138.28 71.46L136.48 70.02L134.59 68.94L132.77 68.25L131.87 68.07L131.07 68L130.37 68.04L129.86 68.18L129.42 68.37L129.06 68.66L128.77 69.01L128.33 69.74L127.89 70.92L127.82 71.49L127.87 72.41L128.6 74.65L128.45 75.07L128.28 75.24L127.48 75.62L126.82 75.78L121.41 76.49L119.67 76.8L117.92 77.2L116.17 77.74L115.03 78.19L112.9 79.35L111.9 80.03L111.03 80.83L110.23 81.75L109.69 82.49L109.26 83.31L108.87 84.21L108.58 85.2L108.36 86.19L108.26 87.3L108.24 88.53L108.34 89.9L108.46 90.51L108.67 91.12L108.99 91.67L109.4 92.18L110.88 93.72L112.75 95.42L114.67 96.83Z" fill="#000000" fill-opacity="1.000000" fill-rule="evenodd"/>
	<path id="矢量 14" d="M138.11 98.91L137.36 100.18L136.48 101.36L135.49 102.45L134.39 103.44L133.23 104.31L131.97 105.07L130.63 105.71L129.18 106.23L127.75 106.58L126.34 106.82L124.93 106.91L123.52 106.89L122.14 106.72L120.78 106.44L119.47 106.06L118.21 105.54L116.97 104.93L115.83 104.22L114.74 103.42L113.72 102.5L112.78 101.48L111.95 100.4L111.22 99.22L110.57 97.97L110.32 97.16L109.82 97.23L108.87 97.12L108.07 96.72L107.41 96.03L106.95 95.11L106.83 94.59L106.81 94.07L107.05 93.08L107.61 92.21L108 91.88L108.94 91.38L109.77 91.24L109.74 90.82L109.82 90.39L109.4 90.41L109.62 89.09L109.96 87.79L110.45 86.52L111.03 85.25L111.81 83.97L112.68 82.79L113.65 81.71L114.74 80.74L115.93 79.87L117.17 79.11L118.53 78.47L119.96 77.93L121.12 77.62L123.43 77.27L125.81 77.29L126.99 77.43L129.32 77.98L130.46 78.4L131.58 78.9L132.92 79.65L134.13 80.5L135.24 81.47L136.24 82.51L137.14 83.67L137.91 84.89L138.57 86.19L139.1 87.58L139.49 89.05L139.73 90.46L139.83 91.9L139.78 93.34L139.59 94.78L139.25 96.17L138.76 97.54L138.11 98.91ZM139.95 87.35L139.44 86.02L138.86 84.77L138.16 83.62L137.36 82.49L136.46 81.47L135.46 80.5L134.39 79.63L133.23 78.85L131.99 78.14L130.68 77.58L129.37 77.1L128.01 76.75L126.63 76.51L125.25 76.4L123.86 76.4L122.46 76.51L121.07 76.77L119.69 77.13L118.36 77.6L117.07 78.19L115.86 78.87L114.72 79.65L113.65 80.53L112.68 81.49L111.78 82.53L110.96 83.67L110.25 84.87L109.6 86.26L109.09 87.7L108.72 89.14L108.51 90.63L107.87 90.91L107.34 91.29L106.88 91.74L106.49 92.26L106.2 92.82L106.03 93.44L105.93 94.07L105.98 94.71L106.13 95.37L106.59 96.34L106.9 96.74L107.49 97.26L108.14 97.66L108.87 97.92L109.65 98.04L110.23 99.22L110.86 100.33L111.56 101.36L112.36 102.33L113.24 103.23L114.18 104.06L115.15 104.81L116.22 105.49L117.31 106.08L118.45 106.58L119.64 107.01L120.86 107.34L120.86 113.38L121.73 113.38L121.73 107.52L123.14 107.71L124.59 107.76L126.02 107.71L127.46 107.52L127.46 113.38L128.35 113.38L128.35 107.34L129.45 107.03L130.8 106.56L132.07 105.97L133.28 105.28L134.42 104.5L135.49 103.63L136.48 102.69L137.38 101.62L138.18 100.52L138.88 99.29L139.49 98.04L139.98 96.74L140.34 95.44L140.58 94.1L140.7 92.75L140.7 91.38L140.56 90.04L140.32 88.69L139.95 87.35Z" fill="#000000" fill-opacity="1.000000" fill-rule="evenodd"/>
	<path id="矢量 14" d="M110.79 92.94L110.35 92.66L109.86 92.49L109.31 92.42L108.65 92.44L107.87 92.59L108.09 93.41L108.84 93.27L109.4 93.27L109.86 93.39L110.23 93.6L110.59 93.98L110.81 94.43L110.93 94.92L111 95.72L111.88 95.77L111.78 94.69L111.66 94.24L111.17 93.34L110.79 92.94Z" fill="#000000" fill-opacity="1.000000" fill-rule="evenodd"/>
	<path id="矢量 14" d="M160.43 155.6L152.38 153.61L152.42 163.95L126.95 163.95L127.75 169.59L136.51 170.2L138.69 170.42L140.56 170.7L142.82 171.2L144.81 171.97L146.14 172.63L147.3 173.48L147.62 173.86L147.84 174.43L147.86 174.74L147.69 175.16L146.5 175.16L146.77 174.9L146.87 174.45L146.72 174.15L146.43 173.81L145.75 173.32L144.88 172.82L143.37 172.16L141.55 171.62L138.52 171.15L136.36 170.94L125.66 170.16L122.51 169.85L117.09 169.09L112.73 168.17L110.59 167.61L108.48 166.92L105.93 165.96L103.89 164.87L102.78 164.12L101.78 163.29L100.89 162.39L100.09 161.42L99.38 160.39L98.8 159.28L98.29 158.07L97.88 156.78L97.56 155.41L97.39 151.28L75.43 150.12L75.67 147.76L75.99 145.57L76.38 143.47L76.86 141.51L77.4 139.64L78.25 137.31L79.19 135.16L80.21 133.13L81.33 131.27L82.57 129.45L83.88 127.75L85.23 126.19L86.67 124.73L88.17 123.36L89.72 122.09L91.33 120.91L92.93 119.82L95.16 118.5L97.39 117.34L99.62 116.3L101.9 115.41L104.11 114.6L106.25 113.94L110.4 112.9L114.98 112.08L117.19 111.8L119.21 111.61L121.73 111.49L122.31 112.24L122.85 112.76L123.33 113.09L123.86 113.31L124.37 113.4L124.86 113.38L125.59 113.21L126.19 112.9L126.73 112.55L127.46 111.87L130.08 112.36L132.55 112.95L134.93 113.61L137.19 114.34L139.47 115.17L143.64 116.96L148.08 119.3L150.39 120.67L152.5 122.06L154.56 123.52L157.98 126.24L160.24 128.22L161.96 129.9L163.44 131.45L165.19 133.46L160.43 155.6Z" fill="#3985FF" fill-opacity="1.000000" fill-rule="evenodd"/>
	<path id="矢量 14" d="M151.67 185.14L151.5 185.59L151.21 186.02L150.8 186.44L150.19 186.87L149.39 187.29L148.3 187.71L145.58 188.61L146.16 189.08L146.36 189.37L146.43 189.72L146.38 190L146.19 190.41L145.65 190.92L144.51 191.61L142.21 192.51L140.15 193.17L138.23 193.64L135.73 194.09L132.07 194.54L127.75 194.77L122.92 194.72L117.85 194.37L115.11 194.02L111.61 193.43L109.77 193.05L105.11 191.82L102.27 190.88L98.48 189.37L94.72 187.48L92.88 186.39L91.06 185.19L89.31 183.89L87.59 182.48L85.94 180.94L83.78 178.53L81.47 175.44L80.16 173.37L78.32 169.85L77.52 167.99L76.79 166.03L76.16 163.93L75.65 161.83L75.29 159.61L75.04 157.3L75 155.57L75.02 153.8L75.19 151.99L75.43 150.12L76.21 150.17L75.82 153.57L75.8 156.82L75.99 158.97L76.31 161.05L76.74 163.03L77.28 164.99L77.93 166.85L78.63 168.62L79.44 170.37L81.13 173.48L82.08 174.95L83.9 177.47L85.28 179.12L86.52 180.42L88.29 182.07L90.11 183.56L91.98 184.91L93.95 186.16L95.91 187.27L97.9 188.28L99.96 189.18L103.97 190.69L107.97 191.87L112.68 192.88L117.77 193.61L122.6 193.97L127.29 194.02L131.6 193.8L135.34 193.4L137.11 193.1L139.93 192.46L141.92 191.84L143.45 191.28L144.39 190.83L145.36 190.19L145.63 189.82L145.61 189.6L144.93 189.13L143.69 188.8L140.39 189.15L136.17 189.27L133.79 189.23L129.59 188.92L125.49 188.42L125.64 187.69L128.62 188.09L133.62 188.47L137.67 188.54L139.78 188.47L141.89 188.28L145.24 187.76L148.08 187.01L149.12 186.51L149.8 186.11L150.36 185.66L150.65 185.33L150.89 184.72L150.8 184.15L150.24 183.37L149.08 182.52L148.47 182.22L147.67 182.57L146.62 182.9L145.34 183.18L143.71 183.42L141.63 183.58L139 183.63L135.8 183.58L132.6 183.42L124.42 182.74L124.52 182L132.94 182.71L138.57 182.9L141.09 182.85L142.77 182.76L145.53 182.38L146.79 182.07L147.79 181.7L148.54 181.3L149.1 180.68L149.42 180.19L149.54 179.74L149.51 179.31L149.25 178.82L148.52 178.16L147.3 177.47L145.53 176.84L144.71 176.62L143.4 176.86L141.75 177.02L138.13 177.21L134.23 177.21L130.44 177.1L123.77 176.69L123.84 175.96L131.53 176.39L135.88 176.48L140.15 176.39L142.11 176.27L144.61 175.89L145.53 175.66L146.07 175.42L146.5 175.16L146.77 174.9L146.89 174.64L146.87 174.45L146.72 174.15L146.43 173.81L145.75 173.32L144.88 172.82L143.37 172.16L141.55 171.62L140.36 171.41L136.36 170.94L125.66 170.16L122.51 169.85L117.09 169.09L112.73 168.17L110.59 167.61L108.48 166.92L106.39 166.15L105.11 165.56L103.89 164.87L102.78 164.12L101.78 163.29L100.89 162.39L100.09 161.42L99.38 160.39L98.68 159.3L98.17 158.1L97.76 156.82L97.32 154.53L97.2 152.46L97.22 151.28L97.34 149.74L97.59 148.19L97.95 146.65L98.39 145.12L98.94 143.65L99.6 142.26L100.28 142.57L99.58 144.2L98.94 145.94L98.46 147.74L98.14 149.53L97.95 151.94L97.97 153.07L98.12 154.51L98.39 155.88L98.75 157.15L99.24 158.38L99.84 159.56L100.52 160.65L101.32 161.66L102.22 162.58L103.19 163.43L104.26 164.21L105.45 164.87L106.71 165.46L108.89 166.29L111.13 166.97L113.38 167.58L115.69 168.08L120.27 168.84L123.69 169.24L138.69 170.42L141.77 170.94L143.69 171.48L144.81 171.97L146.14 172.63L146.92 173.13L147.3 173.48L147.77 174.15L147.84 174.43L147.81 174.9L147.47 175.44L146.72 175.96L146.12 176.22L147.18 176.6L148.61 177.31L149.34 177.8L149.75 178.2L150.07 178.63L150.26 179.1L150.34 179.62L150.29 180.14L150.09 180.71L149.73 181.23L149.2 181.74L150.51 182.59L151.28 183.42L151.62 184.08L151.7 184.41L151.67 185.14Z" fill="#000000" fill-opacity="1.000000" fill-rule="evenodd"/>
	<path id="矢量 14" d="M197.39 103.06L196.9 102.8L197.51 101.84L198.14 101.08L198.75 100.49L199.35 100.07L199.98 99.76L200.64 99.57L201.71 99.55L202.8 99.83L203.65 100.33L203.31 100.73L202.58 100.33L202.02 100.14L201.44 100.07L200.74 100.11L200.18 100.28L199.62 100.54L199.06 100.94L198.5 101.46L197.94 102.17L197.39 103.06Z" fill="#3985FF" fill-opacity="1.000000" fill-rule="evenodd"/>
	<path id="矢量 14" d="M196.12 100.56L195.66 100.26L196.54 99.22L197.39 98.39L198.21 97.75L199.09 97.28L199.93 96.98L200.83 96.79L201.73 96.74L202.55 96.83L203.91 97.23L205.22 97.97L204.86 98.37L203.72 97.73L202.46 97.35L201.71 97.28L200.88 97.33L200.08 97.49L199.28 97.78L198.5 98.23L197.73 98.82L196.93 99.59L196.12 100.56Z" fill="#3985FF" fill-opacity="1.000000" fill-rule="evenodd"/>
	<path id="矢量 14" d="M225.15 116.8L224.78 116.4L225.29 115.76L225.56 115.26L225.73 114.7L225.78 114.01L225.68 113.45L225.49 112.88L225.15 112.29L224.68 111.7L224.05 111.06L223.23 110.38L223.54 109.96L224.44 110.69L225.15 111.37L225.65 112.06L225.99 112.69L226.24 113.35L226.31 113.99L226.21 115.03L225.78 116.04L225.15 116.8Z" fill="#3985FF" fill-opacity="1.000000" fill-rule="evenodd"/>
	<path id="矢量 14" d="M227.35 118.62L226.97 118.24L227.77 117.2L228.32 116.04L228.52 115.36L228.59 114.53L228.52 113.75L228.32 112.95L227.98 112.13L227.5 111.28L226.82 110.43L225.92 109.51L226.31 109.13L227.26 110.1L227.96 111.02L228.49 111.91L228.86 112.81L229.08 113.68L229.15 114.56L229.05 115.45L228.86 116.21L228.25 117.48L227.35 118.62Z" fill="#3985FF" fill-opacity="1.000000" fill-rule="evenodd"/>
	<path id="矢量 14" d="M190.46 0L191.39 0.09L192.24 0.3L193.03 0.7L193.76 1.22L194.36 1.83L194.88 2.56L195.27 3.36L195.51 4.24L195.6 5.19L195.6 145.84L0 145.84L0 5.19L0.06 4.24L0.3 3.36L0.69 2.56L1.21 1.83L1.81 1.22L2.54 0.7L3.33 0.3L4.2 0.09L5.14 0L190.46 0ZM195.6 5.19L195.6 17.12L0 17.12L0 5.19M21.28 10.54L20.77 11.43L19.98 12.1L19.53 12.32L18.47 12.53L17.41 12.32L16.5 11.8L15.83 11L15.47 10.02L15.47 8.89L15.62 8.4L16.13 7.49L16.92 6.81L17.41 6.6L18.47 6.42L19.53 6.6L20.4 7.12L21.07 7.91L21.28 8.4L21.49 9.47L21.28 10.54ZM31.58 10.54L31.06 11.43L30.27 12.1L29.82 12.32L28.76 12.53L27.7 12.32L26.79 11.8L26.13 11L25.91 10.54L25.73 9.47L25.91 8.4L26.43 7.49L27.22 6.81L27.7 6.6L28.76 6.42L29.82 6.6L30.7 7.12L31.36 7.91L31.58 8.4L31.79 9.47L31.58 10.54ZM41.87 10.54L41.63 11L40.93 11.8L39.99 12.32L38.9 12.53L37.78 12.32L36.85 11.8L36.15 11L35.76 10.02L35.76 8.89L35.91 8.4L36.45 7.49L37.3 6.81L37.78 6.6L38.9 6.42L39.99 6.6L40.93 7.12L41.63 7.91L41.87 8.4L42.08 9.47L41.87 10.54ZM143.17 32.44L144.11 32.53L144.96 32.75L145.75 33.14L146.47 33.66L147.08 34.27L147.59 35.01L147.99 35.8L148.23 36.69L148.32 37.64L148.32 126.31L148.23 127.25L147.99 128.11L147.59 128.9L147.08 129.64L146.47 130.28L145.75 130.77L144.96 131.17L144.11 131.41L143.17 131.5L39.92 131.5L38.98 131.41L38.1 131.17L37.31 130.77L36.59 130.28L35.98 129.64L35.47 128.9L35.07 128.11L34.83 127.25L34.77 126.31L34.77 37.64L34.83 36.69L35.07 35.8L35.47 35.01L35.98 34.27L36.59 33.66L37.31 33.14L38.1 32.75L38.98 32.53L39.92 32.44L143.17 32.44ZM68.08 40.79L68.71 40.88L69.29 41.12L69.77 41.49L70.17 42.01L70.41 42.59L70.5 43.23L70.41 43.87L70.17 44.46L69.77 44.94L69.29 45.34L68.71 45.59L68.08 45.68L45.79 45.68L45.16 45.59L44.58 45.34L44.1 44.94L43.7 44.46L43.46 43.87L43.4 43.23L43.46 42.59L43.7 42.01L44.1 41.49L44.58 41.12L45.16 40.88L45.79 40.79L68.08 40.79ZM60.11 50.33L60.78 50.42L61.36 50.66L61.84 51.03L62.2 51.55L62.45 52.13L62.54 52.77L62.45 53.41L62.2 53.99L61.84 54.48L61.36 54.88L60.78 55.13L60.11 55.22L45.79 55.22L45.16 55.13L44.58 54.88L44.1 54.48L43.7 53.99L43.46 53.41L43.4 52.77L43.46 52.13L43.7 51.55L44.1 51.03L44.58 50.66L45.16 50.42L45.79 50.33L60.11 50.33ZM93.1 80.13C93.14 80.13 93.18 80.13 93.21 80.13C97.52 80.13 101 76.57 101 72.18C101 67.79 97.52 64.24 93.21 64.24C90.63 64.24 88.33 65.52 86.92 67.51C85.98 68.82 85.43 70.44 85.43 72.18C85.43 76.54 88.85 80.07 93.1 80.13M86.92 67.51C86.88 67.51 86.84 67.51 86.81 67.51C82.51 67.51 79.02 71.06 79.02 75.45C79.02 79.84 82.51 83.4 86.81 83.4C89.39 83.4 91.69 82.11 93.1 80.13C94.04 78.82 94.59 77.2 94.59 75.45C94.59 71.1 91.17 67.57 86.92 67.51M75.15 89.34C74.77 89.83 74.44 90.35 74.16 90.91C73.19 92.85 73.19 95.39 73.19 100.48L73.19 101.85L106.83 101.85L113.24 101.85L113.24 100.48C113.24 95.39 113.24 92.85 112.27 90.91C111.42 89.2 110.06 87.81 108.38 86.94C106.48 85.95 103.98 85.95 99 85.95L87.43 85.95C82.45 85.95 79.95 85.95 78.05 86.94C76.92 87.52 75.93 88.35 75.15 89.34M106.83 101.85C106.83 102.44 106.83 103.07 106.83 103.75L106.83 105.12L66.78 105.12L66.78 103.75C66.78 98.66 66.78 96.12 67.75 94.18C68.6 92.47 69.97 91.08 71.64 90.21C72.59 89.72 73.68 89.47 75.15 89.34C76.64 89.22 78.51 89.22 81.02 89.22L92.59 89.22C97.58 89.22 100.07 89.22 101.97 90.21C103.65 91.08 105.01 92.47 105.86 94.18C106.7 95.86 106.81 98 106.83 101.85M219.81 110.62L219.44 110.47L219.69 108.92L219.66 107.69L219.54 107.12L219.32 106.6L218.96 106.18L218.4 105.78L217.82 105.52L217.24 105.4L216.6 105.42L215.95 105.57L215.34 105.85L214.25 106.58L214.54 105.38L214.64 104.17L214.57 103.61L214.42 103.11L214.13 102.64L213.77 102.26L213.28 102.03L212.55 101.84L211.87 101.77L211.19 101.79L209.91 102.12L208.43 102.88L207.63 103.44L206.34 104.65L205.47 105.61L204.98 105.33L204.28 105.09L203.67 105.05L202.99 105.07L202.22 105.24L201.37 105.52L200.42 105.97L199.33 106.58L198.09 107.43L197.34 108.04L195.79 109.74L194.67 111.25L193.48 113.02L188.53 121.16L187.15 123.29L185.67 125.44L184.09 127.49L182.39 129.47L181.2 130.72L179.94 131.88L178.63 132.99L177.25 133.98L175.79 134.88L174.26 135.65L172.49 136.27L170.87 136.46L169.8 136.41L168.78 136.27L167.78 136.01L166.84 135.63L165.14 134.76L164 134L163.05 133.27L162.23 132.52L161.18 131.43L160.5 131.95L161.62 133.13L163.51 134.71L165.62 136.01L167.61 136.83L168.66 137.12L169.77 137.28L170.94 137.31L172.71 137.09L173.66 136.81L174.63 136.43L176.2 135.63L177.71 134.71L179.12 133.67L180.47 132.56L181.76 131.36L183 130.09L184.72 128.08L186.35 125.98L187.85 123.83L189.26 121.66L194.18 113.54L195.35 111.8L196.42 110.33L197.92 108.7L198.62 108.11L200.01 107.17L201.1 106.58L202.12 106.16L202.89 105.97L203.6 105.9L204.08 105.92L204.64 106.11L204.98 106.32L195.2 121.24L195.93 121.68L205.88 106.53L207.38 104.81L208.11 104.17L209.59 103.21L210.88 102.73L211.56 102.62L212.26 102.66L212.96 102.83L213.23 102.97L213.6 103.42L213.74 103.91L213.77 104.5L213.57 105.8L213.18 107.1L212.77 108.14L203.06 123.36L203.82 123.81L213.38 108.8L213.67 108.44L214.91 107.17L215.46 106.75L216.09 106.44L216.73 106.25L217.16 106.25L217.57 106.34L217.96 106.51L218.38 106.82L218.57 107.05L218.81 107.83L218.84 108.54L218.76 109.29L218.47 110.69L208.79 125.55L209.52 126L219.13 111.28L219.54 111.51L219.71 111.75L219.88 112.24L219.95 112.86L219.9 113.87L219.71 115.05L219.27 116.8L218.74 118.45L217.82 120.72L216.73 123.1L215.22 125.93L214.13 127.82L211.41 132.02L209.88 134.14L208.16 136.32L206.27 138.58L204.28 140.75L202.09 142.95L199.74 145.14L195.95 148.28L191.73 151.32L189.52 152.74L187.2 154.11L184.74 155.43L182.17 156.71L180.33 157.48L178.58 158.07L176.88 158.5L175.26 158.76L173.68 158.85L172.35 158.83L171.04 158.71L169.75 158.45L168.49 158.1L167.25 157.65L166.04 157.06L164.87 156.37L163.73 155.62L162.62 154.75L161.55 153.78L160.24 152.39L158.98 150.9L157.79 149.27L155.63 145.8L154.66 143.99L153.35 141.15L152.16 138.32L151.11 135.47L149.44 130.04L148.25 125.32L147.11 119.44L146.24 119.54L146.82 122.82L148.08 128.43L149.42 133.13L150.24 135.65L151.31 138.6L152.4 141.29L153.54 143.75L154.68 145.97L155.85 147.97L157.03 149.77L158.22 151.39L159.44 152.84L160.65 154.11L161.86 155.24L163.1 156.23L164.36 157.08L165.62 157.81L166.86 158.4L168.1 158.88L169.36 159.25L170.65 159.51L171.96 159.66L173.29 159.73L174.72 159.66L176.18 159.49L177.71 159.18L179.26 158.76L180.86 158.19L182.56 157.46L185.16 156.19L187.63 154.86L189.99 153.47L192.22 152.03L196.51 148.94L200.32 145.78L202.72 143.54L204.93 141.32L206.95 139.1L208.86 136.81L210.59 134.62L212.14 132.47L213.62 130.27L216.02 126.29L217.94 122.56L219.56 118.71L220.12 117.03L220.54 115.45L220.75 114.18L220.83 113.19L220.78 112.39L220.66 111.77L220.44 111.28L220.17 110.92L219.81 110.62ZM130.71 94.12L128.69 83.57L127.84 83.71L129.64 93.25L126.7 93.2L126.68 94.05L130.71 94.12ZM124.69 97.21L124.84 96.36L123.79 96.13L123.02 95.84L122.41 95.49L121.97 95.09L121.66 94.62L121.46 94.14L121.41 93.15L121.49 92.73L121.83 91.78L121.05 91.38L120.76 92.09L120.54 93.13L120.52 93.74L120.61 94.36L120.86 94.99L121.22 95.56L121.73 96.03L122.36 96.46L123.16 96.83L124.18 97.12L124.69 97.21ZM115.03 96.98L115.4 96.98L115.74 96.83L115.98 96.62L116.15 96.31L116.1 93.88L116.37 90.63L116.49 90.01L116.71 89.54L116.95 89.14L117.29 88.83L117.82 88.53L118.48 88.29L119.28 88.15L120.56 88.08L127.33 88.5L129.23 88.53L131.75 88.36L133.01 88.15L134.25 87.82L135.46 87.37L136.65 86.8L137.48 86.28L138.28 85.67L139.08 84.96L139.86 84.11L140.53 83.19L141.04 82.32L141.46 81.45L141.7 80.62L141.87 79.75L141.94 78.87L141.92 78.05L141.77 77.22L141.48 76.14L141.04 75.12L140.49 74.11L139.83 73.16L139.1 72.29L138.28 71.46L136.48 70.02L134.59 68.94L132.77 68.25L131.87 68.07L131.07 68L130.37 68.04L129.86 68.18L129.42 68.37L129.06 68.66L128.77 69.01L128.33 69.74L127.89 70.92L127.82 71.49L127.87 72.41L128.6 74.65L128.45 75.07L128.28 75.24L127.48 75.62L126.82 75.78L121.41 76.49L119.67 76.8L117.92 77.2L116.17 77.74L115.03 78.19L112.9 79.35L111.9 80.03L111.03 80.83L110.23 81.75L109.69 82.49L109.26 83.31L108.87 84.21L108.58 85.2L108.36 86.19L108.26 87.3L108.24 88.53L108.34 89.9L108.46 90.51L108.67 91.12L108.99 91.67L109.4 92.18L110.88 93.72L112.75 95.42L114.67 96.83L115.03 96.98ZM137.36 100.18L136.48 101.36L135.49 102.45L134.39 103.44L133.23 104.31L131.97 105.07L130.63 105.71L129.18 106.23L127.75 106.58L126.34 106.82L124.93 106.91L123.52 106.89L122.14 106.72L120.78 106.44L119.47 106.06L118.21 105.54L116.97 104.93L115.83 104.22L114.74 103.42L113.72 102.5L112.78 101.48L111.95 100.4L111.22 99.22L110.57 97.97L110.32 97.16L109.82 97.23L108.87 97.12L108.07 96.72L107.41 96.03L106.95 95.11L106.83 94.59L106.81 94.07L107.05 93.08L107.61 92.21L108 91.88L108.94 91.38L109.77 91.24L109.74 90.82L109.82 90.39L109.4 90.41L109.62 89.09L109.96 87.79L110.45 86.52L111.03 85.25L111.81 83.97L112.68 82.79L113.65 81.71L114.74 80.74L115.93 79.87L117.17 79.11L118.53 78.47L119.96 77.93L121.12 77.62L123.43 77.27L125.81 77.29L126.99 77.43L129.32 77.98L130.46 78.4L131.58 78.9L132.92 79.65L134.13 80.5L135.24 81.47L136.24 82.51L137.14 83.67L137.91 84.89L138.57 86.19L139.1 87.58L139.49 89.05L139.73 90.46L139.83 91.9L139.78 93.34L139.59 94.78L139.25 96.17L138.76 97.54L138.11 98.91L137.36 100.18ZM139.44 86.02L138.86 84.77L138.16 83.62L137.36 82.49L136.46 81.47L135.46 80.5L134.39 79.63L133.23 78.85L131.99 78.14L130.68 77.58L129.37 77.1L128.01 76.75L126.63 76.51L125.25 76.4L123.86 76.4L122.46 76.51L121.07 76.77L119.69 77.13L118.36 77.6L117.07 78.19L115.86 78.87L114.72 79.65L113.65 80.53L112.68 81.49L111.78 82.53L110.96 83.67L110.25 84.87L109.6 86.26L109.09 87.7L108.72 89.14L108.51 90.63L107.87 90.91L107.34 91.29L106.88 91.74L106.49 92.26L106.2 92.82L106.03 93.44L105.93 94.07L105.98 94.71L106.13 95.37L106.59 96.34L106.9 96.74L107.49 97.26L108.14 97.66L108.87 97.92L109.65 98.04L110.23 99.22L110.86 100.33L111.56 101.36L112.36 102.33L113.24 103.23L114.18 104.06L115.15 104.81L116.22 105.49L117.31 106.08L118.45 106.58L119.64 107.01L120.86 107.34L120.86 113.38L121.73 113.38L121.73 107.52L123.14 107.71L124.59 107.76L126.02 107.71L127.46 107.52L127.46 113.38L128.35 113.38L128.35 107.34L129.45 107.03L130.8 106.56L132.07 105.97L133.28 105.28L134.42 104.5L135.49 103.63L136.48 102.69L137.38 101.62L138.18 100.52L138.88 99.29L139.49 98.04L139.98 96.74L140.34 95.44L140.58 94.1L140.7 92.75L140.7 91.38L140.56 90.04L140.32 88.69L139.95 87.35L139.44 86.02ZM110.35 92.66L109.86 92.49L109.31 92.42L108.65 92.44L107.87 92.59L108.09 93.41L108.84 93.27L109.4 93.27L109.86 93.39L110.23 93.6L110.59 93.98L110.81 94.43L110.93 94.92L111 95.72L111.88 95.77L111.78 94.69L111.66 94.24L111.17 93.34L110.79 92.94L110.35 92.66ZM147.84 174.43L147.81 174.9L147.47 175.44L146.72 175.96L146.12 176.22L147.18 176.6L148.61 177.31L149.34 177.8L149.75 178.2L150.07 178.63L150.26 179.1L150.34 179.62L150.29 180.14L150.09 180.71L149.73 181.23L149.2 181.74L150.51 182.59L151.28 183.42L151.62 184.08L151.7 184.41L151.67 185.14L151.5 185.59L151.21 186.02L150.8 186.44L150.19 186.87L149.39 187.29L148.3 187.71L145.58 188.61L146.16 189.08L146.36 189.37L146.43 189.72L146.38 190L146.19 190.41L145.65 190.92L144.51 191.61L142.21 192.51L140.15 193.17L138.23 193.64L135.73 194.09L132.07 194.54L127.75 194.77L122.92 194.72L117.85 194.37L115.11 194.02L111.61 193.43L109.77 193.05L105.11 191.82L102.27 190.88L98.48 189.37L94.72 187.48L92.88 186.39L91.06 185.19L89.31 183.89L87.59 182.48L85.94 180.94L83.78 178.53L81.47 175.44L80.16 173.37L78.32 169.85L77.52 167.99L76.79 166.03L76.16 163.93L75.65 161.83L75.29 159.61L75.04 157.3L75 155.57L75.02 153.8L75.19 151.99L75.43 150.12L75.67 147.76L75.99 145.57L76.38 143.47L76.86 141.51L77.4 139.64L78.25 137.31L79.19 135.16L80.21 133.13L81.33 131.27L82.57 129.45L83.88 127.75L85.23 126.19L86.67 124.73L88.17 123.36L89.72 122.09L91.33 120.91L92.93 119.82L95.16 118.5L97.39 117.34L99.62 116.3L101.9 115.41L104.11 114.6L106.25 113.94L110.4 112.9L114.98 112.08L117.19 111.8L119.21 111.61L121.73 111.49L122.31 112.24L122.85 112.76L123.33 113.09L123.86 113.31L124.37 113.4L124.86 113.38L125.59 113.21L126.19 112.9L126.73 112.55L127.46 111.87L130.08 112.36L132.55 112.95L134.93 113.61L137.19 114.34L139.47 115.17L143.64 116.96L148.08 119.3L150.39 120.67L152.5 122.06L154.56 123.52L157.98 126.24L160.24 128.22L161.96 129.9L163.44 131.45L165.19 133.46L160.43 155.6L152.38 153.61L152.42 163.95L126.95 163.95L127.75 169.59L136.51 170.2L138.69 170.42L140.56 170.7L142.82 171.2L144.81 171.97M138.69 170.42L141.77 170.94L143.69 171.48L144.81 171.97L146.14 172.63L146.92 173.13L147.3 173.48L147.62 173.86L147.84 174.43M146.14 172.63L147.3 173.48M147.3 173.48L147.77 174.15L147.84 174.43L147.86 174.74L147.69 175.16L146.5 175.16M75.43 150.12L76.21 150.17L75.82 153.57L75.8 156.82L75.99 158.97L76.31 161.05L76.74 163.03L77.28 164.99L77.93 166.85L78.63 168.62L79.44 170.37L81.13 173.48L82.08 174.95L83.9 177.47L85.28 179.12L86.52 180.42L88.29 182.07L90.11 183.56L91.98 184.91L93.95 186.16L95.91 187.27L97.9 188.28L99.96 189.18L103.97 190.69L107.97 191.87L112.68 192.88L117.77 193.61L122.6 193.97L127.29 194.02L131.6 193.8L135.34 193.4L137.11 193.1L139.93 192.46L141.92 191.84L143.45 191.28L144.39 190.83L145.36 190.19L145.63 189.82L145.61 189.6L144.93 189.13L143.69 188.8L140.39 189.15L136.17 189.27L133.79 189.23L129.59 188.92L125.49 188.42L125.64 187.69L128.62 188.09L133.62 188.47L137.67 188.54L139.78 188.47L141.89 188.28L145.24 187.76L148.08 187.01L149.12 186.51L149.8 186.11L150.36 185.66L150.65 185.33L150.89 184.72L150.8 184.15L150.24 183.37L149.08 182.52L148.47 182.22L147.67 182.57L146.62 182.9L145.34 183.18L143.71 183.42L141.63 183.58L139 183.63L135.8 183.58L132.6 183.42L124.42 182.74L124.52 182L132.94 182.71L138.57 182.9L141.09 182.85L142.77 182.76L145.53 182.38L146.79 182.07L147.79 181.7L148.54 181.3L149.1 180.68L149.42 180.19L149.54 179.74L149.51 179.31L149.25 178.82L148.52 178.16L147.3 177.47L145.53 176.84L144.71 176.62L143.4 176.86L141.75 177.02L138.13 177.21L134.23 177.21L130.44 177.1L123.77 176.69L123.84 175.96L131.53 176.39L135.88 176.48L140.15 176.39L142.11 176.27L144.61 175.89L145.53 175.66L146.07 175.42L146.5 175.16L146.77 174.9L146.89 174.64L146.87 174.45L146.72 174.15L146.43 173.81L145.75 173.32L144.88 172.82L143.37 172.16L141.55 171.62L140.36 171.41L136.36 170.94M146.77 174.9L146.87 174.45M141.55 171.62L138.52 171.15L136.36 170.94L125.66 170.16L122.51 169.85L117.09 169.09L112.73 168.17L110.59 167.61L108.48 166.92L106.39 166.15L105.11 165.56L103.89 164.87L102.78 164.12L101.78 163.29L100.89 162.39L100.09 161.42L99.38 160.39L98.68 159.3L98.17 158.1L97.76 156.82L97.32 154.53L97.2 152.46L97.22 151.28L97.34 149.74L97.59 148.19L97.95 146.65L98.39 145.12L98.94 143.65L99.6 142.26L100.28 142.57L99.58 144.2L98.94 145.94L98.46 147.74L98.14 149.53L97.95 151.94L97.97 153.07L98.12 154.51L98.39 155.88L98.75 157.15L99.24 158.38L99.84 159.56L100.52 160.65L101.32 161.66L102.22 162.58L103.19 163.43L104.26 164.21L105.45 164.87L106.71 165.46L108.89 166.29L111.13 166.97L113.38 167.58L115.69 168.08L120.27 168.84L123.69 169.24L138.69 170.42M108.48 166.92L105.93 165.96L103.89 164.87M99.38 160.39L98.8 159.28L98.29 158.07L97.88 156.78L97.56 155.41L97.39 151.28L75.43 150.12M196.9 102.8L197.51 101.84L198.14 101.08L198.75 100.49L199.35 100.07L199.98 99.76L200.64 99.57L201.71 99.55L202.8 99.83L203.65 100.33L203.31 100.73L202.58 100.33L202.02 100.14L201.44 100.07L200.74 100.11L200.18 100.28L199.62 100.54L199.06 100.94L198.5 101.46L197.94 102.17L197.39 103.06L196.9 102.8ZM195.66 100.26L196.54 99.22L197.39 98.39L198.21 97.75L199.09 97.28L199.93 96.98L200.83 96.79L201.73 96.74L202.55 96.83L203.91 97.23L205.22 97.97L204.86 98.37L203.72 97.73L202.46 97.35L201.71 97.28L200.88 97.33L200.08 97.49L199.28 97.78L198.5 98.23L197.73 98.82L196.93 99.59L196.12 100.56L195.66 100.26ZM224.78 116.4L225.29 115.76L225.56 115.26L225.73 114.7L225.78 114.01L225.68 113.45L225.49 112.88L225.15 112.29L224.68 111.7L224.05 111.06L223.23 110.38L223.54 109.96L224.44 110.69L225.15 111.37L225.65 112.06L225.99 112.69L226.24 113.35L226.31 113.99L226.21 115.03L225.78 116.04L225.15 116.8L224.78 116.4ZM226.97 118.24L227.77 117.2L228.32 116.04L228.52 115.36L228.59 114.53L228.52 113.75L228.32 112.95L227.98 112.13L227.5 111.28L226.82 110.43L225.92 109.51L226.31 109.13L227.26 110.1L227.96 111.02L228.49 111.91L228.86 112.81L229.08 113.68L229.15 114.56L229.05 115.45L228.86 116.21L228.25 117.48L227.35 118.62L226.97 118.24Z" stroke="#000000" stroke-opacity="0" stroke-width="1.000000"/>
</svg>
