<svg width="237.153320" height="202.775574" viewBox="0 0 237.153 202.776" fill="none" xmlns="http://www.w3.org/2000/svg" xmlns:xlink="http://www.w3.org/1999/xlink">
	<desc>
			Created with Pixso.
	</desc>
	<defs>
		<filter id="filter_124_446_dd" x="0.000000" y="0.000000" width="237.153320" height="202.775574" filterUnits="userSpaceOnUse" color-interpolation-filters="sRGB">
			<feFlood flood-opacity="0" result="BackgroundImageFix"/>
			<feColorMatrix in="SourceAlpha" type="matrix" values="0 0 0 0 0 0 0 0 0 0 0 0 0 0 0 0 0 0 127 0" result="hardAlpha"/>
			<feOffset dx="0" dy="4"/>
			<feGaussianBlur stdDeviation="1.33333"/>
			<feComposite in2="hardAlpha" operator="out" k2="-1" k3="1"/>
			<feColorMatrix type="matrix" values="0 0 0 0 0 0 0 0 0 0 0 0 0 0 0 0 0 0 0.25 0"/>
			<feBlend mode="normal" in2="BackgroundImageFix" result="effect_dropShadow_1"/>
			<feBlend mode="normal" in="SourceGraphic" in2="effect_dropShadow_1" result="shape"/>
		</filter>
	</defs>
	<g filter="url(#filter_124_446_dd)">
		<path id="矢量 14" d="M9.14 0L194.46 0L195.39 0.09L196.24 0.3L197.03 0.7L197.76 1.22L198.36 1.83L198.88 2.56L199.27 3.36L199.51 4.24L199.6 5.19L199.6 145.84L4 145.84L4 5.19L4.06 4.24L4.3 3.36L4.69 2.56L5.21 1.83L5.81 1.22L6.54 0.7L7.33 0.3L8.2 0.09L9.14 0Z" fill="#EEF3FE" fill-opacity="1.000000" fill-rule="nonzero"/>
		<path id="矢量 14" d="M9.14 0L194.46 0L195.39 0.09L196.24 0.3L197.03 0.7L197.76 1.22L198.36 1.83L198.88 2.56L199.27 3.36L199.51 4.24L199.6 5.19L199.6 17.12L4 17.12L4 5.19L4.06 4.24L4.3 3.36L4.69 2.56L5.21 1.83L5.81 1.22L6.54 0.7L7.33 0.3L8.2 0.09L9.14 0Z" fill="#2F7FFF" fill-opacity="1.000000" fill-rule="nonzero"/>
		<path id="矢量 14" d="M25.49 9.47L25.28 10.54L24.77 11.43L23.98 12.1L23.53 12.32L22.47 12.53L21.41 12.32L20.5 11.8L19.83 11L19.47 10.02L19.47 8.89L19.62 8.4L20.13 7.49L20.92 6.81L21.41 6.6L22.47 6.42L23.53 6.6L24.4 7.12L25.07 7.91L25.28 8.4L25.49 9.47Z" fill="#FFFFFF" fill-opacity="1.000000" fill-rule="nonzero"/>
		<path id="矢量 14" d="M35.79 9.47L35.58 10.54L35.06 11.43L34.27 12.1L33.82 12.32L32.76 12.53L31.7 12.32L30.79 11.8L30.13 11L29.91 10.54L29.73 9.47L29.91 8.4L30.43 7.49L31.22 6.81L31.7 6.6L32.76 6.42L33.82 6.6L34.7 7.12L35.36 7.91L35.58 8.4L35.79 9.47Z" fill="#FFFFFF" fill-opacity="1.000000" fill-rule="nonzero"/>
		<path id="矢量 14" d="M46.08 9.47L45.87 10.54L45.63 11L44.93 11.8L43.99 12.32L42.9 12.53L41.78 12.32L40.85 11.8L40.15 11L39.76 10.02L39.76 8.89L39.91 8.4L40.45 7.49L41.3 6.81L41.78 6.6L42.9 6.42L43.99 6.6L44.93 7.12L45.63 7.91L45.87 8.4L46.08 9.47Z" fill="#FFFFFF" fill-opacity="1.000000" fill-rule="nonzero"/>
		<path id="矢量 14" d="M43.92 32.44L147.17 32.44L148.11 32.53L148.96 32.75L149.75 33.14L150.47 33.66L151.08 34.27L151.59 35.01L151.99 35.8L152.23 36.69L152.32 37.64L152.32 126.31L152.23 127.25L151.99 128.11L151.59 128.9L151.08 129.64L150.47 130.28L149.75 130.77L148.96 131.17L148.11 131.41L147.17 131.5L43.92 131.5L42.98 131.41L42.1 131.17L41.31 130.77L40.59 130.28L39.98 129.64L39.47 128.9L39.07 128.11L38.83 127.25L38.77 126.31L38.77 37.64L38.83 36.69L39.07 35.8L39.47 35.01L39.98 34.27L40.59 33.66L41.31 33.14L42.1 32.75L42.98 32.53L43.92 32.44Z" fill="#FFFFFF" fill-opacity="1.000000" fill-rule="nonzero"/>
		<path id="矢量 14" d="M49.79 40.79L72.08 40.79L72.71 40.88L73.29 41.12L73.77 41.49L74.17 42.01L74.41 42.59L74.5 43.23L74.41 43.87L74.17 44.46L73.77 44.94L73.29 45.34L72.71 45.59L72.08 45.68L49.79 45.68L49.16 45.59L48.58 45.34L48.1 44.94L47.7 44.46L47.46 43.87L47.4 43.23L47.46 42.59L47.7 42.01L48.1 41.49L48.58 41.12L49.16 40.88L49.79 40.79Z" fill="#CED7EC" fill-opacity="1.000000" fill-rule="nonzero"/>
		<path id="矢量 14" d="M49.79 50.33L64.11 50.33L64.78 50.42L65.36 50.66L65.84 51.03L66.2 51.55L66.45 52.13L66.54 52.77L66.45 53.41L66.2 53.99L65.84 54.48L65.36 54.88L64.78 55.13L64.11 55.22L49.79 55.22L49.16 55.13L48.58 54.88L48.1 54.48L47.7 53.99L47.46 53.41L47.4 52.77L47.46 52.13L47.7 51.55L48.1 51.03L48.58 50.66L49.16 50.42L49.79 50.33Z" fill="#CED7EC" fill-opacity="1.000000" fill-rule="nonzero"/>
		<path id="矢量 14" d="M224.17 110.92L223.81 110.62L223.44 110.47L223.69 108.92L223.66 107.69L223.54 107.12L223.32 106.6L222.96 106.18L222.4 105.78L221.82 105.52L221.24 105.4L220.6 105.42L219.95 105.57L219.34 105.85L218.25 106.58L218.54 105.38L218.64 104.17L218.57 103.61L218.42 103.11L218.13 102.64L217.77 102.26L217.28 102.03L216.55 101.84L215.87 101.77L215.19 101.79L213.91 102.12L212.43 102.88L211.63 103.44L210.34 104.65L209.47 105.61L208.98 105.33L208.28 105.09L207.67 105.05L206.99 105.07L206.22 105.24L205.37 105.52L204.42 105.97L203.33 106.58L202.09 107.43L201.34 108.04L199.79 109.74L198.67 111.25L197.48 113.02L192.53 121.16L191.15 123.29L189.67 125.44L188.09 127.49L186.39 129.47L185.2 130.72L183.94 131.88L182.63 132.99L181.25 133.98L179.79 134.88L178.26 135.65L176.49 136.27L174.87 136.46L173.8 136.41L172.78 136.27L171.78 136.01L170.84 135.63L169.14 134.76L168 134L167.05 133.27L166.23 132.52L165.18 131.43L164.5 131.95L165.62 133.13L167.51 134.71L169.62 136.01L171.61 136.83L172.66 137.12L173.77 137.28L174.94 137.31L176.71 137.09L177.66 136.81L178.63 136.43L180.2 135.63L181.71 134.71L183.12 133.67L184.47 132.56L185.76 131.36L187 130.09L188.72 128.08L190.35 125.98L191.85 123.83L193.26 121.66L198.18 113.54L199.35 111.8L200.42 110.33L201.92 108.7L202.62 108.11L204.01 107.17L205.1 106.58L206.12 106.16L206.89 105.97L207.6 105.9L208.08 105.92L208.64 106.11L208.98 106.32L199.2 121.24L199.93 121.68L209.88 106.53L211.38 104.81L212.11 104.17L213.59 103.21L214.88 102.73L215.56 102.62L216.26 102.66L216.96 102.83L217.23 102.97L217.6 103.42L217.74 103.91L217.77 104.5L217.57 105.8L217.18 107.1L216.77 108.14L207.06 123.36L207.82 123.81L217.38 108.8L217.67 108.44L218.91 107.17L219.46 106.75L220.09 106.44L220.73 106.25L221.16 106.25L221.57 106.34L221.96 106.51L222.38 106.82L222.57 107.05L222.81 107.83L222.84 108.54L222.76 109.29L222.47 110.69L212.79 125.55L213.52 126L223.13 111.28L223.54 111.51L223.71 111.75L223.88 112.24L223.95 112.86L223.9 113.87L223.71 115.05L223.27 116.8L222.74 118.45L221.82 120.72L220.73 123.1L219.22 125.93L218.13 127.82L215.41 132.02L213.88 134.14L212.16 136.32L210.27 138.58L208.28 140.75L206.09 142.95L203.74 145.14L199.95 148.28L195.73 151.32L193.52 152.74L191.2 154.11L188.74 155.43L186.17 156.71L184.33 157.48L182.58 158.07L180.88 158.5L179.26 158.76L177.68 158.85L176.35 158.83L175.04 158.71L173.75 158.45L172.49 158.1L171.25 157.65L170.04 157.06L168.87 156.37L167.73 155.62L166.62 154.75L165.55 153.78L164.24 152.39L162.98 150.9L161.79 149.27L159.63 145.8L158.66 143.99L157.35 141.15L156.16 138.32L155.11 135.47L153.44 130.04L152.25 125.32L151.11 119.44L150.24 119.54L150.82 122.82L152.08 128.43L153.42 133.13L154.24 135.65L155.31 138.6L156.4 141.29L157.54 143.75L158.68 145.97L159.85 147.97L161.03 149.77L162.22 151.39L163.44 152.84L164.65 154.11L165.86 155.24L167.1 156.23L168.36 157.08L169.62 157.81L170.86 158.4L172.1 158.88L173.36 159.25L174.65 159.51L175.96 159.66L177.29 159.73L178.72 159.66L180.18 159.49L181.71 159.18L183.26 158.76L184.86 158.19L186.56 157.46L189.16 156.19L191.63 154.86L193.99 153.47L196.22 152.03L200.51 148.94L204.32 145.78L206.72 143.54L208.93 141.32L210.95 139.1L212.86 136.81L214.59 134.62L216.14 132.47L217.62 130.27L220.02 126.29L221.94 122.56L223.56 118.71L224.12 117.03L224.54 115.45L224.75 114.18L224.83 113.19L224.78 112.39L224.66 111.77L224.44 111.28L224.17 110.92Z" fill="#000000" fill-opacity="1.000000" fill-rule="evenodd"/>
		<path id="矢量 14" d="M130.68 94.05L134.71 94.12L132.69 83.57L131.84 83.71L133.64 93.25L130.7 93.2L130.68 94.05Z" fill="#000000" fill-opacity="1.000000" fill-rule="evenodd"/>
		<path id="矢量 14" d="M128.18 97.12L128.69 97.21L128.84 96.36L127.79 96.13L127.02 95.84L126.41 95.49L125.97 95.09L125.66 94.62L125.46 94.14L125.41 93.15L125.49 92.73L125.83 91.78L125.05 91.38L124.76 92.09L124.54 93.13L124.52 93.74L124.61 94.36L124.86 94.99L125.22 95.56L125.73 96.03L126.36 96.46L127.16 96.83L128.18 97.12Z" fill="#000000" fill-opacity="1.000000" fill-rule="evenodd"/>
		<path id="矢量 14" d="M118.67 96.83L119.03 96.98L119.4 96.98L119.74 96.83L119.98 96.62L120.15 96.31L120.1 93.88L120.37 90.63L120.49 90.01L120.71 89.54L120.95 89.14L121.29 88.83L121.82 88.53L122.48 88.29L123.28 88.15L124.56 88.08L131.33 88.5L133.23 88.53L135.75 88.36L137.01 88.15L138.25 87.82L139.46 87.37L140.65 86.8L141.48 86.28L142.28 85.67L143.08 84.96L143.85 84.11L144.53 83.19L145.04 82.32L145.46 81.45L145.7 80.62L145.87 79.75L145.94 78.87L145.92 78.05L145.77 77.22L145.48 76.14L145.04 75.12L144.49 74.11L143.83 73.16L143.1 72.29L142.28 71.46L140.48 70.02L138.59 68.94L136.77 68.25L135.87 68.07L135.07 68L134.37 68.04L133.86 68.18L133.42 68.37L133.06 68.66L132.77 69.01L132.33 69.74L131.89 70.92L131.82 71.49L131.87 72.41L132.6 74.65L132.45 75.07L132.28 75.24L131.48 75.62L130.82 75.78L125.41 76.49L123.67 76.8L121.92 77.2L120.17 77.74L119.03 78.19L116.9 79.35L115.9 80.03L115.03 80.83L114.23 81.75L113.69 82.49L113.26 83.31L112.87 84.21L112.58 85.2L112.36 86.19L112.26 87.3L112.24 88.53L112.34 89.9L112.46 90.51L112.67 91.12L112.99 91.67L113.4 92.18L114.88 93.72L116.75 95.42L118.67 96.83Z" fill="#000000" fill-opacity="1.000000" fill-rule="evenodd"/>
		<path id="矢量 14" d="M142.11 98.91L141.36 100.18L140.48 101.36L139.49 102.45L138.39 103.44L137.23 104.31L135.97 105.07L134.63 105.71L133.18 106.23L131.75 106.58L130.34 106.82L128.93 106.91L127.52 106.89L126.14 106.72L124.78 106.44L123.47 106.06L122.21 105.54L120.97 104.93L119.83 104.22L118.74 103.42L117.72 102.5L116.78 101.48L115.95 100.4L115.22 99.22L114.57 97.97L114.32 97.16L113.82 97.23L112.87 97.12L112.07 96.72L111.41 96.03L110.95 95.11L110.83 94.59L110.81 94.07L111.05 93.08L111.61 92.21L112 91.88L112.94 91.38L113.77 91.24L113.74 90.82L113.82 90.39L113.4 90.41L113.62 89.09L113.96 87.79L114.45 86.52L115.03 85.25L115.81 83.97L116.68 82.79L117.65 81.71L118.74 80.74L119.93 79.87L121.17 79.11L122.53 78.47L123.96 77.93L125.12 77.62L127.43 77.27L129.81 77.29L130.99 77.43L133.32 77.98L134.46 78.4L135.58 78.9L136.92 79.65L138.13 80.5L139.24 81.47L140.24 82.51L141.14 83.67L141.91 84.89L142.57 86.19L143.1 87.58L143.49 89.05L143.73 90.46L143.83 91.9L143.78 93.34L143.59 94.78L143.25 96.17L142.76 97.54L142.11 98.91ZM143.95 87.35L143.44 86.02L142.86 84.77L142.16 83.62L141.36 82.49L140.46 81.47L139.46 80.5L138.39 79.63L137.23 78.85L135.99 78.14L134.68 77.58L133.37 77.1L132.01 76.75L130.63 76.51L129.25 76.4L127.86 76.4L126.46 76.51L125.07 76.77L123.69 77.13L122.36 77.6L121.07 78.19L119.86 78.87L118.72 79.65L117.65 80.53L116.68 81.49L115.78 82.53L114.96 83.67L114.25 84.87L113.6 86.26L113.09 87.7L112.72 89.14L112.51 90.63L111.87 90.91L111.34 91.29L110.88 91.74L110.49 92.26L110.2 92.82L110.03 93.44L109.93 94.07L109.98 94.71L110.13 95.37L110.59 96.34L110.9 96.74L111.49 97.26L112.14 97.66L112.87 97.92L113.65 98.04L114.23 99.22L114.86 100.33L115.56 101.36L116.36 102.33L117.24 103.23L118.18 104.06L119.15 104.81L120.22 105.49L121.31 106.08L122.45 106.58L123.64 107.01L124.86 107.34L124.86 113.38L125.73 113.38L125.73 107.52L127.14 107.71L128.59 107.76L130.02 107.71L131.46 107.52L131.46 113.38L132.35 113.38L132.35 107.34L133.45 107.03L134.8 106.56L136.07 105.97L137.28 105.28L138.42 104.5L139.49 103.63L140.48 102.69L141.38 101.62L142.18 100.52L142.88 99.29L143.49 98.04L143.98 96.74L144.34 95.44L144.58 94.1L144.7 92.75L144.7 91.38L144.56 90.04L144.32 88.69L143.95 87.35Z" fill="#000000" fill-opacity="1.000000" fill-rule="evenodd"/>
		<path id="矢量 14" d="M114.79 92.94L114.35 92.66L113.86 92.49L113.31 92.42L112.65 92.44L111.87 92.59L112.09 93.41L112.84 93.27L113.4 93.27L113.86 93.39L114.23 93.6L114.59 93.98L114.81 94.43L114.93 94.92L115 95.72L115.88 95.77L115.78 94.69L115.66 94.24L115.17 93.34L114.79 92.94Z" fill="#000000" fill-opacity="1.000000" fill-rule="evenodd"/>
		<path id="矢量 14" d="M164.43 155.6L156.38 153.61L156.42 163.95L130.95 163.95L131.75 169.59L140.51 170.2L142.69 170.42L144.56 170.7L146.82 171.2L148.81 171.97L150.14 172.63L151.3 173.48L151.62 173.86L151.84 174.43L151.86 174.74L151.69 175.16L150.5 175.16L150.77 174.9L150.87 174.45L150.72 174.15L150.43 173.81L149.75 173.32L148.88 172.82L147.37 172.16L145.55 171.62L142.52 171.15L140.36 170.94L129.66 170.16L126.51 169.85L121.09 169.09L116.73 168.17L114.59 167.61L112.48 166.92L109.93 165.96L107.89 164.87L106.78 164.12L105.78 163.29L104.89 162.39L104.09 161.42L103.38 160.39L102.8 159.28L102.29 158.07L101.88 156.78L101.56 155.41L101.39 151.28L79.43 150.12L79.67 147.76L79.99 145.57L80.38 143.47L80.86 141.51L81.4 139.64L82.25 137.31L83.19 135.16L84.21 133.13L85.33 131.27L86.57 129.45L87.88 127.75L89.23 126.19L90.67 124.73L92.17 123.36L93.72 122.09L95.33 120.91L96.93 119.82L99.16 118.5L101.39 117.34L103.62 116.3L105.9 115.41L108.11 114.6L110.25 113.94L114.4 112.9L118.98 112.08L121.19 111.8L123.21 111.61L125.73 111.49L126.31 112.24L126.85 112.76L127.33 113.09L127.86 113.31L128.37 113.4L128.86 113.38L129.59 113.21L130.19 112.9L130.73 112.55L131.46 111.87L134.08 112.36L136.55 112.95L138.93 113.61L141.19 114.34L143.47 115.17L147.64 116.96L152.08 119.3L154.39 120.67L156.5 122.06L158.56 123.52L161.98 126.24L164.24 128.22L165.96 129.9L167.44 131.45L169.19 133.46L164.43 155.6Z" fill="#3985FF" fill-opacity="1.000000" fill-rule="evenodd"/>
		<path id="矢量 14" d="M155.67 185.14L155.5 185.59L155.21 186.02L154.8 186.44L154.19 186.87L153.39 187.29L152.3 187.71L149.58 188.61L150.16 189.08L150.36 189.37L150.43 189.72L150.38 190L150.19 190.41L149.65 190.92L148.51 191.61L146.21 192.51L144.14 193.17L142.23 193.64L139.73 194.09L136.07 194.54L131.75 194.77L126.92 194.72L121.85 194.37L119.1 194.02L115.61 193.43L113.77 193.05L109.11 191.82L106.27 190.88L102.48 189.37L98.72 187.48L96.88 186.39L95.06 185.19L93.31 183.89L91.59 182.48L89.94 180.94L87.78 178.53L85.47 175.44L84.16 173.37L82.32 169.85L81.52 167.99L80.79 166.03L80.16 163.93L79.65 161.83L79.29 159.61L79.04 157.3L79 155.57L79.02 153.8L79.19 151.99L79.43 150.12L80.21 150.17L79.82 153.57L79.8 156.82L79.99 158.97L80.31 161.05L80.74 163.03L81.28 164.99L81.93 166.85L82.63 168.62L83.44 170.37L85.13 173.48L86.08 174.95L87.9 177.47L89.28 179.12L90.52 180.42L92.29 182.07L94.11 183.56L95.98 184.91L97.95 186.16L99.91 187.27L101.9 188.28L103.96 189.18L107.97 190.69L111.97 191.87L116.68 192.88L121.77 193.61L126.6 193.97L131.28 194.02L135.6 193.8L139.34 193.4L141.11 193.1L143.93 192.46L145.92 191.84L147.45 191.28L148.39 190.83L149.36 190.19L149.63 189.82L149.61 189.6L148.93 189.13L147.69 188.8L144.39 189.15L140.17 189.27L137.79 189.23L133.59 188.92L129.49 188.42L129.64 187.69L132.62 188.09L137.62 188.47L141.67 188.54L143.78 188.47L145.89 188.28L149.24 187.76L152.08 187.01L153.12 186.51L153.8 186.11L154.36 185.66L154.65 185.33L154.89 184.72L154.8 184.15L154.24 183.37L153.08 182.52L152.47 182.22L151.67 182.57L150.62 182.9L149.34 183.18L147.71 183.42L145.63 183.58L143 183.63L139.8 183.58L136.6 183.42L128.42 182.74L128.52 182L136.94 182.71L142.57 182.9L145.09 182.85L146.77 182.76L149.53 182.38L150.79 182.07L151.79 181.7L152.54 181.3L153.1 180.68L153.42 180.19L153.54 179.74L153.51 179.31L153.25 178.82L152.52 178.16L151.3 177.47L149.53 176.84L148.71 176.62L147.4 176.86L145.75 177.02L142.13 177.21L138.23 177.21L134.44 177.1L127.77 176.69L127.84 175.96L135.53 176.39L139.88 176.48L144.14 176.39L146.11 176.27L148.61 175.89L149.53 175.66L150.07 175.42L150.5 175.16L150.77 174.9L150.89 174.64L150.87 174.45L150.72 174.15L150.43 173.81L149.75 173.32L148.88 172.82L147.37 172.16L145.55 171.62L144.36 171.41L140.36 170.94L129.66 170.16L126.51 169.85L121.09 169.09L116.73 168.17L114.59 167.61L112.48 166.92L110.39 166.15L109.11 165.56L107.89 164.87L106.78 164.12L105.78 163.29L104.89 162.39L104.09 161.42L103.38 160.39L102.68 159.3L102.17 158.1L101.76 156.82L101.32 154.53L101.2 152.46L101.22 151.28L101.34 149.74L101.59 148.19L101.95 146.65L102.39 145.12L102.94 143.65L103.6 142.26L104.28 142.57L103.58 144.2L102.94 145.94L102.46 147.74L102.14 149.53L101.95 151.94L101.97 153.07L102.12 154.51L102.39 155.88L102.75 157.15L103.24 158.38L103.84 159.56L104.52 160.65L105.32 161.66L106.22 162.58L107.19 163.43L108.26 164.21L109.45 164.87L110.71 165.46L112.89 166.29L115.13 166.97L117.38 167.58L119.69 168.08L124.27 168.84L127.69 169.24L142.69 170.42L145.77 170.94L147.69 171.48L148.81 171.97L150.14 172.63L150.92 173.13L151.3 173.48L151.77 174.15L151.84 174.43L151.81 174.9L151.47 175.44L150.72 175.96L150.12 176.22L151.18 176.6L152.61 177.31L153.34 177.8L153.75 178.2L154.07 178.63L154.26 179.1L154.34 179.62L154.29 180.14L154.09 180.71L153.73 181.23L153.2 181.74L154.51 182.59L155.28 183.42L155.62 184.08L155.7 184.41L155.67 185.14Z" fill="#000000" fill-opacity="1.000000" fill-rule="evenodd"/>
		<path id="矢量 14" d="M201.39 103.06L200.9 102.8L201.51 101.84L202.14 101.08L202.75 100.49L203.35 100.07L203.98 99.76L204.64 99.57L205.71 99.55L206.8 99.83L207.65 100.33L207.31 100.73L206.58 100.33L206.02 100.14L205.44 100.07L204.73 100.11L204.18 100.28L203.62 100.54L203.06 100.94L202.5 101.46L201.94 102.17L201.39 103.06Z" fill="#3985FF" fill-opacity="1.000000" fill-rule="evenodd"/>
		<path id="矢量 14" d="M200.12 100.56L199.66 100.26L200.54 99.22L201.39 98.39L202.21 97.75L203.09 97.28L203.93 96.98L204.83 96.79L205.73 96.74L206.56 96.83L207.91 97.23L209.22 97.97L208.86 98.37L207.72 97.73L206.46 97.35L205.71 97.28L204.88 97.33L204.08 97.49L203.28 97.78L202.5 98.23L201.73 98.82L200.93 99.59L200.12 100.56Z" fill="#3985FF" fill-opacity="1.000000" fill-rule="evenodd"/>
		<path id="矢量 14" d="M229.15 116.8L228.78 116.4L229.29 115.76L229.56 115.26L229.73 114.7L229.78 114.01L229.68 113.45L229.48 112.88L229.15 112.29L228.68 111.7L228.05 111.06L227.23 110.38L227.54 109.96L228.44 110.69L229.15 111.37L229.65 112.06L229.99 112.69L230.24 113.35L230.31 113.99L230.21 115.03L229.78 116.04L229.15 116.8Z" fill="#3985FF" fill-opacity="1.000000" fill-rule="evenodd"/>
		<path id="矢量 14" d="M231.35 118.62L230.97 118.24L231.77 117.2L232.32 116.04L232.52 115.36L232.59 114.53L232.52 113.75L232.32 112.95L231.98 112.13L231.5 111.28L230.82 110.43L229.92 109.51L230.31 109.13L231.26 110.1L231.96 111.02L232.49 111.91L232.86 112.81L233.08 113.68L233.15 114.56L233.05 115.45L232.86 116.21L232.25 117.48L231.35 118.62Z" fill="#3985FF" fill-opacity="1.000000" fill-rule="evenodd"/>
		<path id="矢量 14" d="M194.46 0L195.39 0.09L196.24 0.3L197.03 0.7L197.76 1.22L198.36 1.83L198.88 2.56L199.27 3.36L199.51 4.24L199.6 5.19L199.6 145.84L4 145.84L4 5.19L4.06 4.24L4.3 3.36L4.69 2.56L5.21 1.83L5.81 1.22L6.54 0.7L7.33 0.3L8.2 0.09L9.14 0L194.46 0ZM199.6 5.19L199.6 17.12L4 17.12L4 5.19M25.28 10.54L24.77 11.43L23.98 12.1L23.53 12.32L22.47 12.53L21.41 12.32L20.5 11.8L19.83 11L19.47 10.02L19.47 8.89L19.62 8.4L20.13 7.49L20.92 6.81L21.41 6.6L22.47 6.42L23.53 6.6L24.4 7.12L25.07 7.91L25.28 8.4L25.49 9.47L25.28 10.54ZM35.58 10.54L35.06 11.43L34.27 12.1L33.82 12.32L32.76 12.53L31.7 12.32L30.79 11.8L30.13 11L29.91 10.54L29.73 9.47L29.91 8.4L30.43 7.49L31.22 6.81L31.7 6.6L32.76 6.42L33.82 6.6L34.7 7.12L35.36 7.91L35.58 8.4L35.79 9.47L35.58 10.54ZM45.87 10.54L45.63 11L44.93 11.8L43.99 12.32L42.9 12.53L41.78 12.32L40.85 11.8L40.15 11L39.76 10.02L39.76 8.89L39.91 8.4L40.45 7.49L41.3 6.81L41.78 6.6L42.9 6.42L43.99 6.6L44.93 7.12L45.63 7.91L45.87 8.4L46.08 9.47L45.87 10.54ZM147.17 32.44L148.11 32.53L148.96 32.75L149.75 33.14L150.47 33.66L151.08 34.27L151.59 35.01L151.99 35.8L152.23 36.69L152.32 37.64L152.32 126.31L152.23 127.25L151.99 128.11L151.59 128.9L151.08 129.64L150.47 130.28L149.75 130.77L148.96 131.17L148.11 131.41L147.17 131.5L43.92 131.5L42.98 131.41L42.1 131.17L41.31 130.77L40.59 130.28L39.98 129.64L39.47 128.9L39.07 128.11L38.83 127.25L38.77 126.31L38.77 37.64L38.83 36.69L39.07 35.8L39.47 35.01L39.98 34.27L40.59 33.66L41.31 33.14L42.1 32.75L42.98 32.53L43.92 32.44L147.17 32.44ZM72.08 40.79L72.71 40.88L73.29 41.12L73.77 41.49L74.17 42.01L74.41 42.59L74.5 43.23L74.41 43.87L74.17 44.46L73.77 44.94L73.29 45.34L72.71 45.59L72.08 45.68L49.79 45.68L49.16 45.59L48.58 45.34L48.1 44.94L47.7 44.46L47.46 43.87L47.4 43.23L47.46 42.59L47.7 42.01L48.1 41.49L48.58 41.12L49.16 40.88L49.79 40.79L72.08 40.79ZM64.11 50.33L64.78 50.42L65.36 50.66L65.84 51.03L66.2 51.55L66.45 52.13L66.54 52.77L66.45 53.41L66.2 53.99L65.84 54.48L65.36 54.88L64.78 55.13L64.11 55.22L49.79 55.22L49.16 55.13L48.58 54.88L48.1 54.48L47.7 53.99L47.46 53.41L47.4 52.77L47.46 52.13L47.7 51.55L48.1 51.03L48.58 50.66L49.16 50.42L49.79 50.33L64.11 50.33ZM223.81 110.62L223.44 110.47L223.69 108.92L223.66 107.69L223.54 107.12L223.32 106.6L222.96 106.18L222.4 105.78L221.82 105.52L221.24 105.4L220.6 105.42L219.95 105.57L219.34 105.85L218.25 106.58L218.54 105.38L218.64 104.17L218.57 103.61L218.42 103.11L218.13 102.64L217.77 102.26L217.28 102.03L216.55 101.84L215.87 101.77L215.19 101.79L213.91 102.12L212.43 102.88L211.63 103.44L210.34 104.65L209.47 105.61L208.98 105.33L208.28 105.09L207.67 105.05L206.99 105.07L206.22 105.24L205.37 105.52L204.42 105.97L203.33 106.58L202.09 107.43L201.34 108.04L199.79 109.74L198.67 111.25L197.48 113.02L192.53 121.16L191.15 123.29L189.67 125.44L188.09 127.49L186.39 129.47L185.2 130.72L183.94 131.88L182.63 132.99L181.25 133.98L179.79 134.88L178.26 135.65L176.49 136.27L174.87 136.46L173.8 136.41L172.78 136.27L171.78 136.01L170.84 135.63L169.14 134.76L168 134L167.05 133.27L166.23 132.52L165.18 131.43L164.5 131.95L165.62 133.13L167.51 134.71L169.62 136.01L171.61 136.83L172.66 137.12L173.77 137.28L174.94 137.31L176.71 137.09L177.66 136.81L178.63 136.43L180.2 135.63L181.71 134.71L183.12 133.67L184.47 132.56L185.76 131.36L187 130.09L188.72 128.08L190.35 125.98L191.85 123.83L193.26 121.66L198.18 113.54L199.35 111.8L200.42 110.33L201.92 108.7L202.62 108.11L204.01 107.17L205.1 106.58L206.12 106.16L206.89 105.97L207.6 105.9L208.08 105.92L208.64 106.11L208.98 106.32L199.2 121.24L199.93 121.68L209.88 106.53L211.38 104.81L212.11 104.17L213.59 103.21L214.88 102.73L215.56 102.62L216.26 102.66L216.96 102.83L217.23 102.97L217.6 103.42L217.74 103.91L217.77 104.5L217.57 105.8L217.18 107.1L216.77 108.14L207.06 123.36L207.82 123.81L217.38 108.8L217.67 108.44L218.91 107.17L219.46 106.75L220.09 106.44L220.73 106.25L221.16 106.25L221.57 106.34L221.96 106.51L222.38 106.82L222.57 107.05L222.81 107.83L222.84 108.54L222.76 109.29L222.47 110.69L212.79 125.55L213.52 126L223.13 111.28L223.54 111.51L223.71 111.75L223.88 112.24L223.95 112.86L223.9 113.87L223.71 115.05L223.27 116.8L222.74 118.45L221.82 120.72L220.73 123.1L219.22 125.93L218.13 127.82L215.41 132.02L213.88 134.14L212.16 136.32L210.27 138.58L208.28 140.75L206.09 142.95L203.74 145.14L199.95 148.28L195.73 151.32L193.52 152.74L191.2 154.11L188.74 155.43L186.17 156.71L184.33 157.48L182.58 158.07L180.88 158.5L179.26 158.76L177.68 158.85L176.35 158.83L175.04 158.71L173.75 158.45L172.49 158.1L171.25 157.65L170.04 157.06L168.87 156.37L167.73 155.62L166.62 154.75L165.55 153.78L164.24 152.39L162.98 150.9L161.79 149.27L159.63 145.8L158.66 143.99L157.35 141.15L156.16 138.32L155.11 135.47L153.44 130.04L152.25 125.32L151.11 119.44L150.24 119.54L150.82 122.82L152.08 128.43L153.42 133.13L154.24 135.65L155.31 138.6L156.4 141.29L157.54 143.75L158.68 145.97L159.85 147.97L161.03 149.77L162.22 151.39L163.44 152.84L164.65 154.11L165.86 155.24L167.1 156.23L168.36 157.08L169.62 157.81L170.86 158.4L172.1 158.88L173.36 159.25L174.65 159.51L175.96 159.66L177.29 159.73L178.72 159.66L180.18 159.49L181.71 159.18L183.26 158.76L184.86 158.19L186.56 157.46L189.16 156.19L191.63 154.86L193.99 153.47L196.22 152.03L200.51 148.94L204.32 145.78L206.72 143.54L208.93 141.32L210.95 139.1L212.86 136.81L214.59 134.62L216.14 132.47L217.62 130.27L220.02 126.29L221.94 122.56L223.56 118.71L224.12 117.03L224.54 115.45L224.75 114.18L224.83 113.19L224.78 112.39L224.66 111.77L224.44 111.28L224.17 110.92L223.81 110.62ZM134.71 94.12L132.69 83.57L131.84 83.71L133.64 93.25L130.7 93.2L130.68 94.05L134.71 94.12ZM128.69 97.21L128.84 96.36L127.79 96.13L127.02 95.84L126.41 95.49L125.97 95.09L125.66 94.62L125.46 94.14L125.41 93.15L125.49 92.73L125.83 91.78L125.05 91.38L124.76 92.09L124.54 93.13L124.52 93.74L124.61 94.36L124.86 94.99L125.22 95.56L125.73 96.03L126.36 96.46L127.16 96.83L128.18 97.12L128.69 97.21ZM119.03 96.98L119.4 96.98L119.74 96.83L119.98 96.62L120.15 96.31L120.1 93.88L120.37 90.63L120.49 90.01L120.71 89.54L120.95 89.14L121.29 88.83L121.82 88.53L122.48 88.29L123.28 88.15L124.56 88.08L131.33 88.5L133.23 88.53L135.75 88.36L137.01 88.15L138.25 87.82L139.46 87.37L140.65 86.8L141.48 86.28L142.28 85.67L143.08 84.96L143.85 84.11L144.53 83.19L145.04 82.32L145.46 81.45L145.7 80.62L145.87 79.75L145.94 78.87L145.92 78.05L145.77 77.22L145.48 76.14L145.04 75.12L144.49 74.11L143.83 73.16L143.1 72.29L142.28 71.46L140.48 70.02L138.59 68.94L136.77 68.25L135.87 68.07L135.07 68L134.37 68.04L133.86 68.18L133.42 68.37L133.06 68.66L132.77 69.01L132.33 69.74L131.89 70.92L131.82 71.49L131.87 72.41L132.6 74.65L132.45 75.07L132.28 75.24L131.48 75.62L130.82 75.78L125.41 76.49L123.67 76.8L121.92 77.2L120.17 77.74L119.03 78.19L116.9 79.35L115.9 80.03L115.03 80.83L114.23 81.75L113.69 82.49L113.26 83.31L112.87 84.21L112.58 85.2L112.36 86.19L112.26 87.3L112.24 88.53L112.34 89.9L112.46 90.51L112.67 91.12L112.99 91.67L113.4 92.18L114.88 93.72L116.75 95.42L118.67 96.83L119.03 96.98ZM141.36 100.18L140.48 101.36L139.49 102.45L138.39 103.44L137.23 104.31L135.97 105.07L134.63 105.71L133.18 106.23L131.75 106.58L130.34 106.82L128.93 106.91L127.52 106.89L126.14 106.72L124.78 106.44L123.47 106.06L122.21 105.54L120.97 104.93L119.83 104.22L118.74 103.42L117.72 102.5L116.78 101.48L115.95 100.4L115.22 99.22L114.57 97.97L114.32 97.16L113.82 97.23L112.87 97.12L112.07 96.72L111.41 96.03L110.95 95.11L110.83 94.59L110.81 94.07L111.05 93.08L111.61 92.21L112 91.88L112.94 91.38L113.77 91.24L113.74 90.82L113.82 90.39L113.4 90.41L113.62 89.09L113.96 87.79L114.45 86.52L115.03 85.25L115.81 83.97L116.68 82.79L117.65 81.71L118.74 80.74L119.93 79.87L121.17 79.11L122.53 78.47L123.96 77.93L125.12 77.62L127.43 77.27L129.81 77.29L130.99 77.43L133.32 77.98L134.46 78.4L135.58 78.9L136.92 79.65L138.13 80.5L139.24 81.47L140.24 82.51L141.14 83.67L141.91 84.89L142.57 86.19L143.1 87.58L143.49 89.05L143.73 90.46L143.83 91.9L143.78 93.34L143.59 94.78L143.25 96.17L142.76 97.54L142.11 98.91L141.36 100.18ZM143.44 86.02L142.86 84.77L142.16 83.62L141.36 82.49L140.46 81.47L139.46 80.5L138.39 79.63L137.23 78.85L135.99 78.14L134.68 77.58L133.37 77.1L132.01 76.75L130.63 76.51L129.25 76.4L127.86 76.4L126.46 76.51L125.07 76.77L123.69 77.13L122.36 77.6L121.07 78.19L119.86 78.87L118.72 79.65L117.65 80.53L116.68 81.49L115.78 82.53L114.96 83.67L114.25 84.87L113.6 86.26L113.09 87.7L112.72 89.14L112.51 90.63L111.87 90.91L111.34 91.29L110.88 91.74L110.49 92.26L110.2 92.82L110.03 93.44L109.93 94.07L109.98 94.71L110.13 95.37L110.59 96.34L110.9 96.74L111.49 97.26L112.14 97.66L112.87 97.92L113.65 98.04L114.23 99.22L114.86 100.33L115.56 101.36L116.36 102.33L117.24 103.23L118.18 104.06L119.15 104.81L120.22 105.49L121.31 106.08L122.45 106.58L123.64 107.01L124.86 107.34L124.86 113.38L125.73 113.38L125.73 107.52L127.14 107.71L128.59 107.76L130.02 107.71L131.46 107.52L131.46 113.38L132.35 113.38L132.35 107.34L133.45 107.03L134.8 106.56L136.07 105.97L137.28 105.28L138.42 104.5L139.49 103.63L140.48 102.69L141.38 101.62L142.18 100.52L142.88 99.29L143.49 98.04L143.98 96.74L144.34 95.44L144.58 94.1L144.7 92.75L144.7 91.38L144.56 90.04L144.32 88.69L143.95 87.35L143.44 86.02ZM114.35 92.66L113.86 92.49L113.31 92.42L112.65 92.44L111.87 92.59L112.09 93.41L112.84 93.27L113.4 93.27L113.86 93.39L114.23 93.6L114.59 93.98L114.81 94.43L114.93 94.92L115 95.72L115.88 95.77L115.78 94.69L115.66 94.24L115.17 93.34L114.79 92.94L114.35 92.66ZM151.84 174.43L151.81 174.9L151.47 175.44L150.72 175.96L150.12 176.22L151.18 176.6L152.61 177.31L153.34 177.8L153.75 178.2L154.07 178.63L154.26 179.1L154.34 179.62L154.29 180.14L154.09 180.71L153.73 181.23L153.2 181.74L154.51 182.59L155.28 183.42L155.62 184.08L155.7 184.41L155.67 185.14L155.5 185.59L155.21 186.02L154.8 186.44L154.19 186.87L153.39 187.29L152.3 187.71L149.58 188.61L150.16 189.08L150.36 189.37L150.43 189.72L150.38 190L150.19 190.41L149.65 190.92L148.51 191.61L146.21 192.51L144.14 193.17L142.23 193.64L139.73 194.09L136.07 194.54L131.75 194.77L126.92 194.72L121.85 194.37L119.1 194.02L115.61 193.43L113.77 193.05L109.11 191.82L106.27 190.88L102.48 189.37L98.72 187.48L96.88 186.39L95.06 185.19L93.31 183.89L91.59 182.48L89.94 180.94L87.78 178.53L85.47 175.44L84.16 173.37L82.32 169.85L81.52 167.99L80.79 166.03L80.16 163.93L79.65 161.83L79.29 159.61L79.04 157.3L79 155.57L79.02 153.8L79.19 151.99L79.43 150.12L79.67 147.76L79.99 145.57L80.38 143.47L80.86 141.51L81.4 139.64L82.25 137.31L83.19 135.16L84.21 133.13L85.33 131.27L86.57 129.45L87.88 127.75L89.23 126.19L90.67 124.73L92.17 123.36L93.72 122.09L95.33 120.91L96.93 119.82L99.16 118.5L101.39 117.34L103.62 116.3L105.9 115.41L108.11 114.6L110.25 113.94L114.4 112.9L118.98 112.08L121.19 111.8L123.21 111.61L125.73 111.49L126.31 112.24L126.85 112.76L127.33 113.09L127.86 113.31L128.37 113.4L128.86 113.38L129.59 113.21L130.19 112.9L130.73 112.55L131.46 111.87L134.08 112.36L136.55 112.95L138.93 113.61L141.19 114.34L143.47 115.17L147.64 116.96L152.08 119.3L154.39 120.67L156.5 122.06L158.56 123.52L161.98 126.24L164.24 128.22L165.96 129.9L167.44 131.45L169.19 133.46L164.43 155.6L156.38 153.61L156.42 163.95L130.95 163.95L131.75 169.59L140.51 170.2L142.69 170.42L144.56 170.7L146.82 171.2L148.81 171.97M142.69 170.42L145.77 170.94L147.69 171.48L148.81 171.97L150.14 172.63L150.92 173.13L151.3 173.48L151.62 173.86L151.84 174.43M150.14 172.63L151.3 173.48M151.3 173.48L151.77 174.15L151.84 174.43L151.86 174.74L151.69 175.16L150.5 175.16M79.43 150.12L80.21 150.17L79.82 153.57L79.8 156.82L79.99 158.97L80.31 161.05L80.74 163.03L81.28 164.99L81.93 166.85L82.63 168.62L83.44 170.37L85.13 173.48L86.08 174.95L87.9 177.47L89.28 179.12L90.52 180.42L92.29 182.07L94.11 183.56L95.98 184.91L97.95 186.16L99.91 187.27L101.9 188.28L103.96 189.18L107.97 190.69L111.97 191.87L116.68 192.88L121.77 193.61L126.6 193.97L131.28 194.02L135.6 193.8L139.34 193.4L141.11 193.1L143.93 192.46L145.92 191.84L147.45 191.28L148.39 190.83L149.36 190.19L149.63 189.82L149.61 189.6L148.93 189.13L147.69 188.8L144.39 189.15L140.17 189.27L137.79 189.23L133.59 188.92L129.49 188.42L129.64 187.69L132.62 188.09L137.62 188.47L141.67 188.54L143.78 188.47L145.89 188.28L149.24 187.76L152.08 187.01L153.12 186.51L153.8 186.11L154.36 185.66L154.65 185.33L154.89 184.72L154.8 184.15L154.24 183.37L153.08 182.52L152.47 182.22L151.67 182.57L150.62 182.9L149.34 183.18L147.71 183.42L145.63 183.58L143 183.63L139.8 183.58L136.6 183.42L128.42 182.74L128.52 182L136.94 182.71L142.57 182.9L145.09 182.85L146.77 182.76L149.53 182.38L150.79 182.07L151.79 181.7L152.54 181.3L153.1 180.68L153.42 180.19L153.54 179.74L153.51 179.31L153.25 178.82L152.52 178.16L151.3 177.47L149.53 176.84L148.71 176.62L147.4 176.86L145.75 177.02L142.13 177.21L138.23 177.21L134.44 177.1L127.77 176.69L127.84 175.96L135.53 176.39L139.88 176.48L144.14 176.39L146.11 176.27L148.61 175.89L149.53 175.66L150.07 175.42L150.5 175.16L150.77 174.9L150.89 174.64L150.87 174.45L150.72 174.15L150.43 173.81L149.75 173.32L148.88 172.82L147.37 172.16L145.55 171.62L144.36 171.41L140.36 170.94M150.77 174.9L150.87 174.45M145.55 171.62L142.52 171.15L140.36 170.94L129.66 170.16L126.51 169.85L121.09 169.09L116.73 168.17L114.59 167.61L112.48 166.92L110.39 166.15L109.11 165.56L107.89 164.87L106.78 164.12L105.78 163.29L104.89 162.39L104.09 161.42L103.38 160.39L102.68 159.3L102.17 158.1L101.76 156.82L101.32 154.53L101.2 152.46L101.22 151.28L101.34 149.74L101.59 148.19L101.95 146.65L102.39 145.12L102.94 143.65L103.6 142.26L104.28 142.57L103.58 144.2L102.94 145.94L102.46 147.74L102.14 149.53L101.95 151.94L101.97 153.07L102.12 154.51L102.39 155.88L102.75 157.15L103.24 158.38L103.84 159.56L104.52 160.65L105.32 161.66L106.22 162.58L107.19 163.43L108.26 164.21L109.45 164.87L110.71 165.46L112.89 166.29L115.13 166.97L117.38 167.58L119.69 168.08L124.27 168.84L127.69 169.24L142.69 170.42M112.48 166.92L109.93 165.96L107.89 164.87M103.38 160.39L102.8 159.28L102.29 158.07L101.88 156.78L101.56 155.41L101.39 151.28L79.43 150.12M200.9 102.8L201.51 101.84L202.14 101.08L202.75 100.49L203.35 100.07L203.98 99.76L204.64 99.57L205.71 99.55L206.8 99.83L207.65 100.33L207.31 100.73L206.58 100.33L206.02 100.14L205.44 100.07L204.73 100.11L204.18 100.28L203.62 100.54L203.06 100.94L202.5 101.46L201.94 102.17L201.39 103.06L200.9 102.8ZM199.66 100.26L200.54 99.22L201.39 98.39L202.21 97.75L203.09 97.28L203.93 96.98L204.83 96.79L205.73 96.74L206.56 96.83L207.91 97.23L209.22 97.97L208.86 98.37L207.72 97.73L206.46 97.35L205.71 97.28L204.88 97.33L204.08 97.49L203.28 97.78L202.5 98.23L201.73 98.82L200.93 99.59L200.12 100.56L199.66 100.26ZM228.78 116.4L229.29 115.76L229.56 115.26L229.73 114.7L229.78 114.01L229.68 113.45L229.48 112.88L229.15 112.29L228.68 111.7L228.05 111.06L227.23 110.38L227.54 109.96L228.44 110.69L229.15 111.37L229.65 112.06L229.99 112.69L230.24 113.35L230.31 113.99L230.21 115.03L229.78 116.04L229.15 116.8L228.78 116.4ZM230.97 118.24L231.77 117.2L232.32 116.04L232.52 115.36L232.59 114.53L232.52 113.75L232.32 112.95L231.98 112.13L231.5 111.28L230.82 110.43L229.92 109.51L230.31 109.13L231.26 110.1L231.96 111.02L232.49 111.91L232.86 112.81L233.08 113.68L233.15 114.56L233.05 115.45L232.86 116.21L232.25 117.48L231.35 118.62L230.97 118.24Z" stroke="#000000" stroke-opacity="0" stroke-width="1.000000"/>
	</g>
</svg>
