<svg width="240.787109" height="202.689819" viewBox="0 0 240.787 202.69" fill="none" xmlns="http://www.w3.org/2000/svg" xmlns:xlink="http://www.w3.org/1999/xlink">
	<desc>
			Created with Pixso.
	</desc>
	<defs/>
	<path id="Fill-79" d="M178.09 144.58L178.05 173.15L131.31 173.15L131.31 173.67L131.13 174.18L179.12 174.18L179.12 144.23L178.09 144.58Z" fill="#3985FF" fill-opacity="1.000000" fill-rule="evenodd"/>
	<path id="Fill-79" d="M178.05 173.15L131.31 173.15L131.31 173.67L131.13 174.18L179.12 174.18L179.12 144.23L178.09 144.58L178.05 173.15Z" stroke="#000000" stroke-opacity="0" stroke-width="1.000000"/>
	<path id="Fill-81" d="M0 0L0 174.18L25.76 174.18L25.37 173.15L1.09 173.15L1.09 1.06L178.05 1.06L178.05 101.53L178.73 100.5L179.12 100.29L179.12 0L0 0Z" fill="#3985FF" fill-opacity="1.000000" fill-rule="evenodd"/>
	<path id="Fill-81" d="M0 174.18L25.76 174.18L25.37 173.15L1.09 173.15L1.09 1.06L178.05 1.06L178.05 101.53L178.73 100.5L179.12 100.29L179.12 0L0 0L0 174.18Z" stroke="#000000" stroke-opacity="0" stroke-width="1.000000"/>
	<path id="Fill-83" d="M227.67 80.23L227.14 79.78L226.61 79.58L226.96 77.3L226.93 75.51L226.75 74.68L226.43 73.92L225.9 73.3L225.08 72.72L224.23 72.34L223.38 72.17L222.46 72.2L221.5 72.41L220.62 72.82L219.02 73.89L219.45 72.13L219.59 70.37L219.48 69.55L219.27 68.82L218.84 68.13L218.31 67.58L217.6 67.24L216.54 66.96L215.55 66.86L214.56 66.89L212.68 67.37L210.52 68.48L209.35 69.3L207.47 71.06L206.19 72.48L205.48 72.06L204.46 71.72L203.57 71.65L202.58 71.68L201.44 71.92L200.2 72.34L198.82 72.99L197.23 73.89L195.42 75.13L194.32 76.03L192.05 78.51L190.42 80.71L188.68 83.3L181.45 95.19L179.43 98.29L177.27 101.43L174.97 104.43L172.49 107.32L170.75 109.15L168.91 110.84L166.99 112.46L164.97 113.9L162.85 115.21L160.61 116.35L158.03 117.25L155.65 117.52L154.09 117.45L152.61 117.25L151.15 116.87L149.77 116.32L147.29 115.04L145.62 113.94L144.24 112.87L143.04 111.77L141.51 110.18L140.52 110.94L142.15 112.66L144.91 114.97L148 116.87L150.9 118.07L152.43 118.49L154.06 118.73L155.76 118.76L158.35 118.45L159.73 118.04L161.15 117.49L163.45 116.32L165.65 114.97L167.7 113.45L169.69 111.84L171.57 110.08L173.37 108.22L175.89 105.29L178.26 102.22L180.46 99.08L182.52 95.91L189.71 84.06L191.41 81.51L192.97 79.37L195.17 76.99L196.2 76.13L198.22 74.75L199.81 73.89L201.3 73.27L202.44 72.99L203.46 72.89L204.17 72.92L204.99 73.2L205.48 73.51L191.2 95.29L192.26 95.95L206.79 73.82L208.99 71.3L210.06 70.37L212.22 68.96L214.1 68.27L215.09 68.1L216.12 68.17L217.14 68.41L217.53 68.62L218.06 69.27L218.28 69.99L218.31 70.86L218.03 72.75L217.46 74.65L216.86 76.16L202.68 98.39L203.78 99.05L217.75 77.13L218.17 76.61L219.98 74.75L220.79 74.13L221.72 73.68L222.64 73.41L223.27 73.41L223.88 73.54L224.44 73.79L225.05 74.23L225.33 74.58L225.68 75.72L225.72 76.75L225.61 77.85L225.19 79.89L211.05 101.6L212.11 102.25L226.15 80.75L226.75 81.09L227 81.44L227.24 82.16L227.35 83.06L227.28 84.54L227 86.26L226.36 88.81L225.58 91.22L224.23 94.53L222.64 98.01L220.44 102.15L218.84 104.91L214.88 111.04L212.64 114.14L210.13 117.32L207.36 120.62L204.46 123.79L201.27 127L197.83 130.21L192.3 134.79L186.13 139.23L182.91 141.3L179.51 143.3L175.93 145.23L172.17 147.09L169.48 148.23L166.92 149.09L164.44 149.71L162.07 150.09L159.76 150.23L157.82 150.19L155.9 150.02L154.02 149.64L152.18 149.13L150.37 148.47L148.6 147.61L146.9 146.61L145.23 145.51L143.6 144.23L142.04 142.82L140.13 140.78L138.29 138.61L136.55 136.24L133.4 131.17L131.98 128.52L130.06 124.38L128.33 120.24L126.8 116.07L124.36 108.15L122.62 101.25L120.96 92.67L119.68 92.81L120.53 97.6L122.37 105.8L124.32 112.66L125.53 116.35L127.09 120.66L128.68 124.59L130.35 128.17L132.01 131.41L133.71 134.34L135.45 136.96L137.19 139.34L138.96 141.44L140.73 143.3L142.5 144.96L144.31 146.4L146.15 147.64L148 148.71L149.81 149.57L151.61 150.26L153.46 150.82L155.33 151.19L157.25 151.4L159.2 151.5L161.29 151.4L163.41 151.16L165.65 150.71L167.92 150.09L170.25 149.26L172.74 148.2L176.53 146.33L180.14 144.4L183.58 142.37L186.84 140.27L193.11 135.75L198.68 131.14L202.19 127.86L205.41 124.62L208.35 121.38L211.15 118.04L213.67 114.83L215.94 111.7L218.1 108.49L221.61 102.67L224.41 97.22L226.78 91.6L227.6 89.16L228.2 86.85L228.52 84.99L228.63 83.54L228.56 82.37L228.38 81.47L228.06 80.75L227.67 80.23Z" fill="#000000" fill-opacity="1.000000" fill-rule="evenodd"/>
	<path id="Fill-83" d="M227.14 79.78L226.61 79.58L226.96 77.3L226.93 75.51L226.75 74.68L226.43 73.92L225.9 73.3L225.08 72.72L224.23 72.34L223.38 72.17L222.46 72.2L221.5 72.41L220.62 72.82L219.02 73.89L219.45 72.13L219.59 70.37L219.48 69.55L219.27 68.82L218.84 68.13L218.31 67.58L217.6 67.24L216.54 66.96L215.55 66.86L214.56 66.89L212.68 67.37L210.52 68.48L209.35 69.3L207.47 71.06L206.19 72.48L205.48 72.06L204.46 71.72L203.57 71.65L202.58 71.68L201.44 71.92L200.2 72.34L198.82 72.99L197.23 73.89L195.42 75.13L194.32 76.03L192.05 78.51L190.42 80.71L188.68 83.3L181.45 95.19L179.43 98.29L177.27 101.43L174.97 104.43L172.49 107.32L170.75 109.15L168.91 110.84L166.99 112.46L164.97 113.9L162.85 115.21L160.61 116.35L158.03 117.25L155.65 117.52L154.09 117.45L152.61 117.25L151.15 116.87L149.77 116.32L147.29 115.04L145.62 113.94L144.24 112.87L143.04 111.77L141.51 110.18L140.52 110.94L142.15 112.66L144.91 114.97L148 116.87L150.9 118.07L152.43 118.49L154.06 118.73L155.76 118.76L158.35 118.45L159.73 118.04L161.15 117.49L163.45 116.32L165.65 114.97L167.7 113.45L169.69 111.84L171.57 110.08L173.37 108.22L175.89 105.29L178.26 102.22L180.46 99.08L182.52 95.91L189.71 84.06L191.41 81.51L192.97 79.37L195.17 76.99L196.2 76.13L198.22 74.75L199.81 73.89L201.3 73.27L202.44 72.99L203.46 72.89L204.17 72.92L204.99 73.2L205.48 73.51L191.2 95.29L192.26 95.95L206.79 73.82L208.99 71.3L210.06 70.37L212.22 68.96L214.1 68.27L215.09 68.1L216.12 68.17L217.14 68.41L217.53 68.62L218.06 69.27L218.28 69.99L218.31 70.86L218.03 72.75L217.46 74.65L216.86 76.16L202.68 98.39L203.78 99.05L217.75 77.13L218.17 76.61L219.98 74.75L220.79 74.13L221.72 73.68L222.64 73.41L223.27 73.41L223.88 73.54L224.44 73.79L225.05 74.23L225.33 74.58L225.68 75.72L225.72 76.75L225.61 77.85L225.19 79.89L211.05 101.6L212.11 102.25L226.15 80.75L226.75 81.09L227 81.44L227.24 82.16L227.35 83.06L227.28 84.54L227 86.26L226.36 88.81L225.58 91.22L224.23 94.53L222.64 98.01L220.44 102.15L218.84 104.91L214.88 111.04L212.64 114.14L210.13 117.32L207.36 120.62L204.46 123.79L201.27 127L197.83 130.21L192.3 134.79L186.13 139.23L182.91 141.3L179.51 143.3L175.93 145.23L172.17 147.09L169.48 148.23L166.92 149.09L164.44 149.71L162.07 150.09L159.76 150.23L157.82 150.19L155.9 150.02L154.02 149.64L152.18 149.13L150.37 148.47L148.6 147.61L146.9 146.61L145.23 145.51L143.6 144.23L142.04 142.82L140.13 140.78L138.29 138.61L136.55 136.24L133.4 131.17L131.98 128.52L130.06 124.38L128.33 120.24L126.8 116.07L124.36 108.15L122.62 101.25L120.96 92.67L119.68 92.81L120.53 97.6L122.37 105.8L124.32 112.66L125.53 116.35L127.09 120.66L128.68 124.59L130.35 128.17L132.01 131.41L133.71 134.34L135.45 136.96L137.19 139.34L138.96 141.44L140.73 143.3L142.5 144.96L144.31 146.4L146.15 147.64L148 148.71L149.81 149.57L151.61 150.26L153.46 150.82L155.33 151.19L157.25 151.4L159.2 151.5L161.29 151.4L163.41 151.16L165.65 150.71L167.92 150.09L170.25 149.26L172.74 148.2L176.53 146.33L180.14 144.4L183.58 142.37L186.84 140.27L193.11 135.75L198.68 131.14L202.19 127.86L205.41 124.62L208.35 121.38L211.15 118.04L213.67 114.83L215.94 111.7L218.1 108.49L221.61 102.67L224.41 97.22L226.78 91.6L227.6 89.16L228.2 86.85L228.52 84.99L228.63 83.54L228.56 82.37L228.38 81.47L228.06 80.75L227.67 80.23L227.14 79.78Z" stroke="#000000" stroke-opacity="0" stroke-width="1.000000"/>
	<path id="Fill-85" d="M91.11 55.59L97 55.69L94.06 40.28L92.82 40.49L95.44 54.42L91.15 54.35L91.11 55.59Z" fill="#000000" fill-opacity="1.000000" fill-rule="evenodd"/>
	<path id="Fill-85" d="M97 55.69L94.06 40.28L92.82 40.49L95.44 54.42L91.15 54.35L91.11 55.59L97 55.69Z" stroke="#000000" stroke-opacity="0" stroke-width="1.000000"/>
	<path id="Fill-87" d="M87.46 60.07L88.21 60.21L88.42 58.97L86.9 58.62L85.76 58.21L84.88 57.69L84.24 57.1L83.78 56.41L83.49 55.73L83.42 54.28L83.53 53.66L84.03 52.28L82.89 51.69L82.47 52.73L82.15 54.24L82.11 55.14L82.25 56.04L82.61 56.97L83.14 57.79L83.88 58.48L84.81 59.1L85.98 59.65L87.46 60.07Z" fill="#000000" fill-opacity="1.000000" fill-rule="evenodd"/>
	<path id="Fill-87" d="M88.21 60.21L88.42 58.97L86.9 58.62L85.76 58.21L84.88 57.69L84.24 57.1L83.78 56.41L83.49 55.73L83.42 54.28L83.53 53.66L84.03 52.28L82.89 51.69L82.47 52.73L82.15 54.24L82.11 55.14L82.25 56.04L82.61 56.97L83.14 57.79L83.88 58.48L84.81 59.1L85.98 59.65L87.46 60.07L88.21 60.21Z" stroke="#000000" stroke-opacity="0" stroke-width="1.000000"/>
	<path id="Fill-89" d="M73.57 59.65L74.1 59.86L74.63 59.86L75.13 59.65L75.48 59.34L75.73 58.9L75.66 55.35L76.05 50.59L76.23 49.69L76.55 49L76.9 48.42L77.4 47.97L78.18 47.52L79.13 47.18L80.3 46.97L82.18 46.87L92.07 47.49L94.84 47.52L98.52 47.28L100.36 46.97L102.17 46.49L103.94 45.83L105.68 45.01L106.89 44.25L108.06 43.35L109.22 42.32L110.36 41.08L111.35 39.73L112.1 38.46L112.7 37.18L113.05 35.98L113.3 34.7L113.41 33.43L113.37 32.22L113.16 31.01L112.73 29.43L112.1 27.95L111.28 26.46L110.32 25.09L109.26 23.81L108.06 22.6L105.43 20.5L102.67 18.92L100.01 17.92L98.7 17.64L97.53 17.54L96.5 17.61L95.76 17.81L95.12 18.09L94.59 18.5L94.16 19.02L93.52 20.09L92.89 21.81L92.78 22.64L92.85 23.98L93.91 27.26L93.7 27.88L93.45 28.12L92.28 28.67L91.33 28.91L83.42 29.95L80.87 30.39L78.32 30.98L75.77 31.77L74.1 32.43L70.98 34.12L69.53 35.12L68.25 36.29L67.09 37.63L66.31 38.7L65.67 39.91L65.1 41.22L64.67 42.66L64.36 44.11L64.21 45.73L64.18 47.52L64.32 49.52L64.5 50.42L64.82 51.31L65.28 52.11L65.88 52.86L68.04 55.1L70.77 57.59L73.57 59.65Z" fill="#000000" fill-opacity="1.000000" fill-rule="evenodd"/>
	<path id="Fill-89" d="M74.1 59.86L74.63 59.86L75.13 59.65L75.48 59.34L75.73 58.9L75.66 55.35L76.05 50.59L76.23 49.69L76.55 49L76.9 48.42L77.4 47.97L78.18 47.52L79.13 47.18L80.3 46.97L82.18 46.87L92.07 47.49L94.84 47.52L98.52 47.28L100.36 46.97L102.17 46.49L103.94 45.83L105.68 45.01L106.89 44.25L108.06 43.35L109.22 42.32L110.36 41.08L111.35 39.73L112.1 38.46L112.7 37.18L113.05 35.98L113.3 34.7L113.41 33.43L113.37 32.22L113.16 31.01L112.73 29.43L112.1 27.95L111.28 26.46L110.32 25.09L109.26 23.81L108.06 22.6L105.43 20.5L102.67 18.92L100.01 17.92L98.7 17.64L97.53 17.54L96.5 17.61L95.76 17.81L95.12 18.09L94.59 18.5L94.16 19.02L93.52 20.09L92.89 21.81L92.78 22.64L92.85 23.98L93.91 27.26L93.7 27.88L93.45 28.12L92.28 28.67L91.33 28.91L83.42 29.95L80.87 30.39L78.32 30.98L75.77 31.77L74.1 32.43L70.98 34.12L69.53 35.12L68.25 36.29L67.09 37.63L66.31 38.7L65.67 39.91L65.1 41.22L64.67 42.66L64.36 44.11L64.21 45.73L64.18 47.52L64.32 49.52L64.5 50.42L64.82 51.31L65.28 52.11L65.88 52.86L68.04 55.1L70.77 57.59L73.57 59.65L74.1 59.86Z" stroke="#000000" stroke-opacity="0" stroke-width="1.000000"/>
	<path id="Fill-91" d="M107.81 62.69L106.71 64.55L105.43 66.27L103.98 67.86L102.39 69.3L100.68 70.58L98.84 71.68L96.89 72.61L94.76 73.37L92.67 73.89L90.62 74.23L88.56 74.37L86.51 74.34L84.49 74.1L82.5 73.68L80.59 73.13L78.75 72.37L76.94 71.48L75.27 70.44L73.68 69.27L72.19 67.93L70.81 66.44L69.6 64.86L68.54 63.14L67.58 61.31L67.23 60.14L66.48 60.24L65.1 60.07L63.93 59.48L62.97 58.48L62.3 57.14L62.12 56.38L62.09 55.62L62.44 54.17L63.26 52.9L63.82 52.42L65.21 51.69L66.41 51.49L66.38 50.87L66.48 50.25L65.88 50.28L66.2 48.35L66.7 46.45L67.4 44.59L68.25 42.73L69.39 40.87L70.66 39.15L72.08 37.56L73.68 36.15L75.41 34.87L77.22 33.77L79.21 32.84L81.3 32.05L83 31.6L86.37 31.08L89.84 31.12L91.58 31.32L94.98 32.12L96.64 32.74L98.27 33.46L100.22 34.56L102 35.8L103.63 37.22L105.08 38.73L106.39 40.42L107.52 42.21L108.48 44.11L109.26 46.14L109.83 48.28L110.18 50.35L110.32 52.45L110.25 54.55L109.97 56.66L109.47 58.69L108.76 60.69L107.81 62.69ZM110.5 45.8L109.76 43.87L108.91 42.04L107.88 40.35L106.71 38.7L105.4 37.22L103.94 35.8L102.39 34.53L100.68 33.39L98.88 32.36L96.96 31.53L95.05 30.84L93.06 30.32L91.04 29.98L89.02 29.81L87 29.81L84.95 29.98L82.93 30.36L80.91 30.88L78.96 31.57L77.08 32.43L75.31 33.43L73.64 34.56L72.08 35.84L70.66 37.25L69.35 38.77L68.15 40.42L67.12 42.18L66.16 44.21L65.42 46.32L64.89 48.42L64.57 50.59L63.65 51L62.87 51.55L62.19 52.21L61.63 52.97L61.2 53.8L60.95 54.69L60.81 55.62L60.88 56.55L61.1 57.52L61.77 58.93L62.23 59.52L63.08 60.27L64.04 60.86L65.1 61.24L66.23 61.41L67.09 63.14L68.01 64.76L69.03 66.27L70.2 67.68L71.48 68.99L72.86 70.2L74.28 71.3L75.84 72.3L77.43 73.16L79.1 73.89L80.84 74.51L82.61 74.99L82.61 83.81L83.88 83.81L83.88 75.27L85.94 75.54L88.07 75.61L90.16 75.54L92.25 75.27L92.25 83.81L93.56 83.81L93.56 74.99L95.15 74.54L97.14 73.85L98.98 72.99L100.75 71.99L102.42 70.86L103.98 69.58L105.43 68.2L106.74 66.65L107.91 65.03L108.94 63.24L109.83 61.41L110.54 59.52L111.07 57.62L111.42 55.66L111.6 53.69L111.6 51.69L111.39 49.73L111.03 47.76L110.5 45.8Z" fill="#000000" fill-opacity="1.000000" fill-rule="evenodd"/>
	<path id="Fill-91" d="M106.71 64.55L105.43 66.27L103.98 67.86L102.39 69.3L100.68 70.58L98.84 71.68L96.89 72.61L94.76 73.37L92.67 73.89L90.62 74.23L88.56 74.37L86.51 74.34L84.49 74.1L82.5 73.68L80.59 73.13L78.75 72.37L76.94 71.48L75.27 70.44L73.68 69.27L72.19 67.93L70.81 66.44L69.6 64.86L68.54 63.14L67.58 61.31L67.23 60.14L66.48 60.24L65.1 60.07L63.93 59.48L62.97 58.48L62.3 57.14L62.12 56.38L62.09 55.62L62.44 54.17L63.26 52.9L63.82 52.42L65.21 51.69L66.41 51.49L66.38 50.87L66.48 50.25L65.88 50.28L66.2 48.35L66.7 46.45L67.4 44.59L68.25 42.73L69.39 40.87L70.66 39.15L72.08 37.56L73.68 36.15L75.41 34.87L77.22 33.77L79.21 32.84L81.3 32.05L83 31.6L86.37 31.08L89.84 31.12L91.58 31.32L94.98 32.12L96.64 32.74L98.27 33.46L100.22 34.56L102 35.8L103.63 37.22L105.08 38.73L106.39 40.42L107.52 42.21L108.48 44.11L109.26 46.14L109.83 48.28L110.18 50.35L110.32 52.45L110.25 54.55L109.97 56.66L109.47 58.69L108.76 60.69L107.81 62.69L106.71 64.55ZM109.76 43.87L108.91 42.04L107.88 40.35L106.71 38.7L105.4 37.22L103.94 35.8L102.39 34.53L100.68 33.39L98.88 32.36L96.96 31.53L95.05 30.84L93.06 30.32L91.04 29.98L89.02 29.81L87 29.81L84.95 29.98L82.93 30.36L80.91 30.88L78.96 31.57L77.08 32.43L75.31 33.43L73.64 34.56L72.08 35.84L70.66 37.25L69.35 38.77L68.15 40.42L67.12 42.18L66.16 44.21L65.42 46.32L64.89 48.42L64.57 50.59L63.65 51L62.87 51.55L62.19 52.21L61.63 52.97L61.2 53.8L60.95 54.69L60.81 55.62L60.88 56.55L61.1 57.52L61.77 58.93L62.23 59.52L63.08 60.27L64.04 60.86L65.1 61.24L66.23 61.41L67.09 63.14L68.01 64.76L69.03 66.27L70.2 67.68L71.48 68.99L72.86 70.2L74.28 71.3L75.84 72.3L77.43 73.16L79.1 73.89L80.84 74.51L82.61 74.99L82.61 83.81L83.88 83.81L83.88 75.27L85.94 75.54L88.07 75.61L90.16 75.54L92.25 75.27L92.25 83.81L93.56 83.81L93.56 74.99L95.15 74.54L97.14 73.85L98.98 72.99L100.75 71.99L102.42 70.86L103.98 69.58L105.43 68.2L106.74 66.65L107.91 65.03L108.94 63.24L109.83 61.41L110.54 59.52L111.07 57.62L111.42 55.66L111.6 53.69L111.6 51.69L111.39 49.73L111.03 47.76L110.5 45.8L109.76 43.87Z" stroke="#000000" stroke-opacity="0" stroke-width="1.000000"/>
	<path id="Fill-93" d="M67.9 53.97L67.26 53.55L66.55 53.31L65.74 53.21L64.78 53.24L63.65 53.45L63.97 54.66L65.07 54.45L65.88 54.45L66.55 54.62L67.09 54.93L67.62 55.48L67.94 56.14L68.11 56.86L68.22 58.03L69.5 58.1L69.35 56.52L69.18 55.86L68.47 54.55L67.9 53.97Z" fill="#000000" fill-opacity="1.000000" fill-rule="evenodd"/>
	<path id="Fill-93" d="M67.26 53.55L66.55 53.31L65.74 53.21L64.78 53.24L63.65 53.45L63.97 54.66L65.07 54.45L65.88 54.45L66.55 54.62L67.09 54.93L67.62 55.48L67.94 56.14L68.11 56.86L68.22 58.03L69.5 58.1L69.35 56.52L69.18 55.86L68.47 54.55L67.9 53.97L67.26 53.55Z" stroke="#000000" stroke-opacity="0" stroke-width="1.000000"/>
	<path id="Fill-95" d="M140.41 145.47L128.65 142.58L128.72 157.67L91.5 157.67L92.67 165.91L105.47 166.81L108.66 167.12L111.39 167.53L114.68 168.25L117.59 169.39L119.54 170.36L121.24 171.6L121.7 172.15L122.02 172.98L122.05 173.42L121.81 174.04L120.07 174.04L120.46 173.67L120.6 173.01L120.39 172.56L119.96 172.08L118.97 171.36L117.7 170.63L115.5 169.67L112.84 168.87L108.41 168.19L105.26 167.88L89.63 166.74L85.02 166.29L77.12 165.19L70.74 163.84L67.62 163.02L64.53 162.02L60.81 160.6L57.84 159.02L56.2 157.92L54.75 156.71L53.44 155.4L52.27 153.99L51.24 152.47L50.39 150.85L49.65 149.09L49.05 147.2L48.58 145.2L48.34 139.17L16.26 137.48L16.62 134.03L17.08 130.83L17.64 127.76L18.35 124.9L19.13 122.17L20.37 118.76L21.76 115.63L23.24 112.66L24.87 109.94L26.68 107.29L28.6 104.8L30.58 102.53L32.67 100.39L34.87 98.39L37.14 96.53L39.48 94.81L41.82 93.22L45.08 91.29L48.34 89.6L51.6 88.09L54.93 86.78L58.15 85.61L61.27 84.64L67.33 83.13L74.03 81.92L77.26 81.51L80.2 81.23L83.88 81.06L84.74 82.16L85.51 82.92L86.22 83.4L87 83.71L87.75 83.85L88.46 83.81L89.52 83.57L90.41 83.13L91.19 82.61L92.25 81.61L96.08 82.33L99.69 83.19L103.16 84.16L106.46 85.23L109.79 86.43L115.89 89.05L122.37 92.47L125.74 94.46L128.82 96.5L131.84 98.63L136.83 102.6L140.13 105.49L142.65 107.94L144.81 110.22L147.36 113.14L140.41 145.47Z" fill="#3985FF" fill-opacity="1.000000" fill-rule="evenodd"/>
	<path id="Fill-95" d="M128.65 142.58L128.72 157.67L91.5 157.67L92.67 165.91L105.47 166.81L108.66 167.12L111.39 167.53L114.68 168.25L117.59 169.39L119.54 170.36L121.24 171.6L121.7 172.15L122.02 172.98L122.05 173.42L121.81 174.04L120.07 174.04L120.46 173.67L120.6 173.01L120.39 172.56L119.96 172.08L118.97 171.36L117.7 170.63L115.5 169.67L112.84 168.87L108.41 168.19L105.26 167.88L89.63 166.74L85.02 166.29L77.12 165.19L70.74 163.84L67.62 163.02L64.53 162.02L60.81 160.6L57.84 159.02L56.2 157.92L54.75 156.71L53.44 155.4L52.27 153.99L51.24 152.47L50.39 150.85L49.65 149.09L49.05 147.2L48.58 145.2L48.34 139.17L16.26 137.48L16.62 134.03L17.08 130.83L17.64 127.76L18.35 124.9L19.13 122.17L20.37 118.76L21.76 115.63L23.24 112.66L24.87 109.94L26.68 107.29L28.6 104.8L30.58 102.53L32.67 100.39L34.87 98.39L37.14 96.53L39.48 94.81L41.82 93.22L45.08 91.29L48.34 89.6L51.6 88.09L54.93 86.78L58.15 85.61L61.27 84.64L67.33 83.13L74.03 81.92L77.26 81.51L80.2 81.23L83.88 81.06L84.74 82.16L85.51 82.92L86.22 83.4L87 83.71L87.75 83.85L88.46 83.81L89.52 83.57L90.41 83.13L91.19 82.61L92.25 81.61L96.08 82.33L99.69 83.19L103.16 84.16L106.46 85.23L109.79 86.43L115.89 89.05L122.37 92.47L125.74 94.46L128.82 96.5L131.84 98.63L136.83 102.6L140.13 105.49L142.65 107.94L144.81 110.22L147.36 113.14L140.41 145.47L128.65 142.58Z" stroke="#000000" stroke-opacity="0" stroke-width="1.000000"/>
	<path id="Fill-97" d="M127.62 188.62L127.37 189.28L126.95 189.9L126.34 190.52L125.46 191.14L124.29 191.76L122.69 192.38L118.72 193.69L119.57 194.38L119.86 194.79L119.96 195.31L119.89 195.72L119.61 196.31L118.83 197.07L117.16 198.07L113.8 199.38L110.78 200.34L107.98 201.03L104.33 201.69L98.98 202.34L92.67 202.69L85.62 202.62L78.21 202.1L74.21 201.58L69.11 200.72L66.41 200.17L59.61 198.38L55.46 197L49.93 194.79L44.44 192.04L41.74 190.45L39.09 188.69L36.54 186.8L34.02 184.73L31.61 182.49L28.45 178.97L25.09 174.46L23.17 171.43L20.48 166.29L19.31 163.57L18.25 160.71L17.33 157.64L16.58 154.57L16.05 151.33L15.7 147.95L15.62 145.44L15.66 142.85L15.91 140.2L16.3 137.48L17.4 137.55L16.83 142.51L16.79 147.27L17.08 150.4L17.54 153.43L18.18 156.33L18.96 159.19L19.91 161.91L20.94 164.5L22.11 167.05L24.59 171.6L25.97 173.73L28.63 177.42L30.65 179.83L32.46 181.73L35.05 184.14L37.7 186.31L40.43 188.28L43.3 190.11L46.17 191.73L49.08 193.21L52.09 194.52L57.94 196.72L63.79 198.45L70.66 199.93L78.11 201L85.16 201.51L92 201.58L98.31 201.27L103.77 200.69L106.35 200.24L110.47 199.31L113.37 198.41L115.6 197.58L116.99 196.93L118.4 196L118.79 195.45L118.76 195.14L117.77 194.45L115.96 193.97L111.14 194.48L104.97 194.65L101.5 194.59L95.37 194.14L89.38 193.41L89.59 192.35L93.95 192.93L101.25 193.48L107.17 193.59L110.25 193.48L113.34 193.21L118.23 192.45L122.37 191.35L123.9 190.62L124.89 190.04L125.71 189.38L126.13 188.9L126.49 188L126.34 187.18L125.53 186.04L123.83 184.8L122.94 184.35L121.77 184.87L120.25 185.35L118.37 185.76L115.99 186.11L112.95 186.35L109.12 186.42L104.44 186.35L99.76 186.11L87.82 185.11L87.96 184.04L100.26 185.07L108.48 185.35L112.17 185.28L114.61 185.14L118.65 184.59L120.5 184.14L121.95 183.59L123.05 183.01L123.86 182.11L124.32 181.39L124.5 180.73L124.46 180.11L124.08 179.39L123.01 178.42L121.24 177.42L118.65 176.49L117.45 176.18L115.53 176.53L113.12 176.77L107.84 177.04L102.14 177.04L96.61 176.87L86.86 176.28L86.97 175.22L98.2 175.84L104.55 175.97L110.78 175.84L113.66 175.66L117.31 175.11L118.65 174.77L119.43 174.42L120.07 174.04L120.46 173.67L120.64 173.29L120.6 173.01L120.39 172.56L119.96 172.08L118.97 171.36L117.7 170.63L115.5 169.67L112.84 168.87L111.1 168.56L105.26 167.88L89.63 166.74L85.02 166.29L77.12 165.19L70.74 163.84L67.62 163.02L64.53 162.02L61.49 160.88L59.61 160.02L57.8 159.02L56.17 157.95L54.72 156.74L53.37 155.43L52.16 154.02L51.14 152.5L50.22 150.88L49.47 149.13L48.87 147.27L48.23 143.92L48.05 140.89L48.09 139.17L48.27 136.92L48.62 134.65L49.15 132.41L49.79 130.17L50.61 128.03L51.56 126L52.55 126.45L51.53 128.83L50.61 131.38L49.9 134L49.44 136.62L49.15 140.13L49.19 141.78L49.4 143.89L49.79 145.89L50.32 147.75L51.03 149.54L51.92 151.26L52.91 152.85L54.08 154.33L55.39 155.67L56.81 156.92L58.37 158.05L60.1 159.02L61.95 159.88L65.14 161.09L68.4 162.09L71.69 162.98L75.06 163.71L81.76 164.81L86.76 165.39L108.66 167.12L113.16 167.88L115.96 168.67L117.59 169.39L119.54 170.36L120.67 171.08L121.24 171.6L121.91 172.56L122.02 172.98L121.98 173.67L121.49 174.46L120.39 175.22L119.5 175.6L121.06 176.15L123.15 177.18L124.22 177.9L124.82 178.49L125.28 179.11L125.56 179.8L125.67 180.56L125.6 181.32L125.32 182.14L124.78 182.9L124 183.66L125.92 184.9L127.05 186.11L127.55 187.07L127.65 187.56L127.62 188.62Z" fill="#000000" fill-opacity="1.000000" fill-rule="evenodd"/>
	<path id="Fill-97" d="M127.37 189.28L126.95 189.9L126.34 190.52L125.46 191.14L124.29 191.76L122.69 192.38L118.72 193.69L119.57 194.38L119.86 194.79L119.96 195.31L119.89 195.72L119.61 196.31L118.83 197.07L117.16 198.07L113.8 199.38L110.78 200.34L107.98 201.03L104.33 201.69L98.98 202.34L92.67 202.69L85.62 202.62L78.21 202.1L74.21 201.58L69.11 200.72L66.41 200.17L59.61 198.38L55.46 197L49.93 194.79L44.44 192.04L41.74 190.45L39.09 188.69L36.54 186.8L34.02 184.73L31.61 182.49L28.45 178.97L25.09 174.46L23.17 171.43L20.48 166.29L19.31 163.57L18.25 160.71L17.33 157.64L16.58 154.57L16.05 151.33L15.7 147.95L15.62 145.44L15.66 142.85L15.91 140.2L16.3 137.48L17.4 137.55L16.83 142.51L16.79 147.27L17.08 150.4L17.54 153.43L18.18 156.33L18.96 159.19L19.91 161.91L20.94 164.5L22.11 167.05L24.59 171.6L25.97 173.73L28.63 177.42L30.65 179.83L32.46 181.73L35.05 184.14L37.7 186.31L40.43 188.28L43.3 190.11L46.17 191.73L49.08 193.21L52.09 194.52L57.94 196.72L63.79 198.45L70.66 199.93L78.11 201L85.16 201.51L92 201.58L98.31 201.27L103.77 200.69L106.35 200.24L110.47 199.31L113.37 198.41L115.6 197.58L116.99 196.93L118.4 196L118.79 195.45L118.76 195.14L117.77 194.45L115.96 193.97L111.14 194.48L104.97 194.65L101.5 194.59L95.37 194.14L89.38 193.41L89.59 192.35L93.95 192.93L101.25 193.48L107.17 193.59L110.25 193.48L113.34 193.21L118.23 192.45L122.37 191.35L123.9 190.62L124.89 190.04L125.71 189.38L126.13 188.9L126.49 188L126.34 187.18L125.53 186.04L123.83 184.8L122.94 184.35L121.77 184.87L120.25 185.35L118.37 185.76L115.99 186.11L112.95 186.35L109.12 186.42L104.44 186.35L99.76 186.11L87.82 185.11L87.96 184.04L100.26 185.07L108.48 185.35L112.17 185.28L114.61 185.14L118.65 184.59L120.5 184.14L121.95 183.59L123.05 183.01L123.86 182.11L124.32 181.39L124.5 180.73L124.46 180.11L124.08 179.39L123.01 178.42L121.24 177.42L118.65 176.49L117.45 176.18L115.53 176.53L113.12 176.77L107.84 177.04L102.14 177.04L96.61 176.87L86.86 176.28L86.97 175.22L98.2 175.84L104.55 175.97L110.78 175.84L113.66 175.66L117.31 175.11L118.65 174.77L119.43 174.42L120.07 174.04L120.46 173.67L120.64 173.29L120.6 173.01L120.39 172.56L119.96 172.08L118.97 171.36L117.7 170.63L115.5 169.67L112.84 168.87L111.1 168.56L105.26 167.88L89.63 166.74L85.02 166.29L77.12 165.19L70.74 163.84L67.62 163.02L64.53 162.02L61.49 160.88L59.61 160.02L57.8 159.02L56.17 157.95L54.72 156.74L53.37 155.43L52.16 154.02L51.14 152.5L50.22 150.88L49.47 149.13L48.87 147.27L48.23 143.92L48.05 140.89L48.09 139.17L48.27 136.92L48.62 134.65L49.15 132.41L49.79 130.17L50.61 128.03L51.56 126L52.55 126.45L51.53 128.83L50.61 131.38L49.9 134L49.44 136.62L49.15 140.13L49.19 141.78L49.4 143.89L49.79 145.89L50.32 147.75L51.03 149.54L51.92 151.26L52.91 152.85L54.08 154.33L55.39 155.67L56.81 156.92L58.37 158.05L60.1 159.02L61.95 159.88L65.14 161.09L68.4 162.09L71.69 162.98L75.06 163.71L81.76 164.81L86.76 165.39L108.66 167.12L113.16 167.88L115.96 168.67L117.59 169.39L119.54 170.36L120.67 171.08L121.24 171.6L121.91 172.56L122.02 172.98L121.98 173.67L121.49 174.46L120.39 175.22L119.5 175.6L121.06 176.15L123.15 177.18L124.22 177.9L124.82 178.49L125.28 179.11L125.56 179.8L125.67 180.56L125.6 181.32L125.32 182.14L124.78 182.9L124 183.66L125.92 184.9L127.05 186.11L127.55 187.07L127.65 187.56L127.62 188.62L127.37 189.28Z" stroke="#000000" stroke-opacity="0" stroke-width="1.000000"/>
	<path id="Fill-99" d="M194.39 68.75L193.68 68.37L194.57 66.96L195.49 65.86L196.38 65L197.26 64.38L198.18 63.93L199.14 63.65L200.7 63.62L202.29 64.03L203.53 64.76L203.04 65.34L201.97 64.76L201.16 64.48L200.31 64.38L199.28 64.44L198.47 64.69L197.65 65.07L196.84 65.65L196.02 66.41L195.21 67.44L194.39 68.75Z" fill="#3985FF" fill-opacity="1.000000" fill-rule="evenodd"/>
	<path id="Fill-99" d="M193.68 68.37L194.57 66.96L195.49 65.86L196.38 65L197.26 64.38L198.18 63.93L199.14 63.65L200.7 63.62L202.29 64.03L203.53 64.76L203.04 65.34L201.97 64.76L201.16 64.48L200.31 64.38L199.28 64.44L198.47 64.69L197.65 65.07L196.84 65.65L196.02 66.41L195.21 67.44L194.39 68.75L193.68 68.37Z" stroke="#000000" stroke-opacity="0" stroke-width="1.000000"/>
	<path id="Fill-101" d="M192.55 65.1L191.87 64.65L193.15 63.14L194.39 61.93L195.6 61L196.87 60.31L198.11 59.86L199.42 59.59L200.73 59.52L201.94 59.65L203.92 60.24L205.84 61.31L205.31 61.89L203.64 60.96L201.8 60.41L200.7 60.31L199.49 60.38L198.32 60.62L197.15 61.03L196.02 61.69L194.89 62.55L193.72 63.69L192.55 65.1Z" fill="#3985FF" fill-opacity="1.000000" fill-rule="evenodd"/>
	<path id="Fill-101" d="M191.87 64.65L193.15 63.14L194.39 61.93L195.6 61L196.87 60.31L198.11 59.86L199.42 59.59L200.73 59.52L201.94 59.65L203.92 60.24L205.84 61.31L205.31 61.89L203.64 60.96L201.8 60.41L200.7 60.31L199.49 60.38L198.32 60.62L197.15 61.03L196.02 61.69L194.89 62.55L193.72 63.69L192.55 65.1L191.87 64.65Z" stroke="#000000" stroke-opacity="0" stroke-width="1.000000"/>
	<path id="Fill-103" d="M234.93 88.81L234.4 88.23L235.15 87.3L235.54 86.57L235.79 85.74L235.86 84.74L235.71 83.92L235.43 83.09L234.93 82.23L234.26 81.37L233.34 80.44L232.14 79.44L232.6 78.82L233.91 79.89L234.93 80.88L235.68 81.88L236.18 82.81L236.53 83.78L236.64 84.71L236.49 86.23L235.86 87.71L234.93 88.81Z" fill="#3985FF" fill-opacity="1.000000" fill-rule="evenodd"/>
	<path id="Fill-103" d="M234.4 88.23L235.15 87.3L235.54 86.57L235.79 85.74L235.86 84.74L235.71 83.92L235.43 83.09L234.93 82.23L234.26 81.37L233.34 80.44L232.14 79.44L232.6 78.82L233.91 79.89L234.93 80.88L235.68 81.88L236.18 82.81L236.53 83.78L236.64 84.71L236.49 86.23L235.86 87.71L234.93 88.81L234.4 88.23Z" stroke="#000000" stroke-opacity="0" stroke-width="1.000000"/>
	<path id="Fill-105" d="M238.16 91.47L237.59 90.91L238.76 89.4L239.58 87.71L239.86 86.71L239.97 85.5L239.86 84.37L239.58 83.19L239.08 81.99L238.37 80.75L237.38 79.51L236.07 78.16L236.64 77.61L238.02 79.02L239.05 80.37L239.83 81.68L240.36 82.99L240.68 84.26L240.78 85.54L240.64 86.85L240.36 87.95L239.47 89.81L238.16 91.47Z" fill="#3985FF" fill-opacity="1.000000" fill-rule="evenodd"/>
	<path id="Fill-105" d="M237.59 90.91L238.76 89.4L239.58 87.71L239.86 86.71L239.97 85.5L239.86 84.37L239.58 83.19L239.08 81.99L238.37 80.75L237.38 79.51L236.07 78.16L236.64 77.61L238.02 79.02L239.05 80.37L239.83 81.68L240.36 82.99L240.68 84.26L240.78 85.54L240.64 86.85L240.36 87.95L239.47 89.81L238.16 91.47L237.59 90.91Z" stroke="#000000" stroke-opacity="0" stroke-width="1.000000"/>
	<path id="Fill-107" d="M130.56 185.73L132.55 168.43L134 167.01L134.78 166.57L135.59 166.26L136.41 166.15L137.19 166.15L137.97 166.32L139.39 166.94L140.56 167.94L141.02 168.53L141.62 169.98L141.76 170.74L141.72 171.56L141.55 172.36L141.16 173.18L140.56 174.04L130.56 185.73ZM140.7 166.6L139.21 165.64L138.36 165.33L137.44 165.12L136.51 165.08L135.56 165.19L134.64 165.46L133.71 165.95L132.76 166.67L133.93 156.61L90.26 156.61L91.65 166.43L92.71 166.29L91.5 157.67L132.72 157.67L128.08 197.58L115.89 197.58L115.5 198.62L129.04 198.62L130.35 187.62L141.37 174.73L142.11 173.67L142.58 172.67L142.82 171.7L142.86 170.7L142.72 169.74L142.4 168.84L141.94 168.01L140.7 166.6Z" fill="#000000" fill-opacity="1.000000" fill-rule="evenodd"/>
	<path id="Fill-107" d="M132.55 168.43L134 167.01L134.78 166.57L135.59 166.26L136.41 166.15L137.19 166.15L137.97 166.32L139.39 166.94L140.56 167.94L141.02 168.53L141.62 169.98L141.76 170.74L141.72 171.56L141.55 172.36L141.16 173.18L140.56 174.04L130.56 185.73L132.55 168.43ZM139.21 165.64L138.36 165.33L137.44 165.12L136.51 165.08L135.56 165.19L134.64 165.46L133.71 165.95L132.76 166.67L133.93 156.61L90.26 156.61L91.65 166.43L92.71 166.29L91.5 157.67L132.72 157.67L128.08 197.58L115.89 197.58L115.5 198.62L129.04 198.62L130.35 187.62L141.37 174.73L142.11 173.67L142.58 172.67L142.82 171.7L142.86 170.7L142.72 169.74L142.4 168.84L141.94 168.01L140.7 166.6L139.21 165.64Z" stroke="#000000" stroke-opacity="0" stroke-width="1.000000"/>
</svg>
