<svg xmlns="http://www.w3.org/2000/svg" width="16" height="16" viewBox="0 0 16 16">
  <path fill="#C5CFE0" fill-rule="evenodd" d="M6,12 L6,13.443289 C6,13.5045176 6.02246964,13.5636172 6.06314767,13.60938 C6.15487717,13.7125757 6.31289527,13.7218709 6.41609096,13.6301414 L6.41609096,13.6301414 L10.0795823,10.3737047 C10.0942247,10.3606892 10.1080895,10.3468243 10.121105,10.3321819 C10.304564,10.1257905 10.2859736,9.80975435 10.0795823,9.62629534 L10.0795823,9.62629534 L6.41609096,6.36985863 C6.37032818,6.3291806 6.31122854,6.30671096 6.25,6.30671096 C6.11192881,6.30671096 6,6.41863977 6,6.55671096 L6,6.55671096 L6,8 L2,8 L2,2 C2,1.44771525 2.44771525,1 3,1 L10.3076923,1 L14,4.73333333 L14,14 C14,14.5522847 13.5522847,15 13,15 L3,15 C2.44771525,15 2,14.5522847 2,14 L2,12 L6,12 Z"/>
</svg>
