<svg xmlns="http://www.w3.org/2000/svg" width="14" height="14" viewBox="0 0 14 14">
  <path fill="#536076" fill-rule="evenodd" d="M7,0 C10.8659932,0 14,3.13400675 14,7 C14,10.8659932 10.8659932,14 7,14 C3.13400675,14 0,10.8659932 0,7 C0,3.13400675 3.13400675,0 7,0 Z M10.1819805,4.76776695 L6.29289322,8.65685425 L4.52512627,6.8890873 C4.32986412,6.69382515 4.01328163,6.69382515 3.81801948,6.8890873 C3.62275734,7.08434944 3.62275734,7.40093193 3.81801948,7.59619408 L5.93933983,9.71751442 C6.13460197,9.91277657 6.45118446,9.91277657 6.64644661,9.71751442 L10.8890873,5.47487373 C11.0843494,5.27961159 11.0843494,4.9630291 10.8890873,4.76776695 C10.6938252,4.57250481 10.3772427,4.57250481 10.1819805,4.76776695 Z"/>
</svg>
