<svg xmlns="http://www.w3.org/2000/svg" width="16" height="16" viewBox="0 0 16 16">
  <path fill="#626E88" d="M7.97372791 1.0658141e-14C9.27573738 1.0658141e-14 10.1491591 1.02422533 10.3404746 2.036239 12.5 3 13.0722528 3.94248378 13.0105859 8.09660144 13.0047532 8.48950898 13.0014452 8.75443196 13 9 13.9827091 9.67147672 15 11.3796913 15 12.4583332 15 12.7574874 14.7589226 13 14.4615385 13 13.9799845 13 13.1049216 13 10.6614766 12.999704 9.37440773 12.999596 9.37440773 12.999596 8.0237454 12.999505 4.55293347 12.9992933 2.31988387 12.9994109 1.53886508 13 1.24132346 13.000224 1 12.757646 1 12.4583332 1 11.3922594 2.03870368 9.66900118 3 9 2.99856058 8.75391193 2.99525055 8.48864581 2.98940328 8.09475137 2.92773637 3.94063371 3.5 3 5.60698119 2.036239 5.79829669 1.02422533 6.67171844 1.0658141e-14 7.97372791 1.0658141e-14zM4 14.5C4 14.2238576 4.29847683 14 4.66666667 14L11.3333333 14C11.7015232 14 12 14.2238576 12 14.5 12 14.6922099 10.5618054 15 8 15 5.43819461 15 4 14.6922099 4 14.5z"/>
</svg>
