<svg xmlns="http://www.w3.org/2000/svg" width="14" height="14" viewBox="0 0 14 14">
  <path fill="#C5CFE0" fill-rule="evenodd" d="M7,0 C10.3137085,0 13,0.927517607 13,2.33333333 C13,2.44424827 12.2606725,5.68309504 10.7820174,12.0498737 L10.6886124,12.451864 C10.6289802,12.7085364 10.4704459,12.9312968 10.2474716,13.0717216 C9.26482407,13.6905739 8.18233355,14 7,14 C5.91617954,14 4.91625723,13.739989 4.00023307,13.2199671 L3.75248331,13.0717045 C3.52951762,12.9312828 3.37098512,12.7085342 3.31134306,12.4518733 C1.77044769,5.82085682 1,2.44801015 1,2.33333333 C1,0.927517607 3.6862915,0 7,0 Z M7,1.16666667 C4.3490332,1.16666667 2.2,1.68900113 2.2,2.33333333 C2.2,2.97766554 4.3490332,3.5 7,3.5 C9.6509668,3.5 11.8,2.97766554 11.8,2.33333333 C11.8,1.68900113 9.6509668,1.16666667 7,1.16666667 Z"/>
</svg>
