<svg xmlns="http://www.w3.org/2000/svg" width="14" height="14" viewBox="0 0 14 14">
  <g fill="none" fill-rule="evenodd">
    <rect width="14" height="1" y="13" fill="#C5CFE0" rx=".5"/>
    <path fill="#C5CFE0" d="M5,0 L9,0 C9.55228475,-1.01453063e-16 10,0.44771525 10,1 L10,6 L10,6 L12.7267318,6 C13.0028742,6 13.2267318,6.22385763 13.2267318,6.5 C13.2267318,6.6390344 13.1688409,6.77179063 13.0669574,6.86639675 L7.6804511,11.8681526 C7.29676996,12.2244279 6.70323004,12.2244279 6.3195489,11.8681526 L0.933042649,6.86639675 C0.730687314,6.67849536 0.718970071,6.36212979 0.906871453,6.15977445 C1.00147756,6.05789095 1.1342338,6 1.2732682,6 L4,6 L4,6 L4,1 C4,0.44771525 4.44771525,1.01453063e-16 5,0 Z"/>
  </g>
</svg>
