<?xml version="1.0" encoding="UTF-8" standalone="no"?>
<svg
   width="1920"
   height="324"
   preserveAspectRatio="xMidYMid"
   viewBox="0 0 1920 324"
   style="z-index:1;margin-right:-2px;display:block;background-repeat-y:initial;background-repeat-x:initial;animation-play-state:paused"
   version="1.1"
   id="svg17"
   sodipodi:docname="background-mediacenter.svg"
   inkscape:version="1.1 (c4e8f9ed74, 2021-05-24)"
   xmlns:inkscape="http://www.inkscape.org/namespaces/inkscape"
   xmlns:sodipodi="http://sodipodi.sourceforge.net/DTD/sodipodi-0.dtd"
   xmlns:xlink="http://www.w3.org/1999/xlink"
   xmlns="http://www.w3.org/2000/svg"
   xmlns:svg="http://www.w3.org/2000/svg">
  <defs
     id="defs21">
    <linearGradient
       id="lg-0.9371809925933641"
       x1="0"
       x2="1"
       y1="0"
       y2="0">
      <stop
         stop-color="#ff00ff"
         offset="0"
         style="animation-play-state:paused"
         id="stop2-0" />
      <stop
         stop-color="#00ffff"
         offset="1"
         style="animation-play-state:paused"
         id="stop4-9" />
    </linearGradient>
    <linearGradient
       inkscape:collect="always"
       xlink:href="#lg-0.9371809925933641"
       id="linearGradient977"
       x1="0"
       y1="-93.926095"
       x2="701.02423"
       y2="-93.926095"
       gradientTransform="scale(2.7388497,0.36511679)"
       gradientUnits="userSpaceOnUse" />
    <linearGradient
       inkscape:collect="always"
       xlink:href="#lg-0.9371809925933641"
       id="linearGradient979"
       x1="0"
       y1="0"
       x2="576.57197"
       y2="0"
       gradientTransform="scale(3.3300266,0.3002979)"
       gradientUnits="userSpaceOnUse" />
    <linearGradient
       inkscape:collect="always"
       xlink:href="#lg-0.9371809925933641"
       id="linearGradient981"
       x1="0"
       y1="-110.10956"
       x2="716.32399"
       y2="-110.10956"
       gradientTransform="scale(2.6803514,0.37308541)"
       gradientUnits="userSpaceOnUse" />
    <linearGradient
       inkscape:collect="always"
       xlink:href="#lg-0.9371809925933641"
       id="linearGradient983"
       x1="0"
       y1="0"
       x2="483.48651"
       y2="0"
       gradientTransform="scale(3.9711553,0.25181589)"
       gradientUnits="userSpaceOnUse" />
    <linearGradient
       inkscape:collect="always"
       xlink:href="#lg-0.9371809925933641"
       id="linearGradient985"
       x1="0"
       y1="0"
       x2="651.21895"
       y2="0"
       gradientTransform="scale(2.9483172,0.33917654)"
       gradientUnits="userSpaceOnUse" />
  </defs>
  <sodipodi:namedview
     id="namedview19"
     pagecolor="#ffffff"
     bordercolor="#111111"
     borderopacity="1"
     inkscape:pageshadow="0"
     inkscape:pageopacity="0"
     inkscape:pagecheckerboard="1"
     showgrid="false"
     inkscape:zoom="0.7198176"
     inkscape:cx="169.48738"
     inkscape:cy="138.22946"
     inkscape:window-width="1920"
     inkscape:window-height="994"
     inkscape:window-x="0"
     inkscape:window-y="0"
     inkscape:window-maximized="1"
     inkscape:current-layer="svg17" />
  <g
     transform="translate(960,162) scale(1,1) translate(-960,-162)"
     style="transform:matrix(1, 0, 0, 1, 0, 0);animation-play-state:paused"
     id="g15">
    <linearGradient
       id="lg-0.9467097372583833"
       x1="0"
       x2="1"
       y1="0"
       y2="0"
       style="animation-play-state:paused">
      <stop
         stop-color="#ff00ff"
         offset="0"
         style="animation-play-state:paused"
         id="stop2" />
      <stop
         stop-color="#00ffff"
         offset="1"
         style="animation-play-state:paused"
         id="stop4" />
    </linearGradient>
    <path
       d="M 0 0 L 0 304.383 Q 192 307.117 384 271.998 T 768 253.674 T 1152 117.11 T 1536 196.037 T 1920 55.6414 L 1920 0 Z"
       fill="url(#lg-0.9467097372583833)"
       opacity="0.4"
       style="opacity:0.4;animation-play-state:paused"
       id="path7" />
    <path
       d="M 0 0 L 0 192.322 Q 192 262.241 384 233.414 T 768 134.138 T 1152 194.343 T 1536 103.252 T 1920 130.598 L 1920 0 Z"
       fill="url(#lg-0.9467097372583833)"
       opacity="0.4"
       style="opacity:0.4;animation-play-state:paused"
       id="path9" />
    <path
       d="M 0 0 L 0 258.098 Q 192 218.466 384 178.462 T 768 219.936 T 1152 170.354 T 1536 169.87 T 1920 177.362 L 1920 0 Z"
       fill="url(#lg-0.9467097372583833)"
       opacity="0.4"
       style="opacity:0.4;animation-play-state:paused"
       id="path11" />
    <path
       d="M 0 0 L 0 190.165 Q 192 283.666 384 254.247 T 768 220.084 T 1152 166.219 T 1536 87.8783 T 1920 91.5403 L 1920 0 Z"
       fill="url(#lg-0.9467097372583833)"
       opacity="0.4"
       style="opacity:0.4;animation-play-state:paused"
       id="path13" />
  </g>
  <g
     style="display:block"
     id="g17">
    <linearGradient
       id="linearGradient969"
       x1="0"
       x2="1"
       y1="0"
       y2="0">
      <stop
         stop-color="#ff00ff"
         offset="0"
         style="animation-play-state:paused"
         id="stop965" />
      <stop
         stop-color="#00ffff"
         offset="1"
         style="animation-play-state:paused"
         id="stop967" />
    </linearGradient>
    <path
       d="m 0,0 v 157.116 q 192,-49.724 384,-83.2478 192,-33.5238 384,-1.425 192,32.0988 384,122.3578 192,90.259 384,-122.7757 192,-213.0347 384,0.7937 V 0 Z"
       fill="url(#lg-0.9371809925933641)"
       opacity="0.4"
       style="opacity:0.4;fill:url(#linearGradient977)"
       id="path7-1" />
    <path
       d="m 0,0 v 157.047 q 192,8.026 384,-31.345 192,-39.371 384,-21.028 192,18.343 384,-57.9243 192,-76.2673 384,66.4733 192,142.7406 384,-54.5515 V 0 Z"
       fill="url(#lg-0.9371809925933641)"
       opacity="0.4"
       style="opacity:0.4;fill:url(#linearGradient979)"
       id="path9-7" />
    <path
       d="M 0,0 V 222.157 Q 192,94.2785 384,77.5099 576,60.7413 768,182.741 q 192,121.9997 384,-98.7211 192,-220.7208 384,-52.0123 192,168.7085 384,58.8645 V 0 Z"
       fill="url(#lg-0.9371809925933641)"
       opacity="0.4"
       style="opacity:0.4;fill:url(#linearGradient981)"
       id="path11-7" />
    <path
       d="m 0,0 v 117.155 q 192,13.37 384,-12.166 192,-25.536 384,-41.3944 192,-15.8584 384,-11.75 192,4.1084 384,28.7472 192,24.6388 384,-0.5086 V 0 Z"
       fill="url(#lg-0.9371809925933641)"
       opacity="0.4"
       style="opacity:0.4;fill:url(#linearGradient983)"
       id="path13-1" />
    <path
       d="m 0,0 v 185.424 q 192,50.978 384,28.657 192,-22.321 384,-95.603 192,-73.282 384,31.786 192,105.068 384,-7.008 192,-112.076 384,-9.952 V 0 Z"
       fill="url(#lg-0.9371809925933641)"
       opacity="0.4"
       style="opacity:0.4;fill:url(#linearGradient985)"
       id="path15" />
  </g>
</svg>
