<?xml version="1.0" encoding="UTF-8"?>
<svg width="36px" height="36px" viewBox="0 0 36 36" version="1.1" xmlns="http://www.w3.org/2000/svg" xmlns:xlink="http://www.w3.org/1999/xlink">
    <title>账户- dark</title>
    <g id="账户--dark" stroke="none" stroke-width="1" fill="none" fill-rule="evenodd">
        <g id="编组-4">
            <path d="M14,13 L14,13 C14,15.2091326 15.7908567,17 18,17 C20.2091326,17 22,15.2091433 22,13 L22,13 C22,10.7908674 20.2091433,9 18,9 C15.7908674,9 14,10.7908567 14,13 L14,13 Z M23.0999981,18.1608929 C22.5,17.8452111 21.824996,18.0030518 21.449998,18.5554965 C20.6249962,19.7393037 19.4249964,20.5285072 18.0749954,20.5285072 C16.6499954,20.5285072 15.3749933,19.7393037 14.6999927,18.5554965 C14.3999926,18.0030544 13.7249931,17.8452122 13.1249915,18.1608929 C10.7249885,19.5814615 9,21.475553 9,24.0010206 C9,25.8951121 9.60000164,27 11.3250006,27 L24.6749994,27 C26.4750008,27 27,25.974035 27,24.0010206 C27,21.0809641 25.6499989,19.5814615 23.1000087,18.1608929 L23.0999981,18.1608929 Z M18,36 C8.1,36 0,27.9 0,18 C0,8.1 8.1,0 18,0 C27.9,0 36,8.1 36,18 C36,27.9 27.9,36 18,36 Z" id="形状" fill-opacity="0.8" fill="#626E88" fill-rule="nonzero"></path>
            <circle id="椭圆形" stroke-opacity="0.1" stroke="#FFFFFF" cx="18" cy="18" r="17.5"></circle>
        </g>
    </g>
</svg>