<?xml version="1.0" encoding="UTF-8"?>
<svg width="32px" height="32px" viewBox="0 0 32 32" version="1.1" xmlns="http://www.w3.org/2000/svg" xmlns:xlink="http://www.w3.org/1999/xlink">
    <title>drive-harddisk-32px</title>
    <defs>
        <filter x="-8.3%" y="-3.7%" width="116.7%" height="114.8%" filterUnits="objectBoundingBox" id="filter-1">
            <feOffset dx="0" dy="1" in="SourceAlpha" result="shadowOffsetOuter1"></feOffset>
            <feGaussianBlur stdDeviation="0.5" in="shadowOffsetOuter1" result="shadowBlurOuter1"></feGaussianBlur>
            <feColorMatrix values="0 0 0 0 0   0 0 0 0 0   0 0 0 0 0  0 0 0 0.15 0" type="matrix" in="shadowBlurOuter1" result="shadowMatrixOuter1"></feColorMatrix>
            <feMerge>
                <feMergeNode in="shadowMatrixOuter1"></feMergeNode>
                <feMergeNode in="SourceGraphic"></feMergeNode>
            </feMerge>
        </filter>
        <linearGradient x1="102.549264%" y1="57.6822305%" x2="-2.65228894%" y2="57.6822305%" id="linearGradient-2">
            <stop stop-color="#0067BC" offset="0%"></stop>
            <stop stop-color="#30EA7F" offset="4.57146722%"></stop>
            <stop stop-color="#00D887" offset="9.93130604%"></stop>
            <stop stop-color="#00B160" offset="88.9446523%"></stop>
            <stop stop-color="#00C165" offset="93.7925209%"></stop>
            <stop stop-color="#008CBD" offset="100%"></stop>
        </linearGradient>
        <linearGradient x1="100%" y1="56.4295561%" x2="0%" y2="56.4295561%" id="linearGradient-3">
            <stop stop-color="#FFFFFF" stop-opacity="0.5" offset="0%"></stop>
            <stop stop-color="#FFFFFF" offset="8.38902143%"></stop>
            <stop stop-color="#FFFFFF" stop-opacity="0.8" offset="52.3560063%"></stop>
            <stop stop-color="#FFFFFF" offset="88.1683526%"></stop>
            <stop stop-color="#FFFFFF" stop-opacity="0.5" offset="100%"></stop>
        </linearGradient>
        <radialGradient cx="48.2392027%" cy="19.1031265%" fx="48.2392027%" fy="19.1031265%" r="78.6539217%" gradientTransform="translate(0.4824, 0.191), scale(0.2083, 1), rotate(90), scale(1, 3.5807), translate(-0.4824, -0.191)" id="radialGradient-4">
            <stop stop-color="#7CFFFE" offset="0%"></stop>
            <stop stop-color="#D6CDE6" offset="100%"></stop>
        </radialGradient>
        <linearGradient x1="50%" y1="0%" x2="50%" y2="100%" id="linearGradient-5">
            <stop stop-color="#0174FF" offset="0%"></stop>
            <stop stop-color="#01C2FF" offset="50.8499801%"></stop>
            <stop stop-color="#0056FF" offset="100%"></stop>
        </linearGradient>
        <radialGradient cx="50%" cy="37.643375%" fx="50%" fy="37.643375%" r="62.356625%" id="radialGradient-6">
            <stop stop-color="#B0FF58" offset="0%"></stop>
            <stop stop-color="#37EC00" offset="100%"></stop>
        </radialGradient>
    </defs>
    <g id="drive-harddisk-32px" stroke="none" stroke-width="1" fill="none" fill-rule="evenodd">
        <g id="Group" filter="url(#filter-1)" transform="translate(4, 2)">
            <path d="M4,4.06657819e-10 L20,4.06657819e-10 C22.209139,4.06657413e-10 24,1.790861 24,4 L24,23.5 L24,23.5 L-3.48450158e-10,23.5 L-3.48450158e-10,4 C-3.48450428e-10,1.790861 1.790861,4.06658224e-10 4,4.06657819e-10 Z" id="Rectangle-1" fill="url(#linearGradient-2)"></path>
            <path d="M21.75,19.5 C22.2332492,19.5 22.6707492,19.6958754 22.9874369,20.0125631 C23.3041246,20.3292508 23.5,20.7667508 23.5,21.25 L23.5,23.75 C23.5,24.2332492 23.3041246,24.6707492 22.9874369,24.9874369 C22.6707492,25.3041246 22.2332492,25.5 21.75,25.5 L2.25,25.5 C1.76675085,25.5 1.32925085,25.3041246 1.01256313,24.9874369 C0.695875424,24.6707492 0.500000002,24.2332492 0.500000002,23.75 L0.500000002,21.25 C0.500000002,20.7667508 0.695875424,20.3292508 1.01256313,20.0125631 C1.32925085,19.6958754 1.76675085,19.5 2.25,19.5 Z" id="Rectangle-3" stroke-opacity="0.5" stroke="#FFFFFF" fill="url(#linearGradient-3)"></path>
            <path d="M21.5,22.5 C22.0522847,22.5 22.5522847,22.7238576 22.9142136,23.0857864 C23.2761424,23.4477152 23.5,23.9477152 23.5,24.5 C23.5,25.0522847 23.2761424,25.5522847 22.9142136,25.9142136 C22.5522847,26.2761424 22.0522847,26.5 21.5,26.5 L2.5,26.5 C1.94771525,26.5 1.44771525,26.2761424 1.08578644,25.9142136 C0.723857624,25.5522847 0.499999999,25.0522847 0.499999999,24.5 C0.499999999,23.9477152 0.723857624,23.4477152 1.08578644,23.0857864 C1.44771525,22.7238576 1.94771525,22.5 2.5,22.5 Z" id="Rectangle-1" stroke-opacity="0.2" stroke="#003D9C" fill="url(#radialGradient-4)"></path>
            <path d="M14,24 L15,24 L15,25 L14,25 L14,24 Z M16,24 L17,24 L17,25 L16,25 L16,24 Z M18,24 L19,24 L19,25 L18,25 L18,24 Z M20,24 L21,24 L21,25 L20,25 L20,24 Z" id="Combined-Shape" fill="url(#linearGradient-5)"></path>
            <path d="M3,25.5 C3.55228475,25.5 4,25.0522847 4,24.5 C4,23.9477153 3.55228475,23.5 3,23.5 C2.44771525,23.5 2,23.9477153 2,24.5 C2,25.0522847 2.44771525,25.5 3,25.5 Z" id="Oval" fill="url(#radialGradient-6)"></path>
        </g>
    </g>
</svg>