<?xml version="1.0" encoding="UTF-8"?>
<svg width="100px" height="80px" viewBox="0 0 100 80" version="1.1" xmlns="http://www.w3.org/2000/svg" xmlns:xlink="http://www.w3.org/1999/xlink">
    <title>ICON/Internet Control</title>
    <defs>
        <linearGradient x1="50%" y1="0%" x2="50%" y2="100%" id="linearGradient-1">
            <stop stop-color="#C3D9FF" offset="0%"></stop>
            <stop stop-color="#5F8CFE" offset="100%"></stop>
        </linearGradient>
        <linearGradient x1="42.8689053%" y1="7.96242293%" x2="42.8689053%" y2="100%" id="linearGradient-2">
            <stop stop-color="#F7FAFF" offset="0%"></stop>
            <stop stop-color="#ECF4FF" stop-opacity="0" offset="100%"></stop>
        </linearGradient>
        <linearGradient x1="44.7362961%" y1="31.7358437%" x2="83.7181187%" y2="66.3715968%" id="linearGradient-3">
            <stop stop-color="#4782FF" stop-opacity="0.185821747" offset="0%"></stop>
            <stop stop-color="#86ABFF" stop-opacity="0.304619209" offset="100%"></stop>
        </linearGradient>
        <linearGradient x1="8.49878523%" y1="30.6881407%" x2="79.0098402%" y2="65.3574372%" id="linearGradient-4">
            <stop stop-color="#FFFFFF" stop-opacity="0.393085186" offset="0%"></stop>
            <stop stop-color="#FFFFFF" stop-opacity="0.279179073" offset="100%"></stop>
        </linearGradient>
        <linearGradient x1="24.9894704%" y1="48.9795918%" x2="100%" y2="51.0204082%" id="linearGradient-5">
            <stop stop-color="#DDE7FF" offset="0%"></stop>
            <stop stop-color="#B9CDFF" offset="100%"></stop>
        </linearGradient>
        <linearGradient x1="50%" y1="0%" x2="50%" y2="100%" id="linearGradient-6">
            <stop stop-color="#FFFFFF" offset="0%"></stop>
            <stop stop-color="#FFFFFF" stop-opacity="0.385349514" offset="100%"></stop>
        </linearGradient>
        <path d="M33.5413813,56 L68.9586187,56 C70.3815453,56 71.5350552,57.1535099 71.5350552,58.5764365 C71.5350552,58.7183488 71.5233302,58.8600185 71.5,59 L71.4178005,59.493197 C71.1767065,60.9397609 69.9251362,62 68.4586187,62 L33.0413813,62 C31.6184547,62 30.4649448,60.8464901 30.4649448,59.4235635 C30.4649448,59.2816512 30.4766698,59.1399815 30.5,59 L30.5821995,58.506803 C30.8232935,57.0602391 32.0748638,56 33.5413813,56 Z" id="path-7"></path>
        <filter x="-19.1%" y="-108.3%" width="138.3%" height="383.3%" filterUnits="objectBoundingBox" id="filter-8">
            <feOffset dx="0" dy="2" in="SourceAlpha" result="shadowOffsetOuter1"></feOffset>
            <feGaussianBlur stdDeviation="2.5" in="shadowOffsetOuter1" result="shadowBlurOuter1"></feGaussianBlur>
            <feComposite in="shadowBlurOuter1" in2="SourceAlpha" operator="out" result="shadowBlurOuter1"></feComposite>
            <feColorMatrix values="0 0 0 0 0.334277339   0 0 0 0 0.494413089   0 0 0 0 0.837561124  0 0 0 0.218645856 0" type="matrix" in="shadowBlurOuter1"></feColorMatrix>
        </filter>
        <filter x="-21.5%" y="-125.0%" width="143.0%" height="416.7%" filterUnits="objectBoundingBox" id="filter-9">
            <feGaussianBlur stdDeviation="3" in="SourceAlpha" result="shadowBlurInner1"></feGaussianBlur>
            <feOffset dx="3" dy="3" in="shadowBlurInner1" result="shadowOffsetInner1"></feOffset>
            <feComposite in="shadowOffsetInner1" in2="SourceAlpha" operator="arithmetic" k2="-1" k3="1" result="shadowInnerInner1"></feComposite>
            <feColorMatrix values="0 0 0 0 1   0 0 0 0 1   0 0 0 0 1  0 0 0 0.5 0" type="matrix" in="shadowInnerInner1"></feColorMatrix>
        </filter>
    </defs>
    <g id="页面-1" stroke="none" stroke-width="1" fill="none" fill-rule="evenodd">
        <g id="WIN-PC迁移-选择内容" transform="translate(-1163, -499)">
            <g id="应用窗口" transform="translate(1013, 264)">
                <g id="编组" transform="translate(120, 185)">
                    <g id="编组" transform="translate(30, 50)">
                        <path d="M32.295601,16.5 C33.0875003,16.5 33.8653769,16.7089736 34.5506664,17.1058146 L42.5870396,21.7595599 C43.4246156,22.2445879 44.3753537,22.5 45.3432306,22.5 L75,22.5 C76.2426407,22.5 77.3676407,23.0036797 78.1819805,23.8180195 C78.9963203,24.6323593 79.5,25.7573593 79.5,27 L79.5,65 C79.5,66.2426407 78.9963203,67.3676407 78.1819805,68.1819805 C77.3676407,68.9963203 76.2426407,69.5 75,69.5 L23,69.5 C21.7573593,69.5 20.6323593,68.9963203 19.8180195,68.1819805 C19.0036797,67.3676407 18.5,66.2426407 18.5,65 L18.5,21 C18.5,19.7573593 19.0036797,18.6323593 19.8180195,17.8180195 C20.6323593,17.0036797 21.7573593,16.5 23,16.5 Z" id="矩形" stroke="url(#linearGradient-2)" fill="url(#linearGradient-1)"></path>
                        <path d="M80.1719437,31.5 C81.4145844,31.5 82.5395844,32.0036797 83.3539242,32.8180195 C84.168264,33.6323593 84.6719437,34.7573593 84.6719437,36 C84.6719437,36.2290852 84.6544504,36.457836 84.6196163,36.6842573 L80.1580779,65.6842573 C79.989213,66.7818786 79.4325623,67.7358143 78.6404941,68.4153446 C77.8484259,69.094875 76.8209401,69.5 75.7104052,69.5 L23.8280563,69.5 C22.5854156,69.5 21.4604156,68.9963203 20.6460758,68.1819805 C19.831736,67.3676407 19.3280563,66.2426407 19.3280563,65 C19.3280563,64.7709148 19.3455496,64.542164 19.3803837,64.3157427 L23.8419221,35.3157427 C24.010787,34.2181214 24.5674377,33.2641857 25.3595059,32.5846554 C26.1515741,31.905125 27.1790599,31.5 28.2895948,31.5 Z" id="矩形" stroke="url(#linearGradient-4)" fill="url(#linearGradient-3)"></path>
                        <g id="矩形">
                            <use fill="black" fill-opacity="1" filter="url(#filter-8)" xlink:href="#path-7"></use>
                            <use fill="url(#linearGradient-5)" fill-rule="evenodd" xlink:href="#path-7"></use>
                            <use fill="black" fill-opacity="1" filter="url(#filter-9)" xlink:href="#path-7"></use>
                            <path stroke="url(#linearGradient-6)" stroke-width="1" d="M68.9586187,56.5 C69.5320108,56.5 70.0511199,56.7324131 70.426881,57.1081742 C70.7946838,57.4759769 71.0251462,57.98112 71.0347216,58.5402608 C70.8796766,59.5278677 70.5599228,60.2651031 70.1141702,60.7611518 C69.6631359,61.2630782 69.0849186,61.5 68.4586187,61.5 L33.0413813,61.5 C32.4679892,61.5 31.9488801,61.2675869 31.573119,60.8918258 C31.2053162,60.5240231 30.9748538,60.01888 30.9652784,59.4597392 C31.1203234,58.4721323 31.4400772,57.7348969 31.8858298,57.2388482 C32.3368641,56.7369218 32.9150814,56.5 33.5413813,56.5 Z" stroke-linejoin="square"></path>
                        </g>
                    </g>
                </g>
            </g>
        </g>
    </g>
</svg>