<svg xmlns="http://www.w3.org/2000/svg" width="16" height="16" viewBox="0 0 16 16">
 <defs>
  <style id="current-color-scheme" type="text/css">
   .ColorScheme-Text { color:#536076; } .ColorScheme-Highlight { color:#ffffff; }
  </style>
 </defs>
 <path style="fill:currentColor" class="ColorScheme-Text" d="M10,1 C11.6568542,1 13,2.34314575 13,4 L13,12 C13,13.6568542 11.6568542,15 10,15 L6,15 C4.34314575,15 3,13.6568542 3,12 L3,4 C3,2.34314575 4.34314575,1 6,1 L10,1 Z M10,2 L10,2.5 L9.99194433,2.58987563 C9.94960837,2.82312484 9.74545989,3 9.5,3 L9.5,3 L6.5,3 L6.41012437,2.99194433 C6.17687516,2.94960837 6,2.74545989 6,2.5 L6,2.5 L6,2 L5.85073766,2.00548574 C4.81587779,2.08183488 4,2.9456382 4,4 L4,4 L4,11.9966361 L4.00559219,12.145855 C4.08262981,13.1804206 4.94595193,13.996231 5.99999982,13.9974771 L5.99999982,13.9974771 L10.0000002,13.999159 L10.1566531,13.9932952 C11.1388078,13.9183088 11.9223471,13.1331856 11.9952921,12.1501009 L11.9952921,12.1501009 L12,12 L12,4 L11.9939555,3.84334953 C11.9178648,2.86122651 11.1323792,2.07801742 10.1492623,2.00548574 L10.1492623,2.00548574 L10,2 Z"/>
</svg>
