<svg xmlns="http://www.w3.org/2000/svg" width="200" height="200" viewBox="0 0 200 200">
  <g fill="none" fill-rule="evenodd">
    <circle cx="100" cy="100" r="100" fill="#FFF" opacity=".8"/>
    <path fill="#727272" d="M99.7357513,41 C111.362694,41 127.746114,48.3716814 127.746114,69.960177 C127.746114,91.5486726 115.590674,98.920354 114.005181,102.079646 C112.419689,105.238938 112.948187,112.084071 118.761658,114.190265 C124.57513,116.29646 151,129.460177 151,138.938053 C151,148.415929 151,160 102.378238,160 C53.7564767,160 49,150.522124 49,138.938053 C49,127.353982 75.9533679,116.29646 82.2953368,114.190265 C88.6373057,112.084071 88.1088083,104.712389 85.4663212,102.079646 C82.8238342,99.4469027 72.253886,88.9159292 72.253886,69.960177 C72.253886,51.0044248 88.1088083,41 99.7357513,41 Z"/>
  </g>
</svg>
