<svg xmlns="http://www.w3.org/2000/svg" xmlns:xlink="http://www.w3.org/1999/xlink" width="128" height="48" viewBox="0 0 128 48">
  <defs>
    <path id="uos_logo_login-b" d="M32,0 C33.0543618,0 33.9181651,0.815877791 33.9945143,1.85073766 L34,2 L34,20 C34,27.6275002 27.9002476,33.8303269 20.312645,33.996578 L20,34 L14,34 C6.37249981,34 0.169673114,27.9002476 0.00342204548,20.312645 L0,20 L0,2 C0,0.8954305 0.8954305,0 2,0 C3.0543618,0 3.91816512,0.815877791 3.99451426,1.85073766 L4,2 L4,20 C4,25.4292399 8.32667079,29.8479317 13.7200952,29.9961582 L14,30 L20,30 C25.4292399,30 29.8479317,25.6733292 29.9961582,20.2799048 L30,20 L30,2 C30,0.8954305 30.8954305,0 32,0 Z M62,0 C69.7319865,0 76,6.2680135 76,14 L76,20 C76,27.7319865 69.7319865,34 62,34 L56,34 C48.2680135,34 42,27.7319865 42,20 L42,14 C42,6.2680135 48.2680135,0 56,0 L62,0 Z M110.526316,0 C111.630885,0 112.526316,0.8954305 112.526316,2 C112.526316,3.1045695 111.630885,4 110.526316,4 L110.526316,4 L91.5,4 C88.4624339,4 86,6.46243388 86,9.5 C86,12.5375661 88.4624339,15 91.5,15 L91.5,15 L104.5,15 C109.746705,15 114,19.2532949 114,24.5 C114,29.7467051 109.746705,34 104.5,34 L104.5,34 L85.4736842,34 C84.3691147,34 83.4736842,33.1045695 83.4736842,32 C83.4736842,30.8954305 84.3691147,30 85.4736842,30 L85.4736842,30 L104.5,30 C107.537566,30 110,27.5375661 110,24.5 C110,21.4624339 107.537566,19 104.5,19 L104.5,19 L91.5,19 C86.2532949,19 82,14.7467051 82,9.5 C82,4.25329488 86.2532949,0 91.5,0 L91.5,0 Z M62,4 L56,4 C50.4771525,4 46,8.4771525 46,14 L46,20 C46,25.5228475 50.4771525,30 56,30 L62,30 C67.5228475,30 72,25.5228475 72,20 L72,14 C72,8.4771525 67.5228475,4 62,4 Z"/>
    <filter id="uos_logo_login-a" width="118.4%" height="161.8%" x="-9.2%" y="-27.9%" filterUnits="objectBoundingBox">
      <feMorphology in="SourceAlpha" operator="dilate" radius="1" result="shadowSpreadOuter1"/>
      <feOffset dy="1" in="shadowSpreadOuter1" result="shadowOffsetOuter1"/>
      <feGaussianBlur in="shadowOffsetOuter1" result="shadowBlurOuter1" stdDeviation="3"/>
      <feComposite in="shadowBlurOuter1" in2="SourceAlpha" operator="out" result="shadowBlurOuter1"/>
      <feColorMatrix in="shadowBlurOuter1" values="0 0 0 0 0   0 0 0 0 0   0 0 0 0 0  0 0 0 0.2 0"/>
    </filter>
  </defs>
  <g fill="none" transform="translate(7 6)">
    <use fill="#000" filter="url(#uos_logo_login-a)" xlink:href="#uos_logo_login-b"/>
    <path fill="#FFF" fill-opacity=".5" fill-rule="evenodd" stroke="#000" stroke-opacity=".05" d="M32,-0.5 C33.3113352,-0.5 34.39718,0.513019118 34.4941769,1.8323739 L34.5,2 L34.5,20 C34.5,27.8875054 28.1948918,34.323991 20.3181174,34.496548 L20,34.5 L14,34.5 C6.11249461,34.5 -0.323990979,28.1948918 -0.496548006,20.3181174 L-0.5,20 L-0.5,2 C-0.5,0.619288125 0.619288125,-0.5 2,-0.5 C3.31133522,-0.5 4.39717996,0.513019118 4.49417692,1.8323739 L4.5,2 L4.5,20 C4.5,25.1475906 8.60022727,29.355261 13.7269572,29.4962053 L14,29.5 L20,29.5 C25.1475906,29.5 29.355261,25.3997727 29.4962053,20.2730428 L29.5,20 L29.5,2 C29.5,0.619288125 30.6192881,-0.5 32,-0.5 Z M62,-0.5 C70.0081289,-0.5 76.5,5.99187113 76.5,14 L76.5,20 C76.5,28.0081289 70.0081289,34.5 62,34.5 L56,34.5 C47.9918711,34.5 41.5,28.0081289 41.5,20 L41.5,14 C41.5,5.99187113 47.9918711,-0.5 56,-0.5 L62,-0.5 Z M110.526316,-0.5 C111.907028,-0.5 113.026316,0.619288125 113.026316,2 C113.026316,3.38071187 111.907028,4.5 110.526316,4.5 L91.5,4.5 C88.7385763,4.5 86.5,6.73857625 86.5,9.5 C86.5,12.2614237 88.7385763,14.5 91.5,14.5 L104.5,14.5 C110.022847,14.5 114.5,18.9771525 114.5,24.5 C114.5,30.0228475 110.022847,34.5 104.5,34.5 L85.4736842,34.5 C84.0929723,34.5 82.9736842,33.3807119 82.9736842,32 C82.9736842,30.6192881 84.0929723,29.5 85.4736842,29.5 L104.5,29.5 C107.261424,29.5 109.5,27.2614237 109.5,24.5 C109.5,21.7385763 107.261424,19.5 104.5,19.5 L91.5,19.5 C85.9771525,19.5 81.5,15.0228475 81.5,9.5 C81.5,3.9771525 85.9771525,-0.5 91.5,-0.5 L110.526316,-0.5 Z M62,4.5 L56,4.5 C50.7532949,4.5 46.5,8.75329488 46.5,14 L46.5,20 C46.5,25.2467051 50.7532949,29.5 56,29.5 L62,29.5 C67.2467051,29.5 71.5,25.2467051 71.5,20 L71.5,14 C71.5,8.75329488 67.2467051,4.5 62,4.5 Z"/>
  </g>
</svg>
