<svg xmlns="http://www.w3.org/2000/svg" width="42" height="42" viewBox="0 0 42 42">
  <g fill="#FFF" fill-rule="evenodd" transform="translate(-1 -1)">
    <circle cx="9.01" cy="29.5" r="6" opacity=".01" transform="rotate(-120 9.01 29.5)"/>
    <circle cx="7.905" cy="27.13" r="6" opacity=".02" transform="rotate(-110 7.905 27.13)"/>
    <circle cx="7.228" cy="24.605" r="6" opacity=".03" transform="rotate(-100 7.228 24.605)"/>
    <circle cx="7" cy="22" r="6" opacity=".04" transform="rotate(-90 7 22)"/>
    <circle cx="7.228" cy="19.395" r="6" opacity=".05" transform="rotate(-80 7.228 19.395)"/>
    <circle cx="7.905" cy="16.87" r="6" opacity=".1" transform="rotate(-70 7.905 16.87)"/>
    <circle cx="9.01" cy="14.5" r="6" opacity=".15" transform="rotate(-60 9.01 14.5)"/>
    <circle cx="10.509" cy="12.358" r="6" opacity=".3" transform="rotate(-50 10.51 12.358)"/>
    <circle cx="12.358" cy="10.509" r="6" transform="rotate(-40 12.358 10.51)"/>
    <circle cx="22" cy="7" r="6" opacity=".01"/>
    <circle cx="24.605" cy="7.228" r="6" opacity=".02" transform="rotate(10 24.605 7.228)"/>
    <circle cx="27.13" cy="7.905" r="6" opacity=".03" transform="rotate(20 27.13 7.905)"/>
    <circle cx="29.5" cy="9.01" r="6" opacity=".04" transform="rotate(30 29.5 9.01)"/>
    <circle cx="31.642" cy="10.509" r="6" opacity=".05" transform="rotate(40 31.642 10.51)"/>
    <circle cx="33.491" cy="12.358" r="6" opacity=".1" transform="rotate(50 33.49 12.358)"/>
    <circle cx="34.99" cy="14.5" r="6" opacity=".15" transform="rotate(60 34.99 14.5)"/>
    <circle cx="36.095" cy="16.87" r="6" opacity=".3" transform="rotate(70 36.095 16.87)"/>
    <circle cx="36.772" cy="19.395" r="6" transform="rotate(80 36.772 19.395)"/>
    <circle cx="34.99" cy="29.5" r="6" opacity=".01" transform="rotate(120 34.99 29.5)"/>
    <circle cx="33.491" cy="31.642" r="6" opacity=".02" transform="rotate(130 33.49 31.642)"/>
    <circle cx="31.642" cy="33.491" r="6" opacity=".03" transform="rotate(140 31.642 33.49)"/>
    <circle cx="29.5" cy="34.99" r="6" opacity=".04" transform="rotate(150 29.5 34.99)"/>
    <circle cx="27.13" cy="36.095" r="6" opacity=".05" transform="rotate(160 27.13 36.095)"/>
    <circle cx="24.605" cy="36.772" r="6" opacity=".1" transform="rotate(170 24.605 36.772)"/>
    <circle cx="22" cy="37" r="6" opacity=".15" transform="rotate(180 22 37)"/>
    <circle cx="19.395" cy="36.772" r="6" opacity=".3" transform="rotate(-170 19.395 36.772)"/>
    <circle cx="16.87" cy="36.095" r="6" transform="rotate(-160 16.87 36.095)"/>
  </g>
</svg>
