<?xml version="1.0" encoding="UTF-8"?>
<svg width="18px" height="18px" viewBox="0 0 18 18" version="1.1" xmlns="http://www.w3.org/2000/svg" xmlns:xlink="http://www.w3.org/1999/xlink">
    <title>icon/schedule/edit</title>
    <g id="icon/schedule/edit" stroke="none" stroke-width="1" fill="none" fill-rule="evenodd">
        <rect id="矩形" x="0" y="0" width="18" height="18"></rect>
        <path d="M15.0685838,4.20736723 C15.3936823,4.53246568 15.3936823,5.05955442 15.0685838,5.38465288 L9.94874163,10.504495 C9.83270574,10.6205309 9.68496347,10.6996841 9.52407909,10.7320086 L8.05406933,11.0273596 C7.60331862,11.1179234 7.16449649,10.8259342 7.07393268,10.3751835 C7.05228296,10.2674294 7.05218511,10.1564547 7.07364477,10.0486625 L7.36693549,8.57545922 C7.39907389,8.41402763 7.47834744,8.26574663 7.59473695,8.14935712 L12.7140125,3.03008157 C13.039111,2.70498312 13.5661997,2.70498312 13.8912981,3.03008157 L15.0685838,4.20736723 Z M14.4105089,4.84267231 L13.2559931,3.68815644 L8.23572901,8.7084205 L7.94811079,10.1531307 L9.38968921,9.86349203 L14.4105089,4.84267231 Z" id="形状结合" fill="#626E88" fill-rule="nonzero"></path>
        <path d="M9,4 L9,5 L5,5 L5,13 L13,13 L13,9 L14,9 L14,13 C14,13.5522847 13.5522847,14 13,14 L5,14 C4.44771525,14 4,13.5522847 4,13 L4,5 C4,4.44771525 4.44771525,4 5,4 L9,4 Z" id="形状结合" fill="#626E88" fill-rule="nonzero"></path>
    </g>
</svg>