<?xml version="1.0" encoding="UTF-8"?>
<svg width="20px" height="20px" viewBox="0 0 20 20" version="1.1" xmlns="http://www.w3.org/2000/svg" xmlns:xlink="http://www.w3.org/1999/xlink">
    <title>com</title>
    <g id="com" stroke="none" stroke-width="1" fill="none" fill-rule="evenodd">
        <g id="编组" transform="translate(5.000000, 3.000000)" fill="#536076">
            <path d="M9,5 C9.55228475,5 10,5.44771525 10,6 L10,9.68300847 C10,9.92145202 9.91479891,10.1520482 9.75976285,10.3332088 L8.63268974,11.6502003 C8.44270333,11.8722005 8.16512364,12 7.87292689,12 L2.13504161,12 C1.83826177,12 1.55681416,11.868177 1.36682033,11.6401844 L0.23177872,10.2781345 C0.0820162194,10.0984195 -1.77635684e-15,9.87188657 0,9.63795006 L0,6 C0,5.44771525 0.44771525,5 1,5 L9,5 Z M8,7 L2,7 L2,8 L8,8 L8,7 Z M8,7.99360578e-15 C8.55228475,7.89215271e-15 9,0.44771525 9,1 L9,4 L0.999999999,4 L0.999999999,1 C0.999999999,0.44771525 1.44771525,8.09505884e-15 2,7.99360578e-15 L2.999,7.99360578e-15 L3,1 L4,1 L3.999,7.99360578e-15 L5.999,7.99360578e-15 L6,1 L7,1 L6.999,7.99360578e-15 L8,7.99360578e-15 Z" id="形状结合"></path>
            <rect id="矩形" x="2" y="11" width="1" height="2" rx="0.5"></rect>
            <rect id="矩形" x="7" y="11" width="1" height="2" rx="0.5"></rect>
            <path d="M4,12 L6,12 L6,14.5 C6,14.7761424 5.77614237,15 5.5,15 L4.5,15 C4.22385763,15 4,14.7761424 4,14.5 L4,12 L4,12 Z" id="矩形"></path>
        </g>
    </g>
</svg>