<?xml version="1.0" encoding="UTF-8"?>
<svg width="20px" height="20px" viewBox="0 0 20 20" version="1.1" xmlns="http://www.w3.org/2000/svg" xmlns:xlink="http://www.w3.org/1999/xlink">
    <!-- Generator: Sketch 58 (84663) - https://sketch.com -->
    <title>显示适配器</title>
    <desc>Created with Sketch.</desc>
    <g id="显示适配器" stroke="none" stroke-width="1" fill="none" fill-rule="evenodd">
        <g id="编组" transform="translate(4.000000, 4.000000)" fill="#536076">
            <path d="M2,0 L10,0 C11.1045695,-2.02906125e-16 12,0.8954305 12,2 L12,8 L12,8 L0,8 L0,2 C-1.3527075e-16,0.8954305 0.8954305,2.02906125e-16 2,0 Z" id="矩形"></path>
            <path d="M12,9 L12,10 C12,11.1045695 11.1045695,12 10,12 L10,12 L2,12 C0.8954305,12 -1.3527075e-16,11.1045695 0,10 L0,10 L0,9 L12,9 Z M6,10 L5,10 L5,11 L6,11 L6,10 Z M8,10 L7,10 L7,11 L8,11 L8,10 Z M10,10 L9,10 L9,11 L10,11 L10,10 Z" id="形状结合"></path>
        </g>
    </g>
</svg>