<?xml version="1.0" encoding="UTF-8"?>
<svg width="20px" height="20px" viewBox="0 0 20 20" version="1.1" xmlns="http://www.w3.org/2000/svg" xmlns:xlink="http://www.w3.org/1999/xlink">
    <title>icon/light/驱动安装</title>
    <g id="icon/light/驱动安装" stroke="none" stroke-width="1" fill="none" fill-rule="evenodd">
        <path d="M10.3283768,13.0007486 C10.3522061,13.2106996 10.3909384,13.4178706 10.4441765,13.6210325 L10.6480791,14.3991454 L11,14.252 L11,14.92 L10.9633442,14.9493372 L11,14.988 L11,15 L11.011,15 L11.4883548,15.5038675 L11.6687876,15.6834451 C11.7898552,15.7969675 11.9170708,15.9029781 12.0497452,16.0009785 L5.5,16 C5.22385763,16 5,15.7761424 5,15.5 C5,15.2238576 5.22385763,15 5.5,15 L9,15 L9,14 L4,14 C3.44771525,14 3,13.5522847 3,13 L10.3283768,13.0007486 Z M15.379172,9 C16.0008255,9.16596712 16.5553136,9.50392262 16.9924632,9.96160175 C16.6337397,10.2355886 16.5236636,10.7497078 16.7521168,11.158153 C16.9234274,11.4644264 17.2397679,11.6302479 17.5598563,11.6165996 L17.6664974,11.6053496 C17.7374257,11.5933469 17.8077638,11.5722674 17.8759613,11.5416829 C17.9567145,11.8462354 18,12.1667882 18,12.4978357 C18,12.7505104 17.9748481,12.9971004 17.9270283,13.2351198 L17.8717445,13.4701903 L17.7677773,13.4306705 C17.6976323,13.409043 17.6260813,13.3967815 17.5546915,13.3934532 L17.4479235,13.3951064 C17.164576,13.4170926 16.8963444,13.5785458 16.7435269,13.8517615 C16.515675,14.2591346 16.6245719,14.7716418 16.9810542,15.0461606 C16.5967103,15.4448454 16.1227502,15.751367 15.5929693,15.9309225 L15.3626012,16 L15.3429442,15.8883453 C15.2472117,15.4878283 14.8969279,15.1908881 14.4793139,15.1908881 C14.0649855,15.1908881 13.7169047,15.4831684 13.6179557,15.8789042 L13.5972838,15.9892553 L13.3690597,15.9178084 C12.8443396,15.7329917 12.3758186,15.4230698 11.9966745,15.0226076 C12.3447698,14.7461704 12.4492859,14.239757 12.223683,13.8364142 C12.0553593,13.5354789 11.7470222,13.370144 11.4326859,13.3774144 L11.3278687,13.3862814 C11.2929782,13.3914018 11.2581974,13.398704 11.2237102,13.4082386 L11.1213133,13.4435904 L11.0690316,13.214662 C11.0238034,12.9829813 11,12.7432922 11,12.4978357 C11,12.1640234 11.0439805,11.840859 11.1260534,11.5340254 C11.2274107,11.576831 11.3331562,11.5989397 11.4382788,11.6017352 L11.5430082,11.5981442 C11.8207431,11.5716745 12.0821703,11.4111474 12.2322651,11.1428057 C12.4570012,10.7410104 12.3541329,10.2369508 12.0092392,9.95982036 C12.4445224,9.50472868 12.9959259,9.16825633 13.6140029,9.00186199 C13.669408,9.454068 14.0433357,9.80367907 14.4964859,9.80367907 C14.9502531,9.80367907 15.3245634,9.45310073 15.379172,9 Z M14.5,11 C13.6715729,11 13,11.6715729 13,12.5 C13,13.3284271 13.6715729,14 14.5,14 C15.3284271,14 16,13.3284271 16,12.5 C16,11.6715729 15.3284271,11 14.5,11 Z M15,4 C16.1045695,4 17,4.8954305 17,6 L17.0013862,9.03302666 C16.572053,8.7057221 16.0834575,8.46351049 15.5597317,8.3236878 L14.7806839,8.11570005 L14.6842012,8.91624081 L14.6682578,8.97811938 C14.6370675,9.05436024 14.56888,9.10367907 14.4964859,9.10367907 C14.4061228,9.10367907 14.3223003,9.02686052 14.3088073,8.91673334 L14.2107357,8.11629102 L13.4320327,8.32592794 L13.1898256,8.39924931 C12.5512912,8.61432747 11.973519,8.98444118 11.5033777,9.47597721 L10.9758844,10.0274753 L11.5707811,10.5054892 L11.6127158,10.5517609 C11.6590763,10.6217568 11.6661714,10.7209367 11.6213365,10.8010949 C11.571684,10.8898645 11.477624,10.9226369 11.3983896,10.8891743 L10.657613,10.5763263 L10.4498266,11.3531459 L10.384616,11.6334061 C10.3606037,11.7544207 10.3416397,11.8766495 10.3278039,11.999842 L3,12 L3,6 C3,4.8954305 3.8954305,4 5,4 L15,4 Z" id="形状结合" fill="#536076"></path>
    </g>
</svg>