<?xml version="1.0" encoding="UTF-8"?>
<svg width="20px" height="20px" viewBox="0 0 20 20" version="1.1" xmlns="http://www.w3.org/2000/svg" xmlns:xlink="http://www.w3.org/1999/xlink">
    <title>icon/light/驱动还原</title>
    <g id="icon/light/驱动还原" stroke="none" stroke-width="1" fill="none" fill-rule="evenodd">
        <g id="还原-刷新" transform="translate(3, 3)" fill="#536076" fill-rule="nonzero">
            <path d="M7,-6.30227709e-05 C5.16440905,-0.00204742414 3.40267712,0.722779202 2.1,2.01600371 L2.1,1.40000391 C2.1,1.01340471 1.78659932,0.700004128 1.4,0.700004128 C1.01340067,0.700004128 0.699999995,1.01340471 0.699999995,1.40000391 L0.699999995,3.50000326 C0.699999995,3.68565474 0.773749784,3.86370243 0.905025251,3.99497785 C1.03630072,4.12625328 1.21434846,4.20000304 1.4,4.20000304 L3.5,4.20000304 C3.88659932,4.20000304 4.19999999,3.88660246 4.19999999,3.50000326 C4.19999999,3.11340406 3.88659932,2.80000348 3.5,2.80000348 L3.26899999,2.80000348 C4.30263669,1.89782709 5.62802065,1.40049743 7,1.40000391 C10.0927946,1.40000391 12.6,3.90720853 12.6,7.00000217 C12.6,10.0927958 10.0927946,12.6000004 7,12.6000004 C3.9072054,12.6000004 1.4,10.0927958 1.4,7.00000217 C1.23293005,6.5962746 0.996142394,6.39441027 0.689637042,6.39440918 C0.229879014,6.39440755 0,6.99999812 0,7.00000217 C0,10.8659954 3.13400675,13.9998625 7,13.9998625 C10.8659932,13.9998625 14,10.8659942 14,7.00000217 C14,3.13401012 10.8659932,-6.30227709e-05 7,-6.30227709e-05 Z" id="路径"></path>
        </g>
        <path d="M9.5,6 C9.77614237,6 10,6.22385763 10,6.5 L10,9.999 L12.5,10 C12.7761424,10 13,10.2238576 13,10.5 C13,10.7761424 12.7761424,11 12.5,11 L9.51031763,10.9998957 C9.50688679,10.9999651 9.50344747,11 9.5,11 C9.22385763,11 9,10.7761424 9,10.5 L9,6.5 C9,6.22385763 9.22385763,6 9.5,6 Z" id="形状结合" fill="#536076"></path>
    </g>
</svg>