<?xml version="1.0" encoding="UTF-8"?>
<svg width="20px" height="20px" viewBox="0 0 20 20" version="1.1" xmlns="http://www.w3.org/2000/svg" xmlns:xlink="http://www.w3.org/1999/xlink">
    <title>icon/light/驱动备份</title>
    <g id="icon/light/驱动备份" stroke="none" stroke-width="1" fill="none" fill-rule="evenodd">
        <path d="M7.00476797,4 C7.71522917,4.18967671 8.34892983,4.57591156 8.84852934,5.09897343 C8.43855966,5.41210122 8.3127584,5.99966606 8.57384778,6.46646055 C8.76963135,6.81648732 9.13116328,7.00599764 9.4969786,6.99039957 C9.22559927,7.19424054 8.9622776,7.42573512 8.71911107,7.67996745 L7.96554913,8.46782182 L8.81540152,9.15069883 C8.83570239,9.16701108 8.85355359,9.18612153 8.86876781,9.20731723 C8.74675536,9.29098813 8.64218596,9.40514 8.56403071,9.54487031 C8.54095936,9.58611924 8.52090904,9.62831134 8.50380888,9.67117389 L7.51087573,9.25189478 L7.21403804,10.361637 C7.07249245,10.8908122 7,11.4395027 7,11.9969082 L6.98582995,12 L6.96336479,11.8723947 C6.85395618,11.414661 6.45363183,11.0753007 5.97635872,11.0753007 C5.50284063,11.0753007 5.10503395,11.4093354 4.99194934,11.8616048 L4.96832434,11.9877203 L4.7074968,11.9060667 C4.10781665,11.6948477 3.57236406,11.3406512 3.13905654,10.8829801 C3.53687982,10.5670518 3.65632677,9.98829375 3.39849487,9.52733051 C3.20612496,9.18340444 2.85373963,8.9944503 2.49449812,9.00275931 L2.37470711,9.01289303 C2.33483219,9.01874496 2.29508273,9.02709025 2.2556688,9.03798692 L2.13864377,9.07838904 L2.07889325,8.81675663 C2.02720388,8.55197858 2,8.27804819 2,7.99752656 C2,7.61602672 2.05026339,7.24669603 2.14406101,6.89602902 C2.25989795,6.94494977 2.38074996,6.97021677 2.50089009,6.97341164 L2.62058082,6.9693077 C2.93799208,6.93905659 3.23676611,6.75559701 3.40830301,6.44892075 C3.66514428,5.98972623 3.54758043,5.41365806 3.15341623,5.09693756 C3.65088276,4.57683277 4.28105819,4.19229294 4.98743192,4.00212799 C5.05075201,4.51893485 5.4780979,4.91849037 5.99598393,4.91849037 C6.514575,4.91849037 6.94235819,4.5178294 7.00476797,4 Z M6,7 C5.44771525,7 5,7.44771525 5,8 C5,8.55228475 5.44771525,9 6,9 C6.55228475,9 7,8.55228475 7,8 C7,7.44771525 6.55228475,7 6,7 Z" id="形状结合" fill="#536076" fill-rule="nonzero"></path>
        <path d="M14.25596,7 C15.1440365,7.23709589 15.9361623,7.71988946 16.5606617,8.37371679 C16.0481996,8.76512652 15.890948,9.49958258 16.2173097,10.0830757 C16.4620392,10.5206091 16.9139541,10.757497 17.3712233,10.7379995 L17.5235677,10.7219281 C17.6248938,10.7047813 17.7253768,10.6746677 17.8228019,10.6309756 C17.9381636,11.0660506 18,11.5239831 18,11.9969082 C18,12.357872 17.9640687,12.7101434 17.8957547,13.0501711 L17.8167778,13.3859861 L17.6682533,13.3295292 C17.5680461,13.2986328 17.4658304,13.2811164 17.3638449,13.2763617 L17.2113192,13.2787234 C16.8065371,13.3101323 16.4233492,13.5407798 16.2050384,13.9310879 C15.8795357,14.5130495 16.0351027,15.2452025 16.5443631,15.6373723 C15.9953004,16.206922 15.3182146,16.6448099 14.5613847,16.9013179 L14.2322874,17 L14.204206,16.8404934 C14.0674452,16.2683262 13.5670398,15.8441259 12.9704484,15.8441259 C12.3785508,15.8441259 11.8812924,16.2616692 11.7399367,16.827006 L11.7104054,16.9846504 L11.384371,16.8825834 C10.6347708,16.6185596 9.96545508,16.175814 9.42382067,15.6037251 C9.92109978,15.2088148 10.0704085,14.4853672 9.74811858,13.9091631 C9.5076562,13.4792555 9.06717454,13.2430629 8.61812265,13.2534491 L8.46838389,13.2661163 C8.41854024,13.2734312 8.36885341,13.2838628 8.31958601,13.2974836 L8.17330472,13.3479863 L8.09861656,13.0209458 C8.03400484,12.6899732 8,12.3475602 8,11.9969082 C8,11.5200334 8.06282923,11.05837 8.18007626,10.6200363 C8.32487243,10.6811872 8.47593745,10.712771 8.62611261,10.7167645 L8.77572603,10.7116346 C9.1724901,10.6738207 9.54595764,10.4444963 9.76037876,10.0611509 C10.0814303,9.48715779 9.93447553,8.76707257 9.44177029,8.37117195 C10.0636034,7.72104096 10.8513227,7.24036618 11.7342899,7.00265999 C11.81344,7.64866857 12.3476224,8.14811296 12.9949799,8.14811296 C13.6432187,8.14811296 14.1779477,7.64728675 14.25596,7 Z M13,10 C11.8954305,10 11,10.8954305 11,12 C11,13.1045695 11.8954305,14 13,14 C14.1045695,14 15,13.1045695 15,12 C15,10.8954305 14.1045695,10 13,10 Z" id="形状结合" fill="#536076" fill-rule="nonzero"></path>
    </g>
</svg>