<?xml version="1.0" encoding="UTF-8"?>
<svg width="20px" height="20px" viewBox="0 0 20 20" version="1.1" xmlns="http://www.w3.org/2000/svg" xmlns:xlink="http://www.w3.org/1999/xlink">
    <!-- Generator: Sketch 58 (84663) - https://sketch.com -->
    <title>键盘</title>
    <desc>Created with Sketch.</desc>
    <g id="键盘" stroke="none" stroke-width="1" fill="none" fill-rule="evenodd">
        <g id="编组-6" transform="translate(4.000000, 6.000000)" fill="#536076">
            <path d="M12,0 C12.5522847,-1.01453063e-16 13,0.44771525 13,1 L13,8 C13,8.55228475 12.5522847,9 12,9 L1,9 C0.44771525,9 6.76353751e-17,8.55228475 0,8 L0,1 C-6.76353751e-17,0.44771525 0.44771525,1.01453063e-16 1,0 L12,0 Z M11,6 L2,6 L2,7 L11,7 L11,6 Z M3,4 L2,4 L2,5 L3,5 L3,4 Z M5,4 L4,4 L4,5 L5,5 L5,4 Z M7,4 L6,4 L6,5 L7,5 L7,4 Z M9,4 L8,4 L8,5 L9,5 L9,4 Z M11,4 L10,4 L10,5 L11,5 L11,4 Z M3,2 L2,2 L2,3 L3,3 L3,2 Z M5,2 L4,2 L4,3 L5,3 L5,2 Z M7,2 L6,2 L6,3 L7,3 L7,2 Z M9,2 L8,2 L8,3 L9,3 L9,2 Z M11,2 L10,2 L10,3 L11,3 L11,2 Z" id="形状结合"></path>
        </g>
    </g>
</svg>