<?xml version="1.0" encoding="UTF-8"?>
<svg width="20px" height="20px" viewBox="0 0 20 20" version="1.1" xmlns="http://www.w3.org/2000/svg" xmlns:xlink="http://www.w3.org/1999/xlink">
    <!-- Generator: Sketch 58 (84663) - https://sketch.com -->
    <title>显示设备</title>
    <desc>Created with Sketch.</desc>
    <g id="显示设备" stroke="none" stroke-width="1" fill="none" fill-rule="evenodd">
        <path d="M5.5,16 C5.22385763,16 5,15.7761424 5,15.5 C5,15.2238576 5.22385763,15 5.5,15 L9,15 L9,14 L4,14 C3.44771525,14 3,13.5522847 3,13 L17,13 C17,13.5522847 16.5522847,14 16,14 L11,14 L11,15 L14.5,15 C14.7761424,15 15,15.2238576 15,15.5 C15,15.7761424 14.7761424,16 14.5,16 L9,16 L5.5,16 Z M15,4 C16.1045695,4 17,4.8954305 17,6 L17,12 L3,12 L3,6 C3,4.8954305 3.8954305,4 5,4 L15,4 Z" id="形状结合" fill="#536076"></path>
    </g>
</svg>