<?xml version="1.0" encoding="UTF-8"?>
<svg width="20px" height="20px" viewBox="0 0 20 20" version="1.1" xmlns="http://www.w3.org/2000/svg" xmlns:xlink="http://www.w3.org/1999/xlink">
    <!-- Generator: Sketch 58 (84663) - https://sketch.com -->
    <title>鼠标</title>
    <desc>Created with Sketch.</desc>
    <g id="鼠标" stroke="none" stroke-width="1" fill="none" fill-rule="evenodd">
        <path d="M13.9756052,3.03231699 C15.0801747,3.03231699 15.9756052,3.92774749 15.9756052,5.03231699 L15.9756052,12.032317 C15.9756052,15.3460255 13.2893137,18.032317 9.97560516,18.032317 C6.66189666,18.032317 3.97560516,15.3460255 3.97560516,12.032317 L3.97560516,5.03231699 C3.97560516,3.92774749 4.87103566,3.03231699 5.97560516,3.03231699 L13.9756052,3.03231699 Z M10,7 C9.44771525,7 9,7.44771525 9,8 L9,8 L9,10 C9,10.5522847 9.44771525,11 10,11 C10.5522847,11 11,10.5522847 11,10 L11,10 L11,8 C11,7.44771525 10.5522847,7 10,7 Z" id="形状结合" fill="#536076"></path>
    </g>
</svg>