<?xml version="1.0" encoding="UTF-8"?>
<svg width="20px" height="20px" viewBox="0 0 20 20" version="1.1" xmlns="http://www.w3.org/2000/svg" xmlns:xlink="http://www.w3.org/1999/xlink">
    <!-- Generator: Sketch 58 (84663) - https://sketch.com -->
    <title>其他输入设备</title>
    <desc>Created with Sketch.</desc>
    <g id="其他输入设备" stroke="none" stroke-width="1" fill="none" fill-rule="evenodd">
        <path d="M15,4 C16.1045695,4 17,4.8954305 17,6 L17,12 C17,13.1045695 16.1045695,14 15,14 L11,14 L11,15 L14.5,15 C14.7761424,15 15,15.2238576 15,15.5 C15,15.7761424 14.7761424,16 14.5,16 L5.5,16 C5.22385763,16 5,15.7761424 5,15.5 C5,15.2238576 5.22385763,15 5.5,15 L9,15 L9,14 L5,14 C3.8954305,14 3,13.1045695 3,12 L3,6 C3,4.8954305 3.8954305,4 5,4 L15,4 Z M10,6 C9.44771525,6 9,6.44771525 9,7 L9,7 L9,9 L8.25,9 C8.01393202,9 7.79164079,9.11114562 7.65,9.3 C7.40147186,9.63137085 7.46862915,10.1014719 7.8,10.35 L7.8,10.35 L9.55,11.6625 C9.81666667,11.8625 10.1833333,11.8625 10.45,11.6625 L10.45,11.6625 L12.2,10.35 C12.3888544,10.2083592 12.5,9.98606798 12.5,9.75 C12.5,9.33578644 12.1642136,9 11.75,9 L11.75,9 L11,9 L11,7 C11,6.44771525 10.5522847,6 10,6 Z" id="形状结合" fill="#536076"></path>
    </g>
</svg>