<?xml version="1.0" encoding="UTF-8"?>
<svg width="20px" height="20px" viewBox="0 0 20 20" version="1.1" xmlns="http://www.w3.org/2000/svg" xmlns:xlink="http://www.w3.org/1999/xlink">
    <!-- Generator: Sketch 58 (84663) - https://sketch.com -->
    <title>存储设备</title>
    <desc>Created with Sketch.</desc>
    <g id="存储设备" stroke="none" stroke-width="1" fill="none" fill-rule="evenodd">
        <g id="编组" transform="translate(4.000000, 3.000000)" fill="#536076" fill-rule="nonzero">
            <path d="M7.00283871,5.98725553 C7.00283871,5.43529338 6.55480086,4.98721253 6.00283871,4.98721253 C5.45087655,4.98721253 5.00283871,5.43527187 5.00283871,5.98725553 C5.00283871,6.53919618 5.45087655,6.98721253 6.00283871,6.98721253 C6.55480086,6.98721253 7.00283871,6.53919618 7.00283871,5.98725553 Z M1.46341847,0 C0.655682593,0 0,0.700060701 0,1.5625035 L0,13.4374965 C0,14.2999393 0.655666859,15 1.46341847,15 L10.5365815,15 C11.3443331,15 12,14.2999393 12,13.4374965 L12,1.5625035 C12,0.700077501 11.3443331,0 10.5365815,0 L1.46341847,0 Z M6,1.89072611 C8.18339015,1.89072611 9.95122987,3.70380856 9.95122987,5.94322052 C9.95122987,7.11095897 9.47104421,8.16470402 8.69844233,8.90312757 C8.3034405,8.59679452 7.93444695,8.29657747 7.72376882,8.07764366 C7.0946924,7.43212214 6.07602664,7.43212214 5.44663555,8.07764366 C4.9698799,8.56685995 4.85552525,9.29038884 5.10135312,9.89072611 C3.35126134,9.47332049 2.04875439,7.86447084 2.04875439,5.94322052 C2.04875439,3.70380856 3.81659412,1.89072611 6,1.89072611 Z M0.995568063,12.9890309 C0.995568063,12.4371392 1.44361073,11.9890416 1.99555731,11.9890416 C2.5475039,11.9890416 2.99556806,12.4371177 2.99556806,12.9890309 C2.99556806,13.5410086 2.5475254,13.9890416 1.99555731,13.9890416 C1.44358922,13.9890416 0.995568063,13.5409871 0.995568063,12.9890094 L0.995568063,12.9890309 Z M6.27811402,8.89066339 C6.45361095,8.70313273 6.73740494,8.70313273 6.9160644,8.89066339 C7.01868149,9.00316835 9.89576756,11.1656255 10.2293282,11.5219052 C10.6389154,11.9625846 10.6389154,12.6718513 10.2293282,13.1094396 C9.8194577,13.5469104 9.15491687,13.5469104 8.74246604,13.1094396 C8.39118897,12.7343783 6.37442178,9.67196554 6.27811402,9.57182488 C6.10231814,9.38121994 6.10231814,9.07804286 6.27811402,8.89066339 L6.27811402,8.89066339 Z" id="形状"></path>
        </g>
    </g>
</svg>