<?xml version="1.0" encoding="UTF-8"?>
<svg width="20px" height="20px" viewBox="0 0 20 20" version="1.1" xmlns="http://www.w3.org/2000/svg" xmlns:xlink="http://www.w3.org/1999/xlink">
    <title>触摸板</title>
    <g id="触摸板" stroke="none" stroke-width="1" fill="none" fill-rule="evenodd">
        <g id="编组-2" transform="translate(2.000000, 4.000000)" fill="#536076">
            <path d="M12.5714286,0 C13.2026111,-1.15946357e-16 13.7142857,0.511674572 13.7142857,1.14285714 L13.714,5.873 L12.0124673,5.76299435 L12.0345815,3.61693182 C12.0381022,3.26162451 11.8937098,2.9267225 11.627845,2.67455693 C11.3631397,2.42419692 11.0105434,2.28571429 10.6309548,2.28571429 C9.85703007,2.28571429 9.22751191,2.87717621 9.22751191,3.60382833 L9.22751191,3.60382833 L9.22751191,7.14269606 C8.72605507,6.74146686 7.92573196,6.72687645 7.40685527,7.12813223 L7.40685527,7.12813223 L7.36261282,7.16784093 C6.82932801,7.60295066 6.70085665,8.32558013 7.05947641,8.9002744 L7.05947641,8.9002744 L7.924,10.285 L1.14285714,10.2857143 C0.511674572,10.2857143 1.14024628e-15,9.77403971 0,9.14285714 L0,1.14285714 C-7.72975716e-17,0.511674572 0.511674572,-1.06098248e-16 1.14285714,0 L12.5714286,0 Z M1.48571429,6.85714286 C1.32002886,6.85714286 1.18179293,6.97466811 1.14982278,7.13090233 L1.14285714,7.2 L1.14285714,8.8 C1.14285714,8.96568542 1.2603824,9.10392136 1.41661661,9.1358915 L1.48571429,9.14285714 L3.08571429,9.14285714 C3.27506906,9.14285714 3.42857143,8.98935477 3.42857143,8.8 C3.42857143,8.63431458 3.31104618,8.49607864 3.15481196,8.4641085 L3.08571429,8.45714286 L1.82785714,8.45785714 L1.82857143,7.2 C1.82857143,7.01064523 1.67506906,6.85714286 1.48571429,6.85714286 Z M3.08571429,1.37940024 L1.48571429,1.37940024 C1.32002886,1.37940024 1.18179293,1.49692549 1.14982278,1.65315971 L1.14285714,1.72225738 L1.14285714,3.32225738 C1.14285714,3.51161216 1.29635951,3.66511453 1.48571429,3.66511453 C1.65139971,3.66511453 1.78963564,3.54758927 1.82160579,3.39135506 L1.82857143,3.32225738 L1.82785714,2.06440024 L3.08571429,2.06511453 C3.27506906,2.06511453 3.42857143,1.91161216 3.42857143,1.72225738 C3.42857143,1.53290261 3.27506906,1.37940024 3.08571429,1.37940024 Z" id="形状结合"></path>
            <path d="M7.93471053,7.68786437 L7.89859828,7.71919589 C7.64284327,7.91707562 7.57840964,8.25527009 7.74569389,8.52271642 L9.73557189,11.7095826 C9.84465802,11.884123 10.0383124,11.9880082 10.2545051,11.9880082 L14.5717141,11.9880082 C14.9028043,11.9880082 15.1740844,11.7332671 15.1760215,11.4198723 L15.205163,7.06395572 C15.205163,6.87337782 15.0529939,6.71377297 14.8507851,6.69480148 L11.9558104,6.50713104 C11.5382007,6.48016735 11.2135298,6.15035008 11.2173899,5.75567924 L11.2395041,3.60962997 C11.2410594,3.45475141 11.178577,3.30935195 11.062916,3.20039529 C10.9488245,3.09215554 10.7966554,3.0323867 10.6352249,3.0323867 C10.295241,3.0323867 10.0223772,3.28857491 10.0223772,3.60381506 L10.0223772,9.44726154 L8.80872865,7.80737551 C8.61507426,7.55704204 8.2067825,7.49472419 7.93471053,7.68786437 L7.93471053,7.68786437 Z" id="路径" fill-rule="nonzero"></path>
        </g>
    </g>
</svg>