<svg xmlns="http://www.w3.org/2000/svg" width="16" height="16" viewBox="0 0 16 16">
 <defs>
  <style id="current-color-scheme" type="text/css">
   .ColorScheme-Text { color:#536076; } .ColorScheme-Highlight { color:#ffffff; }
  </style>
 </defs>
 <path style="fill:currentColor" class="ColorScheme-Text" d="M7.63264705,0.190363674 L7.67867947,0.238239288 L10.2013807,3.60184097 C10.3541225,3.8054966 10.295748,3.96508091 10.0848593,3.99496122 L10.0089948,4 L8,3.99980489 L7.999,10.1158049 L11.7133134,8.50339121 C11.8698982,8.43540723 11.9791024,8.29332819 12.0071081,8.12870478 L12.0141877,8.04475304 L12.014,6.99980489 L11.495389,7 C11.2468233,7 11.0487337,6.82475599 11.0077825,6.59365781 L11,6.50461102 L11,4.49538898 C11,4.24682331 11.175244,4.04873371 11.4063422,4.00778251 L11.495389,4 L13.504611,4 C13.7531767,4 13.9512663,4.17524401 13.9922175,4.40634219 L14,4.49538898 L14,6.50461102 C14,6.75317669 13.824756,6.95126629 13.5936578,6.99221749 L13.504611,7 L12.999,6.99980489 L13,8.69479304 C13,8.86558232 12.9130815,9.02239801 12.7731232,9.11362727 L12.6988809,9.15353742 L7.999,11.1908049 L8.00003836,12.0632048 C8.86183578,12.2853728 9.5,13.0676671 9.5,14.0012739 C9.5,15.1057325 8.60276806,16 7.49936367,16 C6.39341394,16 5.5,15.1057325 5.5,14.0012739 C5.5,13.4349444 5.73382492,12.9242931 6.1103101,12.5605717 L3.1823973,10.1523148 C3.06691576,10.0573382 3,9.91566416 3,9.76614315 L3.00006249,7.93683102 C2.13718828,7.71456341 1.5,6.93145246 1.5,5.9990005 C1.5,4.89155422 2.39555222,4 3.5009995,4 C4.60244878,4 5.501999,4.89155422 5.501999,5.9990005 C5.501999,6.93129237 4.86218588,7.7142945 4.00104467,7.93671648 L4,9.2941365 C4,9.44366583 4.06692317,9.58534687 4.18241565,9.68032322 L6.999,11.9948049 L7,3.99980489 L4.99100518,4 C4.75419295,4 4.65422262,3.85560789 4.75682545,3.66642444 L4.79861927,3.60184097 L7.32132053,0.238239288 C7.40028967,0.132947104 7.53393154,0.11148778 7.63264705,0.190363674 Z"/>
</svg>
