<svg xmlns="http://www.w3.org/2000/svg" xmlns:xlink="http://www.w3.org/1999/xlink" width="32" height="32" viewBox="0 0 32 32">
  <defs>
    <filter id="downloader3-a" width="133.3%" height="133.3%" x="-16.7%" y="-16.7%" filterUnits="objectBoundingBox">
      <feOffset dy="1" in="SourceAlpha" result="shadowOffsetOuter1"/>
      <feGaussianBlur in="shadowOffsetOuter1" result="shadowBlurOuter1" stdDeviation=".5"/>
      <feColorMatrix in="shadowBlurOuter1" result="shadowMatrixOuter1" values="0 0 0 0 0   0 0 0 0 0   0 0 0 0 0  0 0 0 0.15 0"/>
      <feMerge>
        <feMergeNode in="shadowMatrixOuter1"/>
        <feMergeNode in="SourceGraphic"/>
      </feMerge>
    </filter>
    <linearGradient id="downloader3-b" x1="50%" x2="50%" y1="0%" y2="98.139%">
      <stop offset="0%" stop-color="#FFF"/>
      <stop offset="100%" stop-color="#EDEDED"/>
    </linearGradient>
    <filter id="downloader3-c" width="218.2%" height="285.7%" x="-59.1%" y="-92.9%" filterUnits="objectBoundingBox">
      <feOffset dy="1" in="SourceAlpha" result="shadowOffsetOuter1"/>
      <feGaussianBlur in="shadowOffsetOuter1" result="shadowBlurOuter1" stdDeviation="1"/>
      <feColorMatrix in="shadowBlurOuter1" result="shadowMatrixOuter1" values="0 0 0 0 0.421978973   0 0 0 0 0.652704643   0 0 0 0 0.875452899  0 0 0 0.5 0"/>
      <feMerge>
        <feMergeNode in="shadowMatrixOuter1"/>
        <feMergeNode in="SourceGraphic"/>
      </feMerge>
    </filter>
    <linearGradient id="downloader3-e" x1="87.73%" x2="38.554%" y1="31.118%" y2="64.666%">
      <stop offset="0%" stop-color="#7871EB"/>
      <stop offset="100%" stop-color="#57E5FF"/>
    </linearGradient>
    <path id="downloader3-d" d="M4.34135076,6.44911245 C4.34024226,6.4480074 4.33913548,6.44690062 4.33803043,6.44579212 L4.30859712,6.4129013 L0.566824283,2.65967766 C-0.022811929,2.06820028 -0.022811929,1.1111773 0.566824283,0.519699923 C1.15408956,-0.0693991209 2.10772127,-0.0708856809 2.69682031,0.516379599 C2.69792881,0.517484647 2.69903559,0.518591424 2.70014064,0.519699923 L5.40559712,3.2339013 L8.11235936,0.519699923 C8.69962464,-0.0693991209 9.65325635,-0.0708856809 10.2423554,0.516379599 C10.2434639,0.517484647 10.2445707,0.518591424 10.2456757,0.519699923 C10.8353119,1.1111773 10.8353119,2.06820028 10.2456757,2.65967766 L6.50469818,6.41460459 C6.49480031,6.42510843 6.48472411,6.43550556 6.47446957,6.44579212 C6.18083693,6.74034164 5.79561268,6.88798804 5.41015922,6.8885889 C5.02158297,6.88918977 4.63590028,6.74274509 4.34135076,6.44911245 Z"/>
    <radialGradient id="downloader3-f" cx="94.647%" cy="77.513%" r="98.479%" fx="94.647%" fy="77.513%" gradientTransform="scale(-.7957 -1) rotate(23.08 3.675 -5.23)">
      <stop offset="0%" stop-color="#7871EB"/>
      <stop offset="68.65%" stop-color="#65B3F9" stop-opacity=".389"/>
      <stop offset="100%" stop-color="#5CD1FF"/>
    </radialGradient>
    <filter id="downloader3-h" width="172.2%" height="208.3%" x="-36.1%" y="-54.2%" filterUnits="objectBoundingBox">
      <feOffset dy="1" in="SourceAlpha" result="shadowOffsetOuter1"/>
      <feGaussianBlur in="shadowOffsetOuter1" result="shadowBlurOuter1" stdDeviation="1"/>
      <feColorMatrix in="shadowBlurOuter1" result="shadowMatrixOuter1" values="0 0 0 0 0.419449026   0 0 0 0 0.779397285   0 0 0 0 0.884114583  0 0 0 0.5 0"/>
      <feMerge>
        <feMergeNode in="shadowMatrixOuter1"/>
        <feMergeNode in="SourceGraphic"/>
      </feMerge>
    </filter>
    <linearGradient id="downloader3-j" x1="90.404%" x2="50%" y1="31.333%" y2="70.34%">
      <stop offset="0%" stop-color="#2B86FF"/>
      <stop offset="100%" stop-color="#26F9B9"/>
    </linearGradient>
    <path id="downloader3-i" d="M7.39357334,10.8050157 L7.26546908,10.6856463 C7.2653099,10.6854871 7.26515073,10.6853279 7.26499158,10.6851688 L0.8286161,4.2470192 C-0.128498994,3.2896403 -0.128498994,1.73770219 0.8286161,0.780323289 C1.78539023,-0.176714564 3.33684139,-0.176928349 4.29387924,0.779845785 L8.99977978,5.48740502 L13.7056433,0.780323289 C14.6208185,-0.135104222 16.0800839,-0.175101018 17.0428021,0.660476298 L17.1713839,0.780323289 L17.1713839,0.780323289 C18.128499,1.73770219 18.128499,3.2896403 17.1713839,4.2470192 L10.7350084,10.6851688 C10.2774208,11.1428825 9.68381063,11.3817386 9.08425759,11.4017191 L8.91641732,11.4017416 C8.37136413,11.3837277 7.83117254,11.1848236 7.39357334,10.8050157 Z"/>
    <linearGradient id="downloader3-k" x1="30.234%" x2="116.916%" y1="73.086%" y2="55.092%">
      <stop offset="0%" stop-color="#26F5BB"/>
      <stop offset="100%" stop-color="#2B86FE"/>
    </linearGradient>
  </defs>
  <g fill="none" fill-rule="evenodd" filter="url(#downloader3-a)" transform="translate(1 1)">
    <circle cx="15" cy="15" r="15.5" fill="url(#downloader3-b)" stroke="#000" stroke-opacity=".05"/>
    <g filter="url(#downloader3-c)" transform="translate(9.5 6)">
      <mask id="downloader3-g" fill="#fff">
        <use xlink:href="#downloader3-d"/>
      </mask>
      <use fill="url(#downloader3-e)" xlink:href="#downloader3-d"/>
      <path fill="url(#downloader3-f)" d="M5.75,2.86632615 C4.61614052,4.40689446 2.23212827,4.31969248 1.35992867,3.7964806 C0.487729072,3.27326872 -0.210030609,1.23855585 -0.0355906887,0.657209312 C0.138849232,0.0758627766 1.59251523,-1.23216693 2.95896128,0.0758627766 C4.32540732,1.38389248 4.7324338,1.90710436 5.75,2.86632615 Z" mask="url(#downloader3-g)"/>
    </g>
    <g filter="url(#downloader3-h)" transform="translate(6 12)">
      <mask id="downloader3-l" fill="#fff">
        <use xlink:href="#downloader3-i"/>
      </mask>
      <use fill="url(#downloader3-j)" xlink:href="#downloader3-i"/>
      <path fill="url(#downloader3-k)" d="M8.9938515,5.49431255 C7.8563303,7.04714058 4.61876997,7.51591886 3.0145734,6.6369596 C1.41037684,5.75800033 -1.01050161,3.35551168 -0.572993454,1.80268365 C-0.135485301,0.24985562 2.48956362,-2.03543846 3.8604225,-0.716999569 C5.23128138,0.601439325 9.66469733,3.82428995 8.9938515,5.49431255 Z" mask="url(#downloader3-l)"/>
    </g>
  </g>
</svg>
