<svg xmlns="http://www.w3.org/2000/svg" xmlns:xlink="http://www.w3.org/1999/xlink" width="256" height="256" viewBox="0 0 256 256">
  <defs>
    <filter id="downloader8-a" width="122.9%" height="122.9%" x="-11.4%" y="-11.4%" filterUnits="objectBoundingBox">
      <feOffset dy="4" in="SourceAlpha" result="shadowOffsetOuter1"/>
      <feGaussianBlur in="shadowOffsetOuter1" result="shadowBlurOuter1" stdDeviation="5"/>
      <feColorMatrix in="shadowBlurOuter1" result="shadowMatrixOuter1" values="0 0 0 0 0   0 0 0 0 0   0 0 0 0 0  0 0 0 0.2 0"/>
      <feMerge>
        <feMergeNode in="shadowMatrixOuter1"/>
        <feMergeNode in="SourceGraphic"/>
      </feMerge>
    </filter>
    <linearGradient id="downloader8-b" x1="50%" x2="50%" y1="0%" y2="98.139%">
      <stop offset="0%" stop-color="#FFF"/>
      <stop offset="100%" stop-color="#EDEDED"/>
    </linearGradient>
    <filter id="downloader8-c" width="159.3%" height="191.1%" x="-29.7%" y="-45.5%" filterUnits="objectBoundingBox">
      <feOffset dy="4" in="SourceAlpha" result="shadowOffsetOuter1"/>
      <feGaussianBlur in="shadowOffsetOuter1" result="shadowBlurOuter1" stdDeviation="4.5"/>
      <feColorMatrix in="shadowBlurOuter1" result="shadowMatrixOuter1" values="0 0 0 0 0.421978973   0 0 0 0 0.652704643   0 0 0 0 0.875452899  0 0 0 0.5 0"/>
      <feMerge>
        <feMergeNode in="shadowMatrixOuter1"/>
        <feMergeNode in="SourceGraphic"/>
      </feMerge>
    </filter>
    <linearGradient id="downloader8-e" x1="87.73%" x2="38.554%" y1="31.118%" y2="64.666%">
      <stop offset="0%" stop-color="#7871EB"/>
      <stop offset="100%" stop-color="#57E5FF"/>
    </linearGradient>
    <path id="downloader8-d" d="M34.7308061,51.5928996 C34.7219381,51.5840592 34.7130838,51.575205 34.7042435,51.566337 C34.5489404,51.4105489 34.3987504,51.251591 34.2536735,51.0896719 L4.53459426,21.2774213 C-0.182495432,16.5456022 -0.182495432,8.88941843 4.53459426,4.15759939 C9.2327165,-0.555192967 16.8617701,-0.567085447 21.5745625,4.13103679 L21.6011251,4.15759939 L21.6011251,4.15759939 L43.249777,25.8742104 L64.8988749,4.15759939 C69.5969971,-0.555192967 77.2260508,-0.567085447 81.9388431,4.13103679 C81.9477111,4.13987718 81.9565653,4.14873139 81.9654057,4.15759939 C86.6824954,8.88941843 86.6824954,16.5456022 81.9654057,21.2774213 L52.2463265,51.0896719 C52.1012496,51.251591 51.9510596,51.4105489 51.7957565,51.566337 C49.4466954,53.9227331 46.3649015,55.1039044 43.2812737,55.1087112 L43.2562915,55.1087112 C40.1726637,55.1135181 37.0872022,53.9419607 34.7308061,51.5928996 Z"/>
    <radialGradient id="downloader8-f" cx="94.647%" cy="77.513%" r="98.479%" fx="94.647%" fy="77.513%" gradientTransform="scale(-.7957 -1) rotate(23.08 3.675 -5.23)">
      <stop offset="0%" stop-color="#7871EB"/>
      <stop offset="68.65%" stop-color="#65B3F9" stop-opacity=".389"/>
      <stop offset="100%" stop-color="#5CD1FF"/>
    </radialGradient>
    <filter id="downloader8-h" width="148.6%" height="176.1%" x="-24.3%" y="-38%" filterUnits="objectBoundingBox">
      <feOffset dy="7" in="SourceAlpha" result="shadowOffsetOuter1"/>
      <feGaussianBlur in="shadowOffsetOuter1" result="shadowBlurOuter1" stdDeviation="5.5"/>
      <feColorMatrix in="shadowBlurOuter1" result="shadowMatrixOuter1" values="0 0 0 0 0.419449026   0 0 0 0 0.779397285   0 0 0 0 0.884114583  0 0 0 0.5 0"/>
      <feMerge>
        <feMergeNode in="shadowMatrixOuter1"/>
        <feMergeNode in="SourceGraphic"/>
      </feMerge>
    </filter>
    <linearGradient id="downloader8-j" x1="90.404%" x2="50%" y1="31.328%" y2="70.345%">
      <stop offset="0%" stop-color="#2B86FF"/>
      <stop offset="100%" stop-color="#26F9B9"/>
    </linearGradient>
    <path id="downloader8-i" d="M58.1237527,85.4851701 C58.1224792,85.4838969 58.1212058,85.4826236 58.1199327,85.48135 L6.6289288,33.9761536 C-1.02799195,26.3171224 -1.02799195,13.9016176 6.6289288,6.24258631 C14.2831219,-1.41371651 26.6947311,-1.41542679 34.3510339,6.23876628 L34.354854,6.24258631 L71.9992382,43.8972401 L109.645146,6.24258631 C117.299339,-1.41371651 129.710948,-1.41542679 137.367251,6.23876628 C137.368525,6.24003945 137.369798,6.24131279 137.371071,6.24258631 C145.027992,13.9016176 145.027992,26.3171224 137.371071,33.9761536 L85.8800673,85.48135 C82.0529708,89.3095015 77.0365202,91.2240047 72.0198059,91.224696 L71.9855964,91.224696 C66.9688821,91.2253873 61.9519041,89.3122666 58.1237527,85.4851701 Z"/>
    <linearGradient id="downloader8-k" x1="30.234%" x2="116.916%" y1="73.086%" y2="55.092%">
      <stop offset="0%" stop-color="#26F5BB"/>
      <stop offset="100%" stop-color="#2B86FE"/>
    </linearGradient>
  </defs>
  <g fill="none" fill-rule="evenodd" filter="url(#downloader8-a)" transform="translate(10 9)">
    <circle cx="118" cy="118" r="117.5" fill="url(#downloader8-b)" stroke="#000" stroke-opacity=".05"/>
    <g filter="url(#downloader8-c)" transform="translate(74.5 51)">
      <mask id="downloader8-g" fill="#fff">
        <use xlink:href="#downloader8-d"/>
      </mask>
      <use fill="url(#downloader8-e)" xlink:href="#downloader8-d"/>
      <path fill="url(#downloader8-f)" d="M46,22.9306092 C36.9291241,35.2551557 17.8570262,34.5575399 10.8794294,30.3718448 C3.90183258,26.1861498 -1.68024487,9.90844678 -0.28472551,5.2576745 C1.11079385,0.606902213 12.7401219,-9.85733542 23.6716902,0.606902213 C34.6032585,11.0711398 37.8594704,15.2568349 46,22.9306092 Z" mask="url(#downloader8-g)"/>
    </g>
    <g filter="url(#downloader8-h)" transform="translate(46 93)">
      <mask id="downloader8-l" fill="#fff">
        <use xlink:href="#downloader8-i"/>
      </mask>
      <use fill="url(#downloader8-j)" xlink:href="#downloader8-i"/>
      <path fill="url(#downloader8-k)" d="M71.950812,43.9545004 C62.8506424,56.3771247 36.9501597,60.1273509 24.1165872,53.0956768 C11.2830147,46.0640027 -8.08401286,26.8440935 -4.58394763,14.4214692 C-1.08388241,1.99884496 19.916509,-16.2835077 30.88338,-5.73599655 C41.850251,4.8115146 77.3175787,30.5943196 71.950812,43.9545004 Z" mask="url(#downloader8-l)"/>
    </g>
  </g>
</svg>
