<svg xmlns="http://www.w3.org/2000/svg" xmlns:xlink="http://www.w3.org/1999/xlink" width="34" height="34" viewBox="0 0 34 34">
  <defs>
    <linearGradient id="deepin-cloudprint-config-helper-c" x1="50%" x2="50%" y1="0%" y2="97.628%">
      <stop offset="0%" stop-color="#FFD200"/>
      <stop offset="100%" stop-color="#FFB223"/>
    </linearGradient>
    <path id="deepin-cloudprint-config-helper-b" d="M0,16 C0,13.8222123 0.422217984,11.7472341 1.26666667,9.7750016 C2.11111552,7.80276907 3.24721493,6.102784 4.67499947,4.67499947 C6.102784,3.24721493 7.80276907,2.1111168 9.7750016,1.26666667 C11.7472341,0.422216533 13.8222123,0 16,0 C18.1666773,0 20.2361003,0.422216533 22.2083328,1.26666667 C24.1805653,2.1111168 25.883328,3.24721493 27.3166677,4.67499947 C28.7500075,6.102784 29.8888832,7.80276907 30.7333333,9.7750016 C31.5777835,11.7472341 32,13.8222123 32,16 C32,18.1666773 31.5777835,20.2388779 30.7333333,22.2166656 C29.8888832,24.1944533 28.7500075,25.897216 27.3166677,27.3250005 C25.883328,28.7527851 24.1805653,29.8888845 22.2083328,30.7333333 C20.2361003,31.577782 18.1666773,32 16,32 C13.8222123,32 11.7472341,31.577782 9.7750016,30.7333333 C7.80276907,29.8888845 6.102784,28.7527851 4.67499947,27.3250005 C3.24721493,25.897216 2.11111552,24.1944533 1.26666667,22.2166656 C0.422217984,20.2388779 0,18.1666773 0,16 L0,16 Z"/>
    <filter id="deepin-cloudprint-config-helper-a" width="112.5%" height="112.5%" x="-6.2%" y="-3.1%" filterUnits="objectBoundingBox">
      <feOffset dy="1" in="SourceAlpha" result="shadowOffsetOuter1"/>
      <feGaussianBlur in="shadowOffsetOuter1" result="shadowBlurOuter1" stdDeviation=".5"/>
      <feColorMatrix in="shadowBlurOuter1" values="0 0 0 0 0   0 0 0 0 0   0 0 0 0 0  0 0 0 0.2 0"/>
    </filter>
  </defs>
  <g fill="none" fill-rule="evenodd" transform="translate(1)">
    <use fill="#000" filter="url(#deepin-cloudprint-config-helper-a)" xlink:href="#deepin-cloudprint-config-helper-b"/>
    <use fill="url(#deepin-cloudprint-config-helper-c)" xlink:href="#deepin-cloudprint-config-helper-b"/>
    <path fill="#FFF" d="M13.6296296,21.6148148 C13.6296296,22.3037065 13.8740755,22.8925919 14.3629672,23.3814793 C14.8518547,23.8703711 15.44074,24.1148169 16.1296318,24.1148169 C16.8185235,24.1148169 17.4074088,23.8703711 17.8962963,23.3814793 C18.385188,22.8925919 18.6296339,22.3037065 18.6296339,21.6148148 C18.6296339,20.9259231 18.385188,20.3370377 17.8962963,19.8481503 C17.4296296,19.3814793 16.8407443,19.1481481 16.1296318,19.1481481 C15.4185192,19.1481481 14.8296339,19.3814793 14.3629672,19.8481503 C13.8740755,20.3370377 13.6296296,20.9259231 13.6296296,21.6148148 L13.6296296,21.6148148 Z"/>
    <rect width="3.556" height="11.852" x="14.222" y="4.926" fill="#FFF" rx="1.778"/>
  </g>
</svg>
