<?xml version="1.0" encoding="UTF-8"?>
<svg width="24px" height="24px" viewBox="0 0 24 24" version="1.1" xmlns="http://www.w3.org/2000/svg" xmlns:xlink="http://www.w3.org/1999/xlink">
    <title>check</title>
    <defs>
        <circle id="path-1" cx="6" cy="6" r="6"></circle>
        <filter x="-91.7%" y="-58.3%" width="283.3%" height="283.3%" filterUnits="objectBoundingBox" id="filter-2">
            <feOffset dx="0" dy="4" in="SourceAlpha" result="shadowOffsetOuter1"></feOffset>
            <feGaussianBlur stdDeviation="3" in="shadowOffsetOuter1" result="shadowBlurOuter1"></feGaussianBlur>
            <feColorMatrix values="0 0 0 0 0.17254902   0 0 0 0 0.97254902   0 0 0 0 0.928099719  0 0 0 0.4 0" type="matrix" in="shadowBlurOuter1"></feColorMatrix>
        </filter>
    </defs>
    <g id="页面-1" stroke="none" stroke-width="1" fill="none" fill-rule="evenodd">
        <g id="下载诊断工具" transform="translate(-275.000000, -507.000000)">
            <g id="编组" transform="translate(240.000000, 309.000000)">
                <g id="问题1备份-2" transform="translate(20.000000, 185.000000)">
                    <g id="icon_tips/check" transform="translate(20.000000, 14.000000)">
                        <g id="完成" transform="translate(1.000000, 1.000000)">
                            <g id="椭圆形">
                                <use fill="black" fill-opacity="1" filter="url(#filter-2)" xlink:href="#path-1"></use>
                                <use fill="#00A48A" fill-rule="evenodd" xlink:href="#path-1"></use>
                            </g>
                            <path d="M7.56660418,3.29289322 L10.3950313,6.12132034 C10.7855556,6.51184464 10.7855556,7.14500961 10.3950313,7.53553391 C10.004507,7.9260582 9.37134203,7.9260582 8.98081774,7.53553391 L6.859,5.414 L2.9704101,9.30330086 C2.57988581,9.69382515 1.94672083,9.69382515 1.55619654,9.30330086 C1.16567225,8.91277657 1.16567225,8.27961159 1.55619654,7.8890873 L6.15239062,3.29289322 C6.3326326,3.11265124 6.56456135,3.01559786 6.80046601,3.0017331 L6.91852878,3.0017331 C7.15443344,3.01559786 7.3863622,3.11265124 7.56660418,3.29289322 Z" id="形状结合" fill="#FFFFFF" transform="translate(6.093962, 6.349874) rotate(180.000000) translate(-6.093962, -6.349874) "></path>
                        </g>
                    </g>
                </g>
            </g>
        </g>
    </g>
</svg>