<?xml version="1.0" encoding="UTF-8"?>
<svg width="18px" height="18px" viewBox="0 0 18 18" version="1.1" xmlns="http://www.w3.org/2000/svg" xmlns:xlink="http://www.w3.org/1999/xlink">
    <g id="页面-1" stroke="none" stroke-width="1" fill="none" fill-rule="evenodd">
        <g id="02升级检查-01检查结果-升级条件-未通过" transform="translate(-352.000000, -528.000000)" fill="#536076">
            <g id="应用窗口备份-3" transform="translate(196.000000, 269.000000)">
                <g id="编组-8" transform="translate(156.000000, 200.000000)">
                    <g id="编组-4备份" transform="translate(0.000000, 58.000000)">
                        <g id="-mockplus-" transform="translate(0.000000, 1.000000)">
                            <g id="编组-6" transform="translate(1.636364, 1.636364)">
                                <path d="M7.15909091,0 C11.1129476,0 14.3181818,3.20523418 14.3181818,7.15909091 C14.3181818,7.46323373 14.0716253,7.70979021 13.7674825,7.70979021 C13.4633397,7.70979021 13.2167832,7.46323373 13.2167832,7.15909091 C13.2167832,3.81351983 10.504662,1.1013986 7.15909091,1.1013986 C3.81351983,1.1013986 1.1013986,3.81351983 1.1013986,7.15909091 C1.1013986,10.504662 3.81351983,13.2167832 7.15909091,13.2167832 C7.46323373,13.2167832 7.70979021,13.4633397 7.70979021,13.7674825 C7.70979021,14.0716253 7.46323373,14.3181818 7.15909091,14.3181818 C3.20523418,14.3181818 0,11.1129476 0,7.15909091 C0,3.20523418 3.20523418,0 7.15909091,0 Z M7.21403428,6.87115238 L9.09236287,7.06919691 C9.31705207,7.09288737 9.47999375,7.29423887 9.45630329,7.51892808 C9.44648043,7.61209175 9.40498028,7.69906183 9.33873846,7.76530366 L8.914,8.189 L12.6495724,11.6794687 C12.8892123,11.9191086 12.8892123,12.3076417 12.6495724,12.5472816 C12.4317179,12.765136 12.0908113,12.784941 11.8505837,12.6066964 L11.7817595,12.5472816 L8.046,9.057 L7.6584544,9.44558772 C7.49869446,9.60534766 7.23967242,9.60534766 7.07991248,9.44558772 C7.01367066,9.37934589 6.97217051,9.29237581 6.96234765,9.19921213 L6.76430312,7.32088354 C6.74061266,7.09619434 6.90355433,6.89484284 7.12824353,6.87115238 C7.15676141,6.86814555 7.1855164,6.86814555 7.21403428,6.87115238 Z" id="形状结合"></path>
                            </g>
                        </g>
                    </g>
                </g>
            </g>
        </g>
    </g>
</svg>