<?xml version="1.0" encoding="UTF-8"?>
<svg width="60px" height="60px" viewBox="0 0 60 60" version="1.1" xmlns="http://www.w3.org/2000/svg" xmlns:xlink="http://www.w3.org/1999/xlink">
    <defs>
        <radialGradient cx="48.6350537%" cy="50%" fx="48.6350537%" fy="50%" r="51.021152%" gradientTransform="translate(0.486351,0.500000),scale(0.707317,1.000000),rotate(88.683399),scale(1.000000,1.332216),translate(-0.486351,-0.500000)" id="radialGradient-1">
            <stop stop-color="#009ECE" stop-opacity="0.225037902" offset="0%"></stop>
            <stop stop-color="#23AAEE" stop-opacity="0" offset="100%"></stop>
        </radialGradient>
        <linearGradient x1="50%" y1="0%" x2="50%" y2="100%" id="linearGradient-2">
            <stop stop-color="#55C600" offset="0%"></stop>
            <stop stop-color="#00C3B6" offset="100%"></stop>
        </linearGradient>
        <path d="M7.65625,15.3125 C11.8846801,15.3125 15.3125,11.8846801 15.3125,7.65625 C15.3125,3.42781988 11.8846801,0 7.65625,0 C3.42781988,0 0,3.42781988 0,7.65625 C0,11.8846801 3.42781988,15.3125 7.65625,15.3125 Z" id="path-3"></path>
        <filter x="-13.1%" y="-6.5%" width="126.1%" height="126.1%" filterUnits="objectBoundingBox" id="filter-4">
            <feOffset dx="0" dy="1" in="SourceAlpha" result="shadowOffsetOuter1"></feOffset>
            <feGaussianBlur stdDeviation="0.5" in="shadowOffsetOuter1" result="shadowBlurOuter1"></feGaussianBlur>
            <feColorMatrix values="0 0 0 0 0   0 0 0 0 0.835294118   0 0 0 0 0.270588235  0 0 0 0.3 0" type="matrix" in="shadowBlurOuter1"></feColorMatrix>
        </filter>
        <radialGradient cx="77.6888131%" cy="43.1868162%" fx="77.6888131%" fy="43.1868162%" r="225.764522%" gradientTransform="translate(0.776888,0.431868),scale(0.394103,1.000000),rotate(177.068515),scale(1.000000,0.505608),translate(-0.776888,-0.431868)" id="radialGradient-5">
            <stop stop-color="#00C9FF" offset="0%"></stop>
            <stop stop-color="#F5FDFF" offset="100%"></stop>
        </radialGradient>
        <path d="M1.12455807,8.74759882 C-0.588741984,19.8799788 7.25013491,23.2018434 24.6411887,18.7131926 C25.7540263,18.396106 37.7942589,14.4540726 43.2532189,7.92788038 C43.8156644,7.29177904 44.7064868,7.09345866 45.9256863,7.33291925 C47.9403209,11.3854677 48.8743164,13.589987 48.7276729,13.9464772 C39.914924,18.3920992 35.4005737,22.19428 25.6746363,24.7475988 C4.97599555,29.5317716 -3.20736385,24.1984383 1.12455807,8.74759882 Z" id="path-6"></path>
        <filter x="-4.1%" y="-10.4%" width="108.2%" height="120.8%" filterUnits="objectBoundingBox" id="filter-7">
            <feGaussianBlur stdDeviation="1" in="SourceAlpha" result="shadowBlurInner1"></feGaussianBlur>
            <feOffset dx="0" dy="2" in="shadowBlurInner1" result="shadowOffsetInner1"></feOffset>
            <feComposite in="shadowOffsetInner1" in2="SourceAlpha" operator="arithmetic" k2="-1" k3="1" result="shadowInnerInner1"></feComposite>
            <feColorMatrix values="0 0 0 0 0.874067502   0 0 0 0 0.981570854   0 0 0 0 1  0 0 0 1 0" type="matrix" in="shadowInnerInner1"></feColorMatrix>
        </filter>
        <radialGradient cx="83.1789714%" cy="16.3871262%" fx="83.1789714%" fy="16.3871262%" r="67.0533431%" gradientTransform="translate(0.831790,0.163871),scale(0.942637,1.000000),rotate(136.199732),scale(1.000000,1.608251),translate(-0.831790,-0.163871)" id="radialGradient-8">
            <stop stop-color="#00C8FF" offset="0%"></stop>
            <stop stop-color="#79DFF7" offset="100%"></stop>
        </radialGradient>
        <path d="M36.3786817,8.22754936 L57.3279979,0 C50.875334,13.1395664 47.6424001,19.7220993 47.6291963,19.7475988 C45.6272031,13.9500557 41.8770316,10.1100392 36.3786817,8.22754936 Z" id="path-9"></path>
        <filter x="-9.5%" y="-10.1%" width="119.1%" height="120.3%" filterUnits="objectBoundingBox" id="filter-10">
            <feGaussianBlur stdDeviation="1" in="SourceAlpha" result="shadowBlurInner1"></feGaussianBlur>
            <feOffset dx="0" dy="2" in="shadowBlurInner1" result="shadowOffsetInner1"></feOffset>
            <feComposite in="shadowOffsetInner1" in2="SourceAlpha" operator="arithmetic" k2="-1" k3="1" result="shadowInnerInner1"></feComposite>
            <feColorMatrix values="0 0 0 0 0.874067502   0 0 0 0 0.981570854   0 0 0 0 1  0 0 0 1 0" type="matrix" in="shadowInnerInner1"></feColorMatrix>
        </filter>
    </defs>
    <g id="页面-1" stroke="none" stroke-width="1" fill="none" fill-rule="evenodd">
        <g id="02升级检查-01检查结果-升级条件-通过" transform="translate(-407.000000, -369.000000)">
            <g id="应用窗口备份-3" transform="translate(132.000000, 269.000000)">
                <g id="电脑" transform="translate(275.000000, 100.000000)">
                    <g>
                        <rect id="矩形" x="0" y="0" width="60" height="60"></rect>
                        <g id="编组-16" transform="translate(3.600000, 6.000000)">
                            <path d="M10.6000004,1 L42.1999996,1 C47.5019334,1 51.8,5.29806657 51.8,10.6000004 L51.8,28.9999996 C51.8,34.3019334 47.5019334,38.6 42.1999996,38.6 L10.6000004,38.6 C5.29806657,38.6 1,34.3019334 1,28.9999996 L1,10.6000004 C1,5.29806657 5.29806657,1 10.6000004,1 Z" id="矩形" fill="#E4FAFF"></path>
                            <path d="M7.8,2.4 L7.8,7.4988 L12,7.4988 L12,2.4 L12.6,2.4 L12.6,7.4988 L16.8,7.4988 L16.8,2.4 L17.4,2.4 L17.4,7.4988 L21.6,7.4988 L21.6,2.4 L22.2,2.4 L22.2,7.4988 L26.4,7.4988 L26.4,2.4 L27,2.4 L27,7.4988 L31.2,7.4988 L31.2,2.4 L31.8,2.4 L31.8,7.4988 L36,7.4988 L36,2.4 L36.6,2.4 L36.6,7.4988 L40.8,7.4988 L40.8,2.4 L41.4,2.4 L41.4,7.4988 L45.6,7.4988 L45.6,2.4 L46.2,2.4 L46.2,7.4988 L51.3,7.5 L51.3,8.1 L46.2,8.0988 L46.2,13.4988 L51.3,13.5 L51.3,14.1 L46.2,14.0988 L46.2,19.4988 L51.3,19.5 L51.3,20.1 L46.2,20.0988 L46.2,25.4988 L51.3,25.5 L51.3,26.1 L46.2,26.0988 L46.2,31.4988 L51.3,31.5 L51.3,32.1 L46.2,32.0988 L46.2,37.2 L45.6,37.2 L45.6,32.0988 L41.4,32.0988 L41.4,37.2 L40.8,37.2 L40.8,32.0988 L36.6,32.0988 L36.6,37.2 L36,37.2 L36,32.0988 L31.8,32.0988 L31.8,37.2 L31.2,37.2 L31.2,32.0988 L27,32.0988 L27,37.2 L26.4,37.2 L26.4,32.0988 L22.2,32.0988 L22.2,37.2 L21.6,37.2 L21.6,32.0988 L17.4,32.0988 L17.4,37.2 L16.8,37.2 L16.8,32.0988 L12.6,32.0988 L12.6,37.2 L12,37.2 L12,32.0988 L7.8,32.0988 L7.8,37.2 L7.2,37.2 L7.2,32.0988 L2.1,32.1 L2.1,31.5 L7.2,31.4988 L7.2,26.0988 L2.1,26.1 L2.1,25.5 L7.2,25.4988 L7.2,20.0988 L2.1,20.1 L2.1,19.5 L7.2,19.4988 L7.2,14.0988 L2.1,14.1 L2.1,13.5 L7.2,13.4988 L7.2,8.0988 L2.1,8.1 L2.1,7.5 L7.2,7.4988 L7.2,2.4 L7.8,2.4 Z M36,26.0988 L31.8,26.0988 L31.8,31.4988 L36,31.4988 L36,26.0988 Z M16.8,26.0988 L12.6,26.0988 L12.6,31.4988 L16.8,31.4988 L16.8,26.0988 Z M12,26.0988 L7.8,26.0988 L7.8,31.4988 L12,31.4988 L12,26.0988 Z M21.6,26.0988 L17.4,26.0988 L17.4,31.4988 L21.6,31.4988 L21.6,26.0988 Z M31.2,26.0988 L27,26.0988 L27,31.4988 L31.2,31.4988 L31.2,26.0988 Z M40.8,26.0988 L36.6,26.0988 L36.6,31.4988 L40.8,31.4988 L40.8,26.0988 Z M26.4,26.0988 L22.2,26.0988 L22.2,31.4988 L26.4,31.4988 L26.4,26.0988 Z M45.6,26.0988 L41.4,26.0988 L41.4,31.4988 L45.6,31.4988 L45.6,26.0988 Z M40.8,20.0988 L36.6,20.0988 L36.6,25.4988 L40.8,25.4988 L40.8,20.0988 Z M31.2,20.0988 L27,20.0988 L27,25.4988 L31.2,25.4988 L31.2,20.0988 Z M21.6,20.0988 L17.4,20.0988 L17.4,25.4988 L21.6,25.4988 L21.6,20.0988 Z M12,20.0988 L7.8,20.0988 L7.8,25.4988 L12,25.4988 L12,20.0988 Z M16.8,20.0988 L12.6,20.0988 L12.6,25.4988 L16.8,25.4988 L16.8,20.0988 Z M26.4,20.0988 L22.2,20.0988 L22.2,25.4988 L26.4,25.4988 L26.4,20.0988 Z M36,20.0988 L31.8,20.0988 L31.8,25.4988 L36,25.4988 L36,20.0988 Z M45.6,20.0988 L41.4,20.0988 L41.4,25.4988 L45.6,25.4988 L45.6,20.0988 Z M40.8,14.0988 L36.6,14.0988 L36.6,19.4988 L40.8,19.4988 L40.8,14.0988 Z M31.2,14.0988 L27,14.0988 L27,19.4988 L31.2,19.4988 L31.2,14.0988 Z M21.6,14.0988 L17.4,14.0988 L17.4,19.4988 L21.6,19.4988 L21.6,14.0988 Z M12,14.0988 L7.8,14.0988 L7.8,19.4988 L12,19.4988 L12,14.0988 Z M16.8,14.0988 L12.6,14.0988 L12.6,19.4988 L16.8,19.4988 L16.8,14.0988 Z M26.4,14.0988 L22.2,14.0988 L22.2,19.4988 L26.4,19.4988 L26.4,14.0988 Z M36,14.0988 L31.8,14.0988 L31.8,19.4988 L36,19.4988 L36,14.0988 Z M45.6,14.0988 L41.4,14.0988 L41.4,19.4988 L45.6,19.4988 L45.6,14.0988 Z M40.8,8.0988 L36.6,8.0988 L36.6,13.4988 L40.8,13.4988 L40.8,8.0988 Z M31.2,8.0988 L27,8.0988 L27,13.4988 L31.2,13.4988 L31.2,8.0988 Z M21.6,8.0988 L17.4,8.0988 L17.4,13.4988 L21.6,13.4988 L21.6,8.0988 Z M12,8.0988 L7.8,8.0988 L7.8,13.4988 L12,13.4988 L12,8.0988 Z M16.8,8.0988 L12.6,8.0988 L12.6,13.4988 L16.8,13.4988 L16.8,8.0988 Z M26.4,8.0988 L22.2,8.0988 L22.2,13.4988 L26.4,13.4988 L26.4,8.0988 Z M36,8.0988 L31.8,8.0988 L31.8,13.4988 L36,13.4988 L36,8.0988 Z M45.6,8.0988 L41.4,8.0988 L41.4,13.4988 L45.6,13.4988 L45.6,8.0988 Z" id="形状" fill="url(#radialGradient-1)"></path>
                            <path d="M24,39.6 L9.6,39.6 C4.2980664,39.6 0,35.3019336 0,30 L0,9.6 C0,4.2980664 4.2980664,0 9.6,0 L43.2,0 C48.5019336,0 52.8,4.2980664 52.8,9.6 L52.8,30 C52.8,35.3019336 48.5019336,39.6 43.2,39.6 L28.8,39.6 L28.8,43.2923077 L33.6,43.2923077 C34.2627417,43.2923077 34.8,43.829566 34.8,44.4923077 C34.8,45.1550494 34.2627417,45.6923077 33.6,45.6923077 L19.2,45.6923077 C18.5372583,45.6923077 18,45.1550494 18,44.4923077 C18,43.829566 18.5372583,43.2923077 19.2,43.2923077 L24,43.2923077 L24,39.6 Z M43.2,2.4 L9.6,2.4 C5.71392367,2.4 2.54691389,5.47868987 2.40496617,9.33007408 L2.4,9.6 L2.4,30 C2.4,33.8860763 5.47868987,37.0530861 9.33007408,37.1950338 L9.6,37.2 L43.2,37.2 C47.0860763,37.2 50.2530861,34.1213101 50.3950338,30.2699259 L50.4,30 L50.4,9.6 C50.4,5.71392367 47.3213101,2.54691389 43.4699259,2.40496617 L43.2,2.4 Z" id="形状结合" fill="#2B3349" fill-rule="nonzero"></path>
                            <g id="icon/success" transform="translate(19.593750, 12.093750)">
                                <g id="Combined-Shape">
                                    <use fill="black" fill-opacity="1" filter="url(#filter-4)" xlink:href="#path-3"></use>
                                    <use fill="url(#linearGradient-2)" fill-rule="evenodd" xlink:href="#path-3"></use>
                                </g>
                                <path d="M6.03067534,10.0243035 C6.48579309,10.5166255 7.22951155,10.5066337 7.67810235,10.016957 L11.8409021,5.4728915 C12.0157768,5.28200021 12.0027928,4.98548827 11.8119015,4.81061354 C11.6210102,4.63573882 11.3244983,4.64872281 11.1496236,4.8396141 L7.0640578,9.31054527 C6.94971201,9.43567657 6.76395356,9.4364451 6.64810459,9.31112591 L4.40670896,6.88650438 C4.23097449,6.69640427 3.93440697,6.68475861 3.74430686,6.86049308 C3.55420675,7.03622754 3.54256109,7.33279506 3.71829555,7.52289517 L6.03067534,10.0243035 Z" id="Path-119" fill="#FFFFFF" fill-rule="nonzero"></path>
                            </g>
                        </g>
                    </g>
                    <g id="箭头" transform="translate(2.475442, 24.252401)">
                        <g id="路径-6">
                            <use fill="url(#radialGradient-5)" fill-rule="evenodd" xlink:href="#path-6"></use>
                            <use fill="black" fill-opacity="1" filter="url(#filter-7)" xlink:href="#path-6"></use>
                        </g>
                        <path d="M0.87421982,12.4482957 L1.07352917,12.4649023 C0.739158652,16.4779382 2.12733583,19.3725767 4.729238,21.3153956 C6.44245268,22.5946389 8.58840552,23.3395265 9.93086838,23.4709633 C22.5841775,24.2710208 33.8124004,20.7526182 43.6203115,12.9143011 L44.1263506,12.5050184 L44.2530238,12.6597889 C34.2866706,20.8168311 22.84007,24.4876 9.91481831,23.6702886 C8.53470034,23.5352262 6.35420448,22.7783482 4.60957757,21.4756497 C2.03426839,19.5526876 0.62114923,16.7104973 0.848121619,12.8164484 L0.87421982,12.4482957 Z" id="路径-7" fill="#CAF6FF" fill-rule="nonzero"></path>
                        <g id="路径-5">
                            <use fill="url(#radialGradient-8)" fill-rule="evenodd" xlink:href="#path-9"></use>
                            <use fill="black" fill-opacity="1" filter="url(#filter-10)" xlink:href="#path-9"></use>
                        </g>
                    </g>
                </g>
            </g>
        </g>
    </g>
</svg>