<?xml version="1.0" encoding="UTF-8"?>
<svg width="80px" height="80px" viewBox="0 0 80 80" version="1.1" xmlns="http://www.w3.org/2000/svg" xmlns:xlink="http://www.w3.org/1999/xlink">
    <defs>
        <linearGradient x1="50%" y1="0%" x2="50%" y2="98.5008446%" id="linearGradient-1">
            <stop stop-color="#8CC600" offset="0%"></stop>
            <stop stop-color="#00A15E" offset="100%"></stop>
        </linearGradient>
        <path d="M36.25,0 L52.5,16.25 L52.4998553,4.37016273 C52.4999517,4.38218042 52.5,4.39420957 52.5,4.40625 L52.5,60.59375 C52.5,63.0272547 50.5272547,65 48.09375,65 L4.40625,65 C1.97274532,65 1.18619679e-15,63.0272547 0,60.59375 L0,4.40625 C-2.98018372e-16,1.97274532 1.97274532,1.33520598e-15 4.40625,0 L36.25,0 Z" id="path-2"></path>
        <filter x="-9.5%" y="-6.2%" width="119.0%" height="115.4%" filterUnits="objectBoundingBox" id="filter-3">
            <feOffset dx="0" dy="1" in="SourceAlpha" result="shadowOffsetOuter1"></feOffset>
            <feGaussianBlur stdDeviation="1.5" in="shadowOffsetOuter1" result="shadowBlurOuter1"></feGaussianBlur>
            <feColorMatrix values="0 0 0 0 0.514886797   0 0 0 0 0.677830793   0 0 0 0 0.292142585  0 0 0 0.5 0" type="matrix" in="shadowBlurOuter1"></feColorMatrix>
        </filter>
        <linearGradient x1="50%" y1="50%" x2="10.4891306%" y2="91.1942727%" id="linearGradient-4">
            <stop stop-color="#FFFFFF" stop-opacity="0.1" offset="0%"></stop>
            <stop stop-color="#FFFFFF" stop-opacity="0.3" offset="100%"></stop>
        </linearGradient>
        <path d="M36.25,0 L52.5,16.25 L40.65625,16.25 C38.2227453,16.25 36.25,14.2772547 36.25,11.84375 L36.25,0 L36.25,0 Z" id="path-5"></path>
        <filter x="-12.3%" y="-6.2%" width="124.6%" height="124.6%" filterUnits="objectBoundingBox" id="filter-6">
            <feOffset dx="0" dy="1" in="SourceAlpha" result="shadowOffsetOuter1"></feOffset>
            <feGaussianBlur stdDeviation="0.5" in="shadowOffsetOuter1" result="shadowBlurOuter1"></feGaussianBlur>
            <feComposite in="shadowBlurOuter1" in2="SourceAlpha" operator="out" result="shadowBlurOuter1"></feComposite>
            <feColorMatrix values="0 0 0 0 0   0 0 0 0 0   0 0 0 0 0  0 0 0 0.05 0" type="matrix" in="shadowBlurOuter1"></feColorMatrix>
        </filter>
    </defs>
    <g id="页面-1" stroke="none" stroke-width="1" fill="none" fill-rule="evenodd">
        <g id="03镜像获取-02本地获取-上传后" transform="translate(-1064.000000, -521.000000)">
            <g id="应用窗口备份-2" transform="translate(590.000000, 264.000000)">
                <g id="编组" transform="translate(92.000000, 175.000000)">
                    <g id="编组-10" transform="translate(288.000000, 0.000000)">
                        <g id="编组-6" transform="translate(10.000000, 62.000000)">
                            <g id="-mockplus-" transform="translate(84.000000, 20.000000)">
                                <g id="编组" transform="translate(13.750000, 8.750000)">
                                    <g id="bg">
                                        <use fill="black" fill-opacity="1" filter="url(#filter-3)" xlink:href="#path-2"></use>
                                        <use fill="url(#linearGradient-1)" fill-rule="evenodd" xlink:href="#path-2"></use>
                                    </g>
                                    <g id="折角">
                                        <use fill="black" fill-opacity="1" filter="url(#filter-6)" xlink:href="#path-5"></use>
                                        <use fill="url(#linearGradient-4)" fill-rule="evenodd" xlink:href="#path-5"></use>
                                    </g>
                                    <g id="Group" transform="translate(0.000000, 24.375000)">
                                        <path d="M18.75,2.5 L18.75,10 L0,10 L0,2.5 L18.75,2.5 Z M52.5,2.5 L52.5,10 L33.75,10 L33.75,2.5 L52.5,2.5 Z M30,2.5 L30,10 L22.5,10 L22.499,8.125 L28.125,8.125 L28.125,4.375 L22.499,4.375 L22.5,2.5 L30,2.5 Z" id="Combined-Shape" fill-opacity="0.5" fill="#FFF8F8"></path>
                                        <path d="M31.5208333,0 C32.0616122,-9.48933306e-16 32.5,0.438387849 32.5,0.979166667 L32.5,11.5208333 C32.5,12.0616122 32.0616122,12.5 31.5208333,12.5 L20.9791667,12.5 C20.4383878,12.5 20,12.0616122 20,11.5208333 L20,0.979166667 C20,0.438387849 20.4383878,-2.3372745e-16 20.9791667,0 L31.5208333,0 Z M21.25,11.25 L31.25,11.25 L31.25,1.25 L21.25,1.25 L21.25,5.625 L26.875,5.625 L26.875,6.875 L21.25,6.875 L21.25,11.25 Z" id="Combined-Shape" fill="#F4F4F4"></path>
                                    </g>
                                </g>
                            </g>
                        </g>
                    </g>
                </g>
            </g>
        </g>
    </g>
</svg>