<?xml version="1.0" encoding="UTF-8"?>
<svg width="180px" height="180px" viewBox="0 0 180 180" version="1.1" xmlns="http://www.w3.org/2000/svg" xmlns:xlink="http://www.w3.org/1999/xlink">
    <defs>
        <filter x="-28.8%" y="-25.7%" width="157.7%" height="151.4%" filterUnits="objectBoundingBox" id="filter-1">
            <feOffset dx="0" dy="3" in="SourceAlpha" result="shadowOffsetOuter1"></feOffset>
            <feGaussianBlur stdDeviation="8" in="shadowOffsetOuter1" result="shadowBlurOuter1"></feGaussianBlur>
            <feColorMatrix values="0 0 0 0 0   0 0 0 0 0.900045308   0 0 0 0 0.913568027  0 0 0 0.192830866 0" type="matrix" in="shadowBlurOuter1" result="shadowMatrixOuter1"></feColorMatrix>
            <feMerge>
                <feMergeNode in="shadowMatrixOuter1"></feMergeNode>
                <feMergeNode in="SourceGraphic"></feMergeNode>
            </feMerge>
        </filter>
        <linearGradient x1="102.549264%" y1="57.6822305%" x2="-2.65228894%" y2="57.6822305%" id="linearGradient-2">
            <stop stop-color="#00FF64" offset="0%"></stop>
            <stop stop-color="#30EA7F" offset="5.67359895%"></stop>
            <stop stop-color="#00D887" offset="12.081146%"></stop>
            <stop stop-color="#00B160" offset="87.8753432%"></stop>
            <stop stop-color="#00C165" offset="93.1134463%"></stop>
            <stop stop-color="#00FF64" offset="100%"></stop>
        </linearGradient>
        <linearGradient x1="50%" y1="0%" x2="50%" y2="100%" id="linearGradient-3">
            <stop stop-color="#01DAFF" offset="0%"></stop>
            <stop stop-color="#003EFF" offset="100%"></stop>
        </linearGradient>
        <radialGradient cx="50%" cy="50%" fx="50%" fy="50%" r="50%" id="radialGradient-4">
            <stop stop-color="#ADFF1F" offset="0%"></stop>
            <stop stop-color="#00BC6B" offset="100%"></stop>
        </radialGradient>
    </defs>
    <g id="页面-1" stroke="none" stroke-width="1" fill="none" fill-rule="evenodd">
        <g id="04系统升级-02升级失败" transform="translate(-870.000000, -320.000000)">
            <g id="编组-5" transform="translate(724.000000, 320.000000)">
                <g id="编组" transform="translate(146.000000, 0.000000)">
                    <g id="系统备份" transform="translate(26.718750, 18.281250)">
                        <g id="Group" filter="url(#filter-1)" transform="translate(-0.000000, 0.000000)">
                            <path d="M2.38375719e-08,12.7948013 C2.38375719e-08,5.72842764 5.72543428,-9.99200722e-15 12.8026385,-9.99200722e-15 L113.759865,-9.99200722e-15 C120.830567,-9.99200722e-15 126.562503,5.72235997 126.562503,12.7948013 L126.5625,132.1875 L2.38375719e-08,132.1875 L2.38375719e-08,12.7948013 Z" id="Rectangle-1" fill="url(#linearGradient-2)"></path>
                            <path d="M2.38375719e-08,112.027269 C2.38375719e-08,107.611248 3.58389942,104.031356 8.00103704,104.031356 L118.561463,104.031356 C122.980314,104.031356 126.5625,107.620493 126.5625,112.038491 L126.5625,131.271139 L2.38375719e-08,132.197384 L2.38375719e-08,112.027269 Z" id="Rectangle-3" fill="#F3F3F3"></path>
                            <path d="M2.08704079e-14,128.43376 C1.89092767e-14,124.29369 3.35264041,120.9375 7.49123479,120.9375 L119.071269,120.9375 C123.208564,120.9375 126.562504,124.303192 126.562504,128.43376 L126.562504,134.53499 C126.562504,138.67506 123.209863,142.03125 119.071269,142.03125 L7.49123479,142.03125 C3.35394006,142.03125 2.5717161e-14,138.665558 2.37605307e-14,134.53499 L2.08704079e-14,128.43376 Z" id="Rectangle-1" fill="#CBD8CA"></path>
                            <path d="M76.6674877,127.998165 C77.8176275,127.998165 78.75,128.930102 78.75,130.076568 L78.75,134.327846 C78.75,135.475717 77.8256461,136.40625 76.6674877,136.40625 L76.6674877,136.40625 C75.517348,136.40625 74.5849755,135.474312 74.5849755,134.327846 L74.5849755,130.076568 C74.5849755,128.928698 75.5093294,127.998165 76.6674877,127.998165 L76.6674877,127.998165 Z M83.6987377,127.998165 C84.8488775,127.998165 85.78125,128.930102 85.78125,130.076568 L85.78125,134.327846 C85.78125,135.475717 84.8568961,136.40625 83.6987377,136.40625 L83.6987377,136.40625 C82.548598,136.40625 81.6162255,135.474312 81.6162255,134.327846 L81.6162255,130.076568 C81.6162255,128.928698 82.5405794,127.998165 83.6987377,127.998165 L83.6987377,127.998165 Z M90.7299877,127.998165 C91.8801275,127.998165 92.8125,128.930102 92.8125,130.076568 L92.8125,134.327846 C92.8125,135.475717 91.8881461,136.40625 90.7299877,136.40625 L90.7299877,136.40625 C89.579848,136.40625 88.6474755,135.474312 88.6474755,134.327846 L88.6474755,130.076568 C88.6474755,128.928698 89.5718294,127.998165 90.7299877,127.998165 L90.7299877,127.998165 Z M97.7612377,127.998165 C98.9113775,127.998165 99.84375,128.930102 99.84375,130.076568 L99.84375,134.327846 C99.84375,135.475717 98.9193961,136.40625 97.7612377,136.40625 L97.7612377,136.40625 C96.611098,136.40625 95.6787255,135.474312 95.6787255,134.327846 L95.6787255,130.076568 C95.6787255,128.928698 96.6030794,127.998165 97.7612377,127.998165 L97.7612377,127.998165 Z M104.792488,127.998165 C105.942628,127.998165 106.875,128.930102 106.875,130.076568 L106.875,134.327846 C106.875,135.475717 105.950646,136.40625 104.792488,136.40625 L104.792488,136.40625 C103.642348,136.40625 102.709975,135.474312 102.709975,134.327846 L102.709975,130.076568 C102.709975,128.928698 103.634329,127.998165 104.792488,127.998165 L104.792488,127.998165 Z M111.823738,127.998165 C112.973878,127.998165 113.90625,128.930102 113.90625,130.076568 L113.90625,134.327846 C113.90625,135.475717 112.981896,136.40625 111.823738,136.40625 L111.823738,136.40625 C110.673598,136.40625 109.741225,135.474312 109.741225,134.327846 L109.741225,130.076568 C109.741225,128.928698 110.665579,127.998165 111.823738,127.998165 L111.823738,127.998165 Z" id="Combined-Shape" fill="url(#linearGradient-3)"></path>
                            <path d="M16.875,136.40625 C19.2049513,136.40625 21.09375,134.517451 21.09375,132.1875 C21.09375,129.857549 19.2049513,127.96875 16.875,127.96875 C14.5450487,127.96875 12.65625,129.857549 12.65625,132.1875 C12.65625,134.517451 14.5450487,136.40625 16.875,136.40625 Z" id="Oval" fill="#7CBB22"></path>
                            <path d="M16.875,136.40625 C19.2049513,136.40625 21.09375,134.517451 21.09375,132.1875 C21.09375,129.857549 19.2049513,127.96875 16.875,127.96875 C14.5450487,127.96875 12.65625,129.857549 12.65625,132.1875 C12.65625,134.517451 14.5450487,136.40625 16.875,136.40625 Z" id="Oval" fill="url(#radialGradient-4)"></path>
                        </g>
                        <path d="M56.5305567,26.1542113 L56.53125,59.71875 L90.0958771,59.7186435 C88.4170511,74.9060276 75.5411551,86.71875 59.90625,86.71875 C43.1306007,86.71875 29.53125,73.1193993 29.53125,56.34375 C29.53125,40.7091193 41.3435577,27.8334009 56.5305567,26.1542113 Z M66.65625,19.21875 C83.4318993,19.21875 97.03125,32.8181007 97.03125,49.59375 C97.03125,50.7344255 96.9683742,51.8604156 96.8458992,52.9684436 L63.28125,52.96875 L63.2797537,19.4043001 C64.388363,19.2816941 65.5149558,19.21875 66.65625,19.21875 Z" id="形状结合" fill="#FFFFFF"></path>
                    </g>
                </g>
            </g>
        </g>
    </g>
</svg>