<?xml version="1.0" encoding="UTF-8"?>
<svg width="18px" height="18px" viewBox="0 0 18 18" version="1.1" xmlns="http://www.w3.org/2000/svg" xmlns:xlink="http://www.w3.org/1999/xlink">
    <g id="页面-1" stroke="none" stroke-width="1" fill="none" fill-rule="evenodd">
        <g id="02升级检查-01检查结果-升级条件-未通过" transform="translate(-352.000000, -471.000000)" fill="#536076">
            <g id="应用窗口备份-3" transform="translate(196.000000, 269.000000)">
                <g id="编组-8" transform="translate(156.000000, 200.000000)">
                    <g id="-mockplus-" transform="translate(0.000000, 2.000000)">
                        <g id="编组-4" transform="translate(1.636364, 1.636364)">
                            <path d="M12.2727273,0 C13.5799207,0 14.6484498,1.02184361 14.723106,2.31032226 L14.7272727,2.45454545 L14.7272727,10.6363636 C14.7272727,11.9435571 13.7054291,13.0120862 12.4169505,13.0867423 L12.2727273,13.0909091 L2.45454545,13.0909091 C1.147352,13.0909091 0.0788229168,12.0690655 0.00416674916,10.7805868 L0,10.6363636 L0,2.45454545 C0,1.147352 1.02184361,0.0788229168 2.31032226,0.00416674916 L2.45454545,0 L12.2727273,0 Z M2.48998778,1.22676085 L2.38131301,1.22938455 C1.77374142,1.26458806 1.28756994,1.74233402 1.23247562,2.34096421 L1.22727273,2.45454545 L1.22676085,10.6009213 L1.22938455,10.7095961 C1.26458806,11.3171677 1.74233402,11.8033391 2.34096421,11.8584335 L2.45454545,11.8636364 L12.237285,11.8641482 L12.3459597,11.8615245 C12.9535313,11.826321 13.4397028,11.3485751 13.4947971,10.7499449 L13.5,10.6363636 L13.5005119,2.48998778 L13.4978882,2.38131301 C13.4626847,1.77374142 12.9849387,1.28756994 12.3863085,1.23247562 L12.2727273,1.22727273 L2.48998778,1.22676085 Z M3.54545455,6.54545455 C3.84670077,6.54545455 4.09090909,6.78966286 4.09090909,7.09090909 L4.09090909,7.63636364 C4.09090909,7.93760986 3.84670077,8.18181818 3.54545455,8.18181818 L3,8.18181818 C2.69875377,8.18181818 2.45454545,7.93760986 2.45454545,7.63636364 L2.45454545,7.09090909 C2.45454545,6.78966286 2.69875377,6.54545455 3,6.54545455 L3.54545455,6.54545455 Z M3.88636364,13.9090909 L10.8409091,13.9090909 C11.1798111,13.9090909 11.4545455,14.1838253 11.4545455,14.5227273 C11.4545455,14.8616293 11.1798111,15.1363636 10.8409091,15.1363636 L3.88636364,15.1363636 C3.54746163,15.1363636 3.27272727,14.8616293 3.27272727,14.5227273 C3.27272727,14.1838253 3.54746163,13.9090909 3.88636364,13.9090909 Z M1.22676085,3.27272727 L13.5005119,3.27272727 L13.5005119,4.5 L1.22676085,4.5 L1.22676085,3.27272727 Z" id="形状"></path>
                        </g>
                    </g>
                </g>
            </g>
        </g>
    </g>
</svg>