<?xml version="1.0" encoding="UTF-8"?>
<svg width="46px" height="46px" viewBox="0 0 46 46" version="1.1" xmlns="http://www.w3.org/2000/svg" xmlns:xlink="http://www.w3.org/1999/xlink">
    <defs>
        <linearGradient x1="50%" y1="0%" x2="50%" y2="100%" id="linearGradient-1">
            <stop stop-color="#88FF7C" offset="0%"></stop>
            <stop stop-color="#07C58D" offset="100%"></stop>
        </linearGradient>
        <linearGradient x1="50%" y1="0%" x2="50%" y2="100%" id="linearGradient-2">
            <stop stop-color="#42ED5A" offset="0%"></stop>
            <stop stop-color="#00A06A" offset="100%"></stop>
        </linearGradient>
        <path d="M25.4404528,6.31957815 L15.0595394,0.407229354 C14.0926305,-0.135743118 12.9073651,-0.135743118 11.9404562,0.407229354 L1.55954283,6.31957815 C0.593829151,6.86820999 -0.000987945241,7.88451155 0,8.98420323 L0,20.8089008 C-0.000987945241,21.9085925 0.593829151,22.9248941 1.55954283,23.4735259 L11.9404562,29.3858747 C12.9073651,29.9288472 14.0926305,29.9288472 15.0595394,29.3858747 L25.4404528,23.4735259 C26.4061665,22.9248941 27.0009836,21.9085925 27,20.8089008 L27,8.98420323 C27.0009836,7.88451155 26.4061665,6.86820999 25.4404528,6.31957815 Z" id="path-3"></path>
        <filter x="-12.0%" y="-10.9%" width="124.1%" height="121.8%" filterUnits="objectBoundingBox" id="filter-4">
            <feGaussianBlur stdDeviation="2" in="SourceAlpha" result="shadowBlurInner1"></feGaussianBlur>
            <feOffset dx="0" dy="2" in="shadowBlurInner1" result="shadowOffsetInner1"></feOffset>
            <feComposite in="shadowOffsetInner1" in2="SourceAlpha" operator="arithmetic" k2="-1" k3="1" result="shadowInnerInner1"></feComposite>
            <feColorMatrix values="0 0 0 0 0.188235294   0 0 0 0 0.843137255   0 0 0 0 0.533333333  0 0 0 1 0" type="matrix" in="shadowInnerInner1"></feColorMatrix>
        </filter>
    </defs>
    <g id="页面-1" stroke="none" stroke-width="1" fill="none" fill-rule="evenodd">
        <g id="02升级检查" transform="translate(-680.000000, -575.000000)">
            <g id="应用窗口备份" transform="translate(590.000000, 269.000000)">
                <g id="编组-7" transform="translate(90.000000, 145.000000)">
                    <g id="升级软件检查" transform="translate(0.000000, 161.000000)">
                        <rect id="矩形备份-48" x="0" y="0" width="46" height="46"></rect>
                        <g id="编组-5" transform="translate(9.000001, 8.000000)">
                            <g id="路径" fill-rule="nonzero">
                                <use fill="url(#linearGradient-1)" xlink:href="#path-3"></use>
                                <use fill="black" fill-opacity="1" filter="url(#filter-4)" xlink:href="#path-3"></use>
                                <use stroke="url(#linearGradient-2)" stroke-width="0.5" xlink:href="#path-3"></use>
                            </g>
                            <path d="M19.7837656,8.91834564 C20.3636686,8.57127555 21.1051877,8.77724236 21.4399949,9.37838539 C21.7551075,9.94416706 21.5976418,10.658354 21.0945572,11.0297728 L20.9962096,11.0952771 L14.7711351,14.8203446 L14.7715532,22.4928976 C14.7715532,23.146206 14.2907075,23.6830934 13.6758757,23.743996 L13.5591092,23.7497495 C12.928884,23.7497495 12.4109663,23.251292 12.3522155,22.6139408 L12.3466653,22.4928976 L12.3462472,14.7683947 L6.20905841,11.0952771 C5.62915542,10.748207 5.43046598,9.97952842 5.76527313,9.37838539 C6.10008028,8.77724236 6.84159936,8.57127555 7.42150236,8.91834564 L13.6023391,12.617502 L19.7837656,8.91834564 Z" id="路径" fill="#FFFFFF"></path>
                        </g>
                    </g>
                </g>
            </g>
        </g>
    </g>
</svg>