<?xml version="1.0" encoding="UTF-8"?>
<svg width="46px" height="46px" viewBox="0 0 46 46" version="1.1" xmlns="http://www.w3.org/2000/svg" xmlns:xlink="http://www.w3.org/1999/xlink">
    <defs>
        <radialGradient cx="54.3789833%" cy="74.752659%" fx="54.3789833%" fy="74.752659%" r="64.6409116%" gradientTransform="translate(0.543790,0.747527),rotate(-93.940065),scale(1.000000,1.490285),translate(-0.543790,-0.747527)" id="radialGradient-1">
            <stop stop-color="#2081FA" offset="0%"></stop>
            <stop stop-color="#88D9FE" offset="100%"></stop>
        </radialGradient>
        <linearGradient x1="50%" y1="0%" x2="50%" y2="100%" id="linearGradient-2">
            <stop stop-color="#5ECBFD" offset="0%"></stop>
            <stop stop-color="#0079F9" offset="100%"></stop>
        </linearGradient>
        <path d="M25.4545426,22.9090852 L16.6704578,22.9090852 C16.5987977,23.2943437 16.5454729,23.7086147 16.5454729,24.1818139 C16.5454729,26.7272713 19.0909303,26.7272713 19.0909303,26.7272713 C19.793865,26.7272713 20.363659,27.0122305 20.363659,27.3636512 C20.363659,27.7151653 19.793865,28 19.0909303,28 L8.90910081,28 C8.20616608,28 7.63637213,27.7151653 7.63637213,27.3636512 C7.63637213,27.0122617 8.20616608,26.7272713 8.90910081,26.7272713 C8.90910081,26.7272713 11.4545582,26.7272713 11.4545582,24.1818139 C11.4545582,23.7086147 11.4012334,23.2943437 11.3295733,22.9090852 L2.54545738,22.9090852 C1.13958791,22.9090852 0,21.7694973 0,20.3636279 L0,2.54545738 C0,1.13958791 1.13958791,0 2.54545738,0 L25.4545426,0 C26.860381,0 28,1.13958791 28,2.54545738 L28,20.3636279 C28,21.7694973 26.8604121,22.9090852 25.4545426,22.9090852 Z" id="path-3"></path>
        <filter x="-11.6%" y="-11.6%" width="123.2%" height="123.2%" filterUnits="objectBoundingBox" id="filter-4">
            <feGaussianBlur stdDeviation="2" in="SourceAlpha" result="shadowBlurInner1"></feGaussianBlur>
            <feOffset dx="0" dy="2" in="shadowBlurInner1" result="shadowOffsetInner1"></feOffset>
            <feComposite in="shadowOffsetInner1" in2="SourceAlpha" operator="arithmetic" k2="-1" k3="1" result="shadowInnerInner1"></feComposite>
            <feColorMatrix values="0 0 0 0 0.266666667   0 0 0 0 0.62745098   0 0 0 0 0.988235294  0 0 0 1 0" type="matrix" in="shadowInnerInner1"></feColorMatrix>
        </filter>
        <linearGradient x1="88.8530046%" y1="0%" x2="-7.82572262%" y2="90.5119686%" id="linearGradient-5">
            <stop stop-color="#FFFFFF" offset="0%"></stop>
            <stop stop-color="#DFF8FE" offset="100%"></stop>
        </linearGradient>
        <path d="M19.8989477,4 C20.1423236,4 20.3843323,4.0176579 20.6263409,4.06248181 C20.8548477,4.10407975 20.8938793,4.11759908 20.9266299,4.28958058 L20.9408154,4.37353255 C20.9749975,4.59086058 21.0037103,4.80954691 20.9996085,5.03094984 L20.9968739,5.13961385 L20.9968739,5.13961385 C20.9572228,6.43135733 20.6769303,7.6728437 20.2079531,8.87629766 C19.6473681,10.3147376 18.8269997,11.5820316 17.6771168,12.6292811 C17.6063601,12.6934608 17.5725199,12.7606966 17.5652135,12.8407302 L17.5663671,12.9253905 L17.6784841,14.0880955 C17.7728265,14.9913651 17.4542501,15.7302804 16.7213877,16.2545843 C15.9352014,16.8169205 15.1162004,17.3357912 14.305403,17.8628117 C14.1604713,17.9565344 14.0059686,18 13.8583023,18 C13.4850347,18 13.150051,17.7229068 13.1090326,17.2909673 L13.0196466,16.252377 L13.0196466,16.252377 L12.9298751,15.0431 C12.9141568,14.9084979 12.8832782,14.8698353 12.7548413,14.8437885 L12.5908333,14.818861 C11.6938972,14.7006889 10.991115,14.2782575 10.508465,13.5094596 C10.2609872,13.1141942 10.137932,12.6768216 10.094179,12.2177161 C10.0818735,12.0791695 10.025815,12.0438537 9.89455607,12.0370622 C9.1685301,11.9976715 8.44250414,11.9542059 7.71647818,11.8998739 C7.11350748,11.85505 6.80723663,11.2220821 7.13128212,10.6950616 C7.35961796,10.3242457 7.60025934,9.9629378 7.83543158,9.59619676 L8.592905,8.411759 L8.592905,8.411759 C9.01778743,7.75060638 9.61385527,7.36794304 10.3695238,7.30352596 L10.6123783,7.29387795 C10.8523361,7.29387795 11.0922938,7.31459203 11.3320806,7.34175803 L12.0507575,7.42834967 C12.0685321,7.42970797 12.0849395,7.43106627 12.1013468,7.43106627 C12.1683436,7.43106627 12.2216675,7.41205006 12.2736242,7.35500145 C13.4112016,6.09314059 14.816766,5.24148637 16.4096478,4.67100029 C17.3093184,4.34908315 18.2363346,4.13854663 19.1865945,4.04074901 C19.423134,4.0162996 19.6610409,4 19.8989477,4 Z M9.01590741,12.9894004 L9.02906748,12.9905889 C9.21306438,12.9929174 9.32674398,13.0631055 9.40454743,13.2199714 L9.44061892,13.3057146 C9.74278792,14.1614437 10.2924347,14.8093529 11.0895592,15.2494421 C11.2659384,15.3458814 11.4505213,15.4246628 11.6419406,15.4898613 C11.9878626,15.6066751 12.0657975,15.9394586 11.8101161,16.1961774 L10.6711714,17.330358 L10.6711714,17.330358 C10.5809309,17.4213641 10.483854,17.4770544 10.371737,17.4770544 C10.327984,17.4770544 10.2814964,17.4689046 10.2322744,17.4498884 C10.0531606,17.38469 9.96702192,17.2529349 9.95881825,17.0682061 L9.95334913,16.7177646 C9.94924728,16.579218 9.94788,16.5289609 9.89318878,16.5289609 L9.85774077,16.5336898 L9.85774077,16.5336898 L9.74825704,16.5669933 L9.74825704,16.5669933 L8.47395159,16.9880664 L8.47395159,16.9880664 C8.40968941,17.0097992 8.34405994,17.0247405 8.28116504,17.0247405 C8.22100469,17.0247405 8.16084435,17.0111575 8.10068401,16.9785583 C7.9188357,16.8766857 7.85047167,16.6960318 7.92293755,16.4746289 L8.35636547,15.1760939 C8.40353665,15.0355099 8.41302216,14.9980717 8.32887031,14.98642 L8.21143373,14.9804987 L8.21143373,14.9804987 L7.84226799,14.9750655 L7.84226799,14.9750655 C7.66315424,14.9669157 7.53599715,14.8799845 7.4690004,14.7115553 C7.40473822,14.5472009 7.44575664,14.4045794 7.56607732,14.2836907 L8.7542441,13.1033278 L8.7542441,13.1033278 C8.80756804,13.0503541 8.86858294,13.0126613 8.93440467,12.9971257 L9.01590741,12.9894004 L9.01590741,12.9894004 Z M16.732326,6.25342001 L16.6940421,6.25342001 C15.5742394,6.25342001 14.6130412,7.06975843 14.5856956,8.33705249 C14.563614,9.35258562 15.442331,10.2761788 16.4622142,10.3729867 L16.6393509,10.3812943 C17.7906011,10.3812943 18.7176173,9.47259144 18.7326574,8.32482779 C18.7463302,7.22052974 17.8261504,6.27107791 16.732326,6.25342001 Z" id="path-6"></path>
        <filter x="-14.3%" y="-14.3%" width="128.6%" height="128.6%" filterUnits="objectBoundingBox" id="filter-7">
            <feGaussianBlur stdDeviation="1.5" in="SourceAlpha" result="shadowBlurInner1"></feGaussianBlur>
            <feOffset dx="0" dy="1" in="shadowBlurInner1" result="shadowOffsetInner1"></feOffset>
            <feComposite in="shadowOffsetInner1" in2="SourceAlpha" operator="arithmetic" k2="-1" k3="1" result="shadowInnerInner1"></feComposite>
            <feColorMatrix values="0 0 0 0 0.611764706   0 0 0 0 0.870588235   0 0 0 0 0.996078431  0 0 0 1 0" type="matrix" in="shadowInnerInner1"></feColorMatrix>
        </filter>
    </defs>
    <g id="页面-1" stroke="none" stroke-width="1" fill="none" fill-rule="evenodd">
        <g id="02升级检查" transform="translate(-680.000000, -489.000000)">
            <g id="应用窗口备份" transform="translate(590.000000, 269.000000)">
                <g id="编组-7" transform="translate(90.000000, 145.000000)">
                    <g id="升级条件检查" transform="translate(0.000000, 75.000000)">
                        <rect id="矩形备份-48" x="0" y="0" width="46" height="46"></rect>
                        <g id="编组-5" transform="translate(9.000000, 9.000000)">
                            <g id="编组">
                                <g id="形状" fill-rule="nonzero">
                                    <use fill="url(#radialGradient-1)" xlink:href="#path-3"></use>
                                    <use fill="black" fill-opacity="1" filter="url(#filter-4)" xlink:href="#path-3"></use>
                                    <use stroke="url(#linearGradient-2)" stroke-width="0.5" xlink:href="#path-3"></use>
                                </g>
                                <g transform="translate(9.000000, 5.000000)"></g>
                            </g>
                            <g id="形状" fill-rule="nonzero">
                                <use fill="url(#linearGradient-5)" xlink:href="#path-6"></use>
                                <use fill="black" fill-opacity="1" filter="url(#filter-7)" xlink:href="#path-6"></use>
                            </g>
                        </g>
                    </g>
                </g>
            </g>
        </g>
    </g>
</svg>