<svg width="240.000000" height="240.000000" viewBox="0 0 240 240" fill="none" xmlns="http://www.w3.org/2000/svg" xmlns:xlink="http://www.w3.org/1999/xlink">
	<desc>
			Created with Pixso.
	</desc>
	<defs>
		<filter id="filter_52_35_dd" x="-15.469727" y="7.419189" width="270.942383" height="247.161621" filterUnits="userSpaceOnUse" color-interpolation-filters="sRGB">
			<feFlood flood-opacity="0" result="BackgroundImageFix"/>
			<feColorMatrix in="SourceAlpha" type="matrix" values="0 0 0 0 0 0 0 0 0 0 0 0 0 0 0 0 0 0 127 0" result="hardAlpha"/>
			<feOffset dx="0" dy="11"/>
			<feGaussianBlur stdDeviation="19"/>
			<feComposite in2="hardAlpha" operator="out" k2="-1" k3="1"/>
			<feColorMatrix type="matrix" values="0 0 0 0 0 0 0 0 0 0 0 0 0 0 0 0 0 0 0.25 0"/>
			<feBlend mode="normal" in2="BackgroundImageFix" result="effect_dropShadow_1"/>
			<feBlend mode="normal" in="SourceGraphic" in2="effect_dropShadow_1" result="shape"/>
		</filter>
		<clipPath id="clip89_12">
			<rect id="Lingmo OS" rx="50.000000" width="240.000000" height="240.000000" fill="white" fill-opacity="0"/>
		</clipPath>
		<linearGradient x1="0.000008" y1="22.702682" x2="265.945953" y2="270.810791" id="paint_linear_89_13_0" gradientUnits="userSpaceOnUse">
			<stop stop-color="#43B9FF"/>
			<stop offset="1.000000" stop-color="#286FFE"/>
		</linearGradient>
		<linearGradient x1="169.613098" y1="186.580704" x2="65.531868" y2="62.272602" id="paint_linear_52_35_0" gradientUnits="userSpaceOnUse">
			<stop stop-color="#2779FF"/>
			<stop offset="1.000000" stop-color="#2779FF" stop-opacity="0.200000"/>
		</linearGradient>
	</defs>
	<rect id="Lingmo OS" rx="50.000000" width="240.000000" height="240.000000" fill="#FFFFFF" fill-opacity="0"/>
	<g clip-path="url(#clip89_12)">
		<rect id="矩形 36" rx="50.000000" width="240.000000" height="240.000000" fill="url(#paint_linear_89_13_0)" fill-opacity="1.000000"/>
		<g filter="url(#filter_52_35_dd)">
			<path id="矢量 30" d="M117.94 59.08C91.71 45.69 59.96 56.84 47.01 84C34.06 111.15 44.82 144.03 71.04 157.42C84.16 164.12 98.65 164.68 111.49 160.17C117.21 158.21 126.56 152.79 137.03 146.34C141.44 166.76 156.07 181.15 166.69 186.58L173.17 172.99C167.23 169.96 153.5 156.62 152.18 144.34C151.93 142.03 151.68 139.69 151.43 137.35C153.38 136.12 155.32 134.9 157.25 133.7C167.47 127.32 186.05 130.49 191.99 133.53L198.47 119.94C187.85 114.51 167.91 111.25 149.57 120.04C148.15 107.51 146.62 96.54 144.64 90.64C140.29 77.35 131.05 65.78 117.94 59.08ZM135.36 129.13C139.93 126.23 144.73 123.14 149.57 120.04C150.2 125.61 150.81 131.48 151.43 137.35C146.56 140.41 141.68 143.48 137.03 146.34C136.47 140.48 135.92 134.66 135.36 129.13ZM135.36 129.13C122.49 137.3 111.44 143.97 106.57 145.14C97.45 148.35 87.15 147.95 77.83 143.19C59.2 133.67 51.55 110.31 60.75 91.02C69.95 71.72 92.52 63.8 111.15 73.32C120.46 78.08 127.03 86.3 130.12 95.74C132.19 100.45 133.79 113.59 135.36 129.13Z" fill="#FFFFFF" fill-opacity="1.000000" fill-rule="evenodd"/>
			<path id="矢量 30" d="M117.94 59.08C91.71 45.69 59.96 56.84 47.01 84C34.06 111.15 44.82 144.03 71.04 157.42C84.16 164.12 98.65 164.68 111.49 160.17C117.21 158.21 126.56 152.79 137.03 146.34C141.44 166.76 156.07 181.15 166.69 186.58L173.17 172.99C167.23 169.96 153.5 156.62 152.18 144.34C151.93 142.03 151.68 139.69 151.43 137.35C153.38 136.12 155.32 134.9 157.25 133.7C167.47 127.32 186.05 130.49 191.99 133.53L198.47 119.94C187.85 114.51 167.91 111.25 149.57 120.04C148.15 107.51 146.62 96.54 144.64 90.64C140.29 77.35 131.05 65.78 117.94 59.08ZM135.36 129.13C139.93 126.23 144.73 123.14 149.57 120.04C150.2 125.61 150.81 131.48 151.43 137.35C146.56 140.41 141.68 143.48 137.03 146.34C136.47 140.48 135.92 134.66 135.36 129.13ZM135.36 129.13C122.49 137.3 111.44 143.97 106.57 145.14C97.45 148.35 87.15 147.95 77.83 143.19C59.2 133.67 51.55 110.31 60.75 91.02C69.95 71.72 92.52 63.8 111.15 73.32C120.46 78.08 127.03 86.3 130.12 95.74C132.19 100.45 133.79 113.59 135.36 129.13Z" fill="url(#paint_linear_52_35_0)" fill-opacity="0.500000" fill-rule="evenodd"/>
		</g>
	</g>
</svg>
