<?xml version="1.0" encoding="utf-8"?>
<!-- Generator: Adobe Illustrator 24.2.1, SVG Export Plug-In . SVG Version: 6.00 Build 0)  -->
<svg version="1.1" id="选中" xmlns="http://www.w3.org/2000/svg" xmlns:xlink="http://www.w3.org/1999/xlink" x="0px" y="0px"
	 width="254px" height="64px" viewBox="0 0 254 64" style="enable-background:new 0 0 254 64;" xml:space="preserve">
<style type="text/css">
	.st0{fill:#FD625E;}
	.st1{fill:none;stroke:#FFFFFF;stroke-width:3;stroke-linecap:round;}
	.st2{fill:#FFFFFF;}
</style>
<path id="椭圆_1954" class="st0" d="M32,0c17.7,0,32,14.3,32,32S49.7,64,32,64S0,49.7,0,32S14.3,0,32,0z"/>
<g id="组_49" transform="translate(1214.5 921.5)">
	<line id="直线_1" class="st1" x1="-1198.5" y1="-904.5" x2="-1166.5" y2="-874.5"/>
	<line id="直线_2" class="st1" x1="-1166.5" y1="-904.5" x2="-1198.5" y2="-874.5"/>
</g>
<g>
	<path class="st2" d="M111.5,32.6c-1.3,3.6-3.2,6.5-5.5,8.9c4.9,2.1,9.5,4.3,12.7,6.3l-3.2,3.3c-3-2-7.7-4.4-12.9-6.7
		c-4.5,3.3-10.1,5.4-17,6.7c-0.4-1-1.6-2.7-2.4-3.6c6-1,11.1-2.5,15.1-5c-3.6-1.4-7.3-2.8-10.6-3.9l0,0c1.3-1.7,2.8-3.8,4.2-6.1
		h-9.2v-3.7h11.4c1.2-2.2,2.3-4.5,3.1-6.6l4.3,0.9c-0.8,1.8-1.7,3.8-2.7,5.7h20.3v3.7H111.5z M87.8,26.1h-3.9v-8.8h15
		c-0.5-1.2-1.2-2.6-1.8-3.8l4-1c0.8,1.5,1.8,3.4,2.4,4.8h14.8v8.8h-4.2V21H87.8V26.1z M96.8,32.6c-1,1.6-1.9,3.1-2.8,4.5
		c2.6,0.8,5.3,1.8,8,2.9c2.1-2,3.8-4.4,5-7.4H96.8z"/>
	<path class="st2" d="M161.9,40.1c-2.1,1.4-4.8,2.9-7.1,4c2.6,1.7,5.9,2.9,9.7,3.7c-0.8,0.8-1.8,2.2-2.2,3.2
		c-8.4-1.9-14.1-6.3-17.4-13.1c-1.7,1.6-3.8,3-6.2,4.2v4.7l9.7-2c-0.2,0.9-0.3,2.4-0.3,3.2c-11.8,2.6-13.4,3-14.3,3.5
		c-0.2-0.9-0.8-2.4-1.3-3.1c0.9-0.3,2.3-1,2.3-2.7v-1.9c-2.3,1-4.7,1.6-7,2.2c-0.5-0.8-1.5-2.1-2.2-2.9c5.1-0.9,10.5-2.9,14.3-5.3
		h-13.6v-3.2h16.9c-0.3-0.8-0.8-1.7-1.1-2.4l3.8-1.1c0.6,1,1.3,2.3,1.7,3.4h16.1v3.2h-15.3c1,1.7,2.2,3.2,3.7,4.5
		c2.4-1.3,5.1-2.9,6.8-4.2L161.9,40.1z M135.2,26.7c-2.9,1.3-5.8,2.6-8.2,3.7l-1.3-3.2c2.4-0.9,6-2.4,9.5-4V12.7h3.6v19.7h-3.6V26.7
		z M131.9,21.5c-1-1.3-3.3-3.2-5.1-4.5l2.3-2.2c1.8,1.2,4.2,2.9,5.2,4.2L131.9,21.5z M150,21.4h-9.5V18h9.5v-5.3h3.9V18h9.5v3.4
		h-9.5v5.9h8.7v3.4h-20.9v-3.4h8.3V21.4z"/>
	<path class="st2" d="M192.6,35.1c2.9,6.4,8.2,10.7,16.4,12.5c-0.8,0.9-2.1,2.6-2.6,3.7c-8.4-2.2-13.7-6.9-17.1-14.1
		c-2.1,5.7-6.9,10.8-16.9,14.1c-0.5-0.9-1.6-2.6-2.5-3.4c9.5-3.1,13.8-7.7,15.7-12.7h-15v-3.9h16c0.3-1.8,0.4-3.7,0.4-5.5v-2.1h-8.8
		c-1.2,2.4-2.5,4.4-3.8,6c-0.8-0.6-2.7-1.6-3.7-2.1c3.1-3.4,5.6-8.9,7.1-14.4l4.1,0.9c-0.5,1.9-1.2,3.8-1.9,5.6h7.1v-7h4.1v7h13.3
		v3.9h-13.3v2.1c0,1.8-0.1,3.6-0.3,5.4h17.1v3.9H192.6z"/>
	<path class="st2" d="M225.4,32c0,6.3-1.1,14.3-9,19.2c-0.5-0.7-1.6-2-2.4-2.6c7.4-4.2,8-11.4,8-16.7V20.7h3.4V32z M219.2,40.1H216
		V14.7h15.4v25.2h-3.3V18.2h-8.9V40.1z M227.2,41c1.8,2.2,4,5.4,5.1,7.2l-2.9,2c-1-1.9-3.2-5.2-4.9-7.6L227.2,41z M249.3,23.5
		c-0.8,7.4-2.5,13.2-4.9,17.7c2.3,3,5.1,5.5,8.4,7c-0.8,0.7-1.9,2-2.5,2.9c-3.1-1.7-5.7-4-7.9-6.8c-2.1,2.9-4.7,5.1-7.6,6.8
		c-0.4-0.9-1.6-2.2-2.4-2.8c3.2-1.6,5.8-3.8,7.9-6.9c-2-3.1-3.7-6.6-4.9-10.6c-0.5,0.8-0.9,1.5-1.4,2.1c-0.4-0.8-1.6-2.4-2.3-3.3
		c3-4,5.2-10.3,6.5-16.7l3.5,0.8c-0.5,2.1-1,4.2-1.6,6.2H252v3.5H249.3z M238.8,23.5c-0.4,1.1-0.8,2.2-1.3,3.2
		c1.1,4.1,2.6,8.1,4.7,11.4c1.8-3.8,3.1-8.7,3.7-14.6H238.8z"/>
</g>
</svg>
