<svg id="图层_1" data-name="图层 1" xmlns="http://www.w3.org/2000/svg" viewBox="0 0 48 48"><path d="M26,32H15V16H26v4h2V15.88A1.88,1.88,0,0,0,26.12,14H14.88A1.88,1.88,0,0,0,13,15.88V32.12A1.88,1.88,0,0,0,14.88,34H26.12A1.88,1.88,0,0,0,28,32.12V28H26Z" fill="#fff"/><polygon points="30 24.17 30.17 24 30 23.83 30 24.17" fill="#fff"/><polygon points="31.59 22.59 31.59 22.59 33 24 31.59 22.59" fill="#fff"/><polygon points="32.11 22.11 30 20 30 23 20 23 20 25 30 25 30 28 32.11 25.89 34 24 32.11 22.11" fill="#fff"/></svg>