<?xml version="1.0" encoding="utf-8"?>
<!-- Generator: Adobe Illustrator 24.2.1, SVG Export Plug-In . SVG Version: 6.00 Build 0)  -->
<svg version="1.1" id="图层_1" xmlns="http://www.w3.org/2000/svg" xmlns:xlink="http://www.w3.org/1999/xlink" x="0px" y="0px"
	 width="32px" height="32px" viewBox="0 0 32 32" style="enable-background:new 0 0 32 32;" xml:space="preserve">
<style type="text/css">
	.st0{fill:#FFFFFF;}
	.st1{fill:#F0A013;}
</style>
<ellipse id="椭圆_2" class="st0" cx="16" cy="16" rx="7" ry="12"/>
<path class="st1" d="M16,0c4.2,0,8.3,1.7,11.3,4.7c3,3,4.7,7.1,4.7,11.3c0,4.2-1.7,8.3-4.7,11.3c-3,3-7.1,4.7-11.3,4.7
	c-4.2,0-8.3-1.7-11.3-4.7C1.7,24.3,0,20.2,0,16c0-4.2,1.7-8.3,4.7-11.3C7.7,1.7,11.8,0,16,0z M16,6.9c-0.6,0-1.2,0.2-1.5,0.7
	c-0.4,0.4-0.6,1-0.5,1.6l0.8,9.1c0,0.3,0.2,0.6,0.4,0.8c0.2,0.2,0.5,0.3,0.8,0.3c0.3,0,0.6-0.1,0.8-0.3c0.2-0.2,0.4-0.5,0.4-0.8
	l0.8-9.1c0.1-0.6-0.1-1.2-0.5-1.6C17.1,7.1,16.6,6.8,16,6.9z M16,25.1c0.5,0,0.9-0.2,1.3-0.5c0.3-0.3,0.5-0.8,0.5-1.3
	c0-0.5-0.2-1-0.5-1.3c-0.3-0.3-0.8-0.5-1.3-0.5c-0.5,0-1,0.2-1.3,0.5c-0.3,0.3-0.5,0.8-0.5,1.3c0,0.5,0.2,0.9,0.5,1.3
	C15.1,24.9,15.5,25.1,16,25.1z"/>
</svg>
