<svg id="安装程序" xmlns="http://www.w3.org/2000/svg" xmlns:xlink="http://www.w3.org/1999/xlink" viewBox="0 0 48 48"><defs><style>.cls-1{fill:url(#未命名的渐变_26);}.cls-2,.cls-3{fill:#f9f9f9;}.cls-2{fill-rule:evenodd;}</style><linearGradient id="未命名的渐变_26" x1="34.5" y1="42.19" x2="13.5" y2="5.81" gradientUnits="userSpaceOnUse"><stop offset="0" stop-color="#dd4814"/><stop offset="1" stop-color="#dd7514"/></linearGradient></defs><g id="_48" data-name="48"><circle class="cls-1" cx="24" cy="24" r="21"/><polygon class="cls-2" points="22.93 22.07 24.03 20.59 23.62 19.01 24.34 16.91 22.66 18.63 22.42 18.56 22.86 17.49 21.28 19.08 19.77 20.01 18.18 22.97 19.04 25.17 19.35 26.86 19.7 27.72 18.46 29.2 20.18 29.2 20.42 27.65 21.11 26.58 22.24 26.79 23.52 26.27 24.48 25.79 25.41 26.41 24.31 27.72 23.17 28.75 24.93 28.79 24.93 28.1 26.31 27.03 26.79 27.61 25.38 29.65 27.17 29.65 27.1 28.65 28.41 27.44 27.75 26.1 27.65 24.48 28.99 23.73 29.71 23.86 30.75 23.52 31.02 21.45 29.47 21.93 28.51 23.35 26.86 24.21 24.59 23.28 22.93 22.07"/><circle class="cls-3" cx="32" cy="11" r="3"/><circle class="cls-3" cx="9" cy="24" r="3"/><circle class="cls-3" cx="32" cy="37" r="3"/><path class="cls-3" d="M32.94,25a9,9,0,0,1-12.56,7.23l-2.8,4.2A13.91,13.91,0,0,0,28,37.4c0-.13,0-.26,0-.4a4,4,0,0,1,6.14-3.37A13.93,13.93,0,0,0,38,25Z"/><path class="cls-3" d="M20.38,15.77A9,9,0,0,1,32.94,23h5a13.93,13.93,0,0,0-3.81-8.63A4,4,0,0,1,28,11c0-.14,0-.27,0-.4a13.91,13.91,0,0,0-10.46,1Z"/><path class="cls-3" d="M18.65,31.22a9,9,0,0,1,0-14.44l-2.77-4.16a14,14,0,0,0-5.37,7.68,4,4,0,0,1,0,7.4,14,14,0,0,0,5.37,7.68Z"/></g></svg>