<svg xmlns="http://www.w3.org/2000/svg" xmlns:xlink="http://www.w3.org/1999/xlink" width="24" height="24" viewBox="0 0 24 24">
  <defs>
    <filter id="emblem-readonly-a" width="144.4%" height="144.4%" x="-22.2%" y="-22.2%" filterUnits="objectBoundingBox">
      <feOffset dy="1" in="SourceAlpha" result="shadowOffsetOuter1"/>
      <feGaussianBlur in="shadowOffsetOuter1" result="shadowBlurOuter1" stdDeviation=".5"/>
      <feColorMatrix in="shadowBlurOuter1" result="shadowMatrixOuter1" values="0 0 0 0 0   0 0 0 0 0   0 0 0 0 0  0 0 0 0.15 0"/>
      <feMerge>
        <feMergeNode in="shadowMatrixOuter1"/>
        <feMergeNode in="SourceGraphic"/>
      </feMerge>
    </filter>
    <path id="emblem-readonly-b" d="M7,5 C7,3.897 7.897,3 9,3 C10.103,3 11,3.897 11,5 L11,7 L7,7 L7,5 Z M12,7 L12,5 C12,3.346 10.654,2 9,2 C7.346,2 6,3.346 6,5 L6,7 L4.5,7 C4.5,7 4,7 4,7.5 L4,13.5 C4,13.5 4,14 4.5,14 L13.5,14 C14,14 14,13.5 14,13.5 L14,7.5 C14,7 13.5,7 13.5,7 L12,7 Z"/>
    <filter id="emblem-readonly-c" width="120%" height="116.7%" x="-10%" y="-8.3%" filterUnits="objectBoundingBox">
      <feGaussianBlur in="SourceAlpha" result="shadowBlurInner1" stdDeviation=".5"/>
      <feOffset dy="1" in="shadowBlurInner1" result="shadowOffsetInner1"/>
      <feComposite in="shadowOffsetInner1" in2="SourceAlpha" k2="-1" k3="1" operator="arithmetic" result="shadowInnerInner1"/>
      <feColorMatrix in="shadowInnerInner1" values="0 0 0 0 1   0 0 0 0 1   0 0 0 0 1  0 0 0 0.5 0"/>
    </filter>
  </defs>
  <g fill="none" filter="url(#emblem-readonly-a)" transform="translate(3 3)">
    <circle cx="9" cy="9" r="9" fill="#FFF"/>
    <use fill="#FFA200" xlink:href="#emblem-readonly-b"/>
    <use fill="#000" filter="url(#emblem-readonly-c)" xlink:href="#emblem-readonly-b"/>
  </g>
</svg>
