<?xml version="1.0" encoding="UTF-8"?>
<svg width="16px" height="14px" viewBox="0 0 16 14" version="1.1" xmlns="http://www.w3.org/2000/svg" xmlns:xlink="http://www.w3.org/1999/xlink">
    <title>日历</title>
    <g id="控件" stroke="none" stroke-width="1" fill="none" fill-rule="evenodd">
        <g id="顶部导航栏" transform="translate(-62.000000, -18.000000)" fill="#626E88">
            <g id="编组-4备份" transform="translate(52.000000, 7.000000)">
                <g id="日历" transform="translate(10.000000, 11.000000)">
                    <path d="M15,1 C15.5522847,1 16,1.44771525 16,2 L16,13 C16,13.5522847 15.5522847,14 15,14 L1,14 C0.44771525,14 6.76353751e-17,13.5522847 0,13 L0,2 C-6.76353751e-17,1.44771525 0.44771525,1 1,1 L15,1 Z M15,6 L1,6 L1,13 L15,13 L15,6 Z M15,2 L1,2 L1,5 L15,5 L15,2 Z" id="形状结合"></path>
                    <rect id="矩形" x="4" y="0" width="1" height="4" rx="0.5"></rect>
                    <rect id="矩形备份" x="11" y="0" width="1" height="4" rx="0.5"></rect>
                    <rect id="矩形备份-2" transform="translate(8.000000, 9.500000) rotate(90.000000) translate(-8.000000, -9.500000) " x="7.5" y="5.5" width="1" height="8" rx="0.5"></rect>
                </g>
            </g>
        </g>
    </g>
</svg>