<?xml version="1.0" encoding="UTF-8"?>
<svg width="16px" height="16px" viewBox="0 0 16 16" version="1.1" xmlns="http://www.w3.org/2000/svg" xmlns:xlink="http://www.w3.org/1999/xlink">
    <title>osd-balanced-mode</title>
    <g id="osd-balanced-mode" stroke="none" stroke-width="1" fill="none" fill-rule="evenodd">
        <path d="M10.5,0.5 C10.7761424,0.5 11,0.723857625 11,1 L11,2.001 C11.9634376,2.01592361 12.3408102,2.1305576 12.7210571,2.33391588 C13.1284645,2.55179975 13.4482003,2.87153546 13.6660841,3.27894287 C13.883968,3.68635028 14,4.09045808 14,5.2048565 L14,6 L15,6 C15.2761424,6 15.5,6.22385763 15.5,6.5 C15.5,6.77614237 15.2761424,7 15,7 L14,7 L14,8 L15,8 C15.2761424,8 15.5,8.22385763 15.5,8.5 C15.5,8.77614237 15.2761424,9 15,9 L14,9 L14,10 L15,10 C15.2761424,10 15.5,10.2238576 15.5,10.5 C15.5,10.7761424 15.2761424,11 15,11 L13.998,11 C13.9840764,11.9634376 13.8694424,12.3408102 13.6660841,12.7210571 C13.4482003,13.1284645 13.1284645,13.4482003 12.7210571,13.6660841 L12.5431633,13.7538175 C12.209592,13.9028948 11.8136675,13.9868262 11.0010681,13.9985707 L11,15 C11,15.2761424 10.7761424,15.5 10.5,15.5 C10.2238576,15.5 10,15.2761424 10,15 L10,14 L9,14 L9,15 C9,15.2761424 8.77614237,15.5 8.5,15.5 C8.22385763,15.5 8,15.2761424 8,15 L8,14 L7,14 L7,15 C7,15.2761424 6.77614237,15.5 6.5,15.5 C6.22385763,15.5 6,15.2761424 6,15 L6,14 L5.2048565,14 C4.09045808,14 3.68635028,13.883968 3.27894287,13.6660841 C2.87153546,13.4482003 2.55179975,13.1284645 2.33391588,12.7210571 L2.24618253,12.5431633 C2.0971052,12.209592 2.01317381,11.8136675 2.00142932,11.0010681 L1,11 C0.723857625,11 0.5,10.7761424 0.5,10.5 C0.5,10.2238576 0.723857625,10 1,10 L2,10 L2,9 L1,9 C0.723857625,9 0.5,8.77614237 0.5,8.5 C0.5,8.22385763 0.723857625,8 1,8 L2,8 L2,7 L1,7 C0.723857625,7 0.5,6.77614237 0.5,6.5 C0.5,6.22385763 0.723857625,6 1,6 L2,6 L2,5.2048565 C2,4.09045808 2.11603201,3.68635028 2.33391588,3.27894287 C2.55179975,2.87153546 2.87153546,2.55179975 3.27894287,2.33391588 C3.65918978,2.1305576 4.03656237,2.01592361 4.99123592,2.00154289 L6,2 L6,1 C6,0.723857625 6.22385763,0.5 6.5,0.5 C6.77614237,0.5 7,0.723857625 7,1 L7,2 L8,2 L8,1 C8,0.723857625 8.22385763,0.5 8.5,0.5 C8.77614237,0.5 9,0.723857625 9,1 L9,2 L10,2 L10,1 C10,0.723857625 10.2238576,0.5 10.5,0.5 Z M10.9848449,3.00101878 L5.2048565,3 C4.33980043,3 4.04887034,3.05618119 3.75054173,3.21572908 C3.5174028,3.34041314 3.34041314,3.5174028 3.21572908,3.75054173 C3.06845411,4.02592198 3.0092549,4.29499817 3.00101878,5.01515507 L3,10.7951435 C3,11.6601996 3.05618119,11.9511297 3.21572908,12.2494583 C3.34041314,12.4825972 3.5174028,12.6595869 3.75054173,12.7842709 C4.04887034,12.9438188 4.33980043,13 5.2048565,13 L10.7951435,13 L11.1557513,12.995839 C11.7498916,12.9802669 11.9970264,12.919273 12.2494583,12.7842709 C12.4825972,12.6595869 12.6595869,12.4825972 12.7842709,12.2494583 C12.9438188,11.9511297 13,11.6601996 13,10.7951435 L13,5.2048565 L12.995839,4.84424867 C12.9802669,4.25010836 12.919273,4.00297363 12.7842709,3.75054173 C12.6595869,3.5174028 12.4825972,3.34041314 12.2494583,3.21572908 C11.974078,3.06845411 11.7050018,3.0092549 10.9848449,3.00101878 Z M8,6 L8.51871855,10.1448841 C8.80726626,10.3202942 9,10.6376394 9,11 C9,11.5522847 8.55228475,12 8,12 C7.44771525,12 7,11.5522847 7,11 C7,10.6372327 7.19316661,10.3195819 7.48225335,10.144294 L8,6 Z M7.11366668,5.03034409 L6.98726961,6.04247882 C6.46273061,6.08553362 5.94220348,6.16125699 5.42748376,6.26937346 L5.193,6.322 L5.531,7.776 L5.72423846,7.73371157 C6.07873796,7.66293648 6.43623056,7.60864707 6.79602545,7.57094687 L6.66850032,8.5923358 C6.13745594,8.65969366 5.61267453,8.7667087 5.09664985,8.91286981 L4.78903501,9 L4,5.6031243 L4.30761484,5.51599411 C5.22480378,5.25620546 6.16333097,5.09372506 7.11366668,5.03034409 Z M8.88687596,5.02700364 C9.8366978,5.08674183 10.7749353,5.24541866 11.6920996,5.50126924 L12,5.58716062 L11.2221835,8.98718983 L10.914283,8.90129846 C10.3945676,8.75631952 9.86607082,8.65099384 9.33132802,8.58583661 L9.20403868,7.56561196 C9.57033718,7.60234316 9.93429273,7.65625358 10.2951789,7.72723596 L10.475,7.766 L10.808,6.311 L10.587672,6.26167214 C10.06786,6.15410873 9.54218761,6.07955584 9.0124978,6.03829288 L8.88687596,5.02700364 Z" id="形状" fill="#FFFFFF" fill-rule="nonzero"></path>
    </g>
</svg>