<?xml version="1.0" encoding="UTF-8"?>
<svg width="16px" height="16px" viewBox="0 0 16 16" version="1.1" xmlns="http://www.w3.org/2000/svg" xmlns:xlink="http://www.w3.org/1999/xlink">
    <title>osd-efficient-mode</title>
    <g id="osd-efficient-mode" stroke="none" stroke-width="1" fill="none" fill-rule="evenodd">
        <path d="M10.5,0.5 C10.7761424,0.5 11,0.723857625 11,1 L11,2.001 C11.9634376,2.01592361 12.3408102,2.1305576 12.7210571,2.33391588 C13.1284645,2.55179975 13.4482003,2.87153546 13.6660841,3.27894287 C13.883968,3.68635028 14,4.09045808 14,5.2048565 L14,6 L15,6 C15.2761424,6 15.5,6.22385763 15.5,6.5 C15.5,6.77614237 15.2761424,7 15,7 L14,7 L14,8 L15,8 C15.2761424,8 15.5,8.22385763 15.5,8.5 C15.5,8.77614237 15.2761424,9 15,9 L14,9 L14,10 L15,10 C15.2761424,10 15.5,10.2238576 15.5,10.5 C15.5,10.7761424 15.2761424,11 15,11 L13.998,11 C13.9840764,11.9634376 13.8694424,12.3408102 13.6660841,12.7210571 C13.4482003,13.1284645 13.1284645,13.4482003 12.7210571,13.6660841 L12.5431633,13.7538175 C12.209592,13.9028948 11.8136675,13.9868262 11.0010681,13.9985707 L11,15 C11,15.2761424 10.7761424,15.5 10.5,15.5 C10.2238576,15.5 10,15.2761424 10,15 L10,14 L9,14 L9,15 C9,15.2761424 8.77614237,15.5 8.5,15.5 C8.22385763,15.5 8,15.2761424 8,15 L8,14 L7,14 L7,15 C7,15.2761424 6.77614237,15.5 6.5,15.5 C6.22385763,15.5 6,15.2761424 6,15 L6,14 L5.2048565,14 C4.09045808,14 3.68635028,13.883968 3.27894287,13.6660841 C2.87153546,13.4482003 2.55179975,13.1284645 2.33391588,12.7210571 L2.24618253,12.5431633 C2.0971052,12.209592 2.01317381,11.8136675 2.00142932,11.0010681 L1,11 C0.723857625,11 0.5,10.7761424 0.5,10.5 C0.5,10.2238576 0.723857625,10 1,10 L2,10 L2,9 L1,9 C0.723857625,9 0.5,8.77614237 0.5,8.5 C0.5,8.22385763 0.723857625,8 1,8 L2,8 L2,7 L1,7 C0.723857625,7 0.5,6.77614237 0.5,6.5 C0.5,6.22385763 0.723857625,6 1,6 L2,6 L2,5.2048565 C2,4.09045808 2.11603201,3.68635028 2.33391588,3.27894287 C2.55179975,2.87153546 2.87153546,2.55179975 3.27894287,2.33391588 C3.65918978,2.1305576 4.03656237,2.01592361 4.99123592,2.00154289 L6,2 L6,1 C6,0.723857625 6.22385763,0.5 6.5,0.5 C6.77614237,0.5 7,0.723857625 7,1 L7,2 L8,2 L8,1 C8,0.723857625 8.22385763,0.5 8.5,0.5 C8.77614237,0.5 9,0.723857625 9,1 L9,2 L10,2 L10,1 C10,0.723857625 10.2238576,0.5 10.5,0.5 Z M10.9848449,3.00101878 L5.2048565,3 C4.33980043,3 4.04887034,3.05618119 3.75054173,3.21572908 C3.5174028,3.34041314 3.34041314,3.5174028 3.21572908,3.75054173 C3.06845411,4.02592198 3.0092549,4.29499817 3.00101878,5.01515507 L3,10.7951435 C3,11.6601996 3.05618119,11.9511297 3.21572908,12.2494583 C3.34041314,12.4825972 3.5174028,12.6595869 3.75054173,12.7842709 C4.04887034,12.9438188 4.33980043,13 5.2048565,13 L10.7951435,13 L11.1557513,12.995839 C11.7498916,12.9802669 11.9970264,12.919273 12.2494583,12.7842709 C12.4825972,12.6595869 12.6595869,12.4825972 12.7842709,12.2494583 C12.9438188,11.9511297 13,11.6601996 13,10.7951435 L13,5.2048565 L12.995839,4.84424867 C12.9802669,4.25010836 12.919273,4.00297363 12.7842709,3.75054173 C12.6595869,3.5174028 12.4825972,3.34041314 12.2494583,3.21572908 C11.974078,3.06845411 11.7050018,3.0092549 10.9848449,3.00101878 Z M8,3.86484107 L8,7 L10.8762596,7 L8,12.6288913 L8,9 L4.72344534,9 L8,3.86484107 Z" id="形状" fill="#FFFFFF" fill-rule="nonzero"></path>
    </g>
</svg>