<?xml version="1.0" encoding="UTF-8"?>
<svg width="52px" height="53px" viewBox="0 0 52 53" version="1.1" xmlns="http://www.w3.org/2000/svg" xmlns:xlink="http://www.w3.org/1999/xlink">
    <title>电脑-已连接</title>
    <defs>
        <filter x="-13.5%" y="-8.5%" width="127.0%" height="121.3%" filterUnits="objectBoundingBox" id="filter-1">
            <feOffset dx="0" dy="1" in="SourceAlpha" result="shadowOffsetOuter1"></feOffset>
            <feGaussianBlur stdDeviation="1.5" in="shadowOffsetOuter1" result="shadowBlurOuter1"></feGaussianBlur>
            <feColorMatrix values="0 0 0 0 0   0 0 0 0 0   0 0 0 0 0  0 0 0 0.15 0" type="matrix" in="shadowBlurOuter1" result="shadowMatrixOuter1"></feColorMatrix>
            <feMerge>
                <feMergeNode in="shadowMatrixOuter1"></feMergeNode>
                <feMergeNode in="SourceGraphic"></feMergeNode>
            </feMerge>
        </filter>
        <linearGradient x1="33.3235134%" y1="0%" x2="67.4701328%" y2="100%" id="linearGradient-2">
            <stop stop-color="#7089DF" offset="0%"></stop>
            <stop stop-color="#73A3DF" offset="100%"></stop>
        </linearGradient>
        <linearGradient x1="48.4294293%" y1="0%" x2="91.2370695%" y2="100%" id="linearGradient-3">
            <stop stop-color="#FFFFFF" stop-opacity="0.333835842" offset="0%"></stop>
            <stop stop-color="#FFFFFF" stop-opacity="0" offset="100%"></stop>
        </linearGradient>
        <filter x="0.0%" y="0.0%" width="100.0%" height="100.0%" filterUnits="objectBoundingBox" id="filter-4">
            <feGaussianBlur stdDeviation="0" in="SourceGraphic"></feGaussianBlur>
        </filter>
    </defs>
    <g id="v25演示版本" stroke="none" stroke-width="1" fill="none" fill-rule="evenodd">
        <g id="跨端协同-扫码连接" transform="translate(-1312, -304)">
            <g id="编组" transform="translate(1292, 225)">
                <g id="正在协同设备" transform="translate(10, 60)">
                    <g id="电脑-已连接" transform="translate(10, 19)">
                        <g id="编组-2">
                            <rect id="矩形" x="0" y="0" width="52" height="52"></rect>
                            <g id="编组" filter="url(#filter-1)" transform="translate(10, 2)">
                                <path d="M3.39130435,0 L28.6086957,0 C30.4816613,-3.44058212e-16 32,1.51833867 32,3.39130435 L32,43.6086957 C32,45.4816613 30.4816613,47 28.6086957,47 L3.39130435,47 C1.51833867,47 4.38819137e-15,45.4816613 0,43.6086957 L0,3.39130435 C-2.29372142e-16,1.51833867 1.51833867,2.29372142e-16 3.39130435,0 Z" id="蒙版" fill="#D7E7FF"></path>
                                <path d="M27.7391304,2.2826087 C28.2854121,2.2826087 28.7799773,2.50403309 29.1379721,2.86202789 C29.4959669,3.22002269 29.7173913,3.71458791 29.7173913,4.26086957 L29.7173913,36.7391304 C29.7173913,37.2854121 29.4959669,37.7799773 29.1379721,38.1379721 C28.7799773,38.4959669 28.2854121,38.7173913 27.7391304,38.7173913 L4.26086957,38.7173913 C3.71458791,38.7173913 3.22002269,38.4959669 2.86202789,38.1379721 C2.50403309,37.7799773 2.2826087,37.2854121 2.2826087,36.7391304 L2.2826087,4.26086957 C2.2826087,3.71458791 2.50403309,3.22002269 2.86202789,2.86202789 C3.22002269,2.50403309 3.71458791,2.2826087 4.26086957,2.2826087 Z" id="蒙版" stroke-opacity="0.9" stroke="#FFFFFF" stroke-width="0.565217391" fill="url(#linearGradient-2)"></path>
                                <g id="编组-3" transform="translate(23, 33)">
                                    <rect id="Rectangle-9" fill="#53DD00" x="0" y="0" width="14" height="14" rx="7"></rect>
                                    <path d="M7,0 C10.8659932,0 14,3.13400675 14,7 C14,10.8659932 10.8659932,14 7,14 C3.13400675,14 0,10.8659932 0,7 C0,3.13400675 3.13400675,0 7,0 Z M7,1 C3.6862915,1 1,3.6862915 1,7 C1,10.3137085 3.6862915,13 7,13 C10.3137085,13 13,10.3137085 13,7 C13,3.6862915 10.3137085,1 7,1 Z" id="Rectangle-9" fill="#FFFFFF" fill-rule="nonzero"></path>
                                    <path d="M4.85102026,7.09629709 C4.96550631,7.21042697 4.97822699,7.38758904 4.88918227,7.51572608 L4.85102026,7.56126056 L3.99065973,8.41894444 C3.54925974,8.8589712 3.54925974,9.57239553 3.99065973,10.0124223 C4.40882814,10.4292897 5.07313853,10.4512301 5.51721662,10.0782435 L5.58911048,10.0124223 L6.43698787,9.1671827 C6.56578468,9.03878659 6.77460558,9.03878659 6.90340239,9.1671827 C7.01788845,9.28131259 7.03060912,9.45847466 6.94156441,9.58661169 L6.90340239,9.63214617 L6.055525,10.4773858 C5.35653138,11.1742047 4.22323882,11.1742047 3.52424521,10.4773858 C2.85114025,9.80637488 2.82621044,8.7338925 3.44945577,8.03314299 L3.52424521,7.95398097 L4.38460574,7.09629709 C4.51340255,6.96790097 4.72222344,6.96790097 4.85102026,7.09629709 Z M7.89905764,6.10094236 C8.03364745,6.23553217 8.03364745,6.45374536 7.89905764,6.58833517 L6.58833517,7.89905764 C6.45374536,8.03364745 6.23553217,8.03364745 6.10094236,7.89905764 C5.96635255,7.76446783 5.96635255,7.54625464 6.10094236,7.41166483 L7.41166483,6.10094236 C7.54625464,5.96635255 7.76446783,5.96635255 7.89905764,6.10094236 Z M10.4773858,3.52261424 C11.1483966,4.19362512 11.1732489,5.2661075 10.5519425,5.96685701 L10.4773858,6.04601903 L9.61970187,6.90370291 C9.49130576,7.03209903 9.28313452,7.03209903 9.15473841,6.90370291 C9.04060852,6.78957303 9.02792743,6.61241096 9.11669511,6.48427392 L9.15473841,6.43873944 L10.0124223,5.58105556 C10.452449,5.1410288 10.452449,4.42760447 10.0124223,3.98757771 C9.59555483,3.57071026 8.93331116,3.54876986 8.49061463,3.92175653 L8.41894444,3.98757771 L7.56126056,4.84526159 C7.43286444,4.97365771 7.2246932,4.97365771 7.09629709,4.84526159 C6.98216721,4.73113171 6.96948611,4.55396964 7.05825379,4.4258326 L7.09629709,4.38029813 L7.95398097,3.52261424 C8.65079996,2.82579525 9.78056677,2.82579525 10.4773858,3.52261424 Z" id="形状" fill="#FFFFFF" fill-rule="nonzero"></path>
                                </g>
                                <path d="M25.7391304,4 C26.9357474,3.9999838 27.91525,4.9296015 27.9948126,6.10604601 L28.0000306,6.26086957 L28,28 L19.511,28 L4,4 L25.7391304,4 Z" id="形状结合" fill="url(#linearGradient-3)" filter="url(#filter-4)"></path>
                            </g>
                        </g>
                        <rect id="矩形" stroke-opacity="0.05" stroke="#000000" stroke-width="1.13043478" fill="#9ABCDF" x="21" y="43" width="10" height="3" rx="1.5"></rect>
                    </g>
                </g>
            </g>
        </g>
    </g>
</svg>