<?xml version="1.0" encoding="UTF-8"?>
<svg width="250px" height="250px" viewBox="0 0 250 250" version="1.1" xmlns="http://www.w3.org/2000/svg" xmlns:xlink="http://www.w3.org/1999/xlink">
    <title>搜索设备/浅色</title>
    <defs>
        <linearGradient x1="50%" y1="25.2318263%" x2="50%" y2="82.7397167%" id="linearGradient-1">
            <stop stop-color="#DBDBDB" stop-opacity="0" offset="0%"></stop>
            <stop stop-color="#DBDBDB" offset="51.0273067%"></stop>
            <stop stop-color="#DBDBDB" stop-opacity="0" offset="100%"></stop>
        </linearGradient>
        <filter x="-7.8%" y="-7.4%" width="115.7%" height="117.6%" filterUnits="objectBoundingBox" id="filter-2">
            <feOffset dx="0" dy="1" in="SourceAlpha" result="shadowOffsetOuter1"></feOffset>
            <feGaussianBlur stdDeviation="2" in="shadowOffsetOuter1" result="shadowBlurOuter1"></feGaussianBlur>
            <feColorMatrix values="0 0 0 0 0.729469189   0 0 0 0 0.729469189   0 0 0 0 0.729469189  0 0 0 0.8 0" type="matrix" in="shadowBlurOuter1" result="shadowMatrixOuter1"></feColorMatrix>
            <feMerge>
                <feMergeNode in="shadowMatrixOuter1"></feMergeNode>
                <feMergeNode in="SourceGraphic"></feMergeNode>
            </feMerge>
        </filter>
        <path d="M3.67346939,0 L79.3265306,0 C81.3553317,-3.7268472e-16 83,1.64466827 83,3.67346939 L83,55.1350395 L83,55.1350395 L0,55.1350395 L0,3.67346939 C-2.4845648e-16,1.64466827 1.64466827,3.48130919e-15 3.67346939,0 Z" id="path-3"></path>
        <linearGradient x1="41.9008771%" y1="29.2769324%" x2="45.6840806%" y2="61.8390956%" id="linearGradient-5">
            <stop stop-color="#415C73" offset="0%"></stop>
            <stop stop-color="#0D2B49" offset="100%"></stop>
        </linearGradient>
        <path d="M5.67346939,2 L76.3989944,2 C78.4277955,2 80.0724638,3.64466827 80.0724638,5.67346939 L80.0724638,52.262016 L80.0724638,52.262016 L2,52.262016 L2,5.67346939 C2,3.64466827 3.64466827,2 5.67346939,2 Z" id="path-6"></path>
        <linearGradient x1="48.5157829%" y1="0%" x2="88.9697585%" y2="100%" id="linearGradient-8">
            <stop stop-color="#FFFFFF" stop-opacity="0.0831819548" offset="0%"></stop>
            <stop stop-color="#FFFFFF" stop-opacity="0" offset="100%"></stop>
        </linearGradient>
        <linearGradient x1="0%" y1="49.397123%" x2="57.6836956%" y2="50.264239%" id="linearGradient-9">
            <stop stop-color="#9BC8FF" stop-opacity="0.164441516" offset="0%"></stop>
            <stop stop-color="#A4FBD2" stop-opacity="0.0494905485" offset="72.7129083%"></stop>
            <stop stop-color="#95B5FA" stop-opacity="0.401336457" offset="100%"></stop>
        </linearGradient>
        <path d="M0,54.821514 L83,54.821514 L83,60.2620115 C83,62.2908126 81.3553317,63.9354809 79.3265306,63.9354809 L3.67346939,63.9354809 C1.64466827,63.9354809 -3.74834641e-15,62.2908126 0,60.2620115 L0,54.821514 L0,54.821514 Z" id="path-10"></path>
        <linearGradient x1="50%" y1="0%" x2="50%" y2="65.4361786%" id="linearGradient-11">
            <stop stop-color="#7E9EBF" offset="0%"></stop>
            <stop stop-color="#E1EEFB" offset="100%"></stop>
        </linearGradient>
    </defs>
    <g id="搜索设备/浅色" stroke="none" stroke-width="1" fill="none" fill-rule="evenodd">
        <g id="编组-2">
            <rect id="矩形" x="0" y="0" width="250" height="250"></rect>
            <g id="编组-5" transform="translate(13, 13)" opacity="0.399230957" stroke="url(#linearGradient-1)">
                <circle id="椭圆形" cx="111.5" cy="111.5" r="71"></circle>
                <circle id="椭圆形" cx="111.5" cy="111.5" r="93"></circle>
                <circle id="椭圆形" cx="112" cy="112" r="111.5"></circle>
            </g>
            <g id="编组" transform="translate(84, 86)" filter="url(#filter-2)">
                <g id="矩形-+-路径-4-蒙版">
                    <mask id="mask-4" fill="white">
                        <use xlink:href="#path-3"></use>
                    </mask>
                    <use id="蒙版" fill="#FCFDFF" xlink:href="#path-3"></use>
                    <mask id="mask-7" fill="white">
                        <use xlink:href="#path-6"></use>
                    </mask>
                    <use id="蒙版" fill="url(#linearGradient-5)" xlink:href="#path-6"></use>
                    <g id="编组" mask="url(#mask-7)" fill="#6EDC59" fill-rule="nonzero">
                        <g transform="translate(41.1808, 26.6946) rotate(-70) translate(-41.1808, -26.6946)translate(31.4716, 17.0594)" id="形状">
                            <path d="M4.77230557,12.7650979 C5.04055289,12.8134269 5.23788424,12.888491 5.48146514,13.0314214 L5.56425586,13.0834048 L5.56425586,13.0834048 L5.64114964,13.137043 C5.6744547,13.1616137 5.69729631,13.1808152 5.69729631,13.1856628 L5.70063656,13.1931178 L5.70063656,13.1931178 L5.70860175,13.1959456 C5.713398,13.1959456 5.72184854,13.2005157 5.73060359,13.2075232 L5.86750424,13.3397275 L5.86750424,13.3397275 L5.94396051,13.421138 L5.94396051,13.421138 L5.99637665,13.4828346 C6.0107654,13.4975242 6.03304068,13.5269875 6.05857606,13.5638615 L6.14033601,13.6893532 L6.14033601,13.6893532 L6.2138978,13.8151326 C6.22393276,13.8336656 6.23246953,13.8503698 6.23892978,13.864325 C6.32320671,14.0473581 6.37767839,14.218052 6.41365025,14.4144527 C6.43934444,14.5594396 6.44037221,14.9275624 6.41365025,15.067408 C6.37151179,15.2936287 6.31704011,15.4612377 6.22351327,15.6483839 C6.18815807,15.7215972 6.12254539,15.8296895 6.07298233,15.9010601 L5.98301567,16.0185633 L5.98301567,16.0185633 L5.90775843,16.0994845 L5.90775843,16.0994845 L5.69284688,16.3097629 L5.69284688,16.3097629 L5.67753611,16.3205393 L5.67753611,16.3205393 L5.65965433,16.3244754 L5.65965433,16.3244754 L5.65618561,16.3301309 C5.65618561,16.3375345 5.59961729,16.3804753 5.57014914,16.3973555 L5.5444159,16.408794 L5.5444159,16.408794 L5.51589535,16.4343724 L5.51589535,16.4343724 L5.42493793,16.4864289 C5.19266247,16.6201048 4.90488758,16.7126496 4.65411231,16.7342434 C4.52975244,16.7445262 4.32933778,16.7445262 4.20189461,16.7332151 C4.07856251,16.7229324 3.89973097,16.6818013 3.75481575,16.628331 C3.37865285,16.4915703 3.06929484,16.2612364 2.82879724,15.9404143 L2.74062302,15.8185019 L2.74062302,15.8185019 L2.66049826,15.6751685 L2.66049826,15.6751685 L2.61151075,15.5752365 C2.60400394,15.5590473 2.59713845,15.5437054 2.59138295,15.5301322 C2.41292514,15.113213 2.38481018,14.6113123 2.51089895,14.1812596 L2.57848942,13.9805082 L2.57848942,13.9805082 L2.66329971,13.8065227 L2.66329971,13.8065227 L2.73947783,13.668824 L2.73947783,13.668824 L2.78254771,13.6051994 L2.78254771,13.6051994 L2.84010269,13.5249939 L2.84010269,13.5249939 C2.91410195,13.418347 3.09758991,13.2391751 3.23717451,13.1331758 L3.36633392,13.0420231 L3.36633392,13.0420231 L3.42991276,13.005586 L3.42991276,13.005586 L3.55440109,12.9409331 L3.55440109,12.9409331 C3.74864915,12.8483883 3.89459213,12.8010876 4.1042567,12.7640696 C4.2748661,12.7342496 4.60477947,12.7342496 4.77230557,12.7650979 Z M5.53413688,2.54591514 L5.90191695,2.57440379 L5.90191695,2.57440379 L6.12700881,2.59806758 L6.12700881,2.59806758 L6.38936113,2.63163815 C6.43471056,2.63785693 6.48050176,2.64433707 6.52617937,2.65100288 L6.79443884,2.69262 L6.79443884,2.69262 L7.03331403,2.73505909 L7.03331403,2.73505909 L7.36739248,2.8032851 L7.36739248,2.8032851 L7.54156285,2.84246283 L7.54156285,2.84246283 L7.75398569,2.89496442 L7.75398569,2.89496442 L7.78095689,2.89882351 L7.78095689,2.89882351 L7.83932579,2.9135109 L7.83932579,2.9135109 L8.30600987,3.04666546 L8.30600987,3.04666546 L8.71974601,3.18180824 L8.71974601,3.18180824 L8.87025338,3.23408201 L8.87025338,3.23408201 L9.12898468,3.32906395 L9.12898468,3.32906395 L9.53339302,3.49032484 L9.53339302,3.49032484 L9.84551551,3.62994576 L9.84551551,3.62994576 L10.0457555,3.7233522 L10.0457555,3.7233522 L10.4213547,3.91300688 L10.4213547,3.91300688 L10.7433122,4.08696675 L10.7433122,4.08696675 L10.7952031,4.11727619 L10.7952031,4.11727619 L10.878282,4.16414232 L10.878282,4.16414232 L11.1884255,4.34845814 L11.1884255,4.34845814 L11.362263,4.45992637 L11.362263,4.45992637 L11.4050713,4.48983524 L11.4050713,4.48983524 L11.4510519,4.51867594 L11.4510519,4.51867594 L11.4632196,4.52473248 L11.4632196,4.52473248 L11.5121357,4.55761088 C11.5205239,4.56366742 11.5281982,4.56943556 11.5339106,4.57405007 L11.5486478,4.5885245 L11.5486478,4.5885245 L11.5646174,4.59485009 L11.5646174,4.59485009 L11.6052219,4.61961838 L11.6052219,4.61961838 L11.8973335,4.82510834 L11.8973335,4.82510834 L12.142188,5.00583136 L12.142188,5.00583136 L12.3591675,5.17344988 L12.3591675,5.17344988 L12.7151504,5.46665894 L12.7151504,5.46665894 L12.8044891,5.54585872 L12.8044891,5.54585872 L12.8665979,5.59839953 L12.8665979,5.59839953 L12.9927522,5.71286104 C13.087418,5.79769325 13.2040176,5.90863417 13.3252447,6.02828856 L13.5687415,6.27406115 L13.5687415,6.27406115 L13.7938123,6.51214477 L13.7938123,6.51214477 L14.0169127,6.76210829 L14.0169127,6.76210829 L14.1205996,6.88562686 L14.1205996,6.88562686 L14.1430318,6.9087125 L14.1430318,6.9087125 L14.2438427,7.03189833 L14.2438427,7.03189833 L14.4481109,7.29293868 L14.4481109,7.29293868 L14.6295295,7.5320601 L14.6295295,7.5320601 L14.6766648,7.59821746 C14.6809331,7.6047707 14.6832131,7.60883644 14.6832131,7.61003814 L14.6854671,7.6164597 L14.6854671,7.6164597 L14.6992161,7.6289226 L14.6992161,7.6289226 L14.7522966,7.70184112 L14.7522966,7.70184112 L14.8747486,7.87748219 L14.8747486,7.87748219 L15.1129325,8.23902569 L15.1129325,8.23902569 L15.1260012,8.26323486 L15.1260012,8.26323486 L15.2516755,8.46517815 L15.2516755,8.46517815 L15.5012793,8.90042566 L15.5012793,8.90042566 L15.6340078,9.15221616 L15.6340078,9.15221616 L15.8444471,9.57481061 L15.8444471,9.57481061 L15.9226027,9.74309495 L15.9454239,9.80012856 L15.9454239,9.80012856 L15.9490302,9.81297168 L15.9490302,9.81297168 L15.9736066,9.85984616 L15.9736066,9.85984616 L16.105905,10.1741563 L16.105905,10.1741563 L16.2519608,10.5526905 L16.2519608,10.5526905 L16.29854,10.6811817 L16.29854,10.6811817 L16.4550524,11.1570668 L16.4550524,11.1570668 L16.5468782,11.4678995 C16.5706366,11.5520999 16.5924043,11.6330414 16.614374,11.7191453 L16.6973075,12.0602845 L16.6973075,12.0602845 L16.7234867,12.1884988 L16.7234867,12.1884988 C16.7924074,12.4769057 16.8684518,12.9412054 16.9186928,13.3782072 L16.9591667,13.7734321 L16.9591667,13.7734321 L16.9738949,13.9731034 L16.9738949,13.9731034 L16.980046,14.1087092 L16.980046,14.1087092 L16.9850961,14.3473876 L16.9850961,14.3473876 L16.9850961,15.2394083 L16.9850961,15.2394083 L16.9812633,15.4488152 L16.9812633,15.4488152 L16.9750273,15.5592552 L16.9750273,15.5592552 L16.9551926,15.7530286 C16.9515863,15.8025986 16.9416689,15.8611813 16.9335547,15.8828118 C16.9254405,15.9044423 16.9191294,15.9278754 16.9191294,15.9341843 C16.9191294,15.9430682 16.9058817,15.9747967 16.8876188,16.0126265 L16.8468454,16.0914601 C16.8326514,16.1171424 16.8186677,16.1405755 16.8073336,16.1567984 C16.7622546,16.2225912 16.658573,16.3289413 16.6035767,16.3658935 L16.5663782,16.3919302 C16.5622042,16.3951347 16.5593993,16.397438 16.5584977,16.3983392 L16.5430666,16.4087039 L16.5430666,16.4087039 L16.4274015,16.4668359 C16.4013224,16.4788529 16.3805861,16.4875651 16.3763788,16.4875651 C16.3691661,16.4875651 16.3403156,16.4956766 16.3114651,16.5064919 C16.2782869,16.5180281 16.2462629,16.5232195 16.1793873,16.5262189 L16.0314129,16.5286127 L16.0314129,16.5286127 L15.9559255,16.5259882 C15.946037,16.5253104 15.9378507,16.5245173 15.9319002,16.523616 C15.8137934,16.5064919 15.6515091,16.4370939 15.5514338,16.3595846 C15.5334023,16.3457651 15.5065552,16.3227326 15.4821124,16.2998336 L15.3710733,16.1849691 L15.3710733,16.1849691 L15.3662094,16.171853 L15.3662094,16.171853 L15.3521848,16.1540946 C15.3452727,16.146584 15.333452,16.1271566 15.3199283,16.1022214 L15.277454,16.0173016 C15.2637299,15.9877599 15.2515085,15.9591195 15.2439953,15.9377894 C15.2390367,15.9242703 15.232951,15.9008372 15.226978,15.8739117 L15.2106369,15.7890795 L15.2106369,15.7890795 L15.2015648,15.7213433 C15.1986065,15.6895312 15.1980571,15.6579093 15.2001068,15.6134547 L15.2077279,15.503577 C15.2095945,15.4811262 15.2117639,15.4562849 15.2142432,15.4285708 L15.2212581,15.3040964 L15.2212581,15.3040964 L15.229289,14.9149475 L15.229289,14.9149475 L15.228911,14.5920437 L15.228911,14.5920437 L15.2250622,14.4056273 L15.2250622,14.4056273 C15.2045513,13.7250545 15.1150132,13.0527621 14.953428,12.3664102 L14.8641132,12.0132122 L14.8641132,12.0132122 L14.7977065,11.7830418 L14.7977065,11.7830418 L14.7210548,11.5391782 L14.7210548,11.5391782 L14.6291184,11.2646952 L14.6291184,11.2646952 L14.5342686,11.0089889 L14.5342686,11.0089889 L14.4392164,10.7709664 L14.4392164,10.7709664 L14.3541367,10.5707159 L14.3541367,10.5707159 L14.32028,10.4948982 L14.32028,10.4948982 L14.2268292,10.2962417 L14.2268292,10.2962417 L14.0674768,9.97338397 C14.0510019,9.94100156 14.0354391,9.91081248 14.0212903,9.88384649 L13.9083058,9.67226062 L13.9083058,9.67226062 L13.8546619,9.58202079 L13.8546619,9.58202079 L13.8039216,9.49220342 L13.8039216,9.49220342 L13.5086527,9.01396608 L13.5086527,9.01396608 L13.4525576,8.93310511 L13.4525576,8.93310511 L13.408141,8.86578037 L13.408141,8.86578037 L13.2961612,8.70763936 L13.2961612,8.70763936 L13.280356,8.68874779 L13.280356,8.68874779 L13.2748338,8.6681312 L13.2748338,8.6681312 L13.2658961,8.66226119 L13.2658961,8.66226119 L13.2529747,8.6466342 L13.2529747,8.6466342 L13.2181136,8.59736468 L13.2181136,8.59736468 L13.2065392,8.58949524 L13.2065392,8.58949524 L13.2023026,8.57603458 L13.2023026,8.57603458 L13.1825346,8.54691015 L13.1825346,8.54691015 L13.1000401,8.44202465 L13.1000401,8.44202465 L13.0923767,8.42501314 L13.0923767,8.42501314 L12.777934,8.03508483 L12.777934,8.03508483 L12.7362529,7.98834696 L12.7362529,7.98834696 L12.5735179,7.79930521 L12.5735179,7.79930521 L12.4191288,7.63145325 L12.4191288,7.63145325 L12.1467329,7.35418961 L12.1467329,7.35418961 L11.9317955,7.14234297 L11.9317955,7.14234297 L11.6628103,6.89521696 L11.6628103,6.89521696 L11.4538576,6.71659661 L11.4538576,6.71659661 L11.3126054,6.60008019 L11.3126054,6.60008019 L11.2932755,6.58078576 L11.2932755,6.58078576 L11.2898946,6.57582877 L11.2898946,6.57582877 L11.2824566,6.57357559 C11.2782492,6.57357559 11.2688327,6.56876881 11.2587484,6.56129159 L11.2210948,6.52954061 L11.2210948,6.52954061 L10.9073675,6.28989133 L10.9073675,6.28989133 L10.6406656,6.10417973 L10.6406656,6.10417973 L10.25105,5.84895308 L10.25105,5.84895308 L9.98852353,5.69229869 L9.98852353,5.69229869 L9.83795981,5.60631069 L9.83795981,5.60631069 L9.68395673,5.52359397 C9.61573724,5.48694225 9.53449495,5.44508318 9.44927902,5.40242299 L9.19075955,5.27644522 C9.14870255,5.2565171 9.10791444,5.23749025 9.06952637,5.21991545 L8.77065705,5.08906831 L8.77065705,5.08906831 L8.43932672,4.95725732 L8.43932672,4.95725732 L8.19609884,4.87024364 L8.19609884,4.87024364 L7.79728549,4.73998823 L7.79728549,4.73998823 L7.62813088,4.68890364 L7.62813088,4.68890364 L7.27580543,4.59321445 L7.27580543,4.59321445 L7.24821388,4.58936944 L7.24821388,4.58936944 L7.01388934,4.53402909 L7.01388934,4.53402909 L6.80538536,4.49017946 L6.80538536,4.49017946 L6.58237201,4.44803252 C6.54557811,4.44147925 6.50936775,4.43524392 6.47433496,4.42945003 C5.99559643,4.35013811 5.56554318,4.30867961 5.0543478,4.29245672 L4.83647055,4.28722251 L4.83647055,4.28722251 L4.65972424,4.28722251 L4.65972424,4.28722251 L4.46279097,4.2928351 L4.46279097,4.2928351 L3.90483439,4.31769233 L3.90483439,4.31769233 C3.71189645,4.33211268 3.48740324,4.26271475 3.32782373,4.14014179 C3.21512634,4.0536197 3.14660632,3.96980142 3.07718473,3.83370939 C2.9527668,3.59306982 2.95456996,3.27942724 3.08169262,3.03067623 C3.11775579,2.96037703 3.16103159,2.89638674 3.17094896,2.89638674 C3.17545685,2.89638674 3.17906317,2.89188038 3.17906317,2.88647275 C3.17906317,2.88376893 3.18605041,2.87430558 3.19732015,2.86123714 L3.24127213,2.814371 L3.24127213,2.814371 L3.2662346,2.79020565 L3.2662346,2.79020565 L3.30466442,2.75708392 C3.30900327,2.75392947 3.31204609,2.75218325 3.31339846,2.75218325 C3.31880794,2.75218325 3.32331583,2.74857816 3.32331583,2.74407181 C3.32331583,2.73415782 3.38732795,2.69089677 3.45674955,2.65574717 C3.53563772,2.61518994 3.61227195,2.58905306 3.72463125,2.57102762 L3.85030554,2.55547234 L3.85030554,2.55547234 L4.00823633,2.54392271 L4.00823633,2.54392271 L4.29132172,2.53242008 L4.29132172,2.53242008 L4.60158684,2.52861267 L4.60158684,2.52861267 L5.04032942,2.53114418 L5.04032942,2.53114418 L5.32249179,2.5371018 L5.32249179,2.5371018 L5.4740106,2.54269235 C5.49596216,2.54372127 5.51609048,2.54479661 5.53413688,2.54591514 Z M4.5053272,7.6352221 C4.88332783,7.6352221 5.18577372,7.65224547 5.45933961,7.6903778 L5.71437335,7.72975852 C5.73434397,7.73181813 5.76968717,7.7376766 5.81431288,7.74602186 L6.05723159,7.79593324 L6.05723159,7.79593324 L6.30214049,7.85284732 L6.30214049,7.85284732 L6.60378661,7.93736789 L6.60378661,7.93736789 L6.86319881,8.02078238 L6.86319881,8.02078238 L7.13650809,8.12180658 L7.13650809,8.12180658 L7.26697019,8.17400551 L7.26697019,8.17400551 L7.4885675,8.270099 L7.4885675,8.270099 L7.72134363,8.38328781 L7.72134363,8.38328781 L7.9007137,8.47414769 L7.9007137,8.47414769 L8.13137994,8.60115022 L8.13137994,8.60115022 L8.15428921,8.61724742 L8.15428921,8.61724742 L8.24954427,8.67134668 L8.24954427,8.67134668 L8.39918668,8.76746214 L8.39918668,8.76746214 L8.41704824,8.77661398 L8.41704824,8.77661398 L8.49089178,8.82539477 L8.49089178,8.82539477 L8.51116113,8.84160405 L8.51116113,8.84160405 L8.56031046,8.8728888 L8.56031046,8.8728888 L8.68212745,8.95880433 L8.68212745,8.95880433 L8.91964171,9.13551662 L8.91964171,9.13551662 L9.06365476,9.24684422 L9.06365476,9.24684422 L9.15551945,9.32228876 L9.15551945,9.32228876 L9.1782125,9.34477274 L9.1782125,9.34477274 L9.30710566,9.4558658 L9.30710566,9.4558658 L9.41065943,9.5521488 L9.41065943,9.5521488 L9.67301873,9.81152369 L9.67301873,9.81152369 L9.82489864,9.96862639 L9.82489864,9.96862639 L9.94160155,10.0995317 L9.94160155,10.0995317 L10.0382478,10.2126138 L10.0382478,10.2126138 L10.0624881,10.2382133 L10.0624881,10.2382133 L10.151316,10.3492056 L10.151316,10.3492056 L10.2000003,10.4152833 C10.2049271,10.4225709 10.2077632,10.4273564 10.2077632,10.4286804 L10.2101952,10.4357475 L10.2101952,10.4357475 L10.2243479,10.4489274 L10.2243479,10.4489274 L10.2919047,10.5343847 L10.2919047,10.5343847 L10.4396139,10.7386095 L10.4396139,10.7386095 L10.615411,11.0070208 L10.615411,11.0070208 L10.625718,11.0266001 L10.625718,11.0266001 L10.7161563,11.1731633 L10.7161563,11.1731633 L10.8487788,11.4070273 L10.8487788,11.4070273 L10.9619116,11.629849 L11.0997876,11.9178172 L11.0997876,11.9178172 L11.2022977,12.1630047 L11.2022977,12.1630047 L11.3000739,12.425067 L11.3000739,12.425067 L11.3634001,12.6071108 L11.3634001,12.6071108 L11.4272545,12.8167692 L11.4272545,12.8167692 L11.4629898,12.9427043 L11.4629898,12.9427043 L11.5224272,13.177651 L11.5224272,13.177651 C11.6002509,13.4974065 11.6743687,13.983991 11.6910452,14.28521 L11.7073844,14.5604444 L11.7073844,14.5604444 L11.7092022,14.6649794 L11.7092022,14.6649794 L11.7084851,14.9347085 L11.7084851,14.9347085 L11.7024648,15.1972306 L11.7024648,15.1972306 L11.6894094,15.4138253 L11.6894094,15.4138253 L11.6708926,15.6112505 L11.6708926,15.6112505 L11.6585842,15.7029702 L11.6585842,15.7029702 L11.6425212,15.784006 L11.6425212,15.784006 L11.629898,15.865451 L11.629898,15.865451 C11.5937656,16.1110603 11.4761036,16.3103283 11.2778386,16.4632548 C11.2278091,16.5021816 11.1553705,16.542151 11.0788932,16.573779 L11.0017499,16.6022789 C10.9511027,16.6189618 10.9235145,16.6261705 10.8739653,16.6302211 L10.7775436,16.6347179 L10.7775436,16.6347179 L10.6842145,16.6352221 L10.6842145,16.6352221 L10.6045824,16.6325232 C10.5939539,16.6318262 10.5850227,16.6310106 10.5783521,16.6300838 C10.5561168,16.6276122 10.529352,16.6222572 10.5082147,16.6164903 L10.444597,16.5950016 C10.4394842,16.5937315 10.4353666,16.5930107 10.432896,16.5930107 L10.4159791,16.5884225 L10.4159791,16.5884225 L10.3498295,16.5579912 L10.3498295,16.5579912 L10.267279,16.513163 C10.2405868,16.4976798 10.2164986,16.4825858 10.2003515,16.4706694 C10.1336455,16.4224744 10.03266,16.3205234 9.99838054,16.2676942 L9.97271383,16.2303465 C9.96955697,16.2260899 9.96718932,16.2232065 9.96595402,16.2222796 L9.9549779,16.2051634 L9.9549779,16.2051634 L9.9155771,16.127164 L9.9155771,16.127164 L9.88019101,16.0476198 C9.87644652,16.0380212 9.87423328,16.0311987 9.87423328,16.0285727 L9.87262643,16.0199416 L9.87262643,16.0199416 L9.85477736,15.9599874 C9.84974794,15.9459526 9.84592861,15.9335066 9.84303845,15.9197096 L9.83687457,15.8713254 L9.83687457,15.8713254 L9.83460026,15.7971954 L9.83460026,15.7971954 L9.83647027,15.6295919 C9.83795263,15.5994886 9.8403244,15.576355 9.84388205,15.5560389 L9.86090141,15.4735192 L9.86090141,15.4735192 L9.87086846,15.3863383 L9.87086846,15.3863383 L9.89368919,15.0776476 L9.89368919,15.0776476 C9.9233363,14.6448191 9.85848325,13.9914056 9.74267423,13.5437479 L9.66780913,13.2736447 L9.66780913,13.2736447 L9.61949144,13.1189188 L9.61949144,13.1189188 L9.57660229,12.9973414 L9.57660229,12.9973414 L9.54320821,12.9137798 L9.54320821,12.9137798 L9.53898762,12.8942478 L9.53898762,12.8942478 L9.44498761,12.6690451 L9.44498761,12.6690451 L9.32816373,12.4216343 L9.32816373,12.4216343 L9.2591244,12.2891667 L9.2591244,12.2891667 L9.12869771,12.0580433 L9.12869771,12.0580433 L9.06168825,11.9510816 L9.06168825,11.9510816 L9.05475151,11.9372468 L9.05475151,11.9372468 L9.02929068,11.8977021 L9.02929068,11.8977021 L8.99593768,11.8505369 L8.99593768,11.8505369 L8.88126102,11.6840169 L8.88126102,11.6840169 L8.81503542,11.5979936 L8.81503542,11.5979936 L8.80149434,11.5845503 L8.80149434,11.5845503 L8.79952559,11.5770198 C8.79952559,11.5714588 8.79304028,11.5603369 8.78562851,11.5519955 L8.74720585,11.5059507 L8.74720585,11.5059507 L8.64771757,11.3834166 C8.64264791,11.3776926 8.63826014,11.3729398 8.63476919,11.3694327 L8.61793705,11.3548129 L8.61793705,11.3548129 L8.61052527,11.3351178 L8.61052527,11.3351178 L8.50212803,11.2174107 C8.41466906,11.1195377 8.29756298,11.0003106 8.1958734,10.9048103 L7.96732199,10.7003568 L7.96732199,10.7003568 L7.79247198,10.5607682 L7.79247198,10.5607682 L7.62197949,10.4342414 L7.62197949,10.4342414 L7.23591512,10.1816294 L7.23591512,10.1816294 L7.21004682,10.1696321 L7.21004682,10.1696321 L7.16708167,10.145998 C7.04015499,10.0737055 6.90025769,10.0014129 6.78444867,9.94765692 L6.64916754,9.88628634 L6.64916754,9.88628634 L6.4509187,9.80492547 L6.4509187,9.80492547 L6.25635955,9.73482984 L6.25635955,9.73482984 L6.08496221,9.67887692 L6.08496221,9.67887692 C5.86353536,9.60751119 5.53000539,9.53336499 5.24187255,9.49443823 C4.93382057,9.4514566 4.53426498,9.43331105 4.2616795,9.44745242 L3.90288869,9.4793628 L3.90288869,9.4793628 L3.82390694,9.49126674 L3.82390694,9.49126674 L3.79657601,9.49721871 C3.71319352,9.52131623 3.5075167,9.51760892 3.39819299,9.48980409 L3.32685463,9.4698773 L3.32685463,9.4698773 L3.28053102,9.45273099 L3.28053102,9.45273099 L3.26402609,9.44517906 L3.26402609,9.44517906 L3.23124271,9.43495814 L3.23124271,9.43495814 L3.18766146,9.41247701 L3.18766146,9.41247701 L3.11561898,9.37024333 L3.11561898,9.37024333 C2.9553393,9.27385327 2.80710376,9.07551216 2.7459566,8.87624423 C2.69870652,8.72146403 2.69685357,8.47770837 2.74132424,8.35814762 L2.75662818,8.31221816 L2.75662818,8.31221816 L2.76218434,8.28808524 L2.76218434,8.28808524 L2.80061845,8.20336741 L2.80061845,8.20336741 C2.83767734,8.12829438 2.915501,8.01892872 2.96738344,7.96888003 C3.11098662,7.8298559 3.25922216,7.75292921 3.44451659,7.71956341 L3.60201686,7.69083176 L3.60201686,7.69083176 C3.72593251,7.66766107 3.89110512,7.65173122 4.09549899,7.64304221 L4.35946755,7.636091 C4.40655658,7.63551174 4.45518189,7.6352221 4.5053272,7.6352221 Z" transform="translate(9.7092, 9.6352) rotate(-333) translate(-9.7092, -9.6352)"></path>
                        </g>
                    </g>
                    <polygon id="路径-4" fill="url(#linearGradient-8)" mask="url(#mask-7)" points="29.4021153 0 63.9281514 55.1350395 83 55.1350395 83 0"></polygon>
                </g>
                <g id="矩形">
                    <use fill="#FFFFFF" xlink:href="#path-10"></use>
                    <use fill-opacity="0.242209695" fill="#C3D7FB" xlink:href="#path-10"></use>
                    <use fill="url(#linearGradient-9)" xlink:href="#path-10"></use>
                </g>
                <path d="M27.1677994,74 C26.3211354,74.003621 25.7126984,73.8879389 25.3424885,73.6528676 C24.9917634,73.4301685 25.0237813,73.1326435 25.4385422,72.7602926 L25.511213,72.6975412 L30.0203253,70.9814369 C31.1123883,70.5658132 31.872597,69.5647625 31.9797784,68.401209 L32.3911415,63.9354809 L32.3911415,63.9354809 L47.1963866,63.9354809 L47.6077497,68.401209 C47.714931,69.5647625 48.4751398,70.5658132 49.5672027,70.9814369 L54.0763151,72.6975412 L54.0763151,72.6975412 C54.559008,73.0993542 54.6152494,73.4177963 54.2450396,73.6528676 C53.8995103,73.8722675 53.3464589,73.9876661 52.5858851,73.9990633 L27.1677994,74 Z" id="路径" fill="url(#linearGradient-11)"></path>
            </g>
            <g id="编组-3" transform="translate(0, 51)" fill="#6EDC59">
                <circle id="椭圆形" cx="217.5" cy="42.5" r="2.5"></circle>
                <circle id="椭圆形" cx="46.5" cy="102.5" r="1.5"></circle>
                <circle id="椭圆形" cx="4" cy="33" r="4"></circle>
                <circle id="椭圆形" cx="51" cy="2" r="2"></circle>
                <circle id="椭圆形" cx="198.5" cy="85.5" r="2.5"></circle>
                <circle id="椭圆形" cx="245.5" cy="126.5" r="1.5"></circle>
            </g>
        </g>
    </g>
</svg>