<?xml version="1.0" encoding="UTF-8"?>
<svg width="150px" height="150px" viewBox="0 0 150 150" version="1.1" xmlns="http://www.w3.org/2000/svg" xmlns:xlink="http://www.w3.org/1999/xlink">
    <title>空页面/无网络/dark 2</title>
    <defs>
        <linearGradient x1="50%" y1="0%" x2="82.9760778%" y2="82.981404%" id="linearGradient-1">
            <stop stop-color="#E9EBEE" offset="0%"></stop>
            <stop stop-color="#CCCFD4" offset="100%"></stop>
        </linearGradient>
        <linearGradient x1="67.3208857%" y1="4.68461065%" x2="68.7402628%" y2="97.0519148%" id="linearGradient-2">
            <stop stop-color="#E9EBEE" offset="0%"></stop>
            <stop stop-color="#CCCFD4" offset="100%"></stop>
        </linearGradient>
        <linearGradient x1="50%" y1="-13.8193404%" x2="50%" y2="64.8839293%" id="linearGradient-3">
            <stop stop-color="#E2E4E8" offset="0%"></stop>
            <stop stop-color="#F4F6F8" stop-opacity="0" offset="100%"></stop>
        </linearGradient>
        <linearGradient x1="110.885684%" y1="33.9205176%" x2="50%" y2="63.0376794%" id="linearGradient-4">
            <stop stop-color="#C5C8CD" offset="0%"></stop>
            <stop stop-color="#E9EBEE" offset="100%"></stop>
        </linearGradient>
        <linearGradient x1="64.9130347%" y1="54.9409773%" x2="1.66502295%" y2="-17.3687573%" id="linearGradient-5">
            <stop stop-color="#CDD0D5" offset="0%"></stop>
            <stop stop-color="#E9EBEE" offset="23.3821304%"></stop>
            <stop stop-color="#F4F5F5" offset="100%"></stop>
        </linearGradient>
        <path d="M55.0634702,1.64892933 C54.7925812,1.3600335 54.5172613,1.07537057 54.2376197,0.795049889 C54.1333952,0.690572314 54.0285703,0.586697925 53.9231508,0.483432385 C43.3298689,-5.39657214 -6.85421022,44.0885344 0.78829877,55.2362815 C0.853778507,55.3001918 0.919486538,55.3638677 0.985421518,55.4273079 C1.20429506,55.6378999 1.42566942,55.8458939 1.64949542,56.0512406 C8.42038157,62.2631154 61.4770826,8.48887271 55.0634702,1.64892933 Z" id="path-6"></path>
        <filter x="-0.9%" y="-0.9%" width="101.8%" height="101.8%" filterUnits="objectBoundingBox" id="filter-7">
            <feOffset dx="-1" dy="0" in="SourceAlpha" result="shadowOffsetInner1"></feOffset>
            <feComposite in="shadowOffsetInner1" in2="SourceAlpha" operator="arithmetic" k2="-1" k3="1" result="shadowInnerInner1"></feComposite>
            <feColorMatrix values="0 0 0 0 1   0 0 0 0 1   0 0 0 0 1  0 0 0 0.5 0" type="matrix" in="shadowInnerInner1"></feColorMatrix>
        </filter>
        <linearGradient x1="7.10542736e-13%" y1="50%" x2="94.4261489%" y2="49.9721864%" id="linearGradient-8">
            <stop stop-color="#CACCCF" offset="0%"></stop>
            <stop stop-color="#DDDDDD" offset="38.3691846%"></stop>
            <stop stop-color="#D5D6D7" offset="77.9569337%"></stop>
            <stop stop-color="#C2C5C9" offset="100%"></stop>
        </linearGradient>
        <radialGradient cx="36.7577342%" cy="42.1199966%" fx="36.7577342%" fy="42.1199966%" r="57.8436073%" gradientTransform="translate(0.3676, 0.4212), scale(1, 0.9963), rotate(26.9003), translate(-0.3676, -0.4212)" id="radialGradient-9">
            <stop stop-color="#F7F8F8" offset="0%"></stop>
            <stop stop-color="#D9DCE0" offset="100%"></stop>
        </radialGradient>
        <radialGradient cx="28.9280748%" cy="33.8468593%" fx="28.9280748%" fy="33.8468593%" r="75.657614%" gradientTransform="translate(0.2893, 0.3385), scale(1, 0.9963), rotate(40.4412), translate(-0.2893, -0.3385)" id="radialGradient-10">
            <stop stop-color="#FFFFFF" offset="0%"></stop>
            <stop stop-color="#D9D9D9" offset="100%"></stop>
        </radialGradient>
        <ellipse id="path-11" cx="52.5963443" cy="51.7657681" rx="2.84680722" ry="2.85733198"></ellipse>
        <filter x="-35.1%" y="-17.5%" width="170.3%" height="170.0%" filterUnits="objectBoundingBox" id="filter-12">
            <feOffset dx="0" dy="1" in="SourceAlpha" result="shadowOffsetOuter1"></feOffset>
            <feGaussianBlur stdDeviation="0.5" in="shadowOffsetOuter1" result="shadowBlurOuter1"></feGaussianBlur>
            <feComposite in="shadowBlurOuter1" in2="SourceAlpha" operator="out" result="shadowBlurOuter1"></feComposite>
            <feColorMatrix values="0 0 0 0 0.792740042   0 0 0 0 0.798703097   0 0 0 0 0.822555321  0 0 0 1 0" type="matrix" in="shadowBlurOuter1"></feColorMatrix>
        </filter>
        <linearGradient x1="100%" y1="50.8322429%" x2="4.3327553%" y2="49.2559432%" id="linearGradient-13">
            <stop stop-color="#D8D8D8" stop-opacity="0" offset="0%"></stop>
            <stop stop-color="#D9D9D9" offset="100%"></stop>
        </linearGradient>
    </defs>
    <g id="新" stroke="none" stroke-width="1" fill="none" fill-rule="evenodd">
        <g id="跨端协同-切图" transform="translate(-103, -605)">
            <g id="编组" transform="translate(103, 605)">
                <rect id="矩形" x="0" y="0" width="150" height="150"></rect>
                <g id="编组-3" transform="translate(22.4335, 17.0962)" fill-rule="nonzero">
                    <path d="M90.4781561,1.23450796 L89.8276194,2.1734841 C89.6972277,2.36168982 89.627366,2.58520083 89.627366,2.8141624 C89.627366,3.43548275 90.1310457,3.9391624 90.752366,3.9391624 L91.9446975,3.9391624 C92.1420777,3.9391624 92.3359841,3.8872322 92.5069458,3.78858626 C93.0451053,3.47806509 93.2296425,2.79007353 92.9191214,2.2519141 L92.3773266,1.31293797 C92.2942318,1.16892758 92.1802496,1.04512568 92.0435811,0.950439649 C91.5328576,0.596602791 90.831993,0.723784508 90.4781561,1.23450796 Z M91.5096825,1.72106183 C91.5324606,1.73684284 91.5514576,1.75747649 91.5653067,1.78147822 L92.1071015,2.72045435 C92.158855,2.81014759 92.1280988,2.92481285 92.0384056,2.97656638 C92.0099119,2.99300737 91.9775942,3.0016624 91.9446975,3.0016624 L90.752366,3.0016624 C90.6488126,3.0016624 90.564866,2.91771579 90.564866,2.8141624 C90.564866,2.77600214 90.5765096,2.7387503 90.5982416,2.70738268 L91.2487783,1.76840655 C91.3077511,1.68328597 91.4245619,1.66208902 91.5096825,1.72106183 Z" id="三角形" fill-opacity="0.509045154" fill="#D4D7DB" transform="translate(91.3486, 2.3446) rotate(45) translate(-91.3486, -2.3446)"></path>
                    <path d="M2.99063876,60.8009936 L1.32374341,63.2069684 C1.05209394,63.5990636 0.906548867,64.0647115 0.906548867,64.5417148 C0.906548867,65.8361322 1.95588148,66.8854648 3.25029887,66.8854648 L6.30545583,66.8854648 C6.71666458,66.8854648 7.12063614,66.7772769 7.47680646,66.5717645 C8.59797195,65.9248454 8.98242462,64.4915297 8.33550553,63.3703642 L6.94724391,60.9643894 C6.77412966,60.6643678 6.53666687,60.4064472 6.25194068,60.2091846 C5.18793349,59.4720245 3.72779888,59.7369864 2.99063876,60.8009936 Z M5.18414351,61.750429 C5.24108875,61.7898815 5.28858131,61.8414656 5.32320416,61.9014699 L6.71146577,64.3074447 C6.84084959,64.5316778 6.76395906,64.818341 6.53972596,64.9477248 C6.4684919,64.9888272 6.38769758,65.0104648 6.30545583,65.0104648 L3.25029887,65.0104648 C2.99141539,65.0104648 2.78154887,64.8005983 2.78154887,64.5417148 C2.78154887,64.4463142 2.81065788,64.3531846 2.86498778,64.2747655 L4.53188313,61.8687908 C4.67931515,61.6559893 4.97134207,61.6029969 5.18414351,61.750429 Z" id="三角形" fill="#E9EDF1" transform="translate(4.7781, 63.3386) rotate(198) translate(-4.7781, -63.3386)"></path>
                    <path d="M104.110646,41.3671008 L103.173146,41.3671008 C102.396495,41.3671008 101.766896,41.9967004 101.766896,42.7733508 L101.766896,43.7108508 C101.766896,44.4875012 102.396495,45.1171008 103.173146,45.1171008 L104.110646,45.1171008 C104.887296,45.1171008 105.516896,44.4875012 105.516896,43.7108508 L105.516896,42.7733508 C105.516896,41.9967004 104.887296,41.3671008 104.110646,41.3671008 Z M104.110646,42.3046008 C104.369529,42.3046008 104.579396,42.5144673 104.579396,42.7733508 L104.579396,43.7108508 C104.579396,43.9697343 104.369529,44.1796008 104.110646,44.1796008 L103.173146,44.1796008 C102.914262,44.1796008 102.704396,43.9697343 102.704396,43.7108508 L102.704396,42.7733508 C102.704396,42.5144673 102.914262,42.3046008 103.173146,42.3046008 L104.110646,42.3046008 Z" id="矩形" fill="#D4D7DB" transform="translate(103.6419, 43.2421) rotate(-29) translate(-103.6419, -43.2421)"></path>
                    <path d="M57.7949653,14.7066917 L56.8574653,14.7066917 C55.8219313,14.7066917 54.9824653,15.5461578 54.9824653,16.5816917 L54.9824653,17.5191917 C54.9824653,18.5547256 55.8219313,19.3941917 56.8574653,19.3941917 L57.7949653,19.3941917 C58.8304992,19.3941917 59.6699653,18.5547256 59.6699653,17.5191917 L59.6699653,16.5816917 C59.6699653,15.5461578 58.8304992,14.7066917 57.7949653,14.7066917 Z M57.7949653,15.6441917 C58.3127322,15.6441917 58.7324653,16.0639247 58.7324653,16.5816917 L58.7324653,17.5191917 C58.7324653,18.0369586 58.3127322,18.4566917 57.7949653,18.4566917 L56.8574653,18.4566917 C56.3396983,18.4566917 55.9199653,18.0369586 55.9199653,17.5191917 L55.9199653,16.5816917 C55.9199653,16.0639247 56.3396983,15.6441917 56.8574653,15.6441917 L57.7949653,15.6441917 Z" id="矩形" fill="#D4D7DB" transform="translate(57.3262, 17.0504) rotate(30) translate(-57.3262, -17.0504)"></path>
                </g>
                <path d="M11.1357988,14.9901667 C9.61430217,15.2430745 9.03278123,15.985984 9.39123597,17.2188953 C9.92891807,19.0682622 12.3691171,19.2223659 12.829028,19.2223659 C13.1356353,19.2223659 14.2677061,19.2223659 16.2252404,19.2223659 C17.8259328,19.0399051 18.359112,19.411889 17.8247778,20.3383177 C17.2904437,21.2647464 15.060784,24.2753095 11.1357988,29.3700071 C10.3143011,30.7045831 10.1875553,31.8097724 10.7555612,32.6855747 C11.60757,33.9992782 13.3589177,34.5504158 14.2262841,34.5504158 C14.8045283,34.5504158 17.4403001,34.5504158 22.1335996,34.5504158 C23.4808394,34.4942678 24.4166746,34.000443 24.9411052,33.0689414 C25.4418712,31.6761704 25.1848909,30.4350079 23.67279,30.1643723 C22.9231948,30.1643723 21.3326606,30.1643723 18.9011876,30.1643723 C17.4725915,30.1390136 17.1137883,29.6499722 17.8247778,28.6972481 C18.2641635,27.9869887 20.2135009,25.2006786 23.67279,20.3383177 C24.3506766,19.3979355 24.4939516,18.3581281 24.1026152,17.2188953 C23.4387295,15.4361032 22.0159736,14.9901667 21.3895453,14.9901667 C20.9719265,14.9901667 17.5540109,14.9901667 11.1357988,14.9901667 Z" id="路径-6" fill="url(#linearGradient-1)"></path>
                <path d="M31.7729238,37.5781823 C30.7817103,37.3021314 30.2206664,37.5873507 30.089792,38.4338402 C29.8934805,39.7035744 31.3253992,40.4847212 31.6034654,40.6143856 C31.7888429,40.7008285 32.4733028,41.0199974 33.6568453,41.5718923 C34.6760799,41.9128641 34.8935699,42.28809 34.3093153,42.6975701 C33.7250607,43.1070502 31.5282096,44.2986469 27.718762,46.2723602 C26.8458154,46.8476488 26.4575936,47.480122 26.5540967,48.1697798 C26.6988515,49.2042665 27.6023475,50.0312531 28.1267648,50.2757929 C28.4763763,50.4388194 30.0699871,51.1819323 32.9075973,52.5051317 C33.7379803,52.8510164 34.4430203,52.8162891 35.0227174,52.4009497 C35.718154,51.7000509 35.912707,50.8771818 35.0747788,50.2872409 C34.6215669,50.0759047 33.659916,49.6274795 32.1898261,48.9419653 C31.3332338,48.5238638 31.2541754,48.1270264 31.952651,47.7514529 C32.4185535,47.4459015 34.3826948,46.3108578 37.8450748,44.3463219 C38.5200565,43.9688777 38.8998386,43.380595 38.9844212,42.5814739 C39.0856593,41.3164103 38.3511731,40.6456704 37.9724291,40.4690591 C37.719933,40.3513183 35.6534313,39.3876927 31.7729238,37.5781823 Z" id="路径-6" fill="url(#linearGradient-2)"></path>
                <ellipse id="椭圆形" fill="url(#linearGradient-3)" cx="78.9244186" cy="125.145349" rx="63.2267442" ry="20.494186"></ellipse>
                <g id="编组-3" transform="translate(40.989, 37.494)">
                    <path d="M46.5191474,60.8509117 C48.1271544,67.5630682 48.6805023,70.6229342 48.1791911,70.0305099 C47.782656,69.5619047 45.2127373,69.4094684 40.1343995,68.969494 C39.1455095,68.883819 37.4066168,68.6559101 34.9177213,68.2857672 L34.9177719,65.2937215 C39.0150732,64.4622102 42.8738552,62.9704289 46.3791357,60.9337846 Z" id="形状结合" fill="#CED1D5"></path>
                    <path d="M27.3309302,66.052428 C48.35975,66.052428 65.4069767,48.942177 65.4069767,27.8356128 C65.4069767,17.114054 61.0081738,7.42368903 53.9231508,0.483432385 C43.3298689,-5.39657214 -6.85421022,44.0885344 0.78829877,55.2362815 C7.64649716,61.9301057 17.0090769,66.052428 27.3309302,66.052428 Z" id="椭圆形" fill="url(#linearGradient-4)"></path>
                    <g id="椭圆形">
                        <use fill="url(#linearGradient-5)" fill-rule="evenodd" xlink:href="#path-6"></use>
                        <use fill="black" fill-opacity="1" filter="url(#filter-7)" xlink:href="#path-6"></use>
                    </g>
                    <polygon id="矩形" fill="url(#linearGradient-8)" transform="translate(26.206, 24.669) rotate(-315) translate(-26.206, -24.669)" points="15.5382083 22.0793355 36.813536 22.2354347 36.8738559 27.2586179 15.5474175 27.0704573"></polygon>
                    <ellipse id="椭圆形" fill="url(#radialGradient-9)" cx="16.6554031" cy="14.2632859" rx="6.04946534" ry="6.07183045"></ellipse>
                    <path d="M45.1614978,75.2180233 L34.9177213,68.2857672 C40.7216789,69.0575094 45.2411809,69.1487926 48.476227,68.5596168 C50.1752446,69.7093905 49.0703349,71.9288593 45.1614978,75.2180233 Z" id="路径-2" fill="#F5F5F5"></path>
                    <path d="M50.1262076,44.6224382 C53.6059078,44.6224382 56.552729,47.1884128 57.0312291,50.6350562 L60.2495552,73.816704 L60.2495552,73.816704 L45.1614978,75.2180233 L43.1806919,73.816704 L43.87402,50.6899972 C43.9753519,47.3099613 46.7446532,44.6224382 50.1262076,44.6224382 Z" id="矩形" fill="#F5F5F5"></path>
                    <path d="M52.2613131,44.6224382 C55.7410132,44.6224382 58.6878344,47.1884128 59.1663345,50.6350562 L62.3846606,73.816704 L62.3846606,73.816704 L45.1614978,75.2180233 L45.9868807,50.6892895 C46.100722,47.3061532 48.876262,44.6224382 52.2613131,44.6224382 Z" id="矩形" fill="#D8DBDE"></path>
                    <g id="椭圆形">
                        <use fill="black" fill-opacity="1" filter="url(#filter-12)" xlink:href="#path-11"></use>
                        <use fill="url(#radialGradient-10)" fill-rule="evenodd" xlink:href="#path-11"></use>
                    </g>
                    <path d="M61.5195183,67.8117089 L81.3020298,70.1025811 C86.2091451,71.2516408 87.790081,72.1627835 86.0448373,72.8360092 C81.4808803,73.0191398 73.5941547,73.3460381 62.3846606,73.816704 L61.5195183,67.8117089 Z" id="路径-5" fill="url(#linearGradient-13)" opacity="0.242143903"></path>
                </g>
            </g>
        </g>
    </g>
</svg>