<?xml version="1.0" encoding="UTF-8"?>
<svg width="150px" height="150px" viewBox="0 0 150 150" version="1.1" xmlns="http://www.w3.org/2000/svg" xmlns:xlink="http://www.w3.org/1999/xlink">
    <title>空页面/搜索无结果/normal</title>
    <defs>
        <linearGradient x1="50%" y1="-13.8193404%" x2="50%" y2="64.8839293%" id="linearGradient-1">
            <stop stop-color="#E2E4E8" offset="0%"></stop>
            <stop stop-color="#F4F6F8" stop-opacity="0" offset="100%"></stop>
        </linearGradient>
        <linearGradient x1="50%" y1="96.0627986%" x2="50%" y2="-11.7761442%" id="linearGradient-2">
            <stop stop-color="#E4E6E9" offset="0%"></stop>
            <stop stop-color="#E9EBEE" offset="100%"></stop>
        </linearGradient>
        <path d="M7.5,0 L68.4375,0 C72.5796356,-7.6089797e-16 75.9375,3.35786438 75.9375,7.5 L75.9375,48.75 L75.9375,48.75 L0,48.75 L0,7.5 C-5.07265313e-16,3.35786438 3.35786438,1.64907639e-15 7.5,0 Z" id="path-3"></path>
        <linearGradient x1="53.1715999%" y1="24.3654749%" x2="50%" y2="67.3484706%" id="linearGradient-5">
            <stop stop-color="#FFFFFF" offset="0%"></stop>
            <stop stop-color="#E9EBEE" offset="100%"></stop>
        </linearGradient>
        <path d="M9.375,3.75 L66.5625,3.75 C69.6691017,3.75 72.1875,6.26839828 72.1875,9.375 L72.1875,44.0625 L72.1875,44.0625 L3.75,44.0625 L3.75,9.375 C3.75,6.26839828 6.26839828,3.75 9.375,3.75 Z" id="path-6"></path>
        <linearGradient x1="50%" y1="-46.9923687%" x2="50%" y2="132.436692%" id="linearGradient-8">
            <stop stop-color="#C5C7CA" offset="0%"></stop>
            <stop stop-color="#E8EAED" offset="100%"></stop>
        </linearGradient>
        <linearGradient x1="50%" y1="181.674539%" x2="50%" y2="-31.6799487%" id="linearGradient-9">
            <stop stop-color="#C5C8CD" offset="0%"></stop>
            <stop stop-color="#E9EBEE" offset="100%"></stop>
        </linearGradient>
        <linearGradient x1="50%" y1="181.674539%" x2="50%" y2="-31.6799487%" id="linearGradient-10">
            <stop stop-color="#C5C8CD" offset="0%"></stop>
            <stop stop-color="#E9EBEE" offset="100%"></stop>
        </linearGradient>
    </defs>
    <g id="新" stroke="none" stroke-width="1" fill="none" fill-rule="evenodd">
        <g id="跨端协同-切图" transform="translate(-97, -390)">
            <g id="编组-2" transform="translate(97, 390)">
                <rect id="矩形" x="0" y="0" width="150" height="150"></rect>
                <g id="编组-3" transform="translate(15.9375, 17.0962)" fill-rule="nonzero">
                    <path d="M2.34375,20.4037588 C3.63816738,20.4037588 4.6875,21.4530914 4.6875,22.7475088 C4.6875,24.0419261 3.63816738,25.0912588 2.34375,25.0912588 C1.04933262,25.0912588 0,24.0419261 0,22.7475088 C0,21.4530914 1.04933262,20.4037588 2.34375,20.4037588 Z M2.34375,21.3412588 C1.56709957,21.3412588 0.9375,21.9708583 0.9375,22.7475088 C0.9375,23.5241592 1.56709957,24.1537588 2.34375,24.1537588 C3.12040043,24.1537588 3.75,23.5241592 3.75,22.7475088 C3.75,21.9708583 3.12040043,21.3412588 2.34375,21.3412588 Z" id="椭圆形" fill="#D4D7DB"></path>
                    <path d="M96.9741854,1.23450796 L96.3236487,2.1734841 C96.1932569,2.36168982 96.1233953,2.58520083 96.1233953,2.8141624 C96.1233953,3.43548275 96.627075,3.9391624 97.2483953,3.9391624 L98.4407268,3.9391624 C98.638107,3.9391624 98.8320133,3.8872322 99.0029751,3.78858626 C99.5411345,3.47806509 99.7256718,2.79007353 99.4151506,2.2519141 L98.8733559,1.31293797 C98.790261,1.16892758 98.6762789,1.04512568 98.5396103,0.950439649 C98.0288869,0.596602791 97.3280223,0.723784508 96.9741854,1.23450796 Z M98.0057117,1.72106183 C98.0284898,1.73684284 98.0474869,1.75747649 98.061336,1.78147822 L98.6031308,2.72045435 C98.6548843,2.81014759 98.6241281,2.92481285 98.5344348,2.97656638 C98.5059412,2.99300737 98.4736235,3.0016624 98.4407268,3.0016624 L97.2483953,3.0016624 C97.1448419,3.0016624 97.0608953,2.91771579 97.0608953,2.8141624 C97.0608953,2.77600214 97.0725389,2.7387503 97.0942709,2.70738268 L97.7448076,1.76840655 C97.8037804,1.68328597 97.9205912,1.66208902 98.0057117,1.72106183 Z" id="三角形" fill-opacity="0.509045154" fill="#D4D7DB" transform="translate(97.8447, 2.3446) rotate(45) translate(-97.8447, -2.3446)"></path>
                    <path d="M9.48666802,60.8009936 L7.81977267,63.2069684 C7.5481232,63.5990636 7.40257812,64.0647115 7.40257812,64.5417148 C7.40257812,65.8361322 8.45191074,66.8854648 9.74632812,66.8854648 L12.8014851,66.8854648 C13.2126938,66.8854648 13.6166654,66.7772769 13.9728357,66.5717645 C15.0940012,65.9248454 15.4784539,64.4915297 14.8315348,63.3703642 L13.4432732,60.9643894 C13.2701589,60.6643678 13.0326961,60.4064472 12.7479699,60.2091846 C11.6839627,59.4720245 10.2238281,59.7369864 9.48666802,60.8009936 Z M11.6801728,61.750429 C11.737118,61.7898815 11.7846106,61.8414656 11.8192334,61.9014699 L13.207495,64.3074447 C13.3368788,64.5316778 13.2599883,64.818341 13.0357552,64.9477248 C12.9645212,64.9888272 12.8837268,65.0104648 12.8014851,65.0104648 L9.74632812,65.0104648 C9.48744465,65.0104648 9.27757812,64.8005983 9.27757812,64.5417148 C9.27757812,64.4463142 9.30668714,64.3531846 9.36101703,64.2747655 L11.0279124,61.8687908 C11.1753444,61.6559893 11.4673713,61.6029969 11.6801728,61.750429 Z" id="三角形" fill="#E9EDF1" transform="translate(11.2741, 63.3386) rotate(198) translate(-11.2741, -63.3386)"></path>
                    <path d="M110.606675,41.3671008 L109.669175,41.3671008 C108.892525,41.3671008 108.262925,41.9967004 108.262925,42.7733508 L108.262925,43.7108508 C108.262925,44.4875012 108.892525,45.1171008 109.669175,45.1171008 L110.606675,45.1171008 C111.383325,45.1171008 112.012925,44.4875012 112.012925,43.7108508 L112.012925,42.7733508 C112.012925,41.9967004 111.383325,41.3671008 110.606675,41.3671008 Z M110.606675,42.3046008 C110.865558,42.3046008 111.075425,42.5144673 111.075425,42.7733508 L111.075425,43.7108508 C111.075425,43.9697343 110.865558,44.1796008 110.606675,44.1796008 L109.669175,44.1796008 C109.410292,44.1796008 109.200425,43.9697343 109.200425,43.7108508 L109.200425,42.7733508 C109.200425,42.5144673 109.410292,42.3046008 109.669175,42.3046008 L110.606675,42.3046008 Z" id="矩形" fill="#D4D7DB" transform="translate(110.1379, 43.2421) rotate(-29) translate(-110.1379, -43.2421)"></path>
                    <path d="M64.2909945,14.7066917 L63.3534945,14.7066917 C62.3179606,14.7066917 61.4784945,15.5461578 61.4784945,16.5816917 L61.4784945,17.5191917 C61.4784945,18.5547256 62.3179606,19.3941917 63.3534945,19.3941917 L64.2909945,19.3941917 C65.3265284,19.3941917 66.1659945,18.5547256 66.1659945,17.5191917 L66.1659945,16.5816917 C66.1659945,15.5461578 65.3265284,14.7066917 64.2909945,14.7066917 Z M64.2909945,15.6441917 C64.8087615,15.6441917 65.2284945,16.0639247 65.2284945,16.5816917 L65.2284945,17.5191917 C65.2284945,18.0369586 64.8087615,18.4566917 64.2909945,18.4566917 L63.3534945,18.4566917 C62.8357276,18.4566917 62.4159945,18.0369586 62.4159945,17.5191917 L62.4159945,16.5816917 C62.4159945,16.0639247 62.8357276,15.6441917 63.3534945,15.6441917 L64.2909945,15.6441917 Z" id="矩形" fill="#D4D7DB" transform="translate(63.8222, 17.0504) rotate(30) translate(-63.8222, -17.0504)"></path>
                </g>
                <ellipse id="椭圆形" fill="url(#linearGradient-1)" opacity="0.512846447" cx="75.4142442" cy="125.494186" rx="63.2267442" ry="20.494186"></ellipse>
                <g id="编组" transform="translate(37.5, 42.1875)">
                    <g id="矩形-+-路径-4-蒙版">
                        <mask id="mask-4" fill="white">
                            <use xlink:href="#path-3"></use>
                        </mask>
                        <use id="蒙版" fill="url(#linearGradient-2)" xlink:href="#path-3"></use>
                        <mask id="mask-7" fill="white">
                            <use xlink:href="#path-6"></use>
                        </mask>
                        <use id="蒙版" fill="url(#linearGradient-5)" xlink:href="#path-6"></use>
                    </g>
                    <path d="M0,47.8125 L75.9375,47.8125 L75.9375,48.75 C75.9375,52.8921356 72.5796356,56.25 68.4375,56.25 L7.5,56.25 C3.35786438,56.25 1.39544373e-15,52.8921356 0,48.75 L0,47.8125 L0,47.8125 Z" id="矩形" fill="#E9EBEE"></path>
                    <circle id="椭圆形" stroke="#D7D9DC" stroke-width="0.9375" cx="37.96875" cy="52.03125" r="1.875"></circle>
                    <path d="M26.2209205,65.625 C25.4645751,65.6283729 24.9210436,65.5206162 24.5903262,65.3016496 C24.2770149,65.0942076 24.3056173,64.817066 24.6761333,64.4702248 L24.7410518,64.4117726 L28.1704976,63.0508114 C29.5147947,62.5173327 30.4434512,61.2715131 30.5707221,59.830841 L30.8870583,56.25 L30.8870583,56.25 L44.1129417,56.25 L44.4292779,59.830841 C44.5565488,61.2715131 45.4852053,62.5173327 46.8295024,63.0508114 L50.2589482,64.4117726 L50.2589482,64.4117726 C50.6901494,64.7860573 50.7403912,65.082683 50.4096738,65.3016496 C50.1010042,65.5060185 49.6069499,65.6135111 48.927511,65.6241274 L26.2209205,65.625 Z" id="路径" fill="url(#linearGradient-8)"></path>
                    <rect id="矩形" fill="#D0D2D5" x="24.375" y="63.75" width="26.25" height="1.875" rx="0.9375"></rect>
                </g>
                <g id="编组-5" transform="translate(90, 91.875)">
                    <rect id="矩形" fill="url(#linearGradient-9)" x="0" y="0" width="12.1875" height="10.3125" rx="0.9375"></rect>
                    <rect id="矩形" fill-opacity="0.6" fill="#FFFFFF" x="1.875" y="1.875" width="5.625" height="1" rx="0.5"></rect>
                    <rect id="矩形" fill-opacity="0.6" fill="#FFFFFF" x="1.875" y="3.75" width="8.4375" height="1" rx="0.5"></rect>
                </g>
                <g id="编组-5" transform="translate(42.1875, 31.875)">
                    <path d="M0.9375,0 L13.6253592,0 L13.6253592,0 L16.875,3.36977454 L16.875,16.875 C16.875,17.392767 16.455267,17.8125 15.9375,17.8125 L0.9375,17.8125 C0.419733047,17.8125 -6.02725651e-16,17.392767 0,16.875 L0,0.9375 C-6.34081642e-17,0.419733047 0.419733047,2.06134549e-16 0.9375,0 Z" id="矩形" fill="url(#linearGradient-10)"></path>
                    <polygon id="矩形" fill="#CACDD2" transform="translate(15.2502, 1.6849) rotate(-180) translate(-15.2502, -1.6849)" points="13.6253592 0 16.875 0 16.875 3.36977454"></polygon>
                    <path d="M4.21875,5.625 L12.65625,5.625 C12.9151335,5.625 13.125,5.83486652 13.125,6.09375 L13.125,7.96875 C13.125,8.22763348 12.9151335,8.4375 12.65625,8.4375 L4.21875,8.4375 C3.95986652,8.4375 3.75,8.22763348 3.75,7.96875 L3.75,6.09375 C3.75,5.83486652 3.95986652,5.625 4.21875,5.625 Z" id="矩形" fill-opacity="0.6" fill="#FFFFFF"></path>
                    <path d="M4.21875,10.3125 L12.65625,10.3125 C12.9151335,10.3125 13.125,10.5223665 13.125,10.78125 C13.125,11.0401335 12.9151335,11.25 12.65625,11.25 L4.21875,11.25 C3.95986652,11.25 3.75,11.0401335 3.75,10.78125 C3.75,10.5223665 3.95986652,10.3125 4.21875,10.3125 Z" id="矩形" fill-opacity="0.6" fill="#FFFFFF"></path>
                    <rect id="矩形" fill-opacity="0.6" fill="#FFFFFF" x="3.75" y="13.125" width="4.61538462" height="1" rx="0.5"></rect>
                </g>
            </g>
        </g>
    </g>
</svg>