<?xml version="1.0" encoding="UTF-8"?>
<svg width="52px" height="52px" viewBox="0 0 52 52" version="1.1" xmlns="http://www.w3.org/2000/svg" xmlns:xlink="http://www.w3.org/1999/xlink">
    <title>电脑-离线</title>
    <defs>
        <filter x="-12.3%" y="-11.0%" width="124.7%" height="127.6%" filterUnits="objectBoundingBox" id="filter-1">
            <feOffset dx="0" dy="1" in="SourceAlpha" result="shadowOffsetOuter1"></feOffset>
            <feGaussianBlur stdDeviation="1.5" in="shadowOffsetOuter1" result="shadowBlurOuter1"></feGaussianBlur>
            <feColorMatrix values="0 0 0 0 0   0 0 0 0 0   0 0 0 0 0  0 0 0 0.15 0" type="matrix" in="shadowBlurOuter1" result="shadowMatrixOuter1"></feColorMatrix>
            <feMerge>
                <feMergeNode in="shadowMatrixOuter1"></feMergeNode>
                <feMergeNode in="SourceGraphic"></feMergeNode>
            </feMerge>
        </filter>
        <linearGradient x1="18.6039735%" y1="29.1545758%" x2="121.650842%" y2="91.9974251%" id="linearGradient-2">
            <stop stop-color="#3E4867" offset="0%"></stop>
            <stop stop-color="#6C7376" offset="100%"></stop>
        </linearGradient>
        <linearGradient x1="48.4405926%" y1="0%" x2="90.9439633%" y2="100%" id="linearGradient-3">
            <stop stop-color="#FFFFFF" stop-opacity="0.333835842" offset="0%"></stop>
            <stop stop-color="#FFFFFF" stop-opacity="0" offset="100%"></stop>
        </linearGradient>
        <linearGradient x1="50%" y1="0%" x2="50%" y2="65.4361786%" id="linearGradient-4">
            <stop stop-color="#68778F" offset="0%"></stop>
            <stop stop-color="#A6B0C0" offset="100%"></stop>
        </linearGradient>
        <filter x="-54.7%" y="-44.9%" width="209.4%" height="209.4%" filterUnits="objectBoundingBox" id="filter-5">
            <feOffset dx="0" dy="1" in="SourceAlpha" result="shadowOffsetOuter1"></feOffset>
            <feGaussianBlur stdDeviation="1.5" in="shadowOffsetOuter1" result="shadowBlurOuter1"></feGaussianBlur>
            <feColorMatrix values="0 0 0 0 0   0 0 0 0 0   0 0 0 0 0  0 0 0 0.15 0" type="matrix" in="shadowBlurOuter1" result="shadowMatrixOuter1"></feColorMatrix>
            <feMerge>
                <feMergeNode in="shadowMatrixOuter1"></feMergeNode>
                <feMergeNode in="SourceGraphic"></feMergeNode>
            </feMerge>
        </filter>
    </defs>
    <g id="电脑-离线" stroke="none" stroke-width="1" fill="none" fill-rule="evenodd">
        <g id="编组-3">
            <rect id="矩形" x="0" y="0" width="52" height="52"></rect>
            <g id="编组-2" filter="url(#filter-1)" transform="translate(6.0465, 7.8605)" opacity="0.300000012">
                <g id="编组">
                    <path d="M3.53875236,0 L36.9728755,0 C38.9272745,0 40.5116279,1.5843534 40.5116279,3.53875236 L40.5116279,27.0303776 L40.5116279,27.0303776 L0,27.0303776 L0,3.53875236 C0,1.5843534 1.5843534,0 3.53875236,0 Z" id="path-2" fill="#ECF3FD" fill-rule="nonzero"></path>
                    <path d="M4.71300245,1.19451864 L35.7986255,1.19451864 C37.7530244,1.19451864 39.3373778,2.77887204 39.3373778,4.733271 L39.3373778,25.835859 L39.3373778,25.835859 L1.17425008,25.835859 L1.17425008,4.733271 C1.17425008,2.77887204 2.75860348,1.19451864 4.71300245,1.19451864 Z" id="path-5" fill="url(#linearGradient-2)" fill-rule="nonzero"></path>
                    <path d="M4.71300245,1.19451864 L35.7986255,1.19451864 C37.7530244,1.19451864 39.3373778,2.77887204 39.3373778,4.733271 L39.3373778,25.835859 L39.3373778,25.835859 L1.17425008,25.835859 L1.17425008,4.733271 C1.17425008,2.77887204 2.75860348,1.19451864 4.71300245,1.19451864 Z" id="path-5"></path>
                    <rect id="矩形" fill="#6E88A3" fill-rule="nonzero" x="4.12740142" y="4.57431749" width="2.26086957" height="2.26086957" rx="0.565217391"></rect>
                    <path d="M4.71300245,1.19451864 L35.7986255,1.19451864 C37.7530244,1.19451864 39.3373778,2.77887204 39.3373778,4.733271 L39.3373778,25.835859 L39.3373778,25.835859 L1.17425008,25.835859 L1.17425008,4.733271 C1.17425008,2.77887204 2.75860348,1.19451864 4.71300245,1.19451864 Z" id="path-5"></path>
                    <rect id="矩形" fill="#6E88A3" fill-rule="nonzero" x="4.12740142" y="9.09605662" width="2.26086957" height="2.26086957" rx="0.565217391"></rect>
                    <path d="M4.71300245,1.19451864 L35.7986255,1.19451864 C37.7530244,1.19451864 39.3373778,2.77887204 39.3373778,4.733271 L39.3373778,25.835859 L39.3373778,25.835859 L1.17425008,25.835859 L1.17425008,4.733271 C1.17425008,2.77887204 2.75860348,1.19451864 4.71300245,1.19451864 Z" id="path-5"></path>
                    <rect id="矩形" fill="#6E88A3" fill-rule="nonzero" x="4.12740142" y="13.6177958" width="2.26086957" height="2.26086957" rx="0.565217391"></rect>
                    <path d="M4.71300245,1.19451864 L35.7986255,1.19451864 C37.7530244,1.19451864 39.3373778,2.77887204 39.3373778,4.733271 L39.3373778,25.835859 L39.3373778,25.835859 L1.17425008,25.835859 L1.17425008,4.733271 C1.17425008,2.77887204 2.75860348,1.19451864 4.71300245,1.19451864 Z" id="path-5"></path>
                    <path d="M36.2069547,1.19448375 C37.9358461,1.19448375 39.3373895,2.59602715 39.3373895,4.32491854 L39.3373895,25.8358241 L30.6512617,25.8349651 L14.7832617,1.19396512 L36.2069547,1.19448375 Z" id="形状结合" fill="url(#linearGradient-3)"></path>
                    <path d="M0,26.876681 L40.5116279,26.876681 L40.5116279,27.8061211 C40.5116279,29.76052 38.9272745,31.3448734 36.9728755,31.3448734 L3.53875236,31.3448734 C1.5843534,31.3448734 0,29.76052 0,27.8061211 L0,26.876681 L0,26.876681 Z" id="矩形" fill="#C1C5CB" fill-rule="nonzero"></path>
                    <path d="M13.9015887,36.2791218 C13.4980623,36.2808566 13.2080768,36.2241426 13.031632,36.1088971 C12.8644738,35.9997171 12.8797338,35.8538532 13.0774119,35.6713053 L13.1120473,35.640541 L14.0160754,35.1972704 C14.941643,34.7434383 15.5630484,33.8392406 15.6549933,32.8125054 L15.7864209,31.3448734 L15.7864209,31.3448734 L24.0520124,31.3448734 L24.18344,32.8125054 C24.275385,33.8392406 24.8967903,34.7434383 25.822358,35.1972704 L26.726386,35.640541 L26.726386,35.640541 C26.956441,35.8375329 26.9832461,35.9936516 26.8068013,36.1088971 C26.6421196,36.2164596 26.3785311,36.2730346 26.0160361,36.2786222 L13.9015887,36.2791218 Z" id="路径" fill="url(#linearGradient-4)" fill-rule="nonzero"></path>
                </g>
            </g>
            <g id="DTK/Button/Action/List_Add_normal" filter="url(#filter-5)" transform="translate(37.8695, 31.087)" fill-rule="nonzero">
                <g id="list_add_normal">
                    <rect id="Rectangle-9" fill-opacity="0.90096427" fill="#B8C3CF" x="0" y="0" width="10.173913" height="10.173913" rx="5.0869565"></rect>
                    <path d="M5.0869565,-0.56521739 C8.20856594,-0.56521739 10.7391304,1.96534706 10.7391304,5.0869565 C10.7391304,8.20856594 8.20856594,10.7391304 5.0869565,10.7391304 C1.96534706,10.7391304 -0.56521739,8.20856594 -0.56521739,5.0869565 C-0.56521739,1.96534706 1.96534706,-0.56521739 5.0869565,-0.56521739 Z M5.0869565,0.56521739 C2.58966895,0.56521739 0.56521739,2.58966895 0.56521739,5.0869565 C0.56521739,7.58424405 2.58966895,9.60869561 5.0869565,9.60869561 C7.58424405,9.60869561 9.60869561,7.58424405 9.60869561,5.0869565 C9.60869561,2.58966895 7.58424405,0.56521739 5.0869565,0.56521739 Z" id="Rectangle-9" fill="#FFFFFF"></path>
                </g>
            </g>
            <rect id="矩形" x="0" y="0" width="52" height="52"></rect>
        </g>
    </g>
</svg>