<?xml version="1.0" encoding="UTF-8"?>
<svg width="52px" height="52px" viewBox="0 0 52 52" version="1.1" xmlns="http://www.w3.org/2000/svg" xmlns:xlink="http://www.w3.org/1999/xlink">
    <title>电脑-协同中</title>
    <defs>
        <filter x="-11.6%" y="-11.0%" width="123.3%" height="127.6%" filterUnits="objectBoundingBox" id="filter-1">
            <feOffset dx="0" dy="1" in="SourceAlpha" result="shadowOffsetOuter1"></feOffset>
            <feGaussianBlur stdDeviation="1.5" in="shadowOffsetOuter1" result="shadowBlurOuter1"></feGaussianBlur>
            <feColorMatrix values="0 0 0 0 0   0 0 0 0 0   0 0 0 0 0  0 0 0 0.15 0" type="matrix" in="shadowBlurOuter1" result="shadowMatrixOuter1"></feColorMatrix>
            <feMerge>
                <feMergeNode in="shadowMatrixOuter1"></feMergeNode>
                <feMergeNode in="SourceGraphic"></feMergeNode>
            </feMerge>
        </filter>
        <linearGradient x1="18.6039735%" y1="29.1545758%" x2="120.533046%" y2="91.5042686%" id="linearGradient-2">
            <stop stop-color="#192A5E" offset="0%"></stop>
            <stop stop-color="#3D7592" offset="100%"></stop>
        </linearGradient>
        <linearGradient x1="50%" y1="0%" x2="50%" y2="65.4361786%" id="linearGradient-3">
            <stop stop-color="#68778F" offset="0%"></stop>
            <stop stop-color="#A6B0C0" offset="100%"></stop>
        </linearGradient>
        <linearGradient x1="48.4405926%" y1="0%" x2="90.9439633%" y2="100%" id="linearGradient-4">
            <stop stop-color="#FFFFFF" stop-opacity="0.333835842" offset="0%"></stop>
            <stop stop-color="#FFFFFF" stop-opacity="0" offset="100%"></stop>
        </linearGradient>
    </defs>
    <g id="电脑-协同中" stroke="none" stroke-width="1" fill="none" fill-rule="evenodd">
        <g id="编组-2">
            <rect id="矩形" x="0" y="0" width="52" height="52"></rect>
            <g id="编组" filter="url(#filter-1)" transform="translate(6.0465, 7.8605)">
                <path d="M3.13043478,0 L37.3811931,0 C39.1100845,-3.17592196e-16 40.5116279,1.40154339 40.5116279,3.13043478 L40.5116279,27.0303776 L40.5116279,27.0303776 L0,27.0303776 L0,3.13043478 C-2.11728131e-16,1.40154339 1.40154339,7.61681406e-16 3.13043478,0 Z" id="蒙版" fill="#CADCF6"></path>
                <path d="M4.30468487,1.19451864 L36.206943,1.19451864 C37.9358344,1.19451864 39.3373778,2.59606203 39.3373778,4.32495342 L39.3373778,25.835859 L39.3373778,25.835859 L1.17425008,25.835859 L1.17425008,4.32495342 C1.17425008,2.59606203 2.57579348,1.19451864 4.30468487,1.19451864 Z" id="蒙版" fill="url(#linearGradient-2)"></path>
                <rect id="矩形" fill="#6E88A3" x="4.12740142" y="4.57431749" width="2.26086957" height="2.26086957" rx="0.5"></rect>
                <rect id="矩形" fill="#6E88A3" x="4.12740142" y="9.09605662" width="2.26086957" height="2.26086957" rx="0.5"></rect>
                <rect id="矩形" fill="#6E88A3" x="4.12740142" y="13.6177958" width="2.26086957" height="2.26086957" rx="0.5"></rect>
                <path d="M0,26.8766694 L40.5116279,26.8766694 L40.5116279,28.214427 C40.5116279,29.9433184 39.1100845,31.3448618 37.3811931,31.3448618 L3.13043478,31.3448618 C1.40154339,31.3448618 6.55817341e-16,29.9433184 0,28.214427 L0,26.8766694 L0,26.8766694 Z" id="矩形" fill="#A0BEE9"></path>
                <path d="M13.9015887,36.2790698 C13.4980623,36.280845 13.2080768,36.224131 13.031632,36.1088855 C12.8644738,35.9997055 12.8797338,35.8538416 13.0774119,35.6712937 L13.1120473,35.6405293 L14.1880932,35.1129135 C15.0068646,34.7114466 15.5565694,33.9115795 15.6379053,33.0033137 L15.7864209,31.3448618 L15.7864209,31.3448618 L24.0520124,31.3448618 L24.2005281,33.0033137 C24.281864,33.9115795 24.8315688,34.7114466 25.6503402,35.1129135 L26.726386,35.6405293 L26.726386,35.6405293 C26.956441,35.8375212 26.9832461,35.9936399 26.8068013,36.1088855 C26.6421196,36.2164479 26.3785311,36.273023 26.0160361,36.2786105 L13.9015887,36.2790698 Z" id="路径" fill="url(#linearGradient-3)"></path>
                <rect id="Rectangle-9" fill="#53DD00" x="28.9534884" y="22.1395349" width="14" height="14" rx="7"></rect>
                <path d="M35.9534884,22.1395349 C39.8194816,22.1395349 42.9534884,25.2735416 42.9534884,29.1395349 C42.9534884,33.0055281 39.8194816,36.1395349 35.9534884,36.1395349 C32.0874951,36.1395349 28.9534884,33.0055281 28.9534884,29.1395349 C28.9534884,25.2735416 32.0874951,22.1395349 35.9534884,22.1395349 Z M35.9534884,23.1395349 C32.6397799,23.1395349 29.9534884,25.8258264 29.9534884,29.1395349 C29.9534884,32.4532434 32.6397799,35.1395349 35.9534884,35.1395349 C39.2671969,35.1395349 41.9534884,32.4532434 41.9534884,29.1395349 C41.9534884,25.8258264 39.2671969,23.1395349 35.9534884,23.1395349 Z" id="Rectangle-9" fill="#FFFFFF" fill-rule="nonzero"></path>
                <path d="M33.8045086,29.235832 C33.9189947,29.3499619 33.9317154,29.5271239 33.8426706,29.655261 L33.8045086,29.7007954 L32.9441481,30.5584793 C32.5027481,30.9985061 32.5027481,31.7119304 32.9441481,32.1519572 C33.3623165,32.5688246 34.0266269,32.590765 34.470705,32.2177783 L34.5425988,32.1519572 L35.3904762,31.3067176 C35.5192731,31.1783215 35.7280939,31.1783215 35.8568908,31.3067176 C35.9713768,31.4208475 35.9840975,31.5980095 35.8950528,31.7261466 L35.8568908,31.7716811 L35.0090134,32.6169206 C34.3100198,33.3137396 33.1767272,33.3137396 32.4777336,32.6169206 C31.8046286,31.9459098 31.7796988,30.8734274 32.4029441,30.1726779 L32.4777336,30.0935159 L33.3380941,29.235832 C33.4668909,29.1074359 33.6757118,29.1074359 33.8045086,29.235832 Z M36.852546,28.2404772 C36.9871358,28.375067 36.9871358,28.5932802 36.852546,28.7278701 L35.5418235,30.0385925 C35.4072337,30.1731823 35.1890205,30.1731823 35.0544307,30.0385925 C34.9198409,29.9040027 34.9198409,29.6857895 35.0544307,29.5511997 L36.3651532,28.2404772 C36.499743,28.1058874 36.7179562,28.1058874 36.852546,28.2404772 Z M39.4308741,25.6621491 C40.101885,26.33316 40.1267373,27.4056424 39.5054309,28.1063919 L39.4308741,28.1855539 L38.5731902,29.0432378 C38.4447941,29.1716339 38.2366229,29.1716339 38.1082268,29.0432378 C37.9940969,28.9291079 37.9814158,28.7519458 38.0701835,28.6238088 L38.1082268,28.5782743 L38.9659107,27.7205904 C39.4059374,27.2805637 39.4059374,26.5671394 38.9659107,26.1271126 C38.5490432,25.7102451 37.8867995,25.6883047 37.444103,26.0612914 L37.3724328,26.1271126 L36.5147489,26.9847965 C36.3863528,27.1131926 36.1781816,27.1131926 36.0497855,26.9847965 C35.9356556,26.8706666 35.9229745,26.6935045 36.0117422,26.5653675 L36.0497855,26.519833 L36.9074693,25.6621491 C37.6042883,24.9653301 38.7340551,24.9653301 39.4308741,25.6621491 Z" id="形状" fill="#FFFFFF" fill-rule="nonzero"></path>
                <path d="M36.206943,1.19451864 C37.9358344,1.19451864 39.3373778,2.59606203 39.3373778,4.32495342 L39.3373778,25.835859 L30.6512501,25.835 L14.7832501,1.194 L36.206943,1.19451864 Z" id="形状结合" fill="url(#linearGradient-4)"></path>
            </g>
        </g>
    </g>
</svg>