<?xml version="1.0" encoding="UTF-8"?>
<svg width="32px" height="32px" viewBox="0 0 32 32" version="1.1" xmlns="http://www.w3.org/2000/svg" xmlns:xlink="http://www.w3.org/1999/xlink">
    <title>button/tab_close_normal</title>
    <defs>
        <circle id="path-1" cx="10" cy="10" r="10"></circle>
        <filter x="-60.0%" y="-40.0%" width="220.0%" height="220.0%" filterUnits="objectBoundingBox" id="filter-2">
            <feMorphology radius="1" operator="dilate" in="SourceAlpha" result="shadowSpreadOuter1"></feMorphology>
            <feOffset dx="0" dy="4" in="shadowSpreadOuter1" result="shadowOffsetOuter1"></feOffset>
            <feGaussianBlur stdDeviation="3" in="shadowOffsetOuter1" result="shadowBlurOuter1"></feGaussianBlur>
            <feComposite in="shadowBlurOuter1" in2="SourceAlpha" operator="out" result="shadowBlurOuter1"></feComposite>
            <feColorMatrix values="0 0 0 0 0   0 0 0 0 0   0 0 0 0 0  0 0 0 0.05 0" type="matrix" in="shadowBlurOuter1"></feColorMatrix>
        </filter>
    </defs>
    <g id="button/tab_close_normal" stroke="none" stroke-width="1" fill="none" fill-rule="evenodd">
        <g id="清除" transform="translate(6, 6)">
            <g>
                <use fill="black" fill-opacity="1" filter="url(#filter-2)" xlink:href="#path-1"></use>
                <circle stroke-opacity="0.05" stroke="#000000" stroke-width="1" fill="#FFFFFF" fill-rule="evenodd" cx="10" cy="10" r="10.5"></circle>
            </g>
            <path d="M6.64644534,6.64643784 C6.84170748,6.45117569 7.15828997,6.45117569 7.35355212,6.64643784 L9.99999873,9.29299123 L12.6464453,6.64643784 C12.8200117,6.47287149 13.0894361,6.45358634 13.2843042,6.58858239 L13.3535521,6.64643784 C13.5488143,6.84169998 13.5488143,7.15828247 13.3535521,7.35354462 L10.7069987,9.99999123 L13.3535521,12.6464378 C13.5271185,12.8200042 13.5464036,13.0894286 13.4114076,13.2842967 L13.3535521,13.3535446 C13.15829,13.5488068 12.8417075,13.5488068 12.6464453,13.3535446 L9.99999873,10.7069912 L7.35355212,13.3535446 C7.17998577,13.527111 6.91056137,13.5463961 6.71569323,13.4114001 L6.64644534,13.3535446 C6.45118319,13.1582825 6.45118319,12.8417 6.64644534,12.6464378 L9.29299873,9.99999123 L6.64644534,7.35354462 C6.47287899,7.17997827 6.45359384,6.91055387 6.58858989,6.71568573 Z" id="形状结合" fill="#536076"></path>
        </g>
    </g>
</svg>