<?xml version="1.0" encoding="utf-8"?>
<!-- Generator: Adobe Illustrator 23.0.3, SVG Export Plug-In . SVG Version: 6.00 Build 0)  -->
<svg version="1.1" xmlns="http://www.w3.org/2000/svg" xmlns:xlink="http://www.w3.org/1999/xlink" x="0px" y="0px"
	 viewBox="0 0 16 16" style="enable-background:new 0 0 16 16;" xml:space="preserve">
<style type="text/css">
	.st0{opacity:0.57;}
	.st1{fill:#FFFFFF;}
	.st2{opacity:0.57;fill:#FFFFFF;}
	.st3{opacity:0;fill:#3D6BE5;}
	.st4{opacity:0.85;}
	.st5{fill:#3D6BE5;}
	.st6{fill:#3257CA;}
	.st7{opacity:0.35;}
	.st8{fill:#F04134;}
	.st9{fill:#D73435;}
	.st10{opacity:0.2;fill:#FFFFFF;}
	.st11{opacity:0.85;fill:#FFFFFF;}
	.st12{opacity:0.2;}
	.st13{fill:none;}
	.st14{fill:none;stroke:#000000;stroke-width:0.8043;stroke-miterlimit:10;}
	.st15{fill:none;stroke:#000000;stroke-miterlimit:10;}
	.st16{opacity:0.75;fill:#1F2022;enable-background:new    ;}
	.st17{fill:#1F2022;}
</style>
<g id="文字">
</g>
<g id="普通状态-白">
</g>
<g id="layer1">
</g>
<g id="layer1_10_">
</g>
<g id="layer1_9_">
</g>
<g id="layer1_8_">
</g>
<g id="layer1_7_">
</g>
<g id="layer1_6_">
</g>
<g id="layer1_5_">
</g>
<g id="layer1_4_">
</g>
<g id="layer1_2_">
</g>
<g id="layer1_1_">
</g>
<g id="普通状态-黑">
</g>
<g id="悬停状态">
</g>
<g id="点击状态">
	<path class="st1" d="M14,0H2C0.9,0,0,0.9,0,2v8c0,1.1,0.9,2,2,2h5v3H4.5C4.2,15,4,15.2,4,15.5S4.2,16,4.5,16h2.7h1.6h2.7
		c0.3,0,0.5-0.2,0.5-0.5S11.8,15,11.5,15H9v-3h5c1.1,0,2-0.9,2-2V2C16,0.9,15.1,0,14,0z M15,10c0,0.6-0.4,1-1,1H8.8H7.2H2
		c-0.6,0-1-0.4-1-1V2c0-0.6,0.4-1,1-1h12c0.6,0,1,0.4,1,1V10z"/>
</g>
</svg>
