<?xml version="1.0" encoding="utf-8"?>
<!-- Generator: Adobe Illustrator 24.2.1, SVG Export Plug-In . SVG Version: 6.00 Build 0)  -->
<svg version="1.1" id="选中" xmlns="http://www.w3.org/2000/svg" xmlns:xlink="http://www.w3.org/1999/xlink" x="0px" y="0px"
	 width="24px" height="24px" viewBox="0 0 24 24" style="enable-background:new 0 0 24 24;" xml:space="preserve">
<style type="text/css">
	.st0{fill:#5DB83D;}
	.st1{fill:#FFFFFF;}
</style>
<path id="椭圆_1954_2_" class="st0" d="M12,0c6.6,0,12,5.4,12,12s-5.4,12-12,12S0,18.6,0,12S5.4,0,12,0z"/>
<g id="形状_513_2_">
	<path class="st1" d="M10.5,17.4c-0.2,0-0.3-0.1-0.5-0.2l-4-4c-0.3-0.3-0.3-0.7,0-0.9c0.3-0.3,0.7-0.3,0.9,0l3.5,3.5l6.3-8.9
		c0.2-0.3,0.6-0.4,0.9-0.1C17.9,7,18,7.4,17.8,7.7L11,17.1C10.9,17.3,10.7,17.4,10.5,17.4L10.5,17.4z"/>
</g>
</svg>
