<?xml version="1.0" encoding="utf-8"?>
<!-- Generator: Adobe Illustrator 23.0.3, SVG Export Plug-In . SVG Version: 6.00 Build 0)  -->
<svg version="1.1" xmlns="http://www.w3.org/2000/svg" xmlns:xlink="http://www.w3.org/1999/xlink" x="0px" y="0px"
	 viewBox="0 0 16 16" style="enable-background:new 0 0 16 16;" xml:space="preserve">
<style type="text/css">
	.st0{opacity:0.57;}
	.st1{fill:#FFFFFF;}
	.st2{opacity:0.57;fill:#FFFFFF;}
	.st3{opacity:0;fill:#3D6BE5;}
	.st4{opacity:0.85;}
	.st5{fill:#3D6BE5;}
	.st6{fill:#3257CA;}
	.st7{opacity:0.35;}
	.st8{fill:#F04134;}
	.st9{fill:#D73435;}
	.st10{opacity:0.2;fill:#FFFFFF;}
	.st11{opacity:0.85;fill:#FFFFFF;}
	.st12{opacity:0.2;}
	.st13{fill:none;}
	.st14{fill:none;stroke:#000000;stroke-width:0.8043;stroke-miterlimit:10;}
	.st15{fill:none;stroke:#000000;stroke-miterlimit:10;}
	.st16{opacity:0.75;fill:#1F2022;enable-background:new    ;}
	.st17{fill:#1F2022;}
</style>
<g id="文字">
</g>
<g id="普通状态-白">
</g>
<g id="layer1">
</g>
<g id="layer1_10_">
</g>
<g id="layer1_9_">
</g>
<g id="layer1_8_">
</g>
<g id="layer1_7_">
</g>
<g id="layer1_6_">
</g>
<g id="layer1_5_">
</g>
<g id="layer1_4_">
</g>
<g id="layer1_2_">
</g>
<g id="layer1_1_">
</g>
<g id="普通状态-黑">
</g>
<g id="悬停状态">
</g>
<g id="点击状态">
	<path class="st1" d="M15.4,15.3c-1.1-1.9-2.8-3.2-4.8-3.8c2-1,3.4-3,3.4-5.4c0-3.3-2.7-6-6-6S2,2.7,2,6c0,2.4,1.4,4.4,3.4,5.4
		c-2.1,0.6-3.8,2-4.8,3.9c-0.1,0.2,0,0.5,0.2,0.7C0.8,16,0.9,16,1,16c0.2,0,0.3-0.1,0.4-0.3C2.7,13.4,5.2,12,8,12
		c2.7,0,5.2,1.4,6.5,3.8c0.1,0.2,0.4,0.3,0.7,0.2C15.5,15.8,15.6,15.5,15.4,15.3z M3,6c0-2.8,2.2-5,5-5s5,2.2,5,5s-2.2,5-5,5
		S3,8.8,3,6z"/>
</g>
</svg>
