<?xml version="1.0" encoding="UTF-8"?>
<svg width="16px" height="16px" viewBox="0 0 16 16" version="1.1" xmlns="http://www.w3.org/2000/svg" xmlns:xlink="http://www.w3.org/1999/xlink">
    <!-- Generator: Sketch 59 (86127) - https://sketch.com -->
    <title>lingmo-play-love-symbolic-w</title>
    <desc>Created with Sketch.</desc>
    <defs>
        <polygon id="path-1" points="0 -9.73122324e-06 16.0248 -9.73122324e-06 16.0248 14.0149 0 14.0149"></polygon>
    </defs>
    <g id="lingmo-play-love-symbolic-w" stroke="none" stroke-width="1" fill="none" fill-rule="evenodd">
        <g id="编组" transform="translate(0.000000, 1.000000)">
            <mask id="mask-2" fill="white">
                <use xlink:href="#path-1"></use>
            </mask>
            <g id="Clip-2"></g>
            <path d="M4.8248,1.0149 C3.8248,1.0149 2.9248,1.3149 2.1248,2.1149 C0.6248,3.6149 0.6248,5.9149 2.1248,7.4149 L7.6248,12.9149 C7.8248,13.1149 8.1248,13.1149 8.3248,12.9149 L13.8248,7.4149 C14.6248,6.7149 15.0248,5.8149 15.0248,4.8149 C15.0248,3.8149 14.6248,2.9149 13.9258,2.2149 C12.5248,0.7149 10.3248,0.6149 8.7248,2.0149 L8.1248,2.6149 L7.4248,2.0149 C6.6248,1.3149 5.7248,1.0149 4.8248,1.0149 M8.0248,14.0149 C7.6248,14.0149 7.2248,13.9149 6.9248,13.6149 L1.4248,8.1149 C-0.4752,6.2149 -0.4752,3.3149 1.4248,1.4149 C3.3248,-0.3851 6.1248,-0.4851 8.0248,1.2149 C10.0248,-0.4851 12.7248,-0.3851 14.6248,1.4149 C15.5248,2.3149 16.0248,3.5149 16.0248,4.8149 C16.0248,6.1149 15.4258,7.3149 14.5248,8.1149 L9.0248,13.6149 C8.8248,13.8149 8.4258,14.0149 8.0248,14.0149" id="Fill-1" fill="#FFFFFF" mask="url(#mask-2)"></path>
        </g>
    </g>
</svg>