<svg id="图层_2" data-name="图层 2" xmlns="http://www.w3.org/2000/svg" viewBox="0 0 16 16"><defs><style>.cls-1{opacity:0.75;}.cls-2{fill:#fff;}</style></defs><title>media-playlist-repeat-one-symbolic-w</title><g class="cls-1"><path class="cls-2" d="M10,3a.47.47,0,0,0-.5.5A.47.47,0,0,0,10,4a5.08,5.08,0,0,1,5,5,5.08,5.08,0,0,1-5,5H6A5.08,5.08,0,0,1,1,9,5.08,5.08,0,0,1,6,4h.3l-1,.9a.48.48,0,0,0,0,.7c.1.1.2.1.4.1s.3,0,.4-.1L7.9,3.8c.1-.1.1-.2.1-.4a.9.9,0,0,0-.1-.5L6.1,1.1a1.1,1.1,0,0,0-.8,0c-.2.1-.2.5,0,.7L6.5,3H6A6,6,0,0,0,6,15h4A6,6,0,0,0,10,3Z"/><path class="cls-2" d="M9,13V6H7.6l-.1.3c-.1.3-.1.4-.2.5a2.35,2.35,0,0,1-1,.5l.2,1A6.56,6.56,0,0,0,8,7.6H8V13Z"/></g></svg>