<?xml version="1.0" encoding="UTF-8"?>
<svg width="16px" height="16px" viewBox="0 0 16 16" version="1.1" xmlns="http://www.w3.org/2000/svg" xmlns:xlink="http://www.w3.org/1999/xlink">
    <!-- Generator: Sketch 59 (86127) - https://sketch.com -->
    <title>media-playlist-shuffle-symbolic-w</title>
    <desc>Created with Sketch.</desc>
    <g id="media-playlist-shuffle-symbolic-w" stroke="none" stroke-width="1" fill="none" fill-rule="evenodd">
        <g id="media-playlist-shuffle-symbolic" fill="#FFFFFF" fill-rule="nonzero">
            <g id="编组">
                <path d="M14.3,4 L12.7,5.1 C12.5,5.3 12.4,5.6 12.6,5.8 C12.7,5.9 12.8,6 13,6 C13.1,6 13.2,6 13.3,5.9 L15.6,4.3 C15.9,4.1 16,3.8 16,3.5 C16,3.2 15.8,2.9 15.6,2.7 L13.3,1.1 C13.1,0.9 12.8,1 12.6,1.2 C12.4,1.4 12.5,1.7 12.7,1.9 L14.3,3 L11,3 C8.5,3 6.5,5 6.5,7.5 C6.5,9.4 4.9,11 3,11 L0,11 L0,12 L3,12 C5.5,12 7.5,10 7.5,7.5 C7.5,5.6 9.1,4 11,4 L14.3,4 Z" id="路径"></path>
                <path d="M4.7,4.6 L5.3,3.8 C4.7,3.3 3.8,3 2.8,3 L0,3 L0,4 L2.8,4 C3.3,4 4.1,4.1 4.7,4.6 Z" id="路径"></path>
                <path d="M15.6,10.7 L13.3,9.1 C13.1,8.9 12.8,9 12.6,9.2 C12.4,9.4 12.5,9.7 12.7,9.9 L14.3,11 L11.3,11 C10.6,11 9.9,10.8 9.2,10.5 L8.7,11.4 C9.5,11.8 10.3,12.1 11.2,12.1 L14.2,12.1 L12.6,13.2 C12.4,13.4 12.3,13.7 12.5,13.9 C12.6,14 12.8,14.1 12.9,14.1 C13,14.1 13.1,14.1 13.2,14 L15.5,12.4 C15.8,12.2 15.9,11.9 15.9,11.6 C15.9,11.3 15.9,10.9 15.6,10.7 Z" id="路径"></path>
            </g>
        </g>
    </g>
</svg>