<?xml version="1.0" encoding="UTF-8"?>
<svg width="28px" height="28px" viewBox="0 0 28 28" version="1.1" xmlns="http://www.w3.org/2000/svg" xmlns:xlink="http://www.w3.org/1999/xlink">
    <!-- Generator: Sketch 58 (84663) - https://sketch.com -->
    <title>ICon/disk_dark</title>
    <desc>Created with Sketch.</desc>
    <g id="ICon/disk_dark" stroke="none" stroke-width="1" fill="none" fill-rule="evenodd">
        <g id="ICon/garbage">
            <rect id="矩形" fill="#FF6969" opacity="0" x="0" y="0" width="28" height="28"></rect>
            <path d="M20,5 C21.1045695,5 22,5.8954305 22,7 L22,21 C22,22.1045695 21.1045695,23 20,23 L8,23 C6.8954305,23 6,22.1045695 6,21 L6,7 C6,5.8954305 6.8954305,5 8,5 L20,5 Z M14,7 C11.2385763,7 9,9.23857625 9,12 C9,14.7614237 11.2385763,17 14,17 C14.591895,17 15.1597687,16.8971522 15.6867249,16.7083525 L18.1792307,20.7114034 C18.2107282,20.7697046 18.2464551,20.8265958 18.2864745,20.8816779 C18.7734118,21.5518895 19.7114663,21.7004627 20.3816779,21.2135255 C21.0518895,20.7265882 21.2004627,19.7885337 20.7135255,19.1183221 L20.6555046,19.0434631 L20.5937403,18.9732533 L17.622505,15.4463827 C18.4760812,14.549464 19,13.3359159 19,12 C19,9.23857625 16.7614237,7 14,7 Z M9,19 C8.44771525,19 8,19.4477153 8,20 C8,20.5522847 8.44771525,21 9,21 C9.55228475,21 10,20.5522847 10,20 C10,19.4477153 9.55228475,19 9,19 Z M14,11 C14.5522847,11 15,11.4477153 15,12 C15,12.5522847 14.5522847,13 14,13 C13.4477153,13 13,12.5522847 13,12 C13,11.4477153 13.4477153,11 14,11 Z" id="形状结合" fill="#C5CFE0"></path>
        </g>
    </g>
</svg>