<?xml version="1.0" encoding="UTF-8"?>
<svg width="96px" height="97px" viewBox="0 0 96 97" version="1.1" xmlns="http://www.w3.org/2000/svg" xmlns:xlink="http://www.w3.org/1999/xlink">
    <!-- Generator: Sketch 58 (84663) - https://sketch.com -->
    <title>ICON/Startup Programs_dark</title>
    <desc>Created with Sketch.</desc>
    <defs>
        <linearGradient x1="50%" y1="1.09016263%" x2="50%" y2="99.2116034%" id="linearGradient-1">
            <stop stop-color="#FFFFFF" offset="0%"></stop>
            <stop stop-color="#D3E7FB" offset="100%"></stop>
        </linearGradient>
        <linearGradient x1="50%" y1="0%" x2="50%" y2="100%" id="linearGradient-2">
            <stop stop-color="#FFFFFF" offset="0%"></stop>
            <stop stop-color="#FFFFFF" offset="100%"></stop>
        </linearGradient>
        <rect id="path-3" x="0" y="0" width="40" height="32" rx="2"></rect>
        <filter x="-35.0%" y="-31.2%" width="170.0%" height="187.5%" filterUnits="objectBoundingBox" id="filter-4">
            <feOffset dx="0" dy="2" in="SourceAlpha" result="shadowOffsetOuter1"></feOffset>
            <feGaussianBlur stdDeviation="2" in="shadowOffsetOuter1" result="shadowBlurOuter1"></feGaussianBlur>
            <feComposite in="shadowBlurOuter1" in2="SourceAlpha" operator="out" result="shadowBlurOuter1"></feComposite>
            <feColorMatrix values="0 0 0 0 0   0 0 0 0 0   0 0 0 0 0  0 0 0 0.2 0" type="matrix" in="shadowBlurOuter1" result="shadowMatrixOuter1"></feColorMatrix>
            <feOffset dx="0" dy="4" in="SourceAlpha" result="shadowOffsetOuter2"></feOffset>
            <feGaussianBlur stdDeviation="4" in="shadowOffsetOuter2" result="shadowBlurOuter2"></feGaussianBlur>
            <feComposite in="shadowBlurOuter2" in2="SourceAlpha" operator="out" result="shadowBlurOuter2"></feComposite>
            <feColorMatrix values="0 0 0 0 0.0053250477   0 0 0 0 0.41702088   0 0 0 0 0.755293252  0 0 0 0.4 0" type="matrix" in="shadowBlurOuter2" result="shadowMatrixOuter2"></feColorMatrix>
            <feMerge>
                <feMergeNode in="shadowMatrixOuter1"></feMergeNode>
                <feMergeNode in="shadowMatrixOuter2"></feMergeNode>
            </feMerge>
        </filter>
        <linearGradient x1="50%" y1="0%" x2="50%" y2="100%" id="linearGradient-5">
            <stop stop-color="#44BAFE" offset="0%"></stop>
            <stop stop-color="#419EFF" offset="100%"></stop>
        </linearGradient>
        <rect id="path-6" x="0" y="0" width="40" height="32" rx="2"></rect>
        <filter x="-35.0%" y="-31.2%" width="170.0%" height="187.5%" filterUnits="objectBoundingBox" id="filter-7">
            <feOffset dx="0" dy="2" in="SourceAlpha" result="shadowOffsetOuter1"></feOffset>
            <feGaussianBlur stdDeviation="2" in="shadowOffsetOuter1" result="shadowBlurOuter1"></feGaussianBlur>
            <feComposite in="shadowBlurOuter1" in2="SourceAlpha" operator="out" result="shadowBlurOuter1"></feComposite>
            <feColorMatrix values="0 0 0 0 0   0 0 0 0 0   0 0 0 0 0  0 0 0 0.2 0" type="matrix" in="shadowBlurOuter1" result="shadowMatrixOuter1"></feColorMatrix>
            <feOffset dx="0" dy="4" in="SourceAlpha" result="shadowOffsetOuter2"></feOffset>
            <feGaussianBlur stdDeviation="4" in="shadowOffsetOuter2" result="shadowBlurOuter2"></feGaussianBlur>
            <feComposite in="shadowBlurOuter2" in2="SourceAlpha" operator="out" result="shadowBlurOuter2"></feComposite>
            <feColorMatrix values="0 0 0 0 0.0053250477   0 0 0 0 0.41702088   0 0 0 0 0.755293252  0 0 0 0.4 0" type="matrix" in="shadowBlurOuter2" result="shadowMatrixOuter2"></feColorMatrix>
            <feMerge>
                <feMergeNode in="shadowMatrixOuter1"></feMergeNode>
                <feMergeNode in="shadowMatrixOuter2"></feMergeNode>
            </feMerge>
        </filter>
        <rect id="path-8" x="0" y="0" width="40" height="32" rx="2"></rect>
        <filter x="-35.0%" y="-31.2%" width="170.0%" height="187.5%" filterUnits="objectBoundingBox" id="filter-9">
            <feOffset dx="0" dy="2" in="SourceAlpha" result="shadowOffsetOuter1"></feOffset>
            <feGaussianBlur stdDeviation="2" in="shadowOffsetOuter1" result="shadowBlurOuter1"></feGaussianBlur>
            <feComposite in="shadowBlurOuter1" in2="SourceAlpha" operator="out" result="shadowBlurOuter1"></feComposite>
            <feColorMatrix values="0 0 0 0 0   0 0 0 0 0   0 0 0 0 0  0 0 0 0.2 0" type="matrix" in="shadowBlurOuter1" result="shadowMatrixOuter1"></feColorMatrix>
            <feOffset dx="0" dy="4" in="SourceAlpha" result="shadowOffsetOuter2"></feOffset>
            <feGaussianBlur stdDeviation="4" in="shadowOffsetOuter2" result="shadowBlurOuter2"></feGaussianBlur>
            <feComposite in="shadowBlurOuter2" in2="SourceAlpha" operator="out" result="shadowBlurOuter2"></feComposite>
            <feColorMatrix values="0 0 0 0 0.0053250477   0 0 0 0 0.41702088   0 0 0 0 0.755293252  0 0 0 0.4 0" type="matrix" in="shadowBlurOuter2" result="shadowMatrixOuter2"></feColorMatrix>
            <feMerge>
                <feMergeNode in="shadowMatrixOuter1"></feMergeNode>
                <feMergeNode in="shadowMatrixOuter2"></feMergeNode>
            </feMerge>
        </filter>
        <rect id="path-10" x="0" y="0" width="40" height="32" rx="2"></rect>
        <filter x="-35.0%" y="-31.2%" width="170.0%" height="187.5%" filterUnits="objectBoundingBox" id="filter-11">
            <feOffset dx="0" dy="2" in="SourceAlpha" result="shadowOffsetOuter1"></feOffset>
            <feGaussianBlur stdDeviation="2" in="shadowOffsetOuter1" result="shadowBlurOuter1"></feGaussianBlur>
            <feComposite in="shadowBlurOuter1" in2="SourceAlpha" operator="out" result="shadowBlurOuter1"></feComposite>
            <feColorMatrix values="0 0 0 0 0   0 0 0 0 0   0 0 0 0 0  0 0 0 0.2 0" type="matrix" in="shadowBlurOuter1" result="shadowMatrixOuter1"></feColorMatrix>
            <feOffset dx="0" dy="4" in="SourceAlpha" result="shadowOffsetOuter2"></feOffset>
            <feGaussianBlur stdDeviation="4" in="shadowOffsetOuter2" result="shadowBlurOuter2"></feGaussianBlur>
            <feComposite in="shadowBlurOuter2" in2="SourceAlpha" operator="out" result="shadowBlurOuter2"></feComposite>
            <feColorMatrix values="0 0 0 0 0.0053250477   0 0 0 0 0.41702088   0 0 0 0 0.755293252  0 0 0 0.4 0" type="matrix" in="shadowBlurOuter2" result="shadowMatrixOuter2"></feColorMatrix>
            <feMerge>
                <feMergeNode in="shadowMatrixOuter1"></feMergeNode>
                <feMergeNode in="shadowMatrixOuter2"></feMergeNode>
            </feMerge>
        </filter>
        <linearGradient x1="50%" y1="0%" x2="50%" y2="100%" id="linearGradient-12">
            <stop stop-color="#FFFBFE" offset="0%"></stop>
            <stop stop-color="#C6EAF1" offset="100%"></stop>
        </linearGradient>
        <circle id="path-13" cx="48" cy="49" r="13"></circle>
        <filter x="-61.5%" y="-42.3%" width="223.1%" height="223.1%" filterUnits="objectBoundingBox" id="filter-14">
            <feOffset dx="0" dy="5" in="SourceAlpha" result="shadowOffsetOuter1"></feOffset>
            <feGaussianBlur stdDeviation="4.5" in="shadowOffsetOuter1" result="shadowBlurOuter1"></feGaussianBlur>
            <feColorMatrix values="0 0 0 0 0.0652971561   0 0 0 0 0.450758935   0 0 0 0 0.743178216  0 0 0 0.467903191 0" type="matrix" in="shadowBlurOuter1"></feColorMatrix>
        </filter>
        <filter x="-36.5%" y="-17.3%" width="173.1%" height="173.1%" filterUnits="objectBoundingBox" id="filter-15">
            <feOffset dx="0" dy="1" in="SourceAlpha" result="shadowOffsetInner1"></feOffset>
            <feComposite in="shadowOffsetInner1" in2="SourceAlpha" operator="arithmetic" k2="-1" k3="1" result="shadowInnerInner1"></feComposite>
            <feColorMatrix values="0 0 0 0 1   0 0 0 0 1   0 0 0 0 1  0 0 0 1 0" type="matrix" in="shadowInnerInner1"></feColorMatrix>
        </filter>
        <linearGradient x1="38.9513531%" y1="90.4226992%" x2="66.3663468%" y2="9.57730078%" id="linearGradient-16">
            <stop stop-color="#11B4DD" offset="0%"></stop>
            <stop stop-color="#40EA98" offset="100%"></stop>
        </linearGradient>
        <linearGradient x1="50%" y1="0%" x2="50%" y2="98.1564892%" id="linearGradient-17">
            <stop stop-color="#27EC95" offset="0%"></stop>
            <stop stop-color="#1188EE" offset="100%"></stop>
        </linearGradient>
        <path d="M43.639457,43.620613 C43.9036821,43.4349597 44.2697031,43.4953622 44.4587733,43.7549233 C44.6461876,44.0129404 44.587119,44.3736063 44.3229303,44.5585526 C43.5204101,45.1259484 42.8540059,45.8760955 42.3971257,46.7308818 C41.9165889,47.6281005 41.6730359,48.5993015 41.6730359,49.6186272 C41.6730359,51.2825864 42.3315243,52.8460734 43.5272341,54.0225904 C44.7216337,55.1988471 46.3098961,55.8463454 47.9997179,55.8463454 C49.6885933,55.8463454 51.2777839,55.1988471 52.4735301,54.0225904 C53.6684938,52.8460734 54.326236,51.2825492 54.326236,49.6186458 C54.326236,48.6009013 54.0834292,47.6273936 53.6022919,46.7308818 C53.1454117,45.876821 52.4781886,45.1259484 51.6763053,44.5592037 C51.4121711,44.374462 51.3515922,44.0145588 51.5405714,43.7549419 C51.7294779,43.4967946 52.0956626,43.435741 52.3585412,43.6221756 C53.3092604,44.2922574 54.0990243,45.1818863 54.6408496,46.1951661 C55.2033471,47.2440141 55.5001636,48.4272839 55.5,49.6202084 C55.5,50.6171739 55.3014489,51.5828127 54.9095331,52.4937228 C54.5322298,53.3728226 53.9910959,54.1620536 53.3023636,54.8397624 C52.613886,55.5180851 51.8120937,56.0493548 50.9190964,56.4220938 C49.9934531,56.8062174 49.0117439,57 47.9996997,57 C46.9877283,57 46.0043631,56.8055105 45.0803757,56.4191732 C44.1871055,56.0484619 43.3854587,55.5159087 42.6976545,54.8382184 C42.0079941,54.160584 41.4678429,53.3713344 41.0899209,52.4921788 C40.6986238,51.582236 40.5,50.6156298 40.5,49.6187016 C40.5,48.4265398 40.7975081,47.2426933 41.3584588,46.193864 C41.9017945,45.1803236 42.6901936,44.2906762 43.639457,43.620613 Z" id="path-18"></path>
        <filter x="-46.7%" y="-37.1%" width="193.3%" height="203.8%" filterUnits="objectBoundingBox" id="filter-19">
            <feOffset dx="0" dy="2" in="SourceAlpha" result="shadowOffsetOuter1"></feOffset>
            <feGaussianBlur stdDeviation="2" in="shadowOffsetOuter1" result="shadowBlurOuter1"></feGaussianBlur>
            <feComposite in="shadowBlurOuter1" in2="SourceAlpha" operator="out" result="shadowBlurOuter1"></feComposite>
            <feColorMatrix values="0 0 0 0 0   0 0 0 0 0.505882353   0 0 0 0 1  0 0 0 0.5 0" type="matrix" in="shadowBlurOuter1"></feColorMatrix>
        </filter>
        <linearGradient x1="49.8273649%" y1="100%" x2="50.2557242%" y2="0%" id="linearGradient-20">
            <stop stop-color="#11B4DD" offset="0%"></stop>
            <stop stop-color="#40EA98" offset="100%"></stop>
        </linearGradient>
        <path d="M48,41 C48.2761424,41 48.5,41.2238576 48.5,41.5 L48.5,48.5 C48.5,48.7761424 48.2761424,49 48,49 C47.7238576,49 47.5,48.7761424 47.5,48.5 L47.5,41.5 C47.5,41.2238576 47.7238576,41 48,41 Z" id="path-21"></path>
        <filter x="-700.0%" y="-62.5%" width="1500.0%" height="275.0%" filterUnits="objectBoundingBox" id="filter-22">
            <feOffset dx="0" dy="2" in="SourceAlpha" result="shadowOffsetOuter1"></feOffset>
            <feGaussianBlur stdDeviation="2" in="shadowOffsetOuter1" result="shadowBlurOuter1"></feGaussianBlur>
            <feColorMatrix values="0 0 0 0 0   0 0 0 0 0.505882353   0 0 0 0 1  0 0 0 0.5 0" type="matrix" in="shadowBlurOuter1"></feColorMatrix>
        </filter>
    </defs>
    <g id="ICON/Startup-Programs_dark" stroke="none" stroke-width="1" fill="none" fill-rule="evenodd">
        <g id="编组-9">
            <rect id="矩形" fill="#FF6969" opacity="0" x="0" y="0" width="96" height="96"></rect>
            <g id="编组-3" transform="translate(5.000000, 11.000000)">
                <g id="矩形">
                    <use fill="black" fill-opacity="1" filter="url(#filter-4)" xlink:href="#path-3"></use>
                    <rect stroke="url(#linearGradient-2)" stroke-width="1" stroke-linejoin="square" fill="url(#linearGradient-1)" fill-rule="evenodd" x="0.5" y="0.5" width="39" height="31" rx="2"></rect>
                </g>
                <path d="M2,1 L38,1 C38.5522847,1 39,1.44771525 39,2 L39,7 L39,7 L1,7 L1,2 C1,1.44771525 1.44771525,1 2,1 Z" id="矩形" fill="url(#linearGradient-5)"></path>
            </g>
            <g id="编组-3备份-2" transform="translate(5.000000, 53.000000)">
                <g id="矩形">
                    <use fill="black" fill-opacity="1" filter="url(#filter-7)" xlink:href="#path-6"></use>
                    <rect stroke="url(#linearGradient-2)" stroke-width="1" stroke-linejoin="square" fill="url(#linearGradient-1)" fill-rule="evenodd" x="0.5" y="0.5" width="39" height="31" rx="2"></rect>
                </g>
                <path d="M2,1 L38,1 C38.5522847,1 39,1.44771525 39,2 L39,7 L39,7 L1,7 L1,2 C1,1.44771525 1.44771525,1 2,1 Z" id="矩形" fill="url(#linearGradient-5)"></path>
            </g>
            <g id="编组-3备份" transform="translate(51.000000, 11.000000)">
                <g id="矩形">
                    <use fill="black" fill-opacity="1" filter="url(#filter-9)" xlink:href="#path-8"></use>
                    <rect stroke="url(#linearGradient-2)" stroke-width="1" stroke-linejoin="square" fill="url(#linearGradient-1)" fill-rule="evenodd" x="0.5" y="0.5" width="39" height="31" rx="2"></rect>
                </g>
                <path d="M2,1 L38,1 C38.5522847,1 39,1.44771525 39,2 L39,7 L39,7 L1,7 L1,2 C1,1.44771525 1.44771525,1 2,1 Z" id="矩形" fill="url(#linearGradient-5)"></path>
            </g>
            <g id="编组-3备份-3" transform="translate(51.000000, 53.000000)">
                <g id="矩形">
                    <use fill="black" fill-opacity="1" filter="url(#filter-11)" xlink:href="#path-10"></use>
                    <rect stroke="url(#linearGradient-2)" stroke-width="1" stroke-linejoin="square" fill="url(#linearGradient-1)" fill-rule="evenodd" x="0.5" y="0.5" width="39" height="31" rx="2"></rect>
                </g>
                <path d="M2,1 L38,1 C38.5522847,1 39,1.44771525 39,2 L39,7 L39,7 L1,7 L1,2 C1,1.44771525 1.44771525,1 2,1 Z" id="矩形" fill="url(#linearGradient-5)"></path>
            </g>
            <circle id="椭圆形" fill="#68F3FF" opacity="0.02" cx="48" cy="49" r="48"></circle>
            <circle id="椭圆形备份-5" fill="#68F3FF" opacity="0.0544782366" cx="48" cy="49" r="34"></circle>
            <circle id="椭圆形备份-2" fill="#68F3FF" opacity="0.2" cx="48" cy="49" r="22"></circle>
            <g id="椭圆形备份">
                <use fill="black" fill-opacity="1" filter="url(#filter-14)" xlink:href="#path-13"></use>
                <use fill="url(#linearGradient-12)" fill-rule="evenodd" xlink:href="#path-13"></use>
                <use fill="black" fill-opacity="1" filter="url(#filter-15)" xlink:href="#path-13"></use>
            </g>
            <g id="路径" fill-rule="nonzero">
                <use fill="black" fill-opacity="1" filter="url(#filter-19)" xlink:href="#path-18"></use>
                <path stroke="url(#linearGradient-17)" stroke-width="1" d="M43.9273542,44.0294106 C43.0418095,44.6545998 42.3057049,45.4851364 41.79936,46.4296734 C41.276655,47.4069933 41,48.5099797 41,49.6187016 C41,50.5474701 41.184692,51.4468898 41.5492772,52.2947156 C41.9019833,53.1152116 42.4054782,53.8501682 43.0485795,54.4820561 C43.6913745,55.1153989 44.4391758,55.6117247 45.2732544,55.957873 C46.133867,56.3177122 47.0514444,56.5 47.9996997,56.5 C48.9472482,56.5 49.863725,56.3187091 50.7264996,55.9606759 C51.5622276,55.6118413 52.3098665,55.1157092 52.9516738,54.4833684 C53.5948516,53.8504851 54.0987279,53.1151193 54.4502396,52.2961134 C54.8153591,51.4474845 55,50.5490706 55,49.6201398 C55.0001523,48.5096505 54.7237077,47.407592 54.199928,46.4309376 C53.6953812,45.487373 52.9583444,44.6566381 52.069296,44.0300203 C52.0301494,44.0022573 51.9722305,44.0117373 51.9448158,44.0491977 C51.9206689,44.0823703 51.9278542,44.1249804 51.9648879,44.1508901 C52.8312197,44.7631848 53.5501623,45.5734341 54.0428552,46.4944416 C54.5622146,47.4621733 54.826236,48.5166937 54.826236,49.6186458 C54.826236,51.4168174 54.1145212,53.1086015 52.8241667,54.3790368 C51.5349157,55.6472742 49.8198058,56.3463454 47.9997179,56.3463454 C46.1787816,56.3463454 44.4644575,55.6473343 43.1765526,54.3789926 C41.8854132,53.1085777 41.1730359,51.4167328 41.1730359,49.6186272 C41.1730359,48.517006 41.4369035,47.4647054 41.9561623,46.4951885 C42.4491209,45.5729025 43.1672168,44.7633156 44.0361843,44.148947 C44.070609,44.1248479 44.0778919,44.0813438 44.0546265,44.049313 C44.0263785,44.0105334 43.9684549,44.0008955 43.9273553,44.0294118 Z M43.9273553,44.0294118 C43.9272069,44.0295148 43.9270586,44.0296183 43.9269106,44.0297223 L43.9277971,44.029098 C43.9276495,44.0292022 43.9275018,44.0293064 43.9273542,44.0294106 Z" stroke-linejoin="square" fill="url(#linearGradient-16)" fill-rule="evenodd"></path>
            </g>
            <g id="路径" fill-rule="nonzero">
                <use fill="black" fill-opacity="1" filter="url(#filter-22)" xlink:href="#path-21"></use>
                <use fill="url(#linearGradient-20)" xlink:href="#path-21"></use>
            </g>
        </g>
    </g>
</svg>