<?xml version="1.0" encoding="UTF-8"?>
<svg width="64px" height="64px" viewBox="0 0 64 64" version="1.1" xmlns="http://www.w3.org/2000/svg" xmlns:xlink="http://www.w3.org/1999/xlink">
    <title>编组 3</title>
    <g id="页面-1" stroke="none" stroke-width="1" fill="none" fill-rule="evenodd">
        <g id="PC-相机2" transform="translate(-1009.000000, -481.000000)">
            <g id="编组-6" transform="translate(1009.000000, 401.000000)">
                <g id="编组-3" transform="translate(0.000000, 80.000000)">
                    <rect id="矩形" fill-opacity="0.1" fill="#FFFFFF" x="2" y="2" width="60" height="60" rx="30"></rect>
                    <circle id="椭圆形" fill="#FFFFFF" cx="32" cy="32" r="21"></circle>
                    <path d="M32,2 C48.5685425,2 62,15.4314575 62,32 C62,48.5685425 48.5685425,62 32,62 C15.4314575,62 2,48.5685425 2,32 C2,15.4314575 15.4314575,2 32,2 Z M32,6 C17.6405965,6 6,17.6405965 6,32 C6,46.3594035 17.6405965,58 32,58 C46.3594035,58 58,46.3594035 58,32 C58,17.6405965 46.3594035,6 32,6 Z" id="矩形" fill="#FFFFFF" fill-rule="nonzero"></path>
                    <path d="M32,0 C14.326888,0 0,14.326888 0,32 C0,49.673112 14.326888,64 32,64 C49.673112,64 64,49.673112 64,32 C64,14.326888 49.673112,0 32,0 Z M32,2 C48.5685425,2 62,15.4314575 62,32 C62,48.5685425 48.5685425,62 32,62 C15.4314575,62 2,48.5685425 2,32 C2,15.4314575 15.4314575,2 32,2 Z" id="矩形" fill-opacity="0.1" fill="#000000" fill-rule="nonzero"></path>
                </g>
            </g>
        </g>
    </g>
</svg>