<?xml version="1.0" encoding="utf-8"?>
<!-- Generator: Adobe Illustrator 24.0.0, SVG Export Plug-In . SVG Version: 6.00 Build 0)  -->
<svg version="1.1" id="图层_1" xmlns="http://www.w3.org/2000/svg" xmlns:xlink="http://www.w3.org/1999/xlink" x="0px" y="0px"
	 viewBox="0 0 48 48" style="enable-background:new 0 0 48 48;" xml:space="preserve">
<style type="text/css">
	.st0{opacity:0.7;fill:#FFFFFF;enable-background:new    ;}
	.st1{opacity:0.25;fill:#FFFFFF;enable-background:new    ;}
	.st2{opacity:0.85;fill:#FFFFFF;enable-background:new    ;}
	.st3{opacity:0.3;fill:#FFFFFF;enable-background:new    ;}
	.st4{fill:#FFFFFF;}
	.st5{opacity:0.4;fill:#FFFFFF;enable-background:new    ;}
	.st6{opacity:0.1;fill:#FFFFFF;enable-background:new    ;}
	.st7{opacity:0.55;fill:#FFFFFF;enable-background:new    ;}
</style>
<path class="st0" d="M41,41L41,41c-1.2,1.2-3.1,1.2-4.2,0l-4.4-4.4c-1.2-1.2-1.2-3.1,0-4.2l0,0c1.2-1.2,3.1-1.2,4.2,0l4.4,4.4
	C42.1,37.9,42.1,39.8,41,41z"/>
<path class="st1" d="M15.6,15.6L15.6,15.6c-1.2,1.2-3.1,1.2-4.2,0L7,11.3C5.8,10.1,5.8,8.2,7,7l0,0c1.2-1.2,3.1-1.2,4.2,0l4.4,4.4
	C16.8,12.6,16.8,14.5,15.6,15.6z"/>
<path class="st2" d="M48,24L48,24c0,1.7-1.3,3-3,3h-5c-1.7,0-3-1.3-3-3l0,0c0-1.7,1.3-3,3-3h5C46.7,21,48,22.3,48,24z"/>
<path class="st3" d="M11,24L11,24c0,1.7-1.3,3-3,3H3c-1.7,0-3-1.3-3-3l0,0c0-1.7,1.3-3,3-3h5C9.7,21,11,22.3,11,24z"/>
<path class="st4" d="M41,7L41,7c1.2,1.2,1.2,3.1,0,4.2l-4.4,4.4c-1.2,1.2-3.1,1.2-4.2,0l0,0c-1.2-1.2-1.2-3.1,0-4.2L36.7,7
	C37.9,5.9,39.8,5.9,41,7z"/>
<path class="st5" d="M15.6,32.4L15.6,32.4c1.2,1.2,1.2,3.1,0,4.2L11.3,41c-1.2,1.2-3.1,1.2-4.2,0l0,0c-1.2-1.2-1.2-3.1,0-4.2
	l4.4-4.4C12.6,31.2,14.5,31.2,15.6,32.4z"/>
<path class="st6" d="M24,0L24,0c1.7,0,3,1.3,3,3v5c0,1.7-1.3,3-3,3l0,0c-1.7,0-3-1.3-3-3V3C21,1.3,22.3,0,24,0z"/>
<path class="st7" d="M24,37L24,37c1.7,0,3,1.3,3,3v5c0,1.7-1.3,3-3,3l0,0c-1.7,0-3-1.3-3-3v-5C21,38.3,22.3,37,24,37z"/>
</svg>
